<svg xmlns="http://www.w3.org/2000/svg" xml:space="preserve" width="66.67" height="73.33"><defs><clipPath clipPathUnits="userSpaceOnUse" id="a"><path d="M0 55h50V0H0Z"/></clipPath><clipPath clipPathUnits="userSpaceOnUse" id="b"><path d="M35.25 22.05a4.86 4.86 0 0 1 9.72 0 4.86 4.86 0 1 1-9.72 0"/></clipPath><clipPath clipPathUnits="userSpaceOnUse" id="c"><path d="M0 55h50V0H0Z"/></clipPath></defs><g clip-path="url(#a)" transform="matrix(1.33333 0 0 -1.33333 0 73.33)"><path d="M19.2 6.63H7.7c-.7 0-1.28.57-1.28 1.27V18a.73.73 0 0 0 1.46 0V8.1H19.2a.73.73 0 1 0 0-1.46" fill="#0098da"/></g><g clip-path="url(#b)" transform="matrix(1.33333 0 0 -1.33333 0 73.33)"><path d="M34.46 17.2h14.57v9.71H34.46Z" fill="#d00027"/></g><g clip-path="url(#c)" transform="matrix(1.33333 0 0 -1.33333 0 73.33)"><path d="M39.71 24.6a2.49 2.49 0 1 0 0-4.97 2.49 2.49 0 0 0 0 4.98" fill="#fff"/><path d="M40.33 24.1a1.99 1.99 0 1 0 0-3.97 1.99 1.99 0 0 0 0 3.98" fill="#d00027"/><path d="m43.53 22.12.53.73-.86-.28-.53.73v-.9l-.86-.28.86-.28v-.9l.53.73.86-.28z" fill="#fff"/><path d="M21.27 40c-.22 0-.43.1-.58.28 0 .02-.4.5-1.16.5-.5 0-.87-.48-.87-.49a.73.73 0 0 0-1.01-.14.72.72 0 0 0-.16 1c.08.11.82 1.08 2.04 1.08 1.2 0 2.02-.67 2.32-1.06a.73.73 0 0 0-.58-1.17M24.38 40c-.15 0-.3.04-.42.14-.33.23-.4.7-.16 1.01.08.11.81 1.08 2.04 1.08 1.19 0 2.01-.67 2.32-1.06a.73.73 0 1 0-1.16-.89c0 .02-.4.5-1.16.5-.49 0-.87-.48-.87-.48a.73.73 0 0 0-.59-.3M22.6 33.64c-1.79 0-2.89 1.53-2.94 1.6a.73.73 0 0 0 1.2.84c0-.02.72-.99 1.74-.99 1.43 0 2.18.96 2.22 1a.72.72 0 0 0 1.16-.87 4.35 4.35 0 0 0-3.38-1.58M6.61 26.55c-.7 0-1.24.3-1.33.34A.73.73 0 0 0 6 28.16c.02-.01.54-.28 1-.08.68.32.84.92.85.94.1.39.49.63.88.53.38-.1.62-.48.53-.86a3.02 3.02 0 0 0-1.66-1.93c-.34-.15-.67-.2-.98-.2M15.21 26.55c-.3 0-.63.06-.97.21a3.02 3.02 0 0 0-1.67 1.93.73.73 0 0 0 1.42.32c0-.01.17-.61.85-.93.46-.2.99.08 1 .08.35.19.79.06.98-.29a.72.72 0 0 0-.28-.98 2.9 2.9 0 0 0-1.33-.34M13.4 22.58c-.23 0-.45.1-.6.3-.01.02-.72.99-1.74.99-1.44 0-2.21-.99-2.22-1a.73.73 0 0 0-1.17.86c.05.07 1.2 1.6 3.39 1.6 1.78 0 2.89-1.54 2.93-1.6a.73.73 0 0 0-.6-1.15" fill="#0098da"/><path d="M7.15 34.84c-.4 0-.73.33-.73.73V49.4c0 .7.57 1.27 1.27 1.27h21.8c.7 0 1.26-.57 1.26-1.27v-3.33a.73.73 0 0 0-1.45 0v3.14H7.88V35.57c0-.4-.33-.73-.73-.73" fill="#0098da"/><path d="M47.73 45.36h.01zm0-42.6H19.75c-.7 0-1.27.57-1.27 1.27v18.4a.73.73 0 0 0 1.45 0V4.22h27.62v41.14H28.19a.73.73 0 0 0 0 1.45h19.54c.7 0 1.27-.57 1.27-1.27V4.04c0-.7-.57-1.27-1.27-1.27" fill="#0098da"/><path d="M44 37.2h-7.8a.73.73 0 0 0 0 1.46H44a.73.73 0 1 0 0-1.45M44 34.13h-7.8a.73.73 0 0 0 0 1.45H44c.4 0 .73-.32.73-.72 0-.4-.32-.73-.73-.73M44 31.05h-7.8a.73.73 0 0 0 0 1.46H44a.73.73 0 1 0 0-1.45M31.27 24.15h-7.8a.73.73 0 0 0 0 1.45h7.8a.73.73 0 0 0 0-1.45M31.27 21.07h-7.8a.73.73 0 1 0 0 1.45h7.8a.73.73 0 1 0 0-1.45M31.27 18h-7.8a.73.73 0 0 0 0 1.45h7.8a.73.73 0 0 0 0-1.46M22.83 28.45c-1 0-2 .15-2.95.44a.73.73 0 1 0 .43 1.4 8.47 8.47 0 1 1-5.32 4.9.73.73 0 0 0-1.35-.55 9.92 9.92 0 1 0 19.1 3.73 9.92 9.92 0 0 0-9.91-9.92" fill="#0098da"/><path d="M10.91 16.47a9.92 9.92 0 0 0-9.9 10.48c.03.4.36.7.77.69.4-.02.71-.37.69-.77a8.47 8.47 0 1 1 16.9-.49 8.47 8.47 0 0 1-14.44 5.98.73.73 0 0 0-1.03 1.03 9.92 9.92 0 1 0 7-16.92" fill="#0098da"/><path d="M3.47 30.36a.87.87 0 1 0-1.74 0 .87.87 0 0 0 1.74 0M43.7 5.1c-.56 0-1.64.2-1.64.74 0 .25.22.49.5.49.12 0 .25-.04.4-.1.18-.06.42-.15.76-.15.53 0 .8.24.8.66 0 .35-.18.47-.32.53-.16.07-.35.14-.56.2-.76.24-1.58.5-1.58 1.61 0 1 .7 1.6 1.8 1.6.45 0 1.54-.11 1.54-.7 0-.25-.2-.48-.54-.48-.14 0-.24.05-.37.09a1.5 1.5 0 0 1-.59.11c-.38 0-.73-.13-.73-.58 0-.34.19-.46.32-.52.2-.1.39-.16.56-.21.75-.24 1.58-.5 1.58-1.6 0-1.07-.82-1.7-1.92-1.7m-3.37 4.54h-.82V5.6c0-.26-.25-.5-.54-.5-.3 0-.54.24-.54.5v4.04h-.82c-.3 0-.54.23-.54.49 0 .22.24.5.54.5h2.72c.28 0 .54-.22.54-.5 0-.26-.25-.49-.54-.49M35.4 5.1c-.27 0-.41.16-.5.3l-1.03 1.7-1.03-1.7v.02c-.08-.14-.22-.32-.49-.32-.28 0-.52.25-.52.5 0 .09.04.2.07.26L33.24 8 32 9.93a.63.63 0 0 0-.06.27c0 .24.24.48.52.48.24 0 .42-.17.53-.35l.87-1.44.87 1.44c.1.14.27.35.54.35s.51-.22.51-.5a.69.69 0 0 0-.07-.25L34.5 8l1.34-2.14a.6.6 0 0 0 .07-.26c0-.25-.25-.5-.51-.5m-5.38.07h-2.04c-.38 0-.72.13-.72.55v4.35c0 .27.26.54.6.54h2.09c.29 0 .54-.23.54-.5 0-.28-.25-.48-.54-.48h-1.6V8.4h1.45c.27 0 .53-.21.53-.49s-.23-.5-.53-.5h-1.46V6.16h1.68c.29 0 .54-.22.54-.48 0-.28-.24-.5-.54-.5m-4.71 4.46h-.82V5.6c0-.26-.25-.5-.54-.5-.3 0-.54.24-.54.5v4.04h-.82c-.3 0-.54.23-.54.49 0 .22.24.5.54.5h2.72c.27 0 .54-.22.54-.5 0-.26-.25-.49-.54-.49M18.87 3.5h29.4v9.86h-29.4z" fill="#0098da"/></g></svg>