<svg xmlns="http://www.w3.org/2000/svg" xml:space="preserve" width="69.33" height="71.31"><defs><clipPath clipPathUnits="userSpaceOnUse" id="a"><path d="M0 53.48h52V0H0Z"/></clipPath></defs><g clip-path="url(#a)" transform="matrix(1.33333 0 0 -1.33333 0 71.31)"><path d="M19.86 6.21H7.98c-.76 0-1.39.63-1.39 1.4v10.41a.84.84 0 0 0 1.67 0V7.88h11.6a.84.84 0 0 0 0-1.67" fill="#ffffff"/><path d="M49.84 3.06H19.5v10.16h30.32zM18.7 40.62a.84.84 0 0 0-.68 1.33c.09.11.87 1.14 2.18 1.14a3.16 3.16 0 0 0 2.45-1.13.84.84 0 0 0-1.32-1.01c-.01 0-.4.47-1.13.47-.47 0-.82-.45-.83-.46a.83.83 0 0 0-.67-.34M25.2 40.62a.84.84 0 0 0-.67 1.33c.08.11.87 1.14 2.17 1.14a3.15 3.15 0 0 0 2.46-1.13.84.84 0 0 0-1.33-1.01s-.4.47-1.13.47c-.46 0-.82-.45-.83-.46a.83.83 0 0 0-.67-.34M23.36 34.06c-1.89 0-3.05 1.62-3.1 1.68a.83.83 0 0 0 1.36.97c.01 0 .73-.98 1.74-.98 1.43 0 2.19.96 2.22 1a.83.83 0 0 0 1.34-1 4.58 4.58 0 0 0-3.56-1.67M6.87 26.75c-.74 0-1.32.31-1.4.36a.84.84 0 0 0 .8 1.46c.02-.01.53-.27.95-.07.67.3.83.88.84.9a.83.83 0 0 0 1.62-.39A3.15 3.15 0 0 0 7.91 27a2.5 2.5 0 0 0-1.04-.23M15.74 26.75c-.32 0-.68.06-1.04.23a3.15 3.15 0 0 0-1.77 2.04.83.83 0 0 0 1.63.37s.17-.59.84-.9c.42-.2.94.08.94.08.4.22.91.07 1.13-.33.22-.4.08-.9-.32-1.13a3.09 3.09 0 0 0-1.4-.36M13.87 22.65a.83.83 0 0 0-.68.35c-.02.03-.73.98-1.73.98-1.45 0-2.21-.98-2.22-.99a.84.84 0 1 0-1.34 1 4.58 4.58 0 0 0 3.56 1.66c1.88 0 3.04-1.61 3.1-1.68a.84.84 0 0 0-.69-1.32" fill="#ffffff"/><path d="M7.43 35.19a.95.95 0 0 0-.95.94v14.28c0 .83.68 1.5 1.5 1.5h22.48c.83 0 1.5-.67 1.5-1.5v-3.43a.95.95 0 0 0-1.89 0v3.04H8.37V36.13a.95.95 0 0 0-.94-.94" fill="#ffffff"/><path d="M49.28 46.03zm0-43.92H20.42c-.83 0-1.5.67-1.5 1.5V21.6c0 .52.42.94.94.94s.94.58.94.06V4H48.9v42.03H29.12a.95.95 0 1 0 0 1.9h20.16c.83 0 1.5-.68 1.5-1.5V3.6c0-.83-.67-1.5-1.5-1.5" fill="#ffffff"/><path d="M45.43 37.74H37.4a.84.84 0 0 0 0 1.67h8.04a.84.84 0 0 0 0-1.67M45.43 34.57H37.4a.84.84 0 0 0 0 1.67h8.04a.84.84 0 0 0 0-1.67M45.43 31.4H37.4a.84.84 0 0 0 0 1.66h8.04a.84.84 0 0 0 0-1.67M32.3 24.27h-8.04a.84.84 0 0 0 0 1.67h8.04a.84.84 0 0 0 0-1.67M32.3 21.1h-8.04a.84.84 0 0 0 0 1.67h8.04a.84.84 0 0 0 0-1.67M32.3 17.93h-8.04a.84.84 0 0 0 0 1.67h8.04a.84.84 0 0 0 0-1.67M23.6 28.7c-1.05 0-2.08.16-3.07.47a.84.84 0 0 0 .5 1.6 8.65 8.65 0 0 1 11.2 8.25 8.65 8.65 0 1 1-16.64-3.25.84.84 0 0 0-1.55-.63 10.32 10.32 0 1 0 19.86 3.87c0-5.68-4.62-10.3-10.3-10.3" fill="#ffffff"/><path d="M11.3 16.36a10.32 10.32 0 0 0-10.28 10.9.83.83 0 0 0 1.67-.1l-.02-.5a8.65 8.65 0 0 1 17.27 0A8.65 8.65 0 0 1 5.2 32.77a.84.84 0 0 0-1.18 1.18 10.32 10.32 0 1 0 7.29-17.6" fill="#ffffff"/><path d="M3.63 30.77a.9.9 0 1 0-1.8 0 .9.9 0 0 0 1.8 0" fill="#ffffff"/><path d="M24.2 9.39h-.85c-.32 0-.55.23-.55.5 0 .23.24.51.55.51h2.8c.29 0 .57-.22.57-.5s-.27-.51-.57-.51h-.84V5.22c0-.27-.26-.5-.56-.5-.3 0-.55.23-.55.5zM31.02 4.79H28.9c-.39 0-.74.13-.74.56v4.49c0 .28.26.56.61.56h2.16c.3 0 .55-.24.55-.52s-.25-.49-.55-.49h-1.66V8.11h1.5c.28 0 .55-.22.55-.5 0-.3-.23-.51-.54-.51h-1.5V5.8h1.73c.29 0 .55-.23.55-.5 0-.28-.25-.51-.55-.51M33.93 5.03v.01c-.1-.14-.23-.32-.51-.32-.29 0-.54.25-.54.51 0 .09.04.21.08.27l1.37 2.2-1.26 2a.65.65 0 0 0-.07.27c0 .26.25.5.54.5.24 0 .43-.17.55-.36l.9-1.48.9 1.48c.1.15.27.36.55.36s.52-.23.52-.5a.7.7 0 0 0-.07-.27l-1.25-2L37 5.5a.6.6 0 0 0 .08-.27c0-.26-.26-.51-.53-.51-.28 0-.42.16-.52.31L34.98 6.8ZM39.7 9.39h-.85c-.31 0-.55.23-.55.5 0 .23.24.51.55.51h2.8c.29 0 .57-.22.57-.5s-.26-.51-.57-.51h-.84V5.22c0-.27-.25-.5-.56-.5-.3 0-.55.23-.55.5ZM45.64 6.95a7.9 7.9 0 0 1-.58.22c-.78.24-1.63.5-1.63 1.65 0 1.03.72 1.65 1.85 1.65.47 0 1.6-.12 1.6-.71 0-.27-.21-.5-.56-.5-.14 0-.25.04-.39.08-.15.06-.33.12-.6.12-.4 0-.76-.13-.76-.6 0-.35.2-.47.34-.54.2-.1.4-.16.57-.21.78-.25 1.63-.52 1.63-1.65 0-1.1-.85-1.74-1.98-1.74-.6 0-1.7.2-1.7.76 0 .25.23.5.52.5.12 0 .25-.04.4-.1.19-.06.44-.15.79-.15.54 0 .82.24.82.68 0 .36-.18.48-.32.54" fill="#0098da"/><path d="M46.18 21.29c0 2.05-1.3 3.8-3.1 4.47v-8.94a4.77 4.77 0 0 1 3.1 4.47" fill="#d80027"/><path d="M36.64 21.29c0-2.05 1.3-3.8 3.11-4.47v8.94a4.77 4.77 0 0 1-3.1-4.47" fill="#0052b4"/><path d="M45.76 19.33a4.82 4.82 0 0 0-5.41-2.7A4.82 4.82 0 0 0 36.82 20a4.81 4.81 0 0 0 1.32 4.77 4.8 4.8 0 0 0 5.23.88 4.82 4.82 0 0 0 2.4-6.31M41.4 26.3c-2.09 0-4-1.34-4.71-3.3a5.06 5.06 0 0 1 1.52-5.58 5.04 5.04 0 0 1 5.78-.43 5.07 5.07 0 0 1 2.32 5.3 5.06 5.06 0 0 1-4.91 4.01" fill="#c7c7c7"/></g></svg>