<svg xmlns="http://www.w3.org/2000/svg" xml:space="preserve" width="66.67" height="73.33"><defs><clipPath clipPathUnits="userSpaceOnUse" id="a"><path d="M0 55h50V0H0Z"/></clipPath></defs><g clip-path="url(#a)" transform="matrix(1.33333 0 0 -1.33333 0 73.33)"><path d="M20.56 41.1a.75.75 0 1 1 1.2.9 3.1 3.1 0 0 1-2.4 1.1c-1.26 0-2.02-1-2.1-1.1a.75.75 0 1 1 1.2-.89c.01 0 .4.5.9.5.78 0 1.19-.5 1.2-.51M24.36 40.8c.24 0 .46.11.61.31 0 0 .39.5.9.5.77 0 1.18-.5 1.2-.51a.75.75 0 1 1 1.18.91c-.3.4-1.16 1.1-2.39 1.1-1.26 0-2.02-1-2.1-1.11a.75.75 0 0 1 .6-1.2M22.52 34.24a4.49 4.49 0 0 1 3.5 1.64.75.75 0 0 1-1.2.9c-.04-.05-.82-1.04-2.3-1.04-1.05 0-1.78 1-1.8 1.02a.75.75 0 0 1-1.22-.87c.05-.07 1.18-1.65 3.02-1.65M8.2 30.03c-.4.1-.8-.15-.9-.55 0-.02-.17-.64-.88-.96-.46-.21-1 .06-1.02.07a.75.75 0 0 1-.73-1.31c.08-.04.65-.34 1.37-.34.31 0 .66.05 1 .21a3.1 3.1 0 0 1 1.72 1.99c.1.4-.15.8-.55.89M13.9 27.15c.35-.16.7-.21 1-.21.73 0 1.3.3 1.38.34a.75.75 0 0 1-.73 1.31s-.56-.29-1.03-.07c-.7.32-.87.94-.88.95a.75.75 0 1 1-1.46-.33c.12-.5.6-1.48 1.72-1.99M7.13 24.03a.75.75 0 0 1 1.2-.89 3 3 0 0 0 2.29 1.03c1.05 0 1.78-1 1.8-1.02a.75.75 0 0 1 1.23.87c-.05.07-1.19 1.65-3.03 1.65a4.49 4.49 0 0 1-3.49-1.64" fill="#0098da"/><path d="M19.77 16.46v6.09a10.16 10.16 0 0 1 .63 6.62 10.24 10.24 0 0 1 12.58 9.94A10.2 10.2 0 0 1 30 46.33h18.25V16.46ZM7.34 7.9v9.13a10.18 10.18 0 0 1 10.93 3.14V7.9Zm7.24 28.22a8.73 8.73 0 1 0 16.9 3 8.73 8.73 0 0 0-11.31-8.34.72.72 0 0 1-.32.03 10.28 10.28 0 0 1-5.27 5.3m-7.24.38v13.83h22.1v-2.5h-1.15l-.16-.02a10.23 10.23 0 0 1-15.3-11.1 10.14 10.14 0 0 1-5.49-.2m41.1 11.33h-17.5v2.68c0 .72-.6 1.3-1.31 1.3H7.15a1.3 1.3 0 0 1-1.3-1.3V36.23c0-.11.03-.22.07-.32a10.24 10.24 0 0 1-2.68-1.92.75.75 0 1 1 1.06-1.06 8.73 8.73 0 1 0 6.17-14.89 8.73 8.73 0 0 0-8.7 9.23.75.75 0 0 1-1.5.08l-.02-.59c0-3.97 2.28-7.4 5.6-9.1V7.7c0-.72.58-1.3 1.3-1.3h11.12V3.7c0-.72.59-1.3 1.31-1.3h11.29a.75.75 0 0 1 0 1.5h-11.1v11.05h28.48V3.91H37.67a.75.75 0 0 1 0-1.5h10.77c.72 0 1.31.58 1.31 1.3v42.81c0 .72-.59 1.3-1.3 1.3" fill="#0098da"/><path d="M36.56 39.04h8.04a.75.75 0 0 1 0 1.5h-8.04a.75.75 0 0 1 0-1.5M36.56 35.86h8.04a.75.75 0 0 1 0 1.5h-8.04a.75.75 0 0 1 0-1.5M36.56 32.7h8.04a.75.75 0 0 1 0 1.5h-8.04a.75.75 0 0 1 0-1.5M31.47 27.07h-8.04a.75.75 0 1 1 0-1.5h8.04a.75.75 0 0 1 0 1.5M31.47 23.9h-8.04a.75.75 0 1 1 0-1.5h8.04a.75.75 0 0 1 0 1.5M31.47 20.72h-8.04a.75.75 0 1 1 0-1.5h8.04a.75.75 0 0 1 0 1.5M1.9 29.97a.9.9 0 1 1 0 1.8.9.9 0 0 1 0-1.8M34.4 4a.58.58 0 0 1-.45.21.58.58 0 0 1-.57-.5.88.88 0 0 1-.2-.55.9.9 0 0 1 1.8 0 .9.9 0 0 1-.58.83M26.07 12.34V9l-2.71 3.68a.58.58 0 0 1-1.05-.34V7.22a.58.58 0 1 1 1.16 0v3.34l2.7-3.68a.59.59 0 0 1 .66-.21c.24.08.4.3.4.55v5.12a.58.58 0 0 1-1.16 0M31.71 11.75a.59.59 0 0 1 0 1.17h-2.36a.58.58 0 0 1-.59-.58V7.22c0-.32.26-.58.59-.58h2.36a.58.58 0 1 1 0 1.17h-1.78v1.38h1.78a.59.59 0 0 1 0 1.17h-1.78v1.4ZM38.56 6.64a.58.58 0 0 1 .58.58v5.12a.58.58 0 0 1-1.16 0V8.72L36.9 9.86l-.01.02-.02.02c-.23.21-.6.2-.82-.04L35 8.72v3.62a.58.58 0 0 1-1.17 0V7.22a.58.58 0 0 1 1.01-.4l1.65 1.79 1.64-1.78a.58.58 0 0 1 .43-.2M43.74 7.8h-2.48a.58.58 0 1 1 0-1.16h2.48a1.86 1.86 0 0 1 0 3.72h-1.2a.7.7 0 1 0 0 1.4h2.48a.58.58 0 1 1 0 1.16h-2.48a1.86 1.86 0 0 1 0-3.72h1.2a.7.7 0 0 0 0-1.4M39.94 19.26a4.45 4.45 0 1 0 .01 8.9 4.45 4.45 0 0 0-.01-8.9m0 10.38a5.95 5.95 0 1 1 .02-11.9 5.95 5.95 0 0 1-.02 11.9" fill="#0098da"/><path d="M39.94 24.35c-.6 0-1.04.33-1.04.62s.45.62 1.07.62c.37.01.74-.16.97-.47a.65.65 0 0 1 .92-.12c.28.22.34.63.12.91-.35.46-.84.78-1.39.9v.27a.65.65 0 1 1-1.3 0v-.28c-.98-.22-1.69-.94-1.69-1.83 0-1.08 1.03-1.92 2.34-1.92.6 0 1.04-.33 1.04-.62s-.44-.61-1.07-.61a1.1 1.1 0 0 0-.97.46.65.65 0 0 1-1.04-.79 2.5 2.5 0 0 1 1.39-.91v-.26a.65.65 0 1 1 1.3 0v.29c.98.24 1.69.94 1.69 1.82 0 1.08-1.03 1.92-2.34 1.92" fill="#0098da"/></g></svg>