<svg xmlns="http://www.w3.org/2000/svg" xml:space="preserve" width="66.667" height="66.667"><defs><clipPath clipPathUnits="userSpaceOnUse" id="a"><path d="M0 50h50V0H0Z"/></clipPath></defs><g clip-path="url(#a)" transform="matrix(1.33333 0 0 -1.33333 0 66.667)"><path d="M0 0a.82.82 0 1 1 1.304.998c-.085.111-.881 1.094-2.385 1.094-1.267 0-2.028-.996-2.111-1.109A.821.821 0 0 1-1.867.015c.004.004.346.435.786.435C-.38.45-.007.007 0 0" style="fill:#0098da;fill-opacity:1;fill-rule:nonzero;stroke:none" transform="translate(20.635 38.45)"/><path d="M0 0c.254 0 .504.117.665.337.002.004.344.435.785.435.701 0 1.074-.442 1.081-.45a.82.82 0 1 1 1.303.998c-.084.112-.879 1.094-2.384 1.094-1.267 0-2.029-.996-2.112-1.109A.821.821 0 0 1 0 0" style="fill:#0098da;fill-opacity:1;fill-rule:nonzero;stroke:none" transform="translate(24.385 38.127)"/><path d="M0 0c2.226 0 3.399 1.553 3.448 1.619a.817.817 0 0 1-.168 1.14.826.826 0 0 1-1.147-.157c-.03-.04-.756-.96-2.133-.96-.959 0-1.642.914-1.662.941a.82.82 0 0 1-1.339-.949C-2.955 1.567-1.829 0 0 0" style="fill:#0098da;fill-opacity:1;fill-rule:nonzero;stroke:none" transform="translate(22.608 31.79)"/><path d="M0 0a.827.827 0 0 1-.993-.592 1.454 1.454 0 0 0-.799-.872c-.4-.182-.882.063-.902.073a.822.822 0 0 1-.797-1.435 2.972 2.972 0 0 1 1.371-.348c.315 0 .661.057 1.01.216C.258-2.333.573-1.109.604-.972.704-.536.434-.108 0 0" style="fill:#0098da;fill-opacity:1;fill-rule:nonzero;stroke:none" transform="translate(8.807 27.909)"/><path d="M0 0c.35-.159.696-.216 1.011-.216a2.97 2.97 0 0 1 1.37.348c.393.22.53.712.315 1.106a.827.827 0 0 1-1.111.329c-.004-.003-.495-.258-.902-.073-.638.291-.793.849-.797.859a.822.822 0 0 1-1.6-.367C-1.683 1.849-1.367.625 0 0" style="fill:#0098da;fill-opacity:1;fill-rule:nonzero;stroke:none" transform="translate(14.24 24.95)"/><path d="M0 0a.82.82 0 0 1 1.32-.977c.008.01.743.954 2.128.954.965 0 1.65-.924 1.663-.943a.819.819 0 0 1 1.141-.193.82.82 0 0 1 .198 1.144c-.046.066-1.173 1.633-3.002 1.633C1.223 1.618.049.066 0 0" style="fill:#0098da;fill-opacity:1;fill-rule:nonzero;stroke:none" transform="translate(7.665 22.084)"/><path d="M0 0v8.595a9.956 9.956 0 0 1 2.925-.44c2.958 0 5.611 1.303 7.438 3.355V0Zm6.967 27.229a8.297 8.297 0 0 0-.502 2.826c0 4.591 3.736 8.327 8.327 8.327 4.592 0 8.329-3.736 8.329-8.327 0-4.592-3.737-8.327-8.329-8.327-.843 0-1.676.126-2.476.374-.089.028-.18.031-.269.028a10.022 10.022 0 0 1-5.08 5.099M0 27.658v13.12h21.142v-2.211h-1.013c-.046 0-.086-.019-.13-.026a9.902 9.902 0 0 1-5.207 1.483c-5.497 0-9.968-4.472-9.968-9.969 0-.748.091-1.483.254-2.202a9.99 9.99 0 0 1-2.153.24A9.997 9.997 0 0 1 0 27.658m25.288-25.06c0 .318.343.516.643.516.249 0 .488-.129.558-.413l.565-2.22c.121-.465.163-.956.249-1.429.086.456.129.972.24 1.429l.506 2.022c.103.405.224.637.696.637.437 0 .59-.249.685-.637l.498-2.022c.12-.473.163-.956.249-1.437.085.481.137.964.257 1.437l.549 2.194a.55.55 0 0 0 .549.439c.292 0 .67-.164.67-.525 0-.017 0-.061-.018-.111L30.897-2.54c-.086-.284-.292-.542-.703-.542-.412 0-.626.267-.712.551l-.507 2.108c-.111.447-.153.921-.23 1.377-.078-.456-.12-.93-.233-1.377l-.513-2.126c-.078-.25-.249-.533-.705-.533-.351 0-.634.283-.711.542l-1.261 4.975a8.49 8.49 0 0 1-.034.163M22.404-.664a9.016 9.016 0 0 1-.626.232c-.841.258-1.75.542-1.75 1.79 0 1.111.771 1.782 1.99 1.782.505 0 1.724-.129 1.724-.775 0-.284-.224-.542-.601-.542-.154 0-.274.052-.421.095-.162.06-.35.129-.651.129-.42 0-.816-.147-.816-.653 0-.38.216-.509.361-.578.223-.112.429-.18.618-.232.841-.267 1.758-.56 1.758-1.782 0-1.196-.909-1.884-2.135-1.884-.635 0-1.836.224-1.836.826 0 .276.249.542.566.542.128 0 .266-.043.429-.103.206-.07.481-.172.849-.172.593 0 .892.266.892.74 0 .387-.197.517-.351.585M39.315 6.05H12.004v7.98c.567 1.25.89 2.634.89 4.094 0 .766-.095 1.508-.26 2.225.708-.157 1.428-.264 2.158-.264 5.498 0 9.969 4.473 9.969 9.97a9.926 9.926 0 0 1-2.762 6.87h17.316zm.282 32.517H22.783v2.494c0 .749-.61 1.359-1.359 1.359H-.283c-.749 0-1.359-.61-1.359-1.359V27.272c0-.093.024-.179.053-.262a9.992 9.992 0 0 1-2.536-1.837.822.822 0 0 1 1.161-1.161 8.274 8.274 0 0 0 5.889 2.439c4.592 0 8.327-3.735 8.327-8.327 0-4.592-3.735-8.327-8.327-8.327-4.592 0-8.327 3.735-8.327 8.327 0 .162.004.322.013.481a.821.821 0 1 1-1.639.097 10.061 10.061 0 0 1-.016-.578c0-3.851 2.198-7.191 5.402-8.852V-.283c0-.749.61-1.359 1.359-1.359h10.646v-2.495a1.36 1.36 0 0 1 1.358-1.358h27.876a1.36 1.36 0 0 1 1.359 1.358v41.345c0 .749-.61 1.359-1.359 1.359" style="fill:#0098da;fill-opacity:1;fill-rule:nonzero;stroke:none" transform="translate(8.044 6.538)"/><path d="M0 0h7.767a.82.82 0 0 1 0 1.642H0A.82.82 0 1 1 0 0" style="fill:#0098da;fill-opacity:1;fill-rule:nonzero;stroke:none" transform="translate(36.162 35.345)"/><path d="M0 0h7.767a.82.82 0 0 1 0 1.642H0A.82.82 0 1 1 0 0" style="fill:#0098da;fill-opacity:1;fill-rule:nonzero;stroke:none" transform="translate(36.162 32.28)"/><path d="M0 0h7.767a.82.82 0 0 1 0 1.642H0A.82.82 0 1 1 0 0" style="fill:#0098da;fill-opacity:1;fill-rule:nonzero;stroke:none" transform="translate(36.162 29.216)"/><path d="M0 0h-7.767a.82.82 0 1 1 0-1.641H0A.82.82 0 0 1 0 0" style="fill:#0098da;fill-opacity:1;fill-rule:nonzero;stroke:none" transform="translate(31.246 23.98)"/><path d="M0 0h-7.767a.82.82 0 1 1 0-1.642H0A.82.82 0 0 1 0 0" style="fill:#0098da;fill-opacity:1;fill-rule:nonzero;stroke:none" transform="translate(31.246 20.916)"/><path d="M0 0h-7.767a.82.82 0 1 1 0-1.642H0A.82.82 0 0 1 0 0" style="fill:#0098da;fill-opacity:1;fill-rule:nonzero;stroke:none" transform="translate(31.246 17.852)"/><path d="M0 0a.869.869 0 1 1 0 1.738A.869.869 0 0 1 0 0" style="fill:#0098da;fill-opacity:1;fill-rule:nonzero;stroke:none" transform="translate(2.69 27.758)"/><path d="M0 0a1.36 1.36 0 0 1 1.926.01.765.765 0 0 1 .107.135l1.995 3.103a.822.822 0 0 1-1.381.889L.901 1.418l-.993.984a.822.822 0 0 1-1.155-1.167Z" style="fill:#0098da;fill-opacity:1;fill-rule:nonzero;stroke:none" transform="translate(38.709 18.373)"/><path d="M0 0a4.734 4.734 0 0 0 4.729-4.729A4.735 4.735 0 0 0 0-9.459a4.735 4.735 0 0 0-4.729 4.73A4.734 4.734 0 0 0 0 0m0-10.966a6.244 6.244 0 0 1 6.236 6.237A6.243 6.243 0 0 1 0 1.507a6.242 6.242 0 0 1-6.236-6.236A6.243 6.243 0 0 1 0-10.966" style="fill:#0098da;fill-opacity:1;fill-rule:nonzero;stroke:none" transform="translate(40.04 25.166)"/></g></svg>