<svg xmlns="http://www.w3.org/2000/svg" xml:space="preserve" width="66.667" height="66.667"><defs><clipPath clipPathUnits="userSpaceOnUse" id="a"><path d="M0 50h50V0H0Z"/></clipPath></defs><g clip-path="url(#a)" transform="matrix(1.33333 0 0 -1.33333 0 66.667)"><path d="M0 0h-34.458a.85.85 0 1 0 0 1.7H0A.85.85 0 1 0 0 0" style="fill:#ffffff;fill-opacity:1;fill-rule:nonzero;stroke:none" transform="translate(39.906 38.922)"/><path d="M0 0h-34.458a.85.85 0 1 0 0 1.7H0A.85.85 0 1 0 0 0" style="fill:#ffffff;fill-opacity:1;fill-rule:nonzero;stroke:none" transform="translate(39.906 34.174)"/><path d="M0 0a.852.852 0 0 0-.828.657l-.669 2.875h-3.05a2.98 2.98 0 0 0-2.976 2.975v10.99a2.98 2.98 0 0 0 2.976 2.976h36.323a2.978 2.978 0 0 0 2.975-2.976V6.507a2.978 2.978 0 0 0-2.975-2.975h-7.109a.85.85 0 1 0 0 1.7h7.109c.703 0 1.276.572 1.276 1.275v10.99c0 .704-.573 1.276-1.276 1.276H-4.547a1.277 1.277 0 0 1-1.276-1.276V6.507c0-.703.572-1.275 1.276-1.275h3.725a.851.851 0 0 0 .828-.658l.515-2.213 3.332 2.683a.853.853 0 0 0 .533.188h3.495a.85.85 0 0 0 0-1.7H4.686L.533.187A.85.85 0 0 0 0 0" style="fill:#ffffff;fill-opacity:1;fill-rule:nonzero;stroke:none" transform="translate(9.062 25.332)"/><path d="M0 0a4.677 4.677 0 0 1-1.283-3.363A4.67 4.67 0 0 1 .188-6.646 4.697 4.697 0 0 1 3.55-7.929a4.664 4.664 0 0 1 3.285 1.471A4.707 4.707 0 0 1 6.647.188 4.708 4.708 0 0 1 0 0m3.413-9.631a6.351 6.351 0 0 0-4.392 1.75 6.352 6.352 0 0 0-2.003 4.47 6.363 6.363 0 0 0 1.747 4.579 6.41 6.41 0 0 0 9.05.256 6.41 6.41 0 0 0 .256-9.05 6.35 6.35 0 0 0-4.658-2.005" style="fill:#ffffff;fill-opacity:1;fill-rule:nonzero;stroke:none" transform="translate(22.39 27.795)"/><path d="M0 0a4.677 4.677 0 0 1-1.283-3.363A4.67 4.67 0 0 1 .188-6.646 4.697 4.697 0 0 1 3.55-7.929a4.664 4.664 0 0 1 3.285 1.471A4.707 4.707 0 0 1 6.647.188 4.708 4.708 0 0 1 0 0m3.413-9.631a6.351 6.351 0 0 0-4.392 1.75 6.352 6.352 0 0 0-2.003 4.47 6.363 6.363 0 0 0 1.747 4.579 6.41 6.41 0 0 0 9.05.256 6.41 6.41 0 0 0 .256-9.05 6.35 6.35 0 0 0-4.658-2.005" style="fill:#ffffff;fill-opacity:1;fill-rule:nonzero;stroke:none" transform="translate(22.39 27.795)"/><path d="M0 0a.844.844 0 0 0-.517.176C-3.83 2.721-7.956 2.739-11.283.219a.85.85 0 0 0-1.027 1.355C-8.405 4.531-3.369 4.512.519 1.523A.85.85 0 0 0 0 0" style="fill:#ffffff;fill-opacity:1;fill-rule:nonzero;stroke:none" transform="translate(32.162 14.494)"/><path d="M0 0h.01Zm4.038.889L3.901.887A4.665 4.665 0 0 1 .618-.584 4.67 4.67 0 0 1-.665-3.946a4.704 4.704 0 0 1 8.117-3.097 4.672 4.672 0 0 1 1.283 3.362 4.673 4.673 0 0 1-1.47 3.285A4.67 4.67 0 0 1 4.038.889m-.004-11.102A6.38 6.38 0 0 0-.362-8.467a6.361 6.361 0 0 0-2.002 4.473A6.36 6.36 0 0 0-.618.584a6.363 6.363 0 0 0 4.472 2.002A6.316 6.316 0 0 0 8.433.84c2.565-2.424 2.679-6.485.255-9.051a6.384 6.384 0 0 0-4.654-2.002" style="fill:#ffffff;fill-opacity:1;fill-rule:nonzero;stroke:none" transform="translate(37.22 18.08)"/><path d="M0 0h.01Zm4.038.889L3.901.887A4.665 4.665 0 0 1 .618-.584 4.67 4.67 0 0 1-.665-3.946a4.704 4.704 0 0 1 8.117-3.097 4.672 4.672 0 0 1 1.283 3.362 4.673 4.673 0 0 1-1.47 3.285A4.67 4.67 0 0 1 4.038.889m-.004-11.102A6.38 6.38 0 0 0-.362-8.467a6.361 6.361 0 0 0-2.002 4.473A6.36 6.36 0 0 0-.618.584a6.363 6.363 0 0 0 4.472 2.002A6.316 6.316 0 0 0 8.433.84c2.565-2.424 2.679-6.485.255-9.051a6.384 6.384 0 0 0-4.654-2.002" style="fill:#ffffff;fill-opacity:1;fill-rule:nonzero;stroke:none" transform="translate(37.22 18.08)"/><path d="M0 0a.844.844 0 0 0-.517.176c-3.315 2.546-7.439 2.561-10.766.043a.85.85 0 1 0-1.026 1.355C-8.404 4.529-3.371 4.512.519 1.523A.85.85 0 0 0 0 0" style="fill:#ffffff;fill-opacity:1;fill-rule:nonzero;stroke:none" transform="translate(47.61 4.196)"/><path d="m0 0-.136-.002a4.67 4.67 0 0 1-3.285-1.471 4.705 4.705 0 0 1 .189-6.646 4.708 4.708 0 0 1 6.647.187 4.676 4.676 0 0 1 1.282 3.363 4.673 4.673 0 0 1-1.47 3.284A4.672 4.672 0 0 1 0 0m-.004-11.101A6.38 6.38 0 0 0-4.4-9.355a6.408 6.408 0 0 0-.256 9.05A6.355 6.355 0 0 0-.185 1.697c1.705.065 3.335-.571 4.579-1.746a6.36 6.36 0 0 0 2.002-4.472A6.368 6.368 0 0 0 4.65-9.1a6.384 6.384 0 0 0-4.654-2.001" style="fill:#ffffff;fill-opacity:1;fill-rule:nonzero;stroke:none" transform="translate(11.394 18.97)"/><path d="m0 0-.136-.002a4.67 4.67 0 0 1-3.285-1.471 4.705 4.705 0 0 1 .189-6.646 4.708 4.708 0 0 1 6.647.187 4.676 4.676 0 0 1 1.282 3.363 4.673 4.673 0 0 1-1.47 3.284A4.672 4.672 0 0 1 0 0m-.004-11.101A6.38 6.38 0 0 0-4.4-9.355a6.408 6.408 0 0 0-.256 9.05A6.355 6.355 0 0 0-.185 1.697c1.705.065 3.335-.571 4.579-1.746a6.36 6.36 0 0 0 2.002-4.472A6.368 6.368 0 0 0 4.65-9.1a6.384 6.384 0 0 0-4.654-2.001" style="fill:#ffffff;fill-opacity:1;fill-rule:nonzero;stroke:none" transform="translate(11.394 18.97)"/><path d="M0 0a.842.842 0 0 0-.517.176c-3.314 2.545-7.439 2.561-10.766.043a.85.85 0 0 0-1.026 1.355C-8.406 4.529-3.37 4.512.518 1.523A.848.848 0 0 0 0 0" style="fill:#ffffff;fill-opacity:1;fill-rule:nonzero;stroke:none" transform="translate(17.745 4.196)"/></g></svg>