<svg xmlns="http://www.w3.org/2000/svg" xml:space="preserve" width="66.667" height="66.667"><defs><clipPath clipPathUnits="userSpaceOnUse" id="a"><path d="M0 50h50V0H0Z"/></clipPath></defs><g clip-path="url(#a)" transform="matrix(1.33333 0 0 -1.33333 0 66.667)"><path d="M0 0h4.399a.85.85 0 0 0 .739-.43l1.44-2.536L9.611-.22a.85.85 0 0 0 .571.22h8.845c.196 0 .571.48.571 1.231v10.763c0 .596-.486 1.081-1.081 1.081h-31.941a1.082 1.082 0 0 1-1.081-1.081V1.231c0-.751.374-1.231.57-1.231Zm6.363-5.157a.847.847 0 0 0-.739.429l-1.72 3.029h-17.839c-1.273 0-2.27 1.287-2.27 2.93v10.763a2.784 2.784 0 0 0 2.781 2.781h31.941a2.784 2.784 0 0 0 2.78-2.781V1.231c0-1.643-.997-2.93-2.27-2.93H10.51L6.933-4.937a.846.846 0 0 0-.57-.22" style="fill:#ffffff;fill-opacity:1;fill-rule:nonzero;stroke:none" transform="translate(17.668 23.22)"/><path d="M0 0h-7.235a.85.85 0 1 0 0 1.7H0c.596 0 1.081.485 1.081 1.081v9.77c0 .595-.485 1.08-1.081 1.08h-22.816a.852.852 0 0 0-.788.53l-.985 2.42-3.161-2.742a.853.853 0 0 0-.558-.208h-5.485a1.082 1.082 0 0 1-1.081-1.08V8.112a.85.85 0 0 0-1.7 0v4.439a2.783 2.783 0 0 0 2.781 2.78h5.168l3.818 3.313a.851.851 0 0 0 1.344-.322l1.218-2.991H0a2.783 2.783 0 0 0 2.78-2.78v-9.77A2.784 2.784 0 0 0 0 0" style="fill:#ffffff;fill-opacity:1;fill-rule:nonzero;stroke:none" transform="translate(45.715 30.147)"/><path d="M0 0a.854.854 0 0 0-.8 1.157c.889 2.36 5.85 4.894 14.927 5.239.66.034 1.205.467 1.2.964v16.188c.001.245-.126.479-.357.661-.277.217-.661.326-1.048.304-2.85-.125-5.389-.483-7.559-1.066a.859.859 0 0 0-1.047.605.854.854 0 0 0 .604 1.047c2.29.615 4.953.992 7.914 1.122.774.045 1.592-.195 2.191-.667.647-.507 1.016-1.24 1.013-2.009V7.367c.011-1.416-1.233-2.596-2.834-2.68C5.911 4.372 1.376 2.081.8.554A.854.854 0 0 0 0 0" style="fill:#ffffff;fill-opacity:1;fill-rule:nonzero;stroke:none" transform="translate(31.974 1.866)"/><path d="M0 0a.854.854 0 0 0-.8.554c-.576 1.527-5.111 3.818-13.391 4.133-1.613.084-2.858 1.263-2.847 2.687v10.753a.855.855 0 1 0 1.71 0V7.367c-.004-.504.541-.937 1.214-.972C-5.049 6.051-.089 3.517.8 1.157A.854.854 0 0 0 0 0" style="fill:#ffffff;fill-opacity:1;fill-rule:nonzero;stroke:none" transform="translate(31.974 1.866)"/><path d="M0 0a.855.855 0 0 0-.855.855v15.453a.855.855 0 1 0 1.71 0V.855A.855.855 0 0 0 0 0" style="fill:#ffffff;fill-opacity:1;fill-rule:nonzero;stroke:none" transform="translate(31.974 1.866)"/><path d="M0 0a.85.85 0 0 0-.85.85v1.32a.85.85 0 1 0 1.7 0V.85A.85.85 0 0 0 0 0" style="fill:#ffffff;fill-opacity:1;fill-rule:nonzero;stroke:none" transform="translate(40.501 20.159)"/><path d="M0 0a.845.845 0 0 0-.601.249l-.933.934A.849.849 0 1 0-.333 2.384l.934-.934A.849.849 0 0 0 0 0" style="fill:#ffffff;fill-opacity:1;fill-rule:nonzero;stroke:none" transform="translate(37.2 18.372)"/><path d="M0 0a.849.849 0 0 0-.601 1.45l.934.934a.849.849 0 1 0 1.201-1.201L.601.249A.845.845 0 0 0 0 0" style="fill:#ffffff;fill-opacity:1;fill-rule:nonzero;stroke:none" transform="translate(43.801 18.372)"/><path d="M0 0a.85.85 0 0 0-.85.85v1.319c0 .47.38.849.85.849s.85-.379.85-.849V.85A.85.85 0 0 0 0 0" style="fill:#ffffff;fill-opacity:1;fill-rule:nonzero;stroke:none" transform="translate(40.501 9.598)"/><path d="M0 0h.941v.837c0 .305.163.586.427.737.55.316.892.906.893 1.538v.004A1.786 1.786 0 0 1 .787 4.885 1.79 1.79 0 0 1-.425 1.573.847.847 0 0 0 0 .837Zm1.791-1.699H-.85a.849.849 0 0 0-.849.849V.39a3.485 3.485 0 0 0-1.109 3.932 3.485 3.485 0 0 0 3.896 2.237A3.481 3.481 0 0 0 3.96 3.108 3.479 3.479 0 0 0 2.641.39V-.85a.85.85 0 0 0-.85-.849" style="fill:#ffffff;fill-opacity:1;fill-rule:nonzero;stroke:none" transform="translate(40.03 12.617)"/><path d="M0 0h-8.546a.855.855 0 0 0 0 1.711H0A.855.855 0 0 0 0 0" style="fill:#ffffff;fill-opacity:1;fill-rule:nonzero;stroke:none" transform="translate(12.177 16.744)"/><path d="M0 0h-8.546a.855.855 0 0 0 0 1.711H0A.855.855 0 0 0 0 0" style="fill:#ffffff;fill-opacity:1;fill-rule:nonzero;stroke:none" transform="translate(12.177 12.879)"/><path d="M0 0h-8.546a.855.855 0 0 0 0 1.711H0A.855.855 0 0 0 0 0" style="fill:#ffffff;fill-opacity:1;fill-rule:nonzero;stroke:none" transform="translate(12.177 9.014)"/><path d="M0 0c-.08.252-.124.582-.159.851C-.195.582-.239.252-.318 0l-.47-1.484H.451zm-1.407-3.351c-.089-.252-.372-.408-.584-.408-.345 0-.637.225-.637.555 0 .044.008.148.026.191l1.726 4.941c.115.338.292.59.717.59s.601-.243.725-.59l1.726-4.941a.694.694 0 0 0 .027-.191c0-.33-.275-.555-.637-.555-.231 0-.514.165-.602.408l-.31.877h-1.885z" style="fill:#ffffff;fill-opacity:1;fill-rule:nonzero;stroke:none" transform="translate(14.938 30.252)"/><path d="M0 0c-.08.252-.124.582-.159.851C-.195.582-.239.252-.318 0l-.47-1.484H.451zm-1.407-3.351c-.089-.252-.372-.408-.584-.408-.345 0-.637.225-.637.555 0 .044.008.148.026.191l1.726 4.941c.115.338.292.59.717.59s.601-.243.725-.59l1.726-4.941a.694.694 0 0 0 .027-.191c0-.33-.275-.555-.637-.555-.231 0-.514.165-.602.408l-.31.877h-1.885z" style="fill:none;stroke:#ffffff;stroke-width:.5;stroke-linecap:butt;stroke-linejoin:miter;stroke-miterlimit:10;stroke-dasharray:none;stroke-opacity:1" transform="translate(14.938 30.252)"/><path d="M0 0c-.08.252-.124.582-.159.851C-.195.582-.239.252-.318 0l-.47-1.484H.451zm-1.407-3.351c-.089-.252-.372-.408-.584-.408-.345 0-.637.225-.637.555 0 .044.008.148.026.191l1.726 4.941c.115.338.292.59.717.59s.601-.243.725-.59l1.726-4.941a.694.694 0 0 0 .027-.191c0-.33-.275-.555-.637-.555-.231 0-.514.165-.602.408l-.31.877h-1.885z" style="fill:#ffffff;fill-opacity:1;fill-rule:nonzero;stroke:none" transform="translate(20.609 30.252)"/><path d="M0 0c-.08.252-.124.582-.159.851C-.195.582-.239.252-.318 0l-.47-1.484H.451zm-1.407-3.351c-.089-.252-.372-.408-.584-.408-.345 0-.637.225-.637.555 0 .044.008.148.026.191l1.726 4.941c.115.338.292.59.717.59s.601-.243.725-.59l1.726-4.941a.694.694 0 0 0 .027-.191c0-.33-.275-.555-.637-.555-.231 0-.514.165-.602.408l-.31.877h-1.885z" style="fill:none;stroke:#ffffff;stroke-width:.5;stroke-linecap:butt;stroke-linejoin:miter;stroke-miterlimit:10;stroke-dasharray:none;stroke-opacity:1" transform="translate(20.609 30.252)"/><path d="M0 0v-1.719C0-2.413.336-2.9 1.062-2.9s1.062.487 1.062 1.181V0c0 .703-.283 1.172-1.062 1.172C.283 1.172 0 .703 0 0m.523-3.959c-1.178.217-1.762 1.128-1.762 2.24V0c0 1.233.646 2.275 2.301 2.275 1.655 0 2.301-1.042 2.301-2.275v-1.719c0-1.059-.54-1.953-1.62-2.205.072-.313.196-.443.39-.443h.257c.362 0 .61-.2.61-.53 0-.512-.425-.529-.982-.529-.814 0-1.336.582-1.495 1.467" style="fill:#ffffff;fill-opacity:1;fill-rule:nonzero;stroke:none" transform="translate(24.828 30.495)"/><path d="M0 0v-1.719C0-2.413.336-2.9 1.062-2.9s1.062.487 1.062 1.181V0c0 .703-.283 1.172-1.062 1.172C.283 1.172 0 .703 0 0Zm.523-3.959c-1.178.217-1.762 1.128-1.762 2.24V0c0 1.233.646 2.275 2.301 2.275 1.655 0 2.301-1.042 2.301-2.275v-1.719c0-1.059-.54-1.953-1.62-2.205.072-.313.196-.443.39-.443h.257c.362 0 .61-.2.61-.53 0-.512-.425-.529-.982-.529-.814 0-1.336.582-1.495 1.467z" style="fill:none;stroke:#ffffff;stroke-width:.5;stroke-linecap:butt;stroke-linejoin:miter;stroke-miterlimit:10;stroke-dasharray:none;stroke-opacity:1" transform="translate(24.828 30.495)"/></g></svg>