<svg xmlns="http://www.w3.org/2000/svg" xml:space="preserve" width="66.667" height="66.667"><defs><clipPath clipPathUnits="userSpaceOnUse" id="a"><path d="M0 50h50V0H0Z"/></clipPath></defs><g clip-path="url(#a)" transform="matrix(1.33333 0 0 -1.33333 0 66.667)"><path d="M0 0h-34.508a.85.85 0 1 0 0 1.699H0A.85.85 0 1 0 0 0" style="fill:#ffffff;fill-opacity:1;fill-rule:nonzero;stroke:none" transform="translate(44.537 9.524)"/><path d="M0 0h-34.508a.85.85 0 1 0 0 1.699H0A.85.85 0 1 0 0 0" style="fill:#ffffff;fill-opacity:1;fill-rule:nonzero;stroke:none" transform="translate(44.537 6.073)"/><path d="M0 0h-36.55c-2.721 0-4.934 1.93-4.934 4.302v3.451c0 2.372 2.213 4.301 4.934 4.301H0a.85.85 0 1 0 0-1.7h-36.55c-1.783 0-3.234-1.166-3.234-2.601V4.302c0-1.435 1.451-2.603 3.234-2.603H0A.85.85 0 1 0 0 0" style="fill:#ffffff;fill-opacity:1;fill-rule:nonzero;stroke:none" transform="translate(46.58 2.62)"/><path d="M0 0a1.28 1.28 0 0 1-1.278-1.278v-11.007A1.28 1.28 0 0 1 0-13.564h6.018a.851.851 0 0 0 .664-.318l2.295-2.87 3.728 3.001a.846.846 0 0 0 .533.187H32.29a.715.715 0 0 0 .093-.005c.03.004.061.005.093.005h3.901a1.28 1.28 0 0 1 1.278 1.279v11.007A1.28 1.28 0 0 1 36.377 0Zm8.845-18.799a.849.849 0 0 0-.664.318l-2.572 3.218H0a2.982 2.982 0 0 0-2.979 2.978v11.007A2.982 2.982 0 0 0 0 1.7h36.377a2.98 2.98 0 0 0 2.977-2.978v-11.007a2.98 2.98 0 0 0-2.977-2.978h-3.901a.706.706 0 0 0-.093.005.715.715 0 0 0-.093-.005H13.538l-4.16-3.349a.848.848 0 0 0-.533-.187" style="fill:#ffffff;fill-opacity:1;fill-rule:nonzero;stroke:none" transform="translate(9.161 36.402)"/><path d="M0 0h-2.153c-1.571 0-2.849 1.192-2.849 2.657v9.341c0 1.464 1.278 2.656 2.849 2.656h22.261l3.349 3.351a.836.836 0 0 0 .626.249.852.852 0 0 0 .612-.286l2.931-3.314h4.391c1.571 0 2.849-1.192 2.849-2.656V7.29a.85.85 0 1 0-1.699 0v4.708c0 .527-.516.956-1.15.956h-4.773a.85.85 0 0 0-.637.287l-2.587 2.923-2.958-2.961a.854.854 0 0 0-.602-.249H-2.153c-.634 0-1.149-.429-1.149-.956V2.657c0-.528.515-.957 1.149-.957H0A.85.85 0 0 0 0 0" style="fill:#ffffff;fill-opacity:1;fill-rule:nonzero;stroke:none" transform="translate(6.486 29.963)"/><path d="M0 0c-.083.261-.129.603-.165.882C-.202.603-.248.261-.33 0l-.486-1.54H.468zm-1.458-3.476c-.092-.26-.386-.422-.605-.422-.358 0-.661.234-.661.576 0 .045.009.153.028.198l1.788 5.122c.119.352.303.612.743.612s.623-.252.752-.612l1.788-5.122a.71.71 0 0 0 .027-.198c0-.342-.284-.576-.66-.576-.238 0-.532.17-.623.422l-.321.91h-1.953z" style="fill:#ffffff;fill-opacity:1;fill-rule:nonzero;stroke:none" transform="translate(21.738 30.45)"/><path d="M0 0c-.083.261-.129.603-.165.882C-.202.603-.248.261-.33 0l-.486-1.54H.468zm-1.458-3.476c-.092-.26-.386-.422-.605-.422-.358 0-.661.234-.661.576 0 .045.009.153.028.198l1.788 5.122c.119.352.303.612.743.612s.623-.252.752-.612l1.788-5.122a.71.71 0 0 0 .027-.198c0-.342-.284-.576-.66-.576-.238 0-.532.17-.623.422l-.321.91h-1.953z" style="fill:none;stroke:#ffffff;stroke-width:.5;stroke-linecap:butt;stroke-linejoin:miter;stroke-miterlimit:10;stroke-dasharray:none;stroke-opacity:1" transform="translate(21.738 30.45)"/><path d="M0 0c-.083.261-.129.603-.165.882C-.202.603-.248.261-.33 0l-.486-1.54H.468zm-1.458-3.476c-.092-.26-.386-.422-.605-.422-.358 0-.661.234-.661.576 0 .045.009.153.028.198l1.788 5.122c.119.352.303.612.743.612s.623-.252.752-.612l1.788-5.122a.71.71 0 0 0 .027-.198c0-.342-.284-.576-.66-.576-.238 0-.532.17-.623.422l-.321.91h-1.953z" style="fill:#ffffff;fill-opacity:1;fill-rule:nonzero;stroke:none" transform="translate(27.613 30.45)"/><path d="M0 0c-.083.261-.129.603-.165.882C-.202.603-.248.261-.33 0l-.486-1.54H.468zm-1.458-3.476c-.092-.26-.386-.422-.605-.422-.358 0-.661.234-.661.576 0 .045.009.153.028.198l1.788 5.122c.119.352.303.612.743.612s.623-.252.752-.612l1.788-5.122a.71.71 0 0 0 .027-.198c0-.342-.284-.576-.66-.576-.238 0-.532.17-.623.422l-.321.91h-1.953z" style="fill:none;stroke:#ffffff;stroke-width:.5;stroke-linecap:butt;stroke-linejoin:miter;stroke-miterlimit:10;stroke-dasharray:none;stroke-opacity:1" transform="translate(27.613 30.45)"/><path d="M0 0v-1.782c0-.721.349-1.225 1.101-1.225s1.1.504 1.1 1.225V0c0 .729-.293 1.215-1.1 1.215C.294 1.215 0 .729 0 0m.541-4.105c-1.22.225-1.824 1.17-1.824 2.323V0c0 1.278.669 2.358 2.384 2.358 1.714 0 2.384-1.08 2.384-2.358v-1.782c0-1.099-.559-2.027-1.678-2.287.073-.325.202-.459.403-.459h.267c.376 0 .632-.207.632-.549 0-.531-.44-.55-1.018-.55-.844 0-1.385.604-1.55 1.522" style="fill:#ffffff;fill-opacity:1;fill-rule:nonzero;stroke:none" transform="translate(31.983 30.702)"/><path d="M0 0v-1.782c0-.721.349-1.225 1.101-1.225s1.1.504 1.1 1.225V0c0 .729-.293 1.215-1.1 1.215C.294 1.215 0 .729 0 0Zm.541-4.105c-1.22.225-1.824 1.17-1.824 2.323V0c0 1.278.669 2.358 2.384 2.358 1.714 0 2.384-1.08 2.384-2.358v-1.782c0-1.099-.559-2.027-1.678-2.287.073-.325.202-.459.403-.459h.267c.376 0 .632-.207.632-.549 0-.531-.44-.55-1.018-.55-.844 0-1.385.604-1.55 1.522z" style="fill:none;stroke:#ffffff;stroke-width:.5;stroke-linecap:butt;stroke-linejoin:miter;stroke-miterlimit:10;stroke-dasharray:none;stroke-opacity:1" transform="translate(31.983 30.702)"/></g></svg>