<svg xmlns="http://www.w3.org/2000/svg" xml:space="preserve" width="60" height="64"><defs><clipPath clipPathUnits="userSpaceOnUse" id="a"><path d="M0 48h45V0H0Z"/></clipPath></defs><g clip-path="url(#a)" transform="matrix(1.33333 0 0 -1.33333 0 64)"><path d="M7.06 35.65H4.85v9.92A2.43 2.43 0 0 1 2.43 48H.88a.88.88 0 1 1 0-1.76h1.55c.36 0 .66-.3.66-.67v-9.92H.89a.88.88 0 1 1 0-1.77h6.17a.88.88 0 1 1 0 1.77M2.43 10.94H.88a.88.88 0 0 1 0-1.76h1.55c.36 0 .66-.3.66-.67V.8a.88.88 0 1 1 1.76 0v7.72a2.43 2.43 0 0 1-2.42 2.43M39.49 10.94h-1.55a.88.88 0 0 1 0-1.76h1.55c.36 0 .66-.3.66-.67V.8a.88.88 0 1 1 1.76 0v7.72a2.43 2.43 0 0 1-2.42 2.43M14.12 44.03a2.21 2.21 0 0 0 4.41 0v-6.18a2.21 2.21 0 0 0-4.41 0Zm2.2-10.15a3.97 3.97 0 0 1 3.97 3.97v6.18a3.97 3.97 0 0 1-7.94 0v-6.18a3.97 3.97 0 0 1 3.97-3.97M6.18 19.32a2.21 2.21 0 0 0-4.42 0v6.18a2.21 2.21 0 0 0 4.42 0ZM3.97 29.47A3.97 3.97 0 0 1 0 25.5v-6.18a3.97 3.97 0 0 1 7.94 0v6.18a3.97 3.97 0 0 1-3.97 3.97M37.94 35.65a.88.88 0 1 1 0-1.77h6.18a.88.88 0 1 1 0 1.77h-2.2v9.92A2.43 2.43 0 0 1 39.48 48h-1.55a.88.88 0 1 1 0-1.76h1.55c.36 0 .66-.3.66-.67v-9.92ZM26.47 44.03a2.21 2.21 0 0 0 4.41 0v-6.18a2.21 2.21 0 0 0-4.41 0Zm2.2-10.15a3.97 3.97 0 0 1 3.98 3.97v6.18a3.97 3.97 0 0 1-7.94 0v-6.18a3.97 3.97 0 0 1 3.97-3.97M43.24 19.32a2.21 2.21 0 0 0-4.42 0v6.18a2.21 2.21 0 0 0 4.42 0Zm-2.2 10.15a3.97 3.97 0 0 1-3.98-3.97v-6.18a3.97 3.97 0 0 1 7.94 0v6.18a3.97 3.97 0 0 1-3.97 3.97M34.08 5.95a2.95 2.95 0 0 0-2.5-1.4H13.43a2.92 2.92 0 0 0-2.63 4.25l9.09 18.17a2.92 2.92 0 0 0 5.25 0L34.2 8.8c.46-.92.4-1.98-.13-2.85m-7.38 21.8a4.67 4.67 0 0 1-4.2 2.6c-1.8 0-3.4-1-4.2-2.6L9.22 9.6a4.67 4.67 0 0 1 4.2-6.8h18.17c1.61 0 3.14.86 3.99 2.23.86 1.4.94 3.1.2 4.57z" fill="#ffffff"/><path d="M21.83 9.85v3.85c0 .48-.4.88-.88.88H19.3l3.88 4.51v-3.84c0-.49.39-.88.88-.88h1.65zm4.95 6.28h-1.84v5.34a.88.88 0 0 1-1.55.57l-6.14-7.14c-.31-.37-.38-.9-.18-1.35.21-.44.66-.73 1.15-.74h1.85V7.48a.88.88 0 0 1 1.54-.58l6.14 7.14c.31.38.38.91.18 1.35-.2.45-.66.74-1.15.74" fill="#ffffff"/></g></svg>