<svg xmlns="http://www.w3.org/2000/svg" xml:space="preserve" width="40" height="40"><defs><clipPath clipPathUnits="userSpaceOnUse" id="a"><path d="M0 30h30V0H0Z"/></clipPath></defs><g clip-path="url(#a)" transform="matrix(1.33333 0 0 -1.33333 0 40)"><path d="M6.18 9.84H7.8c.28 0 .51.23.51.5l-.05 1.64 1.18.05v-1.68c0-.28.23-.51.5-.51l1.64.05.05-1.18H9.96a.51.51 0 0 1-.51-.5l.05-1.64-1.18-.05V8.2c0 .28-.23.51-.5.51l-1.64-.05Zm5.92 1.02-1.63-.05v1.68c0 .29-.23.52-.51.52H7.8a.51.51 0 0 1-.5-.52l.04-1.63H5.67a.51.51 0 0 1-.51-.51V8.2c0-.28.23-.5.5-.5l1.64.04V6.06c0-.28.23-.51.51-.51h2.15c.28 0 .51.23.51.5l-.05 1.64h1.68c.29 0 .51.23.51.51v2.15c0 .28-.22.51-.5.51" fill="#0098da"/><path d="m12.4 3.15.17.1a7.04 7.04 0 0 1 2.69 2.85l.04.1v-.34c0-.8.65-1.44 1.44-1.44h1.17c.8 0 1.44.65 1.44 1.44v1.17c0 .8-.65 1.44-1.44 1.44h-1.17c-.27 0-.53-.07-.76-.22l-.03-.08-.02-.01.02.12a7 7 0 0 1 .04 1.58l-.05.06v.01l.09-.05c.21-.12.46-.19.71-.19h1.17c.8 0 1.44.65 1.44 1.44v1.17c0 .8-.65 1.44-1.44 1.44h-1.17c-.74 0-1.36-.56-1.43-1.3l.04-.13v-.03l-.09.15a7.08 7.08 0 0 1-2.2 2.55h-.08l-.01.01.1.04c.6.19 1.01.74 1.01 1.37v1.17c0 .8-.64 1.44-1.44 1.44h-1.17c-.8 0-1.44-.65-1.44-1.44V16.4c0-.06 0-.11-.02-.2-.32.05-.66.08-1 .08-.12 0-.24-.01-.38-.06h-.01v8.57c0 .82.67 1.49 1.49 1.49h14.44a1.5 1.5 0 0 0 1.48-1.5V4.7c0-.82-.66-1.49-1.48-1.49l-6.56-.05ZM10.97 16.4v1.17c0 .28.23.51.51.51h1.17c.29 0 .52-.23.52-.51V16.4a.51.51 0 0 0-.52-.52h-1.17a.51.51 0 0 0-.51.52M9.02 3.2a6.08 6.08 0 1 0 0 12.16 6.08 6.08 0 0 0 0-12.16m7.2 7.93v1.17c0 .28.24.51.52.51h1.17c.28 0 .52-.23.52-.51v-1.17a.51.51 0 0 0-.52-.51h-1.17a.51.51 0 0 0-.51.51m.51-5.78a.51.51 0 0 0-.51.51v1.17c0 .29.23.52.51.52h1.17c.28 0 .52-.23.52-.52V5.86a.51.51 0 0 0-.52-.51Zm7.8 21.85H10.12a2.42 2.42 0 0 1-2.42-2.41l-.02-8.65A7 7 0 0 1 9.02 2.28h15.53a2.42 2.42 0 0 1 2.4 2.41v20.1a2.42 2.42 0 0 1-2.4 2.41" fill="#0098da"/><path d="M24.37 20.52v3.9c0 .23-.18.41-.4.41H17.5a.41.41 0 1 1 0-.82l6.04.05.05-3.13-12.89-.05-.05 3.13h3.4c.23 0 .42.18.42.41 0 .23-.19.41-.41.41H10.3a.41.41 0 0 1-.41-.4v-3.91c0-.23.18-.41.41-.41h13.66c.23 0 .41.18.41.4M16.23 17.57c0 .28.23.51.51.51h1.17c.28 0 .51-.23.51-.51V16.4a.51.51 0 0 0-.5-.52h-1.18a.51.51 0 0 0-.51.52ZM17.9 19h-1.17c-.8 0-1.44-.65-1.44-1.44V16.4c0-.8.65-1.44 1.44-1.44h1.17c.8 0 1.44.64 1.44 1.44v1.17c0 .8-.65 1.44-1.44 1.44M21.5 17.57c0 .28.23.51.5.51h1.18c.28 0 .51-.23.51-.51V16.4a.51.51 0 0 0-.51-.52h-1.17a.51.51 0 0 0-.51.52ZM23.18 19h-1.17c-.8 0-1.44-.65-1.44-1.44V16.4c0-.8.65-1.44 1.44-1.44h1.17c.8 0 1.44.64 1.44 1.44v1.17c0 .8-.65 1.44-1.44 1.44M21.5 12.3c0 .28.23.51.5.51h1.18c.28 0 .51-.23.51-.5V5.85a.51.51 0 0 0-.51-.51h-1.17a.51.51 0 0 0-.51.51Zm3.12 0c0 .8-.65 1.44-1.44 1.44h-1.17c-.8 0-1.44-.65-1.44-1.44V5.86c0-.8.65-1.44 1.44-1.44h1.17c.8 0 1.44.65 1.44 1.44zM9.96 8.76a.56.56 0 0 1-.56-.56l.1-1.58-1.13-.1V8.2c0 .31-.25.56-.56.56l-1.58-.1-.05 1.13H7.8c.31 0 .56.25.56.56l-.1 1.58 1.13.1v-1.68c0-.31.25-.56.56-.56l1.58.1.1-1.13Zm2.14 2.15-1.58-.1v1.68c0 .31-.25.57-.56.57H7.8a.56.56 0 0 1-.56-.57l.1-1.58H5.67a.56.56 0 0 1-.56-.56V8.2c0-.3.25-.56.56-.56l1.58.1V6.06c0-.31.25-.56.56-.56h2.15c.3 0 .56.25.56.56l-.1 1.58h1.69c.3 0 .56.25.56.56v2.15c0 .3-.26.56-.57.56" fill="#0098da"/><path d="M16.28 11.13v1.17c0 .26.2.46.46.46h1.17c.26 0 .47-.2.47-.46v-1.17c0-.26-.21-.46-.47-.46h-1.17c-.25 0-.46.2-.46.46m0-5.27v1.17c0 .26.2.47.46.47h1.17c.26 0 .47-.21.47-.47V5.86c0-.25-.21-.46-.47-.46h-1.17c-.25 0-.46.2-.46.46m-.3 2.3v.02-.01zm10-3.47c0-.8-.64-1.44-1.43-1.44l-6.56-.05-5.56-.1.17.1A7.1 7.1 0 0 1 15.25 6v-.13c0-.82.67-1.49 1.49-1.49h1.17c.82 0 1.49.67 1.49 1.5v1.16a1.5 1.5 0 0 1-1.49 1.5h-1.17c-.26 0-.51-.08-.74-.2a7.16 7.16 0 0 1 .04 1.49c.21-.12.45-.18.7-.18h1.17c.82 0 1.49.67 1.49 1.49v1.17c0 .82-.67 1.49-1.49 1.49h-1.17c-.74 0-1.35-.53-1.47-1.27A7.16 7.16 0 0 1 13.14 15c.6.21 1 .77 1 1.4v1.18c0 .82-.68 1.49-1.5 1.49h-1.17c-.82 0-1.49-.67-1.49-1.5v-1.18c0-.05 0-.1.04-.13a7.3 7.3 0 0 1-1 .07c-.13 0-.26 0-.35-.1v8.57c0 .8.64 1.44 1.44 1.44h14.44c.79 0 1.43-.65 1.43-1.44zM13.01 14.95h-.03zm-.37.98h-1.17c-.25 0-.46.21-.46.47v1.17c0 .25.2.46.46.46h1.17c.26 0 .47-.2.47-.46V16.4c0-.26-.21-.47-.47-.47M3 9.28a6.03 6.03 0 1 0 12.06-.02A6.03 6.03 0 0 0 3 9.28m21.56 17.97H10.1a2.47 2.47 0 0 1-2.47-2.46l.02-8.6A7.06 7.06 0 0 1 9.02 2.23h15.53c1.35 0 2.46 1.1 2.46 2.46v20.1c0 1.36-1.1 2.46-2.46 2.46" fill="#0098da"/><path d="M24.42 20.52v3.9c0 .26-.2.46-.46.46h-6.45a.46.46 0 0 1 0-.92l5.99.1.1-3.08-12.84-.1-.1 3.08h3.4c.26 0 .47.2.47.46s-.2.46-.46.46H10.3a.46.46 0 0 1-.46-.46v-3.9c0-.26.2-.46.46-.46h13.66c.26 0 .46.2.46.46M18.38 16.4c0-.26-.21-.47-.47-.47h-1.17c-.25 0-.46.21-.46.47v1.17c0 .25.2.46.46.46h1.17c.26 0 .46-.2.46-.46Zm-.47 2.66h-1.17c-.82 0-1.49-.67-1.49-1.5V16.4c0-.82.67-1.49 1.49-1.49h1.17c.82 0 1.49.67 1.49 1.49v1.17c0 .82-.67 1.49-1.49 1.49M23.64 16.4c0-.26-.2-.47-.46-.47h-1.17c-.26 0-.46.21-.46.47v1.17c0 .25.2.46.46.46h1.17c.25 0 .46-.2.46-.46Zm-.46 2.66h-1.17c-.82 0-1.49-.67-1.49-1.5V16.4c0-.82.67-1.49 1.49-1.49h1.17c.82 0 1.49.67 1.49 1.49v1.17c0 .82-.67 1.49-1.49 1.49M23.64 5.86c0-.25-.2-.46-.46-.46h-1.17c-.26 0-.46.2-.46.46v6.44c0 .26.2.46.46.46h1.17c.25 0 .46-.2.46-.46Zm-.46 7.93h-1.17c-.82 0-1.49-.67-1.49-1.49V5.86c0-.82.67-1.49 1.49-1.49h1.17c.82 0 1.49.67 1.49 1.5v6.43c0 .82-.67 1.49-1.49 1.49" fill="#0098da"/><path d="M14.22 23.56a.4.4 0 0 1-.33-.18l-.43-.76h-1.8a.39.39 0 0 1 0-.78h1.96c.13 0 .26.07.33.19l.13.29v.15l.4-1a.4.4 0 0 1 .37-.25c.16 0 .3.11.36.29l.27 1.29.16 1.08.23-1.77c.04-.18.2-.3.38-.3h6.5a.39.39 0 0 1 0 .77l-6.16-.09-.41 2.88c-.04.18-.19.3-.4.3-.15 0-.3-.1-.35-.27l-.35-1.6-.2-1.22-.3.74a.4.4 0 0 1-.36.24" fill="#0098da"/><path d="M14.53 23.3a.35.35 0 0 1-.3.2.34.34 0 0 1-.3-.15l-.47-.78h-1.8a.34.34 0 0 1 0-.68h1.96c.12 0 .23.06.29.16l.13.3.09.14.4-1a.34.34 0 0 1 .32-.22c.14 0 .26.1.31.25l.27 1.29.26 1.08.23-1.77a.34.34 0 0 1 .33-.26h6.5c.18 0 .34.15.34.33 0 .19-.16.34-.34.34l-6.2-.04-.42 2.87c-.03.15-.16.26-.34.27-.13 0-.26-.1-.31-.25l-.35-1.59-.3-1.23ZM6.18 9.84H7.8c.28 0 .51.23.51.5l-.05 1.64 1.18.05v-1.68c0-.28.23-.51.5-.51l1.64.05.05-1.18H9.96a.51.51 0 0 1-.51-.5l.05-1.64-1.18-.05V8.2c0 .28-.23.51-.5.51l-1.64-.05Zm5.92 1.02-1.63-.05v1.68c0 .29-.23.52-.51.52H7.8a.51.51 0 0 1-.5-.52l.04-1.63H5.67a.51.51 0 0 1-.51-.51V8.2c0-.28.23-.5.5-.5l1.64.04V6.06c0-.28.23-.51.51-.51h2.15c.28 0 .51.23.51.5l-.05 1.64h1.68c.29 0 .51.23.51.51v2.15c0 .28-.22.51-.5.51" fill="#0098da"/><path d="m12.4 3.15.17.1a7.04 7.04 0 0 1 2.69 2.85l.04.1v-.34c0-.8.65-1.44 1.44-1.44h1.17c.8 0 1.44.65 1.44 1.44v1.17c0 .8-.65 1.44-1.44 1.44h-1.17c-.27 0-.53-.07-.76-.22l-.03-.08-.02-.01.02.12a7 7 0 0 1 .04 1.58l-.05.06v.01l.09-.05c.21-.12.46-.19.71-.19h1.17c.8 0 1.44.65 1.44 1.44v1.17c0 .8-.65 1.44-1.44 1.44h-1.17c-.74 0-1.36-.56-1.43-1.3l.04-.13v-.03l-.09.15a7.08 7.08 0 0 1-2.2 2.55h-.08l-.01.01.1.04c.6.19 1.01.74 1.01 1.37v1.17c0 .8-.64 1.44-1.44 1.44h-1.17c-.8 0-1.44-.65-1.44-1.44V16.4c0-.06 0-.11-.02-.2-.32.05-.66.08-1 .08-.12 0-.24-.01-.38-.06h-.01v8.57c0 .82.67 1.49 1.49 1.49h14.44a1.5 1.5 0 0 0 1.48-1.5V4.7c0-.82-.66-1.49-1.48-1.49l-6.56-.05ZM10.97 16.4v1.17c0 .28.23.51.51.51h1.17c.29 0 .52-.23.52-.51V16.4a.51.51 0 0 0-.52-.52h-1.17a.51.51 0 0 0-.51.52M9.02 3.2a6.08 6.08 0 1 0 0 12.16 6.08 6.08 0 0 0 0-12.16m7.2 7.93v1.17c0 .28.24.51.52.51h1.17c.28 0 .52-.23.52-.51v-1.17a.51.51 0 0 0-.52-.51h-1.17a.51.51 0 0 0-.51.51m.51-5.78a.51.51 0 0 0-.51.51v1.17c0 .29.23.52.51.52h1.17c.28 0 .52-.23.52-.52V5.86a.51.51 0 0 0-.52-.51Zm7.8 21.85H10.12a2.42 2.42 0 0 1-2.42-2.41l-.02-8.65A7 7 0 0 1 9.02 2.28h15.53a2.42 2.42 0 0 1 2.4 2.41v20.1a2.42 2.42 0 0 1-2.4 2.41" fill="#0098da"/><path d="M24.37 20.52v3.9c0 .23-.18.41-.4.41H17.5a.41.41 0 1 1 0-.82l6.04.05.05-3.13-12.89-.05-.05 3.13h3.4c.23 0 .42.18.42.41 0 .23-.19.41-.41.41H10.3a.41.41 0 0 1-.41-.4v-3.91c0-.23.18-.41.41-.41h13.66c.23 0 .41.18.41.4M16.23 17.57c0 .28.23.51.51.51h1.17c.28 0 .51-.23.51-.51V16.4a.51.51 0 0 0-.5-.52h-1.18a.51.51 0 0 0-.51.52ZM17.9 19h-1.17c-.8 0-1.44-.65-1.44-1.44V16.4c0-.8.65-1.44 1.44-1.44h1.17c.8 0 1.44.64 1.44 1.44v1.17c0 .8-.65 1.44-1.44 1.44M21.5 17.57c0 .28.23.51.5.51h1.18c.28 0 .51-.23.51-.51V16.4a.51.51 0 0 0-.51-.52h-1.17a.51.51 0 0 0-.51.52ZM23.18 19h-1.17c-.8 0-1.44-.65-1.44-1.44V16.4c0-.8.65-1.44 1.44-1.44h1.17c.8 0 1.44.64 1.44 1.44v1.17c0 .8-.65 1.44-1.44 1.44M21.5 12.3c0 .28.23.51.5.51h1.18c.28 0 .51-.23.51-.5V5.85a.51.51 0 0 0-.51-.51h-1.17a.51.51 0 0 0-.51.51Zm3.12 0c0 .8-.65 1.44-1.44 1.44h-1.17c-.8 0-1.44-.65-1.44-1.44V5.86c0-.8.65-1.44 1.44-1.44h1.17c.8 0 1.44.65 1.44 1.44zM9.96 8.76a.56.56 0 0 1-.56-.56l.1-1.58-1.13-.1V8.2c0 .31-.25.56-.56.56l-1.58-.1-.05 1.13H7.8c.31 0 .56.25.56.56l-.1 1.58 1.13.1v-1.68c0-.31.25-.56.56-.56l1.58.1.1-1.13Zm2.14 2.15-1.58-.1v1.68c0 .31-.25.57-.56.57H7.8a.56.56 0 0 1-.56-.57l.1-1.58H5.67a.56.56 0 0 1-.56-.56V8.2c0-.3.25-.56.56-.56l1.58.1V6.06c0-.31.25-.56.56-.56h2.15c.3 0 .56.25.56.56l-.1 1.58h1.69c.3 0 .56.25.56.56v2.15c0 .3-.26.56-.57.56" fill="#0098da"/><path d="M16.28 11.13v1.17c0 .26.2.46.46.46h1.17c.26 0 .47-.2.47-.46v-1.17c0-.26-.21-.46-.47-.46h-1.17c-.25 0-.46.2-.46.46m0-5.27v1.17c0 .26.2.47.46.47h1.17c.26 0 .47-.21.47-.47V5.86c0-.25-.21-.46-.47-.46h-1.17c-.25 0-.46.2-.46.46m-.3 2.3v.02-.01zm10-3.47c0-.8-.64-1.44-1.43-1.44l-6.56-.05-5.56-.1.17.1A7.1 7.1 0 0 1 15.25 6v-.13c0-.82.67-1.49 1.49-1.49h1.17c.82 0 1.49.67 1.49 1.5v1.16a1.5 1.5 0 0 1-1.49 1.5h-1.17c-.26 0-.51-.08-.74-.2a7.16 7.16 0 0 1 .04 1.49c.21-.12.45-.18.7-.18h1.17c.82 0 1.49.67 1.49 1.49v1.17c0 .82-.67 1.49-1.49 1.49h-1.17c-.74 0-1.35-.53-1.47-1.27A7.16 7.16 0 0 1 13.14 15c.6.21 1 .77 1 1.4v1.18c0 .82-.68 1.49-1.5 1.49h-1.17c-.82 0-1.49-.67-1.49-1.5v-1.18c0-.05 0-.1.04-.13a7.3 7.3 0 0 1-1 .07c-.13 0-.26 0-.35-.1v8.57c0 .8.64 1.44 1.44 1.44h14.44c.79 0 1.43-.65 1.43-1.44zM13.01 14.95h-.03zm-.37.98h-1.17c-.25 0-.46.21-.46.47v1.17c0 .25.2.46.46.46h1.17c.26 0 .47-.2.47-.46V16.4c0-.26-.21-.47-.47-.47M3 9.28a6.03 6.03 0 1 0 12.06-.02A6.03 6.03 0 0 0 3 9.28m21.56 17.97H10.1a2.47 2.47 0 0 1-2.47-2.46l.02-8.6A7.06 7.06 0 0 1 9.02 2.23h15.53c1.35 0 2.46 1.1 2.46 2.46v20.1c0 1.36-1.1 2.46-2.46 2.46" fill="#0098da"/><path d="M24.42 20.52v3.9c0 .26-.2.46-.46.46h-6.45a.46.46 0 0 1 0-.92l5.99.1.1-3.08-12.84-.1-.1 3.08h3.4c.26 0 .47.2.47.46s-.2.46-.46.46H10.3a.46.46 0 0 1-.46-.46v-3.9c0-.26.2-.46.46-.46h13.66c.26 0 .46.2.46.46M18.38 16.4c0-.26-.21-.47-.47-.47h-1.17c-.25 0-.46.21-.46.47v1.17c0 .25.2.46.46.46h1.17c.26 0 .46-.2.46-.46Zm-.47 2.66h-1.17c-.82 0-1.49-.67-1.49-1.5V16.4c0-.82.67-1.49 1.49-1.49h1.17c.82 0 1.49.67 1.49 1.49v1.17c0 .82-.67 1.49-1.49 1.49M23.64 16.4c0-.26-.2-.47-.46-.47h-1.17c-.26 0-.46.21-.46.47v1.17c0 .25.2.46.46.46h1.17c.25 0 .46-.2.46-.46Zm-.46 2.66h-1.17c-.82 0-1.49-.67-1.49-1.5V16.4c0-.82.67-1.49 1.49-1.49h1.17c.82 0 1.49.67 1.49 1.49v1.17c0 .82-.67 1.49-1.49 1.49M23.64 5.86c0-.25-.2-.46-.46-.46h-1.17c-.26 0-.46.2-.46.46v6.44c0 .26.2.46.46.46h1.17c.25 0 .46-.2.46-.46Zm-.46 7.93h-1.17c-.82 0-1.49-.67-1.49-1.49V5.86c0-.82.67-1.49 1.49-1.49h1.17c.82 0 1.49.67 1.49 1.5v6.43c0 .82-.67 1.49-1.49 1.49" fill="#0098da"/><path d="M14.22 23.56a.4.4 0 0 1-.33-.18l-.43-.76h-1.8a.39.39 0 0 1 0-.78h1.96c.13 0 .26.07.33.19l.13.29v.15l.4-1a.4.4 0 0 1 .37-.25c.16 0 .3.11.36.29l.27 1.29.16 1.08.23-1.77c.04-.18.2-.3.38-.3h6.5a.39.39 0 0 1 0 .77l-6.16-.09-.41 2.88c-.04.18-.19.3-.4.3-.15 0-.3-.1-.35-.27l-.35-1.6-.2-1.22-.3.74a.4.4 0 0 1-.36.24" fill="#0098da"/><path d="M14.53 23.3a.35.35 0 0 1-.3.2.34.34 0 0 1-.3-.15l-.47-.78h-1.8a.34.34 0 0 1 0-.68h1.96c.12 0 .23.06.29.16l.13.3.09.14.4-1a.34.34 0 0 1 .32-.22c.14 0 .26.1.31.25l.27 1.29.26 1.08.23-1.77a.34.34 0 0 1 .33-.26h6.5c.18 0 .34.15.34.33 0 .19-.16.34-.34.34l-6.2-.04-.42 2.87c-.03.15-.16.26-.34.27-.13 0-.26-.1-.31-.25l-.35-1.59-.3-1.23Z" fill="#0098da"/></g></svg>