<svg xmlns="http://www.w3.org/2000/svg" width="66.667" height="66.667"><defs><clipPath id="a"><path d="M0 50h50V0H0z"/></clipPath></defs><g clip-path="url(#a)" transform="matrix(1.3333 0 0 -1.3333 0 66.667)"><path fill="#0098da" d="M19.712 39.834a.821.821 0 0 1-.821-.82v-.134c-.976-.277-1.666-1.031-1.666-1.949 0-1.162 1.093-2.072 2.487-2.072.523 0 .844-.277.844-.429s-.322-.429-.88-.43a.962.962 0 0 0-.816.385.822.822 0 0 1-1.306-.995 2.624 2.624 0 0 1 1.337-.913v-.13a.822.822 0 0 1 1.641 0v.134c.976.278 1.664 1.031 1.664 1.949 0 1.161-1.091 2.07-2.484 2.07-.525 0-.846.279-.846.431 0 .151.321.429.879.43a.967.967 0 0 0 .815-.384.821.821 0 0 1 1.307.993 2.616 2.616 0 0 1-1.335.906v.138a.82.82 0 0 1-.82.82M17.034 28.063a1.757 1.757 0 0 1 2.48 0h.161l1.652-1.649-.001-.161-.391-.392a1.964 1.964 0 0 0-2.439-.288l-.006.004a24.316 24.316 0 0 0-6.57 6.563 1.969 1.969 0 0 0 .27 2.464l.393.392a.113.113 0 0 0 .08.028c.03 0 .06-.009.079-.028l1.651-1.65v-.161a1.757 1.757 0 0 1 0-2.48zm-.966 5.203c0 .462-.187.915-.514 1.24l-1.651 1.65c-.662.663-1.819.662-2.48.001l-.393-.392c-1.21-1.21-1.413-3.063-.477-4.532a25.992 25.992 0 0 1 7.01-7.01l.025-.016a3.624 3.624 0 0 1 1.951-.573 3.61 3.61 0 0 1 2.556 1.067l.391.391c.332.331.515.772.515 1.242 0 .469-.183.91-.515 1.24l-1.65 1.649c-.658.66-1.826.659-2.481.001a.115.115 0 0 0-.161 0l-2.639 2.64a.114.114 0 0 0-.001.161c.331.331.514.772.514 1.241"/><path fill="#0098da" d="m49.589 42.847-2.74 2.497a.819.819 0 0 1-1.114-.01l-2.897-2.724a.82.82 0 1 1 1.124-1.195l1.52 1.429V22.045c0-.606-.472-1.1-1.05-1.1h-29.06a.821.821 0 0 1-.588-.248l-4.198-4.314v3.741a.82.82 0 0 1-.82.821H7.898c-.579 0-1.049.494-1.049 1.1v19.01c0 .607.47 1.1 1.049 1.1h30.347a.82.82 0 1 1 0 1.641H7.898c-1.483 0-2.69-1.23-2.69-2.741v-19.01c0-1.511 1.207-2.74 2.69-2.74h1.047v-4.94a.819.819 0 0 1 .821-.821.82.82 0 0 1 .588.248l5.364 5.513h28.714c1.483 0 2.689 1.229 2.689 2.74v20.83l1.364-1.241a.82.82 0 1 1 1.104 1.213"/><path fill="#0098da" d="M40.211 17.772a.82.82 0 0 1-.82-.82v-4.009c0-.606-.47-1.1-1.048-1.1H12.355a.821.821 0 0 1-.588-.248L7.57 7.282v3.741a.82.82 0 0 1-.821.82H2.832c-.578 0-1.048.494-1.048 1.1v19.916c0 .607.47 1.1 1.048 1.1h.234a.821.821 0 0 1 0 1.641h-.234c-1.483 0-2.689-1.229-2.689-2.741V12.943c0-1.511 1.206-2.74 2.689-2.74h3.097V5.262a.82.82 0 0 1 1.408-.572l5.364 5.513h25.642c1.482 0 2.688 1.229 2.688 2.74v4.009a.82.82 0 0 1-.82.82M32.533 34.994a.82.82 0 0 1 .82-.821h7.451a.82.82 0 1 1 0 1.641h-7.451a.82.82 0 0 1-.82-.82M27.272 34.173h3.305a.82.82 0 0 1 0 1.641h-3.305a.82.82 0 0 1 0-1.641M40.805 31.46H27.273a.82.82 0 0 1 0-1.641h13.532a.82.82 0 0 1 0 1.641M40.805 27.106h-3.556a.82.82 0 0 1 0-1.641h3.556a.82.82 0 0 1 0 1.641M27.272 27.106a.82.82 0 0 1 0-1.641h7.393a.82.82 0 0 1 0 1.641z"/></g></svg>