<?xml version="1.0" encoding="utf-8"?>
<!-- Generator: Adobe Illustrator 22.0.1, SVG Export Plug-In . SVG Version: 6.00 Build 0)  -->
<svg version="1.1" id="Слой_1" xmlns="http://www.w3.org/2000/svg" xmlns:xlink="http://www.w3.org/1999/xlink" x="0px" y="0px"
	 viewBox="0 0 36 30" style="enable-background:new 0 0 36 30;" xml:space="preserve">
<style type="text/css">
	.st0{fill:#FF8A00;}
</style>
<g>
	<g>
		<path class="st0" d="M6.7,10.6L8.4,12c0.2,0.1,0.4,0.1,0.6,0s0.3-0.3,0.3-0.4v-1.5h2.1l0,0c-1.5,2.1-1.9,4.7-1.3,7.1
			c0.7,2.4,2.4,4.4,4.8,5.4l0,0c1,0.4,2.1,0.6,3.2,0.6c0.5,0,1,0,1.5-0.1v3.1c0,1.1,0.9,1.9,1.9,1.9h6.8c1.1,0,1.9-0.9,1.9-1.9v-4.4
			c0-0.7-0.3-1.4-0.9-1.9l-1.7-1.4c-0.1-0.1-0.3-0.1-0.5-0.1c-0.2,0.1-0.3,0.3-0.3,0.4v1.5h-2.5c0.1-0.2,0.3-0.3,0.4-0.5l0,0l0,0
			c1.8-2.5,2.1-5.9,0.7-8.6C24,8.4,21.1,6.7,18,6.7c-0.5,0-1,0-1.5,0.1V4.3c0-1.1-0.9-1.9-1.9-1.9H7.8c-1.1,0-1.9,0.9-1.9,1.9v4.4
			C5.8,9.4,6.1,10.1,6.7,10.6L6.7,10.6z M27.3,21.3c0.3,0,0.5-0.2,0.5-0.5v-0.9l0.9,0.7c0.3,0.3,0.5,0.7,0.5,1.1v4.4
			c0,0.5-0.4,1-1,1h-6.8c-0.5,0-1-0.4-1-1v-3.9c0-0.5,0.4-1,1-1L27.3,21.3L27.3,21.3z M22,20.3c0.1-0.3,0.2-0.6,0.2-0.9
			c0.4,0.1,0.8,0.2,1.2,0.3c-0.2,0.2-0.3,0.4-0.5,0.5H22V20.3z M24.1,19c-0.6-0.2-1.1-0.3-1.7-0.5c0.2-1,0.3-2,0.3-3.1h2.5
			C25.2,16.7,24.8,17.9,24.1,19L24.1,19z M24.1,11c0.7,1,1.1,2.3,1.2,3.5h-2.5c0-1-0.1-2-0.3-3C23,11.3,23.6,11.2,24.1,11L24.1,11z
			 M23.5,10.2c-0.4,0.1-0.8,0.2-1.2,0.3c-0.1-0.6-0.3-1.2-0.5-1.8C22.4,9.1,23,9.6,23.5,10.2L23.5,10.2z M18.5,7.7
			c0.7,0,1.4,0.2,2,0.4c0.3,0.8,0.6,1.7,0.8,2.6c-0.9,0.2-1.9,0.3-2.8,0.3V7.7z M18.5,11.9c1,0,2-0.1,3-0.3c0.2,0.9,0.3,1.9,0.3,2.9
			h-3.3V11.9z M18.5,15.5h3.3c0,1-0.1,1.9-0.3,2.9c-1-0.2-2-0.3-3-0.3V15.5z M18.5,19c0.9,0,1.9,0.1,2.8,0.3
			c-0.1,0.4-0.2,0.7-0.3,1.1c-0.8,0.2-1.5,0.9-1.5,1.8c-0.3,0.1-0.7,0.1-1,0.1V19z M11.9,11c0.5,0.2,1.1,0.3,1.6,0.4
			c-0.2,1-0.3,2-0.3,3.1h-2.4C10.8,13.2,11.2,12,11.9,11L11.9,11z M12.5,10.2C12.5,10.1,12.5,10.1,12.5,10.2l1.2-0.1
			c0,0.1-0.1,0.2-0.1,0.4C13.3,10.4,12.9,10.3,12.5,10.2L12.5,10.2z M11.9,19c-0.7-1-1.1-2.2-1.2-3.5h2.4c0,1,0.1,2,0.3,3.1
			C12.9,18.6,12.4,18.8,11.9,19L11.9,19z M12.5,19.8c0.4-0.1,0.8-0.2,1.2-0.3c0.1,0.6,0.3,1.1,0.5,1.7C13.5,20.8,13,20.3,12.5,19.8
			L12.5,19.8z M17.5,22.3c-0.7-0.1-1.5-0.2-2.1-0.5c-0.3-0.8-0.6-1.7-0.8-2.5c1-0.2,1.9-0.3,2.9-0.3V22.3z M17.5,18
			c-1,0-2.1,0.1-3.1,0.3c-0.2-0.9-0.3-1.9-0.3-2.9h3.4V18z M17.5,14.5h-3.4c0-1,0.1-1.9,0.3-2.9c1,0.2,2.1,0.3,3.1,0.3V14.5z
			 M16.5,8.2V7.8c0.3-0.1,0.6-0.1,1-0.1V11c-1,0-2-0.1-2.9-0.3c0-0.2,0.1-0.4,0.1-0.6C15.8,10,16.5,9.2,16.5,8.2L16.5,8.2z M6.8,4.3
			c0-0.5,0.4-1,1-1h6.8c0.5,0,1,0.4,1,1v3.9c0,0.5-0.4,1-1,1H8.7c-0.3,0-0.5,0.2-0.5,0.5v0.9L7.3,9.8C7,9.5,6.8,9.1,6.8,8.7V4.3z"/>
	</g>
	<path class="st0" d="M11.9,6c0,0.4-0.3,0.7-0.7,0.7S10.5,6.4,10.5,6c0-0.4,0.3-0.7,0.7-0.7C11.6,5.2,11.9,5.6,11.9,6L11.9,6z"/>
	<path class="st0" d="M14.6,6c0,0.4-0.3,0.7-0.7,0.7S13.2,6.4,13.2,6c0-0.4,0.3-0.7,0.7-0.7C14.3,5.2,14.6,5.6,14.6,6L14.6,6z"/>
	<path class="st0" d="M9.2,6c0,0.4-0.3,0.7-0.7,0.7S7.8,6.4,7.8,6s0.3-0.7,0.7-0.7C8.9,5.2,9.2,5.6,9.2,6L9.2,6z"/>
	<path class="st0" d="M25.6,24.5c0,0.4-0.3,0.7-0.7,0.7c-0.4,0-0.7-0.3-0.7-0.7s0.3-0.7,0.7-0.7C25.2,23.8,25.6,24.1,25.6,24.5
		L25.6,24.5z"/>
	<path class="st0" d="M28.2,24.5c0,0.4-0.3,0.7-0.7,0.7c-0.4,0-0.7-0.3-0.7-0.7s0.3-0.7,0.7-0.7C27.9,23.8,28.2,24.1,28.2,24.5
		L28.2,24.5z"/>
	<path class="st0" d="M22.9,24.5c0,0.4-0.3,0.7-0.7,0.7c-0.4,0-0.7-0.3-0.7-0.7s0.3-0.7,0.7-0.7C22.5,23.8,22.9,24.1,22.9,24.5
		L22.9,24.5z"/>
</g>
</svg>
