<svg xmlns="http://www.w3.org/2000/svg" xml:space="preserve" width="66.667" height="66.667"><defs><clipPath clipPathUnits="userSpaceOnUse" id="a"><path d="M0 50h50V0H0Z"/></clipPath></defs><g clip-path="url(#a)" transform="matrix(1.33333 0 0 -1.33333 0 66.667)"><path d="M0 0c0 1.208.983 2.191 2.191 2.191h29.998c1.208 0 2.19-.983 2.19-2.191v-1.887H22.605a4.608 4.608 0 0 1-4.603-4.603v-16.491c0-.578.32-1.096.831-1.35.209-.105.443-.16.678-.16.323 0 .645.106.836.254l6.248 3.735c.463.277.993.423 1.532.423h6.252V-38.73c0-1.434.574-2.735 1.501-3.691H3.691A3.695 3.695 0 0 0 0-38.73Zm41.051-6.49v-8.986a2.99 2.99 0 0 0-2.985-2.986h-9.939a4.6 4.6 0 0 1-2.361-.652l-6.147-3.733V-6.49a2.99 2.99 0 0 0 2.986 2.986h15.461a2.99 2.99 0 0 0 2.985-2.986M3.691-44.039h35.997a5.316 5.316 0 0 1 5.309 5.309v13.678a.81.81 0 0 1-1.619 0V-38.73a3.694 3.694 0 0 0-3.69-3.691 3.695 3.695 0 0 0-3.691 3.691v18.651h2.069a4.608 4.608 0 0 1 4.603 4.603v8.986a4.608 4.608 0 0 1-4.603 4.603h-2.069V0c0 2.1-1.708 3.808-3.808 3.808H2.191A3.813 3.813 0 0 1-1.617 0v-38.73a5.315 5.315 0 0 1 5.308-5.309" style="fill:#0098da;fill-opacity:1;fill-rule:nonzero;stroke:none" transform="translate(3.665 44.603)"/><path d="M0 0a.81.81 0 0 1 .808-.809h20.998a.81.81 0 0 1 0 1.619H.808A.81.81 0 0 1 0 0" style="fill:#0098da;fill-opacity:1;fill-rule:nonzero;stroke:none" transform="translate(8.489 13.196)"/><path d="M0 0h-11.999a.808.808 0 1 1 0-1.617H0A.809.809 0 1 1 0 0" style="fill:#0098da;fill-opacity:1;fill-rule:nonzero;stroke:none" transform="translate(21.296 8.006)"/><path d="M0 0c0 .43.35.779.78.779h2.512c.208 0 .402-.08.549-.227l2.252-2.246a.775.775 0 0 0 .229-.552v-4.105a.78.78 0 0 0-.779-.779H.78a.78.78 0 0 0-.78.779Zm.78-8.747h4.763a2.399 2.399 0 0 1 2.396 2.396v4.106a2.383 2.383 0 0 1-.705 1.696L4.983 1.696c-.452.452-1.052.7-1.69.7H.78A2.4 2.4 0 0 1-1.617 0v-6.351A2.4 2.4 0 0 1 .78-8.747" style="fill:#0098da;fill-opacity:1;fill-rule:nonzero;stroke:none" transform="translate(9.43 40.519)"/><path d="M0 0c0 .43.35.779.78.779h2.512a.773.773 0 0 0 .549-.227l2.252-2.247a.771.771 0 0 0 .229-.551v-4.105a.78.78 0 0 0-.779-.779H.78a.78.78 0 0 0-.78.779Zm.78-8.748h4.763a2.4 2.4 0 0 1 2.396 2.397v4.105A2.38 2.38 0 0 1 7.234-.55L4.983 1.696c-.452.451-1.052.7-1.69.7H.78A2.4 2.4 0 0 1-1.617 0v-6.351A2.4 2.4 0 0 1 .78-8.748" style="fill:#0098da;fill-opacity:1;fill-rule:nonzero;stroke:none" transform="translate(9.43 26.758)"/><path d="M0 0h3.578c.475 0 .861.352.861.785 0 .398-.394.735-.861.735H.55V3.8h2.637c.475 0 .847.339.847.772 0 .454-.438.76-.847.76H.55v2.242h2.893c.483 0 .861.328.861.748 0 .432-.386.784-.861.784h-3.66c-.571 0-.955-.445-.955-.86V.86C-1.172.306-.756 0 0 0" style="fill:#0098da;fill-opacity:1;fill-rule:nonzero;stroke:none" transform="translate(28.648 29.223)"/><path d="M0 0c.059-.077.113-.151.113-.58v-4.039c0-.453.333-.747.848-.747.516 0 .848.294.848.747V-.58c0 .072-.008.153-.025.241.416.223.788.333 1.136.333.602 0 .948-.416.948-1.14v-3.473c0-.446.341-.747.848-.747.499 0 .847.307.847.747v3.473c0 1.586-.922 2.533-2.468 2.533A3.556 3.556 0 0 1 1.26.872c-.184.214-.411.327-.663.327-.468 0-.821-.3-.821-.698 0-.188.074-.291.181-.441C-.028.038-.015.019 0 0" style="fill:#0098da;fill-opacity:1;fill-rule:nonzero;stroke:none" transform="translate(34.765 34.501)"/></g></svg>