<svg xmlns="http://www.w3.org/2000/svg" width="66.667" height="66.667"><defs><clipPath id="a"><path d="M0 50h50V0H0z"/></clipPath></defs><g clip-path="url(#a)" transform="matrix(1.3333 0 0 -1.3333 0 66.667)"><path fill="#0098da" d="M6.21 10.824c.452 0 .82.366.82.818v.416c0 1.198.446 2.624 2.575 2.624h14.48v-2.836a.818.818 0 1 1 1.637 0v2.836h14.481c2.13 0 2.575-1.426 2.575-2.624v-.416a.818.818 0 1 1 1.638 0v.416c0 2.629-1.614 4.262-4.213 4.262H9.605c-2.599 0-4.214-1.633-4.214-4.262v-.416c0-.452.367-.818.82-.818M48.208 1.933a.124.124 0 0 0-.123-.124h-9.056a.124.124 0 0 0-.122.124v6.316c0 .074.06.132.132.132h9.037a.131.131 0 0 0 .132-.132zm-.132 8.086h-9.037a1.77 1.77 0 0 1-1.769-1.77V1.933c0-.972.79-1.761 1.759-1.761h9.056c.972 0 1.761.789 1.761 1.76V8.25c0 .977-.794 1.77-1.77 1.77"/><path fill="#0098da" d="M45.908 7.277h-4.701a.819.819 0 1 1 0-1.638h4.701a.819.819 0 1 1 0 1.638M45.908 4.664h-4.701a.819.819 0 1 1 0-1.638h4.701a.819.819 0 1 1 0 1.638M29.176 1.933a.125.125 0 0 0-.124-.124h-9.055a.124.124 0 0 0-.123.124v6.316c0 .074.06.132.132.132h9.037a.132.132 0 0 0 .133-.132zm-.133 8.086h-9.037c-.976 0-1.77-.793-1.77-1.77V1.933c0-.972.79-1.761 1.761-1.761h9.055c.972 0 1.761.789 1.761 1.76V8.25c0 .977-.794 1.77-1.77 1.77"/><path fill="#0098da" d="M26.875 7.277h-4.701a.819.819 0 1 1 0-1.638h4.701a.819.819 0 0 1 0 1.638M26.875 4.664h-4.701a.819.819 0 1 1 0-1.638h4.701a.819.819 0 0 1 0 1.638M11.093 1.933a.124.124 0 0 0-.123-.124H1.915a.124.124 0 0 0-.123.124v6.316c0 .074.059.132.132.132h9.037a.131.131 0 0 0 .132-.132zm-.132 8.086H1.924c-.976 0-1.77-.793-1.77-1.77V1.933C.154.96.944.172 1.915.172h9.055c.971 0 1.761.789 1.761 1.76V8.25c0 .977-.794 1.77-1.77 1.77"/><path fill="#0098da" d="M8.793 7.277h-4.7a.819.819 0 1 1 0-1.638h4.7a.82.82 0 0 1 0 1.638M8.793 4.664h-4.7a.819.819 0 1 1 0-1.638h4.7a.82.82 0 0 1 0 1.638M11.44 47.082a1.11 1.11 0 0 0 1.108 1.108h24.713a1.11 1.11 0 0 0 1.108-1.108V20.82a1.11 1.11 0 0 0-1.108-1.108H12.548a1.11 1.11 0 0 0-1.108 1.108zm1.108-29.008h24.713a2.75 2.75 0 0 1 2.746 2.746v26.262a2.75 2.75 0 0 1-2.746 2.747H12.548a2.75 2.75 0 0 1-2.746-2.747V20.82a2.75 2.75 0 0 1 2.746-2.746"/><path fill="#0098da" d="M27.417 29.286h1.384c.453 0 .818.367.818.819v1.303h.567v-1.303c0-.452.366-.819.819-.819h1.384v-.483h-1.384a.82.82 0 0 1-.819-.82v-1.302h-.567v1.302c0 .452-.365.82-.818.82h-1.384zm-.269-2.122h.834v-.773c0-.743.615-1.349 1.371-1.349h1.1c.756 0 1.37.606 1.37 1.349v.773h.834a1.36 1.36 0 0 1 1.369 1.35v1.061a1.36 1.36 0 0 1-1.369 1.35h-.834v.772c0 .744-.614 1.35-1.37 1.35h-1.1a1.362 1.362 0 0 1-1.371-1.35v-.772h-.834a1.361 1.361 0 0 1-1.369-1.35v-1.061c0-.744.614-1.35 1.369-1.35M17.418 41.06c0 1.37 1.114 2.484 2.484 2.484s2.485-1.114 2.485-2.484-1.115-2.484-2.485-2.484-2.484 1.114-2.484 2.484m-3.491-10.723a.819.819 0 0 1 .916.71 5.056 5.056 0 0 0 5.021 4.423c.019.001.036 0 .056-.001a5.18 5.18 0 0 0 2.308-.545.82.82 0 0 1 .732 1.466 6.83 6.83 0 0 1-2.154.654 4.124 4.124 0 0 1 3.218 4.016c0 2.273-1.849 4.123-4.122 4.123s-4.122-1.85-4.122-4.123a4.125 4.125 0 0 1 3.215-4.014 6.692 6.692 0 0 1-5.778-5.794.82.82 0 0 1 .71-.915M27.964 43.676c.961 0 1.743-.782 1.743-1.743s-.782-1.743-1.743-1.743-1.743.782-1.743 1.743.782 1.743 1.743 1.743m-3.8-7.114a.818.818 0 0 1 1.156.07 3.523 3.523 0 0 0 5.274 0 .82.82 0 0 1 1.226 1.085 5.146 5.146 0 0 1-2.011 1.389 3.377 3.377 0 0 1 1.536 2.827c0 1.865-1.517 3.382-3.381 3.382s-3.381-1.517-3.381-3.382c0-1.18.611-2.218 1.53-2.823a5.163 5.163 0 0 1-2.02-1.392.82.82 0 0 1 .071-1.156"/><path fill="#0098da" d="M34.959 33.272v-8.456c0-.325-.292-.589-.649-.589h-8.813c-.359 0-.65.264-.65.589v8.456c0 .326.291.59.65.59h8.813c.357 0 .649-.264.649-.59m-11.75 0v-8.456c0-1.228 1.026-2.228 2.288-2.228h8.813c1.26 0 2.287 1 2.287 2.228v8.456c0 1.229-1.027 2.229-2.287 2.229h-8.813c-1.262 0-2.288-1-2.288-2.229"/></g></svg>