<svg xmlns="http://www.w3.org/2000/svg" xml:space="preserve" width="66.667" height="66.667"><defs><clipPath clipPathUnits="userSpaceOnUse" id="a"><path d="M0 50h50V0H0Z"/></clipPath></defs><g clip-path="url(#a)" transform="matrix(1.33333 0 0 -1.33333 0 66.667)"><path d="M0 0a.852.852 0 0 0-.85.85v2.848h-1.143a4.52 4.52 0 0 0-4.514 4.514v14.609a4.52 4.52 0 0 0 4.514 4.514h19.221a4.52 4.52 0 0 0 4.514-4.514v-.577a.85.85 0 1 0-1.7 0v.577a2.817 2.817 0 0 1-2.814 2.814H-1.993a2.817 2.817 0 0 1-2.814-2.814V8.212a2.817 2.817 0 0 1 2.814-2.814H0a.85.85 0 0 0 .85-.85V2.394l4.538 2.872a.843.843 0 0 0 .455.132h5.779a.85.85 0 0 0 0-1.7H6.089L.455.132A.85.85 0 0 0 0 0" style="fill:#ffffff;fill-opacity:1;fill-rule:nonzero;stroke:none" transform="translate(16.097 21.234)"/><path d="M0 0c1.603-.15 2.752.288 3.524.789 1.373.893 2.261 2.518 2.261 4.141v.406c0 .223.087.434.239.592a.847.847 0 0 0-.235.509.85.85 0 0 0-.448.219 1.336 1.336 0 0 1-.897.358 1.355 1.355 0 0 1-1.34-1.352v-.487a.851.851 0 0 0-.679-.833c-1.205-.248-2.369-.008-3.518.734a.848.848 0 0 0-.329-1.451c.091-.025.186-.041.283-.046a.85.85 0 0 0 .342-1.604c.236-.046.528-.08.897-.109A.85.85 0 0 0 .513.316 6.794 6.794 0 0 0 0 0m.641-1.721c-1.338 0-2.776.328-4.253.985a.85.85 0 0 0-.485.962c.089.396.434.696.849.664.232-.003.465.006.694.034a2.782 2.782 0 0 0-.74.936.851.851 0 0 0 .083.894 3.072 3.072 0 0 0-.9 1.83.851.851 0 0 0 .873.951c-.132.587-.128 1.254.011 1.997a.849.849 0 0 0 1.477.401C-.627 6.641.396 5.998 1.418 5.953a3.063 3.063 0 0 0 3.034 2.761 3.043 3.043 0 0 0 1.629-.488l.824.273a.85.85 0 0 0 1.04-1.16l-.175-.381.227-.098a.849.849 0 0 0 .163-1.469l-.675-.489C7.475 2.695 6.314.575 4.451-.636 3.339-1.359 2.045-1.721.641-1.721" style="fill:#ffffff;fill-opacity:1;fill-rule:nonzero;stroke:none" transform="translate(18.613 33.182)"/><path d="M0 0a.85.85 0 0 0-.85.85v.507a3.352 3.352 0 0 1-3.348 3.349h-27.618a3.352 3.352 0 0 1-3.349-3.349V.85a.85.85 0 1 0-1.7 0v.507a5.054 5.054 0 0 0 5.049 5.048h27.618A5.054 5.054 0 0 0 .85 1.357V.85A.85.85 0 0 0 0 0" style="fill:#ffffff;fill-opacity:1;fill-rule:nonzero;stroke:none" transform="translate(43.11 12.4)"/><path d="M0 0a.85.85 0 0 0-.85.85v3.93a.85.85 0 1 0 1.7 0V.85A.85.85 0 0 0 0 0" style="fill:#ffffff;fill-opacity:1;fill-rule:nonzero;stroke:none" transform="translate(25.103 13.175)"/><path d="m0 0-.066-6.151 8.78-.058.057 6.143L8.705 0Zm8.714-7.908H-.009c-.969 0-1.757.788-1.757 1.757v6.085c0 .973.792 1.765 1.766 1.765h8.705c.974 0 1.766-.792 1.766-1.765v-6.085c0-.969-.788-1.757-1.757-1.757" style="fill:#ffffff;fill-opacity:1;fill-rule:nonzero;stroke:none" transform="translate(38.509 10.373)"/><path d="M0 0h-4.528a.85.85 0 1 0 0 1.699H0A.85.85 0 1 0 0 0" style="fill:#ffffff;fill-opacity:1;fill-rule:nonzero;stroke:none" transform="translate(45.125 7.732)"/><path d="M0 0h-4.528a.85.85 0 1 0 0 1.699H0A.85.85 0 1 0 0 0" style="fill:#ffffff;fill-opacity:1;fill-rule:nonzero;stroke:none" transform="translate(45.125 5.216)"/><path d="m0 0-.066-6.151 8.78-.058.057 6.143L8.705 0Zm8.714-7.908H-.009a1.76 1.76 0 0 0-1.757 1.757v6.085c0 .973.792 1.765 1.766 1.765h8.705c.974 0 1.766-.792 1.766-1.765v-6.085c0-.969-.788-1.757-1.757-1.757" style="fill:#ffffff;fill-opacity:1;fill-rule:nonzero;stroke:none" transform="translate(20.174 10.373)"/><path d="M0 0h-4.529a.85.85 0 1 0 0 1.699H0A.85.85 0 1 0 0 0" style="fill:#ffffff;fill-opacity:1;fill-rule:nonzero;stroke:none" transform="translate(26.791 7.732)"/><path d="M0 0h-4.529a.85.85 0 1 0 0 1.699H0A.85.85 0 1 0 0 0" style="fill:#ffffff;fill-opacity:1;fill-rule:nonzero;stroke:none" transform="translate(26.791 5.216)"/><path d="m0 0-.066-6.151 8.78-.058.057 6.143L8.705 0Zm8.714-7.908H-.009c-.969 0-1.757.788-1.757 1.757v6.085c0 .973.792 1.765 1.766 1.765h8.705c.974 0 1.767-.792 1.767-1.765v-6.085a1.76 1.76 0 0 0-1.758-1.757" style="fill:#ffffff;fill-opacity:1;fill-rule:nonzero;stroke:none" transform="translate(2.756 10.373)"/><path d="M0 0h-4.529a.85.85 0 1 0 0 1.699H0A.85.85 0 1 0 0 0" style="fill:#ffffff;fill-opacity:1;fill-rule:nonzero;stroke:none" transform="translate(9.373 7.732)"/><path d="M0 0h-4.529a.85.85 0 1 0 0 1.699H0A.85.85 0 1 0 0 0" style="fill:#ffffff;fill-opacity:1;fill-rule:nonzero;stroke:none" transform="translate(9.373 5.216)"/><path d="M0 0a.85.85 0 0 0-.85.85v2.322a.85.85 0 1 0 1.7 0V.85A.85.85 0 0 0 0 0" style="fill:#ffffff;fill-opacity:1;fill-rule:nonzero;stroke:none" transform="translate(36.888 36.427)"/><path d="M0 0h-2.243a.85.85 0 1 0 0 1.7H0A.85.85 0 1 0 0 0" style="fill:#ffffff;fill-opacity:1;fill-rule:nonzero;stroke:none" transform="translate(37.966 39.007)"/><path d="M0 0a.849.849 0 0 0-.602.249l-1.641 1.642A.85.85 0 0 0-1.04 3.093L.602 1.451A.85.85 0 0 0 0 0" style="fill:#ffffff;fill-opacity:1;fill-rule:nonzero;stroke:none" transform="translate(33.349 34.808)"/><path d="M0 0a.85.85 0 0 0-.601 1.451L.985 3.037a.849.849 0 1 0 1.201-1.202L.601.249A.845.845 0 0 0 0 0" style="fill:#ffffff;fill-opacity:1;fill-rule:nonzero;stroke:none" transform="translate(30.701 35.809)"/><path d="M0 0h-2.322a.85.85 0 1 0 0 1.7H0A.85.85 0 1 0 0 0" style="fill:#ffffff;fill-opacity:1;fill-rule:nonzero;stroke:none" transform="translate(31.991 31.16)"/><path d="M0 0a.85.85 0 0 0-.85.85v2.243a.85.85 0 1 0 1.7 0V.85A.85.85 0 0 0 0 0" style="fill:#ffffff;fill-opacity:1;fill-rule:nonzero;stroke:none" transform="translate(29.411 29.996)"/><path d="M0 0a.85.85 0 0 0-.602 1.451L1.04 3.093a.85.85 0 0 0 1.203-1.202L.602.249A.849.849 0 0 0 0 0" style="fill:#ffffff;fill-opacity:1;fill-rule:nonzero;stroke:none" transform="translate(31.969 25.98)"/><path d="M0 0a.845.845 0 0 0-.601.249l-1.586 1.586A.85.85 0 1 0-.985 3.037L.601 1.45A.849.849 0 0 0 0 0" style="fill:#ffffff;fill-opacity:1;fill-rule:nonzero;stroke:none" transform="translate(32.61 24.974)"/><path d="M0 0a.85.85 0 0 0-.85.85v2.322a.85.85 0 1 0 1.7 0V.85A.85.85 0 0 0 0 0" style="fill:#ffffff;fill-opacity:1;fill-rule:nonzero;stroke:none" transform="translate(37.258 23.943)"/><path d="M0 0h-2.242a.85.85 0 1 0 0 1.699H0A.85.85 0 1 0 0 0" style="fill:#ffffff;fill-opacity:1;fill-rule:nonzero;stroke:none" transform="translate(38.422 23.685)"/><path d="M0 0a.849.849 0 0 0-.601 1.451l1.643 1.642a.85.85 0 1 0 1.201-1.202L.601.249A.846.846 0 0 0 0 0" style="fill:#ffffff;fill-opacity:1;fill-rule:nonzero;stroke:none" transform="translate(40.63 34.784)"/><path d="M0 0a.84.84 0 0 0-.6.249l-1.586 1.586A.85.85 0 0 0-.985 3.037L.601 1.451A.85.85 0 0 0 0 0" style="fill:#ffffff;fill-opacity:1;fill-rule:nonzero;stroke:none" transform="translate(43.278 35.785)"/><path d="M0 0h-2.322a.85.85 0 1 0 0 1.7H0A.85.85 0 1 0 0 0" style="fill:#ffffff;fill-opacity:1;fill-rule:nonzero;stroke:none" transform="translate(44.309 31.137)"/><path d="M0 0a.85.85 0 0 0-.85.85v2.243a.85.85 0 1 0 1.7 0V.85A.85.85 0 0 0 0 0" style="fill:#ffffff;fill-opacity:1;fill-rule:nonzero;stroke:none" transform="translate(44.567 29.972)"/><path d="M0 0a.85.85 0 0 0-.601.248l-1.642 1.643a.85.85 0 0 0 1.201 1.202L.601 1.451A.85.85 0 0 0 0 0" style="fill:#ffffff;fill-opacity:1;fill-rule:nonzero;stroke:none" transform="translate(42.01 25.957)"/><path d="M0 0a.849.849 0 0 0-.601 1.45L.985 3.037a.849.849 0 1 0 1.201-1.202L.6.249A.842.842 0 0 0 0 0" style="fill:#ffffff;fill-opacity:1;fill-rule:nonzero;stroke:none" transform="translate(41.368 24.95)"/><path d="M0 0a3.617 3.617 0 0 1-3.613-3.613A3.617 3.617 0 0 1 0-7.226a3.617 3.617 0 0 1 3.613 3.613A3.617 3.617 0 0 1 0 0m0-8.925a5.317 5.317 0 0 0-5.312 5.312A5.318 5.318 0 0 0 0 1.7a5.318 5.318 0 0 0 5.312-5.313A5.317 5.317 0 0 0 0-8.925" style="fill:#ffffff;fill-opacity:1;fill-rule:nonzero;stroke:none" transform="translate(36.99 35.809)"/></g></svg>