<svg xmlns="http://www.w3.org/2000/svg" width="66.667" height="66.667"><defs><clipPath id="a" clipPathUnits="userSpaceOnUse"><path d="M0 50h50V0H0Z"/></clipPath></defs><g clip-path="url(#a)" transform="matrix(1.33333 0 0 -1.33333 0 66.667)"><path d="m0 0-9.16.07v6.35c0 .04.03.08.08.08h9.07c.05 0 .08-.04.08-.08zm-16.42 6.5c.04 0 .08-.04.08-.08L-16.41 0l-9.17.07v6.35c0 .04.04.08.08.08zm-16.41 0c.04 0 .07-.04.07-.08L-32.82 0l-9.17.07v6.35c0 .04.03.08.08.08zM-.01 8.25h-1.13a5.269 5.269 0 0 1-5.26 5.21h-28.8c-2.88 0-5.23-2.33-5.26-5.21h-1.45a1.84 1.84 0 0 1-1.84-1.83V.07c0-1 .82-1.82 1.83-1.82h9.1c1 0 1.82.82 1.82 1.82v6.35c0 1.01-.82 1.83-1.83 1.83h-5.87a3.507 3.507 0 0 0 3.5 3.45h13.52V8.48c0-.08.01-.16.04-.23h-3.86a1.83 1.83 0 0 1-1.83-1.83V.07c0-1 .82-1.82 1.82-1.82h9.1c1.01 0 1.82.82 1.82 1.82v6.35c0 1.01-.82 1.83-1.83 1.83h-3.54c.03.07.04.15.04.23v3.22H-6.4c1.91 0 3.48-1.54 3.51-3.45h-6.19a1.84 1.84 0 0 1-1.84-1.83V.07c0-1 .82-1.82 1.83-1.82H0c1.01 0 1.83.82 1.83 1.82v6.35c0 1.01-.82 1.83-1.84 1.83" style="fill:#0098da;fill-opacity:1;fill-rule:nonzero;stroke:none" transform="translate(45.96 1.75)"/><path d="M0 0h-4.723a.877.877 0 1 0 0 1.755H0A.878.878 0 1 0 0 0" style="fill:#0098da;fill-opacity:1;fill-rule:nonzero;stroke:none" transform="translate(10.949 5.494)"/><path d="M0 0h-4.723a.878.878 0 1 0 0 1.755H0A.878.878 0 1 0 0 0" style="fill:#0098da;fill-opacity:1;fill-rule:nonzero;stroke:none" transform="translate(10.949 2.87)"/><path d="M0 0h-4.722a.877.877 0 1 0 0 1.755H0A.878.878 0 1 0 0 0" style="fill:#0098da;fill-opacity:1;fill-rule:nonzero;stroke:none" transform="translate(27.362 5.494)"/><path d="M0 0h-4.722a.878.878 0 1 0 0 1.755H0A.878.878 0 1 0 0 0" style="fill:#0098da;fill-opacity:1;fill-rule:nonzero;stroke:none" transform="translate(27.362 2.87)"/><path d="M0 0h-4.722a.877.877 0 1 0 0 1.755H0A.878.878 0 1 0 0 0" style="fill:#0098da;fill-opacity:1;fill-rule:nonzero;stroke:none" transform="translate(43.776 5.494)"/><path d="M0 0h-4.722a.878.878 0 1 0 0 1.755H0A.878.878 0 1 0 0 0" style="fill:#0098da;fill-opacity:1;fill-rule:nonzero;stroke:none" transform="translate(43.776 2.87)"/><path d="M0 0c-.836 0-1.516-.68-1.516-1.516v-13.178c0-.836.68-1.516 1.516-1.516h12.656c.836 0 1.515.68 1.515 1.516v13.178C14.171-.68 13.492 0 12.656 0Zm12.656-17.965H0a3.275 3.275 0 0 0-3.271 3.271v13.178A3.275 3.275 0 0 0 0 1.756h12.656a3.274 3.274 0 0 0 3.27-3.272v-13.178a3.274 3.274 0 0 0-3.27-3.271" style="fill:#0098da;fill-opacity:1;fill-rule:nonzero;stroke:none" transform="translate(10.853 37.473)"/><path d="M0 0h-42.06v2.81c0 .92.75 1.66 1.66 1.66h38.74C-.74 4.47 0 3.73 0 2.81Zm-1.66 6.23H-40.4c-1.88 0-3.42-1.53-3.42-3.42v-28.34c0-1.91 1.56-3.46 3.46-3.46h1.339a.875.875 0 1 1 0 1.75h-1.339c-.94 0-1.7.77-1.7 1.71v23.78H0v-23.78c0-.94-.761-1.71-1.7-1.71h-1.1a.876.876 0 1 1 0-1.75h1.1c1.91 0 3.46 1.55 3.46 3.46V2.81c0 1.89-1.54 3.42-3.42 3.42" style="fill:#0098da;fill-opacity:1;fill-rule:nonzero;stroke:none" transform="translate(46.03 43.77)"/><path d="M0 0h-10.214a.879.879 0 0 0 0 1.756H0A.878.878 0 0 0 0 0" style="fill:#0098da;fill-opacity:1;fill-rule:nonzero;stroke:none" transform="translate(41.416 34.136)"/><path d="M0 0h-10.214a.879.879 0 0 0 0 1.756H0A.878.878 0 0 0 0 0" style="fill:#0098da;fill-opacity:1;fill-rule:nonzero;stroke:none" transform="translate(41.416 28.741)"/><path d="M0 0h-10.214a.878.878 0 1 0 0 1.755H0A.878.878 0 0 0 0 0" style="fill:#0098da;fill-opacity:1;fill-rule:nonzero;stroke:none" transform="translate(41.416 23.348)"/><path d="M0 0v-.003Zm.934-.007V-.01Zm-3.656-1.692-.002-.004.002.004m6.381-.006.001-.002zm.662-1.169h.01zm-7.708-3.005.001-.001-.001.001m7.707-.004-.001-.001zm-7.047-1.162.001-.003-.001.003m6.385-.006-.001-.002zM-.877-5.829A.88.88 0 0 0 0-6.707V-8.54h.934v1.833a.88.88 0 0 0 1.327.754l1.51-.9.453.801-1.562.919a.88.88 0 0 0 0 1.513l1.562.918-.455.802-1.508-.9a.88.88 0 0 0-1.327.754v1.834H0v-1.834A.876.876 0 0 0-1.327-2.8l-1.509.899-.454-.8 1.562-.919a.876.876 0 0 0 0-1.513l-1.562-.918.454-.801 1.509.899a.87.87 0 0 0 .45.124m.671-4.466a1.56 1.56 0 0 0-1.549 1.544v.5l-.384-.229a1.545 1.545 0 0 0-1.183-.159 1.54 1.54 0 0 0-.934.731l-.657 1.161a1.563 1.563 0 0 0 .553 2.103l.456.268-.449.264a1.567 1.567 0 0 0-.559 2.109l.658 1.162a1.53 1.53 0 0 0 2.109.571l.39-.232v.495a1.544 1.544 0 0 0 1.529 1.55h1.377A1.548 1.548 0 0 0 2.689-.014V-.5l.382.228c.36.21.789.266 1.184.159a1.54 1.54 0 0 0 .934-.732l.657-1.158a1.565 1.565 0 0 0-.553-2.106l-.455-.267.45-.265c.727-.435.975-1.38.558-2.11l-.659-1.163a1.536 1.536 0 0 0-.93-.726 1.553 1.553 0 0 0-1.178.155l-.39.233v-.494a1.561 1.561 0 0 0-1.544-1.549Z" style="fill:#0098da;fill-opacity:1;fill-rule:nonzero;stroke:none" transform="translate(16.714 33.58)"/></g></svg>