<svg id="Слой_1" data-name="Слой 1" xmlns="http://www.w3.org/2000/svg" viewBox="0 0 29.99 29.99"><defs><clipPath id="clip-path"><circle cx="8.67" cy="8.17" r="5.86" fill="none"/></clipPath><style>.cls-2{fill:#0098da}.cls-3{clip-path:url(#clip-path)}</style></defs><path class="cls-2" d="M7.97 19.5v3l-2.43-3.3a.53.53 0 00-.95.3v4.6a.52.52 0 001.05 0v-3l2.43 3.31a.52.52 0 00.95-.31v-4.6a.52.52 0 00-1.05 0zm0 0M13.04 20.03a.52.52 0 100-1.05H10.9a.53.53 0 00-.52.53v4.59a.53.53 0 00.52.52h2.13a.52.52 0 000-1.04h-1.6v-1.25h1.6a.52.52 0 100-1.05h-1.6v-1.25zm0 0M18.8 24.46a.52.52 0 00.91-.36v-4.6a.52.52 0 00-1.05 0v3.26l-.95-1.03-.01-.01-.02-.02a.52.52 0 00-.74.03l-.95 1.03v-3.25a.52.52 0 00-1.05 0v4.59a.52.52 0 00.9.36l1.49-1.6zm0 0M23.84 23.58h-2.23a.52.52 0 000 1.04h2.23a1.67 1.67 0 000-3.34h-1.08a.62.62 0 010-1.25h2.23a.52.52 0 100-1.05h-2.23a1.67 1.67 0 000 3.35h1.08a.62.62 0 010 1.25zm0 0M15.05 26.8a.52.52 0 000 1.05.52.52 0 000-1.05zm0 0"/><path class="cls-2" d="M25.55 15.8H4a3.2 3.2 0 00-2.66 3.15v5.7a3.2 3.2 0 003.2 3.2h7.88a.52.52 0 000-1.05H4.54a2.15 2.15 0 01-2.15-2.15v-5.7a2.15 2.15 0 012.15-2.15h20.47a2.15 2.15 0 012.15 2.15v5.7a2.15 2.15 0 01-2.15 2.15h-7.88a.52.52 0 100 1.05h7.88a3.2 3.2 0 003.2-3.2v-5.7a3.2 3.2 0 00-2.66-3.15zM17.74 7.94a.6.6 0 110-1.19h8.5a.6.6 0 010 1.19zM17.74 5.32a.6.6 0 110-1.18h8.5a.6.6 0 010 1.18zM17.74 10.56a.6.6 0 110-1.2h8.5a.6.6 0 010 1.2zM17.74 13.17a.6.6 0 110-1.19h8.5a.6.6 0 010 1.2z"/><g class="cls-3"><g class="cls-3"><g id="_Группа_" data-name="&lt;Группа&gt;"><path id="_Прямоугольник_" data-name="&lt;Прямоугольник&gt;" fill="#e30a17" d="M1.86 2.31h17.58v11.72H1.86z"/></g></g><path d="M1.86 2.31h13.51v3.96H1.86z"/><path fill="#feba00" d="M1.66 10.22h13.51v3.8H1.66z"/></g></svg>