<svg width="66.667" height="66.667" xmlns="http://www.w3.org/2000/svg"><defs><clipPath clipPathUnits="userSpaceOnUse" id="a"><path d="M0 50h50V0H0Z"/></clipPath></defs><g clip-path="url(#a)" transform="matrix(1.33333 0 0 -1.33333 0 66.667)"><path d="M0 0a.877.877 0 0 0-.825 1.175.424.424 0 0 1-.056.391.456.456 0 0 1-.355.179c-.515.005-.883.38-.89.865a.878.878 0 0 0 .865.889C-.55 3.491.13 3.169.546 2.588A2.181 2.181 0 0 0 .825.58.877.877 0 0 0 0 0" style="fill:#0098da;fill-opacity:1;fill-rule:nonzero;stroke:none" transform="translate(19.08 19.93)"/><path d="M0 0a.876.876 0 0 0-.877-.877h-.537c-2.91 0-5.273 2.373-5.273 5.283v25.128a5.276 5.276 0 0 0 5.273 5.273h.537A.876.876 0 0 0 0 33.93a.883.883 0 0 0-.877-.878h-.537a3.523 3.523 0 0 1-3.519-3.518V17.842h3.241a.876.876 0 1 0 0-1.754h-3.241V4.406A3.526 3.526 0 0 1-1.414.877h.537A.876.876 0 0 0 0 0" style="fill:#0098da;fill-opacity:1;fill-rule:nonzero;stroke:none" transform="translate(37.723 8.003)"/><path d="M0 0a.075.075 0 0 1-.075-.075v-8.923c0-.042.034-.076.075-.076h7.226c.042 0 .076.035.076.076v6.382a.667.667 0 0 1-.164.436L4.629-.273a.67.67 0 0 0-.089.079.68.68 0 0 1-.472.194Zm7.226-10.827H0a1.83 1.83 0 0 0-1.828 1.829v8.923A1.83 1.83 0 0 0 0 1.753h4.068c.616 0 1.219-.239 1.664-.662L8.257-.826a.85.85 0 0 0 .089-.079 2.43 2.43 0 0 0 .709-1.711v-6.382a1.83 1.83 0 0 0-1.829-1.829" style="fill:#0098da;fill-opacity:1;fill-rule:nonzero;stroke:none" transform="translate(40.455 12.474)"/><path d="M0 0h-4.75a.876.876 0 1 0 0 1.753H0A.876.876 0 1 0 0 0" style="fill:#0098da;fill-opacity:1;fill-rule:nonzero;stroke:none" transform="translate(46.444 7.643)"/><path d="M0 0h-4.75a.876.876 0 1 0 0 1.753H0A.876.876 0 1 0 0 0" style="fill:#0098da;fill-opacity:1;fill-rule:nonzero;stroke:none" transform="translate(46.444 4.887)"/><path d="M0 0a.075.075 0 0 1-.075-.075v-8.923c0-.041.034-.074.075-.074h7.226c.043 0 .076.033.076.074v6.382a.66.66 0 0 1-.164.437L4.63-.273a.681.681 0 0 0-.09.078.672.672 0 0 1-.472.195Zm7.226-10.826H0a1.83 1.83 0 0 0-1.828 1.828v8.923A1.83 1.83 0 0 0 0 1.754h4.068c.616 0 1.219-.24 1.664-.662L8.256-.825a.874.874 0 0 0 .091-.079 2.404 2.404 0 0 0 .708-1.712v-6.382a1.83 1.83 0 0 0-1.829-1.828" style="fill:#0098da;fill-opacity:1;fill-rule:nonzero;stroke:none" transform="translate(40.455 29.507)"/><path d="M0 0h-4.75a.877.877 0 1 0 0 1.754H0A.877.877 0 1 0 0 0" style="fill:#0098da;fill-opacity:1;fill-rule:nonzero;stroke:none" transform="translate(46.444 24.677)"/><path d="M0 0h-4.75a.876.876 0 1 0 0 1.754H0A.877.877 0 1 0 0 0" style="fill:#0098da;fill-opacity:1;fill-rule:nonzero;stroke:none" transform="translate(46.444 21.92)"/><path d="M0 0a.074.074 0 0 1-.075-.074v-8.924c0-.041.034-.074.075-.074h7.226c.042 0 .076.033.076.074v6.382a.66.66 0 0 1-.164.437L4.63-.273a.681.681 0 0 0-.09.078.669.669 0 0 1-.47.195h-.001Zm7.226-10.827H0a1.83 1.83 0 0 0-1.828 1.829v8.924A1.83 1.83 0 0 0 0 1.754h4.071c.613 0 1.216-.24 1.661-.662L8.256-.825a.874.874 0 0 0 .091-.079 2.404 2.404 0 0 0 .708-1.712v-6.382c0-1.008-.82-1.829-1.829-1.829" style="fill:#0098da;fill-opacity:1;fill-rule:nonzero;stroke:none" transform="translate(40.455 46.599)"/><path d="M0 0h-4.75a.877.877 0 1 0 0 1.754H0A.877.877 0 1 0 0 0" style="fill:#0098da;fill-opacity:1;fill-rule:nonzero;stroke:none" transform="translate(46.444 41.768)"/><path d="M0 0h-4.75a.877.877 0 1 0 0 1.754H0A.877.877 0 1 0 0 0" style="fill:#0098da;fill-opacity:1;fill-rule:nonzero;stroke:none" transform="translate(46.444 39.012)"/><path d="M0 0v-.021c.021-1.011-.691-1.857-1.558-1.888h-17.068c-.908.031-1.62.877-1.6 1.909v23.579c-.02 1.012.692 1.858 1.569 1.889h12.414a1.467 1.467 0 0 0 1.073-.516l4.675-5.335c.32-.372.495-.867.495-1.393Zm.826 20.773-4.675 5.324a3.185 3.185 0 0 1-2.394 1.125h-12.445c-1.858-.062-3.333-1.713-3.292-3.663V.021c-.041-1.971 1.434-3.622 3.323-3.684h17.119C.32-3.601 1.796-1.971 1.754 0v18.224c0 .949-.33 1.847-.928 2.549" style="fill:#0098da;fill-opacity:1;fill-rule:nonzero;stroke:none" transform="translate(25.732 12.234)"/><path d="M0 0c-.021-.01-.021-.031-.031-.052a.967.967 0 0 0-.887-.557.983.983 0 0 0-.898.578v.01a1.203 1.203 0 0 0-.072.382c0 .547.433.98.97.98.547 0 .98-.433.98-.98C.062.237.041.113 0 0m.413-9.514a.45.45 0 0 0 .443-.454.44.44 0 0 0-.443-.444h-.454v.898zM7.595-.33c-.217.526-.722.836-1.362.836H1.806a2.73 2.73 0 0 1-2.724 2.59A2.732 2.732 0 0 1-3.643.506H-8.07c-.629 0-1.135-.31-1.362-.836-.309-.743.031-1.765.908-2.663.795-.825 2.064-1.527 3.571-1.527.598 0 1.228.103 1.878.361a.877.877 0 0 1 .506 1.135.882.882 0 0 1-1.136.496c-1.424-.547-2.518-.041-3.044.32-.474.32-.763.691-.918.959h4.551a2.667 2.667 0 0 1 1.32-.97V-7.76h-1.3a.471.471 0 0 0-.474.464c0 .238.196.434.433.434h.01c.485 0 .877.382.877.867a.875.875 0 0 1-.866.887 2.186 2.186 0 0 1-2.209-2.177c0-1.218.96-2.198 2.198-2.229h1.331v-.898h-.247a2.016 2.016 0 0 1-1.404-.63 1.973 1.973 0 0 1-.557-1.403c0-.568.227-1.114.64-1.507a.926.926 0 0 1 .609-.237.876.876 0 0 1 .598 1.517c-.062.052-.093.134-.093.237a.26.26 0 0 0 .073.186c.031.031.092.083.154.083h.227v-1.166a.878.878 0 1 1 1.755 0v1.166h.454a2.2 2.2 0 0 1 2.198 2.198A2.209 2.209 0 0 1 .413-7.76h-.454v5.541a2.674 2.674 0 0 1 1.321.97h4.55c-.144-.268-.443-.639-.918-.959-.526-.361-1.61-.867-3.034-.32a.877.877 0 0 1-.64-1.631 5.122 5.122 0 0 1 1.878-.361c1.517 0 2.776.702 3.581 1.527.867.898 1.218 1.92.898 2.663" style="fill:#0098da;fill-opacity:1;fill-rule:nonzero;stroke:none" transform="translate(16.538 28.538)"/><path d="M0 0h-18.513c-1.676 0-3.04 1.431-3.04 3.19v23.875a.877.877 0 0 0 1.754 0V3.19c0-.792.577-1.437 1.286-1.437H0A.876.876 0 1 0 0 0" style="fill:#0098da;fill-opacity:1;fill-rule:nonzero;stroke:none" transform="translate(22.043 5.468)"/></g></svg>