<svg xmlns="http://www.w3.org/2000/svg" width="66.667" height="66.667"><defs><clipPath id="a" clipPathUnits="userSpaceOnUse"><path d="M0 50h50V0H0Z"/></clipPath></defs><g clip-path="url(#a)" transform="matrix(1.33333 0 0 -1.33333 0 66.667)"><path d="M0 0v-.53c0-.48-.39-.88-.88-.88a.88.88 0 0 0-.87.88V0a3.51 3.51 0 0 1-3.5 3.5h-13.52V.28a.876.876 0 1 0-1.75 0V3.5h-13.52c-1.93 0-3.5-1.57-3.5-3.5v-.53a.88.88 0 0 0-.87-.88c-.489 0-.88.4-.88.88V0a5.25 5.25 0 0 0 5.25 5.25h28.79A5.256 5.256 0 0 0 0 0" style="fill:#0098da;fill-opacity:1;fill-rule:nonzero;stroke:none" transform="translate(44.77 11.92)"/><path d="M0 0a.079.079 0 0 1-.077-.078v-6.343l9.16-.068.068 6.411A.079.079 0 0 1 9.073 0Zm9.083-8.243H-.009a1.824 1.824 0 0 0-1.822 1.822v6.343c0 1.01.821 1.831 1.831 1.831h9.073a1.833 1.833 0 0 0 1.832-1.831v-6.343a1.824 1.824 0 0 0-1.822-1.822" style="fill:#0098da;fill-opacity:1;fill-rule:nonzero;stroke:none" transform="translate(39.095 8.402)"/><path d="M0 0h-4.721a.877.877 0 0 0 0 1.754H0A.877.877 0 0 0 0 0" style="fill:#0098da;fill-opacity:1;fill-rule:nonzero;stroke:none" transform="translate(45.992 5.65)"/><path d="M0 0h-4.721a.877.877 0 1 0 0 1.754H0A.877.877 0 0 0 0 0" style="fill:#0098da;fill-opacity:1;fill-rule:nonzero;stroke:none" transform="translate(45.992 3.026)"/><path d="M0 0a.08.08 0 0 1-.079-.078v-6.343l9.161-.068.068 6.411A.079.079 0 0 1 9.073 0Zm9.082-8.243H-.009a1.824 1.824 0 0 0-1.823 1.822v6.343c0 1.01.821 1.831 1.832 1.831h9.073c1.01 0 1.831-.821 1.831-1.831v-6.343a1.824 1.824 0 0 0-1.822-1.822" style="fill:#0098da;fill-opacity:1;fill-rule:nonzero;stroke:none" transform="translate(19.986 8.402)"/><path d="M0 0h-4.721a.877.877 0 1 0 0 1.754H0A.877.877 0 0 0 0 0" style="fill:#0098da;fill-opacity:1;fill-rule:nonzero;stroke:none" transform="translate(26.883 5.65)"/><path d="M0 0h-4.721a.876.876 0 1 0 0 1.754H0A.877.877 0 0 0 0 0" style="fill:#0098da;fill-opacity:1;fill-rule:nonzero;stroke:none" transform="translate(26.883 3.026)"/><path d="M0 0a.08.08 0 0 1-.078-.078v-6.343l9.16-.068.069 6.411A.079.079 0 0 1 9.073 0Zm9.082-8.243H-.009a1.824 1.824 0 0 0-1.823 1.822v6.343c0 1.01.822 1.831 1.832 1.831h9.073c1.01 0 1.832-.821 1.832-1.831v-6.343a1.824 1.824 0 0 0-1.823-1.822" style="fill:#0098da;fill-opacity:1;fill-rule:nonzero;stroke:none" transform="translate(1.832 8.402)"/><path d="M0 0h-4.72a.877.877 0 0 0 0 1.754H0A.877.877 0 0 0 0 0" style="fill:#0098da;fill-opacity:1;fill-rule:nonzero;stroke:none" transform="translate(8.729 5.65)"/><path d="M0 0h-4.72a.877.877 0 1 0 0 1.754H0A.877.877 0 0 0 0 0" style="fill:#0098da;fill-opacity:1;fill-rule:nonzero;stroke:none" transform="translate(8.729 3.026)"/><path d="M0 0h-22.384c-1.587 0-2.878 1.383-2.878 3.082v24.364c0 1.7 1.291 3.083 2.878 3.083h17.018a.878.878 0 0 0 0-1.755h-17.018c-.62 0-1.124-.596-1.124-1.328V3.082c0-.732.504-1.329 1.124-1.329H0c.62 0 1.124.597 1.124 1.329v11.801a.877.877 0 1 0 1.753 0V3.082C2.877 1.383 1.587 0 0 0" style="fill:#0098da;fill-opacity:1;fill-rule:nonzero;stroke:none" transform="translate(36.797 19.064)"/><path d="m0 0-.729-.73C-.81-.81-.89-.79-.939-.75L-7.33 6.03c.17.2.37.4.57.58L0 .22C.07.16.07.06 0 0m-10.85 4.17a.157.157 0 0 0-.17.04l-2.77 2.77a.16.16 0 0 0-.04.17 15.812 15.812 0 0 1 5.951 5.95c.06.02.119.01.17-.04l2.77-2.77c.049-.05.059-.11.04-.16-.83-.46-1.621-1-2.34-1.61a.793.793 0 0 1-.151-.12c-.63-.52-1.21-1.1-1.73-1.73l-.009-.01a.765.765 0 0 1-.141-.18c-.6-.72-1.129-1.49-1.58-2.31M1.23 1.48l-6.629 6.25c.469.35.979.66 1.5.94l.21.15c.74.75.74 1.96 0 2.71L-6.47 14.3a1.9 1.9 0 0 1-2.699 0l-.15-.19a14.225 14.225 0 0 0-5.52-5.52l-.19-.14c-.75-.75-.75-1.96 0-2.71l2.769-2.77c.381-.38.861-.56 1.35-.56.491 0 .98.18 1.36.56l.151.2c.279.52.589 1.02.94 1.5l6.27-6.64c.36-.36.839-.56 1.349-.56.511 0 .99.2 1.351.56l.729.73c.75.75.75 1.96-.01 2.72" style="fill:#0098da;fill-opacity:1;fill-rule:nonzero;stroke:none" transform="translate(33.02 28.2)"/><path d="M0 0v.31c0 .17.14.31.31.31h3.86c.17 0 .31-.14.31-.31V0Zm6.54 0h-.3v.31c0 1.14-.93 2.06-2.07 2.06H.31c-1.14 0-2.07-.92-2.07-2.06V0h-.3a.875.875 0 1 1 0-1.75h8.6a.875.875 0 1 1 0 1.75" style="fill:#0098da;fill-opacity:1;fill-rule:nonzero;stroke:none" transform="translate(20.5 25.3)"/><path d="M0 0h-5.87v2.76h4.43C-.65 2.76 0 2.11 0 1.31Zm0-2.54h-6.74c-.49 0-.88-.4-.88-.88v-4.01h-.761v4.01c0 .48-.399.88-.88.88h-3.899v.78h3.899c.481 0 .88.4.88.88v3.64h.761V-.88c0-.48.39-.88.88-.88H0Zm0-3.44c0-.8-.65-1.45-1.44-1.45h-4.43v3.13H0Zm-11.32-1.98-1.84-1.35v5.01h3.019v-3.2c-.399-.07-.79-.23-1.179-.46m-1.84 9.27c0 .8.649 1.45 1.449 1.45h1.57V0h-3.019zm11.72 3.2h-10.271a3.209 3.209 0 0 1-3.199-3.2V-10.1a1.344 1.344 0 0 1 1.349-1.35c.29 0 .571.09.8.26l2.41 1.77c.26.15.561.24.861.24h8.05c1.759 0 3.2 1.43 3.2 3.2v7.29a3.21 3.21 0 0 1-3.2 3.2" style="fill:#0098da;fill-opacity:1;fill-rule:nonzero;stroke:none" transform="translate(47.98 45.33)"/></g></svg>