<svg xmlns="http://www.w3.org/2000/svg" xml:space="preserve" width="66.667" height="66.667"><defs><clipPath id="a" clipPathUnits="userSpaceOnUse"><path d="M0 50h50V0H0Z"/></clipPath></defs><g clip-path="url(#a)" transform="matrix(1.33333 0 0 -1.33333 0 66.667)"><path d="M0 0c.469 0 .85.38.85.85v.513a3.403 3.403 0 0 0 3.399 3.399h13.122V1.634a.85.85 0 1 1 1.7 0v3.128h13.124a3.402 3.402 0 0 0 3.398-3.399V.85a.85.85 0 1 1 1.7 0v.513a5.103 5.103 0 0 1-5.098 5.098H4.249A5.103 5.103 0 0 1-.85 1.363V.85C-.85.38-.469 0 0 0" style="fill:#0098da;fill-opacity:1;fill-rule:nonzero;stroke:none" transform="translate(6.596 11.653)"/><path d="m0 0-8.895.067v6.159c0 .042.036.077.078.077h8.808a.076.076 0 0 0 .077-.077zm-.009 8.002h-8.808c-.98 0-1.777-.797-1.777-1.776V.067c0-.974.793-1.766 1.768-1.766H0c.975 0 1.768.792 1.768 1.766v6.159c0 .979-.797 1.776-1.777 1.776" style="fill:#0098da;fill-opacity:1;fill-rule:nonzero;stroke:none" transform="translate(47.2 3.3)"/><path d="M0 0h-4.582a.85.85 0 1 1 0-1.699H0A.85.85 0 1 1 0 0" style="fill:#0098da;fill-opacity:1;fill-rule:nonzero;stroke:none" transform="translate(45.077 8.63)"/><path d="M0 0h-4.582a.85.85 0 1 1 0-1.699H0A.85.85 0 1 1 0 0" style="fill:#0098da;fill-opacity:1;fill-rule:nonzero;stroke:none" transform="translate(45.077 6.082)"/><path d="m0 0-8.895.067v6.159c0 .042.035.077.077.077h8.809a.078.078 0 0 0 .077-.077zm-.009 8.002h-8.809a1.78 1.78 0 0 1-1.777-1.776V.067c0-.974.793-1.766 1.768-1.766H0c.975 0 1.768.792 1.768 1.766v6.159c0 .979-.797 1.776-1.777 1.776" style="fill:#0098da;fill-opacity:1;fill-rule:nonzero;stroke:none" transform="translate(29.148 3.3)"/><path d="m0 0-2.235-2.859-1.35 1.053A.849.849 0 1 1-4.63-3.145l1.542-1.206a1.456 1.456 0 0 1 2.041.252L1.34-1.047A.85.85 0 0 1 0 0" style="fill:#0098da;fill-opacity:1;fill-rule:nonzero;stroke:none" transform="translate(26.734 8.616)"/><path d="m0 0-8.894.067v6.159c0 .042.034.077.077.077h8.808a.077.077 0 0 0 .077-.077zm-.009 8.002h-8.808c-.98 0-1.777-.797-1.777-1.776V.067c0-.974.793-1.766 1.768-1.766H0c.975 0 1.768.792 1.768 1.766v6.159c0 .979-.797 1.776-1.777 1.776" style="fill:#0098da;fill-opacity:1;fill-rule:nonzero;stroke:none" transform="translate(11.023 3.3)"/><path d="M0 0h-4.582a.85.85 0 1 1 0-1.699H0A.85.85 0 1 1 0 0" style="fill:#0098da;fill-opacity:1;fill-rule:nonzero;stroke:none" transform="translate(8.9 8.63)"/><path d="M0 0h-4.582a.85.85 0 1 1 0-1.699H0A.85.85 0 1 1 0 0" style="fill:#0098da;fill-opacity:1;fill-rule:nonzero;stroke:none" transform="translate(8.9 6.082)"/><path d="M0 0c0 .634.516 1.15 1.15 1.15h20.126c.634 0 1.15-.516 1.15-1.15v-22.9c0-.634-.516-1.15-1.15-1.15H1.15c-.634 0-1.15.516-1.15 1.15Zm1.15-25.749h20.126a2.852 2.852 0 0 1 2.849 2.849V0a2.853 2.853 0 0 1-2.849 2.85H1.15A2.854 2.854 0 0 1-1.7 0v-22.9a2.853 2.853 0 0 1 2.85-2.849" style="fill:#0098da;fill-opacity:1;fill-rule:nonzero;stroke:none" transform="translate(13.78 45.596)"/><path d="M24.376 41.529h-.942v1.47h.942zm-3.113-17.552h3.302a.85.85 0 1 1 0 1.7h-3.302c-.26 0-.471.187-.471.418v9.621c0 .104.044.205.125.283l2.255 2.165c.167.16.262.381.262.613v1.052h.942v-1.052c0-.232.094-.453.261-.613l2.256-2.165a.85.85 0 0 1 1.177 1.226l-1.995 1.914v4.077c0 .818-.677 1.484-1.51 1.484h-1.321c-.833 0-1.511-.666-1.511-1.484v-4.077l-1.994-1.914a2.11 2.11 0 0 1-.648-1.509v-9.621c0-1.168.974-2.118 2.172-2.118" style="fill:#0098da;fill-opacity:1;fill-rule:nonzero;stroke:none"/><path d="M0 0h3.585v-2.263c0-.93-.805-1.686-1.793-1.686C.804-3.949 0-3.193 0-2.263Zm-1.7.85v-3.113c0-1.581 1.129-2.902 2.642-3.273v-2.275H-.189a.85.85 0 0 1 0-1.701h3.962a.85.85 0 1 1 0 1.701H2.642v2.275c1.514.37 2.642 1.692 2.642 3.273V.85a.85.85 0 0 1-.849.85H-.85A.85.85 0 0 1-1.7.85" style="fill:#0098da;fill-opacity:1;fill-rule:nonzero;stroke:none" transform="translate(27.396 33.488)"/></g></svg>