<svg xmlns="http://www.w3.org/2000/svg" xml:space="preserve" width="66.667" height="66.667"><defs><clipPath clipPathUnits="userSpaceOnUse" id="a"><path d="M0 50h50V0H0Z"/></clipPath></defs><g clip-path="url(#a)" transform="matrix(1.33333 0 0 -1.33333 0 66.667)"><path d="M0 0a.85.85 0 0 0-.85.85v.546a3.67 3.67 0 0 1-3.665 3.665h-29.702a3.67 3.67 0 0 1-3.665-3.665V.85a.85.85 0 1 0-1.7 0v.546a5.37 5.37 0 0 0 5.365 5.364h29.702A5.37 5.37 0 0 0 .85 1.396V.85A.85.85 0 0 0 0 0" style="fill:#ffffff;fill-opacity:1;fill-rule:nonzero;stroke:none" transform="translate(44.298 11.477)"/><path d="M0 0a.85.85 0 0 0-.85.85v4.227a.85.85 0 1 0 1.7 0V.85A.85.85 0 0 0 0 0" style="fill:#ffffff;fill-opacity:1;fill-rule:nonzero;stroke:none" transform="translate(24.932 12.31)"/><path d="M0 0a.849.849 0 0 0-.85.85v3.127h-1.196c-2.543 0-4.612 2.149-4.612 4.791v15.711c0 2.641 2.069 4.79 4.612 4.79h19.732c2.543 0 4.611-2.149 4.611-4.79v-.621a.85.85 0 1 0-1.699 0v.621c0 1.704-1.307 3.09-2.912 3.09H-2.046c-1.605 0-2.912-1.386-2.912-3.09V8.768c0-1.705 1.307-3.091 2.912-3.091H0a.85.85 0 0 0 .85-.85V2.434l4.678 3.102a.853.853 0 0 0 .47.141h5.932a.85.85 0 0 0 0-1.7H6.254L.47.142A.844.844 0 0 0 0 0" style="fill:#ffffff;fill-opacity:1;fill-rule:nonzero;stroke:none" transform="translate(13.075 19.571)"/><path d="M0 0c1.844-.225 3.165.269 4.038.837 1.495.971 2.46 2.74 2.46 4.507v.436c0 .245.106.476.287.637a.842.842 0 0 0-.286.605.856.856 0 0 0-.498.224 1.495 1.495 0 0 1-1.007.403A1.522 1.522 0 0 1 3.487 6.13v-.523a.849.849 0 0 0-.678-.832C1.391 4.48.023 4.829-1.33 5.835c.12-.2.25-.315.324-.382a.848.848 0 0 0 .205-.996c-.143-.305-.412-.506-.777-.489.172-.081.362-.13.562-.142a.85.85 0 0 0 .241-1.647l-.083-.03c.289-.076.666-.125 1.173-.165A.85.85 0 0 0 .728.435 6.925 6.925 0 0 0 0 0m.902-1.745c-1.43 0-2.967.351-4.548 1.053a.85.85 0 0 0-.484.963c.088.395.448.71.848.664.308-.004.613.013.912.059-.349.25-.661.595-.902 1.077a.851.851 0 0 0 .119.938 3.243 3.243 0 0 0-.992 1.971.85.85 0 0 0 .959.943c-.16.644-.164 1.381-.009 2.207a.851.851 0 0 0 1.477.401C-.475 7.101.659 6.402 1.796 6.378a3.23 3.23 0 0 0 3.205 2.971 3.218 3.218 0 0 0 1.743-.531l.914.304a.849.849 0 0 0 1.041-1.161l-.215-.47.303-.13a.85.85 0 0 0 .164-1.47l-.753-.547c0-2.364-1.239-4.637-3.233-5.933C3.78-1.359 2.4-1.745.902-1.745" style="fill:#ffffff;fill-opacity:1;fill-rule:nonzero;stroke:none" transform="translate(16.454 33.269)"/><path d="m0 0-.044-5.984 8.551-.036.035 5.975L8.498 0Zm8.507-7.72H-.008c-.957 0-1.736.779-1.736 1.736v5.939c0 .962.783 1.744 1.744 1.744h8.498c.962 0 1.745-.782 1.745-1.744v-5.939c0-.957-.779-1.736-1.736-1.736" style="fill:#ffffff;fill-opacity:1;fill-rule:nonzero;stroke:none" transform="translate(2.182 9.366)"/><path d="M0 0c-.293 0-.587.093-.836.285l-1.313 1.027a.85.85 0 1 0 1.046 1.339l1.047-.817 1.822 2.33a.85.85 0 1 0 1.339-1.047L1.076.523A1.36 1.36 0 0 0 0 0" style="fill:#ffffff;fill-opacity:1;fill-rule:nonzero;stroke:none" transform="translate(6.313 4.111)"/><path d="m0 0-.044-5.984 8.55-.036.036 5.975L8.499 0Zm8.506-7.72H-.009c-.957 0-1.735.779-1.735 1.736v5.939c0 .962.782 1.744 1.744 1.744h8.499c.96 0 1.743-.782 1.743-1.744v-5.939c0-.957-.779-1.736-1.736-1.736" style="fill:#ffffff;fill-opacity:1;fill-rule:nonzero;stroke:none" transform="translate(20.915 9.366)"/><path d="M0 0c-.292 0-.587.093-.835.286l-1.313 1.026a.85.85 0 1 0 1.046 1.339l1.047-.817 1.822 2.33a.85.85 0 1 0 1.34-1.047L1.077.523A1.363 1.363 0 0 0 0 0" style="fill:#ffffff;fill-opacity:1;fill-rule:nonzero;stroke:none" transform="translate(25.044 4.111)"/><path d="m0 0-.045-5.984 8.552-.036.036 5.975L8.498 0Zm8.507-7.72H-.009c-.957 0-1.735.779-1.735 1.736v5.939c0 .962.782 1.744 1.744 1.744h8.498c.962 0 1.744-.782 1.744-1.744v-5.939c0-.957-.778-1.736-1.735-1.736" style="fill:#ffffff;fill-opacity:1;fill-rule:nonzero;stroke:none" transform="translate(39.592 9.366)"/><path d="M0 0h-3.607a.85.85 0 1 0 0 1.699H0A.85.85 0 1 0 0 0" style="fill:#ffffff;fill-opacity:1;fill-rule:nonzero;stroke:none" transform="translate(45.645 5.506)"/><path d="M0 0c-.46 0-.922.149-1.309.457l-2.94 2.353a2.11 2.11 0 0 0-.327 2.959l7.194 8.988 6.203-4.965L7.17 7.609a.85.85 0 0 0-1.356 1.027l.654.863-3.584 2.868-6.134-7.66a.406.406 0 0 1 .064-.57l2.938-2.351a.403.403 0 0 1 .565.065A.852.852 0 0 0 1.646.789 2.107 2.107 0 0 0 0 0" style="fill:#ffffff;fill-opacity:1;fill-rule:nonzero;stroke:none" transform="translate(32.63 25.195)"/><path d="m0 0 .631-.505.897 1.121-.63.505Zm.896-2.895-3.287 2.63L.632 3.511 3.919.88Z" style="fill:#ffffff;fill-opacity:1;fill-rule:nonzero;stroke:none" transform="translate(28.638 25.96)"/><path d="M0 0a.849.849 0 0 0-.663 1.381L1.299 3.83a.85.85 0 0 0 1.326-1.063L.664.318A.844.844 0 0 0 0 0" style="fill:#ffffff;fill-opacity:1;fill-rule:nonzero;stroke:none" transform="translate(26.46 21.746)"/><path d="M0 0a.843.843 0 0 0-.53.187l-7.834 6.271a.85.85 0 0 0 1.062 1.327L.532 1.514A.85.85 0 0 0 0 0" style="fill:#ffffff;fill-opacity:1;fill-rule:nonzero;stroke:none" transform="translate(41.745 32.81)"/><path d="m0 0 .631-.505 1.682 2.1-.632.506zm.896-2.895-3.287 2.63L1.417 4.49l3.284-2.63z" style="fill:#ffffff;fill-opacity:1;fill-rule:nonzero;stroke:none" transform="translate(38.045 37.714)"/><path d="M0 0a.843.843 0 0 0-.53.187l-4.899 3.919a.851.851 0 0 0 1.063 1.328l4.898-3.92A.851.851 0 0 0 0 0" style="fill:#ffffff;fill-opacity:1;fill-rule:nonzero;stroke:none" transform="translate(43.022 37.413)"/><path d="M0 0a.848.848 0 0 0-.53.186l-1.958 1.568a.85.85 0 1 0 1.062 1.327L.532 1.514A.85.85 0 0 0 0 0" style="fill:#ffffff;fill-opacity:1;fill-rule:nonzero;stroke:none" transform="translate(35.246 32.438)"/><path d="M0 0a.848.848 0 0 0-.53.186l-1.959 1.568a.849.849 0 1 0 1.062 1.327L.532 1.514A.851.851 0 0 0 0 0" style="fill:#ffffff;fill-opacity:1;fill-rule:nonzero;stroke:none" transform="translate(33.635 30.417)"/><path d="M0 0c-.322 0-.648.037-.973.114-2.302.547-3.75 2.896-3.225 5.238.442 1.977 2.143 3.368 4.137 3.383h.007a.85.85 0 0 0 .007-1.7C-1.246 7.026-2.27 6.181-2.54 4.98c-.321-1.438.558-2.878 1.96-3.211 1.25-.299 2.542.403 2.997 1.632.041.112.076.229.103.35a.85.85 0 0 0 1.66-.366A4.296 4.296 0 0 0 0 0" style="fill:#ffffff;fill-opacity:1;fill-rule:nonzero;stroke:none" transform="translate(38.935 23.474)"/><path d="M0 0c-.254 0-.499.086-.7.249L-1.381.8a.85.85 0 0 0 1.07 1.322l.19-.154 1.179 1.723A.85.85 0 1 0 2.46 2.73L.913.472C.696.191.429.041.129.007A1.115 1.115 0 0 0 0 0" style="fill:#ffffff;fill-opacity:1;fill-rule:nonzero;stroke:none" transform="translate(39.046 26.246)"/></g></svg>