<svg width="66.667" height="66.667" xmlns="http://www.w3.org/2000/svg"><defs><clipPath clipPathUnits="userSpaceOnUse" id="a"><path d="M0 50h50V0H0Z"/></clipPath></defs><g clip-path="url(#a)" transform="matrix(1.33333 0 0 -1.33333 0 66.667)"><path d="M0 0h8.161a.82.82 0 1 1 0 1.643H0A.822.822 0 1 1 0 0" style="fill:#ffffff;fill-opacity:1;fill-rule:nonzero;stroke:none" transform="translate(9.242 7.347)"/><path d="M0 0h8.161a.82.82 0 1 1 0 1.643H0A.822.822 0 1 1 0 0" style="fill:#ffffff;fill-opacity:1;fill-rule:nonzero;stroke:none" transform="translate(9.242 4.472)"/><path d="M0 0c.476 0 .78-.25.78-.381 0-.132-.305-.383-.817-.383a.89.89 0 0 0-.758.357.822.822 0 0 1-1.309-.995 2.56 2.56 0 0 1 1.282-.882v-.104a.821.821 0 0 1 1.644 0v.106c.94.276 1.601 1.01 1.601 1.901C2.423.754 1.359 1.643 0 1.643c-.478 0-.783.252-.783.382 0 .131.305.383.816.383.3.027.579-.122.758-.357a.821.821 0 1 1 1.309.995 2.564 2.564 0 0 1-1.278.883v.102a.822.822 0 1 1-1.644 0v-.104c-.942-.276-1.604-1.009-1.604-1.902C-2.426.89-1.361 0 0 0" style="fill:#ffffff;fill-opacity:1;fill-rule:nonzero;stroke:none" transform="translate(13.324 13.938)"/><path d="M0 0c0-.434-.296-.8-.645-.8h-13.892c-.35 0-.646.366-.646.8v17.909c0 .441.29.8.646.8H-.645c.349 0 .645-.367.645-.8Zm-23.357 17.909V0c0-.434-.295-.8-.644-.8h-13.893c-.349 0-.644.366-.644.8v17.909c0 .433.295.8.644.8h13.893c.355 0 .644-.359.644-.8m22.712 2.444h-3.448c0 .01.007.02.007.032v.394a4.089 4.089 0 0 1-4.085 4.084h-21.463a4.09 4.09 0 0 1-4.085-4.084v-.394c0-.012.007-.022.007-.032h-4.182c-1.262 0-2.288-1.097-2.288-2.444V0c0-1.348 1.026-2.442 2.288-2.442h13.893c1.262 0 2.288 1.094 2.288 2.442v17.909c0 1.347-1.026 2.444-2.288 2.444h-8.08c0 .01.006.02.006.032v.394a2.443 2.443 0 0 0 2.441 2.44h21.463a2.443 2.443 0 0 0 2.442-2.44v-.394c0-.012.005-.022.006-.032h-8.814c-1.262 0-2.288-1.097-2.288-2.444V0c0-1.348 1.026-2.442 2.288-2.442H-.645C.616-2.442 1.643-1.348 1.643 0v17.909c0 1.347-1.027 2.444-2.288 2.444" style="fill:#ffffff;fill-opacity:1;fill-rule:nonzero;stroke:none" transform="translate(44.27 2.677)"/><path d="M0 0h.145a3.98 3.98 0 0 1 3.889-3.154.82.82 0 1 1 0 1.642c-.997 0-1.843.632-2.177 1.512h.626a.821.821 0 1 1 0 1.644h-.627a2.335 2.335 0 0 0 2.178 1.512.82.82 0 1 1 0 1.643A3.98 3.98 0 0 1 .145 1.644H0A.822.822 0 1 1 0 0" style="fill:#ffffff;fill-opacity:1;fill-rule:nonzero;stroke:none" transform="translate(34.661 13.988)"/><path d="M0 0h-8.16a.82.82 0 1 1 0-1.643H0A.821.821 0 0 1 0 0" style="fill:#ffffff;fill-opacity:1;fill-rule:nonzero;stroke:none" transform="translate(40.758 8.994)"/><path d="M0 0h-8.16a.82.82 0 1 1 0-1.643H0A.821.821 0 0 1 0 0" style="fill:#ffffff;fill-opacity:1;fill-rule:nonzero;stroke:none" transform="translate(40.758 6.12)"/><path d="M0 0c-.162.043-.34.102-.531.196a.48.48 0 0 0-.31.485c0 .428.34.55.7.55.259 0 .422-.057.561-.108.126-.036.229-.08.362-.08.325 0 .516.218.516.457 0 .543-1.048.652-1.483.652-1.047 0-1.711-.566-1.711-1.499 0-1.051.782-1.29 1.505-1.507.2-.065.384-.13.538-.196.134-.058.303-.167.303-.492 0-.399-.258-.624-.767-.624-.317 0-.553.087-.731.145a1.11 1.11 0 0 1-.368.087c-.273 0-.487-.224-.487-.457 0-.506 1.033-.694 1.578-.694 1.055 0 1.837.579 1.837 1.586C1.512-.471.723-.225 0 0" style="fill:#ffffff;fill-opacity:1;fill-rule:nonzero;stroke:none" transform="translate(8.201 40.563)"/><path d="M0 0h-.627v1.527H0c.693 0 .848-.39.848-.767C.848.239.553 0 0 0m0 2.448h-1.084c-.311 0-.576-.239-.576-.522v-4.172c0-.261.243-.478.516-.478.281 0 .517.224.517.478v1.325H0c1.144 0 1.881.602 1.881 1.673 0 .884-.494 1.696-1.881 1.696" style="fill:#ffffff;fill-opacity:1;fill-rule:nonzero;stroke:none" transform="translate(12.293 40.201)"/><path d="m0 0 .391 1.239c.067.209.104.485.133.71a4.43 4.43 0 0 1 .132-.71L1.033 0Zm1.128 2.847c-.103.289-.25.492-.604.492s-.502-.21-.598-.492l-1.438-4.122a.586.586 0 0 1-.022-.159c0-.276.243-.464.532-.464.176 0 .412.13.485.341l.244.731h1.571l.259-.731c.073-.203.31-.341.501-.341.302 0 .531.188.531.464a.55.55 0 0 1-.022.159z" style="fill:#ffffff;fill-opacity:1;fill-rule:nonzero;stroke:none" transform="translate(15.948 39.375)"/><path d="M0 0h-.826v1.202h.782c.671 0 .826-.312.826-.616C.782.209.509 0 0 0m.79-.805c.634.203 1.025.675 1.025 1.391 0 .761-.443 1.537-1.83 1.537h-1.283c-.302 0-.561-.239-.561-.523v-4.172c0-.261.236-.478.509-.478.28 0 .524.225.524.478v1.659h.501l1.24-1.905a.5.5 0 0 1 .435-.224c.332 0 .693.383.45.746z" style="fill:#ffffff;fill-opacity:1;fill-rule:nonzero;stroke:none" transform="translate(21.227 40.527)"/><path d="m0 0 1.468 1.63c.117.13.125.203.125.311 0 .253-.287.464-.509.464a.59.59 0 0 1-.42-.211L-.797.565v1.376c0 .247-.236.464-.516.464-.288 0-.517-.217-.517-.464v-4.302c0-.254.229-.472.517-.472.28 0 .516.218.516.472v1.477l.133.145L.767-2.623a.515.515 0 0 1 .427-.21c.318 0 .503.275.503.486a.36.36 0 0 1-.082.246z" style="fill:#ffffff;fill-opacity:1;fill-rule:nonzero;stroke:none" transform="translate(25.879 40.31)"/><path d="M0 0c0-.58-.28-.985-.885-.985-.604 0-.885.405-.885.985v1.435c0 .586.236.977.885.977.65 0 .885-.391.885-.977Zm-.885 3.332c-1.379 0-1.917-.87-1.917-1.897V0c0-1.057.641-1.905 1.917-1.905 1.277 0 1.918.848 1.918 1.905v1.435c0 1.027-.538 1.897-1.918 1.897" style="fill:#ffffff;fill-opacity:1;fill-rule:nonzero;stroke:none" transform="translate(33.473 39.382)"/><path d="M0 0c.236 0 .428-.059.612-.173l.074-.044c.096-.058.147-.109.317-.109.28 0 .487.202.487.435 0 .42-.745.775-1.526.775-1.292 0-1.882-.754-1.882-1.898v-1.434c0-1.145.59-1.898 1.882-1.898.781 0 1.526.355 1.526.775 0 .232-.207.435-.487.435-.17 0-.221-.052-.317-.109l-.074-.044A1.103 1.103 0 0 0 0-3.462c-.663 0-.885.391-.885 1.014v1.434C-.885-.392-.663 0 0 0" style="fill:#ffffff;fill-opacity:1;fill-rule:nonzero;stroke:none" transform="translate(37.283 41.83)"/><path d="M0 0h-.826v1.202h.782c.671 0 .826-.312.826-.616C.782.209.509 0 0 0m.79-.805c.634.203 1.024.675 1.024 1.391 0 .761-.442 1.537-1.829 1.537h-1.283c-.303 0-.56-.239-.56-.523v-4.172c0-.261.235-.478.508-.478.281 0 .524.225.524.478v1.659h.502L.915-2.818a.503.503 0 0 1 .436-.224c.331 0 .692.383.449.746z" style="fill:#ffffff;fill-opacity:1;fill-rule:nonzero;stroke:none" transform="translate(41.5 40.527)"/><path d="M0 0c0-.773-1.174-1.634-2.857-1.634h-14.678a.826.826 0 0 1-.274-.047l-4.696-1.653-4.643 1.652a.812.812 0 0 1-.275.048h-14.246c-1.684 0-2.857.861-2.857 1.634v11.719c0 .773 1.173 1.634 2.857 1.634h38.812c1.683 0 2.857-.861 2.857-1.634Zm-2.857 14.997h-38.812c-2.524 0-4.501-1.44-4.501-3.278V0c0-1.838 1.977-3.278 4.501-3.278h14.104l4.782-1.702a.822.822 0 0 1 .549-.001l4.839 1.703h14.538c2.523 0 4.5 1.44 4.5 3.278v11.719c0 1.838-1.977 3.278-4.5 3.278" style="fill:#ffffff;fill-opacity:1;fill-rule:nonzero;stroke:none" transform="translate(47.264 34.769)"/></g></svg>