<svg xmlns="http://www.w3.org/2000/svg" width="66.667" height="66.667"><defs><clipPath id="a" clipPathUnits="userSpaceOnUse"><path d="M0 50h50V0H0Z"/></clipPath></defs><g clip-path="url(#a)" transform="matrix(1.33333 0 0 -1.33333 0 66.667)"><path d="M0 0c0-.45-.359-.82-.81-.82-3.19 0-5.78 2.59-5.78 5.78v24.13c0 3.18 2.59 5.77 5.78 5.77.451 0 .81-.37.81-.82 0-.45-.359-.82-.81-.82a4.14 4.14 0 0 1-4.14-4.13V17.84h3.32c.45 0 .82-.36.82-.82 0-.45-.37-.82-.82-.82h-3.32V4.96C-4.95 2.68-3.09.82-.81.82-.359.82 0 .46 0 0" style="fill:#0098da;fill-opacity:1;fill-rule:nonzero;stroke:none" transform="translate(36.26 9.29)"/><path d="M0 0c-.52 0-.94.42-.94.94 0 .18.31.76.94 1.53C.63 1.7.93 1.12.93.94.93.42.51 0 0 0m-8.42-.01c-.51 0-.93.42-.93.93 0 .19.3.77.93 1.53.64-.76.94-1.34.94-1.53 0-.51-.42-.93-.94-.93m9.1 4.18c-.05.05-.11.1-.18.13-.15.14-.34.22-.55.22L-3.3 4.5v1.83c0 .45-.37.82-.82.82-.46 0-.82-.37-.82-.82V4.5l-3.26-.02c-.07 0-.14-.01-.2-.03h-.02c-.22 0-.52-.13-.68-.29-.86-.92-1.89-2.23-1.89-3.24 0-1.41 1.16-2.57 2.57-2.57C-7-1.65-5.84-.49-5.84.92c0 .59-.35 1.28-.82 1.93l1.72.01v-8.29h-1.21c-.46 0-.82-.36-.82-.82 0-.45.36-.82.82-.82h4.06c.45 0 .82.37.82.82 0 .46-.37.82-.82.82H-3.3v8.29l1.54.01c-.47-.65-.82-1.34-.82-1.93 0-1.42 1.16-2.58 2.58-2.58 1.42 0 2.57 1.16 2.57 2.58 0 1.01-1.03 2.31-1.89 3.23" style="fill:#0098da;fill-opacity:1;fill-rule:nonzero;stroke:none" transform="translate(15.89 27.42)"/><path d="M0 0c-1.28 0-2.33 1.04-2.33 2.33v3.48c.12-.07.22-.16.32-.26L3.23.31c.1-.1.18-.2.26-.31Zm5.5-.83v.01c0 .06-.01.11-.02.16-.13.8-.51 1.54-1.1 2.13L-.86 6.71c-.54.55-1.22.91-1.96 1.06-.1.04-.21.06-.32.06-.17.03-.34.04-.52.04h-13.15c-1.6 0-2.9-1.3-2.9-2.9v-25.23c0-1.52 1.24-2.76 2.76-2.76h8.92a.815.815 0 1 1 0 1.63h-8.92c-.62 0-1.12.51-1.12 1.13V4.97c0 .69.57 1.26 1.26 1.26h12.85v-3.9C-3.96.14-2.18-1.64 0-1.64h3.91v-7.03c0-.45.37-.82.82-.82.45 0 .82.37.82.82v7.33c0 .17-.03.34-.05.51" style="fill:#0098da;fill-opacity:1;fill-rule:nonzero;stroke:none" transform="translate(19.71 34.75)"/><path d="M0 0a5.04 5.04 0 0 0-5.03 5.03A5.04 5.04 0 0 0 0 10.061 5.04 5.04 0 0 0 5.03 5.03 5.04 5.04 0 0 0 0 0m0 11.7c-3.68 0-6.67-2.99-6.67-6.67 0-3.679 2.99-6.67 6.67-6.67 3.67 0 6.67 2.991 6.67 6.67 0 3.68-3 6.67-6.67 6.67" style="fill:#0098da;fill-opacity:1;fill-rule:nonzero;stroke:none" transform="translate(20.48 11.39)"/><path d="M0 0c.39 0 .68-.239.68-.55 0-.3-.26-.55-.67-.649-.34.079-.7.279-.7.649 0 .311.29.55.69.55m0-3.979c-.52 0-.91.309-.91.719 0 .45.45.71.88.811.45-.101.92-.361.92-.811 0-.41-.38-.719-.89-.719M1.49-1.76c.39.34.59.75.59 1.24 0 1.01-.88 1.75-2.09 1.75-1.23 0-2.1-.74-2.1-1.79 0-.5.2-.929.59-1.259-.53-.38-.81-.88-.81-1.471 0-1.13.98-1.939 2.33-1.939 1.34 0 2.31.83 2.31 1.969 0 .611-.27 1.111-.82 1.5" style="fill:#0098da;fill-opacity:1;fill-rule:nonzero;stroke:none" transform="translate(20.5 18.43)"/><path d="M0 0v-8.165c0-.064.204-.26.575-.26h6.069a1.496 1.496 0 0 0-.021.26V0a.35.35 0 0 1-.111.017H.11A.343.343 0 0 1 0 0m8.836-10.064H.575c-1.221 0-2.213.852-2.213 1.899V.116c0 .863.768 1.54 1.748 1.54h6.402c.98 0 1.749-.677 1.749-1.54v-8.281c0-.064.204-.26.575-.26s.575.196.575.26v6.841a.819.819 0 1 0 1.638 0v-6.841c0-1.047-.992-1.899-2.213-1.899" style="fill:#0098da;fill-opacity:1;fill-rule:nonzero;stroke:none" transform="translate(38.951 45.603)"/><path d="M0 0h-3.35a.819.819 0 1 0 0 1.639H0A.82.82 0 0 0 0 0" style="fill:#0098da;fill-opacity:1;fill-rule:nonzero;stroke:none" transform="translate(43.885 42.072)"/><path d="M0 0h-3.35a.819.819 0 1 0 0 1.639H0A.819.819 0 0 0 0 0" style="fill:#0098da;fill-opacity:1;fill-rule:nonzero;stroke:none" transform="translate(43.885 39.087)"/><path d="M0 0v-8.165c0-.065.204-.26.575-.26h6.069a1.504 1.504 0 0 0-.021.26V0a.35.35 0 0 1-.111.017H.11A.343.343 0 0 1 0 0m8.836-10.063H.575c-1.221 0-2.213.852-2.213 1.898V.117c0 .862.768 1.539 1.748 1.539h6.402c.98 0 1.749-.677 1.749-1.539v-8.282c0-.065.204-.26.575-.26s.575.195.575.26v6.841a.82.82 0 1 0 1.638 0v-6.841c0-1.046-.992-1.898-2.213-1.898" style="fill:#0098da;fill-opacity:1;fill-rule:nonzero;stroke:none" transform="translate(38.951 30.169)"/><path d="M0 0h-3.35a.819.819 0 1 0 0 1.639H0A.819.819 0 0 0 0 0" style="fill:#0098da;fill-opacity:1;fill-rule:nonzero;stroke:none" transform="translate(43.885 26.637)"/><path d="M0 0h-3.35a.819.819 0 1 0 0 1.639H0A.82.82 0 0 0 0 0" style="fill:#0098da;fill-opacity:1;fill-rule:nonzero;stroke:none" transform="translate(43.885 23.653)"/><path d="M0 0v-8.164c0-.065.204-.262.575-.262h6.069a1.519 1.519 0 0 0-.021.262V0a.38.38 0 0 1-.111.017H.11A.373.373 0 0 1 0 0m8.836-10.063H.575c-1.221 0-2.213.851-2.213 1.899v8.28c0 .863.768 1.538 1.748 1.538h6.402c.98 0 1.749-.675 1.749-1.538v-8.28c0-.065.204-.262.575-.262s.575.197.575.262v6.84a.818.818 0 1 0 1.638 0v-6.84c0-1.048-.992-1.899-2.213-1.899" style="fill:#0098da;fill-opacity:1;fill-rule:nonzero;stroke:none" transform="translate(38.951 12.805)"/><path d="M0 0h-3.35a.818.818 0 1 0 0 1.638H0A.819.819 0 0 0 0 0" style="fill:#0098da;fill-opacity:1;fill-rule:nonzero;stroke:none" transform="translate(43.885 9.273)"/><path d="M0 0h-3.35a.818.818 0 1 0 0 1.638H0A.819.819 0 0 0 0 0" style="fill:#0098da;fill-opacity:1;fill-rule:nonzero;stroke:none" transform="translate(43.885 6.29)"/></g></svg>