<svg xmlns="http://www.w3.org/2000/svg" xml:space="preserve" width="66.667" height="66.667"><defs><clipPath clipPathUnits="userSpaceOnUse" id="a"><path d="M0 50h50V0H0Z"/></clipPath></defs><g clip-path="url(#a)" transform="matrix(1.33333 0 0 -1.33333 0 66.667)"><path d="M0 0c-.386 0-.771-.152-1.056-.454A1.453 1.453 0 1 1 0 0m-.001-4.604c-.777 0-1.556.286-2.164.86A3.158 3.158 0 0 0-2.292.714 3.16 3.16 0 0 0 2.166.84a3.158 3.158 0 0 0 .126-4.458 3.147 3.147 0 0 0-2.293-.986" style="fill:#ffffff;fill-opacity:1;fill-rule:nonzero;stroke:none" transform="translate(12.432 41.002)"/><path d="M0 0c-.386 0-.771-.152-1.056-.454A1.453 1.453 0 1 1 0 0m-.001-4.604c-.777 0-1.556.286-2.164.86A3.158 3.158 0 0 0-2.292.714 3.16 3.16 0 0 0 2.166.84a3.158 3.158 0 0 0 .126-4.458 3.147 3.147 0 0 0-2.293-.986" style="fill:#ffffff;fill-opacity:1;fill-rule:nonzero;stroke:none" transform="translate(12.432 41.002)"/><path d="M0 0a.853.853 0 0 0-.518.176c-1.188.914-2.669.92-3.862.016a.849.849 0 1 0-1.026 1.355c1.803 1.366 4.127 1.357 5.924-.023A.85.85 0 0 0 0 0" style="fill:#ffffff;fill-opacity:1;fill-rule:nonzero;stroke:none" transform="translate(15.068 34.874)"/><path d="M0 0a1.454 1.454 0 0 1-.998-2.508A1.522 1.522 0 0 1 .04-2.905c.389.011.749.173 1.016.455.266.281.407.651.396 1.039A1.45 1.45 0 0 1 0 0m-.001-4.604a3.14 3.14 0 0 0-2.165.86A3.156 3.156 0 0 0-2.292.713 3.156 3.156 0 0 0 2.165.84a3.131 3.131 0 0 0 .986-2.203 3.13 3.13 0 0 0-.86-2.255 3.145 3.145 0 0 0-2.292-.986" style="fill:#ffffff;fill-opacity:1;fill-rule:nonzero;stroke:none" transform="translate(12.433 33.121)"/><path d="M0 0a1.454 1.454 0 0 1-.998-2.508A1.522 1.522 0 0 1 .04-2.905c.389.011.749.173 1.016.455.266.281.407.651.396 1.039A1.45 1.45 0 0 1 0 0m-.001-4.604a3.14 3.14 0 0 0-2.165.86A3.156 3.156 0 0 0-2.292.713 3.156 3.156 0 0 0 2.165.84a3.131 3.131 0 0 0 .986-2.203 3.13 3.13 0 0 0-.86-2.255 3.145 3.145 0 0 0-2.292-.986" style="fill:#ffffff;fill-opacity:1;fill-rule:nonzero;stroke:none" transform="translate(12.433 33.121)"/><path d="M0 0a.853.853 0 0 0-.518.176c-1.188.913-2.668.919-3.862.016a.85.85 0 1 0-1.026 1.355c1.804 1.366 4.13 1.357 5.924-.023A.85.85 0 0 0 0 0" style="fill:#ffffff;fill-opacity:1;fill-rule:nonzero;stroke:none" transform="translate(15.068 26.993)"/><path d="M0 0a.85.85 0 0 0-.85.85v.513a3.406 3.406 0 0 1-3.401 3.403h-27.97a3.407 3.407 0 0 1-3.402-3.403V.85a.85.85 0 1 0-1.7 0v.513a5.107 5.107 0 0 0 5.102 5.102h27.97A5.107 5.107 0 0 0 .85 1.363V.85A.85.85 0 0 0 0 0" style="fill:#ffffff;fill-opacity:1;fill-rule:nonzero;stroke:none" transform="translate(43.139 12.241)"/><path d="M0 0a.85.85 0 0 0-.85.85v3.98a.85.85 0 1 0 1.7 0V.85A.85.85 0 0 0 0 0" style="fill:#ffffff;fill-opacity:1;fill-rule:nonzero;stroke:none" transform="translate(24.902 13.026)"/><path d="M0 0a.078.078 0 0 1-.078-.078v-6.163l8.903-.07.07 6.233A.08.08 0 0 1 8.816 0Zm8.825-8.01H-.009a1.77 1.77 0 0 0-1.768 1.769v6.163c0 .98.797 1.777 1.777 1.777h8.816c.981 0 1.778-.797 1.778-1.777v-6.163A1.77 1.77 0 0 0 8.825-8.01" style="fill:#ffffff;fill-opacity:1;fill-rule:nonzero;stroke:none" transform="translate(38.478 10.188)"/><path d="M0 0h-4.586a.85.85 0 1 0 0 1.699H0A.85.85 0 1 0 0 0" style="fill:#ffffff;fill-opacity:1;fill-rule:nonzero;stroke:none" transform="translate(45.18 7.514)"/><path d="M0 0h-4.586a.85.85 0 1 0 0 1.699H0A.85.85 0 1 0 0 0" style="fill:#ffffff;fill-opacity:1;fill-rule:nonzero;stroke:none" transform="translate(45.18 4.965)"/><path d="M0 0a.078.078 0 0 1-.077-.078v-6.163l8.902-.07.07 6.233A.079.079 0 0 1 8.816 0Zm8.825-8.01H-.009a1.77 1.77 0 0 0-1.768 1.769v6.163c0 .98.797 1.777 1.777 1.777h8.816c.981 0 1.778-.797 1.778-1.777v-6.163A1.77 1.77 0 0 0 8.825-8.01" style="fill:#ffffff;fill-opacity:1;fill-rule:nonzero;stroke:none" transform="translate(20.494 10.188)"/><path d="M0 0h-4.586a.85.85 0 1 0 0 1.699H0A.85.85 0 1 0 0 0" style="fill:#ffffff;fill-opacity:1;fill-rule:nonzero;stroke:none" transform="translate(27.195 7.514)"/><path d="M0 0h-4.586a.85.85 0 1 0 0 1.699H0A.85.85 0 1 0 0 0" style="fill:#ffffff;fill-opacity:1;fill-rule:nonzero;stroke:none" transform="translate(27.195 4.965)"/><path d="M0 0a.078.078 0 0 1-.078-.078v-6.163l8.903-.07.069 6.233A.078.078 0 0 1 8.816 0Zm8.825-8.01H-.009a1.77 1.77 0 0 0-1.769 1.769v6.163c0 .98.798 1.777 1.778 1.777h8.816a1.78 1.78 0 0 0 1.778-1.777v-6.163A1.77 1.77 0 0 0 8.825-8.01" style="fill:#ffffff;fill-opacity:1;fill-rule:nonzero;stroke:none" transform="translate(2.27 10.188)"/><path d="M0 0h-4.586a.85.85 0 1 0 0 1.699H0A.85.85 0 1 0 0 0" style="fill:#ffffff;fill-opacity:1;fill-rule:nonzero;stroke:none" transform="translate(8.972 7.514)"/><path d="M0 0h-4.586a.85.85 0 1 0 0 1.699H0A.85.85 0 1 0 0 0" style="fill:#ffffff;fill-opacity:1;fill-rule:nonzero;stroke:none" transform="translate(8.972 4.965)"/><path d="M0 0a.846.846 0 0 0-.601.249l-1.354 1.354a.85.85 0 0 0 0 1.202L-.601 4.16A.85.85 0 1 0 .601 2.957l-.753-.753.753-.753A.85.85 0 0 0 0 0" style="fill:#ffffff;fill-opacity:1;fill-rule:nonzero;stroke:none" transform="translate(19.52 28.262)"/><path d="m0 0-.051.001L-3.95 0a.85.85 0 0 0 0 1.7h3.915c.5.015.971.402.991.919L.955 7.885a2.547 2.547 0 0 0 .71 1.829 2.563 2.563 0 0 0 1.828.787h2.713a.85.85 0 1 0 0-1.7H3.498a.854.854 0 0 1-.843-.885V2.587C2.601 1.136 1.416 0 0 0" style="fill:#ffffff;fill-opacity:1;fill-rule:nonzero;stroke:none" transform="translate(22.115 29.617)"/><path d="M0 0h-5.826a1.823 1.823 0 0 0-1.822 1.821.85.85 0 1 0 1.7 0c0-.067.054-.121.122-.121H0c.067 0 .122.054.122.121v9.832h-6.07V8.618a.85.85 0 1 0-1.7 0v3.885c0 .469.38.85.85.85h7.77a.85.85 0 0 0 .849-.85V1.821A1.823 1.823 0 0 0 0 0" style="fill:#ffffff;fill-opacity:1;fill-rule:nonzero;stroke:none" transform="translate(38.855 26.787)"/><path d="M0 0h8.012v1.092a.121.121 0 0 1-.121.121H.121A.121.121 0 0 1 0 1.092Zm8.376-1.7h-8.74c-.736 0-1.335.599-1.335 1.335v1.457c0 1.004.816 1.821 1.82 1.821h7.77c1.004 0 1.82-.817 1.82-1.821V-.365c0-.736-.599-1.335-1.335-1.335" style="fill:#ffffff;fill-opacity:1;fill-rule:nonzero;stroke:none" transform="translate(31.936 40.14)"/><path d="M0 0a.265.265 0 0 1-.191-.08l-2.546-2.542a.272.272 0 0 1 0-.386c.138-.138.246-.141.386 0h.001L.193-.467c.069.069.096.17.071.265A.276.276 0 0 1 0 0m-2.543-4.788a1.96 1.96 0 0 0-1.396.578 1.977 1.977 0 0 0 0 2.791l2.544 2.541A1.975 1.975 0 0 0 1.906.236a1.976 1.976 0 0 0-.511-1.905L-1.148-4.21a1.96 1.96 0 0 0-1.395-.578" style="fill:#ffffff;fill-opacity:1;fill-rule:nonzero;stroke:none" transform="translate(31.552 32.542)"/><path d="M35.82 31.4h3.156v3.155H35.82Zm4.006-1.7h-4.855a.85.85 0 0 0-.85.85v4.855c0 .469.38.85.85.85h4.855a.85.85 0 0 0 .85-.85V30.55a.85.85 0 0 0-.85-.85" style="fill:#ffffff;fill-opacity:1;fill-rule:nonzero;stroke:none"/><path d="M0 0a2.547 2.547 0 0 1-2.544-2.544v-16.2A2.547 2.547 0 0 1 0-21.289h13.146c.14 0 .277-.034.4-.099l4.139-2.208 4.189 2.21a.853.853 0 0 0 .397.097h13.543a2.548 2.548 0 0 1 2.545 2.545v16.2A2.547 2.547 0 0 1 35.814 0Zm17.683-25.408a.844.844 0 0 0-.4.1l-4.349 2.32H0a4.25 4.25 0 0 0-4.245 4.244v16.2A4.25 4.25 0 0 0 0 1.7h35.814a4.25 4.25 0 0 0 4.245-4.244v-16.2a4.25 4.25 0 0 0-4.245-4.244H22.481L18.08-25.31a.845.845 0 0 0-.397-.098" style="fill:#ffffff;fill-opacity:1;fill-rule:nonzero;stroke:none" transform="translate(6.818 45.261)"/></g></svg>