<svg id="Слой_1" data-name="Слой 1" xmlns="http://www.w3.org/2000/svg" viewBox="0 0 29.99 29.99"><defs><style>.cls-1{fill:#0098da}</style></defs><path class="cls-1" d="M25.38 4.28H7.51a1.55 1.55 0 00-1.56 1.55v9.33h.78V5.83a.78.78 0 01.78-.78h17.87a.78.78 0 01.78.78v15.54a.78.78 0 01-.78.78h-8.16v.78h8.16a1.55 1.55 0 001.55-1.56V5.83a1.55 1.55 0 00-1.55-1.55z"/><path class="cls-1" d="M7.5 5.83h.78v.78h-.77zM9.06 5.83h.78v.78h-.78zM10.61 5.83h.78v.78h-.78zM7.5 7.39h17.88v.77H7.51zM7.5 13.6a.39.39 0 00.4.4h4.66a.39.39 0 00.39-.4v-3.1a.39.39 0 00-.4-.4h-1.77l-.67-.66a.39.39 0 00-.27-.11H7.89a.39.39 0 00-.38.39zm.78-3.5h1.4l.66.67a.39.39 0 00.27.11h1.56v2.33H8.28zM19.16 10.5a.39.39 0 00-.39-.4H17l-.66-.66a.39.39 0 00-.28-.11h-1.94a.39.39 0 00-.39.39v3.88a.39.39 0 00.4.4h4.65a.39.39 0 00.4-.4zm-.77 2.71H14.5v-3.1h1.4l.66.66a.39.39 0 00.27.11h1.56zM25.38 10.5a.39.39 0 00-.39-.4h-1.78l-.66-.66a.39.39 0 00-.28-.11h-1.94a.39.39 0 00-.39.39v3.88a.39.39 0 00.39.4h4.66a.39.39 0 00.39-.4zm-.78 2.71h-3.88v-3.1h1.4l.65.66a.39.39 0 00.28.11h1.55zM17.22 19.43v.78h1.55a.39.39 0 00.4-.4v-3.1a.39.39 0 00-.4-.39H17l-.66-.66a.39.39 0 00-.28-.12H14.9v.78h1l.67.67a.39.39 0 00.27.1h1.56v2.34zM25 16.32h-1.8l-.65-.66a.39.39 0 00-.28-.12h-1.94a.39.39 0 00-.39.4v3.88a.39.39 0 00.39.39h4.66a.39.39 0 00.39-.4v-3.1a.39.39 0 00-.39-.39zm-.4 3.11h-3.88v-3.1h1.4l.65.66a.39.39 0 00.28.1h1.55zM5.42 19.82H4.4a.39.39 0 00-.4.39v2.33a.39.39 0 00.4.39h1.02a5.03 5.03 0 00.31.74l-.72.73a.39.39 0 000 .54l1.64 1.65a.39.39 0 00.55 0l.73-.72a5.03 5.03 0 00.74.3v1.03a.39.39 0 00.4.39h2.32a.39.39 0 00.39-.39v-1.03a5.03 5.03 0 00.74-.3l.73.72a.39.39 0 00.55 0l1.65-1.65a.39.39 0 000-.54l-.73-.73a5.03 5.03 0 00.3-.74h1.03a.39.39 0 00.4-.4v-2.32a.39.39 0 00-.4-.4h-1.02a5.03 5.03 0 00-.3-.73l.72-.73a.39.39 0 000-.55l-1.65-1.65a.39.39 0 00-.55 0l-.73.73a5.03 5.03 0 00-.74-.3v-1.04a.39.39 0 00-.39-.38H9.06a.39.39 0 00-.39.38v1.03a5.03 5.03 0 00-.74.3l-.73-.72a.39.39 0 00-.55 0L5.01 17.8a.39.39 0 000 .55l.72.73-.1.19a5.05 5.05 0 00-.2.55zm.67.48a4.24 4.24 0 01.46-1.1.39.39 0 00-.06-.47l-.66-.65 1.1-1.1.66.65a.39.39 0 00.47.06 4.25 4.25 0 011.1-.45.39.39 0 00.29-.38v-.93H11v.93a.39.39 0 00.3.38 4.25 4.25 0 011.1.45.39.39 0 00.47-.06l.65-.65 1.1 1.1-.66.65a.39.39 0 00-.06.48 4.25 4.25 0 01.46 1.1.39.39 0 00.38.29h.93v1.55h-.93a.39.39 0 00-.38.3 4.25 4.25 0 01-.46 1.1.39.39 0 00.06.46l.66.66-1.1 1.1-.65-.66a.39.39 0 00-.48-.06 4.25 4.25 0 01-1.1.46.39.39 0 00-.29.37v.93H9.45v-.93a.39.39 0 00-.3-.37 4.25 4.25 0 01-1.1-.46.39.39 0 00-.46.06l-.66.66-1.1-1.1.66-.66a.39.39 0 00.06-.47 4.25 4.25 0 01-.46-1.1.39.39 0 00-.37-.29h-.93V20.6h.93a.39.39 0 00.37-.3z"/><path class="cls-1" d="M10.23 24.1a2.72 2.72 0 10-2.72-2.73 2.72 2.72 0 002.72 2.72zm0-4.67a1.94 1.94 0 11-1.95 1.94 1.94 1.94 0 011.95-1.94z"/></svg>