<svg xmlns="http://www.w3.org/2000/svg" xml:space="preserve" width="66.667" height="66.667"><defs><clipPath clipPathUnits="userSpaceOnUse" id="a"><path d="M0 50h50V0H0Z"/></clipPath></defs><g clip-path="url(#a)" transform="matrix(1.33333 0 0 -1.33333 0 66.667)"><path d="M0 0h-.554a5.44 5.44 0 0 0-5.433 5.434v26.147a5.439 5.439 0 0 0 5.433 5.433H0a.85.85 0 1 0 0-1.7h-.554a3.738 3.738 0 0 1-3.734-3.733V5.434A3.74 3.74 0 0 1-.554 1.699H0A.85.85 0 1 0 0 0" style="fill:#0098da;fill-opacity:1;fill-rule:nonzero;stroke:none" transform="translate(36.522 6.61)"/><path d="M0 0h-4.291a.85.85 0 1 0 0 1.699H0A.85.85 0 1 0 0 0" style="fill:#0098da;fill-opacity:1;fill-rule:nonzero;stroke:none" transform="translate(35.675 24.267)"/><path d="M0 0a.752.752 0 0 1-.189-.501v-6.642a.14.14 0 0 1 .14-.14h7.522a.14.14 0 0 1 .14.14v9.286a.14.14 0 0 1-.14.141H3.237a.753.753 0 0 1-.534-.221.79.79 0 0 0-.087-.076Zm7.473-8.983H-.049c-1.015 0-1.84.825-1.84 1.84v6.642c0 .656.255 1.273.718 1.737a.8.8 0 0 0 .088.076L1.548 3.31a2.435 2.435 0 0 0 1.688.674h4.237c1.014 0 1.84-.826 1.84-1.841v-9.286c0-1.015-.826-1.84-1.84-1.84" style="fill:#0098da;fill-opacity:1;fill-rule:nonzero;stroke:none" transform="translate(40.326 45.11)"/><path d="M0 0h-2.387a.85.85 0 0 0 0 1.7H0c.417 0 .756.339.756.755v1.744a.85.85 0 1 0 1.699 0V2.455A2.457 2.457 0 0 0 0 0" style="fill:#0098da;fill-opacity:1;fill-rule:nonzero;stroke:none" transform="translate(41.696 44.023)"/><path d="M0 0h-4.944a.85.85 0 1 0 0 1.7H0A.85.85 0 1 0 0 0" style="fill:#0098da;fill-opacity:1;fill-rule:nonzero;stroke:none" transform="translate(46.51 41.877)"/><path d="M0 0h-4.944a.85.85 0 1 0 0 1.7H0A.85.85 0 1 0 0 0" style="fill:#0098da;fill-opacity:1;fill-rule:nonzero;stroke:none" transform="translate(46.51 39.13)"/><path d="M0 0a.752.752 0 0 1-.189-.501v-6.642a.14.14 0 0 1 .14-.141h7.522a.14.14 0 0 1 .14.141v9.287a.14.14 0 0 1-.14.14H3.237a.753.753 0 0 1-.534-.221.79.79 0 0 0-.087-.076Zm7.473-8.983H-.049c-1.015 0-1.84.825-1.84 1.84v6.642c0 .656.255 1.273.718 1.737a.8.8 0 0 0 .088.076L1.548 3.31a2.435 2.435 0 0 0 1.688.674h4.237c1.014 0 1.84-.826 1.84-1.84v-9.287c0-1.015-.826-1.84-1.84-1.84" style="fill:#0098da;fill-opacity:1;fill-rule:nonzero;stroke:none" transform="translate(40.326 27.5)"/><path d="M0 0h-2.387a.85.85 0 0 0 0 1.7H0c.417 0 .756.339.756.756v1.743a.85.85 0 1 0 1.699 0V2.456A2.458 2.458 0 0 0 0 0" style="fill:#0098da;fill-opacity:1;fill-rule:nonzero;stroke:none" transform="translate(41.696 26.413)"/><path d="M0 0h-4.944a.85.85 0 1 0 0 1.699H0A.85.85 0 1 0 0 0" style="fill:#0098da;fill-opacity:1;fill-rule:nonzero;stroke:none" transform="translate(46.51 24.267)"/><path d="M0 0h-4.944a.85.85 0 1 0 0 1.699H0A.85.85 0 1 0 0 0" style="fill:#0098da;fill-opacity:1;fill-rule:nonzero;stroke:none" transform="translate(46.51 21.52)"/><path d="M0 0a.763.763 0 0 1-.189-.501v-6.643a.14.14 0 0 1 .14-.14h7.522a.14.14 0 0 1 .14.14v9.287a.14.14 0 0 1-.14.141H3.238a.76.76 0 0 1-.536-.221.688.688 0 0 0-.086-.076Zm7.473-8.983H-.049c-1.015 0-1.84.825-1.84 1.839v6.643c0 .647.262 1.28.719 1.736a.632.632 0 0 0 .087.076L1.548 3.31a2.442 2.442 0 0 0 1.69.673h4.235c1.014 0 1.84-.825 1.84-1.84v-9.287a1.842 1.842 0 0 0-1.84-1.839" style="fill:#0098da;fill-opacity:1;fill-rule:nonzero;stroke:none" transform="translate(40.326 9.89)"/><path d="M0 0h-2.387a.85.85 0 0 0 0 1.699H0c.417 0 .756.339.756.756v1.743a.85.85 0 1 0 1.699 0V2.455A2.458 2.458 0 0 0 0 0" style="fill:#0098da;fill-opacity:1;fill-rule:nonzero;stroke:none" transform="translate(41.696 8.803)"/><path d="M0 0h-4.944a.85.85 0 1 0 0 1.699H0A.85.85 0 1 0 0 0" style="fill:#0098da;fill-opacity:1;fill-rule:nonzero;stroke:none" transform="translate(46.51 6.657)"/><path d="M0 0h-4.944a.85.85 0 1 0 0 1.699H0A.85.85 0 1 0 0 0" style="fill:#0098da;fill-opacity:1;fill-rule:nonzero;stroke:none" transform="translate(46.51 3.909)"/><path d="M0 0h-17.482a4.547 4.547 0 0 0-4.542 4.542v15.009a.85.85 0 0 0 1.7 0V4.542a2.846 2.846 0 0 1 2.842-2.843H0a2.847 2.847 0 0 1 2.843 2.843v20.112A2.846 2.846 0 0 1 0 27.496h-8.626a.85.85 0 0 0 0 1.7H0a4.546 4.546 0 0 0 4.542-4.542V4.542A4.546 4.546 0 0 0 0 0" style="fill:#0098da;fill-opacity:1;fill-rule:nonzero;stroke:none" transform="translate(24.06 10.496)"/><path d="M0 0a.85.85 0 0 0-.85.85v7.836a.85.85 0 1 0 1.7 0V.85A.85.85 0 0 0 0 0" style="fill:#0098da;fill-opacity:1;fill-rule:nonzero;stroke:none" transform="translate(20.626 19.27)"/><path d="M0 0h-13.876a.85.85 0 1 0 0 1.699H0A.85.85 0 1 0 0 0" style="fill:#0098da;fill-opacity:1;fill-rule:nonzero;stroke:none" transform="translate(22.258 19.052)"/><path d="M0 0h-13.876a.85.85 0 1 0 0 1.699H0A.85.85 0 1 0 0 0" style="fill:#0098da;fill-opacity:1;fill-rule:nonzero;stroke:none" transform="translate(22.258 16.052)"/><path d="M0 0a.85.85 0 0 0-.85.85v7.836a.85.85 0 0 0 1.7 0V.85A.85.85 0 0 0 0 0" style="fill:#0098da;fill-opacity:1;fill-rule:nonzero;stroke:none" transform="translate(10.014 19.052)"/><path d="M0 0a.85.85 0 0 0-.85.85v7.836a.85.85 0 0 0 1.7 0V.85A.85.85 0 0 0 0 0" style="fill:#0098da;fill-opacity:1;fill-rule:nonzero;stroke:none" transform="translate(13.279 19.052)"/><path d="M0 0a.85.85 0 0 0-.85.85v7.836a.85.85 0 0 0 1.7 0V.85A.85.85 0 0 0 0 0" style="fill:#0098da;fill-opacity:1;fill-rule:nonzero;stroke:none" transform="translate(17.36 19.052)"/><path d="M0 0h9.629L4.96 2.946c-.098.067-.192.068-.257.022Zm12.57-1.7H-2.939a.85.85 0 0 0-.454 1.569l7.156 4.514c.615.433 1.488.433 2.138-.022l7.122-4.492A.85.85 0 0 0 12.57-1.7" style="fill:#0098da;fill-opacity:1;fill-rule:nonzero;stroke:none" transform="translate(10.505 28.588)"/><path d="M0 0c-.471 0-.836.194-.891.225A.75.75 0 0 0-.168 1.54c.057-.029.163-.054.213-.032a.48.48 0 0 1 .259.271c.12.385.528.619.915.518a.737.737 0 0 0 .541-.876A1.966 1.966 0 0 0 .667.143 1.6 1.6 0 0 0 0 0" style="fill:#0098da;fill-opacity:1;fill-rule:nonzero;stroke:none" transform="translate(4.26 38.2)"/><path d="M0 0c-.208 0-.436.037-.667.143A1.966 1.966 0 0 0-1.76 1.421a.75.75 0 1 0 1.462.334c.002 0 .059-.158.254-.248.046-.02.157.004.215.034a.758.758 0 0 0 1.006-.316.74.74 0 0 0-.286-1A1.942 1.942 0 0 0 0 0" style="fill:#0098da;fill-opacity:1;fill-rule:nonzero;stroke:none" transform="translate(9.065 38.2)"/><path d="M0 0a.748.748 0 0 0-.609.312C-.622.328-.906.69-1.251.69c-.577 0-.888-.38-.901-.396A.757.757 0 0 0-3.2.162a.744.744 0 0 0-.15 1.034 2.66 2.66 0 0 0 2.099.994C-.13 2.19.54 1.285.612 1.182A.75.75 0 0 0 0 0" style="fill:#0098da;fill-opacity:1;fill-rule:nonzero;stroke:none" transform="translate(8.037 35.046)"/><path d="M0 0a6.356 6.356 0 0 0-6.337 6.713.86.86 0 0 0 .896.802.85.85 0 0 0 .801-.896A4.652 4.652 0 0 1 0 1.7a4.653 4.653 0 0 1 4.648 4.648A4.653 4.653 0 0 1 0 10.996a4.618 4.618 0 0 1-3.287-1.362.85.85 0 1 0-1.202 1.202A6.307 6.307 0 0 0 0 12.696c3.5 0 6.348-2.848 6.348-6.348S3.5 0 0 0" style="fill:#0098da;fill-opacity:1;fill-rule:nonzero;stroke:none" transform="translate(6.709 31.722)"/><path d="M0 0a.522.522 0 1 0-1.045 0A.522.522 0 0 0 0 0" style="fill:#0098da;fill-opacity:1;fill-rule:nonzero;stroke:none" transform="translate(2.255 40.453)"/><path d="M0 0a.272.272 0 1 1 0-.545A.272.272 0 0 1 0 0m0-1.044A.772.772 0 1 0 0 .501a.772.772 0 0 0 0-1.545" style="fill:#0098da;fill-opacity:1;fill-rule:nonzero;stroke:none" transform="translate(1.733 40.725)"/></g></svg>