<svg xmlns="http://www.w3.org/2000/svg" xml:space="preserve" width="66.667" height="66.667"><defs><clipPath id="a" clipPathUnits="userSpaceOnUse"><path d="M0 50h50V0H0Z"/></clipPath></defs><g clip-path="url(#a)" transform="matrix(1.33333 0 0 -1.33333 0 66.667)"><path d="M0 0h-.531a5.253 5.253 0 0 0-5.248 5.247v25.091a5.254 5.254 0 0 0 5.248 5.248H0a.85.85 0 1 0 0-1.7h-.531a3.552 3.552 0 0 1-3.549-3.548V5.247A3.553 3.553 0 0 1-.531 1.699H0A.85.85 0 1 0 0 0" style="fill:#0098da;fill-opacity:1;fill-rule:nonzero;stroke:none" transform="translate(36.45 6.366)"/><path d="M0 0h-4.118a.85.85 0 1 0 0 1.7H0A.85.85 0 1 0 0 0" style="fill:#0098da;fill-opacity:1;fill-rule:nonzero;stroke:none" transform="translate(35.639 23.309)"/><path d="M0 0h-4.066a.1.1 0 0 1-.101-.101v-8.911a.1.1 0 0 1 .101-.1H3.15c.056 0 .102.045.102.1v6.374a.701.701 0 0 1-.172.455L.572-.277a.748.748 0 0 0-.086.074A.683.683 0 0 1 0 0m3.15-10.812h-7.216c-.993 0-1.8.808-1.8 1.8v8.911c0 .993.807 1.8 1.8 1.8H.002c.612 0 1.192-.231 1.639-.654L4.163-.871a.803.803 0 0 0 .087-.076 2.407 2.407 0 0 0 .701-1.691v-6.374c0-.992-.808-1.8-1.801-1.8" style="fill:#0098da;fill-opacity:1;fill-rule:nonzero;stroke:none" transform="translate(44.121 11.704)"/><path d="M0 0h-4.744a.85.85 0 1 0 0 1.699H0A.85.85 0 1 0 0 0" style="fill:#0098da;fill-opacity:1;fill-rule:nonzero;stroke:none" transform="translate(46.035 6.88)"/><path d="M0 0h-4.744a.85.85 0 1 0 0 1.699H0A.85.85 0 1 0 0 0" style="fill:#0098da;fill-opacity:1;fill-rule:nonzero;stroke:none" transform="translate(46.035 4.128)"/><path d="M0 0a.1.1 0 0 1-.101-.1v-8.912a.1.1 0 0 1 .101-.1h7.217c.055 0 .101.045.101.1v6.374c0 .166-.062.33-.172.455L4.639-.277a.7.7 0 0 0-.087.075.689.689 0 0 1-.488.202h-.001Zm7.217-10.811H0c-.992 0-1.8.807-1.8 1.799V-.1c0 .993.808 1.8 1.8 1.8h4.065c.616 0 1.197-.232 1.642-.654L8.229-.871a.578.578 0 0 0 .087-.076 2.404 2.404 0 0 0 .702-1.691v-6.374c0-.992-.808-1.799-1.801-1.799" style="fill:#0098da;fill-opacity:1;fill-rule:nonzero;stroke:none" transform="translate(40.055 28.715)"/><path d="M0 0h-4.744a.85.85 0 1 0 0 1.7H0A.85.85 0 1 0 0 0" style="fill:#0098da;fill-opacity:1;fill-rule:nonzero;stroke:none" transform="translate(46.035 23.89)"/><path d="M0 0h-4.744a.85.85 0 1 0 0 1.699H0A.85.85 0 1 0 0 0" style="fill:#0098da;fill-opacity:1;fill-rule:nonzero;stroke:none" transform="translate(46.035 21.139)"/><path d="M0 0a.1.1 0 0 1-.101-.1v-8.912a.1.1 0 0 1 .101-.1h7.217c.055 0 .101.045.101.1v6.374c0 .166-.062.33-.172.455L4.639-.277a.7.7 0 0 0-.087.075.689.689 0 0 1-.488.202h-.001Zm7.217-10.812H0c-.992 0-1.8.808-1.8 1.8V-.1c0 .993.808 1.8 1.8 1.8h4.065c.616 0 1.197-.232 1.642-.655L8.229-.871a.578.578 0 0 0 .087-.076 2.404 2.404 0 0 0 .702-1.691v-6.374c0-.992-.808-1.8-1.801-1.8" style="fill:#0098da;fill-opacity:1;fill-rule:nonzero;stroke:none" transform="translate(40.055 45.783)"/><path d="M0 0h-4.744a.85.85 0 1 0 0 1.7H0A.85.85 0 1 0 0 0" style="fill:#0098da;fill-opacity:1;fill-rule:nonzero;stroke:none" transform="translate(46.035 40.959)"/><path d="M0 0h-4.744a.85.85 0 1 0 0 1.7H0A.85.85 0 1 0 0 0" style="fill:#0098da;fill-opacity:1;fill-rule:nonzero;stroke:none" transform="translate(46.035 38.206)"/><path d="M0 0a.781.781 0 0 1-.781-.78v-21.198c0-.431.35-.781.781-.781h17.936c.431 0 .781.35.781.781v14.815a.784.784 0 0 1-.229.552L12.105-.228a.773.773 0 0 1-.551.228Zm17.936-24.458H0a2.483 2.483 0 0 0-2.481 2.48V-.78A2.484 2.484 0 0 0 0 1.7h11.554c.663 0 1.285-.258 1.754-.726l6.383-6.383a2.463 2.463 0 0 0 .725-1.754v-14.815a2.482 2.482 0 0 0-2.48-2.48" style="fill:#0098da;fill-opacity:1;fill-rule:nonzero;stroke:none" transform="translate(6.878 36.318)"/><path d="M0 0h-6.522a2.484 2.484 0 0 0-2.481 2.48v6.523a.85.85 0 0 0 1.7 0V2.48c0-.43.35-.78.781-.78H0A.85.85 0 1 0 0 0" style="fill:#0098da;fill-opacity:1;fill-rule:nonzero;stroke:none" transform="translate(26.445 28.165)"/><path d="M0 0c-.987 0-1.952.476-2.571 1.289a.85.85 0 0 0 1.354 1.029 1.581 1.581 0 0 1 1.308-.616c.831.001 1.427.44 1.427.832 0 .392-.596.831-1.392.831-1.734 0-3.092 1.112-3.092 2.533 0 1.419 1.358 2.532 3.092 2.532a3.257 3.257 0 0 0 2.696-1.287.85.85 0 1 0-1.353-1.029A1.59 1.59 0 0 1 .16 6.73c-.831-.001-1.426-.44-1.426-.832 0-.393.595-.833 1.392-.833 1.734 0 3.092-1.112 3.092-2.531S1.86.002.126.002L0 0" style="fill:#0098da;fill-opacity:1;fill-rule:nonzero;stroke:none" transform="translate(10.83 26.022)"/><path d="M0 0a.85.85 0 0 0-.85.85v1.121a.85.85 0 0 0 1.7 0V.85A.85.85 0 0 0 0 0" style="fill:#0098da;fill-opacity:1;fill-rule:nonzero;stroke:none" transform="translate(10.955 24.904)"/><path d="M0 0a.85.85 0 0 0-.85.85v1.121a.85.85 0 0 0 1.7 0V.85A.85.85 0 0 0 0 0" style="fill:#0098da;fill-opacity:1;fill-rule:nonzero;stroke:none" transform="translate(10.955 32.752)"/><path d="M0 0h.01Zm-13.282-4.822H-.307V0h-12.975ZM0-6.521h-13.588c-.769 0-1.394.624-1.394 1.392V.307c0 .768.625 1.392 1.394 1.392H0c.769 0 1.394-.624 1.394-1.392v-5.436c0-.768-.625-1.392-1.394-1.392" style="fill:#0098da;fill-opacity:1;fill-rule:nonzero;stroke:none" transform="translate(22.64 21.643)"/><path d="M0 0h-14.675a.85.85 0 1 0 0 1.699H0A.85.85 0 1 0 0 0" style="fill:#0098da;fill-opacity:1;fill-rule:nonzero;stroke:none" transform="translate(23.184 18.382)"/><path d="M0 0a.85.85 0 0 0-.85.85v6.521a.85.85 0 1 0 1.7 0V.85A.85.85 0 0 0 0 0" style="fill:#0098da;fill-opacity:1;fill-rule:nonzero;stroke:none" transform="translate(13.4 15.121)"/><path d="M0 0a.85.85 0 0 0-.85.85v6.521a.85.85 0 1 0 1.7 0V.85A.85.85 0 0 0 0 0" style="fill:#0098da;fill-opacity:1;fill-rule:nonzero;stroke:none" transform="translate(18.293 15.121)"/><path d="M0 0h-17.937a2.482 2.482 0 0 0-2.48 2.479v21.199a.85.85 0 1 0 1.7 0V2.479c0-.429.35-.78.78-.78H0A.85.85 0 1 0 0 0" style="fill:#0098da;fill-opacity:1;fill-rule:nonzero;stroke:none" transform="translate(21.345 8.452)"/></g></svg>