<svg xmlns="http://www.w3.org/2000/svg" xml:space="preserve" width="66.667" height="66.667"><defs><clipPath clipPathUnits="userSpaceOnUse" id="a"><path d="M0 50h50V0H0Z"/></clipPath></defs><g clip-path="url(#a)" transform="matrix(1.33333 0 0 -1.33333 0 66.667)"><path d="M0 0h.568a.85.85 0 1 1 0 1.7H0a5.56 5.56 0 0 1-5.554-5.554v-26.84A5.56 5.56 0 0 1 0-36.248h.568a.85.85 0 1 1 0 1.699H0a3.86 3.86 0 0 0-3.854 3.855v12.569H-.3a.85.85 0 0 1 0 1.701h-3.554v12.57A3.858 3.858 0 0 0 0 0" style="fill:#0098da;fill-opacity:1;fill-rule:nonzero;stroke:none" transform="translate(34.628 42.386)"/><path d="M0 0a.167.167 0 0 0-.167-.167h-7.721A.168.168 0 0 0-8.055 0v6.239h1.623a2.5 2.5 0 0 1 2.497 2.498v.962h3.768A.167.167 0 0 0 0 9.532Zm-5.634 9.034v-.297a.799.799 0 0 0-.798-.798h-.643zm5.467 2.365h-4.349c-.086 0-.171-.016-.256-.025l-.012.002c-.012 0-.023-.006-.035-.006a2.507 2.507 0 0 1-1.415-.658l-2.701-2.051a.779.779 0 0 1-.086-.076 2.464 2.464 0 0 1-.703-1.458c0-.013-.007-.025-.007-.038l.002-.013c-.009-.086-.025-.171-.025-.258V0c0-1.029.837-1.867 1.866-1.867h7.721c1.029 0 1.866.838 1.866 1.867v9.532c0 1.03-.837 1.867-1.866 1.867" style="fill:#0098da;fill-opacity:1;fill-rule:nonzero;stroke:none" transform="translate(46.94 38.301)"/><path d="M0 0h-5.074a.85.85 0 1 1 0-1.7H0A.85.85 0 1 1 0 0" style="fill:#0098da;fill-opacity:1;fill-rule:nonzero;stroke:none" transform="translate(45.45 44.038)"/><path d="M0 0h-5.074a.85.85 0 1 1 0-1.7H0A.85.85 0 1 1 0 0" style="fill:#0098da;fill-opacity:1;fill-rule:nonzero;stroke:none" transform="translate(45.45 41.217)"/><path d="M0 0a.167.167 0 0 0-.167-.167h-7.721A.168.168 0 0 0-8.055 0v6.238h1.623a2.5 2.5 0 0 1 2.497 2.498v.962h3.768A.166.166 0 0 0 0 9.532Zm-5.634 9.034v-.298a.799.799 0 0 0-.798-.798h-.643zm5.467 2.364h-4.349c-.086 0-.171-.015-.256-.024l-.012.002c-.012 0-.023-.006-.035-.007a2.506 2.506 0 0 1-1.415-.657L-8.935 8.66a.77.77 0 0 1-.086-.075 2.466 2.466 0 0 1-.703-1.458c0-.014-.007-.025-.007-.039l.002-.013c-.009-.086-.025-.17-.025-.258V0c0-1.029.837-1.866 1.866-1.866h7.721c1.029 0 1.866.837 1.866 1.866v9.532a1.868 1.868 0 0 1-1.866 1.866" style="fill:#0098da;fill-opacity:1;fill-rule:nonzero;stroke:none" transform="translate(46.94 20.226)"/><path d="M0 0h-5.074a.85.85 0 1 1 0-1.7H0A.85.85 0 1 1 0 0" style="fill:#0098da;fill-opacity:1;fill-rule:nonzero;stroke:none" transform="translate(45.45 25.961)"/><path d="M0 0h-5.074a.85.85 0 1 1 0-1.699H0A.85.85 0 1 1 0 0" style="fill:#0098da;fill-opacity:1;fill-rule:nonzero;stroke:none" transform="translate(45.45 23.14)"/><path d="M0 0a.167.167 0 0 0-.167-.167h-7.721A.168.168 0 0 0-8.055 0v6.239h1.623a2.5 2.5 0 0 1 2.497 2.497v.963h3.768A.167.167 0 0 0 0 9.532Zm-5.634 9.034v-.298a.8.8 0 0 0-.798-.798h-.643zm5.467 2.364h-4.347c-.087 0-.172-.015-.258-.025l-.012.003c-.013 0-.023-.007-.035-.007a2.503 2.503 0 0 1-1.415-.657L-8.935 8.66a.697.697 0 0 1-.086-.076 2.473 2.473 0 0 1-.703-1.456c0-.014-.007-.025-.007-.039l.002-.014c-.009-.086-.025-.17-.025-.258V0c0-1.029.837-1.866 1.866-1.866h7.721c1.029 0 1.866.837 1.866 1.866v9.532c0 1.03-.837 1.866-1.866 1.866" style="fill:#0098da;fill-opacity:1;fill-rule:nonzero;stroke:none" transform="translate(46.94 2.15)"/><path d="M0 0h-5.074a.85.85 0 1 1 0-1.699H0A.85.85 0 1 1 0 0" style="fill:#0098da;fill-opacity:1;fill-rule:nonzero;stroke:none" transform="translate(45.45 7.885)"/><path d="M0 0h-5.074a.85.85 0 1 1 0-1.699H0A.85.85 0 1 1 0 0" style="fill:#0098da;fill-opacity:1;fill-rule:nonzero;stroke:none" transform="translate(45.45 5.064)"/><path d="M0 0a2.698 2.698 0 0 0-2.695-2.695H-19.48A2.698 2.698 0 0 0-22.176 0v19.311a2.698 2.698 0 0 0 2.696 2.695h16.785A2.698 2.698 0 0 0 0 19.311Zm-2.695 23.706H-19.48a4.4 4.4 0 0 1-4.396-4.395V0a4.4 4.4 0 0 1 4.396-4.395h16.785A4.4 4.4 0 0 1 1.7 0v19.311a4.4 4.4 0 0 1-4.395 4.395" style="fill:#0098da;fill-opacity:1;fill-rule:nonzero;stroke:none" transform="translate(25.637 15.965)"/><path d="m0 0-.698-.696c-.043-.043-.14-.045-.166-.018l-6.073 6.441c.166.176.337.347.514.513L-.001.185A.132.132 0 0 0 0 0m-10.328 3.975c-.043-.01-.099-.001-.128.028l-2.64 2.64a.13.13 0 0 0-.032.13 15.16 15.16 0 0 1 5.685 5.705L-4.7 9.759a.129.129 0 0 0 .033-.126 14.44 14.44 0 0 1-5.661-5.658m5.234 3.362c.447.32.913.617 1.403.879l.201.15a1.844 1.844 0 0 1-.001 2.602l-2.64 2.64c-.694.696-1.908.696-2.603 0l-.142-.189a13.445 13.445 0 0 0-5.24-5.239l-.191-.144a1.845 1.845 0 0 1 .001-2.602l2.64-2.64c.348-.348.81-.539 1.302-.539.491 0 .953.191 1.301.539l.148.2c.263.49.561.956.881 1.404l5.944-6.303a1.824 1.824 0 0 1 1.301-.539c.492 0 .954.191 1.3.538l.699.697a1.85 1.85 0 0 1-.02 2.62z" style="fill:#0098da;fill-opacity:1;fill-rule:nonzero;stroke:none" transform="translate(21.947 20.731)"/><path d="M0 0v.272c0 .149.125.274.273.274h5.643a.278.278 0 0 0 .273-.274V0Zm8.172 0h-.273v.272c0 1.094-.89 1.985-1.983 1.985H.273A1.987 1.987 0 0 1-1.71.272V0h-.273a.855.855 0 1 1 0-1.711H8.172a.855.855 0 1 1 0 1.711" style="fill:#0098da;fill-opacity:1;fill-rule:nonzero;stroke:none" transform="translate(8.101 17.98)"/></g></svg>