<svg xmlns="http://www.w3.org/2000/svg" xml:space="preserve" width="66.667" height="66.667"><defs><clipPath clipPathUnits="userSpaceOnUse" id="a"><path d="M0 50h50V0H0Z"/></clipPath></defs><g clip-path="url(#a)" transform="matrix(1.33333 0 0 -1.33333 0 66.667)"><path d="M0 0h-.534a5.27 5.27 0 0 0-5.264 5.264v25.18a5.27 5.27 0 0 0 5.264 5.264H0a.85.85 0 1 0 0-1.7h-.534a3.569 3.569 0 0 1-3.565-3.564V5.264A3.57 3.57 0 0 1-.534 1.699H0A.85.85 0 1 0 0 0" style="fill:#ffffff;fill-opacity:1;fill-rule:nonzero;stroke:none" transform="translate(36.308 6.962)"/><path d="M0 0h-4.133a.848.848 0 1 0 0 1.699H0A.85.85 0 1 0 0 0" style="fill:#ffffff;fill-opacity:1;fill-rule:nonzero;stroke:none" transform="translate(35.492 23.966)"/><path d="M0 0a.703.703 0 0 1-.173-.459v-6.397c0-.057.047-.103.104-.103h7.243c.057 0 .104.046.104.103v8.943a.104.104 0 0 1-.104.104H3.097a.696.696 0 0 1-.494-.203.697.697 0 0 0-.086-.076Zm7.174-8.66H-.069c-.995 0-1.803.809-1.803 1.804v6.397c0 .64.249 1.242.702 1.695a.779.779 0 0 0 .086.076l2.531 1.922c.447.425 1.03.658 1.65.658h4.077c.995 0 1.803-.81 1.803-1.805v-8.943c0-.995-.808-1.804-1.803-1.804" style="fill:#ffffff;fill-opacity:1;fill-rule:nonzero;stroke:none" transform="translate(39.993 44.046)"/><path d="M0 0h-2.299a.85.85 0 0 0 0 1.7H0c.384 0 .696.312.696.696v1.679a.85.85 0 1 0 1.699 0V2.396A2.398 2.398 0 0 0 0 0" style="fill:#ffffff;fill-opacity:1;fill-rule:nonzero;stroke:none" transform="translate(41.29 42.991)"/><path d="M0 0h-4.762a.85.85 0 0 0 0 1.7H0A.85.85 0 1 0 0 0" style="fill:#ffffff;fill-opacity:1;fill-rule:nonzero;stroke:none" transform="translate(45.927 40.925)"/><path d="M0 0h-4.762a.85.85 0 0 0 0 1.7H0A.85.85 0 1 0 0 0" style="fill:#ffffff;fill-opacity:1;fill-rule:nonzero;stroke:none" transform="translate(45.927 38.278)"/><path d="M0 0a.703.703 0 0 1-.173-.459v-6.396c0-.058.047-.105.104-.105h7.243c.058 0 .104.046.104.105v8.943a.104.104 0 0 1-.104.103H3.096a.704.704 0 0 1-.493-.203.623.623 0 0 0-.086-.076Zm7.174-8.659H-.069c-.995 0-1.803.808-1.803 1.804v6.396c0 .64.249 1.242.702 1.695a.77.77 0 0 0 .086.075l2.532 1.924a2.413 2.413 0 0 0 1.647.657h4.079c.995 0 1.803-.809 1.803-1.804v-8.943c0-.996-.808-1.804-1.803-1.804" style="fill:#ffffff;fill-opacity:1;fill-rule:nonzero;stroke:none" transform="translate(39.993 27.087)"/><path d="M0 0h-2.299a.85.85 0 0 0 0 1.7H0c.384 0 .696.312.696.696v1.679a.85.85 0 1 0 1.699 0V2.396A2.398 2.398 0 0 0 0 0" style="fill:#ffffff;fill-opacity:1;fill-rule:nonzero;stroke:none" transform="translate(41.29 26.032)"/><path d="M0 0h-4.762a.848.848 0 1 0 0 1.699H0A.85.85 0 1 0 0 0" style="fill:#ffffff;fill-opacity:1;fill-rule:nonzero;stroke:none" transform="translate(45.927 23.966)"/><path d="M0 0h-4.762a.848.848 0 1 0 0 1.699H0A.85.85 0 1 0 0 0" style="fill:#ffffff;fill-opacity:1;fill-rule:nonzero;stroke:none" transform="translate(45.927 21.32)"/><path d="M0 0a.703.703 0 0 1-.173-.459v-6.398c0-.056.047-.103.104-.103h7.243c.057 0 .104.047.104.103v8.944a.103.103 0 0 1-.104.104H3.097a.696.696 0 0 1-.494-.203.79.79 0 0 0-.086-.076Zm7.174-8.659H-.069c-.995 0-1.803.808-1.803 1.802v6.398c0 .641.249 1.242.702 1.694a.688.688 0 0 0 .086.076l2.531 1.923c.447.424 1.03.657 1.65.657h4.077c.995 0 1.803-.809 1.803-1.804v-8.944c0-.994-.808-1.802-1.803-1.802" style="fill:#ffffff;fill-opacity:1;fill-rule:nonzero;stroke:none" transform="translate(39.993 10.128)"/><path d="M0 0h-2.299a.848.848 0 1 0 0 1.699H0c.384 0 .696.313.696.697v1.678a.85.85 0 1 0 1.699 0V2.396A2.397 2.397 0 0 0 0 0" style="fill:#ffffff;fill-opacity:1;fill-rule:nonzero;stroke:none" transform="translate(41.29 9.073)"/><path d="M0 0h-4.762a.848.848 0 1 0 0 1.699H0A.85.85 0 1 0 0 0" style="fill:#ffffff;fill-opacity:1;fill-rule:nonzero;stroke:none" transform="translate(45.927 7.007)"/><path d="M0 0h-4.762a.848.848 0 1 0 0 1.699H0A.85.85 0 1 0 0 0" style="fill:#ffffff;fill-opacity:1;fill-rule:nonzero;stroke:none" transform="translate(45.927 4.36)"/><path d="M0 0a.85.85 0 0 0-.85.85v12a.85.85 0 0 0 1.7 0v-12A.85.85 0 0 0 0 0" style="fill:#ffffff;fill-opacity:1;fill-rule:nonzero;stroke:none" transform="translate(12.65 19.398)"/><path d="M0 0h-4.057a.85.85 0 1 0 0 1.699H0A.85.85 0 1 0 0 0" style="fill:#ffffff;fill-opacity:1;fill-rule:nonzero;stroke:none" transform="translate(14.678 18.83)"/><path d="M0 0a.85.85 0 0 0-.005 1.7l8.139.046h.005A.851.851 0 0 0 8.144.045L.005 0Z" style="fill:#ffffff;fill-opacity:1;fill-rule:nonzero;stroke:none" transform="translate(8.58 28.724)"/><path d="M0 0c-.604-.737-.896-1.293-.901-1.478a.903.903 0 0 1 1.803.001C.897-1.293.605-.737 0 0m.001-4.079a2.605 2.605 0 0 0-2.603 2.602c0 1.018 1.033 2.329 1.899 3.249.16.17.467.304.701.305h.003a.97.97 0 0 0 .7-.302C1.57.85 2.603-.461 2.603-1.477A2.605 2.605 0 0 0 .001-4.079" style="fill:#ffffff;fill-opacity:1;fill-rule:nonzero;stroke:none" transform="translate(8.36 28.323)"/><path d="M0 0c-.605-.736-.897-1.294-.902-1.479a.903.903 0 0 1 1.804.002C.896-1.293.605-.736 0 0m0-4.079a2.605 2.605 0 0 0-2.602 2.602c0 1.019 1.032 2.329 1.899 3.249.161.17.469.304.703.304a.969.969 0 0 0 .703-.305C1.569.852 2.602-.458 2.602-1.477A2.605 2.605 0 0 0 0-4.079" style="fill:#ffffff;fill-opacity:1;fill-rule:nonzero;stroke:none" transform="translate(16.766 28.335)"/><path d="m0 0-.542-.323C-.673-.404-.79-.465-.947-.465c-.206 0-.44.101-.44.391 0 .176.082.303.213.378l1.36.782a.5.5 0 0 0 .267.074c.289 0 .508-.195.508-.452v-3.985c0-.23-.219-.432-.48-.432-.268 0-.481.202-.481.432Z" style="fill:#ffffff;fill-opacity:1;fill-rule:nonzero;stroke:none" transform="translate(19.236 16.06)"/><path d="m0 0-.542-.323C-.673-.404-.79-.465-.947-.465c-.206 0-.44.101-.44.391 0 .176.082.303.213.378l1.36.782a.5.5 0 0 0 .267.074c.289 0 .508-.195.508-.452v-3.985c0-.23-.219-.432-.48-.432-.268 0-.481.202-.481.432Z" style="fill:none;stroke:#ffffff;stroke-width:.5;stroke-linecap:butt;stroke-linejoin:miter;stroke-miterlimit:10;stroke-dasharray:none;stroke-opacity:1" transform="translate(19.236 16.06)"/><path d="M0 0c-.323 0-1.538.088-1.538.647 0 .223.199.418.46.418.267 0 .46-.25.92-.25.611 0 .796.399.796.796 0 .499-.288.729-.659.729a.753.753 0 0 1-.377-.088s-.275-.209-.495-.209c-.274 0-.487.189-.481.459l.069 1.861c.007.283.268.452.522.452H.872c.247 0 .522-.115.522-.424 0-.304-.275-.412-.522-.412H-.412l-.042-.877c.138.041.296.054.447.054.941 0 1.6-.566 1.6-1.517C1.593.856 1.126 0 0 0" style="fill:#ffffff;fill-opacity:1;fill-rule:nonzero;stroke:none" transform="translate(22.977 12.351)"/><path d="M0 0c-.323 0-1.538.088-1.538.647 0 .223.199.418.46.418.267 0 .46-.25.92-.25.611 0 .796.399.796.796 0 .499-.288.729-.659.729a.753.753 0 0 1-.377-.088s-.275-.209-.495-.209c-.274 0-.487.189-.481.459l.069 1.861c.007.283.268.452.522.452H.872c.247 0 .522-.115.522-.424 0-.304-.275-.412-.522-.412H-.412l-.042-.877c.138.041.296.054.447.054.941 0 1.6-.566 1.6-1.517C1.593.856 1.126 0 0 0Z" style="fill:none;stroke:#ffffff;stroke-width:.5;stroke-linecap:butt;stroke-linejoin:miter;stroke-miterlimit:10;stroke-dasharray:none;stroke-opacity:1" transform="translate(22.977 12.351)"/><path d="M0 0h-8.91a2.793 2.793 0 0 0-2.791 2.79v20.262a.85.85 0 1 0 1.7 0V2.79c0-.601.489-1.091 1.091-1.091H0A.85.85 0 1 0 0 0" style="fill:#ffffff;fill-opacity:1;fill-rule:nonzero;stroke:none" transform="translate(12.564 10.21)"/><path d="M0 0a.85.85 0 0 0-.85.85v7.321c0 .613-.239 1.19-.673 1.624l-5.235 5.236a2.275 2.275 0 0 1-1.622.672h-13.134c-.68 0-1.233-.553-1.233-1.232V9.526a.85.85 0 0 0-1.7 0v4.945a2.936 2.936 0 0 0 2.933 2.932H-8.38c1.067 0 2.07-.415 2.824-1.17l5.235-5.236A3.971 3.971 0 0 0 .85 8.171V.85A.85.85 0 0 0 0 0" style="fill:#ffffff;fill-opacity:1;fill-rule:nonzero;stroke:none" transform="translate(25.31 23.737)"/><path d="M0 0h-4.676a4.001 4.001 0 0 0-3.997 3.997v4.676a.85.85 0 0 0 1.7 0V3.997A2.3 2.3 0 0 1-4.676 1.7H0A.85.85 0 0 0 0 0" style="fill:#ffffff;fill-opacity:1;fill-rule:nonzero;stroke:none" transform="translate(25.267 31.574)"/><path d="M0 0a4.997 4.997 0 0 1-4.992-4.992A4.997 4.997 0 0 1 0-9.984a4.998 4.998 0 0 1 4.992 4.992A4.998 4.998 0 0 1 0 0m0-11.684a6.7 6.7 0 0 0-6.692 6.692A6.7 6.7 0 0 0 0 1.699a6.698 6.698 0 0 0 6.691-6.691A6.699 6.699 0 0 0 0-11.684" style="fill:#ffffff;fill-opacity:1;fill-rule:nonzero;stroke:none" transform="translate(21.355 19.924)"/></g></svg>