<svg xmlns="http://www.w3.org/2000/svg" xml:space="preserve" width="66.667" height="66.667"><defs><clipPath id="a" clipPathUnits="userSpaceOnUse"><path d="M0 50h50V0H0Z"/></clipPath></defs><g clip-path="url(#a)" transform="matrix(1.33333 0 0 -1.33333 0 66.667)"><path d="M0 0c.656 0 1.166-.357 1.166-.664 0-.307-.512-.664-1.204-.665a1.34 1.34 0 0 0-1.108.522A.85.85 0 0 1-2.5-1.835 3.034 3.034 0 0 1-.85-2.93v-.258a.85.85 0 1 1 1.7 0v.274c1.176.294 2.015 1.172 2.015 2.25C2.865.662 1.606 1.7 0 1.7c-.658 0-1.17.358-1.17.666 0 .307.512.664 1.204.665.458.011.846-.178 1.108-.522a.85.85 0 0 1 1.353 1.029A2.992 2.992 0 0 1 .85 4.627v.263a.85.85 0 1 1-1.7 0v-.273c-1.178-.293-2.019-1.172-2.019-2.251C-2.869 1.039-1.609 0 0 0" style="fill:#0098da;fill-opacity:1;fill-rule:nonzero;stroke:none" transform="translate(29.52 38.214)"/><path d="m0 0 .476.475a.28.28 0 0 0 .397 0l2-1.999a.283.283 0 0 0 0-.399 1.983 1.983 0 0 1 0-2.801l3.2-3.2a1.983 1.983 0 0 1 2.8-.001.29.29 0 0 0 .399 0l2-1.998a.286.286 0 0 0 .084-.2.285.285 0 0 0-.083-.198l-.475-.475a2.521 2.521 0 0 0-3.14-.365l-.008.006A2.529 2.529 0 0 0 0 0m6.693-12.56.027-.018a4.244 4.244 0 0 1 2.285-.671c1.092 0 2.171.426 2.995 1.25l.476.476c.374.375.58.872.58 1.4 0 .529-.206 1.026-.581 1.402l-2 1.998c-.741.743-2.058.746-2.803.001a.28.28 0 0 0-.397 0l-3.2 3.2a.282.282 0 0 0 0 .397c.375.375.581.872.581 1.401 0 .53-.206 1.027-.581 1.402L2.076 1.676c-.749.749-2.054.75-2.802.001l-.476-.474c-1.418-1.418-1.656-3.59-.561-5.308a31.322 31.322 0 0 1 8.456-8.455" style="fill:#0098da;fill-opacity:1;fill-rule:nonzero;stroke:none" transform="translate(20.305 37.863)"/><path d="M0 0c.469 0 .85.38.85.85v.508a3.366 3.366 0 0 0 3.361 3.363h13.003V1.627a.85.85 0 1 1 1.7 0v3.094h13.003a3.366 3.366 0 0 0 3.362-3.363V.85a.85.85 0 1 1 1.7 0v.508a5.067 5.067 0 0 1-5.062 5.062H4.211A5.066 5.066 0 0 1-.85 1.358V.85C-.85.38-.469 0 0 0" style="fill:#0098da;fill-opacity:1;fill-rule:nonzero;stroke:none" transform="translate(7.371 11.981)"/><path d="m0 0-8.811.061.069 6.172h8.733l.07-.069zm-.009 7.933h-8.733a1.77 1.77 0 0 1-1.769-1.769V.061c0-.971.789-1.76 1.76-1.76H0c.971 0 1.76.789 1.76 1.76v6.103A1.77 1.77 0 0 1-.009 7.933" style="fill:#0098da;fill-opacity:1;fill-rule:nonzero;stroke:none" transform="translate(47.625 3.714)"/><path d="M0 0h-4.543a.85.85 0 1 1 0-1.699H0A.85.85 0 1 1 0 0" style="fill:#0098da;fill-opacity:1;fill-rule:nonzero;stroke:none" transform="translate(45.522 8.998)"/><path d="M0 0h-4.543a.85.85 0 1 1 0-1.699H0A.85.85 0 1 1 0 0" style="fill:#0098da;fill-opacity:1;fill-rule:nonzero;stroke:none" transform="translate(45.522 6.473)"/><path d="m0 0-8.811.061.069 6.172h8.733l.07-.069zm-.009 7.933h-8.733a1.77 1.77 0 0 1-1.769-1.769V.061c0-.971.79-1.76 1.76-1.76H0c.971 0 1.76.789 1.76 1.76v6.103A1.77 1.77 0 0 1-.009 7.933" style="fill:#0098da;fill-opacity:1;fill-rule:nonzero;stroke:none" transform="translate(29.232 3.714)"/><path d="M0 0h-4.544a.85.85 0 1 1 0-1.699H0A.85.85 0 1 1 0 0" style="fill:#0098da;fill-opacity:1;fill-rule:nonzero;stroke:none" transform="translate(27.129 8.998)"/><path d="M0 0h-4.544a.85.85 0 1 1 0-1.699H0A.85.85 0 1 1 0 0" style="fill:#0098da;fill-opacity:1;fill-rule:nonzero;stroke:none" transform="translate(27.129 6.473)"/><path d="m0 0-8.811.061.069 6.172h8.733l.069-.069Zm-.009 7.933h-8.733a1.77 1.77 0 0 1-1.769-1.769V.061c0-.971.79-1.76 1.76-1.76H0c.971 0 1.76.789 1.76 1.76v6.103A1.77 1.77 0 0 1-.009 7.933" style="fill:#0098da;fill-opacity:1;fill-rule:nonzero;stroke:none" transform="translate(11.76 3.714)"/><path d="M0 0h-4.542a.85.85 0 1 1 0-1.699H0A.85.85 0 1 1 0 0" style="fill:#0098da;fill-opacity:1;fill-rule:nonzero;stroke:none" transform="translate(9.655 8.998)"/><path d="M0 0h-4.542a.85.85 0 1 1 0-1.699H0A.85.85 0 1 1 0 0" style="fill:#0098da;fill-opacity:1;fill-rule:nonzero;stroke:none" transform="translate(9.655 6.473)"/><path d="M0 0c0 .634.516 1.15 1.15 1.15h19.918c.634 0 1.151-.516 1.151-1.15v-22.669c0-.634-.517-1.15-1.151-1.15H1.15c-.634 0-1.15.516-1.15 1.15zm1.15-25.519h19.918a2.853 2.853 0 0 1 2.85 2.85V0a2.853 2.853 0 0 1-2.85 2.85H1.15A2.854 2.854 0 0 1-1.7 0v-22.669a2.854 2.854 0 0 1 2.85-2.85" style="fill:#0098da;fill-opacity:1;fill-rule:nonzero;stroke:none" transform="translate(14.501 45.622)"/></g></svg>