<svg xmlns="http://www.w3.org/2000/svg" xml:space="preserve" width="66.667" height="66.667"><defs><clipPath clipPathUnits="userSpaceOnUse" id="a"><path d="M0 50h50V0H0Z"/></clipPath></defs><g clip-path="url(#a)" transform="matrix(1.33333 0 0 -1.33333 0 66.667)"><path d="M0 0h.555a.85.85 0 0 1 0 1.7H0a5.439 5.439 0 0 1-5.433-5.433v-26.148A5.438 5.438 0 0 1 0-35.313h.555a.85.85 0 0 1 0 1.699H0a3.737 3.737 0 0 0-3.733 3.733v12.224h3.441a.85.85 0 1 1 0 1.7h-3.441v12.224A3.736 3.736 0 0 0 0 0" style="fill:#0098da;fill-opacity:1;fill-rule:nonzero;stroke:none" transform="translate(34.838 42.168)"/><path d="M0 0a.14.14 0 0 0-.141-.14h-7.521a.141.141 0 0 0-.141.14v6.056h1.559a2.459 2.459 0 0 1 2.455 2.456v.915h3.648A.14.14 0 0 0 0 9.287Zm-5.488 8.757v-.245a.757.757 0 0 0-.756-.756h-.562zm5.347 2.37h-4.234c-.086 0-.169-.015-.254-.023l-.01.001c-.009 0-.017-.005-.027-.005a2.428 2.428 0 0 1-1.399-.647l-2.631-1.998a.717.717 0 0 1-.088-.076 2.442 2.442 0 0 1-.689-1.432c0-.014-.007-.027-.007-.041l.002-.014c-.008-.083-.024-.164-.024-.249V0c0-1.015.825-1.84 1.84-1.84h7.521c1.015 0 1.84.825 1.84 1.84v9.287c0 1.015-.825 1.84-1.84 1.84" style="fill:#0098da;fill-opacity:1;fill-rule:nonzero;stroke:none" transform="translate(46.81 38.21)"/><path d="M0 0h-4.944a.85.85 0 1 1 0-1.7H0A.85.85 0 1 1 0 0" style="fill:#0098da;fill-opacity:1;fill-rule:nonzero;stroke:none" transform="translate(45.38 43.822)"/><path d="M0 0h-4.944a.85.85 0 1 1 0-1.7H0A.85.85 0 1 1 0 0" style="fill:#0098da;fill-opacity:1;fill-rule:nonzero;stroke:none" transform="translate(45.38 41.074)"/><path d="M0 0a.141.141 0 0 0-.141-.141h-7.521A.142.142 0 0 0-7.803 0v6.056h1.559a2.459 2.459 0 0 1 2.455 2.456v.915h3.648A.14.14 0 0 0 0 9.287Zm-5.488 8.757v-.245a.757.757 0 0 0-.756-.756h-.562zm5.347 2.37h-4.234c-.086 0-.169-.015-.254-.023l-.01.001c-.009 0-.017-.005-.027-.005a2.428 2.428 0 0 1-1.399-.647l-2.631-1.998a.717.717 0 0 1-.088-.076 2.442 2.442 0 0 1-.689-1.432c0-.014-.007-.027-.007-.041l.002-.014c-.008-.083-.024-.164-.024-.249V0c0-1.015.825-1.84 1.84-1.84h7.521c1.015 0 1.84.825 1.84 1.84v9.287c0 1.015-.825 1.84-1.84 1.84" style="fill:#0098da;fill-opacity:1;fill-rule:nonzero;stroke:none" transform="translate(46.81 20.6)"/><path d="M0 0h-4.944a.85.85 0 1 1 0-1.7H0A.85.85 0 1 1 0 0" style="fill:#0098da;fill-opacity:1;fill-rule:nonzero;stroke:none" transform="translate(45.38 26.211)"/><path d="M0 0h-4.944a.85.85 0 1 1 0-1.699H0A.85.85 0 1 1 0 0" style="fill:#0098da;fill-opacity:1;fill-rule:nonzero;stroke:none" transform="translate(45.38 23.463)"/><path d="M0 0a.141.141 0 0 0-.141-.141h-7.521A.142.142 0 0 0-7.803 0v6.057h1.559a2.458 2.458 0 0 1 2.455 2.455v.916h3.648A.141.141 0 0 0 0 9.287Zm-5.488 8.758v-.246a.757.757 0 0 0-.756-.756h-.564zm5.347 2.369h-4.234c-.087 0-.171-.016-.256-.024l-.008.001c-.007 0-.014-.003-.022-.004a2.424 2.424 0 0 1-1.404-.647l-2.631-1.998a.647.647 0 0 1-.088-.077 2.44 2.44 0 0 1-.689-1.431c0-.014-.007-.026-.007-.041l.002-.013c-.008-.084-.024-.165-.024-.25V0c0-1.015.825-1.84 1.84-1.84h7.521c1.015 0 1.84.825 1.84 1.84v9.287c0 1.015-.825 1.84-1.84 1.84" style="fill:#0098da;fill-opacity:1;fill-rule:nonzero;stroke:none" transform="translate(46.81 2.99)"/><path d="M0 0h-4.944a.85.85 0 1 1 0-1.699H0A.85.85 0 1 1 0 0" style="fill:#0098da;fill-opacity:1;fill-rule:nonzero;stroke:none" transform="translate(45.38 8.6)"/><path d="M0 0h-4.944a.85.85 0 1 1 0-1.699H0A.85.85 0 1 1 0 0" style="fill:#0098da;fill-opacity:1;fill-rule:nonzero;stroke:none" transform="translate(45.38 5.853)"/><path d="M0 0a2.846 2.846 0 0 0-2.843-2.843h-17.481A2.846 2.846 0 0 0-23.167 0v20.111a2.846 2.846 0 0 0 2.843 2.843h17.481A2.846 2.846 0 0 0 0 20.111Zm-2.843 24.654h-17.481a4.548 4.548 0 0 1-4.543-4.543V0a4.547 4.547 0 0 1 4.543-4.542h17.481A4.547 4.547 0 0 1 1.7 0v20.111a4.548 4.548 0 0 1-4.543 4.543" style="fill:#0098da;fill-opacity:1;fill-rule:nonzero;stroke:none" transform="translate(25.774 15.282)"/><path d="M0 0h-13.877a.85.85 0 1 1 0-1.699H0A.85.85 0 1 1 0 0" style="fill:#0098da;fill-opacity:1;fill-rule:nonzero;stroke:none" transform="translate(21.129 18.419)"/><path d="M18.646 21.419h-1.564v6.136h1.564zm-8.911 6.136H11.3v-6.136H9.735Zm5.646-6.136H13v6.136h2.381zM14.08 32.223c.064.046.157.045.255-.022l4.637-2.926c-.01-.007-.021-.012-.031-.02H9.375Zm8.319-3.099-7.122 4.491c-.651.457-1.523.457-2.139.023l-7.156-4.514a.849.849 0 0 1 .454-1.569h1.599v-6.136h-.783a.85.85 0 1 1 0-1.699h13.877a.85.85 0 1 1 0 1.699h-.783v6.136h1.599a.85.85 0 0 1 .454 1.569" style="fill:#0098da;fill-opacity:1;fill-rule:nonzero;stroke:none"/></g></svg>