<svg xmlns="http://www.w3.org/2000/svg" xml:space="preserve" width="66.667" height="66.667"><defs><clipPath clipPathUnits="userSpaceOnUse" id="a"><path d="M0 50h50V0H0Z"/></clipPath></defs><g clip-path="url(#a)" transform="matrix(1.33333 0 0 -1.33333 0 66.667)"><path d="M0 0a.85.85 0 0 0-.85.85v.495A3.25 3.25 0 0 1-4.095 4.59h-26.937a3.248 3.248 0 0 1-3.244-3.245V.85a.85.85 0 1 0-1.701 0v.495a4.95 4.95 0 0 0 4.945 4.944h26.937A4.95 4.95 0 0 0 .85 1.345V.85A.85.85 0 0 0 0 0" style="fill:#ffffff;fill-opacity:1;fill-rule:nonzero;stroke:none" transform="translate(43.03 11.46)"/><path d="M0 0a.85.85 0 0 0-.85.85v3.834a.85.85 0 0 0 1.7 0V.85A.85.85 0 0 0 0 0" style="fill:#ffffff;fill-opacity:1;fill-rule:nonzero;stroke:none" transform="translate(25.467 12.217)"/><path d="m0 0-.044-5.979 8.543-.035.035 5.97L8.49 0Zm8.499-7.713H-.009c-.957 0-1.734.777-1.734 1.734v5.935c0 .961.782 1.743 1.743 1.743h8.49c.961 0 1.743-.782 1.743-1.743v-5.935c0-.957-.777-1.734-1.734-1.734" style="fill:#ffffff;fill-opacity:1;fill-rule:nonzero;stroke:none" transform="translate(38.542 9.483)"/><path d="M0 0h-4.416a.85.85 0 1 0 0 1.699H0A.85.85 0 1 0 0 0" style="fill:#ffffff;fill-opacity:1;fill-rule:nonzero;stroke:none" transform="translate(44.995 6.908)"/><path d="M0 0h-4.416a.85.85 0 1 0 0 1.699H0A.85.85 0 1 0 0 0" style="fill:#ffffff;fill-opacity:1;fill-rule:nonzero;stroke:none" transform="translate(44.995 4.453)"/><path d="m0 0-.043-5.979 8.542-.035.035 5.97L8.491 0Zm8.499-7.713H-.008c-.957 0-1.735.777-1.735 1.734v5.935c0 .961.782 1.743 1.743 1.743h8.491c.961 0 1.742-.782 1.742-1.743v-5.935c0-.957-.777-1.734-1.734-1.734" style="fill:#ffffff;fill-opacity:1;fill-rule:nonzero;stroke:none" transform="translate(20.66 9.483)"/><path d="M0 0h-4.417a.85.85 0 1 0 0 1.699H0A.85.85 0 1 0 0 0" style="fill:#ffffff;fill-opacity:1;fill-rule:nonzero;stroke:none" transform="translate(27.113 6.908)"/><path d="M0 0h-4.417a.85.85 0 1 0 0 1.699H0A.85.85 0 1 0 0 0" style="fill:#ffffff;fill-opacity:1;fill-rule:nonzero;stroke:none" transform="translate(27.113 4.453)"/><path d="m0 0-.043-5.979 8.542-.035.035 5.97L8.491 0Zm8.499-7.713H-.008c-.957 0-1.736.777-1.736 1.734v5.935c0 .961.783 1.743 1.744 1.743h8.491c.961 0 1.743-.782 1.743-1.743v-5.935c0-.957-.778-1.734-1.735-1.734" style="fill:#ffffff;fill-opacity:1;fill-rule:nonzero;stroke:none" transform="translate(3.67 9.483)"/><path d="M0 0h-4.416a.85.85 0 1 0 0 1.699H0A.85.85 0 1 0 0 0" style="fill:#ffffff;fill-opacity:1;fill-rule:nonzero;stroke:none" transform="translate(10.124 6.908)"/><path d="M0 0h-4.416a.85.85 0 1 0 0 1.699H0A.85.85 0 1 0 0 0" style="fill:#ffffff;fill-opacity:1;fill-rule:nonzero;stroke:none" transform="translate(10.124 4.453)"/><path d="m0 0 1.933-2.896a2.645 2.645 0 0 1 2.2-1.177h1.682c.529 0 1.026.205 1.399.578.372.373.577.869.577 1.396v4.313c0 .605-.385 1.14-.958 1.333v-.001l-2.255.752a1.404 1.404 0 0 1-1.85-1.332V-.416a.85.85 0 0 0-1.382-.663zm5.815-5.773H4.133A4.339 4.339 0 0 0 .519-3.839l-1.93 2.897a1.69 1.69 0 0 0 .087 2.004 1.69 1.69 0 0 0 1.139.627c.431.051.865-.07 1.213-.335v1.612a3.105 3.105 0 0 0 4.088 2.945L7.37 5.16l.001-.001A3.096 3.096 0 0 0 9.49 2.213v-4.311a3.648 3.648 0 0 0-1.074-2.599 3.657 3.657 0 0 0-2.601-1.076" style="fill:#ffffff;fill-opacity:1;fill-rule:nonzero;stroke:none" transform="translate(32.752 31.662)"/><path d="M0 0a.852.852 0 0 0-.85.85v3.048h-1.251a4.719 4.719 0 0 0-4.713 4.713v15.402a4.718 4.718 0 0 0 4.713 4.713h20.264a4.718 4.718 0 0 0 4.713-4.713v-.608a.85.85 0 1 0-1.699 0v.608a3.018 3.018 0 0 1-3.014 3.013H-2.101a3.017 3.017 0 0 1-3.013-3.013V8.611a3.016 3.016 0 0 1 3.013-3.012H0a.85.85 0 0 0 .85-.85V2.394l4.855 3.073a.85.85 0 0 0 .455.132h6.092a.85.85 0 1 0 0-1.701H6.406L.455.132A.85.85 0 0 0 0 0" style="fill:#ffffff;fill-opacity:1;fill-rule:nonzero;stroke:none" transform="translate(15.292 20.124)"/><path d="M0 0c1.776-.203 3.048.275 3.894.824 1.46.949 2.403 2.678 2.403 4.404v.428c0 .238.1.464.273.624a.852.852 0 0 0-.271.578.856.856 0 0 0-.484.223 1.45 1.45 0 0 1-.976.39 1.476 1.476 0 0 1-1.461-1.472v-.513a.85.85 0 0 0-.678-.833c-1.369-.282-2.69.042-3.997.989.102-.148.204-.238.266-.293a.852.852 0 0 0-.498-1.484c.149-.06.31-.098.478-.108A.85.85 0 0 0-.81 2.11l-.03-.011a7.367 7.367 0 0 1 1.094-.148A.848.848 0 0 0 .667.402 6.782 6.782 0 0 0 0 0m.828-1.737c-1.403 0-2.913.344-4.465 1.033a.85.85 0 0 0-.484.963c.088.395.435.695.848.664.29-.002.571.011.85.051-.33.245-.625.579-.855 1.039a.847.847 0 0 0 .108.925 3.19 3.19 0 0 0-.965 1.931.848.848 0 0 0 .933.947c-.152.627-.153 1.344-.003 2.146a.85.85 0 0 0 1.477.402C-.518 6.973.585 6.29 1.689 6.258a3.183 3.183 0 0 0 3.157 2.913 3.154 3.154 0 0 0 1.711-.519l.89.295a.85.85 0 0 0 1.04-1.16l-.204-.445.282-.121a.849.849 0 0 0 .163-1.47l-.73-.529C7.995 2.902 6.778.671 4.82-.602 3.656-1.358 2.3-1.737.828-1.737" style="fill:#ffffff;fill-opacity:1;fill-rule:nonzero;stroke:none" transform="translate(17.791 32.644)"/><path d="M0 0c-2.853-3.408-2.4-8.502 1.008-11.354 3.409-2.853 8.5-2.399 11.353 1.008 2.852 3.409 2.4 8.501-1.008 11.354C7.945 3.859 2.854 3.408-.001 0Zm6.172-14.928c-2.21 0-4.432.744-6.256 2.27C-4.21-9.204-4.758-3.036-1.305 1.091h.001c3.454 4.126 9.62 4.675 13.748 1.22 4.127-3.454 4.674-9.621 1.22-13.748a9.742 9.742 0 0 0-7.492-3.491" style="fill:#ffffff;fill-opacity:1;fill-rule:nonzero;stroke:none" transform="translate(31.165 36.984)"/></g></svg>