<svg version="1.1" id="Слой_1" xmlns="http://www.w3.org/2000/svg" x="0" y="0" viewBox="0 0 30 30" xml:space="preserve"><style>.st0{fill:#ffffff}</style><path class="st0" d="M7.6 21.7c-.3 0-.5-.2-.5-.5s.2-.5.5-.5h6.2c.3 0 .5.2.5.5s-.2.5-.5.5H7.6zM23.9 14.4c-.3 0-.5-.2-.5-.5s.2-.5.5-.5h.7c.3 0 .5.2.5.5s-.2.5-.5.5h-.7zM8.3 11.6a1 1 0 01-1-1V8.4c0-.2.2-.4.5-.4s.5.2.5.5v2.3h15.9V4.4H8.3v2.2c-.1.2-.3.4-.5.4s-.5-.2-.5-.4V4.4c0-.5.4-1 1-1H24c.5 0 1 .4 1 1v6.2c0 .5-.4 1-1 1H8.3z"/><path class="st0" d="M28 26.3l-1-1V2.7c0-.9-.8-1.7-1.7-1.7H6.8c-.9 0-1.7.8-1.7 1.7v6.5H3.4c-.7 0-1.3.6-1.3 1.3v16.2c0 1.1.9 2 2 2h20.6c.5 0 .9-.1 1.3-.4h.1c.3.2.6.4 1 .4s.7-.1 1-.4c.5-.6.5-1.5-.1-2zm-22.9.4c0 .5-.4 1-.9 1h-.1c-.6 0-1.1-.5-1.1-1.1V10.5c0-.2.2-.4.4-.4h1.7v16.6zm20.1 1c-.2.1-.4.1-.6.1H5.7l.1-.1c.2-.3.2-.6.2-1v-24c0-.4.4-.7.8-.7h18.6c.4 0 .8.3.8.8v21.6l-1.5-1.5v-.1c.6-.9.9-2 .9-3.1 0-1.6-.6-3.2-1.8-4.3-1.2-1.2-2.7-1.8-4.3-1.8s-3.2.6-4.3 1.8c-.4.4-.8.9-1.2 1.5H7.7c-.3 0-.5.2-.5.5s.2.5.5.5h5.9v.1c-.1.3-.2.7-.2 1v.1H7.7c-.3 0-.5.2-.5.5s.2.5.5.5h5.6v.1c0 .8.2 1.6.6 2.3l.1.1H7.7c-.3 0-.5.2-.5.5s.2.5.5.5h6.8c.2.2.4.5.6.7a5.98 5.98 0 007.4.9h.1l2.7 2.7-.1-.2zm-10.9-8a5.14 5.14 0 015.2-5.2 5.14 5.14 0 014.2 8.2 5.22 5.22 0 01-7.9.7c-1-1-1.5-2.3-1.5-3.7zm13.1 7.9c-.1.1-.2.1-.4.1-.1 0-.3-.1-.4-.1l-3.3-3.3.1-.1.6-.6.1-.1 3.3 3.3c.2.3.2.6 0 .8z"/><path class="st0" d="M18.2 16.1v2.3h-2.3c-.3 0-.5.2-.5.5v1.8c0 .3.2.5.5.5h2.3v2.3c0 .3.2.5.5.5h1.8c.3 0 .5-.2.5-.5v-2.3h2.3c.3 0 .5-.2.5-.5v-1.8c0-.3-.2-.5-.5-.5H21v-2.3c0-.3-.2-.5-.5-.5h-1.8c-.3 0-.5.2-.5.5zm.9 2.7v-2.3h.9v2.3c0 .3.2.5.5.5h2.3v.9h-2.3c-.3 0-.5.2-.5.5V23h-.9v-2.3c0-.3-.2-.5-.5-.5h-2.3v-.9h2.3c.3 0 .5-.2.5-.5z"/><g><path class="st0" d="M11.3 5.2H9.7v5h.9V8.3h.8c.5 0 .9-.1 1.1-.4.3-.3.4-.7.4-1.1 0-.5-.1-.8-.4-1.1-.3-.3-.7-.5-1.2-.5zm.5 2.2c-.1.2-.3.2-.5.2h-.8V5.9h.8c.2 0 .4.1.5.2.1.2.2.4.2.7 0 .2-.1.4-.2.6zM13.6 5.2h.9v5h-.9zM18.5 6.9l.1-.1c0-.5-.1-.9-.4-1.2-.3-.3-.7-.4-1.2-.4s-.9.2-1.2.5c-.3.3-.5.8-.5 1.4v1.3c0 .6.2 1.1.5 1.4.3.3.7.5 1.2.5s.9-.1 1.2-.4c.3-.3.4-.7.4-1.2v-.1h-.8v.1c0 .3-.1.6-.2.7-.1.1-.3.2-.6.2s-.5-.1-.6-.3a2 2 0 01-.2-.9V7c0-.4.1-.7.2-.9.2-.1.4-.2.6-.2.3 0 .5.1.6.2.1.1.2.4.2.7v.1h.7zM22.3 5.7c-.3-.4-.8-.5-1.3-.5s-1 .2-1.3.5c-.3.3-.5.8-.5 1.4v1.3c0 .6.2 1.1.5 1.4.3.3.7.5 1.3.5.5 0 1-.2 1.3-.5.3-.3.5-.8.5-1.4V7.1c0-.6-.2-1.1-.5-1.4zM20.1 7c0-.4.1-.7.2-.9.2-.1.4-.2.7-.2.3 0 .5.1.7.3.2.2.2.5.2.9v1.3c0 .4-.1.7-.2.9-.2.2-.4.3-.7.3a.9.9 0 01-.7-.3c-.2-.2-.2-.5-.2-.9V7z"/></g></svg>