<svg xmlns="http://www.w3.org/2000/svg" xml:space="preserve" width="66.667" height="66.667"><defs><clipPath clipPathUnits="userSpaceOnUse" id="a"><path d="M0 50h50V0H0Z"/></clipPath></defs><g clip-path="url(#a)" transform="matrix(1.33333 0 0 -1.33333 0 66.667)"><path d="M0 0a.852.852 0 0 0-.85.85v2.887h-1.164A4.558 4.558 0 0 0-6.567 8.29v14.763a4.559 4.559 0 0 0 4.553 4.553h19.425a4.558 4.558 0 0 0 4.551-4.553v-.583a.85.85 0 1 0-1.699 0v.583a2.856 2.856 0 0 1-2.852 2.853H-2.014a2.856 2.856 0 0 1-2.853-2.853V8.29a2.856 2.856 0 0 1 2.853-2.853H0a.85.85 0 0 0 .85-.85V2.394l4.6 2.911a.838.838 0 0 0 .454.132h5.84a.85.85 0 0 0 0-1.7H6.151L.455.132A.85.85 0 0 0 0 0" style="fill:#0098da;fill-opacity:1;fill-rule:nonzero;stroke:none" transform="translate(16.008 20.282)"/><path d="M0 0c1.631-.164 2.81.284 3.596.796 1.39.903 2.288 2.549 2.288 4.192v.41c0 .227.09.441.246.599a.855.855 0 0 0-.242.523.838.838 0 0 0-.455.219 1.353 1.353 0 0 1-.912.364 1.378 1.378 0 0 1-1.364-1.375v-.493a.85.85 0 0 0-.679-.832c-1.246-.258-2.451.005-3.641.801l.081-.075a.848.848 0 0 0-.359-1.46 1.46 1.46 0 0 1 .319-.056.85.85 0 0 0 .319-1.614 7.95 7.95 0 0 1 .933-.117A.85.85 0 0 0 .542.333 6.458 6.458 0 0 0 0 0m.677-1.724c-1.35 0-2.802.331-4.294.994a.851.851 0 0 0-.485.962c.089.396.439.694.849.664.243 0 .486.008.724.038a2.79 2.79 0 0 0-.762.957.849.849 0 0 0 .088.899 3.088 3.088 0 0 0-.913 1.85.852.852 0 0 0 .885.95c-.136.595-.134 1.272.008 2.026a.849.849 0 0 0 1.477.401C-.606 6.706.432 6.055 1.47 6.013a3.086 3.086 0 0 0 3.059 2.79 3.073 3.073 0 0 0 1.645-.493l.836.277a.85.85 0 0 0 1.04-1.161l-.179-.393.236-.102a.85.85 0 0 0 .164-1.47l-.686-.497C7.576 2.735 6.404.593 4.522-.63 3.401-1.359 2.095-1.724.677-1.724" style="fill:#0098da;fill-opacity:1;fill-rule:nonzero;stroke:none" transform="translate(18.52 32.341)"/><path d="M0 0a.85.85 0 0 0-.85.85v.513a3.397 3.397 0 0 1-3.393 3.393h-27.91a3.397 3.397 0 0 1-3.393-3.393V.85a.85.85 0 1 0-1.7 0v.513a5.098 5.098 0 0 0 5.093 5.092h27.91A5.098 5.098 0 0 0 .85 1.363V.85A.85.85 0 0 0 0 0" style="fill:#0098da;fill-opacity:1;fill-rule:nonzero;stroke:none" transform="translate(43.307 11.353)"/><path d="M0 0a.85.85 0 0 0-.85.85v3.971a.85.85 0 1 0 1.7 0V.85A.85.85 0 0 0 0 0" style="fill:#0098da;fill-opacity:1;fill-rule:nonzero;stroke:none" transform="translate(25.109 12.137)"/><path d="M0 0a.076.076 0 0 1-.075-.075v-6.15l8.882-.067.067 6.217A.076.076 0 0 1 8.798 0Zm8.807-7.991H-.009c-.973 0-1.765.792-1.765 1.766v6.15c0 .978.795 1.774 1.774 1.774h8.798c.979 0 1.775-.796 1.775-1.774v-6.15c0-.974-.792-1.766-1.766-1.766" style="fill:#0098da;fill-opacity:1;fill-rule:nonzero;stroke:none" transform="translate(38.656 9.304)"/><path d="M0 0h-4.576a.85.85 0 1 0 0 1.699H0A.85.85 0 1 0 0 0" style="fill:#0098da;fill-opacity:1;fill-rule:nonzero;stroke:none" transform="translate(45.343 6.636)"/><path d="M0 0h-4.576a.85.85 0 1 0 0 1.699H0A.85.85 0 1 0 0 0" style="fill:#0098da;fill-opacity:1;fill-rule:nonzero;stroke:none" transform="translate(45.343 4.093)"/><path d="M0 0a.076.076 0 0 1-.076-.075v-6.15l8.883-.067.067 6.217A.076.076 0 0 1 8.798 0Zm8.807-7.991H-.009c-.974 0-1.767.792-1.767 1.766v6.15c0 .978.797 1.774 1.776 1.774h8.798c.979 0 1.775-.796 1.775-1.774v-6.15c0-.974-.792-1.766-1.766-1.766" style="fill:#0098da;fill-opacity:1;fill-rule:nonzero;stroke:none" transform="translate(20.127 9.304)"/><path d="M0 0h-4.576a.85.85 0 1 0 0 1.699H0A.85.85 0 1 0 0 0" style="fill:#0098da;fill-opacity:1;fill-rule:nonzero;stroke:none" transform="translate(26.814 6.636)"/><path d="M0 0h-4.576a.85.85 0 1 0 0 1.699H0A.85.85 0 1 0 0 0" style="fill:#0098da;fill-opacity:1;fill-rule:nonzero;stroke:none" transform="translate(26.814 4.093)"/><path d="M0 0a.076.076 0 0 1-.076-.075v-6.15l8.882-.067.067 6.217A.076.076 0 0 1 8.797 0Zm8.806-7.991H-.009c-.974 0-1.767.792-1.767 1.766v6.15c0 .978.797 1.774 1.776 1.774h8.797c.979 0 1.776-.796 1.776-1.774v-6.15c0-.974-.793-1.766-1.767-1.766" style="fill:#0098da;fill-opacity:1;fill-rule:nonzero;stroke:none" transform="translate(2.525 9.304)"/><path d="M0 0h-4.576a.85.85 0 1 0 0 1.699H0A.85.85 0 1 0 0 0" style="fill:#0098da;fill-opacity:1;fill-rule:nonzero;stroke:none" transform="translate(9.212 6.636)"/><path d="M0 0h-4.576a.85.85 0 1 0 0 1.699H0A.85.85 0 1 0 0 0" style="fill:#0098da;fill-opacity:1;fill-rule:nonzero;stroke:none" transform="translate(9.212 4.093)"/><path d="M0 0a9.15 9.15 0 0 0-6.54 2.753.85.85 0 1 0 1.217 1.187 7.44 7.44 0 0 1 6.462-2.152 7.373 7.373 0 0 1 4.85 2.959 7.374 7.374 0 0 1 1.338 5.522 7.374 7.374 0 0 1-2.958 4.851 7.387 7.387 0 0 1-5.522 1.338 7.38 7.38 0 0 1-4.851-2.959 7.373 7.373 0 0 1-1.338-5.521.852.852 0 0 0-.709-.972.857.857 0 0 0-.97.709 9.056 9.056 0 0 0 1.644 6.786 9.06 9.06 0 0 0 5.962 3.636 9.074 9.074 0 0 0 6.786-1.644 9.063 9.063 0 0 0 3.636-5.962C9.783 5.56 6.371.885 1.4.108A9.043 9.043 0 0 0 0 0" style="fill:#0098da;fill-opacity:1;fill-rule:nonzero;stroke:none" transform="translate(37.085 22.386)"/><path d="M0 0a.849.849 0 0 0-.844.755l-.298 2.647a.851.851 0 0 0 .67.927l3.019.635A.85.85 0 0 0 2.896 3.3L.634 2.824.846.944A.851.851 0 0 0 0 0" style="fill:#0098da;fill-opacity:1;fill-rule:nonzero;stroke:none" transform="translate(30.52 22.938)"/><path d="M0 0a4.083 4.083 0 0 0-.124.661A4.194 4.194 0 0 0-.247 0l-.364-1.153H.35Zm-1.092-2.604a.514.514 0 0 0-.453-.316c-.267 0-.495.175-.495.431 0 .034.007.115.021.149L-.68 1.497c.089.263.227.459.556.459.33 0 .467-.189.563-.459L1.778-2.34a.547.547 0 0 0 .021-.149c0-.256-.213-.431-.494-.431-.179 0-.399.128-.467.316l-.241.682H-.865z" style="fill:#0098da;fill-opacity:1;fill-rule:nonzero;stroke:none" transform="translate(33.531 32.41)"/><path d="M0 0a4.083 4.083 0 0 0-.124.661A4.194 4.194 0 0 0-.247 0l-.364-1.153H.35Zm-1.092-2.604a.514.514 0 0 0-.453-.316c-.267 0-.495.175-.495.431 0 .034.007.115.021.149L-.68 1.497c.089.263.227.459.556.459.33 0 .467-.189.563-.459L1.778-2.34a.547.547 0 0 0 .021-.149c0-.256-.213-.431-.494-.431-.179 0-.399.128-.467.316l-.241.682H-.865z" style="fill:none;stroke:#0098da;stroke-width:.25;stroke-linecap:butt;stroke-linejoin:miter;stroke-miterlimit:10;stroke-dasharray:none;stroke-opacity:1" transform="translate(33.531 32.41)"/><path d="M0 0c0-.58.206-.944.824-.944.24 0 .412.061.57.142V.249h-.357a.437.437 0 0 0-.433.426c0 .236.206.425.433.425h.749c.315 0 .563-.149.563-.473v-1.49c0-.634-.852-.904-1.559-.904-1.201 0-1.751.702-1.751 1.767v1.335c0 1.066.55 1.768 1.751 1.768.727 0 1.422-.331 1.422-.722 0-.216-.193-.405-.454-.405-.158 0-.205.047-.295.102l-.069.04c-.171.101-.35.162-.57.162C.206 2.28 0 1.915 0 1.335Z" style="fill:#0098da;fill-opacity:1;fill-rule:nonzero;stroke:none" transform="translate(36.464 31.264)"/><path d="M0 0c0-.58.206-.944.824-.944.24 0 .412.061.57.142V.249h-.357a.437.437 0 0 0-.433.426c0 .236.206.425.433.425h.749c.315 0 .563-.149.563-.473v-1.49c0-.634-.852-.904-1.559-.904-1.201 0-1.751.702-1.751 1.767v1.335c0 1.066.55 1.768 1.751 1.768.727 0 1.422-.331 1.422-.722 0-.216-.193-.405-.454-.405-.158 0-.205.047-.295.102l-.069.04c-.171.101-.35.162-.57.162C.206 2.28 0 1.915 0 1.335Z" style="fill:none;stroke:#0098da;stroke-width:.25;stroke-linecap:butt;stroke-linejoin:miter;stroke-miterlimit:10;stroke-dasharray:none;stroke-opacity:1" transform="translate(36.464 31.264)"/><path d="M0 0h-1.819c-.337 0-.639.115-.639.479v3.797c0 .236.227.479.528.479h1.862c.26 0 .48-.203.48-.439 0-.242-.22-.418-.48-.418h-1.429V2.813h1.298c.24 0 .474-.183.474-.425 0-.243-.207-.432-.474-.432h-1.298V.857H0C.254.857.48.668.48.439.48.196.261 0 0 0" style="fill:#0098da;fill-opacity:1;fill-rule:nonzero;stroke:none" transform="translate(41.827 29.551)"/><path d="M0 0h-1.819c-.337 0-.639.115-.639.479v3.797c0 .236.227.479.528.479h1.862c.26 0 .48-.203.48-.439 0-.242-.22-.418-.48-.418h-1.429V2.813h1.298c.24 0 .474-.183.474-.425 0-.243-.207-.432-.474-.432h-1.298V.857H0C.254.857.48.668.48.439.48.196.261 0 0 0Z" style="fill:none;stroke:#0098da;stroke-width:.25;stroke-linecap:butt;stroke-linejoin:miter;stroke-miterlimit:10;stroke-dasharray:none;stroke-opacity:1" transform="translate(41.827 29.551)"/></g></svg>