<svg xmlns="http://www.w3.org/2000/svg" xml:space="preserve" width="66.667" height="66.667"><defs><clipPath clipPathUnits="userSpaceOnUse" id="a"><path d="M0 50h50V0H0Z"/></clipPath></defs><g clip-path="url(#a)" transform="matrix(1.33333 0 0 -1.33333 0 66.667)"><path d="M0 0a.85.85 0 0 0-.85.85v.514a3.416 3.416 0 0 1-3.411 3.412h-28.033a3.416 3.416 0 0 1-3.411-3.412V.85a.85.85 0 1 0-1.7 0v.514a5.117 5.117 0 0 0 5.111 5.112h28.033A5.117 5.117 0 0 0 .85 1.364V.85A.85.85 0 0 0 0 0" style="fill:#ffffff;fill-opacity:1;fill-rule:nonzero;stroke:none" transform="translate(43.617 12.606)"/><path d="M0 0a.85.85 0 0 0-.85.85v3.989a.85.85 0 1 0 1.7 0V.85A.85.85 0 0 0 0 0" style="fill:#ffffff;fill-opacity:1;fill-rule:nonzero;stroke:none" transform="translate(25.34 13.393)"/><path d="M0 0a.08.08 0 0 1-.08-.08v-6.177c0-.039.032-.071.071-.071h8.854c.039 0 .071.032.071.071V-.08a.08.08 0 0 1-.08.08Zm8.845-8.027H-.009c-.976 0-1.77.794-1.77 1.77V-.08A1.78 1.78 0 0 0 0 1.699h8.836A1.78 1.78 0 0 0 10.615-.08v-6.177c0-.976-.794-1.77-1.77-1.77" style="fill:#ffffff;fill-opacity:1;fill-rule:nonzero;stroke:none" transform="translate(38.947 10.549)"/><path d="M0 0a.08.08 0 0 1-.08-.08v-6.177c0-.039.032-.071.071-.071h8.854c.039 0 .072.032.072.071V-.08c0 .043-.038.08-.081.08Zm8.845-8.027H-.009c-.976 0-1.771.794-1.771 1.77V-.08c0 .981.799 1.779 1.78 1.779h8.836c.982 0 1.78-.798 1.78-1.779v-6.177c0-.976-.794-1.77-1.771-1.77" style="fill:#ffffff;fill-opacity:1;fill-rule:nonzero;stroke:none" transform="translate(20.337 10.549)"/><path d="M0 0a.082.082 0 0 1-.08-.08v-6.177c0-.039.032-.071.071-.071h8.854c.039 0 .071.032.071.071V-.08c0 .043-.037.08-.08.08Zm8.845-8.027H-.009c-.976 0-1.771.794-1.771 1.77V-.08c0 .981.799 1.779 1.78 1.779h8.836c.982 0 1.78-.798 1.78-1.779v-6.177c0-.976-.794-1.77-1.771-1.77" style="fill:#ffffff;fill-opacity:1;fill-rule:nonzero;stroke:none" transform="translate(2.657 10.549)"/><path d="M0 0a.852.852 0 0 0-.85.85v2.904h-1.173a4.574 4.574 0 0 0-4.569 4.569v14.828a4.575 4.575 0 0 0 4.569 4.569h19.51a4.574 4.574 0 0 0 4.568-4.569v-.586a.85.85 0 1 0-1.699 0v.586a2.872 2.872 0 0 1-2.869 2.869h-19.51a2.872 2.872 0 0 1-2.869-2.869V8.323a2.872 2.872 0 0 1 2.869-2.869H0a.85.85 0 0 0 .85-.85v-2.21l4.626 2.927a.839.839 0 0 0 .454.133h5.865a.85.85 0 1 0 0-1.7H6.177L.455.132A.85.85 0 0 0 0 0" style="fill:#ffffff;fill-opacity:1;fill-rule:nonzero;stroke:none" transform="translate(16.199 21.573)"/><path d="M0 0c1.648-.168 2.833.283 3.626.798 1.397.909 2.3 2.563 2.3 4.215v.412c0 .227.091.442.248.6a.853.853 0 0 0-.245.529.847.847 0 0 0-.457.219 1.37 1.37 0 0 1-.92.368 1.39 1.39 0 0 1-1.373-1.386v-.494a.851.851 0 0 0-.678-.833c-1.261-.258-2.48.009-3.685.825.042-.043.079-.076.107-.101a.85.85 0 0 0-.373-1.463c.107-.034.219-.054.335-.061a.85.85 0 0 0 .308-1.619c.247-.052.556-.089.949-.12A.85.85 0 0 0 .555.34 6.595 6.595 0 0 0 0 0m.692-1.725c-1.355 0-2.813.332-4.312.998a.85.85 0 0 0-.484.962c.088.396.437.718.849.664.246-.003.493.008.737.039a2.787 2.787 0 0 0-.772.964.847.847 0 0 0 .089.903 3.1 3.1 0 0 0-.917 1.859.846.846 0 0 0 .252.711.818.818 0 0 0 .637.238c-.137.599-.135 1.279.007 2.038a.849.849 0 0 0 1.477.401C-.598 6.733.447 6.079 1.492 6.037A3.096 3.096 0 0 0 4.56 8.841a3.087 3.087 0 0 0 1.652-.497l.842.28a.851.851 0 0 0 1.04-1.161l-.182-.399.241-.103a.849.849 0 0 0 .163-1.47l-.69-.5C7.618 2.752 6.442.601 4.552-.627 3.426-1.359 2.115-1.725.692-1.725" style="fill:#ffffff;fill-opacity:1;fill-rule:nonzero;stroke:none" transform="translate(18.71 33.68)"/><path d="m0 0-.087-.001a2.981 2.981 0 0 1-2.095-.938 3.004 3.004 0 0 1 .12-4.24 3.002 3.002 0 0 1 4.24.12 3.004 3.004 0 0 1-.12 4.24A2.98 2.98 0 0 1 0 0m-.003-7.696A4.69 4.69 0 0 0-3.23-6.415a4.671 4.671 0 0 0-1.469 3.283A4.678 4.678 0 0 0-3.418.229 4.667 4.667 0 0 0-.135 1.698 4.684 4.684 0 0 0 3.226.416a4.706 4.706 0 0 0 .188-6.643A4.686 4.686 0 0 0-.003-7.696" style="fill:#ffffff;fill-opacity:1;fill-rule:nonzero;stroke:none" transform="translate(37.462 37.724)"/><path d="M0 0a.85.85 0 0 0-.514 1.528c2.895 2.19 5.969 2.262 8.654.198A.85.85 0 0 0 7.105.378C5.023 1.977 2.806 1.907.512.172A.846.846 0 0 0 0 0" style="fill:#ffffff;fill-opacity:1;fill-rule:nonzero;stroke:none" transform="translate(33.688 27.513)"/><path d="M0 0a7.507 7.507 0 0 1-5.773-2.69 7.476 7.476 0 0 1-1.724-5.492 7.468 7.468 0 0 1 2.665-5.101c3.179-2.663 7.932-2.24 10.594.94a7.473 7.473 0 0 1 1.723 5.491A7.466 7.466 0 0 1 4.82-1.75 7.483 7.483 0 0 1 0 0m-.014-16.733a9.176 9.176 0 0 0-5.91 2.147 9.154 9.154 0 0 0-3.265 6.254A9.15 9.15 0 0 0-7.076-1.6C-3.814 2.298 2.011 2.817 5.912-.446c3.899-3.263 4.416-9.09 1.152-12.988a9.202 9.202 0 0 0-7.078-3.299" style="fill:#ffffff;fill-opacity:1;fill-rule:nonzero;stroke:none" transform="translate(37.41 40.666)"/><path d="M0 0c-.298 0-.598.096-.851.293l-1.362 1.064a.848.848 0 0 0-.148 1.192.852.852 0 0 0 1.193.147l1.116-.87 1.914 2.449a.849.849 0 1 0 1.34-1.046L1.093.531A1.387 1.387 0 0 0 0 0" style="fill:#ffffff;fill-opacity:1;fill-rule:nonzero;stroke:none" transform="translate(24.631 5.084)"/><path d="M0 0h-3.751a.85.85 0 1 0 0 1.699H0A.85.85 0 1 0 0 0" style="fill:#ffffff;fill-opacity:1;fill-rule:nonzero;stroke:none" transform="translate(8.95 6.535)"/><path d="M0 0h-3.751a.85.85 0 1 0 0 1.699H0A.85.85 0 1 0 0 0" style="fill:#ffffff;fill-opacity:1;fill-rule:nonzero;stroke:none" transform="translate(45.24 6.535)"/></g></svg>