<svg xmlns="http://www.w3.org/2000/svg" xml:space="preserve" width="66.667" height="66.667"><defs><clipPath id="a" clipPathUnits="userSpaceOnUse"><path d="M0 50h50V0H0Z"/></clipPath></defs><g clip-path="url(#a)" transform="matrix(1.33333 0 0 -1.33333 0 66.667)"><path d="M0 0c.469 0 .85.38.85.85v.495a3.252 3.252 0 0 0 3.248 3.249h12.629V1.606a.85.85 0 0 1 1.7 0v2.988h12.629a3.252 3.252 0 0 0 3.248-3.249V.85a.85.85 0 1 1 1.699 0v.495a4.953 4.953 0 0 1-4.947 4.948H4.098A4.954 4.954 0 0 1-.85 1.345V.85C-.85.38-.469 0 0 0" style="fill:#0098da;fill-opacity:1;fill-rule:nonzero;stroke:none" transform="translate(6.904 10.73)"/><path d="m0 0-8.55.036.044 5.985h8.498l.044-.045Zm-.008 7.72h-8.498a1.746 1.746 0 0 1-1.743-1.744V.036c0-.957.778-1.735 1.735-1.735H0c.957 0 1.735.778 1.735 1.735v5.94c0 .961-.782 1.744-1.743 1.744" style="fill:#0098da;fill-opacity:1;fill-rule:nonzero;stroke:none" transform="translate(46.071 2.731)"/><path d="M0 0h-4.42a.85.85 0 1 1 0-1.699H0A.85.85 0 1 1 0 0" style="fill:#0098da;fill-opacity:1;fill-rule:nonzero;stroke:none" transform="translate(44.024 7.873)"/><path d="M0 0h-4.42a.85.85 0 1 1 0-1.699H0A.85.85 0 1 1 0 0" style="fill:#0098da;fill-opacity:1;fill-rule:nonzero;stroke:none" transform="translate(44.024 5.416)"/><path d="M0 0h-4.42a.85.85 0 1 1 0-1.699H0A.85.85 0 1 1 0 0" style="fill:#0098da;fill-opacity:1;fill-rule:nonzero;stroke:none" transform="translate(26.47 7.873)"/><path d="M0 0h-4.42a.85.85 0 1 1 0-1.699H0A.85.85 0 1 1 0 0" style="fill:#0098da;fill-opacity:1;fill-rule:nonzero;stroke:none" transform="translate(26.47 5.416)"/><path d="m0 0-8.55.036.044 5.985h8.497l.045-.045Zm-.009 7.72h-8.497a1.747 1.747 0 0 1-1.744-1.744V.036c0-.957.779-1.735 1.736-1.735H0c.957 0 1.735.778 1.735 1.735v5.94c0 .961-.782 1.744-1.744 1.744" style="fill:#0098da;fill-opacity:1;fill-rule:nonzero;stroke:none" transform="translate(28.738 2.731)"/><path d="m0 0-8.55.036.044 5.985h8.498l.044-.045Zm-.008 7.72h-8.498a1.747 1.747 0 0 1-1.744-1.744V.036c0-.957.779-1.735 1.736-1.735H0c.957 0 1.736.778 1.736 1.735v5.94c0 .961-.783 1.744-1.744 1.744" style="fill:#0098da;fill-opacity:1;fill-rule:nonzero;stroke:none" transform="translate(11.173 2.731)"/><path d="M0 0h-4.42a.85.85 0 1 1 0-1.699H0A.85.85 0 1 1 0 0" style="fill:#0098da;fill-opacity:1;fill-rule:nonzero;stroke:none" transform="translate(9.127 7.873)"/><path d="M0 0h-4.42a.85.85 0 1 1 0-1.699H0A.85.85 0 1 1 0 0" style="fill:#0098da;fill-opacity:1;fill-rule:nonzero;stroke:none" transform="translate(9.127 5.416)"/><path d="M0 0h19.653a2.662 2.662 0 0 1 2.659 2.66v22.329a2.662 2.662 0 0 1-2.659 2.66H17.3a.85.85 0 1 1 0-1.7h2.353c.53 0 .96-.43.96-.96V2.66a.962.962 0 0 0-.96-.961H0c-.53 0-.96.432-.96.961v22.329c0 .53.43.96.96.96h7.442a.85.85 0 0 1 0 1.7H0a2.664 2.664 0 0 1-2.661-2.66V2.66A2.664 2.664 0 0 1 0 0" style="fill:#0098da;fill-opacity:1;fill-rule:nonzero;stroke:none" transform="translate(14.824 18.634)"/><path d="M0 0a4.5 4.5 0 0 1 .988 1.034c.148-.159.173-.289.17-.376C1.15.307.786-.185.184-.657a3.41 3.41 0 0 1-.662-.679c-.091.128-.168.277-.169.427-.004.351.404.72.647.909m-1.167-3.039a.843.843 0 0 1 .204-.101c.137-1.051.896-1.794.993-1.885a.85.85 0 0 1 1.165 1.237c-.14.137-.503.584-.481 1.008.014.261.187.526.518.785C2.55-.962 2.844-.003 2.858.619c.016.68-.275 1.298-.841 1.785a.84.84 0 0 1-.532.195 2.604 2.604 0 0 1-.581 1.603.841.841 0 0 1-1.177.078.86.86 0 0 1-.108-1.191.871.871 0 0 0 .167-.609c-.042-.356-.328-.749-.827-1.136C-1.925.659-2.364-.113-2.347-.949c.025-1.234 1.062-2.006 1.18-2.09" style="fill:#0098da;fill-opacity:1;fill-rule:nonzero;stroke:none" transform="translate(27.23 43.871)"/><path d="m0 0-.585.585 2.774 2.773.584-.585Zm3.976 3.976-.585.585 6.511 6.511.585-.585zm7.643 8.813.585-.585-.515-.515-.585.585zm1.894.511-.798.797a1.551 1.551 0 0 1-2.192 0L-1.893 1.681a1.554 1.554 0 0 1 0-2.193l.797-.796a1.55 1.55 0 0 1 2.192 0l12.416 12.416c.604.604.604 1.587.001 2.192" style="fill:#0098da;fill-opacity:1;fill-rule:nonzero;stroke:none" transform="translate(17.866 24.06)"/><path d="M0 0v-.882a.85.85 0 0 1 1.7 0V0A.85.85 0 0 1 0 0" style="fill:#0098da;fill-opacity:1;fill-rule:nonzero;stroke:none" transform="translate(23.994 23.754)"/><path d="M0 0v-1.763a.85.85 0 1 1 1.699 0V0A.85.85 0 1 1 0 0" style="fill:#0098da;fill-opacity:1;fill-rule:nonzero;stroke:none" transform="translate(26.712 24.635)"/><path d="M0 0v-4.322a.848.848 0 1 1 1.699 0V0A.85.85 0 1 1 0 0" style="fill:#0098da;fill-opacity:1;fill-rule:nonzero;stroke:none" transform="translate(29.43 27.194)"/><path d="M0 0v2.782a.85.85 0 1 1-1.699 0V0A.85.85 0 1 1 0 0" style="fill:#0098da;fill-opacity:1;fill-rule:nonzero;stroke:none" transform="translate(33.847 22.872)"/></g></svg>