<svg width="66.667" height="66.667" xmlns="http://www.w3.org/2000/svg"><defs><clipPath clipPathUnits="userSpaceOnUse" id="a"><path d="M0 50h50V0H0Z"/></clipPath></defs><g clip-path="url(#a)" transform="matrix(1.33333 0 0 -1.33333 0 66.667)"><path d="M0 0h.579a.815.815 0 0 1 0 1.63H0a5.614 5.614 0 0 1-5.608-5.608v-27.345A5.613 5.613 0 0 1 0-36.93h.579a.814.814 0 1 1 0 1.629H0a3.984 3.984 0 0 0-3.979 3.978v12.858h3.673a.814.814 0 1 1 0 1.629h-3.673v12.858A3.984 3.984 0 0 0 0 0" style="fill:#ffffff;fill-opacity:1;fill-rule:nonzero;stroke:none" transform="translate(32.22 42.584)"/><path d="M0 0a.363.363 0 0 0-.362-.362h-10.591a.363.363 0 0 0-.362.362v8.237c0 .199.163.362.362.362H-.362A.363.363 0 0 0 0 8.237Zm-.362 10.229h-10.591a1.993 1.993 0 0 1-1.991-1.992V0c0-1.098.892-1.992 1.991-1.992H-.362c1.097 0 1.991.894 1.991 1.992v8.237a1.995 1.995 0 0 1-1.991 1.992" style="fill:#ffffff;fill-opacity:1;fill-rule:nonzero;stroke:none" transform="translate(48.123 39.368)"/><path d="M0 0a.521.521 0 1 0 0-1.043A.521.521 0 0 0 0 0m0-1.63A1.11 1.11 0 0 1 0 .588 1.11 1.11 0 0 1 0-1.63" style="fill:#ffffff;fill-opacity:1;fill-rule:nonzero;stroke:none" transform="translate(39.523 45.773)"/><path d="M0 0a1.4 1.4 0 0 1-1.15.627h-.021A1.4 1.4 0 0 1-2.319.029L-3.39-1.497l-.292.235a1.398 1.398 0 0 1-1.09.29 1.41 1.41 0 0 1-.954-.61l-1.223-1.842a.814.814 0 1 1 1.357-.901l1.086 1.635.776-.622a.813.813 0 0 1 1.176.168l1.379 1.967 2.102-3.15a.814.814 0 1 1 1.355.905z" style="fill:#ffffff;fill-opacity:1;fill-rule:nonzero;stroke:none" transform="translate(44.98 44.42)"/><path d="M0 0a.363.363 0 0 0-.362-.362h-10.591a.363.363 0 0 0-.362.362v8.237c0 .2.163.362.362.362H-.362A.363.363 0 0 0 0 8.237Zm-.362 10.229h-10.591a1.993 1.993 0 0 1-1.991-1.992V0c0-1.098.892-1.991 1.991-1.991H-.362c1.097 0 1.991.893 1.991 1.991v8.237a1.995 1.995 0 0 1-1.991 1.992" style="fill:#ffffff;fill-opacity:1;fill-rule:nonzero;stroke:none" transform="translate(48.123 21.01)"/><path d="M0 0a.521.521 0 1 0 0-1.043A.521.521 0 0 0 0 0m0-1.63A1.11 1.11 0 0 1 0 .588 1.11 1.11 0 0 1 0-1.63" style="fill:#ffffff;fill-opacity:1;fill-rule:nonzero;stroke:none" transform="translate(39.523 27.415)"/><path d="M0 0a1.401 1.401 0 0 1-1.153.628C-1.621.611-2.056.409-2.318.029L-3.39-1.496l-.292.234a1.406 1.406 0 0 1-2.044-.32l-1.223-1.842a.815.815 0 1 1 1.357-.902l1.086 1.637.776-.623a.812.812 0 0 1 1.175.169l1.38 1.966 2.102-3.15a.815.815 0 0 1 1.355.904z" style="fill:#ffffff;fill-opacity:1;fill-rule:nonzero;stroke:none" transform="translate(44.98 26.063)"/><path d="M0 0a.363.363 0 0 0-.362-.362h-10.591a.363.363 0 0 0-.362.362v8.236c0 .2.163.363.362.363H-.362A.363.363 0 0 0 0 8.236Zm-.362 10.228h-10.591a1.993 1.993 0 0 1-1.991-1.992V0c0-1.098.892-1.991 1.991-1.991H-.362c1.097 0 1.991.893 1.991 1.991v8.236a1.995 1.995 0 0 1-1.991 1.992" style="fill:#ffffff;fill-opacity:1;fill-rule:nonzero;stroke:none" transform="translate(48.123 2.394)"/><path d="M0 0a.52.52 0 1 0 0-1.038A.52.52 0 0 0 0 0m0-1.629A1.11 1.11 0 1 1-.002.589 1.11 1.11 0 0 1 0-1.629" style="fill:#ffffff;fill-opacity:1;fill-rule:nonzero;stroke:none" transform="translate(39.523 8.798)"/><path d="M0 0a1.407 1.407 0 0 1-1.154.626c-.47.011-.902-.22-1.165-.599L-3.39-1.498l-.292.235a1.405 1.405 0 0 1-2.044-.319l-1.223-1.843a.815.815 0 1 1 1.357-.902l1.086 1.636.776-.622a.814.814 0 0 1 1.176.168l1.379 1.967 2.102-3.15a.814.814 0 0 1 1.355.904z" style="fill:#ffffff;fill-opacity:1;fill-rule:nonzero;stroke:none" transform="translate(44.98 7.447)"/><path d="M0 0h-18.259c-.613 0-1.111.499-1.111 1.111v25.036c0 .613.498 1.111 1.111 1.111h11.691v-6.889a2.743 2.743 0 0 1 2.74-2.74h4.939V1.111C1.111.499.613 0 0 0m.708 19.485a.85.85 0 0 1 .078-.091c.039-.039.058-.091.09-.135h-4.704c-.612 0-1.11.498-1.11 1.11v6.66c.03-.023.068-.035.097-.061zm-4.281 8.509a.762.762 0 0 1-.078.091 2.718 2.718 0 0 1-1.937.803h-12.671A2.744 2.744 0 0 1-21 26.147V1.111c0-1.51 1.229-2.74 2.741-2.74H0a2.744 2.744 0 0 1 2.741 2.74v17.498a2.72 2.72 0 0 1-.757 1.891z" style="fill:#ffffff;fill-opacity:1;fill-rule:nonzero;stroke:none" transform="translate(21.248 11.304)"/><path d="M0 0v-.586a.814.814 0 0 1 1.63 0v.597C3.143.312 4.273 1.41 4.273 2.724c0 1.57-1.519 2.8-3.458 2.8-.977 0-1.833.547-1.833 1.172 0 .624.856 1.172 1.866 1.173a2.05 2.05 0 0 0 1.703-.803.816.816 0 0 1 1.298.986A3.672 3.672 0 0 1 1.63 9.43v.576a.815.815 0 0 1-1.63 0v-.595c-1.515-.298-2.647-1.398-2.647-2.715 0-1.545 1.553-2.802 3.462-2.802.974 0 1.829-.547 1.829-1.17 0-.624-.857-1.171-1.867-1.172a2.062 2.062 0 0 0-1.704.803.815.815 0 1 1-1.297-.987A3.666 3.666 0 0 1 0 0" style="fill:#ffffff;fill-opacity:1;fill-rule:nonzero;stroke:none" transform="translate(7.71 23.593)"/><path d="M0 0h-5.753a.814.814 0 1 1 0-1.629H0A.815.815 0 1 1 0 0" style="fill:#ffffff;fill-opacity:1;fill-rule:nonzero;stroke:none" transform="translate(19.334 21.895)"/><path d="M0 0h-12.494a.815.815 0 1 1 0-1.629H0A.815.815 0 1 1 0 0" style="fill:#ffffff;fill-opacity:1;fill-rule:nonzero;stroke:none" transform="translate(19.334 16.118)"/></g></svg>