<svg xmlns="http://www.w3.org/2000/svg" xml:space="preserve" width="66.667" height="66.667"><defs><clipPath id="a" clipPathUnits="userSpaceOnUse"><path d="M0 50h50V0H0Z"/></clipPath></defs><g clip-path="url(#a)" transform="matrix(1.33333 0 0 -1.33333 0 66.667)"><path d="M0 0v-1.12h-2.07a.85.85 0 0 1-.85-.85v-1.97h-1.22v1.97c0 .47-.38.85-.85.85h-2.08V0H-5c.47 0 .85.38.85.85v1.97h1.22V.85c0-.47.38-.85.85-.85Zm-2.8 4.52h-1.46c-.87 0-1.58-.7-1.58-1.55V1.71h-1.35c-.87 0-1.58-.7-1.58-1.55v-1.41c0-.86.71-1.55 1.58-1.55h1.34v-1.26c0-.86.71-1.55 1.58-1.55h1.46c.87 0 1.58.7 1.58 1.55v1.26H.11c.87 0 1.58.7 1.58 1.55V.16c0 .86-.71 1.55-1.58 1.55h-1.34v1.26c.01.85-.7 1.55-1.57 1.55" style="fill:#0098da;fill-opacity:1;fill-rule:nonzero;stroke:none" transform="translate(15.46 31.27)"/><path d="m0 0-4-5.43-2.18 1.8c-.36.3-.9.25-1.2-.12-.3-.36-.25-.9.12-1.2l2.18-1.8c.31-.25.68-.38 1.06-.38.07 0 .14 0 .21.01.46.06.87.3 1.16.68l4.02 5.42c.28.38.2.91-.18 1.19C.81.45.28.37 0 0" style="fill:#0098da;fill-opacity:1;fill-rule:nonzero;stroke:none" transform="translate(41.96 18.91)"/><path d="M0 0h-16.22a.85.85 0 1 1 0-1.7H0A.85.85 0 1 1 0 0" style="fill:#0098da;fill-opacity:1;fill-rule:nonzero;stroke:none" transform="translate(24.66 15.01)"/><path d="M0 0h-11.49a.85.85 0 1 1 0-1.7H0A.85.85 0 1 1 0 0" style="fill:#0098da;fill-opacity:1;fill-rule:nonzero;stroke:none" transform="translate(24.66 8.72)"/><path d="M0 0a.85.85 0 1 1 0-1.7h1.56a.85.85 0 1 1 0 1.7Z" style="fill:#0098da;fill-opacity:1;fill-rule:nonzero;stroke:none" transform="translate(8.44 8.72)"/><path d="M0 0h-3a.85.85 0 1 1 0-1.7h3A.85.85 0 1 1 0 0" style="fill:#0098da;fill-opacity:1;fill-rule:nonzero;stroke:none" transform="translate(24.66 21.31)"/><path d="M0 0c0-.47.38-.85.85-.85h10.04a.85.85 0 1 1 0 1.7H.85A.85.85 0 0 1 0 0" style="fill:#0098da;fill-opacity:1;fill-rule:nonzero;stroke:none" transform="translate(7.59 20.46)"/><path d="M0 0c.28-.29.5-.64.67-1.02h-5.25c-1.9 0-3.45 1.65-3.45 3.67v5.53c.31-.17.61-.38.87-.65Zm6.79 7.81c.23-.24.41-.52.55-.82H2.62C.9 6.99-.49 8.47-.49 10.3v4.96c.25-.14.48-.31.69-.53zM1.87-27.86a.85.85 0 0 1-.85-.85c0-1.07-.81-1.94-1.81-1.94h-25.95c-1 0-1.81.87-1.81 1.94V6.44c0 1.18.9 2.14 2 2.14h16.81V2.65c0-2.96 2.31-5.37 5.15-5.37h5.61v-2.12a.85.85 0 1 1 1.7 0v2.22c0 .24-.04.47-.07.71 0 .01.01.02.01.04 0 .03-.02.06-.02.1a5.423 5.423 0 0 1-1.42 2.94l-7.16 7.52c-.76.8-1.77 1.32-2.83 1.5-.04.01-.08.02-.12.02-.01 0-.03-.01-.04-.01-.22.03-.44.07-.67.07h-9.68v3.5c0 1.08.21 1.9 2.79 1.9h14.31v-5.39c0-2.76 2.16-5.01 4.81-5.01h5.09V-4.6a.85.85 0 1 1 1.7 0V5.45c0 .22-.03.44-.06.65 0 .01.01.02.01.03 0 .03-.01.06-.02.08-.15 1.04-.6 2-1.32 2.76l-6.59 6.92a4.8 4.8 0 0 1-2.66 1.4c-.04.01-.07.02-.11.02-.01 0-.02-.01-.03-.01-.2.03-.41.06-.61.06h-14.52c-1.93 0-4.49-.37-4.49-3.6v-3.5h-5.57c-2.04 0-3.7-1.72-3.7-3.84v-35.15c0-2.01 1.57-3.64 3.51-3.64H-.78c1.93 0 3.5 1.63 3.5 3.64 0 .49-.38.87-.85.87" style="fill:#0098da;fill-opacity:1;fill-rule:nonzero;stroke:none" transform="translate(32.05 32.48)"/><path d="M0 0c0-1.03-.66-1.87-1.48-1.87h-12.18c-.81 0-1.48.84-1.48 1.87v12.33c0 1.03.66 1.87 1.48 1.87h12.18c.81 0 1.48-.84 1.48-1.87Zm-1.48 15.9h-12.18c-1.75 0-3.18-1.6-3.18-3.57V.01c0-1.97 1.42-3.57 3.18-3.57h12.18C.27-3.56 1.7-1.96 1.7.01v12.32c0 1.97-1.43 3.57-3.18 3.57" style="fill:#0098da;fill-opacity:1;fill-rule:nonzero;stroke:none" transform="translate(46.5 9.35)"/></g></svg>