<svg xmlns="http://www.w3.org/2000/svg" xml:space="preserve" width="66.667" height="66.667"><defs><clipPath clipPathUnits="userSpaceOnUse" id="a"><path d="M0 50h50V0H0Z"/></clipPath></defs><g clip-path="url(#a)" transform="matrix(1.33333 0 0 -1.33333 0 66.667)"><path d="M0 0a4.546 4.546 0 0 1-4.541-4.54A4.547 4.547 0 0 1 0-9.082 4.548 4.548 0 0 1 4.542-4.54 4.547 4.547 0 0 1 0 0m0-10.782A6.249 6.249 0 0 0-6.241-4.54c0 3.44 2.8 6.24 6.241 6.24s6.241-2.8 6.241-6.24c0-3.442-2.8-6.242-6.241-6.242" style="fill:#0098da;fill-opacity:1;fill-rule:nonzero;stroke:none" transform="translate(24.229 47.04)"/><path d="M0 0a.85.85 0 0 0-.517.176c-3.21 2.466-7.204 2.481-10.424.042a.85.85 0 0 0-1.027 1.355C-8.167 4.452-3.265 4.43.519 1.524A.85.85 0 0 0 0 0" style="fill:#0098da;fill-opacity:1;fill-rule:nonzero;stroke:none" transform="translate(30.399 32.694)"/><path d="M0 0a4.546 4.546 0 0 1-4.541-4.541A4.547 4.547 0 0 1 0-9.083a4.547 4.547 0 0 1 4.541 4.542A4.546 4.546 0 0 1 0 0m0-10.782a6.248 6.248 0 0 0-6.241 6.241C-6.241-1.1-3.441 1.7 0 1.7s6.241-2.8 6.241-6.241-2.8-6.241-6.241-6.241" style="fill:#0098da;fill-opacity:1;fill-rule:nonzero;stroke:none" transform="translate(10.366 34.1)"/><path d="M0 0a.849.849 0 0 0-.749 1.251 9.55 9.55 0 0 0 12.071 4.36.852.852 0 0 0 .465-1.109.852.852 0 0 0-1.109-.465A7.853 7.853 0 0 1 .751.45.852.852 0 0 0 0 0" style="fill:#0098da;fill-opacity:1;fill-rule:nonzero;stroke:none" transform="translate(2.664 17.156)"/><path d="M0 0a4.547 4.547 0 0 1-4.542-4.541A4.548 4.548 0 0 1 0-9.083a4.547 4.547 0 0 1 4.541 4.542A4.546 4.546 0 0 1 0 0m0-10.782a6.248 6.248 0 0 0-6.241 6.241C-6.241-1.1-3.441 1.7 0 1.7s6.24-2.8 6.24-6.241A6.248 6.248 0 0 0 0-10.782" style="fill:#0098da;fill-opacity:1;fill-rule:nonzero;stroke:none" transform="translate(39.632 34.1)"/><path d="M0 0a.852.852 0 0 0-.751.45 7.869 7.869 0 0 1-9.812 3.632.851.851 0 0 0-.62 1.584C-6.669 7.432-1.537 5.534.749 1.251A.85.85 0 0 0 0 0" style="fill:#0098da;fill-opacity:1;fill-rule:nonzero;stroke:none" transform="translate(47.336 17.157)"/><path d="M0 0a10.254 10.254 0 0 1-7.269-3.079c-1.924-1.952-2.978-4.554-2.967-7.324.002-.513 0-2.051 0-2.051a.63.63 0 0 1 .628-.628H9.607a.63.63 0 0 1 .629.629v2.05C10.278-4.71 5.687-.047 0 0m9.607-14.781H-9.608a2.33 2.33 0 0 0-2.328 2.328c0 .001.002 1.533 0 2.044-.012 3.222 1.215 6.249 3.456 8.523A11.943 11.943 0 0 0-.006 1.699h.012c6.628-.05 11.979-5.482 11.93-12.108v-2.044a2.33 2.33 0 0 0-2.329-2.328" style="fill:#0098da;fill-opacity:1;fill-rule:nonzero;stroke:none" transform="translate(25 25.086)"/><path d="M0 0a.85.85 0 0 0-.85.85v.739a2.109 2.109 0 0 1-2.107 2.106 2.108 2.108 0 0 1-2.105-2.106V.85a.85.85 0 0 0-1.701 0v.739a3.81 3.81 0 0 0 3.806 3.806A3.81 3.81 0 0 0 .85 1.589V.85A.85.85 0 0 0 0 0" style="fill:#0098da;fill-opacity:1;fill-rule:nonzero;stroke:none" transform="translate(27.956 10.304)"/><path d="M0 0a.85.85 0 0 0-.806 1.119L1.411 7.77a.852.852 0 0 0 1.075.539.852.852 0 0 0 .538-1.076L.806.582A.85.85 0 0 0 0 0" style="fill:#0098da;fill-opacity:1;fill-rule:nonzero;stroke:none" transform="translate(25 13.996)"/><path d="M0 0a.48.48 0 1 1 0-.96A.48.48 0 0 1 0 0m0-1.699c-.672 0-1.22.547-1.22 1.219S-.672.739 0 .739C.672.739 1.22.192 1.22-.48S.672-1.699 0-1.699" style="fill:#0098da;fill-opacity:1;fill-rule:nonzero;stroke:none" transform="translate(17.979 15.699)"/><path d="M0 0a.48.48 0 1 1 0-.96A.48.48 0 0 1 0 0m0-1.699c-.672 0-1.22.547-1.22 1.22a1.221 1.221 0 0 0 2.44 0c0-.673-.548-1.22-1.22-1.22" style="fill:#0098da;fill-opacity:1;fill-rule:nonzero;stroke:none" transform="translate(19.457 19.391)"/><path d="M0 0a.48.48 0 1 1-.001-.959A.48.48 0 0 1 0 0m0-1.699A1.22 1.22 0 0 0-1.219-.48 1.22 1.22 0 0 0 0 .739 1.22 1.22 0 0 0 1.219-.48 1.22 1.22 0 0 0 0-1.699" style="fill:#0098da;fill-opacity:1;fill-rule:nonzero;stroke:none" transform="translate(32.02 15.699)"/><path d="M0 0a.48.48 0 1 1 0-.96A.48.48 0 0 1 0 0m0-1.699a1.22 1.22 0 0 0-1.219 1.22 1.22 1.22 0 0 0 2.439 0c0-.673-.547-1.22-1.22-1.22" style="fill:#0098da;fill-opacity:1;fill-rule:nonzero;stroke:none" transform="translate(30.542 19.391)"/><path d="M0 0a.48.48 0 1 1 0-.96A.48.48 0 0 1 0 0m0-1.699a1.22 1.22 0 0 0-1.219 1.22 1.22 1.22 0 0 0 2.439 0c0-.673-.548-1.22-1.22-1.22" style="fill:#0098da;fill-opacity:1;fill-rule:nonzero;stroke:none" transform="translate(22.413 22.347)"/><path d="M0 0h-19.204a.85.85 0 1 0 0 1.699H0A.85.85 0 1 0 0 0" style="fill:#0098da;fill-opacity:1;fill-rule:nonzero;stroke:none" transform="translate(34.916 6.212)"/><path d="M0 0h-13.796a.85.85 0 1 0 0 1.699H0A.85.85 0 1 0 0 0" style="fill:#0098da;fill-opacity:1;fill-rule:nonzero;stroke:none" transform="translate(31.96 2.27)"/><path d="M0 0a.846.846 0 0 0-.601.249l-2.987 2.987a.849.849 0 0 0 0 1.201l3.307 3.308A.85.85 0 0 0 .921 6.544l-2.706-2.707L.601 1.45A.849.849 0 0 0 0 0" style="fill:#0098da;fill-opacity:1;fill-rule:nonzero;stroke:none" transform="translate(9.23 4.835)"/><path d="M0 0a.849.849 0 0 0-.601 1.45l2.386 2.387-2.706 2.707A.849.849 0 1 0 .28 7.745l3.308-3.308a.849.849 0 0 0 0-1.201L.6.249A.84.84 0 0 0 0 0" style="fill:#0098da;fill-opacity:1;fill-rule:nonzero;stroke:none" transform="translate(40.74 4.835)"/></g></svg>