<svg width="20" height="20" fill="none" xmlns="http://www.w3.org/2000/svg"><path d="M11.576 18.202H5.532A2.534 2.534 0 0 1 3 15.67V7.095a2.534 2.534 0 0 1 2.532-2.532h6.044a2.534 2.534 0 0 1 2.531 2.532v8.575a2.534 2.534 0 0 1-2.531 2.532ZM5.532 5.829c-.698 0-1.266.568-1.266 1.266v8.575c0 .698.568 1.266 1.266 1.266h6.044c.697 0 1.265-.568 1.265-1.266V7.095c0-.698-.568-1.266-1.265-1.266H5.532Zm11.107 8.26V4.531A2.534 2.534 0 0 0 14.107 2H7.082a.633.633 0 1 0 0 1.266h7.025c.698 0 1.266.568 1.266 1.266v9.556a.633.633 0 0 0 1.266.001Z" fill="#FF8A00"/></svg>
