<svg width="66.667" height="66.667" xmlns="http://www.w3.org/2000/svg"><defs><clipPath clipPathUnits="userSpaceOnUse" id="a"><path d="M0 50h50V0H0Z"/></clipPath></defs><g clip-path="url(#a)" transform="matrix(1.33333 0 0 -1.33333 0 66.667)"><path d="M0 0h-36.869c-3.049 0-5.529 2.78-5.529 6.197v30.592c0 3.417 2.48 6.197 5.529 6.197h7.42a.834.834 0 0 0 0-1.668h-7.42c-2.129 0-3.861-2.032-3.861-4.529V6.197c0-2.497 1.732-4.528 3.861-4.528H0c2.128 0 3.86 2.031 3.86 4.528v30.592c0 2.497-1.732 4.529-3.86 4.529h-7.42a.833.833 0 1 0 0 1.668H0c3.049 0 5.529-2.78 5.529-6.197V6.197C5.529 2.78 3.049 0 0 0" style="fill:#0098da;fill-opacity:1;fill-rule:nonzero;stroke:none" transform="translate(43.434 .149)"/><path d="M0 0c-.354 0-.71.113-1.009.346l-2.079 1.623a.83.83 0 1 0 1.021 1.307L.011 1.654l3.195 4.109a.828.828 0 1 0 1.307-1.021L1.298.63A1.645 1.645 0 0 0 0 0" style="fill:#0098da;fill-opacity:1;fill-rule:nonzero;stroke:none" transform="translate(24.359 38.94)"/><path d="M0 0a6.218 6.218 0 0 1-6.211-6.211A6.219 6.219 0 0 1 0-12.423a6.22 6.22 0 0 1 6.212 6.212A6.219 6.219 0 0 1 0 0m0-14.081c-4.339 0-7.87 3.53-7.87 7.87 0 4.339 3.531 7.87 7.87 7.87s7.869-3.531 7.869-7.87c0-4.34-3.53-7.87-7.869-7.87" style="fill:#0098da;fill-opacity:1;fill-rule:nonzero;stroke:none" transform="translate(25 48.192)"/><path d="M0 0h-22.146a.833.833 0 1 0 0 1.668H0A.834.834 0 1 0 0 0" style="fill:#0098da;fill-opacity:1;fill-rule:nonzero;stroke:none" transform="translate(43.28 26.43)"/><path d="M0 0h-22.146a.834.834 0 1 0 0 1.669H0A.834.834 0 1 0 0 0" style="fill:#0098da;fill-opacity:1;fill-rule:nonzero;stroke:none" transform="translate(43.28 20.872)"/><path d="M7.548 22.122h7.331v5.395H7.548Zm8.161-1.658h-8.99a.829.829 0 0 0-.829.829v7.053a.83.83 0 0 0 .829.829h8.99a.83.83 0 0 0 .829-.829v-7.053a.83.83 0 0 0-.829-.829" style="fill:#0098da;fill-opacity:1;fill-rule:nonzero;stroke:none"/><path d="M0 0h-22.146a.834.834 0 0 0 0 1.669H0A.834.834 0 1 0 0 0" style="fill:#0098da;fill-opacity:1;fill-rule:nonzero;stroke:none" transform="translate(28.865 13.738)"/><path d="M0 0h-22.146a.834.834 0 0 0 0 1.669H0A.834.834 0 1 0 0 0" style="fill:#0098da;fill-opacity:1;fill-rule:nonzero;stroke:none" transform="translate(28.865 8.18)"/><path d="M35.119 9.43h7.333v5.394h-7.333Zm8.162-1.658H34.29a.828.828 0 0 0-.828.829v7.052c0 .458.37.829.828.829h8.991a.829.829 0 0 0 .829-.829V8.601a.829.829 0 0 0-.829-.829" style="fill:#0098da;fill-opacity:1;fill-rule:nonzero;stroke:none"/></g></svg>