<svg width="54" height="32" fill="none" xmlns="http://www.w3.org/2000/svg"><path d="M53 30.1H30.37a.85.85 0 01-.87-.87V.88c0-.5.38-.87.88-.87h16.79c.25 0 .5.12.62.25l5.85 6.1c.12.12.25.37.25.62v22.27c0 .5-.38.87-.87.87zm-21.76-1.74h20.9V7.34l-5.35-5.6H31.24v26.62z" fill="#0098DA"/><path d="M36.7 16.17a.8.8 0 01-.74-.74v-5.35h-2.11a.8.8 0 01-.75-.75c0-.37.37-.62.75-.62h5.6a.8.8 0 01.74.74c0 .38-.37.63-.74.63h-2.12v5.35c0 .37-.25.74-.62.74zM48.4 10.2h-5.1a.8.8 0 01-.74-.75.8.8 0 01.74-.74h5.1a.8.8 0 01.75.74c0 .38-.25.75-.75.75zM48.53 13.19h-5.1a.8.8 0 01-.75-.75.8.8 0 01.75-.75h5.1a.8.8 0 01.75.75c0 .5-.38.75-.75.75zM48.53 16.3h-5.1a.8.8 0 01-.75-.75.8.8 0 01.75-.75h5.1a.8.8 0 01.75.75.8.8 0 01-.75.75zM49.02 19.4H34.6a.8.8 0 01-.74-.74.8.8 0 01.74-.75H48.9a.8.8 0 01.75.75c.12.37-.25.75-.63.75zM48.9 22.52H34.47a.8.8 0 01-.75-.75.8.8 0 01.75-.75h14.3a.8.8 0 01.75.75c0 .37-.24.75-.62.75zM48.9 25.5H34.47a.8.8 0 01-.75-.74.8.8 0 01.75-.75h14.3a.8.8 0 01.75.75c.13.5-.24.74-.62.74zM27.13 16.55L14.07 26.87c-.25.25-.62.13-.87-.12L.14 10.33c-.25-.25-.13-.63.12-.88l9.7-7.7c.13-.13.38-.13.5-.13l6.1.87c.12 0 .37.12.37.25l10.2 12.81c.25.37.25.75 0 1zM13.82 25.5l12.07-9.58-9.7-12.19-5.6-.74-9.09 7.09L13.82 25.5z" fill="#0098DA"/><path d="M11.33 15.92c-.25.13-.5.13-.74-.12l-2.5-3.11-1.24 1c-.25.12-.5.12-.74-.13-.13-.25-.13-.5.12-.75l3.24-2.6c.24 0 .5 0 .74.24.13.25.13.5-.12.75l-1.25 1 2.5 3.1c.24.13.12.5 0 .62zM15.31 7.1l-2.86 2.35a.77.77 0 01-.87-.12c-.12-.25-.12-.62.12-.75l2.99-2.36c.25-.25.62-.12.75.12.25.25.12.5-.13.75zM16.8 8.83l-2.98 2.37c-.25.25-.62.12-.75-.13-.25-.25-.12-.62.13-.74l2.98-2.37c.25-.25.63-.12.75.13s.12.5-.12.74zM18.17 10.57l-2.98 2.37c-.25.25-.62.12-.75-.13-.25-.25-.12-.62.13-.74l2.98-2.37c.25-.25.62-.12.75.13.12.25.12.62-.13.74zM19.91 12.2l-8.33 6.59c-.25.24-.62.12-.75-.13-.25-.25-.12-.62.13-.75l8.33-6.59c.25-.25.62-.12.75.13.12.12.12.5-.13.74zM21.29 14.06l-8.34 6.6c-.25.24-.62.12-.75-.13-.24-.25-.12-.63.13-.75l8.33-6.6c.25-.24.63-.12.75.13.12.13 0 .5-.12.75zM22.65 15.8l-8.33 6.6c-.25.24-.62.12-.75-.13-.25-.25-.12-.62.13-.75l8.33-6.6c.25-.24.62-.12.75.13.12.13.12.5-.13.75zM28.5 26.12l-1 4.6c-.12.38-.5.75-.99.63-.37-.12-.75-.5-.62-1l.75-3.85-3.99-.75c-.37-.12-.74-.5-.62-1 .13-.37.5-.74 1-.62l4.72 1c.25 0 .5.12.63.37.12.25.12.5.12.62z" fill="#0098DA"/><path d="M24.4 28.49a9.56 9.56 0 01-11.45 2.61 9.65 9.65 0 01-5.1-5.72c-.12-.5.12-.87.62-1.12.5-.13.87.12 1.12.62a7.72 7.72 0 004.1 4.73 8.02 8.02 0 009.46-2.12.96.96 0 011.25-.12c.12 0 .12.12.24.25 0 .12 0 .62-.24.87z" fill="#0098DA"/></svg>