<svg xmlns="http://www.w3.org/2000/svg" xml:space="preserve" width="66.667" height="71.337"><defs><clipPath clipPathUnits="userSpaceOnUse" id="a"><path d="M0 53.503h50V0H0Z"/></clipPath></defs><g clip-path="url(#a)" transform="matrix(1.33333 0 0 -1.33333 0 71.337)"><path d="M0 0h-12.651a.85.85 0 1 1 0-1.699H0A.85.85 0 1 1 0 0" style="fill:#0098da;fill-opacity:1;fill-rule:nonzero;stroke:none" transform="translate(21.427 20.215)"/><path d="M0 0h25.652a.848.848 0 1 1 0 1.699H0A.85.85 0 1 1 0 0" style="fill:#0098da;fill-opacity:1;fill-rule:nonzero;stroke:none" transform="translate(8.776 24.752)"/><path d="M0 0h25.652a.848.848 0 1 1 0 1.699H0A.85.85 0 1 1 0 0" style="fill:#0098da;fill-opacity:1;fill-rule:nonzero;stroke:none" transform="translate(8.776 30.988)"/><path d="M0 0a2.233 2.233 0 0 0-2.23-2.23h-12.283A2.232 2.232 0 0 0-16.742 0v10.737c0 1.23 1 2.231 2.229 2.231H-2.23A2.234 2.234 0 0 0 0 10.737zm-40.566 2.401a2.233 2.233 0 0 0-2.23 2.231v37.226c0 1.23 1 2.23 2.23 2.23h21.035v-6.639a5.85 5.85 0 0 1 5.843-5.843h6.639l.002-16.53c0-.152.05-.286.119-.409h-7.585a3.934 3.934 0 0 1-3.929-3.93V2.401Zm32.303 32.166c.368-.369.652-.798.857-1.262h-6.282a4.148 4.148 0 0 0-4.143 4.144v6.282a4.124 4.124 0 0 0 1.26-.855zm6.033-19.9h-3.237c.07.123.119.257.119.409l-.002 16.558a5.803 5.803 0 0 1-1.711 4.134l-8.308 8.311a5.812 5.812 0 0 1-4.131 1.71h-21.066a3.936 3.936 0 0 1-3.931-3.931V4.632a3.935 3.935 0 0 1 3.931-3.93h22.124V0a3.934 3.934 0 0 1 3.929-3.93H-2.23A3.934 3.934 0 0 1 1.699 0v10.737a3.934 3.934 0 0 1-3.929 3.93" style="fill:#0098da;fill-opacity:1;fill-rule:nonzero;stroke:none" transform="translate(46.6 5.266)"/><path d="m0 0-4.06-5.174-2.195 1.713A.85.85 0 0 1-7.3-4.801l2.196-1.714a1.716 1.716 0 0 1 2.4.295L1.34-1.047A.85.85 0 0 1 0 0" style="fill:#0098da;fill-opacity:1;fill-rule:nonzero;stroke:none" transform="translate(41.693 14.066)"/></g></svg>