<?xml version="1.0" encoding="UTF-8" standalone="no"?>
<!-- Created with Inkscape (http://www.inkscape.org/) -->

<svg
   xmlns:dc="http://purl.org/dc/elements/1.1/"
   xmlns:cc="http://creativecommons.org/ns#"
   xmlns:rdf="http://www.w3.org/1999/02/22-rdf-syntax-ns#"
   xmlns:svg="http://www.w3.org/2000/svg"
   xmlns="http://www.w3.org/2000/svg"
   xmlns:sodipodi="http://sodipodi.sourceforge.net/DTD/sodipodi-0.dtd"
   xmlns:inkscape="http://www.inkscape.org/namespaces/inkscape"
   version="1.1"
   id="svg340"
   xml:space="preserve"
   width="60"
   height="67.157066"
   viewBox="0 0 60 67.157066"
   sodipodi:docname="Deidentify free text documents.svg"
   inkscape:version="0.92.3 (2405546, 2018-03-11)"><metadata
     id="metadata346"><rdf:RDF><cc:Work
         rdf:about=""><dc:format>image/svg+xml</dc:format><dc:type
           rdf:resource="http://purl.org/dc/dcmitype/StillImage" /><dc:title></dc:title></cc:Work></rdf:RDF></metadata><defs
     id="defs344"><clipPath
       clipPathUnits="userSpaceOnUse"
       id="clipPath356"><path
         d="M 0,50.368 H 45 V 0 H 0 Z"
         id="path354"
         inkscape:connector-curvature="0" /></clipPath></defs><sodipodi:namedview
     pagecolor="#ffffff"
     bordercolor="#666666"
     borderopacity="1"
     objecttolerance="10"
     gridtolerance="10"
     guidetolerance="10"
     inkscape:pageopacity="0"
     inkscape:pageshadow="2"
     inkscape:window-width="697"
     inkscape:window-height="480"
     id="namedview342"
     showgrid="false"
     inkscape:zoom="3.5141499"
     inkscape:cx="30"
     inkscape:cy="33.578533"
     inkscape:window-x="0"
     inkscape:window-y="0"
     inkscape:window-maximized="0"
     inkscape:current-layer="g348" /><g
     id="g348"
     inkscape:groupmode="layer"
     inkscape:label="Deidentify free text documents"
     transform="matrix(1.3333333,0,0,-1.3333333,0,67.157067)"><g
       id="g350"><g
         id="g352"
         clip-path="url(#clipPath356)"><g
           id="g358"
           transform="translate(37.6006,23.4007)"><path
             d="m 0,0 h -8.775 c -0.406,0 -0.946,-0.404 -0.946,-0.945 0,-0.405 0.406,-0.946 0.946,-0.946 H 0 c 0.405,0 0.945,0.271 0.945,0.946 C 0.945,-0.54 0.541,0 0,0"
             style="fill:#ffffff;fill-opacity:1;fill-rule:nonzero;stroke:none"
             id="path360"
             inkscape:connector-curvature="0" /></g><g
           id="g362"
           transform="translate(37.6006,27.9588)"><path
             d="m 0,0 h -8.775 c -0.406,0 -0.946,-0.405 -0.946,-0.945 0,-0.406 0.406,-0.946 0.946,-0.946 H 0 c 0.405,0 0.945,0.27 0.945,0.946 C 0.945,-0.54 0.541,0 0,0"
             style="fill:#ffffff;fill-opacity:1;fill-rule:nonzero;stroke:none"
             id="path364"
             inkscape:connector-curvature="0" /></g><g
           id="g366"
           transform="translate(26.4776,32.4798)"><path
             d="m 0,0 h 11.123 c 0.405,0 0.945,0.27 0.945,0.945 0,0.405 -0.404,0.946 -0.945,0.946 H 0 C -0.405,1.891 -0.945,1.485 -0.945,0.945 -0.945,0.54 -0.54,0 0,0"
             style="fill:#ffffff;fill-opacity:1;fill-rule:nonzero;stroke:none"
             id="path368"
             inkscape:connector-curvature="0" /></g><g
           id="g370"
           transform="translate(37.6006,37.1229)"><path
             d="M 0,0 C 0.405,0 0.945,0.27 0.945,0.945 0.945,1.351 0.541,1.891 0,1.891 h -11.123 c -0.405,0 -0.945,-0.406 -0.945,-0.946 0,-0.405 0.405,-0.945 0.945,-0.945 z"
             style="fill:#ffffff;fill-opacity:1;fill-rule:nonzero;stroke:none"
             id="path372"
             inkscape:connector-curvature="0" /></g><g
           id="g374"
           transform="translate(37.6006,18.9447)"><path
             d="m 0,0 h -8.775 c -0.406,0 -0.946,-0.54 -0.946,-0.945 0,-0.406 0.406,-0.946 0.946,-0.946 H 0 c 0.405,0 0.945,0.54 0.945,0.946 C 0.945,-0.54 0.541,0 0,0"
             style="fill:#ffffff;fill-opacity:1;fill-rule:nonzero;stroke:none"
             id="path376"
             inkscape:connector-curvature="0" /></g><g
           id="g378"
           transform="translate(23.3868,26.617)"><path
             d="m 0,0 h -6.916 c -0.415,0 -0.968,-0.553 -0.968,-0.968 0,-0.415 0.415,-0.968 0.968,-0.968 h 2.49 v -5.947 c 0,-0.415 0.553,-0.968 0.968,-0.968 0.415,0 0.968,0.415 0.968,0.968 v 5.947 H 0 c 0.414,0 0.968,0.553 0.968,0.968 C 0.968,-0.553 0.553,0 0,0"
             style="fill:#ffffff;fill-opacity:1;fill-rule:nonzero;stroke:none"
             id="path380"
             inkscape:connector-curvature="0" /></g><g
           id="g382"
           transform="translate(13.107,11.8392)"><path
             d="m 0,0 c 0,-0.527 0.527,-0.922 0.921,-0.922 h 23.008 c 0.527,0 0.921,0.395 0.921,0.922 0,0.526 -0.394,0.921 -0.921,0.921 H 0.921 C 0.395,0.921 0,0.395 0,0"
             style="fill:#ffffff;fill-opacity:1;fill-rule:nonzero;stroke:none"
             id="path384"
             inkscape:connector-curvature="0" /></g><g
           id="g386"
           transform="translate(37.3428,8.304)"><path
             d="m 0,0 h -23.007 c -0.526,0 -0.921,-0.526 -0.921,-0.922 0,-0.394 0.526,-0.921 0.921,-0.921 H 0 c 0.527,0 0.922,0.395 0.922,0.921 C 0.922,-0.395 0.527,0 0,0"
             style="fill:#ffffff;fill-opacity:1;fill-rule:nonzero;stroke:none"
             id="path388"
             inkscape:connector-curvature="0" /></g><g
           id="g390"
           transform="translate(1.9078,36.764)"><path
             d="M 0,0 C 0,0 0.699,1.668 2.333,3.115 1.768,2.152 1.438,1.036 1.438,-0.158 1.438,-0.988 1.601,-1.78 1.886,-2.51 0.682,-1.219 0,0 0,0 m 15.872,0.137 c 0,0 -0.642,-1.094 -1.765,-2.318 0.209,0.637 0.327,1.316 0.327,2.023 0,1.12 -0.286,2.176 -0.788,3.097 1.512,-1.35 2.226,-2.802 2.226,-2.802 M 7.936,4.619 c 2.638,0 4.777,-2.139 4.777,-4.777 0,-2.639 -2.139,-4.778 -4.777,-4.778 -2.638,0 -4.777,2.139 -4.777,4.778 0,2.638 2.139,4.777 4.777,4.777 M 7.86,-7.238 c 5.662,0.065 9.343,6.243 9.497,6.506 l 0.464,0.794 -0.402,0.826 C 17.3,1.135 14.414,6.922 7.842,6.922 L 7.757,6.921 C 1.076,6.87 -1.482,0.916 -1.588,0.662 l -0.32,-0.768 0.403,-0.727 c 0.145,-0.262 3.613,-6.405 9.276,-6.405 z"
             style="fill:#ffffff;fill-opacity:1;fill-rule:nonzero;stroke:none"
             id="path392"
             inkscape:connector-curvature="0" /></g><g
           id="g394"
           transform="translate(9.6436,35.1434)"><path
             d="M 0,0 C 0.808,0 1.463,0.655 1.463,1.462 1.463,2.27 0.808,2.925 0,2.925 -0.808,2.925 -1.462,2.27 -1.462,1.462 -1.462,0.655 -0.808,0 0,0"
             style="fill:#ffffff;fill-opacity:1;fill-rule:nonzero;stroke:none"
             id="path396"
             inkscape:connector-curvature="0" /></g><g
           id="g398"
           transform="translate(44.7637,39.577)"><path
             d="m 0,0 -9.625,10.5 c -0.17,0.185 -0.41,0.291 -0.662,0.291 h -26.9 c -0.496,0 -0.898,-0.403 -0.898,-0.899 V 7.784 c 0,-0.496 0.402,-0.898 0.898,-0.898 0.497,0 0.899,0.402 0.899,0.898 v 1.209 h 25.605 l 9.122,-9.95 v -36.824 h -34.727 v 23.641 c 0,0.496 -0.402,0.898 -0.899,0.898 -0.496,0 -0.898,-0.402 -0.898,-0.898 v -24.539 c 0,-0.495 0.402,-0.898 0.898,-0.898 h 36.525 c 0.496,0 0.898,0.403 0.898,0.898 V -0.607 C 0.236,-0.383 0.152,-0.166 0,0"
             style="fill:#ffffff;fill-opacity:1;fill-rule:nonzero;stroke:none"
             id="path400"
             inkscape:connector-curvature="0" /></g></g></g></g></svg>