<?xml version="1.0" encoding="UTF-8" standalone="no"?>
<!-- Created with Inkscape (http://www.inkscape.org/) -->

<svg
   xmlns:dc="http://purl.org/dc/elements/1.1/"
   xmlns:cc="http://creativecommons.org/ns#"
   xmlns:rdf="http://www.w3.org/1999/02/22-rdf-syntax-ns#"
   xmlns:svg="http://www.w3.org/2000/svg"
   xmlns="http://www.w3.org/2000/svg"
   xmlns:sodipodi="http://sodipodi.sourceforge.net/DTD/sodipodi-0.dtd"
   xmlns:inkscape="http://www.inkscape.org/namespaces/inkscape"
   version="1.1"
   id="svg254"
   xml:space="preserve"
   width="60"
   height="64"
   viewBox="0 0 60 64"
   sodipodi:docname="Deidentify DICOM documents.svg"
   inkscape:version="0.92.3 (2405546, 2018-03-11)"><metadata
     id="metadata260"><rdf:RDF><cc:Work
         rdf:about=""><dc:format>image/svg+xml</dc:format><dc:type
           rdf:resource="http://purl.org/dc/dcmitype/StillImage" /><dc:title></dc:title></cc:Work></rdf:RDF></metadata><defs
     id="defs258"><clipPath
       clipPathUnits="userSpaceOnUse"
       id="clipPath270"><path
         d="M 0,48 H 45 V 0 H 0 Z"
         id="path268"
         inkscape:connector-curvature="0" /></clipPath></defs><sodipodi:namedview
     pagecolor="#ffffff"
     bordercolor="#666666"
     borderopacity="1"
     objecttolerance="10"
     gridtolerance="10"
     guidetolerance="10"
     inkscape:pageopacity="0"
     inkscape:pageshadow="2"
     inkscape:window-width="697"
     inkscape:window-height="480"
     id="namedview256"
     showgrid="false"
     inkscape:zoom="3.6875"
     inkscape:cx="30"
     inkscape:cy="32"
     inkscape:window-x="0"
     inkscape:window-y="0"
     inkscape:window-maximized="0"
     inkscape:current-layer="g262" /><g
     id="g262"
     inkscape:groupmode="layer"
     inkscape:label="Deidentify DICOM documents"
     transform="matrix(1.3333333,0,0,-1.3333333,0,64)"><g
       id="g264"><g
         id="g266"
         clip-path="url(#clipPath270)"><g
           id="g272"
           transform="translate(30.2901,19.1133)"><path
             d="m 0,0 v 17.529 c 0,0.537 -0.336,0.747 -0.671,0.747 -0.336,0 -0.671,-0.21 -0.671,-0.747 V 0 c 0,-0.536 0.335,-0.604 0.671,-0.604 0.335,0 0.56,0.068 0.671,0.604"
             style="fill:#0098da;fill-opacity:1;fill-rule:nonzero;stroke:none"
             id="path274"
             inkscape:connector-curvature="0" /></g><g
           id="g276"
           transform="translate(22.4927,34.979)"><path
             d="m 0,0 c -0.058,0 -0.117,-0.01 -0.177,-0.032 -0.327,-0.118 -0.595,-0.474 -0.475,-0.864 0.035,-0.146 0.806,-3.189 5.328,-3.987 0.382,0.008 0.595,0.311 0.686,0.485 -0.015,0.46 -0.207,0.733 -0.618,0.881 C 1.522,-2.885 0.68,-0.99 0.615,-0.526 0.519,-0.239 0.28,0 0,0"
             style="fill:#0098da;fill-opacity:1;fill-rule:nonzero;stroke:none"
             id="path278"
             inkscape:connector-curvature="0" /></g><g
           id="g280"
           transform="translate(20.128,30.3398)"><path
             d="m 0,0 c -0.228,-0.165 -0.726,-0.599 -0.43,-1.08 0.005,0 0.034,-0.047 0.101,-0.158 2.02,-3.324 4.727,-4.021 6.642,-4.021 0.312,0 0.606,0 0.887,0.152 l 0.105,0.026 c 0.354,0 0.591,0.424 0.591,0.82 0,0.383 -0.391,0.64 -0.756,0.64 C 4.721,-3.933 3.078,-2.919 2.133,-2.01 1.521,-1.422 1.086,-0.754 0.982,-0.442 0.819,-0.187 0.431,0.311 0,0"
             style="fill:#0098da;fill-opacity:1;fill-rule:nonzero;stroke:none"
             id="path282"
             inkscape:connector-curvature="0" /></g><g
           id="g284"
           transform="translate(27.0733,22.3018)"><path
             d="M 0,0 C -3.824,-0.229 -5.719,0.841 -6.636,1.781 -7.072,2.228 -7.292,2.66 -7.333,2.874 -7.456,3.25 -7.809,3.546 -8.188,3.412 -8.531,3.288 -8.813,2.922 -8.71,2.515 c 0.022,-0.037 0.044,-0.087 0.079,-0.16 1.535,-3.301 5.182,-3.994 7.97,-3.994 0.251,0 0.563,0 0.659,0.105 l 0.069,0.074 h 0.097 c 0.366,0 0.593,0.426 0.593,0.819 C 0.757,-0.258 0.365,0 0,0"
             style="fill:#0098da;fill-opacity:1;fill-rule:nonzero;stroke:none"
             id="path286"
             inkscape:connector-curvature="0" /></g><g
           id="g288"
           transform="translate(37.1631,34.9048)"><path
             d="m 0,0 c -0.344,0 -0.703,-0.249 -0.829,-0.484 -0.085,-0.479 -0.916,-2.254 -3.993,-2.861 -0.161,-0.06 -0.346,-0.197 -0.464,-0.357 -0.082,-0.111 -0.168,-0.282 -0.111,-0.465 0.088,-0.289 0.276,-0.633 0.669,-0.642 4.492,0.792 5.106,3.902 5.109,3.933 l 0.01,0.058 c 0.06,0.195 0.02,0.448 -0.101,0.63 C 0.244,-0.118 0.144,0 0,0"
             style="fill:#0098da;fill-opacity:1;fill-rule:nonzero;stroke:none"
             id="path290"
             inkscape:connector-curvature="0" /></g><g
           id="g292"
           transform="translate(39.1133,30.2563)"><path
             d="m 0,0 c -0.182,0.132 -0.36,0.175 -0.531,0.123 -0.163,-0.049 -0.32,-0.182 -0.451,-0.387 -0.104,-0.311 -0.539,-0.98 -1.151,-1.568 -0.945,-0.909 -2.592,-1.925 -5.034,-1.607 -0.338,-0.002 -0.729,-0.26 -0.729,-0.643 0,-0.396 0.238,-0.819 0.591,-0.819 h 0.992 c 3.927,0 5.894,2.694 6.541,3.58 0.083,0.114 0.143,0.196 0.195,0.252 C 0.522,-0.654 0.371,-0.268 0,0"
             style="fill:#0098da;fill-opacity:1;fill-rule:nonzero;stroke:none"
             id="path294"
             inkscape:connector-curvature="0" /></g><g
           id="g296"
           transform="translate(32.0958,22.3984)"><path
             d="m 0,0 -0.061,0.012 c -0.043,0.016 -0.085,0.022 -0.125,0.022 -0.112,0 -0.209,-0.053 -0.275,-0.105 -0.169,-0.132 -0.283,-0.362 -0.283,-0.571 l -0.012,-0.08 c -0.055,-0.179 0.012,-0.335 0.077,-0.434 0.122,-0.182 0.334,-0.305 0.528,-0.305 h 0.825 c 3.756,0 6.407,1.209 7.88,3.594 C 8.626,2.251 8.68,2.337 8.735,2.395 8.798,2.777 8.527,3.114 8.2,3.232 7.892,3.344 7.479,3.311 7.34,2.856 7.295,2.72 6.21,-0.36 0,0"
             style="fill:#0098da;fill-opacity:1;fill-rule:nonzero;stroke:none"
             id="path298"
             inkscape:connector-curvature="0" /></g><g
           id="g300"
           transform="translate(27.5714,34.9243)"><path
             d="M 0,0 0.126,0.004 C 0.3,0.004 0.531,0.201 0.685,0.469 0.497,0.834 0.262,1.106 0.126,1.106 L 0.087,1.11 C -2.016,1.489 -2.552,2.653 -2.728,3.036 -2.877,3.358 -3.147,3.611 -3.345,3.611 H -3.47 C -3.636,3.545 -3.745,3.457 -3.795,3.349 -3.849,3.232 -3.844,3.072 -3.782,2.872 -3.6,2.082 -2.582,0.494 0,0"
             style="fill:#0098da;fill-opacity:1;fill-rule:nonzero;stroke:none"
             id="path302"
             inkscape:connector-curvature="0" /></g><g
           id="g304"
           transform="translate(35.2276,38.5352)"><path
             d="M 0,0 H -0.165 C -0.459,0 -0.657,-0.178 -0.769,-0.542 -0.778,-0.589 -1.16,-2.125 -3.602,-2.502 -3.705,-2.504 -3.874,-2.596 -3.904,-2.65 v -0.106 l -0.06,-0.033 c -0.084,-0.089 -0.097,-0.164 -0.098,-0.471 0.123,-0.218 0.34,-0.347 0.593,-0.347 h 0.164 c 2.796,0.508 3.578,2.367 3.732,2.83 -0.001,0.324 -0.011,0.401 -0.097,0.493 v 0 C 0.238,-0.185 0.068,0 0,0"
             style="fill:#0098da;fill-opacity:1;fill-rule:nonzero;stroke:none"
             id="path306"
             inkscape:connector-curvature="0" /></g><g
           id="g308"
           transform="translate(1.9131,34.0566)"><path
             d="M 0,0 C 0,0 0.701,1.672 2.339,3.124 1.773,2.158 1.443,1.039 1.443,-0.159 1.443,-0.992 1.605,-1.785 1.891,-2.518 0.684,-1.223 0,0 0,0 m 15.917,0.137 c 0,0 -0.643,-1.096 -1.77,-2.325 0.21,0.639 0.328,1.32 0.328,2.029 0,1.124 -0.287,2.182 -0.789,3.106 1.516,-1.354 2.231,-2.81 2.231,-2.81 M 7.959,4.632 c 2.645,0 4.791,-2.145 4.791,-4.791 0,-2.646 -2.146,-4.791 -4.791,-4.791 -2.646,0 -4.791,2.145 -4.791,4.791 0,2.646 2.145,4.791 4.791,4.791 M 7.883,-7.259 c 5.678,0.065 9.369,6.261 9.523,6.525 l 0.466,0.795 -0.403,0.83 C 17.35,1.138 14.455,6.941 7.864,6.941 H 7.78 C 1.079,6.889 -1.486,0.917 -1.592,0.664 l -0.321,-0.77 0.404,-0.73 c 0.145,-0.262 3.623,-6.423 9.303,-6.423 z"
             style="fill:#0098da;fill-opacity:1;fill-rule:nonzero;stroke:none"
             id="path310"
             inkscape:connector-curvature="0" /></g><g
           id="g312"
           transform="translate(9.6714,32.4307)"><path
             d="M 0,0 C 0.81,0 1.467,0.657 1.467,1.467 1.467,2.277 0.81,2.934 0,2.934 -0.81,2.934 -1.467,2.277 -1.467,1.467 -1.467,0.657 -0.81,0 0,0"
             style="fill:#0098da;fill-opacity:1;fill-rule:nonzero;stroke:none"
             id="path314"
             inkscape:connector-curvature="0" /></g><g
           id="g316"
           transform="translate(13.105,3.7686)"><path
             d="m 0,0 c 0,-1.042 -0.488,-1.899 -1.939,-1.899 h -0.898 v 5.962 h 0.898 C -0.515,4.063 0,3.271 0,2.269 Z m -2.164,5.739 h -1.491 c -0.553,0 -1.028,-0.435 -1.028,-0.95 v -7.414 c 0,-0.515 0.475,-0.95 1.028,-0.95 h 1.491 c 2.995,0 4.011,1.716 4.011,3.575 v 2.269 c 0,1.835 -1.029,3.47 -4.011,3.47"
             style="fill:#0098da;fill-opacity:1;fill-rule:nonzero;stroke:none"
             id="path318"
             inkscape:connector-curvature="0" /></g><g
           id="g320"
           transform="translate(17.5777,9.6133)"><path
             d="m 0,0 c -0.515,0 -0.924,-0.396 -0.924,-0.845 v -7.849 c 0,-0.449 0.409,-0.845 0.924,-0.845 0.5,0 0.922,0.396 0.922,0.845 v 7.849 C 0.922,-0.396 0.5,0 0,0"
             style="fill:#0098da;fill-opacity:1;fill-rule:nonzero;stroke:none"
             id="path322"
             inkscape:connector-curvature="0" /></g><g
           id="g324"
           transform="translate(23.6319,8.0039)"><path
             d="m 0,0 c 0.422,0 0.765,-0.105 1.095,-0.317 l 0.132,-0.079 c 0.171,-0.106 0.263,-0.198 0.568,-0.198 0.501,0 0.87,0.369 0.87,0.792 0,0.765 -1.332,1.411 -2.73,1.411 -2.31,0 -3.365,-1.372 -3.365,-3.457 V -4.46 c 0,-2.084 1.055,-3.457 3.365,-3.457 1.398,0 2.73,0.647 2.73,1.413 0,0.422 -0.369,0.791 -0.87,0.791 -0.305,0 -0.397,-0.093 -0.568,-0.198 L 1.095,-5.99 C 0.765,-6.201 0.422,-6.307 0,-6.307 c -1.187,0 -1.583,0.713 -1.583,1.847 v 2.612 C -1.583,-0.713 -1.187,0 0,0"
             style="fill:#0098da;fill-opacity:1;fill-rule:nonzero;stroke:none"
             id="path326"
             inkscape:connector-curvature="0" /></g><g
           id="g328"
           transform="translate(32.5762,3.5439)"><path
             d="m 0,0 c 0,-1.056 -0.501,-1.794 -1.583,-1.794 -1.081,0 -1.583,0.738 -1.583,1.794 v 2.612 c 0,1.07 0.422,1.782 1.583,1.782 C -0.422,4.394 0,3.682 0,2.612 Z m -1.583,6.069 c -2.467,0 -3.43,-1.583 -3.43,-3.457 V 0 c 0,-1.926 1.148,-3.47 3.43,-3.47 2.282,0 3.431,1.544 3.431,3.47 v 2.612 c 0,1.874 -0.963,3.457 -3.431,3.457"
             style="fill:#0098da;fill-opacity:1;fill-rule:nonzero;stroke:none"
             id="path330"
             inkscape:connector-curvature="0" /></g><g
           id="g332"
           transform="translate(43.6719,9.6133)"><path
             d="m 0,0 c -0.369,0 -0.727,-0.119 -0.91,-0.502 l -2.35,-4.67 -2.347,4.657 C -5.778,-0.172 -6.108,0 -6.53,0 -7.071,0 -7.481,-0.37 -7.481,-0.87 v -7.837 c 0,-0.449 0.396,-0.832 0.898,-0.832 0.514,0 0.949,0.383 0.949,0.832 v 4.537 l 1.504,-2.955 c 0.172,-0.343 0.502,-0.5 0.858,-0.5 0.37,0 0.7,0.157 0.871,0.5 l 1.504,2.955 v -4.537 c 0,-0.449 0.435,-0.832 0.937,-0.832 0.487,0 0.909,0.383 0.909,0.832 V -0.87 C 0.949,-0.396 0.54,0 0,0"
             style="fill:#0098da;fill-opacity:1;fill-rule:nonzero;stroke:none"
             id="path334"
             inkscape:connector-curvature="0" /></g><g
           id="g336"
           transform="translate(44.1299,47.9258)"><path
             d="m 0,0 h -34.85 c -0.48,0 -0.87,-0.39 -0.87,-0.87 v -2.474 c 0,-0.481 0.39,-0.87 0.87,-0.87 0.481,0 0.871,0.389 0.871,0.87 V -1.74 H -0.87 v -31.075 h -33.109 v 8.161 c 0,0.48 -0.39,0.869 -0.871,0.869 -0.48,0 -0.87,-0.389 -0.87,-0.869 v -9.032 c 0,-0.48 0.39,-0.87 0.87,-0.87 H 0 c 0.48,0 0.87,0.39 0.87,0.87 V -0.87 C 0.87,-0.39 0.48,0 0,0"
             style="fill:#0098da;fill-opacity:1;fill-rule:nonzero;stroke:none"
             id="path338"
             inkscape:connector-curvature="0" /></g></g></g></g></svg>