<?xml version="1.0" encoding="utf-8"?>
<!-- Generator: Adobe Illustrator 22.0.1, SVG Export Plug-In . SVG Version: 6.00 Build 0)  -->
<svg version="1.1" id="Слой_1" xmlns="http://www.w3.org/2000/svg" xmlns:xlink="http://www.w3.org/1999/xlink" x="0px" y="0px"
	 viewBox="0 0 36 30" style="enable-background:new 0 0 36 30;" xml:space="preserve">
<style type="text/css">
	.st0{fill:#0098DA;}
</style>
<g>
	<path class="st0" d="M12.8,8.7c-0.3-0.4-2.1-2.5-4.2-2.5C6.7,6.2,5,7.9,4.4,8.7C4.2,8.9,4.1,9.1,4.1,9.3c0,0.2,0.1,0.5,0.2,0.6
		c0.6,0.8,2.2,2.5,4.2,2.5c2,0,3.6-1.8,4.2-2.5c0.2-0.2,0.2-0.4,0.2-0.6S13,8.9,12.8,8.7z M11.6,8.5c0.2,0.2,0.4,0.4,0.6,0.6
		c0.1,0.1,0.1,0.3,0,0.4c-0.2,0.2-0.4,0.5-0.6,0.6C11.8,9.6,11.8,9,11.6,8.5z M6.8,7.4C7.3,7,8,6.9,8.5,6.9c0.6,0,1.3,0.2,1.7,0.5
		c1,1.1,1,2.8,0,3.9c-0.5,0.4-1.3,0.5-1.8,0.6c-0.6,0-1.1-0.2-1.7-0.5C5.8,10.2,5.8,8.5,6.8,7.4z M5.5,10.1C5.3,9.9,5.1,9.7,4.9,9.5
		c0,0,0-0.2,0-0.3c0.2-0.2,0.4-0.5,0.6-0.7C5.3,9,5.3,9.6,5.5,10.1z"/>
	<path class="st0" d="M10.2,9.3c0-0.9-0.8-1.6-1.6-1.6C7.7,7.7,7,8.4,7,9.3c0,0.9,0.7,1.6,1.6,1.6S10.2,10.2,10.2,9.3z M8.6,8.4
		c0.5,0,0.9,0.4,0.9,0.9s-0.4,0.9-0.9,0.9S7.7,9.8,7.7,9.3S8.1,8.4,8.6,8.4z"/>
</g>
<g>
	<path class="st0" d="M19.5,18.3c-0.3,0-0.6-0.3-0.6-0.6V7.9c0-0.3,0.3-0.6,0.6-0.6c0.3,0,0.6,0.3,0.6,0.6v9.8
		C20,18,19.8,18.3,19.5,18.3z"/>
	<path class="st0" d="M18,11.3C18,11.3,17.9,11.3,18,11.3c-3.1-0.5-3.6-2.5-3.6-2.5c-0.1-0.3,0.1-0.6,0.4-0.7
		c0.3-0.1,0.6,0.1,0.7,0.4c0,0.1,0.4,1.3,2.6,1.7c0.3,0.1,0.5,0.3,0.5,0.7C18.5,11.1,18.3,11.3,18,11.3z"/>
	<path class="st0" d="M17.5,13.6c-2.9,0-4.1-2.3-4.2-2.4c-0.2-0.3,0-0.6,0.3-0.8c0.3-0.2,0.6,0,0.8,0.3c0,0.1,1.1,2,3.6,1.7
		c0.3,0,0.6,0.2,0.6,0.5c0,0.3-0.2,0.6-0.5,0.6C17.9,13.6,17.7,13.6,17.5,13.6z"/>
	<path class="st0" d="M17.5,15.6c-4.2,0-4.9-2.3-5-2.4c-0.1-0.3,0.1-0.6,0.4-0.7c0.3-0.1,0.6,0.1,0.7,0.4c0,0.1,0.7,1.7,4.3,1.5
		c0.3,0,0.6,0.2,0.6,0.5c0,0.3-0.2,0.6-0.5,0.6C17.9,15.6,17.7,15.6,17.5,15.6z"/>
	<path class="st0" d="M21,11.3c-0.3,0-0.5-0.2-0.6-0.5c-0.1-0.3,0.2-0.6,0.5-0.7c2.2-0.4,2.6-1.6,2.6-1.7C23.6,8.2,23.9,8,24.2,8
		s0.5,0.4,0.4,0.7C24.6,8.8,24.1,10.8,21,11.3C21.1,11.3,21,11.3,21,11.3z"/>
	<path class="st0" d="M21.5,13.6c-0.2,0-0.4,0-0.6,0c-0.3,0-0.5-0.3-0.5-0.6c0-0.3,0.3-0.5,0.6-0.5c2.5,0.3,3.6-1.6,3.6-1.7
		c0.2-0.3,0.5-0.4,0.8-0.2c0.3,0.2,0.4,0.5,0.3,0.8C25.6,11.4,24.4,13.6,21.5,13.6z"/>
	<path class="st0" d="M21.5,15.6c-0.2,0-0.3,0-0.5,0c-0.3,0-0.6-0.3-0.5-0.6c0-0.3,0.3-0.6,0.6-0.5c3.7,0.2,4.3-1.5,4.3-1.5
		c0.1-0.3,0.4-0.4,0.7-0.3c0.3,0.1,0.5,0.4,0.4,0.7C26.4,13.3,25.7,15.6,21.5,15.6z"/>
</g>
<g>
	<path class="st0" d="M12.1,24.5C12.1,24.5,12.1,24.5,12.1,24.5c-0.2-0.4-0.5-0.7-0.9-0.9c-0.4-0.2-0.8-0.3-1.3-0.3H8.9
		c-0.1,0-0.2,0-0.3,0.1c-0.1,0.1-0.1,0.2-0.1,0.3v4.1c0,0.1,0,0.2,0.1,0.3c0.1,0.1,0.2,0.1,0.3,0.1H10c0.5,0,0.9-0.1,1.3-0.3
		c0.4-0.2,0.7-0.5,0.9-0.9c0,0,0,0,0,0c0,0,0,0,0,0c0.2-0.4,0.3-0.8,0.3-1.2S12.3,24.9,12.1,24.5C12.1,24.5,12.1,24.5,12.1,24.5z
		 M11.4,26.6c-0.1,0.3-0.3,0.5-0.6,0.6c-0.2,0.1-0.5,0.2-0.8,0.2H9.3v-3.4H10c0.3,0,0.6,0.1,0.8,0.2c0.2,0.1,0.4,0.3,0.6,0.6
		c0.1,0.3,0.2,0.5,0.2,0.9C11.6,26,11.5,26.3,11.4,26.6z"/>
	<path class="st0" d="M15.9,24.9c0.1-0.3,0.3-0.5,0.6-0.6c0.2-0.2,0.5-0.2,0.8-0.2c0.2,0,0.4,0,0.6,0.1c0.1,0.1,0.3,0.2,0.5,0.3
		c0.1,0.1,0.2,0.1,0.3,0.1c0.1,0,0.2,0,0.3-0.1c0.1-0.1,0.1-0.1,0.1-0.2c0,0,0,0,0,0c0-0.1,0-0.1,0-0.1c0,0,0,0,0,0c0,0,0,0,0,0
		c0-0.1-0.1-0.1-0.1-0.2c-0.2-0.2-0.5-0.3-0.7-0.4c-0.2-0.1-0.5-0.1-0.8-0.1c-0.4,0-0.9,0.1-1.2,0.3c-0.4,0.2-0.7,0.5-0.9,0.9
		c-0.2,0.4-0.3,0.8-0.3,1.3c0,0.5,0.1,0.9,0.3,1.3c0.2,0.4,0.5,0.7,0.9,0.9c0.4,0.2,0.8,0.3,1.2,0.3c0.6,0,1.1-0.2,1.5-0.6
		c0.1-0.1,0.1-0.2,0.1-0.3c0,0,0,0,0-0.1c0-0.1,0-0.2-0.1-0.2c0,0,0,0,0,0c0,0,0-0.1,0-0.1C18.8,27,18.7,27,18.6,27
		c-0.1,0-0.2,0-0.3,0.1c-0.3,0.2-0.7,0.4-1,0.4c-0.3,0-0.6-0.1-0.8-0.2c-0.2-0.2-0.4-0.4-0.6-0.6c-0.1-0.3-0.2-0.6-0.2-0.9
		C15.7,25.4,15.8,25.1,15.9,24.9z"/>
	<path class="st0" d="M24.3,24.5C24.3,24.5,24.3,24.4,24.3,24.5c-0.2-0.4-0.5-0.7-0.9-0.9c-0.4-0.2-0.8-0.3-1.3-0.3
		c-0.5,0-0.9,0.1-1.3,0.3c-0.4,0.2-0.7,0.5-0.9,0.9c-0.2,0.4-0.3,0.8-0.3,1.3s0.1,0.9,0.3,1.3c0.2,0.4,0.5,0.7,0.9,0.9
		c0.4,0.2,0.8,0.3,1.3,0.3s0.9-0.1,1.3-0.3c0.4-0.2,0.7-0.5,0.9-0.9c0,0,0,0,0,0c0,0,0,0,0,0c0.2-0.4,0.3-0.8,0.3-1.2
		S24.5,24.9,24.3,24.5C24.3,24.5,24.3,24.5,24.3,24.5z M23.5,26.6c-0.1,0.3-0.3,0.5-0.6,0.6c-0.3,0.2-0.5,0.2-0.9,0.2
		c-0.3,0-0.6-0.1-0.9-0.2c-0.2-0.1-0.4-0.4-0.6-0.6c-0.1-0.3-0.2-0.6-0.2-0.9c0-0.3,0.1-0.6,0.2-0.9c0.1-0.3,0.3-0.5,0.6-0.6
		c0.3-0.1,0.5-0.2,0.9-0.2c0.3,0,0.6,0.1,0.9,0.2c0.3,0.1,0.4,0.4,0.6,0.6c0.1,0.3,0.2,0.6,0.2,0.9S23.7,26.3,23.5,26.6z"/>
	<path class="st0" d="M13.9,23.4c-0.1-0.1-0.2-0.1-0.3-0.1c-0.1,0-0.2,0-0.3,0.1c-0.1,0.1-0.1,0.2-0.1,0.3v4.1c0,0.1,0,0.2,0.1,0.3
		c0.1,0.1,0.2,0.1,0.3,0.1c0.1,0,0.2,0,0.3-0.1C14,28,14,27.9,14,27.8c0,0,0,0,0-0.1v-4.1c0,0,0,0,0-0.1C14,23.5,14,23.5,13.9,23.4z
		"/>
	<path class="st0" d="M30.2,23.4c-0.1-0.1-0.2-0.1-0.3-0.1c-0.2,0-0.3,0.1-0.4,0.2l-1.6,3.4l-1.7-3.4c-0.1-0.1-0.2-0.2-0.4-0.2
		c-0.1,0-0.2,0-0.3,0.1c-0.1,0.1-0.1,0.2-0.1,0.3v4.1c0,0.1,0,0.2,0.1,0.3c0.1,0.1,0.2,0.1,0.3,0.1s0.2,0,0.3-0.1
		c0.1-0.1,0.1-0.2,0.1-0.3v-2.4l1.2,2.4c0.1,0.2,0.2,0.3,0.4,0.3c0.1,0,0.3-0.1,0.4-0.2l1.2-2.5v2.5c0,0.1,0,0.2,0.1,0.3
		c0.1,0.1,0.2,0.1,0.3,0.1c0.1,0,0.2,0,0.3-0.1c0.1-0.1,0.1-0.2,0.1-0.3v-4.1C30.3,23.6,30.3,23.5,30.2,23.4z"/>
</g>
<path class="st0" d="M29.8,0.8H8.6c-0.4,0-0.7,0.3-0.7,0.7v3.7h0v0.1c0,0.4,0.3,0.7,0.7,0.7s0.7-0.3,0.7-0.7V5.1l0-3h19.8v18H9.3
	v-6.4h0v-0.1C9.3,13.3,9,13,8.6,13c-0.4,0-0.7,0.3-0.7,0.7v0.1v7.1c0,0.4,0.3,0.7,0.7,0.7h21.2c0.4,0,0.7-0.3,0.7-0.7V1.5
	C30.5,1.1,30.2,0.8,29.8,0.8z"/>
<path class="st0" d="M18.3,8.9C18.3,8.9,18.2,8.9,18.3,8.9c-2-0.3-2.4-1.6-2.4-1.7c0-0.2,0.1-0.4,0.3-0.5c0.2,0,0.4,0.1,0.5,0.3
	c0,0,0.3,0.9,1.7,1.1c0.2,0,0.3,0.2,0.3,0.4C18.6,8.8,18.5,8.9,18.3,8.9z"/>
<g>
	<path class="st0" d="M18.4,8.1c-1.2-0.2-1.5-0.8-1.6-1c-0.1-0.2-0.3-0.4-0.5-0.4l-0.1,0l0,0c-0.3,0.1-0.4,0.3-0.3,0.6
		c0.1,0.4,0.7,1.4,2.4,1.7h0.1c0.2,0,0.4-0.2,0.5-0.4C18.8,8.4,18.6,8.1,18.4,8.1z"/>
	<path class="st0" d="M23,6.9c-0.1-0.1-0.2-0.2-0.3-0.2l-0.1,0c-0.2,0-0.4,0.1-0.5,0.4c0,0-0.2,0.8-1.6,1c-0.1,0-0.3,0.1-0.3,0.2
		c-0.1,0.1-0.1,0.2-0.1,0.4C20.2,8.9,20.4,9,20.6,9l0.1,0c1.8-0.3,2.3-1.4,2.4-1.7C23.1,7.1,23.1,7,23,6.9z"/>
</g>
<path class="st0" d="M20.6,8.9c-0.2,0-0.3-0.1-0.4-0.3c0-0.2,0.1-0.4,0.3-0.4C22,7.9,22.2,7.1,22.2,7c0.1-0.2,0.3-0.3,0.5-0.3
	S23,7,23,7.2C23,7.3,22.6,8.6,20.6,8.9C20.6,8.9,20.6,8.9,20.6,8.9z"/>
</svg>
