<?xml version="1.0" encoding="UTF-8" standalone="no"?>
<!-- Created with Inkscape (http://www.inkscape.org/) -->

<svg
   xmlns:dc="http://purl.org/dc/elements/1.1/"
   xmlns:cc="http://creativecommons.org/ns#"
   xmlns:rdf="http://www.w3.org/1999/02/22-rdf-syntax-ns#"
   xmlns:svg="http://www.w3.org/2000/svg"
   xmlns="http://www.w3.org/2000/svg"
   xmlns:sodipodi="http://sodipodi.sourceforge.net/DTD/sodipodi-0.dtd"
   xmlns:inkscape="http://www.inkscape.org/namespaces/inkscape"
   version="1.1"
   id="svg4147"
   xml:space="preserve"
   width="60"
   height="64"
   viewBox="0 0 60 64"
   sodipodi:docname="Deidentify structured data.svg"
   inkscape:version="0.92.3 (2405546, 2018-03-11)"><metadata
     id="metadata4153"><rdf:RDF><cc:Work
         rdf:about=""><dc:format>image/svg+xml</dc:format><dc:type
           rdf:resource="http://purl.org/dc/dcmitype/StillImage" /><dc:title></dc:title></cc:Work></rdf:RDF></metadata><defs
     id="defs4151"><clipPath
       clipPathUnits="userSpaceOnUse"
       id="clipPath4163"><path
         d="M 0,48 H 45 V 0 H 0 Z"
         id="path4161"
         inkscape:connector-curvature="0" /></clipPath></defs><sodipodi:namedview
     pagecolor="#ffffff"
     bordercolor="#666666"
     borderopacity="1"
     objecttolerance="10"
     gridtolerance="10"
     guidetolerance="10"
     inkscape:pageopacity="0"
     inkscape:pageshadow="2"
     inkscape:window-width="697"
     inkscape:window-height="480"
     id="namedview4149"
     showgrid="false"
     inkscape:zoom="3.6875"
     inkscape:cx="30"
     inkscape:cy="32"
     inkscape:window-x="0"
     inkscape:window-y="0"
     inkscape:window-maximized="0"
     inkscape:current-layer="g4155" /><g
     id="g4155"
     inkscape:groupmode="layer"
     inkscape:label="Deidentify structured data"
     transform="matrix(1.3333333,0,0,-1.3333333,0,64)"><g
       id="g4157"><g
         id="g4159"
         clip-path="url(#clipPath4163)"><g
           id="g4165"
           transform="translate(41.4004,21.7305)"><path
             d="m 0,0 c -0.301,-0.12 -0.641,-0.19 -0.99,-0.19 -0.25,0 -0.5,0.04 -0.731,0.11 -1.08,0.309 -1.88,1.309 -1.88,2.499 0,1.17 0.781,2.17 1.84,2.491 0.25,0.08 0.5,0.119 0.771,0.119 0.34,0 0.66,-0.059 0.95,-0.179 C 0.93,4.47 1.619,3.52 1.619,2.419 1.619,1.33 0.949,0.399 0,0 m -3.891,-6.37 c -0.67,0.39 -1.439,0.609 -2.269,0.609 -2.51,0 -4.55,-2.04 -4.55,-4.55 0,-0.839 0.23,-1.629 0.63,-2.299 -1.351,-0.811 -2.82,-1.42 -4.38,-1.821 -0.58,1.861 -2.311,3.201 -4.36,3.201 -2.05,0 -3.781,-1.34 -4.36,-3.201 -1.57,0.401 -3.06,1.031 -4.421,1.84 0.391,0.66 0.611,1.431 0.611,2.25 0,2.49 -2.031,4.521 -4.52,4.521 -0.81,0 -1.571,-0.21 -2.23,-0.59 -0.781,1.34 -1.39,2.79 -1.79,4.33 1.86,0.58 3.21,2.3 3.21,4.35 0,2.049 -1.35,3.77 -3.21,4.35 0.42,1.609 1.07,3.13 1.91,4.529 0.63,-0.339 1.349,-0.529 2.11,-0.529 2.489,0 4.52,2.02 4.52,4.52 0,0.739 -0.18,1.44 -0.5,2.049 1.36,0.801 2.84,1.42 4.4,1.811 0.59,-1.791 2.279,-3.081 4.27,-3.081 1.99,0 3.67,1.29 4.269,3.081 1.571,-0.4 3.061,-1.021 4.431,-1.831 -0.38,-0.659 -0.59,-1.419 -0.59,-2.239 0,-2.511 2.04,-4.551 4.55,-4.551 0.819,0 1.58,0.21 2.24,0.591 0.76,-1.301 1.359,-2.71 1.76,-4.2 C -4.08,6.26 -5.5,4.5 -5.5,2.419 c 0,-2.109 1.449,-3.88 3.409,-4.369 -0.389,-1.571 -1,-3.061 -1.8,-4.42 m 0.361,-3.941 c 0,-1.45 -1.18,-2.629 -2.63,-2.629 -0.37,0 -0.731,0.08 -1.05,0.219 -0.551,0.241 -0.99,0.66 -1.27,1.181 -0.201,0.369 -0.31,0.79 -0.31,1.229 0,1.451 1.18,2.63 2.63,2.63 0.439,0 0.849,-0.109 1.22,-0.299 0.53,-0.281 0.94,-0.72 1.179,-1.27 0.151,-0.33 0.231,-0.681 0.231,-1.061 m -15.29,-8.15 c -1.21,0 -2.241,0.82 -2.55,1.94 -0.07,0.231 -0.1,0.46 -0.1,0.71 0,0.35 0.07,0.68 0.19,0.991 0.4,0.969 1.35,1.66 2.46,1.66 1.11,0 2.059,-0.691 2.46,-1.66 0.12,-0.311 0.19,-0.641 0.19,-0.991 0,-0.25 -0.03,-0.479 -0.101,-0.71 -0.309,-1.12 -1.339,-1.94 -2.549,-1.94 m -12.69,5.5 c -1.44,0 -2.62,1.171 -2.62,2.62 0,0.391 0.08,0.761 0.25,1.091 0.239,0.539 0.67,0.979 1.2,1.239 0.349,0.181 0.75,0.281 1.17,0.281 1.44,0 2.61,-1.17 2.61,-2.611 0,-0.43 -0.1,-0.84 -0.28,-1.189 -0.27,-0.531 -0.711,-0.95 -1.25,-1.191 -0.33,-0.16 -0.69,-0.24 -1.08,-0.24 m -6.11,12.711 c -1.08,0.329 -1.87,1.329 -1.87,2.52 0,1.189 0.79,2.189 1.87,2.52 0.24,0.069 0.5,0.109 0.76,0.109 0.33,0 0.65,-0.06 0.95,-0.179 0.98,-0.381 1.68,-1.341 1.68,-2.45 0,-1.111 -0.7,-2.071 -1.68,-2.451 -0.3,-0.12 -0.62,-0.179 -0.95,-0.179 -0.26,0 -0.52,0.04 -0.76,0.11 m 3.49,15.39 c 0,1.44 1.18,2.61 2.62,2.61 0.469,0 0.9,-0.121 1.28,-0.331 0.51,-0.29 0.91,-0.739 1.14,-1.29 0.12,-0.299 0.19,-0.639 0.19,-0.989 0,-1.44 -1.17,-2.62 -2.61,-2.62 -0.37,0 -0.71,0.069 -1.031,0.22 -0.54,0.23 -0.989,0.63 -1.259,1.15 -0.21,0.37 -0.33,0.799 -0.33,1.25 m 15.31,7.889 c 1.219,0 2.24,-0.84 2.53,-1.96 0.05,-0.199 0.08,-0.42 0.08,-0.639 0,-0.381 -0.08,-0.741 -0.23,-1.06 -0.411,-0.92 -1.321,-1.551 -2.38,-1.551 -1.06,0 -1.971,0.631 -2.38,1.551 -0.151,0.319 -0.23,0.679 -0.23,1.06 0,0.219 0.03,0.44 0.079,0.639 0.29,1.12 1.31,1.96 2.531,1.96 M -6.16,17.56 c 1.45,0 2.63,-1.181 2.63,-2.63 0,-0.401 -0.09,-0.77 -0.25,-1.111 -0.25,-0.54 -0.68,-0.98 -1.21,-1.239 -0.351,-0.181 -0.75,-0.281 -1.17,-0.281 -1.45,0 -2.63,1.18 -2.63,2.631 0,0.42 0.1,0.82 0.279,1.17 0.261,0.529 0.7,0.96 1.24,1.21 0.34,0.16 0.71,0.25 1.111,0.25 M -0.431,6.89 c -0.46,1.86 -1.2,3.61 -2.17,5.21 v 0.009 c 0.621,0.781 0.991,1.75 0.991,2.821 0,2.52 -2.04,4.549 -4.55,4.549 -1.07,0 -2.04,-0.37 -2.82,-0.989 h -0.01 c -1.641,1 -3.43,1.75 -5.34,2.21 -0.141,2.36 -2.09,4.23 -4.49,4.23 -2.4,0 -4.36,-1.87 -4.5,-4.23 -1.87,-0.46 -3.63,-1.19 -5.241,-2.151 -0.79,0.691 -1.819,1.111 -2.949,1.111 -2.5,0 -4.52,-2.031 -4.52,-4.52 0,-1.111 0.4,-2.13 1.06,-2.92 -1.02,-1.66 -1.801,-3.48 -2.27,-5.43 -2.33,-0.19 -4.16,-2.141 -4.16,-4.52 0,-2.38 1.83,-4.331 4.16,-4.52 0.46,-1.891 1.199,-3.671 2.19,-5.29 -0.61,-0.771 -0.98,-1.74 -0.98,-2.801 0,-2.5 2.02,-4.519 4.52,-4.519 1.05,0 2.01,0.36 2.77,0.96 1.639,-1 3.429,-1.771 5.349,-2.241 0.171,-2.38 2.151,-4.25 4.571,-4.25 2.42,0 4.4,1.87 4.57,4.25 1.899,0.47 3.689,1.231 5.319,2.22 0.771,-0.59 1.721,-0.939 2.771,-0.939 2.51,0 4.55,2.03 4.55,4.549 0,1.05 -0.361,2.021 -0.96,2.79 1.009,1.68 1.759,3.521 2.21,5.481 2.19,0.3 3.88,2.18 3.88,4.459 0,2.301 -1.72,4.201 -3.951,4.471"
             style="fill:#0098da;fill-opacity:1;fill-rule:nonzero;stroke:none"
             id="path4167"
             inkscape:connector-curvature="0" /></g><g
           id="g4169"
           transform="translate(28.6631,21.5957)"><path
             d="m 0,0 c 0.297,0.767 0.467,1.596 0.467,2.466 0,1.351 -0.399,2.608 -1.075,3.67 C 1.289,4.598 2.176,2.785 2.176,2.785 2.176,2.785 1.377,1.432 0,0 m -14.957,2.638 c 0,0 0.862,2.048 2.891,3.67 -0.745,-1.097 -1.181,-2.419 -1.181,-3.842 0,-1.023 0.231,-1.99 0.635,-2.863 -1.496,1.507 -2.345,3.035 -2.345,3.035 M -6.39,-2.69 c -2.848,0 -5.157,2.308 -5.157,5.156 0,2.848 2.309,5.157 5.157,5.157 2.848,0 5.157,-2.309 5.157,-5.157 0,-2.848 -2.309,-5.156 -5.157,-5.156 M -6.492,9.952 h -0.001 -0.089 c -7.11,-0.055 -9.832,-6.391 -9.944,-6.66 l -0.316,-0.759 0.398,-0.719 c 0.155,-0.279 3.854,-6.834 9.876,-6.834 l 0.093,10e-4 C -0.45,-4.95 3.479,1.646 3.644,1.926 L 4.103,2.71 3.705,3.528 C 3.578,3.79 0.505,9.952 -6.492,9.952"
             style="fill:#0098da;fill-opacity:1;fill-rule:nonzero;stroke:none"
             id="path4171"
             inkscape:connector-curvature="0" /></g><g
           id="g4173"
           transform="translate(22.2729,25.4248)"><path
             d="m 0,0 c -0.753,0 -1.363,-0.61 -1.363,-1.363 0,-0.752 0.61,-1.363 1.363,-1.363 0.752,0 1.363,0.611 1.363,1.363 C 1.363,-0.61 0.752,0 0,0"
             style="fill:#0098da;fill-opacity:1;fill-rule:nonzero;stroke:none"
             id="path4175"
             inkscape:connector-curvature="0" /></g></g></g></g></svg>