<svg xmlns="http://www.w3.org/2000/svg" xml:space="preserve" width="66.667" height="71.337"><defs><clipPath clipPathUnits="userSpaceOnUse" id="a"><path d="M0 53.503h50V0H0Z"/></clipPath></defs><g clip-path="url(#a)" transform="matrix(1.33333 0 0 -1.33333 0 71.337)"><path d="M0 0a2.156 2.156 0 0 1-2.153-2.153v-9.389c0-1.187.966-2.153 2.153-2.153h13.771c1.187 0 2.153.966 2.153 2.153v9.389A2.156 2.156 0 0 1 13.771 0Zm13.771-15.328H0a3.791 3.791 0 0 0-3.786 3.786v9.389A3.791 3.791 0 0 0 0 1.633h13.771a3.791 3.791 0 0 0 3.786-3.786v-9.389a3.791 3.791 0 0 0-3.786-3.786" style="fill:#0098da;fill-opacity:1;fill-rule:nonzero;stroke:none" transform="translate(31.061 21.538)"/><path d="M0 0h-.062c-4.855-.037-6.713-4.365-6.791-4.549l-.251-.602.317-.572c.104-.189 2.617-4.64 6.736-4.64h.065c4.115.047 6.78 4.52 6.892 4.711l.365.622-.316.649C6.868-4.202 4.772 0 0 0m0-1.35c3.982 0 5.741-3.621 5.741-3.621S3.397-8.975-.001-9.014h-.05c-3.371 0-5.555 3.946-5.555 3.946S-4.07-1.381-.051-1.35H0" style="fill:#0098da;fill-opacity:1;fill-rule:nonzero;stroke:none" transform="translate(37.88 19.872)"/><path d="M0 0a4.097 4.097 0 0 1-4.092-4.092A4.097 4.097 0 0 1 0-8.184a4.096 4.096 0 0 1 4.091 4.092A4.096 4.096 0 0 1 0 0m0-1.351a2.74 2.74 0 1 0 0-5.482A2.74 2.74 0 0 0 0-1.35" style="fill:#0098da;fill-opacity:1;fill-rule:nonzero;stroke:none" transform="translate(37.947 18.782)"/><path d="M0 0a1.354 1.354 0 1 0-2.709 0A1.354 1.354 0 0 0 0 0" style="fill:#0098da;fill-opacity:1;fill-rule:nonzero;stroke:none" transform="translate(39.3 14.69)"/><path d="M0 0h-30.167c-2.089 0-3.79 1.7-3.79 3.789v31.002a.82.82 0 0 0 1.64 0V3.789c0-1.185.964-2.15 2.15-2.15H0c1.185 0 2.149.965 2.149 2.15v.977a.819.819 0 1 0 1.638 0v-.977A3.792 3.792 0 0 0 0 0" style="fill:#0098da;fill-opacity:1;fill-rule:nonzero;stroke:none" transform="translate(39.358 2.216)"/><path d="M0 0a.818.818 0 0 0-.819.819v11.584a3.966 3.966 0 0 1-1.171 2.826l-8.011 8.013a3.968 3.968 0 0 1-2.823 1.169h-7.778a.82.82 0 0 0 0 1.639h7.778a5.6 5.6 0 0 0 3.982-1.649l8.011-8.012a5.598 5.598 0 0 0 1.649-3.986V.819A.818.818 0 0 0 0 0" style="fill:#0098da;fill-opacity:1;fill-rule:nonzero;stroke:none" transform="translate(42.327 22.53)"/><path d="M0 0h-7.156a5.64 5.64 0 0 0-5.633 5.633v7.156a.819.819 0 1 0 1.639 0V5.633A3.998 3.998 0 0 1-7.156 1.64H0A.82.82 0 0 0 0 0" style="fill:#0098da;fill-opacity:1;fill-rule:nonzero;stroke:none" transform="translate(42.261 34.905)"/><path d="M0 0h1.442v2.21c0 .489.396.886.886.886h2.327v1.323H2.328a.884.884 0 0 0-.886.886v2.209H0V5.305a.884.884 0 0 0-.886-.886h-2.328V3.096h2.328c.49 0 .886-.397.886-.886Zm1.524-1.772H-.083c-.931 0-1.689.745-1.689 1.66v1.435h-1.524c-.932 0-1.69.745-1.69 1.66V4.53c0 .915.758 1.66 1.69 1.66h1.524v1.436c0 .915.758 1.66 1.689 1.66h1.607c.932 0 1.69-.745 1.69-1.66V6.19h1.524c.932 0 1.69-.745 1.69-1.66V2.983c0-.915-.758-1.66-1.69-1.66H3.214V-.112c0-.915-.758-1.66-1.69-1.66" style="fill:#0098da;fill-opacity:1;fill-rule:nonzero;stroke:none" transform="translate(15.717 21.727)"/><path d="M0 0h-4.43a.819.819 0 1 0 0 1.64H0A.82.82 0 0 0 0 0" style="fill:#0098da;fill-opacity:1;fill-rule:nonzero;stroke:none" transform="translate(38.892 25.624)"/><path d="M0 0h-9.447a.82.82 0 1 0 0 1.639H0A.819.819 0 1 0 0 0" style="fill:#0098da;fill-opacity:1;fill-rule:nonzero;stroke:none" transform="translate(38.892 31.096)"/><path d="M0 0h-2.638a.819.819 0 1 0 0 1.64H0A.82.82 0 0 0 0 0" style="fill:#0098da;fill-opacity:1;fill-rule:nonzero;stroke:none" transform="translate(32.083 25.624)"/><path d="M0 0a2.152 2.152 0 0 1-2.15-2.15v-8.346c0-1.186.964-2.15 2.15-2.15h8.866c.739 0 1.464-.201 2.099-.58l5.112-3.056V-2.15c0 1.185-.965 2.15-2.15 2.15zm16.293-18.088c-.304 0-.605.099-.851.28l-5.318 3.176c-.38.226-.815.346-1.258.346H0a3.795 3.795 0 0 0-3.79 3.79v8.346A3.794 3.794 0 0 0 0 1.639h13.927c2.09 0 3.789-1.7 3.789-3.789v-14.515a1.416 1.416 0 0 0-1.423-1.423" style="fill:#0098da;fill-opacity:1;fill-rule:nonzero;stroke:none" transform="translate(4.407 50.519)"/><path d="M0 0c0 .943-.5 1.692-1.885 1.692h-.966V-3.74h.966C-.477-3.74 0-2.938 0-1.951Zm-2.083-4.847h-1.315c-.395 0-.733.293-.733.651v6.354c0 .347.338.651.733.651h1.315C.419 2.809 1.28 1.475 1.28 0v-1.951c0-1.507-.849-2.896-3.363-2.896" style="fill:#0098da;fill-opacity:1;fill-rule:nonzero;stroke:none" transform="translate(9.404 45.451)"/><path d="M0 0c0 .943-.5 1.692-1.885 1.692h-.966V-3.74h.966C-.477-3.74 0-2.938 0-1.951Zm-2.083-4.847h-1.315c-.395 0-.733.293-.733.651v6.354c0 .347.338.651.733.651h1.315C.419 2.809 1.28 1.475 1.28 0v-1.951c0-1.507-.849-2.896-3.363-2.896z" style="fill:none;stroke:#1097d5;stroke-width:.204;stroke-linecap:butt;stroke-linejoin:miter;stroke-miterlimit:10;stroke-dasharray:none;stroke-opacity:1" transform="translate(9.404 45.451)"/><path d="M0 0h-3.083c-.478 0-.908.152-.908.64v6.364c0 .315.303.641.721.641h3.154c.349 0 .64-.261.64-.576 0-.314-.291-.542-.64-.542h-2.595V4.392h2.374c.314 0 .628-.24.628-.553 0-.315-.279-.564-.628-.564h-2.374V1.106H0c.338 0 .641-.239.641-.531C.641.25.35 0 0 0" style="fill:#0098da;fill-opacity:1;fill-rule:nonzero;stroke:none" transform="translate(16.471 40.605)"/><path d="M0 0h-3.083c-.478 0-.908.152-.908.64v6.364c0 .315.303.641.721.641h3.154c.349 0 .64-.261.64-.576 0-.314-.291-.542-.64-.542h-2.595V4.392h2.374c.314 0 .628-.24.628-.553 0-.315-.279-.564-.628-.564h-2.374V1.106H0c.338 0 .641-.239.641-.531C.641.25.35 0 0 0Z" style="fill:none;stroke:#1097d5;stroke-width:.204;stroke-linecap:butt;stroke-linejoin:miter;stroke-miterlimit:10;stroke-dasharray:none;stroke-opacity:1" transform="translate(16.471 40.605)"/><path d="M0 0h-5.386a.82.82 0 1 0 0 1.638H0A.82.82 0 0 0 0 0" style="fill:#0098da;fill-opacity:1;fill-rule:nonzero;stroke:none" transform="translate(22.181 9.83)"/><path d="M0 0h-11.486a.819.819 0 1 0 0 1.639H0A.82.82 0 0 0 0 0" style="fill:#0098da;fill-opacity:1;fill-rule:nonzero;stroke:none" transform="translate(22.181 15.302)"/><path d="M0 0h-3.208a.819.819 0 1 0 0 1.638H0A.82.82 0 1 0 0 0" style="fill:#0098da;fill-opacity:1;fill-rule:nonzero;stroke:none" transform="matrix(1.14319 0 0 1 14.48 9.83)"/></g></svg>