<?xml version="1.0" encoding="utf-8"?>
<!-- Generator: Adobe Illustrator 22.0.1, SVG Export Plug-In . SVG Version: 6.00 Build 0)  -->
<svg version="1.1" id="Слой_1" xmlns="http://www.w3.org/2000/svg" xmlns:xlink="http://www.w3.org/1999/xlink" x="0px" y="0px"
	 viewBox="0 0 40 31" style="enable-background:new 0 0 40 31;" xml:space="preserve">
<style type="text/css">
	.st0{fill:#536B76;}
</style>
<g>
	<path class="st0" d="M21.5,23.7c-0.4,0-0.6,0-0.7,0v4.6c0.1,0,0.4,0,0.6,0c1.5,0,2.4-0.8,2.4-2.5C23.7,24.4,22.8,23.7,21.5,23.7z"
		/>
	<path class="st0" d="M15.3,23.6c-0.3,0-0.5,0-0.7,0v2.1c0.1,0,0.3,0,0.5,0c0.8,0,1.4-0.4,1.4-1.2C16.5,24,16.1,23.6,15.3,23.6z"/>
</g>
<g>
	<path class="st0" d="M11.4,13.3c2.6,0,4.8-2.4,5.7-3.4c0.4-0.4,0.4-1.1,0-1.5c-0.8-1-3.1-3.4-5.7-3.4S6.5,7.3,5.7,8.4
		c-0.4,0.4-0.4,1.1,0,1.5C6.5,10.9,8.7,13.3,11.4,13.3z M16.5,8.8c0.2,0.2,0.2,0.5,0,0.7c-0.4,0.5-0.8,0.9-1.2,1.3
		c0.4-1,0.4-2.2,0-3.2C15.7,7.9,16.1,8.3,16.5,8.8z M13.8,6.4c1.4,1.6,1.4,3.9,0,5.5c-0.7,0.5-1.6,0.7-2.5,0.8
		c-0.9,0-1.7-0.3-2.5-0.8c-1.4-1.6-1.4-3.9,0-5.5c0.7-0.5,1.6-0.7,2.5-0.8C12.2,5.6,13.1,5.9,13.8,6.4z M6.2,8.8
		C6.6,8.3,7,7.9,7.4,7.5c-0.4,1.1-0.4,2.2,0,3.2C7,10.3,6.6,9.9,6.2,9.4C6.1,9.3,6.1,9,6.2,8.8z"/>
	<path class="st0" d="M11.4,11.2c1.2,0,2.1-0.9,2.1-2.1C13.5,8,12.5,7,11.4,7C10.2,7,9.3,8,9.3,9.1C9.3,10.3,10.2,11.2,11.4,11.2z
		 M11.4,7.7c0.8,0,1.4,0.6,1.4,1.4c0,0.8-0.6,1.4-1.4,1.4c-0.8,0-1.4-0.6-1.4-1.4C10,8.3,10.6,7.7,11.4,7.7z"/>
</g>
<path class="st0" d="M32.5,8l-5.7-6.5c0,0-0.1-0.1-0.1-0.1c0,0,0,0,0,0c0,0-0.1,0-0.1,0c0,0,0,0,0,0c0,0-0.1,0-0.1,0H12.2
	c-0.6,0-1.2,0.5-1.2,1.1v1.8h1.2V2.4h13.5v6c0,0.3,0.3,0.6,0.6,0.6h5.2V21H12.2v-6.4h-1.2v15.2c0,0.6,0.5,1.2,1.2,1.2h19.3
	c0.6,0,1.2-0.5,1.2-1.2V8.4c0,0,0,0,0-0.1C32.7,8.2,32.6,8.1,32.5,8z M17.4,26.3c-0.5,0.5-1.3,0.8-2.3,0.8c-0.2,0-0.4,0-0.5,0v2.5
	H13v-7c0.5-0.1,1.2-0.1,2.2-0.1s1.7,0.2,2.2,0.6c0.4,0.4,0.8,0.9,0.8,1.6C18.1,25.3,17.8,25.9,17.4,26.3z M24.2,28.7
	c-0.8,0.6-1.9,0.9-3.2,0.9c-0.8,0-1.4,0-1.8-0.1v-7c0.6-0.1,1.3-0.1,2.2-0.1c1.3,0,2.2,0.2,2.9,0.8c0.8,0.5,1.2,1.4,1.2,2.7
	C25.4,27.2,24.9,28.1,24.2,28.7z M30.8,23.8H28v1.6h2.5v1.3H28v2.8h-1.6v-7.1h4.3V23.8z"/>
<path class="st0" d="M28.4,13.7c0,0-0.8-0.1-1.9-0.1c-0.4,0-0.7,0-1.1,0c-2.2-1.7-4.1-3.3-5-4.3c0-0.1,0-0.2,0-0.2
	c0.1-1.4,0-2.3-0.4-2.7c-0.3-0.3-0.7-0.4-1.1-0.3c-0.2,0.1-0.7,0.3-0.9,0.8c-0.2,0.6,0.1,1.2,0.8,2c0,0,0.2,0.3,0.7,0.7
	c-0.3,1.4-1,4.3-1.4,5.7c-0.8,0.4-1.6,1-2.1,1.6L15.9,17c0,0.1-0.3,0.7-0.1,1.2c0.1,0.2,0.3,0.4,0.5,0.5h0.1c0,0,0,0,0.2,0
	c0.4,0,1.5-0.2,2.1-2.4l0.2-0.6c2-1,4.5-1.3,6.4-1.4c1,0.7,1.9,1.4,2.8,1.9h0c0,0,0.4,0.2,0.9,0.2c0.7,0,1.2-0.4,1.3-1.1v0
	c0-0.4,0-0.8-0.3-1.1C29.4,13.7,28.5,13.7,28.4,13.7z M16.7,17.9C16.6,17.9,16.6,17.9,16.7,17.9c0-0.1,0-0.4,0.1-0.6
	c0.3-0.4,0.7-0.7,1.2-1C17.5,17.8,16.8,17.9,16.7,17.9z M19.4,8.4c-0.7-0.8-0.7-1.1-0.6-1.3c0.1-0.2,0.3-0.3,0.3-0.3
	c0.1,0,0.2,0,0.3,0c0.2,0.2,0.3,0.7,0.2,1.8C19.5,8.5,19.4,8.4,19.4,8.4z M19.1,14.8L19.1,14.8c0.4-1.4,0.8-3.3,1.1-4.6
	c0.9,0.9,2.3,2.1,4,3.4l0,0C22.7,13.8,20.8,14.2,19.1,14.8z M29.5,15.3c-0.1,0.4-0.4,0.5-0.6,0.5c-0.2,0-0.5-0.1-0.5-0.1
	c-0.6-0.4-1.2-0.8-1.9-1.3c1.1,0,1.8,0.1,1.8,0.1c0.2,0,0.8,0.1,1,0.4C29.5,15,29.5,15.1,29.5,15.3z"/>
</svg>
