<?xml version="1.0" encoding="UTF-8" standalone="no"?>
<!-- Created with Inkscape (http://www.inkscape.org/) -->

<svg
   xmlns:dc="http://purl.org/dc/elements/1.1/"
   xmlns:cc="http://creativecommons.org/ns#"
   xmlns:rdf="http://www.w3.org/1999/02/22-rdf-syntax-ns#"
   xmlns:svg="http://www.w3.org/2000/svg"
   xmlns="http://www.w3.org/2000/svg"
   xmlns:sodipodi="http://sodipodi.sourceforge.net/DTD/sodipodi-0.dtd"
   xmlns:inkscape="http://www.inkscape.org/namespaces/inkscape"
   version="1.1"
   id="svg4105"
   xml:space="preserve"
   width="59.653866"
   height="66.666664"
   viewBox="0 0 59.653866 66.666664"
   sodipodi:docname="De-identify PDF documents - HIPAA Compliance.svg"
   inkscape:version="0.92.3 (2405546, 2018-03-11)"><metadata
     id="metadata4111"><rdf:RDF><cc:Work
         rdf:about=""><dc:format>image/svg+xml</dc:format><dc:type
           rdf:resource="http://purl.org/dc/dcmitype/StillImage" /><dc:title></dc:title></cc:Work></rdf:RDF></metadata><defs
     id="defs4109"><clipPath
       clipPathUnits="userSpaceOnUse"
       id="clipPath4121"><path
         d="M 0,50 H 44.74 V 0 H 0 Z"
         id="path4119"
         inkscape:connector-curvature="0" /></clipPath></defs><sodipodi:namedview
     pagecolor="#ffffff"
     bordercolor="#666666"
     borderopacity="1"
     objecttolerance="10"
     gridtolerance="10"
     guidetolerance="10"
     inkscape:pageopacity="0"
     inkscape:pageshadow="2"
     inkscape:window-width="697"
     inkscape:window-height="480"
     id="namedview4107"
     showgrid="false"
     inkscape:zoom="3.5400001"
     inkscape:cx="29.826933"
     inkscape:cy="33.333332"
     inkscape:window-x="0"
     inkscape:window-y="0"
     inkscape:window-maximized="0"
     inkscape:current-layer="g4113" /><g
     id="g4113"
     inkscape:groupmode="layer"
     inkscape:label="De-identify PDF documents - HIPAA Compliance"
     transform="matrix(1.3333333,0,0,-1.3333333,0,66.666667)"><g
       id="g4115"><g
         id="g4117"
         clip-path="url(#clipPath4121)"><g
           id="g4123"
           transform="translate(25.8214,12.3311)"><path
             d="m 0,0 h -1.183 v -7.771 h 1.014 c 2.534,0 4.054,1.352 4.054,4.224 C 3.717,-1.183 2.196,0 0,0"
             style="fill:#0098da;fill-opacity:1;fill-rule:nonzero;stroke:none"
             id="path4125"
             inkscape:connector-curvature="0" /></g><g
           id="g4127"
           transform="translate(15.3487,12.5)"><path
             d="m 0,0 h -1.183 v -3.547 h 0.845 c 1.351,0 2.365,0.676 2.365,2.026 C 2.027,-0.676 1.351,0 0,0"
             style="fill:#0098da;fill-opacity:1;fill-rule:nonzero;stroke:none"
             id="path4129"
             inkscape:connector-curvature="0" /></g><g
           id="g4131"
           transform="translate(41.0245,9.459)"><path
             d="m 0,0 v -2.195 h -4.224 v -4.73 H -6.926 V 5.068 H 0.338 V 2.703 H -4.224 V 0 Z m -10.643,-5.574 c -1.35,-1.013 -3.209,-1.52 -5.405,-1.52 -1.351,0 -2.365,0 -3.04,0.169 V 4.899 c 1.014,0.169 2.195,0.169 3.716,0.169 2.196,0 3.716,-0.338 4.898,-1.351 1.352,-0.845 2.028,-2.365 2.028,-4.561 -0.169,-2.196 -1.014,-3.717 -2.197,-4.73 m -11.486,4.054 c -0.844,-0.844 -2.196,-1.351 -3.885,-1.351 h -0.844 v -4.223 h -2.703 V 4.73 c 0.844,0.169 2.027,0.169 3.716,0.169 1.689,0 2.872,-0.337 3.716,-1.013 0.676,-0.676 1.352,-1.521 1.352,-2.703 -0.169,-1.013 -0.676,-2.027 -1.352,-2.703 M 3.378,29.393 -6.25,40.372 -6.419,40.541 h -0.169 -0.169 -24.156 c -1.114,0 -2.026,-0.912 -2.026,-2.027 v -0.816 c 0,-0.56 0.453,-1.014 1.013,-1.014 0.56,0 1.013,0.454 1.013,1.014 v 1.154 H -8.108 V 28.717 c 0,-0.558 0.456,-1.014 1.013,-1.014 H 1.688 V 7.433 h -32.601 v 9.797 c 0,0.56 -0.453,1.014 -1.013,1.014 -0.56,0 -1.013,-0.454 -1.013,-1.014 V -7.432 c 0,-1.013 0.844,-2.027 2.026,-2.027 H 1.688 c 1.014,0 2.028,0.845 2.028,2.027 v 36.149 0.169 c 0,0.169 -0.169,0.338 -0.338,0.507"
             style="fill:#0098da;fill-opacity:1;fill-rule:nonzero;stroke:none"
             id="path4133"
             inkscape:connector-curvature="0" /></g><g
           id="g4135"
           transform="translate(36.0235,24.9434)"><path
             d="m 0,0 c 0.763,-0.041 1.226,-0.105 1.27,-0.108 0.288,0 0.942,-0.155 1.103,-0.397 L 2.585,-0.663 C 2.592,-0.685 2.593,-0.744 2.594,-0.805 2.5,-1.11 2.293,-1.177 2.131,-1.177 1.986,-1.177 1.74,-1.115 1.588,-1.068 1.069,-0.725 0.551,-0.378 0,0 m -11.563,9.742 c -0.307,0.398 -0.545,0.8 -0.449,0.993 0.046,0.092 0.127,0.166 0.188,0.211 h 0.112 c 0.076,-0.163 0.158,-0.502 0.149,-1.204 m 0.209,-9.264 c 0.372,1.398 0.733,3.008 1.057,4.453 l 0.17,0.75 C -8.952,4.563 -7.386,3.233 -5.603,1.841 -7.569,1.528 -9.592,1.048 -11.354,0.478 m -5.316,-3.35 -0.256,-0.212 v -0.165 c -0.007,-0.03 -0.022,-0.074 -0.039,-0.129 -0.116,-0.358 -0.355,-1.104 -0.067,-1.821 0.182,-0.363 0.533,-0.714 0.896,-0.896 l 0.609,-0.042 c 0.716,0 2.479,0.365 3.393,3.718 l 0.235,0.703 c 2.2,1.065 5.064,1.683 8.746,1.888 0.337,-0.237 0.666,-0.474 0.989,-0.706 1.018,-0.733 1.98,-1.424 2.968,-1.972 0.027,-0.014 0.668,-0.329 1.47,-0.329 1.226,0 2.092,0.735 2.265,1.977 0,0.615 0,1.314 -0.574,1.886 C 3.082,1.763 1.838,1.834 1.437,1.837 1.257,1.859 0.163,1.981 -1.314,1.981 h -1.444 c -3.266,2.529 -5.71,4.625 -6.915,5.93 l -10e-4,0.103 c 0.164,2.287 -0.043,3.539 -0.689,4.187 -0.523,0.52 -1.234,0.714 -1.958,0.535 l -0.163,-0.07 c -0.352,-0.168 -1.085,-0.52 -1.411,-1.339 -0.395,-1.183 0.356,-2.266 1.195,-3.218 0.012,-0.019 0.276,-0.409 0.895,-0.938 -0.452,-2.076 -1.354,-5.794 -1.904,-7.753 -1.17,-0.609 -2.276,-1.466 -2.961,-2.29"
             style="fill:#0098da;fill-opacity:1;fill-rule:nonzero;stroke:none"
             id="path4137"
             inkscape:connector-curvature="0" /></g><g
           id="g4139"
           transform="translate(1.8853,37.1235)"><path
             d="M 0,0 C 0,0 0.69,1.648 2.305,3.078 1.747,2.127 1.421,1.024 1.421,-0.157 c 0,-0.82 0.161,-1.602 0.443,-2.324 C 0.673,-1.205 0,0 0,0 m 15.685,0.135 c 0,0 -0.634,-1.08 -1.744,-2.291 0.207,0.63 0.323,1.301 0.323,1.999 0,1.108 -0.283,2.151 -0.778,3.061 1.494,-1.333 2.199,-2.769 2.199,-2.769 M 7.843,4.564 c 2.607,0 4.721,-2.113 4.721,-4.721 0,-2.607 -2.114,-4.72 -4.721,-4.72 -2.608,0 -4.721,2.113 -4.721,4.72 0,2.608 2.113,4.721 4.721,4.721 M 7.768,-7.153 c 5.595,0.064 9.232,6.17 9.384,6.429 l 0.459,0.785 -0.397,0.817 C 17.096,1.121 14.244,6.84 7.75,6.84 H 7.666 C 1.063,6.789 -1.465,0.904 -1.569,0.654 l -0.316,-0.758 0.398,-0.72 c 0.143,-0.258 3.57,-6.329 9.167,-6.329 z"
             style="fill:#0098da;fill-opacity:1;fill-rule:nonzero;stroke:none"
             id="path4141"
             inkscape:connector-curvature="0" /></g><g
           id="g4143"
           transform="translate(9.5303,35.5215)"><path
             d="M 0,0 C 0.798,0 1.445,0.647 1.445,1.445 1.445,2.244 0.798,2.891 0,2.891 -0.798,2.891 -1.445,2.244 -1.445,1.445 -1.445,0.647 -0.798,0 0,0"
             style="fill:#0098da;fill-opacity:1;fill-rule:nonzero;stroke:none"
             id="path4145"
             inkscape:connector-curvature="0" /></g></g></g></g></svg>