<svg xmlns="http://www.w3.org/2000/svg" xml:space="preserve" width="66.667" height="66.667"><defs><clipPath id="a" clipPathUnits="userSpaceOnUse"><path d="M0 50h50V0H0Z"/></clipPath></defs><g clip-path="url(#a)" transform="matrix(1.33333 0 0 -1.33333 0 66.667)"><path d="M0 0a5.095 5.095 0 0 1-5.09-5.09v-.513a.85.85 0 0 1 1.7 0v.513A3.395 3.395 0 0 0 0-1.699h13.097v-3.12a.85.85 0 1 1 1.7 0v3.12h13.097a3.395 3.395 0 0 0 3.39-3.391v-.513a.85.85 0 0 1 1.699 0v.513A5.095 5.095 0 0 1 27.894 0Z" style="fill:#0098da;fill-opacity:1;fill-rule:nonzero;stroke:none" transform="translate(11.173 17.142)"/><path d="m0 0-8.876.066v6.146c0 .041.034.075.075.075h8.792a.076.076 0 0 0 .076-.075zm-.009 7.986h-8.792a1.776 1.776 0 0 1-1.774-1.774V.066c0-.973.792-1.765 1.765-1.765H0c.975 0 1.767.792 1.767 1.765v6.146c0 .978-.796 1.774-1.776 1.774" style="fill:#0098da;fill-opacity:1;fill-rule:nonzero;stroke:none" transform="translate(47.459 2.354)"/><path d="M0 0h-4.573a.85.85 0 1 1 0-1.699H0A.85.85 0 1 1 0 0" style="fill:#0098da;fill-opacity:1;fill-rule:nonzero;stroke:none" transform="translate(45.34 7.674)"/><path d="M0 0h-4.573a.85.85 0 1 1 0-1.699H0A.85.85 0 1 1 0 0" style="fill:#0098da;fill-opacity:1;fill-rule:nonzero;stroke:none" transform="translate(45.34 5.132)"/><path d="m0 0-8.876.066v6.146c0 .041.033.075.075.075H-.01a.076.076 0 0 0 .076-.075zm-.01 7.986h-8.791a1.777 1.777 0 0 1-1.776-1.774V.066c0-.973.793-1.765 1.767-1.765H0c.974 0 1.766.792 1.766 1.765v6.146c0 .978-.796 1.774-1.776 1.774" style="fill:#0098da;fill-opacity:1;fill-rule:nonzero;stroke:none" transform="translate(28.942 2.354)"/><path d="M0 0h-4.574a.85.85 0 1 1 0-1.699H0A.85.85 0 1 1 0 0" style="fill:#0098da;fill-opacity:1;fill-rule:nonzero;stroke:none" transform="translate(26.824 7.674)"/><path d="M0 0h-4.574a.85.85 0 1 1 0-1.699H0A.85.85 0 1 1 0 0" style="fill:#0098da;fill-opacity:1;fill-rule:nonzero;stroke:none" transform="translate(26.824 5.132)"/><path d="m0 0-8.876.066v6.146c0 .041.034.075.075.075h8.792a.076.076 0 0 0 .075-.075zm-.009 7.986h-8.792a1.776 1.776 0 0 1-1.775-1.774V.066c0-.973.792-1.765 1.766-1.765H0c.974 0 1.766.792 1.766 1.765v6.146c0 .978-.796 1.774-1.775 1.774" style="fill:#0098da;fill-opacity:1;fill-rule:nonzero;stroke:none" transform="translate(11.35 2.354)"/><path d="M0 0h-4.574a.85.85 0 1 1 0-1.699H0A.85.85 0 1 1 0 0" style="fill:#0098da;fill-opacity:1;fill-rule:nonzero;stroke:none" transform="translate(9.232 7.674)"/><path d="M0 0h-4.574a.85.85 0 1 1 0-1.699H0A.85.85 0 1 1 0 0" style="fill:#0098da;fill-opacity:1;fill-rule:nonzero;stroke:none" transform="translate(9.232 5.132)"/><path d="M0 0h1.325v-3.188a.852.852 0 0 1 1.305-.717L8.8 0h6.062a.85.85 0 1 1 0 1.7H8.554a.852.852 0 0 1-.455-.132L3.025-1.644V.85a.85.85 0 0 1-.85.85H0a3.153 3.153 0 0 0-3.15 3.15v15.948A3.153 3.153 0 0 0 0 23.948h22.983a3.153 3.153 0 0 0 3.15-3.15v-1.63a.85.85 0 1 1 1.7 0v1.63a4.855 4.855 0 0 1-4.85 4.85H0a4.855 4.855 0 0 1-4.85-4.85V4.85A4.856 4.856 0 0 1 0 0" style="fill:#0098da;fill-opacity:1;fill-rule:nonzero;stroke:none" transform="translate(10.408 23.697)"/><path d="M0 0a.848.848 0 0 1-.205.996c-.04.036-.097.086-.159.158C.869.3 2.118.014 3.413.28a.85.85 0 0 1 .678.833v.499A1.412 1.412 0 0 0 5.488 3.02a1.39 1.39 0 0 0 .933-.374.845.845 0 0 1 .464-.22.84.84 0 0 1 .252-.541.854.854 0 0 1-.255-.607V.862c0-1.671-.913-3.345-2.327-4.263-.806-.524-2.017-.983-3.696-.806.2.108.395.227.585.357a.85.85 0 0 1-.413 1.55 7.45 7.45 0 0 0-.985.125.85.85 0 0 1-.284 1.63 1.426 1.426 0 0 0-.371.071A.85.85 0 0 1 0 0m-3.248-3.965a.85.85 0 0 1 .484-.963C-1.252-5.6.219-5.935 1.587-5.935c1.436 0 2.759.37 3.895 1.108C7.389-3.587 8.576-1.416 8.583.844l.7.508a.848.848 0 0 1-.163 1.469l-.252.108.189.411a.849.849 0 0 1-1.041 1.161l-.854-.284a3.1 3.1 0 0 1-1.667.503 3.12 3.12 0 0 1-3.092-2.832c-1.06.039-2.12.7-3.283 2.038a.85.85 0 0 1-1.477-.401c-.144-.77-.145-1.46-.005-2.066A.85.85 0 0 1-3.263.51a3.126 3.126 0 0 1 .931-1.877.845.845 0 0 1-.095-.908c.215-.43.488-.748.793-.984a4.872 4.872 0 0 0-.766-.042c-.413.054-.76-.269-.848-.664" style="fill:#0098da;fill-opacity:1;fill-rule:nonzero;stroke:none" transform="translate(15.182 37.341)"/><path d="M0 0a.85.85 0 1 1-1.309 1.086c-1.095-1.319-1.77-3.114-2.485-5.014l-.391-1.03a1.315 1.315 0 0 1 .144-1.209 1.313 1.313 0 0 1 1.079-.568h.314v-.986a2.688 2.688 0 0 1 2.685-2.687h.069v-.986a.85.85 0 1 1 1.7 0v1.836c0 .47-.38.85-.85.85H.037a.988.988 0 0 0-.986.987v1.836c0 .47-.38.85-.85.85h-.597l.193.509C-1.54-2.764-.914-1.1 0 0" style="fill:#0098da;fill-opacity:1;fill-rule:nonzero;stroke:none" transform="translate(31.908 35.174)"/><path d="M0 0c.47 0 .85.38.85.85v3.478A6.535 6.535 0 0 1 2.683 8.64a6.628 6.628 0 0 1-1.754 4.725.85.85 0 1 1-1.246-1.157 4.904 4.904 0 0 0 1.3-3.503 4.837 4.837 0 0 0-1.56-3.396.853.853 0 0 1-.273-.624V.85C-.85.38-.47 0 0 0" style="fill:#0098da;fill-opacity:1;fill-rule:nonzero;stroke:none" transform="translate(39.292 22.93)"/><path d="M0 0a.85.85 0 0 1-1.091-.507c-.782-2.143-1.002-2.811-1.002-2.811a.849.849 0 0 1 .123-.769.834.834 0 0 1 .697-.347l1.082.015-.358-1.34a.85.85 0 0 1 1.643-.438l.646 2.424a.85.85 0 0 1-.833 1.069l-.989-.014c.144.407.337.94.589 1.628A.852.852 0 0 1 0 0" style="fill:#0098da;fill-opacity:1;fill-rule:nonzero;stroke:none" transform="translate(35.587 39.544)"/></g></svg>