<svg width="36" height="38" fill="none" xmlns="http://www.w3.org/2000/svg"><g clip-path="url(#clip0)" fill="#536B76"><path d="M34.71.6c-.4-.4-.94-.6-1.48-.6H8.4a2.1 2.1 0 00-2.08 2.08v6.18a2.1 2.1 0 002.08 2.08h20.28l1.27 2.89a.87.87 0 001.61 0l1.28-2.9h.27a2.1 2.1 0 002.08-2.07V2.08A1.55 1.55 0 0034.71.6zM7.65 2.08c0-.4.34-.74.74-.74h24.84c.4 0 .74.34.74.74v6.18c0 .4-.33.74-.74.74h-.67c-.27 0-.47.13-.6.4l-1.08 2.42-1.14-2.42c-.13-.27-.33-.4-.6-.4H8.39a.75.75 0 01-.74-.74V2.08z"/><path d="M9.87 3.63h2.21c.34 0 .54-.27.54-.54a.58.58 0 00-.54-.54H9.87a.53.53 0 00-.54.54c0 .33.2.54.54.54zM14.23 3.63h7.12c.34 0 .54-.27.54-.54a.58.58 0 00-.54-.54h-7.12a.53.53 0 00-.53.54c0 .33.26.54.53.54zM23.57 3.63h6.57c.34 0 .54-.27.54-.54a.58.58 0 00-.54-.54h-6.57a.53.53 0 00-.54.54c0 .33.27.54.54.54zM9.87 6.38h6.04c.34 0 .54-.27.54-.54a.58.58 0 00-.54-.54H9.87a.53.53 0 00-.54.54c0 .27.2.54.54.54zM26.32 5.3h-7.66a.53.53 0 00-.53.54c0 .27.27.54.53.54h7.72c.34 0 .54-.27.54-.54-.07-.33-.27-.54-.6-.54zM28.94 6.38a1.88 1.88 0 103.76 0c0-.54-.2-1-.54-1.34a2 2 0 00-1.34-.54c-1.01-.07-1.88.8-1.88 1.88zm1.88-1c.53 0 .94.4.94.93 0 .54-.4.94-.94.94a.92.92 0 01-.94-.94c0-.47.4-.94.94-.94zM21.42 10.6a11.76 11.76 0 00-10.07 17.8l-.8.47A2 2 0 009 28.13c-.4 0-.8.14-1.14.34L.87 33.3c-.94.6-1.14 1.88-.53 2.82l.67 1c.4.54 1 .88 1.68.88.4 0 .8-.13 1.14-.34l7.05-4.83c.87-.6 1.14-1.75.6-2.62l.74-.54a11.61 11.61 0 009.2 4.44 11.72 11.72 0 009.6-18.4 11.53 11.53 0 00-9.6-5.1zm5.7 20.15a10.22 10.22 0 01-14.17-2.55 10.13 10.13 0 012.63-14.1 10.22 10.22 0 0114.17 2.55 10.16 10.16 0 01-2.63 14.1zm-25.44 4.5c-.07-.07-.07-.2-.07-.34 0-.13.07-.2.2-.27l6.99-4.83c.06-.07.13-.07.26-.07.14 0 .27.07.34.2l.67 1.01c.07.07.07.2.07.34 0 .13-.07.2-.2.26l-6.99 4.77c-.06.07-.13.07-.26.07a.37.37 0 01-.34-.2l-.67-.94z"/><path d="M27.12 22.76H15.58c-.47 0-.88.2-1.15.6-.26.4-.33.88-.13 1.28a7.65 7.65 0 007.05 4.83 7.58 7.58 0 007.05-4.83c.13-.4.13-.87-.14-1.28-.26-.4-.67-.6-1.14-.6zm-5.77 4.97a5.93 5.93 0 01-5.24-3.22H26.6a5.93 5.93 0 01-5.24 3.22zM17.8 19.34c.6 0 1.07-.47 1.07-1.08v-.8c0-.6-.47-1.08-1.08-1.08-.6 0-1.07.47-1.07 1.08v.8c0 .6.47 1.08 1.07 1.08zM24.84 19.34c.6 0 1.07-.47 1.07-1.08v-.8c0-.6-.46-1.08-1.07-1.08-.6 0-1.07.47-1.07 1.08v.8c0 .6.47 1.08 1.07 1.08z"/></g><defs><clipPath id="clip0"><path fill="#fff" d="M0 0h35.31v38H0z"/></clipPath></defs></svg>