<svg xmlns="http://www.w3.org/2000/svg" xml:space="preserve" width="69.33" height="76.61"><defs><clipPath clipPathUnits="userSpaceOnUse" id="a"><path d="M0 57.45h52V0H0Z"/></clipPath></defs><g clip-path="url(#a)" transform="matrix(1.33333 0 0 -1.33333 0 76.6)" fill="#ffffff"><path d="M5.61 52.68h40.25a2.5 2.5 0 0 0 2.5-2.5v-5.86H3.11v5.86a2.5 2.5 0 0 0 2.5 2.5m20.96-39.85H5.61a2.5 2.5 0 0 0-2.5 2.5v27.3h45.25V22.88a.85.85 0 1 1 1.7 0v27.29a4.2 4.2 0 0 1-4.2 4.2H5.6a4.2 4.2 0 0 1-4.2-4.2V15.34a4.2 4.2 0 0 1 4.2-4.2h20.96a.85.85 0 1 1 0 1.7"/><path d="M8.7 49.32a.75.75 0 1 0 0-1.5.75.75 0 0 0 0 1.5m0-3.2a2.45 2.45 0 1 1 0 4.9 2.45 2.45 0 0 1 0-4.9m6.74 3.2a.75.75 0 1 0 0-1.5.75.75 0 0 0 0 1.5m0-3.2a2.45 2.45 0 1 1 0 4.9 2.45 2.45 0 0 1 0-4.9m6.73 3.2a.75.75 0 1 0 0-1.5.75.75 0 0 0 0 1.5m0-3.2a2.45 2.45 0 1 1 0 4.9 2.45 2.45 0 0 1 0-4.9m8.68-7.87h4.44a.85.85 0 0 1 0 1.7h-4.44a.85.85 0 1 1 0-1.7m13.66-6.17h-9.56a.85.85 0 0 1 0-1.7h9.56a.85.85 0 1 1 0 1.7m-.42 6.17a.85.85 0 1 1 0 1.7h-5.46a.85.85 0 1 1 0-1.7zm.53-2.23H30.85a.85.85 0 0 1 0-1.7h13.77a.85.85 0 1 1 0 1.7m-13.77-3.94a.85.85 0 1 1 0-1.7h1.36a.85.85 0 1 1 0 1.7ZM48.89 5.32l-.22-.18a1.54 1.54 0 0 0-2.17.2l-4.77 5.7 2.57 2.15 4.77-5.7c.55-.65.46-1.62-.18-2.17m-17.51 8.85a7.34 7.34 0 0 0 11.24 9.41 7.28 7.28 0 0 0 1.68-5.35 7.34 7.34 0 0 0-12.92-4.05m19-5.6-5.28 6.3a9.04 9.04 0 0 1-1.17 9.8 9.04 9.04 0 1 1-3.86-14.3l5.13-6.14a3.23 3.23 0 0 1 4.56-.4l.22.18a3.24 3.24 0 0 1 .4 4.56"/><path d="m40.16 21.81-4.19-5.3-2.25 1.75a.85.85 0 0 1-1.05-1.34l2.25-1.76a1.74 1.74 0 0 1 2.43.3l4.15 5.3a.85.85 0 0 1-1.34 1.05m-24.59 3.11a4.69 4.69 0 1 0 .01 9.38 4.69 4.69 0 0 0 0-9.38m9.38 2.13c.47 0 .85.38.85.85v2.78a.85.85 0 0 1-1.7 0v-.48h-2.19a6.33 6.33 0 0 1-1.17 3.13l1.6 1.6.42-.42a.85.85 0 0 1 1.2 0c.33.33.33.87 0 1.2L22 37.67a.85.85 0 1 1-1.2-1.2l.34-.34-1.56-1.56a6.36 6.36 0 0 1-3.28 1.37v2.31h.48a.85.85 0 1 1 0 1.7H14a.85.85 0 1 1 0-1.7h.6V35.9a6.35 6.35 0 0 1-3.02-1.32L10 36.16l.35.34a.85.85 0 1 1-1.2 1.2l-1.97-1.96a.85.85 0 1 1 1.2-1.2l.42.42 1.61-1.62a6.34 6.34 0 0 1-1.19-3.11H7.03v.48a.85.85 0 0 1-1.7 0v-2.78a.85.85 0 1 1 1.7 0v.6h2.26c.2-1.14.69-2.18 1.4-3.03l-1.57-1.57-.34.35a.85.85 0 0 1-1.2-1.2l1.96-1.97a.85.85 0 0 1 1.2 0c.34.33.34.87 0 1.2l-.41.42 1.62 1.63a6.34 6.34 0 0 1 3.1-1.1v-2.3h-.48a.85.85 0 1 1 0-1.7h2.78a.85.85 0 1 1 0 1.7h-.6v2.38c.89.16 1.7.51 2.43 1l1.64-1.64-.42-.42a.85.85 0 1 1 1.2-1.2l1.97 1.96a.85.85 0 1 1-1.2 1.2l-.35-.34-1.58 1.59a6.34 6.34 0 0 1 1.41 3h2.26v-.59c0-.47.39-.85.85-.85"/></g></svg>