<?xml version="1.0" encoding="utf-8"?>
<!-- Generator: Adobe Illustrator 22.0.1, SVG Export Plug-In . SVG Version: 6.00 Build 0)  -->
<svg version="1.1" id="Слой_1" xmlns="http://www.w3.org/2000/svg" xmlns:xlink="http://www.w3.org/1999/xlink" x="0px" y="0px"
	 viewBox="0 0 36 30" style="enable-background:new 0 0 36 30;" xml:space="preserve">
<style type="text/css">
	.st0{fill:#0098DA;}
</style>
<g>
	<path class="st0" d="M17.4,21.1c-2.3,0-4.2,1.9-4.2,4.2s1.9,4.2,4.2,4.2s4.2-1.9,4.2-4.2S19.6,21.1,17.4,21.1z M15.6,28
		c0.2-0.8,0.9-1.3,1.8-1.3s1.5,0.6,1.8,1.3c-0.5,0.3-1.1,0.5-1.8,0.5S16.1,28.3,15.6,28L15.6,28z M16.4,24.8c0-0.5,0.4-0.9,0.9-0.9
		s0.9,0.4,0.9,0.9c0,0.5-0.4,0.9-0.9,0.9S16.4,25.3,16.4,24.8z M19.8,27.3c-0.3-0.5-0.7-1-1.2-1.2c0.3-0.3,0.5-0.8,0.5-1.3
		c0-1-0.8-1.8-1.8-1.8c-1,0-1.8,0.8-1.8,1.8c0,0.5,0.2,0.9,0.5,1.3c-0.5,0.3-0.9,0.7-1.2,1.2c-0.5-0.6-0.7-1.3-0.7-2.1
		c0-1.8,1.5-3.2,3.2-3.2c1.8,0,3.2,1.5,3.2,3.2C20.6,26,20.3,26.8,19.8,27.3L19.8,27.3z"/>
	<path class="st0" d="M17.4,0.8c-2.3,0-4.2,1.9-4.2,4.2c0,0.5,0.1,1.1,0.3,1.5c-0.2-0.1-0.5-0.1-0.8-0.1c-0.8,0-1.4,0.6-1.4,1.4v1.1
		c0,0.8-0.4,1.6-1.2,2.1C9.5,11.3,9,12,8.7,12.7l0,0L3,12.3v7.9h14.3c0.8,0,1.4-0.6,1.4-1.4c0-0.2,0-0.4-0.1-0.5
		c0.6-0.2,1-0.7,1-1.3c0-0.4-0.1-0.7-0.4-0.9c0.2-0.2,0.4-0.6,0.4-0.9s-0.1-0.7-0.4-0.9c0.2-0.2,0.4-0.6,0.4-0.9
		c0-0.8-0.6-1.4-1.4-1.4H16c-0.5,0-0.9-0.4-0.9-0.9V8.6c0-0.1,0-0.2,0-0.3c0.7,0.5,1.5,0.7,2.3,0.7c2.3,0,4.2-1.9,4.2-4.2
		S19.6,0.8,17.4,0.8z M8.6,19.3H3.9v-6l4.6,0.4V19.3z M16,12.8h2.3c0.3,0,0.5,0.2,0.5,0.5c0,0.3-0.2,0.5-0.5,0.5H15v0.9h3.2
		c0.3,0,0.5,0.2,0.5,0.5c0,0.3-0.2,0.5-0.5,0.5H15v0.9h3.2c0.3,0,0.5,0.2,0.5,0.5c0,0.3-0.2,0.5-0.5,0.5H15v0.9h2.3
		c0.3,0,0.5,0.2,0.5,0.5s-0.2,0.5-0.5,0.5H9.5v-5.9L9.6,13c0.2-0.5,0.6-1,1-1.3c1-0.6,1.6-1.7,1.6-2.9V7.7c0-0.3,0.2-0.5,0.5-0.5
		c0.8,0,1.4,0.6,1.4,1.4v2.3C14.1,12,14.9,12.8,16,12.8z M17.4,8.2c-1.8,0-3.2-1.5-3.2-3.2s1.5-3.2,3.2-3.2c1.8,0,3.2,1.5,3.2,3.2
		S19.1,8.2,17.4,8.2z"/>
	<path class="st0" d="M27.5,10.9c-2.3,0-4.2,1.9-4.2,4.2s1.9,4.2,4.2,4.2s4.2-1.9,4.2-4.2S29.8,10.9,27.5,10.9z M27.5,18.3
		c-1.8,0-3.2-1.5-3.2-3.2s1.5-3.2,3.2-3.2c1.8,0,3.2,1.5,3.2,3.2S29.3,18.3,27.5,18.3z"/>
</g>
<circle class="st0" cx="15.8" cy="4.9" r="0.6"/>
<circle class="st0" cx="18.9" cy="4.9" r="0.6"/>
<circle class="st0" cx="17.4" cy="4.9" r="0.6"/>
<g>
	<path class="st0" d="M25.2,14.8L25.2,14.8C25.2,14.8,25.2,14.8,25.2,14.8z"/>
	<path class="st0" d="M27.1,13L27.1,13C27.1,13,27.1,13,27.1,13z"/>
	<path class="st0" d="M28.9,13.9L28.9,13.9C28.9,13.9,28.9,13.9,28.9,13.9z"/>
	<path class="st0" d="M29.8,13.9L29.8,13.9c0-0.1,0-0.1,0-0.2c-0.1-0.2-0.2-0.3-0.4-0.3c-0.2,0-0.4,0.1-0.4,0.3c0,0,0,0.1,0,0.1v1.7
		H28c0,0,0-2.3,0-2.5c0,0,0,0,0,0c0-0.1,0-0.2-0.1-0.2c-0.1-0.1-0.2-0.2-0.4-0.2s-0.3,0.1-0.4,0.2c0,0.1-0.1,0.1-0.1,0.2v2.6h-0.9
		c0,0,0-0.8,0-0.8c0-0.1,0-0.1,0-0.2c-0.1-0.2-0.2-0.3-0.4-0.3c-0.2,0-0.4,0.1-0.4,0.3c0,0,0,0.1,0,0.1v1.7h4.6
		C29.8,16.5,29.8,14.1,29.8,13.9z"/>
</g>
<path class="st0" d="M11.5,4.6c-0.2,0-1.2-0.1-1.4-0.2L8.8,4.1c-0.2,0-0.4,0.1-0.4,0.3c0,0.2,0.1,0.4,0.3,0.4l1.2,0.3
	C8.5,6.1,7.2,7.6,6.3,9.2c-0.1,0.1-0.3,0.6,0,0.9C6.6,10.4,7,10,7.1,9.9c1.1-2,2.2-3.4,4.1-4.6c0,0,0.4-0.3,0.6-0.4
	C11.8,4.9,12,4.6,11.5,4.6z"/>
<path class="st0" d="M28.4,10c0-0.2,0.2-1.2,0.3-1.4l0.4-1.2c0.1-0.2,0-0.4-0.2-0.4c-0.2-0.1-0.4,0-0.4,0.2L28,8.4
	c-1-1.5-2.3-2.9-3.8-3.8c-0.1-0.1-0.6-0.4-0.9-0.1c-0.3,0.3,0,0.6,0.2,0.7c1.9,1.2,3.2,2.5,4.2,4.4c0,0,0.2,0.4,0.3,0.6
	C28.1,10.3,28.4,10.5,28.4,10z"/>
<g>
	<path class="st0" d="M23.4,26.5c0.2,0,1.2,0.1,1.4,0.2l1.2,0.3c0.2,0,0.4-0.1,0.4-0.3c0-0.2-0.1-0.4-0.3-0.4L25,26
		c1.4-1.1,2.7-2.5,3.5-4.1c0.1-0.1,0.3-0.6,0-0.9c-0.3-0.2-0.6,0.1-0.7,0.2c-1.1,2-2.2,3.4-4.1,4.6c0,0-0.4,0.3-0.6,0.4
		C23.1,26.2,22.9,26.5,23.4,26.5z"/>
	<path class="st0" d="M6.5,21.1c0,0.2-0.2,1.2-0.3,1.4l-0.4,1.2c-0.1,0.2,0,0.4,0.2,0.4c0.2,0.1,0.4,0,0.4-0.2l0.4-1.2
		c1,1.5,2.3,2.9,3.8,3.8c0.1,0.1,0.6,0.4,0.9,0.1c0.3-0.3,0-0.6-0.2-0.7c-1.9-1.2-3.2-2.5-4.2-4.4c0,0-0.2-0.4-0.3-0.6
		C6.8,20.8,6.5,20.6,6.5,21.1z"/>
</g>
</svg>
