<?xml version="1.0" encoding="UTF-8" standalone="no"?>
<!-- Created with Inkscape (http://www.inkscape.org/) -->

<svg
   xmlns:dc="http://purl.org/dc/elements/1.1/"
   xmlns:cc="http://creativecommons.org/ns#"
   xmlns:rdf="http://www.w3.org/1999/02/22-rdf-syntax-ns#"
   xmlns:svg="http://www.w3.org/2000/svg"
   xmlns="http://www.w3.org/2000/svg"
   xmlns:sodipodi="http://sodipodi.sourceforge.net/DTD/sodipodi-0.dtd"
   xmlns:inkscape="http://www.inkscape.org/namespaces/inkscape"
   version="1.1"
   id="svg10"
   xml:space="preserve"
   width="66.666664"
   height="66.666664"
   viewBox="0 0 66.666664 66.666664"
   sodipodi:docname="Detect Social Determinants of Health.svg"
   inkscape:version="0.92.3 (2405546, 2018-03-11)"><metadata
     id="metadata16"><rdf:RDF><cc:Work
         rdf:about=""><dc:format>image/svg+xml</dc:format><dc:type
           rdf:resource="http://purl.org/dc/dcmitype/StillImage" /><dc:title></dc:title></cc:Work></rdf:RDF></metadata><defs
     id="defs14"><clipPath
       clipPathUnits="userSpaceOnUse"
       id="clipPath26"><path
         d="M 0,50 H 50 V 0 H 0 Z"
         id="path24"
         inkscape:connector-curvature="0" /></clipPath></defs><sodipodi:namedview
     pagecolor="#ffffff"
     bordercolor="#666666"
     borderopacity="1"
     objecttolerance="10"
     gridtolerance="10"
     guidetolerance="10"
     inkscape:pageopacity="0"
     inkscape:pageshadow="2"
     inkscape:window-width="1920"
     inkscape:window-height="1017"
     id="namedview12"
     showgrid="false"
     inkscape:zoom="12.72"
     inkscape:cx="33.333332"
     inkscape:cy="33.333332"
     inkscape:window-x="-8"
     inkscape:window-y="-8"
     inkscape:window-maximized="1"
     inkscape:current-layer="g18" /><g
     id="g18"
     inkscape:groupmode="layer"
     inkscape:label="Detect Social Determinants of Health"
     transform="matrix(1.3333333,0,0,-1.3333333,0,66.666667)"><g
       id="g20"><g
         id="g22"
         clip-path="url(#clipPath26)"><g
           id="g28"
           transform="translate(16.1496,36.8849)"><path
             d="m 0,0 -0.038,-1.704 h -2.663 c -0.469,0 -0.85,-0.381 -0.85,-0.85 l -0.037,-2.57 -1.813,0.005 v 2.565 c 0,0.469 -0.381,0.85 -0.85,0.85 l -2.701,0.005 0.038,1.714 h 2.663 c 0.469,0 0.85,0.381 0.85,0.85 l 0.037,2.57 1.813,-0.005 V 0.865 c 0,-0.469 0.381,-0.85 0.85,-0.85 z M -3.588,5.135 H -5.364 C -6.322,5.135 -7.102,4.37 -7.102,3.43 V 1.715 h -1.812 c -0.958,0 -1.738,-0.765 -1.738,-1.705 v -1.709 c 0,-0.94 0.78,-1.705 1.738,-1.705 h 1.812 v -1.715 c 0,-0.94 0.78,-1.705 1.738,-1.705 h 1.776 c 0.958,0 1.737,0.765 1.737,1.705 v 1.715 h 1.813 c 0.958,0 1.738,0.765 1.738,1.705 V 0.01 c 0,0.94 -0.78,1.705 -1.738,1.705 H -1.851 V 3.43 c 0,0.94 -0.779,1.705 -1.737,1.705"
             style="fill:#0098da;fill-opacity:1;fill-rule:nonzero;stroke:none"
             id="path30"
             inkscape:connector-curvature="0" /></g><g
           id="g32"
           transform="translate(47.4411,2.8693)"><path
             d="m 0,0 -0.352,-0.359 c -0.232,-0.238 -0.543,-0.37 -0.875,-0.373 H -1.24 c -0.328,0 -0.637,0.126 -0.871,0.355 L -7.087,4.496 -4.994,6.633 -0.02,1.76 C 0.471,1.279 0.48,0.49 0,0 m -15.667,5.491 c 0.194,1.719 1.641,3.065 3.41,3.065 1.77,0 3.215,-1.346 3.409,-3.065 -2.096,-1.229 -4.718,-1.233 -6.819,0 m 3.41,5.991 c -0.886,0 -1.607,0.721 -1.607,1.607 0,0.886 0.721,1.606 1.607,1.606 0.886,0 1.607,-0.72 1.607,-1.606 0,-0.886 -0.721,-1.607 -1.607,-1.607 m -4.817,4.537 c 1.318,1.345 3.067,2.02 4.817,2.02 1.703,0 3.408,-0.64 4.718,-1.922 1.286,-1.261 2.005,-2.946 2.024,-4.747 0.019,-1.768 -0.643,-3.436 -1.859,-4.713 -0.53,1.663 -1.868,2.952 -3.563,3.405 1.167,0.511 1.986,1.673 1.986,3.027 0,1.823 -1.483,3.306 -3.306,3.306 -1.823,0 -3.307,-1.483 -3.307,-3.306 0,-1.354 0.82,-2.516 1.987,-3.027 -1.694,-0.453 -3.031,-1.74 -3.562,-3.401 -2.485,2.615 -2.479,6.759 0.065,9.358 m -0.278,9.696 c 0.727,0 1.32,-0.592 1.32,-1.32 0,-0.727 -0.593,-1.319 -1.32,-1.319 -0.728,0 -1.32,0.592 -1.32,1.319 0,0.728 0.592,1.32 1.32,1.32 m 9.799,-0.092 c 0.728,0 1.321,-0.592 1.321,-1.319 0,-0.728 -0.593,-1.32 -1.321,-1.32 -0.727,0 -1.319,0.592 -1.319,1.32 0,0.727 0.592,1.319 1.319,1.319 M 1.17,2.975 -4.342,8.374 c 0.352,0.952 0.537,1.968 0.527,3.014 -0.024,2.255 -0.923,4.366 -2.535,5.944 -0.962,0.943 -2.097,1.599 -3.3,1.987 0.547,0.555 1.297,0.881 2.097,0.881 1.294,0 2.455,-0.865 2.826,-2.104 0.11,-0.369 0.448,-0.608 0.814,-0.608 0.08,0 0.162,0.012 0.243,0.036 0.45,0.134 0.706,0.608 0.571,1.058 -0.441,1.477 -1.597,2.615 -3.016,3.083 0.937,0.513 1.582,1.497 1.582,2.639 0,1.665 -1.355,3.019 -3.02,3.019 -1.665,0 -3.018,-1.354 -3.018,-3.019 0,-1.143 0.645,-2.128 1.584,-2.641 -1.029,-0.335 -1.917,-1.021 -2.502,-1.961 -0.615,0.056 -1.235,0.04 -1.848,-0.039 -0.582,1.009 -1.501,1.744 -2.578,2.093 0.937,0.513 1.582,1.497 1.582,2.639 0,1.665 -1.355,3.02 -3.019,3.02 -1.666,0 -3.019,-1.355 -3.019,-3.02 0,-1.138 0.64,-2.119 1.572,-2.634 -1.381,-0.45 -2.499,-1.532 -2.969,-2.969 -0.147,-0.446 0.096,-0.927 0.542,-1.072 0.088,-0.03 0.177,-0.043 0.265,-0.043 0.357,0 0.691,0.227 0.808,0.586 0.397,1.213 1.522,2.028 2.801,2.028 0.884,0 1.698,-0.394 2.25,-1.053 -1.167,-0.416 -2.263,-1.087 -3.187,-2.03 -3.256,-3.326 -3.201,-8.682 0.124,-11.939 1.641,-1.607 3.774,-2.408 5.907,-2.408 1.229,0 2.454,0.276 3.587,0.807 l 5.37,-5.26 c 0.555,-0.543 1.285,-0.841 2.06,-0.841 h 0.032 c 0.786,0.009 1.523,0.323 2.071,0.884 l 0.352,0.359 0.001,10e-4 C 2.35,-0.029 2.33,1.838 1.17,2.975"
             style="fill:#0098da;fill-opacity:1;fill-rule:nonzero;stroke:none"
             id="path34"
             inkscape:connector-curvature="0" /></g><g
           id="g36"
           transform="translate(33.1022,38.5978)"><path
             d="m 0,0 c 0.316,-0.316 0.558,-0.684 0.743,-1.078 h -5.764 c -2.099,0 -3.807,1.708 -3.807,3.807 V 8.495 C -8.434,8.31 -8.066,8.068 -7.749,7.751 Z m -5.679,-32.701 h -23.476 c -1.116,0 -2.023,0.907 -2.023,2.022 v 29.992 7.319 c 0,1.232 1.002,2.233 2.233,2.233 h 18.417 V 2.729 c 0,-3.036 2.471,-5.507 5.507,-5.507 h 6.136 v -4.204 c 0,-0.47 0.38,-0.851 0.85,-0.851 0.47,0 0.849,0.381 0.849,0.851 v 4.289 c 0,0.247 -0.039,0.487 -0.071,0.728 0.001,0.013 0.008,0.024 0.008,0.037 0,0.038 -0.017,0.071 -0.022,0.108 -0.18,1.138 -0.696,2.192 -1.527,3.022 l -7.75,7.751 c -0.831,0.832 -1.886,1.348 -3.025,1.528 -0.036,0.004 -0.068,0.021 -0.105,0.021 -0.013,0 -0.023,-0.007 -0.036,-0.007 -0.24,0.031 -0.479,0.07 -0.725,0.07 h -18.506 c -2.169,0 -3.933,-1.764 -3.933,-3.933 v -7.319 -29.992 c 0,-2.053 1.67,-3.721 3.723,-3.721 h 23.476 c 0.47,0 0.85,0.379 0.85,0.849 0,0.47 -0.38,0.85 -0.85,0.85"
             style="fill:#0098da;fill-opacity:1;fill-rule:nonzero;stroke:none"
             id="path38"
             inkscape:connector-curvature="0" /></g><g
           id="g40"
           transform="translate(21.8732,17.4552)"><path
             d="m 0,0 h -15.526 c -0.469,0 -0.85,-0.38 -0.85,-0.85 0,-0.469 0.381,-0.849 0.85,-0.849 H 0 c 0.469,0 0.85,0.38 0.85,0.849 C 0.85,-0.38 0.469,0 0,0"
             style="fill:#0098da;fill-opacity:1;fill-rule:nonzero;stroke:none"
             id="path42"
             inkscape:connector-curvature="0" /></g><g
           id="g44"
           transform="translate(21.8732,12.6652)"><path
             d="m 0,0 h -15.526 c -0.469,0 -0.85,-0.38 -0.85,-0.85 0,-0.469 0.381,-0.849 0.85,-0.849 H 0 c 0.469,0 0.85,0.38 0.85,0.849 C 0.85,-0.38 0.469,0 0,0"
             style="fill:#0098da;fill-opacity:1;fill-rule:nonzero;stroke:none"
             id="path46"
             inkscape:connector-curvature="0" /></g><g
           id="g48"
           transform="translate(21.8732,22.2462)"><path
             d="m 0,0 h -15.526 c -0.469,0 -0.85,-0.38 -0.85,-0.85 0,-0.469 0.381,-0.849 0.85,-0.849 H 0 c 0.469,0 0.85,0.38 0.85,0.849 C 0.85,-0.38 0.469,0 0,0"
             style="fill:#0098da;fill-opacity:1;fill-rule:nonzero;stroke:none"
             id="path50"
             inkscape:connector-curvature="0" /></g></g></g></g></svg>