<svg id="Слой_1" data-name="Слой 1" xmlns="http://www.w3.org/2000/svg" viewBox="0 0 29.99 29.99"><defs><style>.cls-1{fill:#0098da}</style></defs><path class="cls-1" d="M17.7 4.97h-6.66a.65.65 0 00-.65.65V8.1h7.3zM25 4.97h-6.88V8.1h7.56V5.64a.67.67 0 00-.67-.67zM8.73 4.65L6.6 3.08 4.54 4.65a.28.28 0 10.34.45l1-.79.34-.3.22-.17-.09 3.5a.28.28 0 00.28.3.28.28 0 00.29-.28l.02-2.14V4L8.4 5.1a.27.27 0 00.17.06.28.28 0 00.17-.5zM25.12 24.38a.98.98 0 00.71-.94v-.04a5.18 5.18 0 01-.7.98zM17.1 23.83l-6.33.05h-.03l-.03-2.49 5.5-.02a5.09 5.09 0 01-.06-.52v-.03l-5.38.05h-.03l-.03-2.55 6.14-.03a5.15 5.15 0 01.36-.55l-6.44.05h-.03l-.03-2.55 7.01-.02.04 1.89a5.2 5.2 0 01.53-.44l-.02-1.43 6.95-.02.05 2.28a5.17 5.17 0 01.54.77l-.03-9.8-23 .06v14.91a1 1 0 00.99 1H17.6a5.2 5.2 0 01-.5-.6zm8.12-14.78l.06 2.5v.04l-6.95.05h-.03l-.03-2.56zm0 3.1l.06 2.48v.03l-6.93.06h-.05l-.03-2.55zm-7.5-3.1l.06 2.5v.04l-7.01.05h-.03l-.03-2.56zm0 3.1l.06 2.48v.03l-7 .06h-.04l-.03-2.55zM3.77 23.82a.38.38 0 01-.39-.39l-.02-2.05 6.78-.02v-.03h.02l.05 2.46v.03zm-.36-2.96h-.03l-.02-2.55 6.74-.03v-.03h.06l.05 2.52v.03zm0-3.08h-.03l-.02-2.55 6.8-.02.05 2.49v.03zm.02-3.07h-.05l-.02-2.55 6.8-.03.05 2.5v.02zm-.02-3.08h-.03l-.02-2.56 6.8-.03.05 2.5v.04z"/><path class="cls-1" d="M18.35 23.9a4.28 4.28 0 004.93.8l4.22 4.22L29.4 27l-4.21-4.22a4.27 4.27 0 10-6.85 1.12zm6.55 1.4l.9-.9 2.59 2.6-.9.9zm-.99-.99a4.29 4.29 0 00.9-.9l.47.49-.89.89zm-5.05-5.94a3.55 3.55 0 110 5.02 3.54 3.54 0 010-5.02z"/></svg>