<svg width="43" height="52" fill="none" xmlns="http://www.w3.org/2000/svg"><rect width="100%" height="100%"/><defs><clipPath id="a"><path fill="#fff" d="M0 2.55h43V52H0z"/></clipPath></defs><g class="currentLayer"><g clip-path="url(#a)" class="selected" fill="#fff"><path d="M26.12 33.72a2.52 2.52 0 000-5.04 2.57 2.57 0 00-2.57 2.55 2.56 2.56 0 002.57 2.5zM17.73 31.22a2.57 2.57 0 00-5.13 0 2.55 2.55 0 002.57 2.5c1.4 0 2.56-1.15 2.56-2.5z"/><path d="M20.4 18.7A16.64 16.64 0 003.7 35.13a16.67 16.67 0 0016.46 16.7h.23a16.65 16.65 0 0016.7-16.57c0-9.14-7.5-16.58-16.7-16.58zm15.04 16.72A15.04 15.04 0 0120.4 50.2c-8.3 0-15.06-6.7-15.06-14.94 0-8.24 6.76-14.95 15.06-14.95h.2c8.27.11 14.93 6.88 14.85 15.1z"/><path d="M26.12 33.89c1.47 0 2.67-1.2 2.67-2.66a2.7 2.7 0 00-2.67-2.71 2.72 2.72 0 00-2.74 2.71 2.74 2.74 0 002.74 2.66zM17.9 31.22a2.72 2.72 0 00-5.47 0 2.73 2.73 0 005.46 0z"/><path d="M20.4 18.53a16.8 16.8 0 00-16.88 16.6A16.84 16.84 0 0020.16 52h.23a16.8 16.8 0 0016.86-16.74c0-9.22-7.57-16.73-16.86-16.73zm0 31.51c-8.23 0-14.9-6.62-14.9-14.77 0-8.15 6.68-14.78 14.9-14.78h.18c8.19.1 14.79 6.8 14.7 14.93A14.89 14.89 0 0120.4 50.04z"/><path d="M31.38 36.58c-.21-.47-.67-.76-1.18-.76-.18 0-.36.04-.52.11l-14.96 6.6a1.28 1.28 0 00.53 2.46c.18 0 .36-.04.53-.1l14.95-6.61c.32-.14.56-.39.69-.71.1-.33.09-.68-.05-1z"/><path d="M29.73 36.09l-14.96 6.6c-.56.25-.82.9-.57 1.47.25.56.92.82 1.48.57l14.96-6.6c.57-.26.83-.92.57-1.48a1.1 1.1 0 00-1.48-.56z"/></g><path d="M40 .2H3A3 3 0 000 3.2v9.17a3 3 0 003 2.99h30.33l1.98 4.4c.2.44.64.73 1.12.73.49 0 .94-.29 1.13-.72l1.97-4.41h.45A3 3 0 0043 12.36V3.2A2.99 2.99 0 0040 .2zm1.24 12.17c0 .69-.57 1.25-1.26 1.25h-1.02c-.35 0-.66.2-.8.51L36.43 18l-1.73-3.86a.88.88 0 00-.8-.51H3c-.68 0-1.25-.56-1.25-1.25V3.2c0-.69.57-1.25 1.26-1.25h36.97c.7 0 1.26.56 1.26 1.25v9.18z" fill="#fff" class="selected"/><path d="M40 .37H3A2.83 2.83 0 00.18 3.19v9.17A2.83 2.83 0 003 15.18h30.42l2.02 4.51a1.07 1.07 0 001.95 0l2.02-4.5h.55a2.83 2.83 0 002.85-2.83V3.2A2.81 2.81 0 0039.99.37zm1.4 12c0 .78-.63 1.41-1.42 1.41h-1.02a.71.71 0 00-.65.43l-1.89 4.2-1.88-4.2a.71.71 0 00-.65-.43H3.01c-.79 0-1.43-.62-1.43-1.4V3.18c0-.78.64-1.41 1.43-1.41h36.97c.79 0 1.43.62 1.43 1.41v9.18z" fill="#fff" class="selected"/><path d="M5.14 5.3h2.84c.4 0 .71-.3.71-.7a.7.7 0 00-.7-.7H5.13a.7.7 0 00-.7.7c0 .4.31.7.7.7zM10.83 5.3h9.24c.4 0 .71-.3.71-.7a.7.7 0 00-.7-.7h-9.25a.7.7 0 00-.7.7c0 .4.31.7.7.7zM31.46 3.9h-8.53a.7.7 0 00-.71.7c0 .4.31.7.7.7h8.54c.39 0 .7-.3.7-.7a.7.7 0 00-.7-.7zM12.97 7.42H5.14a.7.7 0 00-.7.7c0 .4.31.71.7.71h7.83c.39 0 .7-.31.7-.7 0-.38-.31-.7-.7-.7zM26.47 7.42h-9.95a.7.7 0 00-.7.7c0 .4.31.71.7.71h9.96c.4 0 .71-.31.71-.7 0-.38-.32-.7-.72-.7zM36.43 6.72a2.83 2.83 0 00-2.84 2.82 2.83 2.83 0 002.84 2.82 2.83 2.83 0 002.85-2.82 2.84 2.84 0 00-2.84-2.82zm0 4.24a1.41 1.41 0 110-2.83c.79 0 1.43.63 1.43 1.41 0 .79-.64 1.42-1.43 1.42z" fill="#fff" class="selected"/></g></svg>