<svg xmlns="http://www.w3.org/2000/svg" xml:space="preserve" width="66.667" height="66.667"><defs><clipPath id="a" clipPathUnits="userSpaceOnUse"><path d="M0 50h50V0H0Z"/></clipPath></defs><g clip-path="url(#a)" transform="matrix(1.33333 0 0 -1.33333 0 66.667)"><path d="M0 0h-23.64c-1.82 0-3.48.92-4.44 2.48a5.17 5.17 0 0 0-.24 5.05l16.06 28.97a5.197 5.197 0 0 0 4.67 2.89c1.99 0 3.78-1.11 4.68-2.91L7.12 17.83c.22-.42.74-.57 1.16-.35.42.22.57.74.35 1.16L-1.39 37.27a6.9 6.9 0 0 1-6.2 3.83c-2.64 0-5.02-1.47-6.18-3.8L-29.84 8.33a6.91 6.91 0 0 1 .3-6.75 6.886 6.886 0 0 1 5.89-3.29H-.01c.47 0 .86.38.86.86S.47 0 0 0" style="fill:#0098da;fill-opacity:1;fill-rule:nonzero;stroke:none" transform="translate(31.63 5.32)"/><path d="M0 0c.55.43.98.88 1.3 1.35a.99.99 0 0 0 .09-.42C1.38.32.84-.43-.11-1.18c-.34-.26-.6-.55-.82-.85-.06.14-.11.29-.11.46C-1.06-.95-.48-.37 0 0m-1.04 1.35C-2.19.46-2.76-.53-2.74-1.59c.02-1.1.69-1.91 1.13-2.33 0-1.57 1.17-2.72 1.31-2.85.16-.15.37-.23.58-.23a.852.852 0 0 1 .58 1.47c-.01.01-.82.8-.78 1.66.02.48.3.93.86 1.36C2.68-1.14 3.07.1 3.09.9c.02.85-.35 1.62-1.06 2.24-.02.02-.05.03-.08.04.06 1.27-.64 2.12-.73 2.22-.31.35-.85.39-1.2.07a.852.852 0 0 1-.07-1.2s.36-.45.3-1.07c-.06-.6-.5-1.24-1.29-1.85" style="fill:#0098da;fill-opacity:1;fill-rule:nonzero;stroke:none" transform="translate(24.28 33.57)"/><path d="m0 0 .77-.77-3.19-3.19-.77.77zm11.19 9.65-.7-.7-.77.77.7.7zM8.52 8.52l.77-.77L1.97.43l-.77.77ZM-4.5-4.29l.98-.98c.29-.29.68-.45 1.1-.45.42 0 .8.16 1.1.45L12.5 8.55c.6.6.6 1.59 0 2.19l-.99.99c-.6.6-1.58.6-2.19 0L-4.5-2.09c-.6-.61-.6-1.59 0-2.2" style="fill:#0098da;fill-opacity:1;fill-rule:nonzero;stroke:none" transform="translate(16.11 14)"/><path d="M0 0c-2.1-3.21-6.43-4.12-9.64-2.02a6.95 6.95 0 0 0-3.01 4.4 6.88 6.88 0 0 0 .99 5.24 6.95 6.95 0 0 0 4.4 3.01 6.932 6.932 0 0 0 5.24-.99A6.976 6.976 0 0 0 0 0m-1.09 11.08a8.626 8.626 0 0 1-6.52 1.23 8.561 8.561 0 0 1-5.48-3.74 8.582 8.582 0 0 1-1.23-6.52c.47-2.27 1.8-4.22 3.74-5.48a8.587 8.587 0 0 1 4.73-1.41c2.83 0 5.61 1.38 7.28 3.93 2.62 3.98 1.49 9.37-2.52 11.99" style="fill:#0098da;fill-opacity:1;fill-rule:nonzero;stroke:none" transform="translate(46.1 8.44)"/><path d="M0 0c.06.24.11.49.11.74 0 .41-.09.8-.25 1.16C.44 1.37.72.87.72.87S.46.48 0 0m-6.2 1.96c-.17-.37-.27-.78-.27-1.21 0-.31.06-.6.15-.88-.49.51-.77.95-.77.95s.27.57.89 1.14m3.02-2.9c-1.04 0-1.89.76-1.89 1.69 0 .93.84 1.69 1.89 1.69 1.04 0 1.89-.76 1.89-1.69 0-.93-.85-1.69-1.89-1.69m-.05 5.44h-.04c-3.61-.02-5.02-2.97-5.08-3.1l-.32-.69.4-.64c.08-.13 1.95-3.09 5.01-3.09C-.16-2.99 1.81-.03 1.89.1l.46.7-.4.73C1.88 1.66.3 4.5-3.23 4.5" style="fill:#0098da;fill-opacity:1;fill-rule:nonzero;stroke:none" transform="translate(43.45 11.51)"/><path d="M0 0c-.51 0-.93-.37-.93-.83 0-.46.42-.83.93-.83s.93.37.93.83C.93-.38.51 0 0 0" style="fill:#0098da;fill-opacity:1;fill-rule:nonzero;stroke:none" transform="translate(40.27 13.09)"/></g></svg>