<svg xmlns="http://www.w3.org/2000/svg" width="39.99" height="39.99"><defs><clipPath clipPathUnits="userSpaceOnUse" id="a"><path d="M0 30h30V0H0z"/></clipPath></defs><g clip-path="url(#a)" transform="matrix(1.33333 0 0 -1.33333 0 39.99)"><path d="M25.66 9.7h-5.04a.52.52 0 110-1.05h5.04a.52.52 0 110 1.04" fill="#ffffff"/><path d="M12.9 8.41c-.44.11-.86.3-1.27.54-.64.37-1.42 1.34-1.42 1.34a4.78 4.78 0 00.54 6.08 4.93 4.93 0 003.36 1.4 4.75 4.75 0 003.64-1.7l.56-.8a4.77 4.77 0 00-1.93-6.45l-.9-.37a4.77 4.77 0 00-2.57-.04m-2.85-.65l-1.2 1.2.64.64a5.57 5.57 0 011.2-1.2zM5.9 3.6L4.7 4.8l3.48 3.48 1.2-1.2zm19.76 3.42h-7.04L17.5 8.4a5.6 5.6 0 012.2 5.83h1.73c.86 0 1.54.86 1.54 1.96v2.08a.53.53 0 11-1.06 0v-2.08c0-.55-.28-.9-.48-.9h-2.07a5.57 5.57 0 01-1.2 1.78 5.73 5.73 0 01-9.3-1.77H6.52c-.2 0-.5.36-.5.9v1.61a.53.53 0 11-1.05 0v-1.6c0-1.1.68-1.97 1.55-1.97h2.03a5.75 5.75 0 01.45-3.78l-5-5a.93.93 0 010-1.31l1.08-1.1c.46-.45 1.2-.45 1.65 0l4.84 4.83c.43-.2.89-.36 1.35-.46l.5-.1c.01.02.02 0 .02 0 .23-.02.46-.04.68-.04.86 0 1.71.2 2.5.58l1.35-1.68c.1-.13.25-.2.4-.2h7.3a.52.52 0 110 1.04M25.66 4.33H17.5a.52.52 0 110-1.04h8.16a.52.52 0 010 1.04" fill="#ffffff"/><path d="M3.62 22.86l1.09 1.09.5.5.24-.24 1.9-1.9.06-.06-.75-.76-.82-.83a1.57 1.57 0 00-2.22 0c-.6.6-.6 1.59 0 2.2m2.6 2.61l.78.78.18.17.23.24a1.56 1.56 0 002.2 0c.6-.61.6-1.6 0-2.2l-.03-.05-1.54-1.54-.06.06-2.15 2.14zm4.62-3.43c.5-.5.5-1.3 0-1.81-.5-.5-1.3-.5-1.8 0l-1.2 1.21.41.42.1.08 1.3 1.3zm-4.39-2l.82.83 1.2-1.21a2.07 2.07 0 012.95 0c.8.83.8 2.12 0 2.95l-1.2 1.2.01.01a2.44 2.44 0 01-3.42 3.47L3 23.48a2.44 2.44 0 113.45-3.45M18.05 25.48a2.3 2.3 0 002.8.9l-2.49-3.82a2.35 2.35 0 00-.3 2.92m4.04-.28a2.32 2.32 0 00-2.95-3.16l2.5 3.82c.18-.2.34-.42.45-.66m.64-2.79l.14.25 2.08-1.36a2.08 2.08 0 00-2.62-.28c-.2.14-.36.3-.5.5.35.24.66.54.9.9m.45 2.4a2.07 2.07 0 002.24-2.81l-2.25 1.46c.1.44.1.9.01 1.35m-4.98-3.36a3.23 3.23 0 012.86-.33 2.88 2.88 0 012.41-1.29 2.93 2.93 0 011.64 5.37l-.04.01c-.63.42-1.41.56-2.16.41a3.24 3.24 0 01-5.67.36 3.29 3.29 0 01.96-4.53M16.16 12.58h-1.22a.4.4 0 01-.41-.4v-1.23h-.82v1.22a.4.4 0 01-.4.41h-1.23v.82h1.22c.23 0 .41.18.41.4v1.23h.82v-1.22c0-.23.18-.41.4-.41h1.23zm.82-.4v1.63a.4.4 0 01-.41.4h-1.22v1.23a.4.4 0 01-.41.4H13.3a.4.4 0 01-.4-.4v-1.22h-1.23a.4.4 0 01-.4-.41v-1.64c0-.22.17-.4.4-.4h1.22v-1.23c0-.23.19-.4.41-.4h1.64c.22 0 .4.17.4.4v1.23h1.23c.23 0 .4.18.4.4" fill="#ffffff"/><path d="M8.03 26.16l-.02.02a.31.31 0 01-.45 0l-.71-.71a.32.32 0 010-.45l.02-.02a.31.31 0 01.45 0l.7.71c.13.12.13.32 0 .45" fill="#ffffff"/></g></svg>