<svg id="Слой_1" data-name="Слой 1" xmlns="http://www.w3.org/2000/svg" viewBox="0 0 29.97 30.03"><defs><style>.cls-1{fill:#0098da}.cls-2{fill:none}</style></defs><path class="cls-1" d="M20.2 24.07a.92.92 0 01-.88-.64l-.02-.05-1.4-.03-.03.08a.93.93 0 110-.57l.02.05h1.41l.02-.05a.94.94 0 11.89 1.21zm.01-1.39a.45.45 0 00-.46.46.46.46 0 10.92 0 .45.45 0 00-.46-.46zm-3.23 0a.45.45 0 00-.46.46.46.46 0 10.92 0 .45.45 0 00-.46-.46z"/><path class="cls-2" d="M26.7 18.82a.75.75 0 100-1.5.75.75 0 00-.76.74.76.76 0 00.76.76zM4.71 20.92a.75.75 0 00-.76.75.76.76 0 101.52 0 .75.75 0 00-.76-.75zM10.7 11.2l-1.88 3.26 1.88 3.26h3.76l1.88-3.26-1.88-3.26H10.7zM26.7 11.6a.75.75 0 00.75-.74.76.76 0 10-1.51 0 .75.75 0 00.76.75zM14.46 10.5l1.88-3.25-1.88-3.26H10.7L8.82 7.25l1.88 3.26h3.76zM20.7 7.6h-3.75l-1.88 3.26 1.88 3.25h3.76l1.88-3.25L20.7 7.6zM4.71 6.5a.75.75 0 00-.76.74.76.76 0 101.52 0 .75.75 0 00-.76-.75zM4.71 13.7a.75.75 0 00-.76.76.76.76 0 101.52 0 .75.75 0 00-.76-.75z"/><path class="cls-1" d="M22.47 23.49a4 4 0 00-.71-2.77 3.87 3.87 0 00-1.48-1.26 3.92 3.92 0 101.11 6.27l4.55 2.19a.43.43 0 00.57-.2l.7-1.48a.43.43 0 00-.2-.56zm-4.22 2.73a3.06 3.06 0 01-2.02-.99 3.24 3.24 0 01-.4-.52 3.2 3.2 0 01-.19-3.13 3.26 3.26 0 015.75-.23 3.27 3.27 0 01.3.7 3.22 3.22 0 01-.4 2.76 3.33 3.33 0 01-3.04 1.4zm4.13-.75l-.56-.27a3.94 3.94 0 00.5-1.05l.56.27zm3.63 1.75l-3.03-1.47.5-1.04 3.03 1.46zM17.66 11.8h.41v.41a.88.88 0 001.77 0l.03-.42h.38a.88.88 0 000-1.76l-.4-.02-.01-.4a.88.88 0 00-1.77 0v.44l-.41-.02a.88.88 0 100 1.77zm0-1.3h.64a.23.23 0 00.24-.24v-.65a.42.42 0 01.83 0v.65a.23.23 0 00.23.24h.65a.42.42 0 010 .83h-.65a.23.23 0 00-.23.23v.65a.42.42 0 01-.83 0v-.65a.23.23 0 00-.24-.23h-.64a.42.42 0 110-.83zM11.55 15.76h.06v1.22a.52.52 0 00.51.54.34.34 0 00.32-.16.52.52 0 00.39.16.54.54 0 00.54-.54l-.05-1.13v-.03a.6.6 0 00.59-.59V14a.63.63 0 00-.63-.63H11.7a.63.63 0 00-.63.63v1.24a.5.5 0 00.48.53zM11.47 14a.23.23 0 01.23-.23h1.58a.23.23 0 01.22.23v1.24a.32.32 0 01-.1.2.28.28 0 01-.03.02v-.96a.2.2 0 10-.4 0v2.5a.13.13 0 01-.14.13.14.14 0 01-.14-.14v-1.31a.2.2 0 10-.4 0v1.31a.14.14 0 01-.14.14.13.13 0 01-.14-.14V14.5a.2.2 0 10-.4 0l.04.9v.02a.18.18 0 01-.18-.18zM12.55 13.26a.83.83 0 10-.83-.83.83.83 0 00.83.83zm0-1.25a.42.42 0 11-.42.42.42.42 0 01.42-.42z"/><path class="cls-1" d="M26.7 16.61a1.45 1.45 0 00-1.39 1.01l-.03.1h-2.09l-1.88-3.26 1.88-3.26h2.09l.03.1a1.45 1.45 0 100-.9l-.03.1h-2.09l-1.98-3.43a.35.35 0 00-.3-.17h-3.96l-1.98-3.43a.35.35 0 00-.3-.18H10.5a.35.35 0 00-.3.18L8.2 6.9H6.13l-.03-.1a1.45 1.45 0 100 .9l.03-.1h2.08l1.88 3.26-1.88 3.25H6.13l-.03-.1a1.45 1.45 0 100 .9l.03-.1h2.08l1.88 3.26-1.88 3.26H6.13l-.03-.1a1.45 1.45 0 100 .9l.03-.1h2.08l1.98 3.43a.35.35 0 00.3.17h3.84a.35.35 0 00.35-.34v-.01a.35.35 0 00-.35-.35H10.7l-1.88-3.25 1.88-3.26h3.74l.58.96a.36.36 0 00.62-.38l-.57-.94 1.88-3.25h3.76l1.88 3.26-.97 1.67a.35.35 0 00.13.48.35.35 0 00.48-.12l.96-1.68h2.09l.03.1a1.46 1.46 0 002.84-.45 1.46 1.46 0 00-1.45-1.46zm0-6.51a.76.76 0 01.75.76.76.76 0 01-1.51 0 .76.76 0 01.76-.76zM4.7 8a.76.76 0 01-.76-.76.76.76 0 011.52 0A.76.76 0 014.7 8zm0 7.22a.76.76 0 01-.76-.76.76.76 0 011.52 0 .76.76 0 01-.76.76zm0 7.21a.76.76 0 01-.76-.76.76.76 0 011.52 0 .76.76 0 01-.76.76zm4.1-15.18l1.89-3.26h3.76l1.88 3.26-1.88 3.25H10.7zm5.65 10.47H10.7l-1.88-3.26 1.88-3.26h3.76l1.88 3.26zm2.49-3.6l-1.88-3.26 1.88-3.26h3.76l1.88 3.26-1.88 3.25zm9.75 4.7a.76.76 0 01-.76-.76.76.76 0 011.51 0 .76.76 0 01-.75.76z"/></svg>