<svg width="66.667" height="66.667" xmlns="http://www.w3.org/2000/svg"><defs><clipPath clipPathUnits="userSpaceOnUse" id="a"><path d="M0 50h50V0H0Z"/></clipPath></defs><g clip-path="url(#a)" transform="matrix(1.33333 0 0 -1.33333 0 66.667)"><path d="M0 0a.86.86 0 0 0-.861.861v23.514a3.948 3.948 0 0 0 3.944 3.943h21.839c1.051 0 2.042-.41 2.786-1.154l5.902-5.901a3.916 3.916 0 0 0 1.153-2.787V.872a.86.86 0 1 0-1.721 0v17.604c0 .593-.232 1.15-.65 1.57l-5.901 5.9c-.414.413-.986.65-1.569.65H3.083a2.225 2.225 0 0 1-2.222-2.221V.861A.86.86 0 0 0 0 0" style="fill:#0098da;fill-opacity:1;fill-rule:nonzero;stroke:none" transform="translate(7.06 21.128)"/><path d="M0 0h-23.806a.86.86 0 0 0 0 1.723H0A.861.861 0 0 0 0 0" style="fill:#0098da;fill-opacity:1;fill-rule:nonzero;stroke:none" transform="translate(36.559 31.908)"/><path d="M0 0h-11.206a.861.861 0 0 0 0 1.723H0A.861.861 0 0 0 0 0" style="fill:#0098da;fill-opacity:1;fill-rule:nonzero;stroke:none" transform="translate(36.559 36.932)"/><path d="M0 0h-23.806a.86.86 0 0 0-.86.861.86.86 0 0 0 .86.861H0A.86.86 0 1 0 0 0" style="fill:#0098da;fill-opacity:1;fill-rule:nonzero;stroke:none" transform="translate(36.559 26.886)"/><path d="M0 0c0-.36-.3-.65-.66-.65h-1.92c-.53 0-.83.25-.83.69v4.29c0 .33.29.7.71.7h1.97c.35 0 .66-.3.66-.65 0-.35-.29-.62-.66-.62h-1.36v-.93h1.22c.35 0 .65-.29.65-.63a.64.64 0 0 0-.65-.64h-1.22V.62h1.43C-.3.62 0 .34 0 0" style="fill:#0098da;fill-opacity:1;fill-rule:nonzero;stroke:none" transform="translate(15.14 38.36)"/><path d="M0 0c0-1.09-.79-1.82-1.96-1.82-.66 0-1.7.24-1.7.89 0 .34.29.63.63.63.13 0 .26-.04.42-.1l.03-.02c.16-.05.37-.13.63-.13.4 0 .6.17.6.51 0 .26-.11.33-.21.38-.13.06-.29.12-.51.2-.7.22-1.58.51-1.58 1.73 0 1.06.7 1.73 1.83 1.73.17 0 1.61-.03 1.61-.84 0-.36-.28-.63-.66-.63a.96.96 0 0 0-.32.06l-.08.03c-.14.05-.28.1-.51.1-.53 0-.53-.31-.53-.42 0-.25.11-.32.22-.38.15-.08.31-.14.49-.19C-.88 1.49 0 1.2 0 0" style="fill:#0098da;fill-opacity:1;fill-rule:nonzero;stroke:none" transform="translate(19.09 39.46)"/><path d="M0 0h-.46v1.31H0c.47 0 .68-.21.68-.66C.68.2.47 0 0 0m0 2.58h-1.06c-.39 0-.72-.32-.72-.7v-4.39c0-.36.3-.66.66-.66.36 0 .66.3.66.66v1.24H0c1.24 0 2 .73 2 1.91 0 1.21-.75 1.94-2 1.94" style="fill:#0098da;fill-opacity:1;fill-rule:nonzero;stroke:none" transform="translate(21.33 40.81)"/><path d="M0 0c0-1.81-1.35-3.28-3-3.28h-36.02c-1.65 0-3 1.47-3 3.28v8.9c0 1.81 1.35 3.28 3 3.28h23.59c.28 0 .54.13.71.36l2.48 3.55 1.55-3.4c.14-.31.44-.51.78-.51H-3c1.65 0 3-1.47 3-3.28zm-3 13.91h-6.35l-1.94 4.27c-.13.28-.4.47-.71.5-.3.02-.6-.11-.78-.36l-3.1-4.42-23.14.01c-2.6 0-4.72-2.25-4.72-5.01V0c0-2.76 2.12-5 4.72-5H-3c2.6 0 4.72 2.24 4.72 5v8.9c0 2.76-2.12 5.01-4.72 5.01" style="fill:#0098da;fill-opacity:1;fill-rule:nonzero;stroke:none" transform="translate(46.01 5.34)"/><path d="M0 0c-.26 0-.48.21-.48.46.02.13.2.44.48.82C.3.88.46.59.49.47A.487.487 0 0 0 0 0m-6.99-.01c-.26 0-.48.21-.48.46.02.13.2.44.48.82.28-.37.46-.68.48-.81 0-.26-.22-.47-.48-.47M.69 3.12c-.03.04-.07.07-.11.09-.02.02-.04.04-.06.05-.15.13-.34.2-.55.2h-.01l-2.56-.02v1.17c0 .48-.39.87-.86.87-.48 0-.86-.39-.86-.87V3.43l-2.5-.01c-.04 0-.08 0-.12-.01h-.05c-.23 0-.53-.13-.69-.3-.69-.74-1.51-1.79-1.51-2.64 0-1.22.99-2.21 2.2-2.21 1.22 0 2.21.99 2.21 2.21 0 .39-.17.82-.43 1.24h.89v-5.76h-.7a.86.86 0 0 1-.86-.86c0-.47.39-.86.86-.86h3.12c.47 0 .86.39.86.86 0 .48-.39.86-.86.86h-.7v5.77l.84.01C-2.03 1.31-2.2.87-2.2.48c0-1.22.99-2.21 2.2-2.21 1.22 0 2.21.99 2.21 2.21 0 .68-.51 1.57-1.52 2.64" style="fill:#0098da;fill-opacity:1;fill-rule:nonzero;stroke:none" transform="translate(16.13 10.23)"/><path d="M0 0h.01zm-1.624-1.472h1.472V0h-1.472ZM0-3.194h-1.775c-.866 0-1.57.705-1.57 1.571V.151c0 .866.704 1.571 1.57 1.571H0c.866 0 1.57-.705 1.57-1.571v-1.774c0-.866-.704-1.571-1.57-1.571" style="fill:#0098da;fill-opacity:1;fill-rule:nonzero;stroke:none" transform="translate(27.716 13.415)"/><path d="M0 0h.01zm-1.623-1.472h1.471V0h-1.471ZM0-3.194h-1.774c-.866 0-1.57.705-1.57 1.571V.151c0 .866.704 1.571 1.57 1.571H0c.866 0 1.57-.705 1.57-1.571v-1.774c0-.866-.704-1.571-1.57-1.571" style="fill:#0098da;fill-opacity:1;fill-rule:nonzero;stroke:none" transform="translate(24.786 8.226)"/><path d="M0 0h.01zm-1.624-1.472h1.472V0h-1.472ZM0-3.194h-1.774c-.867 0-1.571.705-1.571 1.571V.151c0 .866.704 1.571 1.571 1.571H0c.866 0 1.57-.705 1.57-1.571v-1.774c0-.866-.704-1.571-1.57-1.571" style="fill:#0098da;fill-opacity:1;fill-rule:nonzero;stroke:none" transform="translate(30.645 8.226)"/><path d="M0 0c0-1.25-1.01-2.27-2.41-2.58v-.43c0-.48-.39-.87-.86-.87-.48 0-.86.39-.86.87v.42c-.78.17-1.5.62-2.01 1.29-.29.37-.21.91.17 1.2.37.29.91.22 1.2-.16.35-.45.89-.71 1.46-.69h.04c.93.01 1.55.51 1.55.95 0 .45-.64.95-1.55.95-1.81 0-3.28 1.2-3.28 2.68 0 1.25 1.01 2.28 2.42 2.58v.43c0 .48.38.86.86.86.47 0 .86-.38.86-.86v-.42c.78-.18 1.5-.63 2-1.29.28-.37.21-.91-.17-1.2a.848.848 0 0 0-1.2.16 1.8 1.8 0 0 1-1.43.69h-.06c-.93-.01-1.56-.51-1.56-.95 0-.45.64-.96 1.56-.96C-1.44 2.67 0 1.5 0 0" style="fill:#0098da;fill-opacity:1;fill-rule:nonzero;stroke:none" transform="translate(41.94 8.27)"/></g></svg>