<svg xmlns="http://www.w3.org/2000/svg" xml:space="preserve" width="66.67" height="69.33"><defs><clipPath clipPathUnits="userSpaceOnUse" id="a"><path d="M0 52h50V0H0Z"/></clipPath></defs><g clip-path="url(#a)" transform="matrix(1.33333 0 0 -1.33333 0 69.33)"><path d="M42.92 14.53a.81.81 0 0 0-.67-.35l-14.51-.05c-.41.05-.5.2-.54.25-.15.25-.09.72-.04.85L30 21.87h10.16l2.83-6.64a.72.72 0 0 0-.07-.7m-11.34 19.7h7c.32 0 .58-.22.61-.43a.48.48 0 0 0-.12-.37h-5.14a.85.85 0 1 1 0-1.7h4.23l-.03-2.36c-.54.1-1.39.14-2.13-.35a2.42 2.42 0 0 1-.96-1.35c-.57.05-1.3 0-1.9-.43-.43-.3-.94-.92-.93-2.12 0-.46.39-.84.85-.84h.01c.47 0 .85.39.84.86 0 .25.04.59.22.72.29.2.96.12 1.33 0a.85.85 0 0 1 1.12.76c.02.35.1.8.37.99.32.22.93.09 1.11.02h.04v-.74c-.01-.11.01-.23.06-.34l1.27-2.98h-8.7L32 26.55c.04.1.07.22.07.33v5.54c0 .39-.35.75-.72.84a.49.49 0 0 0-.38.54c.02.2.28.43.61.43M44.56 15.9l-3.06 7.15-1.7 4 .06 4.83A2.17 2.17 0 0 1 40.88 34c-.13 1.09-1.15 1.93-2.3 1.93h-7c-1.16 0-2.17-.84-2.3-1.93-.1-.88.32-1.7 1.09-2.14v-4.8L25.6 15.9c-.14-.32-.4-1.44.13-2.37.25-.43.77-.97 1.92-1.1l14.6.05c.83 0 1.61.4 2.08 1.09.47.69.56 1.56.23 2.33M15 37a1.35 1.35 0 1 0 .01 2.7 1.35 1.35 0 0 0 0-2.7m0 4.4a3.05 3.05 0 1 1 0-6.11 3.05 3.05 0 0 1 0 6.1" fill="#0098da"/><path d="M21.62 35.5a7.17 7.17 0 0 1-.72 6.97c2.2-1.68 3.24-3.79 3.24-3.79s-.92-1.57-2.52-3.18M5.88 38.53s1 2.4 3.4 4.17a7.16 7.16 0 0 1-.67-7.63c-1.74 1.67-2.73 3.46-2.73 3.46M15 32.85a5.5 5.5 0 1 0 0 11 5.5 5.5 0 0 0 0-11m10.66 6.58c-.13.27-3.38 6.78-10.77 6.78h-.1c-7.5-.06-10.37-6.74-10.5-7.03l-.3-.76.39-.72c.16-.3 4.08-7.22 10.43-7.22h.1c6.36.07 10.52 7.05 10.69 7.35l.46.78zM17.58 24.37H6.45a.85.85 0 1 0 0 1.7h11.13a.85.85 0 1 0 0-1.7M19.73 18.84H6.45a.85.85 0 1 0 0 1.7h12.76l4 2.72a.85.85 0 1 0 .96-1.4ZM17.58 13.3H6.45a.85.85 0 1 0 0 1.7h11.13a.85.85 0 1 0 0-1.7M40.5 5.77c0 .47-.24.65-.67.65-.5 0-.78-.26-.78-.68v-.52c.3-.04.65-.06.78-.06.5 0 .67.24.67.61M11.2 5.77c0 .47-.23.65-.66.65-.5 0-.78-.26-.78-.68v-.52c.3-.04.64-.06.78-.06.5 0 .66.24.66.61M30.62 6.38c-.55 0-.83-.3-.83-.76v-1.4c0-.47.28-.76.83-.76.54 0 .83.29.83.76v1.4c0 .47-.29.76-.83.76" fill="#0098da"/><path d="M2.67 10.82v35.23a3.75 3.75 0 0 0 3.77 3.77h28.44v-6.8a5.52 5.52 0 0 1 5.51-5.5h6.82v-26.7Zm43.56-7.75c0-.25-.18-.44-.48-.44s-.47.2-.47.44V5.5c0 .55-.26.88-.7.88-.26 0-.53-.1-.83-.27a.96.96 0 0 0 .03-.21V3.07c0-.25-.16-.44-.47-.44-.32 0-.48.2-.48.44V5.9c0 .38-.06.4-.11.49-.07.1-.1.16-.1.26 0 .23.18.4.45.4.17 0 .3-.09.41-.25.4.27.83.39 1.22.39 1.02 0 1.53-.68 1.53-1.7zm-6.35.36c.33 0 .56.09.85.22.03.02.1.04.2.04.3 0 .43-.22.43-.4 0-.52-1.04-.67-1.56-.67-1.08 0-1.7.65-1.7 1.5v1.56c0 .87.61 1.53 1.75 1.53 1.06 0 1.59-.58 1.59-1.46 0-.83-.48-1.32-1.6-1.32-.25 0-.5.01-.79.06v-.4c0-.4.28-.66.83-.66m-3.21-.8c-.28 0-.33.1-.51.37l-1.17 1.67-.2-.2v-1.2c0-.33-.1-.64-.47-.64-.28 0-.48.18-.48.44v5.32c0 .35.08.66.48.66.26 0 .47-.19.47-.43V5.58l1.27 1.35c.11.12.25.24.45.24.25 0 .46-.17.46-.41a.41.41 0 0 0-.13-.3l-1.19-1.23 1.4-1.96a.48.48 0 0 0 .08-.26c-.02-.24-.22-.38-.46-.38m-4.27 1.6c0-.9-.62-1.6-1.78-1.6-1.16 0-1.78.7-1.78 1.6V5.6c0 .91.62 1.6 1.78 1.6 1.16 0 1.78-.69 1.78-1.6zM27.2 2.65c-1.3 0-1.62.63-1.62 1.84v3.54c0 .25.17.44.48.44.3 0 .47-.2.47-.44V6.95h.79c.24 0 .44-.18.44-.43 0-.24-.2-.42-.44-.42h-.79V4.56c0-.78.07-1.06.6-1.06h.16c.38 0 .59-.09.59-.39 0-.4-.34-.45-.68-.45M24 3.95h-.25v-.89c0-.25-.21-.45-.47-.45-.28 0-.48.2-.48.45v.89h-2.07c-.29 0-.5.23-.5.48 0 .04.04.18.09.28L22 8.77c.07.17.24.28.42.28.23 0 .48-.21.48-.46 0-.05 0-.1-.03-.16-.26-.59-1.25-3.01-1.5-3.6h1.42v1.53c0 .26.2.45.48.45.25 0 .47-.2.47-.45V4.83H24c.25 0 .46-.2.46-.44 0-.25-.2-.44-.46-.44m-5.24-1.3c-1.3 0-1.62.64-1.62 1.85v3.54c0 .25.17.44.48.44.3 0 .47-.2.47-.44V6.95h.78c.25 0 .45-.18.45-.43 0-.24-.2-.42-.45-.42h-.78V4.56c0-.78.07-1.06.6-1.06h.16c.38 0 .59-.09.59-.39 0-.4-.34-.45-.68-.45m-3.3 3.63c-.37.01-.61.02-.98-.2l.02-.2V3.07c0-.26-.21-.45-.48-.45s-.47.2-.47.45v2.82c0 .24-.04.37-.12.5a.36.36 0 0 0-.1.25c0 .24.22.4.46.4.16 0 .3-.1.4-.25.4.24.85.38 1.16.38.45 0 .6-.18.6-.43a.44.44 0 0 0-.5-.45M10.6 3.43c.32 0 .56.09.85.22.03.02.09.04.2.04.3 0 .43-.22.43-.4 0-.52-1.04-.67-1.56-.67-1.08 0-1.7.65-1.7 1.5v1.56c0 .87.6 1.53 1.74 1.53 1.07 0 1.6-.58 1.6-1.46 0-.83-.49-1.32-1.6-1.32-.25 0-.5.01-.79.06v-.4c0-.4.27-.66.83-.66m-3.01.8c0-.9-.58-1.6-1.75-1.6-1.1 0-1.74.62-1.74 1.42v4.57c0 .23.17.43.48.43.3 0 .47-.2.47-.43V6.91c.3.19.62.3 1.07.3 1.05 0 1.47-.62 1.47-1.42zM46.56 40.2c.27-.27.46-.62.56-.99H40.4a3.82 3.82 0 0 0-3.81 3.82v6.7c.37-.1.72-.3 1-.57zm2.35-1.57c0 1.03-.42 2.04-1.15 2.77l-8.98 8.97a3.96 3.96 0 0 1-2.79 1.15H6.45a5.44 5.44 0 0 1-5.48-5.47L.98 1.1c0-.34.27-.6.6-.6h46.78c.34 0 .61.26.61.6z" fill="#0098da"/><path d="M5.9 6.45c-.37 0-.65-.12-.86-.34V4.05c0-.4.3-.64.8-.64.53 0 .79.3.79.77v1.64c0 .4-.22.63-.73.63" fill="#0098da"/></g></svg>