<svg id="Слой_1" data-name="Слой 1" xmlns="http://www.w3.org/2000/svg" viewBox="0 0 35.29999 33"><defs><style>.cls-1{fill:#0098da;}.cls-2{fill:none;}</style></defs><title>Detect similar sentences</title><path class="cls-1" d="M10.87875,5.96725a.425.425,0,0,1-.32721-.1636s-.66489-.79762-.95135-1.119a.62678.62678,0,0,1-.11207-.84424.4594.4594,0,0,1,.65441,0l.73622.818s1.02025-1.19473,1.461-1.63548a.521.521,0,0,1,.7314-.10907.42362.42362,0,0,1,.03208.59026C12.62814,4.01931,11.28776,5.64,11.28776,5.64c-.19268.2251-.24541.3272-.409.3272Z"/><polygon class="cls-2" points="19.1 5.2 22.9 9.3 19.1 9.3 19.1 5.2"/><polygon class="cls-2" points="29.4 2.2 33.2 6.3 29.4 6.3 29.4 2.2"/><path class="cls-2" d="M23.7,20v-.9a4.33105,4.33105,0,0,0-.1.5C23.6,19.8,23.7,19.8,23.7,20Z"/><polygon class="cls-2" points="19.1 9.3 22.9 9.3 19.1 5.2 19.1 9.3"/><polygon class="cls-2" points="29.4 6.3 33.2 6.3 29.4 2.2 29.4 6.3"/><path class="cls-1" d="M5.2,13.8H11c.3,0,.7-.3.7-.6a.66873.66873,0,0,0-.7-.6H5.2c-.3,0-.7.3-.7.6S4.9,13.8,5.2,13.8Z"/><path class="cls-1" d="M11,28.8H5.2c-.3,0-.7.3-.7.6a.66873.66873,0,0,0,.7.6H11c.3,0,.7-.3.7-.6A.85786.85786,0,0,0,11,28.8Z"/><path class="cls-1" d="M19.6,16.7H5.2c-.3,0-.7.3-.7.6a.66873.66873,0,0,0,.7.6H19.1l.6-1.2Z"/><path class="cls-1" d="M18.7,19.8H5.2c-.3,0-.7.3-.7.6a.66873.66873,0,0,0,.7.6H18.8a.96907.96907,0,0,1-.1-.4Z"/><path class="cls-1" d="M5.2,22.8c-.3,0-.7.3-.7.6a.66873.66873,0,0,0,.7.6h15a8.34152,8.34152,0,0,1-.8-1.2Z"/><path class="cls-1" d="M20.6,25.8H5.2c-.3,0-.7.3-.7.6a.66873.66873,0,0,0,.7.6H20.6c.3,0,.7-.3.7-.6A.85786.85786,0,0,0,20.6,25.8Z"/><path class="cls-1" d="M35.3,6.7c-.1-.1-.1-.1-.1-.2L29.3.2,29.2.1h-.1a.75592.75592,0,0,0-.4-.1H16.4a.64522.64522,0,0,0-.6.6.64528.64528,0,0,0,.6.6H28.1V6.9a.66875.66875,0,0,0,.7.6H34V26.3a2.5,2.5,0,0,1-2.6,2.5H25V26.11053A6.10394,6.10394,0,0,0,26,26.2,6.2312,6.2312,0,0,0,32.2,20,6.16709,6.16709,0,0,0,26,13.8a3.75253,3.75253,0,0,0-1,.1v-4c0-.1-6.2-6.8-6.3-6.8a.36744.36744,0,0,0-.3-.1l-3.22259-.025A4.086,4.086,0,0,0,7.366,3.03656L3.9,3A3.86816,3.86816,0,0,0,0,6.7V29.3A3.86816,3.86816,0,0,0,3.9,33H21.1a3.7931,3.7931,0,0,0,3.8-3h6.5a3.86815,3.86815,0,0,0,3.9-3.7V6.7C35.2,6.7,35.2,6.6,35.3,6.7Zm-5.9-.4V2.2l3.8,4.1ZM19.1,5.2l3.8,4.1H19.1ZM11.28125,1.28479A2.94873,2.94873,0,1,1,8.33252,4.23352,2.952,2.952,0,0,1,11.28125,1.28479ZM23.7,29.3c0,.3-.1.5-.1.7a2.61359,2.61359,0,0,1-2.5,1.8H3.9a2.54655,2.54655,0,0,1-2.6-2.4V6.7A2.48007,2.48007,0,0,1,3.9,4.3l3.27814.03943a4.10905,4.10905,0,0,0,8.21686-.1059c0-.02051-.00574-.03949-.006-.05994L17.8,4.2V9.9a.66872.66872,0,0,0,.7.6h5.3v3.7a6.32394,6.32394,0,0,0-4,5.8,6.23384,6.23384,0,0,0,3.9,5.74744ZM21.1,20a4.9,4.9,0,0,1,9.8,0,4.85258,4.85258,0,0,1-.76,2.59259l-1.2348-.93445a3.21266,3.21266,0,0,0,.46894-1.65527,3.24851,3.24851,0,1,0-3.24854,3.24853,3.21828,3.21828,0,0,0,2.08679-.78015l1.27283.96369A4.89355,4.89355,0,0,1,21.1,20Zm7.208.00287a2.18234,2.18234,0,1,1-2.18237-2.18231A2.18443,2.18443,0,0,1,28.308,20.00287Z"/></svg>