<svg xmlns="http://www.w3.org/2000/svg" xml:space="preserve" width="66.667" height="66.667"><defs><clipPath clipPathUnits="userSpaceOnUse" id="a"><path d="M0 50h50V0H0Z"/></clipPath></defs><g clip-path="url(#a)" transform="matrix(1.33333 0 0 -1.33333 0 66.667)"><path d="M0 0a1.911 1.911 0 0 1-1.91-1.91v-14.086c0-1.054.856-1.91 1.91-1.91h12.783c1.054 0 1.91.856 1.91 1.91V-1.91c0 1.054-.856 1.91-1.91 1.91zm12.783-19.6H0a3.61 3.61 0 0 0-3.604 3.604V-1.91A3.609 3.609 0 0 0 0 1.693h12.783a3.608 3.608 0 0 0 3.604-3.603v-14.086a3.609 3.609 0 0 0-3.604-3.604" style="fill:#0098da;fill-opacity:1;fill-rule:nonzero;stroke:none" transform="translate(31.263 26.828)"/><path d="M0 0h-28.005a3.61 3.61 0 0 0-3.607 3.606v27.886a.85.85 0 0 0 1.7 0V3.606a1.91 1.91 0 0 1 1.907-1.907H0a1.91 1.91 0 0 1 1.907 1.907v1.802a.85.85 0 1 0 1.699 0V3.606A3.61 3.61 0 0 0 0 0" style="fill:#0098da;fill-opacity:1;fill-rule:nonzero;stroke:none" transform="translate(38.964 1.73)"/><path d="M0 0a.85.85 0 0 0-.85.85v4.488c0 .968-.377 1.877-1.06 2.56l-7.438 7.438a3.586 3.586 0 0 1-2.557 1.059h-7.221a.85.85 0 0 0 0 1.701h7.221c1.42 0 2.756-.553 3.759-1.558L-.708 9.1A5.282 5.282 0 0 0 .85 5.338V.85A.85.85 0 0 0 0 0" style="fill:#0098da;fill-opacity:1;fill-rule:nonzero;stroke:none" transform="translate(41.72 26.853)"/><path d="M0 0h-6.644a5.325 5.325 0 0 0-5.318 5.319v6.643a.85.85 0 1 0 1.699 0V5.319A3.624 3.624 0 0 1-6.644 1.7H0A.85.85 0 1 0 0 0" style="fill:#0098da;fill-opacity:1;fill-rule:nonzero;stroke:none" transform="translate(41.66 32.076)"/><path d="M0 0a1.91 1.91 0 0 1-1.907-1.907v-8.644A1.91 1.91 0 0 1 0-12.458h8.231a3.89 3.89 0 0 0 1.994-.55l4.611-2.757v13.858A1.908 1.908 0 0 1 12.93 0Zm15.126-17.688a1.41 1.41 0 0 0-.843.278l-4.93 2.943a2.193 2.193 0 0 1-1.122.309H0a3.612 3.612 0 0 0-3.607 3.607v8.644A3.611 3.611 0 0 0 0 1.7h12.93a3.612 3.612 0 0 0 3.607-3.607v-14.37c0-.539-.3-1.023-.782-1.263a1.421 1.421 0 0 0-.629-.148" style="fill:#0098da;fill-opacity:1;fill-rule:nonzero;stroke:none" transform="translate(6.518 46.571)"/><path d="M0 0h-10.855a.85.85 0 1 0 0 1.699H0A.85.85 0 1 0 0 0" style="fill:#0098da;fill-opacity:1;fill-rule:nonzero;stroke:none" transform="translate(23.487 14.313)"/><path d="M0 0h-5.09a.85.85 0 1 0 0 1.699H0A.85.85 0 1 0 0 0" style="fill:#0098da;fill-opacity:1;fill-rule:nonzero;stroke:none" transform="translate(23.487 9.01)"/><path d="M0 0h-3.032a.85.85 0 1 0 0 1.699H0A.85.85 0 1 0 0 0" style="fill:#0098da;fill-opacity:1;fill-rule:nonzero;stroke:none" transform="translate(15.663 9.01)"/><path d="M0 0h-5.09a.85.85 0 1 0 0 1.699H0A.85.85 0 1 0 0 0" style="fill:#0098da;fill-opacity:1;fill-rule:nonzero;stroke:none" transform="translate(17.722 19.617)"/><path d="M0 0h-3.032a.85.85 0 1 0 0 1.699H0A.85.85 0 1 0 0 0" style="fill:#0098da;fill-opacity:1;fill-rule:nonzero;stroke:none" transform="translate(23.487 19.617)"/><path d="M0 0h-10.855a.85.85 0 1 0 0 1.699H0A.85.85 0 1 0 0 0" style="fill:#0098da;fill-opacity:1;fill-rule:nonzero;stroke:none" transform="translate(23.326 24.92)"/><path d="M0 0h-.053c-4.233-.031-5.875-3.596-5.942-3.748l-.296-.662.37-.624c.092-.154 2.287-3.782 5.879-3.782h.056c3.583.038 5.905 3.675 6.002 3.83l.426.679-.37.711C5.996-3.449 4.153 0 0 0m0-1.4c3.351 0 4.83-2.843 4.83-2.843S2.859-7.386-.001-7.416l-.041-.001c-2.836 0-4.675 3.098-4.675 3.098S-3.424-1.424-.043-1.4H0" style="fill:#0098da;fill-opacity:1;fill-rule:nonzero;stroke:none" transform="translate(12.554 44.743)"/><path d="M0 0c-2.044 0-3.707-1.594-3.707-3.552 0-1.959 1.663-3.552 3.707-3.552 2.044 0 3.707 1.593 3.707 3.552C3.707-1.594 2.044 0 0 0m0-1.4c1.274 0 2.307-.963 2.307-2.152S1.274-5.704 0-5.704s-2.307.963-2.307 2.152S-1.274-1.4 0-1.4" style="fill:#0098da;fill-opacity:1;fill-rule:nonzero;stroke:none" transform="translate(12.61 43.887)"/><path d="M0 0c0-.587-.51-1.062-1.139-1.062S-2.277-.587-2.277 0c0 .587.509 1.062 1.138 1.062C-.51 1.062 0 .587 0 0" style="fill:#0098da;fill-opacity:1;fill-rule:nonzero;stroke:none" transform="translate(13.749 40.335)"/><path d="M0 0a.85.85 0 0 0 .85-.85v-2.642l1.764-.022.022 2.664a.852.852 0 0 0 1.285.731l2.218-1.322.848 1.517-2.254 1.363a.85.85 0 0 0 .001 1.464l2.249 1.323.003.039-.856 1.51-2.209-1.314a.852.852 0 0 0-1.285.73v2.643l-1.781.021L.85 5.191a.852.852 0 0 0-1.284-.73l-2.218 1.32-.849-1.516 2.253-1.362a.847.847 0 0 0 0-1.464L-3.497.116l.852-1.549L-.436-.119A.862.862 0 0 0 0 0m.871-5.213A1.734 1.734 0 0 0-.85-3.497v1.151l-.93-.555a1.7 1.7 0 0 0-2.348.637L-4.98-.761a1.72 1.72 0 0 0 .615 2.338l1.01.594-1.002.59a1.721 1.721 0 0 0-.623 2.343l.855 1.507a1.698 1.698 0 0 0 2.335.635l.94-.559v1.147A1.715 1.715 0 0 0 .847 9.555H2.63a1.718 1.718 0 0 0 1.705-1.728v-1.14l.931.556a1.694 1.694 0 0 0 2.346-.638l.852-1.5a1.74 1.74 0 0 0-.612-2.34L6.841 2.17l1.005-.591a1.739 1.739 0 0 0 .619-2.343L7.61-2.272a1.695 1.695 0 0 0-2.337-.633l-.938.559v-1.146a1.735 1.735 0 0 0-1.716-1.721Z" style="fill:#0098da;fill-opacity:1;fill-rule:nonzero;stroke:none" transform="translate(35.911 15.704)"/></g></svg>