<?xml version="1.0" encoding="utf-8"?>
<!-- Generator: Adobe Illustrator 22.0.1, SVG Export Plug-In . SVG Version: 6.00 Build 0)  -->
<svg version="1.1" id="Слой_1" xmlns="http://www.w3.org/2000/svg" xmlns:xlink="http://www.w3.org/1999/xlink" x="0px" y="0px"
	 viewBox="0 0 36 30" style="enable-background:new 0 0 36 30;" xml:space="preserve">
<style type="text/css">
	.st0{fill:#ffffff;}
</style>
<g>
	<g>
		<path class="st0" d="M13.5,18c-3.5,0-6.4-2.9-6.4-6.4s2.9-6.4,6.4-6.4c1.1,0,2.2,0.3,3.2,0.9C17,6.2,17.1,6.5,17,6.8
			C16.9,6.9,16.7,7,16.5,7c-0.1,0-0.2,0-0.3-0.1c-0.8-0.5-1.7-0.7-2.7-0.7c-3,0-5.4,2.4-5.4,5.4s2.4,5.4,5.4,5.4s5.4-2.4,5.4-5.4
			c0-1.3-0.5-2.6-1.4-3.6c-0.2-0.2-0.2-0.6,0-0.7c0.1-0.1,0.2-0.1,0.4-0.1c0.2,0,0.3,0.1,0.4,0.2c1,1.2,1.6,2.7,1.6,4.3
			C20,15.1,17.1,18,13.5,18z"/>
	</g>
</g>
<g>
	<g>
		<path class="st0" d="M28.5,28.6c-0.2,0-0.3-0.1-0.4-0.2l-5.6-5.6c-0.2-0.2-0.2-0.6,0-0.8l0.3-0.3l-3.4-3.4
			c-1.6,1.4-3.7,2.2-5.9,2.2c-4.9,0-9-4-9-9c0-4.9,4-9,9-9s9,4,9,9c0,2.2-0.8,4.3-2.2,5.9l3.4,3.4l0.3-0.3c0.1-0.1,0.3-0.2,0.4-0.2
			c0.2,0,0.3,0.1,0.4,0.2l5.6,5.6c0.2,0.2,0.2,0.6,0,0.8L29,28.3C28.8,28.5,28.7,28.6,28.5,28.6z M28.5,27.2l0.6-0.6l-4.8-4.8
			l-0.6,0.6L28.5,27.2z M13.4,3.6c-4.3,0-7.8,3.5-7.8,7.8s3.5,7.8,7.8,7.8s7.8-3.5,7.8-7.8S17.8,3.6,13.4,3.6z"/>
	</g>
</g>
<g>
	<g>
		<path class="st0" d="M24.9,19.7c-0.1,0-0.3,0-0.4-0.1c-0.2-0.2-0.3-0.5-0.1-0.8c1.4-2.1,2.1-4.6,2.1-7.2c0-2.9-1-5.7-2.8-8
			c-0.2-0.2-0.2-0.6,0.1-0.8c0.1-0.1,0.2-0.1,0.4-0.1c0.2,0,0.3,0.1,0.5,0.2c2,2.5,3,5.5,3,8.7c0,2.8-0.8,5.5-2.3,7.8
			C25.3,19.6,25.1,19.7,24.9,19.7L24.9,19.7z"/>
	</g>
</g>
<g>
	<g>
		<path class="st0" d="M22.5,18.1c-0.1,0-0.3,0-0.4-0.1c-0.2-0.2-0.3-0.5-0.1-0.8c1.1-1.7,1.7-3.6,1.7-5.6c0-3.1-1.4-6-3.8-7.9
			c-0.2-0.2-0.3-0.6-0.1-0.8c0.1-0.1,0.3-0.2,0.4-0.2s0.3,0,0.4,0.1c2.7,2.2,4.2,5.4,4.2,8.8c0,2.2-0.6,4.4-1.9,6.3
			C22.9,18,22.7,18.1,22.5,18.1L22.5,18.1z"/>
	</g>
</g>
<g>
	<g>
		<path class="st0" d="M13.5,25.8c-3.2,0-6.2-1-8.7-3c-0.1-0.1-0.2-0.2-0.2-0.4c0-0.2,0-0.3,0.1-0.4s0.3-0.2,0.5-0.2
			c0.1,0,0.3,0,0.4,0.1c2.3,1.8,5.1,2.8,8,2.8c2.6,0,5-0.7,7.2-2.1c0.1-0.1,0.2-0.1,0.3-0.1c0.2,0,0.4,0.1,0.5,0.3
			c0.1,0.1,0.1,0.3,0.1,0.4s-0.1,0.3-0.2,0.4C19,25,16.3,25.8,13.5,25.8z"/>
	</g>
</g>
<g>
	<g>
		<path class="st0" d="M13.5,23c-3.4,0-6.7-1.5-8.8-4.2c-0.2-0.2-0.2-0.6,0.1-0.8c0.1-0.1,0.2-0.1,0.4-0.1c0.2,0,0.3,0.1,0.4,0.2
			c1.9,2.4,4.8,3.8,7.9,3.8c2,0,3.9-0.6,5.6-1.7c0.1-0.1,0.2-0.1,0.3-0.1c0.2,0,0.4,0.1,0.5,0.3c0.1,0.1,0.1,0.3,0.1,0.4
			s-0.1,0.3-0.2,0.4C17.9,22.3,15.8,23,13.5,23z"/>
	</g>
</g>
<g>
	<rect x="12.6" y="8.5" class="st0" width="2" height="6.3"/>
	<rect x="10.4" y="10.6" class="st0" width="6.3" height="2"/>
</g>
</svg>
