<?xml version="1.0" encoding="utf-8"?>
<!-- Generator: Adobe Illustrator 22.0.1, SVG Export Plug-In . SVG Version: 6.00 Build 0)  -->
<svg version="1.1" id="Слой_1" xmlns="http://www.w3.org/2000/svg" xmlns:xlink="http://www.w3.org/1999/xlink" x="0px" y="0px"
	 viewBox="0 0 30 30" style="enable-background:new 0 0 30 30;" xml:space="preserve">
<style type="text/css">
	.st0{fill:#ffffff;}
</style>
<title>Detect similar sentences</title>
<g>
	<g>
		<g>
			<path class="st0" d="M9.6,2L8,1.2V0H7v1.2L5.5,1.9L4,1.2V0H3v1.2L1.3,2.1C1.1,2.1,1,2.3,1,2.5v2H0v1h1.4L3,6.3v2.2
				c0,0.2,0.1,0.4,0.3,0.4L5,9.8V11h1V9.8L7.7,9C7.9,8.9,8,8.7,8,8.5V6.3l1.7-0.9C9.9,5.4,10,5.2,10,5V3h1V2C11,2,9.6,2,9.6,2z
				 M2,4.7V2.8l1.5-0.7L5,2.8v1.9L3.5,5.4L2,4.7z M7,8.2L5.5,8.9L4,8.2V6.3l1.5-0.7L7,6.3V8.2z M9,4.7L7.5,5.4L6,4.7V2.8l1.5-0.7
				L9,2.8V4.7z"/>
		</g>
	</g>
	<g>
		<g>
			<rect x="12" y="0" class="st0" width="1" height="1.5"/>
		</g>
	</g>
	<g>
		<g>
			<rect x="14" y="0" class="st0" width="1" height="1.5"/>
		</g>
	</g>
	<g>
		<g>
			<rect x="7" y="10.5" class="st0" width="1" height="1.5"/>
		</g>
	</g>
	<g>
		<g>
			<rect x="9" y="10.5" class="st0" width="1" height="1.5"/>
		</g>
	</g>
	<g>
		<g>
			<path class="st0" d="M18.6,3c-2.2-0.7-4.5-0.7-6.7-0.1l0.2,1c6.1-1.6,12.4,2.1,14,8.3c1.6,6.1-2.1,12.4-8.3,14
				c-6.1,1.6-12.4-2.1-14-8.3c-0.5-2-0.5-4.2,0.1-6.2l-1-0.3c-2,6.6,1.7,13.6,8.3,15.6s13.6-1.7,15.6-8.3C28.9,12,25.2,5,18.6,3z"/>
		</g>
	</g>
	<g>
		<g>
			<path class="st0" d="M20.5,1c-1.3-0.5-2.6-0.8-3.9-1l-0.1,1c7.7,0.8,13.3,7.7,12.5,15.4c-0.8,7.7-7.7,13.3-15.4,12.5
				C5.9,28.1,0.3,21.2,1.1,13.5c0.1-1.3,0.4-2.5,0.9-3.6L1,9.5C-2,17.2,1.8,25.9,9.5,29c7.7,3,16.4-0.8,19.4-8.5S28.2,4.1,20.5,1z"
				/>
		</g>
	</g>
	<g>
		<g>
			<path class="st0" d="M18.1,6.2c-1.6-1.6-4.1-1.6-5.7,0c-1.6,1.6-1.6,4.1,0,5.7c0.5,0.5,1.2,0.9,1.9,0.9c0.8,0,1.8-0.4,3-1.6
				C19.7,8.8,19.1,7.1,18.1,6.2z M16.7,10.4c-1.9,1.9-2.9,1.3-3.5,0.7C12,10,12,8.1,13.2,6.9s3.1-1.2,4.2,0
				C18,7.5,18.6,8.5,16.7,10.4z"/>
		</g>
	</g>
	<g>
		<g>
			<rect x="15.9" y="7.6" class="st0" width="1" height="1"/>
		</g>
	</g>
	<g>
		<g>
			<rect x="21" y="16.5" class="st0" width="1" height="1"/>
		</g>
	</g>
	<g>
		<g>
			<rect x="12" y="21.2" class="st0" width="1" height="1"/>
		</g>
	</g>
	<g>
		<g>
			<rect x="12.5" y="13.5" class="st0" width="1" height="1"/>
		</g>
	</g>
	<g>
		<g>
			<rect x="17.5" y="13" class="st0" width="1" height="1"/>
		</g>
	</g>
	<g>
		<g>
			<rect x="20.5" y="6.4" class="st0" width="1" height="1"/>
		</g>
	</g>
	<g>
		<g>
			<path class="st0" d="M21,14.5c-2.5,0-2.5,2.6-2.5,3.5c0,0.9,0,3.5,2.5,3.5c1.9,0,3.5-1.6,3.5-3.5S22.9,14.5,21,14.5z M21,20.5
				c-0.9,0-1.5-0.4-1.5-2.5s0.6-2.5,1.5-2.5c1.4,0,2.5,1.1,2.5,2.5S22.4,20.5,21,20.5z"/>
		</g>
	</g>
	<g>
		<g>
			<path class="st0" d="M14.4,17.1c-2-2-4.2-2.2-5.8-0.6c-1.8,1.8-1.8,4.6,0,6.3c1.8,1.8,4.6,1.8,6.3,0
				C16.5,21.3,16.3,19.1,14.4,17.1z M14.2,22.2c-1.4,1.3-3.6,1.3-4.9-0.1c-1.3-1.4-1.3-3.5,0-4.9c0.4-0.5,1.1-0.8,1.7-0.8
				c0.1,0,0.3,0,0.4,0c0.9,0.2,1.7,0.6,2.3,1.3c0.7,0.6,1.1,1.4,1.3,2.3C15.1,20.9,14.8,21.7,14.2,22.2z"/>
		</g>
	</g>
	<g>
		<g>
			<path class="st0" d="M22.5,11.5v-1h-1V12c0,0.3,0.2,0.5,0.5,0.5h1.5v-1H22.5z"/>
		</g>
	</g>
	<g>
		<g>
			<path class="st0" d="M6,15v-1H5v1.5C5,15.8,5.2,16,5.5,16H7v-1L6,15L6,15z"/>
		</g>
	</g>
	<g>
		<g>
			<path class="st0" d="M18,22v1h-1v1h1.5c0.3,0,0.5-0.2,0.5-0.5V22H18z"/>
		</g>
	</g>
</g>
</svg>
