<?xml version="1.0" encoding="utf-8"?>
<!-- Generator: Adobe Illustrator 22.0.1, SVG Export Plug-In . SVG Version: 6.00 Build 0)  -->
<svg version="1.1" id="Слой_1" xmlns="http://www.w3.org/2000/svg" xmlns:xlink="http://www.w3.org/1999/xlink" x="0px" y="0px"
	 viewBox="0 0 30 30" style="enable-background:new 0 0 30 30;" xml:space="preserve">
<style type="text/css">
	.st0{fill:#ffffff;}
</style>
<g>
	<path class="st0" d="M14.5,9.4c-1.7,0-3.3,0.7-4.5,1.9c-1.2,1.2-1.9,2.8-1.9,4.5S8.8,19,10,20.2c1.2,1.2,2.8,1.9,4.5,1.9
		c1.7,0,3.3-0.7,4.5-1.9c1.2-1.2,1.9-2.8,1.9-4.5s-0.7-3.3-1.9-4.5C17.8,10,16.2,9.4,14.5,9.4z M16.3,10.9c0.7,0.3,1.3,0.7,1.8,1.2
		c0,0,0.1,0.1,0.1,0.1c0,0,0,0,0,0l-1,1c-0.3-0.2-0.6-0.4-1-0.6V10.9z M14.9,10.6c0.1,0,0.2,0,0.3,0l0,3.2c0,0-0.1,0.1-0.2,0.1
		c-0.1,0-0.1,0-0.1,0V10.6z M15,15.1c0.7,0,1.3-0.5,1.3-1.1c0.5,0.4,0.9,1.1,0.9,1.7c0,0.8-0.5,1.6-1.3,2c-0.3,0.1-0.6,0.2-1,0.2
		c-1.2,0-2.2-1-2.2-2.2c0-0.7,0.3-1.3,0.9-1.7C13.7,14.6,14.3,15.1,15,15.1z M14.5,20.9c-1.4,0-2.7-0.5-3.7-1.5
		c-1-1-1.5-2.3-1.5-3.7s0.5-2.7,1.5-3.7c0.8-0.8,1.7-1.3,2.8-1.4v1.9c-1.3,0.5-2.1,1.8-2.1,3.1c0,1.9,1.5,3.4,3.4,3.4
		c0.4,0,0.7-0.1,1.2-0.2l1.2,1.2C16.5,20.6,15.5,20.9,14.5,20.9z M18.4,19.1c0,0.1-0.1,0.1-0.1,0.2l-1-1c0.1-0.1,0.1-0.1,0.2-0.2
		L18.4,19.1L18.4,19.1z M19.1,18l-1-1c0.1-0.3,0.2-0.7,0.3-1.1h1.3C19.6,16.7,19.4,17.4,19.1,18z M18.3,14.8
		c-0.1-0.2-0.1-0.4-0.2-0.6l0.9-0.9c0.3,0.5,0.5,1,0.6,1.6H18.3z"/>
	<path class="st0" d="M24.8,16c0.3,1.2,1.4,2.1,2.6,2.1c1.5,0,2.7-1.2,2.7-2.7s-1.2-2.7-2.7-2.7c-1.3,0-2.3,0.9-2.6,2.1h-2.2
		c-0.2-1.3-0.7-2.6-1.4-3.7l4.2-4.2c0.5,0.3,1,0.4,1.5,0.4c1.6,0,3-1.3,3-3s-1.3-3-3-3c-1.6,0-3,1.3-3,3c0,0.6,0.2,1.2,0.6,1.7
		l-4.1,4.1c0,0-0.1-0.1-0.1-0.1c-1.1-1.1-2.4-1.8-3.9-2.2V5.5c1-0.5,1.6-1.5,1.6-2.6c0-1.6-1.3-3-3-3c-1.4,0-2.6,1-2.9,2.4H6.5
		C6.2,1.5,5.5,1,4.7,1c-1,0-1.8,0.8-1.8,1.8s0.8,1.8,1.8,1.8c0.8,0,1.5-0.5,1.7-1.3h5.6c0.2,0.9,0.8,1.6,1.6,2v2.2
		c-1.9,0.2-3.6,1-4.9,2.3c-2.7,2.7-3.2,6.8-1.2,10l-1.8,1.8l-0.6-0.6c0,0,0,0-0.1,0c0,0-0.1,0-0.1,0l-4.1,4.1
		c-1.1,1.1-1.1,2.9,0,4.1c0.5,0.5,1.3,0.8,2,0.8c0.8,0,1.5-0.3,2-0.8l4.1-4.1c0,0,0-0.1,0-0.1l-0.6-0.6l1.8-1.8
		c1.3,0.8,2.7,1.2,4.2,1.2c1.8,0,3.5-0.6,5-1.7l2.4,2.4c-0.2,0.5-0.4,1.1-0.4,1.6c0,2.1,1.7,3.9,3.9,3.9s3.9-1.7,3.9-3.9
		c0-2.1-1.7-3.9-3.9-3.9c-0.5,0-1.1,0.1-1.6,0.4l-2.5-2.5c0.8-1.3,1.3-2.7,1.3-4.2H24.8z M27.4,13.9c0.8,0,1.5,0.7,1.5,1.5
		s-0.7,1.5-1.5,1.5c-0.8,0-1.5-0.7-1.5-1.5S26.6,13.9,27.4,13.9z M26.9,2.5c1,0,1.8,0.8,1.8,1.8S27.8,6,26.9,6c-1,0-1.8-0.8-1.8-1.8
		S25.9,2.5,26.9,2.5z M4.7,3.5c-0.4,0-0.6-0.3-0.6-0.6s0.3-0.6,0.6-0.6c0.4,0,0.6,0.3,0.6,0.6S5.1,3.5,4.7,3.5z M13.2,2.8
		c0-1,0.8-1.8,1.8-1.8s1.8,0.8,1.8,1.8c0,1-0.8,1.8-1.8,1.8S13.2,3.8,13.2,2.8z M15.1,5.8v1.8c-0.1,0-0.2,0-0.3,0V5.8
		c0,0,0.1,0,0.1,0C15,5.8,15.1,5.8,15.1,5.8z M4.1,28.5c-0.3,0.3-0.7,0.5-1.2,0.5s-0.9-0.2-1.2-0.5c-0.3-0.3-0.5-0.7-0.5-1.2
		c0-0.4,0.2-0.9,0.5-1.2L5,22.8l2.4,2.4L4.1,28.5z M7.6,23.6l-1-1L8.2,21l1,1L7.6,23.6z M23.8,24.6c0.2-0.2,0.4-0.5,0.3-0.8
		c0.4-0.2,0.8-0.3,1.3-0.3c1.5,0,2.7,1.2,2.7,2.7c0,1.5-1.2,2.7-2.7,2.7s-2.7-1.2-2.7-2.7c0-0.4,0.1-0.9,0.2-1.2
		C23.3,25,23.6,24.9,23.8,24.6z M23,23.6c0,0,0,0.1,0,0.1c0,0,0,0.1,0,0.1c0,0-0.1,0-0.1,0c0,0-0.1,0-0.1,0l-2.4-2.4
		c0.1-0.1,0.1-0.1,0.2-0.2L23,23.6z M19.4,20.6c-1.3,1.3-3.1,2-4.9,2s-3.6-0.7-4.9-2c-2.7-2.7-2.7-7.1,0-9.8c1.3-1.3,3.1-2,4.9-2
		c1.9,0,3.6,0.7,4.9,2C22.1,13.5,22.1,17.9,19.4,20.6z"/>
</g>
</svg>
