<svg version="1.1" id="Слой_1" xmlns="http://www.w3.org/2000/svg" x="0" y="0" viewBox="0 0 85 85" xml:space="preserve"><style>.st1{fill:#ffffff}</style><path fill="none" d="M0 0h85v85H0z"/><path class="st1" d="M69.6 6.5H22.8c-2.5 0-4.6 2-4.6 4.6V62c0 1 .8 1.8 1.8 1.8s1.8-.8 1.8-1.8V11c0-.5.4-.9.9-.9h46.8c.5 0 .9.4.9.9v50.3H63c-2.5 0-4.6 2-4.6 4.6v7.6H34.3c-1 0-1.9.9-1.8 1.9 0 1 .9 1.7 1.8 1.7h25.9c.5 0 1-.2 1.3-.5l12.1-12.1c.3-.3.5-.8.5-1.3V11c.1-2.5-1.9-4.5-4.5-4.5zm-7.5 64.4V66c0-.5.4-.9.9-.9h4.9l-5.8 5.8z"/><path class="st1" d="M28.6 31.9h35.6c.8 0 1.4-.6 1.4-1.4 0-.8-.6-1.4-1.4-1.4H28.6c-.8 0-1.4.6-1.4 1.4 0 .8.6 1.4 1.4 1.4z"/><path class="st1" d="M35.6 19.6l2.1 1.2-4.6 8-2.1-1.2 4.6-8m-.5-2.5c-.2 0-.4.1-.5.3l-6 10.4c-.2.3-.1.6.2.8l4.5 2.6c.1.1.2.1.3.1.2 0 .4-.1.5-.3l6-10.4c.2-.3.1-.6-.2-.8l-4.5-2.6c-.1-.1-.2-.1-.3-.1z"/><path class="st1" d="M43.8 19.8v9.4h-2.4v-9.4h2.4m1.5-2H40c-.3 0-.6.3-.6.6v12.2c0 .3.3.6.6.6h5.2c.3 0 .6-.3.6-.6V18.4c0-.3-.2-.6-.5-.6zM52.5 19.8v9.4h-2.4v-9.4h2.4m1.5-2h-5.2c-.3 0-.6.3-.6.6v12.2c0 .3.3.6.6.6H54c.3 0 .6-.3.6-.6V18.4c-.1-.3-.3-.6-.6-.6zM61.2 19.8v9.4h-2.4v-9.4h2.4m1.5-2h-5.2c-.3 0-.6.3-.6.6v12.2c0 .3.3.6.6.6h5.2c.3 0 .6-.3.6-.6V18.4c-.1-.3-.3-.6-.6-.6z"/><g><path class="st1" d="M53.9 42.2c-6.5-6.5-17-6.5-23.5 0-5.2 5.2-6.2 13-3.1 19.2L10.8 77.8l7.5 7.5 16.4-16.4c2.3 1.2 4.9 1.7 7.4 1.7 4.3 0 8.5-1.6 11.8-4.9 6.5-6.4 6.5-17 0-23.5zM18.3 81.3l-3.5-3.5 10.1-10.1 3.5 3.5-10.1 10.1zm12.1-12.1l-3.5-3.5 1.9-1.9a14.62 14.62 0 003.5 3.5l-1.9 1.9zm21.5-5.4c-5.4 5.4-14.1 5.4-19.5 0a13.76 13.76 0 019.8-23.5c3.5 0 7.1 1.3 9.8 4 5.3 5.3 5.3 14.1-.1 19.5z"/></g><g><path class="st1" d="M52.6 58l-8.4-13.9c-.5-.8-1.3-1.2-2.1-1.2-.9 0-1.7.4-2.1 1.2L31.5 58c-.5.8-.5 1.7 0 2.5.4.8 1.3 1.3 2.2 1.3h16.8c.9 0 1.7-.5 2.2-1.3.4-.8.4-1.7-.1-2.5zm-2.7 1H34.2l7.9-13 7.8 13z"/><path class="st1" d="M42 55.4c-.4 0-.7.1-.9.3-.2.2-.4.5-.4.9 0 .3.1.6.4.9.2.2.5.3.9.3.3 0 .6-.1.9-.4.2-.2.3-.5.3-.9 0-.3-.1-.6-.4-.9-.1-.1-.4-.2-.8-.2zM41.2 55.1h1.7l.3-5.3h-2.3z"/></g></svg>