<svg id="Слой_1" data-name="Слой 1" xmlns="http://www.w3.org/2000/svg" viewBox="0 0 30 30"><defs><style>.cls-1{fill:#ffffff}</style></defs><path class="cls-1" d="M16.71 4.62h-6.53a.65.65 0 00-.63.65V7.8h7.16zM23.88 4.62h-6.75V7.8h7.42V5.3a.67.67 0 00-.67-.68zM7.96 4.24L5.79 2.65l-2.02 1.6a.34.34 0 00-.13.23.35.35 0 00.07.25.33.33 0 00.27.14.32.32 0 00.2-.07l.98-.8.33-.3.12-.1-.08 3.43a.36.36 0 00.1.25.33.33 0 00.23.1.34.34 0 00.34-.34l.03-2.17-.01-.79v-.32L7.55 4.8a.32.32 0 00.2.07.33.33 0 00.27-.13.36.36 0 00.07-.26.35.35 0 00-.13-.24zM18.12 21.06a.62.62 0 01-.54.32c-.32 0-.59-.18-.59-.44a.48.48 0 01.03-.15l1.6-3.87a.64.64 0 01.65-.46.65.65 0 01.67.46l1.6 3.87a.48.48 0 01.02.15c0 .26-.25.44-.59.44a.64.64 0 01-.55-.32l-.29-.7H18.4zm1.3-2.63a3.7 3.7 0 01-.15-.67 3.55 3.55 0 01-.14.67l-.44 1.16h1.15z"/><path class="cls-1" d="M23.84 21.6a5.56 5.56 0 00-.98-6.24 5.1 5.1 0 00-7.37 0 5.55 5.55 0 000 7.64 5.1 5.1 0 006.01 1.02l5.15 5.33L29 26.93zm-4.66 2.07a4.25 4.25 0 01-3.07-1.31 4.6 4.6 0 010-6.35 4.24 4.24 0 016.13 0 4.6 4.6 0 010 6.35 4.25 4.25 0 01-3.06 1.31zm3.1-.14a5.3 5.3 0 00.58-.53 5.38 5.38 0 00.51-.6l.58.6-1.09 1.13zm1.2 1.25l1.1-1.13 3.16 3.28-1.09 1.13z"/><path class="cls-1" d="M15.24 24.48H9.69v-2.41h3.58a6.5 6.5 0 01-.3-.75H9.7v-2.49h2.97a6.57 6.57 0 01.1-.75H9.68V15.6h4.07a6.57 6.57 0 01.6-.75H9.7v-2.49h6.88v.9a6.5 6.5 0 01.75-.27v-.63h6.62v2.4a6.57 6.57 0 01.75.95v-7.1H1.65v15.38a1.25 1.25 0 001.25 1.25h13.6a6.54 6.54 0 01-1.26-.75zm2.08-15.12h6.62v2.25h-6.62zm-7.63 0h6.88v2.25H9.69zm-.75 15.13H2.9a.5.5 0 01-.5-.5v-1.92h6.54zm0-3.17H2.4v-2.49h6.54zm0-3.24H2.4V15.6h6.54zm0-3.23H2.4v-2.49h6.54zm0-3.24H2.4V9.36h6.54z"/></svg>