<svg id="Слой_1" data-name="Слой 1" xmlns="http://www.w3.org/2000/svg" viewBox="0 0 29.97 30.03"><defs><style>.cls-1{fill:#ffffff}.cls-2,.cls-3{fill:none}.cls-2{stroke:#ffffff;stroke-linecap:round;stroke-miterlimit:10;stroke-width:.6289px}</style></defs><path class="cls-1" d="M16.38 20.33a.33.33 0 01-.31-.22 4.93 4.93 0 00-1.68-.2h-.22l-.04.08a.32.32 0 01-.61 0l-.02-.08h-.23a6.46 6.46 0 00-1.6.14c-.1.2-.23.28-.38.28a.34.34 0 01-.32-.33.5.5 0 01.15-.38c.35-.3.8-.35 2.27-.35h.1v-1.42h-.53a9.15 9.15 0 00-2.22.15c-.1.2-.22.28-.36.28a.34.34 0 01-.34-.33.54.54 0 01.17-.38c.35-.35 1.29-.38 2.79-.38h.46l.03-.1v-1.4h-.67a12.7 12.7 0 00-2.95.18.43.43 0 01-.36.26.35.35 0 01-.33-.33.51.51 0 01.16-.36c.36-.36 1.37-.4 3.44-.4h.71v-1.5h-.47a9.6 9.6 0 00-2.28.15c-.1.2-.22.28-.36.28a.34.34 0 01-.34-.33.53.53 0 01.17-.38c.35-.35 1.28-.38 2.78-.38h.47l.03-.1a.33.33 0 01.66 0v.1h.5c1.5 0 2.43.03 2.79.38a.53.53 0 01.16.38.33.33 0 01-.28.33h-.01a.34.34 0 01-.35-.22 7.24 7.24 0 00-2.34-.2h-.43l-.04.1v1.39h.71c2.07 0 3.09.04 3.45.4a.51.51 0 01.15.36.33.33 0 01-.27.32h-.02a.34.34 0 01-.35-.2 10.04 10.04 0 00-3-.22h-.67v1.5h.46c1.66 0 2.48.03 2.83.37a.54.54 0 01.16.38.33.33 0 01-.28.33h-.01a.34.34 0 01-.35-.22 6.92 6.92 0 00-2.28-.2h-.5l-.03.1v1.3h.1c1.5.01 1.96.05 2.3.36a.5.5 0 01.16.38.33.33 0 01-.28.33zM11.96 6.95h.44v.44a1.32 1.32 0 002.65 0v-.44h.44a1.32 1.32 0 100-2.65h-.44v-.44a1.32 1.32 0 00-2.65 0v.44h-.44a1.32 1.32 0 000 2.65zm0-1.76h.88a.44.44 0 00.44-.45v-.88a.44.44 0 01.89 0v.88a.44.44 0 00.44.45h.88a.44.44 0 110 .88h-.88a.44.44 0 00-.44.44v.88a.44.44 0 01-.89 0v-.88a.44.44 0 00-.44-.44h-.88a.44.44 0 010-.88zm0 0"/><path class="cls-2" d="M7.68 12.66l.02-1.49a.26.26 0 01.25-.26h1.9M7.68 20.51l.02 1.5a.26.26 0 00.25.25h1.9M19.9 12.66l-.02-1.49a.26.26 0 00-.26-.26h-1.9"/><path class="cls-3" d="M13.73 9.6a3.97 3.97 0 10-3.97-3.97 3.97 3.97 0 003.97 3.97z"/><path class="cls-3" d="M13.73 1.66a3.97 3.97 0 103.97 3.97 3.97 3.97 0 00-3.97-3.97z"/><path class="cls-3" d="M13.73 1.66a3.97 3.97 0 103.97 3.97 3.97 3.97 0 00-3.97-3.97z"/><path class="cls-1" d="M15.05 26.36H5.7a1.32 1.32 0 01-1.32-1.32V11.8a.44.44 0 10-.89 0v13.24a2.2 2.2 0 002.2 2.2h9.35a.44.44 0 00.43-.44.44.44 0 00-.43-.44z"/><path class="cls-1" d="M24.16 6.5a2.2 2.2 0 00-2.21-2.2h-3.56a4.85 4.85 0 00-9.33 0H5.71a2.2 2.2 0 00-2.2 2.2v3.12a.44.44 0 10.88 0V6.5A1.32 1.32 0 015.7 5.19H8.9a4.83 4.83 0 000 .88H6.15a.88.88 0 00-.88.88V24.6a.88.88 0 00.88.88h8.9a.44.44 0 00.43-.44.44.44 0 00-.43-.44h-8.9V6.95h2.91a4.85 4.85 0 009.33 0h3.12v10.8a.44.44 0 00.44.43h.01a.44.44 0 00.44-.44V6.95a.88.88 0 00-.9-.88h-2.94a4.9 4.9 0 000-.88h3.39a1.32 1.32 0 011.32 1.32l.01 11.23a.44.44 0 00.44.44.44.44 0 00.44-.44zM13.73 9.6a3.97 3.97 0 113.97-3.97 3.97 3.97 0 01-3.97 3.97z"/><path class="cls-1" d="M24.1 23.83a4 4 0 00-.72-2.76 3.87 3.87 0 00-1.47-1.27 3.92 3.92 0 101.1 6.27l4.55 2.19a.43.43 0 00.57-.2l.71-1.47a.43.43 0 00-.2-.57zm-4.23 2.73a3.06 3.06 0 01-2.02-.99 3.24 3.24 0 01-.4-.52 3.2 3.2 0 01-.18-3.13 3.26 3.26 0 015.75-.22 3.27 3.27 0 01.3.7 3.22 3.22 0 01-.41 2.75 3.33 3.33 0 01-3.04 1.41zm4.14-.75l-.56-.27a3.94 3.94 0 00.5-1.04l.56.26zm3.63 1.75L24.6 26.1l.5-1.05 3.04 1.46z"/></svg>