<svg xmlns="http://www.w3.org/2000/svg" width="39.99" height="39.99"><defs><clipPath clipPathUnits="userSpaceOnUse" id="a"><path d="M0 30h30V0H0z"/></clipPath></defs><g clip-path="url(#a)" transform="matrix(1.33333 0 0 -1.33333 0 39.99)"><path d="M20.48 24.43h1.47l.74-1.27-.74-1.26h-1.47l-.73 1.26zm2.97 1.71h1.47l.73-1.27-.73-1.27h-1.47l-.74 1.27zm1.47-5.95h-1.47l-.74 1.27.74 1.27h1.47l.73-1.27zm-7.65 2.54h1.72l.86-1.49a.44.44 0 01.38-.22h1.72l.87-1.49a.44.44 0 01.37-.21h1.73l.86-1.5a.44.44 0 01.6-.15c.2.12.27.39.15.6l-.86 1.48.86 1.5c.08.13.08.3 0 .43l-.86 1.48.86 1.5c.08.13.08.3 0 .43l-.98 1.7a.43.43 0 01-.38.22h-1.98a.44.44 0 01-.37-.21l-.87-1.5h-1.72a.44.44 0 01-.38-.21L19 23.6h-1.72a.44.44 0 010-.87M21.29 8.7c0-.3.23-.53.52-.53h5.04a.52.52 0 110 1.05h-5.04a.52.52 0 01-.52-.53" fill="#0098da"/><path d="M11.8 9.34a4.72 4.72 0 002.3 7.78c.39.12.8.17 1.2.17a4.8 4.8 0 004.1-2.36 4.73 4.73 0 00-3.26-7.08c-1.6-.3-3.24.3-4.34 1.49m-.55-2.06l-1.2 1.2.65.64a5.57 5.57 0 011.2-1.2zM7.1 3.12l-1.2 1.2 3.48 3.47 1.2-1.2zm19.76 3.42h-7.04l-1.1 1.38a5.7 5.7 0 012.2 5.84h.7c.87 0 1.55.86 1.55 1.96v2.07a.53.53 0 11-1.06 0v-2.07c0-.55-.28-.9-.48-.9h-1.07c-.27.61-.64 1.2-1.14 1.7l-.05.06a5.73 5.73 0 01-9.3-1.76H8.74c-.2 0-.48.35-.48.9v1.6a.53.53 0 11-1.06 0v-1.6c0-1.1.67-1.97 1.54-1.97h1a5.76 5.76 0 01.45-3.78l-5-5a.93.93 0 010-1.31l1.09-1.1c.45-.45 1.19-.45 1.64 0l4.84 4.84h.01c.42-.22.88-.37 1.34-.47l.5-.1c.01.02.02 0 .02 0l.69-.03c.85 0 1.7.2 2.49.58l1.35-1.7c.1-.11.25-.19.4-.19h7.3a.52.52 0 010 1.05M26.85 3.86H18.7a.52.52 0 010-1.05h8.16a.52.52 0 110 1.05" fill="#0098da"/><path d="M17.35 12.1h-1.22a.4.4 0 01-.4-.4l-.01-1.23h-.82v1.23a.4.4 0 01-.4.4h-1.23v.82h1.23c.22 0 .4.18.4.4v1.23h.82v-1.22c0-.23.18-.41.4-.41h1.23zm.41 1.64h-1.22v1.22a.4.4 0 01-.41.41H14.5a.4.4 0 01-.41-.4v-1.23h-1.23a.4.4 0 01-.4-.41V11.7c0-.23.18-.41.4-.41h1.23v-1.23c0-.22.18-.4.4-.4h1.64c.22 0 .4.18.4.4v1.23h1.23c.23 0 .41.18.41.4v1.64a.4.4 0 01-.4.4M6.68 23.2c.08.18.18.34.32.48.14.14.32.24.5.33l2-2c-.08-.2-.2-.37-.33-.5-.14-.14-.3-.24-.48-.32zm-1.32-4.96a.39.39 0 01.55-.55c.4.41.52 1.07.54 1.82a.38.38 0 01-.38.4h-.04a.34.34 0 01-.34-.35l-.63.62H6.45c.95-.02 2.37-.11 3.27.78.63.63.78 1.72.8 2.6a.38.38 0 01-.77.02c0-.16-.01-.52-.03-.7l-1.35 1.34c.47.05.95.03 1.37.03l.77-.02c1.35 0 1.99.05 2.48.55a.39.39 0 01-.54.54.83.83 0 00-.35-.2l-1.49 1.5c.05.13.11.24.2.33a.38.38 0 11-.54.55c-.4-.4-.52-.9-.54-1.82a.39.39 0 01.39-.4h.03c.2 0 .35.16.35.35l.63-.62h-1.4c-.96.02-2.37.11-3.27-.79-.6-.59-.77-1.47-.8-2.38a.38.38 0 01.38-.4c.21 0 .38.16.39.37 0 .17.01.35.03.51l1.36-1.35c-.47-.05-.96-.03-1.38-.03l-.77.01c-1.53.02-1.99-.04-2.48-.54a.38.38 0 11.54-.54c.1.1.2.17.35.21l1.49-1.49a.91.91 0 00-.2-.35M11.9 22.62a.53.53 0 111.05 0 .53.53 0 01-1.05 0M4.05 22.6a.5.5 0 110 .98.5.5 0 010-.99" fill="#0098da"/></g></svg>