<svg xmlns="http://www.w3.org/2000/svg" xml:space="preserve" width="36.5" height="45.37"><defs><clipPath clipPathUnits="userSpaceOnUse" id="a"><path d="M0 34.03h27.38V0H0Z"/></clipPath></defs><g clip-path="url(#a)" transform="matrix(1.33333 0 0 -1.33333 0 45.37)"><path d="M7.5 25.41h13.01c.28 0 .5.21.5.47s-.22.48-.5.48h-13a.49.49 0 0 1-.5-.48c0-.26.22-.47.5-.47" fill="#0098da"/><path d="M10.12 30.54a.2.2 0 0 1-.17-.1l-2.1-3.62a.2.2 0 0 1 .08-.27l1.57-.91a.2.2 0 0 1 .27.07l2.1 3.62a.2.2 0 0 1-.08.27l-1.57.91a.2.2 0 0 1-.1.03m.18-.88.71-.41-1.59-2.76-.71.41 1.59 2.76" fill="#0098da"/><path d="M13.66 30.3h-1.82a.2.2 0 0 1-.2-.2v-4.25c0-.1.1-.2.2-.2h1.82c.1 0 .2.1.2.2v4.25c0 .1-.1.2-.2.2m-.5-3.95h-.82v3.25h.82zM16.67 30.3h-1.81a.2.2 0 0 1-.2-.2v-4.25c0-.1.09-.2.2-.2h1.81c.11 0 .2.1.2.2v4.25c0 .1-.09.2-.2.2m-.5-3.95h-.82v3.25h.83zM19.7 30.3h-1.83a.2.2 0 0 1-.2-.2v-4.25c0-.1.1-.2.2-.2h1.82c.1 0 .2.1.2.2v4.25c0 .1-.1.2-.2.2m-.5-3.95h-.82v3.25h.82zM16.62 15.36a4.8 4.8 0 0 0-8.37 4.7 4.8 4.8 0 0 0 8.37-4.7m-8.26-2.93-1.2 1.2.64.65A5.75 5.75 0 0 1 9 13.07zm-4.2-4.2-1.2 1.21 3.5 3.5 1.2-1.2zm11.38 14.34a5.76 5.76 0 0 1-8.27-7.44L2.01 9.87a.6.6 0 0 1 0-.86l1.73-1.73a.6.6 0 0 1 .86 0l5.26 5.27a5.78 5.78 0 0 1 5.68 10.02" fill="#0098da"/><path d="m14.78 16.27-4.73.02 2.37 3.92zm.8.3-2.52 4.18a.74.74 0 0 1-.64.36.74.74 0 0 1-.64-.36l-2.53-4.17a.75.75 0 0 1 .65-1.14h5.05a.75.75 0 0 1 .64 1.14" fill="#0098da"/><path d="M12.4 17.37c-.1 0-.19-.04-.26-.1a.34.34 0 0 1-.1-.26c0-.1.03-.2.1-.26.07-.07.16-.1.27-.1a.36.36 0 0 1 .36.36c0 .1-.03.19-.1.25a.36.36 0 0 1-.26.1M12.15 17.44h.51l.1 1.6h-.7z" fill="#0098da"/><path d="M21.6 13.82a.35.35 0 0 1-.36-.36v-1.71l2.1 1.98zm-9.93-4.2a.58.58 0 0 0-.59.55.59.59 0 0 0 .59.62H20l.05 2.67c0 .85.69 1.54 1.54 1.54h2.62l.05 17.5c0 .19-.16.35-.36.35H4.66a.36.36 0 0 1-.35-.36V14.85a.59.59 0 0 0-1.18 0v17.64c0 .85.69 1.54 1.53 1.54h19.25c.85 0 1.53-.7 1.53-1.54V14.41a.6.6 0 0 0-.17-.42l-4.2-4.2a.59.59 0 0 0-.42-.18zM26.77 0H.61a.6.6 0 0 0-.6.6v4.7c0 .33.26.6.6.6h26.16a.6.6 0 0 0 .6-.6V.6a.6.6 0 0 0-.6-.6" fill="#0098da"/><path d="M2.32 2.04c0-.23.17-.37.45-.37.3 0 .45.17.45.44v.93c0 .23-.13.36-.42.36a.65.65 0 0 1-.48-.2Zm-.55 2.6c0 .13.1.25.27.25s.28-.12.28-.25v-.98c.17.11.35.18.6.18.6 0 .84-.36.84-.81v-.9c0-.5-.33-.91-1-.91-.63 0-.99.36-.99.82zM5.45 3.39c-.28 0-.44-.15-.44-.4V2.7l.44-.03c.29 0 .38.14.38.35 0 .26-.13.37-.38.37m-.44-1.1v-.24c0-.22.15-.37.47-.37.19 0 .32.05.49.13l.1.02c.18 0 .25-.12.25-.22 0-.3-.59-.39-.88-.39-.62 0-.97.37-.97.86v.89c0 .49.34.86.99.86.6 0 .9-.33.9-.83 0-.47-.27-.75-.9-.75-.15 0-.3 0-.45.03M7.7 3.2V1.48c0-.15-.11-.26-.27-.26-.15 0-.27.11-.27.26v1.6c0 .14-.02.22-.07.3a.2.2 0 0 0-.05.13c0 .14.12.24.26.24.1 0 .17-.07.23-.15.23.13.49.22.66.22.26 0 .34-.11.34-.25a.25.25 0 0 0-.28-.26c-.2 0-.34.01-.55-.11M9.21 4.31c0 .14.1.25.27.25s.27-.11.27-.25V3.7h.45c.14 0 .26-.1.26-.25 0-.13-.12-.24-.26-.24h-.45v-.88c0-.44.05-.6.35-.6h.09c.21 0 .33-.05.33-.22 0-.23-.19-.26-.38-.26-.74 0-.93.36-.93 1.05ZM12.98 1.47c0-.15-.12-.26-.27-.26-.15 0-.27.11-.27.26v.5h-1.18a.28.28 0 0 0-.28.28c0 .02.02.1.05.16l.96 2.32c.04.1.14.15.24.15.13 0 .27-.12.27-.26l-.01-.09c-.15-.33-.72-1.71-.86-2.05h.81v.87c0 .15.12.26.27.26.15 0 .27-.11.27-.26v-.87h.15c.14 0 .26-.12.26-.25a.25.25 0 0 0-.26-.25h-.15ZM14.04 4.31c0 .14.1.25.27.25s.27-.11.27-.25V3.7h.45c.14 0 .26-.1.26-.25 0-.13-.12-.24-.26-.24h-.45v-.88c0-.44.04-.6.34-.6h.1c.21 0 .33-.05.33-.22 0-.23-.19-.26-.39-.26-.73 0-.92.36-.92 1.05ZM17.38 2.13v.8c0 .27-.16.43-.47.43-.31 0-.47-.16-.47-.43v-.8c0-.27.16-.43.47-.43.31 0 .47.16.47.43m-1.49 0v.8c0 .51.35.91 1.02.91.66 0 1.01-.4 1.01-.91v-.8c0-.5-.35-.91-1.01-.91-.67 0-1.02.4-1.02.91M19.29 2.9l.72.78c.07.07.15.14.26.14.14 0 .26-.1.26-.24a.24.24 0 0 0-.07-.17l-.68-.7.8-1.12c.02-.04.04-.1.04-.15-.01-.14-.12-.22-.26-.22-.16 0-.19.06-.3.22l-.66.95-.11-.12V1.6c0-.19-.06-.37-.27-.37-.16 0-.27.11-.27.26V4.5c0 .2.04.38.27.38.15 0 .27-.11.27-.25ZM22.16 3.39c-.28 0-.44-.15-.44-.4V2.7l.44-.03c.29 0 .38.14.38.35 0 .26-.13.37-.38.37m-.44-1.1v-.24c0-.22.16-.37.47-.37.19 0 .32.05.49.13.01 0 .05.02.11.02.17 0 .25-.12.25-.22 0-.3-.6-.39-.9-.39-.61 0-.96.37-.96.86v.89c0 .49.34.86 1 .86.6 0 .9-.33.9-.83 0-.47-.27-.75-.91-.75-.14 0-.29 0-.45.03M24.42 1.48c0-.15-.1-.26-.27-.26-.18 0-.27.11-.27.26v1.6c0 .23-.04.24-.07.29-.04.06-.06.09-.06.15 0 .13.11.23.26.23.1 0 .18-.06.24-.15.22.16.47.23.69.23.58 0 .87-.4.87-.97V1.48c0-.15-.1-.26-.27-.26s-.27.11-.27.26v1.38c0 .32-.14.5-.4.5a.93.93 0 0 1-.47-.15.57.57 0 0 0 .02-.12Z" fill="#fff"/></g></svg>