<svg xmlns="http://www.w3.org/2000/svg" xml:space="preserve" width="60" height="64"><defs><clipPath clipPathUnits="userSpaceOnUse" id="a"><path d="M0 48h45V0H0Z"/></clipPath></defs><g clip-path="url(#a)" transform="matrix(1.33333 0 0 -1.33333 0 64)"><path d="M36.25 26.4a6.1 6.1 0 0 1-6.1-6.08 6.1 6.1 0 0 1 12.21 0 6.1 6.1 0 0 1-6.1 6.08m0-13.8a7.74 7.74 0 0 0-7.76 7.72 7.74 7.74 0 0 0 15.5 0 7.74 7.74 0 0 0-7.75-7.72" fill="#0098da"/><path d="M36.25 16.08a.82.82 0 0 0-.82.82v6.84a.82.82 0 1 0 1.64 0V16.9a.82.82 0 0 0-.82-.82" fill="#0098da"/><path d="M38.91 20.36a.8.8 0 0 0-.56.22l-2.67 2.57a.82.82 0 1 0 1.14 1.18l2.66-2.57a.82.82 0 0 0-.57-1.4" fill="#0098da"/><path d="M33.6 20.36a.82.82 0 0 0-.58 1.4l2.66 2.57a.82.82 0 0 0 1.14-1.18l-2.66-2.57a.81.81 0 0 0-.57-.22M31.8 37.93h-6.32a.82.82 0 0 0 0 1.63h6.33a.82.82 0 0 0 0-1.63M31.8 29.15h-8.38a.82.82 0 0 0 0 1.64h8.39a.82.82 0 0 0 0-1.64M31.8 33.54h-6.32a.82.82 0 0 0 0 1.64h6.33a.82.82 0 0 0 0-1.64M15.08 31.27h1.38v2.09c0 .45.37.82.82.82h2.2v1.27h-2.2a.82.82 0 0 0-.82.82v2.08h-1.38v-2.08a.82.82 0 0 0-.82-.82h-2.2v-1.27h2.2c.45 0 .82-.37.82-.82Zm1.45-1.64h-1.51c-.87 0-1.58.7-1.58 1.55v1.36H12c-.87 0-1.58.7-1.58 1.54v1.46c0 .85.71 1.54 1.58 1.54h1.44v1.37c0 .85.7 1.54 1.58 1.54h1.5c.87 0 1.58-.7 1.58-1.54v-1.37h1.45c.86 0 1.57-.69 1.57-1.54v-1.46c0-.85-.7-1.54-1.57-1.54H18.1v-1.36c0-.86-.7-1.55-1.57-1.55M11.81 14.39a.82.82 0 0 0-.82.81v1.84a.82.82 0 0 0 1.64 0V15.2a.82.82 0 0 0-.82-.81M19.86 14.39a.82.82 0 0 0-.82.81v1.84a.82.82 0 0 0 1.64 0V15.2a.82.82 0 0 0-.82-.81M15.83 14.39a.82.82 0 0 0-.81.81v5.6a.82.82 0 1 0 1.63 0v-5.6a.82.82 0 0 0-.82-.81M23.88 14.39a.82.82 0 0 0-.82.81v5.6a.82.82 0 1 0 1.64 0v-5.6a.82.82 0 0 0-.82-.81M8.59 6.05c0 .44-.23.61-.63.61-.46 0-.73-.25-.73-.64v-.5c.28-.03.6-.04.73-.04.47 0 .63.22.63.57M3.6 6.69c-.33 0-.6-.12-.8-.33V4.44c0-.37.29-.6.75-.6.5 0 .74.27.74.71V6.1c0 .37-.2.6-.68.6M26.78 6.62c-.5 0-.77-.27-.77-.71V4.6c0-.45.26-.72.77-.72.52 0 .78.27.78.72v1.3c0 .45-.26.72-.78.72M36.05 6.05c0 .44-.23.61-.63.61-.46 0-.73-.25-.73-.64v-.5c.28-.03.6-.04.73-.04.47 0 .63.22.63.57" fill="#0098da"/><path d="M41.42 3.51c0-.23-.17-.4-.45-.4-.29 0-.44.17-.44.4V5.8c0 .52-.24.83-.65.83-.25 0-.5-.1-.78-.26a.98.98 0 0 0 .02-.2V3.51c0-.23-.14-.4-.44-.4s-.45.17-.45.4v2.65c0 .37-.06.38-.1.47-.07.1-.1.15-.1.24 0 .22.18.39.42.39.16 0 .3-.1.4-.24.36.25.77.36 1.13.36.96 0 1.44-.64 1.44-1.59Zm-5.95.34c.3 0 .53.08.8.2.02.03.08.05.18.05.28 0 .4-.2.4-.37 0-.5-.97-.64-1.46-.64-1.01 0-1.6.61-1.6 1.41v1.47c0 .8.58 1.43 1.64 1.43 1 0 1.5-.55 1.5-1.38 0-.77-.46-1.24-1.5-1.24-.24 0-.47.02-.74.06v-.38c0-.37.26-.6.78-.6m-3.01-.76c-.26 0-.31.1-.48.35l-1.1 1.57-.18-.2V3.7c0-.31-.1-.6-.45-.6-.26 0-.45.17-.45.41v5c0 .32.08.62.45.62.25 0 .45-.18.45-.41V5.87l1.19 1.26c.1.12.23.23.42.23.24 0 .43-.16.43-.39a.4.4 0 0 0-.12-.28l-1.11-1.15 1.3-1.84a.46.46 0 0 0 .07-.25c-.01-.22-.2-.35-.42-.35m-4 1.5c0-.85-.59-1.5-1.68-1.5-1.09 0-1.66.65-1.66 1.5v1.3c0 .85.57 1.5 1.66 1.5 1.1 0 1.67-.65 1.67-1.5zm-4.87-1.48c-1.21 0-1.52.6-1.52 1.73v3.33c0 .23.16.41.45.41.28 0 .44-.19.44-.4V7.15h.74c.23 0 .42-.18.42-.4 0-.23-.19-.4-.42-.4h-.74V4.9c0-.73.07-1 .56-1l.15.02c.36 0 .56-.1.56-.38 0-.38-.32-.43-.64-.43m-3.02 1.22h-.23V3.5c0-.24-.2-.42-.45-.42s-.44.18-.44.42v.84H17.5a.46.46 0 0 0-.47.45c0 .04.03.17.08.26l1.58 3.82c.07.15.24.25.4.25.22 0 .45-.2.45-.43 0-.04 0-.09-.03-.15l-1.41-3.38h1.34V6.6c0 .24.19.42.44.42.24 0 .45-.18.45-.42V5.16h.23c.24 0 .43-.18.43-.4a.42.42 0 0 0-.43-.42m-4.91-1.22c-1.22 0-1.52.6-1.52 1.73v3.33c0 .23.16.41.45.41.28 0 .44-.19.44-.4V7.15h.74c.23 0 .42-.18.42-.4 0-.23-.2-.4-.42-.4h-.74V4.9c0-.73.07-1 .56-1l.15.02c.36 0 .56-.1.56-.38 0-.38-.32-.43-.64-.43m-3.1 3.42c-.34 0-.57.01-.91-.2l.01-.18V3.5c0-.24-.2-.42-.44-.42-.26 0-.45.18-.45.42v2.65c0 .23-.03.35-.12.48a.34.34 0 0 0-.08.22c0 .23.2.39.43.39.15 0 .28-.1.38-.24.37.22.8.35 1.08.35.43 0 .56-.17.56-.4 0-.27-.2-.44-.46-.42M8.01 3.85c.3 0 .53.08.8.2.02.03.08.05.18.05.28 0 .4-.2.4-.37 0-.5-.97-.64-1.46-.64-1.01 0-1.6.61-1.6 1.41v1.47c0 .8.58 1.43 1.64 1.43 1 0 1.5-.55 1.5-1.38 0-.77-.45-1.24-1.5-1.24-.24 0-.47.02-.74.06v-.38c0-.37.26-.6.78-.6m-2.82.73c0-.84-.55-1.5-1.64-1.5-1.04 0-1.63.6-1.63 1.35v4.29c0 .21.15.4.44.4.28 0 .45-.19.45-.4V7.1c.28.19.58.29 1 .29.99 0 1.38-.58 1.38-1.33zM1.72 35.91c0 .95 1.1 1.76 2.41 1.76h1.23V10.78H1.72zm42.66-25.13H7v32.88c-.02.63.23 1.25.7 1.74.55.59 1.38.94 2.24.96H29.1c.8 0 1.57-.3 2.1-.81l7.21-6.79c.55-.52.85-1.2.85-1.9v-5.43a.82.82 0 1 1 1.64 0v5.42c0 1.16-.48 2.26-1.36 3.1l-7.2 6.79A4.74 4.74 0 0 1 29.1 48H9.92a4.9 4.9 0 0 1-3.42-1.47 4.05 4.05 0 0 1-1.14-2.9V39.3H4.13C1.9 39.3.08 37.78.08 35.9L0 .7C0 .35.27.08.6.08h43.78c.33 0 .6.27.6.6v9.48a.6.6 0 0 1-.6.61" fill="#0098da"/></g></svg>