<?xml version="1.0" encoding="utf-8"?>
<!-- Generator: Adobe Illustrator 22.0.1, SVG Export Plug-In . SVG Version: 6.00 Build 0)  -->
<svg version="1.1" id="Слой_1" xmlns="http://www.w3.org/2000/svg" xmlns:xlink="http://www.w3.org/1999/xlink" x="0px" y="0px"
	 viewBox="0 0 30 30" style="enable-background:new 0 0 30 30;" xml:space="preserve">
<style type="text/css">
	.st0{fill:#0098DA;}
	.st1{fill:none;stroke:#0098DA;stroke-width:1.1;stroke-linecap:round;stroke-linejoin:round;stroke-miterlimit:10;}
</style>
<path class="st0" d="M0.6,29.4C1,29.8,1.5,30,2,30s1-0.2,1.4-0.6l4.2-4.2c1,0.6,2.2,0.9,3.5,0.9c2.7,0,5-1.5,6.2-3.7
	c1.1,0.8,2.5,1.2,3.9,1.2h1.3V27c0,0.3,0.3,0.6,0.6,0.6s0.6-0.3,0.6-0.6v-3.3h1.3V27c0,0.3,0.3,0.6,0.6,0.6c0.3,0,0.6-0.3,0.6-0.6
	v-3.3h3.3c0.3,0,0.6-0.3,0.6-0.6c0-0.3-0.3-0.6-0.6-0.6l-8.2,0c-1.2,0-2.4-0.4-3.4-1.1c0.2-0.4,0.3-0.9,0.3-1.4
	c0.8,0.8,1.9,1.3,3.1,1.3h8.2c0.3,0,0.6-0.3,0.6-0.6c0-0.3-0.3-0.6-0.6-0.6h-3.3v-1.3c0-3.7-3-6.8-6.8-6.8H18v-1.3
	c0-3.7-3-6.8-6.8-6.8H10V0.6C10,0.3,9.7,0,9.4,0C9,0,8.8,0.3,8.8,0.6v3.3H7.5V0.6C7.5,0.3,7.3,0,6.9,0C6.6,0,6.3,0.3,6.3,0.6v3.3H3
	c-0.3,0-0.6,0.3-0.6,0.6c0,0.3,0.3,0.6,0.6,0.6h8.2c3.1,0,5.6,2.5,5.6,5.6V12h-1.3v-1.3c0-2.4-1.9-4.3-4.3-4.3H3
	C2.7,6.4,2.4,6.6,2.4,7c0,0.3,0.3,0.6,0.6,0.6h3.3v1.3c0,1.4,0.4,2.8,1.2,3.9c-2.2,1.2-3.7,3.6-3.7,6.2c0,1.3,0.3,2.4,0.9,3.5
	l-4.2,4.2C-0.2,27.4-0.2,28.7,0.6,29.4z M7.5,7.5h1.3v1.3c0,1.2,0.5,2.3,1.3,3.1c-0.5,0.1-0.9,0.2-1.4,0.3c-0.7-1-1.1-2.2-1.1-3.4
	V7.5z M11.2,7.5c0.1,0,0.2,0,0.2,0L10,9.1c0-0.1,0-0.2,0-0.2V7.5H11.2z M13.8,8.9l-2.5,2.5c-0.4-0.3-0.7-0.6-0.9-1l2.4-2.4
	C13.2,8.2,13.5,8.5,13.8,8.9z M14.4,12h-1.3c-0.2,0-0.5,0-0.7-0.1l1.9-1.9c0.1,0.2,0.1,0.5,0.1,0.7V12z M24.9,20h-1.3v-1.3
	c0-2.4-1.9-4.3-4.3-4.3l-2.6,0c0,0-0.1,0-0.1,0c-0.4-0.5-0.9-0.9-1.4-1.3h2.2c0,0,0,0,0,0c0,0,0,0,0,0h1.9c3.1,0,5.6,2.5,5.6,5.6V20
	z M18,15.6h1.3c0.2,0,0.4,0,0.6,0.1l-1.8,1.8c0-0.2-0.1-0.4-0.1-0.6V15.6z M21.2,20c-0.1,0-0.3,0-0.4,0l1.6-1.6c0,0.1,0,0.3,0,0.4
	V20H21.2z M18.6,18.6l2.5-2.5c0.4,0.3,0.7,0.6,1,1l-2.5,2.5C19.2,19.4,18.8,19,18.6,18.6z M11,24.9c-3.3,0-6-2.7-6-6s2.7-6,6-6
	s6,2.7,6,6C17,22.3,14.3,24.9,11,24.9z M1.4,27.5l4.1-4.1c0.3,0.4,0.7,0.8,1.1,1.1l-4.1,4.1c-0.3,0.3-0.8,0.3-1.1,0
	C1.1,28.3,1.1,27.8,1.4,27.5z"/>
<path class="st0" d="M11.6,14.9c0-0.3-0.3-0.6-0.6-0.6l0,0c-0.3,0-0.6,0.3-0.6,0.6c0,0.3,0.3,0.6,0.6,0.6h0h0
	C11.4,15.4,11.6,15.2,11.6,14.9z"/>
<path class="st0" d="M12.8,15.2c-0.2,0.3-0.1,0.6,0.2,0.8c1,0.7,1.6,1.8,1.6,2.9c0,0.3,0.3,0.6,0.6,0.6s0.6-0.3,0.6-0.6
	c0-1.6-0.8-3-2.1-3.9C13.4,14.9,13,14.9,12.8,15.2z"/>
<path class="st0" d="M10.4,23c0,0.3,0.3,0.6,0.6,0.6c0,0,0.1,0,0.1,0c0.3,0,0.6-0.3,0.6-0.6s-0.3-0.6-0.6-0.6c0,0,0,0-0.1,0
	C10.7,22.5,10.4,22.7,10.4,23z"/>
<path class="st0" d="M6.4,19c0,1.6,0.8,3.1,2.1,3.9C8.6,22.9,8.7,23,8.8,23c0.2,0,0.4-0.1,0.5-0.3c0.2-0.3,0.1-0.6-0.2-0.8
	c-1-0.7-1.6-1.8-1.6-2.9c0-0.3-0.3-0.6-0.6-0.6C6.6,18.4,6.4,18.6,6.4,19z"/>
<line class="st1" x1="16.5" y1="1.9" x2="29.5" y2="1.9"/>
<line class="st1" x1="16.5" y1="4" x2="29.5" y2="4"/>
<line class="st1" x1="19.5" y1="6.1" x2="29.5" y2="6.1"/>
<line class="st1" x1="19.5" y1="8.2" x2="29.5" y2="8.2"/>
</svg>
