<svg xmlns="http://www.w3.org/2000/svg" xml:space="preserve" width="36.5" height="44.4"><defs><clipPath clipPathUnits="userSpaceOnUse" id="a"><path d="M0 33.3h27.38V0H0Z"/></clipPath></defs><g clip-path="url(#a)" transform="matrix(1.33333 0 0 -1.33333 0 44.4)"><path d="M26.77 0H.61a.6.6 0 0 0-.6.6v4.7c0 .33.26.6.6.6h26.16a.6.6 0 0 0 .6-.6V.6a.6.6 0 0 0-.6-.6" fill="#ffffff"/><path d="M2.32 2.04c0-.23.17-.37.45-.37.3 0 .45.17.45.44v.93c0 .23-.13.36-.42.36a.65.65 0 0 1-.48-.2Zm-.55 2.6c0 .13.1.25.27.25s.28-.12.28-.25v-.98c.17.11.35.18.6.18.6 0 .84-.36.84-.81v-.9c0-.5-.33-.9-1-.9-.63 0-.99.35-.99.8zM5.45 3.39c-.28 0-.44-.15-.44-.4V2.7l.44-.03c.29 0 .38.14.38.35 0 .26-.13.37-.38.37m-.44-1.1v-.24c0-.22.15-.37.47-.37.19 0 .32.05.49.13l.1.02c.18 0 .25-.12.25-.22 0-.3-.59-.39-.88-.39-.62 0-.97.37-.97.86v.89c0 .49.34.87.99.87.6 0 .9-.34.9-.84 0-.47-.27-.75-.9-.75-.15 0-.3 0-.45.04M7.7 3.2V1.48c0-.15-.11-.26-.27-.26-.15 0-.27.11-.27.26v1.6c0 .14-.02.22-.07.3a.2.2 0 0 0-.05.13c0 .14.12.24.26.24.1 0 .17-.07.23-.15.23.13.49.22.66.22.26 0 .34-.1.34-.25a.25.25 0 0 0-.28-.26c-.2 0-.34.01-.55-.11M9.21 4.31c0 .14.1.25.27.25s.27-.11.27-.25V3.7h.45c.14 0 .26-.1.26-.25 0-.13-.12-.24-.26-.24h-.45v-.88c0-.44.05-.6.35-.6h.09c.21 0 .33-.05.33-.22 0-.23-.19-.26-.38-.26-.74 0-.93.36-.93 1.05ZM12.98 1.47c0-.14-.12-.25-.27-.25-.15 0-.27.1-.27.25v.5h-1.18a.28.28 0 0 0-.28.28c0 .02.02.1.05.16l.96 2.32c.04.1.14.16.24.16.13 0 .27-.13.27-.27l-.01-.09c-.15-.33-.72-1.71-.86-2.05h.81v.87c0 .15.12.26.27.26.15 0 .27-.11.27-.26v-.87h.15c.14 0 .26-.11.26-.25a.25.25 0 0 0-.26-.25h-.15ZM14.04 4.31c0 .14.1.25.27.25s.27-.11.27-.25V3.7h.45c.14 0 .26-.1.26-.25 0-.13-.12-.24-.26-.24h-.45v-.88c0-.44.04-.6.34-.6h.1c.21 0 .33-.05.33-.22 0-.23-.19-.26-.39-.26-.73 0-.92.36-.92 1.05ZM17.38 2.13v.8c0 .27-.16.43-.47.43-.31 0-.47-.16-.47-.43v-.8c0-.27.16-.43.47-.43.31 0 .47.16.47.43m-1.49 0v.8c0 .51.35.91 1.02.91.66 0 1.01-.4 1.01-.91v-.8c0-.5-.35-.91-1.01-.91-.67 0-1.02.4-1.02.91M19.29 2.9l.72.78c.07.07.15.14.26.14.14 0 .26-.1.26-.24a.24.24 0 0 0-.07-.17l-.68-.7.8-1.12c.02-.04.04-.1.04-.15-.01-.14-.12-.22-.26-.22-.16 0-.19.06-.3.22l-.66.95-.11-.12V1.6c0-.19-.06-.37-.27-.37-.16 0-.27.11-.27.26V4.5c0 .2.04.38.27.38.15 0 .27-.11.27-.25ZM22.16 3.39c-.28 0-.44-.15-.44-.4V2.7l.44-.03c.29 0 .38.14.38.35 0 .26-.13.37-.38.37m-.44-1.1v-.24c0-.22.16-.37.47-.37.19 0 .32.05.49.13.01 0 .05.02.11.02.17 0 .25-.12.25-.22 0-.3-.6-.39-.9-.39-.61 0-.96.37-.96.86v.89c0 .49.34.87 1 .87.6 0 .9-.34.9-.84 0-.47-.27-.75-.91-.75-.14 0-.29 0-.45.04M24.42 1.48c0-.14-.1-.26-.27-.26-.18 0-.27.12-.27.26v1.6c0 .23-.04.24-.07.29-.04.06-.06.09-.06.15 0 .13.11.23.26.23.1 0 .18-.06.24-.15.22.16.47.23.69.23.58 0 .87-.4.87-.97V1.48c0-.14-.1-.26-.27-.26s-.27.12-.27.26v1.38c0 .32-.14.5-.4.5a.93.93 0 0 1-.47-.15.57.57 0 0 0 .02-.12Z" fill="#0098da"/><path d="M6.1 15.66a4.77 4.77 0 1 0 8.3 0 4.77 4.77 0 0 0-8.3 0m.1-2.92-1.19 1.2.64.64a5.78 5.78 0 0 1 1.2-1.2zM2.36 8.8 1.15 10l3.18 3.27 1.2-1.2Zm13.6 9.02h3.52a.47.47 0 1 1 0 .93h-3.56a5.72 5.72 0 0 1-.5 1.69h4.06a.47.47 0 0 1 0 .94h-4.62a5.72 5.72 0 0 1-9.72-5.94L.15 10.37a.53.53 0 0 1 0-.76l1.82-1.8c.2-.22.55-.21.75 0l4.98 5.05a5.73 5.73 0 0 1 8.26 4.95M22.8 21.88h-1.53a.47.47 0 1 1 0-.94h1.53a.47.47 0 0 1 0 .94M22.8 19.26h-1.53a.47.47 0 0 1 0-.94h1.53a.47.47 0 1 1 0 .94M18.94 16.64a.47.47 0 0 1-.33-.8c.09-.1.2-.14.33-.14s.25.05.33.14a.47.47 0 0 1 0 .66.48.48 0 0 1-.33.14M21.27 16.64a.47.47 0 0 1 0-.94h1.53a.47.47 0 1 1 0 .94Z" fill="#ffffff"/><path d="M12.8 16.6a1.07 1.07 0 0 0-1.53 0l-.84.84 1.52 1.52.85-.84c.2-.2.31-.47.31-.76 0-.29-.11-.56-.31-.77m-3.75 2.22c-.2.2-.32.48-.32.77a1.07 1.07 0 0 0 1.08 1.08c.3 0 .56-.11.77-.32l.84-.84-1.53-1.53Zm-.77-2.46v2.02a1.08 1.08 0 0 0 0-2.02m-.75 0a1.08 1.08 0 0 0 0 2.02zm5.8 2.3-2.22 2.23a1.82 1.82 0 0 1-2.6 0 1.83 1.83 0 0 1-.49-1.7l-.11.01a1.84 1.84 0 1 1 1.8-2.11l1.02-1.02a1.82 1.82 0 0 1 2.6 0 1.82 1.82 0 0 1 0 2.6" fill="#ffffff"/><path d="M8.36 29.45c0-.2-.16-.35-.35-.35l-1.75.08 2.1 1.99Zm15.58 3.85H8.95a.59.59 0 0 1-.42-.17l-4.2-4.2a.6.6 0 0 1-.17-.42v-4.48a.6.6 0 0 1 1.18 0v.2h.02l.03 3.69H8c.84 0 1.53.69 1.53 1.53l.05 2.67h14.35c.2 0 .35-.16.35-.35V10.42c0-.2-.16-.36-.35-.36l-16.17.02a.6.6 0 1 1 0-1.2h16.17c.84 0 1.53.7 1.53 1.54v21.34c0 .85-.69 1.54-1.53 1.54" fill="#ffffff"/><path d="M15.65 24a3.03 3.03 0 1 0 .01 6.07 3.03 3.03 0 0 0 0-6.06m0 6.95a3.92 3.92 0 1 1 0-7.85 3.92 3.92 0 0 1 0 7.85" fill="#ffffff"/><path d="M17.29 26.77h-.97a.32.32 0 0 1-.32-.33v-.96h-.64v.96c0 .18-.14.33-.32.33h-.97v.64h.97c.18 0 .32.14.32.32v.97H16v-.97c0-.18.15-.32.32-.32h.97zm-.64 1.28v.97c0 .18-.15.32-.33.32h-1.28a.32.32 0 0 1-.32-.32v-.97h-.97a.32.32 0 0 1-.32-.32v-1.29c0-.17.14-.32.32-.32h.97v-.96c0-.18.14-.32.32-.32h1.28c.18 0 .33.14.33.32v.96h.96c.18 0 .32.15.32.32v1.3c0 .17-.14.31-.32.31z" fill="#ffffff"/></g></svg>