<svg xmlns="http://www.w3.org/2000/svg" width="53.32" height="53.32"><defs><clipPath clipPathUnits="userSpaceOnUse" id="a"><path d="M0 39.99h39.99V0H0z"/></clipPath></defs><g clip-path="url(#a)" transform="matrix(1.33333 0 0 -1.33333 0 53.32)"><path d="M10.4 8.94L8.26 6.37l-.91.92a.48.48 0 01-.68 0 .48.48 0 010-.68l1.28-1.29a.48.48 0 01.34-.14h.02c.14.01.26.07.35.18l2.48 2.96a.48.48 0 01-.74.62M21.77 8.79l-2.14-2.56-.92.91a.48.48 0 11-.67-.68l1.28-1.28c.09-.1.21-.14.34-.14h.02c.13 0 .26.07.35.17l2.47 2.96a.48.48 0 11-.74.62M33.13 8.94L31 6.37l-.91.92a.48.48 0 11-.68-.68l1.28-1.29a.48.48 0 01.34-.14h.02c.14.01.26.07.35.18l2.48 2.96a.48.48 0 11-.74.62" fill="#ffffff"/><path d="M32.63 11.51v2.11c0 1.42-.89 2.53-2.03 2.53l-7.06-.03-.03 3.12h8.54c.7 0 1.26.57 1.26 1.26v15.77c0 .7-.56 1.26-1.26 1.26H8.45c-.69 0-1.26-.57-1.26-1.26V20.5c0-.7.57-1.26 1.27-1.26l8.48.03h.03l.03-3.12h-6.7c-1.15 0-2.04-1.11-2.04-2.53l.02-2.03a4.65 4.65 0 01-4.04-4.6 4.66 4.66 0 019.3 0 4.6 4.6 0 01-4.03 4.57v2.06c0 .75.41 1.27.78 1.27l9.38.03.03-3.33a4.64 4.64 0 111.23 0l-.03 3.3h9.7c.37 0 .78-.52.78-1.27l.02-2a4.63 4.63 0 01.22-9.27 4.63 4.63 0 011.01 9.16m-1.01-8.1a3.6 3.6 0 100 7.2 3.6 3.6 0 000-7.2M8.49 20.5v15.73l23.53.03v-9.78c0-4.45 0-5.95.03-5.96L8.64 20.5zm9.77-1.27l3.98.03.03-3.12-4-.03zm2-15.84a3.6 3.6 0 100 7.2 3.6 3.6 0 000-7.2m-11.37 0a3.6 3.6 0 100 7.2 3.6 3.6 0 000-7.2" fill="#ffffff"/><path d="M26.2 31.44a.38.38 0 01-.5.17.38.38 0 01-.18-.5 5.75 5.75 0 00-8.55-7.15.88.88 0 01-1.45.9.88.88 0 01.92-1.45 6.51 6.51 0 019.76 8.02M14.6 28.61a5.75 5.75 0 009.02 4.73.87.87 0 01.8-1.23.87.87 0 01.88.88.87.87 0 01-1.09.85 6.51 6.51 0 01-9.79-7.92.38.38 0 11.7.31 5.69 5.69 0 00-.52 2.38" fill="#ffffff"/><path d="M18.83 30.33c.24 1 .68 1.73 1.17 1.97v-1.97zM20 26.9v-1.96c-.5.24-.93.96-1.17 1.96zm-1.89 0c.15-.66.38-1.25.67-1.71a3.8 3.8 0 00-1.8 1.71zm-1.4 2.75H18a8.65 8.65 0 010-2.05H16.7a3.77 3.77 0 000 2.05m.28.7a3.8 3.8 0 001.8 1.7 5.38 5.38 0 01-.68-1.7zm3-.7v-2.05H18.7a7.7 7.7 0 000 2.05zm3.98-2.05H22.7a8.7 8.7 0 010 2.05h1.28a3.74 3.74 0 000-2.05m-2.06-2.41c.37.58.57 1.27.66 1.71h1.13a3.8 3.8 0 00-1.8-1.71m-.04 1.71c-.25-1-.68-1.72-1.17-1.96v1.96zm-1.17 3.44v1.97c.5-.24.92-.97 1.17-1.97zm1.88 0c-.1.44-.29 1.13-.66 1.71a3.8 3.8 0 001.79-1.7zM20.7 27.6v2.05H22a7.72 7.72 0 000-2.05zm-.35 5.5a4.48 4.48 0 010-8.95 4.47 4.47 0 010 8.94" fill="#ffffff"/></g></svg>