<svg xmlns="http://www.w3.org/2000/svg" width="66.667" height="66.667"><defs><clipPath id="a" clipPathUnits="userSpaceOnUse"><path d="M0 50h50V0H0Z"/></clipPath></defs><g clip-path="url(#a)" transform="matrix(1.33333 0 0 -1.33333 0 66.667)"><path d="M0 0a.894.894 0 0 0-.842 1.197c.114.322.065.679-.134.957-.198.277-.52.433-.861.433h-.015a.895.895 0 1 0 .032 1.789A2.827 2.827 0 0 0 .843.595.896.896 0 0 0 0 0" style="fill:#0098da;fill-opacity:1;fill-rule:nonzero;stroke:none" transform="translate(21.225 17.77)"/><path d="M0 0c-.011-.011-.011-.011-.011-.021a1.852 1.852 0 0 0-1.705-1.116A1.858 1.858 0 1 0 0 0m.252-13.526a1.07 1.07 0 1 0 0-2.138H-.821v2.138zM10.537-.463c-.264.631-.863.989-1.642.989H1.926c.011.063.011.137.011.201a3.653 3.653 0 0 1-3.653 3.642A3.643 3.643 0 0 1-5.358.727c0-.064 0-.138.011-.201h-6.969c-.779 0-1.379-.358-1.652-.989-.39-.937.105-2.316 1.263-3.516 1.116-1.158 2.894-2.137 5.01-2.137.832 0 1.716.148 2.632.506a.894.894 0 0 1 .516 1.157.904.904 0 0 1-1.158.516c-2.706-1.052-4.664.274-5.379.884-.853.737-1.179 1.464-1.221 1.79h7.547A3.588 3.588 0 0 1-2.61-2.811v-8.926h-2.358c-.611.022-1.095.516-1.095 1.106a1.06 1.06 0 0 0 1.052 1.042H-5c.516-.042.895.389.905.883a.9.9 0 0 1-.884.906c-1.61.032-2.853-1.242-2.874-2.821.011-1.579 1.253-2.853 2.864-2.905h2.379v-2.138h-.759c-1.421-.031-2.547-1.22-2.515-2.61 0-.726.295-1.432.821-1.926a.879.879 0 0 1 1.263.032.894.894 0 0 1-.032 1.262.883.883 0 0 0-.263.654.783.783 0 0 0 .748.799h.737v-2.126a.894.894 0 1 1 1.789 0v2.126H.252A2.865 2.865 0 0 1 3.116-14.6a2.866 2.866 0 0 1-2.864 2.863H-.821v8.926c.895.222 1.663.79 2.158 1.548h7.547c-.042-.326-.379-1.053-1.231-1.79-.716-.61-2.664-1.936-5.38-.884a.906.906 0 0 1-1.157-.516.893.893 0 0 1 .515-1.157 7.237 7.237 0 0 1 2.642-.506c2.117 0 3.885.979 5.011 2.137 1.158 1.2 1.653 2.579 1.253 3.516" style="fill:#0098da;fill-opacity:1;fill-rule:nonzero;stroke:none" transform="translate(17.81 29.946)"/><path d="M0 0v5.989a2.558 2.558 0 0 0 2.547 2.558h41.327c1.4 0 2.547-1.147 2.547-2.558V0Zm43.874 10.337H2.547A4.347 4.347 0 0 1-1.79 5.989v-35.768a4.345 4.345 0 0 1 4.337-4.337h22.569c.495 0 .894.4.894.895a.892.892 0 0 1-.894.894H2.547A2.556 2.556 0 0 0 0-29.779V-1.79h46.421v-14.978a.895.895 0 1 1 1.789 0V5.989a4.346 4.346 0 0 1-4.336 4.348" style="fill:#0098da;fill-opacity:1;fill-rule:nonzero;stroke:none" transform="translate(1.79 38.567)"/><path d="M0 0a.747.747 0 1 1 .001-1.493A.747.747 0 0 1 0 0m0-3.281A2.538 2.538 0 0 0-2.536-.746 2.54 2.54 0 0 0 0 1.79 2.538 2.538 0 0 0 2.535-.746 2.538 2.538 0 0 0 0-3.281" style="fill:#0098da;fill-opacity:1;fill-rule:nonzero;stroke:none" transform="translate(7.518 43.655)"/><path d="M0 0a.746.746 0 1 1 0-1.492A.746.746 0 0 1 0 0m0-3.281A2.538 2.538 0 0 0-2.536-.746 2.54 2.54 0 0 0 0 1.79 2.538 2.538 0 0 0 2.535-.746 2.538 2.538 0 0 0 0-3.281" style="fill:#0098da;fill-opacity:1;fill-rule:nonzero;stroke:none" transform="translate(14.43 43.655)"/><path d="M0 0a.747.747 0 1 1 .001-1.493A.747.747 0 0 1 0 0m0-3.281A2.538 2.538 0 0 0-2.535-.746 2.538 2.538 0 0 0 0 1.79 2.54 2.54 0 0 0 2.536-.746 2.538 2.538 0 0 0 0-3.281" style="fill:#0098da;fill-opacity:1;fill-rule:nonzero;stroke:none" transform="translate(21.341 43.655)"/><path d="M0 0h-5.88a.895.895 0 0 0 0 1.79H0A.895.895 0 0 0 0 0" style="fill:#0098da;fill-opacity:1;fill-rule:nonzero;stroke:none" transform="translate(43.847 24.213)"/><path d="M0 0h-11.487a.895.895 0 1 0 0 1.79H0A.895.895 0 0 0 0 0" style="fill:#0098da;fill-opacity:1;fill-rule:nonzero;stroke:none" transform="translate(43.847 29.23)"/><path d="M0 0h-2.449a.895.895 0 1 0 0 1.79H0A.895.895 0 1 0 0 0" style="fill:#0098da;fill-opacity:1;fill-rule:nonzero;stroke:none" transform="translate(34.809 24.213)"/><path d="M0 0a7.434 7.434 0 0 1-4.792-1.74 7.421 7.421 0 0 1-2.65-5.073 7.423 7.423 0 0 1 1.713-5.46 7.431 7.431 0 0 1 5.075-2.65 7.449 7.449 0 0 1 5.459 1.713 7.43 7.43 0 0 1 2.65 5.073A7.423 7.423 0 0 1 5.74-2.676 7.463 7.463 0 0 1 0 0m.022-16.742a9.215 9.215 0 0 0-7.123 3.32 9.215 9.215 0 0 0-2.124 6.767A9.21 9.21 0 0 0-5.941-.367C-2.02 2.91 3.834 2.39 7.112-1.526h.001c3.28-3.92 2.76-9.776-1.159-13.056a9.201 9.201 0 0 0-5.932-2.16" style="fill:#0098da;fill-opacity:1;fill-rule:nonzero;stroke:none" transform="translate(40.726 17.839)"/><path d="M0 0c-.386 0-.775.123-1.103.378l-2.303 1.798a.895.895 0 1 0 1.099 1.411L-.004 1.79l4.256 5.428a.894.894 0 1 0 1.41-1.103L1.419.688A1.799 1.799 0 0 0 0 0" style="fill:#0098da;fill-opacity:1;fill-rule:nonzero;stroke:none" transform="translate(39.693 6.164)"/></g></svg>