<svg width="66.667" height="66.667" xmlns="http://www.w3.org/2000/svg"><defs><clipPath clipPathUnits="userSpaceOnUse" id="a"><path d="M0 50h50V0H0Z"/></clipPath></defs><g clip-path="url(#a)" transform="matrix(1.33333 0 0 -1.33333 0 66.667)"><path d="M0 0c-1.85 0-3.36 1.51-3.36 3.36v5.09c.32-.15.61-.36.86-.62L4.47.87c.26-.26.47-.55.62-.87Zm7.11-5.54v4.03c0 .23-.01.46-.06.69 0 .06-.01.11-.02.16a4.864 4.864 0 0 1-1.39 2.7L-1.33 9c-.74.75-1.67 1.23-2.69 1.39-.05.01-.1.02-.16.02-.46 0-.83-.37-.83-.82V3.36C-5.01.6-2.76-1.65 0-1.65h5.46v-9.96c0-.46.36-.83.82-.83.46 0 .83.37.83.83z" style="fill:#0098da;fill-opacity:1;fill-rule:nonzero;stroke:none" transform="translate(35.25 39.525)"/><path d="M0 0c-.06.02-.13.03-.19.03h.04c.02 0 .05 0 .08-.01C-.05.02-.02.01 0 0" style="fill:#0098da;fill-opacity:1;fill-rule:nonzero;stroke:none" transform="translate(23.32 42.745)"/><path d="M0 0c-2.05 0-3.72 1.67-3.72 3.72v5.65c.39-.18.75-.43 1.06-.74l7.57-7.57c.31-.31.56-.67.74-1.06Zm6.83-4.64c.46 0 .82.37.82.83v2.24c0 .25-.02.5-.06.74 0 .06-.01.12-.02.18a5.286 5.286 0 0 1-1.49 2.88L-1.49 9.8c-.77.77-1.71 1.25-2.74 1.45-.02.01-.05.02-.08.02-.06.02-.13.03-.19.03-.01.01-.02.01-.03.01h-.03c-.24.03-.48.07-.73.07H-15.6v3.54c0 .92 1.8 1.95 3.02 1.95H2.61v.77c0 .45.37.82.83.82-.23.05-.46.06-.69.06h-15.33c-1.88 0-4.67-1.51-4.67-3.6v-3.54h-5.96c-2.12 0-3.84-1.73-3.84-3.84v-35.38a3.63 3.63 0 0 1 3.63-3.63H4.02c2.01 0 3.63 1.62 3.63 3.63a.826.826 0 0 1-1.65 0c0-1.09-.89-1.98-1.98-1.98h-27.44c-1.09 0-1.98.89-1.98 1.98V7.54c0 1.2.98 2.18 2.19 2.18h17.84v-6C-5.37.76-2.96-1.65 0-1.65h6v-2.16c0-.46.37-.83.83-.83" style="fill:#0098da;fill-opacity:1;fill-rule:nonzero;stroke:none" transform="translate(27.63 31.475)"/><path d="M0 0a.766.766 0 0 1-.38-.22c.1.11.23.19.38.22" style="fill:#0098da;fill-opacity:1;fill-rule:nonzero;stroke:none" transform="translate(22.88 42.755)"/><path d="M0 0c.1.11.23.19.38.22A.766.766 0 0 1 0 0" style="fill:#0098da;fill-opacity:1;fill-rule:nonzero;stroke:none" transform="translate(22.5 42.535)"/><path d="M0 0c-.06.02-.13.03-.19.03h.04c.02 0 .05 0 .08-.01C-.05.02-.02.01 0 0" style="fill:#0098da;fill-opacity:1;fill-rule:nonzero;stroke:none" transform="translate(23.32 42.745)"/><path d="M0 0a.766.766 0 0 1-.38-.22c.1.11.23.19.38.22" style="fill:#0098da;fill-opacity:1;fill-rule:nonzero;stroke:none" transform="translate(22.88 42.755)"/><path d="M0 0c-.06.02-.13.03-.19.03h.04c.02 0 .05 0 .08-.01C-.05.02-.02.01 0 0" style="fill:#0098da;fill-opacity:1;fill-rule:nonzero;stroke:none" transform="translate(23.32 42.745)"/><path d="M0 0c-.61 0-1.1.49-1.1 1.1 0 .26.4.96 1.1 1.79.69-.83 1.1-1.53 1.1-1.79C1.1.49.6 0 0 0m-9.23-.01c-.6 0-1.09.49-1.09 1.1 0 .26.4.95 1.09 1.78.7-.83 1.1-1.52 1.1-1.78 0-.61-.49-1.1-1.1-1.1m9.92 4.6c-.05.05-.1.09-.16.13 0 .01-.01.01-.02.01a.77.77 0 0 1-.56.23h-.01l-3.63-.02v2.07a.826.826 0 1 1-1.65 0V4.93l-3.65-.02c-.08 0-.17-.02-.24-.05h-.03a.966.966 0 0 1-.66-.28c-.94-1-2.05-2.41-2.05-3.49 0-1.52 1.23-2.75 2.74-2.75 1.52 0 2.75 1.23 2.75 2.75 0 .66-.41 1.44-.95 2.17l2.09.01v-9.22h-1.4c-.46 0-.83-.37-.83-.83 0-.46.37-.83.83-.83h4.45c.45 0 .82.37.82.83 0 .46-.37.83-.82.83h-1.4v9.23l1.91.01c-.55-.74-.97-1.53-.97-2.19 0-1.52 1.23-2.75 2.75-2.75S2.75-.42 2.75 1.1c0 1.08-1.12 2.5-2.06 3.49" style="fill:#0098da;fill-opacity:1;fill-rule:nonzero;stroke:none" transform="translate(17.57 29.775)"/><path d="M0 0h-19.184a.826.826 0 1 0 0 1.651H0A.825.825 0 1 0 0 0" style="fill:#0098da;fill-opacity:1;fill-rule:nonzero;stroke:none" transform="translate(25.78 10.911)"/><path d="M0 0h-13.589a.826.826 0 1 0 0 1.651H0A.825.825 0 1 0 0 0" style="fill:#0098da;fill-opacity:1;fill-rule:nonzero;stroke:none" transform="translate(25.78 5.794)"/><path d="M0 0h-1.842a.826.826 0 1 0 0 1.651H0A.825.825 0 1 0 0 0" style="fill:#0098da;fill-opacity:1;fill-rule:nonzero;stroke:none" transform="translate(8.438 5.794)"/><path d="M0 0h-3.551a.826.826 0 1 0 0 1.651H0A.825.825 0 1 0 0 0" style="fill:#0098da;fill-opacity:1;fill-rule:nonzero;stroke:none" transform="translate(25.78 16.265)"/><path d="M0 0h-11.881a.826.826 0 1 0 0 1.651H0A.825.825 0 1 0 0 0" style="fill:#0098da;fill-opacity:1;fill-rule:nonzero;stroke:none" transform="translate(18.476 16.265)"/><path d="m0 0-.9-2.82a.802.802 0 0 0-.48-.52c-.1-.04-.2-.06-.31-.06a.83.83 0 0 0-.4.11l-2.69 1.5a.83.83 0 0 0-.31 1.13c.22.39.72.54 1.12.31l.78-.44a7.919 7.919 0 0 1-5.73 4.57c-4.23.8-8.35-2-9.15-6.25-.39-2.05.04-4.14 1.22-5.87a7.815 7.815 0 0 1 5.02-3.28c3.36-.64 6.82 1.04 8.4 4.07.21.4.71.56 1.12.35.4-.21.56-.71.35-1.12-1.67-3.18-4.89-5.09-8.38-5.09-.59 0-1.2.05-1.8.17a9.396 9.396 0 0 0-6.07 3.97 9.384 9.384 0 0 0-1.48 7.11c.97 5.14 5.93 8.53 11.08 7.56A9.486 9.486 0 0 0-1.74-.01l.17.51c.13.44.6.68 1.03.54C-.1.9.14.44 0 0" style="fill:#0098da;fill-opacity:1;fill-rule:nonzero;stroke:none" transform="translate(49.38 19.595)"/><path d="M0 0c-.21 0-.42.079-.581.238L-3.48 3.107a.83.83 0 0 0-.245.588v5.64a.825.825 0 1 0 1.651 0V4.039L.581 1.413A.826.826 0 0 0 0 0" style="fill:#0098da;fill-opacity:1;fill-rule:nonzero;stroke:none" transform="translate(41.855 11.344)"/></g></svg>