<svg version="1.1" id="Слой_1" xmlns="http://www.w3.org/2000/svg" x="0" y="0" viewBox="0 0 30 30" xml:space="preserve"><style>.st0{fill:#0098da}</style><switch><g><path class="st0" d="M23.9 7.1c.3 0 .5-.2.5-.5s-.2-.5-.5-.5-.5.2-.5.5.3.5.5.5zm0 0M10.2 7.1c.3 0 .5-.2.5-.5s-.2-.5-.5-.5-.5.2-.5.5c.1.3.3.5.5.5zm0 0M8.3 7.1c.3 0 .5-.2.5-.5s-.2-.5-.5-.5-.5.2-.5.5.3.5.5.5zm0 0M6.4 7.1c.3 0 .5-.2.5-.5s-.2-.5-.5-.5-.5.2-.5.5.2.5.5.5zm0 0"/><path class="st0" d="M25.8 4.2H4.2c-.8 0-1.4.6-1.4 1.4v19.1c0 .8.6 1.4 1.4 1.4h21.6c.8 0 1.4-.6 1.4-1.4v-19c.1-.8-.6-1.5-1.4-1.5zm-21.6 1h21.6c.3 0 .5.2.5.5v2.4H3.7V5.7c0-.3.2-.5.5-.5zm21.6 20.1H4.2c-.3 0-.5-.2-.5-.5V9h22.6v15.8c0 .3-.2.5-.5.5zm0 0"/><path class="st0" d="M18.9 7.1H22c.3 0 .5-.2.5-.5s-.2-.5-.5-.5h-3.2c-.3 0-.5.2-.5.5.1.3.3.5.6.5zm0 0M13.2 20.9H6.4c-.3 0-.5-.2-.5-.5s.2-.5.5-.5h6.8c.3 0 .5.2.5.5s-.2.5-.5.5zM13.2 22.9H6.4c-.3 0-.5-.2-.5-.5s.2-.5.5-.5h6.8c.3 0 .5.2.5.5s-.2.5-.5.5zM11.5 14.1H8.1c-.2 0-.3-.1-.3-.3v-.1c0-.2.1-.3.3-.3h3.4c.2 0 .3.1.3.3v.1c0 .1-.1.3-.3.3zM11.5 15.8H8.1c-.2 0-.3-.1-.3-.3v-.1c0-.2.1-.3.3-.3h3.4c.2 0 .3.1.3.3v.1c0 .2-.1.3-.3.3zM22.2 19.8h-3.4c-.2 0-.3-.1-.3-.3v-.1c0-.2.1-.3.3-.3h3.4c.2 0 .3.1.3.3v.1c0 .2-.1.3-.3.3zM22.2 21.6h-3.4c-.2 0-.3-.1-.3-.3v-.1c0-.2.1-.3.3-.3h3.4c.2 0 .3.1.3.3v.1c0 .2-.1.3-.3.3z"/><path class="st0" d="M6.5 18c-.3 0-.6-.3-.6-.6v-5.7c0-.3.3-.6.6-.6h6.1c.3 0 .6.3.6.6v5.7c0 .3-.3.6-.6.6H6.5zm.2-.8l5.7.1.1-5.3-5.8-.1v5.3zM17.3 23.8c-.3 0-.6-.3-.6-.6v-5.7c0-.3.3-.6.6-.6h6.1c.3 0 .6.3.6.6v5.7c0 .3-.3.6-.6.6h-6.1zm.2-.8l5.7.1.1-5.3-5.8-.1V23zM23.3 10.8c0-.2-.1-.3-.3-.3h-5.2c-.2 0-.3.1-.3.3v1.7c0 .1.1.2.2.3h.1c.1 0 .2 0 .2-.1l.4-.4h1V15l-.4.4c-.1.1-.1.2-.1.3 0 .1.2.2.3.2h2.3c.1 0 .2-.1.3-.2 0-.1 0-.3-.1-.3l-.3-.4-.1-2.6h1l.4.4c.1.1.1.1.2.1h.1c.1 0 .2-.2.2-.3l.1-1.8zm-.6.3v.7c-.1 0-.1-.1-.2-.1h-1.4c-.2 0-.3.1-.3.3v3.1c0 .1 0 .1.1.2h-.8c0-.1.1-.1.1-.2V12c0-.2-.1-.3-.3-.3h-1.4c-.1 0-.2 0-.3.1v-.7h4.5z"/></g></switch></svg>