<svg xmlns="http://www.w3.org/2000/svg" xml:space="preserve" width="66.667" height="66.667"><defs><clipPath clipPathUnits="userSpaceOnUse" id="a"><path d="M0 50h50V0H0Z"/></clipPath></defs><g clip-path="url(#a)" transform="matrix(1.33333 0 0 -1.33333 0 66.667)"><path d="M0 0h-19.539a5.454 5.454 0 0 0-5.447 5.448V31.65a5.454 5.454 0 0 0 5.447 5.448H9.944a.855.855 0 1 0 0-1.71h-29.483a3.742 3.742 0 0 1-3.737-3.738V5.448a3.742 3.742 0 0 1 3.737-3.737H0A.855.855 0 0 0 0 0" style="fill:#0098da;fill-opacity:1;fill-rule:nonzero;stroke:none" transform="translate(25.964 8.048)"/><path d="M0 0a.855.855 0 0 0-.855.855v15.604a3.742 3.742 0 0 1-3.738 3.738h-.555a.855.855 0 1 0 0 1.71h.555a5.454 5.454 0 0 0 5.448-5.448V.855A.855.855 0 0 0 0 0" style="fill:#0098da;fill-opacity:1;fill-rule:nonzero;stroke:none" transform="translate(40.586 23.238)"/><path d="M0 0a2.153 2.153 0 0 1-2.151-2.151v-9.533c0-1.186.964-2.151 2.151-2.151h13.038c1.187 0 2.151.965 2.151 2.151v9.533A2.153 2.153 0 0 1 13.038 0Zm13.038-15.534H0a3.855 3.855 0 0 0-3.851 3.85v9.533A3.855 3.855 0 0 0 0 1.699h13.038a3.855 3.855 0 0 0 3.851-3.85v-9.533a3.855 3.855 0 0 0-3.851-3.85" style="fill:#0098da;fill-opacity:1;fill-rule:nonzero;stroke:none" transform="translate(32.128 20.394)"/><path d="M0 0c0-1.51-.535-2.424-2.298-2.424-.376 0-1.139.04-1.139.686 0 .397.367.626.644.626.228 0 .356-.06.605-.06.663 0 .801.447.801 1.172v4.123c0 .348.297.636.694.636.366 0 .693-.298.693-.636Z" style="fill:#0098da;fill-opacity:1;fill-rule:nonzero;stroke:none" transform="translate(35.205 12.35)"/><path d="M0 0c0-1.51-.535-2.424-2.298-2.424-.376 0-1.139.04-1.139.686 0 .397.367.626.644.626.228 0 .356-.06.605-.06.663 0 .801.447.801 1.172v4.123c0 .348.297.636.694.636.366 0 .693-.298.693-.636Z" style="fill:none;stroke:#0098da;stroke-width:.1;stroke-linecap:butt;stroke-linejoin:miter;stroke-miterlimit:10;stroke-dasharray:none;stroke-opacity:1" transform="translate(35.205 12.35)"/><path d="M0 0a9.323 9.323 0 0 1-.723.268c-.97.298-2.019.626-2.019 2.066 0 1.281.89 2.057 2.297 2.057.584 0 1.99-.15 1.99-.895 0-.327-.257-.626-.692-.626-.179 0-.318.06-.486.109-.188.071-.406.15-.753.15-.485 0-.94-.169-.94-.755 0-.437.247-.586.416-.666.257-.129.495-.208.713-.268.969-.308 2.029-.645 2.029-2.056 0-1.381-1.049-2.176-2.466-2.176-.732 0-2.119.259-2.119.954 0 .317.287.626.654.626.149 0 .307-.05.495-.119.238-.08.555-.199.981-.199.683 0 1.029.308 1.029.854C.406-.229.179-.08 0 0" style="fill:#0098da;fill-opacity:1;fill-rule:nonzero;stroke:none" transform="translate(38.892 12.718)"/><path d="M0 0a9.323 9.323 0 0 1-.723.268c-.97.298-2.019.626-2.019 2.066 0 1.281.89 2.057 2.297 2.057.584 0 1.99-.15 1.99-.895 0-.327-.257-.626-.692-.626-.179 0-.318.06-.486.109-.188.071-.406.15-.753.15-.485 0-.94-.169-.94-.755 0-.437.247-.586.416-.666.257-.129.495-.208.713-.268.969-.308 2.029-.645 2.029-2.056 0-1.381-1.049-2.176-2.466-2.176-.732 0-2.119.259-2.119.954 0 .317.287.626.654.626.149 0 .307-.05.495-.119.238-.08.555-.199.981-.199.683 0 1.029.308 1.029.854C.406-.229.179-.08 0 0Z" style="fill:none;stroke:#0098da;stroke-width:.1;stroke-linecap:butt;stroke-linejoin:miter;stroke-miterlimit:10;stroke-dasharray:none;stroke-opacity:1" transform="translate(38.892 12.718)"/><path d="M0 0h-2.793c-.395 0-.742.298-.742.686v5.771c0 .338.306.636.693.636.376 0 .694-.298.694-.636V1.252H0c.356 0 .674-.269.674-.616C.674.278.376 0 0 0" style="fill:#0098da;fill-opacity:1;fill-rule:nonzero;stroke:none" transform="translate(45.203 10.016)"/><path d="M0 0h-2.793c-.395 0-.742.298-.742.686v5.771c0 .338.306.636.693.636.376 0 .694-.298.694-.636V1.252H0c.356 0 .674-.269.674-.616C.674.278.376 0 0 0Z" style="fill:none;stroke:#0098da;stroke-width:.1;stroke-linecap:butt;stroke-linejoin:miter;stroke-miterlimit:10;stroke-dasharray:none;stroke-opacity:1" transform="translate(45.203 10.016)"/><path d="M0 0c-.195 0-.354-.139-.354-.31v-2.32c0-.171.159-.309.354-.309h3.614a.85.85 0 0 0 .85-.851v-3.48c0-.171.159-.311.354-.311h2.409c.195 0 .355.14.355.311v3.48c0 .47.38.851.85.851h3.613c.195 0 .355.138.355.309v2.32c0 .171-.16.31-.355.31H8.432a.85.85 0 0 0-.85.85v3.48c0 .171-.16.31-.355.31H4.818c-.195 0-.354-.139-.354-.31V.85a.85.85 0 0 0-.85-.85Zm7.227-9.28H4.818c-1.132 0-2.054.902-2.054 2.01v2.631H0c-1.133 0-2.054.901-2.054 2.009v2.32C-2.054.798-1.133 1.7 0 1.7h2.764v2.63c0 1.108.922 2.01 2.054 2.01h2.409c1.133 0 2.054-.902 2.054-2.01V1.7h2.764C13.178 1.7 14.1.798 14.1-.31v-2.32c0-1.108-.922-2.009-2.055-2.009H9.281V-7.27c0-1.108-.921-2.01-2.054-2.01" style="fill:#0098da;fill-opacity:1;fill-rule:nonzero;stroke:none" transform="translate(17.912 27.159)"/><path d="M0 0a.287.287 0 0 1-.286-.286v-2.84c0-.157.128-.286.286-.286h2.839c.158 0 .286.129.286.286v2.84A.287.287 0 0 1 2.839 0Zm2.839-5.111H0c-1.095 0-1.986.89-1.986 1.985v2.84c0 1.095.891 1.985 1.986 1.985h2.839c1.095 0 1.986-.89 1.986-1.985v-2.84a1.988 1.988 0 0 0-1.986-1.985" style="fill:#0098da;fill-opacity:1;fill-rule:nonzero;stroke:none" transform="translate(13.273 17.72)"/><path d="M0 0c-.642 0-1.165-.486-1.165-1.083v-4.834c0-.598.523-1.084 1.165-1.084h5.036c.642 0 1.165.486 1.165 1.084v4.834C6.201-.486 5.678 0 5.036 0Zm5.036-8.701H0c-1.58 0-2.865 1.249-2.865 2.784v4.834C-2.865.451-1.58 1.7 0 1.7h5.036c1.58 0 2.865-1.249 2.865-2.783v-4.834c0-1.535-1.285-2.784-2.865-2.784" style="fill:#0098da;fill-opacity:1;fill-rule:nonzero;stroke:none" transform="translate(11.104 39.294)"/><path d="M0 0a.286.286 0 0 1-.286-.286v-2.839c0-.158.128-.287.286-.287h2.84c.158 0 .285.129.285.287v2.839A.285.285 0 0 1 2.84 0Zm2.84-5.111H0a1.988 1.988 0 0 0-1.986 1.986v2.839C-1.986.809-1.095 1.7 0 1.7h2.84A1.988 1.988 0 0 0 4.826-.286v-2.839A1.988 1.988 0 0 0 2.84-5.111" style="fill:#0098da;fill-opacity:1;fill-rule:nonzero;stroke:none" transform="translate(8.078 26.425)"/><path d="M0 0c-.305 0-.612.098-.871.299l-1.458 1.138a.85.85 0 1 0 1.046 1.34l1.238-.966 2.082 2.663a.849.849 0 1 0 1.338-1.047L1.122.544A1.423 1.423 0 0 0 0 0" style="fill:#0098da;fill-opacity:1;fill-rule:nonzero;stroke:none" transform="translate(13.172 33.394)"/><path d="M0 0a.287.287 0 0 1-.286-.286v-2.839c0-.158.129-.286.286-.286h2.84c.157 0 .286.128.286.286v2.839A.287.287 0 0 1 2.84 0Zm2.84-5.111H0a1.988 1.988 0 0 0-1.985 1.986v2.839C-1.985.809-1.095 1.7 0 1.7h2.84A1.988 1.988 0 0 0 4.825-.286v-2.839c0-1.095-.89-1.986-1.985-1.986" style="fill:#0098da;fill-opacity:1;fill-rule:nonzero;stroke:none" transform="translate(31.607 36.405)"/></g></svg>