<svg width="66.667" height="66.667" xmlns="http://www.w3.org/2000/svg"><defs><clipPath clipPathUnits="userSpaceOnUse" id="a"><path d="M0 50h50V0H0Z"/></clipPath></defs><g clip-path="url(#a)" transform="matrix(1.33333 0 0 -1.33333 0 66.667)"><path d="M0 0c0-1.16-.94-2.11-2.1-2.11h-14.54c-1.16 0-2.11.95-2.11 2.11v9.99c0 1.16.95 2.11 2.11 2.11H-2.1c1.16 0 2.1-.95 2.1-2.11Zm-2.1 13.79h-14.54c-2.1 0-3.8-1.7-3.8-3.8V0c0-2.1 1.7-3.8 3.8-3.8H-2.1c2.09 0 3.79 1.7 3.79 3.8v9.99c0 2.1-1.7 3.8-3.79 3.8" style="fill:#0098da;fill-opacity:1;fill-rule:nonzero;stroke:none" transform="translate(48 5.53)"/><path d="M0 0c.61.73.97 1.67.97 2.69 0 1.42-.7 2.67-1.77 3.44C1.55 5.1 2.61 2.91 2.61 2.91S1.62 1.22 0 0m-9.16 2.8s1.04 2.49 3.63 3.47a4.209 4.209 0 0 1-1.99-3.58c0-1.24.53-2.36 1.39-3.13C-8.03.76-9.16 2.8-9.16 2.8m5.89 2.73c1.57 0 2.84-1.27 2.84-2.84 0-1.57-1.27-2.85-2.84-2.85-1.57 0-2.85 1.28-2.85 2.85s1.28 2.84 2.85 2.84m7.14-2.01c-.09.18-2.26 4.54-7.21 4.54h-.07c-5.03-.04-6.96-4.53-7.04-4.72l-.26-.62.33-.59c.11-.2 2.71-4.82 6.99-4.82h.06C.94-2.64 3.7 2 3.82 2.2l.38.64Z" style="fill:#0098da;fill-opacity:1;fill-rule:nonzero;stroke:none" transform="translate(41.9 7.63)"/><path d="M0 0a1.404 1.404 0 1 0-2.808 0A1.404 1.404 0 0 0 0 0" style="fill:#0098da;fill-opacity:1;fill-rule:nonzero;stroke:none" transform="translate(40.031 10.317)"/><path d="M0 0h-42.1v5.69c0 1.34 1.09 2.42 2.42 2.42h37.26C-1.09 8.11 0 7.03 0 5.69Zm-2.42 9.81h-37.26c-2.27 0-4.12-1.85-4.12-4.12v-33.98c0-2.27 1.85-4.12 4.12-4.12h20.44a.85.85 0 1 1 0 1.7h-20.44c-1.33 0-2.42 1.08-2.42 2.42V-1.7H0v-14.23a.85.85 0 1 1 1.7 0V5.69c0 2.27-1.85 4.12-4.12 4.12" style="fill:#0098da;fill-opacity:1;fill-rule:nonzero;stroke:none" transform="translate(44.1 38.46)"/><path d="M0 0a.709.709 0 1 1 .001-1.417A.709.709 0 0 1 0 0m0-3.117A2.412 2.412 0 0 0-2.409-.708 2.411 2.411 0 0 0 0 1.7 2.411 2.411 0 0 0 2.409-.708 2.412 2.412 0 0 0 0-3.117" style="fill:#0098da;fill-opacity:1;fill-rule:nonzero;stroke:none" transform="translate(7.442 43.291)"/><path d="M0 0a.709.709 0 1 1 .001-1.417A.709.709 0 0 1 0 0m0-3.117A2.412 2.412 0 0 0-2.409-.708 2.411 2.411 0 0 0 0 1.7 2.411 2.411 0 0 0 2.409-.708 2.412 2.412 0 0 0 0-3.117" style="fill:#0098da;fill-opacity:1;fill-rule:nonzero;stroke:none" transform="translate(14.008 43.291)"/><path d="M0 0a.709.709 0 1 1 .001-1.417A.709.709 0 0 1 0 0m0-3.117A2.412 2.412 0 0 0-2.409-.708 2.411 2.411 0 0 0 0 1.7 2.411 2.411 0 0 0 2.409-.708 2.412 2.412 0 0 0 0-3.117" style="fill:#0098da;fill-opacity:1;fill-rule:nonzero;stroke:none" transform="translate(20.575 43.291)"/><path d="M0 0h-7.812a.85.85 0 0 0 0 1.7H0A.85.85 0 0 0 0 0" style="fill:#0098da;fill-opacity:1;fill-rule:nonzero;stroke:none" transform="translate(33.3 30.057)"/><path d="M0 0h-3.811a.85.85 0 0 0 0 1.7H0A.85.85 0 0 0 0 0" style="fill:#0098da;fill-opacity:1;fill-rule:nonzero;stroke:none" transform="translate(39.982 30.057)"/><path d="M0 0h-14.493a.85.85 0 0 0 0 1.7H0A.85.85 0 0 0 0 0" style="fill:#0098da;fill-opacity:1;fill-rule:nonzero;stroke:none" transform="translate(39.982 25.473)"/><path d="m0 0-5.27-9.96a2.174 2.174 0 0 0-2.92-.9l-.46.25c-.51.27-.88.72-1.05 1.27-.17.56-.12 1.14.15 1.65l5.27 9.96a2.174 2.174 0 0 0 2.92.9l.47-.25C.16 2.36.56 1.05 0 0m2.91 1.57c.44.16.67.65.51 1.09-.15.44-.64.68-1.08.52l-.87-.31C1.2 3.38.8 3.83.31 4.16l.44.85c.22.41.06.93-.36 1.14-.41.22-.92.06-1.14-.35l-.47-.87c-.51.17-1.04.22-1.55.16L-3 6c-.12.46-.59.73-1.04.61a.837.837 0 0 1-.61-1.03l.27-1.04c-.4-.24-.76-.56-1.04-.94l-.86.46a.85.85 0 0 1-1.15-.36.841.841 0 0 1 .35-1.14l.81-.43-1.01-1.9-.8.43A.85.85 0 0 1-9.23.3a.844.844 0 0 1 .35-1.14l.81-.43-1.01-1.9-.8.43a.855.855 0 0 1-.8-1.51l.81-.42-1.01-1.9-.8.43a.855.855 0 0 1-.8-1.51l1.02-.53c-.04-.28-.05-.57-.03-.86l-1.1-.39a.84.84 0 0 1-.52-1.08.847.847 0 0 1 1.09-.52l1.06.38c.23-.42.55-.79.93-1.08l-.45-.85a.847.847 0 0 1 .35-1.15c.13-.06.26-.1.4-.1.3 0 .6.17.75.46l.43.81c.44-.16.91-.25 1.37-.25.07 0 .15 0 .22.01l.28-1.06c.1-.38.44-.63.82-.63.07 0 .14.01.21.02.46.12.73.59.61 1.04l-.28 1.11c.25.13.49.3.71.51l.98-.52c.13-.07.26-.1.4-.1.3 0 .6.17.75.45.22.42.06.93-.35 1.15l-.77.41 1.01 1.89.76-.4c.13-.07.26-.1.4-.1.3 0 .6.17.75.45.22.42.06.93-.35 1.15l-.76.41 1 1.89.76-.4c.13-.07.26-.1.4-.1.3 0 .6.17.75.45.22.42.06.93-.35 1.15l-.76.41 1.01 1.89.75-.4c.13-.07.27-.1.4-.1.3 0 .6.17.75.45.22.42.06.93-.35 1.15l-.81.44c.16.46.22.95.18 1.42z" style="fill:#0098da;fill-opacity:1;fill-rule:nonzero;stroke:none" transform="translate(16.58 27.29)"/><path d="M0 0c-.06.36.03.73.25 1.02.21.3.53.49.89.55a1.343 1.343 0 0 0 1.02-.24c.3-.22.5-.54.55-.9a1.37 1.37 0 0 0-1.14-1.57A1.37 1.37 0 0 0 0 0m5.16-.01c.46.07.78.51.71.97-.08.46-.51.78-.98.71l-.76-.13c-.1.21-.22.41-.37.59l.46.63a.847.847 0 1 1-1.37 1l-.47-.65c-.21.08-.43.13-.65.15l-.13.8a.85.85 0 1 1-1.68-.27L.05 3c-.2-.1-.39-.21-.57-.35l-.66.47c-.37.28-.91.19-1.18-.19a.837.837 0 0 1 .19-1.18l.65-.47c-.09-.21-.14-.44-.17-.66L-2.47.5a.853.853 0 0 1-.71-.97.857.857 0 0 1 .97-.71l.77.12c.1-.21.22-.41.35-.59l-.45-.63a.846.846 0 0 1 .19-1.18c.15-.11.33-.17.5-.17.26 0 .52.13.69.36l.44.6c.22-.08.45-.14.69-.17l.12-.73a.849.849 0 1 1 1.68.26l-.12.73c.22.1.43.23.61.38l.6-.44a.857.857 0 0 1 1.19.19c.27.38.19.91-.19 1.19l-.61.44c.08.22.13.45.16.69z" style="fill:#0098da;fill-opacity:1;fill-rule:nonzero;stroke:none" transform="translate(19.95 16.67)"/></g></svg>