<svg xmlns="http://www.w3.org/2000/svg" width="39.99" height="39.99"><defs><clipPath clipPathUnits="userSpaceOnUse" id="a"><path d="M0 30h30V0H0z"/></clipPath><clipPath clipPathUnits="userSpaceOnUse" id="b"><path d="M11.83 20.71h.02a6.2 6.2 0 002.62-1.27 5.73 5.73 0 001.2-1.28c.37-.52.66-1.1.85-1.7a6.34 6.34 0 00-.15-4.33l-.01-.06a6.41 6.41 0 017.84 6.24 6.42 6.42 0 01-12.36 2.4"/></clipPath><clipPath clipPathUnits="userSpaceOnUse" id="c"><path d="M0 30h30V0H0z"/></clipPath></defs><g clip-path="url(#a)" transform="matrix(1.33333 0 0 -1.33333 0 39.99)"><path d="M27.5 10.7h-.1v14.12c0 1.15-.93 2.09-2.08 2.09H10.27a2.1 2.1 0 01-2.09-2.1l-.04-4.4c.26.1.52.17.8.23l.2.04.04 4.14c0 .6.5 1.08 1.1 1.08h15.04c.6 0 1.08-.48 1.08-1.08V10.7l-10.9-.02c-.2-.28-.42-.55-.67-.8l-.22-.2h12.58V8.62c0-.6-.48-1.08-1.08-1.08H9.47c-.48 0-.88.33-1.02.77l-.32.1-.58-.58a2.08 2.08 0 011.92-1.3h16.64c1.15 0 2.1.94 2.1 2.09v1.38c0 .39-.33.7-.72.7" fill="#0098da"/><path d="M13.55 11.19c-.32-.33-.68-.6-1.07-.8l-.86-.35a4.6 4.6 0 00-3.73.47c-.62.36-1.38 1.3-1.38 1.3a4.63 4.63 0 00.52 5.89 4.78 4.78 0 003.26 1.34 4.6 4.6 0 003.26-1.34c.57-.57.8-1.08.8-1.08a4.6 4.6 0 00-.8-5.43M6.37 9.37l-1.16 1.16.62.62A5.23 5.23 0 017 9.99zM2.34 5.33L1.18 6.5l3.37 3.36L5.71 8.7zm13.34 10.4a5.4 5.4 0 01-1.47 2.64 5.54 5.54 0 01-8.88-6.4L.23 6.85a.51.51 0 010-.73l1.75-1.76c.2-.2.53-.2.73 0l5.11 5.1h.01a5.4 5.4 0 011.78-.53h.02a5.47 5.47 0 014.58 1.58 5.52 5.52 0 011.47 5.21" fill="#0098da"/></g><g clip-path="url(#b)" transform="matrix(1.33333 0 0 -1.33333 0 39.99)"><path d="M36.02 8.56H17.78v19.77h18.24z" fill="#ec1b2e"/><path d="M17.77 8.56H6.37v19.77h11.4z" fill="#23913c"/><path d="M17.78 8.56H6.37v19.77h29.65V8.56z" fill="none" stroke="#231f20" stroke-width=".01"/><path d="M22.32 16.32h-.1c-.61.08-2.4.92-4.43 2.1-2.03 1.17-3.64 2.3-4 2.8a.76.76 0 00-.06.08l-.43-.75c-.03-.04-.05-.05.01-.13.35-.49 1.98-1.63 4.02-2.82 2.04-1.18 3.84-2.02 4.43-2.08.1-.01.09.02.12.05z" fill="#f7e31a"/><path d="M22.32 16.32h-.1c-.61.08-2.4.92-4.43 2.1-2.03 1.17-3.64 2.3-4 2.8a.76.76 0 00-.06.08l-.43-.75c-.03-.04-.05-.05.01-.13.35-.49 1.98-1.63 4.02-2.82 2.04-1.18 3.84-2.02 4.43-2.08.1-.01.09.02.12.05z" fill="none" stroke="#231f20" stroke-width=".04"/><path d="M13.69 21.36c-.04-.05 0-.1.06-.2.37-.48 1.98-1.63 4.01-2.8 2.03-1.18 3.82-2.01 4.43-2.08.1-.02.17-.03.2.04.03.06-.08.2-.08.2.02-.06.06-.14-.04-.13-.6.07-2.4.9-4.44 2.09-2.04 1.18-3.66 2.33-4.01 2.81-.07.09 0 .1.08.1-.13 0-.17.03-.21-.03" fill="#f7e31a"/><path d="M13.69 21.36c-.04-.05 0-.1.06-.2.37-.48 1.98-1.63 4.01-2.8 2.03-1.18 3.82-2.01 4.43-2.08.1-.02.17-.03.2.04.03.06-.08.2-.08.2.02-.06.06-.14-.04-.13-.6.07-2.4.9-4.44 2.09-2.04 1.18-3.66 2.33-4.01 2.81-.07.09 0 .1.08.1-.13 0-.17.03-.21-.03z" fill="none" stroke="#231f20" stroke-width=".04"/><path d="M13.18 20.5c-.03-.04 0-.11.08-.2.36-.49 1.98-1.63 4-2.8 2.03-1.18 3.83-2.02 4.43-2.09.11-.01.17-.02.2.04.01.05.01.03-.02.11 0 0 0-.04-.1-.03-.6.06-2.4.9-4.43 2.09-2.04 1.18-3.67 2.32-4.02 2.8-.06.1-.04.08-.03.12-.04 0-.06 0-.1-.03" fill="#f7e31a"/><path d="M13.18 20.5c-.03-.04 0-.11.08-.2.36-.49 1.98-1.63 4-2.8 2.03-1.18 3.83-2.02 4.43-2.09.11-.01.17-.02.2.04.01.05.01.03-.02.11 0 0 0-.04-.1-.03-.6.06-2.4.9-4.43 2.09-2.04 1.18-3.67 2.32-4.02 2.8-.06.1-.04.08-.03.12-.04 0-.06 0-.1-.03" fill="#f7e31a"/><path d="M13.7 15.75c.47-.22 2.12-.4 4.09-.4 1.96 0 3.6.18 4.08.4l.25.43c-.48-.25-2.24-.43-4.33-.43-2.1 0-3.86.19-4.34.43z" fill="#f7e31a"/><path d="M13.7 15.75c.47-.22 2.12-.4 4.09-.4 1.96 0 3.6.18 4.08.4l.25.43c-.48-.25-2.24-.43-4.33-.43-2.1 0-3.86.19-4.34.43z" fill="none" stroke="#231f20" stroke-width=".04"/><path d="M21.94 15.86a.38.38 0 00-.12-.07 15.6 15.6 0 00-4.03-.36c-1.89 0-3.48.15-4.03.36a.46.46 0 00-.13.07.16.16 0 01-.01-.05c0-.28 1.86-.52 4.17-.52 2.3 0 4.16.24 4.16.52l-.01.05" fill="#f7e31a"/><path d="M21.94 15.86a.38.38 0 00-.12-.07 15.6 15.6 0 00-4.03-.36c-1.89 0-3.48.15-4.03.36a.46.46 0 00-.13.07.16.16 0 01-.01-.05c0-.28 1.86-.52 4.17-.52 2.3 0 4.16.24 4.16.52l-.01.05z" fill="none" stroke="#fff" stroke-width=".04"/><path d="M13.44 16.32c-.02-.05.02-.1.07-.11.56-.23 2.26-.4 4.28-.4 1.96 0 3.8.2 4.28.4.04.02.08.05.07.1.05-.02.05-.08.05-.08 0-.3-1.97-.55-4.4-.55-2.44 0-4.4.25-4.4.55 0 0-.01.06.05.1" fill="#f7e31a"/><path d="M13.44 16.32c-.02-.05.02-.1.07-.11.56-.23 2.26-.4 4.28-.4 1.96 0 3.8.2 4.28.4.04.02.08.05.07.1.05-.02.05-.08.05-.08 0-.3-1.97-.55-4.4-.55-2.44 0-4.4.25-4.4.55 0 0-.01.06.05.1z" fill="none" stroke="#fff" stroke-width=".04"/><path d="M22.69 18.6a.75.75 0 00-.1-.06c-.55-.36-2.5-.63-4.8-.63-2.32 0-4.26.27-4.81.63a.98.98 0 00-.1.06v-.31c0-.07-.01-.1.09-.16.54-.37 2.49-.64 4.81-.64 2.33 0 4.28.27 4.82.64.1.06.07.09.08.16z" fill="#f7e31a"/><path d="M22.69 18.6a.75.75 0 00-.1-.06c-.55-.36-2.5-.63-4.8-.63-2.32 0-4.26.27-4.81.63a.98.98 0 00-.1.06v-.31c0-.07-.01-.1.09-.16.54-.37 2.49-.64 4.81-.64 2.33 0 4.28.27 4.82.64.1.06.07.09.08.16z" fill="none" stroke="#231f20" stroke-width=".04"/><path d="M22.6 18.79c.07-.08.1-.16 0-.22-.53-.37-2.49-.64-4.81-.64-2.33 0-4.28.27-4.82.64-.1.06-.06.15 0 .22 0 0-.15-.09-.15-.16-.01-.1.06-.14.16-.21.55-.36 2.5-.63 4.8-.63 2.32 0 4.26.27 4.82.63.1.07.16.11.15.21 0 .1-.14.16-.14.16" fill="#f7e31a"/><path d="M22.6 18.79c.07-.08.1-.16 0-.22-.53-.37-2.49-.64-4.81-.64-2.33 0-4.28.27-4.82.64-.1.06-.06.15 0 .22 0 0-.15-.09-.15-.16-.01-.1.06-.14.16-.21.55-.36 2.5-.63 4.8-.63 2.32 0 4.26.27 4.82.63.1.07.16.11.15.21 0 .1-.14.16-.14.16z" fill="none" stroke="#fff" stroke-width=".04"/><path d="M22.68 18.31s.02-.1-.08-.16c-.53-.37-2.49-.64-4.81-.64-2.33 0-4.28.27-4.82.64-.1.06-.09.09-.08.17 0 0-.06-.04-.07-.11 0-.1.06-.14.16-.21.55-.36 2.5-.63 4.8-.63 2.32 0 4.26.27 4.82.63.1.07.15.1.15.2 0 .07-.04.1-.07.11" fill="#f7e31a"/><path d="M22.68 18.31s.02-.1-.08-.16c-.53-.37-2.49-.64-4.81-.64-2.33 0-4.28.27-4.82.64-.1.06-.09.09-.08.17 0 0-.06-.04-.07-.11 0-.1.06-.14.16-.21.55-.36 2.5-.63 4.8-.63 2.32 0 4.26.27 4.82.63.1.07.15.1.15.2 0 .07-.04.1-.07.11z" fill="none" stroke="#fff" stroke-width=".04"/><path d="M22.15 20.64c-.12-.29-2.03-.52-4.36-.52-2.3 0-4.2.23-4.36.5l.24.44c.14-.27 1.93-.48 4.12-.48 2.18 0 3.97.2 4.12.48z" fill="#f7e31a"/><path d="M22.15 20.64c-.12-.29-2.03-.52-4.36-.52-2.3 0-4.2.23-4.36.5l.24.44c.14-.27 1.93-.48 4.12-.48 2.18 0 3.97.2 4.12.48z" fill="none" stroke="#231f20" stroke-width=".04"/><path d="M21.94 21.1a.4.4 0 00-.12-.08 15.6 15.6 0 00-4.03-.37c-1.89 0-3.48.16-4.03.37a.47.47 0 00-.13.07l-.01-.05c0-.29 1.86-.52 4.17-.52 2.3 0 4.16.23 4.16.52l-.01.05" fill="#f7e31a"/><path d="M21.94 21.1a.4.4 0 00-.12-.08 15.6 15.6 0 00-4.03-.37c-1.89 0-3.48.16-4.03.37a.47.47 0 00-.13.07l-.01-.05c0-.29 1.86-.52 4.17-.52 2.3 0 4.16.23 4.16.52l-.01.05z" fill="none" stroke="#fff" stroke-width=".04"/><path d="M13.44 20.7c-.02-.05.02-.1.07-.11.56-.23 2.26-.4 4.28-.4 1.96 0 3.8.2 4.28.4.04.02.08.05.07.1.05-.02.05-.08.05-.08 0-.3-1.97-.55-4.4-.55-2.44 0-4.4.25-4.4.55 0 0-.01.06.05.1" fill="#f7e31a"/><path d="M13.44 20.7c-.02-.05.02-.1.07-.11.56-.23 2.26-.4 4.28-.4 1.96 0 3.8.2 4.28.4.04.02.08.05.07.1.05-.02.05-.08.05-.08 0-.3-1.97-.55-4.4-.55-2.44 0-4.4.25-4.4.55 0 0-.01.06.05.1z" fill="none" stroke="#fff" stroke-width=".04"/><path d="M22.61 18.4a4.83 4.83 0 10-9.65 0 4.83 4.83 0 009.65 0m-4.82 4.28a4.27 4.27 0 110-8.54 4.27 4.27 0 010 8.53" fill="#f7e31a"/><path d="M22.61 18.4a4.83 4.83 0 10-9.65 0 4.83 4.83 0 009.65 0zm-4.82 4.28a4.27 4.27 0 110-8.54 4.27 4.27 0 010 8.53z" fill="none" stroke="#fff" stroke-width=".04"/><path d="M12.89 18.2l.09.07c.55.36 2.5.63 4.8.63 2.32 0 4.27-.27 4.82-.63a.72.72 0 00.08-.07v.32c0 .07.02.1-.07.16-.54.37-2.5.64-4.82.64-2.33 0-4.28-.27-4.82-.64-.1-.06-.06-.1-.08-.16z" fill="#f7e31a"/><path d="M12.89 18.2l.09.07c.55.36 2.5.63 4.8.63 2.32 0 4.27-.27 4.82-.63a.72.72 0 00.08-.07v.32c0 .07.02.1-.07.16-.54.37-2.5.64-4.82.64-2.33 0-4.28-.27-4.82-.64-.1-.06-.06-.1-.08-.16z" fill="#f7e31a"/><path d="M12.96 18.02c-.05.07-.09.16 0 .22.55.37 2.5.64 4.83.64 2.32 0 4.27-.27 4.81-.64.1-.06.06-.15 0-.23 0 0 .15.1.15.17.01.1-.05.14-.16.2-.55.37-2.5.64-4.8.64-2.32 0-4.26-.27-4.81-.63-.1-.07-.17-.11-.16-.21 0-.1.14-.16.14-.16" fill="none" stroke="#fff" stroke-width=".04"/><path d="M12.89 18.5c.01-.01-.02.1.08.16.54.37 2.49.64 4.82.64 2.32 0 4.27-.27 4.81-.64.1-.06.09-.1.09-.17 0 0 .05.04.06.1 0 .1-.05.15-.15.22-.56.36-2.5.63-4.81.63-2.32 0-4.26-.27-4.81-.63-.1-.07-.16-.11-.16-.21 0-.06.04-.09.07-.1" fill="#f7e31a"/><path d="M12.89 18.5c.01-.01-.02.1.08.16.54.37 2.49.64 4.82.64 2.32 0 4.27-.27 4.81-.64.1-.06.09-.1.09-.17 0 0 .05.04.06.1 0 .1-.05.15-.15.22-.56.36-2.5.63-4.81.63-2.32 0-4.26-.27-4.81-.63-.1-.07-.16-.11-.16-.21 0-.06.04-.09.07-.1z" fill="none" stroke="#fff" stroke-width=".04"/><path d="M18 13.51h-.42v9.8H18z" fill="#f7e31a"/><path d="M18 13.51h-.42v9.8H18z" fill="none" stroke="#231f20" stroke-width=".04"/><path d="M17.65 13.51a.07.07 0 00-.07-.07.07.07 0 00-.07.07v9.8c0 .03.03.06.07.06.03 0 .07-.03.07-.07z" fill="#f7e31a"/><path d="M17.65 13.51a.07.07 0 00-.07-.07.07.07 0 00-.07.07v9.8c0 .03.03.06.07.06.03 0 .07-.03.07-.07z" fill="none" stroke="#fff" stroke-width=".04"/><path d="M18.07 13.51a.07.07 0 00-.07-.07.07.07 0 00-.07.07v9.8c0 .03.03.06.07.06.03 0 .07-.03.07-.07z" fill="#f7e31a"/><path d="M18.07 13.51a.07.07 0 00-.07-.07.07.07 0 00-.07.07v9.8c0 .03.03.06.07.06.03 0 .07-.03.07-.07z" fill="none" stroke="#fff" stroke-width=".04"/><path d="M13.43 16.22c.11.29 2.02.52 4.36.52 2.3 0 4.19-.23 4.35-.5l-.23-.44c-.15.27-1.94.48-4.12.48-2.2 0-3.98-.2-4.12-.48z" fill="#f7e31a"/><path d="M13.43 16.22c.11.29 2.02.52 4.36.52 2.3 0 4.19-.23 4.35-.5l-.23-.44c-.15.27-1.94.48-4.12.48-2.2 0-3.98-.2-4.12-.48z" fill="none" stroke="#231f20" stroke-width=".04"/><path d="M13.8 15.66c-.13.11-.1.16-.04.18.55.21 2.15.37 4.03.37 1.88 0 3.47-.16 4.03-.37.05-.02.07-.07-.04-.17.18.07.17.15.17.15 0 .28-1.86.52-4.16.52s-4.17-.24-4.17-.52c0 0-.02-.08.18-.16" fill="#f7e31a"/><path d="M13.8 15.66c-.13.11-.1.16-.04.18.55.21 2.15.37 4.03.37 1.88 0 3.47-.16 4.03-.37.05-.02.07-.07-.04-.17.18.07.17.15.17.15 0 .28-1.86.52-4.16.52s-4.17-.24-4.17-.52c0 0-.02-.08.18-.16z" fill="none" stroke="#fff" stroke-width=".04"/><path d="M22.09 16.12c.06.07.02.13-.02.15-.57.23-2.27.4-4.28.4-1.97 0-3.82-.2-4.29-.4-.04-.02-.09-.07-.04-.15-.1.07-.08.13-.08.13 0 .3 1.97.55 4.4.55 2.44 0 4.41-.25 4.41-.55 0 0 0-.09-.1-.13" fill="#f7e31a"/><path d="M22.09 16.12c.06.07.02.13-.02.15-.57.23-2.27.4-4.28.4-1.97 0-3.82-.2-4.29-.4-.04-.02-.09-.07-.04-.15-.1.07-.08.13-.08.13 0 .3 1.97.55 4.4.55 2.44 0 4.41-.25 4.41-.55 0 0 0-.09-.1-.13z" fill="none" stroke="#fff" stroke-width=".04"/><path d="M21.88 21.1c-.47.23-2.13.4-4.1.4-1.95 0-3.6-.16-4.08-.4l-.25-.42c.48.25 2.24.43 4.34.43 2.1 0 3.86-.18 4.33-.43z" fill="#f7e31a"/><path d="M21.88 21.1c-.47.23-2.13.4-4.1.4-1.95 0-3.6-.16-4.08-.4l-.25-.42c.48.25 2.24.43 4.34.43 2.1 0 3.86-.18 4.33-.43z" fill="none" stroke="#fff" stroke-width=".04"/><path d="M13.63 21c.05.04.07.05.13.07.55.21 2.15.36 4.03.36 1.88 0 3.47-.15 4.03-.36a.45.45 0 00.12-.07l.01.05c0 .28-1.86.52-4.16.52s-4.17-.24-4.17-.52l.01-.05" fill="#f7e31a"/><path d="M13.63 21c.05.04.07.05.13.07.55.21 2.15.36 4.03.36 1.88 0 3.47-.15 4.03-.36a.45.45 0 00.12-.07l.01.05c0 .28-1.86.52-4.16.52s-4.17-.24-4.17-.52l.01-.05z" fill="none" stroke="#fff" stroke-width=".04"/><path d="M22.14 20.54c.01.05-.03.1-.07.1-.57.24-2.27.4-4.28.4-1.97 0-3.82-.2-4.28-.4-.05-.01-.1-.04-.08-.1-.05.03-.05.09-.05.09 0 .3 1.97.55 4.4.55 2.44 0 4.41-.25 4.41-.55 0 0 0-.06-.05-.1" fill="#f7e31a"/><path d="M22.14 20.54c.01.05-.03.1-.07.1-.57.24-2.27.4-4.28.4-1.97 0-3.82-.2-4.28-.4-.05-.01-.1-.04-.08-.1-.05.03-.05.09-.05.09 0 .3 1.97.55 4.4.55 2.44 0 4.41-.25 4.41-.55 0 0 0-.06-.05-.1z" fill="none" stroke="#fff" stroke-width=".04"/><path d="M13.26 20.5l.1-.01c.6-.07 2.4-.9 4.42-2.08 2.03-1.18 3.65-2.32 4.01-2.8l.06-.09.42.75c.03.04.05.04-.01.13-.35.48-1.97 1.63-4.01 2.81-2.04 1.19-3.85 2.02-4.44 2.09-.1.01-.08-.02-.12-.06z" fill="#f7e31a"/><path d="M13.26 20.5l.1-.01c.6-.07 2.4-.9 4.42-2.08 2.03-1.18 3.65-2.32 4.01-2.8l.06-.09.42.75c.03.04.05.04-.01.13-.35.48-1.97 1.63-4.01 2.81-2.04 1.19-3.85 2.02-4.44 2.09-.1.01-.08-.02-.12-.06z" fill="none" stroke="#fff" stroke-width=".04"/><path d="M21.89 15.45c.04.05 0 .11-.07.2-.37.5-1.98 1.63-4.01 2.8-2.03 1.18-3.82 2.02-4.42 2.1-.12 0-.18.01-.21-.05-.03-.06.08-.21.08-.21-.02.07-.06.14.05.13.59-.06 2.39-.9 4.43-2.08 2.04-1.18 3.66-2.33 4.01-2.81.07-.1 0-.1-.08-.1.13-.01.17-.03.22.02" fill="#f7e31a"/><path d="M21.89 15.45c.04.05 0 .11-.07.2-.37.5-1.98 1.63-4.01 2.8-2.03 1.18-3.82 2.02-4.42 2.1-.12 0-.18.01-.21-.05-.03-.06.08-.21.08-.21-.02.07-.06.14.05.13.59-.06 2.39-.9 4.43-2.08 2.04-1.18 3.66-2.33 4.01-2.81.07-.1 0-.1-.08-.1.13-.01.17-.03.22.02z" fill="none" stroke="#fff" stroke-width=".04"/><path d="M22.39 16.31c.03.05 0 .12-.07.2-.37.5-1.99 1.64-4.01 2.81-2.03 1.18-3.82 2.01-4.43 2.09-.1.01-.17.01-.2-.04-.01-.05-.01-.03.02-.11 0 0 0 .04.1.03.6-.07 2.4-.9 4.44-2.09 2.04-1.18 3.66-2.33 4.01-2.8.06-.1.04-.08.04-.12.04 0 .05 0 .1.03" fill="#f7e31a"/><path d="M22.39 16.31c.03.05 0 .12-.07.2-.37.5-1.99 1.64-4.01 2.81-2.03 1.18-3.82 2.01-4.43 2.09-.1.01-.17.01-.2-.04-.01-.05-.01-.03.02-.11 0 0 0 .04.1.03.6-.07 2.4-.9 4.44-2.09 2.04-1.18 3.66-2.33 4.01-2.8.06-.1.04-.08.04-.12.04 0 .05 0 .1.03z" fill="none" stroke="#fff" stroke-width=".04"/><path d="M14.86 17.87a2.93 2.93 0 015.85 0v3.78h-5.85z" fill="#fff"/><path d="M14.86 17.87a2.93 2.93 0 015.85 0v3.78h-5.85z" fill="none" stroke="#231f20" stroke-width=".04"/><path d="M14.93 17.89a2.86 2.86 0 015.71 0v3.68h-5.7z" fill="#ec1b2e"/><path d="M19.53 17.02l.03-.03-.04-.04.03-.04.04.04.04-.03-.04-.04.03-.04.04.05.04-.04-.05-.04-.01.02-.02-.03-.14.14.02.02-.02.02zM19.79 16.94l-.05-.04.02-.02-.02-.02.14-.14.02.02.01-.02.05.05-.03.04-.05-.05-.03.03.04.05-.03.03-.05-.04-.03.03.04.05zM19.87 16.68l-.04-.04.01-.02-.02-.02.14-.14.02.02.02-.01.04.04-.03.03-.05-.04-.03.03.04.05-.03.03-.04-.04-.04.03.04.05zM19.32 16.78l-.02-.02.48-.48.02.02zM19.28 16.74l-.03-.02.48-.48.03.02zM19.52 16c.04.04.06.09.08.13l.05.06.02-.02.04.04-.48.48-.04-.04.01-.02-.05-.05a.56.56 0 01-.13-.07l.08-.09c.12.09.27.1.35.01.08-.08.07-.23-.01-.34z" fill="#f7e31a"/><path d="M19.53 15.95a.6.6 0 00-.05-.08l-.6.6.09.04.14-.14c.1.1.24.12.32.04.07-.08.05-.22-.04-.32zm-.2.2c.07.06.08.15.03.2-.05.04-.14.03-.2-.03z" fill="#f7e31a"/><path d="M19.32 16.2c.04.04.04.1.02.12-.03.03-.08.02-.12-.02zM19.57 16.8l-.1-.11-.1.1.1.11zm-.09.03l-.05-.05.03-.02.05.05zM19.92 16.45l-.11-.1-.1.1.1.1zm-.1.04l-.05-.05.03-.03.05.05zM19.83 16.72l-.2-.2-.1.1.2.2zm-.12 0l-.08-.08.02-.03.08.08zM15.54 16.5l.04.04.04-.04.03.04-.04.04.03.03.05-.04.03.03-.04.05.03.03.05-.04-.02-.02.02-.02-.14-.14-.02.02-.02-.01zM15.62 16.77l.05-.05.02.02.02-.02.14.14-.03.02.02.02-.05.04-.03-.03.05-.05-.04-.03-.04.04-.04-.03.05-.05-.04-.03-.04.05zM15.89 16.85l.04-.04.02.02.02-.02.13.13-.02.02.02.02-.04.04-.04-.03.05-.04-.04-.04-.04.05-.04-.04.05-.04-.04-.04-.04.05zM15.78 16.3l.02-.02.48.48-.02.02zM15.83 16.26l.02-.02.48.48-.02.02zM16.57 16.5a.54.54 0 01-.14.08l-.05.05.02.02-.05.05-.48-.48.05-.05.01.02.06-.06a.62.62 0 01.07-.13l.08.09c-.08.11-.1.26 0 .34.08.09.22.08.34 0z" fill="#f7e31a"/><path d="M16.62 16.51a.58.58 0 00.08-.05l-.6-.6a.62.62 0 00-.05.09l.15.15c-.1.1-.12.23-.04.31.07.08.21.06.31-.04zm-.2-.2c-.06.07-.15.08-.2.03-.04-.04-.03-.13.03-.2z" fill="#f7e31a"/><path d="M16.36 16.3c-.04.04-.09.05-.11.02-.03-.03-.02-.08.01-.11zM15.77 16.56l.1-.11-.1-.1-.1.1zm-.04-.1l.05-.04.03.02-.05.05zM16.11 16.9l.11-.1-.1-.11-.11.1zm-.03-.1l.05-.04.02.02-.05.05zM15.85 16.82l.2-.2-.1-.1-.2.2zm0-.13l.08-.08.02.03-.08.08zM15.2 19.14h.04v-.06h.05v.06h.05v-.06h.04v.06h.05v-.06h-.02v-.03h-.2v.03h-.02zM15.43 19.27v-.07h.03v-.03h.2v.03h.02v.07h-.05v-.07h-.05v.07h-.05v-.07h-.05v.07zM15.68 19.14v-.06h.02v-.03h.2v.03h.02v.06h-.05v-.06h-.05v.06h-.05v-.06h-.04v.06zM15.22 18.8h.68v.03h-.68zM15.22 18.73h.68v.03h-.68zM15.91 18.42c0 .05-.02.1-.04.14v.08h.03v.06h-.68v-.06h.02v-.08a.6.6 0 01-.04-.14h.12c.02.14.12.25.23.25.12 0 .22-.11.24-.25z" fill="#f7e31a"/><path d="M15.96 18.38l.02-.09h-.84c0 .03 0 .06.02.1h.2c0 .13.09.25.2.25.1 0 .19-.12.19-.26zm-.28 0c0 .09-.06.16-.12.16-.07 0-.13-.07-.13-.16z" fill="#f7e31a"/><path d="M15.63 18.42c0 .05-.04.09-.07.09-.04 0-.07-.04-.07-.1zM15.38 18.86h-.14v.16h.14zm-.08.04h.03v.07h-.03zM15.87 18.86h-.14v.16h.14zm-.09.04h.04v.07h-.04zM15.63 18.86h-.15v.28h.15zm-.1.08h.04v.11h-.03zM19.65 19.14h.05v-.06h.04v.06h.05v-.06h.05v.06h.05v-.06h-.02v-.03h-.2v.03h-.02zM19.89 19.27v-.07h.02v-.03h.2v.03h.02v.07h-.05v-.07h-.05v.07H20v-.07h-.05v.07zM20.13 19.14v-.06h.03v-.03h.2v.03h.01v.06h-.04v-.06h-.05v.06h-.05v-.06h-.05v.06zM19.67 18.8h.68v.03h-.68zM19.67 18.73h.68v.03h-.68zM20.37 18.42c0 .05-.02.1-.04.14v.08h.02v.06h-.68v-.06h.03v-.08a.6.6 0 01-.05-.14h.12c.02.14.12.25.24.25s.22-.11.24-.25z" fill="#f7e31a"/><path d="M20.41 18.38l.02-.09h-.84l.02.1h.2c0 .13.1.25.2.25s.2-.12.2-.26zm-.28 0c0 .09-.05.16-.12.16-.07 0-.12-.07-.12-.16z" fill="#f7e31a"/><path d="M20.08 18.42c0 .05-.03.09-.07.09-.04 0-.07-.04-.07-.1zM19.84 18.86h-.14v.16h.14zm-.09.04h.03v.07h-.03zM20.33 18.86h-.15v.16h.15zm-.1.04h.04v.07h-.03zM20.08 18.86h-.14v.28h.14zm-.09.08h.04v.11h-.04zM19.65 21.24h.05v-.06h.04v.06h.05v-.06h.05v.06h.05v-.06h-.02v-.03h-.2v.03h-.02zM19.89 21.37v-.06h.02v-.04h.2v.04h.02v.06h-.05v-.06h-.05v.06H20v-.06h-.05v.06zM20.13 21.24v-.06h.03v-.03h.2v.03h.01v.06h-.04v-.06h-.05v.06h-.05v-.06h-.05v.06zM19.67 20.9h.68v.03h-.68zM19.67 20.83h.68v.04h-.68zM20.37 20.52c0 .05-.02.1-.04.14v.08h.02v.06h-.68v-.06h.03v-.08a.6.6 0 01-.05-.14h.12c.02.14.12.25.24.25s.22-.1.24-.25z" fill="#f7e31a"/><path d="M20.41 20.49l.02-.1h-.84l.02.1h.2c0 .14.1.25.2.25s.2-.11.2-.25zm-.28 0c0 .08-.05.15-.12.15-.07 0-.12-.07-.12-.15z" fill="#f7e31a"/><path d="M20.08 20.52c0 .05-.03.09-.07.09-.04 0-.07-.04-.07-.1zM19.84 20.96h-.14v.16h.14zm-.09.05h.03v.07h-.03zM20.33 20.96h-.15v.16h.15zm-.1.05h.04v.07h-.03zM20.08 20.96h-.14v.28h.14zm-.09.08h.04v.12h-.04zM15.2 21.24h.04v-.06h.05v.06h.05v-.06h.04v.06h.05v-.06h-.02v-.03h-.2v.03h-.02zM15.43 21.37v-.06h.03v-.04h.2v.04h.02v.06h-.05v-.06h-.05v.06h-.05v-.06h-.05v.06zM15.68 21.24v-.06h.02v-.03h.2v.03h.02v.06h-.05v-.06h-.05v.06h-.05v-.06h-.04v.06zM15.22 20.9h.68v.03h-.68zM15.22 20.83h.68v.04h-.68zM15.91 20.52c0 .05-.02.1-.04.14v.08h.03v.06h-.68v-.06h.02v-.08a.6.6 0 01-.04-.14h.12c.02.14.12.25.23.25.12 0 .22-.1.24-.25z" fill="#f7e31a"/><path d="M15.96 20.49l.02-.1h-.84c0 .03 0 .07.02.1h.2c0 .14.09.25.2.25.1 0 .19-.11.19-.25zm-.28 0c0 .08-.06.15-.12.15-.07 0-.13-.07-.13-.15z" fill="#f7e31a"/><path d="M15.63 20.52c0 .05-.04.09-.07.09-.04 0-.07-.04-.07-.1zM15.38 20.96h-.14v.16h.14zm-.08.05h.03v.07h-.03zM15.87 20.96h-.14v.16h.14zm-.09.05h.04v.07h-.04zM15.63 20.96h-.15v.28h.15zm-.1.08h.04v.12h-.03zM17.42 21.25h.05v-.07h.05v.07h.05v-.07h.04v.07h.05v-.07h-.02v-.03h-.2v.03h-.02zM17.66 21.37v-.06h.03v-.03h.2v.03h.02v.06h-.05v-.06h-.05v.06h-.05v-.06h-.05v.06zM17.9 21.25v-.07h.03v-.03h.2v.03h.02v.07h-.05v-.07h-.05v.07h-.04v-.07h-.05v.07zM17.45 20.9h.68v.03h-.68zM17.45 20.84h.68v.03h-.68zM18.15 20.52l-.05.15v.07h.03v.06h-.68v-.06h.02v-.07a.6.6 0 01-.04-.15h.12c.02.14.12.25.24.25.11 0 .21-.1.23-.25z" fill="#f7e31a"/><path d="M18.19 20.49a.6.6 0 00.02-.1h-.84c0 .04 0 .07.02.1h.2c0 .14.09.25.2.25.1 0 .2-.11.2-.25zm-.28 0c0 .09-.06.16-.12.16-.07 0-.13-.07-.13-.16z" fill="#f7e31a"/><path d="M17.86 20.52c0 .05-.03.1-.07.1-.04 0-.07-.05-.07-.1zM17.61 20.96h-.14v.16h.15zm-.08.05h.03v.07h-.03zM18.1 20.96h-.14v.16h.14zm-.09.05h.04v.07H18zM17.86 20.96h-.15v.29h.15zm-.1.08h.04v.12h-.03z" fill="#f7e31a"/><path d="M16.1 17.97c0-.98.77-1.77 1.7-1.77.92 0 1.66.8 1.66 1.77v2.28h-3.35z" fill="#fff"/><path d="M16.1 17.97c0-.98.77-1.77 1.7-1.77.92 0 1.66.8 1.66 1.77v2.28h-3.35z" fill="none" stroke="#231f20" stroke-width=".04"/><path d="M17.4 19.43c0-.23.17-.42.39-.42.21 0 .38.19.38.42v.53h-.77z" fill="#007ac1"/><path d="M17.4 19.43c0-.23.17-.42.39-.42.21 0 .38.19.38.42v.53h-.77z" fill="none" stroke="#231f20" stroke-width=".01"/><path d="M17.79 19.48a.07.07 0 010 .15.07.07 0 010-.14M17.6 19.72c.04 0 .07.04.07.08 0 .03-.03.07-.07.07a.07.07 0 010-.15M17.97 19.72a.07.07 0 000 .14.07.07 0 000-.14M17.6 19.39a.07.07 0 000-.15.07.07 0 000 .15M17.97 19.39a.07.07 0 010-.15.07.07 0 010 .15" fill="#fff"/><path d="M17.4 18.18c0-.22.17-.41.39-.41.21 0 .38.19.38.41v.54h-.77z" fill="#007ac1"/><path d="M17.4 18.18c0-.22.17-.41.39-.41.21 0 .38.19.38.41v.54h-.77z" fill="none" stroke="#231f20" stroke-width=".01"/><path d="M17.79 18.24c.04 0 .07.03.07.07 0 .04-.03.08-.07.08a.07.07 0 010-.15M17.6 18.48c.04 0 .07.03.07.07 0 .04-.03.08-.07.08a.07.07 0 010-.15M17.97 18.48a.07.07 0 000 .14.07.07 0 000-.14M17.6 18.14c.04 0 .07-.03.07-.07a.07.07 0 00-.07-.07.07.07 0 000 .14M17.97 18.14a.07.07 0 010-.14.07.07 0 010 .14" fill="#fff"/><path d="M17.4 16.94c0-.23.17-.41.39-.41.21 0 .38.18.38.41v.54h-.77z" fill="#007ac1"/><path d="M17.4 16.94c0-.23.17-.41.39-.41.21 0 .38.18.38.41v.54h-.77z" fill="none" stroke="#231f20" stroke-width=".01"/><path d="M17.79 17a.07.07 0 010 .14.07.07 0 010-.14M17.6 17.24a.07.07 0 010 .14.07.07 0 010-.14M17.97 17.24a.07.07 0 000 .14.07.07 0 000-.14M17.6 16.9c.04 0 .07-.03.07-.07a.07.07 0 00-.07-.07.07.07 0 000 .14M17.97 16.9a.07.07 0 010-.14.07.07 0 010 .14" fill="#fff"/><path d="M16.4 18.18c0-.22.17-.41.38-.41.22 0 .39.19.39.41v.54h-.78z" fill="#007ac1"/><path d="M16.4 18.18c0-.22.17-.41.38-.41.22 0 .39.19.39.41v.54h-.78z" fill="none" stroke="#231f20" stroke-width=".01"/><path d="M16.78 18.24c.04 0 .07.03.07.07 0 .04-.03.08-.07.08a.07.07 0 010-.15M16.6 18.48c.04 0 .07.03.07.07 0 .04-.03.08-.07.08a.07.07 0 01-.08-.08c0-.04.04-.07.08-.07M16.97 18.48a.07.07 0 000 .14.07.07 0 000-.14M16.6 18.14c.04 0 .07-.03.07-.07a.07.07 0 00-.07-.07.07.07 0 00-.08.07c0 .04.04.07.08.07M16.97 18.14a.07.07 0 010-.14.07.07 0 010 .14" fill="#fff"/><path d="M19.18 18.18c0-.22-.18-.41-.4-.41-.2 0-.38.19-.38.41v.54h.78z" fill="#007ac1"/><path d="M19.18 18.18c0-.22-.18-.41-.4-.41-.2 0-.38.19-.38.41v.54h.78z" fill="none" stroke="#231f20" stroke-width=".01"/><path d="M18.79 18.24a.07.07 0 000 .14.07.07 0 000-.14M18.97 18.48a.07.07 0 000 .14.07.07 0 000-.14M18.6 18.48c.05 0 .08.03.08.07 0 .04-.03.08-.07.08a.07.07 0 010-.14M18.97 18.14a.07.07 0 010-.14.07.07 0 010 .14M18.6 18.14c.05 0 .08-.03.08-.07a.07.07 0 00-.07-.07.07.07 0 000 .14" fill="#fff"/></g><g clip-path="url(#c)" transform="matrix(1.33333 0 0 -1.33333 0 39.99)"><path d="M12.08 11.27a.6.6 0 01-.6.6H9.12a.6.6 0 01-.6-.6v-.2h3.57zM13.18 14.25H11.8l.7 1.66zm-4.38 0H7.41l.7 1.66zm4.48 1.98v.4h-2.42a.6.6 0 01-.36.35v.84h-.4v-.84a.6.6 0 01-.36-.36H7.32v-.4h.49l-.9-2.17a1 1 0 011-1h.4a1 1 0 01.99 1l-.9 2.18h1.34a.6.6 0 01.36-.36v-2.83a1 1 0 01-.77-.78h1.94a1 1 0 01-.77.78v2.83c.17.06.3.19.36.36h1.33l-.89-2.18c0-.55.45-1 1-1h.39c.55 0 .99.45.99 1l-.9 2.18z" fill="#0098da"/></g></svg>