<svg xmlns="http://www.w3.org/2000/svg" xml:space="preserve" width="40" height="40"><defs><clipPath clipPathUnits="userSpaceOnUse" id="a"><path d="M0 30h30V0H0Z"/></clipPath><clipPath clipPathUnits="userSpaceOnUse" id="b"><path d="M12.49 19h.02a6.2 6.2 0 0 0 2.62-1.27 5.73 5.73 0 0 0 1.2-1.28c.37-.52.66-1.1.85-1.7a6.35 6.35 0 0 0-.15-4.33l-.02-.06a6.41 6.41 0 0 1 7.84 6.24A6.42 6.42 0 0 1 12.49 19"/></clipPath><clipPath clipPathUnits="userSpaceOnUse" id="c"><path d="M0 30h30V0H0Z"/></clipPath></defs><g clip-path="url(#a)" transform="matrix(1.33333 0 0 -1.33333 0 40)"><path d="M10.13 4.77c-.87 0-1.64.52-1.97 1.32l.58.63c.12-.01.19-.03.25-.05l.13-.03c.17-.48.56-.77 1-.77h16.65c.57 0 1.03.46 1.03 1.03v1.08l-12.54-.06.05.16.14.12c.22.23.44.5.66.8l10.95.04L27 23.1c0 .56-.46 1.03-1.03 1.03H10.93c-.58 0-1.04-.47-1.04-1.03l-.04-4.19-.24-.04a6.39 6.39 0 0 1-.8-.23l-.02 4.46c0 1.18.96 2.14 2.14 2.14h15.05c1.17 0 2.13-.96 2.13-2.14V8.99h.09a.7.7 0 0 0 .7-.71V6.9c0-1.18-.95-2.13-2.13-2.13Z" fill="#0098da"/><path d="M10.95 17.28a4.74 4.74 0 0 1-3.23-1.34 4.58 4.58 0 0 1-.51-5.8c0-.01.76-.94 1.36-1.3a4.72 4.72 0 0 1 3.7-.47l.85.36a4.53 4.53 0 0 1 1.85 6.16s-.25.5-.8 1.06c-.86.86-2 1.33-3.22 1.33M5.9 8.78l1.16-1.1.55.63c-.2.09-.41.27-.61.46s-.36.38-.52.59zM1.87 4.75l1.16-1.1 3.3 3.37-1.12 1.06zM3 2.45c-.15 0-.3.07-.4.17L.85 4.4a.56.56 0 0 0 0 .79l5.1 5.1a5.5 5.5 0 0 0 3.82 7.91 5.54 5.54 0 0 0 6.62-4.16 5.55 5.55 0 0 0-5.44-6.9c-.22 0-.44.02-.67.05l-.51.09c-.47.1-.9.25-1.3.45L3.4 2.62a.55.55 0 0 0-.4-.16" fill="#0098da"/></g><g clip-path="url(#b)" transform="matrix(1.33333 0 0 -1.33333 0 40)"><path d="M9.06 26.53h28.82V7.32H9.06Z" fill="#c60b1e"/><path d="M9.06 21.73h28.82v-9.6H9.06Z" fill="#ffc400"/><path d="M15.52 18h-.04l-.04.03-.02.02-.03.03s-.03.05-.01.09a.1.1 0 0 0 .05.05l.06.03a.38.38 0 0 0 .1.02l.02.01.03.01.04.01h.26l.05-.02.09-.03.08-.02a.13.13 0 0 0 .05-.04l.02-.04v-.05a.23.23 0 0 0-.02-.03l-.03-.04-.03-.02-.04-.02c-.01 0-.19.03-.3.03-.11 0-.3-.03-.3-.03Z" fill="#ad1519"/><path d="M15.52 18h-.04l-.04.03-.02.02-.03.03s-.03.05-.01.09a.1.1 0 0 0 .05.05l.06.03a.38.38 0 0 0 .1.02l.02.01.03.01.04.01h.26l.05-.02.09-.03.08-.02a.13.13 0 0 0 .05-.04l.02-.04v-.05a.23.23 0 0 0-.02-.03l-.03-.04-.03-.02-.04-.02c-.01 0-.19.03-.3.03-.11 0-.3-.03-.3-.03Z" fill="none" stroke="#000" stroke-width=".01" stroke-linejoin="round"/><path d="M15.81 18.34c.03 0 .05-.04.05-.1 0-.05-.02-.1-.05-.1-.03 0-.05.05-.05.1 0 .06.02.1.05.1" fill="#c8b100"/><path d="M15.81 18.34c.03 0 .05-.04.05-.1 0-.05-.02-.1-.05-.1-.03 0-.05.05-.05.1 0 .06.02.1.05.1Z" fill="none" stroke="#000" stroke-width=".01"/><path d="M15.81 18.33c.01 0 .02-.04.02-.09 0-.05 0-.09-.02-.09-.01 0-.02.04-.02.1 0 .04 0 .08.02.08" fill="#c8b100"/><path d="M15.81 18.33c.01 0 .02-.04.02-.09 0-.05 0-.09-.02-.09-.01 0-.02.04-.02.1 0 .04 0 .08.02.08Z" fill="none" stroke="#000" stroke-width=".01"/><path d="M15.81 18.38c.02 0 .04-.02.04-.04 0-.01-.02-.03-.04-.03s-.04.02-.04.03c0 .02.02.04.04.04" fill="#c8b100"/><path d="M15.86 18.36v-.03h-.1v.03h.04v.05h-.03v.02h.03v.02h.02v-.02h.03v-.02h-.03v-.05z" fill="#c8b100"/><path d="M15.86 18.36v-.03h-.1v.03h.04v.05h-.03v.02h.03v.02h.02v-.02h.03v-.02h-.03v-.05h.04" fill="none" stroke="#000" stroke-width=".01"/><path d="M15.82 18.38c.02 0 .03-.03.03-.05l-.05-.02a.03.03 0 0 0-.02.04c0 .01 0 .02.02.03" fill="none" stroke="#000" stroke-width=".01"/><path d="M15.81 18h-.18v.04l-.02.05v.06c-.06.07-.1.11-.12.1 0 .01 0 .02.02.03.04.02.14-.04.2-.15l.02-.03h.16l.01.03c.07.11.17.17.21.15l.02-.03c-.01.01-.06-.03-.11-.1l-.01-.06-.01-.05V18Z" fill="#c8b100"/><path d="M15.81 18h-.18v.04l-.02.05v.06c-.06.07-.1.11-.12.1 0 .01 0 .02.02.03.04.02.14-.04.2-.15l.02-.03h.16l.01.03c.07.11.17.17.21.15l.02-.03c-.01.01-.06-.03-.11-.1l-.01-.06-.01-.05V18Z" fill="none" stroke="#000" stroke-width=".01"/><path d="M16.12 18.25c-.03.02-.11-.04-.18-.14m-.44.14c.03.02.11-.04.18-.14" fill="none" stroke="#000" stroke-width=".01"/><path d="m15.54 17.91-.02.05a1.18 1.18 0 0 0 .59 0l-.02-.04a.2.2 0 0 1-.02-.03.94.94 0 0 1-.26.03.95.95 0 0 1-.26-.03l-.01.02" fill="#c8b100" stroke="#000" stroke-width=".01"/><path d="m15.81 17.82.23.02c.03.01.05.02.04.03l-.01.02a.94.94 0 0 1-.26.03c-.1 0-.2-.01-.26-.03l-.01-.02.04-.03.23-.02" fill="#c8b100"/><path d="m15.81 17.82.23.02c.03.01.05.02.04.03l-.01.02a.94.94 0 0 1-.26.03c-.1 0-.2-.01-.26-.03l-.01-.02.04-.03.23-.02Z" fill="none" stroke="#000" stroke-width=".01"/><path d="m16.11 18-.02.02s-.02-.02-.05-.01c-.03 0-.04.03-.04.03l-.05-.02c-.03 0-.04.02-.04.02l-.05-.01c-.03 0-.05.03-.05.03s-.03-.03-.05-.03l-.04.02s-.01-.03-.04-.03l-.06.02-.04-.03h-.05l-.02-.02.01-.01c.08.02.18.03.29.03.11 0 .22-.01.3-.03z" fill="#c8b100"/><path d="m16.11 18-.02.02s-.02-.02-.05-.01c-.03 0-.04.03-.04.03l-.05-.02c-.03 0-.04.02-.04.02l-.05-.01c-.03 0-.05.03-.05.03s-.03-.03-.05-.03l-.04.02s-.01-.03-.04-.03l-.06.02-.04-.03h-.05l-.02-.02.01-.01c.08.02.18.03.29.03.11 0 .22-.01.3-.03z" fill="none" stroke="#000" stroke-width=".01"/><path d="M15.81 18.1h.01v-.02c0-.02.02-.04.04-.04s.04.01.04.03v.01l.01-.01c0-.02.02-.04.04-.04.03 0 .05.02.05.04v.02l.02-.02v-.01c0-.03.01-.04.03-.04l.04.01v.02-.02l.02-.02h.04l.03.04v-.02l-.04-.04-.03-.01a.03.03 0 0 0-.03.02h-.03a.06.06 0 0 0-.05.03.06.06 0 0 0-.05-.02c-.02 0-.04 0-.05.02a.06.06 0 0 0-.04-.02.06.06 0 0 0-.05.03.06.06 0 0 0-.05-.03l-.04.02a.06.06 0 0 0-.05-.02c-.02 0-.03 0-.05.02a.06.06 0 0 0-.05-.03h-.03s-.01-.02-.03-.02l-.03.01-.04.04v.02l.03-.03c.02-.02.04-.01.04-.01.01 0 .02 0 .02.02v.02-.02l.04-.01c.02 0 .04.01.04.04v.03l.01-.01c0-.03.02-.05.05-.05.02 0 .04.02.04.04v.01-.01c.01-.02.03-.03.05-.03.02 0 .04.02.04.04v.01z" fill="#c8b100"/><path d="M15.81 18.1h.01v-.02c0-.02.02-.04.04-.04s.04.01.04.03v.01l.01-.01c0-.02.02-.04.04-.04.03 0 .05.02.05.04v.02l.02-.02v-.01c0-.03.01-.04.03-.04l.04.01v.02-.02l.02-.02h.04l.03.04v-.02l-.04-.04-.03-.01a.03.03 0 0 0-.03.02h-.03a.06.06 0 0 0-.05.03.06.06 0 0 0-.05-.02c-.02 0-.04 0-.05.02a.06.06 0 0 0-.04-.02.06.06 0 0 0-.05.03.06.06 0 0 0-.05-.03l-.04.02a.06.06 0 0 0-.05-.02c-.02 0-.03 0-.05.02a.06.06 0 0 0-.05-.03h-.03s-.01-.02-.03-.02l-.03.01-.04.04v.02l.03-.03c.02-.02.04-.01.04-.01.01 0 .02 0 .02.02v.02-.02l.04-.01c.02 0 .04.01.04.04v.03l.01-.01c0-.03.02-.05.05-.05.02 0 .04.02.04.04v.01-.01c.01-.02.03-.03.05-.03.02 0 .04.02.04.04v.01z" fill="none" stroke="#000" stroke-width=".01"/><path d="M15.81 18c-.12 0-.22-.02-.3-.04v.01c.07.03.18.04.3.04s.23-.01.3-.04v-.01c-.08.02-.18.03-.3.03" fill="#c8b100"/><path d="M15.81 18c-.12 0-.22-.02-.3-.04v.01c.07.03.18.04.3.04s.23-.01.3-.04v-.01c-.08.02-.18.03-.3.03Z" fill="none" stroke="#000" stroke-width=".01" stroke-linejoin="round"/><path d="m15.42 18.04-.03.03h-.02c0 .01 0 .02.02.02h.02v-.01l.01-.03v-.01" fill="#c8b100"/><path d="m15.42 18.04-.03.03h-.02c0 .01 0 .02.02.02h.02v-.01l.01-.03v-.01Z" fill="none" stroke="#000" stroke-width=".01"/><path d="M15.49 18.07v-.03h-.06v.01l.04.03z" fill="#c8b100"/><path d="M15.49 18.07v-.03h-.06v.01l.04.03.02-.01" fill="none" stroke="#000" stroke-width=".01"/><path d="M15.42 18.05h.02v-.02h-.02v.02" fill="#c8b100"/><path d="M15.42 18.05h.02v-.02h-.02v.02Z" fill="none" stroke="#000" stroke-width=".01"/><path d="M15.52 18.04v.02l.02-.01-.01-.02-.01.01" fill="#c8b100"/><path d="M15.52 18.04v.02l.02-.01-.01-.02-.01.01Z" fill="none" stroke="#000" stroke-width=".01"/><path d="m15.54 18.08.02-.02.05.02v.01l-.06.01Z" fill="#c8b100"/><path d="m15.54 18.08.02-.02.05.02v.01l-.06.01v-.02" fill="none" stroke="#000" stroke-width=".01"/><path d="m15.6 18.16-.03-.02.03-.05h.01l.02.06z" fill="#c8b100"/><path d="m15.6 18.16-.03-.02.03-.05h.01l.02.06-.03.01" fill="none" stroke="#000" stroke-width=".01"/><path d="M15.68 18.1v-.02h-.06v.01l.04.03z" fill="#c8b100"/><path d="M15.68 18.1v-.02h-.06v.01l.04.03.02-.02" fill="none" stroke="#000" stroke-width=".01"/><path d="m15.61 18.1.02-.01c0-.01 0-.02-.02-.02l-.02.02.02.02" fill="#c8b100"/><path d="m15.61 18.1.02-.01c0-.01 0-.02-.02-.02l-.02.02.02.02Z" fill="none" stroke="#000" stroke-width=".01"/><path d="m15.7 18.08.01.01h.01v-.02h-.02" fill="#c8b100"/><path d="m15.7 18.08.01.01h.01v-.02h-.02Z" fill="none" stroke="#000" stroke-width=".01"/><path d="m15.74 18.1.01-.02.05.02v.02l-.05.01Z" fill="#c8b100"/><path d="m15.74 18.1.01-.02.05.02v.02l-.05.01-.01-.02" fill="none" stroke="#000" stroke-width=".01"/><path d="m15.81 18.19-.03-.02.02-.06h.01l.03.06Z" fill="#c8b100"/><path d="m15.81 18.19-.03-.02.02-.06h.01l.03.06-.03.02" fill="none" stroke="#000" stroke-width=".01"/><path d="m15.88 18.1-.01-.02-.05.02h-.01v.02l.06.01z" fill="#c8b100"/><path d="m15.88 18.1-.01-.02-.05.02h-.01v.02l.06.01.01-.02" fill="none" stroke="#000" stroke-width=".01"/><path d="m15.81 18.13.02-.02-.02-.02c-.01 0-.02 0-.02.02l.02.02" fill="#c8b100"/><path d="m15.81 18.13.02-.02-.02-.02c-.01 0-.02 0-.02.02l.02.02Z" fill="none" stroke="#000" stroke-width=".01"/><path d="m15.92 18.08-.01.01h-.01v-.02h.02" fill="#c8b100"/><path d="m15.92 18.08-.01.01h-.01v-.02h.02Z" fill="none" stroke="#000" stroke-width=".01"/><path d="M15.94 18.1v-.02H16v.01l-.04.03Z" fill="#c8b100"/><path d="M15.94 18.1v-.02H16v.01l-.04.03-.02-.02" fill="none" stroke="#000" stroke-width=".01"/><path d="m16.03 18.16.02-.02-.03-.05H16l-.02.06z" fill="#c8b100"/><path d="m16.03 18.16.02-.02-.03-.05H16l-.02.06.04.01" fill="none" stroke="#000" stroke-width=".01"/><path d="m16.08 18.08-.02-.02-.05.02v.01l.06.01z" fill="#c8b100"/><path d="m16.08 18.08-.02-.02-.05.02v.01l.06.01v-.02" fill="none" stroke="#000" stroke-width=".01"/><path d="m16 18.1.03-.01-.02-.02-.02.02c0 .01 0 .02.02.02" fill="#c8b100"/><path d="m16 18.1.03-.01-.02-.02-.02.02c0 .01 0 .02.02.02Z" fill="none" stroke="#000" stroke-width=".01"/><path d="M16.1 18.04v.02l-.01-.01v-.02l.01.01" fill="#c8b100"/><path d="M16.1 18.04v.02l-.01-.01v-.02l.01.01Z" fill="none" stroke="#000" stroke-width=".01"/><path d="m16.2 18.04.02.03h.03l-.02.02h-.02l-.02-.01v-.04" fill="#c8b100"/><path d="m16.2 18.04.02.03h.03l-.02.02h-.02l-.02-.01v-.04Z" fill="none" stroke="#000" stroke-width=".01"/><path d="M16.12 18.07v-.03H16.2v.01l-.04.03Z" fill="#c8b100"/><path d="M16.12 18.07v-.03H16.2v.01l-.04.03-.03-.01" fill="none" stroke="#000" stroke-width=".01"/><path d="M16.2 18.05h-.02v-.02h.01v.02" fill="#c8b100"/><path d="M16.2 18.05h-.02v-.02h.01v.02Z" fill="none" stroke="#000" stroke-width=".01"/><path d="M15.52 17.91v.02h.03l-.01-.03Z" fill="#ad1519"/><path d="M15.52 17.91v.02h.03l-.01-.03-.02.01" fill="none" stroke="#000" stroke-width=".01"/><path d="M15.63 17.93h-.05l.01.02H15.66v-.02h-.04" fill="#058e6e" stroke="#000" stroke-width=".01"/><path d="m15.71 17.97.02-.02s0-.02-.02-.02l-.01.02.01.02" fill="#fff"/><path d="m15.71 17.97.02-.02s0-.02-.02-.02l-.01.02.01.02Z" fill="none" stroke="#000" stroke-width=".01"/><path d="M15.81 17.94h-.04v.03h.08l.01-.02h-.05" fill="#ad1519" stroke="#000" stroke-width=".01"/><path d="m15.9 17.97.02-.02-.01-.02-.02.02s0 .02.02.02" fill="#fff"/><path d="m15.9 17.97.02-.02-.01-.02-.02.02s0 .02.02.02Z" fill="none" stroke="#000" stroke-width=".01"/><path d="M16 17.93h.04l-.01.02H15.96v-.02H16" fill="#058e6e" stroke="#000" stroke-width=".01"/><path d="M16.1 17.91v.02h-.03v-.02Z" fill="#ad1519"/><path d="M16.1 17.91v.02h-.03v-.02h.03" fill="none" stroke="#000" stroke-width=".01"/><path d="M15.81 17.84c-.1 0-.18 0-.24.02a.98.98 0 0 0 .48 0 1.04 1.04 0 0 0-.24-.02" fill="#ad1519"/><path d="M15.81 17.84c-.1 0-.18 0-.24.02a.98.98 0 0 0 .48 0 1.04 1.04 0 0 0-.24-.02Z" fill="none" stroke="#000" stroke-width=".01" stroke-linejoin="round"/><path d="M15.81 17.84v.05m.02-.05v.05m.02-.05v.05" fill="none" stroke="#000" stroke-width=".75"/><path d="M15.8 17.84v.05M15.79 17.84v.05M15.78 17.84v.05M15.76 17.84v.05M15.75 17.84v.05M15.74 17.84v.05m0-.05v.05M15.72 17.84v.05m0-.05v.05M15.7 17.85v.04m0-.04v.04m-.02-.04v.03M15.68 17.85v.03M15.67 17.85v.03M15.66 17.85v.03" fill="none"/><path d="M15.65 17.85v.03m-.01-.03v.03M15.63 17.86v.02M15.62 17.86v.01M15.61 17.86v.01M15.6 17.86v.01M15.6 17.86" fill="none" stroke="#000" stroke-width=".01"/><path d="M16.41 13.82a.33.33 0 0 0-.15.04.33.33 0 0 1-.15.03.34.34 0 0 1-.15-.03.34.34 0 0 0-.15-.04.33.33 0 0 0-.15.04.32.32 0 0 1-.15.03.32.32 0 0 1-.14-.03.33.33 0 0 0-.16-.04v-.09c.06 0 .12.02.16.04.03.02.08.03.14.03.06 0 .11-.01.15-.03.04-.02.09-.04.15-.04s.11.01.15.03a.33.33 0 0 0 .3 0 .33.33 0 0 1 .15-.03z" fill="#005bbf"/><path d="M16.41 13.82a.33.33 0 0 0-.15.04.33.33 0 0 1-.15.03.34.34 0 0 1-.15-.03.34.34 0 0 0-.15-.04.33.33 0 0 0-.15.04.32.32 0 0 1-.15.03.32.32 0 0 1-.14-.03.33.33 0 0 0-.16-.04v-.09c.06 0 .12.02.16.04.03.02.08.03.14.03.06 0 .11-.01.15-.03.04-.02.09-.04.15-.04s.11.01.15.03a.33.33 0 0 0 .3 0 .33.33 0 0 1 .15-.03z" fill="none" stroke="#000" stroke-width=".01"/><path d="M16.41 13.73a.33.33 0 0 0-.15.03.33.33 0 0 1-.15.04.34.34 0 0 1-.15-.04.34.34 0 0 0-.15-.03.33.33 0 0 0-.15.04.34.34 0 0 1-.15.03.32.32 0 0 1-.14-.03.34.34 0 0 0-.16-.04v-.1c.06 0 .12.02.16.04.03.02.08.03.14.03.06 0 .11 0 .15-.03.04-.02.09-.03.15-.03s.11.01.15.03c.04.02.1.03.15.03.06 0 .11 0 .15-.03a.33.33 0 0 1 .15-.03v.1" fill="#ccc" stroke="#000" stroke-width=".01"/><path d="M16.41 13.64a.33.33 0 0 0-.15.03.32.32 0 0 1-.15.03.33.33 0 0 1-.15-.03.35.35 0 0 0-.3 0 .34.34 0 0 1-.15.03.32.32 0 0 1-.14-.03.34.34 0 0 0-.16-.03v-.1c.06 0 .12.02.16.04.03.02.08.03.14.03.06 0 .11-.01.15-.03.04-.02.09-.03.15-.03s.11.01.15.03c.04.02.1.03.15.03.06 0 .11-.01.15-.03a.32.32 0 0 1 .15-.03v.09" fill="#005bbf" stroke="#000" stroke-width=".01"/><path d="M16.4 13.45a.33.33 0 0 0-.14.04.33.33 0 0 1-.15.03.34.34 0 0 1-.15-.03.34.34 0 0 0-.15-.04.33.33 0 0 0-.15.04.32.32 0 0 1-.15.03.3.3 0 0 1-.14-.03.36.36 0 0 0-.16-.04v.1c.06 0 .12 0 .16.03.03.02.08.03.14.03.06 0 .11-.01.15-.03.04-.02.09-.03.15-.03s.11 0 .15.03c.04.02.1.03.15.03.06 0 .11-.01.15-.03.04-.02.09-.03.15-.03v-.1" fill="#ccc" stroke="#000" stroke-width=".01"/><path d="M16.4 13.36a.33.33 0 0 0-.14.03.33.33 0 0 1-.15.04.34.34 0 0 1-.15-.04.34.34 0 0 0-.15-.03.33.33 0 0 0-.15.04.32.32 0 0 1-.15.03.32.32 0 0 1-.14-.03.34.34 0 0 0-.16-.04v.1c.06 0 .12 0 .16.03.03.02.08.03.14.03.06 0 .11-.01.15-.03a.32.32 0 0 1 .3 0c.04.02.1.03.15.03.06 0 .11-.01.15-.03.04-.02.09-.04.15-.04z" fill="#005bbf"/><path d="M16.4 13.36a.33.33 0 0 0-.14.03.33.33 0 0 1-.15.04.34.34 0 0 1-.15-.04.34.34 0 0 0-.15-.03.33.33 0 0 0-.15.04.32.32 0 0 1-.15.03.32.32 0 0 1-.14-.03.34.34 0 0 0-.16-.04v.1c.06 0 .12 0 .16.03.03.02.08.03.14.03.06 0 .11-.01.15-.03a.32.32 0 0 1 .3 0c.04.02.1.03.15.03.06 0 .11-.01.15-.03.04-.02.09-.04.15-.04z" fill="none" stroke="#000" stroke-width=".01"/><path d="M15.47 14.2v-.02c0-.06-.04-.1-.1-.1h.88c-.06 0-.1.04-.1.1v.02h-.68" fill="#c8b100"/><path d="M15.47 14.2v-.02c0-.06-.04-.1-.1-.1h.88c-.06 0-.1.04-.1.1v.02h-.68Z" fill="none" stroke="#000" stroke-width=".01" stroke-linejoin="round"/><path d="M15.49 14.26h.64c.02 0 .04-.01.04-.03 0-.01-.02-.03-.04-.03h-.64c-.02 0-.04.02-.04.03 0 .02.02.03.04.03" fill="#c8b100"/><path d="M15.49 14.26h.64c.02 0 .04-.01.04-.03 0-.01-.02-.03-.04-.03h-.64c-.02 0-.04.02-.04.03 0 .02.02.03.04.03Z" fill="none" stroke="#000" stroke-width=".01"/><path d="M15.37 13.86h.88v.22h-.88z" fill="#c8b100" stroke="#000" stroke-width=".01"/><path d="M15.5 14.3h.62v3.06h-.62z" fill="#ccc" stroke="#000" stroke-width=".01"/><path d="M16.01 17.35V14.3m-.07 3.05V14.3" fill="none" stroke="#000" stroke-width=".01"/><path d="M15.38 17.6h.86v.23h-.86z" fill="#c8b100" stroke="#000" stroke-width=".01"/><path d="M15.47 17.45h.68a.05.05 0 0 0-.04.05c0 .03.02.05.04.05h-.68c.03 0 .04-.03.04-.05a.05.05 0 0 0-.04-.05" fill="#c8b100"/><path d="M15.47 17.45h.68a.05.05 0 0 0-.04.05c0 .03.02.05.04.05h-.68c.03 0 .04-.03.04-.05a.05.05 0 0 0-.04-.05Z" fill="none" stroke="#000" stroke-width=".01" stroke-linejoin="round"/><path d="M15.49 17.45h.64c.02 0 .04 0 .04-.03 0-.01-.02-.03-.04-.03h-.64c-.02 0-.04.02-.04.03 0 .02.02.03.04.03" fill="#c8b100"/><path d="M15.49 17.45h.64c.02 0 .04 0 .04-.03 0-.01-.02-.03-.04-.03h-.64c-.02 0-.04.02-.04.03 0 .02.02.03.04.03Z" fill="none" stroke="#000" stroke-width=".01"/><path d="M15.49 17.6h.64l.04-.02c0-.02-.02-.03-.04-.03h-.64c-.02 0-.04.01-.04.03l.04.02" fill="#c8b100"/><path d="M15.49 17.6h.64l.04-.02c0-.02-.02-.03-.04-.03h-.64c-.02 0-.04.01-.04.03l.04.02Z" fill="none" stroke="#000" stroke-width=".01"/><path d="M15.3 15.06c-.08-.05-.14-.1-.13-.13 0-.02.03-.04.07-.07.06-.04.1-.12.07-.15a.22.22 0 0 1 0 .35" fill="#ad1519"/><path d="M15.3 15.06c-.08-.05-.14-.1-.13-.13 0-.02.03-.04.07-.07.06-.04.1-.12.07-.15a.22.22 0 0 1 0 .35Z" fill="none" stroke="#000" stroke-width=".01"/><path d="M16.76 16.21a2 2 0 0 1-.93.08c-.38-.06-.66-.2-.64-.33l-.14.32c-.02.13.3.3.7.37l.37.03c.27 0 .5-.04.64-.09v-.38" fill="#ad1519" stroke="#000" stroke-width=".01" stroke-linejoin="round"/><path d="M15.5 15.83c-.18.01-.3.06-.3.13-.02.06.04.12.14.18l.16-.01v-.3M16.12 16.06c.11-.01.2-.04.23-.07.03-.05-.07-.13-.23-.23v.3" fill="#ad1519" stroke="#000" stroke-width=".01"/><path d="M15.1 15.24c0 .05.16.15.4.24l.31.12c.33.15.58.32.55.38l.04-.3c.03-.06-.2-.23-.5-.38l-.4-.15c-.18-.06-.35-.18-.33-.22Z" fill="#ad1519"/><path d="M15.1 15.24c0 .05.16.15.4.24l.31.12c.33.15.58.32.55.38l.04-.3c.03-.06-.2-.23-.5-.38l-.4-.15c-.18-.06-.35-.18-.33-.22l-.06.31Z" fill="none" stroke="#000" stroke-width=".01" stroke-linejoin="round"/><path d="M21.54 18.06s-.03-.03-.05-.03l-.04.01-.05-.02c-.02 0-.05.03-.05.03l-.04-.04h-.04l-.03-.02h-.02l-.02.02-.03.03h-.02l-.01.05v.02c-.01.03.03.05.08.07h.08c.02.02.07.03.12.03.05 0 .1-.01.12-.03a.2.2 0 0 0 .12.03c.05 0 .1-.01.12-.03h.08c.06-.02.1-.04.09-.07v-.02l-.02-.04-.02-.01-.03-.03-.02-.01h-.02l-.02.02s-.03-.02-.05-.01c-.02 0-.04.04-.04.04s-.03-.03-.05-.03l-.04.02s-.03-.02-.05-.01c-.02 0-.05.03-.05.03" fill="#ad1519"/><path d="M21.54 18.06s-.03-.03-.05-.03l-.04.01-.05-.02c-.02 0-.05.03-.05.03l-.04-.04h-.04l-.03-.02h-.02l-.02.02-.03.03h-.02l-.01.05v.02c-.01.03.03.05.08.07h.08c.02.02.07.03.12.03.05 0 .1-.01.12-.03a.2.2 0 0 0 .12.03c.05 0 .1-.01.12-.03h.08c.06-.02.1-.04.09-.07v-.02l-.02-.04-.02-.01-.03-.03-.02-.01h-.02l-.02.02s-.03-.02-.05-.01c-.02 0-.04.04-.04.04s-.03-.03-.05-.03l-.04.02s-.03-.02-.05-.01c-.02 0-.05.03-.05.03Z" fill="none" stroke="#000" stroke-width=".01"/><path d="M21.54 18.3c.03 0 .05-.04.05-.08s-.02-.07-.05-.07c-.03 0-.05.03-.05.07 0 .04.02.08.05.08" fill="#c8b100"/><path d="M21.54 18.3c.03 0 .05-.04.05-.08s-.02-.07-.05-.07c-.03 0-.05.03-.05.07 0 .04.02.08.05.08Z" fill="none" stroke="#000" stroke-width=".01"/><path d="M21.54 18.3c.02 0 .03-.04.03-.08s-.01-.07-.03-.07c-.01 0-.02.03-.02.07 0 .04 0 .07.02.07" fill="#c8b100"/><path d="M21.54 18.3c.02 0 .03-.04.03-.08s-.01-.07-.03-.07c-.01 0-.02.03-.02.07 0 .04 0 .07.02.07Z" fill="none" stroke="#000" stroke-width=".01"/><path d="M21.54 18.34c.02 0 .04-.01.04-.03 0-.02-.02-.03-.04-.03s-.03.01-.03.03c0 .02.01.03.03.03" fill="#c8b100"/><path d="M21.6 18.32v-.02h-.1v.02h.03v.05h-.02v.02h.02v.03h.02v-.03h.03v-.02h-.03v-.05Z" fill="#c8b100"/><path d="M21.6 18.32v-.02h-.1v.02h.03v.05h-.02v.02h.02v.03h.02v-.03h.03v-.02h-.03v-.05h.04" fill="none" stroke="#000" stroke-width=".01"/><path d="M21.55 18.34c.02 0 .03-.02.02-.04 0-.02-.02-.03-.04-.02a.03.03 0 0 0-.02.04l.02.02" fill="none" stroke="#000" stroke-width=".01"/><path d="M21.14 18.08v.04c0 .06.04.1.1.1a.1.1 0 0 0 .05 0" fill="none" stroke="#000" stroke-width=".01" stroke-linecap="round"/><path d="m21.34 18.16-.02.03c0 .04.05.08.1.08.03 0 .05 0 .07-.02M21.75 18.16v.03c0 .04-.04.08-.1.08-.02 0-.04 0-.06-.02" fill="none" stroke="#000" stroke-width=".01"/><path d="M21.94 18.08v.04a.1.1 0 0 1-.15.1" fill="none" stroke="#000" stroke-width=".01" stroke-linecap="round"/><path d="m21.1 18.14.03-.01-.02-.02c-.01 0-.02 0-.02.02l.02.01ZM21.12 18.2l.01-.01-.01-.02-.02.02.02.01ZM21.15 18.25c.01 0 .02 0 .02-.02l-.02-.01-.01.01.01.02ZM21.2 18.28c.02 0 .02-.01.02-.02l-.01-.02-.02.02s0 .02.02.02ZM21.26 18.27l.02-.01c0-.01 0-.02-.02-.02 0 0-.02 0-.02.02l.02.01Z" fill="none" stroke="#000" stroke-width=".01"/><path d="m21.3 18.2.01-.01c0-.01 0-.02-.02-.02l-.01.02.01.02" fill="#fff"/><path d="m21.3 18.2.01-.01c0-.01 0-.02-.02-.02l-.01.02.01.02ZM21.3 18.26l.02-.01c0-.01 0-.02-.02-.02l-.01.02.01.01ZM21.35 18.3s.02 0 .02-.02l-.02-.01-.02.01c0 .01 0 .02.02.02ZM21.4 18.32l.02-.02c0-.01 0-.02-.02-.02l-.01.02.01.02ZM21.46 18.31l.02-.01-.02-.02c-.01 0-.02 0-.02.02l.02.01ZM21.62 18.31l.02-.01c0-.01 0-.02-.02-.02 0 0-.02 0-.02.02l.02.01ZM21.68 18.32l.02-.02-.02-.02-.02.02s0 .02.02.02ZM21.73 18.3c.01 0 .02 0 .02-.02l-.02-.01-.02.01.02.02ZM21.78 18.26l.01-.01-.01-.02c-.01 0-.02 0-.02.02l.02.01Z" fill="none" stroke="#000" stroke-width=".01"/><path d="m21.79 18.2.01-.01-.01-.02-.02.02s0 .02.02.02" fill="#fff"/><path d="m21.79 18.2.01-.01-.01-.02-.02.02s0 .02.02.02ZM21.82 18.27l.02-.01-.02-.02c-.01 0-.02 0-.02.02l.02.01ZM21.87 18.28l.02-.02c0-.01 0-.02-.02-.02l-.01.02.01.02ZM21.93 18.25l.01-.02-.01-.01-.02.01c0 .01 0 .02.02.02ZM21.97 18.2l.01-.01-.01-.02-.02.02.02.01ZM21.97 18.14l.02-.01c0-.01 0-.02-.02-.02 0 0-.02 0-.02.02l.02.01Z" fill="none" stroke="#000" stroke-width=".01"/><path d="m21.27 17.91-.02.05a1.18 1.18 0 0 0 .59 0l-.02-.04-.02-.03a.92.92 0 0 1-.26.03.94.94 0 0 1-.26-.03l-.01.02" fill="#c8b100" stroke="#000" stroke-width=".01"/><path d="m21.54 17.82.24.02c.02.01.04.02.03.03l-.01.02a.95.95 0 0 1-.26.03c-.1 0-.2-.01-.26-.03l-.01-.02.04-.03.23-.02" fill="#c8b100"/><path d="m21.54 17.82.24.02c.02.01.04.02.03.03l-.01.02a.95.95 0 0 1-.26.03c-.1 0-.2-.01-.26-.03l-.01-.02.04-.03.23-.02Z" fill="none" stroke="#000" stroke-width=".01"/><path d="m21.84 18-.02.02s-.02-.02-.05-.01c-.03 0-.04.03-.04.03l-.05-.02c-.03 0-.04.02-.04.02l-.05-.01c-.03 0-.05.03-.05.03s-.02-.03-.05-.03l-.04.02s-.01-.03-.04-.03l-.06.02-.04-.03h-.05l-.02-.02.01-.01c.08.02.18.03.3.03.1 0 .21-.01.28-.03z" fill="#c8b100"/><path d="m21.84 18-.02.02s-.02-.02-.05-.01c-.03 0-.04.03-.04.03l-.05-.02c-.03 0-.04.02-.04.02l-.05-.01c-.03 0-.05.03-.05.03s-.02-.03-.05-.03l-.04.02s-.01-.03-.04-.03l-.06.02-.04-.03h-.05l-.02-.02.01-.01c.08.02.18.03.3.03.1 0 .21-.01.28-.03z" fill="none" stroke="#000" stroke-width=".01"/><path d="M21.54 18.1h.01v-.02c0-.02.02-.04.04-.04s.04.01.04.03l.01.01v-.01c0-.02.02-.04.04-.04.03 0 .05.02.05.04l.01.02v-.03c0-.03.02-.04.04-.04l.04.01v.02-.02c0-.01.01-.02.03-.02h.03l.03.04v-.02l-.03-.04-.04-.01a.03.03 0 0 0-.03.02h-.03a.06.06 0 0 0-.05.03.06.06 0 0 0-.05-.02c-.02 0-.03 0-.04.02a.07.07 0 0 0-.05-.02.06.06 0 0 0-.05.03.06.06 0 0 0-.05-.03l-.04.02a.06.06 0 0 0-.05-.02c-.02 0-.03 0-.04.02a.06.06 0 0 0-.06-.03h-.03s-.01-.02-.03-.02l-.03.01-.04.04v.02l.03-.03c.02-.02.04-.01.04-.01.01 0 .02 0 .02.02v.02-.02l.04-.01c.02 0 .04.01.04.04v.03l.02-.01c0-.03.01-.05.04-.05.02 0 .04.02.04.04v.01-.01c.01-.02.03-.03.05-.03.02 0 .04.02.04.04v.01z" fill="#c8b100"/><path d="M21.54 18.1h.01v-.02c0-.02.02-.04.04-.04s.04.01.04.03l.01.01v-.01c0-.02.02-.04.04-.04.03 0 .05.02.05.04l.01.02v-.03c0-.03.02-.04.04-.04l.04.01v.02-.02c0-.01.01-.02.03-.02h.03l.03.04v-.02l-.03-.04-.04-.01a.03.03 0 0 0-.03.02h-.03a.06.06 0 0 0-.05.03.06.06 0 0 0-.05-.02c-.02 0-.03 0-.04.02a.07.07 0 0 0-.05-.02.06.06 0 0 0-.05.03.06.06 0 0 0-.05-.03l-.04.02a.06.06 0 0 0-.05-.02c-.02 0-.03 0-.04.02a.06.06 0 0 0-.06-.03h-.03s-.01-.02-.03-.02l-.03.01-.04.04v.02l.03-.03c.02-.02.04-.01.04-.01.01 0 .02 0 .02.02v.02-.02l.04-.01c.02 0 .04.01.04.04v.03l.02-.01c0-.03.01-.05.04-.05.02 0 .04.02.04.04v.01-.01c.01-.02.03-.03.05-.03.02 0 .04.02.04.04v.01z" fill="none" stroke="#000" stroke-width=".01"/><path d="M21.54 18c-.11 0-.22-.02-.3-.04v.01c.08.03.18.04.3.04s.23-.01.3-.04c0 0 .01 0 0 0v-.01c-.08.02-.18.03-.3.03" fill="#c8b100"/><path d="M21.54 18c-.11 0-.22-.02-.3-.04v.01c.08.03.18.04.3.04s.23-.01.3-.04c0 0 .01 0 0 0v-.01c-.08.02-.18.03-.3.03Z" fill="none" stroke="#000" stroke-width=".01" stroke-linejoin="round"/><path d="m21.15 18.04-.03.03h-.02c0 .01 0 .02.02.02h.02l.01-.01v-.04" fill="#c8b100"/><path d="m21.15 18.04-.03.03h-.02c0 .01 0 .02.02.02h.02l.01-.01v-.04Z" fill="none" stroke="#000" stroke-width=".01"/><path d="M21.22 18.07v-.03h-.06v.01l.04.03z" fill="#c8b100"/><path d="M21.22 18.07v-.03h-.06v.01l.04.03.02-.01" fill="none" stroke="#000" stroke-width=".01"/><path d="M21.15 18.05h.02v-.02h-.02v.02" fill="#c8b100"/><path d="M21.15 18.05h.02v-.02h-.02v.02Z" fill="none" stroke="#000" stroke-width=".01"/><path d="M21.25 18.04v.02l.02-.01v-.02l-.02.01" fill="#c8b100"/><path d="M21.25 18.04v.02l.02-.01v-.02l-.02.01Z" fill="none" stroke="#000" stroke-width=".01"/><path d="m21.27 18.08.02-.02.05.02v.01l-.06.01Z" fill="#c8b100"/><path d="m21.27 18.08.02-.02.05.02v.01l-.06.01v-.02" fill="none" stroke="#000" stroke-width=".01"/><path d="m21.33 18.16-.03-.02.03-.05h.01l.02.06z" fill="#c8b100"/><path d="m21.33 18.16-.03-.02.03-.05h.01l.02.06-.03.01" fill="none" stroke="#000" stroke-width=".01"/><path d="M21.41 18.1v-.02h-.06v.01l.04.03z" fill="#c8b100"/><path d="M21.41 18.1v-.02h-.06v.01l.04.03.02-.02" fill="none" stroke="#000" stroke-width=".01"/><path d="m21.34 18.1.02-.01c0-.01 0-.02-.02-.02l-.02.02.02.02" fill="#c8b100"/><path d="m21.34 18.1.02-.01c0-.01 0-.02-.02-.02l-.02.02.02.02Z" fill="none" stroke="#000" stroke-width=".01"/><path d="m21.43 18.08.01.01h.01v-.02h-.02" fill="#c8b100"/><path d="m21.43 18.08.01.01h.01v-.02h-.02Z" fill="none" stroke="#000" stroke-width=".01"/><path d="m21.47 18.1.01-.02.05.02h.01v.02l-.06.01z" fill="#c8b100"/><path d="m21.47 18.1.01-.02.05.02h.01v.02l-.06.01-.01-.02" fill="none" stroke="#000" stroke-width=".01"/><path d="m21.54 18.19-.03-.02.02-.06h.01l.03.06Z" fill="#c8b100"/><path d="m21.54 18.19-.03-.02.02-.06h.01l.03.06-.03.02" fill="none" stroke="#000" stroke-width=".01"/><path d="m21.61 18.1-.01-.02-.05.02v.02l.05.01z" fill="#c8b100"/><path d="m21.61 18.1-.01-.02-.05.02v.02l.05.01.01-.02" fill="none" stroke="#000" stroke-width=".01"/><path d="m21.54 18.13.02-.02c0-.01 0-.02-.02-.02 0 0-.02 0-.02.02l.02.02" fill="#c8b100"/><path d="m21.54 18.13.02-.02c0-.01 0-.02-.02-.02 0 0-.02 0-.02.02l.02.02Z" fill="none" stroke="#000" stroke-width=".01"/><path d="M21.65 18.08v.01h-.02v-.02h.02" fill="#c8b100"/><path d="M21.65 18.08v.01h-.02v-.02h.02Z" fill="none" stroke="#000" stroke-width=".01"/><path d="M21.67 18.1v-.02h.06v.01l-.04.03Z" fill="#c8b100"/><path d="M21.67 18.1v-.02h.06v.01l-.04.03-.02-.02" fill="none" stroke="#000" stroke-width=".01"/><path d="m21.76 18.16.02-.02-.03-.05h-.01l-.02.06z" fill="#c8b100"/><path d="m21.76 18.16.02-.02-.03-.05h-.01l-.02.06.04.01" fill="none" stroke="#000" stroke-width=".01"/><path d="m21.81 18.08-.02-.02-.05.02v.01l.06.01z" fill="#c8b100"/><path d="m21.81 18.08-.02-.02-.05.02v.01l.06.01.01-.02" fill="none" stroke="#000" stroke-width=".01"/><path d="m21.74 18.1.02-.01c0-.01 0-.02-.02-.02l-.02.02c0 .01 0 .02.02.02" fill="#c8b100"/><path d="m21.74 18.1.02-.01c0-.01 0-.02-.02-.02l-.02.02c0 .01 0 .02.02.02Z" fill="none" stroke="#000" stroke-width=".01"/><path d="M21.84 18.04v.02l-.02-.01v-.02l.02.01" fill="#c8b100"/><path d="M21.84 18.04v.02l-.02-.01v-.02l.02.01Z" fill="none" stroke="#000" stroke-width=".01"/><path d="m21.93 18.04.02.03h.03l-.02.02h-.02l-.02-.01v-.04" fill="#c8b100"/><path d="m21.93 18.04.02.03h.03l-.02.02h-.02l-.02-.01v-.04Z" fill="none" stroke="#000" stroke-width=".01"/><path d="M21.86 18.07v-.03H21.92v.01l-.04.03z" fill="#c8b100"/><path d="M21.86 18.07v-.03H21.92v.01l-.04.03-.02-.01" fill="none" stroke="#000" stroke-width=".01"/><path d="M21.93 18.05h-.02v-.02h.01v.02" fill="#c8b100"/><path d="M21.93 18.05h-.02v-.02h.01v.02Z" fill="none" stroke="#000" stroke-width=".01"/><path d="m21.25 17.91.01.02h.02l-.01-.03Z" fill="#ad1519"/><path d="m21.25 17.91.01.02h.02l-.01-.03-.02.01" fill="none" stroke="#000" stroke-width=".01"/><path d="M21.36 17.93h-.04v.02H21.4v-.02h-.03" fill="#058e6e" stroke="#000" stroke-width=".01"/><path d="m21.45 17.97.01-.02-.01-.02-.02.02s0 .02.02.02" fill="#fff"/><path d="m21.45 17.97.01-.02-.01-.02-.02.02s0 .02.02.02Z" fill="none" stroke="#000" stroke-width=".01"/><path d="M21.54 17.94h-.03l-.02.01c0 .01 0 .02.02.02h.07l.01-.02h-.05" fill="#ad1519" stroke="#000" stroke-width=".01"/><path d="m21.64 17.97.01-.02-.01-.02-.02.02s0 .02.02.02" fill="#fff"/><path d="m21.64 17.97.01-.02-.01-.02-.02.02s0 .02.02.02Z" fill="none" stroke="#000" stroke-width=".01"/><path d="M21.73 17.93h.04l-.01.02H21.69l.01-.02h.03" fill="#058e6e" stroke="#000" stroke-width=".01"/><path d="M21.83 17.91v.02h-.03v-.02Z" fill="#ad1519"/><path d="M21.83 17.91v.02h-.03v-.02h.03" fill="none" stroke="#000" stroke-width=".01"/><path d="M21.54 17.84c-.1 0-.18 0-.24.02a.98.98 0 0 0 .48 0 1.04 1.04 0 0 0-.24-.02" fill="#ad1519"/><path d="M21.54 17.84c-.1 0-.18 0-.24.02a.98.98 0 0 0 .48 0 1.04 1.04 0 0 0-.24-.02Z" fill="none" stroke="#000" stroke-width=".01" stroke-linejoin="round"/><path d="M21.55 17.84v.05m.01-.05v.05m.02-.05v.05" fill="none" stroke="#000" stroke-width=".75"/><path d="M21.53 17.84v.05M21.52 17.84v.05M21.5 17.84v.05M21.5 17.84v.05M21.48 17.84v.05M21.47 17.84v.05m0-.05v.05M21.45 17.84v.05m0-.05v.05M21.43 17.85v.04m0-.04v.04m-.01-.04v.03M21.4 17.85v.03M21.4 17.85v.03M21.39 17.85v.03" fill="none"/><path d="M21.38 17.85v.03m0-.03v.03M21.36 17.86v.02M21.35 17.86v.01M21.34 17.86v.01M21.33 17.86v.01M21.32 17.86" fill="none" stroke="#000" stroke-width=".01"/><path d="M22.14 13.82a.33.33 0 0 0-.15.04.33.33 0 0 1-.15.03.34.34 0 0 1-.15-.03.34.34 0 0 0-.15-.04.34.34 0 0 0-.15.04.32.32 0 0 1-.15.03.33.33 0 0 1-.14-.03.33.33 0 0 0-.16-.04v-.09c.06 0 .12.02.16.04.03.02.09.03.14.03.06 0 .11-.01.15-.03.04-.02.1-.04.15-.04.06 0 .11.01.15.03.04.02.1.04.15.04.06 0 .11-.02.15-.04a.33.33 0 0 1 .15-.03z" fill="#005bbf"/><path d="M22.14 13.82a.33.33 0 0 0-.15.04.33.33 0 0 1-.15.03.34.34 0 0 1-.15-.03.34.34 0 0 0-.15-.04.34.34 0 0 0-.15.04.32.32 0 0 1-.15.03.33.33 0 0 1-.14-.03.33.33 0 0 0-.16-.04v-.09c.06 0 .12.02.16.04.03.02.09.03.14.03.06 0 .11-.01.15-.03.04-.02.1-.04.15-.04.06 0 .11.01.15.03.04.02.1.04.15.04.06 0 .11-.02.15-.04a.33.33 0 0 1 .15-.03z" fill="none" stroke="#000" stroke-width=".01"/><path d="M22.14 13.73a.33.33 0 0 0-.15.03.33.33 0 0 1-.15.04.34.34 0 0 1-.15-.04.34.34 0 0 0-.15-.03.34.34 0 0 0-.15.04.33.33 0 0 1-.15.03.33.33 0 0 1-.14-.03.34.34 0 0 0-.16-.04v-.1c.06 0 .12.02.16.04.03.02.09.03.14.03.06 0 .11 0 .15-.03.04-.02.1-.03.15-.03.06 0 .11.01.15.03.04.02.1.03.15.03.06 0 .11 0 .15-.03a.33.33 0 0 1 .15-.03v.1" fill="#ccc" stroke="#000" stroke-width=".01"/><path d="M22.14 13.64a.33.33 0 0 0-.15.03.32.32 0 0 1-.15.03.32.32 0 0 1-.15-.03.35.35 0 0 0-.3 0 .33.33 0 0 1-.15.03.33.33 0 0 1-.14-.03.34.34 0 0 0-.16-.03v-.1c.06 0 .12.02.16.04.03.02.09.03.14.03.06 0 .11-.01.15-.03.04-.02.1-.03.15-.03.06 0 .11.01.15.03.04.02.1.03.15.03.06 0 .11-.01.15-.03a.32.32 0 0 1 .15-.03v.09" fill="#005bbf" stroke="#000" stroke-width=".01"/><path d="M22.14 13.45a.33.33 0 0 0-.15.04.33.33 0 0 1-.15.03.34.34 0 0 1-.15-.03.34.34 0 0 0-.15-.04.34.34 0 0 0-.15.04.32.32 0 0 1-.15.03.32.32 0 0 1-.14-.03.35.35 0 0 0-.16-.04v.1c.06 0 .12 0 .16.03.03.02.09.03.14.03.06 0 .11-.01.15-.03.04-.02.1-.03.15-.03.06 0 .11 0 .15.03.04.02.1.03.15.03.06 0 .11-.01.15-.03a.3.3 0 0 1 .15-.03v-.1" fill="#ccc" stroke="#000" stroke-width=".01"/><path d="M22.14 13.36a.33.33 0 0 0-.15.03.33.33 0 0 1-.15.04.34.34 0 0 1-.15-.04.34.34 0 0 0-.15-.03.34.34 0 0 0-.15.04.32.32 0 0 1-.15.03.33.33 0 0 1-.14-.03.34.34 0 0 0-.16-.04v.1c.06 0 .12 0 .16.03.03.02.09.03.14.03.06 0 .11-.01.15-.03a.32.32 0 0 1 .3 0c.04.02.1.03.15.03.06 0 .11-.01.15-.03a.32.32 0 0 1 .15-.04Z" fill="#005bbf"/><path d="M22.14 13.36a.33.33 0 0 0-.15.03.33.33 0 0 1-.15.04.34.34 0 0 1-.15-.04.34.34 0 0 0-.15-.03.34.34 0 0 0-.15.04.32.32 0 0 1-.15.03.33.33 0 0 1-.14-.03.34.34 0 0 0-.16-.04v.1c.06 0 .12 0 .16.03.03.02.09.03.14.03.06 0 .11-.01.15-.03a.32.32 0 0 1 .3 0c.04.02.1.03.15.03.06 0 .11-.01.15-.03a.32.32 0 0 1 .15-.04Z" fill="none" stroke="#000" stroke-width=".01"/><path d="m21.2 14.2.01-.02c0-.06-.05-.1-.1-.1h.87c-.06 0-.1.04-.1.1v.02h-.67" fill="#c8b100"/><path d="m21.2 14.2.01-.02c0-.06-.05-.1-.1-.1h.87c-.06 0-.1.04-.1.1v.02h-.67Z" fill="none" stroke="#000" stroke-width=".01" stroke-linejoin="round"/><path d="M21.22 14.26h.64c.02 0 .04-.01.04-.03 0-.01-.02-.03-.04-.03h-.64c-.02 0-.04.02-.04.03 0 .02.02.03.04.03" fill="#c8b100"/><path d="M21.22 14.26h.64c.02 0 .04-.01.04-.03 0-.01-.02-.03-.04-.03h-.64c-.02 0-.04.02-.04.03 0 .02.02.03.04.03Z" fill="none" stroke="#000" stroke-width=".01"/><path d="M21.1 13.86h.88v.22h-.88z" fill="#c8b100" stroke="#000" stroke-width=".01"/><path d="M21.23 14.3h.62v3.06h-.62z" fill="#ccc" stroke="#000" stroke-width=".01"/><path d="M21.74 17.35V14.3m-.07 3.05V14.3" fill="none" stroke="#000" stroke-width=".01"/><path d="M21.11 17.6h.86v.23h-.85z" fill="#c8b100" stroke="#000" stroke-width=".01"/><path d="M21.2 17.45h.68a.05.05 0 0 0-.04.05c0 .03.02.05.04.05h-.68c.03 0 .04-.03.04-.05a.05.05 0 0 0-.03-.05" fill="#c8b100"/><path d="M21.2 17.45h.68a.05.05 0 0 0-.04.05c0 .03.02.05.04.05h-.68c.03 0 .04-.03.04-.05a.05.05 0 0 0-.03-.05Z" fill="none" stroke="#000" stroke-width=".01" stroke-linejoin="round"/><path d="M21.22 17.45h.64c.02 0 .04 0 .04-.03 0-.01-.02-.03-.04-.03h-.64c-.02 0-.04.02-.04.03 0 .02.02.03.04.03" fill="#c8b100"/><path d="M21.22 17.45h.64c.02 0 .04 0 .04-.03 0-.01-.02-.03-.04-.03h-.64c-.02 0-.04.02-.04.03 0 .02.02.03.04.03Z" fill="none" stroke="#000" stroke-width=".01"/><path d="M21.22 17.6h.64l.04-.02c0-.02-.02-.03-.04-.03h-.64c-.02 0-.04.01-.04.03l.04.02" fill="#c8b100"/><path d="M21.22 17.6h.64l.04-.02c0-.02-.02-.03-.04-.03h-.64c-.02 0-.04.01-.04.03l.04.02Z" fill="none" stroke="#000" stroke-width=".01"/><path d="M22.05 15.06c.09-.05.15-.1.14-.13 0-.02-.04-.04-.08-.07-.06-.04-.1-.12-.07-.15a.22.22 0 0 0 .01.35" fill="#ad1519"/><path d="M22.05 15.06c.09-.05.15-.1.14-.13 0-.02-.04-.04-.08-.07-.06-.04-.1-.12-.07-.15a.22.22 0 0 0 .01.35z" fill="none" stroke="#000" stroke-width=".01"/><path d="M20.6 16.21a2 2 0 0 0 .93.08c.37-.06.65-.2.63-.33l.14.32c.03.13-.29.3-.7.37l-.37.03c-.27 0-.5-.04-.64-.09v-.38" fill="#ad1519" stroke="#000" stroke-width=".01" stroke-linejoin="round"/><path d="M21.86 15.83c.17.01.29.06.3.13.01.06-.05.12-.15.18l-.15-.01v-.3M21.23 16.06A.52.52 0 0 1 21 16c-.02-.05.07-.13.23-.23v.3" fill="#ad1519" stroke="#000" stroke-width=".01"/><path d="M22.25 15.24c.01.05-.16.15-.4.24l-.3.12c-.34.15-.58.32-.55.38a2.17 2.17 0 0 1-.05-.3c-.02-.06.2-.23.5-.38l.4-.15c.18-.06.35-.18.34-.22z" fill="#ad1519"/><path d="M22.25 15.24c.01.05-.16.15-.4.24l-.3.12c-.34.15-.58.32-.55.38a2.17 2.17 0 0 1-.05-.3c-.02-.06.2-.23.5-.38l.4-.15c.18-.06.35-.18.34-.22l.06.31Z" fill="none" stroke="#000" stroke-width=".01" stroke-linejoin="round"/><path d="m15.4 16.47.04.01c.02.01.04 0 .05-.03.01-.02 0-.04-.02-.06l-.02-.01-.04.1m.04-.12c.08.03.13.06.1.12 0 .04-.05.05-.1.03l-.11-.04.1-.23h.02l.04.02zM15.7 16.57h-.03l-.04-.01.06-.24.16.03v.03a.91.91 0 0 0-.1-.03l-.05.22M16.04 16.36l.1.26h-.04a2.2 2.2 0 0 0-.07-.19l-.1.17h-.07a7.1 7.1 0 0 0 .16-.24h.02M16.39 16.55l.02.03-.07.03c-.07 0-.11-.03-.12-.07 0-.09.13-.08.12-.14 0-.02-.02-.03-.05-.03-.03 0-.06.02-.06.05a.24.24 0 0 0-.03-.05.18.18 0 0 1 .07-.02c.07 0 .13.02.13.07.01.08-.13.09-.12.13 0 .02.02.04.05.04.03 0 .04-.02.05-.04M20.98 16.35l.09.26h-.04a1.7 1.7 0 0 0-.06-.2l-.1.17h-.05l-.04-.01.16-.23h.04M21.22 16.61h-.07v-.24h.17v.02h-.1v.22M21.49 16.57l.08-.01v.03l-.23.02v-.03h.08l-.02-.23h.07l.02.22M21.7 16.54c.03-.01.07-.01.07-.05v-.01c-.01-.04-.04-.05-.09-.04l.03.1m-.12-.21h.03l.03-.02.03.12.02-.05.04-.09h.04l.04-.01-.01.02-.06.12c.04 0 .08.01.09.05 0 .02 0 .04-.03.06l-.07.02-.1.02-.05-.24M21.96 16.32l.08.05v-.1l-.08.05m.07-.07-.01-.08.03-.01.04-.02.02.27-.02.01-.01.01-.25-.16h.02l.02-.02.07.05z" fill="#c8b100"/><path d="M18.65 19.5c.26 0 .48-.03.63-.09.09-.04.2-.06.33-.08.09-.01.18-.02.26-.01.1 0 .26-.03.4-.1.13-.05.24-.12.3-.18l-.05-.06-.02-.15-.17-.19-.08-.07-.2-.16h-.1l-.03-.09-1.26.15-1.27-.15-.03.09h-.1l-.2.16-.08.07-.16.19-.02.15-.06.06c.07.06.18.13.3.18.15.07.3.1.4.1a1.33 1.33 0 0 1 .6.1c.14.05.36.09.61.09" fill="#ad1519"/><path d="M18.65 19.5c.26 0 .48-.03.63-.09.09-.04.2-.06.33-.08.09-.01.18-.02.26-.01.1 0 .26-.03.4-.1.13-.05.24-.12.3-.18l-.05-.06-.02-.15-.17-.19-.08-.07-.2-.16h-.1l-.03-.09-1.26.15-1.27-.15-.03.09h-.1l-.2.16-.08.07-.16.19-.02.15-.06.06c.07.06.18.13.3.18.15.07.3.1.4.1a1.33 1.33 0 0 1 .6.1c.14.05.36.09.61.09Z" fill="none" stroke="#000" stroke-width=".01"/><path d="m17.72 19.17.05-.04.08.13a.3.3 0 0 0-.15.25.2.2 0 0 0 0 .04c.02.16.22.3.48.3a.6.6 0 0 0 .34-.1v.08a.7.7 0 0 1-.34.09c-.3 0-.53-.17-.54-.37v-.04c0-.1.04-.2.12-.27l-.04-.07" fill="#c8b100" stroke="#000" stroke-width=".01"/><path d="M17.72 19.17c-.1.08-.16.18-.16.3s.08.24.21.32a.34.34 0 0 1-.13-.24v-.04c0-.1.04-.2.12-.27l-.04-.07" fill="#c8b100" stroke="#000" stroke-width=".01"/><path d="M16.83 19.04a.35.35 0 0 0-.06.39c.09.17.34.29.65.29.08 0 .16 0 .23-.03a.46.46 0 0 1-.04-.05 1 1 0 0 1-.2.01c-.27 0-.5-.1-.57-.25a.3.3 0 0 1 .08-.35l-.1-.16-.06.04z" fill="#c8b100"/><path d="M16.83 19.04a.35.35 0 0 0-.06.39c.09.17.34.29.65.29.08 0 .16 0 .23-.03a.46.46 0 0 1-.04-.05 1 1 0 0 1-.2.01c-.27 0-.5-.1-.57-.25a.3.3 0 0 1 .08-.35l-.1-.16-.06.04z" fill="none" stroke="#000" stroke-width=".01"/><path d="M16.93 19.6a.43.43 0 0 1-.16-.17.35.35 0 0 1 .06-.39l-.06-.1a.4.4 0 0 0-.1.26c0 .16.1.3.26.4" fill="#c8b100"/><path d="M16.93 19.6a.43.43 0 0 1-.16-.17.35.35 0 0 1 .06-.39l-.06-.1a.4.4 0 0 0-.1.26c0 .16.1.3.26.4z" fill="none" stroke="#000" stroke-width=".01"/><path d="M18.67 19.95c.06 0 .12-.05.14-.1l.01-.18v-.05c0-.13.03-.25.05-.32l-.2-.2-.21.2c.03.07.05.19.05.32v.05c0 .06 0 .12.02.17 0 .06.07.1.14.1" fill="#c8b100"/><path d="M18.67 19.95c.06 0 .12-.05.14-.1l.01-.18v-.05c0-.13.03-.25.05-.32l-.2-.2-.21.2c.03.07.05.19.05.32v.05c0 .06 0 .12.02.17 0 .06.07.1.14.1Z" fill="none" stroke="#000" stroke-width=".01"/><path d="M18.67 19.88c.03 0 .06-.02.07-.05l.02-.17v-.04a1 1 0 0 1 .04-.3l-.13-.14-.14.13c.03.07.04.18.05.31v.04l.01.17c.01.03.04.05.08.05" fill="#c8b100"/><path d="M18.67 19.88c.03 0 .06-.02.07-.05l.02-.17v-.04a1 1 0 0 1 .04-.3l-.13-.14-.14.13c.03.07.04.18.05.31v.04l.01.17c.01.03.04.05.08.05Z" fill="none" stroke="#000" stroke-width=".01"/><path d="m19.62 19.17-.06-.04-.08.13a.3.3 0 0 1 .15.25v.04c-.01.16-.22.3-.47.3a.6.6 0 0 1-.34-.1l-.01.08c.1.05.21.09.35.09.3 0 .52-.17.54-.37v-.04c0-.1-.05-.2-.13-.27l.05-.07" fill="#c8b100" stroke="#000" stroke-width=".01"/><path d="M19.61 19.17c.1.08.17.18.17.3s-.09.24-.22.32a.34.34 0 0 0 .14-.24v-.04c0-.1-.05-.2-.13-.27l.04-.07" fill="#c8b100" stroke="#000" stroke-width=".01"/><path d="M20.5 19.04a.36.36 0 0 1 .06.39c-.08.17-.34.29-.64.29-.09 0-.17 0-.24-.03a.46.46 0 0 0 .04-.05 1 1 0 0 0 .2.01c.27 0 .5-.1.58-.25a.27.27 0 0 0 .02-.12.3.3 0 0 0-.1-.23l.1-.16.05.04z" fill="#c8b100"/><path d="M20.5 19.04a.36.36 0 0 1 .06.39c-.08.17-.34.29-.64.29-.09 0-.17 0-.24-.03a.46.46 0 0 0 .04-.05 1 1 0 0 0 .2.01c.27 0 .5-.1.58-.25a.27.27 0 0 0 .02-.12.3.3 0 0 0-.1-.23l.1-.16.05.04z" fill="none" stroke="#000" stroke-width=".01"/><path d="M20.4 19.6c.07-.05.13-.1.16-.17l.03-.15a.36.36 0 0 0-.09-.24l.07-.1c.05.08.09.17.09.26 0 .16-.1.3-.26.4" fill="#c8b100"/><path d="M20.4 19.6c.07-.05.13-.1.16-.17l.03-.15a.36.36 0 0 0-.09-.24l.07-.1c.05.08.09.17.09.26 0 .16-.1.3-.26.4Z" fill="none" stroke="#000" stroke-width=".01"/><path d="M18.67 20.26c.1 0 .17-.07.17-.16a.17.17 0 0 0-.17-.16c-.1 0-.17.07-.17.16 0 .1.07.16.17.16" fill="#005bbf"/><path d="M18.67 20.26c.1 0 .17-.07.17-.16a.17.17 0 0 0-.17-.16c-.1 0-.17.07-.17.16 0 .1.07.16.17.16Z" fill="none" stroke="#000" stroke-width=".01"/><path d="M18.62 20.55v-.08h-.09v-.1h.1v-.25h-.12l-.01-.02.01-.06h.31l.02.06-.01.02h-.11v.26h.09v.09h-.1v.08Z" fill="#c8b100"/><path d="M18.62 20.55v-.08h-.09v-.1h.1v-.25h-.12l-.01-.02.01-.06h.31l.02.06-.01.02h-.11v.26h.09v.09h-.1v.08Z" fill="none" stroke="#000" stroke-width=".01"/><path d="M18.67 19.34c.04 0 .07-.03.07-.07a.07.07 0 0 0-.07-.07.07.07 0 0 0-.08.07c0 .04.04.07.08.07" fill="#fff"/><path d="M18.67 19.34c.04 0 .07-.03.07-.07a.07.07 0 0 0-.07-.07.07.07 0 0 0-.08.07c0 .04.04.07.08.07Z" fill="none" stroke="#000" stroke-width=".01"/><path d="M18.67 19.48c.04 0 .07-.04.07-.07 0-.04-.03-.07-.07-.07-.04 0-.08.03-.08.07 0 .03.04.07.08.07" fill="#fff"/><path d="M18.67 19.48c.04 0 .07-.04.07-.07 0-.04-.03-.07-.07-.07-.04 0-.08.03-.08.07 0 .03.04.07.08.07Z" fill="none" stroke="#000" stroke-width=".01"/><path d="M18.67 19.6c.03 0 .06-.02.06-.05 0-.03-.03-.05-.06-.05a.06.06 0 0 0-.06.05c0 .03.03.06.06.06" fill="#fff"/><path d="M18.67 19.6c.03 0 .06-.02.06-.05 0-.03-.03-.05-.06-.05a.06.06 0 0 0-.06.05c0 .03.03.06.06.06Z" fill="none" stroke="#000" stroke-width=".01"/><path d="M18.67 19.72c.02 0 .04-.01.04-.04 0-.02-.02-.04-.04-.04a.04.04 0 0 0-.05.04c0 .03.02.04.05.04" fill="#fff"/><path d="M18.67 19.72c.02 0 .04-.01.04-.04 0-.02-.02-.04-.04-.04a.04.04 0 0 0-.05.04c0 .03.02.04.05.04Z" fill="none" stroke="#000" stroke-width=".01"/><path d="M18.67 19.83c.02 0 .03-.01.03-.03a.03.03 0 0 0-.03-.03.03.03 0 0 0-.04.03c0 .02.02.03.04.03" fill="#fff"/><path d="M18.67 19.83c.02 0 .03-.01.03-.03a.03.03 0 0 0-.03-.03.03.03 0 0 0-.04.03c0 .02.02.03.04.03Z" fill="none" stroke="#000" stroke-width=".01"/><path d="M16.7 18.94c.03 0 .05-.02.05-.04a.04.04 0 0 0-.05-.04.04.04 0 0 0-.04.04c0 .02.02.04.04.04" fill="#fff"/><path d="M16.7 18.94c.03 0 .05-.02.05-.04a.04.04 0 0 0-.05-.04.04.04 0 0 0-.04.04c0 .02.02.04.04.04Z" fill="none" stroke="#000" stroke-width=".01"/><path d="M16.65 19.04c.02 0 .04-.02.04-.04a.04.04 0 0 0-.04-.04.04.04 0 0 0-.05.04c0 .02.02.04.05.04" fill="#fff"/><path d="M16.65 19.04c.02 0 .04-.02.04-.04a.04.04 0 0 0-.04-.04.04.04 0 0 0-.05.04c0 .02.02.04.05.04Z" fill="none" stroke="#000" stroke-width=".01"/><path d="M16.6 19.16c.03 0 .05-.02.05-.04 0-.03-.02-.04-.04-.04s-.04.01-.04.04c0 .02.02.04.04.04" fill="#fff"/><path d="M16.6 19.16c.03 0 .05-.02.05-.04 0-.03-.02-.04-.04-.04s-.04.01-.04.04c0 .02.02.04.04.04z" fill="none" stroke="#000" stroke-width=".01"/><path d="M16.6 19.28c.03 0 .05-.01.05-.04 0-.02-.02-.04-.05-.04-.02 0-.04.02-.04.04 0 .03.02.04.04.04" fill="#fff"/><path d="M16.6 19.28c.03 0 .05-.01.05-.04 0-.02-.02-.04-.05-.04-.02 0-.04.02-.04.04 0 .03.02.04.04.04z" fill="none" stroke="#000" stroke-width=".01"/><path d="M16.63 19.4c.03 0 .05-.01.05-.03 0-.02-.02-.04-.05-.04a.04.04 0 0 0-.04.04c0 .02.02.04.04.04" fill="#fff"/><path d="M16.63 19.4c.03 0 .05-.01.05-.03 0-.02-.02-.04-.05-.04a.04.04 0 0 0-.04.04c0 .02.02.04.04.04Z" fill="none" stroke="#000" stroke-width=".01"/><path d="M16.7 19.52c.02 0 .04-.02.04-.04a.04.04 0 0 0-.04-.04.04.04 0 0 0-.04.04c0 .02.02.04.04.04" fill="#fff"/><path d="M16.7 19.52c.02 0 .04-.02.04-.04a.04.04 0 0 0-.04-.04.04.04 0 0 0-.04.04c0 .02.02.04.04.04Z" fill="none" stroke="#000" stroke-width=".01"/><path d="M16.79 19.61c.02 0 .04-.01.04-.04 0-.02-.02-.04-.04-.04a.04.04 0 0 0-.05.04c0 .03.02.04.05.04" fill="#fff"/><path d="M16.79 19.61c.02 0 .04-.01.04-.04 0-.02-.02-.04-.04-.04a.04.04 0 0 0-.05.04c0 .03.02.04.05.04Z" fill="none" stroke="#000" stroke-width=".01"/><path d="M16.89 19.7c.02 0 .04-.03.04-.05 0-.02-.02-.04-.04-.04-.03 0-.05.02-.05.04s.02.04.05.04" fill="#fff"/><path d="M16.89 19.7c.02 0 .04-.03.04-.05 0-.02-.02-.04-.04-.04-.03 0-.05.02-.05.04s.02.04.05.04z" fill="none" stroke="#000" stroke-width=".01"/><path d="M17 19.75c.03 0 .05-.01.05-.04a.04.04 0 0 0-.04-.04.04.04 0 0 0-.05.04c0 .03.02.04.05.04" fill="#fff"/><path d="M17 19.75c.03 0 .05-.01.05-.04a.04.04 0 0 0-.04-.04.04.04 0 0 0-.05.04c0 .03.02.04.05.04Z" fill="none" stroke="#000" stroke-width=".01"/><path d="M17.13 19.8c.02 0 .04-.02.04-.04a.04.04 0 0 0-.04-.04c-.02 0-.04.02-.04.04s.02.04.04.04" fill="#fff"/><path d="M17.13 19.8c.02 0 .04-.02.04-.04a.04.04 0 0 0-.04-.04c-.02 0-.04.02-.04.04s.02.04.04.04z" fill="none" stroke="#000" stroke-width=".01"/><path d="M17.27 19.82c.02 0 .04-.01.04-.04a.04.04 0 0 0-.04-.04.04.04 0 0 0-.04.04c0 .03.02.04.04.04" fill="#fff"/><path d="M17.27 19.82c.02 0 .04-.01.04-.04a.04.04 0 0 0-.04-.04.04.04 0 0 0-.04.04c0 .03.02.04.04.04Z" fill="none" stroke="#000" stroke-width=".01"/><path d="M17.4 19.83c.02 0 .04-.02.04-.04s-.02-.04-.04-.04-.04.02-.04.04.02.04.04.04" fill="#fff"/><path d="M17.4 19.83c.02 0 .04-.02.04-.04s-.02-.04-.04-.04-.04.02-.04.04.02.04.04.04z" fill="none" stroke="#000" stroke-width=".01"/><path d="M17.53 19.83c.02 0 .04-.02.04-.04a.04.04 0 0 0-.04-.04.04.04 0 0 0-.04.04c0 .02.02.04.04.04" fill="#fff"/><path d="M17.53 19.83c.02 0 .04-.02.04-.04a.04.04 0 0 0-.04-.04.04.04 0 0 0-.04.04c0 .02.02.04.04.04Z" fill="none" stroke="#000" stroke-width=".01"/><path d="M17.67 19.26c.03 0 .05-.02.05-.04a.04.04 0 0 0-.05-.04.04.04 0 0 0-.04.04c0 .02.02.04.04.04" fill="#fff"/><path d="M17.67 19.26c.03 0 .05-.02.05-.04a.04.04 0 0 0-.05-.04.04.04 0 0 0-.04.04c0 .02.02.04.04.04Z" fill="none" stroke="#000" stroke-width=".01"/><path d="M17.6 19.36c.03 0 .05-.02.05-.04s-.02-.04-.05-.04c-.02 0-.04.02-.04.04s.02.04.04.04" fill="#fff"/><path d="M17.6 19.36c.03 0 .05-.02.05-.04s-.02-.04-.05-.04c-.02 0-.04.02-.04.04s.02.04.04.04z" fill="none" stroke="#000" stroke-width=".01"/><path d="M17.57 19.47c.02 0 .04-.02.04-.04a.04.04 0 0 0-.04-.04c-.03 0-.05.02-.05.04s.02.04.05.04" fill="#fff"/><path d="M17.57 19.47c.02 0 .04-.02.04-.04a.04.04 0 0 0-.04-.04c-.03 0-.05.02-.05.04s.02.04.05.04z" fill="none" stroke="#000" stroke-width=".01"/><path d="M17.57 19.6c.02 0 .04-.02.04-.05 0-.02-.02-.04-.04-.04a.04.04 0 0 0-.04.04c0 .03.02.04.04.04" fill="#fff"/><path d="M17.57 19.6c.02 0 .04-.02.04-.05 0-.02-.02-.04-.04-.04a.04.04 0 0 0-.04.04c0 .03.02.04.04.04Z" fill="none" stroke="#000" stroke-width=".01"/><path d="M17.6 19.72c.02 0 .04-.02.04-.04 0-.03-.02-.04-.04-.04-.03 0-.05.01-.05.04 0 .02.02.04.05.04" fill="#fff"/><path d="M17.6 19.72c.02 0 .04-.02.04-.04 0-.03-.02-.04-.04-.04-.03 0-.05.01-.05.04 0 .02.02.04.05.04z" fill="none" stroke="#000" stroke-width=".01"/><path d="M17.66 19.83c.02 0 .04-.02.04-.04s-.02-.04-.04-.04-.04.02-.04.04.02.04.04.04" fill="#fff"/><path d="M17.66 19.83c.02 0 .04-.02.04-.04s-.02-.04-.04-.04-.04.02-.04.04.02.04.04.04z" fill="none" stroke="#000" stroke-width=".01"/><path d="M17.76 19.9c.02 0 .04-.01.04-.04 0-.02-.02-.04-.04-.04a.04.04 0 0 0-.04.04c0 .03.02.04.04.04" fill="#fff"/><path d="M17.76 19.9c.02 0 .04-.01.04-.04 0-.02-.02-.04-.04-.04a.04.04 0 0 0-.04.04c0 .03.02.04.04.04Z" fill="none" stroke="#000" stroke-width=".01"/><path d="M17.87 19.97c.03 0 .05-.02.05-.04a.04.04 0 0 0-.05-.04.04.04 0 0 0-.04.04c0 .02.02.04.04.04" fill="#fff"/><path d="M17.87 19.97c.03 0 .05-.02.05-.04a.04.04 0 0 0-.05-.04.04.04 0 0 0-.04.04c0 .02.02.04.04.04Z" fill="none" stroke="#000" stroke-width=".01"/><path d="M18 20c.02 0 .04-.01.04-.03a.04.04 0 0 0-.04-.04.04.04 0 0 0-.04.04c0 .02.02.04.04.04" fill="#fff"/><path d="M18 20c.02 0 .04-.01.04-.03a.04.04 0 0 0-.04-.04.04.04 0 0 0-.04.04c0 .02.02.04.04.04Z" fill="none" stroke="#000" stroke-width=".01"/><path d="M18.13 20.03c.03 0 .04-.02.04-.04a.04.04 0 0 0-.04-.04.04.04 0 0 0-.04.04c0 .02.02.04.04.04" fill="#fff"/><path d="M18.13 20.03c.03 0 .04-.02.04-.04a.04.04 0 0 0-.04-.04.04.04 0 0 0-.04.04c0 .02.02.04.04.04Z" fill="none" stroke="#000" stroke-width=".01"/><path d="M18.26 20.03c.03 0 .04-.02.04-.04a.04.04 0 0 0-.04-.04c-.02 0-.04.01-.04.04 0 .02.02.04.04.04" fill="#fff"/><path d="M18.26 20.03c.03 0 .04-.02.04-.04a.04.04 0 0 0-.04-.04c-.02 0-.04.01-.04.04 0 .02.02.04.04.04z" fill="none" stroke="#000" stroke-width=".01"/><path d="M18.4 20c.02 0 .04-.01.04-.04a.04.04 0 0 0-.04-.04.04.04 0 0 0-.05.04c0 .03.02.04.05.04" fill="#fff"/><path d="M18.4 20c.02 0 .04-.01.04-.04a.04.04 0 0 0-.04-.04.04.04 0 0 0-.05.04c0 .03.02.04.05.04Z" fill="none" stroke="#000" stroke-width=".01"/><path d="M18.52 19.96c.02 0 .04-.02.04-.04s-.02-.04-.04-.04-.04.02-.04.04.02.04.04.04" fill="#fff"/><path d="M18.52 19.96c.02 0 .04-.02.04-.04s-.02-.04-.04-.04-.04.02-.04.04.02.04.04.04z" fill="none" stroke="#000" stroke-width=".01"/><path d="M18.81 19.96c.02 0 .04-.02.04-.04s-.02-.04-.04-.04a.04.04 0 0 0-.04.04c0 .02.02.04.04.04" fill="#fff"/><path d="M18.81 19.96c.02 0 .04-.02.04-.04s-.02-.04-.04-.04a.04.04 0 0 0-.04.04c0 .02.02.04.04.04Z" fill="none" stroke="#000" stroke-width=".01"/><path d="M18.94 20c.02 0 .04-.01.04-.04a.04.04 0 0 0-.04-.04.04.04 0 0 0-.05.04c0 .03.02.04.05.04" fill="#fff"/><path d="M18.94 20c.02 0 .04-.01.04-.04a.04.04 0 0 0-.04-.04.04.04 0 0 0-.05.04c0 .03.02.04.05.04Z" fill="none" stroke="#000" stroke-width=".01"/><path d="M19.07 20.03c.02 0 .04-.02.04-.04 0-.03-.02-.04-.04-.04s-.04.01-.04.04c0 .02.02.04.04.04" fill="#fff"/><path d="M19.07 20.03c.02 0 .04-.02.04-.04 0-.03-.02-.04-.04-.04s-.04.01-.04.04c0 .02.02.04.04.04z" fill="none" stroke="#000" stroke-width=".01"/><path d="M19.2 20.03c.02 0 .04-.02.04-.04a.04.04 0 0 0-.04-.04c-.02 0-.04.02-.04.04s.02.04.04.04" fill="#fff"/><path d="M19.2 20.03c.02 0 .04-.02.04-.04a.04.04 0 0 0-.04-.04c-.02 0-.04.02-.04.04s.02.04.04.04z" fill="none" stroke="#000" stroke-width=".01"/><path d="M19.33 20c.03 0 .04-.01.04-.03a.04.04 0 0 0-.04-.04.04.04 0 0 0-.04.04c0 .02.02.04.04.04" fill="#fff"/><path d="M19.33 20c.03 0 .04-.01.04-.03a.04.04 0 0 0-.04-.04.04.04 0 0 0-.04.04c0 .02.02.04.04.04Z" fill="none" stroke="#000" stroke-width=".01"/><path d="M19.46 19.97c.02 0 .04-.02.04-.04a.04.04 0 0 0-.04-.04.04.04 0 0 0-.04.04c0 .02.02.04.04.04" fill="#fff"/><path d="M19.46 19.97c.02 0 .04-.02.04-.04a.04.04 0 0 0-.04-.04.04.04 0 0 0-.04.04c0 .02.02.04.04.04Z" fill="none" stroke="#000" stroke-width=".01"/><path d="M19.57 19.9c.03 0 .05-.01.05-.04a.04.04 0 0 0-.05-.04.04.04 0 0 0-.04.04c0 .03.02.04.04.04" fill="#fff"/><path d="M19.57 19.9c.03 0 .05-.01.05-.04a.04.04 0 0 0-.05-.04.04.04 0 0 0-.04.04c0 .03.02.04.04.04Z" fill="none" stroke="#000" stroke-width=".01"/><path d="M19.67 19.83c.02 0 .04-.02.04-.04a.04.04 0 0 0-.04-.04.04.04 0 0 0-.04.04c0 .02.02.04.04.04" fill="#fff"/><path d="M19.67 19.83c.02 0 .04-.02.04-.04a.04.04 0 0 0-.04-.04.04.04 0 0 0-.04.04c0 .02.02.04.04.04Z" fill="none" stroke="#000" stroke-width=".01"/><path d="M19.74 19.72c.02 0 .04-.02.04-.04a.04.04 0 0 0-.04-.04c-.03 0-.05.01-.05.04 0 .02.02.04.05.04" fill="#fff"/><path d="M19.74 19.72c.02 0 .04-.02.04-.04a.04.04 0 0 0-.04-.04c-.03 0-.05.01-.05.04 0 .02.02.04.05.04z" fill="none" stroke="#000" stroke-width=".01"/><path d="M19.76 19.6c.03 0 .05-.02.05-.05a.04.04 0 0 0-.05-.04.04.04 0 0 0-.04.04c0 .03.02.04.04.04" fill="#fff"/><path d="M19.76 19.6c.03 0 .05-.02.05-.05a.04.04 0 0 0-.05-.04.04.04 0 0 0-.04.04c0 .03.02.04.04.04Z" fill="none" stroke="#000" stroke-width=".01"/><path d="M19.77 19.47c.02 0 .04-.02.04-.04s-.02-.04-.04-.04-.04.02-.04.04.02.04.04.04" fill="#fff"/><path d="M19.77 19.47c.02 0 .04-.02.04-.04s-.02-.04-.04-.04-.04.02-.04.04.02.04.04.04z" fill="none" stroke="#000" stroke-width=".01"/><path d="M19.73 19.36c.02 0 .04-.02.04-.04a.04.04 0 0 0-.04-.04.04.04 0 0 0-.04.04c0 .02.02.04.04.04" fill="#fff"/><path d="M19.73 19.36c.02 0 .04-.02.04-.04a.04.04 0 0 0-.04-.04.04.04 0 0 0-.04.04c0 .02.02.04.04.04Z" fill="none" stroke="#000" stroke-width=".01"/><path d="M19.66 19.26c.02 0 .04-.02.04-.04a.04.04 0 0 0-.04-.04.04.04 0 0 0-.04.04c0 .02.02.04.04.04" fill="#fff"/><path d="M19.66 19.26c.02 0 .04-.02.04-.04a.04.04 0 0 0-.04-.04.04.04 0 0 0-.04.04c0 .02.02.04.04.04Z" fill="none" stroke="#000" stroke-width=".01"/><path d="M19.8 19.83c.02 0 .04-.02.04-.04a.04.04 0 0 0-.04-.04.04.04 0 0 0-.04.04c0 .02.02.04.04.04" fill="#fff"/><path d="M19.8 19.83c.02 0 .04-.02.04-.04a.04.04 0 0 0-.04-.04.04.04 0 0 0-.04.04c0 .02.02.04.04.04Z" fill="none" stroke="#000" stroke-width=".01"/><path d="M19.93 19.83c.02 0 .04-.02.04-.04a.04.04 0 0 0-.04-.04c-.02 0-.04.02-.04.04s.02.04.04.04" fill="#fff"/><path d="M19.93 19.83c.02 0 .04-.02.04-.04a.04.04 0 0 0-.04-.04c-.02 0-.04.02-.04.04s.02.04.04.04z" fill="none" stroke="#000" stroke-width=".01"/><path d="M20.06 19.82c.03 0 .05-.01.05-.04a.04.04 0 0 0-.05-.04.04.04 0 0 0-.04.04c0 .03.02.04.04.04" fill="#fff"/><path d="M20.06 19.82c.03 0 .05-.01.05-.04a.04.04 0 0 0-.05-.04.04.04 0 0 0-.04.04c0 .03.02.04.04.04Z" fill="none" stroke="#000" stroke-width=".01"/><path d="M20.2 19.8c.03 0 .05-.02.05-.04s-.02-.04-.05-.04c-.02 0-.04.02-.04.04s.02.04.04.04" fill="#fff"/><path d="M20.2 19.8c.03 0 .05-.02.05-.04s-.02-.04-.05-.04c-.02 0-.04.02-.04.04s.02.04.04.04z" fill="none" stroke="#000" stroke-width=".01"/><path d="M20.33 19.75c.02 0 .04-.01.04-.04a.04.04 0 0 0-.04-.04.04.04 0 0 0-.04.04c0 .03.01.04.04.04" fill="#fff"/><path d="M20.33 19.75c.02 0 .04-.01.04-.04a.04.04 0 0 0-.04-.04.04.04 0 0 0-.04.04c0 .03.01.04.04.04Z" fill="none" stroke="#000" stroke-width=".01"/><path d="M20.45 19.7c.02 0 .04-.03.04-.05a.04.04 0 0 0-.04-.04c-.03 0-.05.02-.05.04s.02.04.05.04" fill="#fff"/><path d="M20.45 19.7c.02 0 .04-.03.04-.05a.04.04 0 0 0-.04-.04c-.03 0-.05.02-.05.04s.02.04.05.04z" fill="none" stroke="#000" stroke-width=".01"/><path d="M20.55 19.61c.02 0 .04-.01.04-.04 0-.02-.02-.04-.04-.04-.03 0-.05.02-.05.04 0 .03.02.04.05.04" fill="#fff"/><path d="M20.55 19.61c.02 0 .04-.01.04-.04 0-.02-.02-.04-.04-.04-.03 0-.05.02-.05.04 0 .03.02.04.05.04z" fill="none" stroke="#000" stroke-width=".01"/><path d="M20.63 19.52c.03 0 .05-.02.05-.04a.04.04 0 0 0-.05-.04.04.04 0 0 0-.04.04c0 .02.02.04.04.04" fill="#fff"/><path d="M20.63 19.52c.03 0 .05-.02.05-.04a.04.04 0 0 0-.05-.04.04.04 0 0 0-.04.04c0 .02.02.04.04.04Z" fill="none" stroke="#000" stroke-width=".01"/><path d="M20.7 19.4c.02 0 .04-.01.04-.03 0-.02-.02-.04-.04-.04s-.04.02-.04.04.02.04.04.04" fill="#fff"/><path d="M20.7 19.4c.02 0 .04-.01.04-.03 0-.02-.02-.04-.04-.04s-.04.02-.04.04.02.04.04.04z" fill="none" stroke="#000" stroke-width=".01"/><path d="M20.73 19.28c.02 0 .04-.01.04-.04 0-.02-.02-.04-.04-.04a.04.04 0 0 0-.04.04c0 .03.02.04.04.04" fill="#fff"/><path d="M20.73 19.28c.02 0 .04-.01.04-.04 0-.02-.02-.04-.04-.04a.04.04 0 0 0-.04.04c0 .03.02.04.04.04Z" fill="none" stroke="#000" stroke-width=".01"/><path d="M20.73 19.16c.02 0 .04-.02.04-.04 0-.03-.02-.04-.04-.04-.03 0-.05.01-.05.04 0 .02.02.04.05.04" fill="#fff"/><path d="M20.73 19.16c.02 0 .04-.02.04-.04 0-.03-.02-.04-.04-.04-.03 0-.05.01-.05.04 0 .02.02.04.05.04z" fill="none" stroke="#000" stroke-width=".01"/><path d="M20.69 19.04c.02 0 .04-.02.04-.04s-.02-.04-.04-.04a.04.04 0 0 0-.05.04c0 .02.02.04.05.04" fill="#fff"/><path d="M20.69 19.04c.02 0 .04-.02.04-.04s-.02-.04-.04-.04a.04.04 0 0 0-.05.04c0 .02.02.04.05.04Z" fill="none" stroke="#000" stroke-width=".01"/><path d="M20.63 18.94c.02 0 .04-.02.04-.04 0-.03-.02-.04-.04-.04a.04.04 0 0 0-.04.04c0 .02.02.04.04.04" fill="#fff"/><path d="M20.63 18.94c.02 0 .04-.02.04-.04 0-.03-.02-.04-.04-.04a.04.04 0 0 0-.04.04c0 .02.02.04.04.04Z" fill="none" stroke="#000" stroke-width=".01"/><path d="M18.67 17.84c-.47 0-.9.06-1.2.15a.05.05 0 0 0-.03.04c0 .02.02.04.04.05.3.09.72.15 1.2.15.46 0 .88-.06 1.19-.15.02 0 .03-.03.03-.05a.05.05 0 0 0-.03-.04c-.3-.1-.73-.15-1.2-.15" fill="#c8b100" stroke="#000" stroke-width=".01"/><path d="M18.67 18.23c-.48 0-.9-.06-1.2-.16.02.02.01.05-.02.13-.03.1-.1.09-.1.09.34.1.8.16 1.32.16s.98-.06 1.32-.16c0 0-.06 0-.1-.1-.03-.07-.03-.1 0-.12-.3.1-.74.16-1.22.16" fill="#c8b100" stroke="#000" stroke-width=".01"/><path d="M18.67 18.45a4.8 4.8 0 0 1-1.31-.16c-.02 0-.05 0-.06.02 0 .02.01.05.03.05.34.1.81.17 1.34.17s1-.06 1.34-.17c.02 0 .04-.03.03-.05 0-.02-.03-.03-.06-.02-.33.1-.8.16-1.3.16" fill="#c8b100" stroke="#000" stroke-width=".01"/><path d="M18.67 18.85h.05v-.07c0-.1.08-.18.18-.18.08 0 .16.06.18.13l.03.06v-.07c.02-.09.1-.15.2-.15s.18.08.18.18v.02l.06.06.03-.07a.17.17 0 0 1 .16-.25c.06 0 .12.03.15.07l.04.05v-.06c0-.06.02-.11.08-.12 0 0 .07 0 .16.07.09.06.13.12.13.12l.01-.07s-.07-.11-.15-.16c-.05-.02-.11-.05-.16-.04-.06 0-.1.05-.12.1a.27.27 0 0 0-.14-.03c-.1 0-.2.06-.24.15a.27.27 0 0 0-.2-.09.28.28 0 0 0-.21.1.28.28 0 0 0-.42.04.28.28 0 0 0-.23-.11.27.27 0 0 0-.18.07.28.28 0 0 0-.22-.1.27.27 0 0 0-.2.09.26.26 0 0 0-.24-.15c-.05 0-.1.01-.14.04-.02-.06-.06-.1-.11-.11-.05 0-.12.02-.16.04-.08.05-.16.16-.16.16l.01.07s.05-.06.14-.12c.09-.07.15-.07.15-.07.06 0 .08.06.08.12v.06l.04-.05a.18.18 0 0 1 .15-.07.17.17 0 0 1 .16.25l.04.07.06-.06v-.02c0-.1.08-.18.18-.18.1 0 .18.06.2.15v.07l.02-.06c.03-.07.1-.13.18-.13a.18.18 0 0 1 .18.25h.05" fill="#c8b100" stroke="#000" stroke-width=".01"/><path d="M17.07 18.6c0 .02-.02.03-.03.04-.03.03-.07.03-.1.01 0 0-.04.07-.1.1-.04.03-.13.02-.13.02 0 .06.05.11.12.11.04 0 .07-.01.1-.04v.04s.06-.01.08-.07c.02-.06 0-.15 0-.15l.03.07a.3.3 0 0 0 .1.06l.05.03v-.06c.05.01.1 0 .15-.01a.19.19 0 0 0-.1-.1l.03-.02a.15.15 0 0 0 .02-.02h-.05l-.1-.02-.07.01" fill="#c8b100" stroke="#000" stroke-width=".01"/><path d="M16.95 18.65c.02.02.06.02.09 0 .03-.03.04-.07.02-.1-.02-.01-.06 0-.1.02-.02.02-.03.06-.01.08" fill="#ad1519" stroke="#000" stroke-width=".01"/><path d="M17.37 18.62c0 .03 0 .06.03.07.02 0 .05-.01.06-.05 0-.03 0-.06-.02-.07-.03 0-.05.02-.07.05" fill="#fff" stroke="#000" stroke-width=".01"/><path d="M17.75 18.77a.07.07 0 0 0-.02.1l-.07.02h-.13v-.01l.03-.03a.2.2 0 0 1-.12-.08.21.21 0 0 1 .14-.04l-.01-.03v-.03l.04.02a.5.5 0 0 1 .08.04l.06.04" fill="#c8b100" stroke="#000" stroke-width=".01"/><path d="M17.73 19.17a.2.2 0 0 0 .09-.12l.03.02.04.01-.01-.05-.01-.09-.03-.06a.08.08 0 0 1-.06.02.07.07 0 0 1-.05-.04l-.05.05-.04.08c0 .02-.03.05-.03.05h.05l.03-.01c0 .05.01.1.04.14M17.86 18.8v.04c0 .02 0 .03-.02.04l.06.05.08.04.04.01v-.02a.2.2 0 0 0 0-.04c.04 0 .1 0 .13-.03a.2.2 0 0 0-.12-.08l.02-.03.01-.02h-.14l-.06.03" fill="#c8b100" stroke="#000" stroke-width=".01"/><path d="M17.8 18.9c.04 0 .08-.03.08-.07 0-.05-.04-.08-.08-.08a.08.08 0 0 0-.09.08c0 .04.04.08.09.08" fill="#ad1519"/><path d="M17.8 18.9c.04 0 .08-.03.08-.07 0-.05-.04-.08-.08-.08a.08.08 0 0 0-.09.08c0 .04.04.08.09.08Z" fill="none" stroke="#000" stroke-width=".01"/><path d="M18.2 18.78c0 .03 0 .06.03.06s.05-.02.05-.05c0-.04 0-.07-.03-.07s-.05.02-.05.06" fill="#fff" stroke="#000" stroke-width=".01"/><path d="M18.6 18.85a.08.08 0 0 0-.01.05c0 .02 0 .04.02.05l-.07.05-.1.02-.05.01v-.02l.02-.04a.23.23 0 0 1-.15-.07.24.24 0 0 1 .15-.07l-.02-.03a12.91 12.91 0 0 0 .04-.02c.02 0 .07.01.1.03l.08.04" fill="#c8b100" stroke="#000" stroke-width=".01"/><path d="M18.67 19.3c.04-.04.07-.1.07-.15l.04.02h.05l-.02-.05-.04-.1c-.01-.04-.04-.07-.04-.07a.08.08 0 0 1-.13 0l-.03.07-.04.1-.02.05h.05a.1.1 0 0 0 .04-.02c0 .05.03.1.07.14" fill="#c8b100" stroke="#000" stroke-width=".01"/><path d="M18.73 18.85c.02.02.02.03.02.05 0 .02 0 .04-.02.05l.08.05.1.02.05.01-.01-.02a.35.35 0 0 0-.02-.04c.06 0 .11-.03.15-.07a.24.24 0 0 0-.15-.07l.02-.03v-.03l-.04.01c-.02 0-.07.01-.1.03l-.08.04" fill="#c8b100" stroke="#000" stroke-width=".01"/><path d="M18.67 18.98c.05 0 .08-.03.08-.08 0-.04-.03-.08-.08-.08a.08.08 0 0 0-.08.08c0 .05.03.08.08.08" fill="#ad1519"/><path d="M18.67 18.98c.05 0 .08-.03.08-.08 0-.04-.03-.08-.08-.08a.08.08 0 0 0-.08.08c0 .05.03.08.08.08Z" fill="none" stroke="#000" stroke-width=".01"/><path d="M19.15 18.78c0 .03-.01.06-.04.06-.02 0-.04-.02-.05-.05 0-.04.01-.07.04-.07.02 0 .04.02.05.06" fill="#fff" stroke="#000" stroke-width=".01"/><path d="M19.49 18.8c-.01 0-.02.02-.01.04l.02.04-.05.05-.09.04-.04.01v-.02l.01-.04a.21.21 0 0 1-.14-.03.2.2 0 0 1 .12-.08l-.02-.03v-.02h.13l.07.03M19.61 19.17a.2.2 0 0 1-.08-.12l-.03.02-.04.01v-.05c0-.01 0-.05.02-.09l.02-.06.06.02c.03 0 .04-.02.05-.04l.05.05.04.08.03.05h-.04l-.04-.01a.2.2 0 0 1-.04.14M19.6 18.77l.02.05v.04l.06.03a1.9 1.9 0 0 0 .14.01l-.01-.02-.02-.03a.2.2 0 0 0 .12-.08.21.21 0 0 0-.14-.04v-.06l-.03.02a.5.5 0 0 0-.09.04.4.4 0 0 0-.05.04" fill="#c8b100" stroke="#000" stroke-width=".01"/><path d="M19.55 18.9c.04 0 .08-.03.08-.07a.08.08 0 0 0-.08-.08.08.08 0 0 0-.08.08c0 .04.03.08.08.08" fill="#ad1519"/><path d="M19.55 18.9c.04 0 .08-.03.08-.07a.08.08 0 0 0-.08-.08.08.08 0 0 0-.08.08c0 .04.03.08.08.08Z" fill="none" stroke="#000" stroke-width=".01"/><path d="M19.97 18.62c.01.03 0 .06-.02.07-.02 0-.05-.01-.06-.05-.01-.03 0-.06.02-.07.02 0 .05.02.06.05" fill="#fff" stroke="#000" stroke-width=".01"/><path d="M20.28 18.6c0 .02.01.03.03.04.03.03.07.03.09.01 0 0 .05.07.1.1s.13.02.13.02c0 .06-.05.11-.12.11a.12.12 0 0 1-.09-.04v.04s-.06-.01-.08-.07c-.03-.06 0-.15 0-.15l-.04.07a.3.3 0 0 1-.1.06l-.04.03v-.06c-.05.01-.1 0-.15-.01a.19.19 0 0 1 .1-.1s-.02 0-.03-.02l-.02-.02h.05l.1-.02.07.01" fill="#c8b100" stroke="#000" stroke-width=".01"/><path d="M20.4 18.65c-.02.02-.06.02-.1 0-.02-.03-.03-.07-.01-.1.02-.01.06 0 .09.02s.04.06.02.08" fill="#ad1519" stroke="#000" stroke-width=".01"/><path d="M18.67 17.9c-.43 0-.8.05-1.1.13.3.07.67.12 1.1.12.43 0 .81-.05 1.1-.12-.29-.08-.67-.13-1.1-.13" fill="#ad1519"/><path d="M18.67 17.9c-.43 0-.8.05-1.1.13.3.07.67.12 1.1.12.43 0 .81-.05 1.1-.12-.29-.08-.67-.13-1.1-.13Z" fill="none" stroke="#000" stroke-width=".01" stroke-linejoin="round"/><path d="M18.77 17.9v.25m.09-.25v.25m.11-.24v.23M18.7 17.9v.25" fill="none"/><path d="M18.63 17.9v.25M18.57 17.9v.25M18.5 17.9v.25M18.45 17.9v.25M18.4 17.9v.25m-.06-.24v.23M18.29 17.92v.22m-.05-.22v.21" fill="none" stroke="#000" stroke-width=".01"/><path d="M18.2 17.93v.2m-.05-.2v.2m-.05-.2v.19M18.06 17.94v.18M18.01 17.95v.16M17.96 17.95v.16M17.92 17.96v.14m-.05-.14v.13M17.82 17.97v.11" fill="none" stroke="#000" stroke-width=".02"/><path d="M17.77 17.98v.1M17.72 18v.07M17.67 18v.05" fill="none" stroke="#000" stroke-width=".03"/><path d="M17.62 18.01v.03" fill="none" stroke="#000" stroke-width=".04"/><path d="M17.52 18.01c.3.09.7.14 1.15.14.45 0 .86-.05 1.16-.14" fill="none" stroke="#000" stroke-width=".01"/><path d="m17.39 18.19.04.06.13-.02-.1-.07Z" fill="#ad1519"/><path d="m17.39 18.19.04.06.13-.02-.1-.07-.07.03" fill="none" stroke="#000" stroke-width=".01"/><path d="M17.67 18.26c0 .02.02.04.04.04s.04-.02.04-.04-.02-.04-.04-.04-.04.02-.04.04" fill="#fff" stroke="#000" stroke-width=".01"/><path d="m18.04 18.27-.1-.01c-.02 0-.04 0-.04.03 0 .02.01.04.04.04l.09.02h.09c.02 0 .04 0 .05-.03a.04.04 0 0 0-.04-.04l-.1-.01" fill="#058e6e" stroke="#000" stroke-width=".01"/><path d="M18.3 18.33c0 .02.02.04.04.04.03 0 .05-.02.05-.04a.04.04 0 0 0-.05-.04.04.04 0 0 0-.04.04" fill="#fff" stroke="#000" stroke-width=".01"/><path d="M18.67 18.3h-.13c-.02 0-.04.02-.04.04s.02.04.04.04h.26c.02 0 .04-.02.04-.04s-.02-.04-.04-.04h-.13" fill="#ad1519" stroke="#000" stroke-width=".01"/><path d="M18.96 18.33c0 .02.02.04.04.04s.04-.02.04-.04a.04.04 0 0 0-.04-.04c-.02 0-.04.02-.04.04" fill="#fff" stroke="#000" stroke-width=".01"/><path d="m19.3 18.27.1-.01c.02 0 .04 0 .04.03 0 .02 0 .04-.03.04l-.1.02h-.09c-.02 0-.04 0-.04-.03 0-.02.01-.04.03-.04l.1-.01" fill="#058e6e" stroke="#000" stroke-width=".01"/><path d="M19.6 18.26c0 .02.01.04.03.04.03 0 .04-.02.04-.04s-.01-.04-.04-.04c-.02 0-.04.02-.04.04" fill="#fff" stroke="#000" stroke-width=".01"/><path d="m19.96 18.19-.05.06-.13-.02.1-.07Z" fill="#ad1519"/><path d="m19.96 18.19-.05.06-.13-.02.1-.07.08.03" fill="none" stroke="#000" stroke-width=".01"/><path d="M18.68 13.3c-.5 0-1 .12-1.42.33a.9.9 0 0 0-.5.81v1.28h3.85v-1.28a.9.9 0 0 0-.51-.81c-.42-.2-.91-.33-1.42-.33" fill="#ccc"/><path d="M18.68 13.3c-.5 0-1 .12-1.42.33a.9.9 0 0 0-.5.81v1.28h3.85v-1.28a.9.9 0 0 0-.51-.81c-.42-.2-.91-.33-1.42-.33Z" fill="none" stroke="#000" stroke-width=".02"/><path d="M18.78 13.87c.08-.03.12-.09.12-.16 0-.09-.09-.16-.2-.16-.12 0-.21.07-.21.16 0 .07.04.15.12.16l-.01.01-.03.03h.05c.02 0 .03-.02.03-.02s0 .02.02.03l.03.02.02-.02v-.03l.04.02.03.01v-.02l-.01-.03" fill="#ffd691" stroke="#000" stroke-width=".02"/><path d="M18.68 13.45s-.15.1-.22.12c-.09.02-.18 0-.22 0l.07-.05a.4.4 0 0 1 .13-.07c.12-.03.24 0 .24 0M18.72 13.44s.1.1.2.12c.12.02.2-.01.25-.02l-.06-.03c-.02-.02-.08-.07-.16-.07l-.19.01h-.04" fill="#058e6e" stroke="#000" stroke-width=".02"/><path d="M18.7 13.57a.2.2 0 0 0 0 .29.2.2 0 0 0 0-.29" fill="#ad1519" stroke="#000" stroke-width=".02"/><path d="M18.65 13.36s.03.06.03.11v.08h.02l.02-.08v-.09h-.04l-.03-.02" fill="#058e6e" stroke="#000" stroke-width=".02"/><path d="M18.68 14.44c0-.5-.43-.91-.96-.91-.54 0-.97.4-.97.91v1.28h1.93v-1.28" fill="#ad1519" stroke="#000" stroke-width=".02"/><path d="M16.75 14.46c0-.27.1-.47.22-.6v1.9h-.22Z" fill="#c8b100"/><path d="M16.75 14.46c0-.27.1-.47.22-.6v1.9h-.22Z" fill="none" stroke="#000" stroke-width=".02"/><path d="M17.17 13.69c.06-.03.14-.09.23-.1v2.18h-.23Z" fill="#c8b100"/><path d="M17.17 13.69c.06-.03.14-.09.23-.1v2.18h-.23Z" fill="none" stroke="#000" stroke-width=".02"/><path d="M17.6 13.53h.23v2.24h-.23Z" fill="#c8b100"/><path d="M17.6 13.53h.23v2.24h-.23Z" fill="none" stroke="#000" stroke-width=".02"/><path d="M18.03 13.58c.08.02.18.07.23.1v2.09h-.23Z" fill="#c8b100"/><path d="M18.03 13.58c.08.02.18.07.23.1v2.09h-.23Z" fill="none" stroke="#000" stroke-width=".02"/><path d="M18.47 13.88c.1.08.18.27.21.49v1.4h-.22Z" fill="#c8b100"/><path d="M18.47 13.88c.1.08.18.27.21.49v1.4h-.22Z" fill="none" stroke="#000" stroke-width=".02"/><path d="M20.61 15.72v-1.28c0-.5-.43-.91-.97-.91-.53 0-.96.4-.96.91v1.28h1.93" fill="#ad1519" stroke="#000" stroke-width=".02"/><path d="m19.4 13.84-.04-.05a.76.76 0 0 0-.16.08l.01.07a.7.7 0 0 1 .2-.1m.03.05.01.07a.56.56 0 0 0-.16.08l-.04-.04a.63.63 0 0 1 .19-.1m-.42.65.07-.02v-.09l.01-.08-.07-.02v.1zm-.05-.22-.07.02-.01.17.07.02v-.2m.42.43h-.11v-.07h.1zm-.36.37h-.06v-.1h.06zm.39-.7-.05.04-.07-.08.05-.04Zm.22-.7a.1.1 0 0 0-.1.07.69.69 0 0 0-.18.05l.04.05a.7.7 0 0 1 .15-.04.1.1 0 0 0 .06.06v.21l-.06.02v.17l.06.02v.3l-.16-.17.04-.06-.11-.13-.07.03-.13-.14a.1.1 0 0 0 0-.11.57.57 0 0 1 .12-.1l-.03-.06a.75.75 0 0 0-.14.12.11.11 0 0 0-.1.02.1.1 0 0 0-.01.14.63.63 0 0 0-.05.2h.07c0-.06.02-.11.04-.17h.05l.13.14-.04.05.12.14.06-.03.16.17-.01.02h-.1l-.03-.07h-.18l-.02.06h-.12a.1.1 0 0 0-.07-.06v-.15h-.06v.15a.1.1 0 0 0-.07.1c0 .04.03.08.07.1v.15l-.07.02v.17l.07.02v.15a.1.1 0 0 0-.07.1c0 .05.04.1.1.1a.1.1 0 0 0 .1-.07h.12l.02.06h.18l.02-.06h.1a.1.1 0 0 0 .1.07v-.33h-.03v-.1h.04v-.83h-.04v-.1h.04zm-.3 1.38-.05-.04.06-.07.05.04zm.27-.05-.06.02v.17l.06.02v.07a.1.1 0 0 0-.06.07h-.1l-.03-.07h-.18l-.02.07h-.12v-.03l.2-.23.06.03.12-.13-.04-.06.16-.17h.01zm-.61-.38c.02 0 .04.02.04.05 0 .02-.02.04-.04.04s-.05-.02-.05-.04c0-.03.03-.05.05-.05m.28.73h.1v.06h-.1Zm.27-.65v.01l-.16.18-.06-.02-.12.13.04.05-.2.23h-.02v-.15l.07-.02V15l-.07-.02v-.16a.1.1 0 0 0 .07-.06h.12l.02.06h.18l.02-.06Z" fill="#c8b100"/><path d="m19.4 13.84-.04-.05a.76.76 0 0 0-.16.08l.01.07a.7.7 0 0 1 .2-.1Zm.04.05.01.07a.56.56 0 0 0-.16.08l-.04-.04a.63.63 0 0 1 .19-.1Zm-.42.66.07-.02v-.09l.01-.08-.07-.02v.1zm-.05-.22-.07.02-.01.17.07.02v-.2zm.4.44h-.1v-.07h.1zm-.35.37h-.06v-.1h.06zm.39-.7-.05.04-.07-.08.05-.04Zm.22-.7a.1.1 0 0 0-.1.07.69.69 0 0 0-.18.05l.04.05a.7.7 0 0 1 .15-.04.1.1 0 0 0 .06.06v.21l-.06.02v.17l.06.02v.3l-.16-.17.04-.06-.11-.13-.07.03-.13-.14a.1.1 0 0 0 0-.11.57.57 0 0 1 .12-.1l-.03-.06a.75.75 0 0 0-.14.12.11.11 0 0 0-.1.02.1.1 0 0 0-.01.14.63.63 0 0 0-.05.2h.07c0-.06.02-.11.04-.17h.05l.13.14-.04.05.12.14.06-.03.16.17-.01.02h-.1l-.03-.07h-.18l-.02.06h-.12a.1.1 0 0 0-.07-.06v-.15h-.06v.15a.1.1 0 0 0-.07.1c0 .04.03.08.07.1v.15l-.07.02v.17l.07.02v.15a.1.1 0 0 0-.07.1c0 .05.04.1.1.1a.1.1 0 0 0 .1-.07h.12l.02.06h.18l.02-.06h.1a.1.1 0 0 0 .1.07v-.33h-.03v-.1h.04v-.83h-.04v-.1h.04zm-.3 1.38-.05-.04.06-.07.05.04zm.27-.05-.06.02v.17l.06.02v.07a.1.1 0 0 0-.06.07h-.1l-.03-.07h-.18l-.02.07h-.12v-.03l.2-.23.06.03.12-.13-.04-.06.16-.17h.01zm-.61-.38c.02 0 .04.02.04.05 0 .02-.02.04-.04.04s-.05-.02-.05-.04c0-.03.03-.05.05-.05zm.28.73h.1v.06h-.1Zm.27-.65v.01l-.16.18-.06-.02-.12.13.04.05-.2.23h-.02v-.15l.07-.02V15l-.07-.02v-.16a.1.1 0 0 0 .07-.06h.12l.02.06h.18l.02-.06Z" fill="none" stroke="#c8b100" stroke-width=".01"/><path d="m19.86 13.84.05-.05.16.08-.01.07a.7.7 0 0 0-.2-.1m-.03.05-.01.07.16.08.04-.04a.64.64 0 0 0-.19-.1m.42.65-.07-.02v-.09l-.01-.08.07-.02v.1zm.05-.22.07.02v.17l-.06.02v-.2m-.42.43H20v-.07h-.1Zm.36.37h.06v-.1h-.06Zm-.39-.7.05.04.07-.08-.05-.04Zm-.22-.7a.1.1 0 0 1 .1.07c.06 0 .12.02.17.05l-.03.05a.67.67 0 0 0-.15-.04.1.1 0 0 1-.06.06v.21l.06.02v.17l-.07.02v.3h.01l.16-.17-.04-.06.11-.13.07.03.12-.14a.1.1 0 0 1 0-.11.55.55 0 0 0-.12-.1l.04-.06c.05.03.1.07.14.12.04 0 .07 0 .1.02.05.04.05.1.01.14a.6.6 0 0 1 .05.2h-.07a.57.57 0 0 0-.04-.17h-.05l-.13.14.04.05-.12.14-.06-.03-.16.17v.02h.12l.01-.07h.19l.02.06h.12a.1.1 0 0 1 .07-.06v-.15h.06v.15a.1.1 0 0 1 .07.1.1.1 0 0 1-.07.1v.15l.07.02v.17l-.07.02v.15a.1.1 0 0 1 .07.1.1.1 0 0 1-.1.1.1.1 0 0 1-.1-.07h-.12l-.02.06h-.18l-.02-.06h-.1a.1.1 0 0 1-.1.07v-.33h.03v-.1h-.04v-.83h.03v-.1h-.03zm.3 1.38.05-.04-.07-.07-.04.04Zm-.27-.05.06.02v.17l-.06.02v.07a.1.1 0 0 1 .06.07h.1l.03-.07h.18l.02.07h.12v-.03l-.2-.23-.06.03-.12-.13.04-.06-.16-.17h-.01zm.6-.38a.04.04 0 0 0-.03.05c0 .02.02.04.04.04s.04-.02.04-.04c0-.03-.02-.05-.04-.05m-.28.73h-.1v.06h.1Zm-.27-.65v.01l.16.18.06-.02.12.13-.04.05.2.23h.02v-.15l-.07-.02V15l.07-.02v-.16a.1.1 0 0 1-.07-.06h-.12l-.02.06h-.19l-.01-.06Z" fill="#c8b100"/><path d="m19.86 13.84.05-.05.16.08-.01.07a.7.7 0 0 0-.2-.1Zm-.03.05-.01.07.16.08.04-.04a.64.64 0 0 0-.19-.1Zm.42.66-.07-.02v-.09l-.01-.08.07-.02v.1zm.05-.22.07.02v.17l-.06.02v-.2Zm-.4.44h.1v-.07h-.1Zm.35.37h.06v-.1h-.06Zm-.39-.7.05.04.07-.08-.05-.04Zm-.22-.7a.1.1 0 0 1 .1.07c.06 0 .12.02.17.05l-.03.05a.67.67 0 0 0-.15-.04.1.1 0 0 1-.06.06v.21l.06.02v.17l-.07.02v.3h.01l.16-.17-.04-.06.11-.13.07.03.12-.14a.1.1 0 0 1 0-.11.55.55 0 0 0-.12-.1l.04-.06c.05.03.1.07.14.12.04 0 .07 0 .1.02.05.04.05.1.01.14a.6.6 0 0 1 .05.2h-.07a.57.57 0 0 0-.04-.17h-.05l-.13.14.04.05-.12.14-.06-.03-.16.17v.02h.12l.01-.07h.19l.02.06h.12a.1.1 0 0 1 .07-.06v-.15h.06v.15a.1.1 0 0 1 .07.1.1.1 0 0 1-.07.1v.15l.07.02v.17l-.07.02v.15a.1.1 0 0 1 .07.1.1.1 0 0 1-.1.1.1.1 0 0 1-.1-.07h-.12l-.02.06h-.18l-.02-.06h-.1a.1.1 0 0 1-.1.07v-.33h.03v-.1h-.04v-.83h.03v-.1h-.03zm.3 1.38.05-.04-.07-.07-.04.04Zm-.27-.05.06.02v.17l-.06.02v.07a.1.1 0 0 1 .06.07h.1l.03-.07h.18l.02.07h.12v-.03l-.2-.23-.06.03-.12-.13.04-.06-.16-.17h-.01zm.6-.38a.04.04 0 0 0-.03.05c0 .02.02.04.04.04s.04-.02.04-.04c0-.03-.02-.05-.04-.05zm-.27.73h-.1v.06h.1Zm-.27-.65v.01l.16.18.06-.02.12.13-.04.05.2.23h.02v-.15l-.07-.02V15l.07-.02v-.16a.1.1 0 0 1-.07-.06h-.12l-.02.06h-.19l-.01-.06Z" fill="none" stroke="#c8b100" stroke-width=".01"/><path d="M19.53 14.74c0 .05.05.1.1.1a.1.1 0 0 0 .11-.1c0-.06-.04-.1-.1-.1a.1.1 0 0 0-.1.1" fill="#058e6e"/><path d="M16.75 15.72h1.93v2.14h-1.93z" fill="#ad1519" stroke="#000" stroke-width=".02"/><path d="M17.92 17.26h.14m-.41.22h.13m-.4-.22h.14m.2.12v.07m0-.21v.07m0-.29v.07m0-.2v.06m0-.35v.07m0 .07v.07m0-.36v.08m.27.7v-.07m-.13-.07v-.07m.26.07v-.07m-.06 0v-.07m-.14.07v-.07m-.14.07v-.07m.08 0v-.07m.13.07v-.07m.13.07v-.07m-.06 0v-.07m-.14.07v-.07m-.14.07v-.07m.08 0v-.07m-.08 0v-.07m0-.07v-.07m.08-.08v.08m-.08-.08v-.08m.14.08v-.08m.14.08v-.08m-.2-.06v.06m.06-.06v-.08m.27 0v.08m-.13-.08v.08m-.07.14v.08m0-.22v.06m0-.2v.06m0-.21v.07m.07 0v.07m.13 0v-.07m-.07.07v.07m0-.21v.07m0 1.23h-.27m.21-.08h-.14m-.47 0v-.08m.13-.07v-.07m-.27.07v-.07m.07 0v-.07m.14.07v-.07m.13.07v-.07m-.07 0v-.07m-.13.07v-.07m-.14.07v-.07m.07 0v-.07m.14.07v-.07m.13.07v-.07m-.07 0v-.07m.07 0v-.07m0-.07v-.07m-.07-.08v.08m.07-.08v-.08m-.13.08v-.08m-.14.08v-.08m.2-.06v.06m-.06-.06v-.08m-.28 0v.08m.14-.08v.08m.07.14v.08m0-.22v.06m0-.2v.06m0-.21v.07m-.07 0v.07m-.14 0v-.07m.07.07v.07m0-.21v.07m0 1.23h.27m-.2-.08h.14m.06.3h.28m-.21-.09h.13m-.13-.07h.13m-.13-.07h.13m-.13-.07h.13m-.4-.08h.68m-.82-.07h.95m-.95-.07h.95m-.95-.07h.95m-.95-.07h.95m-.88-.07h.81m-.8-.07h.8m-.8-.07h.8m-.8-.07h.8m-.8-.07h.8m-.8-.08h.8m-.8-.08h.8m-.95-.06h1.1m-1.1-.08h1.1m-1.1-.07h1.1m-1.1-.07h1.1m-1.1-.07h1.1m-.86 1.35h-.03v.03h-.07v-.14h.07v-.1h-.14v-.28h.07v-.57h-.14v-.29h1.1v.3h-.15v.56h.07v.28h-.13v.1h.06v.14h-.06v-.03h-.04v.03h-.06v-.03h-.04v.03h-.07v-.14h.07v-.1h-.14v.32h.08v.14h-.08v-.04h-.03v.04h-.06v-.04h-.04v.04h-.07v-.14h.07v-.32h-.13v.1h.06v.14h-.06v-.03h-.04v.03h-.07z" fill="#c8b100"/><path d="M17.92 17.26h.14m-.41.22h.13m-.4-.22h.14m.2.12v.07m0-.21v.07m0-.29v.07m0-.2v.06m0-.35v.07m0 .07v.07m0-.36v.08m.27.7v-.07m-.13-.07v-.07m.26.07v-.07m-.06 0v-.07m-.14.07v-.07m-.14.07v-.07m.08 0v-.07m.13.07v-.07m.13.07v-.07m-.06 0v-.07m-.14.07v-.07m-.14.07v-.07m.08 0v-.07m-.08 0v-.07m0-.07v-.07m.08-.08v.08m-.08-.08v-.08m.14.08v-.08m.14.08v-.08m-.2-.06v.06m.06-.06v-.08m.27 0v.08m-.13-.08v.08m-.07.14v.08m0-.22v.06m0-.2v.06m0-.21v.07m.07 0v.07m.13 0v-.07m-.07.07v.07m0-.21v.07m0 1.23h-.27m.21-.08h-.14m-.47 0v-.08m.13-.07v-.07m-.27.07v-.07m.07 0v-.07m.14.07v-.07m.13.07v-.07m-.07 0v-.07m-.13.07v-.07m-.14.07v-.07m.07 0v-.07m.14.07v-.07m.13.07v-.07m-.07 0v-.07m.07 0v-.07m0-.07v-.07m-.07-.08v.08m.07-.08v-.08m-.13.08v-.08m-.14.08v-.08m.2-.06v.06m-.06-.06v-.08m-.28 0v.08m.14-.08v.08m.07.14v.08m0-.22v.06m0-.2v.06m0-.21v.07m-.07 0v.07m-.14 0v-.07m.07.07v.07m0-.21v.07m0 1.23h.27m-.2-.08h.14m.06.3h.28m-.21-.09h.13m-.13-.07h.13m-.13-.07h.13m-.13-.07h.13m-.4-.08h.68m-.82-.07h.95m-.95-.07h.95m-.95-.07h.95m-.95-.07h.95m-.88-.07h.81m-.8-.07h.8m-.8-.07h.8m-.8-.07h.8m-.8-.07h.8m-.8-.08h.8m-.8-.08h.8m-.95-.06h1.1m-1.1-.08h1.1m-1.1-.07h1.1m-1.1-.07h1.1m-1.1-.07h1.1m-.86 1.35h-.03v.03h-.07v-.14h.07v-.1h-.14v-.28h.07v-.57h-.14v-.29h1.1v.3h-.15v.56h.07v.28h-.13v.1h.06v.14h-.06v-.03h-.04v.03h-.06v-.03h-.04v.03h-.07v-.14h.07v-.1h-.14v.32h.08v.14h-.08v-.04h-.03v.04h-.06v-.04h-.04v.04h-.07v-.14h.07v-.32h-.13v.1h.06v.14h-.06v-.03h-.04v.03h-.07z" fill="none" stroke="#000" stroke-width=".02"/><path d="M17.9 16.02v.19c0 .03-.02.14-.19.14-.16 0-.17-.1-.17-.14V16Z" fill="#c8b100"/><path d="M17.9 16.02v.19c0 .03-.02.14-.19.14-.16 0-.17-.1-.17-.14V16Z" fill="none" stroke="#000" stroke-width=".02"/><path d="M17.6 16.2h-.1c0 .04.02.1.04.11l.08-.06-.02-.05" fill="#c8b100"/><path d="M17.6 16.2h-.1c0 .04.02.1.04.11l.08-.06-.02-.05Z" fill="none" stroke="#000" stroke-width=".02"/><path d="m17.75 16.29.04.08a.21.21 0 0 1-.08.01.2.2 0 0 1-.07-.01l.05-.08Z" fill="#c8b100"/><path d="m17.75 16.29.04.08a.21.21 0 0 1-.08.01.2.2 0 0 1-.07-.01l.05-.08Z" fill="none" stroke="#000" stroke-width=".02"/><path d="M17.84 16.2h.09c0 .04-.01.1-.04.11l-.08-.06s.03-.03.03-.05" fill="#c8b100"/><path d="M17.84 16.2h.09c0 .04-.01.1-.04.11l-.08-.06s.03-.03.03-.05Z" fill="none" stroke="#000" stroke-width=".02"/><path d="M17.58 16.5v.2a.1.1 0 0 1-.1.1c-.06 0-.1-.04-.1-.1v-.2Z" fill="#c8b100"/><path d="M17.58 16.5v.2a.1.1 0 0 1-.1.1c-.06 0-.1-.04-.1-.1v-.2Z" fill="none" stroke="#000" stroke-width=".02"/><path d="M17.85 16.5v.2c0 .06.04.1.1.1.06 0 .1-.04.1-.1v-.2Z" fill="#c8b100"/><path d="M17.85 16.5v.2c0 .06.04.1.1.1.06 0 .1-.04.1-.1v-.2Z" fill="none" stroke="#000" stroke-width=".02"/><path d="M17.52 16.99v.18h-.16l.02-.18Z" fill="#c8b100"/><path d="M17.52 16.99v.18h-.16l.02-.18Z" fill="none" stroke="#000" stroke-width=".02"/><path d="m17.78 16.99.02.18h-.17l.01-.18Z" fill="#c8b100"/><path d="m17.78 16.99.02.18h-.17l.01-.18Z" fill="none" stroke="#000" stroke-width=".02"/><path d="m17.92 16.99-.02.18h.18l-.02-.18Z" fill="#c8b100"/><path d="m17.92 16.99-.02.18h.18l-.02-.18Z" fill="none" stroke="#000" stroke-width=".02"/><path d="M17.84 16.02v.16c0 .03-.02.1-.13.1a.1.1 0 0 1-.11-.1v-.16ZM17.56 16.53v.16c0 .05-.02.1-.08.1-.05 0-.08-.05-.08-.1v-.16ZM17.87 16.53v.16c0 .05.03.1.08.1.06 0 .08-.05.08-.1v-.16Z" fill="#0039f0"/><path d="M18.68 15.72h1.93v2.14h-1.93z" fill="#ccc" stroke="#000" stroke-width=".02"/><path d="M19.66 17.34v.03h-.09a.23.23 0 0 0-.09.06c-.03.02-.04.04-.06.04a.15.15 0 0 1-.1-.01s.04-.02.07-.06a.18.18 0 0 1 .08-.05h.12l.07-.01" fill="#db4446"/><path d="M19.66 17.34v.03h-.09a.23.23 0 0 0-.09.06c-.03.02-.04.04-.06.04a.15.15 0 0 1-.1-.01s.04-.02.07-.06a.18.18 0 0 1 .08-.05h.12l.07-.01Z" fill="none" stroke="#000" stroke-width=".01"/><path d="M19.95 17.42v-.11l.01-.04.01-.03-.03.02-.02.01v-.04l.02-.04.04-.05v-.06s-.01.03-.03.03l-.04.03s.03-.03.03-.06l-.02-.06-.03.04-.04.03.02-.07v-.1l-.04.04-.04.03.02-.04c0-.02.02-.1.08-.18.03-.06.09-.15.2-.12.13.03.08.2.06.27a.74.74 0 0 0-.04.19c0 .02.03.1.02.13a.3.3 0 0 0 0 .12c.02.05.04.07.04.1l.02.05v.05l.03-.06v-.06s.01.05.05.07l.08.05.01.02s0-.07-.02-.1a3.61 3.61 0 0 0-.07-.08l.05.01h.03l-.05-.06c-.04-.04-.02-.05-.04-.09l-.07-.06c-.05-.03-.02-.16-.02-.18 0-.02.08-.19.08-.23 0-.03.01-.12-.06-.18-.04-.04-.12-.04-.13-.05-.02 0-.05-.04-.05-.1 0-.08.02-.09.04-.1.02-.02.05-.01.05-.03 0-.01 0-.02.02-.03v-.03l-.04-.07a.6.6 0 0 1-.03-.1v-.05s.04-.04.02-.04h-.04l-.04-.01-.01.03-.01.02-.01-.01c0-.01 0-.04-.02-.04l-.03.02-.03.02.03.04c.01 0 .03.01.02.02h-.06v.04s-.02.02 0 .03h.06c.02 0 .03 0 .04.02v.06l-.04.03-.02.04v-.09l-.02.03c-.02.01-.03.05-.03.05v-.05l.01-.03-.04.03-.04.04-.02.05v.07l.02.04h-.06l-.06-.01.01-.11.02-.09a.11.11 0 0 0-.03-.03h-.08l-.05.01c-.01 0-.04.02-.05.01-.01 0-.03-.01-.02-.02 0-.03-.01-.03-.02-.03h-.04c-.01.01-.03 0-.03.02l.01.03v.02h-.02l-.03-.02-.02.04c0 .03-.02.05 0 .05s.05-.02.06 0l-.01.02c-.01.01-.03.02-.01.03.01.02.02.02.03.02 0 .01.01.04.02.03.03-.01 0-.03.03-.06.02-.02.04-.03.08-.03s.05.01.05.02v.08l-.02-.02-.02-.03v.07a.3.3 0 0 1 0 .04l-.02-.04v-.04s-.03.03-.02.06v.08c0 .01.03.06.08.07h.19l-.14.08a.4.4 0 0 0-.08.09l-.03.06-.04-.01a.16.16 0 0 1-.05-.04.35.35 0 0 1-.02-.04v.08s-.01-.05-.04-.07a1.03 1.03 0 0 1-.06-.04v.03l.01.04s-.02-.03-.05-.03c-.02-.01-.06 0-.07-.03v-.05a.06.06 0 0 0-.02-.02l-.03.01h-.03v.02l.02.04-.04-.01h-.03v.05l.01.02h.05c0 .01-.01.03-.03.03-.03 0-.04.02-.03.03l.03.03s0 .02.02.01c.02 0 .02-.03.04-.03h.09l.05.04c.02 0 .06.05.06.05l-.04.03-.04.04a.34.34 0 0 1-.07.02.42.42 0 0 0-.06.02l.03.01.03.02h-.05l-.05.03h-.03l.06.02h.04l-.05.02-.02.04c0 .01-.01.02-.03.02h-.04c-.01 0-.02 0-.02.02v.02c-.01 0-.03.03-.01.03h.05l-.03.04c-.01 0-.04.02-.02.03l.03.02c0 .01.01.04.03.03l.04-.05v.05s0 .03.02.03l.04-.02h.04a.1.1 0 0 0-.03-.05v-.05c0-.02.02-.05.04-.06l.07-.03.08-.06.04-.01h.04l.1.01c.03.01.05.03.05.05-.01.02-.06.03-.06.05l.05.02c.03 0 .07-.01.08.03 0 .04.01.07-.03.08-.04 0-.07 0-.08.04v.04l.05.01.07.01.03.04.06.01.1-.06.1-.09" fill="#ed72aa" stroke="#000" stroke-width=".01"/><path d="m19.51 16.86.06.03.04.04m-.26.04.04.04c.02 0 .04.03.05.03l.03.02m-.07.12s-.04-.01-.05-.03v-.04s.02.02.05.01h.1s-.03-.03-.02-.05v-.04l-.02-.07.04.02c.03 0 .05.02.07.03l.03.04v-.06l.01-.06.03.02.04.03.01.04.01-.05a.43.43 0 0 0 .03-.07l.02.05.03.04v.03l.01-.03M19.92 17.27l-.02.03v.02M19.75 16.64s.08-.05.08-.09c0-.04-.04-.1-.04-.1" fill="none" stroke="#000" stroke-width=".01"/><path d="M19.55 17.45v.03h-.01.03l-.01-.02"/><path d="M19.55 17.45v.03h-.01.03l-.01-.02Z" fill="none" stroke="#000" stroke-width=".01"/><path d="M19.7 17.5v.02h.05a.1.1 0 0 0 .03-.05l-.03.02h-.03v.01z"/><path d="M19.7 17.5v.02h.05a.1.1 0 0 0 .03-.05l-.03.02h-.03v.01z" fill="none"/><path d="m19.55 17.3.02.02v-.02Z"/><path d="m19.55 17.3.02.02v-.02h-.02" fill="none" stroke="#000" stroke-width=".01"/><path d="m19.58 17.3.02.02.01-.01Z"/><path d="m19.58 17.3.02.02.01-.01h-.03" fill="none" stroke="#000" stroke-width=".01"/><path d="m19.57 17.43.03-.01-.03-.02Z"/><path d="m19.57 17.43.03-.01-.03-.02v.03" fill="none" stroke="#000" stroke-width=".01"/><path d="M19.6 17.42h.04l-.03-.02Z"/><path d="M19.6 17.42h.04l-.03-.02v.02" fill="none" stroke="#000" stroke-width=".01"/><path d="m19.12 17.46.04-.02h.03v.04c0 .04-.05.05-.05.05v-.04c0-.02-.02-.03-.02-.03" fill="#db4446"/><path d="m19.12 17.46.04-.02h.03v.04c0 .04-.05.05-.05.05v-.04c0-.02-.02-.03-.02-.03Z" fill="none" stroke="#000" stroke-width=".01"/><path d="M19.03 17.42s-.01.03-.05.02a.1.1 0 0 1-.05-.03h.04c.02-.01.02-.03.02-.03s.02 0 .03.02l.01.02" fill="#db4446"/><path d="M19.03 17.42s-.01.03-.05.02a.1.1 0 0 1-.05-.03h.04c.02-.01.02-.03.02-.03s.02 0 .03.02l.01.02Z" fill="none" stroke="#000" stroke-width=".01"/><path d="M19 17.3s-.04 0-.05-.02c-.02-.02-.02-.06-.02-.06l.04.02H19v.03l-.02.03" fill="#db4446"/><path d="M19 17.3s-.04 0-.05-.02c-.02-.02-.02-.06-.02-.06l.04.02H19v.03l-.02.03Z" fill="none" stroke="#000" stroke-width=".01"/><path d="M19.1 16.91s-.03.02-.05.01c-.03 0-.05-.04-.05-.04h.08l.01.03" fill="#db4446"/><path d="M19.1 16.91s-.03.02-.05.01c-.03 0-.05-.04-.05-.04h.08l.01.03Z" fill="none" stroke="#000" stroke-width=".01"/><path d="M19.06 16.8s-.03 0-.05-.02c-.02-.01-.02-.05-.02-.05l.04.02.03-.01v.06" fill="#db4446"/><path d="M19.06 16.8s-.03 0-.05-.02c-.02-.01-.02-.05-.02-.05l.04.02.03-.01v.06Z" fill="none" stroke="#000" stroke-width=".01"/><path d="M19.11 16.69s0-.03.02-.05c.01-.02.04-.02.04-.02l-.01.03.01.03-.03.01h-.03" fill="#db4446"/><path d="M19.11 16.69s0-.03.02-.05c.01-.02.04-.02.04-.02l-.01.03.01.03-.03.01h-.03Z" fill="none" stroke="#000" stroke-width=".01"/><path d="M19.4 16.42s-.02.02-.05.02a.12.12 0 0 1-.06-.02l.05-.01.01-.03.02.02.03.02" fill="#db4446"/><path d="M19.4 16.42s-.02.02-.05.02a.12.12 0 0 1-.06-.02l.05-.01.01-.03.02.02.03.02Z" fill="none" stroke="#000" stroke-width=".01"/><path d="m19.31 16.31-.05-.01c-.02-.02-.02-.05-.02-.05l.04.02.05-.01-.01.03v.02" fill="#db4446"/><path d="m19.31 16.31-.05-.01c-.02-.02-.02-.05-.02-.05l.04.02.05-.01-.01.03v.02Z" fill="none" stroke="#000" stroke-width=".01"/><path d="M19.39 16.2s-.02-.03 0-.05a.1.1 0 0 1 .04-.03s-.02.02-.01.04l.03.03z" fill="#db4446"/><path d="M19.39 16.2s-.02-.03 0-.05a.1.1 0 0 1 .04-.03s-.02.02-.01.04l.03.03z" fill="none" stroke="#000" stroke-width=".01"/><path d="M19.87 16.15h-.05c-.02-.01-.03-.06-.03-.06s.02.03.05.03c.02 0 .03-.02.03-.02v.05" fill="#db4446"/><path d="M19.87 16.15h-.05c-.02-.01-.03-.06-.03-.06s.02.03.05.03c.02 0 .03-.02.03-.02v.05Z" fill="none" stroke="#000" stroke-width=".01"/><path d="M19.88 16.04s-.02-.03-.01-.05l.02-.04v.04l.05.01-.03.02-.03.02" fill="#db4446"/><path d="M19.88 16.04s-.02-.03-.01-.05l.02-.04v.04l.05.01-.03.02-.03.02Z" fill="none" stroke="#000" stroke-width=".01"/><path d="M20 16s-.01-.03.01-.05l.04-.02v.05l.01.02-.03.01L20 16" fill="#db4446"/><path d="M20 16s-.01-.03.01-.05l.04-.02v.05l.01.02-.03.01L20 16Z" fill="none" stroke="#000" stroke-width=".01"/><path d="M19.93 17.59h-.01l-.01-.02h-.04v.02h-.02v.05h-.02v-.01c0-.01-.02-.02-.03-.01v.01c-.03 0-.04.04-.04.05V17.62a.4.4 0 0 0-.01-.05c.03 0 .07-.03.11-.06a.32.32 0 0 0 .1-.1l.04.03h.05v.01s-.05 0-.05.02c-.02.01-.02.02 0 .03v.02h-.05v.01h-.03v.03l.01.02Z" fill="#c8b100"/><path d="M19.93 17.59h-.01l-.01-.02h-.04v.02h-.02v.05h-.02v-.01c0-.01-.02-.02-.03-.01v.01c-.03 0-.04.04-.04.05V17.62a.4.4 0 0 0-.01-.05c.03 0 .07-.03.11-.06a.32.32 0 0 0 .1-.1l.04.03h.05v.01s-.05 0-.05.02c-.02.01-.02.02 0 .03v.02h-.05v.01h-.03v.03l.01.02Z" fill="none" stroke="#000" stroke-width=".01"/><path d="M19.84 17.56h.01"/><path d="M19.84 17.56h.01Z" fill="none"/><path d="m19.88 17.53-.01.01h.01l.02-.01c0-.01 0-.01 0 0h-.02M19.81 17.58h-.01v.01h.02v-.01s.01 0 0 0c0-.01 0-.01 0 0M19.77 17.6h.01"/><path d="M19.77 17.6h.01Z" fill="none"/><path d="M19.92 17.5v.01h-.01.01"/><path d="M19.92 17.5v.01h-.01.01Z" fill="none"/><path d="m19.94 17.48.01-.01v.01l-.01.01c-.01 0 0 0 0 0v-.01M19.98 17.45h-.01"/><path d="M19.98 17.45h-.01Z" fill="none"/><path d="M19.87 17.68h-.02v-.04l.03.02z" fill="#c8b100"/><path d="M19.87 17.68h-.02v-.04l.03.02v.02" fill="none" stroke="#000" stroke-width=".01"/><path d="M19.87 17.68h-.02v-.04l.03.02z" fill="#c8b100"/><path d="M19.87 17.68h-.02v-.04l.03.02v.02" fill="none" stroke="#000" stroke-width=".01"/><path d="M19.81 17.66v-.02h.04l-.02.03Z" fill="#c8b100"/><path d="M19.81 17.66v-.02h.04l-.02.03-.02-.01" fill="none" stroke="#000" stroke-width=".01"/><path d="m19.88 17.62-.02-.01-.02.03h.04z" fill="#c8b100"/><path d="m19.88 17.62-.02-.01-.02.03h.04v-.02" fill="none" stroke="#000" stroke-width=".01"/><path d="M19.84 17.64h.01s.01 0 0 0c0-.01 0-.01 0 0h-.01" fill="#c8b100"/><path d="M19.84 17.64h.01s.01 0 0 0c0-.01 0-.01 0 0h-.01Z" fill="none" stroke="#000" stroke-width=".01"/><path d="m19.76 17.68-.02.03v.01h.02c.02-.01 0-.03 0-.03v-.01" fill="#c8b100"/><path d="m19.76 17.68-.02.03v.01h.02c.02-.01 0-.03 0-.03v-.01Z" fill="none" stroke="#000" stroke-width=".01"/><path d="m19.8 17.67-.02-.02-.03.03h.04z" fill="#c8b100"/><path d="m19.8 17.67-.02-.02-.03.03h.04v-.01" fill="none" stroke="#000" stroke-width=".01"/><path d="M19.75 17.68h.01v-.01.01" fill="#c8b100"/><path d="M19.75 17.68h.01v-.01.01Z" fill="none" stroke="#000" stroke-width=".01"/><path d="M19.96 17.62h-.02l-.01-.03.04.01z" fill="#c8b100"/><path d="M19.96 17.62h-.02l-.01-.03.04.01-.01.02" fill="none" stroke="#000" stroke-width=".01"/><path d="M19.9 17.61v-.02h.03l-.01.03z" fill="#c8b100"/><path d="M19.9 17.61v-.02h.03l-.01.03h-.02" fill="none" stroke="#000" stroke-width=".01"/><path d="M19.96 17.56h-.02l-.02.03h.05Z" fill="#c8b100"/><path d="M19.96 17.56h-.02l-.02.03h.05v-.03" fill="none" stroke="#000" stroke-width=".01"/><path d="M19.92 17.6h.02v-.02h-.02v.01" fill="#c8b100"/><path d="M19.92 17.6h.02v-.02h-.02v.01Z" fill="none" stroke="#000" stroke-width=".01"/><path d="M20.04 17.55v-.02H20l.01.03z" fill="#c8b100"/><path d="M20.04 17.55v-.02H20l.01.03h.03" fill="none" stroke="#000" stroke-width=".01"/><path d="m20.03 17.5-.02-.01-.01.03h.04Z" fill="#c8b100"/><path d="m20.03 17.5-.02-.01-.01.03h.04l-.01-.03" fill="none" stroke="#000" stroke-width=".01"/><path d="M19.97 17.55v-.02l.03-.01v.04z" fill="#c8b100"/><path d="M19.97 17.55v-.02l.03-.01v.04h-.03" fill="none" stroke="#000" stroke-width=".01"/><path d="M20 17.51v.02-.02" fill="#c8b100"/><path d="M20 17.51v.02-.02Z" fill="none" stroke="#000" stroke-width=".01"/><path d="M20.06 17.45h.03l.02-.02-.01.03h-.03v-.01" fill="#c8b100"/><path d="M20.06 17.45h.03l.02-.02-.01.03h-.03v-.01Z" fill="none" stroke="#000" stroke-width=".01"/><path d="m20.04 17.48-.01-.02.03-.02v.04z" fill="#c8b100"/><path d="m20.04 17.48-.01-.02.03-.02v.04h-.02" fill="none" stroke="#000" stroke-width=".01"/><path d="m20.06 17.44.01.01h-.02.01" fill="#c8b100"/><path d="m20.06 17.44.01.01h-.02.01Z" fill="none" stroke="#000" stroke-width=".01"/><path d="M18.68 16.44c.35 0 .63-.32.63-.7 0-.4-.28-.71-.63-.71-.34 0-.62.31-.62.7 0 .4.28.7.62.7" fill="#ad1519"/><path d="M18.68 16.44c.35 0 .63-.32.63-.7 0-.4-.28-.71-.63-.71-.34 0-.62.31-.62.7 0 .4.28.7.62.7Z" fill="none" stroke="#000" stroke-width=".02"/><path d="M18.68 16.25c.25 0 .44-.23.44-.52 0-.28-.2-.51-.44-.51s-.44.23-.44.51c0 .29.2.52.44.52" fill="#005bbf"/><path d="M18.68 16.25c.25 0 .44-.23.44-.52 0-.28-.2-.51-.44-.51s-.44.23-.44.51c0 .29.2.52.44.52Z" fill="none" stroke="#000" stroke-width=".02"/><path d="M18.47 16.09s-.05-.06-.05-.11c0-.06.03-.1.03-.1-.01.02-.03.04-.06.04a.06.06 0 0 1-.06-.06l.01-.03.02-.03.04.02c.02 0 .04-.02.04-.04v-.01h-.05v-.04h.04l-.03-.06.04.01.03-.03.04.03.04-.01-.03.06h.04v.04h-.05c0 .03.02.05.04.05l.04-.02.02.03v.03c0 .03-.02.06-.05.06a.06.06 0 0 1-.05-.04s.02.04.02.1c0 .05-.06.1-.06.1" fill="#c8b100"/><path d="M18.47 16.09s-.05-.06-.05-.11c0-.06.03-.1.03-.1-.01.02-.03.04-.06.04a.06.06 0 0 1-.06-.06l.01-.03.02-.03.04.02c.02 0 .04-.02.04-.04v-.01h-.05v-.04h.04l-.03-.06.04.01.03-.03.04.03.04-.01-.03.06h.04v.04h-.05c0 .03.02.05.04.05l.04-.02.02.03v.03c0 .03-.02.06-.05.06a.06.06 0 0 1-.05-.04s.02.04.02.1c0 .05-.06.1-.06.1Z" fill="none" stroke="#000" stroke-width=".01" stroke-linejoin="round"/><path d="M18.4 15.73h.16v.04h-.17z" fill="#c8b100" stroke="#000" stroke-width=".01"/><path d="M18.88 16.09s-.05-.06-.05-.11c0-.06.02-.1.02-.1 0 .02-.03.04-.05.04-.03 0-.06-.03-.06-.06l.01-.03.02-.03.04.02c.02 0 .04-.02.04-.04v-.01h-.05v-.04h.04l-.03-.06.04.01.03-.03.04.03.04-.01-.03.06h.04v.04h-.05c0 .03.02.05.04.05l.04-.02.02.03v.03c0 .03-.02.06-.05.06a.06.06 0 0 1-.06-.04s.03.04.03.1c0 .05-.06.1-.06.1" fill="#c8b100"/><path d="M18.88 16.09s-.05-.06-.05-.11c0-.06.02-.1.02-.1 0 .02-.03.04-.05.04-.03 0-.06-.03-.06-.06l.01-.03.02-.03.04.02c.02 0 .04-.02.04-.04v-.01h-.05v-.04h.04l-.03-.06.04.01.03-.03.04.03.04-.01-.03.06h.04v.04h-.05c0 .03.02.05.04.05l.04-.02.02.03v.03c0 .03-.02.06-.05.06a.06.06 0 0 1-.06-.04s.03.04.03.1c0 .05-.06.1-.06.1Z" fill="none" stroke="#000" stroke-width=".01" stroke-linejoin="round"/><path d="M18.8 15.73h.17v.04h-.17z" fill="#c8b100" stroke="#000" stroke-width=".01"/><path d="M18.68 15.74s-.05-.06-.05-.11c0-.06.02-.1.02-.1 0 .02-.03.04-.06.04a.06.06 0 0 1-.05-.06v-.03l.03-.04c0 .02.02.03.03.03.02 0 .04-.02.04-.04v-.01h-.04v-.04h.04l-.03-.06.04.01.03-.03.03.03.04-.01-.03.06h.04v.04h-.04c0 .03.01.05.04.05.01 0 .03-.01.03-.03l.02.04.01.03c0 .03-.02.06-.06.06a.06.06 0 0 1-.05-.04s.02.04.02.1c0 .05-.05.1-.05.1" fill="#c8b100"/><path d="M18.68 15.74s-.05-.06-.05-.11c0-.06.02-.1.02-.1 0 .02-.03.04-.06.04a.06.06 0 0 1-.05-.06v-.03l.03-.04c0 .02.02.03.03.03.02 0 .04-.02.04-.04v-.01h-.04v-.04h.04l-.03-.06.04.01.03-.03.03.03.04-.01-.03.06h.04v.04h-.04c0 .03.01.05.04.05.01 0 .03-.01.03-.03l.02.04.01.03c0 .03-.02.06-.06.06a.06.06 0 0 1-.05-.04s.02.04.02.1c0 .05-.05.1-.05.1Z" fill="none" stroke="#000" stroke-width=".01" stroke-linejoin="round"/><path d="M18.6 15.38h.16v.04h-.16z" fill="#c8b100" stroke="#000" stroke-width=".01"/></g><g clip-path="url(#c)" transform="matrix(1.33333 0 0 -1.33333 0 40)"><path d="M8.3 10.46a.21.21 0 0 1-.05.03l-.4.2-.06.44c0 .01 0 .03-.02.05l-.2.39.2.38.02.06.06.43.4.2c.02 0 .03.01.04.03l.3.32.19-.03.01-.03.01-.03a.1.1 0 0 1 .08-.06l.14-.03h.08l.22.04a.1.1 0 0 1 .08.08l-.02.03.14.03.3-.32a.12.12 0 0 1 .05-.03l.4-.2.06-.43.01-.06.22-.38-.07-.14c-.02.01-.04.03-.07.02a.1.1 0 0 1-.07-.05l-.1-.18a.32.32 0 0 1-.02-.08v-.04c-.01-.04 0-.07.03-.1l.05-.03-.04-.28-.4-.2c-.02 0-.03-.01-.04-.03l-.3-.32-.45.08h-.05l-.43-.08Zm2.16.01c.04.02.07.06.07.1l.03.2.23-.18c-.31-.2-.65-.38-1-.56l.22.23zm1.64 4.13a1.09 1.09 0 0 1-1.77 0c-.07.32-.12.78.04 1.1.12.25.38.4.76.41h.09c.43 0 .7-.13.84-.4.15-.33.1-.77.04-1.11m-.89-.02a.6.6 0 0 0 .6-.6c0-.4-.34-.84-.6-1.1-.25.26-.6.7-.6 1.1 0 .32.27.6.6.6m1.38 1.03c.49-.41.77-1.03.76-1.68a3.14 3.14 0 0 0-.94-2.02c-.32.21-.61.43-.85.63a3.45 3.45 0 0 1 .49.64 4 4 0 0 1 .47 1.15c.1.36.17.85.07 1.28m-2-3.55-.06.5c0 .04-.03.08-.07.1l-.45.21-.34.36a.15.15 0 0 1-.12.04l-.34-.06v.01a2.13 2.13 0 0 0 .63 2.38c-.09-.35-.07-.77.06-1.27.13-.51.34-.96.47-1.14l.02-.04c.07-.1.26-.42.7-.83.55-.5 1.3-1 2.16-1.43a.2.2 0 0 0 .1-.26l-.28-.6a.2.2 0 0 0-.18-.12l-.1.03-.16.07c-.58.3-1.48.88-1.92 1.25l.12.24c.03.04.03.09 0 .13zm2.87-.74-.63.34c.65.73.98 1.5 1 2.26a2.61 2.61 0 0 1-2.48 2.67h-.14c-.77 0-1.5-.34-2-.94l-.19-.24a2.6 2.6 0 0 1-.33-2.14v-.02l-.12.02c-.04.01-.09 0-.12-.04l-.34-.36-.45-.21a.13.13 0 0 1-.07-.1l-.07-.5-.23-.43a.13.13 0 0 1 0-.13l.23-.43.07-.5c0-.04.03-.08.07-.1l.45-.21.34-.36a.13.13 0 0 1 .12-.04l.29.05a.1.1 0 0 1 0-.07l.02-.03a.65.65 0 0 1 .21-.2c.2-.18.5-.22.74-.1.5.24.96.5 1.38.78.25-.16.5-.32.77-.47l.52-.27.1-.04a.67.67 0 0 1 .92.33l.26.6c.15.33.01.72-.32.88" fill="#0098da"/><path d="M8.56 11.6a.29.29 0 1 0 0 .57.29.29 0 0 0 0-.57M9.59 10.9a.28.28 0 0 0-.28.28c0 .16.12.28.28.28a.28.28 0 0 0 0-.56M9.4 12.17a.15.15 0 1 0 0 .3.15.15 0 0 0 0-.3M8.58 10.86a.16.16 0 0 0-.16.16.16.16 0 0 0 .32 0 .16.16 0 0 0-.16-.16" fill="#0098da"/></g></svg>