<svg xmlns="http://www.w3.org/2000/svg" xml:space="preserve" width="66.67" height="69.33"><defs><clipPath clipPathUnits="userSpaceOnUse" id="a"><path d="M0 52h50V0H0Z"/></clipPath></defs><g clip-path="url(#a)" transform="matrix(1.33333 0 0 -1.33333 0 69.33)"><path d="m39.01 19.84 3.75-4.48a1.23 1.23 0 0 1 2.15.68c.03.32-.07.64-.28.9L40.9 21.4Zm4.69-6.61c-.84 0-1.67.35-2.25 1.04l-4.83 5.78 4.48 3.75 4.84-5.78a2.9 2.9 0 0 0-.37-4.12 2.9 2.9 0 0 0-1.87-.67" fill="#ffffff"/><path d="M34.91 32.14a5.83 5.83 0 0 1-5.83-5.34 5.87 5.87 0 1 1 5.83 5.34m.02-13.41a7.54 7.54 0 0 0-4.86 13.35 7.57 7.57 0 1 0 4.86-13.35M11.66 22.57a7.82 7.82 0 0 1 5.92.97 7.03 7.03 0 0 1 3.18 5.84v.54c0 .28.13.53.35.7l.17.11a.85.85 0 0 0-.5.97.86.86 0 0 0-.71.22 2.1 2.1 0 0 1-1.4.56c-1.16 0-2.11-.95-2.12-2.12v-.65c0-.4-.28-.76-.68-.84-1.92-.4-3.78.19-5.63 1.79.12-.53.37-.97.75-1.3a.85.85 0 0 0-.69-1.48l-.67.1c.37-.42.9-.69 1.48-.72a.85.85 0 0 0 .24-1.65l-.64-.23a5.3 5.3 0 0 1 2.07-.43.85.85 0 0 0 .4-1.55c-.47-.33-.99-.6-1.52-.83m1.87-1.87c-1.76 0-3.66.44-5.62 1.3a.85.85 0 0 0-.48.97c.09.4.4.68.85.66.6 0 1.18.05 1.74.19-.6.3-1.15.78-1.53 1.55a.85.85 0 0 0 .28 1.08 3.85 3.85 0 0 0-1.36 2.5.85.85 0 0 0 .98.94l.31-.05a5.98 5.98 0 0 0-.1 2.99.85.85 0 0 0 1.48.4c1.68-1.93 3.2-2.82 4.77-2.77a3.83 3.83 0 0 0 3.82 3.72c.78 0 1.53-.25 2.15-.69l1.25.42a.85.85 0 0 0 1.04-1.16l-.36-.8.58-.24a.85.85 0 0 0 .16-1.47l-1.03-.75v-.11c0-2.9-1.51-5.68-3.96-7.26a9 9 0 0 0-4.97-1.42M36.99 40.57h-5.2a.85.85 0 1 0 0 1.7H37a.85.85 0 1 0 0-1.7M27 40.57H10.87a.85.85 0 1 0 0 1.7H27a.85.85 0 1 0 0-1.7" fill="#ffffff"/><path d="M9.52 13.22a.85.85 0 0 0-.85.85v3.19H4.94a2.45 2.45 0 0 0-2.45 2.44v16.76c0 1.35 1.1 2.45 2.45 2.45h38.8c1.35 0 2.44-1.1 2.44-2.45v-4.04a.85.85 0 1 0-1.7 0v4.04c0 .41-.33.74-.74.74H4.94a.75.75 0 0 1-.75-.74V19.7c0-.4.33-.74.75-.74h4.58c.47 0 .85-.38.85-.85v-2.5l5.07 3.22c.14.08.3.13.45.13h11.84a.85.85 0 1 0 0-1.7H16.14l-6.17-3.9a.85.85 0 0 0-.45-.14M41.79 39.8a.85.85 0 0 0-.85.85v4.6c0 .42-.34.75-.75.75h-6.58a.85.85 0 0 0-.45.13l-4.68 2.98v-2.26a.85.85 0 0 0-.85-.85H8.03a.75.75 0 0 1-.75-.74v-4.04a.85.85 0 1 0-1.7 0v4.04c0 1.34 1.1 2.44 2.44 2.44h18.76v2.96a.85.85 0 0 0 1.31.72l5.77-3.68h6.33c1.35 0 2.45-1.1 2.45-2.44v-4.6a.85.85 0 0 0-.85-.86" fill="#ffffff"/><path d="M34.05 22.56c-.34 0-.68.11-.97.34l-1.9 1.48a.85.85 0 1 0 1.05 1.34l1.8-1.42 3.44 4.39c.28.37.82.43 1.19.14a.85.85 0 0 0 .15-1.2l-3.5-4.46a1.6 1.6 0 0 0-1.26-.61M39.66 6.49c0 .45-.23.63-.65.63-.48 0-.75-.25-.75-.67v-.5c.29-.04.62-.05.75-.05.49 0 .65.23.65.59M11.15 6.49c0 .45-.23.63-.65.63-.48 0-.75-.25-.75-.67v-.5c.29-.04.62-.05.75-.05.5 0 .65.23.65.59M30.05 7.08c-.53 0-.8-.28-.8-.74V4.98c0-.46.27-.75.8-.75s.8.29.8.75v1.36c0 .46-.27.74-.8.74M5.99 7.15a1.1 1.1 0 0 1-.83-.34v-2c0-.38.29-.62.77-.62.52 0 .77.28.77.75v1.6c0 .38-.21.6-.71.6" fill="#ffffff"/><path d="M45.24 3.86c0-.24-.17-.43-.46-.43-.3 0-.47.19-.47.43v2.36c0 .54-.24.86-.67.86-.26 0-.53-.1-.81-.27a.97.97 0 0 0 .03-.2V3.86c0-.24-.16-.43-.47-.43-.3 0-.46.19-.46.43V6.6c0 .38-.06.4-.11.48-.07.1-.1.15-.1.26 0 .22.18.4.44.4.16 0 .3-.1.4-.26.39.27.81.38 1.19.38 1 0 1.49-.66 1.49-1.65Zm-6.18.35c.32 0 .55.08.83.21.03.02.09.04.2.04.28 0 .41-.2.41-.38 0-.52-1.01-.66-1.52-.66-1.05 0-1.65.63-1.65 1.46V6.4c0 .84.59 1.49 1.7 1.49 1.03 0 1.55-.57 1.55-1.43 0-.8-.47-1.28-1.56-1.28-.24 0-.5.01-.76.06v-.4c0-.38.26-.63.8-.63m-3.13-.78c-.26 0-.31.1-.5.36L34.3 5.42c-.06-.06-.12-.14-.2-.2V4.04c0-.31-.1-.61-.46-.61-.26 0-.46.18-.46.43v5.18c0 .34.08.65.46.65.26 0 .47-.2.47-.43V6.3l1.23 1.31c.11.12.25.24.44.24.25 0 .45-.17.45-.4a.4.4 0 0 0-.12-.3l-1.16-1.2 1.35-1.9a.47.47 0 0 0 .08-.25c-.02-.24-.2-.37-.45-.37m-4.15 1.55c0-.88-.6-1.56-1.73-1.56s-1.74.68-1.74 1.56v1.35c0 .89.6 1.57 1.74 1.57 1.13 0 1.73-.68 1.73-1.57zm-5.05-1.53c-1.26 0-1.58.62-1.58 1.8V8.7c0 .24.17.43.47.43.29 0 .46-.2.46-.43V7.64h.76c.24 0 .44-.18.44-.42 0-.23-.2-.41-.44-.41h-.76V5.3c0-.76.07-1.03.58-1.03h.16c.37 0 .57-.09.57-.38 0-.4-.32-.45-.66-.45M23.6 4.71h-.24v-.86c0-.25-.21-.44-.47-.44s-.46.19-.46.44v.86h-2.01a.47.47 0 0 0-.49.48c0 .03.03.17.08.26l1.65 3.96c.07.17.24.27.41.27.22 0 .46-.2.46-.45 0-.04 0-.1-.02-.15l-1.47-3.5h1.39v1.48c0 .25.2.44.46.44.25 0 .47-.19.47-.44V5.57h.24c.25 0 .44-.2.44-.43 0-.24-.2-.43-.44-.43m-5.1-1.26c-1.26 0-1.58.62-1.58 1.8V8.7c0 .24.16.43.46.43.3 0 .47-.2.47-.43V7.64h.76c.24 0 .44-.18.44-.42 0-.23-.2-.41-.44-.41h-.76V5.3c0-.76.07-1.03.58-1.03h.15c.37 0 .58-.09.58-.38 0-.4-.33-.45-.66-.45M15.28 7c-.36 0-.59.01-.95-.2l.02-.2V3.86c0-.25-.2-.44-.46-.44-.27 0-.47.19-.47.44V6.6c0 .24-.03.37-.12.5a.35.35 0 0 0-.08.23c0 .24.2.4.44.4.16 0 .3-.1.4-.25.38.23.82.37 1.12.37.44 0 .58-.18.58-.42a.43.43 0 0 0-.48-.43m-4.73-2.8c.32 0 .55.1.84.22.02.02.08.04.19.04.29 0 .42-.2.42-.38 0-.52-1.02-.66-1.52-.66-1.06 0-1.66.63-1.66 1.46V6.4c0 .84.6 1.49 1.7 1.49 1.04 0 1.55-.57 1.55-1.43 0-.8-.47-1.28-1.56-1.28-.24 0-.49.01-.76.06v-.4c0-.38.26-.63.8-.63m-2.92.77c0-.88-.57-1.56-1.7-1.56-1.08 0-1.7.62-1.7 1.4v4.45c0 .22.16.42.46.42.3 0 .47-.2.47-.42V7.59c.29.2.6.3 1.03.3 1.03 0 1.44-.6 1.44-1.38zM47.3 11.4H1.8a.6.6 0 0 1-.6-.6V1.93c0-.33.27-.6.6-.6H47.3c.33 0 .6.27.6.6v8.85a.6.6 0 0 1-.6.6" fill="#ffffff"/></g></svg>