<svg xmlns="http://www.w3.org/2000/svg" xml:space="preserve" width="66.67" height="69.33"><defs><clipPath clipPathUnits="userSpaceOnUse" id="a"><path d="M0 52h50V0H0Z"/></clipPath></defs><g clip-path="url(#a)" transform="matrix(1.33333 0 0 -1.33333 0 69.33)"><path d="M43.61 29.63v-.73a.85.85 0 1 1 1.7 0v.73a.85.85 0 1 1-1.7 0M34.04 29.63v-.73a.85.85 0 1 1 1.7 0v.73a.85.85 0 1 1-1.7 0M38.83 31.14V28.9a.85.85 0 1 1 1.7 0v2.24a.85.85 0 1 1-1.7 0M29.26 31.14V28.9a.85.85 0 1 1 1.7 0v2.24a.85.85 0 1 1-1.7 0M38.53 14.28v3.14c3.25-.16 4.97-1.18 4.97-1.55a.85.85 0 1 1 1.7 0c0 2.08-3.32 3.1-6.67 3.26v.79a.85.85 0 0 1-1.7 0v-.8c-3.36-.14-6.67-1.17-6.67-3.25a.85.85 0 1 1 1.7 0c0 .37 1.72 1.39 4.97 1.55v-3.14c-3.72-.14-7.41-1.17-7.41-3.26a.85.85 0 0 1 1.7-.01c.09.44 2.14 1.41 5.7 1.56V9.42c-2.55-.12-5.18-.81-5.18-2.45a.85.85 0 0 1 1.7-.1c.25.27 1.48.74 3.49.85V5.35a.85.85 0 1 1 1.7 0v2.37c2-.11 3.23-.58 3.5-.86a.85.85 0 0 1 1.69.11c0 1.64-2.64 2.33-5.2 2.45v3.15c3.58-.15 5.63-1.12 5.72-1.55a.85.85 0 1 1 1.7 0c0 2.09-3.7 3.12-7.41 3.26" fill="#ffffff"/><path d="M47.26 38.78c.3-.3.5-.67.6-1.08h-8.62a2.34 2.34 0 0 0-2.34 2.34v8.63c.4-.1.78-.3 1.08-.6zM23.01 2.65H5.78a3.9 3.9 0 0 0-3.93 3.93v38.24a3.9 3.9 0 0 0 3.93 3.93H35.2v-8.7A4.04 4.04 0 0 1 39.24 36h8.7v-8.13a.85.85 0 1 1 1.7 0v9.26a4 4 0 0 1-1.18 2.85l-9.28 9.29a4.07 4.07 0 0 1-2.86 1.18H5.78a5.6 5.6 0 0 1-5.63-5.63V6.58A5.6 5.6 0 0 1 5.78.95h17.23a.85.85 0 1 1 0 1.7" fill="#ffffff"/><path d="M15 35.4a1.43 1.43 0 1 0 0 2.87 1.43 1.43 0 0 0 0-2.87m0 4.56a3.13 3.13 0 1 1 .01-6.26 3.13 3.13 0 0 1 0 6.26" fill="#ffffff"/><path d="M21.72 33.76a7.35 7.35 0 0 1-.8 7.49c2.42-1.76 3.54-4.06 3.54-4.06s-1-1.72-2.74-3.43M15 31.14a5.7 5.7 0 1 0 0 11.39 5.7 5.7 0 0 0 0-11.4m-6.5 2.19a17.37 17.37 0 0 0-2.96 3.7s1.1 2.6 3.7 4.43a7.36 7.36 0 0 1-.74-8.13m17.89 3.8-.4.8c-.14.3-3.48 7-11.1 7h-.1c-7.73-.06-10.7-6.95-10.82-7.24l-.31-.76.4-.72c.16-.3 4.2-7.46 10.75-7.46h.1c6.55.08 10.84 7.28 11.02 7.59zM6.14 20.26h11.52a.85.85 0 1 1 0 1.7H6.14a.85.85 0 1 1 0-1.7M23.4 16.97a.85.85 0 1 1-.98 1.4l-3.06-2.14H6.14a.85.85 0 1 1 0-1.7h13.75zM6.14 10.5a.85.85 0 1 1 0-1.7h11.52a.85.85 0 1 1 0 1.7zM48.15 4.12c0-1.04-.84-1.88-1.88-1.88H29.09c-1.04 0-1.88.84-1.88 1.88V21.3c0 1.04.84 1.88 1.88 1.88h17.18c1.04 0 1.88-.84 1.88-1.88Zm-1.88 20.76H29.09a3.59 3.59 0 0 1-3.58-3.58V4.12c0-1.98 1.6-3.58 3.58-3.58h17.18c1.97 0 3.58 1.6 3.58 3.58V21.3c0 1.97-1.6 3.58-3.58 3.58" fill="#ffffff"/></g></svg>