<svg version="1.1" id="Слой_1" xmlns="http://www.w3.org/2000/svg" x="0" y="0" viewBox="0 0 85 85" xml:space="preserve"><style>.st0{fill:none}.st1{fill:#ffffff}</style><path class="st0" d="M.1 0h85v85H.1z"/><path class="st1" d="M38 40.4c-3.7-3.7-8.8-5-13.5-3.9-1.1.2-2.2.6-3.3 1.1-1.5.7-2.8 1.6-4 2.8-4.6 4.6-5.5 11.4-2.8 16.9L0 71.8l6.6 6.6 14.5-14.5c.1 0 .1.1.2.1 1 .5 2.1.9 3.3 1.1 1 .2 2.1.3 3.1.3 3.8 0 7.5-1.4 10.4-4.3 5.6-5.7 5.6-15-.1-20.7zM6.6 74.9l-3.1-3.1 8.9-8.9 3.1 3.1-8.9 8.9zm10.6-10.7l-3.1-3.1 1.6-1.6c.4.6.9 1.1 1.4 1.6.5.5 1.1 1 1.6 1.4l-1.5 1.7zm19-4.8c-.9.9-1.8 1.5-2.8 2.1l-.1-.2c-.3-.6-1-.9-1.6-.7-.6.3-.9 1-.7 1.6l.1.2c-2.2.6-4.4.7-6.6.1-1.1-.3-2.2-.8-3.3-1.4-.7-.4-1.4-.9-2-1.5.6-.3.9-1 .6-1.7-.3-.6-1-.9-1.7-.6l-.6.3a12.16 12.16 0 013.8-17.2s.1 0 .1-.1l.2.4c.3.6 1 .9 1.6.6.6-.3.9-1 .6-1.6l-.2-.5.9-.3a12.12 12.12 0 0112.4 4l-.4.2c-.6.3-.9 1-.6 1.6.3.6 1 .9 1.6.6l.8-.3c2.5 4.6 1.8 10.5-2.1 14.4zM69.4 34.1h-8.6c-.7 0-1.2-.6-1.2-1.2 0-.7.6-1.2 1.2-1.2h8.6c.7 0 1.2.6 1.2 1.2.1.7-.5 1.2-1.2 1.2zM69.4 28.8h-8.6c-.7 0-1.2-.6-1.2-1.2 0-.7.6-1.2 1.2-1.2h8.6c.7 0 1.2.6 1.2 1.2.1.7-.5 1.2-1.2 1.2zM70.1 44H49.2c-.7 0-1.2-.6-1.2-1.2 0-.7.6-1.2 1.2-1.2h20.9c.7 0 1.2.6 1.2 1.2 0 .7-.5 1.2-1.2 1.2zM70.1 48.4c-.7 0-1.2-.6-1.2-1.2 0-.7.6-1.2 1.2-1.2.7 0 1.2.6 1.2 1.2 0 .7-.5 1.2-1.2 1.2zM65.2 48.4h-9.9c-.7 0-1.2-.6-1.2-1.2 0-.7.6-1.2 1.2-1.2h9.9c.7 0 1.2.6 1.2 1.2 0 .7-.5 1.2-1.2 1.2zM50.2 48.4h-5.5c-.7 0-1.2-.6-1.2-1.2 0-.7.6-1.2 1.2-1.2h5.5c.7 0 1.2.6 1.2 1.2.1.7-.5 1.2-1.2 1.2zM70.1 39.6H43.2c-.7 0-1.2-.6-1.2-1.2 0-.7.6-1.2 1.2-1.2h26.9c.7 0 1.2.6 1.2 1.2 0 .7-.5 1.2-1.2 1.2zM40.3 25v6.6h-2.1V25h2.1m1.3-1.4H37c-.3 0-.5.2-.5.4v8.6c0 .2.2.4.5.4h4.6c.3 0 .5-.2.5-.4V24c0-.2-.2-.4-.5-.4zM48 25v6.6h-2.1V25H48m1.2-1.4h-4.6c-.3 0-.5.2-.5.4v8.6c0 .2.2.4.5.4h4.6c.3 0 .5-.2.5-.4V24c0-.2-.2-.4-.5-.4zM55.6 25v6.6h-2.1V25h2.1m1.3-1.4h-4.6c-.3 0-.5.2-.5.4v8.6c0 .2.2.4.5.4h4.6c.3 0 .5-.2.5-.4V24c0-.2-.3-.4-.5-.4z"/><g><path class="st0" d="M31.9 64.7c-1.4.4-2.8.6-4.2.6-.7 0-1.5-.1-2.2-.2v.9a3 3 0 003 3H79a3 3 0 003-3v-3H35.4c-.4.2-.7.5-1.1.7-.8.4-1.6.7-2.4 1zM36 38.8c.4.3.9.6 1.3 1l.6.6c.3.3.7.7 1 1.1 1.1 1.3 1.9 2.7 2.4 4.3.9 2.6 1.1 5.3.6 8H74V19.4H33.2v17.8c.4.2.8.3 1.1.5.6.3 1.2.7 1.7 1.1z"/><path transform="rotate(-45 9.6 68.71)" class="st0" d="M3.3 66.6h12.5v4.3H3.3z"/><path class="st0" d="M17.3 61c-.5-.5-1-1.1-1.4-1.6L14.2 61l3.1 3.1.8-.8.9-.9c-.3-.2-.6-.4-.9-.7-.3-.2-.6-.4-.8-.7z"/><path class="st1" d="M33.2 37.2V19.4H74v34.3H41.9c0 .1 0 .3-.1.4-.2.9-.5 1.7-.9 2.5h33.4c1.4 0 2.6-1.2 2.6-2.6V19.1c0-1.4-1.2-2.6-2.6-2.6H32.9c-1.4 0-2.6 1.2-2.6 2.6v17.3c.5.1 1.1.2 1.6.4.4.1.8.2 1.3.4z"/><path class="st1" d="M28.3 72.6c-3.5 0-6.3-2.8-6.3-6.3l-.1-2.4c.4.2.9.3 1.3.4.6.2 1.2.3 1.8.4l.1 1.6c0 1.8 1.5 3.3 3.3 3.3h50.5c1.8 0 3.3-1.5 3.3-3.3V63H35.6c.7-.5 1.3-1 1.9-1.6.3-.3.6-.6.9-1 .1-.2.2-.3.4-.5h41.1V17.1c0-1.8-1.5-3.3-3.3-3.3H30.7c-1.8 0-3.3 1.5-3.3 3.3l-.2 19.5c-.8 0-1.7.1-2.5.2-.2 0-.4.1-.6.1l.2-19.8c0-3.5 2.8-6.3 6.3-6.3h45.7c3.5 0 6.3 2.8 6.3 6.3V60h.2c1.2 0 2.2 1 2.2 2.2v4.2c0 3.5-2.8 6.3-6.3 6.3H28.3z"/></g><path class="st1" d="M25.2 57.7c-.9 0-1.8-.7-2-1.6v-.2h-3.1c-1 0-1.9-.8-1.9-1.8v-.4c0-.6 0-1.3.2-1.8.1-.3.4-.5.7-.5h.2c.4.1.6.5.5.9-.1.3-.1.9-.1 1.3v.4c0 .2.2.4.4.4h3.1v-.2c0-.9.3-1.7.7-2.4l.1-.2-.1-.1c-.4-.6-1.1-.9-1.8-.9-.4 0-.9.1-1.2.3-.1.1-.2.1-.4.1-.3 0-.5-.1-.6-.3-.1-.2-.1-.4-.1-.5 0-.2.2-.3.3-.4.3-.2.7-.3 1-.4l.8-.2-.8-.3a2.26 2.26 0 01.8-4.4c1.3 0 2.3 1 2.3 2.3 0 1-.6 1.8-1.5 2.1l-.8.3.8.2c.8.2 1.5.6 2 1.2l.1.2.2-.1c.4-.2.9-.4 1.4-.5l.9-.2-.8-.3c-1-.4-1.7-1.3-1.7-2.4 0-1.4 1.1-2.6 2.6-2.6 1.4 0 2.6 1.1 2.6 2.6 0 1.1-.7 2-1.7 2.4l-.8.3.9.2c.5.1.9.3 1.3.5l.2.1.1-.2c.5-.6 1.2-1 2-1.2l.8-.2-.8-.3a2.26 2.26 0 01.8-4.4 2.26 2.26 0 01.8 4.4l-.8.3.8.2c1.7.4 3 1.9 3 3.7v1c0 1-.8 1.8-1.9 1.8h-3v.2c-.2.9-1 1.6-2 1.6h-4.5zm2.3-6.3a2.9 2.9 0 00-2.9 2.9v1.4c0 .3.3.6.6.6h4.6c.3 0 .6-.3.6-.6v-1.4c0-1.6-1.3-2.9-2.9-2.9zm5.3-.7c-.7 0-1.4.3-1.8.8l-.1.1.1.2c.5.7.8 1.6.8 2.5v.2h3c.2 0 .4-.2.4-.4v-1c.1-1.3-1-2.4-2.4-2.4zm-5.3-4.6c-.6 0-1.1.5-1.1 1.1 0 .6.5 1.1 1.1 1.1.6 0 1.1-.5 1.1-1.1 0-.6-.5-1.1-1.1-1.1zm5.4-.2c-.5 0-.9.4-.9.9s.4.9.9.9.9-.4.9-.9-.4-.9-.9-.9zm-10.9 0c-.5 0-.9.4-.9.9s.4.9.9.9.9-.4.9-.9-.4-.9-.9-.9z"/></svg>