<svg xmlns="http://www.w3.org/2000/svg" xml:space="preserve" width="66.667" height="66.667"><defs><clipPath id="a" clipPathUnits="userSpaceOnUse"><path d="M0 50h50V0H0Z"/></clipPath></defs><g clip-path="url(#a)" transform="matrix(1.33333 0 0 -1.33333 0 66.667)"><path d="M0 0a3.103 3.103 0 0 0-3.098 3.099A3.101 3.101 0 0 0 0 6.196a3.102 3.102 0 0 0 3.099-3.097A3.104 3.104 0 0 0 0 0m-9.797.838c-1.149-5.645-6.674-9.301-12.319-8.152a10.361 10.361 0 0 0-4.661 2.264c-.019.023-.027.052-.049.073-.032.032-.073.047-.108.072-2.706 2.395-4.106 6.122-3.335 9.909a10.376 10.376 0 0 0 4.471 6.628 10.374 10.374 0 0 0 7.848 1.525c5.644-1.148 9.302-6.675 8.153-12.319m-6.309-17.701a3.103 3.103 0 0 0-3.099-3.098 3.101 3.101 0 0 0-3.097 3.098 3.1 3.1 0 0 0 3.097 3.097 3.102 3.102 0 0 0 3.099-3.097m-20.118 30.835a3.102 3.102 0 0 0 0 4.38 3.09 3.09 0 0 0 2.191.906c.793 0 1.587-.302 2.19-.906a3.1 3.1 0 0 0 0-4.38c-1.169-1.172-3.21-1.172-4.381 0m12.888 8.332a3.1 3.1 0 0 0 3.097 3.097 3.1 3.1 0 0 0 3.098-3.097 3.1 3.1 0 0 0-3.098-3.097 3.1 3.1 0 0 0-3.097 3.097m15.005-3.221a3.074 3.074 0 0 0 2.189.908c.828 0 1.606-.323 2.191-.908a3.077 3.077 0 0 0 .907-2.19c0-.827-.322-1.605-.907-2.19h-.001c-1.168-1.171-3.21-1.171-4.38 0a3.077 3.077 0 0 0-.907 2.19c0 .827.322 1.605.908 2.19M-3.22-8.808a3.102 3.102 0 0 0 0-4.38 3.103 3.103 0 0 0-4.382-.001 3.105 3.105 0 0 0 0 4.381 3.104 3.104 0 0 0 4.382 0m-27.892-5.112a3.1 3.1 0 0 0-4.38-.001 3.08 3.08 0 0 0-.907 2.191c0 .828.322 1.606.907 2.19v.001a3.077 3.077 0 0 0 2.19.907c.827 0 1.605-.322 2.19-.908a3.07 3.07 0 0 0 .908-2.19c0-.828-.322-1.605-.908-2.19M-39.444-.756a3.101 3.101 0 0 0-3.097 3.098 3.1 3.1 0 0 0 3.097 3.097 3.101 3.101 0 0 0 3.098-3.097 3.102 3.102 0 0 0-3.098-3.098M0 7.896c-2.255 0-4.139-1.569-4.649-3.67H-7.96a12.18 12.18 0 0 1-3.086 6.839l2.019 2.018a4.749 4.749 0 0 1 2.885-.988c1.282 0 2.487.499 3.393 1.406a4.765 4.765 0 0 1 1.405 3.392 4.766 4.766 0 0 1-1.405 3.392 4.767 4.767 0 0 1-3.393 1.405 4.762 4.762 0 0 1-3.391-1.405 4.763 4.763 0 0 1-1.406-3.392c0-.925.268-1.805.752-2.566l-2.075-2.075a12.075 12.075 0 0 1-5.348 2.571c-.592.121-1.186.182-1.779.215v2.554c2.24.404 3.948 2.358 3.948 4.712a4.804 4.804 0 0 1-4.798 4.798 4.804 4.804 0 0 1-4.798-4.798c0-2.354 1.708-4.308 3.948-4.712v-2.57a12.077 12.077 0 0 1-5.647-1.972 12.247 12.247 0 0 1-1.51-1.196l-1.742 1.742c1.176 1.854.963 4.342-.653 5.958a4.804 4.804 0 0 1-6.785 0 4.803 4.803 0 0 1 0-6.784 4.765 4.765 0 0 1 3.393-1.406c1.059 0 2.056.358 2.885.988l1.723-1.723a12.078 12.078 0 0 1-2.745-7.437h-2.562c-.404 2.24-2.357 3.948-4.712 3.948a4.804 4.804 0 0 1-4.798-4.798 4.803 4.803 0 0 1 4.798-4.797c2.355 0 4.309 1.707 4.712 3.947h2.642a12.09 12.09 0 0 1 1.928-5.274c.442-.667.942-1.28 1.49-1.838l-1.96-1.96c-.035-.035-.051-.08-.079-.119a4.75 4.75 0 0 1-2.591.767 4.765 4.765 0 0 1-3.392-1.405v-.001A4.76 4.76 0 0 1-38.1-11.73c0-1.281.499-2.486 1.406-3.393a4.78 4.78 0 0 1 3.392-1.402 4.78 4.78 0 0 1 3.392 1.403 4.761 4.761 0 0 1 1.406 3.392 4.745 4.745 0 0 1-1 2.899c.023.019.052.028.074.05l2.045 2.044a12.095 12.095 0 0 1 7.33-2.487v-2.928c-2.24-.404-3.947-2.357-3.947-4.711a4.802 4.802 0 0 1 4.797-4.797 4.803 4.803 0 0 1 4.798 4.797c0 2.354-1.708 4.307-3.948 4.711v3.054a12.206 12.206 0 0 1 6.794 3.326l2.279-2.279c.022-.022.051-.03.075-.05-1.433-1.879-1.312-4.573.403-6.29l.001-.001a4.784 4.784 0 0 1 3.392-1.401 4.78 4.78 0 0 1 3.392 1.402 4.8 4.8 0 0 1 0 6.785c-1.622 1.624-4.127 1.833-5.984.639-.027.039-.043.083-.078.117l-2.349 2.349A12.054 12.054 0 0 1-8.131.498c.138.68.203 1.357.225 2.028h3.167C-4.452.153-2.449-1.699 0-1.699a4.804 4.804 0 0 1 4.798 4.798A4.803 4.803 0 0 1 0 7.896" style="fill:#0098da;fill-opacity:1;fill-rule:nonzero;stroke:none" transform="translate(44.727 22.145)"/><path d="m0 0-4.501-4.503a.147.147 0 0 0-.206 0L-6.983-2.23a.85.85 0 0 1-1.202-1.204l2.278-2.274a1.847 1.847 0 0 1 2.607.002l4.503 4.504A.85.85 0 0 1 0 0" style="fill:#0098da;fill-opacity:1;fill-rule:nonzero;stroke:none" transform="translate(29.014 27.955)"/><path d="m0 0 .029.001C.443.008.83.177 1.116.476c.287.297.441.689.433 1.102a1.53 1.53 0 0 1-.474 1.086c-.29.281-.671.435-1.074.435l-.029-.001a1.535 1.535 0 0 1-1.087-.475 1.535 1.535 0 0 1-.433-1.102A1.53 1.53 0 0 1-1.073.434 1.535 1.535 0 0 1 0 0" style="fill:#0098da;fill-opacity:1;fill-rule:nonzero;stroke:none" transform="translate(39.316 9.597)"/><path d="M0 0a1.515 1.515 0 0 1-1.067-.465 1.51 1.51 0 0 1-.425-1.084c.007-.407.173-.786.465-1.067a1.51 1.51 0 0 1 1.055-.426h.029c.405.008.784.173 1.067.465v.001a1.523 1.523 0 0 1-.04 2.151A1.546 1.546 0 0 1 0 0" style="fill:#0098da;fill-opacity:1;fill-rule:nonzero;stroke:none" transform="translate(10.666 39.827)"/></g></svg>