<svg version="1.1" id="Слой_1" xmlns="http://www.w3.org/2000/svg" x="0" y="0" viewBox="0 0 30 30" xml:space="preserve"><style>.st0{fill:#ffffff}</style><path class="st0" d="M24.9 10.4h-3.7c.3-.8.4-1.5.4-2 0-3.6-2.9-6.5-6.5-6.5S8.6 4.7 8.6 8.3c0 .5.1 1.2.4 2H5.3c-.7.1-1.3.7-1.3 1.4v14.6c0 .7.6 1.3 1.3 1.3h19.6c.7 0 1.3-.6 1.3-1.3V11.7c.1-.7-.5-1.3-1.3-1.3zm-9.8-7.7c3.1 0 5.6 2.5 5.6 5.6 0 .6-.2 1.4-.6 2.3-.5 1.2-1.3 2.6-2.3 4.2-1 1.6-2.1 3-2.6 3.8-.6-.8-1.6-2.2-2.6-3.8-1.1-1.6-1.8-3-2.3-4.2-.4-1-.6-1.7-.6-2.3-.2-3 2.3-5.6 5.4-5.6zM4.9 17.5l.5.1v2.9l-.5.1v-3.1zm20.5 8.9c0 .2-.2.4-.4.4H5.3c-.2 0-.4-.2-.4-.4v-4.8l1.1-.3c.2-.1.3-.2.3-.4v-3.6c0-.2-.1-.4-.3-.4l-1.1-.3v-4.8c0-.2.2-.4.4-.4h4.1c1.3 2.8 3.7 6.2 4.8 7.6H7.6c-.3 0-.5.2-.5.5s.2.5.5.5h15c.3 0 .5-.2.5-.5s-.2-.5-.5-.5H16c1.1-1.5 3.5-4.8 4.8-7.6h4.1c.2 0 .4.2.4.4v14.6z"/><path class="st0" d="M15.1 9.9c-1.2 0-2.2-1-2.2-2.2 0-.9.5-1.7 1.4-2.1.3-.1.6-.2.9-.2.6 0 1.2.2 1.6.7.6.6.8 1.6.5 2.4-.5.8-1.3 1.4-2.2 1.4zm0-3.6c-.7 0-1.3.6-1.3 1.3 0 .5.3 1 .8 1.2.2.1.3.2.5.2.4 0 .7-.1.9-.4.4-.4.5-.9.3-1.4-.2-.6-.6-.9-1.2-.9z"/><path class="st0" d="M15.1 9.8c.9 0 1.6-.5 2-1.3a2.18 2.18 0 00-2.8-2.8C13.5 6 13 6.8 13 7.6c0 1.2.9 2.2 2.1 2.2zm0-3.6c.6 0 1.1.3 1.3.9.2.5.1 1.1-.3 1.6-.4.4-1 .5-1.6.3-.5-.2-.9-.7-.9-1.3.1-.9.7-1.5 1.5-1.5zm0 0M7.8 22.6h.7c.2 0 .4-.2.4-.4s-.2-.4-.4-.4h-.7c-.2 0-.4.2-.4.4s.2.4.4.4zM9.9 22.6h4.2c.2 0 .4-.2.4-.4s-.2-.4-.4-.4H9.9c-.2 0-.4.2-.4.4s.2.4.4.4zM7.8 24h.7c.2 0 .4-.2.4-.4s-.2-.4-.4-.4h-.7c-.2 0-.4.2-.4.4s.2.4.4.4zM9.9 24h4.2c.2 0 .4-.2.4-.4s-.2-.4-.4-.4H9.9c-.2 0-.4.2-.4.4s.2.4.4.4zM7.8 25.4h.7c.2 0 .4-.2.4-.4s-.2-.4-.4-.4h-.7c-.2 0-.4.2-.4.4 0 .3.2.4.4.4zM9.9 25.4h4.2c.2 0 .4-.2.4-.4s-.2-.4-.4-.4H9.9c-.2 0-.4.2-.4.4 0 .3.2.4.4.4z"/><g><path class="st0" d="M16.5 22.6h.7c.2 0 .4-.2.4-.4s-.2-.4-.4-.4h-.7c-.2 0-.4.2-.4.4s.2.4.4.4zM18.6 22.6h4.2c.2 0 .4-.2.4-.4s-.2-.4-.4-.4h-4.2c-.2 0-.4.2-.4.4s.2.4.4.4zM16.5 24h.7c.2 0 .4-.2.4-.4s-.2-.4-.4-.4h-.7c-.2 0-.4.2-.4.4s.2.4.4.4zM18.6 24h4.2c.2 0 .4-.2.4-.4s-.2-.4-.4-.4h-4.2c-.2 0-.4.2-.4.4s.2.4.4.4zM16.5 25.4h.7c.2 0 .4-.2.4-.4s-.2-.4-.4-.4h-.7c-.2 0-.4.2-.4.4 0 .3.2.4.4.4zM18.6 25.4h4.2c.2 0 .4-.2.4-.4s-.2-.4-.4-.4h-4.2c-.2 0-.4.2-.4.4 0 .3.2.4.4.4z"/></g><g><path class="st0" d="M19.7 15h3.1c.2 0 .4-.2.4-.4s-.2-.4-.4-.4h-3.1c-.2 0-.4.2-.4.4.1.3.2.4.4.4zM19.5 16.4h3.3c.2 0 .4-.2.4-.4s-.2-.4-.4-.4h-3.3c-.2 0-.4.2-.4.4 0 .3.2.4.4.4zM19 17.9h3.8c.2 0 .4-.2.4-.4s-.2-.4-.4-.4H19c-.2 0-.4.2-.4.4s.2.4.4.4zM10.5 15H7.4c-.2 0-.4-.2-.4-.4s.2-.4.4-.4h3.1c.2 0 .4.2.4.4-.1.2-.2.4-.4.4zM10.7 16.4H7.4c-.2 0-.4-.2-.4-.4s.2-.4.4-.4h3.3c.2 0 .4.2.4.4s-.2.4-.4.4zM11.2 17.8H7.4c-.2 0-.4-.2-.4-.4s.2-.4.4-.4h3.8c.2 0 .4.2.4.4 0 .3-.2.4-.4.4z"/></g></svg>