<svg xmlns="http://www.w3.org/2000/svg" xml:space="preserve" width="66.667" height="64.345"><defs><clipPath clipPathUnits="userSpaceOnUse" id="a"><path d="M0 48.259h50V0H0Z"/></clipPath></defs><g clip-path="url(#a)" transform="matrix(1.33333 0 0 -1.33333 0 64.345)"><path d="M0 0c-.273 0-.547-.028-.821-.086a3.941 3.941 0 0 1-2.51-1.713 3.948 3.948 0 0 1-.564-2.986 3.955 3.955 0 0 1 1.713-2.51 3.94 3.94 0 0 1 2.987-.563 3.948 3.948 0 0 1 2.509 1.712A3.978 3.978 0 0 1 2.165-.648 3.946 3.946 0 0 1 0 0m-.02-9.514A5.547 5.547 0 0 0-4.645-.94a5.506 5.506 0 0 0 3.501 2.39A5.487 5.487 0 0 0 3.023.665a5.548 5.548 0 0 0 1.605-7.669 5.511 5.511 0 0 0-3.502-2.391A5.646 5.646 0 0 0-.02-9.514" style="fill:#0098da;fill-opacity:1;fill-rule:nonzero;stroke:none" transform="translate(43.364 11.668)"/><path d="M0 0c-.33 0-.66.124-.912.374l-1.18 1.168A.786.786 0 0 0-.987 2.656l.986-.976 2.564 2.586a.787.787 0 0 0 1.11.005.789.789 0 0 0 .004-1.111L.922.382A1.297 1.297 0 0 0 0 0" style="fill:#0098da;fill-opacity:1;fill-rule:nonzero;stroke:none" transform="translate(42.52 5.114)"/><path d="M0 0a.45.45 0 1 1 .004-.9A.45.45 0 0 1 0 0m.002-2.471c-.244 0-.487.045-.722.134a2.003 2.003 0 0 0-1.122 1.062A2.016 2.016 0 0 0-.824 1.393a2.007 2.007 0 0 0 1.546.044A2.01 2.01 0 0 0 1.844.375c.22-.493.236-1.041.044-1.546A2.01 2.01 0 0 0 .826-2.293a2.018 2.018 0 0 0-.824-.178" style="fill:#0098da;fill-opacity:1;fill-rule:nonzero;stroke:none" transform="translate(32.876 8.822)"/><path d="M0 0c-1.397 0-2.669.71-3.404 1.899a4.03 4.03 0 0 0-.174 3.897l8.52 15.363a3.968 3.968 0 0 0 3.566 2.185 3.98 3.98 0 0 0 3.581-2.215l5.067-9.316a.784.784 0 0 0-1.378-.75l-5.079 9.34a2.433 2.433 0 0 1-2.191 1.371 2.422 2.422 0 0 1-2.178-1.346L-2.19 5.063a2.433 2.433 0 0 1 .121-2.338A2.414 2.414 0 0 1 0 1.569h12.625a.784.784 0 1 0 0-1.569H.003Z" style="fill:#0098da;fill-opacity:1;fill-rule:nonzero;stroke:none" transform="translate(24.514 2.61)"/><path d="M0 0a.084.084 0 0 1-.084-.086V-6.53c0-.047.037-.084.084-.084h.348c.047 0 .084.037.084.084v6.444A.084.084 0 0 1 .348 0Zm.348-8.185H0c-.912 0-1.654.743-1.654 1.655v6.444c0 .912.742 1.655 1.654 1.655h.348c.912 0 1.654-.743 1.654-1.655V-6.53c0-.912-.742-1.655-1.654-1.655" style="fill:#0098da;fill-opacity:1;fill-rule:nonzero;stroke:none" transform="translate(32.703 19.322)"/><path d="M0 0h-13.25a3.786 3.786 0 0 0-3.782 3.781v31.18a3.787 3.787 0 0 0 3.782 3.782h36.016a3.785 3.785 0 0 0 3.78-3.782V7.783a.778.778 0 1 0-1.558 0v27.178a2.224 2.224 0 0 1-2.222 2.222H-13.25a2.224 2.224 0 0 1-2.222-2.222V3.781c0-1.224.996-2.221 2.222-2.221H0A.78.78 0 1 0 0 0" style="fill:#0098da;fill-opacity:1;fill-rule:nonzero;stroke:none" transform="translate(17.925 7.963)"/><path d="M0 0h-42.019a.78.78 0 0 0 0 1.56H0A.78.78 0 0 0 0 0" style="fill:#0098da;fill-opacity:1;fill-rule:nonzero;stroke:none" transform="translate(43.692 36.142)"/><path d="M0 0a.651.651 0 0 1-.65-.65c0-.358.292-.65.65-.65.358 0 .65.292.65.65C.65-.292.358 0 0 0m0-2.86c-1.218 0-2.21.991-2.21 2.21 0 1.219.992 2.21 2.21 2.21 1.219 0 2.21-.991 2.21-2.21 0-1.219-.991-2.21-2.21-2.21" style="fill:#0098da;fill-opacity:1;fill-rule:nonzero;stroke:none" transform="translate(7.445 42.134)"/><path d="M0 0a.651.651 0 0 1-.65-.65c0-.358.292-.65.65-.65.358 0 .65.292.65.65C.65-.292.358 0 0 0m0-2.86A2.212 2.212 0 0 0-2.209-.65c0 1.219.991 2.21 2.209 2.21 1.219 0 2.21-.991 2.21-2.21 0-1.219-.991-2.21-2.21-2.21" style="fill:#0098da;fill-opacity:1;fill-rule:nonzero;stroke:none" transform="translate(13.469 42.134)"/><path d="M0 0a.651.651 0 0 1-.65-.65c0-.358.292-.65.65-.65.358 0 .65.292.65.65C.65-.292.358 0 0 0m0-2.86c-1.219 0-2.21.991-2.21 2.21 0 1.219.991 2.21 2.21 2.21 1.218 0 2.21-.991 2.21-2.21 0-1.219-.992-2.21-2.21-2.21" style="fill:#0098da;fill-opacity:1;fill-rule:nonzero;stroke:none" transform="translate(19.494 42.134)"/><path d="M0 0h-11.547a.781.781 0 0 0 0 1.56H0A.781.781 0 0 0 0 0" style="fill:#0098da;fill-opacity:1;fill-rule:nonzero;stroke:none" transform="translate(26.265 25.188)"/><path d="M0 0h-21.939a.781.781 0 0 0 0 1.56H0A.78.78 0 1 0 0 0" style="fill:#0098da;fill-opacity:1;fill-rule:nonzero;stroke:none" transform="translate(30.852 30.396)"/><path d="M0 0h-3.052a.781.781 0 0 0 0 1.56H0A.781.781 0 0 0 0 0" style="fill:#0098da;fill-opacity:1;fill-rule:nonzero;stroke:none" transform="translate(11.965 25.188)"/><path d="M0 0h-4.208a.78.78 0 1 0 0 1.559H0A.78.78 0 0 0 0 0" style="fill:#0098da;fill-opacity:1;fill-rule:nonzero;stroke:none" transform="translate(18.925 15.097)"/><path d="M0 0h-12.765a.78.78 0 0 0 0 1.559H0A.78.78 0 1 0 0 0" style="fill:#0098da;fill-opacity:1;fill-rule:nonzero;stroke:none" transform="translate(21.677 20.304)"/><path d="M0 0h-3.052a.78.78 0 1 0 0 1.559H0A.78.78 0 0 0 0 0" style="fill:#0098da;fill-opacity:1;fill-rule:nonzero;stroke:none" transform="translate(11.965 15.097)"/></g></svg>