<svg xmlns="http://www.w3.org/2000/svg" xml:space="preserve" width="69.33" height="71.31"><defs><clipPath clipPathUnits="userSpaceOnUse" id="a"><path d="M0 53.48h52V0H0Z"/></clipPath></defs><g clip-path="url(#a)" transform="matrix(1.33333 0 0 -1.33333 0 71.31)"><path d="M2.96 22.96c-.5 0-.92.4-.92.91v17.61c0 2.33 1.9 4.22 4.22 4.22H27.9a.91.91 0 1 0 0-1.83H6.26a2.4 2.4 0 0 1-2.39-2.39v-17.6c0-.51-.41-.92-.91-.92M44.9 2.93H28.44a.91.91 0 1 0 0 1.83H44.9a2.4 2.4 0 0 1 2.4 2.39v27.98a.91.91 0 1 0 1.82 0V7.15c0-2.33-1.9-4.22-4.22-4.22" fill="#0098da"/><path d="M27.88 36.99H3.97a.91.91 0 0 0 0 1.83h23.9a.91.91 0 1 0 0-1.83M50.35 51.73H32.42a.61.61 0 0 1-.62-.61l.13-17.09a.61.61 0 0 1 .98-.49l6.23 3.73h11.2c.34 0 .62.27.62.61v13.24c0 .33-.28.6-.61.6m-1.22-1.82V39.1h-10c-.32 0-.64-.1-.93-.26l-4.46-2.67-.1 13.73h15.49" fill="#0098da"/><path d="M39.85 45.85c0 .77-.4 1.38-1.48 1.38h-.68v-4.57h.68c1.11 0 1.48.66 1.48 1.46zm-1.65-4.47h-1.14c-.42 0-.78.33-.78.73v5.67c0 .4.36.73.78.73h1.14c2.28 0 3.06-1.25 3.06-2.66v-1.73c0-1.43-.77-2.74-3.06-2.74M46.38 41.38h-2.67c-.5 0-.93.17-.93.72v5.68c0 .36.33.72.77.72h2.73c.38 0 .7-.3.7-.66 0-.36-.32-.62-.7-.62h-2.1v-1.63h1.91c.35 0 .7-.27.7-.64 0-.36-.3-.64-.7-.64h-1.9v-1.65h2.2c.36 0 .7-.28.7-.62 0-.37-.33-.66-.7-.66M34.92 29.5h-4.14a.86.86 0 0 0 0 1.72h4.14a.86.86 0 0 0 0-1.72M43.54 21.25H34.6a.86.86 0 0 0 0 1.73h8.93a.86.86 0 0 0 0-1.73M43.14 29.5h-5.1a.86.86 0 0 0 0 1.72h5.1a.86.86 0 0 0 0-1.72M43.64 25.37H30.78a.86.86 0 0 0 0 1.73h12.86a.86.86 0 0 0 0-1.73M32.05 21.25h-1.27a.86.86 0 0 0 0 1.73h1.27a.86.86 0 0 0 0-1.73M34.92 16.72h-4.14a.86.86 0 0 0 0 1.72h4.14a.86.86 0 0 0 0-1.72M43.54 8.47H34.6a.86.86 0 0 0 0 1.73h8.93a.86.86 0 0 0 0-1.73M43.14 16.72h-5.1a.86.86 0 0 0 0 1.72h5.1a.86.86 0 0 0 0-1.72M43.64 12.6H30.78a.86.86 0 0 0 0 1.72h12.86a.86.86 0 0 0 0-1.72M32.05 8.47h-1.27a.86.86 0 0 0 0 1.73h1.27a.86.86 0 0 0 0-1.73M8.27 29.1h1c.89 0 1.36.4 1.36 1.24 0 .62-.25 1.26-1.36 1.26h-1Zm0-1.5v-2.17c0-.4-.38-.78-.83-.78-.44 0-.83.36-.83.78v6.82c0 .46.43.85.93.85h1.73c2.23 0 3.02-1.33 3.02-2.77 0-1.75-1.18-2.73-3.02-2.73z" fill="#0098da"/><path d="M8.27 29.1h1c.89 0 1.36.4 1.36 1.24 0 .62-.25 1.26-1.36 1.26h-1Zm0-1.5v-2.17c0-.4-.38-.78-.83-.78-.44 0-.83.36-.83.78v6.82c0 .46.43.85.93.85h1.73c2.23 0 3.02-1.33 3.02-2.77 0-1.75-1.18-2.73-3.02-2.73z" fill="none" stroke="#0098da" stroke-width=".11" stroke-miterlimit="10"/><path d="M18.94 24.65c-.43 0-.82.36-.82.77v2.76H15.6v-2.76c0-.41-.38-.77-.83-.77-.46 0-.83.36-.83.77v7.03c0 .4.37.75.83.75.45 0 .83-.35.83-.75v-2.76h2.52v2.76c0 .4.39.75.82.75.44 0 .83-.35.83-.75v-7.03c0-.41-.38-.77-.83-.77" fill="#0098da"/><path d="M18.94 24.65c-.43 0-.82.36-.82.77v2.76H15.6v-2.76c0-.41-.38-.77-.83-.77-.46 0-.83.36-.83.77v7.03c0 .4.37.75.83.75.45 0 .83-.35.83-.75v-2.76h2.52v2.76c0 .4.39.75.82.75.44 0 .83-.35.83-.75v-7.03c0-.41-.38-.77-.83-.77Z" fill="none" stroke="#0098da" stroke-width=".11" stroke-miterlimit="10"/><path d="M21.83 32.45c0 .4.36.75.82.75.45 0 .83-.35.83-.75V25.4c0-.4-.38-.76-.83-.76-.46 0-.82.36-.82.76Z" fill="#0098da"/><path d="M21.83 32.45c0 .4.36.75.82.75.45 0 .83-.35.83-.75V25.4c0-.4-.38-.76-.83-.76-.46 0-.82.36-.82.76Z" fill="none" stroke="#0098da" stroke-width=".11" stroke-miterlimit="10"/><path d="M6.57 18.12a2.26 2.26 0 0 1-2.26-2.26V5.1a2.26 2.26 0 0 1 2.26-2.26h15.62a2.26 2.26 0 0 1 2.26 2.26v10.75a2.26 2.26 0 0 1-2.26 2.26ZM22.19 1.03H6.57a4.08 4.08 0 0 0-4.08 4.08v10.75a4.08 4.08 0 0 0 4.08 4.08h15.62a4.08 4.08 0 0 0 4.08-4.08V5.1a4.08 4.08 0 0 0-4.08-4.08" fill="#0098da"/><path d="M14.3 16.04h-.06c-5.41-.04-7.49-4.87-7.57-5.07l-.28-.67.35-.64c.12-.21 2.92-5.17 7.5-5.17h.08c4.59.05 7.56 5.03 7.68 5.25l.4.7-.34.71c-.1.2-2.44 4.89-7.75 4.89m0-1.5c4.43 0 6.4-4.04 6.4-4.04S18.08 6.03 14.3 6l-.06-.01c-3.76 0-6.2 4.4-6.2 4.4s1.72 4.1 6.2 4.14h.06" fill="#0098da"/><path d="M14.38 14.82a4.56 4.56 0 1 1 0-9.13 4.56 4.56 0 0 1 0 9.13m0-1.5a3.06 3.06 0 1 0 0-6.12 3.06 3.06 0 0 0 0 6.12" fill="#0098da"/><path d="M15.89 10.26a1.5 1.5 0 1 0-3.02 0 1.5 1.5 0 0 0 3.02 0" fill="#0098da"/></g></svg>