<svg id="Слой_1" data-name="Слой 1" xmlns="http://www.w3.org/2000/svg" viewBox="0 0 35.29999 33"><defs><style>.cls-1{fill:#ffffff;}.cls-2{fill:none;}</style></defs><title>Detect Key Phrases</title><path class="cls-1" d="M18,24.6a3.1,3.1,0,1,0-3.1,3.1,2.79194,2.79194,0,0,0,1.8-.6L19,29.4l.7-.7-2.3-2.3a2.79194,2.79194,0,0,0,.6-1.8Zm-3.1,2.1a2.1,2.1,0,1,1,0-4.2A2.18159,2.18159,0,0,1,17,24.6a2.11226,2.11226,0,0,1-2.1,2.1Z"/><polygon class="cls-2" points="19.1 5.2 19.1 9.3 22.9 9.3 19.1 5.2"/><path class="cls-2" d="M18.7,3.1h0c.1.1,6.2,6.6,6.3,6.6V28.8h6.4A2.56183,2.56183,0,0,0,34,26.3V7.5H28.7a.66873.66873,0,0,1-.7-.6V1.2H14.2A2.61362,2.61362,0,0,0,11.7,3h6.7A.36737.36737,0,0,1,18.7,3.1Z"/><polygon class="cls-2" points="29.4 6.3 33.2 6.3 29.4 2.2 29.4 6.3"/><polygon class="cls-2" points="19.1 9.3 22.9 9.3 19.1 5.2 19.1 9.3"/><path class="cls-1" d="M35.3,6.7c-.1-.1-.1-.1-.1-.2L29.3.2,29.2.1h-.1a.75592.75592,0,0,0-.4-.1H14.2a3.793,3.793,0,0,0-3.7998,2.99933L3.9,3A3.86816,3.86816,0,0,0,0,6.7V29.3A3.86816,3.86816,0,0,0,3.9,33H21.1a3.7931,3.7931,0,0,0,3.8-3h6.5a3.86815,3.86815,0,0,0,3.9-3.7V6.7C35.2,6.7,35.2,6.6,35.3,6.7ZM29.4,2.2l3.8,4.1H29.4Zm-5.7,8.7V29.2c0,.3-.1.5-.1.7a2.61359,2.61359,0,0,1-2.5,1.8H3.9a2.54658,2.54658,0,0,1-2.6-2.4V6.7A2.48007,2.48007,0,0,1,3.9,4.3H17.7V10a.66871.66871,0,0,0,.7.6h5.3ZM19.1,9.3V5.2l3.8,4.1ZM34,26.3a2.5,2.5,0,0,1-2.6,2.5H25V9.7s-6.2-6.6-6.3-6.6a.36744.36744,0,0,0-.3-.1H11.98425l.00013-.00085h-.28406A2.61375,2.61375,0,0,1,14.2,1.2H28.1V6.9a.66875.66875,0,0,0,.7.6H34Z"/><path class="cls-1" d="M15.36475,31.55187A6.67236,6.67236,0,1,1,22.03711,24.879,6.68048,6.68048,0,0,1,15.36475,31.55187Zm0-12.1455A5.47314,5.47314,0,1,0,20.83789,24.879,5.479,5.479,0,0,0,15.36475,19.40637Z"/><rect class="cls-1" x="3.78125" y="10.57726" width="11.3125" height="1.78125" rx="0.89062" ry="0.89062"/><rect class="cls-1" x="3.78125" y="14.76476" width="16.90625" height="1.78125" rx="0.89062" ry="0.89062"/><path class="cls-1" d="M9.38617,23.35852h-3.808a1.04688,1.04688,0,1,1,0-2.09375h4.70611c.35407-.49921.72-.99,1.05884-1.5h-5.765a2.54688,2.54688,0,1,0,0,5.09375H8.92059A10.56742,10.56742,0,0,1,9.38617,23.35852Z"/><rect class="cls-1" x="24.125" y="20.57726" width="8.71875" height="1.78125" rx="0.78188" ry="0.78188"/><path class="cls-1" d="M23.69649,14.73352h5.808a1.04688,1.04688,0,0,0,0-2.09375H24.79842c-.35406-.49921-.72-.99-1.05884-1.5h5.765a2.54688,2.54688,0,0,1,0,5.09375H24.16207A10.56742,10.56742,0,0,0,23.69649,14.73352Z"/></svg>