<svg width="66.667" height="66.667" xmlns="http://www.w3.org/2000/svg"><defs><clipPath clipPathUnits="userSpaceOnUse" id="a"><path d="M0 50h50V0H0Z"/></clipPath></defs><g clip-path="url(#a)" transform="matrix(1.33333 0 0 -1.33333 0 66.667)"><path d="M0 0c0-1.619-1.447-2.985-3.369-3.298v-.911a.847.847 0 0 0-.84-.85.847.847 0 0 0-.84.85v.9a4.418 4.418 0 0 0-2.873 1.7.84.84 0 0 0 .162 1.184.83.83 0 0 0 1.173-.162A2.82 2.82 0 0 1-4.249-1.69h.04C-2.823-1.669-1.68-.9-1.68 0c0 .921-1.163 1.69-2.529 1.69-2.327 0-4.209 1.517-4.209 3.379 0 1.619 1.447 2.985 3.369 3.298v.911c0 .465.375.85.84.85.465 0 .84-.385.84-.85v-.901A4.457 4.457 0 0 0-.496 6.678a.86.86 0 0 0-.162-1.184.84.84 0 0 0-1.183.162 2.794 2.794 0 0 1-2.338 1.103h-.03c-1.396-.01-2.529-.79-2.529-1.69 0-.921 1.153-1.7 2.529-1.7C-1.892 3.369 0 1.862 0 0" style="fill:#0098da;fill-opacity:1;fill-rule:nonzero;stroke:none" transform="translate(15.449 27.428)"/><path d="M0 0a3.342 3.342 0 0 0-3.339 3.339v5.059c.304-.152.587-.354.83-.597L4.452.83A3.02 3.02 0 0 0 5.059 0Zm-11.322 1.275A3.46 3.46 0 0 0-10.29.546l7.568-7.568c.304-.303.547-.647.719-1.032h-5.616c-2.033 0-3.703 1.67-3.703 3.714zM7.062-.84c0 .061-.01.122-.02.182a5.037 5.037 0 0 1-1.396 2.682l-6.961 6.961a5.026 5.026 0 0 1-2.702 1.396 4.007 4.007 0 0 1-.85.081h-15.328c-1.882 0-4.675-1.518-4.675-3.612V3.319h-5.949a3.858 3.858 0 0 1-3.844-3.855v-35.352a3.648 3.648 0 0 1 3.642-3.652h27.419a3.658 3.658 0 0 1 3.653 3.652.846.846 0 0 1-1.69 0c0-1.082-.88-1.963-1.963-1.963h-27.419a1.965 1.965 0 0 0-1.963 1.963V-.536c0 1.194.971 2.175 2.165 2.175h17.818V-4.34c0-2.975 2.418-5.393 5.382-5.393h5.98v-2.145a.846.846 0 0 1 1.69 0v2.236c0 .253-.021.506-.061.749 0 .06-.01.121-.02.182a5.424 5.424 0 0 1-1.498 2.883L-9.096 1.74a5.303 5.303 0 0 1-2.894 1.498c-.06.01-.111.02-.172.02a4.49 4.49 0 0 1-.738.061h-10.29V6.85c0 .91 1.791 1.922 2.995 1.922h15.166V3.339A5.027 5.027 0 0 1 0-1.68h5.433v-9.945c0-.466.375-.84.84-.84.465 0 .84.374.84.84V-1.528c0 .233-.02.466-.051.688" style="fill:#0098da;fill-opacity:1;fill-rule:nonzero;stroke:none" transform="translate(35.24 39.54)"/><path d="M0 0h-19.172a.841.841 0 1 0 0 1.682H0A.84.84 0 1 0 0 0" style="fill:#0098da;fill-opacity:1;fill-rule:nonzero;stroke:none" transform="translate(25.773 10.908)"/><path d="M0 0h-13.58a.841.841 0 1 0 0 1.682H0A.84.84 0 1 0 0 0" style="fill:#0098da;fill-opacity:1;fill-rule:nonzero;stroke:none" transform="translate(25.773 5.793)"/><path d="M0 0h-1.841a.841.841 0 1 0 0 1.682H0A.841.841 0 1 0 0 0" style="fill:#0098da;fill-opacity:1;fill-rule:nonzero;stroke:none" transform="translate(8.442 5.793)"/><path d="M0 0h-3.548a.841.841 0 1 0 0 1.682H0A.84.84 0 1 0 0 0" style="fill:#0098da;fill-opacity:1;fill-rule:nonzero;stroke:none" transform="translate(25.773 16.258)"/><path d="M0 0h-11.873a.841.841 0 1 0 0 1.682H0A.841.841 0 1 0 0 0" style="fill:#0098da;fill-opacity:1;fill-rule:nonzero;stroke:none" transform="translate(18.474 16.258)"/><path d="m0 0-.9-2.823a.811.811 0 0 0-.486-.526.808.808 0 0 0-.718.051l-2.692 1.497A.846.846 0 0 0-5.12-.658a.84.84 0 0 0 1.154.324l.718-.395a7.836 7.836 0 0 1-5.676 4.493c-4.239.789-8.327-1.993-9.136-6.223-.799-4.239 1.993-8.337 6.222-9.136 3.359-.627 6.809 1.032 8.388 4.057a.827.827 0 0 0 1.133.354.835.835 0 0 0 .354-1.133c-1.649-3.157-4.968-5.089-8.448-5.089a9.3 9.3 0 0 0-1.74.162c-5.14.971-8.53 5.949-7.558 11.099.971 5.14 5.949 8.539 11.099 7.558A9.506 9.506 0 0 0-1.75.03l.151.476a.833.833 0 0 0 1.053.546A.828.828 0 0 0 0 0" style="fill:#0098da;fill-opacity:1;fill-rule:nonzero;stroke:none" transform="translate(49.384 19.597)"/><path d="M0 0a.841.841 0 0 0-1.194-.01l-2.894 2.863a.848.848 0 0 0-.252.597v5.636c0 .465.374.85.839.85.466 0 .84-.385.84-.85V3.804l2.651-2.62A.834.834 0 0 0 0 0" style="fill:#0098da;fill-opacity:1;fill-rule:nonzero;stroke:none" transform="translate(42.453 11.594)"/></g></svg>