<svg xmlns="http://www.w3.org/2000/svg" xml:space="preserve" width="66.67" height="69.33"><defs><clipPath clipPathUnits="userSpaceOnUse" id="a"><path d="M0 52h50V0H0Z"/></clipPath></defs><g clip-path="url(#a)" transform="matrix(1.33333 0 0 -1.33333 0 69.33)"><path d="M33.84 19.49h.01Zm-1.43 1.37a.72.72 0 1 1 0-1.45.72.72 0 0 1 0 1.45m0-3.15a2.4 2.4 0 0 0-2.27 1.56 2.4 2.4 0 0 0 .05 1.85c.27.6.75 1.05 1.35 1.28.6.23 1.26.2 1.86-.06a2.41 2.41 0 0 0-1-4.64M25.3 45.14H2.54v3.22c0 .65.54 1.19 1.2 1.19H24.1c.66 0 1.2-.54 1.2-1.19Zm-2.05-4.21H4.6v2.5h18.66zm.85 10.32H3.74c-1.59 0-2.89-1.3-2.89-2.89V44.3c0-.47.39-.85.86-.85h1.18V23.93C2.9 21.2 5.1 19 7.81 19h7.77a.85.85 0 1 1 0 1.7H7.81a3.23 3.23 0 0 0-3.22 3.22v.16h13.33a.85.85 0 1 1 0 1.7H4.59v13.44h18.66V35.92a.85.85 0 0 1 1.7 0v7.52h1.2c.46 0 .84.38.84.85v4.07c0 1.6-1.3 2.89-2.89 2.89" fill="#0098da"/><path d="M13.24 28.9h1.37v2.12c0 .47.38.85.85.85h2.23v1.26h-2.23a.85.85 0 0 0-.85.85v2.11h-1.37V34a.85.85 0 0 0-.85-.86h-2.23v-1.26h2.23c.46 0 .85-.38.85-.85Zm1.45-1.7h-1.54c-.89 0-1.61.72-1.61 1.6v1.37h-1.46c-.9 0-1.62.71-1.62 1.6v1.47c0 .88.73 1.6 1.62 1.6h1.46v1.36c0 .88.72 1.6 1.61 1.6h1.54c.9 0 1.62-.72 1.62-1.6v-1.37h1.46c.89 0 1.62-.71 1.62-1.59v-1.48c0-.88-.73-1.59-1.62-1.59H16.3V28.8c0-.88-.73-1.6-1.62-1.6M22.44 14.63H42c1.14 0 2.17.58 2.77 1.55.6.97.65 2.15.14 3.17L35.13 38.9a3.24 3.24 0 0 1-2.91 1.8 3.24 3.24 0 0 1-2.91-1.8l-9.78-19.55c-.5-1.02-.46-2.2.14-3.17a3.23 3.23 0 0 1 2.77-1.55ZM42 12.93H22.44c-1.73 0-3.3.88-4.21 2.35a4.93 4.93 0 0 0-.22 4.83l9.78 19.55a4.92 4.92 0 0 0 4.43 2.74c1.9 0 3.59-1.05 4.43-2.74l9.78-19.55c.78-1.55.7-3.35-.22-4.83a4.92 4.92 0 0 0-4.2-2.35" fill="#0098da"/><path d="M32.15 34.25a.23.23 0 0 1-.22-.23v-8.28c0-.13.1-.23.22-.23h.5c.13 0 .24.1.24.23v8.28c0 .12-.1.23-.23.23Zm.5-10.44h-.5c-1.06 0-1.92.86-1.92 1.93v8.28c0 1.06.86 1.93 1.92 1.93h.5c1.07 0 1.94-.87 1.94-1.93v-8.28c0-1.07-.87-1.93-1.93-1.93M30.79 6.65c-.55 0-.83-.29-.83-.76V4.5c0-.47.28-.76.83-.76.55 0 .83.29.83.76v1.4c0 .47-.28.76-.83.76M40.67 6.04c0 .47-.24.66-.67.66-.5 0-.77-.27-.77-.7V5.5c.3-.04.64-.05.77-.05.5 0 .67.23.67.6M11.37 6.04c0 .47-.24.66-.67.66-.5 0-.77-.27-.77-.7V5.5c.3-.04.64-.05.77-.05.5 0 .67.23.67.6M6.06 6.72c-.36 0-.64-.12-.85-.34V4.33c0-.4.3-.65.79-.65.53 0 .79.3.79.77V6.1c0 .4-.22.63-.73.63" fill="#0098da"/><path d="M46.4 3.34c0-.25-.17-.44-.47-.44-.31 0-.48.2-.48.44v2.43c0 .55-.25.88-.7.88-.26 0-.53-.1-.82-.27a.95.95 0 0 0 .03-.21V3.34c0-.25-.16-.44-.48-.44-.32 0-.48.2-.48.44v2.83c0 .38-.06.4-.11.49-.07.1-.1.16-.1.26 0 .23.19.4.45.4.17 0 .31-.09.42-.25.4.28.82.4 1.21.4 1.02 0 1.53-.69 1.53-1.7Zm-6.35.36c.33 0 .57.09.86.22.02.02.09.05.2.05.29 0 .42-.23.42-.4 0-.53-1.04-.68-1.56-.68-1.08 0-1.7.65-1.7 1.5v1.56c0 .87.61 1.53 1.75 1.53 1.06 0 1.6-.58 1.6-1.46 0-.83-.5-1.32-1.61-1.32a5 5 0 0 0-.78.06v-.4c0-.4.27-.66.82-.66m-3.21-.8c-.27 0-.33.1-.51.37l-1.16 1.67-.2-.2v-1.2c0-.33-.11-.64-.48-.64-.28 0-.48.18-.48.44v5.33c0 .34.08.66.48.66.26 0 .47-.2.47-.44V5.85l1.27 1.35c.12.12.26.24.45.24.26 0 .46-.17.46-.41a.42.42 0 0 0-.13-.3L35.83 5.5l1.39-1.96a.48.48 0 0 0 .08-.26c-.02-.24-.21-.38-.46-.38m-4.27 1.6c0-.9-.62-1.6-1.78-1.6-1.16 0-1.78.7-1.78 1.6v1.38c0 .91.62 1.6 1.78 1.6 1.16 0 1.78-.69 1.78-1.6zm-5.19-1.57c-1.3 0-1.62.63-1.62 1.84V8.3c0 .25.17.44.48.44.3 0 .47-.2.47-.44V7.22h.78c.25 0 .45-.18.45-.43 0-.24-.2-.42-.45-.42h-.78V4.83c0-.78.07-1.06.6-1.06l.16.01c.38 0 .59-.1.59-.4 0-.4-.34-.45-.68-.45m-3.22 1.3h-.25v-.9c0-.25-.21-.45-.48-.45s-.47.2-.47.45v.9h-2.07c-.3 0-.5.22-.5.47 0 .04.03.18.09.28l1.69 4.07c.07.16.24.27.42.27.23 0 .47-.21.47-.46 0-.04 0-.1-.02-.16-.26-.59-1.25-3-1.5-3.6h1.42v1.53c0 .26.2.45.47.45.26 0 .48-.2.48-.45V5.1h.25c.25 0 .45-.2.45-.44 0-.25-.2-.44-.45-.44m-5.24-1.3c-1.3 0-1.62.64-1.62 1.85V8.3c0 .25.16.44.47.44.3 0 .48-.2.48-.44V7.22h.78c.25 0 .45-.18.45-.43 0-.24-.2-.42-.45-.42h-.78V4.83c0-.78.07-1.06.6-1.06l.16.01c.37 0 .58-.1.58-.4 0-.4-.33-.45-.67-.45m-3.3 3.63c-.37.01-.61.02-.98-.2l.02-.2V3.34c0-.26-.22-.45-.48-.45-.27 0-.48.2-.48.45v2.82c0 .24-.03.38-.12.5a.36.36 0 0 0-.09.25c0 .24.21.41.46.41.16 0 .3-.1.4-.26.4.24.85.38 1.16.38.45 0 .59-.18.59-.43a.44.44 0 0 0-.49-.45M10.75 3.7c.33 0 .57.09.86.22.02.02.09.05.19.05.3 0 .43-.23.43-.4 0-.53-1.04-.68-1.56-.68-1.08 0-1.7.65-1.7 1.5v1.56c0 .87.61 1.53 1.75 1.53 1.06 0 1.6-.58 1.6-1.46 0-.83-.5-1.32-1.61-1.32-.25 0-.5.01-.78.06v-.4c0-.4.27-.66.82-.66m-3 .8c0-.9-.6-1.6-1.75-1.6-1.11 0-1.75.63-1.75 1.43V8.9c0 .22.17.43.48.43.3 0 .48-.2.48-.43V7.18c.3.2.61.3 1.06.3 1.06 0 1.47-.62 1.47-1.42zm40.79 6.6H1.75a.6.6 0 0 1-.6-.61V1.36c0-.34.27-.6.6-.6h46.79c.33 0 .6.26.6.6v9.13a.6.6 0 0 1-.6.6" fill="#0098da"/></g></svg>