<svg version="1.1" id="Слой_1" xmlns="http://www.w3.org/2000/svg" x="0" y="0" viewBox="0 0 30 30" xml:space="preserve"><style>.st0{fill:#ffffff}</style><switch><g><path class="st0" d="M11.4 7.8c-.3 0-.5.2-.5.5s.2.5.5.5.5-.2.5-.5-.2-.5-.5-.5zM13.3 7.8c-.3 0-.5.2-.5.5s.2.5.5.5.5-.2.5-.5-.2-.5-.5-.5zM16.8 7.8c-.3 0-.5.2-.5.5s.2.5.5.5.5-.2.5-.5-.3-.5-.5-.5zM18.7 7.8c-.3 0-.5.2-.5.5s.2.5.5.5.5-.2.5-.5-.3-.5-.5-.5zM24 7.8c-.3 0-.5.2-.5.5s.2.5.5.5.5-.2.5-.5-.2-.5-.5-.5zM22.4 7.8c-.3 0-.5.2-.5.5s.2.5.5.5.5-.2.5-.5c-.1-.3-.3-.5-.5-.5zM7.9 7.8c-.2 0-.4.2-.4.5s.2.5.5.5.5-.2.5-.5c-.1-.3-.3-.5-.6-.5zM6 7.8c-.3 0-.5.2-.5.5s.2.5.5.5.5-.2.5-.5-.2-.5-.5-.5z"/><path class="st0" d="M26 5.9h-.8V4.6c0-.4-.3-.8-.8-.8h-.9c-.4 0-.8.3-.8.8v1.3h-1.6V4.6c0-.4-.3-.8-.8-.8h-.9c-.4 0-.8.3-.8.8v1.3H11V4.6c0-.4-.3-.8-.8-.8h-.7c-.4 0-.8.3-.8.8v1.3H7.2V4.6c0-.4-.3-.8-.8-.8h-.9c-.4 0-.8.3-.8.8v1.3h-.4c-.8 0-1.4.6-1.4 1.4v19.1c0 .8.6 1.4 1.4 1.4H26c.8 0 1.4-.6 1.4-1.4V7.3c0-.8-.6-1.4-1.4-1.4zm-2.5-1.3h.9v1.3h-.9V4.6zm-4 0h.9v1.3h-.9V4.6zm-10 0h.9v1.3h-.9V4.6zm-4 0h.9v1.3h-.9V4.6zm20.9 21.9c0 .3-.2.5-.5.5H4.3c-.3 0-.5-.2-.5-.5V10.7h22.6v15.8zm0-16.8H3.8V7.3c0-.3.2-.5.5-.5H26c.3 0 .5.2.5.5v2.4z"/><path class="st0" d="M5.4 25.5h5.4c.2 0 .4-.2.4-.4V22c0-.2-.2-.4-.4-.4H5.4c-.3 0-.4.2-.4.4v3.1c0 .2.1.4.4.4zm.3-3.1h4.6v2.3H5.7v-2.3zM12.3 15h3.1c.2 0 .4-.2.4-.4v-2.3c0-.2-.2-.4-.4-.4h-3.1c-.2 0-.4.2-.4.4v2.3c0 .2.2.4.4.4zm.4-2.3H15v1.5h-2.3v-1.5zM12.3 19.9h3.1c.2 0 .4-.2.4-.4v-2.3c0-.2-.2-.4-.4-.4h-3.1c-.2 0-.4.2-.4.4v2.3c0 .2.2.4.4.4zm.4-2.4H15V19h-2.3v-1.5zM12.3 25.5h3.1c.2 0 .4-.2.4-.4V22c0-.2-.2-.4-.4-.4h-3.1c-.2 0-.4.2-.4.4v3.1c0 .2.2.4.4.4zm.4-3.1H15v2.3h-2.3v-2.3zM21.2 19.9a3.9 3.9 0 10-.01-7.81 3.9 3.9 0 00.01 7.81zm0-7c1.7 0 3.1 1.4 3.1 3.1 0 1.7-1.4 3.1-3.1 3.1-1.7 0-3.1-1.4-3.1-3.1 0-1.7 1.4-3.1 3.1-3.1z"/><path class="st0" d="M21.2 16.8h1.5c.2 0 .4-.2.4-.4s-.2-.4-.4-.4h-1.2v-1.9c0-.2-.2-.4-.4-.4s-.4.2-.4.4v2.3c.1.2.3.4.5.4zM5.4 15h5.4c.1 0 .3-.1.3-.2s.1-.3 0-.4l-.6-.9.6-.9c.1-.1.1-.3 0-.4-.1-.1-.2-.2-.3-.2H5.4c-.2 0-.4.2-.4.4v2.3c0 .1.1.3.4.3zm3.4-2.3H10l-.4.6c-.1.1-.1.3 0 .4l.4.6H8.8v-1.6zm-3.1 0H8v1.5H5.7v-1.5zM5.4 19.9h5.4c.1 0 .3-.1.3-.2.1-.1.1-.3 0-.4l-.6-.9.6-.9c.1-.1.1-.3 0-.4-.1-.1-.2-.2-.3-.2H5.4c-.3-.1-.4.1-.4.3v2.3c0 .2.1.4.4.4zm3.4-2.4H10l-.4.6c-.1.1-.1.3 0 .4l.4.6H8.8v-1.6zm-3.1 0H8V19H5.7v-1.5zM20 21.6h-1.5c-.2 0-.4.2-.4.4v3.1c0 .2.2.4.4.4H20c.2 0 .4-.2.4-.4V22c0-.2-.2-.4-.4-.4zm-.4 3.1h-.8v-2.3h.8v2.3zM23.9 21.6h-1.5c-.2 0-.4.2-.4.4v3.1c0 .2.2.4.4.4h1.5c.2 0 .4-.2.4-.4V22c0-.2-.2-.4-.4-.4zm-.4 3.1h-.8v-2.3h.8v2.3z"/></g></switch></svg>