<svg version="1.1" id="Слой_1" xmlns="http://www.w3.org/2000/svg" x="0" y="0" viewBox="0 0 85 85" xml:space="preserve"><style>.st1{fill:#0098da}</style><path fill="none" d="M0 0h85v85H0z"/><path class="st1" d="M20.8 32.9c0 1.8 1.5 3.3 3.3 3.3 1.8 0 3.3-1.5 3.3-3.3 0-1.8-1.5-3.3-3.3-3.3s-3.3 1.5-3.3 3.3zm4.6 0c0 .7-.6 1.3-1.3 1.3-.7 0-1.3-.6-1.3-1.3s.6-1.3 1.3-1.3c.7 0 1.3.6 1.3 1.3zM29.5 28.5c1.8 0 3.3-1.5 3.3-3.3 0-1.8-1.5-3.3-3.3-3.3-1.8 0-3.3 1.5-3.3 3.3 0 1.9 1.5 3.3 3.3 3.3zm0-4.5c.7 0 1.3.6 1.3 1.3 0 .7-.6 1.3-1.3 1.3-.7 0-1.3-.6-1.3-1.3 0-.7.5-1.3 1.3-1.3zM18.4 45.5c-.3-.2-.6-.6-.8-1-.3-.4-.6-.7-.9-.9a5.6 5.6 0 01-1.7-6.5l.1-.2c.5-1.2.2-2.6-.8-3.5l-.2-.2a5.61 5.61 0 01-1.7-5.5c.5-2 1.9-3.6 3.9-4.2 1.3-.4 1.9-1.1 2.2-1.7.2-.4.7-.7 1.1-.7.2 0 .4 0 .5.1.3.1.5.4.6.7.1.3.1.7-.1 1-.7 1.4-2 2.5-3.5 3l-.2.1a3.2 3.2 0 00-2.2 2.3c-.3 1.1.1 2.3 1 3l.2.2a5.7 5.7 0 011.4 6.3l.1.2c-.5 1.3-.1 2.7.9 3.6.5.4 1.1.9 1.5 1.6.1.2.3.5.4.7l.2.2-.6.5c-.3.3-.6.4-.9.8l-.2.2-.3-.1z"/><path class="st1" d="M72 72.1c-.8 0-1.6-.2-2.3-.5-.4-.2-.8-.4-1.3-.6-.3-.2-.5-.4-.6-.7s-.1-.7.1-1c.2-.4.6-.7 1.1-.7.2 0 .4 0 .6.1l1.2.6c.4.2.8.3 1.2.3 1.1 0 2-.6 2.5-1.6l2.4-5.4c.6-1.3 0-2.9-1.3-3.6-7.8-3.9-14.5-8.3-19.4-12.8-4-3.7-5.6-6.5-6.2-7.4v-.2c-1.2-1.8-3.1-5.8-4.2-10.2-1-4-1.8-9.5.3-13.7a20.4 20.4 0 00-9.6 17.2c0 2.8.6 5.6 1.7 8.4 4.7 2.6 7.9 7.3 8.7 12.6 4.8 4.8 11.1 9.4 18.6 13.6.6.3.8 1.1.5 1.7-.2.4-.6.7-1.1.7-.2 0-.4-.1-.6-.2-2.6-1.5-5.1-3-7.5-4.6-3.9 2.6-8.3 5.1-12.9 7.4-.7.4-1.5.5-2.3.5-1.3 0-2.5-.5-3.5-1.3-.4-.2-1.4-1.1-1.6-1.5l-.2-.2.6-.3c.4-.2.8-.5 1-.6l.1-.1.2.1c.3.2.6.3.9.5.7.4.9.5 1 .6.4.3.9.4 1.4.4.4 0 .8-.1 1.2-.3 4.2-2.1 8.2-4.3 11.8-6.7-2.7-1.9-5.2-4-7.5-6v.7l-.4-.3c-.7-.5-1.3-1.1-1.9-1.8l-.1-.1V55c-.2-5.5-3.4-10.4-8.3-12.9h-.1l-.3-.6-.9-2.1-.3-.6.3.2a25 25 0 01-1.1-7.1c0-4.5 1.3-8.8 3.7-12.5-.5-1.1-1.6-1.8-2.9-1.8a3 3 0 00-1.8.6l-.2.1c-1 .7-2.1 1-3.2 1s-2.3-.3-3.2-1l-.2-.1c-.6-.4-1.2-.6-1.8-.6-.9 0-1.9.5-2.5 1.2-.2.3-.6.5-1 .5-.3 0-.6-.1-.8-.3-.3-.2-.4-.5-.5-.9 0-.3.1-.7.3-.9 1.1-1.4 2.7-2.1 4.5-2.1 1.2 0 2.3.3 3.2 1l.2.1a3 3 0 003.6 0l.2-.1a5.64 5.64 0 017.7 1.2C43.7 12 50 9.1 56.8 9.1H58a22.7 22.7 0 0121.6 23.2c-.1 7-3.3 14-9.6 20.8 2.1 1.3 4.4 2.5 6.8 3.7 2.6 1.3 3.6 4.3 2.5 6.9L76.8 69c-.8 1.9-2.7 3.1-4.8 3.1zM58.6 44.9c2.6 2.3 5.7 4.6 9.2 6.9 6-6.4 9.1-13 9.3-19.5.1-7.2-3.5-13.9-9.6-17.6 2.1 4.2 1.4 9.7.3 13.8-1.1 4.3-3 8.4-4.2 10.2 0 0-.1.1-.1.2-.5.7-1.9 3-4.9 6zm-1.8-19.4c-3.5 0-6.4 2.9-6.4 6.4 0 4.2 3.9 8.8 6.4 11.2 2.5-2.5 6.4-7.1 6.4-11.2 0-3.5-2.9-6.4-6.4-6.4zm0-13.9H56c-3.8.2-6.4 1.6-7.7 4.2-1.9 3.8-.8 9.4.2 12.9a8.9 8.9 0 0116.6 0c1-3.5 2-9.1.2-12.9-1.4-2.8-4.2-4.2-8.5-4.2z"/><path class="st1" d="M46 49c-.6-1.7-1.5-3.4-2.8-4.9-.3-.4-.7-.8-1.1-1.2l-.7-.7-1.5-1.2c-.6-.4-1.3-.8-1.9-1.2-.9-.5-1.8-.8-2.8-1.1-.6-.2-1.3-.3-1.9-.4-1.9-.3-3.8-.3-5.7 0-.6.1-1.3.2-1.9.4-.9.3-1.7.6-2.6 1-1.3.6-2.5 1.4-3.6 2.4-.3.3-.6.5-.9.8-5.2 5.2-6.2 13-3.1 19.2l-15 15L8 84.5 19.5 73l3.4-3.4c.1 0 .1 0 .2.1.8.4 1.7.7 2.6 1 1.5.5 3.1.7 4.7.7s3.3-.2 4.8-.7c1-.3 1.9-.7 2.8-1.1.7-.3 1.3-.7 1.9-1.2.8-.5 1.5-1.1 2.2-1.8.4-.4.7-.7 1-1.1.5-.6 1-1.2 1.4-1.9.9-1.5 1.6-3.2 2-4.9.8-3.3.6-6.7-.5-9.7zM8 80.5L4.5 77l8.6-8.7 3.5 3.5L8 80.5zM19.5 69l-.9.9-3.5-3.5 1.9-1.9a14.62 14.62 0 002.5 2.7c.3.3.6.5 1 .8l-1 1zm21.6-5.6c-.3.4-.6.7-1 1.1-.7.7-1.4 1.2-2.1 1.7-.9.6-1.8 1.1-2.8 1.4-.6.2-1.3.4-1.9.6-1.9.4-3.8.4-5.7 0a13.32 13.32 0 01-7-3.7c-.4-.4-.8-.8-1.1-1.3-3.9-5-3.9-12 0-17a12.67 12.67 0 018.1-5 13.33 13.33 0 015.7 0c.6.1 1.3.3 1.9.6 1 .4 1.9.9 2.8 1.4.4.3.9.6 1.3.9.3.2.6.5.9.8 1.2 1.2 2.1 2.6 2.8 4.1.3.6.5 1.3.7 1.9.5 1.9.6 3.8.4 5.7-.1.6-.2 1.3-.4 1.9-.5 1.8-1.4 3.4-2.6 4.9zM50.1 72.2c-.7 0-1.2.6-1.2 1.2s.6 1.2 1.2 1.2h14.5c.7 0 1.2-.6 1.2-1.2s-.6-1.2-1.2-1.2H50.1z"/><g><path class="st1" d="M38.3 49.1c-.7-.6-1.8-.5-2.3.2l-7.4 8.8-3.1-3.1c-.6-.6-1.7-.6-2.3 0-.6.6-.6 1.7 0 2.3l4.4 4.4c.3.3.7.5 1.2.5h.1c.5 0 .9-.2 1.2-.6l8.6-10.2c.4-.7.3-1.7-.4-2.3z"/></g></svg>