<svg version="1.1" id="Слой_1" xmlns="http://www.w3.org/2000/svg" x="0" y="0" viewBox="0 0 85 85" xml:space="preserve"><style>.st0{fill:none}.st1{fill:#0098da}</style><path class="st0" d="M0 0h85v85H0z"/><path class="st1" d="M61.3 32.5h-7.6a1 1 0 00-1 1v7.6c0 .5.4 1 1 1h7.6c.5 0 1-.4 1-1v-7.6c0-.6-.5-1-1-1zm-.9 7.6h-5.7v-5.7h5.7v5.7zM73.7 32.5H66a1 1 0 00-1 1v7.6c0 .5.4 1 1 1h7.6c.5 0 1-.4 1-1v-7.6c0-.6-.4-1-.9-1zm-1 7.6H67v-5.7h5.7v5.7zM61.3 46.9h-7.6a1 1 0 00-1 1v7.6c0 .5.4 1 1 1h7.6c.5 0 1-.4 1-1v-7.6c0-.6-.5-1-1-1zm-.9 7.6h-5.7v-5.7h5.7v5.7zM73.7 46.9H66a1 1 0 00-1 1v7.6c0 .5.4 1 1 1h7.6c.5 0 1-.4 1-1v-7.6c0-.6-.4-1-.9-1zm-1 7.6H67v-5.7h5.7v5.7z"/><g><path class="st1" d="M73.7 61.3H66a1 1 0 00-1 1v7.6c0 .5.4 1 1 1h7.6c.5 0 1-.4 1-1v-7.6c0-.6-.4-1-.9-1zm-1 7.6H67v-5.7h5.7v5.7zM61.3 61.3h-7.6a1 1 0 00-1 1v7.6c0 .5.4 1 1 1h7.6c.5 0 1-.4 1-1v-7.6c0-.6-.5-1-1-1zm-.9 7.6h-5.7v-5.7h5.7v5.7z"/></g><g><path class="st0" d="M76 21c0 2-1.7 3.7-3.7 3.7S68.6 23 68.6 21v-1h-3.1v1c0 2-1.7 3.7-3.7 3.7S58.1 23 58.1 21v-1H55v1c0 2-1.7 3.7-3.7 3.7S47.6 23 47.6 21v-1h-3.1v1c0 2-1.7 3.7-3.7 3.7S37.1 23 37.1 21v-1H34v1c0 2-1.7 3.7-3.7 3.7S26.6 23 26.6 21v-1h-1.2v6.9h51.7V20H76v1z"/></g><g><path class="st0" d="M48 68.9v-5.7h-2.5c-.3.4-.7.8-1 1.1-.7.7-1.4 1.3-2.2 1.8v2.7H48z"/><path transform="rotate(-45 12.23 73.1)" class="st0" d="M5.1 70.6h14.3v4.9H5.1z"/><path class="st0" d="M35.7 36.2v-1.8H30v1.8c1.8-.3 3.8-.3 5.7 0zM40.7 22.3h.2c.7 0 1.3-.6 1.3-1.3v-5.6c0-.7-.6-1.3-1.3-1.3h-.2c-.7 0-1.3.6-1.3 1.3V21c0 .7.6 1.3 1.3 1.3zM61.8 22.3h.2c.7 0 1.3-.6 1.3-1.3v-5.6c0-.7-.6-1.3-1.3-1.3h-.2c-.7 0-1.3.6-1.3 1.3V21c0 .7.5 1.3 1.3 1.3zM51.3 22.4h.2c.7 0 1.3-.6 1.3-1.3v-5.6c0-.7-.6-1.3-1.3-1.3h-.2c-.7 0-1.3.6-1.3 1.3v5.6c0 .8.6 1.3 1.3 1.3zM30.1 22.4h.2c.7 0 1.3-.6 1.3-1.3v-5.6c0-.7-.6-1.3-1.3-1.3h-.2c-.7 0-1.3.6-1.3 1.3v5.6c0 .7.6 1.3 1.3 1.3z"/><path class="st0" d="M76 21c0 2-1.7 3.7-3.7 3.7S68.6 23 68.6 21v-1h-3.1v1c0 2-1.7 3.7-3.7 3.7S58.1 23 58.1 21v-1H55v1c0 2-1.7 3.7-3.7 3.7S47.6 23 47.6 21v-1h-3.1v1c0 2-1.7 3.7-3.7 3.7S37.1 23 37.1 21v-1H34v1c0 2-1.7 3.7-3.7 3.7S26.6 23 26.6 21v-1h-1.2v6.9h51.7V20H76v1z"/><path class="st0" d="M72.2 22.6h.2c.7 0 1.3-.6 1.3-1.3v-5.6c0-.7-.6-1.3-1.3-1.3h-.2c-.7 0-1.3.6-1.3 1.3v5.6c0 .7.6 1.3 1.3 1.3z"/><path class="st1" d="M30 34.4h5.7v1.8c.6.1 1.3.3 1.9.4v-3.2c0-.5-.4-1-1-1H29a1 1 0 00-1 1v3.2c.6-.2 1.3-.3 1.9-.4v-1.8zM48 63.2v5.7h-5.7v-2.7c-.6.4-1.2.8-1.9 1.2v2.5c0 .5.4 1 1 1H49c.5 0 1-.4 1-1v-7.6c0-.5-.4-1-1-1h-2.1c-.4.7-.9 1.3-1.4 1.9H48z"/><path class="st0" d="M48 40.1v-5.7h-5.7V39c.5.4 1 .7 1.5 1.2H48z"/><path class="st1" d="M49 32.5h-7.6a1 1 0 00-1 1v4.4c.7.3 1.3.7 1.9 1.2v-4.6H48v5.7h-4.3c.3.2.5.5.7.7.4.4.7.8 1.1 1.2H49c.5 0 1-.4 1-1v-7.6c-.1-.6-.5-1-1-1z"/><path class="st1" d="M48.4 46.9c-.6-1.7-1.5-3.4-2.8-4.9-.3-.4-.7-.8-1.1-1.2l-.7-.7-1.5-1.2c-.6-.4-1.3-.8-1.9-1.2-.9-.5-1.8-.8-2.8-1.1-.6-.2-1.3-.3-1.9-.4-1.9-.3-3.8-.3-5.7 0-.6.1-1.3.2-1.9.4-.9.3-1.7.6-2.6 1-1.3.6-2.5 1.4-3.6 2.4-.3.3-.6.5-.9.8-5.2 5.2-6.2 13-3.1 19.2L1.5 76.4 9 83.9l13-13 3.4-3.4c.1 0 .1 0 .2.1.8.4 1.7.7 2.6 1 1.5.5 3.1.7 4.7.7s3.3-.2 4.8-.7c1-.3 1.9-.7 2.8-1.1.7-.3 1.3-.7 1.9-1.2.8-.5 1.5-1.1 2.2-1.8.4-.4.7-.7 1-1.1.5-.6 1-1.2 1.4-1.9.9-1.5 1.6-3.2 2-4.9.6-3.3.5-6.6-.6-9.7zm-39.5 33l-3.5-3.5 10.1-10.1 3.5 3.5L8.9 79.9zm13-13l-.9.9-3.5-3.5 1.9-1.9a14.62 14.62 0 002.5 2.7c.3.3.6.5 1 .8l-1 1zm21.6-5.6c-.3.4-.6.7-1 1.1-.7.7-1.4 1.2-2.1 1.7-.9.6-1.8 1.1-2.8 1.4-.6.2-1.3.4-1.9.6-1.9.4-3.8.4-5.7 0a13.32 13.32 0 01-7-3.7c-.4-.4-.8-.8-1.1-1.3-3.9-5-3.9-12 0-17a12.67 12.67 0 018.1-5 13.33 13.33 0 015.7 0c.6.1 1.3.3 1.9.6 1 .4 1.9.9 2.8 1.4.4.3.9.6 1.3.9.3.2.6.5.9.8 1.2 1.2 2.1 2.6 2.8 4.1.3.6.5 1.3.7 1.9.5 1.9.6 3.8.4 5.7-.1.6-.2 1.3-.4 1.9-.6 1.8-1.4 3.4-2.6 4.9z"/></g><path class="st1" d="M79 16.4h-3v-.9c0-1.8-1.2-3.4-2.9-3.7a3.7 3.7 0 00-4.5 3.6v1.1h-3.1v-.9c0-1.8-1.2-3.4-2.9-3.7a3.7 3.7 0 00-4.5 3.6v1.1H55v-.9c0-1.8-1.2-3.4-2.9-3.7a3.7 3.7 0 00-4.5 3.6v1.1h-3.1v-.9c0-1.8-1.2-3.4-2.9-3.7a3.7 3.7 0 00-4.5 3.6v1.1H34v-.9c0-1.8-1.2-3.4-2.9-3.7a3.7 3.7 0 00-4.5 3.6v1.1h-3c-1 0-1.8.8-1.8 1.8v17.4c0 .9.6 1.7 1.5 1.9 1.1.2 2.1-.7 2.1-1.8V31h51.7v41.4a2 2 0 01-2 2H27.5a2 2 0 01-2-2c0-.5-.4-.9-.9-.9h-1.7c-.5 0-.9.4-.9.9 0 3.1 2.5 5.6 5.6 5.6h47.7c3.1 0 5.6-2.5 5.6-5.6V18.2c-.1-1-.9-1.8-1.9-1.8zm-8.1-.7c0-.7.6-1.3 1.3-1.3h.2c.7 0 1.3.6 1.3 1.3v5.6c0 .7-.6 1.3-1.3 1.3h-.2c-.7 0-1.3-.6-1.3-1.3v-5.6zm-10.4-.3c0-.7.6-1.3 1.3-1.3h.2c.7 0 1.3.6 1.3 1.3V21c0 .7-.6 1.3-1.3 1.3h-.2c-.7 0-1.3-.6-1.3-1.3v-5.6zm-10.5.2c0-.7.6-1.3 1.3-1.3h.2c.7 0 1.3.6 1.3 1.3v5.6c0 .7-.6 1.3-1.3 1.3h-.2c-.7 0-1.3-.6-1.3-1.3v-5.6zm-10.6-.1c0-.7.6-1.3 1.3-1.3h.2c.7 0 1.3.6 1.3 1.3V21c0 .7-.6 1.3-1.3 1.3h-.2c-.7 0-1.3-.6-1.3-1.3v-5.5zm-10.6.1c0-.7.6-1.3 1.3-1.3h.2c.7 0 1.3.6 1.3 1.3v5.6c0 .7-.6 1.3-1.3 1.3h-.2c-.7 0-1.3-.6-1.3-1.3v-5.6zm48.4 11.2H25.5V20h1.2v.9c0 1.8 1.2 3.4 2.9 3.7 2.4.5 4.5-1.3 4.5-3.6v-1h3.1v.9c0 1.8 1.2 3.4 2.9 3.7 2.4.5 4.5-1.3 4.5-3.6v-1h3.1v.9c0 1.8 1.2 3.4 2.9 3.7 2.4.5 4.5-1.3 4.5-3.6v-1h3.1v.9c0 1.8 1.2 3.4 2.9 3.7 2.4.5 4.5-1.3 4.5-3.6v-1h3.1v1c0 1.8 1.2 3.4 2.9 3.7 2.4.5 4.5-1.3 4.5-3.6V20h1.2v6.8z"/><path class="st1" d="M29.9 50h-3a1 1 0 00-1 1v3.9c0 .5.4 1 1 1h3v3c0 .5.4 1 1 1h3.9c.5 0 1-.4 1-1v-3h3c.5 0 1-.4 1-1V51c0-.5-.4-1-1-1h-3v-3c0-.5-.4-1-1-1h-3.9a1 1 0 00-1 1v3zm1 2c.5 0 1-.4 1-1v-3h2v3c0 .5.4 1 1 1h3v2h-3a1 1 0 00-1 1v3h-2v-3c0-.5-.4-1-1-1h-3v-2h3z"/></svg>