<svg xmlns="http://www.w3.org/2000/svg" xml:space="preserve" width="66.667" height="66.667"><defs><clipPath clipPathUnits="userSpaceOnUse" id="a"><path d="M0 50h50V0H0Z"/></clipPath></defs><g clip-path="url(#a)" transform="matrix(1.33333 0 0 -1.33333 0 66.667)"><path d="M0 0a3.935 3.935 0 0 1-3.297-1.779 3.938 3.938 0 0 1 1.139-5.444 3.937 3.937 0 0 1 5.443 1.139A3.936 3.936 0 0 1 2.146-.641 3.902 3.902 0 0 1 0 0m-.015-9.572a5.615 5.615 0 0 0-3.079.918 5.648 5.648 0 0 0-1.635 7.81A5.649 5.649 0 0 0 3.082.791 5.649 5.649 0 0 0 4.717-7.02 5.643 5.643 0 0 0-.015-9.572" style="fill:#0098da;fill-opacity:1;fill-rule:nonzero;stroke:none" transform="translate(43.595 12.08)"/><path d="M0 0c-.35 0-.698.132-.965.396l-1.186 1.175A.855.855 0 1 0-.948 2.786l.946-.936 2.535 2.555a.858.858 0 0 0 1.21.005.857.857 0 0 0 .005-1.21L.975.404A1.375 1.375 0 0 0 0 0" style="fill:#0098da;fill-opacity:1;fill-rule:nonzero;stroke:none" transform="translate(42.748 5.483)"/><path d="M0 0h-12.708a4.07 4.07 0 0 0-3.485 1.943 4.072 4.072 0 0 0-.179 3.987l8.58 15.471a4.057 4.057 0 0 0 3.647 2.233A4.073 4.073 0 0 0-.48 21.368l5.099-9.379a.854.854 0 1 0-1.502-.816l-5.113 9.405a2.386 2.386 0 0 1-2.149 1.345c-.91 0-1.727-.505-2.134-1.319L-14.86 5.132a2.356 2.356 0 0 1 .122-2.29 2.37 2.37 0 0 1 2.03-1.131H0A.855.855 0 1 0 0 0" style="fill:#0098da;fill-opacity:1;fill-rule:nonzero;stroke:none" transform="translate(37.33 2.962)"/><path d="M0 0h-13.341a3.876 3.876 0 0 0-3.872 3.871v31.393a3.876 3.876 0 0 0 3.872 3.872h36.262a3.876 3.876 0 0 0 3.871-3.872V7.9a.85.85 0 0 0-1.699 0v27.364a2.175 2.175 0 0 1-2.172 2.172h-36.262a2.175 2.175 0 0 1-2.172-2.172V3.871c0-1.197.975-2.172 2.172-2.172H0A.85.85 0 1 0 0 0" style="fill:#0098da;fill-opacity:1;fill-rule:nonzero;stroke:none" transform="translate(17.985 8.353)"/><path d="M0 0h-42.305a.85.85 0 0 0 0 1.7H0A.85.85 0 1 0 0 0" style="fill:#0098da;fill-opacity:1;fill-rule:nonzero;stroke:none" transform="translate(43.928 36.723)"/><path d="M0 0a.59.59 0 1 1 0-1.18A.59.59 0 0 1 0 0m0-2.879a2.292 2.292 0 0 0-2.29 2.29A2.292 2.292 0 0 0 0 1.7 2.292 2.292 0 0 0 2.289-.589 2.292 2.292 0 0 0 0-2.879" style="fill:#0098da;fill-opacity:1;fill-rule:nonzero;stroke:none" transform="translate(7.434 42.757)"/><path d="M0 0a.59.59 0 1 1 0-1.179A.59.59 0 0 1 0 0m0-2.879a2.293 2.293 0 0 0-2.29 2.29A2.293 2.293 0 0 0 0 1.7 2.292 2.292 0 0 0 2.29-.589 2.292 2.292 0 0 0 0-2.879" style="fill:#0098da;fill-opacity:1;fill-rule:nonzero;stroke:none" transform="translate(13.5 42.757)"/><path d="M0 0a.59.59 0 1 1 0-1.18A.59.59 0 0 1 0 0m0-2.879a2.292 2.292 0 0 0-2.29 2.29A2.292 2.292 0 0 0 0 1.7 2.293 2.293 0 0 0 2.29-.589 2.293 2.293 0 0 0 0-2.879" style="fill:#0098da;fill-opacity:1;fill-rule:nonzero;stroke:none" transform="translate(19.565 42.757)"/><path d="M0 0h-4.236a.85.85 0 1 0 0 1.699H0A.85.85 0 1 0 0 0" style="fill:#0098da;fill-opacity:1;fill-rule:nonzero;stroke:none" transform="translate(18.992 15.535)"/><path d="M0 0h-3.073a.85.85 0 1 0 0 1.699H0A.85.85 0 1 0 0 0" style="fill:#0098da;fill-opacity:1;fill-rule:nonzero;stroke:none" transform="translate(11.985 15.535)"/><path d="M0 0c3.277-.715 5.568.089 7.018 1.032 2.223 1.445 3.604 3.976 3.604 6.606v.611a.85.85 0 0 0 .352.689l.333.241-.169.073a.853.853 0 0 0-.442 1.128l-.032-.01a.849.849 0 0 0-.848.185 2.436 2.436 0 0 1-1.641.655 2.476 2.476 0 0 1-2.458-2.468v-.736a.849.849 0 0 0-.678-.832c-2.197-.452-4.312.257-6.425 2.164.103-.751.408-1.347.921-1.802a.851.851 0 0 0 .204-.997.86.86 0 0 0-.897-.479l-1.006.153A2.5 2.5 0 0 1-.273 5.169a.85.85 0 0 0 .241-1.648l-.915-.333c.535-.375 1.317-.505 2.533-.6a.85.85 0 0 0 .413-1.55A9.312 9.312 0 0 0 0 0m2.435-1.957c-1.956 0-4.065.481-6.235 1.446a.85.85 0 0 0-.485.962c.088.395.402.681.848.664a7.834 7.834 0 0 1 2.251.284A3.68 3.68 0 0 0-3.11 3.203a.849.849 0 0 0 .399 1.15 4.192 4.192 0 0 0-1.588 2.815.85.85 0 0 0 .972.941l.52-.079c-.358.967-.414 2.12-.164 3.45a.849.849 0 0 0 1.477.401C.437 9.659 2.207 8.66 4.017 8.749a4.184 4.184 0 0 0 4.166 4.162 4.153 4.153 0 0 0 2.388-.781l1.445.479a.85.85 0 0 0 1.04-1.16l-.448-.978.747-.32a.848.848 0 0 0 .164-1.469l-1.197-.867v-.177c0-3.2-1.677-6.277-4.378-8.032C6.341-1.436 4.47-1.957 2.435-1.957" style="fill:#0098da;fill-opacity:1;fill-rule:nonzero;stroke:none" transform="translate(12.091 21.508)"/><path d="M0 0a1.233 1.233 0 0 1 1.673.474l2.776 4.963a1.225 1.225 0 0 1-.471 1.671 1.22 1.22 0 0 1-.935.111 1.22 1.22 0 0 1-.738-.583L-.473 1.672A1.231 1.231 0 0 1 0 0m.595-1.865c-.486 0-.977.12-1.429.373h-.001a2.942 2.942 0 0 0-1.13 3.999L.812 7.471a2.926 2.926 0 0 0 1.767 1.394c.755.212 1.55.119 2.233-.264a2.921 2.921 0 0 0 1.394-1.766 2.92 2.92 0 0 0-.265-2.234L3.165-.361a2.942 2.942 0 0 0-2.57-1.504" style="fill:#0098da;fill-opacity:1;fill-rule:nonzero;stroke:none" transform="translate(29.497 10.69)"/><path d="M0 0a.848.848 0 0 0-.413.107L-3.854 2.01a.855.855 0 1 0 .829 1.496l3.44-1.902A.857.857 0 0 0 0 0" style="fill:#0098da;fill-opacity:1;fill-rule:nonzero;stroke:none" transform="translate(33.421 12.58)"/><path d="M0 0c-.567 0-1.138.19-1.607.581l-1.596 1.33a.857.857 0 0 0 1.096 1.315l1.595-1.331a.807.807 0 0 1 1.133.103.806.806 0 0 1-.104 1.133l-1.761 1.468A.855.855 0 1 0-.15 5.913l1.761-1.468A2.518 2.518 0 0 0 1.935.902 2.518 2.518 0 0 0 0 0" style="fill:#0098da;fill-opacity:1;fill-rule:nonzero;stroke:none" transform="translate(35.568 9.62)"/></g></svg>