<svg id="Слой_1" data-name="Слой 1" xmlns="http://www.w3.org/2000/svg" viewBox="0 0 29.99 29.99"><defs><style>.cls-1{fill:#ffffff}</style></defs><path class="cls-1" d="M7.9 21.56H3.14a.5.5 0 000 .98H7.9a.5.5 0 000-.98zM6.92 24.08H3.14a.5.5 0 000 .99h3.78a.5.5 0 000-.99zM10.84 26.61h-7.7a.5.5 0 000 .99h7.7a.5.5 0 000-.99z"/><path class="cls-1" d="M12.56 21.42a.5.5 0 00-.7.07L9.8 24.1h-4a.5.5 0 100 .98h4.23a.5.5 0 00.39-.19l2.22-2.77a.5.5 0 00-.07-.7zM26.26 14.64a1.82 1.82 0 10-1.82 1.82 1.82 1.82 0 001.82-1.82zm-2.66 0a.83.83 0 11.84.84.83.83 0 01-.84-.84zM7.79 16.68a1.82 1.82 0 10-1.82 1.81 1.82 1.82 0 001.82-1.81zm-2.66 0a.83.83 0 11.84.83.83.83 0 01-.84-.83zM27.78 8.47L26.8 6.8l.97-1.68a.5.5 0 000-.5L26.66 2.7a.5.5 0 00-.42-.24H24a.5.5 0 00-.42.24l-.98 1.68h-1.94a.5.5 0 00-.42.25l-.97 1.67h-1.94a.5.5 0 000 .99h1.94l.97 1.68a.5.5 0 00.42.24h1.94l.98 1.68a.5.5 0 00.42.24h1.94l.97 1.68a.5.5 0 10.86-.5l-.97-1.67.97-1.68a.5.5 0 000-.49zm-5.17-.24h-1.65l-.83-1.43.83-1.43h1.65l.83 1.43zm3.34 1.92H24.3l-.83-1.43.83-1.43h1.65l.83 1.43zm0-3.85H24.3l-.83-1.43.83-1.43h1.65l.83 1.43z"/><path class="cls-1" d="M21.49 17.28a8.84 8.84 0 00-8.5-8.48 7.26 7.26 0 00-2.82-5.98 1.78 1.78 0 00-2.85 1.66 1.77 1.77 0 00.69 1.17 3.46 3.46 0 01.51.47l-2.2 2.2a3.47 3.47 0 01-.47-.52 1.79 1.79 0 00-2.5-.33 1.78 1.78 0 00-.34 2.49 7.32 7.32 0 006 2.82 8.73 8.73 0 001.16 4.04.5.5 0 00.85-.49 7.8 7.8 0 01-.83-5.68 5.89 5.89 0 00-.6-4.75.5.5 0 00-.03-.04 4.43 4.43 0 00-.96-1 .8.8 0 01-.15-1.1.8.8 0 011.12-.16c2.1 1.6 2.9 4.3 2.18 7.4a6.26 6.26 0 006.07 7.69l-.03.13a11.23 11.23 0 00-.24 1.45 7.79 7.79 0 01-3.64-1.04.5.5 0 10-.5.85 8.77 8.77 0 004.09 1.17 7.26 7.26 0 002.83 5.98 1.78 1.78 0 102.15-2.83 3.47 3.47 0 01-.5-.47l2.19-2.2a3.48 3.48 0 01.47.52 1.78 1.78 0 002.84-2.16 7.32 7.32 0 00-6-2.81zM9.06 6.98a4.74 4.74 0 01.36 2.23 4.75 4.75 0 01-2.25-.35zM3.8 9.35a.8.8 0 01.15-1.11.8.8 0 011.12.15 4.79 4.79 0 004.21 1.8 8 8 0 01-.05.22 8.98 8.98 0 00-.2 1.37A6.32 6.32 0 013.8 9.36zm8.76 3a5.24 5.24 0 012.16.4l-1.74 1.74a5.22 5.22 0 01-.42-2.15zm.91 3.04l2.15-2.14a5.33 5.33 0 011.4 1.4l-2.14 2.13a5.33 5.33 0 01-1.4-1.4zm2.3 1.89l1.74-1.73a5.22 5.22 0 01.42 2.14 5.25 5.25 0 01-2.15-.41zm6.42 8.42a.79.79 0 01-.15.59.8.8 0 01-1.12.15c-2.1-1.6-2.9-4.3-2.17-7.4a6.26 6.26 0 00-6.08-7.68l.03-.14a11.22 11.22 0 00.24-1.45 7.85 7.85 0 017.36 9.63c-.58 2.5-.02 4.55 1.59 5.78a.79.79 0 01.3.52zm-.76-2.63a4.73 4.73 0 01-.35-2.24 4.74 4.74 0 012.24.35zm5.42-1.8a.8.8 0 01-1.42.37 4.79 4.79 0 00-4.22-1.8 8 8 0 01.05-.22 8.98 8.98 0 00.2-1.37 6.32 6.32 0 015.24 2.43.79.79 0 01.15.59z"/><path class="cls-1" d="M11.94 18.82a.5.5 0 10-.35-.15.49.49 0 00.35.15z"/></svg>