<svg xmlns="http://www.w3.org/2000/svg" xml:space="preserve" width="41.9" height="43.91"><defs><clipPath clipPathUnits="userSpaceOnUse" id="a"><path d="M0 32.93h31.42V0H0Z"/></clipPath></defs><g clip-path="url(#a)" transform="matrix(1.33333 0 0 -1.33333 0 43.9)"><path d="M4.82 22.9h.63c.56 0 .85.2.85.66 0 .33-.15.68-.85.68h-.63Zm0-.81v-1.17c0-.22-.24-.42-.52-.42s-.52.2-.52.42v3.67c0 .25.26.46.58.46h1.09c1.4 0 1.9-.72 1.9-1.5 0-.93-.75-1.46-1.9-1.46zM11.53 20.5c-.28 0-.52.2-.52.42v1.48H9.43v-1.48c0-.23-.24-.42-.52-.42-.3 0-.52.2-.52.42v3.78c0 .21.23.4.52.4.28 0 .52-.19.52-.4V23.2H11v1.49c0 .21.24.4.52.4.27 0 .52-.19.52-.4v-3.78c0-.23-.24-.42-.52-.42M13.34 24.7c0 .21.23.4.52.4.29 0 .52-.19.52-.4V20.9c0-.22-.23-.4-.52-.4-.29 0-.52.18-.52.4ZM20.73 26.94a.49.49 0 0 1 0 .98.49.49 0 0 1 0-.98M4.2 29.45a.36.36 0 1 0 0 .73.36.36 0 0 0 0-.73m0 1.4a1.04 1.04 0 1 1 0-2.08 1.04 1.04 0 0 1 0 2.09M6.73 29.45a.36.36 0 1 0 0 .73.36.36 0 0 0 0-.73m0 1.4a1.04 1.04 0 1 1 0-2.08 1.04 1.04 0 0 1 0 2.09M9.21 29.43a.36.36 0 0 0 0 .72.36.36 0 0 0 0-.72m0 1.4a1.04 1.04 0 1 1 0-2.08 1.04 1.04 0 0 1 0 2.08" fill="#ffffff"/><path d="M14.46 10.43H2.76c-.65 0-1.17.53-1.17 1.18v15.33h17.23a.49.49 0 0 1 0 .98H1.58v2.3c0 .96.78 1.74 1.74 1.74h20.6c.95 0 1.73-.78 1.73-1.74v-2.3h-2.93a.49.49 0 0 1 0-.98h2.93v-7.06h.97v10.34c0 1.5-1.21 2.71-2.7 2.71H3.31c-1.5 0-2.71-1.21-2.71-2.7V11.6c0-1.19.97-2.15 2.15-2.15h11.7z" fill="#ffffff"/><path d="M14.75 9.46H13v.98h1.75c.27 0 .48-.22.48-.48v-.02a.48.48 0 0 0-.48-.48M26.63 19.93v1.74h-.98v-1.74c0-.27.21-.48.48-.48h.01c.27 0 .49.21.49.48" fill="#ffffff"/><path d="M16.1 18.06a4.8 4.8 0 0 0 8.6-4.23 4.81 4.81 0 0 0-8.6 4.23m7.97-6.56a5.8 5.8 0 0 1 1.14 1.27l.68-.61-1.14-1.27Zm1.4-1.26 1.15 1.26 3.68-3.3-1.14-1.28zm-8.93 1.42a5.75 5.75 0 0 1 6.7-.73l5.54-4.98a.6.6 0 0 1 .85.05l1.64 1.81a.6.6 0 0 1-.05.86l-5.53 4.98a5.78 5.78 0 0 1-8.65 7 5.78 5.78 0 0 1-.5-9" fill="#ffffff"/><path d="m23.14 23.76-2.08 1.53a.84.84 0 0 1-1 0l-2-1.53a.45.45 0 0 1-.18-.3.45.45 0 0 1 .09-.34c.15-.2.45-.23.64-.08l1.17.93.4.35.06.04-.1-2.86a.46.46 0 0 1 .46-.47c.25 0 .45.2.46.45l.01 2.43v.27l1.52-1.14c.19-.15.5-.11.64.08a.46.46 0 0 1-.09.64M4.16 17.78h2.55a.4.4 0 0 0 0-.82H4.16a.4.4 0 1 0 0 .82m0-1.63h2.55a1.22 1.22 0 0 1 0 2.44H4.16a1.22 1.22 0 0 1 0-2.44M10.07 17.78h2.55a.4.4 0 1 0 0-.81h-2.55a.4.4 0 1 0 0 .8m0-1.62h2.55a1.22 1.22 0 0 1 0 2.44h-2.55a1.22 1.22 0 0 1 0-2.44M4.16 14.48h6.74a.4.4 0 1 0 0-.81H4.16a.4.4 0 1 0 0 .8m0-1.62h6.74a1.22 1.22 0 0 1 0 2.44H4.16a1.22 1.22 0 0 1 0-2.44M26.77 0H.61A.6.6 0 0 0 0 .6v4.7c0 .33.27.6.6.6h26.17a.6.6 0 0 0 .6-.6V.6a.6.6 0 0 0-.6-.6" fill="#ffffff"/><path d="M2.32 2.04c0-.23.17-.37.45-.37.3 0 .45.17.45.44v.93c0 .23-.13.36-.42.36a.65.65 0 0 1-.48-.2Zm-.55 2.6c0 .13.1.25.27.25s.28-.12.28-.25v-.98c.17.11.35.18.6.18.6 0 .84-.36.84-.81v-.9c0-.5-.33-.9-1-.9-.63 0-.99.35-.99.8zM5.45 3.39c-.28 0-.44-.15-.44-.4V2.7l.44-.03c.29 0 .38.14.38.35 0 .26-.13.37-.38.37m-.44-1.1v-.24c0-.22.15-.37.47-.37.19 0 .32.05.49.13l.1.02c.18 0 .25-.12.25-.22 0-.3-.59-.39-.88-.39-.62 0-.97.37-.97.86v.89c0 .49.34.87.99.87.6 0 .9-.34.9-.84 0-.47-.27-.75-.9-.75-.15 0-.3 0-.45.04M7.7 3.2V1.48c0-.15-.11-.26-.27-.26-.15 0-.27.11-.27.26v1.6c0 .14-.02.22-.07.3a.2.2 0 0 0-.05.13c0 .14.12.24.26.24.1 0 .17-.07.23-.15.23.13.49.22.66.22.26 0 .34-.1.34-.25a.25.25 0 0 0-.28-.26c-.2 0-.34.01-.55-.11M9.21 4.31c0 .14.1.25.27.25s.27-.11.27-.25V3.7h.45c.14 0 .26-.1.26-.25 0-.13-.12-.24-.26-.24h-.45v-.88c0-.44.05-.6.35-.6h.09c.21 0 .33-.05.33-.22 0-.23-.19-.26-.38-.26-.74 0-.93.36-.93 1.05ZM12.98 1.47c0-.14-.12-.25-.27-.25-.15 0-.27.1-.27.25v.5h-1.18a.28.28 0 0 0-.28.28c0 .02.02.1.05.16l.96 2.32c.04.1.14.16.24.16.13 0 .27-.13.27-.27l-.01-.09c-.15-.33-.72-1.71-.86-2.05h.81v.87c0 .15.12.26.27.26.15 0 .27-.11.27-.26v-.87h.15c.14 0 .26-.11.26-.25a.25.25 0 0 0-.26-.25h-.15ZM14.04 4.31c0 .14.1.25.27.25s.27-.11.27-.25V3.7h.45c.14 0 .26-.1.26-.25 0-.13-.12-.24-.26-.24h-.45v-.88c0-.44.04-.6.34-.6h.1c.21 0 .33-.05.33-.22 0-.23-.19-.26-.39-.26-.73 0-.92.36-.92 1.05ZM17.38 2.13v.8c0 .27-.16.43-.47.43-.31 0-.47-.16-.47-.43v-.8c0-.27.16-.43.47-.43.3 0 .47.16.47.43m-1.49 0v.8c0 .51.36.91 1.02.91s1.01-.4 1.01-.91v-.8c0-.5-.35-.91-1.01-.91s-1.02.4-1.02.91M19.29 2.9l.72.78c.07.07.15.14.26.14.14 0 .26-.1.26-.24a.24.24 0 0 0-.07-.17l-.68-.7.8-1.12c.02-.04.04-.1.04-.15-.01-.14-.12-.22-.26-.22-.16 0-.19.06-.3.22l-.66.95-.11-.12V1.6c0-.19-.06-.37-.27-.37-.16 0-.27.11-.27.26V4.5c0 .2.04.38.27.38.15 0 .27-.11.27-.25ZM22.16 3.39c-.28 0-.44-.15-.44-.4V2.7l.44-.03c.29 0 .38.14.38.35 0 .26-.13.37-.38.37m-.44-1.1v-.24c0-.22.16-.37.47-.37.19 0 .32.05.49.13.01 0 .05.02.11.02.17 0 .25-.12.25-.22 0-.3-.6-.39-.9-.39-.61 0-.96.37-.96.86v.89c0 .49.34.87 1 .87.6 0 .9-.34.9-.84 0-.47-.28-.75-.91-.75-.14 0-.29 0-.45.04M24.42 1.48c0-.14-.1-.26-.27-.26-.18 0-.27.12-.27.26v1.6c0 .23-.04.24-.07.29-.04.06-.06.09-.06.15 0 .13.11.23.26.23.1 0 .18-.06.24-.15.22.16.47.23.69.23.58 0 .87-.4.87-.97V1.48c0-.14-.1-.26-.27-.26s-.27.12-.27.26v1.38c0 .32-.14.5-.4.5a.93.93 0 0 1-.47-.15.57.57 0 0 0 .02-.12Z" fill="#0098da"/><path d="M22.01 15.45h-.96a.32.32 0 0 1-.33-.32v-.96h-.64v.96c0 .18-.14.32-.32.32h-.97v.65h.97c.18 0 .32.14.32.32v.96h.64v-.96c0-.18.15-.32.33-.32H22zm-.64 1.29v.96c0 .18-.15.33-.32.33h-1.3a.32.32 0 0 1-.31-.33v-.96h-.97a.32.32 0 0 1-.32-.32v-1.29c0-.18.14-.32.32-.32h.97v-.96c0-.18.14-.33.32-.33h1.29c.17 0 .32.15.32.33v.96h.96c.18 0 .32.14.32.32v1.29c0 .18-.14.32-.32.32z" fill="#ffffff"/></g></svg>