<svg xmlns="http://www.w3.org/2000/svg" xml:space="preserve" width="60" height="64"><defs><clipPath clipPathUnits="userSpaceOnUse" id="a"><path d="M0 48h45V0H0Z"/></clipPath></defs><g clip-path="url(#a)" transform="matrix(1.33333 0 0 -1.33333 0 64)"><path d="M30.49 3.88H4.12a2.5 2.5 0 0 0-2.48 2.5v36.48a2.5 2.5 0 0 0 2.48 2.5h32.97a2.5 2.5 0 0 0 2.48-2.5V23.88a.82.82 0 1 1 1.63 0v18.98A4.13 4.13 0 0 1 37.1 47H4.12A4.13 4.13 0 0 1 0 42.86V6.38a4.13 4.13 0 0 1 4.12-4.14h26.37a.82.82 0 1 1 0 1.64" fill="#0098da"/><path d="M35.9 19.1a.82.82 0 0 1-1.14-.15l-3.57-4.64-1.97 1.54a.82.82 0 0 1-1.01-1.29l1.97-1.53a1.6 1.6 0 0 1 2.23.27l3.64 4.64c.27.36.2.87-.15 1.15" fill="#0098da"/><path d="m42.83 3-.18-.16a1.47 1.47 0 0 0-2.08.19L36 8.46l2.46 2.06 4.56-5.45c.25-.3.37-.69.34-1.08-.04-.4-.22-.75-.53-1M26.1 11.48a6.97 6.97 0 0 0 .88 9.88 7 7 0 1 0 9-10.76 7.02 7.02 0 0 0-9.88.88m18.18-5.35-5.04 6.03a8.66 8.66 0 0 1-1.12 9.37 8.66 8.66 0 0 1-13.27-11.1 8.64 8.64 0 0 1 9.56-2.6l4.9-5.86a3.1 3.1 0 0 1 4.4-.39l.18.16a3.09 3.09 0 0 1 .4 4.39M23.17 23.6c0 .46-.37.82-.82.82H5.8a.82.82 0 1 1 0-1.63h16.56c.45 0 .82.36.82.82M9.6 31.97l7.42 7.41c.48.49 1.32.5 1.82 0s.5-1.32 0-1.82l-7.41-7.41-2.28-.46zm-1.33-4.12 3.72.74c.16.03.3.11.42.23L20 36.4a2.93 2.93 0 0 1-.01 4.14 2.99 2.99 0 0 1-4.13 0l-7.59-7.59a.82.82 0 0 1-.22-.41L7.3 28.8a.82.82 0 0 1 .97-.96M5.25 6.46a.82.82 0 0 1 1.15.07l3.81 4.31c.02.03.16.06.18.09l1.46-1.12c.18-.14.4-.2.62-.17.22.04.41.15.54.33l2.43 3.25.01.82.08-.87 5.28-6.9a.82.82 0 1 1 1.3.99l-5.26 6.87c-.31.45-.83.72-1.4.73-.57 0-1.07-.26-1.4-.7l-1.86-2.55-.8.62a1.74 1.74 0 0 1-2.4-.3L5.17 7.6a.82.82 0 0 1 .07-1.15M7.94 17.85a1.06 1.06 0 1 0 2.13 0 1.06 1.06 0 0 0-2.13 0m3.76 0a2.7 2.7 0 1 1-5.4 0 2.7 2.7 0 0 1 5.4 0M35.73 39.81H25.67a.82.82 0 1 1 0-1.64h10.06a.82.82 0 1 1 0 1.64M25.67 33.3h10.02a.82.82 0 1 1 0 1.64H25.67a.82.82 0 0 1 0-1.64M25.67 28.44h10.06a.82.82 0 1 1 0 1.63H25.67a.82.82 0 1 1 0-1.63" fill="#0098da"/></g></svg>