<svg xmlns="http://www.w3.org/2000/svg" xml:space="preserve" width="66.667" height="66.667"><defs><clipPath clipPathUnits="userSpaceOnUse" id="a"><path d="M0 50h50V0H0Z"/></clipPath></defs><g clip-path="url(#a)" transform="matrix(1.33333 0 0 -1.33333 0 66.667)"><path d="M0 0h.61a.93.93 0 0 1 0 1.86H0c-2.27 0-4.116 1.702-4.116 3.792v13.01c0 2.09 1.846 3.791 4.116 3.791h.61a.93.93 0 0 1 0 1.86H0c-3.295 0-5.977-2.535-5.977-5.651V5.652C-5.977 2.536-3.295 0 0 0" style="fill:#1097d5;fill-opacity:1;fill-rule:nonzero;stroke:none" transform="translate(8.757 25.18)"/><path d="M0 0h28.429c.513 0 .931.417.931.93 0 .513-.418.93-.931.93H0A.93.93 0 0 1 0 0" style="fill:#1097d5;fill-opacity:1;fill-rule:nonzero;stroke:none" transform="translate(11.133 42.435)"/><path d="M0 0h28.429c.513 0 .931.417.931.93 0 .513-.418.93-.931.93H0A.93.93 0 0 1 0 0" style="fill:#1097d5;fill-opacity:1;fill-rule:nonzero;stroke:none" transform="translate(11.133 36.052)"/><path d="M0 0h28.429c.513 0 .931.417.931.93 0 .513-.418.93-.931.93H0A.93.93 0 0 1 0 0" style="fill:#1097d5;fill-opacity:1;fill-rule:nonzero;stroke:none" transform="translate(11.133 29.669)"/><path d="M0 0h.609c2.27 0 4.117-1.701 4.117-3.792v-13.009c0-2.091-1.847-3.792-4.117-3.792H0a.932.932 0 0 1-.931-.93c0-.513.418-.93.931-.93h.609c3.296 0 5.978 2.536 5.978 5.652v13.009C6.587-.675 3.905 1.86.609 1.86H0A.932.932 0 0 1-.931.93C-.931.417-.513 0 0 0" style="fill:#1097d5;fill-opacity:1;fill-rule:nonzero;stroke:none" transform="translate(40.634 47.633)"/><path d="M0 0a3.274 3.274 0 0 0 3.271 3.271l23.493-.008c.29 0 .568.138.743.372l2.737 3.636 1.694-3.477a.926.926 0 0 1 .836-.523h6.462A3.274 3.274 0 0 0 42.507 0v-12.308a3.275 3.275 0 0 0-3.271-3.271H3.272A3.276 3.276 0 0 0 0-12.308Zm39.236 5.133h-5.881l-1.667 3.421a1.53 1.53 0 0 1-1.236.861 1.525 1.525 0 0 1-1.381-.608L26.3 5.124l-23.028.009A5.138 5.138 0 0 1-1.86 0v-12.308a5.138 5.138 0 0 1 5.132-5.132h35.964a5.138 5.138 0 0 1 5.132 5.132V0a5.138 5.138 0 0 1-5.132 5.133" style="fill:#1097d5;fill-opacity:1;fill-rule:nonzero;stroke:none" transform="translate(3.746 17.76)"/><path d="M0 0c0-.294-.088-.788-.679-.788-.592 0-.679.494-.679.788v1.257c0 .533.215.781.679.781.463 0 .679-.248.679-.781Zm-.679-1.745C.359-1.745 1.03-1.06 1.03 0v1.257c0 1.088-.639 1.738-1.709 1.738-1.071 0-1.71-.65-1.71-1.738V0c0-1.06.671-1.745 1.71-1.745" style="fill:#1097d5;fill-opacity:1;fill-rule:nonzero;stroke:none" transform="translate(8.12 13.89)"/><path d="M0 0c.283 0 .521.224.521.488v2.091l1.32-2.32A.589.589 0 0 1 2.326 0c.308 0 .54.218.54.507v3.746a.5.5 0 0 1-.509.487c-.282 0-.521-.223-.521-.487V2.138l-.398.705c-.296.526-.559.992-.922 1.628a.594.594 0 0 1-.491.269c-.304 0-.534-.218-.534-.507V.488A.5.5 0 0 1 0 0" style="fill:#1097d5;fill-opacity:1;fill-rule:nonzero;stroke:none" transform="translate(10.342 12.146)"/><path d="M0 0c.651 0 1.376.31 1.376.754 0 .251-.22.456-.49.456-.147 0-.211-.042-.279-.086l-.094-.059a.842.842 0 0 0-.482-.14c-.476 0-.679.243-.679.813v1.257c0 .57.203.814.679.814a.84.84 0 0 0 .484-.142l.093-.058a.43.43 0 0 1 .278-.087c.27 0 .49.206.49.457 0 .444-.725.754-1.376.754-1.082 0-1.678-.617-1.678-1.738V1.738C-1.678.617-1.082 0 0 0" style="fill:#1097d5;fill-opacity:1;fill-rule:nonzero;stroke:none" transform="translate(15.513 12.152)"/><path d="M0 0c0-.294-.088-.788-.679-.788-.592 0-.679.494-.679.788v1.257c0 .533.215.781.679.781.463 0 .679-.248.679-.781Zm-.679-1.745C.359-1.745 1.03-1.06 1.03 0v1.257c0 1.088-.639 1.738-1.709 1.738-1.071 0-1.71-.65-1.71-1.738V0c0-1.06.671-1.745 1.71-1.745" style="fill:#1097d5;fill-opacity:1;fill-rule:nonzero;stroke:none" transform="translate(19.698 13.89)"/><path d="M0 0h1.773c.282 0 .502.212.502.481 0 .259-.225.469-.502.469H.484v3.251c0 .261-.236.482-.516.482-.279 0-.515-.221-.515-.482V.514C-.547.23-.301 0 0 0" style="fill:#1097d5;fill-opacity:1;fill-rule:nonzero;stroke:none" transform="translate(21.959 12.203)"/><path d="M0 0c0-.294-.088-.788-.679-.788-.592 0-.679.494-.679.788v1.257c0 .533.215.781.679.781.463 0 .679-.248.679-.781Zm-.679-1.745C.359-1.745 1.03-1.06 1.03 0v1.257c0 1.088-.638 1.738-1.709 1.738-1.071 0-1.71-.65-1.71-1.738V0c0-1.06.671-1.745 1.71-1.745" style="fill:#1097d5;fill-opacity:1;fill-rule:nonzero;stroke:none" transform="translate(26.941 13.89)"/><path d="M0 0c.724 0 1.502.29 1.502.926v1.402c0 .321-.227.521-.591.521H.227a.48.48 0 0 1-.472-.476.48.48 0 0 1 .472-.476h.251v-.869A.988.988 0 0 0 .031.925c-.475 0-.678.243-.678.813v1.257c0 .57.203.814.678.814a.892.892 0 0 0 .483-.142l.093-.057c.069-.045.133-.088.28-.088.269 0 .489.206.489.457 0 .444-.726.754-1.376.754-1.082 0-1.679-.617-1.679-1.738V1.738C-1.679.617-1.082 0 0 0" style="fill:#1097d5;fill-opacity:1;fill-rule:nonzero;stroke:none" transform="translate(30.201 12.152)"/><path d="M0 0c.279 0 .516.221.516.481v3.778c0 .261-.237.481-.516.481s-.515-.22-.515-.481V.481C-.515.221-.279 0 0 0" style="fill:#1097d5;fill-opacity:1;fill-rule:nonzero;stroke:none" transform="translate(32.877 12.146)"/><path d="M0 0c.65 0 1.376.31 1.376.754 0 .251-.22.456-.489.456-.148 0-.212-.043-.281-.087l-.094-.058a.839.839 0 0 0-.481-.14c-.475 0-.678.243-.678.813v1.257c0 .57.203.814.678.814.183 0 .33-.043.483-.142l.093-.057c.069-.045.133-.088.28-.088.269 0 .489.206.489.457 0 .444-.726.754-1.376.754-1.082 0-1.679-.617-1.679-1.738V1.738C-1.679.617-1.082 0 0 0" style="fill:#1097d5;fill-opacity:1;fill-rule:nonzero;stroke:none" transform="translate(35.7 12.152)"/><path d="m0 0 .303.987c.015.051.029.106.042.161a1.87 1.87 0 0 1 .04-.16L.678 0Zm-.957-1.814c.181 0 .411.13.486.35l.191.589H.951l.203-.59a.555.555 0 0 1 .498-.349c.306 0 .528.202.528.481a.596.596 0 0 1-.023.165L.931 2.443c-.083.239-.217.483-.586.483-.373 0-.507-.259-.581-.483L-1.46-1.165a.598.598 0 0 1-.024-.168c0-.27.231-.481.527-.481" style="fill:#1097d5;fill-opacity:1;fill-rule:nonzero;stroke:none" transform="translate(38.967 13.96)"/><path d="M0 0h1.773c.282 0 .502.212.502.481 0 .259-.225.469-.502.469H.484v3.251c0 .261-.236.482-.515.482-.28 0-.515-.221-.515-.482V.514C-.546.23-.301 0 0 0" style="fill:#1097d5;fill-opacity:1;fill-rule:nonzero;stroke:none" transform="translate(42.187 12.203)"/><path d="M0 0v-1.257c0-1.121.596-1.738 1.678-1.738.651 0 1.377.31 1.377.755 0 .251-.221.456-.491.456a.424.424 0 0 1-.277-.087l-.096-.059a.84.84 0 0 0-.482-.14c-.476 0-.679.243-.679.813V0c0 .57.203.813.679.813a.836.836 0 0 0 .484-.141l.093-.058c.068-.044.131-.086.278-.086.27 0 .491.205.491.456 0 .445-.726.754-1.377.754C.596 1.738 0 1.121 0 0" style="fill:#1097d5;fill-opacity:1;fill-rule:nonzero;stroke:none" transform="translate(10.674 8.795)"/><path d="M0 0c0 .534.216.782.679.782.464 0 .679-.248.679-.782v-1.257c0-.294-.087-.788-.679-.788-.591 0-.679.494-.679.788Zm-1.031 0v-1.257c0-1.059.672-1.744 1.71-1.744 1.039 0 1.71.685 1.71 1.744V0c0 1.088-.639 1.738-1.71 1.738s-1.71-.65-1.71-1.738" style="fill:#1097d5;fill-opacity:1;fill-rule:nonzero;stroke:none" transform="translate(15.18 8.795)"/><path d="m0 0-.404.717c-.294.521-.555.984-.916 1.614a.593.593 0 0 1-.491.271c-.304 0-.534-.218-.534-.507V-1.65a.5.5 0 0 1 .509-.488c.283 0 .522.224.522.488V.44L.005-1.88a.59.59 0 0 1 .485-.258c.308 0 .54.218.54.507v3.744a.5.5 0 0 1-.509.489C.239 2.602 0 2.378 0 2.113Z" style="fill:#1097d5;fill-opacity:1;fill-rule:nonzero;stroke:none" transform="translate(20.596 7.932)"/><path d="M0 0a.834.834 0 0 0 .483-.142l.093-.057c.069-.044.132-.086.279-.086.27 0 .49.205.49.456 0 .444-.725.754-1.376.754-1.082 0-1.678-.617-1.678-1.738V-2.07c0-1.121.596-1.739 1.678-1.739.651 0 1.376.311 1.376.755 0 .251-.22.456-.49.456-.146 0-.209-.042-.277-.086l-.097-.059A.83.83 0 0 0 0-2.884c-.476 0-.679.243-.679.814v1.257c0 .57.203.813.679.813" style="fill:#1097d5;fill-opacity:1;fill-rule:nonzero;stroke:none" transform="translate(23.962 9.608)"/><path d="M0 0v-3.573C0-3.907.241-4.1.66-4.1h1.666c.283 0 .515.219.515.488 0 .255-.236.469-.515.469H1.031v.884h1.113c.285 0 .508.212.508.482 0 .284-.262.474-.508.474H1.031v.872h1.232c.289 0 .515.206.515.469 0 .264-.236.487-.515.487H.56C.229.525 0 .248 0 0" style="fill:#1097d5;fill-opacity:1;fill-rule:nonzero;stroke:none" transform="translate(25.865 9.95)"/><path d="M0 0h-.459v1.188H0c.436 0 .647-.195.647-.597C.647.187.441 0 0 0m-.924 2.145c-.306 0-.565-.245-.565-.533v-3.656a.51.51 0 0 1 .514-.493.51.51 0 0 1 .516.493v1.087H0c1.035 0 1.679.591 1.679 1.542 0 .977-.628 1.56-1.679 1.56z" style="fill:#1097d5;fill-opacity:1;fill-rule:nonzero;stroke:none" transform="translate(30.74 8.331)"/><path d="M0 0c0-.262.231-.475.515-.475h.591v-3.244c0-.265.232-.481.515-.481.279 0 .516.221.516.481v3.244h.591c.282 0 .521.218.521.475 0 .261-.239.481-.521.481H.515C.229.481 0 .218 0 0" style="fill:#1097d5;fill-opacity:1;fill-rule:nonzero;stroke:none" transform="translate(32.707 9.994)"/><path d="m0 0-.002.001a2.386 2.386 0 0 0-.44.167c-.115.055-.221.137-.221.358 0 .271.176.408.521.408.21 0 .344-.05.457-.093l.07-.022C.464.794.546.768.645.768c.334 0 .514.245.514.475 0 .51-.841.647-1.338.647-.946 0-1.534-.533-1.534-1.389 0-.981.74-1.209 1.333-1.392a5.58 5.58 0 0 0 .453-.169c.106-.047.213-.127.213-.363 0-.312-.194-.471-.578-.471-.237 0-.417.062-.562.111l-.035.012a1.026 1.026 0 0 1-.34.081.49.49 0 0 1-.49-.475c0-.559 1.052-.685 1.42-.685.982 0 1.641.589 1.641 1.465C1.342-.427.629-.2 0 0" style="fill:#1097d5;fill-opacity:1;fill-rule:nonzero;stroke:none" transform="translate(38.007 8.644)"/></g></svg>