<svg xmlns="http://www.w3.org/2000/svg" width="66.667" height="66.667"><defs><clipPath id="a" clipPathUnits="userSpaceOnUse"><path d="M0 50h50V0H0Z"/></clipPath></defs><g clip-path="url(#a)" transform="matrix(1.33333 0 0 -1.33333 0 66.667)"><path d="M0 0c0-.08-.07-.149-.15-.149h-9.911c-.089 0-.16.069-.16.149v6.91c0 .09.08.17.17.17H-.16c.09 0 .16-.08.16-.17Zm-18.04 7.08c.1 0 .17-.08.17-.17V0c0-.08-.07-.149-.16-.149h-9.901c-.09 0-.159.069-.159.149v6.91c0 .09.079.17.17.17zm-17.871 0c.091 0 .171-.08.171-.17V0c0-.08-.071-.149-.16-.149h-9.911A.152.152 0 0 0-45.96 0v6.91c0 .09.069.17.16.17zM-.16 8.83h-1.32v.021a5.647 5.647 0 0 1-5.64 5.639h-31.37a5.645 5.645 0 0 1-5.64-5.639V8.83h-1.67c-1.051 0-1.91-.86-1.91-1.92V0c0-1.05.85-1.899 1.899-1.899h9.911c1.049 0 1.9.849 1.9 1.899v6.91c0 1.06-.86 1.92-1.911 1.92h-6.469v.021a3.894 3.894 0 0 0 3.89 3.889h14.809V9.15c0-.11.02-.22.06-.32h-4.299a1.92 1.92 0 0 1-1.92-1.92V0c0-1.05.86-1.899 1.909-1.899h9.901c1.05 0 1.91.849 1.91 1.899v6.91c0 1.06-.86 1.92-1.92 1.92h-3.95c.04.1.059.21.059.32v3.59H-7.12c2.14 0 3.89-1.74 3.89-3.889V8.83h-6.821c-1.05 0-1.91-.86-1.91-1.92V0c0-1.05.851-1.899 1.9-1.899H-.15c1.049 0 1.9.849 1.9 1.899v6.91c0 1.06-.86 1.92-1.91 1.92" style="fill:#0098da;fill-opacity:1;fill-rule:nonzero;stroke:none" transform="translate(47.98 1.88)"/><path d="M0 0h-5.143a.874.874 0 0 0 0 1.747H0A.874.874 0 0 0 0 0" style="fill:#0098da;fill-opacity:1;fill-rule:nonzero;stroke:none" transform="translate(9.698 5.96)"/><path d="M0 0h-5.143a.874.874 0 0 0 0 1.748H0A.874.874 0 0 0 0 0" style="fill:#0098da;fill-opacity:1;fill-rule:nonzero;stroke:none" transform="translate(9.698 3.1)"/><path d="M0 0h-5.144a.873.873 0 0 0 0 1.747H0A.873.873 0 0 0 0 0" style="fill:#0098da;fill-opacity:1;fill-rule:nonzero;stroke:none" transform="translate(27.572 5.96)"/><path d="M0 0h-5.144a.873.873 0 0 0 0 1.748H0A.873.873 0 0 0 0 0" style="fill:#0098da;fill-opacity:1;fill-rule:nonzero;stroke:none" transform="translate(27.572 3.1)"/><path d="M0 0h-5.143a.873.873 0 1 0 0 1.747H0A.873.873 0 0 0 0 0" style="fill:#0098da;fill-opacity:1;fill-rule:nonzero;stroke:none" transform="translate(45.445 5.96)"/><path d="M0 0h-5.143a.874.874 0 1 0 0 1.748H0A.873.873 0 0 0 0 0" style="fill:#0098da;fill-opacity:1;fill-rule:nonzero;stroke:none" transform="translate(45.445 3.1)"/><path d="M0 0c-.11.05-.22.07-.34.07C-.46.07-.57.05-.68 0c.22.1.46.1.68 0" style="fill:#0098da;fill-opacity:1;fill-rule:nonzero;stroke:none" transform="translate(33.13 31.8)"/><path d="M0 0c-4 0-7.25 3.25-7.25 7.25S-4 14.51 0 14.51s7.261-3.26 7.261-7.26S4 0 0 0m-11.49 3.81c.92.669 1.79 1.37 2.591 2.09A8.995 8.995 0 0 1-6.5 1.029a47.398 47.398 0 0 0-4.99 2.781m2.37 17.51c-.76 1.14-2 2.1-3.9 2.1h-.01c-1.93 0-3.19-1-3.949-2.17-.371 1.92-.321 3.77.359 5.13.641 1.3 1.78 1.97 3.5 2.07 1.71-.1 2.92-.82 3.57-2.14.67-1.35.75-3.14.43-4.99m-2.52-6.24c-.39-.57-.86-1.13-1.39-1.68-.55.57-1.01 1.13-1.38 1.68a17.24 17.24 0 0 0-1.81 3.5v.01c.15.71.821 3.08 3.19 3.09h.01c2.39 0 3.02-2.38 3.16-3.08-.47-1.28-1.079-2.5-1.78-3.52m-6.5-5.74c-1.7 1.88-2.91 3.84-3.62 5.82-2.52 7.05 1.2 10.48 2.91 11.63.22.149.451.28.68.399-.01-.009-.01-.019-.019-.029-1.191-2.4-.871-5.75.21-8.8.009-.05.029-.1.049-.15a18.49 18.49 0 0 1 2.08-4.12c.43-.62.951-1.26 1.56-1.901-1.189-1.039-2.54-2.009-3.85-2.849m24.77 4c.341.389.761 1.02.87 1.83.11.86-.14 1.72-.77 2.53-.61.8-.53 1.02-.32 1.56.151.39.361.94.29 1.679a2.873 2.873 0 0 1-.75 1.721.86.86 0 0 1-1.229.05.862.862 0 0 1-.051-1.231c.17-.189.27-.419.29-.709.03-.331-.06-.56-.18-.89-.34-.88-.55-1.79.571-3.24.75-.99.339-1.75-.021-2.14A8.898 8.898 0 0 1 0 16.26c-.779 0-1.529-.1-2.25-.281.74 2.951.521 5.471-.239 7.511.25.36.79.87 1.729.37 1.45-.77 2.231-.44 2.96-.01.28.16.441.25.68.27.29.02.5-.05.69-.23a.883.883 0 0 1 1.241.04c.33.36.309.91-.05 1.24-.54.51-1.24.75-2.011.69-.66-.05-1.109-.31-1.439-.51-.411-.24-.54-.32-1.25.06-1.01.529-1.84.45-2.361.29a2.646 2.646 0 0 1-.99-.55 9.753 9.753 0 0 1-2.939 3.1C-9 30.1-12.939 30.189-13.11 30.2h-.1c-.519-.03-4.01-.21-6.61-1.95-2.06-1.38-6.52-5.47-3.59-13.68.761-2.11 2.02-4.18 3.761-6.17a49.094 49.094 0 0 0-3.471-1.9c-.55-.28-.96-.76-1.14-1.35-.179-.59-.12-1.22.18-1.76l1.79-3.25a2.272 2.272 0 0 1 1.99-1.161c.31 0 .63.061.93.201.31.139.67.309 1.06.509.44.21.621.741.4 1.17a.88.88 0 0 1-1.17.401c-.38-.191-.72-.35-1.02-.49a.52.52 0 0 0-.66.219l-1.79 3.24a.515.515 0 0 0-.04.401c.04.14.13.25.26.309 2.13 1.071 6.681 3.54 9.91 6.601l.03.03.01.01c.84.8 1.59 1.64 2.18 2.51.801 1.18 1.511 2.59 2.04 4.08.011.03.02.05.02.08.02.05.03.09.04.13 1.03 3.01 1.31 6.3.121 8.71-.041.07-.071.13-.111.2.31-.14.6-.311.88-.5 1.32-.88 5.38-4.3 2.891-11.64a8.991 8.991 0 0 1-4.62-6.89v-.01a33.73 33.73 0 0 0-4.481-3.68l-.01-.01a.638.638 0 0 1-.17-.121 45.37 45.37 0 0 0-3.17-1.96.871.871 0 0 1 .43-1.629c.151 0 .3.03.43.11a46.66 46.66 0 0 1 2.89 1.779A45.98 45.98 0 0 1-6.689-.82c.33-.151.669-.22 1.009-.22.481 0 .941.149 1.321.42A8.923 8.923 0 0 1 0-1.75c4.96 0 9 4.04 9 9a8.97 8.97 0 0 1-2.37 6.09" style="fill:#0098da;fill-opacity:1;fill-rule:nonzero;stroke:none" transform="translate(32.68 19.82)"/><path d="M0 0a.868.868 0 0 0-1.229 0L-3.31 2.08v-5.74a.87.87 0 0 0-1.74 0v5.74l-2.3-2.29a.864.864 0 0 0-.61-.26c-.229 0-.45.09-.62.26a.87.87 0 0 0 0 1.23l3.78 3.79h.01c.07.07.17.14.27.18.11.05.22.07.34.07.12 0 .23-.02.34-.07.101-.04.2-.11.271-.18h.009L0 1.24A.862.862 0 0 0 0 0" style="fill:#0098da;fill-opacity:1;fill-rule:nonzero;stroke:none" transform="translate(36.97 26.81)"/><path d="M0 0a.897.897 0 1 0-1.794 0A.897.897 0 0 0 0 0" style="fill:#0098da;fill-opacity:1;fill-rule:nonzero;stroke:none" transform="translate(34.226 41.503)"/><path d="M0 0a.898.898 0 1 0-1.795 0A.898.898 0 0 0 0 0" style="fill:#0098da;fill-opacity:1;fill-rule:nonzero;stroke:none" transform="translate(36.293 38.4)"/></g></svg>