<svg version="1.1" id="Слой_1" xmlns="http://www.w3.org/2000/svg" x="0" y="0" viewBox="0 0 85 85" xml:space="preserve"><style>.st0{fill:none}.st1{fill:#0098da}</style><path class="st0" d="M0 0h85v85H0z"/><path class="st1" d="M26.3 51.3a.9.9 0 01-.9-.9v-5.5c0-.5.4-.9.9-.9h5.5c.5 0 .9.4.9.9v5.5c0 .5-.4.9-.9.9h-5.5zm.9-1.8h3.7v-3.7h-3.7v3.7zM26.2 60.8a.9.9 0 01-.9-.9v-5.5c0-.5.4-.9.9-.9h5.5c.5 0 .9.4.9.9v5.5c0 .5-.4.9-.9.9h-5.5zm.9-1.9h3.7v-3.7h-3.7v3.7zM31.6 27.7h12c.5 0 .9-.5.9-1.2 0-.6-.4-1.2-.9-1.2h-12c-.5 0-.9.5-.9 1.2.1.7.5 1.2.9 1.2zM31.8 32.8h12c.5 0 .9-.5.9-1.2 0-.6-.4-1.2-.9-1.2h-12c-.5 0-.9.5-.9 1.2.1.7.4 1.2.9 1.2zM51.3 37.9c-.7 0-1.2-.5-1.2-1.2V25.4c0-.7.5-1.2 1.2-1.2h13.2c.7 0 1.2.5 1.2 1.2v11.3c0 .7-.5 1.2-1.2 1.2H51.3zm12-2.4v-8.9H52.5v8.9h10.8z"/><path class="st0" d="M76.1 66.3c-.4-1.1-.5-2-.5-2.5v-8.1H67.2v7.6c0 .4 0 .9-.1 1.4 0 .4-.1.6-.2 1 0 .2-.1.4-.2.5-.1.4-.3.9-.5 1.3l-.2.8h10.8c-.2-.5-.3-.9-.5-1.3 0-.2-.1-.5-.2-.7zM79.6 74.4c-.5-1-1-2-1.5-3.1-.1-.1-.1-.3-.2-.4H64.7l-.1.2-.1.2-1.4 3.1-.1.3-1.7 3.7c-.1.1 0 .3 0 .4.1.2.3.3.5.3H81c.2 0 .3-.1.4-.2.1-.1.1-.3.1-.4 0-.1-.9-1.8-1.9-4.1zM76.3 52.7h2.9V50H63.6l.1 2.8 9.1-.1z"/><path class="st1" d="M41.2 41.1A16 16 0 0023 38c-1.5.7-3 1.7-4.2 3-5 5-6 12.4-3 18.4L0 75.2l7.1 7.1 15.7-15.7h.1c1.1.6 2.3 1 3.5 1.2a15.76 15.76 0 0014.7-4.3c6.3-6.1 6.3-16.2.1-22.4zm-34 37.4l-3.3-3.3 9.7-9.7 3.3 3.3-9.7 9.7zm11.5-11.6l-3.3-3.3 1.8-1.8 1.5 1.8c.6.6 1.2 1.1 1.8 1.5l-1.8 1.8zm20.6-5.2c-3.5 3.5-8.4 4.6-12.8 3.4a13.01 13.01 0 01-5.8-3.3A13.16 13.16 0 0123 41.3c1.1-.7 2.3-1.2 3.5-1.5a12.86 12.86 0 0112.8 3.4c5.2 5 5.2 13.3 0 18.5z"/><path class="st0" d="M76.1 66.3c-.4-1.1-.5-2-.5-2.5v-8.1H67.2v7.6c0 .4 0 .9-.1 1.4 0 .4-.1.6-.2 1 0 .2-.1.4-.2.5-.1.4-.3.9-.5 1.3l-.2.8h10.8c-.2-.5-.3-.9-.5-1.3 0-.2-.1-.5-.2-.7zM79.6 74.4c-.5-1.1-1.1-2.3-1.6-3.5H64.8l-.1.2-.1.2-1.4 3.1-.2.3-1.7 3.7c-.1.1 0 .3 0 .4.1.2.3.3.5.3H81c.2 0 .3-.1.4-.2.1-.1.1-.3.1-.4 0-.1-.9-1.8-1.9-4.1zM76.3 52.7h2.9V50H63.6l.1 2.8 9.1-.1z"/><path class="st1" d="M22.8 69.8c0-.2.1-.3.1-.5l-.1.5zM24.8 68.5h-.6c-.6 0-1.1.3-1.3.8h3.2c-.2-.5-.7-.8-1.3-.8zM22.8 69.9c0-.1 0 0 0 0z"/><path class="st1" d="M84.4 77.1l-1.5-3.4-1.3-2.8-.8-1.7-1.7-3.6c-.2-.5-.4-1.1-.3-1.8v-8.2h.7c.9 0 1.7-.5 2.2-1.2.3-.4.4-.9.4-1.4v-3.3c0-.5-.2-1-.4-1.4-.5-.7-1.3-1.2-2.2-1.2h-3.1V15.5c0-2.4-2-4.4-4.4-4.4H27.2c-2.4 0-4.4 2-4.4 4.4v19.4c0 1 .8 1.8 1.8 1.8s1.8-.8 1.8-1.8V15.5c0-.5.4-.8.8-.8H72c.5 0 .8.4.8.8v31.6h-9.4c-1.4 0-2.6 1.2-2.6 2.6V53c0 1.4 1.2 2.6 2.6 2.6h.7v8.2c0 .6-.1 1.2-.3 1.7l-.3.7-1.5 3.2-.8 1.8h-34c-.4 0-.7-.3-.8-.6 0-.1-.1-.6-.1-.6 0-.2 0-.4-.1-.6H23c-.1.2-.1.3-.1.5v.6c0 2.4 2 4.3 4.4 4.3h32.4l-1.1 2.5c-.5 1.1-.4 2.4.3 3.4s1.8 1.7 3.1 1.7h19.2c1.2 0 2.4-.6 3.1-1.7.5-1.2.6-2.4.1-3.6zM63.7 52.8l-.1-2.8H79.1v2.7H72.8l-9.1.1zm13.1 15.5H66l.3-.6c.2-.5.4-.9.5-1.3.1-.2.1-.4.2-.5.1-.4.1-.6.2-1 .1-.6.1-1.1.1-1.4v-7.6H75.7V64c0 .6.1 1.4.5 2.5.1.2.2.5.2.7.1.2.2.6.4 1.1zm4.7 10.6c-.1.2-.3.2-.4.2H61.8c-.2 0-.4-.1-.5-.3a.3.3 0 010-.4l1.7-3.7.1-.2 1.4-3.1.1-.2.1-.2h13.2c.5 1.2 1.1 2.4 1.6 3.5l2 4c.1.1.1.2 0 .4z"/><path class="st1" d="M47.1 45.4h12c.5 0 .9-.5.9-1.2 0-.6-.4-1.2-.9-1.2h-12c-.5 0-.9.5-.9 1.2s.4 1.2.9 1.2zM47.2 50.5h12c.5 0 .9-.5.9-1.2 0-.6-.4-1.2-.9-1.2h-12c-.5 0-.9.5-.9 1.2.1.7.5 1.2.9 1.2zM47.5 55.9h8.2c.5 0 .9-.5.9-1.2 0-.6-.4-1.2-.9-1.2h-8.2c-.5 0-.9.5-.9 1.2 0 .6.4 1.2.9 1.2zM47.2 62.2h12c.5 0 .9-.5.9-1.2 0-.6-.4-1.2-.9-1.2h-12c-.5 0-.9.5-.9 1.2.1.6.5 1.2.9 1.2z"/></svg>