<?xml version="1.0" encoding="utf-8"?>
<!-- Generator: Adobe Illustrator 22.0.1, SVG Export Plug-In . SVG Version: 6.00 Build 0)  -->
<svg version="1.1" id="Слой_1" xmlns="http://www.w3.org/2000/svg" xmlns:xlink="http://www.w3.org/1999/xlink" x="0px" y="0px"
	 viewBox="0 0 36 30" style="enable-background:new 0 0 36 30;" xml:space="preserve">
<style type="text/css">
	.st0{fill:#536B76;}
</style>
<g>
	<g>
		<path class="st0" d="M26.3,27.1c-0.2,0-0.3-0.1-0.4-0.2l-5.6-5.6c-0.2-0.2-0.2-0.6,0-0.8l0.3-0.3l-3.4-3.4
			c-1.6,1.4-3.7,2.2-5.9,2.2c-4.9,0-9-4-9-9c0-4.9,4-9,9-9s9,4,9,9c0,2.2-0.8,4.3-2.2,5.9l3.4,3.4l0.3-0.3c0.1-0.1,0.3-0.2,0.4-0.2
			c0.2,0,0.3,0.1,0.4,0.2l5.6,5.6c0.2,0.2,0.2,0.6,0,0.8L26.7,27C26.6,27.1,26.5,27.1,26.3,27.1z M26.3,25.8l0.6-0.6l-4.8-4.8
			L21.6,21L26.3,25.8z M11.3,2.3c-4.3,0-7.8,3.5-7.8,7.8s3.5,7.8,7.8,7.8s7.8-3.5,7.8-7.8S15.6,2.3,11.3,2.3z"/>
	</g>
</g>
<g>
	<g>
		<path class="st0" d="M22.7,18.2c-0.1,0-0.3,0-0.4-0.1c-0.2-0.2-0.3-0.5-0.1-0.8c1.4-2.1,2.1-4.6,2.1-7.2c0-2.9-1-5.7-2.8-8
			c-0.2-0.2-0.2-0.6,0.1-0.8c0.1-0.1,0.2-0.1,0.4-0.1c0.2,0,0.3,0.1,0.5,0.2c2,2.5,3,5.5,3,8.7c0,2.8-0.8,5.5-2.3,7.8
			C23.1,18.2,22.9,18.2,22.7,18.2L22.7,18.2z"/>
	</g>
</g>
<g>
	<g>
		<path class="st0" d="M20.4,16.7c-0.1,0-0.3,0-0.4-0.1c-0.2-0.2-0.3-0.5-0.1-0.8c1.1-1.7,1.7-3.6,1.7-5.6c0-3.1-1.4-6-3.8-7.9
			c-0.2-0.2-0.3-0.6-0.1-0.8c0.1-0.1,0.3-0.2,0.4-0.2s0.3,0,0.4,0.1c2.7,2.2,4.2,5.4,4.2,8.8c0,2.2-0.6,4.4-1.9,6.3
			C20.8,16.6,20.6,16.7,20.4,16.7L20.4,16.7z"/>
	</g>
</g>
<g>
	<g>
		<path class="st0" d="M11.4,24.3c-3.2,0-6.2-1-8.7-3c-0.1-0.1-0.2-0.2-0.2-0.4c0-0.2,0-0.3,0.1-0.4s0.3-0.2,0.5-0.2
			c0.1,0,0.3,0,0.4,0.1c2.3,1.8,5.1,2.8,8,2.8c2.6,0,5-0.7,7.2-2.1C18.8,21,18.9,21,19,21c0.2,0,0.4,0.1,0.5,0.3
			c0.1,0.1,0.1,0.3,0.1,0.4s-0.1,0.3-0.2,0.4C16.9,23.5,14.2,24.3,11.4,24.3z"/>
	</g>
</g>
<g>
	<g>
		<path class="st0" d="M11.4,21.6c-3.4,0-6.7-1.5-8.8-4.2c-0.2-0.2-0.2-0.6,0.1-0.8c0.1-0.1,0.2-0.1,0.4-0.1s0.3,0.1,0.4,0.2
			c1.9,2.4,4.8,3.8,7.9,3.8c2,0,3.9-0.6,5.6-1.7c0.1-0.1,0.2-0.1,0.3-0.1c0.2,0,0.4,0.1,0.5,0.3c0.1,0.1,0.1,0.3,0.1,0.4
			s-0.1,0.3-0.2,0.4C15.8,20.9,13.6,21.6,11.4,21.6z"/>
	</g>
</g>
<g>
	<g>
		<path class="st0" d="M11.5,13.5c-0.2,0-0.3-0.1-0.4-0.2c-0.2-0.2-0.1-0.6,0.1-0.8l0.2-0.2c0.3-0.2,0.4-0.5,0.4-0.9
			s-0.2-0.6-0.5-0.8c-0.7-0.3-1.1-1-1.1-1.7C10.1,8.1,10.4,7.4,11,7l0.2-0.2c0.2-0.2,0.6-0.1,0.8,0.1s0.1,0.6-0.1,0.8l-0.2,0.2
			c-0.3,0.2-0.4,0.5-0.4,0.9c0,0.4,0.2,0.6,0.5,0.8c0.7,0.3,1.1,1,1.1,1.7c0.1,0.7-0.2,1.4-0.8,1.9l-0.2,0.2
			C11.8,13.4,11.7,13.5,11.5,13.5z"/>
	</g>
	<g>
		<path class="st0" d="M8,13.5c-0.2,0-0.3-0.1-0.4-0.2c-0.2-0.2-0.1-0.6,0.1-0.8l0.2-0.2c0.3-0.2,0.4-0.5,0.4-0.9s-0.2-0.6-0.5-0.8
			c-0.7-0.3-1.1-1-1.1-1.7C6.5,8.1,6.8,7.4,7.4,7l0.2-0.2c0.2-0.2,0.6-0.1,0.8,0.1s0.1,0.6-0.1,0.8L8.1,7.9C7.8,8.1,7.7,8.4,7.7,8.8
			c0,0.4,0.2,0.6,0.5,0.8c0.7,0.3,1.1,1,1.1,1.7c0.1,0.7-0.2,1.4-0.8,1.9l-0.2,0.2C8.2,13.4,8.1,13.5,8,13.5z"/>
	</g>
	<g>
		<path class="st0" d="M14.9,13.4c-0.2,0-0.3-0.1-0.4-0.2c-0.2-0.2-0.1-0.6,0.1-0.8l0.2-0.2c0.3-0.2,0.4-0.5,0.4-0.9
			s-0.2-0.6-0.5-0.8c-0.7-0.3-1.1-1-1.1-1.7c-0.1-0.7,0.2-1.4,0.8-1.9l0.2-0.2c0.2-0.2,0.6-0.1,0.8,0.1s0.1,0.6-0.1,0.8L15,7.8
			c-0.3,0.2-0.4,0.5-0.4,0.9s0.2,0.6,0.5,0.8c0.7,0.3,1.1,1,1.1,1.7c0.1,0.7-0.2,1.4-0.8,1.9l-0.2,0.2C15.1,13.4,15,13.4,14.9,13.4z
			"/>
	</g>
</g>
</svg>
