<svg xmlns="http://www.w3.org/2000/svg" xml:space="preserve" width="66.667" height="66.667"><defs><clipPath clipPathUnits="userSpaceOnUse" id="a"><path d="M0 50h50V0H0Z"/></clipPath></defs><g clip-path="url(#a)" transform="matrix(1.33333 0 0 -1.33333 0 66.667)"><path d="M0 0a.852.852 0 0 0-.85.85v3.042h-1.248a4.712 4.712 0 0 0-4.706 4.706v15.374a4.712 4.712 0 0 0 4.706 4.706H18.13a4.711 4.711 0 0 0 4.706-4.706v-.607a.85.85 0 1 0-1.699 0v.607a3.01 3.01 0 0 1-3.007 3.006H-2.098a3.01 3.01 0 0 1-3.006-3.006V8.598a3.01 3.01 0 0 1 3.006-3.007H0a.85.85 0 0 0 .85-.85V2.393l4.844 3.066a.84.84 0 0 0 .454.132h5.118a.85.85 0 1 0 0-1.699H6.395L.454.132A.844.844 0 0 0 0 0" style="fill:#0098da;fill-opacity:1;fill-rule:nonzero;stroke:none" transform="translate(14.544 20.545)"/><path d="M0 0c1.768-.2 3.038.275 3.881.822C5.338 1.77 6.28 3.495 6.28 5.218v.427a.85.85 0 0 0 .271.623.856.856 0 0 0-.27.576.846.846 0 0 0-.482.222 1.444 1.444 0 0 1-.974.389 1.47 1.47 0 0 1-1.456-1.467v-.513a.85.85 0 0 0-.678-.832c-1.364-.281-2.681.039-3.984.981.1-.143.199-.231.26-.285a.851.851 0 0 0-.492-1.483c.147-.059.305-.095.471-.105a.85.85 0 0 0 .24-1.647l-.024-.009c.273-.066.625-.11 1.087-.147A.85.85 0 0 0 .662.399 7.002 7.002 0 0 0 0 0m.822-1.737c-1.402 0-2.909.344-4.458 1.032a.852.852 0 0 0-.485.963c.089.395.446.709.849.664.288-.005.567.011.845.051a2.837 2.837 0 0 0-.852 1.034.851.851 0 0 0 .107.925 3.187 3.187 0 0 0-.963 1.928.847.847 0 0 0 .253.711c.181.175.43.265.679.235-.151.627-.152 1.341-.002 2.142a.849.849 0 0 0 1.477.401C-.522 6.961.578 6.279 1.68 6.248a3.179 3.179 0 0 0 3.153 2.908 3.16 3.16 0 0 0 1.708-.518l.887.294a.85.85 0 0 0 1.041-1.161l-.203-.442.279-.121a.848.848 0 0 0 .164-1.469l-.729-.528C7.977 2.895 6.762.667 4.807-.603 3.645-1.358 2.292-1.737.822-1.737" style="fill:#0098da;fill-opacity:1;fill-rule:nonzero;stroke:none" transform="translate(17.044 33.045)"/><path d="M0 0a2.98 2.98 0 0 1-2.975-2.977v-9.276a2.98 2.98 0 0 1 2.976-2.976h34.672a2.98 2.98 0 0 1 2.976 2.976v9.276A2.98 2.98 0 0 1 34.673 0h-5.882a.852.852 0 0 0-.722.399L26.498 2.92 23.93.252a.85.85 0 0 0-.612-.26zm34.673-16.928H.001a4.68 4.68 0 0 0-4.676 4.675v9.276A4.68 4.68 0 0 0 .001 1.699l22.956-.007 3.073 3.193a.842.842 0 0 0 .701.256.854.854 0 0 0 .633-.396l1.898-3.046h5.411a4.68 4.68 0 0 0 4.675-4.676v-9.276a4.68 4.68 0 0 0-4.675-4.675" style="fill:#0098da;fill-opacity:1;fill-rule:nonzero;stroke:none" transform="translate(7.902 17.706)"/><path d="M0 0h-2.341c-.433 0-.822.147-.822.616v4.889c0 .304.292.616.681.616h2.394c.336 0 .618-.261.618-.564 0-.313-.282-.539-.618-.539h-1.838V3.62h1.67c.309 0 .61-.234.61-.547 0-.312-.266-.555-.61-.555h-1.67V1.102H0c.327 0 .619-.243.619-.538C.619.252.336 0 0 0" style="fill:#0098da;fill-opacity:1;fill-rule:nonzero;stroke:none" transform="translate(11.817 6.995)"/><path d="M0 0h-2.341c-.433 0-.822.147-.822.616v4.889c0 .304.292.616.681.616h2.394c.336 0 .618-.261.618-.564 0-.313-.282-.539-.618-.539h-1.838V3.62h1.67c.309 0 .61-.234.61-.547 0-.312-.266-.555-.61-.555h-1.67V1.102H0c.327 0 .619-.243.619-.538C.619.252.336 0 0 0Z" style="fill:none;stroke:#0098da;stroke-width:.25;stroke-linecap:butt;stroke-linejoin:miter;stroke-miterlimit:10;stroke-dasharray:none;stroke-opacity:1" transform="translate(11.817 6.995)"/><path d="M0 0a8.66 8.66 0 0 1-.645.234c-.866.261-1.802.547-1.802 1.807 0 1.119.795 1.797 2.05 1.797.521 0 1.775-.13 1.775-.781 0-.287-.23-.547-.618-.547-.159 0-.283.051-.433.094a1.758 1.758 0 0 1-.672.131c-.432 0-.839-.147-.839-.66 0-.382.221-.512.371-.582.23-.112.442-.182.636-.234C.689.99 1.634.694 1.634-.538c0-1.207-.936-1.901-2.199-1.901-.654 0-1.891.225-1.891.832 0 .279.256.548.583.548.133 0 .274-.044.442-.104.212-.069.495-.174.874-.174.61 0 .919.27.919.747C.362-.199.159-.069 0 0" style="fill:#0098da;fill-opacity:1;fill-rule:nonzero;stroke:none" transform="translate(15.704 9.356)"/><path d="M0 0a8.66 8.66 0 0 1-.645.234c-.866.261-1.802.547-1.802 1.807 0 1.119.795 1.797 2.05 1.797.521 0 1.775-.13 1.775-.781 0-.287-.23-.547-.618-.547-.159 0-.283.051-.433.094a1.758 1.758 0 0 1-.672.131c-.432 0-.839-.147-.839-.66 0-.382.221-.512.371-.582.23-.112.442-.182.636-.234C.689.99 1.634.694 1.634-.538c0-1.207-.936-1.901-2.199-1.901-.654 0-1.891.225-1.891.832 0 .279.256.548.583.548.133 0 .274-.044.442-.104.212-.069.495-.174.874-.174.61 0 .919.27.919.747C.362-.199.159-.069 0 0Z" style="fill:none;stroke:#0098da;stroke-width:.25;stroke-linecap:butt;stroke-linejoin:miter;stroke-miterlimit:10;stroke-dasharray:none;stroke-opacity:1" transform="translate(15.704 9.356)"/><path d="M0 0h.751c.663 0 1.016.286 1.016.911 0 .452-.185.921-1.016.921H0Zm0-1.103v-1.588c0-.304-.283-.574-.619-.574-.326 0-.618.261-.618.574V2.31c0 .338.318.625.689.625H.751c1.661 0 2.253-.973 2.253-2.033 0-1.284-.883-2.005-2.253-2.005z" style="fill:#0098da;fill-opacity:1;fill-rule:nonzero;stroke:none" transform="translate(19.59 10.181)"/><path d="M0 0h.751c.663 0 1.016.286 1.016.911 0 .452-.185.921-1.016.921H0Zm0-1.103v-1.588c0-.304-.283-.574-.619-.574-.326 0-.618.261-.618.574V2.31c0 .338.318.625.689.625H.751c1.661 0 2.253-.973 2.253-2.033 0-1.284-.883-2.005-2.253-2.005z" style="fill:none;stroke:#0098da;stroke-width:.25;stroke-linecap:butt;stroke-linejoin:miter;stroke-miterlimit:10;stroke-dasharray:none;stroke-opacity:1" transform="translate(19.59 10.181)"/><path d="M0 0h-13.165a.85.85 0 1 0 0 1.699H0A.85.85 0 1 0 0 0" style="fill:#0098da;fill-opacity:1;fill-rule:nonzero;stroke:none" transform="translate(40.299 11.5)"/><path d="M0 0h-13.165a.85.85 0 1 0 0 1.699H0A.85.85 0 1 0 0 0" style="fill:#0098da;fill-opacity:1;fill-rule:nonzero;stroke:none" transform="translate(40.299 6.725)"/><path d="M0 0a.85.85 0 0 0-.806.581l-1.113 3.341a.848.848 0 0 0 .633 1.1c.86.18 1.713.424 2.536.728a.852.852 0 0 0 1.092-.503.852.852 0 0 0-.504-1.092 19.844 19.844 0 0 0-1.85-.58L.57 1.831a17.95 17.95 0 0 1 4.064 1.437.85.85 0 0 0 .756-1.523A19.62 19.62 0 0 0 .151.013.847.847 0 0 0 0 0" style="fill:#0098da;fill-opacity:1;fill-rule:nonzero;stroke:none" transform="translate(29.642 22.952)"/><path d="M0 0a.904.904 0 0 0-.127.009c-.119.017-11.858 1.889-11.858 11.419 0 3.845 3.128 6.974 6.973 6.974a6.982 6.982 0 0 0 6.974-6.974A9.845 9.845 0 0 0 .784 6.65a.85.85 0 0 0-1.496.808 8.156 8.156 0 0 1 .975 3.96 5.283 5.283 0 0 1-5.275 5.284 5.28 5.28 0 0 1-5.274-5.274c0-6.922 7.363-9.089 9.714-9.604l.583 1.749c-2.433.635-8.657 2.757-8.657 7.855-.072.939.293 1.921 1.002 2.631a3.473 3.473 0 0 0 2.632 1.004 3.45 3.45 0 0 0 3.631-3.698c.002-1.181-.407-2.417-1.149-3.417a.85.85 0 1 0-1.366 1.014c.528.709.818 1.584.818 2.466.04.571-.145 1.069-.505 1.429-.359.36-.862.55-1.365.507a.897.897 0 0 0-.127 0 1.75 1.75 0 0 1-1.873-1.873c.002-4.857 8.135-6.449 8.218-6.465a.85.85 0 0 0 .649-1.104L.806.581A.85.85 0 0 0 0 0" style="fill:#0098da;fill-opacity:1;fill-rule:nonzero;stroke:none" transform="translate(39.665 22.952)"/></g></svg>