<svg width="25" height="30" fill="none" xmlns="http://www.w3.org/2000/svg"><rect id="backgroundrect" width="100%" height="100%" x="0" y="0" fill="none" stroke="none"/>







<g class="currentLayer" style=""><title>Layer 1</title><path d="M24.9656 6.65941C24.9311 6.65941 24.9311 6.62677 24.8967 6.59412C24.8623 6.56148 24.8623 6.52884 24.8278 6.49619L18.905 0.195865C18.8705 0.163221 18.8017 0.130577 18.7672 0.0979325C18.7328 0.0979325 18.7328 0.0652884 18.6983 0.0652884C18.6295 0.0326442 18.5262 0 18.4229 0H3.89119C1.7562 0 0 1.66485 0 3.68879V26.3112C0 28.3351 1.7562 30 3.89119 30H21.1088C23.2438 30 25 28.3351 25 26.3112V6.88792C25 6.82263 24.9656 6.7247 24.9656 6.65941ZM19.0771 2.2198L22.8995 6.30033H19.0771V2.2198ZM23.6915 26.2786C23.6915 27.6496 22.5551 28.7595 21.1088 28.7595H3.89119C2.4449 28.7595 1.30854 27.6496 1.30854 26.3112V3.65615C1.30854 2.28509 2.47934 1.20783 3.89119 1.20783H17.7686V6.88792C17.7686 7.21436 18.0441 7.50816 18.4229 7.50816H23.6915V26.2786Z" fill="#ffffff" id="svg_1" class="selected" opacity="1" fill-opacity="1"/><path d="M4.64874 7.50817H10.3994C10.7438 7.50817 11.0537 7.24702 11.0537 6.88793C11.0537 6.52884 10.7782 6.26769 10.3994 6.26769H4.64874C4.30439 6.26769 3.99447 6.52884 3.99447 6.88793C3.99447 7.24702 4.30439 7.50817 4.64874 7.50817Z" fill="#ffffff" id="svg_2" class="selected" opacity="1" fill-opacity="1"/><path d="M10.3994 22.4918H4.64874C4.30439 22.4918 3.99447 22.753 3.99447 23.1121C3.99447 23.4385 4.26996 23.7323 4.64874 23.7323H10.3994C10.7438 23.7323 11.0537 23.4712 11.0537 23.1121C11.0537 22.7856 10.7438 22.4918 10.3994 22.4918Z" fill="#ffffff" id="svg_3" class="selected" opacity="1" fill-opacity="1"/><path d="M3.99447 11.0011C3.99447 11.3275 4.26996 11.6213 4.64874 11.6213H20.0069C20.3512 11.6213 20.6611 11.3602 20.6611 11.0011C20.6611 10.6746 20.3857 10.3808 20.0069 10.3808H4.64874C4.30439 10.3808 3.99447 10.642 3.99447 11.0011Z" fill="#ffffff" id="svg_4" class="selected" opacity="1" fill-opacity="1"/><path d="M20.0069 13.4494H4.64874C4.30439 13.4494 3.99447 13.7106 3.99447 14.0696C3.99447 14.3961 4.26996 14.6899 4.64874 14.6899H20.0069C20.3512 14.6899 20.6611 14.4287 20.6611 14.0696C20.6611 13.7106 20.3857 13.4494 20.0069 13.4494Z" fill="#ffffff" id="svg_5" class="selected" opacity="1" fill-opacity="1"/><path d="M20.0069 16.4853H4.64874C4.30439 16.4853 3.99447 16.7465 3.99447 17.1056C3.99447 17.432 4.26996 17.7258 4.64874 17.7258H20.0069C20.3512 17.7258 20.6611 17.4646 20.6611 17.1056C20.6611 16.7465 20.3857 16.4853 20.0069 16.4853Z" fill="#ffffff" id="svg_6" class="selected" opacity="1" fill-opacity="1"/><path d="M20.0069 19.5212H4.64874C4.30439 19.5212 3.99447 19.7824 3.99447 20.1414C3.99447 20.4679 4.26996 20.7617 4.64874 20.7617H20.0069C20.3512 20.7617 20.6611 20.5005 20.6611 20.1414C20.6611 19.815 20.3857 19.5212 20.0069 19.5212Z" fill="#ffffff" id="svg_7" class="selected" opacity="1" fill-opacity="1"/></g></svg>