<svg xmlns="http://www.w3.org/2000/svg" xml:space="preserve" width="66.667" height="66.667"><defs><clipPath clipPathUnits="userSpaceOnUse" id="a"><path d="M0 50h50V0H0Z"/></clipPath></defs><g clip-path="url(#a)" transform="matrix(1.33333 0 0 -1.33333 0 66.667)"><path d="m0 0-2.546-3.043a.58.58 0 0 1 .072-.817l.004-.003.073-.062a.58.58 0 0 1 .816.075L.965-.808zm-2.029-5.757a2.272 2.272 0 0 0-1.537.594 2.263 2.263 0 0 0-.807 1.546 2.266 2.266 0 0 0 .523 1.666l3.092 3.694a.852.852 0 0 0 1.197.107L2.708-.049a.854.854 0 0 0 .106-1.198L-.278-4.941a2.28 2.28 0 0 0-1.751-.816" style="fill:#ffffff;fill-opacity:1;fill-rule:nonzero;stroke:none" transform="translate(5.334 10.35)"/><path d="M0 0a3.942 3.942 0 0 1 .493-5.547 3.889 3.889 0 0 1 2.876-.903A3.911 3.911 0 0 1 6.04-5.056 3.944 3.944 0 0 1 5.548.493 3.943 3.943 0 0 1 0 0m3.011-8.166c-1.32 0-2.585.458-3.609 1.315a5.6 5.6 0 0 0-1.998 3.825 5.598 5.598 0 0 0 1.292 4.118 5.644 5.644 0 0 0 7.943.704 5.645 5.645 0 0 0 .705-7.942 5.597 5.597 0 0 0-3.825-1.997 5.426 5.426 0 0 0-.508-.023" style="fill:#ffffff;fill-opacity:1;fill-rule:nonzero;stroke:none" transform="translate(6.542 16.7)"/><path d="M0 0c-.294 0-.589.094-.837.287l-1.318 1.029a.851.851 0 0 0 1.046 1.34l1.054-.823 1.833 2.344A.85.85 0 0 0 3.117 3.13L1.079.523A1.371 1.371 0 0 0 0 0" style="fill:#ffffff;fill-opacity:1;fill-rule:nonzero;stroke:none" transform="translate(9.189 11.674)"/><path d="M0 0h-.529A5.236 5.236 0 0 0-5.76 5.23v24.994a5.237 5.237 0 0 0 5.231 5.231H0a.85.85 0 1 0 0-1.7h-.529a3.535 3.535 0 0 1-3.532-3.531V5.23A3.535 3.535 0 0 1-.529 1.699H0A.85.85 0 1 0 0 0" style="fill:#ffffff;fill-opacity:1;fill-rule:nonzero;stroke:none" transform="translate(35.73 7.221)"/><path d="M0 0h-4.102a.85.85 0 0 0 0 1.699H0A.85.85 0 1 0 0 0" style="fill:#ffffff;fill-opacity:1;fill-rule:nonzero;stroke:none" transform="translate(34.922 24.1)"/><path d="M0 0a.677.677 0 0 1-.169-.45v-6.349c0-.054.044-.097.097-.097h7.189c.054 0 .098.043.098.097v8.877a.097.097 0 0 1-.098.096H3.07a.684.684 0 0 1-.485-.2.882.882 0 0 0-.086-.076Zm7.117-8.596H-.072c-.99 0-1.796.806-1.796 1.797V-.45c0 .638.248 1.237.698 1.687a.871.871 0 0 0 .086.075L1.43 3.221a2.367 2.367 0 0 0 1.64.653h4.047c.991 0 1.797-.806 1.797-1.796v-8.877c0-.991-.806-1.797-1.797-1.797" style="fill:#ffffff;fill-opacity:1;fill-rule:nonzero;stroke:none" transform="translate(40.349 44.031)"/><path d="M0 0h-2.281a.85.85 0 1 0 0 1.7H0c.378 0 .686.307.686.685v1.666a.85.85 0 1 0 1.699 0V2.385A2.388 2.388 0 0 0 0 0" style="fill:#ffffff;fill-opacity:1;fill-rule:nonzero;stroke:none" transform="translate(41.632 42.983)"/><path d="M0 0h-4.726a.85.85 0 0 0 0 1.7H0A.85.85 0 1 0 0 0" style="fill:#ffffff;fill-opacity:1;fill-rule:nonzero;stroke:none" transform="translate(46.235 40.932)"/><path d="M0 0h-4.726a.85.85 0 0 0 0 1.7H0A.85.85 0 1 0 0 0" style="fill:#ffffff;fill-opacity:1;fill-rule:nonzero;stroke:none" transform="translate(46.235 38.305)"/><path d="M0 0a.682.682 0 0 1-.169-.451V-6.8c0-.053.044-.097.097-.097h7.189c.054 0 .098.044.098.097v8.877a.097.097 0 0 1-.098.096H3.07a.684.684 0 0 1-.485-.2.79.79 0 0 0-.087-.076Zm7.117-8.596H-.072c-.99 0-1.796.805-1.796 1.796v6.349c0 .637.248 1.237.698 1.687a.78.78 0 0 0 .087.075L1.43 3.22a2.368 2.368 0 0 0 1.64.654h4.047a1.8 1.8 0 0 0 1.797-1.797V-6.8c0-.991-.806-1.796-1.797-1.796" style="fill:#ffffff;fill-opacity:1;fill-rule:nonzero;stroke:none" transform="translate(40.349 27.198)"/><path d="M0 0h-2.281a.85.85 0 1 0 0 1.7H0c.378 0 .686.307.686.684v1.667a.85.85 0 1 0 1.699 0V2.384A2.387 2.387 0 0 0 0 0" style="fill:#ffffff;fill-opacity:1;fill-rule:nonzero;stroke:none" transform="translate(41.632 26.15)"/><path d="M0 0h-4.726a.85.85 0 0 0 0 1.699H0A.85.85 0 1 0 0 0" style="fill:#ffffff;fill-opacity:1;fill-rule:nonzero;stroke:none" transform="translate(46.235 24.1)"/><path d="M0 0h-4.726a.85.85 0 0 0 0 1.699H0A.85.85 0 1 0 0 0" style="fill:#ffffff;fill-opacity:1;fill-rule:nonzero;stroke:none" transform="translate(46.235 21.472)"/><path d="M0 0a.682.682 0 0 1-.169-.451V-6.8c0-.054.044-.098.097-.098h7.189c.054 0 .098.044.098.098v8.877a.098.098 0 0 1-.098.097H3.07a.688.688 0 0 1-.485-.2.714.714 0 0 0-.087-.077Zm7.117-8.597H-.072c-.99 0-1.796.806-1.796 1.797v6.349c0 .637.248 1.236.698 1.686a.697.697 0 0 0 .087.076L1.429 3.22a2.369 2.369 0 0 0 1.641.653h4.047c.991 0 1.797-.806 1.797-1.796V-6.8c0-.991-.806-1.797-1.797-1.797" style="fill:#ffffff;fill-opacity:1;fill-rule:nonzero;stroke:none" transform="translate(40.349 10.365)"/><path d="M0 0h-2.281a.85.85 0 1 0 0 1.699H0c.378 0 .686.308.686.685v1.667a.848.848 0 1 0 1.699 0V2.384A2.387 2.387 0 0 0 0 0" style="fill:#ffffff;fill-opacity:1;fill-rule:nonzero;stroke:none" transform="translate(41.632 9.317)"/><path d="M0 0h-4.726a.85.85 0 0 0 0 1.699H0A.85.85 0 1 0 0 0" style="fill:#ffffff;fill-opacity:1;fill-rule:nonzero;stroke:none" transform="translate(46.235 7.265)"/><path d="M0 0h-4.726a.85.85 0 0 0 0 1.699H0A.85.85 0 1 0 0 0" style="fill:#ffffff;fill-opacity:1;fill-rule:nonzero;stroke:none" transform="translate(46.235 4.638)"/><path d="M0 0h16.43v2.171a.662.662 0 0 1-.661.661H.661A.661.661 0 0 1 0 2.171Zm17.28-1.7H-.85a.85.85 0 0 0-.85.85v3.021A2.363 2.363 0 0 0 .661 4.532h15.108a2.363 2.363 0 0 0 2.36-2.361V-.85a.85.85 0 0 0-.849-.85" style="fill:#ffffff;fill-opacity:1;fill-rule:nonzero;stroke:none" transform="translate(8.368 30.718)"/><path d="M0 0h-3.76a.85.85 0 1 0 0 1.699H0c1.198 0 2.172.975 2.172 2.172v14.258h-13.408v-6.832a.85.85 0 1 0-1.7 0v7.682c0 .469.381.85.85.85H3.022a.85.85 0 0 0 .85-.85V3.871A3.876 3.876 0 0 0 0 0" style="fill:#ffffff;fill-opacity:1;fill-rule:nonzero;stroke:none" transform="translate(21.115 10.89)"/><path d="M0 0h-4.515a.85.85 0 1 0 0 1.699H-.85v7.365h-14.258a.85.85 0 1 0 0 1.7H0a.85.85 0 0 0 .85-.85V.85A.85.85 0 0 0 0 0" style="fill:#ffffff;fill-opacity:1;fill-rule:nonzero;stroke:none" transform="translate(24.137 15.422)"/><path d="M0 0a.85.85 0 0 0-.85.85v4.081a.85.85 0 0 0 1.7 0V.85A.85.85 0 0 0 0 0" style="fill:#ffffff;fill-opacity:1;fill-rule:nonzero;stroke:none" transform="translate(16.583 17.688)"/><path d="M0 0h-4.081a.85.85 0 1 0 0 1.699H0A.85.85 0 1 0 0 0" style="fill:#ffffff;fill-opacity:1;fill-rule:nonzero;stroke:none" transform="translate(18.623 19.728)"/></g></svg>