<svg width="36" height="30" fill="none" xmlns="http://www.w3.org/2000/svg"><path d="M34.38 4.67L25.32.27a2.78 2.78 0 00-2.4 0l-9.06 4.4a1.6 1.6 0 00-.88 1.21H2.94A2.94 2.94 0 000 8.82v18.24A2.94 2.94 0 002.94 30h29.41a2.94 2.94 0 002.95-2.94V6.12a1.6 1.6 0 00-.92-1.45zm-.26 22.39c0 .97-.8 1.76-1.77 1.76H2.95c-.98 0-1.77-.79-1.77-1.76V8.82c0-.97.79-1.76 1.76-1.76h10v4.45c.07 5.1 2.48 9.89 6.54 12.98l3.5 2.76c.67.53 1.61.53 2.29 0l3.48-2.76a17.32 17.32 0 005.37-7.05v9.62zm0-15.55a15.4 15.4 0 01-6.1 12.06l-3.48 2.76c-.25.19-.6.19-.84 0l-3.49-2.77a15.4 15.4 0 01-6.1-12.05V6.1c.01-.16.11-.31.26-.38l9.06-4.4a1.6 1.6 0 011.38 0l9.06 4.4c.15.07.25.22.25.39v5.39z" fill="#0098DA"/><path d="M24.09 5.93a5.86 5.86 0 10.01 11.72 5.86 5.86 0 00-.01-11.72zm0 10.54a4.68 4.68 0 11.01-9.37 4.68 4.68 0 01-.01 9.37z" fill="#0098DA"/><path d="M25.63 10.17l-2.47 2.47-.55-.54a.59.59 0 00-.83.83l.96.96a.59.59 0 00.83 0l2.9-2.89a.59.59 0 00-.84-.83zM12.94 22.94H3.66a.59.59 0 100 1.18h9.28a.59.59 0 000-1.18zM8.24 25.3H3.66a.59.59 0 100 1.17h4.58a.59.59 0 100-1.18zM12.25 18.5l-2.04-1.01a.18.18 0 01-.1-.16v-.58l.08-.12c.26-.36.47-.76.63-1.18.36-.22.57-.6.57-1.02v-.85c0-.24-.07-.48-.21-.68v-.97c.04-.6-.15-1.18-.53-1.64a3.05 3.05 0 00-2.41-.88c-.9-.07-1.78.25-2.41.88a2.24 2.24 0 00-.54 1.64v.97c-.13.2-.2.44-.2.68v.85c0 .32.12.63.35.86.16.52.4 1 .71 1.44v.58c0 .06-.04.12-.1.15l-1.9 1.03c-.74.4-1.2 1.16-1.2 2v.69a.59.59 0 00.58.58h9.41a.59.59 0 00.6-.58v-.65c0-.86-.5-1.66-1.29-2.04zm.1 2.09H4.12v-.1c0-.4.22-.77.58-.96l1.91-1.03c.44-.24.72-.7.72-1.2v-.76a.6.6 0 00-.14-.38 3.6 3.6 0 01-.65-1.34.7.7 0 00-.28-.4l.01-.86c.13-.12.2-.28.2-.44V11.9a1.08 1.08 0 01.24-.83 2 2 0 011.53-.48c.54-.06 1.1.11 1.51.47a1.07 1.07 0 01.25.84v1.22c0 .17.08.34.21.46l-.03.89a.59.59 0 00-.4.38 4.02 4.02 0 01-.7 1.3c-.1.1-.15.24-.15.39v.79c0 .51.3.99.76 1.21l2.04 1c.38.2.62.57.62 1v.05z" fill="#0098DA"/></svg>