<svg xmlns="http://www.w3.org/2000/svg" xml:space="preserve" width="66.667" height="66.667"><defs><clipPath clipPathUnits="userSpaceOnUse" id="a"><path d="M0 50h50V0H0Z"/></clipPath></defs><g clip-path="url(#a)" transform="matrix(1.33333 0 0 -1.33333 0 66.667)"><path d="M0 0h-.524A5.191 5.191 0 0 0-5.71 5.186v24.737A5.192 5.192 0 0 0-.524 35.11H0a.85.85 0 1 0 0-1.7h-.524a3.491 3.491 0 0 1-3.487-3.487V5.186A3.492 3.492 0 0 1-.524 1.699H0A.85.85 0 1 0 0 0" style="fill:#0098da;fill-opacity:1;fill-rule:nonzero;stroke:none" transform="translate(36.107 8.936)"/><path d="M0 0h-4.06a.85.85 0 0 0 0 1.7H0A.85.85 0 1 0 0 0" style="fill:#0098da;fill-opacity:1;fill-rule:nonzero;stroke:none" transform="translate(35.306 25.641)"/><path d="M0 0a.676.676 0 0 1-.165-.44v-6.284c0-.048.039-.087.087-.087h7.116c.048 0 .087.039.087.087v8.786a.087.087 0 0 1-.087.087H3.031a.66.66 0 0 1-.472-.196 1.003 1.003 0 0 0-.086-.075Zm7.038-8.511H-.078c-.986 0-1.786.802-1.786 1.787V-.44c0 .634.246 1.229.694 1.676a.882.882 0 0 0 .086.076l2.487 1.889a2.354 2.354 0 0 0 1.627.648h4.008c.985 0 1.786-.802 1.786-1.787v-8.786c0-.985-.801-1.787-1.786-1.787" style="fill:#0098da;fill-opacity:1;fill-rule:nonzero;stroke:none" transform="translate(39.737 45.372)"/><path d="M0 0h-2.258a.85.85 0 0 0 0 1.7H0c.368 0 .669.3.669.669v1.649a.85.85 0 1 0 1.699 0V2.369A2.371 2.371 0 0 0 0 0" style="fill:#0098da;fill-opacity:1;fill-rule:nonzero;stroke:none" transform="translate(41.001 44.332)"/><path d="M0 0h-4.677a.85.85 0 0 0 0 1.7H0A.85.85 0 1 0 0 0" style="fill:#0098da;fill-opacity:1;fill-rule:nonzero;stroke:none" transform="translate(45.556 42.301)"/><path d="M0 0h-4.677a.85.85 0 0 0 0 1.7H0A.85.85 0 1 0 0 0" style="fill:#0098da;fill-opacity:1;fill-rule:nonzero;stroke:none" transform="translate(45.556 39.702)"/><path d="M0 0a.676.676 0 0 1-.165-.44v-6.284c0-.048.039-.088.087-.088h7.116c.048 0 .087.04.087.088v8.786a.087.087 0 0 1-.087.087H3.032a.668.668 0 0 1-.473-.196.893.893 0 0 0-.087-.076Zm7.038-8.511H-.078c-.986 0-1.786.801-1.786 1.787V-.44c0 .633.246 1.228.694 1.676a.803.803 0 0 0 .087.076L1.403 3.2a2.355 2.355 0 0 0 1.629.649h4.006c.985 0 1.786-.802 1.786-1.787v-8.786c0-.986-.801-1.787-1.786-1.787" style="fill:#0098da;fill-opacity:1;fill-rule:nonzero;stroke:none" transform="translate(39.737 28.711)"/><path d="M0 0h-2.258a.85.85 0 0 0 0 1.7H0c.368 0 .669.3.669.669v1.65a.85.85 0 1 0 1.699 0v-1.65A2.371 2.371 0 0 0 0 0" style="fill:#0098da;fill-opacity:1;fill-rule:nonzero;stroke:none" transform="translate(41.001 27.67)"/><path d="M0 0h-4.677a.85.85 0 0 0 0 1.7H0A.85.85 0 1 0 0 0" style="fill:#0098da;fill-opacity:1;fill-rule:nonzero;stroke:none" transform="translate(45.556 25.641)"/><path d="M0 0h-4.677a.848.848 0 1 0 0 1.699H0A.85.85 0 1 0 0 0" style="fill:#0098da;fill-opacity:1;fill-rule:nonzero;stroke:none" transform="translate(45.556 23.04)"/><path d="M0 0a.674.674 0 0 1-.165-.439v-6.285c0-.047.039-.087.087-.087h7.116c.048 0 .087.04.087.087v8.787a.086.086 0 0 1-.087.087H3.03a.664.664 0 0 1-.471-.196.882.882 0 0 0-.086-.076Zm7.038-8.511H-.078c-.986 0-1.786.802-1.786 1.787v6.285c0 .625.253 1.236.695 1.676a.86.86 0 0 0 .085.075L1.402 3.2a2.35 2.35 0 0 0 1.626.649h4.01c.985 0 1.786-.801 1.786-1.786v-8.787c0-.985-.801-1.787-1.786-1.787" style="fill:#0098da;fill-opacity:1;fill-rule:nonzero;stroke:none" transform="translate(39.737 12.05)"/><path d="M0 0h-2.258a.848.848 0 1 0 0 1.699H0a.67.67 0 0 1 .669.669v1.65a.849.849 0 1 0 1.699 0v-1.65A2.37 2.37 0 0 0 0 0" style="fill:#0098da;fill-opacity:1;fill-rule:nonzero;stroke:none" transform="translate(41.001 11.01)"/><path d="M0 0h-4.677a.848.848 0 1 0 0 1.699H0A.85.85 0 1 0 0 0" style="fill:#0098da;fill-opacity:1;fill-rule:nonzero;stroke:none" transform="translate(45.556 8.98)"/><path d="M0 0h-4.677a.848.848 0 1 0 0 1.699H0A.85.85 0 1 0 0 0" style="fill:#0098da;fill-opacity:1;fill-rule:nonzero;stroke:none" transform="translate(45.556 6.38)"/><path d="M0 0h-20.043a.855.855 0 1 0 0 1.711H0c.91 0 1.65.74 1.65 1.65v21.566a.816.816 0 0 1-.815.815h-16.703a.816.816 0 0 1-.815-.815V13.354a.855.855 0 1 0-1.71 0v11.573a2.528 2.528 0 0 0 2.525 2.525H.835a2.53 2.53 0 0 0 2.526-2.525V3.361A3.365 3.365 0 0 0 0 0" style="fill:#0098da;fill-opacity:1;fill-rule:nonzero;stroke:none" transform="translate(24.59 12.598)"/><path d="M0 0a3.364 3.364 0 0 0-3.36 3.361v7.616a.855.855 0 1 0 1.71 0V3.361c0-.91.74-1.65 1.65-1.65.91 0 1.65.74 1.65 1.65v10.68a.855.855 0 0 0 1.71 0V3.361A3.364 3.364 0 0 0 0 0" style="fill:#0098da;fill-opacity:1;fill-rule:nonzero;stroke:none" transform="translate(4.546 12.598)"/><path d="M0 0h-11.692a.855.855 0 0 0 0 1.711H0A.855.855 0 0 0 0 0" style="fill:#0098da;fill-opacity:1;fill-rule:nonzero;stroke:none" transform="translate(23.509 20.129)"/><path d="M0 0h-6.681a.855.855 0 0 0 0 1.711H0A.855.855 0 0 0 0 0" style="fill:#0098da;fill-opacity:1;fill-rule:nonzero;stroke:none" transform="translate(23.509 16.788)"/><path d="M0 0a.547.547 0 0 1-.546-.546v-1.582L-1.948-.222a.548.548 0 0 1-.986-.324v-3.246a.547.547 0 0 1 1.092 0v1.582L-.44-4.115a.546.546 0 0 1 .986.323v3.246A.547.547 0 0 1 0 0" style="fill:#0098da;fill-opacity:1;fill-rule:nonzero;stroke:none" transform="translate(12.525 29.595)"/><path d="M0 0a.547.547 0 0 1 0 1.092h-1.502a.546.546 0 0 1-.546-.546v-3.247c0-.301.244-.546.546-.546H0a.547.547 0 0 1 0 1.092h-.956v.531H0A.547.547 0 0 1 0-.532h-.956V0Z" style="fill:#0098da;fill-opacity:1;fill-rule:nonzero;stroke:none" transform="translate(15.74 28.503)"/><path d="M0 0a.547.547 0 0 1-.546-.546v-1.852l-.364.393-.037.037a.584.584 0 0 1-.391.145.545.545 0 0 1-.38-.175l-.37-.4v1.852a.547.547 0 0 1-1.092 0v-3.246a.55.55 0 0 1 .346-.509.567.567 0 0 1 .601.137l.916.992.916-.992.015-.015h.001a.545.545 0 0 1 .931.387v3.246A.547.547 0 0 1 0 0" style="fill:#0098da;fill-opacity:1;fill-rule:nonzero;stroke:none" transform="translate(20.088 29.595)"/><path d="M0 0h-.766a.265.265 0 0 0 0 .532H.811a.546.546 0 0 1 0 1.092H-.766a1.36 1.36 0 0 1 0-2.717H0a.265.265 0 1 0 0-.53h-1.577a.547.547 0 0 1 0-1.092H0a1.36 1.36 0 0 1 1.357 1.358C1.357-.609.748 0 0 0" style="fill:#0098da;fill-opacity:1;fill-rule:nonzero;stroke:none" transform="translate(23.38 27.971)"/><path d="M0 0c0 .289-.269.533-.587.533h-1.109v.594h.938c.326 0 .581.239.581.544 0 .293-.266.54-.581.54h-.938v.581h1.05c.329 0 .587.234.587.533 0 .299-.269.551-.587.551h-1.596c-.341 0-.629-.268-.629-.585V.035c0-.367.27-.586.723-.586h1.561C-.263-.551 0-.304 0 0" style="fill:#0098da;fill-opacity:1;fill-rule:nonzero;stroke:none" transform="translate(15.22 32.087)"/><path d="M0 0c0 .951-.738 1.18-1.337 1.366-.148.04-.272.086-.396.147-.08.036-.146.078-.146.228 0 .079 0 .264.385.264.178 0 .285-.039.398-.079l.057-.018a.9.9 0 0 1 .281-.053c.335 0 .587.232.587.54 0 .675-1.22.694-1.359.694-.936 0-1.541-.538-1.541-1.371 0-.971.736-1.193 1.323-1.37.153-.05.295-.1.415-.151.074-.032.135-.072.135-.232 0-.096 0-.322-.438-.322-.204 0-.364.053-.523.105-.112.041-.232.08-.354.08-.306 0-.564-.247-.564-.539 0-.6 1.036-.73 1.435-.73C-.66-1.441 0-.862 0 0" style="fill:#0098da;fill-opacity:1;fill-rule:nonzero;stroke:none" transform="translate(18.521 32.925)"/><path d="M0 0c.728 0 1.512.297 1.512.95v1.278c0 .352-.258.58-.658.58H.212a.55.55 0 0 1-.546-.54.55.55 0 0 1 .546-.539h.132v-.615a.815.815 0 0 0-.315-.059c-.318 0-.531.108-.531.635v1.145c0 .527.213.635.531.635a.75.75 0 0 0 .4-.115l.085-.05a.51.51 0 0 1 .317-.095c.311 0 .563.234.563.521 0 .491-.724.794-1.394.794-1.066 0-1.677-.616-1.677-1.69V1.69C-1.677.616-1.066 0 0 0" style="fill:#0098da;fill-opacity:1;fill-rule:nonzero;stroke:none" transform="translate(20.457 31.49)"/></g></svg>