<svg xmlns="http://www.w3.org/2000/svg" xml:space="preserve" width="66.667" height="66.667"><defs><clipPath id="a" clipPathUnits="userSpaceOnUse"><path d="M0 50h50V0H0Z"/></clipPath></defs><g clip-path="url(#a)" transform="matrix(1.33333 0 0 -1.33333 0 66.667)"><path d="M0 0a1.353 1.353 0 0 0-1.732-2.078L-3.479-.621l1.343 2.401zm-6.472-2.469a1.92 1.92 0 0 0-2.609-.737c-.446.25-.769.659-.908 1.152a1.903 1.903 0 0 0 .172 1.456l1.574 2.814L-4.889.361zm.348 8.474a1.923 1.923 0 0 0 2.609.737 1.92 1.92 0 0 0 .737-2.609l-1.276-2.279-3.354 1.854Zm3.444 2.229A3.63 3.63 0 0 1-7.616 6.84L-11.31.237a3.603 3.603 0 0 1-.325-2.756 3.603 3.603 0 0 1 1.719-2.179A3.63 3.63 0 0 1-4.98-3.304l.652 1.165 1.502-1.253A3.055 3.055 0 0 1-.868-4.1c.878 0 1.75.375 2.355 1.101a3.04 3.04 0 0 1 .697 2.238 3.04 3.04 0 0 1-1.089 2.074l-2.344 1.954c-.013.01-.029.013-.042.022l.005.009A3.632 3.632 0 0 1-2.68 8.234" style="fill:#0098da;fill-opacity:1;fill-rule:nonzero;stroke:none" transform="translate(19.064 33.898)"/><path d="M0 0a4.302 4.302 0 0 0-2.735-1.867 4.3 4.3 0 0 0-3.255.614 4.297 4.297 0 0 0-1.867 2.735 4.291 4.291 0 0 0 .613 3.255A4.334 4.334 0 0 0-1.253 5.99 4.3 4.3 0 0 0 .614 3.255 4.297 4.297 0 0 0 0 0m-.317 7.422a6.047 6.047 0 0 1-8.359-1.749 5.993 5.993 0 0 1-.855-4.541 6.003 6.003 0 0 1 2.605-3.817 5.996 5.996 0 0 1 4.541-.856A6.003 6.003 0 0 1 1.432-.936 6.045 6.045 0 0 1-.317 7.422" style="fill:#0098da;fill-opacity:1;fill-rule:nonzero;stroke:none" transform="translate(44.905 4.839)"/><path d="m0 0-2.794-2.817-1.075 1.064a.855.855 0 1 1-1.203-1.215l1.285-1.272c.274-.273.635-.408.994-.408.364 0 .729.138 1.005.416l3.003 3.027A.857.857 0 0 1 1.21.005.859.859 0 0 1 0 0" style="fill:#0098da;fill-opacity:1;fill-rule:nonzero;stroke:none" transform="translate(43.166 9.041)"/><path d="M0 0c.047.123.139.22.26.273A.487.487 0 0 0 .907.026.49.49 0 1 0 0 0m-1.55-1.074A2.202 2.202 0 1 1 2.468.727 2.202 2.202 0 0 1-1.55-1.074" style="fill:#0098da;fill-opacity:1;fill-rule:nonzero;stroke:none" transform="translate(29.403 8.117)"/><path d="M0 0h-13.757a2.64 2.64 0 0 0-2.259 1.258 2.625 2.625 0 0 0-.132 2.551l9.287 16.746a2.64 2.64 0 0 0 2.374 1.468A2.65 2.65 0 0 0-2.1 20.529l5.537-10.18a.853.853 0 1 1 1.502.816L-.584 21.319a4.335 4.335 0 0 1-3.903 2.414 4.326 4.326 0 0 1-3.887-2.381l-9.287-16.745A4.343 4.343 0 0 1-17.47.358a4.339 4.339 0 0 1 3.713-2.069H0A.855.855 0 1 1 0 0" style="fill:#0098da;fill-opacity:1;fill-rule:nonzero;stroke:none" transform="translate(34.508 3.373)"/><path d="M0 0c0 .051.041.092.092.092h.379C.521.092.562.051.562 0v-7.025a.092.092 0 0 0-.091-.092H.092A.092.092 0 0 0 0-7.025Zm.092-8.828h.379c.994 0 1.802.809 1.802 1.803V0c0 .994-.808 1.803-1.802 1.803H.092A1.805 1.805 0 0 1-1.711 0v-7.025c0-.994.809-1.803 1.803-1.803" style="fill:#0098da;fill-opacity:1;fill-rule:nonzero;stroke:none" transform="translate(29.581 19.785)"/><path d="M0 0h-11.155a.855.855 0 0 1 0-1.711H0A.855.855 0 0 1 0 0" style="fill:#0098da;fill-opacity:1;fill-rule:nonzero;stroke:none" transform="translate(14.793 11.635)"/><path d="M0 0h-8.832a.855.855 0 1 1 0-1.711H0A.855.855 0 0 1 0 0" style="fill:#0098da;fill-opacity:1;fill-rule:nonzero;stroke:none" transform="translate(12.47 6.945)"/><path d="M0 0h14.118a.855.855 0 0 1 0 1.711H0A.855.855 0 0 1 0 0" style="fill:#0098da;fill-opacity:1;fill-rule:nonzero;stroke:none" transform="translate(3.637 14.614)"/><path d="M0 0h-2.208v.862c0 1.9-1.546 3.445-3.445 3.445h-32.099A3.448 3.448 0 0 1-41.197.862V-17.96a3.449 3.449 0 0 1 3.445-3.445h8.675l3.862-4.061a.852.852 0 0 1 .717-.261.86.86 0 0 1 .64.416l2.521 4.29a.856.856 0 0 1-1.475.868l-1.946-3.313-3.332 3.505a.857.857 0 0 1-.62.267h-9.042c-.957 0-1.735.777-1.735 1.734V.862c0 .957.778 1.735 1.735 1.735h32.099c.957 0 1.734-.778 1.734-1.735V-16.96c0-.957-.777-1.735-1.747-1.735l-1.307-.019a.857.857 0 0 1-.843-.868c.008-.472.413-.815.869-.843l1.294.02a3.45 3.45 0 0 1 3.445 3.445v15.25H0c.957 0 1.735-.778 1.735-1.735v-17.822c0-.957-.778-1.735-1.74-1.735l-3.306-.02a.855.855 0 0 1 .005-1.71h.005L0-24.713a3.45 3.45 0 0 1 3.446 3.446v17.822A3.45 3.45 0 0 1 0 0" style="fill:#0098da;fill-opacity:1;fill-rule:nonzero;stroke:none" transform="translate(43.876 43.516)"/><path d="M0 0h-4.505a.855.855 0 1 1 0-1.71H0A.855.855 0 1 1 0 0" style="fill:#0098da;fill-opacity:1;fill-rule:nonzero;stroke:none" transform="translate(36.2 36.685)"/><path d="M0 0h10.72a.855.855 0 1 1 0 1.71H0A.855.855 0 0 1 0 0" style="fill:#0098da;fill-opacity:1;fill-rule:nonzero;stroke:none" transform="translate(25.479 31.23)"/><path d="M0 0h-10.72a.855.855 0 0 1 0-1.71H0A.855.855 0 1 1 0 0" style="fill:#0098da;fill-opacity:1;fill-rule:nonzero;stroke:none" transform="translate(36.2 40.483)"/><path d="M0 0a.855.855 0 0 1 0-1.71h2.754a.855.855 0 1 1 0 1.71Z" style="fill:#0098da;fill-opacity:1;fill-rule:nonzero;stroke:none" transform="translate(25.549 36.685)"/></g></svg>