<svg xmlns="http://www.w3.org/2000/svg" xml:space="preserve" width="66.67" height="69.33"><defs><clipPath clipPathUnits="userSpaceOnUse" id="a"><path d="M0 52h50V0H0Z"/></clipPath></defs><g clip-path="url(#a)" transform="matrix(1.33333 0 0 -1.33333 0 69.33)"><path d="M8.17 22.53h16.4a.83.83 0 1 1 0 1.66H8.17a.83.83 0 1 1 0-1.66M28.01 22.53h7.5a.83.83 0 1 1 0 1.66H28a.83.83 0 1 1 0-1.66M8.17 17.98H35.5a.84.84 0 0 1 0 1.67H8.17a.83.83 0 1 1 0-1.67M16.92 15.11H8.17a.84.84 0 0 1 0-1.67h8.75a.84.84 0 0 1 0 1.67M36.4 15.11H20.82a.83.83 0 1 1 0-1.67H36.4a.83.83 0 1 1 0 1.67M18.15 39.05a4.9 4.9 0 0 0 9.8 0 4.9 4.9 0 0 0-9.8 0m11.48 0a6.57 6.57 0 0 1-13.15 0 6.57 6.57 0 0 1 13.15 0" fill="#0098da"/><path d="M23.89 36.22v3.7l.79-.77a.83.83 0 1 1 1.15 1.2l-2.2 2.13-.1.06-.1.07c-.02.01-.03.03-.05.03h-.02c-.05.03-.1.03-.15.04l-.15.03h-.02l-.15-.03-.15-.03h-.02l-.04-.04-.11-.07-.1-.06-2.2-2.12a.84.84 0 0 1 1.16-1.2l.79.75v-3.7a.84.84 0 0 1 1.67 0" fill="#0098da"/><path d="M37.23 41.2v7.93c.14-.1.28-.2.4-.32l9.5-9.5c.14-.14.26-.3.36-.48h-7.83a2.4 2.4 0 0 0-2.43 2.38M2.33 11.5v14.76c0 1.14.94 2.07 2.08 2.07h35.8c1.14 0 2.07-.93 2.07-2.07V11.52c0-1.15-.93-2.08-2.07-2.08H4.4c-1.14 0-2.07.93-2.07 2.08M48.3 40.49 38.8 50a4.05 4.05 0 0 1-2.34 1.15l-.07.01h-.03c-.15.01-.3.04-.46.04H12.24a5.7 5.7 0 0 1-5.72-5.73V32.5a.84.84 0 0 1 1.67 0v12.96a4.03 4.03 0 0 0 4.05 4.06h23.32v-8.31a4.08 4.08 0 0 1 4.1-4.05h8.18V6.35a4.08 4.08 0 0 0-4.06-4.05H12.24A4.06 4.06 0 0 0 8.2 6.35v1.42h32.02a3.75 3.75 0 0 1 3.74 3.75v14.75A3.75 3.75 0 0 1 40.21 30H4.4a3.75 3.75 0 0 1-3.74-3.74V11.52A3.75 3.75 0 0 1 4.4 7.77h2.11V6.35A5.73 5.73 0 0 1 12.24.63h31.54a5.7 5.7 0 0 1 5.73 5.72V37.6c0 1.1-.43 2.12-1.2 2.9" fill="#0098da"/></g></svg>