<svg xmlns="http://www.w3.org/2000/svg" xml:space="preserve" width="69.33" height="76.61"><defs><clipPath clipPathUnits="userSpaceOnUse" id="a"><path d="M0 57.45h52V0H0Z"/></clipPath></defs><g clip-path="url(#a)" transform="matrix(1.33333 0 0 -1.33333 0 76.6)"><path d="M26.26 54.7a6.02 6.02 0 1 0-.01-12.04 6.02 6.02 0 0 0 0 12.04m0-13.73a7.72 7.72 0 1 1 0 15.45 7.72 7.72 0 0 1 0-15.45" fill="#0098da"/><path d="M23.68 48.7c.22 0 .44.08.6.25l1.13 1.12v-4.81a.85.85 0 1 1 1.7 0v4.8l1.12-1.11a.85.85 0 0 1 1.2 0c.34.33.34.87 0 1.2l-2.57 2.57a.87.87 0 0 1-.28.19.85.85 0 0 1-.91-.18h-.01l-2.58-2.58a.85.85 0 0 1 .6-1.45M20 7.2l-1.56-.86-1.53.91.02 1.66 1.67.93L20.02 9Zm-4.83.04-1.55-.87-1.53.91.02 1.78 1.56.87 1.53-.91zm-.41 5.94 1.55.87 1.53-.91-.02-1.66-1.66-.93-1.43.85Zm6.94-5.97.03 2.13c0 .38-.2.73-.51.92l-1.7 1.01.03 2.21c0 .37-.19.73-.51.92l-2.18 1.3c-.32.2-.72.2-1.05.02l-2.21-1.24a1.05 1.05 0 0 1-.54-.9l-.03-2.06-2.08-1.16a1.06 1.06 0 0 1-.53-.9l-.03-1.85a.82.82 0 0 1-.24-.13L8.45 6.1A.85.85 0 1 1 9.5 4.78l1.47 1.18 2.08-1.24a1.04 1.04 0 0 1 1.06-.02l1.94 1.08 1.83-1.1a1.05 1.05 0 0 1 1.05 0l1.9 1.05 1.62-1.32a.85.85 0 1 1 1.07 1.32zM41.42 12.78H28.44a.85.85 0 0 1 0-1.7h12.98a.85.85 0 1 1 0 1.7M38.17 8.98h-9.73a.85.85 0 1 1 0-1.7h9.73a.85.85 0 1 1 0 1.7" fill="#0098da"/><path d="M49.4 4.94c0-1.19-.96-2.15-2.14-2.15h-42c-1.19 0-2.15.96-2.15 2.15v10.19c0 1.19.96 2.15 2.15 2.15h42c1.18 0 2.15-.96 2.15-2.15zm-2.14 14.04h-42a3.85 3.85 0 0 1-3.85-3.85V4.93A3.85 3.85 0 0 1 5.26 1.1h42a3.85 3.85 0 0 1 3.85 3.85v10.19a3.85 3.85 0 0 1-3.85 3.85M21.32 32.72H8.35a.85.85 0 0 1 0-1.7h12.97a.85.85 0 0 1 0 1.7M21.32 29.35H11.6a.85.85 0 0 1 0-1.7h9.73a.85.85 0 0 1 0 1.7M32.44 29.1a2.88 2.88 0 0 0-3.14 1.77l5.58.87a2.88 2.88 0 0 0-2.44-2.64m-.9 5.74a2.96 2.96 0 0 0 2.16-.52c.34-.24.6-.56.8-.91l-5.35-.85a2.9 2.9 0 0 0 2.38 2.28m5.01-2.15a4.58 4.58 0 0 1-5.27 3.83 4.62 4.62 0 1 1 5.27-3.83M43.01 30.6 41.86 29l-2.43 1.77 1.18 1.62a1.5 1.5 0 1 0 2.4-1.79m-3.3-4.54a1.5 1.5 0 0 0-2.06-.28 1.49 1.49 0 0 0-.38 2.03l1.16 1.59 2.42-1.76zm2.44 8.68a3.17 3.17 0 0 1-2.93-1.37l-1.65-2.27-.01-.01-.01-.02-1.67-2.29a3.19 3.19 0 0 1 2.66-5c.94 0 1.88.43 2.51 1.24l.02.02 3.3 4.54a3.2 3.2 0 0 1-2.22 5.16" fill="#0098da"/><path d="M49.4 24.69c0-1.19-.96-2.15-2.14-2.15h-42c-1.19 0-2.15.96-2.15 2.15v11c0 1.18.96 2.15 2.15 2.15h42c1.18 0 2.15-.97 2.15-2.15zm-2.14 14.85h-42a3.85 3.85 0 0 1-3.85-3.85v-11a3.85 3.85 0 0 1 3.85-3.85h42a3.85 3.85 0 0 1 3.85 3.85v11a3.85 3.85 0 0 1-3.85 3.85" fill="#0098da"/></g></svg>