<svg width="66.667" height="66.667" xmlns="http://www.w3.org/2000/svg"><defs><clipPath clipPathUnits="userSpaceOnUse" id="a"><path d="M0 50h50V0H0Z"/></clipPath></defs><g clip-path="url(#a)" transform="matrix(1.33333 0 0 -1.33333 0 66.667)"><path d="M0 0a4.351 4.351 0 0 0 0 8.7c2.4 0 4.35-1.95 4.35-4.35C4.35 1.95 2.4 0 0 0m0 10.37c-3.31 0-6.01-2.7-6.01-6.02 0-3.32 2.7-6.02 6.01-6.02 3.32 0 6.02 2.7 6.02 6.02 0 3.32-2.7 6.02-6.02 6.02" style="fill:#0098da;fill-opacity:1;fill-rule:nonzero;stroke:none" transform="translate(25.14 20.73)"/><path d="M0 0a.827.827 0 0 0-1.18 0l-.73.73v-2.74c0-.46-.38-.83-.84-.83-.46 0-.83.37-.83.83V.74l-.88-.88a.824.824 0 0 0-.59-.24c-.21 0-.42.08-.58.24-.33.33-.33.86 0 1.18l2.29 2.3a.86.86 0 0 0 1.18 0L0 1.18C.33.85.33.32 0 0" style="fill:#0098da;fill-opacity:1;fill-rule:nonzero;stroke:none" transform="translate(27.96 24.71)"/><path d="M0 0a.86.86 0 0 1-.32 0c.05.01.11.02.16.02S-.05.01 0 0" style="fill:#0098da;fill-opacity:1;fill-rule:nonzero;stroke:none" transform="translate(25.37 28.27)"/><path d="M0 0c.95 0 1.72-.77 1.72-1.71 0-.95-.77-1.72-1.72-1.72A1.716 1.716 0 0 0 0 0m3.61-4.98c-.49.32-1.02.56-1.57.73.75.6 1.22 1.51 1.22 2.54C3.26.08 1.8 1.55 0 1.55c-1.8 0-3.26-1.47-3.26-3.26 0-1.02.47-1.93 1.21-2.53a6.57 6.57 0 0 1-1.55-.71.775.775 0 0 1-.24-1.07.78.78 0 0 1 1.06-.24 5.217 5.217 0 0 0 5.56-.02c.13-.08.27-.12.41-.12.26 0 .51.13.66.36.23.36.12.84-.24 1.06" style="fill:#0098da;fill-opacity:1;fill-rule:nonzero;stroke:none" transform="translate(11.04 33.9)"/><path d="M0 0h-16.788c-1.437 0-2.606 1.336-2.606 2.977v23.662c0 1.641 1.169 2.976 2.606 2.976H0c1.437 0 2.606-1.335 2.606-2.976V22.51a.833.833 0 1 0-1.668 0v4.129c0 .709-.43 1.308-.938 1.308h-16.788c-.508 0-.938-.599-.938-1.308V2.977c0-.71.43-1.309.938-1.309H0c.508 0 .938.599.938 1.309v4.418a.833.833 0 1 0 1.668 0V2.977C2.606 1.336 1.437 0 0 0" style="fill:#0098da;fill-opacity:1;fill-rule:nonzero;stroke:none" transform="translate(19.437 10.192)"/><path d="M0 0h-9.379a.77.77 0 1 0 0 1.542H0A.77.77 0 1 0 0 0" style="fill:#0098da;fill-opacity:1;fill-rule:nonzero;stroke:none" transform="translate(16.38 14.853)"/><path d="M0 0h-9.379a.77.77 0 1 0 0 1.542H0A.77.77 0 1 0 0 0" style="fill:#0098da;fill-opacity:1;fill-rule:nonzero;stroke:none" transform="translate(16.38 18.854)"/><path d="M0 0h-9.379a.77.77 0 1 0 0 1.542H0A.77.77 0 1 0 0 0" style="fill:#0098da;fill-opacity:1;fill-rule:nonzero;stroke:none" transform="translate(16.38 22.854)"/><path d="M0 0a.73.73 0 1 0-1.461 0A.73.73 0 0 0 0 0" style="fill:#0098da;fill-opacity:1;fill-rule:nonzero;stroke:none" transform="translate(5.304 23.627)"/><path d="M0 0a.73.73 0 1 0-1.461 0A.73.73 0 0 0 0 0" style="fill:#0098da;fill-opacity:1;fill-rule:nonzero;stroke:none" transform="translate(5.304 19.655)"/><path d="M0 0a.73.73 0 1 0-1.461 0A.73.73 0 0 0 0 0" style="fill:#0098da;fill-opacity:1;fill-rule:nonzero;stroke:none" transform="translate(5.304 15.646)"/><path d="M0 0c.95 0 1.72-.77 1.72-1.71a1.72 1.72 0 1 0-3.44 0C-1.72-.77-.95 0 0 0m0 1.55c-1.8 0-3.26-1.47-3.26-3.26 0-1.02.47-1.93 1.2-2.53.57-.45 1.28-.73 2.06-.73.77 0 1.48.27 2.05.72.74.6 1.21 1.51 1.21 2.54C3.26.08 1.8 1.55 0 1.55" style="fill:#0098da;fill-opacity:1;fill-rule:nonzero;stroke:none" transform="translate(39.83 33.9)"/><path d="M0 0a.758.758 0 0 0-.65-.36c-.14 0-.28.04-.41.12a5.217 5.217 0 0 1-5.56.02.77.77 0 0 0-1.07.25c-.22.36-.11.83.25 1.06.49.3 1 .54 1.54.71.57-.45 1.28-.73 2.06-.73.77 0 1.48.27 2.05.72.55-.18 1.07-.42 1.56-.73C.13.84.23.36 0 0" style="fill:#0098da;fill-opacity:1;fill-rule:nonzero;stroke:none" transform="translate(43.67 27.86)"/><path d="M0 0h-16.788c-1.438 0-2.607 1.336-2.607 2.977v4.418a.833.833 0 1 0 1.668 0V2.977c0-.71.43-1.309.939-1.309H0c.508 0 .938.599.938 1.309v23.662c0 .709-.43 1.308-.938 1.308h-16.788c-.509 0-.939-.599-.939-1.308V22.51a.833.833 0 1 0-1.668 0v4.129c0 1.641 1.169 2.976 2.607 2.976H0c1.437 0 2.606-1.335 2.606-2.976V2.977C2.606 1.336 1.437 0 0 0" style="fill:#0098da;fill-opacity:1;fill-rule:nonzero;stroke:none" transform="translate(47.352 10.192)"/><path d="M0 0h-9.378a.77.77 0 1 0 0 1.542H0A.77.77 0 1 0 0 0" style="fill:#0098da;fill-opacity:1;fill-rule:nonzero;stroke:none" transform="translate(45.167 14.853)"/><path d="M0 0h-9.378a.77.77 0 1 0 0 1.542H0A.77.77 0 1 0 0 0" style="fill:#0098da;fill-opacity:1;fill-rule:nonzero;stroke:none" transform="translate(45.167 18.854)"/><path d="M0 0h-9.378a.77.77 0 1 0 0 1.542H0A.77.77 0 1 0 0 0" style="fill:#0098da;fill-opacity:1;fill-rule:nonzero;stroke:none" transform="translate(45.167 22.854)"/><path d="M0 0a.73.73 0 1 0-1.461 0A.73.73 0 0 0 0 0" style="fill:#0098da;fill-opacity:1;fill-rule:nonzero;stroke:none" transform="translate(34.091 23.627)"/><path d="M0 0a.73.73 0 1 0-1.461 0A.73.73 0 0 0 0 0" style="fill:#0098da;fill-opacity:1;fill-rule:nonzero;stroke:none" transform="translate(34.091 19.655)"/><path d="M0 0a.73.73 0 1 0-1.461 0A.73.73 0 0 0 0 0" style="fill:#0098da;fill-opacity:1;fill-rule:nonzero;stroke:none" transform="translate(34.091 15.646)"/></g></svg>