<svg xmlns="http://www.w3.org/2000/svg" width="66.667" height="66.667"><defs><clipPath id="a"><path d="M0 50h50V0H0z"/></clipPath></defs><g clip-path="url(#a)" transform="matrix(1.3333 0 0 -1.3333 0 66.667)"><path fill="#0098da" d="M31.346 42.772v5.058a3.31 3.31 0 0 0 .877-.612l6.916-6.917c.259-.258.456-.558.616-.876h-5.06a3.351 3.351 0 0 0-3.349 3.347m.666-10.269c.314-.315.556-.681.736-1.074h-5.617a3.712 3.712 0 0 0-3.707 3.709v5.61a3.78 3.78 0 0 0 1.098-.754zm17.465-12.12-2.538 2.538a.81.81 0 0 1-1.143 0l-2.693-2.693a.81.81 0 0 1 1.143-1.144l1.369 1.369V4.558a2.76 2.76 0 0 0-2.756-2.756H29.184a2.759 2.759 0 0 0-2.756 2.756V20.09a2.76 2.76 0 0 0 2.756 2.757h9.799a2.756 2.756 0 0 1 2.753 2.751v12.335c0 .222-.036.437-.064.653 0 .011.006.02.006.031 0 .03-.015.057-.018.087a4.922 4.922 0 0 1-1.378 2.74l-6.916 6.917a4.913 4.913 0 0 1-2.734 1.377c-.032.004-.06.019-.094.019-.011 0-.021-.006-.032-.006-.215.027-.428.063-.647.063H13.814a3.803 3.803 0 0 1-3.799-3.799v-3.294h-5.93a3.803 3.803 0 0 1-3.798-3.799V3.801A3.598 3.598 0 0 1 3.881.208H22.87a.808.808 0 1 1 0 1.615H3.881a1.979 1.979 0 0 0-1.977 1.978v35.121c0 1.204.979 2.183 2.181 2.183h17.722v-5.967a5.331 5.331 0 0 1 5.324-5.325h5.968V27.25a.807.807 0 1 1 1.615 0v2.628c0 .24-.038.473-.069.706.001.013.008.024.008.037 0 .038-.017.071-.022.108a5.291 5.291 0 0 1-1.475 2.917l-7.492 7.491a5.354 5.354 0 0 1-2.915 1.495c-.046.008-.086.027-.133.027-.017 0-.031-.008-.047-.009-.241.032-.48.071-.728.071H11.632v3.294c0 1.204.978 2.182 2.182 2.182h15.917v-5.425a4.968 4.968 0 0 1 4.964-4.963h5.425V25.598c0-.626-.51-1.136-1.137-1.136h-9.799a4.377 4.377 0 0 1-4.372-4.372V4.558A4.376 4.376 0 0 1 29.184.187h13.675a4.375 4.375 0 0 1 4.371 4.371v15.787l1.104-1.105a.81.81 0 0 1 1.143 1.143"/><path fill="#0098da" d="m14.81 29.545.026-1.392h-2.342a.808.808 0 0 1-.808-.808l.027-2.2-1.534-.056v2.256a.808.808 0 0 1-.808.808l-2.316-.056-.027 1.448h2.343c.445 0 .808.362.808.808l-.028 2.2 1.535.056v-2.256c0-.446.362-.808.808-.808zm-3.097 4.624h-1.562c-.876 0-1.589-.7-1.589-1.56v-1.448H7.028c-.876 0-1.589-.7-1.589-1.56v-1.504c0-.86.713-1.56 1.589-1.56h1.534v-1.448c0-.86.713-1.56 1.589-1.56h1.562c.876 0 1.589.7 1.589 1.56v1.448h1.534c.876 0 1.589.7 1.589 1.56v1.504c0 .86-.713 1.56-1.589 1.56h-1.534v1.448c0 .86-.713 1.56-1.589 1.56M33.448 15.794a1.62 1.62 0 1 0-1.619-1.619c0 .891.727 1.619 1.619 1.619M28.67 7.127a.807.807 0 1 1 1.615 0c0 1.743 1.42 3.163 3.163 3.163s3.163-1.42 3.163-3.163a.807.807 0 1 1 1.615 0 4.785 4.785 0 0 1-2.926 4.404 3.227 3.227 0 0 1 1.381 2.644c0 1.783-1.45 3.234-3.233 3.234s-3.234-1.451-3.234-3.234c0-1.094.548-2.059 1.382-2.644a4.785 4.785 0 0 1-2.926-4.404"/><path fill="#0098da" d="M39.464 14.029a1.18 1.18 0 0 0 1.177-1.179 1.179 1.179 0 0 0-2.356 0 1.18 1.18 0 0 0 1.179 1.179m2.792-1.179c0 1.54-1.252 2.794-2.792 2.794S36.67 14.39 36.67 12.85c0-.81.354-1.535.908-2.046a.792.792 0 0 1-.096-.715.81.81 0 0 1 1.037-.481 2.444 2.444 0 0 0 3.289-2.291c0-.445.362-.807.807-.807h.001c.446 0 .808.363.807.809a4.059 4.059 0 0 1-1.739 3.327c-.098.069-.2.126-.303.185.536.509.875 1.223.875 2.019M20.319 13.646H6.247a.808.808 0 1 1 0-1.615h14.072a.807.807 0 1 1 0 1.615M20.319 7.968H6.247a.808.808 0 1 1 0-1.615h14.072a.807.807 0 1 1 0 1.615M20.319 19.327H6.247a.808.808 0 0 1 0-1.615h14.072a.807.807 0 1 1 0 1.615"/></g></svg>