<svg xmlns="http://www.w3.org/2000/svg" xml:space="preserve" width="66.667" height="71.337"><defs><clipPath clipPathUnits="userSpaceOnUse" id="a"><path d="M0 53.503h50V0H0Z"/></clipPath></defs><g clip-path="url(#a)" transform="matrix(1.33333 0 0 -1.33333 0 71.337)"><path d="m0 0 2.215 2.215 3.488-3.488-2.204-2.204a2.46 2.46 0 0 0-3.418.07C-.863-2.462-.89-.956 0 0m5.661 5.661a2.467 2.467 0 0 0 4.197-1.072 2.48 2.48 0 0 0-.731-2.437L6.912-.064 3.424 3.424ZM1.826-5.846a4.17 4.17 0 0 1 2.849 1.127l.022.022 2.819 2.82L10.315.922a4.174 4.174 0 0 1 1.199 4.09A4.175 4.175 0 0 1 8.5 8.027a4.164 4.164 0 0 1-4.069-1.178L1.628 4.046c-.006-.006-.015-.008-.021-.014-.006-.007-.008-.015-.014-.021L-1.23 1.187a4.162 4.162 0 0 1 .102-5.803 4.166 4.166 0 0 1 2.954-1.23" style="fill:#0098da;fill-opacity:1;fill-rule:nonzero;stroke:none" transform="translate(17.195 43.21)"/><path d="M0 0a2.233 2.233 0 0 0-2.23-2.23h-19.921A2.233 2.233 0 0 0-24.381 0v17.423c0 1.23 1 2.23 2.23 2.23H-2.23c1.229 0 2.23-1 2.23-2.23zm-43.007-1.003c-.087.087-.153.189-.231.282l4.656-.022c2.285 0 4.144-1.86 4.144-4.13l-.075-4.593c-.06.053-.129.095-.186.152zM-2.23 21.354h-4.543v4.577a3.934 3.934 0 0 1-3.93 3.93h-4.864a.85.85 0 1 1 0-1.7h4.864a2.233 2.233 0 0 0 2.23-2.23v-4.577h-13.678a3.936 3.936 0 0 1-3.931-3.931V0a3.935 3.935 0 0 1 3.931-3.93h13.678v-4.366a2.233 2.233 0 0 0-2.23-2.23H-31.771c-.36 0-.711.064-1.056.156l.089 5.483a5.849 5.849 0 0 1-5.84 5.843l-5.521.026a4.097 4.097 0 0 0-.122.943v24.006c0 1.229 1 2.23 2.23 2.23h6.416a.85.85 0 0 1 0 1.7h-6.416a3.934 3.934 0 0 1-3.93-3.93V1.925c0-1.538.624-3.044 1.712-4.13l8.309-8.312a5.806 5.806 0 0 1 4.128-1.709H-10.703a3.934 3.934 0 0 1 3.93 3.93v4.366h4.543A3.934 3.934 0 0 1 1.699 0v17.423a3.934 3.934 0 0 1-3.929 3.931" style="fill:#0098da;fill-opacity:1;fill-rule:nonzero;stroke:none" transform="translate(46.926 15.841)"/><path d="m0 0-2.765-3.687-1.7 1.701a.855.855 0 1 1-1.209-1.209l2.398-2.398a.856.856 0 0 1 1.289.092l3.356 4.475A.855.855 0 0 1 0 0" style="fill:#0098da;fill-opacity:1;fill-rule:nonzero;stroke:none" transform="translate(32.085 31.267)"/><path d="M0 0h-6.074a.855.855 0 1 1 0-1.71H0A.855.855 0 1 1 0 0" style="fill:#0098da;fill-opacity:1;fill-rule:nonzero;stroke:none" transform="translate(42.709 29.371)"/><path d="m0 0-2.765-3.687-1.7 1.701a.855.855 0 1 1-1.209-1.209l2.398-2.398a.856.856 0 0 1 1.289.092l3.356 4.476A.855.855 0 0 1 0 0" style="fill:#0098da;fill-opacity:1;fill-rule:nonzero;stroke:none" transform="translate(32.085 23.112)"/><path d="M0 0h-6.074a.855.855 0 1 1 0-1.711H0A.855.855 0 1 1 0 0" style="fill:#0098da;fill-opacity:1;fill-rule:nonzero;stroke:none" transform="translate(42.709 21.216)"/><path d="M0 0h-3.539a.855.855 0 0 1 0-1.711H0A.855.855 0 0 1 0 0" style="fill:#0098da;fill-opacity:1;fill-rule:nonzero;stroke:none" transform="translate(16.128 25.878)"/><path d="M0 0h8.421a.855.855 0 0 1 0 1.711H0A.855.855 0 0 1 0 0" style="fill:#0098da;fill-opacity:1;fill-rule:nonzero;stroke:none" transform="translate(7.707 19.904)"/><path d="M0 0h-8.421a.855.855 0 0 1 0-1.71H0A.855.855 0 0 1 0 0" style="fill:#0098da;fill-opacity:1;fill-rule:nonzero;stroke:none" transform="translate(16.128 30.2)"/><path d="M0 0h2.163a.855.855 0 0 1 0 1.711H0A.855.855 0 0 1 0 0" style="fill:#0098da;fill-opacity:1;fill-rule:nonzero;stroke:none" transform="translate(7.762 24.167)"/></g></svg>