<svg xmlns="http://www.w3.org/2000/svg" xml:space="preserve" width="66.667" height="66.667"><defs><clipPath clipPathUnits="userSpaceOnUse" id="a"><path d="M0 50h50V0H0Z"/></clipPath></defs><g clip-path="url(#a)" transform="matrix(1.33333 0 0 -1.33333 0 66.667)"><path d="M0 0a.855.855 0 0 0-.855.855v7.188c0 .473.383.855.855.855h10.117a.855.855 0 1 0 0-1.71H.855V.855A.855.855 0 0 0 0 0" style="fill:#ffffff;fill-opacity:1;fill-rule:nonzero;stroke:none" transform="translate(2.633 33.854)"/><path d="M0 0a.855.855 0 0 0-.855.855v6.333h-9.261a.855.855 0 1 0 0 1.71H0a.854.854 0 0 0 .855-.855V.855A.855.855 0 0 0 0 0" style="fill:#ffffff;fill-opacity:1;fill-rule:nonzero;stroke:none" transform="translate(47.685 33.854)"/><path d="M0 0h-.677C-4.235 0-7.13 2.733-7.13 6.094V22.58c0 3.359 2.895 6.093 6.453 6.093H0a.855.855 0 0 0 0-1.71h-.677c-2.615 0-4.743-1.966-4.743-4.383V6.094c0-2.417 2.128-4.383 4.743-4.383H0A.855.855 0 0 0 0 0" style="fill:#ffffff;fill-opacity:1;fill-rule:nonzero;stroke:none" transform="translate(7.817 .664)"/><path d="M0 0h-.677a.855.855 0 0 0 0 1.711H0c2.615 0 4.742 1.966 4.742 4.383V22.58c0 2.417-2.127 4.383-4.742 4.383h-.677a.855.855 0 0 0 0 1.71H0c3.558 0 6.453-2.734 6.453-6.093V6.094C6.453 2.733 3.558 0 0 0" style="fill:#ffffff;fill-opacity:1;fill-rule:nonzero;stroke:none" transform="translate(43.178 .664)"/><path d="M11.335 18.494h5.718v3.681h-5.718zm6.569-1.699h-7.419a.85.85 0 0 0-.85.849v5.38c0 .47.381.85.85.85h7.419a.85.85 0 0 0 .85-.85v-5.38a.85.85 0 0 0-.85-.849M22.524 18.494h5.719v3.681h-5.719zm6.569-1.699h-7.419a.85.85 0 0 0-.85.849v5.38c0 .47.381.85.85.85h7.419c.47 0 .85-.38.85-.85v-5.38a.85.85 0 0 0-.85-.849M33.713 18.494h5.719v3.681h-5.719zm6.568-1.699h-7.417a.85.85 0 0 0-.85.849v5.38c0 .47.38.85.85.85h7.417c.47 0 .85-.38.85-.85v-5.38a.85.85 0 0 0-.85-.849M11.335 7.826h5.718v3.682h-5.718zm6.569-1.699h-7.419a.85.85 0 0 0-.85.849v5.381c0 .47.381.85.85.85h7.419a.85.85 0 0 0 .85-.85V6.976a.85.85 0 0 0-.85-.849M22.524 7.826h5.719v3.682h-5.719zm6.569-1.699h-7.419a.85.85 0 0 0-.85.849v5.381c0 .47.381.85.85.85h7.419c.47 0 .85-.38.85-.85V6.976a.85.85 0 0 0-.85-.849M33.713 7.826h5.719v3.682h-5.719zm6.568-1.699h-7.417a.85.85 0 0 0-.85.849v5.381c0 .47.38.85.85.85h7.417c.47 0 .85-.38.85-.85V6.976a.85.85 0 0 0-.85-.849" style="fill:#ffffff;fill-opacity:1;fill-rule:nonzero;stroke:none"/><path d="M0 0a6.95 6.95 0 0 1-6.943-6.943A6.951 6.951 0 0 1 0-13.886c3.829 0 6.944 3.115 6.944 6.943A6.95 6.95 0 0 1 0 0m0-15.586c-4.766 0-8.643 3.878-8.643 8.643C-8.643-2.177-4.766 1.7 0 1.7c4.766 0 8.643-3.877 8.643-8.643 0-4.765-3.877-8.643-8.643-8.643" style="fill:#ffffff;fill-opacity:1;fill-rule:nonzero;stroke:none" transform="translate(25.159 47.496)"/><path d="M0 0a.85.85 0 0 0-.601 1.451l3.454 3.454a.85.85 0 0 0 1.202 0l3.253-3.254A.85.85 0 0 0 6.105.449L3.454 3.102.601.249A.846.846 0 0 0 0 0" style="fill:#ffffff;fill-opacity:1;fill-rule:nonzero;stroke:none" transform="translate(21.805 39.83)"/><path d="M0 0a.85.85 0 0 0-.85.85v7.16a.85.85 0 0 0 1.7 0V.85A.85.85 0 0 0 0 0" style="fill:#ffffff;fill-opacity:1;fill-rule:nonzero;stroke:none" transform="translate(25.259 36.123)"/></g></svg>