<svg width="66.667" height="66.667" xmlns="http://www.w3.org/2000/svg"><defs><clipPath clipPathUnits="userSpaceOnUse" id="a"><path d="M0 50h50V0H0Z"/></clipPath></defs><g clip-path="url(#a)" transform="matrix(1.33333 0 0 -1.33333 0 66.667)"><path d="M0 0a.903.903 0 0 0-.901.9c.005.185.297.741.901 1.476.603-.735.894-1.29.9-1.475A.902.902 0 0 0 0 0m-8.422-.012c-.496 0-.9.406-.9.901.006.184.297.74.9 1.475.603-.734.894-1.29.901-1.474a.904.904 0 0 0-.901-.902m8.99 4.269a.846.846 0 0 1-.616.266h-.005l-3.217-.017v1.796a.855.855 0 1 1-1.709 0V4.496l-3.227-.017c-.06 0-.111-.023-.168-.035-.017.001-.031.01-.048.01a1.1 1.1 0 0 1-.707-.307c-.869-.922-1.903-2.236-1.903-3.257a2.613 2.613 0 0 1 2.61-2.611c1.44 0 2.61 1.171 2.61 2.611 0 .578-.334 1.248-.779 1.888l1.612.009v-8.224h-1.178a.854.854 0 1 1 0-1.709h4.065a.854.854 0 1 1 0 1.709H-3.27v8.233l1.449.009c-.45-.646-.79-1.322-.79-1.904A2.614 2.614 0 0 1 0-1.709 2.613 2.613 0 0 1 2.61.901c0 1.022-1.035 2.335-1.903 3.258-.039.042-.093.064-.139.098" style="fill:#ffffff;fill-opacity:1;fill-rule:nonzero;stroke:none" transform="translate(42.451 17.37)"/><path d="M0 0a.855.855 0 1 1 1.21 1.209l-3.033 3.033c-.005.005-.011.007-.016.011a.852.852 0 0 1-.589.24.841.841 0 0 1-.589-.24c-.004-.004-.011-.006-.015-.011l-3.22-3.22a.855.855 0 1 1 1.21-1.209l1.759 1.76v-4.611a.855.855 0 0 1 1.711 0v4.611z" style="fill:#ffffff;fill-opacity:1;fill-rule:nonzero;stroke:none" transform="translate(14.36 41.145)"/><path d="M0 0c0-1.155-.94-2.096-2.095-2.096h-13.679A2.099 2.099 0 0 0-17.87 0v15.074c0 1.155.94 2.094 2.096 2.094h13.679A2.097 2.097 0 0 0 0 15.074Zm-5.438-3.953v-1.928a2.1 2.1 0 0 0-2.095-2.096h-29.969a2.098 2.098 0 0 0-2.095 2.096v29.03h6.151c.432 0 .857-.117 1.228-.338l5.279-3.15c.25-.187.56-.29.871-.29a1.449 1.449 0 0 1 1.455 1.456v13.918h7.218v-6.319a5.645 5.645 0 0 1 5.638-5.638h6.319v-3.909h-10.336a3.81 3.81 0 0 1-3.806-3.805V0a3.809 3.809 0 0 1 3.806-3.805h10.366c-.009-.05-.03-.095-.03-.148M-44.35 26.955v9.25c0 1.155.94 2.095 2.096 2.095h13.836c1.155 0 2.094-.94 2.094-2.095V21.28l-5.016 2.998a4.103 4.103 0 0 1-2.106.582h-8.808c-1.156 0-2.096.94-2.096 2.095m37.76-1.319c.334-.333.589-.721.781-1.137h-5.948a3.933 3.933 0 0 0-3.929 3.927v5.949a3.913 3.913 0 0 0 1.139-.779zm4.495-6.757h-1.634v3.978c0 .254-.04.499-.073.747.001.014.008.025.008.04 0 .041-.018.075-.022.114a5.595 5.595 0 0 1-1.563 3.088l-7.96 7.959a5.57 5.57 0 0 1-3.094 1.563c-.036.005-.069.022-.107.022-.014 0-.024-.007-.037-.008-.247.033-.493.074-.747.074h-7.314c-.132 1.98-1.768 3.555-3.78 3.555h-13.836a3.81 3.81 0 0 1-3.806-3.806v-9.25a3.81 3.81 0 0 1 3.806-3.806h.946v-29.03a3.81 3.81 0 0 1 3.806-3.806h29.969a3.81 3.81 0 0 1 3.804 3.806v1.928c0 .053-.02.098-.03.148h1.664A3.809 3.809 0 0 1 1.71 0v15.074a3.81 3.81 0 0 1-3.805 3.805" style="fill:#ffffff;fill-opacity:1;fill-rule:nonzero;stroke:none" transform="translate(47.175 9.838)"/><path d="M0 0h-11.617a.856.856 0 0 1 0-1.71H0A.855.855 0 1 1 0 0" style="fill:#ffffff;fill-opacity:1;fill-rule:nonzero;stroke:none" transform="translate(23.079 15.328)"/><path d="M0 0h-11.617a.855.855 0 0 1 0-1.709H0A.855.855 0 1 1 0 0" style="fill:#ffffff;fill-opacity:1;fill-rule:nonzero;stroke:none" transform="translate(23.079 9.651)"/><path d="M0 0h-11.617a.856.856 0 0 1 0-1.71H0A.855.855 0 0 1 0 0" style="fill:#ffffff;fill-opacity:1;fill-rule:nonzero;stroke:none" transform="translate(23.079 21.004)"/><path d="M0 0h11.617a.855.855 0 0 1 0 1.71H0A.855.855 0 1 1 0 0" style="fill:#ffffff;fill-opacity:1;fill-rule:nonzero;stroke:none" transform="translate(11.29 24.969)"/></g></svg>