<svg xmlns="http://www.w3.org/2000/svg" width="66.667" height="66.667"><defs><clipPath id="a" clipPathUnits="userSpaceOnUse"><path d="M0 50h50V0H0Z"/></clipPath></defs><g clip-path="url(#a)" transform="matrix(1.33333 0 0 -1.33333 0 66.667)"><path d="M0 0c-3.5 0-6.35 2.85-6.35 6.35 0 3.51 2.85 6.36 6.35 6.36 3.5 0 6.35-2.85 6.35-6.36C6.35 2.85 3.5 0 0 0m0 14.44c-4.46 0-8.09-3.63-8.09-8.09 0-4.45 3.63-8.08 8.09-8.08S8.08 1.9 8.08 6.35c0 4.46-3.62 8.09-8.08 8.09" style="fill:#0098da;fill-opacity:1;fill-rule:nonzero;stroke:none" transform="translate(23.83 35.56)"/><path d="m0 0-.061-.06v.01c.021.02.04.04.061.05" style="fill:#0098da;fill-opacity:1;fill-rule:nonzero;stroke:none" transform="translate(23.28 46.04)"/><path d="M0 0a.856.856 0 0 0-.61-.25c-.22 0-.441.08-.611.25L-2.7 1.48v-4.82a.87.87 0 0 0-1.74 0v4.82L-5.92 0a.856.856 0 0 0-.61-.25c-.22 0-.44.08-.611.25a.87.87 0 0 0 0 1.23l2.96 2.95.061.06c.019.02.039.04.059.05.051.04.101.06.151.08.04.02.079.03.119.04.261.07.541.02.75-.16.02-.01.031-.01.041-.03.02-.01.03-.02.04-.04l.06-.06L0 1.23A.87.87 0 0 0 0 0" style="fill:#0098da;fill-opacity:1;fill-rule:nonzero;stroke:none" transform="translate(27.4 41.8)"/><path d="M0 0v-.01c-.01.02-.02.03-.04.04C-.02.02-.01.01 0 0" style="fill:#0098da;fill-opacity:1;fill-rule:nonzero;stroke:none" transform="translate(24.44 45.99)"/><path d="m0 0-.061-.06v.01c.021.02.04.04.061.05" style="fill:#0098da;fill-opacity:1;fill-rule:nonzero;stroke:none" transform="translate(23.28 46.04)"/><path d="M0 0v-.01c-.01.02-.02.03-.04.04C-.02.02-.01.01 0 0" style="fill:#0098da;fill-opacity:1;fill-rule:nonzero;stroke:none" transform="translate(24.44 45.99)"/><path d="M0 0h-18.179a4.21 4.21 0 0 0-4.205 4.205v34.396a4.21 4.21 0 0 0 4.205 4.205h6.266a.868.868 0 1 0 0-1.735h-6.266a2.473 2.473 0 0 1-2.47-2.47V4.205a2.474 2.474 0 0 1 2.47-2.472H0A.866.866 0 1 0 0 0" style="fill:#0098da;fill-opacity:1;fill-rule:nonzero;stroke:none" transform="translate(23.83)"/><path d="M0 0a.866.866 0 0 0-.866.867v15.82c0 1.362-1.11 2.47-2.472 2.47h-6.85a.867.867 0 1 0 0 1.735h6.85a4.21 4.21 0 0 0 4.205-4.205V.867A.867.867 0 0 0 0 0" style="fill:#0098da;fill-opacity:1;fill-rule:nonzero;stroke:none" transform="translate(45.346 21.914)"/><path d="M0 0c0-.36-.32-.66-.71-.66h-2.2c-.57 0-.9.26-.9.71v4.59c0 .339.31.71.76.71h2.26c.38 0 .71-.3.71-.66 0-.35-.32-.63-.71-.63h-1.6V3h1.44c.38 0 .7-.29.7-.64 0-.36-.31-.65-.7-.65h-1.44V.64h1.68C-.32.64 0 .35 0 0" style="fill:#0098da;fill-opacity:1;fill-rule:nonzero;stroke:none" transform="translate(11.87 24.78)"/><path d="M0 0v-4.82c0-.39-.32-.68-.74-.68-.27 0-.54.14-.67.35L-3.1-2.26v-2.58c0-.36-.33-.66-.72-.66-.39 0-.7.3-.7.66v4.81c0 .39.31.68.73.68.27 0 .53-.14.68-.35.47-.81.81-1.4 1.19-2.06.16-.27.32-.55.5-.85V0c0 .35.33.65.72.65.38 0 .7-.29.7-.65" style="fill:#0098da;fill-opacity:1;fill-rule:nonzero;stroke:none" transform="translate(16.6 29.55)"/><path d="M0 0v-1.8c0-.84-1.05-1.22-2.02-1.22-1.43 0-2.24.82-2.24 2.26V.86c0 1.44.81 2.26 2.24 2.26.9 0 1.85-.4 1.85-1 0-.34-.3-.61-.67-.61-.2 0-.3.06-.39.11l-.12.08c-.21.12-.4.17-.63.17-.61 0-.87-.3-.87-1.01V-.76c0-.71.26-1.01.87-1.01.25 0 .43.06.57.12v1.07h-.31c-.35 0-.65.29-.65.64 0 .35.3.64.65.64h.91C-.31.7 0 .43 0 0" style="fill:#0098da;fill-opacity:1;fill-rule:nonzero;stroke:none" transform="translate(21.18 27.08)"/><path d="M0 0a.443.443 0 0 0-.061-.16l-2.12-5.49a.685.685 0 0 0-.65-.43c-.039 0-.079 0-.119.01a.752.752 0 0 0-.51.34c-.07.13-.09.28-.04.41L-1.331.3c.121.3.431.47.761.41C-.23.66.029.33 0 0" style="fill:#0098da;fill-opacity:1;fill-rule:nonzero;stroke:none" transform="translate(26.65 29.84)"/><path d="M0 0v-4.86c0-.35-.32-.65-.71-.65-.38 0-.71.3-.71.65V0c0 .35.33.64.71.64C-.32.64 0 .35 0 0" style="fill:#0098da;fill-opacity:1;fill-rule:nonzero;stroke:none" transform="translate(30.2 29.56)"/><path d="M0 0v-4.82c0-.39-.31-.68-.739-.68-.261 0-.54.14-.66.35L-3.1-2.26v-2.58c0-.36-.33-.66-.719-.66-.38 0-.701.3-.701.66v4.81c0 .39.321.68.741.68.259 0 .529-.14.67-.35.469-.81.82-1.4 1.2-2.06.159-.27.319-.55.5-.85V0c0 .35.319.65.71.65C-.31.65 0 .36 0 0" style="fill:#0098da;fill-opacity:1;fill-rule:nonzero;stroke:none" transform="translate(35.27 29.55)"/><path d="M0 0h-.439v3.43H0c.73 0 1.101-.33 1.101-.98V1.04C1.101.35.73 0 0 0m-.14 4.72h-.94c-.42 0-.779-.33-.779-.72V-.58c0-.39.359-.72.779-.72h.94c2.401 0 2.651 1.64 2.651 2.34v1.41c0 .68-.25 2.27-2.651 2.27" style="fill:#0098da;fill-opacity:1;fill-rule:nonzero;stroke:none" transform="translate(37.68 25.42)"/><path d="m0 0-.79-.79c-.12-.12-.25-.101-.34-.021l-6.95 7.38c.22.25.47.5.72.721L0 .359C.1.26.1.1 0 0m-9.85 7.189c-.06-.059-.1-.109-.14-.169-.66-.78-1.23-1.63-1.73-2.53-.04-.02-.08-.02-.11-.02-.04 0-.11.009-.17.07l-3 3c-.08.069-.09.189-.04.29 2.68 1.52 4.9 3.739 6.42 6.43.1.05.22.03.3-.05l2.99-2.99c.08-.08.09-.2.05-.29-.89-.491-1.73-1.06-2.5-1.71-.06-.04-.13-.09-.19-.151a15.04 15.04 0 0 1-1.88-1.88M1.21 1.6l-7.22 6.799c.54.401 1.1.761 1.7 1.08l.21.161c.77.77.77 2.03 0 2.799l-3 3c-.77.771-2.03.771-2.8 0l-.15-.199a15.408 15.408 0 0 0-5.98-5.98l-.2-.14c-.77-.78-.77-2.04.01-2.81l2.99-2.991c.37-.38.87-.59 1.4-.59.53 0 1.03.21 1.41.59l.15.201c.32.6.68 1.16 1.08 1.7l6.82-7.241a1.992 1.992 0 0 1 2.81 0l.79.791C2-.45 2 .81 1.21 1.6" style="fill:#0098da;fill-opacity:1;fill-rule:nonzero;stroke:none" transform="translate(46.75 5.2)"/><path d="M0 0h-7.229v.729c0 .22.189.411.41.411H-.42A.42.42 0 0 0 0 .729Zm2.141 0H1.73v.729c0 1.18-.959 2.151-2.15 2.151h-6.399A2.152 2.152 0 0 1-8.96.729V0h-.42a.854.854 0 0 1-.859-.86c0-.481.38-.87.859-.87H2.141a.87.87 0 0 1 .87.87c0 .479-.391.86-.87.86" style="fill:#0098da;fill-opacity:1;fill-rule:nonzero;stroke:none" transform="translate(38.1 1.73)"/><path d="M0 0h-19.244a.867.867 0 1 0 0 1.733H0A.866.866 0 1 0 0 0" style="fill:#0098da;fill-opacity:1;fill-rule:nonzero;stroke:none" transform="translate(27.926 17.816)"/><path d="M0 0h-14.799a.867.867 0 1 0 0 1.733H0A.866.866 0 1 0 0 0" style="fill:#0098da;fill-opacity:1;fill-rule:nonzero;stroke:none" transform="translate(23.48 12.318)"/><path d="M0 0h-14.799a.867.867 0 0 0 0 1.734H0A.866.866 0 1 0 0 0" style="fill:#0098da;fill-opacity:1;fill-rule:nonzero;stroke:none" transform="translate(23.48 6.728)"/></g></svg>