<svg xmlns="http://www.w3.org/2000/svg" width="66.667" height="66.667"><defs><clipPath id="a" clipPathUnits="userSpaceOnUse"><path d="M0 50h50V0H0Z"/></clipPath></defs><g clip-path="url(#a)" transform="matrix(1.33333 0 0 -1.33333 0 66.667)"><path d="M0 0a.81.81 0 0 1-.81-.81c0-.729-.592-1.322-1.321-1.322h-30.601A2.144 2.144 0 0 0-34.874.01v26.987a.811.811 0 0 1-.81.811.811.811 0 0 1-.81-.811V.01a3.766 3.766 0 0 1 3.762-3.761h30.601A2.944 2.944 0 0 1 .81-.81.81.81 0 0 1 0 0" style="fill:#0098da;fill-opacity:1;fill-rule:nonzero;stroke:none" transform="translate(42.1 4.07)"/><path d="M0 0a.81.81 0 1 1 1.146 1.146L-1.729 4.02c-.003.003-.007.003-.01.006a.81.81 0 0 1-1.127 0c-.003-.003-.007-.003-.009-.006L-5.927.969A.81.81 0 1 1-4.781-.177l1.669 1.669V-2.88a.81.81 0 1 1 1.62 0v4.372z" style="fill:#0098da;fill-opacity:1;fill-rule:nonzero;stroke:none" transform="translate(14.387 41.43)"/><path d="M0 0c.351-.351.621-.76.815-1.201h-5.986a3.953 3.953 0 0 0-3.948 3.949v5.986c.441-.194.85-.464 1.201-.815Zm-15.537 9.075h4.799V2.748a5.574 5.574 0 0 1 5.567-5.569h6.328v-2.845a.81.81 0 1 1 1.619 0v2.873a5.537 5.537 0 0 1-1.63 3.939l-7.918 7.919a5.538 5.538 0 0 1-3.937 1.63H-15.537a.81.81 0 0 1 0-1.62" style="fill:#0098da;fill-opacity:1;fill-rule:nonzero;stroke:none" transform="translate(40.136 35.449)"/><path d="M0 0v8.769c0 1.095.891 1.986 1.986 1.986h13.117a1.988 1.988 0 0 0 1.986-1.986v-14.15l-4.756 2.843a3.887 3.887 0 0 1-1.996.552H1.986A1.988 1.988 0 0 0 0 0m11.501-3.928 5.006-2.988a1.374 1.374 0 0 1 1.439-.127c.471.234.763.707.763 1.233V8.769a3.61 3.61 0 0 1-3.606 3.606H1.986A3.61 3.61 0 0 1-1.62 8.769V0a3.61 3.61 0 0 1 3.606-3.607h8.351c.41 0 .812-.111 1.164-.321" style="fill:#0098da;fill-opacity:1;fill-rule:nonzero;stroke:none" transform="translate(3.452 37.305)"/><path d="M0 0h-7.663a.81.81 0 1 1 0-1.62H0A.81.81 0 1 1 0 0" style="fill:#0098da;fill-opacity:1;fill-rule:nonzero;stroke:none" transform="translate(25.014 14.733)"/><path d="M0 0h3.346a.81.81 0 0 1 0 1.62H0A.81.81 0 1 1 0 0" style="fill:#0098da;fill-opacity:1;fill-rule:nonzero;stroke:none" transform="translate(11.498 13.113)"/><path d="M0 0h13.516a.81.81 0 1 1 0 1.619H0A.81.81 0 1 1 0 0" style="fill:#0098da;fill-opacity:1;fill-rule:nonzero;stroke:none" transform="translate(11.498 7.95)"/><path d="M0 0h-13.516a.81.81 0 0 1 0-1.62H0A.81.81 0 1 1 0 0" style="fill:#0098da;fill-opacity:1;fill-rule:nonzero;stroke:none" transform="translate(25.014 19.898)"/><path d="M0 0a.81.81 0 1 1 0 1.62h-3.527a.81.81 0 0 1 0-1.62z" style="fill:#0098da;fill-opacity:1;fill-rule:nonzero;stroke:none" transform="translate(24.814 23.442)"/><path d="M0 0h7.546a.81.81 0 1 1 0 1.62H0A.81.81 0 0 1 0 0" style="fill:#0098da;fill-opacity:1;fill-rule:nonzero;stroke:none" transform="translate(11.298 23.442)"/><path d="M0 0a2.129 2.129 0 0 0-2.126-2.126h-10.991A2.129 2.129 0 0 0-15.243 0v13.72c0 1.172.954 2.124 2.126 2.124h10.991A2.127 2.127 0 0 0 0 13.72Zm-2.126 17.465h-10.991a3.749 3.749 0 0 1-3.745-3.745V0a3.749 3.749 0 0 1 3.745-3.745h10.991A3.75 3.75 0 0 1 1.619 0v13.72a3.75 3.75 0 0 1-3.745 3.745" style="fill:#0098da;fill-opacity:1;fill-rule:nonzero;stroke:none" transform="translate(46.55 9.646)"/><path d="M0 0h-3.633a.809.809 0 1 1 0-1.619H0A.81.81 0 1 1 0 0" style="fill:#0098da;fill-opacity:1;fill-rule:nonzero;stroke:none" transform="translate(44.074 13.28)"/><path d="M0 0h-3.633a.808.808 0 1 1 0-1.619H0A.81.81 0 1 1 0 0" style="fill:#0098da;fill-opacity:1;fill-rule:nonzero;stroke:none" transform="translate(44.074 20.14)"/><path d="m0 0-1.981-2.642-1.158 1.156a.81.81 0 0 1-1.144-1.147l1.816-1.815a.811.811 0 0 1 1.22.088L1.296-.972A.81.81 0 0 1 0 0" style="fill:#0098da;fill-opacity:1;fill-rule:nonzero;stroke:none" transform="translate(37.493 15.134)"/><path d="m0 0-1.981-2.643-1.158 1.156a.809.809 0 1 1-1.144-1.145l1.816-1.816a.808.808 0 0 1 1.22.087L1.296-.972A.81.81 0 0 1 0 0" style="fill:#0098da;fill-opacity:1;fill-rule:nonzero;stroke:none" transform="translate(37.493 22.237)"/></g></svg>