<svg xmlns="http://www.w3.org/2000/svg" xml:space="preserve" width="66.667" height="66.667"><defs><clipPath clipPathUnits="userSpaceOnUse" id="a"><path d="M0 50h50V0H0Z"/></clipPath></defs><g clip-path="url(#a)" transform="matrix(1.33333 0 0 -1.33333 0 66.667)"><path d="M0 0a.85.85 0 0 0-.85.85v10.651a.85.85 0 1 0 1.7 0V.85A.85.85 0 0 0 0 0" style="fill:#ffffff;fill-opacity:1;fill-rule:nonzero;stroke:none" transform="translate(5.216 28.737)"/><path d="M0 0a.85.85 0 0 0-.85.85v11.115a.85.85 0 0 0 1.7 0V.85A.85.85 0 0 0 0 0" style="fill:#ffffff;fill-opacity:1;fill-rule:nonzero;stroke:none" transform="translate(5.216 9.045)"/><path d="M0 0a.85.85 0 1 0 0 1.699l10.463.005h.001a.85.85 0 0 0 0-1.699z" style="fill:#ffffff;fill-opacity:1;fill-rule:nonzero;stroke:none" transform="translate(9.841 4.465)"/><path d="M0 0h-10.48a.85.85 0 1 0 0 1.699H0A.85.85 0 1 0 0 0" style="fill:#ffffff;fill-opacity:1;fill-rule:nonzero;stroke:none" transform="translate(39.467 4.47)"/><path d="M0 0a.85.85 0 0 0-.85.85v10.919a.85.85 0 0 0 1.7 0V.85A.85.85 0 0 0 0 0" style="fill:#ffffff;fill-opacity:1;fill-rule:nonzero;stroke:none" transform="translate(45.004 9.383)"/><path d="M0 0a.85.85 0 0 0-.85.85v10.395a.85.85 0 1 0 1.7 0V.85A.85.85 0 0 0 0 0" style="fill:#ffffff;fill-opacity:1;fill-rule:nonzero;stroke:none" transform="translate(45.004 28.898)"/><path d="M0 0h-10.554a.85.85 0 0 0 0 1.7H0A.85.85 0 1 0 0 0" style="fill:#ffffff;fill-opacity:1;fill-rule:nonzero;stroke:none" transform="translate(39.726 44.257)"/><path d="M0 0h-10.401a.85.85 0 1 0 0 1.7H0A.85.85 0 0 0 0 0" style="fill:#ffffff;fill-opacity:1;fill-rule:nonzero;stroke:none" transform="translate(20.257 44.257)"/><path d="M0 0a.848.848 0 0 0-.6.247l-9.771 9.729a.85.85 0 1 0 1.199 1.205L.6 1.452A.849.849 0 0 0 0 0" style="fill:#ffffff;fill-opacity:1;fill-rule:nonzero;stroke:none" transform="translate(41.667 8.002)"/><path d="M0 0a.845.845 0 0 0-.6.248l-8.834 8.795a.851.851 0 0 0 1.199 1.206L.6 1.453A.851.851 0 0 0 0 0" style="fill:#ffffff;fill-opacity:1;fill-rule:nonzero;stroke:none" transform="translate(17.627 31.936)"/><path d="M0 0a.848.848 0 0 0-.602 1.449l9.242 9.272a.846.846 0 0 0 1.202.002.849.849 0 0 0 .002-1.202L.602.25A.846.846 0 0 0 0 0" style="fill:#ffffff;fill-opacity:1;fill-rule:nonzero;stroke:none" transform="translate(8.753 8.002)"/><path d="M0 0a.849.849 0 0 0-.602 1.45l8.997 9.025a.85.85 0 1 0 1.203-1.201L.602.25A.85.85 0 0 0 0 0" style="fill:#ffffff;fill-opacity:1;fill-rule:nonzero;stroke:none" transform="translate(32.232 31.556)"/><path d="M0 0h-5.207a.85.85 0 1 0 0 1.7H0A.85.85 0 1 0 0 0" style="fill:#ffffff;fill-opacity:1;fill-rule:nonzero;stroke:none" transform="translate(39.795 24.15)"/><path d="M0 0h-3.882a.85.85 0 1 0 0 1.7H0A.85.85 0 0 0 0 0" style="fill:#ffffff;fill-opacity:1;fill-rule:nonzero;stroke:none" transform="translate(14.523 24.15)"/><path d="M0 0a4.953 4.953 0 0 0-4.86 5.879c.089.46.535.762.995.675a.852.852 0 0 0 .675-.995A3.252 3.252 0 0 1 .606 1.756.85.85 0 0 0 .921.085 5.066 5.066 0 0 0 0 0" style="fill:#ffffff;fill-opacity:1;fill-rule:nonzero;stroke:none" transform="translate(44.242 39.388)"/><path d="M0 0a.85.85 0 0 0-.156 1.686 3.247 3.247 0 0 1-.607 6.438 3.248 3.248 0 0 1-3.19-2.635.85.85 0 1 0-1.67.318 4.95 4.95 0 0 0 4.86 4.018 4.953 4.953 0 0 0 4.948-4.948A4.95 4.95 0 0 0 .158.015.845.845 0 0 0 0 0" style="fill:#ffffff;fill-opacity:1;fill-rule:nonzero;stroke:none" transform="translate(45.005 39.459)"/><path d="M0 0a3.252 3.252 0 0 1-3.248-3.248A3.252 3.252 0 0 1 0-6.495a3.251 3.251 0 0 1 3.248 3.247A3.252 3.252 0 0 1 0 0m0-8.195a4.953 4.953 0 0 0-4.948 4.947A4.954 4.954 0 0 0 0 1.7a4.954 4.954 0 0 0 4.948-4.948A4.953 4.953 0 0 0 0-8.195" style="fill:#ffffff;fill-opacity:1;fill-rule:nonzero;stroke:none" transform="translate(24.642 47.584)"/><path d="M0 0a3.252 3.252 0 0 1-3.248-3.248A3.252 3.252 0 0 1 0-6.496a3.252 3.252 0 0 1 3.248 3.248A3.252 3.252 0 0 1 0 0m0-8.195a4.953 4.953 0 0 0-4.948 4.947A4.953 4.953 0 0 0 0 1.699a4.953 4.953 0 0 0 4.948-4.947A4.953 4.953 0 0 0 0-8.195" style="fill:#ffffff;fill-opacity:1;fill-rule:nonzero;stroke:none" transform="translate(24.642 8.912)"/><path d="M0 0a3.252 3.252 0 0 1-3.248-3.248A3.251 3.251 0 0 1 0-6.495a3.251 3.251 0 0 1 3.248 3.247A3.252 3.252 0 0 1 0 0m0-8.195a4.953 4.953 0 0 0-4.948 4.947A4.954 4.954 0 0 0 0 1.7a4.953 4.953 0 0 0 4.948-4.948A4.953 4.953 0 0 0 0-8.195" style="fill:#ffffff;fill-opacity:1;fill-rule:nonzero;stroke:none" transform="translate(5.758 47.584)"/><path d="M0 0a3.252 3.252 0 0 1-3.248-3.248A3.252 3.252 0 0 1 0-6.496a3.252 3.252 0 0 1 3.248 3.248A3.252 3.252 0 0 1 0 0m0-8.195a4.953 4.953 0 0 0-4.948 4.947A4.954 4.954 0 0 0 0 1.7a4.953 4.953 0 0 0 4.948-4.948A4.953 4.953 0 0 0 0-8.195" style="fill:#ffffff;fill-opacity:1;fill-rule:nonzero;stroke:none" transform="translate(5.758 28.497)"/><path d="M0 0a3.252 3.252 0 0 1-3.248-3.248A3.252 3.252 0 0 1 0-6.496a3.252 3.252 0 0 1 3.248 3.248A3.252 3.252 0 0 1 0 0m0-8.195a4.952 4.952 0 0 0-4.947 4.947A4.953 4.953 0 0 0 0 1.7a4.953 4.953 0 0 0 4.947-4.948A4.952 4.952 0 0 0 0-8.195" style="fill:#ffffff;fill-opacity:1;fill-rule:nonzero;stroke:none" transform="translate(44.242 28.497)"/><path d="M0 0a.85.85 0 0 0-.846.777 4.952 4.952 0 0 0 5.847 5.284.85.85 0 1 0-.311-1.672A3.252 3.252 0 0 1 .848.922.85.85 0 0 0 0 0" style="fill:#ffffff;fill-opacity:1;fill-rule:nonzero;stroke:none" transform="translate(40.158 4.467)"/><path d="M0 0c-2.552 0-4.718 1.989-4.93 4.528a.85.85 0 0 0 .776.918.84.84 0 0 0 .918-.775A3.265 3.265 0 0 1 0 1.699 3.249 3.249 0 0 1 .604 8.14a.85.85 0 0 0-.677.992c.086.461.53.771.992.678A4.95 4.95 0 0 0 0 0" style="fill:#ffffff;fill-opacity:1;fill-rule:nonzero;stroke:none" transform="translate(44.242 .717)"/><path d="M0 0a3.252 3.252 0 0 1-3.248-3.248A3.252 3.252 0 0 1 0-6.496a3.265 3.265 0 0 1 3.236 2.97v.001A3.252 3.252 0 0 1 0 0m0-8.195a4.953 4.953 0 0 0-4.948 4.947A4.953 4.953 0 0 0 0 1.699 4.953 4.953 0 0 0 4.931-3.67C4.716-6.207 2.55-8.195 0-8.195" style="fill:#ffffff;fill-opacity:1;fill-rule:nonzero;stroke:none" transform="translate(5.758 8.912)"/><path d="M0 0a.85.85 0 0 0-.85.85v4.602a.85.85 0 1 0 1.7 0V.85A.85.85 0 0 0 0 0" style="fill:#ffffff;fill-opacity:1;fill-rule:nonzero;stroke:none" transform="translate(24.642 9.679)"/><path d="M0 0a.85.85 0 0 0-.85.85v4.086a.85.85 0 0 0 1.7 0V.85A.85.85 0 0 0 0 0" style="fill:#ffffff;fill-opacity:1;fill-rule:nonzero;stroke:none" transform="translate(24.642 34.963)"/><path d="M0 0a9.079 9.079 0 0 1-6.982-3.253C-10.201-7.1-9.69-12.847-5.845-16.066a9.095 9.095 0 0 1 5.834-2.121h.1a9.098 9.098 0 0 1 6.879 3.259 9.04 9.04 0 0 1 2.085 6.641A9.038 9.038 0 0 1 5.83-2.116 9.054 9.054 0 0 1 0 0m.099-19.036h.009zm-.11-.851c-2.528 0-4.983.892-6.925 2.518-4.564 3.82-5.17 10.641-1.35 15.206C-4.466 2.402 2.355 3.008 6.922-.812a10.727 10.727 0 0 0 3.824-7.324 10.726 10.726 0 0 0-2.475-7.884 10.79 10.79 0 0 0-8.163-3.866l-.119-.001" style="fill:#ffffff;fill-opacity:1;fill-rule:nonzero;stroke:none" transform="translate(24.65 34.61)"/><path d="M0 0a.85.85 0 0 0-.85.85v7.901a.85.85 0 0 0 1.7 0V.85A.85.85 0 0 0 0 0" style="fill:#ffffff;fill-opacity:1;fill-rule:nonzero;stroke:none" transform="translate(24.85 20.45)"/><path d="M0 0a.85.85 0 0 0-.601 1.451l2.963 2.963a.849.849 0 1 0 1.202-1.202L.601.249A.848.848 0 0 0 0 0" style="fill:#ffffff;fill-opacity:1;fill-rule:nonzero;stroke:none" transform="translate(21.887 25.387)"/><path d="M0 0a.845.845 0 0 0-.601.249l-2.963 2.963a.85.85 0 1 0 1.202 1.202L.601 1.451A.85.85 0 0 0 0 0" style="fill:#ffffff;fill-opacity:1;fill-rule:nonzero;stroke:none" transform="translate(27.814 25.387)"/></g></svg>