<svg xmlns="http://www.w3.org/2000/svg" width="66.667" height="66.667"><defs><clipPath id="a"><path d="M0 50h50V0H0z"/></clipPath></defs><g clip-path="url(#a)" transform="matrix(1.3333 0 0 -1.3333 0 66.667)"><path fill="#0098da" d="m37.91 34.855-6.958.197c-1.117 0-2.027 1.059-2.027 2.345l.127 7.123zm-6.982-1.502 8.417-.239c.127-.288.203-.604.203-.929v-8.558a.848.848 0 1 1 1.699 0v8.558a3.9 3.9 0 0 1-1.01 2.648L29.704 46.324c-.314.342-.69.61-1.096.802-.013.007-.025.017-.039.022-.437.201-.912.31-1.393.311H11.7a.851.851 0 1 1 0-1.701h15.475c.067 0 .132-.013.198-.021l-.148-8.325c0-2.239 1.671-4.059 3.703-4.059M37.864 1.877c-4.672 0-8.474 3.801-8.474 8.473s3.802 8.472 8.474 8.472 8.473-3.8 8.473-8.472-3.801-8.473-8.473-8.473m0 18.645c-5.609 0-10.173-4.563-10.173-10.172 0-5.61 4.564-10.172 10.173-10.172S48.036 4.74 48.036 10.35c0 5.609-4.563 10.172-10.172 10.172M22.547 20.31a.85.85 0 0 1 .851-.85h2.373a.85.85 0 0 1 0 1.7h-2.373a.85.85 0 0 1-.851-.85M10.133 19.461h10.136a.85.85 0 0 1 0 1.699H10.133a.85.85 0 0 1 0-1.699M10.133 13.707h12.105a.85.85 0 1 1 0 1.699H10.133a.85.85 0 0 1 0-1.699M21.394 9.65h-5.256a.849.849 0 1 1 0-1.699h5.256a.85.85 0 0 1 0 1.7M10.133 7.951h2.992a.85.85 0 0 1 0 1.7h-2.992a.85.85 0 1 1 0-1.7"/><path fill="#0098da" d="M35.001 12.658c.326 0 .591-.08.845-.24l.102-.059c.132-.08.203-.15.438-.15.386 0 .672.279.672.599 0 .58-1.029 1.069-2.108 1.069-1.78 0-2.595-1.039-2.595-2.617V9.281c0-1.58.815-2.619 2.595-2.619 1.079 0 2.108.49 2.108 1.068 0 .321-.286.6-.672.6-.235 0-.306-.068-.438-.149l-.102-.06a1.514 1.514 0 0 0-.845-.24c-.916 0-1.221.539-1.221 1.4v1.979c0 .859.305 1.398 1.221 1.398M42.423 13.877c-.387 0-.723-.299-.723-.648V9.451c-.936 1.608-1.455 2.518-2.361 4.057a.845.845 0 0 1-.692.369c-.427 0-.743-.289-.743-.68V7.301c0-.35.305-.649.703-.649.386 0 .722.299.722.649v3.738l2.362-4.037c.131-.211.417-.35.681-.35.447 0 .753.309.753.68v5.897c0 .349-.306.648-.702.648M25.802 3.43H8.112c-1.015 0-1.841.936-1.841 2.086l.025 41.406 1.031-1.031a.851.851 0 0 1 1.203 1.202l-2.482 2.48-.003.003a.849.849 0 0 1-1.199-.002L2.213 46.94a.85.85 0 1 1 1.202-1.202l1.181 1.18-.025-41.402c0-2.088 1.588-3.785 3.541-3.785h17.69a.85.85 0 1 1 0 1.699"/><path fill="#0098da" d="M12.041 29.039c.644 0 1.055-.344 1.055-.581 0-.236-.412-.581-1.093-.582a1.21 1.21 0 0 0-1.009.476.85.85 0 0 1-1.352-1.03 2.915 2.915 0 0 1 1.548-1.037v-.212a.85.85 0 0 1 1.701 0v.223c1.114.292 1.905 1.132 1.905 2.162 0 1.279-1.21 2.281-2.755 2.281-.646 0-1.058.345-1.058.582s.412.581 1.092.582c.396.013.77-.162 1.008-.474a.85.85 0 0 1 1.354 1.028 2.91 2.91 0 0 1-1.546 1.029v.22a.85.85 0 1 1-1.701 0v-.221c-1.114-.292-1.907-1.133-1.907-2.164 0-1.28 1.211-2.282 2.758-2.282M22.514 32.893a.85.85 0 0 1 0 1.7 4.66 4.66 0 0 1-4.572-3.808h-.297a.85.85 0 1 1 0-1.7h.297a4.66 4.66 0 0 1 4.572-3.808.85.85 0 0 1 0 1.7 2.953 2.953 0 0 0-2.819 2.108h1.976a.85.85 0 0 1 0 1.7h-1.976a2.953 2.953 0 0 0 2.819 2.108"/></g></svg>