<svg xmlns="http://www.w3.org/2000/svg" xml:space="preserve" width="66.667" height="66.667"><defs><clipPath clipPathUnits="userSpaceOnUse" id="a"><path d="M0 50h50V0H0Z"/></clipPath></defs><g clip-path="url(#a)" transform="matrix(1.33333 0 0 -1.33333 0 66.667)"><path d="M0 0a.85.85 0 0 0-.85.85v9.684c0 .845-.329 1.639-.926 2.237l-6.676 6.677a3.138 3.138 0 0 1-2.234.926h-14.695c-1.144 0-2.833-.952-2.833-1.807V14.78a.85.85 0 0 0-1.7 0v3.787c0 2.035 2.708 3.507 4.533 3.507h14.695A4.824 4.824 0 0 0-7.25 20.65l6.676-6.677A4.83 4.83 0 0 0 .85 10.534V.85A.85.85 0 0 0 0 0" style="fill:#0098da;fill-opacity:1;fill-rule:nonzero;stroke:none" transform="translate(40.907 26.924)"/><path d="M0 0h-5.963a4.867 4.867 0 0 0-4.862 4.862v5.964a.85.85 0 1 0 1.699 0V4.862A3.166 3.166 0 0 1-5.963 1.7H0A.85.85 0 1 0 0 0" style="fill:#0098da;fill-opacity:1;fill-rule:nonzero;stroke:none" transform="translate(40.853 37.268)"/><path d="M0 0h-26.298a3.544 3.544 0 0 0-3.54 3.54v33.908a3.74 3.74 0 0 0 3.737 3.737h17.177a5.17 5.17 0 0 0 3.681-1.525l7.257-7.258a5.181 5.181 0 0 0 1.525-3.686v-2.144a.85.85 0 1 0-1.699 0v2.144A3.49 3.49 0 0 1 .812 31.2l-7.257 7.257a3.48 3.48 0 0 1-2.479 1.028h-17.177a2.039 2.039 0 0 1-2.037-2.037V3.54c0-1.015.825-1.841 1.84-1.841H0c1.015 0 1.84.826 1.84 1.841a.85.85 0 1 0 1.699 0A3.543 3.543 0 0 0 0 0" style="fill:#0098da;fill-opacity:1;fill-rule:nonzero;stroke:none" transform="translate(31.44 .966)"/><path d="M0 0h-6.48a5.216 5.216 0 0 0-5.211 5.21v6.482a.85.85 0 1 0 1.7 0V5.21A3.514 3.514 0 0 1-6.48 1.7H0A.85.85 0 1 0 0 0" style="fill:#0098da;fill-opacity:1;fill-rule:nonzero;stroke:none" transform="translate(34.07 29.55)"/><path d="M0 0c-.831 0-1.507-.798-1.507-1.778v-11.889c0-.98.676-1.778 1.507-1.778h12.335c.831 0 1.508.798 1.508 1.778v11.889c0 .98-.677 1.778-1.508 1.778Zm12.335-17.145H0c-1.768 0-3.206 1.56-3.206 3.478v11.889C-3.206.14-1.768 1.699 0 1.699h12.335c1.769 0 3.207-1.559 3.207-3.477v-11.889c0-1.918-1.438-3.478-3.207-3.478" style="fill:#0098da;fill-opacity:1;fill-rule:nonzero;stroke:none" transform="translate(33.033 23.556)"/><path d="M0 0a.849.849 0 0 0-.601 1.451l3.448 3.447a.85.85 0 0 0 1.201-.001L7.295 1.65A.85.85 0 0 0 6.094.448L3.447 3.094.601.248A.85.85 0 0 0 0 0" style="fill:#0098da;fill-opacity:1;fill-rule:nonzero;stroke:none" transform="translate(35.791 15.546)"/><path d="M0 0a.85.85 0 0 0-.85.85v7.145a.85.85 0 1 0 1.7 0V.85A.85.85 0 0 0 0 0" style="fill:#0098da;fill-opacity:1;fill-rule:nonzero;stroke:none" transform="translate(39.239 11.846)"/><path d="M0 0a.102.102 0 0 1-.102-.102v-2.38c0-.057.046-.102.102-.102h2.38c.056 0 .102.045.102.102v2.38A.102.102 0 0 1 2.38 0Zm2.38-4.284H0c-.994 0-1.802.808-1.802 1.802v2.38C-1.802.892-.994 1.7 0 1.7h2.38c.994 0 1.802-.808 1.802-1.802v-2.38c0-.994-.808-1.802-1.802-1.802" style="fill:#0098da;fill-opacity:1;fill-rule:nonzero;stroke:none" transform="translate(16.75 28.757)"/><path d="M0 0a.102.102 0 0 1-.102-.102v-2.38c0-.056.046-.102.102-.102h2.38c.056 0 .102.046.102.102v2.38A.102.102 0 0 1 2.38 0Zm2.38-4.283H0c-.994 0-1.802.807-1.802 1.801v2.38c0 .994.808 1.801 1.802 1.801h2.38c.994 0 1.802-.807 1.802-1.801v-2.38c0-.994-.808-1.801-1.802-1.801" style="fill:#0098da;fill-opacity:1;fill-rule:nonzero;stroke:none" transform="translate(16.75 14.962)"/><path d="M0 0a.103.103 0 0 1-.102-.103v-2.379c0-.057.046-.103.102-.103h2.379c.057 0 .103.046.103.103v2.379A.103.103 0 0 1 2.379 0Zm2.379-4.284H0c-.994 0-1.802.807-1.802 1.802v2.379c0 .995.808 1.802 1.802 1.802h2.379c.994 0 1.803-.807 1.803-1.802v-2.379c0-.995-.809-1.802-1.803-1.802" style="fill:#0098da;fill-opacity:1;fill-rule:nonzero;stroke:none" transform="translate(11.758 22.1)"/><path d="M0 0a.103.103 0 0 1-.102-.103v-2.379c0-.057.046-.103.102-.103h2.38c.056 0 .102.046.102.103v2.379A.103.103 0 0 1 2.38 0Zm2.38-4.284H0c-.994 0-1.802.807-1.802 1.802v2.379c0 .995.808 1.802 1.802 1.802h2.38c.994 0 1.802-.807 1.802-1.802v-2.379c0-.995-.808-1.802-1.802-1.802" style="fill:#0098da;fill-opacity:1;fill-rule:nonzero;stroke:none" transform="translate(21.741 22.1)"/></g></svg>