<svg xmlns="http://www.w3.org/2000/svg" xml:space="preserve" width="66.667" height="66.667"><defs><clipPath clipPathUnits="userSpaceOnUse" id="a"><path d="M0 50h50V0H0Z"/></clipPath></defs><g clip-path="url(#a)" transform="matrix(1.33333 0 0 -1.33333 0 66.667)"><path d="M0 0h-13.961a4.161 4.161 0 0 0-4.157 4.156v26.825a4.162 4.162 0 0 0 4.157 4.157H0a4.161 4.161 0 0 0 4.156-4.157v-4.582a.85.85 0 0 0-1.7 0v4.582A2.459 2.459 0 0 1 0 33.438h-13.961a2.46 2.46 0 0 1-2.457-2.457V4.156a2.46 2.46 0 0 1 2.457-2.457H0a2.46 2.46 0 0 1 2.456 2.457v2.366a.85.85 0 1 0 1.7 0V4.156A4.16 4.16 0 0 0 0 0" style="fill:#ffffff;fill-opacity:1;fill-rule:nonzero;stroke:none" transform="translate(18.744 7.431)"/><path d="M0 0h-13.961a4.16 4.16 0 0 0-4.156 4.156v2.366a.85.85 0 1 0 1.699 0V4.156a2.46 2.46 0 0 1 2.457-2.457H0a2.46 2.46 0 0 1 2.457 2.457v26.825A2.46 2.46 0 0 1 0 33.438h-13.961a2.46 2.46 0 0 1-2.457-2.457v-4.582a.85.85 0 1 0-1.699 0v4.582a4.161 4.161 0 0 0 4.156 4.157H0a4.161 4.161 0 0 0 4.156-4.157V4.156A4.16 4.16 0 0 0 0 0" style="fill:#ffffff;fill-opacity:1;fill-rule:nonzero;stroke:none" transform="translate(45.217 7.431)"/><path d="M0 0a6.322 6.322 0 0 1-6.315-6.315A6.322 6.322 0 0 1 0-12.631a6.323 6.323 0 0 1 6.316 6.316A6.323 6.323 0 0 1 0 0m0-14.33c-4.419 0-8.015 3.595-8.015 8.015S-4.419 1.7 0 1.7c4.419 0 8.015-3.595 8.015-8.015S4.419-14.33 0-14.33" style="fill:#ffffff;fill-opacity:1;fill-rule:nonzero;stroke:none" transform="translate(25.129 30.843)"/><path d="M0 0a.85.85 0 0 0-.601 1.45l3.175 3.176a.85.85 0 0 0 1.202 0l2.992-2.99A.85.85 0 0 0 5.566.433l-2.391 2.39L.601.249A.846.846 0 0 0 0 0" style="fill:#ffffff;fill-opacity:1;fill-rule:nonzero;stroke:none" transform="translate(22.045 23.794)"/><path d="M0 0a.85.85 0 0 0-.85.85v6.584a.85.85 0 0 0 1.7 0V.85A.85.85 0 0 0 0 0" style="fill:#ffffff;fill-opacity:1;fill-rule:nonzero;stroke:none" transform="translate(25.22 20.386)"/><path d="M0 0h-8.889a.85.85 0 1 0 0 1.699H0A.85.85 0 1 0 0 0" style="fill:#ffffff;fill-opacity:1;fill-rule:nonzero;stroke:none" transform="translate(14.397 22.228)"/><path d="M0 0h-5.869a.85.85 0 1 0 0 1.699H0A.85.85 0 1 0 0 0" style="fill:#ffffff;fill-opacity:1;fill-rule:nonzero;stroke:none" transform="translate(14.397 16.63)"/><path d="M0 0h-.781a.85.85 0 1 0 0 1.699H0A.85.85 0 1 0 0 0" style="fill:#ffffff;fill-opacity:1;fill-rule:nonzero;stroke:none" transform="translate(6.29 16.63)"/><path d="M0 0h-8.889a.85.85 0 0 0 0 1.7H0A.85.85 0 0 0 0 0" style="fill:#ffffff;fill-opacity:1;fill-rule:nonzero;stroke:none" transform="translate(14.397 27.826)"/><path d="M0 0h-9.477a.85.85 0 0 0 0 1.699H0A.85.85 0 1 0 0 0" style="fill:#ffffff;fill-opacity:1;fill-rule:nonzero;stroke:none" transform="translate(44.552 22.228)"/><path d="M0 0h-6.578a.85.85 0 1 0 0 1.699H0A.85.85 0 1 0 0 0" style="fill:#ffffff;fill-opacity:1;fill-rule:nonzero;stroke:none" transform="translate(41.654 16.63)"/><path d="M0 0h-.75a.85.85 0 1 0 0 1.699H0A.85.85 0 1 0 0 0" style="fill:#ffffff;fill-opacity:1;fill-rule:nonzero;stroke:none" transform="translate(44.552 16.63)"/><path d="M0 0h-9.477a.85.85 0 0 0 0 1.7H0A.85.85 0 1 0 0 0" style="fill:#ffffff;fill-opacity:1;fill-rule:nonzero;stroke:none" transform="translate(44.552 27.826)"/><path d="M0 0h-11.683a.85.85 0 0 0-.85.85v2.598a.85.85 0 0 0 1.7 0V1.7H-.85v1.748a.85.85 0 0 0 1.7 0V.85A.85.85 0 0 0 0 0" style="fill:#ffffff;fill-opacity:1;fill-rule:nonzero;stroke:none" transform="translate(17.581 37.565)"/><path d="M0 0h-11.683a.85.85 0 0 0-.849.85v2.598a.85.85 0 1 0 1.699 0V1.7H-.85v1.748a.85.85 0 1 0 1.7 0V.85A.85.85 0 0 0 0 0" style="fill:#ffffff;fill-opacity:1;fill-rule:nonzero;stroke:none" transform="translate(44.054 37.565)"/></g></svg>