<svg xmlns="http://www.w3.org/2000/svg" width="40" height="40"><defs><clipPath clipPathUnits="userSpaceOnUse" id="a"><path d="M0 30h30V0H0z"/></clipPath></defs><g clip-path="url(#a)" transform="matrix(1.33333 0 0 -1.33333 0 40)"><path d="M21.27 6.6l.06-.1a.52.52 0 01.07-.08l.04-.03a.3.3 0 01.08-.05.34.34 0 01.1-.03h.19l.08.03.08.05.04.02.03.04.06.07.04.08c.02.03.03.06.03.1a.48.48 0 010 .21l-.03.08-.06.1a.5.5 0 01-.04.05.32.32 0 01-.07.05.26.26 0 01-.08.05.3.3 0 01-.1.03.37.37 0 01-.18 0 .37.37 0 01-.1-.04.66.66 0 01-.14-.1.4.4 0 01-.06-.06.28.28 0 01-.04-.09.33.33 0 01-.03-.09.6.6 0 010-.2l.03-.09M15.05 25.15l-.06.1a.37.37 0 01-.1.1.25.25 0 01-.08.05l-.1.03a.42.42 0 01-.29-.04l-.06-.03a.4.4 0 01-.08-.06.9.9 0 01-.06-.07.3.3 0 01-.04-.1l-.03-.1v-.08-.12a.79.79 0 01.1-.17c0-.01.02-.04.06-.07a.23.23 0 01.05-.04.25.25 0 01.08-.04l.1-.03.08-.01h.1l.1.05.06.03a.47.47 0 01.13.13l.05.09.03.1a.53.53 0 010 .18l-.04.1M24.33 20.72c.3-.27.56-.56.8-.87.1-.13.1-.3 0-.44-.24-.3-.5-.59-.8-.86.24.7.24 1.46 0 2.17m-1.07-3a3.37 3.37 0 00-1.72-.53c-.61.02-1.2.2-1.71.53a2.87 2.87 0 000 3.82c.5.33 1.1.51 1.71.53.6-.01 1.2-.2 1.71-.52a2.88 2.88 0 000-3.83m-4.5.83c-.3.27-.56.56-.8.86-.1.13-.1.32 0 .44.24.3.5.59.8.86a3.45 3.45 0 010-2.16m2.79-1.88c1.86 0 3.42 1.69 4 2.42.26.31.26.77 0 1.1-.58.72-2.14 2.41-4 2.41-1.86 0-3.42-1.69-4-2.42a.87.87 0 010-1.1c.58-.72 2.14-2.41 4-2.41" fill="#ffffff"/><path d="M21.54 18.67a.97.97 0 100 1.93.97.97 0 000-1.93m0 2.46a1.5 1.5 0 110-3 1.5 1.5 0 010 3M2.93 1.84l-1.1 1.13L5 6.25l1.1-1.13zm3.79 3.93L5.62 6.9l.59.6A5.45 5.45 0 017.3 6.37zm-.1 2.75a4.54 4.54 0 000 4.4 4.32 4.32 0 003.78 2.28c1.47 0 2.94-.76 3.8-2.3a4.54 4.54 0 00-.01-4.39 4.32 4.32 0 00-3.79-2.28c-1.46 0-2.93.76-3.79 2.29m-5.5-6.09l1.26-1.3a.78.78 0 011.12 0l4.58 4.75a5.18 5.18 0 016.77 2 5.5 5.5 0 010 5.69 5.11 5.11 0 01-8.13.97 5.56 5.56 0 01-.98-6.24L1.11 3.51a.78.78 0 010-1.08" fill="#ffffff"/><path d="M7.45 13.98c.28.28.6.5.93.68v1.03a5.08 5.08 0 01-.93-.54zM8.38 22.78c0 .93.75 1.69 1.66 1.69h2.78c.27 0 .48.22.48.48 0 .27-.21.49-.48.49h-2.78a2.64 2.64 0 01-2.6-2.66v-6.43c.3.17.62.3.94.42zM5.84 7.12l.37.38a5.34 5.34 0 01.98-1.03l.31-.04c.07-.29.19-.55.33-.8l.24.25a5.08 5.08 0 012.33-.56c.14 0 .28.03.42.04h-.78c-.68 0-1.3.44-1.55 1.09-.03.09-.03.2-.05.29-.35.18-.68.41-.98.7v-.05c-.85.08-1.52.82-1.52 1.69v4.4a5.58 5.58 0 01-.2-5.18l-.45-.45c.14-.28.32-.53.55-.73" fill="#ffffff"/><path d="M25.56 25.41A2.62 2.62 0 0123 27.47H8.91a3.96 3.96 0 01-3.92-4v-9.62c.26.47.57.92.95 1.32v8.3A3 3 0 008.9 26.5h14.12c.6 0 1.17-.33 1.44-.83l.1-.2.02-.03h-8.16a.48.48 0 01-.47-.48c0-.27.21-.49.47-.49h9.18a1.7 1.7 0 001.52-1.7l.01-6.67.01-2.7v-1.8c-.1.09-1.76 1.7-2.43 2.12-.2.13-.4.22-.71.22h-.06c-.42-.01-.84-.31-1.05-.5l-2.02-1.7a.9.9 0 00-.62-.22l-.23.01c-.24.04-.46.28-.57.49l-3.65 6.82a1.75 1.75 0 01-3.09.06L11.64 17c.32-.07.63-.17.93-.29l.98 1.69c.14.24.47.4.72.43h.06c.3 0 .53-.23.65-.45l5.45-10.22a.43.43 0 01.39-.24c.18 0 .35.1.44.25.09.14.09.3 0 .46l-.7 1.28-.24.43-.1.21h.07c.43 0 .86.16 1.2.45l2.02 1.7a.8.8 0 00.95.07h.02a.84.84 0 00.11-.09l2.54-2.37V7.05c0-.93-.75-1.7-1.66-1.7H13.8a6.03 6.03 0 00-2.54-.97h14.2c1.44 0 2.62 1.2 2.62 2.67v15.73a2.62 2.62 0 01-2.52 2.64" fill="#ffffff"/><path d="M10.6 15.18c.33-.01.66-.07.98-.17l.47.8a5 5 0 01-.96.24zM8.11 10.75H7.8a.29.29 0 00-.29.28v1.75c0 .16.13.28.29.28h.31c.16 0 .29-.12.29-.28v-1.74a.29.29 0 00-.29-.29M9.45 10.75h-.3a.29.29 0 00-.3.28v2.15c0 .16.13.28.3.28h.3c.16 0 .29-.12.29-.28v-2.14a.29.29 0 00-.29-.29M10.81 10.75h-.3a.29.29 0 00-.3.28V14c0 .15.13.28.3.28h.3c.16 0 .29-.12.29-.28v-2.96a.29.29 0 00-.29-.28M9.32 8a.46.46 0 10-.93 0 .46.46 0 00.93 0M10.67 9.1a.53.53 0 10-1.05 0 .53.53 0 001.05 0M12.13 7.85a.56.56 0 10-1.12 0 .56.56 0 001.12 0M13.6 9.66a.5.5 0 10-1 0 .5.5 0 001 0" fill="#ffffff"/><path d="M8.68 7.85l1.4 1.2M11.57 7.85l1.57 1.86M11.57 7.85l-1.36 1.2" fill="#fff" stroke="#ffffff" stroke-width=".5" stroke-miterlimit="10"/></g></svg>