<svg xmlns="http://www.w3.org/2000/svg" xml:space="preserve" width="40" height="40"><defs><clipPath clipPathUnits="userSpaceOnUse" id="a"><path d="M0 30h30V0H0Z"/></clipPath></defs><g clip-path="url(#a)" transform="matrix(1.33333 0 0 -1.33333 0 40)"><path d="M21.78 6.7a.68.68 0 0 1 .07-.07l.04-.03a.27.27 0 0 1 .08-.05.3.3 0 0 1 .1-.03h.18l.1.03.07.04.04.03.03.04.06.07.04.08c.02.03.03.06.03.1l.01.1a.56.56 0 0 1-.04.19.85.85 0 0 1-.06.1l-.04.05a.36.36 0 0 1-.07.05.26.26 0 0 1-.08.05.27.27 0 0 1-.1.03.43.43 0 0 1-.28-.04.67.67 0 0 1-.14-.1.45.45 0 0 1-.06-.07.26.26 0 0 1-.04-.08.3.3 0 0 1-.03-.1.6.6 0 0 1-.01-.09v-.1l.04-.09a.86.86 0 0 1 .06-.1M14.7 24.87a.37.37 0 0 1 .06-.07l.05-.04a.23.23 0 0 1 .08-.04l.1-.03.08-.01a.42.42 0 0 1 .2.05l.06.03a.45.45 0 0 1 .13.13l.05.09.03.1a.56.56 0 0 1 0 .18l-.04.1-.06.1a.4.4 0 0 1-.1.1.26.26 0 0 1-.09.05l-.09.03a.41.41 0 0 1-.19 0 .36.36 0 0 1-.1-.04l-.07-.03a.5.5 0 0 1-.13-.13.29.29 0 0 1-.05-.1l-.02-.1v-.2l.04-.07a.82.82 0 0 1 .05-.1M18.47 20c.16.2.34.4.53.59-.1-.5-.1-1 0-1.5-.19.2-.37.4-.53.6a.25.25 0 0 0 0 .3m1.86 1.68c.5.31 1.07.5 1.66.51.59-.01 1.16-.19 1.64-.49.93-1.05.94-2.64.02-3.67-.5-.32-1.07-.5-1.66-.52-.59.02-1.16.2-1.64.5a2.77 2.77 0 0 0-.02 3.67M25.5 20a.25.25 0 0 0 0-.31c-.17-.21-.35-.41-.53-.6.1.5.1 1.01 0 1.5.18-.19.36-.39.53-.6m-3.52-3.22c1.9 0 3.49 1.72 4.08 2.46.29.35.29.87 0 1.22-.6.74-2.18 2.46-4.08 2.46s-3.49-1.72-4.08-2.45a.98.98 0 0 1 0-1.23c.6-.74 2.18-2.46 4.08-2.46" fill="#ffffff"/><path d="M21.99 20.71a.87.87 0 1 0 0-1.74.87.87 0 0 0 0 1.74m0-2.46a1.6 1.6 0 1 1 0 3.19 1.6 1.6 0 0 1 0-3.19M10.85 6.44c-1.46 0-2.93.76-3.79 2.29a4.55 4.55 0 0 0 0 4.4 4.33 4.33 0 0 0 3.8 2.28c1.46 0 2.93-.76 3.78-2.3a4.55 4.55 0 0 0 0-4.39 4.32 4.32 0 0 0-3.79-2.28m-3.68-.46L6.07 7.1l.59.6a5.34 5.34 0 0 1 1.09-1.13zm-3.8-3.93L2.28 3.18l3.17 3.28 1.1-1.13zM15.3 8.08a5.5 5.5 0 0 1 0 5.7 5.11 5.11 0 0 1-8.13.97 5.56 5.56 0 0 1-.98-6.24l-4.44-4.6c-.4-.4-.4-1.05 0-1.46l.88-.91c.41-.43 1.1-.43 1.5 0l4.4 4.55a5.18 5.18 0 0 1 6.77 2" fill="#ffffff"/><path d="M8.88 11.88H8.4a.43.43 0 0 1-.44-.43V8.78c0-.24.2-.43.44-.43h.48c.24 0 .43.2.43.43v2.67c0 .24-.2.43-.43.43M10.93 12.5h-.48a.43.43 0 0 1-.44-.44V8.78c0-.24.2-.43.44-.43h.48c.24 0 .43.2.43.43v3.28c0 .24-.19.43-.43.43M13 13.73h-.47a.44.44 0 0 1-.44-.44V8.8c0-.25.2-.44.44-.44H13c.24 0 .43.2.43.43v4.51c0 .25-.2.44-.43.44" fill="#ffffff"/><path d="M26.08 25.72a2.71 2.71 0 0 1-2.62 2.06H9.36a4.06 4.06 0 0 1-4.02-4.1v-6.14a.58.58 0 0 1 1.15 0v6.15a2.9 2.9 0 0 0 2.86 2.92h14.11c.57 0 1.1-.3 1.36-.78l.04-.08h-7.99a.58.58 0 0 1-.58-.59c0-.32.26-.58.58-.58h9.17a1.6 1.6 0 0 0 1.43-1.6l.01-6.67.01-2.7v-1.57a23.2 23.2 0 0 1-2.27 1.98c-.22.13-.44.22-.82.22h-.01c-.46 0-.9-.32-1.12-.5l-2.02-1.72a.8.8 0 0 0-.55-.2c-.07 0-.14 0-.21.02-.2.03-.4.24-.5.43l-3.65 6.82c-.33.61-.94.99-1.65 1-.67 0-1.27-.35-1.61-.94l-1.16-2.02.14-.03c.29-.06.59-.15.92-.27l.08-.03 1.01 1.76c.13.21.43.35.7.38.25 0 .45-.2.56-.4l5.45-10.22c.1-.19.28-.3.48-.3.2 0 .41.12.52.3.1.17.11.38.01.56l-.7 1.29-.27.5c.43.01.84.18 1.17.46l2.02 1.7c.13.12.3.17.48.17a.74.74 0 0 0 .47-.18l2.5-2.3V7.26c0-.88-.7-1.6-1.55-1.6H13.56a.59.59 0 1 1 0-1.17h12.36c1.49 0 2.7 1.24 2.7 2.76v15.73a2.72 2.72 0 0 1-2.54 2.74" fill="#ffffff"/><path d="M10.5 24.58h2.77c.32 0 .58.26.58.58 0 .33-.26.59-.58.59H10.5a2.74 2.74 0 0 1-2.7-2.77v-5.44a.58.58 0 0 1 1.15 0v5.44c0 .88.7 1.6 1.55 1.6" fill="#ffffff"/></g></svg>