<svg xmlns="http://www.w3.org/2000/svg" xml:space="preserve" width="64" height="49.17"><defs><clipPath clipPathUnits="userSpaceOnUse" id="a"><path d="M0 36.88h48V0H0Z"/></clipPath></defs><g clip-path="url(#a)" transform="matrix(1.33333 0 0 -1.33333 0 49.17)" fill="#0098da"><path d="M1.64 6.04v28.88h13.41v-6.4a.82.82 0 0 1 .82-.82l5.49.03V6.03Zm19.49 23.33-4.43-.02v4.92zm-3.77 6.6c-.33.38-.82.6-1.32.6H1.35A1.37 1.37 0 0 1 0 35.2V5.75C0 5 .6 4.4 1.35 4.4h20.3C22.4 4.4 23 5 23 5.75v23.3c0 .45-.16.87-.46 1.2z"/><path d="M26.64 1.64v30.88h4.63c1-1.63 1.07-3.4 1.07-3.52 0-.06.03-.1.04-.17-1.34 1.1-1.47 1.08-1.8 1.03a.82.82 0 0 1-.19-1.57c.3-.2 1.5-1.17 2.49-2a.82.82 0 0 1 1.2.16l2 2.96a.82.82 0 1 1-1.36.92l-.75-1.1a8.93 8.93 0 0 1-.85 3.29h6.93v-6.14a.82.82 0 0 1 .82-.82l5.49.02V1.64Zm19.41 25.58-4.36-.02v4.7Zm1.48.85-5.18 5.52a1.8 1.8 0 0 1-1.31.57h-8.93a7.01 7.01 0 0 1-3.61 2.4c-3.94 1.13-7.41-1.08-7.56-1.17a.82.82 0 0 1 .9-1.38c.02.02 3 1.89 6.2.97a5.5 5.5 0 0 0 1.7-.82h-3.39c-.74 0-1.35-.6-1.35-1.33V1.33C25 .6 25.6 0 26.35 0h20.3C47.39 0 48 .6 48 1.33V26.9c0 .44-.17.86-.47 1.18"/><path d="M43.97 18.31a.82.82 0 1 1 0 1.64H29.24a.82.82 0 0 1 0-1.64h3.36v-2.94h-3.36a.82.82 0 1 1 0-1.64h3.36V10.8h-3.36a.82.82 0 1 1 0-1.64h3.36V6.22h-3.36a.82.82 0 1 1 0-1.64h14.5a.82.82 0 1 1 0 1.64h-9.5v2.94h9.5a.82.82 0 1 1 0 1.64h-9.5v2.93h9.5a.82.82 0 1 1 0 1.64h-9.5v2.94Zm-37.3 2.34c.31 0 .6.18.74.47l.79 1.66 2.18-4.04a.82.82 0 0 1 .72-.43c.3 0 .57.16.72.42l1.77 3.1 1.48-1.03a.82.82 0 0 1 1.13.17l2.96 3.9a.82.82 0 1 1-1.3 1l-2.49-3.27-1.57 1.1a.83.83 0 0 1-1.19-.26l-1.49-2.62-2.25 4.16a.78.78 0 0 1-.74.43.82.82 0 0 1-.72-.47L6.15 22.3H3.7a.82.82 0 1 1 0-1.64Z"/><path d="M19.26 11.35h-.22v6.74a.82.82 0 1 1-1.64 0v-6.74h-1.71v5.42a.82.82 0 0 1-1.64 0v-5.42h-1.7v3.08a.82.82 0 1 1-1.65 0v-3.08H9v6.51a.82.82 0 0 1-1.65 0v-6.5h-1.7V15A.82.82 0 1 1 4 15v-3.69a.8.8 0 0 1-.63-.78c0-.45.37-.82.82-.82h15.07a.82.82 0 0 1 0 1.64"/></g></svg>