<svg xmlns="http://www.w3.org/2000/svg" width="48" height="46.33"><defs><clipPath clipPathUnits="userSpaceOnUse" id="a"><path d="M0 34.75h36V0H0z"/></clipPath><clipPath clipPathUnits="userSpaceOnUse" id="b"><path d="M0 34.75h36V0H0z"/></clipPath></defs><g clip-path="url(#a)" transform="matrix(1.33333 0 0 -1.33333 0 46.33)"><path d="M31.96 8.14h-1.34v1.34c0 .25-.2.45-.44.45h-1.79a.45.45 0 01-.45-.45V8.14h-1.33a.45.45 0 01-.45-.44V5.9c0-.25.2-.44.45-.44h1.33V4.13c0-.25.2-.45.45-.45h1.79c.24 0 .44.2.44.45v1.34h1.34c.25 0 .45.2.45.44V7.7c0 .24-.2.44-.45.44m-.45-1.78h-1.33a.45.45 0 01-.45-.45V4.57h-.9v1.34c0 .25-.2.45-.44.45h-1.34v.89h1.34c.25 0 .45.2.45.45v1.34h.89V7.7c0-.25.2-.45.45-.45h1.33zM11.04 27.77a.38.38 0 01-.35-.21l-1.3-2.67-1.32 2.67a.4.4 0 01-.62.1.38.38 0 01-.11-.28v-3.3c0-.11.04-.2.11-.28a.4.4 0 01.55 0c.07.07.11.17.11.27v1.82l.92-1.83c.13-.27.5-.32.7-.02l.92 1.89v-1.86a.38.38 0 01.39-.39c.1 0 .2.05.27.12.07.07.11.17.11.27v3.31c0 .1-.04.2-.11.28a.38.38 0 01-.27.1M14.43 26.45c-.45.26-1.07.25-1.52 0-.23-.12-.4-.3-.53-.53a1.55 1.55 0 01-.19-.77c0-.28.06-.54.19-.76.12-.22.3-.4.53-.53.22-.13.48-.2.76-.2s.54.07.76.2c.23.13.4.3.53.53.12.23.19.48.19.76 0 .29-.07.55-.2.77-.12.23-.3.4-.52.53m-.12-1.7a.66.66 0 00-.26-.28.77.77 0 00-.76 0 .69.69 0 00-.26.28.84.84 0 00-.1.4c0 .16.04.3.1.41.07.12.15.21.26.28.23.13.53.13.76 0 .11-.07.2-.16.26-.27.06-.13.1-.26.1-.42a.86.86 0 00-.1-.4M18 26.49a1.44 1.44 0 01-1.41-.06.35.35 0 01-.07.09.4.4 0 01-.54 0 .37.37 0 01-.11-.28v-2.17c0-.11.04-.2.1-.28a.4.4 0 01.56 0c.07.08.1.17.1.28v1.37c0 .1.03.17.08.24.05.08.12.14.2.18.1.05.2.07.32.07.2 0 .36-.05.47-.16.12-.11.18-.28.18-.5v-1.2c0-.11.03-.2.1-.28a.37.37 0 01.28-.1.37.37 0 01.38.38v1.2c0 .28-.06.53-.17.74-.11.2-.27.37-.47.48M20.96 24.33a.33.33 0 01-.25.11h-.16c-.06 0-.11.03-.16.08a.37.37 0 00-.08.25v1.07h.28c.1 0 .2.03.26.1.07.06.1.14.1.24 0 .1-.03.19-.1.25a.37.37 0 01-.26.1h-.28v.57c0 .1-.04.2-.1.27a.4.4 0 01-.55 0 .37.37 0 01-.1-.27v-.57h-.1a.36.36 0 01-.25-.1.33.33 0 01-.1-.25c0-.1.03-.18.1-.24.06-.07.15-.1.25-.1h.1v-1.07c0-.2.04-.39.12-.55a1 1 0 01.36-.39c.15-.1.32-.14.5-.14h.1c.11 0 .21.03.3.1.08.07.12.16.12.27 0 .1-.03.2-.1.27zM23.78 26.49a1.44 1.44 0 01-1.37-.03v.93c0 .1-.04.2-.1.27a.4.4 0 01-.55 0 .38.38 0 01-.11-.27v-3.32c0-.11.03-.2.1-.28a.4.4 0 01.55 0c.07.08.11.17.11.28v1.37c0 .1.02.17.07.24.05.08.12.14.21.18.1.05.2.07.32.07.2 0 .35-.05.47-.16.11-.11.17-.28.17-.5v-1.2a.38.38 0 01.38-.39c.11 0 .2.04.28.11.07.08.1.17.1.28v1.2c0 .28-.05.53-.16.74-.11.2-.27.37-.47.48" fill="#0098da"/><path d="M31.9 12.97v18.8c0 .45-.37.81-.82.81h-1.34v.44c0 .8-.55 1.53-1.33 1.7a1.69 1.69 0 01-2.04-1.66v-.48h-2.72v.44c0 .8-.55 1.53-1.33 1.7a1.69 1.69 0 01-2.04-1.66v-.48h-2.73v.44c0 .8-.54 1.53-1.33 1.7l-.27.02-.28-.03a1.72 1.72 0 01-1.33-1.7v-.43h-2.72v.48c0 1.05-.95 1.87-2.04 1.65a1.72 1.72 0 01-1.33-1.7v-.43H5.53v.48c0 1.05-.96 1.87-2.04 1.65a1.72 1.72 0 01-1.33-1.7v-.43H.82a.82.82 0 01-.82-.81V6.07c0-1.41 1.14-2.55 2.55-2.55h20.8A6.74 6.74 0 0136 6.76c0 2.79-1.7 5.18-4.1 6.21M27.4 32.88c0 .34.27.6.6.6h.1a.6.6 0 00.6-.6v-2.51a.6.6 0 00-.6-.6H28a.6.6 0 00-.6.6zm-6.07.12c0 .33.27.6.6.6h.1a.6.6 0 00.6-.6v-2.52a.6.6 0 00-.6-.6h-.1a.6.6 0 00-.6.6zm-5.99-.06c0 .33.27.6.6.6a.6.6 0 00.6-.6v-2.52a.6.6 0 10-1.2 0zM9.26 33c0 .33.27.6.6.6h.1a.6.6 0 00.6-.6v-2.52a.6.6 0 00-.6-.6h-.1a.6.6 0 00-.6.6zm-6.07-.12c0 .34.27.6.6.6h.1a.6.6 0 00.6-.6v-2.51a.6.6 0 00-.6-.6h-.1a.6.6 0 00-.6.6zm-1.55-1.93h.52v-.48c0-1.04.96-1.87 2.04-1.65.79.16 1.33.9 1.33 1.7v.43h2.72v-.48c0-1.04.96-1.87 2.04-1.65.79.16 1.33.9 1.33 1.7v.43h2.72v-.48c0-.87.68-1.57 1.53-1.65h.15c.86.08 1.53.78 1.53 1.65v.48h2.73v-.43c0-.8.54-1.54 1.33-1.7 1.08-.22 2.04.6 2.04 1.65v.48h2.72v-.43c0-.8.54-1.54 1.33-1.7 1.08-.22 2.04.6 2.04 1.65v.48h.52v-8.46H1.64zm21.05-25.8H2.55c-.5 0-.91.41-.91.91v14.8h28.62v-7.44a6.77 6.77 0 01-7.57-8.26m6.55-3.7a5.26 5.26 0 00-5.02 3.7 5.2 5.2 0 005.02 6.9 5.3 5.3 0 002.66-.75 5.28 5.28 0 00-2.66-9.84" fill="#0098da"/></g><text transform="matrix(1.33333 0 0 1.33333 3.28 34.7)" style="-inkscape-font-specification:Comfortaa-Bold" font-weight="700" font-size="11.42" font-family="Comfortaa" fill="#0098da"><tspan x="0 6.2037206" y="0">23</tspan></text><g clip-path="url(#b)" transform="matrix(1.33333 0 0 -1.33333 0 46.33)"><path d="M17.39 7.93a.47.47 0 00-.47.47v9.32a.47.47 0 00.93 0V8.4a.47.47 0 00-.46-.47M20.81 16.98a.73.73 0 10-1.46 0 .73.73 0 001.46 0M23.81 16.98a.73.73 0 10-1.46 0 .73.73 0 001.46 0M26.81 16.98a.73.73 0 10-1.46 0 .73.73 0 001.46 0M26.81 13.98a.73.73 0 10-1.46 0 .73.73 0 001.46 0M23.81 13.98a.73.73 0 10-1.46 0 .73.73 0 001.46 0M20.81 13.98a.73.73 0 10-1.46 0 .73.73 0 001.46 0M20.81 10.98a.73.73 0 10-1.46 0 .73.73 0 001.46 0" fill="#0098da"/></g></svg>