<svg xmlns="http://www.w3.org/2000/svg" xml:space="preserve" width="69.33" height="69.25"><defs><clipPath clipPathUnits="userSpaceOnUse" id="a"><path d="M0 51.94h52V0H0Z"/></clipPath></defs><g clip-path="url(#a)" transform="matrix(1.33333 0 0 -1.33333 0 69.25)"><path d="M42.26 47.68a5.89 5.89 0 0 1-5.9-5.86 5.89 5.89 0 0 1 11.8 0 5.89 5.89 0 0 1-5.9 5.86m0-13.47a7.63 7.63 0 0 0-7.63 7.6 7.63 7.63 0 0 0 15.27 0c0-4.19-3.42-7.6-7.64-7.6" fill="#ffffff"/><path d="M42.26 38.1a.87.87 0 0 0-.87.87v5.7a.87.87 0 0 0 1.74 0v-5.7a.87.87 0 0 0-.87-.87" fill="#ffffff"/><path d="M44.48 41.66a.87.87 0 0 0-.6.24l-2.22 2.14a.87.87 0 1 0 1.2 1.25l2.22-2.14a.87.87 0 0 0-.6-1.5" fill="#ffffff"/><path d="M40.05 41.66a.87.87 0 0 0-.6 1.5l2.21 2.13a.87.87 0 0 0 1.2-1.25l-2.2-2.14a.87.87 0 0 0-.61-.24M6.08 18.74c-.14 0-.29.03-.43.11a8.5 8.5 0 0 0-4.3 7.37c0 3.15 1.63 7.29 6.21 8.6a.87.87 0 0 0 .48-1.67C4.4 32.1 3.1 28.76 3.1 26.22a6.75 6.75 0 0 1 3.42-5.86.87.87 0 0 0-.43-1.62m11.2-16.29a7.66 7.66 0 0 0-7.63 8.12c.03.48.45.83.93.81a.87.87 0 0 0 .8-.93v-.34a5.92 5.92 0 0 1 11.82 0v28.14c0 1.8-.82 3.46-2.24 4.58a6.01 6.01 0 0 1-5.19 1.1c-1.78-.44-4.27-1.98-4.23-4.02a.87.87 0 0 0-.85-.89.88.88 0 0 0-.89.86c-.06 3.18 3.29 5.18 5.55 5.74 2.34.58 4.78.06 6.68-1.42a7.51 7.51 0 0 0 2.91-5.95V10.1a7.66 7.66 0 0 0-7.65-7.66" fill="#ffffff"/><path d="m12.2 29.67-.18.01a5.8 5.8 0 1 0 4.13 10.67.87.87 0 1 0-.9-1.49 4.06 4.06 0 1 1-2.88-7.47.87.87 0 0 0-.18-1.72M10.24 10.35a5.8 5.8 0 0 0-1.7 11.34.87.87 0 0 0 .51-1.66 4.05 4.05 0 1 1 3.58-7.17.87.87 0 1 0 1.03-1.4 5.78 5.78 0 0 0-3.42-1.11M34.32 2.45a7.66 7.66 0 0 0-7.65 7.66v28.14a7.64 7.64 0 0 0 5.76 7.35.87.87 0 1 0 .44-1.68 5.9 5.9 0 0 1-4.46-5.67V10.1a5.92 5.92 0 0 1 11.64-1.48.87.87 0 1 0 1.68-.43 7.65 7.65 0 0 0-7.41-5.75" fill="#ffffff"/><path d="M41.37 10.35c-.46 0-.92.05-1.38.16a.87.87 0 1 0 .41 1.69c1.32-.32 2.7.03 3.7.94a3.76 3.76 0 0 1 1.07 4.53.87.87 0 1 0 1.62.63 5.47 5.47 0 0 0-1.52-6.45 5.79 5.79 0 0 0-3.9-1.5M46.57 19.67a.87.87 0 0 0-.43 1.63 6.5 6.5 0 0 1 3.21 5.28 7.2 7.2 0 0 1-3.47 5.8.87.87 0 1 0 .84 1.54 8.96 8.96 0 0 0 4.37-7.34 8.23 8.23 0 0 0-4.09-6.8.87.87 0 0 0-.43-.1M37.38 19.87h-.01Zm-4.72 2.35 1.52-2.45 2.88.09 1.36 2.53-1.52 2.46-2.88-.1Zm1.22-4.2c-.41 0-.8.21-1.01.56l-1.86 3a1.2 1.2 0 0 0-.04 1.18l1.67 3.1c.2.38.59.61 1.01.63l3.52.1c.42.02.82-.2 1.04-.55l1.86-3c.22-.36.24-.81.04-1.19l-1.67-3.1c-.2-.37-.6-.61-1.01-.62l-3.52-.11z" fill="#ffffff"/><path d="m32.4 29 1.5-2.46 2.89.1 1.37 2.53-1.52 2.45-2.89-.08Zm1.2-4.2c-.4 0-.78.2-1 .55l-1.86 3a1.2 1.2 0 0 0-.03 1.19l1.66 3.1c.2.37.6.61 1.01.62l3.52.11c.41.02.82-.2 1.05-.55l1.85-3c.22-.36.24-.82.04-1.2l-1.67-3.1a1.2 1.2 0 0 0-1-.62l-3.53-.1h-.03" fill="#ffffff"/><path d="M43.06 23.2zm-4.72 2.34 1.52-2.45 2.88.1 1.37 2.53-1.52 2.45-2.88-.09zm1.2-2.46zm3.05-.18zM39.56 21.34c-.41 0-.8.22-1.01.57L36.7 24.9a1.2 1.2 0 0 0-.04 1.19l1.67 3.1c.2.37.58.61 1 .62l3.53.11c.42.02.82-.2 1.04-.56l1.85-3c.23-.36.24-.81.04-1.18l-1.67-3.1c-.2-.38-.58-.62-1-.63l-3.52-.1zM31.54 14.88a.87.87 0 0 0-.7 1.39l2 2.71a.87.87 0 0 0 1.4-1.03l-2-2.71a.87.87 0 0 0-.7-.36M33.22 32.28c-.24 0-.48.1-.65.3l-2.06 2.3a.87.87 0 1 0 1.3 1.16l2.06-2.31a.87.87 0 0 0-.65-1.45" fill="#ffffff"/></g></svg>