<svg width="66.667" height="66.667" xmlns="http://www.w3.org/2000/svg"><defs><clipPath clipPathUnits="userSpaceOnUse" id="a"><path d="M0 50h50V0H0Z"/></clipPath></defs><g clip-path="url(#a)" transform="matrix(1.33333 0 0 -1.33333 0 66.667)"><path d="M0 0a.852.852 0 0 1-.852-.852v-9.111a3.87 3.87 0 0 0-3.865-3.866h-11.792a3.87 3.87 0 0 0-3.866 3.866V1.829a3.87 3.87 0 0 0 3.866 3.866h10.898a.851.851 0 1 1 0 1.701h-10.898a5.573 5.573 0 0 1-5.568-5.567V-9.963a5.573 5.573 0 0 1 5.568-5.567h11.792A5.574 5.574 0 0 1 .851-9.963v9.111A.851.851 0 0 1 0 0" style="fill:#0098da;fill-opacity:1;fill-rule:nonzero;stroke:none" transform="translate(22.113 16.238)"/><path d="m0 0-.042-7.15-5.213-.023a3.237 3.237 0 0 1-1.146 1.699c.298.406.48.902.48 1.442 0 1.35-1.1 2.45-2.451 2.45-1.35 0-2.449-1.1-2.449-2.45 0-.54.181-1.036.479-1.442A3.24 3.24 0 0 1-11.496-7.2l-.205-.001.042 7.15h3.687c.064-.138.145-.271.258-.384.245-.245.585-.384.93-.384h1.867c.532 0 .986.32 1.194.774zm-9.675-7.19c.278.425.758.709 1.303.709.541 0 1.018-.28 1.296-.701l-2.158-.008Zm.547 3.158c0 .418.339.759.756.759a.76.76 0 0 0 0-1.517.758.758 0 0 0-.756.758m2.728 6.4a.55.55 0 0 0 1.099 0V.883H-6.4Zm.549 2.251a2.254 2.254 0 0 1-2.252-2.251v-.717h-3.556c-.962 0-1.744-.74-1.744-1.651v-7.201c0-.911.782-1.652 1.744-1.652h.737c.05-.008.097-.03.15-.03h4.801c.054 0 .1.022.151.03h5.778c.962 0 1.745.741 1.745 1.652V0c0 .911-.783 1.651-1.745 1.651h-3.557v.717a2.253 2.253 0 0 1-2.252 2.251" style="fill:#0098da;fill-opacity:1;fill-rule:nonzero;stroke:none" transform="translate(17.177 13.4)"/><path d="M0 0a.846.846 0 1 1 0-1.691h2.304a.845.845 0 1 1 0 1.691Z" style="fill:#0098da;fill-opacity:1;fill-rule:nonzero;stroke:none" transform="translate(12.727 11.838)"/><path d="M0 0a.847.847 0 1 1 0-1.692h3.071a.846.846 0 1 1 0 1.692Z" style="fill:#0098da;fill-opacity:1;fill-rule:nonzero;stroke:none" transform="translate(12.727 9.621)"/><path d="M0 0a.852.852 0 0 1 .661 1.569 3.861 3.861 0 0 0-2.365 3.563v11.792a3.872 3.872 0 0 0 3.867 3.867h11.792a3.872 3.872 0 0 0 3.866-3.867V5.132a3.872 3.872 0 0 0-2.303-3.536.852.852 0 0 1 .69-1.556 5.574 5.574 0 0 1 3.314 5.092v11.792a5.574 5.574 0 0 1-5.567 5.569H2.163a5.575 5.575 0 0 1-5.569-5.569V5.132A5.56 5.56 0 0 1 0 0" style="fill:#0098da;fill-opacity:1;fill-rule:nonzero;stroke:none" transform="translate(16.942 26.8)"/><path d="M0 0a4.669 4.669 0 0 0-4.663 4.663A4.668 4.668 0 0 0 0 9.325a4.668 4.668 0 0 0 4.663-4.662A4.669 4.669 0 0 0 0 0m6.365 4.663A6.372 6.372 0 0 1 0 11.028a6.373 6.373 0 0 1-6.365-6.365A6.372 6.372 0 0 1 0-1.702a6.372 6.372 0 0 1 6.365 6.365" style="fill:#0098da;fill-opacity:1;fill-rule:nonzero;stroke:none" transform="translate(25 18.493)"/><path d="m0 0-.01.007a.842.842 0 0 1-1.184 0L-1.204 0l-2.443-2.443a.85.85 0 0 1 .602-1.453c.218 0 .435.083.602.25l.99.99v-3.012a.85.85 0 1 1 1.703 0v3.012l.848-.849a.851.851 0 0 1 1.203 1.203z" style="fill:#0098da;fill-opacity:1;fill-rule:nonzero;stroke:none" transform="translate(25.673 26.184)"/><path d="M0 0h-10.898a.85.85 0 1 1 0-1.701H0a3.872 3.872 0 0 0 3.866-3.866v-11.792A3.872 3.872 0 0 0 0-21.226h-11.791a3.872 3.872 0 0 0-3.867 3.867v9.094a.851.851 0 1 1-1.702 0v-9.094a5.574 5.574 0 0 1 5.569-5.568H0a5.573 5.573 0 0 1 5.567 5.568v11.792A5.573 5.573 0 0 1 0 0" style="fill:#0098da;fill-opacity:1;fill-rule:nonzero;stroke:none" transform="translate(44.397 23.635)"/><path d="M0 0c.892 0 1.617-.725 1.617-1.617S.892-3.234 0-3.234s-1.617.725-1.617 1.617S-.892 0 0 0m-1.879-4.523-.002-.001a4.902 4.902 0 0 1-.799-.417A4.88 4.88 0 0 1-4.875-9.02a.851.851 0 1 1 1.702-.001 3.184 3.184 0 0 0 1.431 2.659c.183.121.38.207.578.286.169.069.344.111.518.149.09.019.178.047.27.058.132.018.265.013.398.014.138-.001.275.004.412-.014.087-.011.171-.037.258-.055.178-.039.356-.082.528-.152a3.16 3.16 0 0 0 .571-.283c.057-.037.113-.077.168-.118a.847.847 0 0 1 1.19.171.848.848 0 0 1-.17 1.191 5.525 5.525 0 0 1-.245.174 4.892 4.892 0 0 1-.798.417l-.001.001a.069.069 0 0 0-.008.003c-.067.027-.131.058-.198.083a3.309 3.309 0 0 1 1.59 2.82c0 1.83-1.489 3.32-3.319 3.32a3.324 3.324 0 0 1-3.319-3.32A3.31 3.31 0 0 1-1.705-4.45c-.057-.022-.113-.047-.169-.071a.008.008 0 0 1-.005-.002" style="fill:#0098da;fill-opacity:1;fill-rule:nonzero;stroke:none" transform="translate(24.455 42.823)"/><path d="M0 0c.245-.246.57-.381.918-.381.347 0 .673.135.918.381l3.273 3.273a.85.85 0 1 1-1.203 1.204L.918 1.489l-.745.744A.85.85 0 1 1-1.03 1.028Z" style="fill:#0098da;fill-opacity:1;fill-rule:nonzero;stroke:none" transform="translate(26.42 33.152)"/><path d="M0 0c.494 0 .894.399.894.894v2.437a.894.894 0 1 1-1.788 0V.894C-.894.399-.493 0 0 0" style="fill:#0098da;fill-opacity:1;fill-rule:nonzero;stroke:none" transform="translate(38.5 7.744)"/><path d="M0 0a.792.792 0 1 1 .001 1.585A.792.792 0 0 1 0 0" style="fill:#0098da;fill-opacity:1;fill-rule:nonzero;stroke:none" transform="translate(38.5 12.313)"/><path d="M0 0h5.422v-9.928h-8.366l-.034 6.905zm-3.057-11.715h9.372c.494 0 .894.4.894.894V.113c0 .923-.751 1.674-1.675 1.674H0c-.44 0-.872-.178-1.183-.489L-4.24-1.76a1.655 1.655 0 0 1-.491-1.184v-7.096c0-.924.751-1.675 1.674-1.675" style="fill:#0098da;fill-opacity:1;fill-rule:nonzero;stroke:none" transform="translate(37.262 16.231)"/></g></svg>