<svg width="66.667" height="66.667" xmlns="http://www.w3.org/2000/svg"><defs><clipPath clipPathUnits="userSpaceOnUse" id="a"><path d="M0 50h50V0H0Z"/></clipPath></defs><g clip-path="url(#a)" transform="matrix(1.33333 0 0 -1.33333 0 66.667)"><path d="M0 0c0-1.109-.855-2.027-2.059-2.334v-.242a.896.896 0 1 0-1.795 0v.232a3.147 3.147 0 0 0-1.679 1.13.903.903 0 0 0 .169 1.256.893.893 0 0 0 1.257-.169 1.304 1.304 0 0 1 1.108-.517h.043c.728.01 1.161.391 1.161.644 0 .264-.454.655-1.161.655-1.658 0-2.957 1.066-2.957 2.439 0 1.108.855 2.027 2.059 2.344v.243a.896.896 0 1 0 1.795 0v-.254A3.07 3.07 0 0 0-.38 4.308a.905.905 0 0 0-.169-1.257.896.896 0 0 0-1.257.18 1.345 1.345 0 0 1-1.108.517h-.042c-.729-.01-1.162-.39-1.162-.654s.454-.644 1.162-.644C-1.299 2.45 0 1.373 0 0" style="fill:#0098da;fill-opacity:1;fill-rule:nonzero;stroke:none" transform="translate(25.533 36.816)"/><path d="M21.838 29.319h1.478v-2.397h-1.478zm-6.42 4.962h1.478v-7.36h-1.478Zm-5.058-7.359H8.871v11.857c0 .032.011.064.011.085h1.467c.011-.021.011-.053.011-.085zm15.068 0h-.317v2.766c0 .782-.644 1.426-1.436 1.426h-2.186a1.438 1.438 0 0 1-1.446-1.426v-2.766h-1.352v7.75c0 .771-.644 1.404-1.447 1.404h-2.175c-.802 0-1.446-.633-1.446-1.404v-7.75h-1.468v11.857c0 1.077-.623 1.88-1.447 1.88H8.523c-.824 0-1.447-.803-1.447-1.88V26.922h-.19a.896.896 0 1 1 0-1.795h18.542a.896.896 0 1 1 0 1.795" style="fill:#0098da;fill-opacity:1;fill-rule:nonzero;stroke:none"/><path d="M0 0c-4.456 0-8.078 3.622-8.078 8.078 0 4.455 3.622 8.077 8.078 8.077 4.456 0 8.078-3.622 8.078-8.077C8.078 3.622 4.456 0 0 0m0 17.95c-5.448 0-9.873-4.424-9.873-9.872 0-5.449 4.425-9.873 9.873-9.873 5.448 0 9.873 4.424 9.873 9.873 0 5.448-4.425 9.872-9.873 9.872" style="fill:#0098da;fill-opacity:1;fill-rule:nonzero;stroke:none" transform="translate(39.893 10.661)"/><path d="M0 0a.943.943 0 0 0-.634-.264.904.904 0 0 0-.633.264l-1.679 1.679v-6.388a.896.896 0 1 0-1.795 0v6.388L-6.42 0a.904.904 0 0 0-.633-.264.945.945 0 0 0-.634.264.9.9 0 0 0 0 1.267l3.21 3.21a.858.858 0 0 0 .412.232.777.777 0 0 0 .443 0 .556.556 0 0 0 .127-.042.838.838 0 0 0 .285-.19L0 1.267A.9.9 0 0 0 0 0" style="fill:#0098da;fill-opacity:1;fill-rule:nonzero;stroke:none" transform="translate(43.737 19.172)"/><path d="M0 0v2.418c0 1.066-.412 2.08-1.172 2.84l-8.173 8.173a4.01 4.01 0 0 1-2.829 1.172h-19.344a2.357 2.357 0 0 1-2.355-2.355v-38.181c0-1.172.961-2.122 2.133-2.122h29.607c1.183 0 2.133.95 2.133 2.122a.896.896 0 1 0 1.795 0c0-2.154-1.763-3.917-3.928-3.917H-31.74c-2.165 0-3.928 1.763-3.928 3.917v38.181a4.157 4.157 0 0 0 4.15 4.15h19.344a5.76 5.76 0 0 0 4.096-1.7L.095 6.525a5.766 5.766 0 0 0 1.7-4.107V0A.897.897 0 1 0 0 0" style="fill:#0098da;fill-opacity:1;fill-rule:nonzero;stroke:none" transform="translate(35.902 31.726)"/><path d="M0 0h-19.526a.897.897 0 1 0 0 1.794H0A.896.896 0 1 0 0 0" style="fill:#0098da;fill-opacity:1;fill-rule:nonzero;stroke:none" transform="translate(26.413 8.404)"/><path d="M0 0h-19.526a.897.897 0 1 0 0 1.794H0A.896.896 0 1 0 0 0" style="fill:#0098da;fill-opacity:1;fill-rule:nonzero;stroke:none" transform="translate(26.413 13.648)"/><path d="M0 0h-19.526a.897.897 0 1 0 0 1.794H0A.896.896 0 1 0 0 0" style="fill:#0098da;fill-opacity:1;fill-rule:nonzero;stroke:none" transform="translate(26.413 18.89)"/></g></svg>