<svg xmlns="http://www.w3.org/2000/svg" xml:space="preserve" width="66.667" height="66.667"><defs><clipPath id="a" clipPathUnits="userSpaceOnUse"><path d="M0 50h50V0H0Z"/></clipPath></defs><g clip-path="url(#a)" transform="matrix(1.33333 0 0 -1.33333 0 66.667)"><path d="M0 0h-14.938a3.862 3.862 0 0 0-3.859 3.858v41.269c0 2.249 1.83 4.08 4.08 4.08H5.458a5.776 5.776 0 0 0 4.113-1.704l8.09-8.09a5.699 5.699 0 0 0 1.676-4.053v-1.812a.85.85 0 1 0-1.699 0v1.812a4.008 4.008 0 0 1-1.18 2.851l-8.089 8.09a4.092 4.092 0 0 1-2.911 1.205h-20.175a2.382 2.382 0 0 1-2.38-2.379V3.858c0-1.19.969-2.159 2.159-2.159H0A.85.85 0 1 0 0 0" style="fill:#0098da;fill-opacity:1;fill-rule:nonzero;stroke:none" transform="translate(21.044 .345)"/><path d="M0 0h-7.25a5.734 5.734 0 0 0-5.727 5.728v7.25a.85.85 0 1 0 1.7 0v-7.25A4.032 4.032 0 0 1-7.25 1.7H0A.85.85 0 1 0 0 0" style="fill:#0098da;fill-opacity:1;fill-rule:nonzero;stroke:none" transform="translate(39.465 35.657)"/><path d="M0 0h-11.227a.85.85 0 1 0 0 1.699H0A.85.85 0 1 0 0 0" style="fill:#0098da;fill-opacity:1;fill-rule:nonzero;stroke:none" transform="translate(19.887 17.35)"/><path d="M0 0h-5.541a.85.85 0 1 0 0 1.699H0A.85.85 0 1 0 0 0" style="fill:#0098da;fill-opacity:1;fill-rule:nonzero;stroke:none" transform="translate(19.887 11.123)"/><path d="M0 0h-2.619a.85.85 0 1 0 0 1.699H0A.85.85 0 1 0 0 0" style="fill:#0098da;fill-opacity:1;fill-rule:nonzero;stroke:none" transform="translate(11.279 11.123)"/><path d="M0 0h-13.578a4.704 4.704 0 0 0-4.7 4.698v10.017a4.738 4.738 0 0 0 4.732 4.732h8.563c.571 0 1.036.465 1.036 1.036v13.345a.85.85 0 1 0 1.699 0V20.483a2.738 2.738 0 0 0-2.735-2.735h-8.563a3.036 3.036 0 0 1-3.032-3.033V4.698a3.003 3.003 0 0 1 3-2.999H0c1.654 0 3 1.346 3 2.999v11.818a.85.85 0 0 0 1.699 0V4.698A4.703 4.703 0 0 0 0 0" style="fill:#0098da;fill-opacity:1;fill-rule:nonzero;stroke:none" transform="translate(42.629 .065)"/><path d="m0 0-.82-.489c-.199-.122-.374-.214-.614-.214-.311 0-.665.152-.665.591 0 .265.124.459.323.571L.281 1.642c.145.081.26.111.405.111.436 0 .769-.295.769-.683v-6.023c0-.347-.333-.653-.727-.653-.406 0-.728.306-.728.653Z" style="fill:#0098da;fill-opacity:1;fill-rule:nonzero;stroke:none" transform="translate(9.525 29.977)"/><path d="m0 0-.82-.489c-.199-.122-.374-.214-.614-.214-.311 0-.665.152-.665.591 0 .265.124.459.323.571L.281 1.642c.145.081.26.111.405.111.436 0 .769-.295.769-.683v-6.023c0-.347-.333-.653-.727-.653-.406 0-.728.306-.728.653Z" style="fill:none;stroke:#0098da;stroke-width:.2;stroke-linecap:butt;stroke-linejoin:miter;stroke-miterlimit:10;stroke-dasharray:none;stroke-opacity:1" transform="translate(9.525 29.977)"/><path d="M0 0v-2.874c0-.581.333-.978.956-.978s.956.397.956.978V0c0 .652-.27 1.111-.956 1.111C.27 1.111 0 .652 0 0m3.356-.071v-2.803c0-1.243-.852-2.232-2.4-2.232s-2.4.989-2.4 2.232v2.803c0 1.345.727 2.426 2.4 2.426s2.4-1.081 2.4-2.426" style="fill:#0098da;fill-opacity:1;fill-rule:nonzero;stroke:none" transform="translate(14.012 29.467)"/><path d="M0 0v-2.874c0-.581.333-.978.956-.978s.956.397.956.978V0c0 .652-.27 1.111-.956 1.111C.27 1.111 0 .652 0 0Zm3.356-.071v-2.803c0-1.243-.852-2.232-2.4-2.232s-2.4.989-2.4 2.232v2.803c0 1.345.727 2.426 2.4 2.426s2.4-1.081 2.4-2.426z" style="fill:none;stroke:#0098da;stroke-width:.2;stroke-linecap:butt;stroke-linejoin:miter;stroke-miterlimit:10;stroke-dasharray:none;stroke-opacity:1" transform="translate(14.012 29.467)"/><path d="M0 0h-2.587c-.395 0-.696.265-.696.621 0 .337.301.622.696.622H0c.385 0 .686-.285.686-.622C.686.265.385 0 0 0" style="fill:#0098da;fill-opacity:1;fill-rule:nonzero;stroke:none" transform="translate(21.085 26.889)"/><path d="M0 0h-2.587c-.395 0-.696.265-.696.621 0 .337.301.622.696.622H0c.385 0 .686-.285.686-.622C.686.265.385 0 0 0Z" style="fill:none;stroke:#0098da;stroke-width:.2;stroke-linecap:butt;stroke-linejoin:miter;stroke-miterlimit:10;stroke-dasharray:none;stroke-opacity:1" transform="translate(21.085 26.889)"/><path d="M0 0v-2.019c0-.815.395-1.385 1.246-1.385.853 0 1.247.57 1.247 1.385V0c0 .825-.332 1.376-1.247 1.376C.332 1.376 0 .825 0 0m.612-4.648c-1.382.254-2.067 1.325-2.067 2.629V0c0 1.447.759 2.67 2.701 2.67 1.943 0 2.702-1.223 2.702-2.67v-2.019c0-1.243-.634-2.293-1.901-2.588.083-.368.228-.52.457-.52h.301c.426 0 .717-.234.717-.622 0-.602-.499-.622-1.153-.622-.956 0-1.569.684-1.757 1.723" style="fill:#0098da;fill-opacity:1;fill-rule:nonzero;stroke:none" transform="translate(23.951 29.06)"/><path d="M0 0v-2.019c0-.815.395-1.385 1.246-1.385.853 0 1.247.57 1.247 1.385V0c0 .825-.332 1.376-1.247 1.376C.332 1.376 0 .825 0 0Zm.612-4.648c-1.382.254-2.067 1.325-2.067 2.629V0c0 1.447.759 2.67 2.701 2.67 1.943 0 2.702-1.223 2.702-2.67v-2.019c0-1.243-.634-2.293-1.901-2.588.083-.368.228-.52.457-.52h.301c.426 0 .717-.234.717-.622 0-.602-.499-.622-1.153-.622-.956 0-1.569.684-1.757 1.723z" style="fill:none;stroke:#0098da;stroke-width:.2;stroke-linecap:butt;stroke-linejoin:miter;stroke-miterlimit:10;stroke-dasharray:none;stroke-opacity:1" transform="translate(23.951 29.06)"/><path d="m0 0-.804-.479c-.193-.121-.366-.21-.6-.21-.306 0-.652.149-.652.579 0 .26.122.45.316.56L.275 1.609c.142.08.254.11.397.11.428 0 .753-.289.753-.669v-5.907c0-.34-.325-.64-.712-.64-.398 0-.713.3-.713.64z" style="fill:#0098da;fill-opacity:1;fill-rule:nonzero;stroke:none" transform="translate(29.993 10.964)"/><path d="m0 0-.804-.479c-.193-.121-.366-.21-.6-.21-.306 0-.652.149-.652.579 0 .26.122.45.316.56L.275 1.609c.142.08.254.11.397.11.428 0 .753-.289.753-.669v-5.907c0-.34-.325-.64-.712-.64-.398 0-.713.3-.713.64z" style="fill:none;stroke:#0098da;stroke-width:.2;stroke-linecap:butt;stroke-linejoin:miter;stroke-miterlimit:10;stroke-dasharray:none;stroke-opacity:1" transform="translate(29.993 10.964)"/><path d="M0 0c1.059-.19 1.771-.92 1.771-1.999 0-1.079-.764-2.389-2.535-2.389-.478 0-2.106.13-2.106.96 0 .329.295.619.672.619.427 0 .691-.37 1.384-.37.885 0 1.169.601 1.169 1.12 0 .66-.447.919-1.16.919-.264 0-.264-.109-.518-.109a.657.657 0 0 0-.662.659c0 .101.02.18.071.24l1.517 1.809h-1.639c-.397 0-.702.28-.702.63 0 .359.305.659.702.659h2.84c.437 0 .743-.289.743-.679 0-.17-.062-.33-.163-.45z" style="fill:#0098da;fill-opacity:1;fill-rule:nonzero;stroke:none" transform="translate(35.776 9.854)"/><path d="M0 0c1.059-.19 1.771-.92 1.771-1.999 0-1.079-.764-2.389-2.535-2.389-.478 0-2.106.13-2.106.96 0 .329.295.619.672.619.427 0 .691-.37 1.384-.37.885 0 1.169.601 1.169 1.12 0 .66-.447.919-1.16.919-.264 0-.264-.109-.518-.109a.657.657 0 0 0-.662.659c0 .101.02.18.071.24l1.517 1.809h-1.639c-.397 0-.702.28-.702.63 0 .359.305.659.702.659h2.84c.437 0 .743-.289.743-.679 0-.17-.062-.33-.163-.45z" style="fill:none;stroke:#0098da;stroke-width:.2;stroke-linecap:butt;stroke-linejoin:miter;stroke-miterlimit:10;stroke-dasharray:none;stroke-opacity:1" transform="translate(35.776 9.854)"/><path d="M0 0c0 .88-.184 1.689-1.059 1.689-.722 0-.966-.53-.966-1.109 0-.71.376-1.04.997-1.04.397 0 .794.13 1.028.34zm-.031-1.409c-.387-.23-.723-.3-1.099-.3-1.242 0-2.31.76-2.31 2.278 0 1.3.794 2.389 2.432 2.389 1.883 0 2.433-1.449 2.433-3.437 0-2.429-.824-3.789-2.555-3.789-.417 0-1.781.081-1.862.78-.041.309.203.62.631.62.336 0 .631-.181 1.109-.191.967-.019 1.149.71 1.221 1.65" style="fill:#0098da;fill-opacity:1;fill-rule:nonzero;stroke:none" transform="translate(41.377 9.725)"/><path d="M0 0c0 .88-.184 1.689-1.059 1.689-.722 0-.966-.53-.966-1.109 0-.71.376-1.04.997-1.04.397 0 .794.13 1.028.34zm-.031-1.409c-.387-.23-.723-.3-1.099-.3-1.242 0-2.31.76-2.31 2.278 0 1.3.794 2.389 2.432 2.389 1.883 0 2.433-1.449 2.433-3.437 0-2.429-.824-3.789-2.555-3.789-.417 0-1.781.081-1.862.78-.041.309.203.62.631.62.336 0 .631-.181 1.109-.191.967-.019 1.149.71 1.221 1.65z" style="fill:none;stroke:#0098da;stroke-width:.2;stroke-linecap:butt;stroke-linejoin:miter;stroke-miterlimit:10;stroke-dasharray:none;stroke-opacity:1" transform="translate(41.377 9.725)"/><path d="M0 0a.849.849 0 0 0-.601 1.45l2.909 2.908a.849.849 0 0 0 1.201 0l2.74-2.74A.849.849 0 1 0 5.048.417l-2.14 2.139L.601.249A.845.845 0 0 0 0 0" style="fill:#0098da;fill-opacity:1;fill-rule:nonzero;stroke:none" transform="translate(43.482 15.02)"/></g></svg>