<svg xmlns="http://www.w3.org/2000/svg" xml:space="preserve" width="69.33" height="71.31"><defs><clipPath clipPathUnits="userSpaceOnUse" id="a"><path d="M0 53.48h52V0H0Z"/></clipPath></defs><g clip-path="url(#a)" transform="matrix(1.33333 0 0 -1.33333 0 71.31)"><path d="M33.07 10.23H22.23a.92.92 0 1 0 0 1.84h10.84a.92.92 0 1 0 0-1.84M31.06 21.6ZM31.32 20.79Zm-6.96-1.58zm6.46-.42Zm-6.33 0zm3.16-.35c.22 0 .44-.05.63-.15l1.05-.55-.2 1.16c-.07.44.08.9.4 1.21l.84.81-1.17.17c-.44.07-.82.35-1.03.75l-.52 1.06-.52-1.06c-.2-.4-.59-.68-1.03-.75l-1.16-.17.84-.81c.32-.32.47-.77.39-1.22l-.2-1.15 1.04.54c.2.1.42.16.64.16m2.31-2.94c-.22 0-.44.06-.64.16l-1.67.88-1.66-.88a1.37 1.37 0 0 0-2 1.44l.32 1.86-1.35 1.32a1.37 1.37 0 0 0 .77 2.33l1.86.27.83 1.68v.01a1.37 1.37 0 0 0 2.46 0l.83-1.69 1.87-.27a1.37 1.37 0 0 0 .76-2.33l-1.35-1.32.32-1.86a1.37 1.37 0 0 0-1.35-1.6" fill="#ffffff"/><path d="M19.52 21.52h-.01zm-.49-7.41a1.38 1.38 0 0 0-1.35 1.6l.32 1.85-1.36 1.32c-.37.36-.5.91-.34 1.4.16.5.6.86 1.1.93l1.87.27.83 1.68c.24.48.71.77 1.24.77a.92.92 0 0 0 .31-1.79l-.84-1.7c-.2-.4-.59-.68-1.03-.75l-1.16-.16.84-.82c.32-.32.47-.77.4-1.2l-.2-1.17 1.03.54c.4.21.88.21 1.28 0l.8-.42a.92.92 0 1 0-.85-1.63l-.59.3-1.66-.87c-.2-.1-.42-.15-.64-.15M35.78 21.52Zm1.85-2.13Zm-1.82-4zm.46-1.28c-.22 0-.43.05-.63.15l-1.67.88-.6-.31a.92.92 0 1 0-.86 1.63l.82.42c.4.22.88.21 1.28 0l1.04-.54-.2 1.16c-.08.44.07.89.39 1.2l.84.83-1.16.16c-.44.07-.83.35-1.03.75l-.84 1.7a.92.92 0 0 0 .31 1.79c.56.01 1-.3 1.24-.76l.83-1.69 1.87-.27c.51-.07.94-.42 1.1-.92.17-.5.03-1.05-.34-1.41l-1.36-1.32.32-1.86a1.37 1.37 0 0 0-1.35-1.6" fill="#ffffff"/><path d="M6.4 49.92a3.26 3.26 0 0 1-3.26-3.26V7.01c0-1.8 1.46-3.25 3.26-3.25h39.65c1.8 0 3.25 1.46 3.25 3.25v39.65c0 1.8-1.46 3.26-3.25 3.26Zm39.65-48H6.4a5.1 5.1 0 0 0-5.1 5.1v39.64a5.1 5.1 0 0 0 5.1 5.1h39.65a5.1 5.1 0 0 0 5.1-5.1V7.01a5.1 5.1 0 0 0-5.1-5.1" fill="#ffffff"/><path d="M8.73 46.27a.77.77 0 0 1 0-1.54.77.77 0 0 1 0 1.54m0-3.38a2.61 2.61 0 1 0 0 5.23 2.61 2.61 0 0 0 0-5.23M15.85 46.27a.77.77 0 0 1 0-1.54.77.77 0 0 1 0 1.54m0-3.38a2.61 2.61 0 1 0 0 5.23 2.61 2.61 0 0 0 0-5.23M22.97 46.27a.77.77 0 0 1 0-1.54.77.77 0 0 1 0 1.54m0-3.38a2.61 2.61 0 1 0 0 5.23 2.61 2.61 0 0 0 0-5.23M41.84 6.8H13.46a.92.92 0 1 0 0 1.84h28.38a.92.92 0 1 0 0-1.85M39.81 33.96a.92.92 0 0 0-.65.27l-3.52 3.53-3.52-3.53a.92.92 0 1 0-1.3 1.3l4.17 4.18c.36.36.94.36 1.3 0l4.18-4.17a.92.92 0 0 0-.66-1.58" fill="#ffffff"/><path d="M35.64 25.82c-.5 0-.92.41-.92.92v12.32a.92.92 0 1 0 1.84 0V26.74c0-.5-.41-.92-.92-.92M6.42 29.79c-.5 0-.92.41-.92.92v8.35c0 .5.41.92.92.92h24a.92.92 0 1 0 0-1.84H7.34V30.7c0-.5-.4-.92-.92-.92M7.47 6.83c-.51 0-.92.42-.92.93v14.6c0 .25.1.48.27.66l8.34 8.34c.18.18.41.27.66.27h15.65a.92.92 0 0 0 0-1.84H16.2l-7.81-7.8V7.75c0-.51-.41-.93-.92-.93M45.03 6.83c-.5 0-.92.42-.92.93v20.86c0 .43-.17 1.17-1.17 1.17h-3.13a.92.92 0 0 0 0 1.84h3.13c2.21 0 3.01-1.8 3.01-3V7.75c0-.51-.4-.93-.92-.93" fill="#ffffff"/><path d="m13.37 20.4-5.96.34a.92.92 0 0 0 .11 1.84l5.9-.34c.59 0 1.11.52 1.11 1.17l.36 7.35a.92.92 0 1 0 1.84-.1l-.36-7.3a3 3 0 0 0-3-2.96M46.08 32.92c-.51 0-.93.41-.93.92v4.3h-4.3a.92.92 0 0 0 0 1.84h5.23c.5 0 .92-.41.92-.92v-5.22c0-.5-.42-.92-.92-.92" fill="#ffffff"/></g></svg>