<svg width="44" height="27" fill="none" xmlns="http://www.w3.org/2000/svg"><path d="M37.53 22.91h-9.45a.62.62 0 01-.63-.62V8.07c0-.34.28-.62.63-.62h9.45c.35 0 .63.28.63.62v2.13c0 .35-.28.62-.63.62a.62.62 0 01-.63-.62V8.7h-8.2v12.98h8.2v-1.76c0-.34.28-.61.63-.61s.63.27.63.61v2.37c0 .35-.28.62-.63.62z" fill="#0098DA"/><path d="M42.1 15.8h-9.77a.62.62 0 01-.63-.62c0-.34.28-.62.63-.62h9.77a.62.62 0 110 1.24z" fill="#0098DA"/><path d="M39.86 19.17a.74.74 0 01-.45-.17.6.6 0 010-.86l2.97-3-2.97-2.84a.6.6 0 010-.86.62.62 0 01.87 0l3.42 3.3c.1.1.17.27.17.44 0 .18-.06.31-.17.45l-3.42 3.43c-.1.04-.28.1-.42.1zM8.79 10.44a4.9 4.9 0 01-1.05.62c-.31.14-.73.2-1.15.2-.38 0-.73-.06-1.01-.23a1.44 1.44 0 01-.66-.62 1.43 1.43 0 01-.25-.83c0-.4.14-.75.39-1.03.24-.27.62-.48 1.08-.58l.7-.14.97-.2c.28-.07.56-.14.87-.24-.03-.38-.1-.7-.24-.86-.14-.18-.42-.28-.87-.28-.39 0-.66.07-.87.17-.21.1-.35.28-.5.48-.13.21-.24.35-.27.42-.07.07-.18.1-.38.1a.74.74 0 01-.46-.17c-.14-.1-.17-.24-.17-.41 0-.28.1-.52.28-.76.17-.24.48-.45.87-.62.38-.17.9-.24 1.5-.24.66 0 1.18.07 1.57.24.38.14.66.41.8.72.14.35.24.8.24 1.34v1.72c0 .28.04.58.14.86.1.3.14.48.14.58 0 .14-.07.28-.2.42a.66.66 0 01-.5.17.68.68 0 01-.45-.2c-.2-.15-.38-.35-.52-.63zm-.1-2.13c-.22.07-.56.17-.98.24-.42.1-.7.14-.87.2-.18.04-.32.15-.46.25s-.2.27-.2.52c0 .24.06.4.24.58.17.17.38.24.66.24.31 0 .56-.07.84-.2.28-.14.45-.32.55-.49.14-.24.21-.58.21-1.1v-.24zM12.9 3.92v2.26c.28-.27.56-.51.88-.65a2.5 2.5 0 011.08-.24c.49 0 .94.1 1.32.34.39.24.67.59.87 1.03.21.45.32.97.32 1.58 0 .45-.07.86-.18 1.24a2.47 2.47 0 01-1.29 1.61c-.31.18-.66.25-1.04.25-.25 0-.46-.04-.67-.07a4.1 4.1 0 01-.52-.2c-.14-.11-.28-.18-.38-.28-.1-.1-.25-.24-.39-.42v.14c0 .28-.07.48-.2.62a.72.72 0 01-.53.2.72.72 0 01-.52-.2c-.14-.14-.18-.34-.18-.62V3.95c0-.3.07-.51.18-.69.1-.17.28-.24.52-.24.25 0 .42.07.53.2.17.22.2.42.2.7zm.1 4.4c0 .58.15 1.02.43 1.37.28.3.63.48 1.08.48.38 0 .7-.17.98-.48.27-.31.41-.8.41-1.41 0-.38-.07-.72-.17-1a1.33 1.33 0 00-1.22-.9c-.28 0-.56.08-.77.25-.2.17-.38.38-.52.65-.18.28-.21.62-.21 1.03zM24 9.45a1.63 1.63 0 01-.7 1.17c-.25.2-.53.34-.87.44-.35.1-.74.17-1.19.17-.94 0-1.64-.27-2.16-.79a2.94 2.94 0 01-.77-2.16c0-.62.1-1.14.35-1.62.24-.48.6-.82 1.05-1.1a3 3 0 011.6-.37c.38 0 .73.07 1.08.17a2.45 2.45 0 011.36 1.03c.1.2.18.38.18.55 0 .17-.07.34-.21.45a.66.66 0 01-.5.17c-.13 0-.24-.04-.3-.1a2.82 2.82 0 01-.28-.32 2.05 2.05 0 00-.6-.61c-.2-.14-.45-.2-.77-.2-.45 0-.8.16-1.08.5a2.2 2.2 0 00-.41 1.41c0 .28.03.55.1.76.07.24.17.45.31.58.14.18.28.28.5.38.17.07.38.14.62.14.31 0 .56-.07.77-.2.2-.14.42-.35.56-.63.1-.17.17-.3.3-.37.11-.1.25-.14.4-.14.17 0 .34.07.45.2.1.14.2.35.2.49zM7.4 21.74V16.8c-.95.72-1.58 1.06-1.89 1.06a.73.73 0 01-.42-.17.7.7 0 01-.17-.41c0-.17.07-.31.17-.41.1-.1.32-.21.63-.35.45-.2.8-.4 1.08-.65.28-.24.49-.48.7-.76.2-.27.35-.44.42-.51s.17-.1.35-.1c.2 0 .34.06.45.2a1 1 0 01.17.62v6.22c0 .72-.24 1.1-.76 1.1-.21 0-.42-.07-.53-.2-.14-.18-.2-.42-.2-.7zM13.43 21.2h2.9c.27 0 .48.06.65.17.18.1.21.27.21.48 0 .17-.07.34-.17.44-.1.14-.31.18-.56.18h-4.04c-.28 0-.5-.07-.63-.24a.8.8 0 01-.25-.52c0-.14.04-.3.14-.52.1-.2.21-.37.32-.51a21.63 21.63 0 012.16-1.96c.31-.2.56-.41.77-.62.2-.2.35-.4.45-.65.1-.24.17-.45.17-.65 0-.24-.06-.45-.17-.62a1.3 1.3 0 00-.45-.41 1.3 1.3 0 00-.63-.14c-.49 0-.87.2-1.15.62-.04.07-.1.2-.18.44-.07.24-.17.42-.28.55-.1.14-.27.21-.48.21a.67.67 0 01-.46-.17.67.67 0 01-.17-.48c0-.24.07-.52.17-.8.1-.27.28-.5.53-.71.2-.21.52-.42.87-.55.35-.14.77-.21 1.22-.21.56 0 1.05.1 1.43.28.24.1.49.27.66.48.21.2.35.44.46.68a2.22 2.22 0 01-.17 2.06c-.22.38-.46.66-.7.86-.25.2-.63.55-1.2 1a9.7 9.7 0 00-1.14 1.03c-.1.03-.21.14-.28.27zM20.72 17.7c.35 0 .62-.11.87-.32.24-.2.38-.48.38-.86 0-.27-.1-.51-.28-.72-.2-.2-.45-.3-.8-.3-.2 0-.42.03-.56.1-.14.06-.24.13-.35.24-.07.1-.17.24-.24.37l-.2.45a.36.36 0 01-.22.17c-.1.04-.2.07-.31.07a.73.73 0 01-.42-.17c-.14-.1-.18-.28-.18-.48a1.63 1.63 0 01.7-1.17c.25-.17.5-.34.84-.45a3.8 3.8 0 012.1-.03c.27.1.55.24.76.41.2.17.38.38.49.62.1.24.17.48.17.76 0 .37-.07.68-.24.92-.18.28-.39.52-.7.76.28.14.52.3.73.51a1.82 1.82 0 01.6 1.4c0 .36-.07.67-.21.97a2.51 2.51 0 01-1.53 1.37 3.3 3.3 0 01-2.38-.03 3.2 3.2 0 01-.87-.58c-.25-.24-.39-.48-.53-.72-.1-.24-.17-.45-.17-.62a.72.72 0 01.73-.72c.1 0 .21.03.32.1.1.07.17.14.17.2.18.52.38.9.63 1.14.2.24.52.38.9.38a1.46 1.46 0 001.2-.65c.13-.2.2-.48.2-.76 0-.41-.1-.75-.35-1a1.32 1.32 0 00-.97-.37c-.07 0-.18 0-.35.03-.14 0-.25.04-.32.04-.2 0-.35-.04-.45-.14a.56.56 0 01-.17-.41c0-.18.06-.31.2-.42.14-.1.32-.17.6-.17h.2v.07z" fill="#0098DA"/><path d="M31.84 27H4.46A4.42 4.42 0 010 22.6V4.4C0 1.96 1.99 0 4.46 0h27.38a4.42 4.42 0 014.47 4.4c0 .34-.28.62-.63.62a.62.62 0 01-.63-.62 3.18 3.18 0 00-3.2-3.16H4.45c-1.77 0-3.2 1.4-3.2 3.16v18.2a3.18 3.18 0 003.2 3.16h27.38c.35 0 .63.28.63.62 0 .35-.28.62-.63.62z" fill="#0098DA"/></svg>