<svg xmlns="http://www.w3.org/2000/svg" xml:space="preserve" width="66.667" height="66.667"><defs><clipPath clipPathUnits="userSpaceOnUse" id="a"><path d="M0 50h50V0H0Z"/></clipPath></defs><g clip-path="url(#a)" transform="matrix(1.33333 0 0 -1.33333 0 66.667)"><path d="M0 0h-10.576a3.302 3.302 0 0 0-3.298 3.297v15.116a3.302 3.302 0 0 0 3.298 3.297H5.749a3.3 3.3 0 0 0 3.297-3.297V8.862a.85.85 0 1 0-1.7 0v9.551c0 .881-.716 1.597-1.597 1.597h-16.325c-.88 0-1.597-.716-1.597-1.597V3.297A1.6 1.6 0 0 1-10.576 1.7H0A.85.85 0 0 0 0 0" style="fill:#0098da;fill-opacity:1;fill-rule:nonzero;stroke:none" transform="translate(14.403 26.976)"/><path d="M0 0h-16.325a3.302 3.302 0 0 0-3.297 3.298v8.397a.85.85 0 1 0 1.699 0V3.298a1.6 1.6 0 0 1 1.598-1.599H0a1.6 1.6 0 0 1 1.598 1.599v15.114A1.6 1.6 0 0 1 0 20.011h-10.073a.85.85 0 1 0 0 1.699H0a3.302 3.302 0 0 0 3.297-3.298V3.298A3.302 3.302 0 0 0 0 0" style="fill:#0098da;fill-opacity:1;fill-rule:nonzero;stroke:none" transform="translate(45.982 2.426)"/><path d="M0 0h-16.325a3.302 3.302 0 0 0-3.298 3.298v15.114a3.302 3.302 0 0 0 3.298 3.298h10.576a.85.85 0 1 0 0-1.699h-10.576a1.6 1.6 0 0 1-1.597-1.599V3.298a1.6 1.6 0 0 1 1.597-1.599H0a1.6 1.6 0 0 1 1.597 1.599v8.397a.85.85 0 1 0 1.7 0V3.298A3.302 3.302 0 0 0 0 0" style="fill:#0098da;fill-opacity:1;fill-rule:nonzero;stroke:none" transform="translate(20.152 2.426)"/><path d="M0 0h-10.265a.85.85 0 0 0 0 1.7H0a1.6 1.6 0 0 1 1.598 1.597v15.116A1.6 1.6 0 0 1 0 20.01h-16.325a1.6 1.6 0 0 1-1.598-1.597V8.862a.85.85 0 1 0-1.699 0v9.551a3.3 3.3 0 0 0 3.297 3.297H0a3.3 3.3 0 0 0 3.297-3.297V3.297A3.3 3.3 0 0 0 0 0" style="fill:#0098da;fill-opacity:1;fill-rule:nonzero;stroke:none" transform="translate(46.173 26.976)"/><path d="M0 0c-.167 0-.344-.051-.515-.342-.42-.714-.433-2.288.071-3.614C.344-3.044.849-1.82.837-.929.826-.1.417-.015.034-.001L0 0m1.28-7.418c-.8 0-1.54.332-2.159.958a4.19 4.19 0 0 0-1.637-.459.867.867 0 0 0-.908.799.855.855 0 0 0 .799.908c.267.017.527.082.777.187-.855 1.823-.94 4.19-.141 5.55.468.796 1.188 1.21 2.088 1.183C1.588 1.653 2.526.651 2.547-.906c.018-1.389-.751-3.235-2.026-4.515.233-.182.511-.309.82-.285.263.023.968.844 1.415 1.768a.854.854 0 0 0 .77.484h.002a.857.857 0 0 0 .771-.487l.714-1.503c.409.104.691.255.854.401a.854.854 0 1 0 1.139-1.276c-.328-.293-.779-.547-1.34-.754a1.751 1.751 0 0 0-2.198.895l-.038.08c-.51-.656-1.199-1.276-2.003-1.316a2.404 2.404 0 0 0-.147-.004" style="fill:#0098da;fill-opacity:1;fill-rule:nonzero;stroke:none" transform="translate(36.968 41.923)"/><path d="M0 0v-1.932l1.931.056L1.875.055zm1.931-3.575H-.056c-.906 0-1.643.737-1.643 1.643V.055c0 .906.737 1.643 1.643 1.643h1.987c.906 0 1.643-.737 1.643-1.643v-1.987c0-.906-.737-1.643-1.643-1.643" style="fill:#0098da;fill-opacity:1;fill-rule:nonzero;stroke:none" transform="translate(33.67 10.957)"/><path d="M0 0v-1.932l1.93.056L1.875.055zm1.93-3.575H-.056c-.906 0-1.643.737-1.643 1.643V.055c0 .906.737 1.643 1.643 1.643H1.93c.907 0 1.644-.737 1.644-1.643v-1.987c0-.906-.737-1.643-1.644-1.643" style="fill:#0098da;fill-opacity:1;fill-rule:nonzero;stroke:none" transform="translate(37.248 17.513)"/><path d="M0 0v-1.932l1.93.056L1.875.055zm1.93-3.575H-.056c-.906 0-1.643.737-1.643 1.643V.055c0 .906.737 1.643 1.643 1.643H1.93c.907 0 1.644-.737 1.644-1.643v-1.987c0-.906-.737-1.643-1.644-1.643" style="fill:#0098da;fill-opacity:1;fill-rule:nonzero;stroke:none" transform="translate(40.227 10.957)"/><path d="M0 0a2.207 2.207 0 0 1-2.204-2.204c0-1.215.989-2.204 2.204-2.204 1.215 0 2.204.989 2.204 2.204A2.207 2.207 0 0 1 0 0m0-6.108a3.909 3.909 0 0 0-3.904 3.904A3.908 3.908 0 0 0 0 1.7a3.908 3.908 0 0 0 3.904-3.904A3.909 3.909 0 0 0 0-6.108" style="fill:#0098da;fill-opacity:1;fill-rule:nonzero;stroke:none" transform="translate(9.947 42.358)"/><path d="M0 0a.844.844 0 0 0-.455.133 6.52 6.52 0 0 1-6.931.023.85.85 0 1 0-.903 1.44 8.231 8.231 0 0 0 8.746-.029A.85.85 0 0 0 0 0" style="fill:#0098da;fill-opacity:1;fill-rule:nonzero;stroke:none" transform="translate(14.302 34.231)"/><path d="M0 0c-.41 0-.819.154-1.132.465l-1.733 1.716a.855.855 0 1 0 1.203 1.214l1.661-1.644 3.978 4.01a.856.856 0 0 0 1.214-1.205L1.142.474A1.605 1.605 0 0 0 0 0" style="fill:#0098da;fill-opacity:1;fill-rule:nonzero;stroke:none" transform="translate(10.83 8.827)"/><path d="M0 0a6.742 6.742 0 0 1-6.735-6.734A6.743 6.743 0 0 1 0-13.47a6.744 6.744 0 0 1 6.735 6.736A6.743 6.743 0 0 1 0 0m0-15.169c-4.651 0-8.435 3.783-8.435 8.435C-8.435-2.083-4.651 1.7 0 1.7c4.651 0 8.434-3.783 8.434-8.434 0-4.652-3.783-8.435-8.434-8.435" style="fill:#0098da;fill-opacity:1;fill-rule:nonzero;stroke:none" transform="translate(25.067 31.872)"/><path d="M0 0a.849.849 0 0 0-.601 1.45L2.76 4.812a.853.853 0 0 0 1.202 0l3.167-3.167A.852.852 0 0 0 7.128.442a.852.852 0 0 0-1.202.001L3.361 3.009.601.249A.846.846 0 0 0 0 0" style="fill:#0098da;fill-opacity:1;fill-rule:nonzero;stroke:none" transform="translate(21.803 24.263)"/><path d="M0 0a.85.85 0 0 0-.85.85v6.968a.85.85 0 1 0 1.7 0V.85A.85.85 0 0 0 0 0" style="fill:#0098da;fill-opacity:1;fill-rule:nonzero;stroke:none" transform="translate(25.164 20.656)"/></g></svg>