<svg xmlns="http://www.w3.org/2000/svg" xml:space="preserve" width="69.33" height="69.25"><defs><clipPath clipPathUnits="userSpaceOnUse" id="a"><path d="M0 51.94h52V0H0Z"/></clipPath></defs><g clip-path="url(#a)" transform="matrix(1.33333 0 0 -1.33333 0 69.25)"><path d="M44.02 15.51H32.29a.92.92 0 0 0 0 1.84h11.73a.92.92 0 1 0 0-1.84M38.92 10.48H27.2a.92.92 0 0 0 0 1.84h11.72a.92.92 0 1 0 0-1.84M44.08 10.48h-1.67a.92.92 0 1 0 0 1.84h1.67a.92.92 0 1 0 0-1.84M44.08 20.61H27.2a.92.92 0 1 0 0 1.84h16.88a.92.92 0 1 0 0-1.84M28.93 15.51h-1.66a.92.92 0 1 0 0 1.84h1.66a.92.92 0 1 0 0-1.84" fill="#0098da"/><path d="M6.4 49.02a3.26 3.26 0 0 1-3.26-3.26V6.11c0-1.8 1.46-3.25 3.26-3.25h39.65c1.8 0 3.25 1.46 3.25 3.25v39.65c0 1.8-1.46 3.26-3.25 3.26Zm39.65-48H6.4a5.1 5.1 0 0 0-5.1 5.1v39.64a5.1 5.1 0 0 0 5.1 5.1h39.65a5.1 5.1 0 0 0 5.1-5.1V6.11a5.1 5.1 0 0 0-5.1-5.1" fill="#0098da"/><path d="M8.73 45.37a.77.77 0 0 1 0-1.54.77.77 0 0 1 0 1.54m0-3.38a2.61 2.61 0 1 0 0 5.23 2.61 2.61 0 0 0 0-5.23M15.85 45.37a.77.77 0 0 1 0-1.54.77.77 0 0 1 0 1.54m0-3.38a2.61 2.61 0 1 0 0 5.23 2.61 2.61 0 0 0 0-5.23M22.97 45.37a.77.77 0 0 1 0-1.54.77.77 0 0 1 0 1.54m0-3.38a2.61 2.61 0 1 0 0 5.23 2.61 2.61 0 0 0 0-5.23M39.81 33.06a.92.92 0 0 0-.65.27l-3.52 3.52-3.52-3.52a.92.92 0 1 0-1.3 1.3l4.17 4.18c.36.36.94.36 1.3 0l4.18-4.17a.92.92 0 0 0-.66-1.58" fill="#0098da"/><path d="M35.64 24.92c-.5 0-.92.4-.92.92v12.32a.92.92 0 1 0 1.84 0V25.84c0-.51-.41-.92-.92-.92M6.42 28.89c-.5 0-.92.41-.92.92v8.35c0 .5.41.92.92.92h22.92a.92.92 0 1 0 0-1.84h-22V29.8c0-.5-.4-.92-.92-.92M46.08 32.02c-.51 0-.93.41-.93.92v4.3h-4.3a.92.92 0 0 0 0 1.84h5.23c.5 0 .92-.41.92-.92v-5.22c0-.5-.42-.92-.92-.92M17.88 14.54a2.78 2.78 0 1 1 0-5.56 2.78 2.78 0 0 1 0 5.56m0-7.4a4.63 4.63 0 1 0 0 9.25 4.63 4.63 0 0 0 0-9.25M9.32 20.09a1.86 1.86 0 1 1 0-3.71 1.86 1.86 0 0 1 0 3.7m0-5.54a3.7 3.7 0 1 0 0 7.4 3.7 3.7 0 0 0 0-7.4M17.7 23.26a1.06 1.06 0 1 1 0-2.13 1.06 1.06 0 0 1 0 2.13m0-3.97a2.9 2.9 0 1 0 0 5.82 2.9 2.9 0 0 0 0-5.82" fill="#0098da"/><path d="M14.41 12.8a.92.92 0 0 0-.6.23l-3.03 2.66a.92.92 0 1 0 1.21 1.39l3.03-2.67a.92.92 0 0 0-.6-1.61M11.85 18.44a.92.92 0 0 0-.36 1.77l4 1.7a.92.92 0 0 0 .72-1.7l-4-1.7a.92.92 0 0 0-.36-.07" fill="#0098da"/></g></svg>