<svg xmlns="http://www.w3.org/2000/svg" xml:space="preserve" width="66.667" height="68"><defs><clipPath clipPathUnits="userSpaceOnUse" id="a"><path d="M0 51h50V0H0Z"/></clipPath></defs><g clip-path="url(#a)" transform="matrix(1.33333 0 0 -1.33333 0 68)"><path d="M0 0h-38.187a3.136 3.136 0 0 0-3.132 3.133v29.975h23.796a.886.886 0 1 1 0 1.774h-23.796v6.437a3.136 3.136 0 0 0 3.132 3.132H0a3.136 3.136 0 0 0 3.133-3.132v-6.446c-.018.001-.032.009-.05.009h-8.156a.887.887 0 1 1 0-1.774h8.156c.018 0 .032.009.05.01V3.133A3.137 3.137 0 0 0 0 0m0 46.226h-38.187a4.913 4.913 0 0 1-4.907-4.907V3.133a4.911 4.911 0 0 1 4.907-4.906H0c2.705 0 4.906 2.2 4.906 4.906v38.186A4.913 4.913 0 0 1 0 46.226" style="fill:#ffffff;fill-opacity:1;fill-rule:nonzero;stroke:none" transform="translate(44.094 3.274)"/><path d="M0 0a.74.74 0 1 0 .739.74A.74.74 0 0 0 0 0m0 3.254A2.517 2.517 0 0 1-2.514.74 2.517 2.517 0 0 1 0-1.775 2.517 2.517 0 0 1 2.514.74 2.517 2.517 0 0 1 0 3.254" style="fill:#ffffff;fill-opacity:1;fill-rule:nonzero;stroke:none" transform="translate(8.08 42.734)"/><path d="M0 0a.74.74 0 1 0 .74.74A.74.74 0 0 0 0 0m0 3.254A2.517 2.517 0 0 1-2.514.74 2.517 2.517 0 0 1 0-1.775 2.517 2.517 0 0 1 2.514.74 2.517 2.517 0 0 1 0 3.254" style="fill:#ffffff;fill-opacity:1;fill-rule:nonzero;stroke:none" transform="translate(14.934 42.734)"/><path d="M0 0a.74.74 0 1 0 .74.74A.74.74 0 0 0 0 0m0 3.254A2.517 2.517 0 0 1-2.514.74 2.517 2.517 0 0 1 0-1.775 2.517 2.517 0 0 1 2.514.74 2.517 2.517 0 0 1 0 3.254" style="fill:#ffffff;fill-opacity:1;fill-rule:nonzero;stroke:none" transform="translate(21.788 42.734)"/><path d="M0 0a.88.88 0 0 1 .627.26l1.8 1.799v-3.742a.887.887 0 1 1 1.773 0v3.742L5.809.452a.884.884 0 0 1 1.253 0 .888.888 0 0 1 0 1.255l-3.121 3.12a.89.89 0 0 1-1.255 0L-.627 1.515A.888.888 0 0 1 0 0" style="fill:#ffffff;fill-opacity:1;fill-rule:nonzero;stroke:none" transform="translate(29.639 34.112)"/><path d="M0 0a.957.957 0 0 0-.798-.411l-16.111-.054c-.483.055-.599.243-.637.306-.184.3-.109.839-.052.993l2.743 6.416c.011 0 .021-.006.032-.006h12.168L.085.832V.831A.864.864 0 0 0 0 0m-12.227 13.398a.893.893 0 0 1 .071.349v6.149c0 .405-.363.781-.756.882a.598.598 0 0 0-.465.656c.031.256.337.531.743.531h7.756c.405 0 .711-.274.742-.531a.581.581 0 0 0-.165-.475h-1.507a.887.887 0 1 1 0-1.773h.53l-.055-3.79c-.581.117-1.541.189-2.364-.362-.38-.254-.822-.711-1.055-1.519-.642.068-1.458.02-2.121-.455-.466-.335-1.018-1.008-1.006-2.31a.888.888 0 0 1 .887-.878h.009c.49.004.883.405.879.895-.005.434.084.719.264.85.334.242 1.109.145 1.524.004a.882.882 0 0 1 .789.104.883.883 0 0 1 .388.694c.018.399.107.922.424 1.137.385.263 1.079.11 1.292.036.034-.013.069-.008.103-.016.012-.059.011-.121.035-.178l1.872-4.38H-14.1Zm8.647.525.079 5.41a2.348 2.348 0 0 1 1.126 2.314c-.142 1.173-1.241 2.093-2.503 2.093h-7.756c-1.262 0-2.362-.919-2.504-2.093-.117-.968.351-1.864 1.208-2.345v-5.373l-5.3-12.398c-.149-.348-.441-1.568.145-2.573.273-.471.839-1.058 2.079-1.191l16.211.047c.908 0 1.753.444 2.261 1.185.513.752.606 1.696.25 2.53z" style="fill:#ffffff;fill-opacity:1;fill-rule:nonzero;stroke:none" transform="translate(25.85 9.077)"/><path d="M0 0h1.556c.49 0 .886.396.886.887v1.466h.67V.887c0-.491.397-.887.887-.887h1.556v-.579H3.999a.887.887 0 0 1-.887-.887v-1.466h-.67v1.466c0 .49-.396.887-.886.887H0Zm.669-2.353v-.877c0-.814.672-1.475 1.497-1.475h1.223c.825 0 1.497.661 1.497 1.475v.877h.944c.826 0 1.498.662 1.498 1.475V.299c0 .813-.672 1.474-1.498 1.474h-.944v.878c0 .814-.672 1.475-1.497 1.475H2.166A1.488 1.488 0 0 1 .669 2.651v-.878h-.945A1.487 1.487 0 0 1-1.773.299V-.878c0-.813.671-1.475 1.497-1.475z" style="fill:#ffffff;fill-opacity:1;fill-rule:nonzero;stroke:none" transform="translate(30.173 18.19)"/><path d="M0 0h-17.28a.886.886 0 1 1 0-1.774H-.887v-2.44H-17.28a.887.887 0 0 1 0-1.775h15.37V-18.92a2.57 2.57 0 0 0-2.566-2.567h-7.628a.885.885 0 1 1 0-1.773h7.628a4.343 4.343 0 0 1 4.339 4.34V-5.989H0c.49 0 .887.398.887.888v4.213A.887.887 0 0 1 0 0" style="fill:#ffffff;fill-opacity:1;fill-rule:nonzero;stroke:none" transform="translate(42.7 30.19)"/></g></svg>