<svg xmlns="http://www.w3.org/2000/svg" width="39.99" height="39.99"><defs><clipPath clipPathUnits="userSpaceOnUse" id="a"><path d="M0 30h30V0H0z"/></clipPath></defs><g clip-path="url(#a)" transform="matrix(1.33333 0 0 -1.33333 0 39.99)"><path d="M13.89 21.76c.16-.17.32-.35.47-.54a.22.22 0 000-.28 7.8 7.8 0 00-.47-.53c.09.44.09.9 0 1.35m-4.32 1.02c.45.3.98.46 1.52.47a3.01 3.01 0 001.53-.46c.86-.97.86-2.43 0-3.4-.45-.3-.98-.46-1.52-.48-.54.02-1.07.18-1.53.47a2.57 2.57 0 000 3.4M8.3 20.41l-.47.53a.22.22 0 000 .28c.15.19.3.36.47.54-.09-.45-.09-.9 0-1.35m2.8-2.19c1.77 0 3.24 1.6 3.8 2.3.27.32.27.8 0 1.14-.56.69-2.03 2.29-3.8 2.29s-3.25-1.6-3.8-2.3a.92.92 0 010-1.14c.55-.69 2.02-2.29 3.8-2.29" fill="#0098da"/><path d="M10.3 21.08a.8.8 0 101.6 0 .8.8 0 00-1.6 0m.8-1.48a1.49 1.49 0 110 2.98 1.49 1.49 0 010-2.98" fill="#0098da"/><path d="M28.1 4.3a.54.54 0 00-.39-.16.54.54 0 00-.38.16l-3.5 3.5.06.07c.23.2.44.4.63.63l.07.07 3.5-3.5a.54.54 0 000-.77m-8.48 14.02a5.5 5.5 0 005.54-5.53 5.53 5.53 0 10-5.54 5.53M25.8 4.26a1.6 1.6 0 00-.6-.12H4.97l.07.13c.16.3.24.64.24.99v20.3c0 .44.36.8.8.8h19.88a.8.8 0 00.81-.8V7.78l-1.6 1.6.04.06a6.5 6.5 0 01-.99 7.96 6.47 6.47 0 01-3.86 1.86l.03 2.25-.01.91v.28l1.51-1.15c.2-.15.5-.1.64.08.08.1.1.22.1.34a.44.44 0 01-.18.3l-2.08 1.54a.84.84 0 01-1-.01l-2-1.52a.44.44 0 01-.18-.3.44.44 0 01.09-.34c.14-.2.45-.24.64-.09l1.17.93.4.35.05.04-.08-3.57a6.47 6.47 0 01-4.47-1.9c-.46-.47-.85-1-1.24-1.62H7.08a.5.5 0 010-.99h6.32l-.04-.11c-.1-.35-.18-.71-.22-1.07l-.01-.08H7.08a.5.5 0 010-.98h6l.01-.1c.04-.85.25-1.67.61-2.44l.06-.13H7.08a.5.5 0 010-.98h7.21l.1.01c.18-.26.38-.51.6-.74a6.48 6.48 0 017.96-.98l.06.03 2.92-2.91zm-21.5 1c0-.57-.42-1.05-.98-1.12h-.15c-.62 0-1.13.5-1.13 1.13v8.76c0 .21.18.39.4.39H4.3zm24.49.5l-1.03 1.07v18.73c0 .98-.8 1.79-1.8 1.79H6.1c-.99 0-1.8-.8-1.8-1.8V15.4H2.44c-.75 0-1.37-.61-1.37-1.37V5.27c0-1.17.95-2.11 2.11-2.11H25.2c.5 0 .97.14 1.38.4l.06.04.05-.05a1.52 1.52 0 012.1.05c.6.6.6 1.57 0 2.16" fill="#0098da"/><path d="M7.05 10.77h3.24c.24 0 .44.2.44.45v.06c0 .25-.2.45-.44.45H7.05a.45.45 0 01-.45-.45v-.06c0-.25.2-.45.45-.45M18 14.55c.11.2.25.24.37.24h.02c.29-.01.56-.1.56-.65.01-.6-.34-1.43-.89-2.03-.33.83-.38 1.9-.07 2.44m-1.24-4.2c.38.02.73.13 1.06.3.4-.41.87-.63 1.38-.63h.09c.53.03.98.46 1.3.9l.06-.13c.24-.5.82-.74 1.35-.55.35.13.64.29.85.48a.5.5 0 01-.67.74c-.11-.1-.3-.2-.53-.28-.03-.01-.08 0-.1.04l-.46.97a.5.5 0 01-.9 0c-.28-.58-.75-1.16-.95-1.17a.9.9 0 00-.6.23 4.37 4.37 0 011.32 2.9c-.01.98-.6 1.6-1.52 1.64-.54.02-1-.24-1.3-.74-.5-.85-.44-2.41.12-3.56a1.62 1.62 0 00-.57-.15.5.5 0 01-.46-.53.51.51 0 01.53-.47" fill="#0098da"/></g></svg>