<svg width="66.667" height="66.667" xmlns="http://www.w3.org/2000/svg"><defs><clipPath clipPathUnits="userSpaceOnUse" id="a"><path d="M0 50h50V0H0Z"/></clipPath></defs><g clip-path="url(#a)" transform="matrix(1.33333 0 0 -1.33333 0 66.667)"><path d="M15.798 14.247H6.574v1.222h9.224zm-9.223-1.716h9.224V7.026H6.575Zm-1.718 3.015V6.949c0-.905.736-1.639 1.641-1.639h9.378c.904 0 1.64.734 1.64 1.639v8.597c0 .904-.736 1.64-1.64 1.64H6.498a1.642 1.642 0 0 1-1.641-1.64" style="fill:#ffffff;fill-opacity:1;fill-rule:nonzero;stroke:none"/><path d="M0 0h10.791a.86.86 0 0 1 0 1.717H0a1.64 1.64 0 0 0-1.638 1.639v15.422A1.64 1.64 0 0 0 0 20.417h16.657a1.64 1.64 0 0 0 1.638-1.639V9.034a.86.86 0 0 1 1.718 0v9.744a3.36 3.36 0 0 1-3.356 3.356H0a3.36 3.36 0 0 1-3.356-3.356V3.356A3.36 3.36 0 0 1 0 0" style="fill:#ffffff;fill-opacity:1;fill-rule:nonzero;stroke:none" transform="translate(3.397 26.457)"/><path d="M0 0a.859.859 0 0 1-.859-.858v-8.57a1.64 1.64 0 0 0-1.638-1.638h-16.657a1.64 1.64 0 0 0-1.638 1.638V5.995a1.64 1.64 0 0 0 1.638 1.639h10.791a.859.859 0 1 1 0 1.717h-10.791a3.36 3.36 0 0 1-3.356-3.356V-9.428a3.359 3.359 0 0 1 3.356-3.355h16.657A3.359 3.359 0 0 1 .859-9.428v8.57A.859.859 0 0 1 0 0" style="fill:#ffffff;fill-opacity:1;fill-rule:nonzero;stroke:none" transform="translate(22.55 14.191)"/><path d="M0 0h-16.657a3.36 3.36 0 0 1-3.356-3.356V-13.1a.859.859 0 1 1 1.717 0v9.744c0 .903.735 1.639 1.639 1.639H0c.903 0 1.64-.736 1.64-1.639v-15.422c0-.904-.737-1.639-1.64-1.639h-10.474a.859.859 0 0 1 0-1.717H0a3.36 3.36 0 0 1 3.356 3.356v15.422A3.36 3.36 0 0 1 0 0" style="fill:#ffffff;fill-opacity:1;fill-rule:nonzero;stroke:none" transform="translate(46.603 48.591)"/><path d="M0 0h-10.277a.858.858 0 1 1 0-1.717H0a1.64 1.64 0 0 0 1.639-1.638v-15.423A1.64 1.64 0 0 0 0-20.417h-16.656a1.64 1.64 0 0 0-1.639 1.639v8.569a.857.857 0 1 1-1.717 0v-8.569a3.36 3.36 0 0 1 3.356-3.356H0a3.358 3.358 0 0 1 3.355 3.356v15.423A3.358 3.358 0 0 1 0 0" style="fill:#ffffff;fill-opacity:1;fill-rule:nonzero;stroke:none" transform="translate(46.645 23.542)"/><path d="m0 0 1.931.047.048-1.978L0-1.979Zm-1.717.047v-2.026c0-.92.749-1.668 1.67-1.668h2.026c.92 0 1.668.748 1.668 1.668V.047c0 .921-.748 1.668-1.668 1.668H-.047A1.67 1.67 0 0 1-1.717.047" style="fill:#ffffff;fill-opacity:1;fill-rule:nonzero;stroke:none" transform="translate(34.074 10.112)"/><path d="M0 0v1.979l1.931.047.047-1.977Zm1.978 3.695H-.049a1.67 1.67 0 0 1-1.668-1.669V0c0-.92.748-1.668 1.668-1.668h2.027c.92 0 1.669.748 1.669 1.668v2.026a1.67 1.67 0 0 1-1.669 1.669" style="fill:#ffffff;fill-opacity:1;fill-rule:nonzero;stroke:none" transform="translate(37.726 14.822)"/><path d="m0 0 1.931.047.048-1.978L0-1.979Zm-1.716.047v-2.026c0-.92.748-1.668 1.669-1.668h2.026c.92 0 1.668.748 1.668 1.668V.047c0 .921-.748 1.668-1.668 1.668H-.047A1.67 1.67 0 0 1-1.716.047" style="fill:#ffffff;fill-opacity:1;fill-rule:nonzero;stroke:none" transform="translate(40.764 10.112)"/><path d="M0 0h-.695a.278.278 0 0 1-.278-.278v-.695c0-.153.125-.278.278-.278H0c.154 0 .278.125.278.278v.695A.277.277 0 0 1 0 0" style="fill:#ffffff;fill-opacity:1;fill-rule:nonzero;stroke:none" transform="translate(9.341 11.429)"/><path d="M0 0h-.695a.277.277 0 0 1-.278-.278v-.695c0-.153.124-.278.278-.278H0c.153 0 .278.125.278.278v.695A.278.278 0 0 1 0 0" style="fill:#ffffff;fill-opacity:1;fill-rule:nonzero;stroke:none" transform="translate(11.534 11.429)"/><path d="M0 0h-.695a.277.277 0 0 1-.278-.278v-.695c0-.153.124-.278.278-.278H0c.153 0 .278.125.278.278v.695A.278.278 0 0 1 0 0" style="fill:#ffffff;fill-opacity:1;fill-rule:nonzero;stroke:none" transform="translate(13.64 11.429)"/><path d="M0 0h-.695a.278.278 0 0 1-.278-.277v-.696c0-.153.125-.277.278-.277H0c.154 0 .278.124.278.277v.696A.277.277 0 0 1 0 0" style="fill:#ffffff;fill-opacity:1;fill-rule:nonzero;stroke:none" transform="translate(9.341 9.388)"/><path d="M0 0h-.695a.277.277 0 0 1-.278-.277v-.696c0-.153.124-.277.278-.277H0c.153 0 .278.124.278.277v.696A.278.278 0 0 1 0 0" style="fill:#ffffff;fill-opacity:1;fill-rule:nonzero;stroke:none" transform="translate(11.534 9.388)"/><path d="M0 0h-.695a.277.277 0 0 1-.278-.277v-.696c0-.153.124-.277.278-.277H0c.153 0 .278.124.278.277v.696A.278.278 0 0 1 0 0" style="fill:#ffffff;fill-opacity:1;fill-rule:nonzero;stroke:none" transform="translate(13.64 9.388)"/><path d="M0 0a2.26 2.26 0 0 0 2.257-2.258A2.26 2.26 0 0 0 0-4.515a2.26 2.26 0 0 0-2.258 2.257A2.26 2.26 0 0 0 0 0m-4.281-7.864a.86.86 0 0 1 1.184-.271 6.663 6.663 0 0 0 7.08-.023.858.858 0 1 1 .922 1.449 8.287 8.287 0 0 1-2.781 1.104 3.966 3.966 0 0 1 1.851 3.347A3.98 3.98 0 0 1 0 1.717a3.98 3.98 0 0 1-3.976-3.975c0-1.507.853-2.804 2.093-3.478A8.305 8.305 0 0 1-4.01-6.68a.859.859 0 0 1-.271-1.184" style="fill:#ffffff;fill-opacity:1;fill-rule:nonzero;stroke:none" transform="translate(9.642 42.152)"/><path d="M0 0c.421 0 .84.161 1.159.481l4.132 4.165a.865.865 0 0 1-1.228 1.217L-.001 1.765l-1.7 1.685a.864.864 0 1 1-1.216-1.228L-1.149.471A1.631 1.631 0 0 1 0 0" style="fill:#ffffff;fill-opacity:1;fill-rule:nonzero;stroke:none" transform="translate(37.09 35.806)"/><path d="M0 0c-3.793 0-6.88 3.087-6.88 6.881A6.889 6.889 0 0 0 0 13.761c3.794 0 6.881-3.087 6.881-6.88A6.889 6.889 0 0 0 0 0m8.598 6.881c0 4.741-3.856 8.598-8.598 8.598-4.741 0-8.598-3.857-8.598-8.598 0-4.741 3.857-8.598 8.598-8.598 4.742 0 8.598 3.857 8.598 8.598" style="fill:#ffffff;fill-opacity:1;fill-rule:nonzero;stroke:none" transform="translate(25.068 17.691)"/><path d="M0 0c-.007.007-.018.01-.025.017a.864.864 0 0 1-.254.168.86.86 0 0 1-.926-.179L-1.214 0l-3.43-3.429A.859.859 0 0 1-3.43-4.644l1.964 1.963v-5.037a.859.859 0 1 1 1.717 0v5.038l1.766-1.765a.856.856 0 0 1 1.213 0 .857.857 0 0 1 0 1.214z" style="fill:#ffffff;fill-opacity:1;fill-rule:nonzero;stroke:none" transform="translate(25.775 28.584)"/></g></svg>