<svg xmlns="http://www.w3.org/2000/svg" xml:space="preserve" width="66.67" height="73.64"><defs><clipPath clipPathUnits="userSpaceOnUse" id="a"><path d="M0 55.23h50V0H0Z"/></clipPath></defs><g clip-path="url(#a)" transform="matrix(1.33333 0 0 -1.33333 0 73.64)"><path d="M47.23 5.24c0-1.3-1.06-2.36-2.36-2.36h-8.12a2.36 2.36 0 0 0-2.36 2.36v8.11c0 1.3 1.06 2.36 2.36 2.36h8.12c1.3 0 2.36-1.05 2.36-2.36Zm-2.36 12.25h-8.12a4.14 4.14 0 0 1-4.13-4.14V5.24a4.14 4.14 0 0 1 4.13-4.14h8.12A4.14 4.14 0 0 1 49 5.24v8.11a4.14 4.14 0 0 1-4.13 4.14" fill="#ffffff"/><path d="m43.64 12.87-2.83-2.68-2.83 2.68a.89.89 0 0 1-1.22-1.28l2.76-2.62-2.44-2.32a.89.89 0 1 1 1.22-1.28l2.5 2.37 2.51-2.37a.88.88 0 1 1 1.22 1.29l-2.43 2.3 2.76 2.63a.89.89 0 1 1-1.22 1.28M13.8 48.9a.89.89 0 0 1-1.25-.01l-4.7-4.76-2.02 2a.89.89 0 1 1-1.25-1.26l2.02-2a1.76 1.76 0 0 1 2.5.01l4.7 4.76c.35.35.35.91 0 1.25" fill="#ffffff"/><path d="M2.77 41.88v8.11c0 1.3 1.06 2.36 2.36 2.36h8.12c1.3 0 2.36-1.06 2.36-2.36v-8.11c0-1.3-1.06-2.36-2.36-2.36H5.13a2.36 2.36 0 0 0-2.36 2.36m14.61 0v8.11a4.14 4.14 0 0 1-4.13 4.14H5.13A4.14 4.14 0 0 1 1 49.99v-8.11a4.14 4.14 0 0 1 4.13-4.14h8.12a4.14 4.14 0 0 1 4.13 4.14M29.75 8.58H11.27a3.22 3.22 0 0 0-3.22 3.21v22.18a.89.89 0 0 1-1.77 0V11.79a5 5 0 0 1 4.98-4.99h18.5a.89.89 0 1 1 0 1.78M40.42 39.2l.08-.1h-5.33c-1.02 0-1.85.82-1.85 1.86l-.26 5.6zM20.08 47.7h11.16l.3-6.8a3.6 3.6 0 0 1 3.63-3.58h5.8v-17.2a.89.89 0 1 1 1.77 0v17.76l-.02.22.02.1c0 .12-.03.23-.07.33a3.66 3.66 0 0 1-1 1.9l-7.97 7.99a3.6 3.6 0 0 1-2.56 1.06H20.08a.89.89 0 1 1 0-1.78" fill="#ffffff"/><path d="M33.33 24.58c.49 0 .89.4.89.9 0 2.56-4.37 3.98-8.96 4.15v4.79c3.81-.18 6.29-1.5 6.29-2.38a.89.89 0 1 1 1.77 0c0 2.56-3.92 3.97-8.06 4.15v1.33a.89.89 0 0 1-1.77 0v-1.33c-4.14-.18-8.06-1.6-8.06-4.15a.89.89 0 1 1 1.77 0c0 .89 2.48 2.2 6.29 2.38v-4.8c-4.59-.16-8.96-1.58-8.96-4.15a.89.89 0 1 1 1.78 0c0 .77 2.52 2.22 7.18 2.38v-4.8c-3.17-.15-6.27-1.12-6.27-3.06 0-.49.4-.9.88-.9.5 0 .89.39.89.88.11.33 1.66 1.15 4.5 1.3V17.8a.89.89 0 1 1 1.77 0v3.46c2.84-.15 4.38-.96 4.5-1.28a.89.89 0 1 1 1.77 0c0 1.94-3.1 2.9-6.27 3.06v4.8c4.65-.16 7.18-1.61 7.18-2.38 0-.49.4-.89.89-.89" fill="#ffffff"/></g></svg>