<svg width="43" height="27" fill="none" xmlns="http://www.w3.org/2000/svg"><rect id="backgroundrect" width="100%" height="100%" x="0" y="0" fill="none" stroke="none"/><g class="currentLayer" style=""><title>Layer 1</title><path d="M36.2 22.88h-9.12a.6.6 0 01-.6-.62V8.04a.6.6 0 01.6-.62h9.12c.33 0 .6.27.6.62v2.13a.6.6 0 01-.6.62.6.6 0 01-.6-.62V8.66h-7.91v12.98h7.9V19.9a.6.6 0 01.6-.62c.34 0 .61.28.61.62v2.37a.6.6 0 01-.6.62z" fill="#ffffff" id="svg_1" class="selected" fill-opacity="1"/><path d="M40.6 15.77h-9.42a.6.6 0 01-.6-.62.6.6 0 01.6-.62h9.42c.34 0 .61.28.61.62a.6.6 0 01-.6.62z" fill="#ffffff" id="svg_2" class="selected" fill-opacity="1"/><path d="M38.45 19.13a.7.7 0 01-.44-.17.61.61 0 010-.86l2.86-2.99-2.86-2.85a.61.61 0 010-.86c.24-.24.6-.24.84 0l3.3 3.3c.1.1.17.28.17.45 0 .17-.07.3-.17.45l-3.3 3.43c-.1.03-.26.1-.4.1zM30.71 27H4.31A4.34 4.34 0 010 22.6V4.4C0 1.96 1.92 0 4.3 0h26.41c2.4 0 4.31 1.96 4.31 4.4 0 .34-.27.62-.6.62a.6.6 0 01-.61-.62 3.12 3.12 0 00-3.1-3.16H4.31c-1.72 0-3.1 1.4-3.1 3.16v18.2a3.12 3.12 0 003.1 3.16h26.4c.34 0 .6.28.6.62a.6.6 0 01-.6.62z" fill="#ffffff" id="svg_3" class="selected" fill-opacity="1"/><path d="M13.49 18.72a4.77 4.77 0 01-3.4-1.44 4.99 4.99 0 010-6.9l.81-.83a4.74 4.74 0 016.76 0 4.99 4.99 0 010 6.9l-.8.83a4.7 4.7 0 01-3.37 1.44zm-2.56-2.3a3.54 3.54 0 005.05 0l.8-.82a3.73 3.73 0 000-5.16 3.54 3.54 0 00-5.04 0l-.8.83a3.73 3.73 0 000 5.15z" fill="#ffffff" id="svg_4" class="selected" fill-opacity="1"/><path d="M20.18 11.85a4.77 4.77 0 01-3.4-1.44 4.99 4.99 0 010-6.9l.81-.83c.24-.24.6-.24.84 0s.24.62 0 .86l-.8.82a3.73 3.73 0 000 5.16 3.54 3.54 0 005.04 0l.81-.83c.24-.24.6-.24.84 0s.24.62 0 .86l-.8.82a4.37 4.37 0 01-3.34 1.48zM9.65 24.39a.7.7 0 01-.43-.17.61.61 0 010-.86l.8-.83a3.73 3.73 0 000-5.15 3.54 3.54 0 00-5.04 0l-.8.83a.58.58 0 01-.85 0 .61.61 0 010-.86l.8-.83a4.74 4.74 0 016.77 0 4.99 4.99 0 010 6.9l-.8.83c-.14.07-.28.14-.45.14zM16.82 17.07a.7.7 0 01-.44-.17l-5.92-6.05a.61.61 0 010-.85c.24-.24.6-.24.84 0l5.92 6.04c.24.24.24.62 0 .86-.1.14-.27.17-.4.17zM18.23 14.98a.7.7 0 01-.43-.17l-5.22-5.33a.61.61 0 010-.86c.24-.24.6-.24.84 0l5.22 5.33c.23.24.23.61 0 .86-.07.1-.24.17-.4.17z" fill="#ffffff" id="svg_5" class="selected" fill-opacity="1"/><path d="M11.1 22.6a.7.7 0 01-.44-.17l-5.55-5.67a.61.61 0 010-.86c.24-.24.6-.24.84 0l5.56 5.67c.23.24.23.62 0 .86-.1.1-.27.17-.4.17zM22.14 11.3a.7.7 0 01-.44-.17l-5.55-5.67a.61.61 0 010-.86c.23-.24.6-.24.84 0l5.55 5.67c.23.24.23.62 0 .86-.07.1-.24.17-.4.17zM14.6 18.52a.7.7 0 01-.44-.18l-4.98-5.08a.61.61 0 010-.86c.24-.24.6-.24.84 0L15 17.48c.24.25.24.62 0 .86-.1.1-.23.18-.4.18z" fill="#ffffff" id="svg_6" class="selected" fill-opacity="1"/></g></svg>