<svg xmlns="http://www.w3.org/2000/svg" xml:space="preserve" width="66.667" height="64.345"><defs><clipPath clipPathUnits="userSpaceOnUse" id="a"><path d="M0 48.259h50V0H0Z"/></clipPath></defs><g clip-path="url(#a)" transform="matrix(1.33333 0 0 -1.33333 0 64.345)"><path d="M0 0a5.603 5.603 0 0 1-3.07-.915 5.586 5.586 0 0 1-2.427-3.556 5.586 5.586 0 0 1 .798-4.23 5.588 5.588 0 0 1 3.555-2.428 5.594 5.594 0 0 1 4.231.798 5.631 5.631 0 0 1 1.629 7.787A5.625 5.625 0 0 1 0 0m.023-12.926c-.502 0-1.007.053-1.51.157a7.257 7.257 0 0 0-4.614 3.152 7.246 7.246 0 0 0-1.035 5.489A7.245 7.245 0 0 0-3.987.485C-.618 2.69 3.915 1.74 6.118-1.628 8.321-4.997 7.372-9.53 4.004-11.732a7.244 7.244 0 0 0-3.981-1.194" style="fill:#0098da;fill-opacity:1;fill-rule:nonzero;stroke:none" transform="translate(19.768 16.194)"/><path d="M0 0c-.39 0-.781.146-1.079.442l-1.603 1.587A.838.838 0 0 0-1.503 3.22L0 1.731l3.645 3.676a.837.837 0 1 0 1.189-1.179L1.09.452A1.53 1.53 0 0 0 0 0" style="fill:#0098da;fill-opacity:1;fill-rule:nonzero;stroke:none" transform="translate(18.765 7.288)"/><path d="M0 0h25.257v3.487c0 .73-.594 1.325-1.324 1.325H1.325A1.327 1.327 0 0 1 0 3.487Zm26.095-1.675H-.837a.838.838 0 0 0-.838.838v4.324a3.003 3.003 0 0 0 3 2.999h22.608a3.003 3.003 0 0 0 2.999-2.999V-.837a.838.838 0 0 0-.837-.838" style="fill:#0098da;fill-opacity:1;fill-rule:nonzero;stroke:none" transform="translate(2.771 39.168)"/><path d="M0 0h-2.581a5.168 5.168 0 0 0-5.163 5.162v21.623c0 .462.376.837.838.837h22.608a.837.837 0 0 0 .837-.837v-6.568a.837.837 0 1 0-1.675 0v5.73H-6.068V5.162a3.49 3.49 0 0 1 3.487-3.487H0A.838.838 0 0 0 0 0" style="fill:#0098da;fill-opacity:1;fill-rule:nonzero;stroke:none" transform="translate(11.002 11.546)"/><path d="M0 0a.838.838 0 0 0-.838.837v16.084c0 .462.376.838.838.838h22.608a.838.838 0 0 0 .837-.838v-.297a.838.838 0 0 0-1.477-.541H.837V.837A.837.837 0 0 0 0 0" style="fill:#0098da;fill-opacity:1;fill-rule:nonzero;stroke:none" transform="translate(4.096 16.936)"/><path d="M0 0v-.002zm-5.695-1.521a.838.838 0 0 0 .838-.838v-2.359l1.611.051-.021 2.308c0 .463.376.838.838.838h2.45l-.02 1.47h-2.43a.838.838 0 0 0-.838.838v2.359l-1.611-.052.021-2.307a.838.838 0 0 0-.838-.838h-2.45l.021-1.521zm2.449-4.82h-1.632c-.913 0-1.655.728-1.655 1.623v1.521h-1.612c-.912 0-1.654.729-1.654 1.625V0c0 .896.742 1.624 1.654 1.624h1.612v1.522c0 .895.742 1.624 1.655 1.624h1.632c.913 0 1.655-.729 1.655-1.624V1.624H.021C.933 1.624 1.675.896 1.675 0v-1.572c0-.896-.742-1.625-1.654-1.625h-1.612v-1.521c0-.895-.742-1.623-1.655-1.623" style="fill:#0098da;fill-opacity:1;fill-rule:nonzero;stroke:none" transform="translate(19.954 26.6)"/><path d="M0 0h.004zm-2.758-4.438.001-.001-.001.001m-.008-.318-.001-.001ZM8.22-5.094h.01zm-2.757-6.115-.043.001-5.767.178a1.36 1.36 0 0 0-1.155.715l-2.729 5.083c-.231.424-.215.946.042 1.359l3.035 4.904c.255.412.728.651 1.198.643l3.334-.075a.835.835 0 0 0 .818-.855c-.009-.462-.375-.854-.855-.819L.175-.004-2.67-4.601l2.557-4.761 5.402-.165 2.844 4.59-1.604 2.873a.837.837 0 0 0 1.463.815l1.697-3.04a1.368 1.368 0 0 0-.033-1.366l-3.039-4.91a1.36 1.36 0 0 0-1.154-.644" style="fill:#0098da;fill-opacity:1;fill-rule:nonzero;stroke:none" transform="translate(37.401 23.467)"/><path d="m0 0 .001-.001zm-3.174-11.102-.026.001-2.637.08a1.365 1.365 0 0 0-1.154.714l-2.732 5.084c-.228.429-.212.949.042 1.359l3.037 4.906c.255.411.666.672 1.198.643l5.767-.178A1.36 1.36 0 0 0 1.477.791L4.206-4.29a1.365 1.365 0 0 0-.039-1.356L2.329-8.505A.836.836 0 1 0 .92-7.6l1.723 2.681L.086-.161l-5.402.166-2.844-4.596 2.557-4.761 2.455-.075a.837.837 0 0 0-.026-1.675" style="fill:#0098da;fill-opacity:1;fill-rule:nonzero;stroke:none" transform="translate(43.33 34.565)"/><path d="M0 0h.01zm-9.055-4.145 5.402-.165L-.808.287l-2.557 4.76-5.403.166-2.844-4.595zm5.576-1.845-.042.001-5.767.177c-.485.015-.928.29-1.156.715l-2.73 5.083c-.229.426-.213.946.041 1.357l3.037 4.907c.255.412.718.665 1.198.643l5.766-.177a1.365 1.365 0 0 0 1.156-.715L.755.918A1.366 1.366 0 0 0 .712-.44v-.001l-3.036-4.905a1.361 1.361 0 0 0-1.155-.644" style="fill:#0098da;fill-opacity:1;fill-rule:nonzero;stroke:none" transform="translate(37.023 23.699)"/><path d="M0 0a.835.835 0 0 0-.734.436l-1.624 2.959a.836.836 0 1 0 1.467.806l1.624-2.96A.836.836 0 0 0 0 0" style="fill:#0098da;fill-opacity:1;fill-rule:nonzero;stroke:none" transform="translate(45.033 8.604)"/><path d="M0 0a.838.838 0 0 0-.679 1.326l1.977 2.757a.836.836 0 1 0 1.36-.977L.682.349A.838.838 0 0 0 0 0" style="fill:#0098da;fill-opacity:1;fill-rule:nonzero;stroke:none" transform="translate(43.678 34.486)"/><path d="M0 0a.775.775 0 1 1 .776 1.34A.775.775 0 0 1 0 0m.384-1.779c-.416 0-.836.106-1.222.328A2.435 2.435 0 0 0-1.979.037a2.436 2.436 0 0 0 .245 1.859c.327.567.856.972 1.487 1.141a2.424 2.424 0 0 0 1.86-.245 2.433 2.433 0 0 0 1.141-1.487A2.431 2.431 0 0 0 2.51-.554 2.453 2.453 0 0 0 .384-1.779" style="fill:#0098da;fill-opacity:1;fill-rule:nonzero;stroke:none" transform="translate(46.258 38.736)"/><path d="M0 0a.777.777 0 0 1 0-1.552A.777.777 0 0 1 0 0m0-3.227a2.452 2.452 0 0 0 0 4.901A2.452 2.452 0 0 0 2.45-.775 2.452 2.452 0 0 0 0-3.227" style="fill:#0098da;fill-opacity:1;fill-rule:nonzero;stroke:none" transform="translate(45.682 8.779)"/><path d="M0 0a1.759 1.759 0 1 1-.006-3.518A1.759 1.759 0 0 1 0 0m-.009-5.191a3.426 3.426 0 0 0-3.31 2.544 3.404 3.404 0 0 0 .341 2.605 3.438 3.438 0 0 0 4.691 1.258 3.44 3.44 0 0 0 1.258-4.691 3.438 3.438 0 0 0-2.98-1.716" style="fill:#0098da;fill-opacity:1;fill-rule:nonzero;stroke:none" transform="translate(43.456 25.916)"/><path d="M0 0h-5.767a.837.837 0 0 0 0 1.675H0A.837.837 0 1 0 0 0" style="fill:#0098da;fill-opacity:1;fill-rule:nonzero;stroke:none" transform="translate(37.431 6.793)"/><path d="M0 0h-2.514a.837.837 0 1 0 0 1.674H0A.836.836 0 1 0 0 0" style="fill:#0098da;fill-opacity:1;fill-rule:nonzero;stroke:none" transform="translate(34.178 10.735)"/><path d="M0 0h-5.767a.837.837 0 0 0 0 1.675H0A.837.837 0 1 0 0 0" style="fill:#0098da;fill-opacity:1;fill-rule:nonzero;stroke:none" transform="translate(37.431 38.068)"/><path d="M0 0h-2.514a.838.838 0 1 0 0 1.675H0A.837.837 0 1 0 0 0" style="fill:#0098da;fill-opacity:1;fill-rule:nonzero;stroke:none" transform="translate(34.178 34.127)"/></g></svg>