<svg xmlns="http://www.w3.org/2000/svg" xml:space="preserve" width="66.667" height="66.667"><defs><clipPath clipPathUnits="userSpaceOnUse" id="a"><path d="M0 50h50V0H0Z"/></clipPath></defs><g clip-path="url(#a)" transform="matrix(1.33333 0 0 -1.33333 0 66.667)"><path d="M0 0h-15.834c-1.725 0-3.129 1.496-3.129 3.336v32.323c0 1.84 1.404 3.337 3.129 3.337H.316c.838 0 1.654-.366 2.238-1.004l8.922-9.733a3.44 3.44 0 0 0 .889-2.332v-8.959a.85.85 0 1 0-1.699 0v8.959c0 .444-.162.875-.444 1.184L1.3 36.844a1.33 1.33 0 0 1-.984.451h-16.15c-.788 0-1.429-.733-1.429-1.636V3.336c0-.902.641-1.637 1.429-1.637H0A.85.85 0 1 0 0 0" style="fill:#0098da;fill-opacity:1;fill-rule:nonzero;stroke:none" transform="translate(29.68 3.423)"/><path d="M0 0h-.024l-7.455.212c-1.789 0-3.262 1.6-3.262 3.568l.135 7.604c.007.469.427.82.864.835a.85.85 0 0 0 .835-.865l-.135-7.589c0-1.015.712-1.853 1.587-1.853L.024 1.7A.85.85 0 0 0 0 0" style="fill:#0098da;fill-opacity:1;fill-rule:nonzero;stroke:none" transform="translate(40.65 29.997)"/><path d="M0 0h-4.356C-6.37 0-8.008 1.757-8.008 3.917v25.694c0 2.16 1.638 3.917 3.652 3.917h17.414c2.013 0 3.651-1.757 3.651-3.917v-3.824a.85.85 0 1 0-1.699 0v3.824c0 1.222-.876 2.217-1.952 2.217H-4.356c-1.077 0-1.952-.995-1.952-2.217V3.917c0-1.223.875-2.218 1.952-2.218H0A.85.85 0 1 0 0 0" style="fill:#0098da;fill-opacity:1;fill-rule:nonzero;stroke:none" transform="translate(10.9 16.209)"/><path d="M0 0a6.92 6.92 0 0 1-6.912-6.911c0-3.812 3.1-6.912 6.912-6.912s6.912 3.1 6.912 6.912A6.92 6.92 0 0 1 0 0m0-15.522c-4.748 0-8.611 3.863-8.611 8.611 0 4.748 3.863 8.61 8.611 8.61 4.748 0 8.611-3.862 8.611-8.61 0-4.748-3.863-8.611-8.611-8.611" style="fill:#0098da;fill-opacity:1;fill-rule:nonzero;stroke:none" transform="translate(40.43 15.786)"/><path d="M0 0a.85.85 0 0 0-.85.85v7.761a.85.85 0 1 0 1.7 0V.85A.85.85 0 0 0 0 0" style="fill:#0098da;fill-opacity:1;fill-rule:nonzero;stroke:none" transform="translate(40.43 4.144)"/><path d="M0 0a.85.85 0 0 0-.602 1.45l2.911 2.911A.85.85 0 0 0 3.512 3.16L.602.249A.849.849 0 0 0 0 0" style="fill:#0098da;fill-opacity:1;fill-rule:nonzero;stroke:none" transform="translate(37.52 8.995)"/><path d="M0 0a.849.849 0 0 0-.602.249l-2.91 2.911a.85.85 0 0 0 1.203 1.201L.602 1.45A.85.85 0 0 0 0 0" style="fill:#0098da;fill-opacity:1;fill-rule:nonzero;stroke:none" transform="translate(43.34 8.995)"/><path d="M0 0h-9.305a.85.85 0 1 0 0 1.699H0A.85.85 0 1 0 0 0" style="fill:#0098da;fill-opacity:1;fill-rule:nonzero;stroke:none" transform="translate(32.195 16.322)"/><path d="M0 0h-6.592a.85.85 0 1 0 0 1.699H0A.85.85 0 1 0 0 0" style="fill:#0098da;fill-opacity:1;fill-rule:nonzero;stroke:none" transform="translate(29.482 10.651)"/><path d="M0 0a.851.851 0 0 0-.601.248l-1.375 1.374A.85.85 0 1 0-.773 2.825L0 2.052l1.461 1.461A.85.85 0 0 0 2.663 2.31L.601.248A.851.851 0 0 0 0 0" style="fill:#0098da;fill-opacity:1;fill-rule:nonzero;stroke:none" transform="translate(17.349 15.243)"/><path d="M0 0a.851.851 0 0 0-.601.248l-1.375 1.374A.85.85 0 1 0-.773 2.825L0 2.052l1.461 1.461A.85.85 0 0 0 2.663 2.31L.601.248A.851.851 0 0 0 0 0" style="fill:#0098da;fill-opacity:1;fill-rule:nonzero;stroke:none" transform="translate(17.349 9.572)"/><path d="m0 0-.726-.433c-.174-.108-.33-.189-.542-.189-.275 0-.587.136-.587.523 0 .235.11.406.284.505L.248 1.453c.128.071.23.099.358.099.386 0 .68-.262.68-.605v-5.33c0-.306-.294-.577-.643-.577-.358 0-.643.271-.643.577Z" style="fill:#0098da;fill-opacity:1;fill-rule:nonzero;stroke:none" transform="translate(16.577 26.673)"/><path d="m0 0-.726-.433c-.174-.108-.33-.189-.542-.189-.275 0-.587.136-.587.523 0 .235.11.406.284.505L.248 1.453c.128.071.23.099.358.099.386 0 .68-.262.68-.605v-5.33c0-.306-.294-.577-.643-.577-.358 0-.643.271-.643.577Z" style="fill:none;stroke:#0098da;stroke-width:.5;stroke-linecap:butt;stroke-linejoin:miter;stroke-miterlimit:10;stroke-dasharray:none;stroke-opacity:1" transform="translate(16.577 26.673)"/><path d="M0 0v-2.544c0-.514.294-.865.845-.865.551 0 .845.351.845.865V0c0 .577-.239.983-.845.983S0 .577 0 0m2.967-.063v-2.481c0-1.1-.754-1.975-2.122-1.975-1.369 0-2.122.875-2.122 1.975v2.481c0 1.19.643 2.146 2.122 2.146 1.479 0 2.122-.956 2.122-2.146" style="fill:#0098da;fill-opacity:1;fill-rule:nonzero;stroke:none" transform="translate(21 26.222)"/><path d="M0 0v-2.544c0-.514.294-.865.845-.865.551 0 .845.351.845.865V0c0 .577-.239.983-.845.983S0 .577 0 0Zm2.967-.063v-2.481c0-1.1-.754-1.975-2.122-1.975-1.369 0-2.122.875-2.122 1.975v2.481c0 1.19.643 2.146 2.122 2.146 1.479 0 2.122-.956 2.122-2.146z" style="fill:none;stroke:#0098da;stroke-width:.5;stroke-linecap:butt;stroke-linejoin:miter;stroke-miterlimit:10;stroke-dasharray:none;stroke-opacity:1" transform="translate(21 26.222)"/><path d="M0 0h-2.287c-.349 0-.616.234-.616.55 0 .298.267.551.616.551H0c.34 0 .606-.253.606-.551C.606.234.34 0 0 0" style="fill:#0098da;fill-opacity:1;fill-rule:nonzero;stroke:none" transform="translate(27.711 23.94)"/><path d="M0 0h-2.287c-.349 0-.616.234-.616.55 0 .298.267.551.616.551H0c.34 0 .606-.253.606-.551C.606.234.34 0 0 0Z" style="fill:none;stroke:#0098da;stroke-width:.5;stroke-linecap:butt;stroke-linejoin:miter;stroke-miterlimit:10;stroke-dasharray:none;stroke-opacity:1" transform="translate(27.711 23.94)"/><path d="m0 0 2.012-2.615a.45.45 0 0 0 .101-.307.627.627 0 0 0-.625-.604.64.64 0 0 0-.532.261L-.826-.92l-.166-.181V-2.94c0-.316-.294-.586-.643-.586-.358 0-.642.27-.642.586v5.357c0 .307.284.577.642.577.349 0 .643-.27.643-.577V.703L.827 2.732c.11.136.321.262.524.262.275 0 .633-.262.633-.577 0-.135-.008-.226-.156-.388z" style="fill:#0098da;fill-opacity:1;fill-rule:nonzero;stroke:none" transform="translate(31.666 25.23)"/><path d="m0 0 2.012-2.615a.45.45 0 0 0 .101-.307.627.627 0 0 0-.625-.604.64.64 0 0 0-.532.261L-.826-.92l-.166-.181V-2.94c0-.316-.294-.586-.643-.586-.358 0-.642.27-.642.586v5.357c0 .307.284.577.642.577.349 0 .643-.27.643-.577V.703L.827 2.732c.11.136.321.262.524.262.275 0 .633-.262.633-.577 0-.135-.008-.226-.156-.388z" style="fill:none;stroke:#0098da;stroke-width:.5;stroke-linecap:butt;stroke-linejoin:miter;stroke-miterlimit:10;stroke-dasharray:none;stroke-opacity:1" transform="translate(31.666 25.23)"/></g></svg>