<svg width="43" height="27" fill="none" xmlns="http://www.w3.org/2000/svg"><path d="M36.2 22.91h-9.12a.6.6 0 01-.6-.62V8.07a.6.6 0 01.6-.62h9.12c.33 0 .6.28.6.62v2.13a.6.6 0 01-.6.62.6.6 0 01-.6-.62V8.7h-7.91v12.98h7.9v-1.76a.6.6 0 01.6-.61c.34 0 .61.27.61.61v2.37a.6.6 0 01-.6.62z" fill="#0098DA"/><path d="M40.6 15.8h-9.42a.6.6 0 01-.6-.62.6.6 0 01.6-.62h9.42c.34 0 .61.28.61.62a.6.6 0 01-.6.62z" fill="#0098DA"/><path d="M38.45 19.17a.7.7 0 01-.44-.17.61.61 0 010-.86l2.86-3-2.86-2.84a.61.61 0 010-.86c.24-.24.6-.24.84 0l3.3 3.3c.1.1.17.27.17.44 0 .18-.07.31-.17.45l-3.3 3.43c-.1.04-.26.1-.4.1zM30.71 27H4.31A4.34 4.34 0 010 22.6V4.4C0 1.96 1.92 0 4.3 0h26.41c2.4 0 4.31 1.96 4.31 4.4 0 .34-.27.62-.6.62a.6.6 0 01-.61-.62 3.12 3.12 0 00-3.1-3.16H4.31c-1.72 0-3.1 1.4-3.1 3.16v18.2a3.12 3.12 0 003.1 3.16h26.4c.34 0 .6.28.6.62a.6.6 0 01-.6.62z" fill="#0098DA"/><path d="M14.87 14.4l1.31-8.46c1.82.31 3.3 1.07 4.61 2.4l-5.92 6.05z" fill="#0098DA"/><path d="M14.87 15.01c-.1 0-.2-.03-.27-.07a.65.65 0 01-.34-.65l1.32-8.45c.03-.17.1-.3.23-.41.14-.1.3-.14.44-.1a8.4 8.4 0 014.94 2.57c.1.1.17.28.17.45 0 .17-.07.3-.17.44l-5.92 6.05c-.1.1-.27.17-.4.17zm1.82-8.35l-.91 5.95 4.17-4.26a7.12 7.12 0 00-3.26-1.69zM4.7 14.36c-.3 0-.53-.2-.6-.52a9.3 9.3 0 011.62-6.83 8.87 8.87 0 018.71-3.68c.34.07.57.38.5.72L13.6 12.5a.58.58 0 01-.5.52L4.8 14.36h-.1zm8.32-9.9a7.75 7.75 0 00-6.3 3.3 7.82 7.82 0 00-1.44 5.3l7.23-1.17 1.15-7.39c-.24-.03-.44-.03-.64-.03z" fill="#0098DA"/><path d="M14.87 23.6a8.9 8.9 0 01-6.36-2.68A8.8 8.8 0 016 15.87c-.04-.17 0-.34.1-.45.1-.13.23-.2.4-.24l8.11-1.3 5.79-5.91c.23-.24.6-.24.84 0a9.2 9.2 0 012.62 6.5c0 2.43-.94 4.77-2.62 6.48a9.06 9.06 0 01-6.36 2.65zM7.3 16.25c.34 1.48 1 2.68 2.09 3.78a7.65 7.65 0 0011.03 0 7.98 7.98 0 002.29-5.64c0-1.92-.68-3.74-1.89-5.15l-5.48 5.6c-.1.1-.2.14-.34.17l-7.7 1.24z" fill="#0098DA"/></svg>