<svg xmlns="http://www.w3.org/2000/svg" width="66.667" height="66.667"><defs><clipPath id="a" clipPathUnits="userSpaceOnUse"><path d="M0 50h50V0H0Z"/></clipPath></defs><g clip-path="url(#a)" transform="matrix(1.33333 0 0 -1.33333 0 66.667)"><path d="M0 0c.318-.319.562-.69.746-1.086h-5.719A3.78 3.78 0 0 0-8.749 2.69v5.711a3.831 3.831 0 0 0 1.112-.764zm16.045-10.872-2.459 2.459a.831.831 0 0 1-1.172 0l-2.611-2.609a.83.83 0 0 1 1.172-1.174l1.249 1.249v-19.315c0-1.327-2.062-2.625-3.601-2.625H-5.603a2.629 2.629 0 0 0-2.625 2.625v17.94a2.628 2.628 0 0 0 2.625 2.624H4.711a2.715 2.715 0 0 1 2.712 2.712v10.27a4.848 4.848 0 0 1-1.449 3.461l-7.315 6.676a4.817 4.817 0 0 1-3.431 1.421h-14.749a3.73 3.73 0 0 1-3.727-3.726v-.69h-5.221a3.883 3.883 0 0 1-3.878-3.878v-36.783a3.673 3.673 0 0 1 3.67-3.668h15.821a.828.828 0 1 1 0 1.656h-15.821c-1.11 0-2.012.903-2.012 2.012V6.548c0 1.224.996 2.22 2.22 2.22h18.063V2.69a5.44 5.44 0 0 1 5.433-5.434h6.08v-2.609a.83.83 0 0 1 1.657 0v2.68c0 .246-.039.484-.071.724 0 .012.007.022.007.033 0 .035-.015.064-.019.098a5.393 5.393 0 0 1-1.509 2.989L-6.465 8.81a5.471 5.471 0 0 1-2.976 1.525c-.046.008-.088.028-.136.028-.017 0-.031-.009-.048-.01-.245.033-.489.073-.741.073H-21.59v.69c0 1.141.928 2.069 2.069 2.069h14.749c.853 0 1.655-.333 2.286-.962l7.314-6.676a3.178 3.178 0 0 0 .938-2.263v-10.27c0-.581-.473-1.054-1.055-1.054H-5.603a4.287 4.287 0 0 1-4.282-4.282v-17.94a4.287 4.287 0 0 1 4.282-4.282H8.623c2.382 0 5.257 1.91 5.257 4.282v19.21l.991-.992a.833.833 0 0 1 1.173-.001.832.832 0 0 1 .001 1.173" style="fill:#0098da;fill-opacity:1;fill-rule:nonzero;stroke:none" transform="translate(33.03 34.85)"/><path d="M0 0h-11.651a.828.828 0 1 1 0-1.656H0A.828.828 0 1 1 0 0" style="fill:#0098da;fill-opacity:1;fill-rule:nonzero;stroke:none" transform="translate(18.416 16.167)"/><path d="M0 0h-1.95a.828.828 0 1 1 0-1.656H0A.828.828 0 1 1 0 0" style="fill:#0098da;fill-opacity:1;fill-rule:nonzero;stroke:none" transform="translate(18.416 10.764)"/><path d="M0 0a.828.828 0 1 1 0-1.656h6.385a.828.828 0 1 1 0 1.656Z" style="fill:#0098da;fill-opacity:1;fill-rule:nonzero;stroke:none" transform="translate(6.765 10.764)"/><path d="M0 0h-5.68a.829.829 0 1 1 0-1.657H0A.828.828 0 1 1 0 0" style="fill:#0098da;fill-opacity:1;fill-rule:nonzero;stroke:none" transform="translate(18.416 21.571)"/><path d="M0 0h-2.851a.829.829 0 1 1 0-1.657H0A.828.828 0 1 1 0 0" style="fill:#0098da;fill-opacity:1;fill-rule:nonzero;stroke:none" transform="translate(9.616 21.571)"/><path d="M0 0v-1.524h-2.354a.83.83 0 0 1-.828-.829v-2.354h-1.524v2.354a.83.83 0 0 1-.829.829h-2.353V0h2.353a.83.83 0 0 1 .829.829v2.353h1.524V.829c0-.458.371-.829.828-.829Zm-2.884 4.839h-2.121c-.749 0-1.359-.61-1.359-1.359V1.658h-1.823A1.36 1.36 0 0 1-9.545.298v-2.121a1.36 1.36 0 0 1 1.358-1.359h1.823v-1.823c0-.749.61-1.359 1.359-1.359h2.121c.75 0 1.36.61 1.36 1.359v1.823H.298c.75 0 1.36.61 1.36 1.359V.298c0 .75-.61 1.36-1.36 1.36h-1.822V3.48c0 .749-.61 1.359-1.36 1.359" style="fill:#0098da;fill-opacity:1;fill-rule:nonzero;stroke:none" transform="translate(15.442 33.234)"/><path d="M0 0a.828.828 0 0 1-.822-.835 4.702 4.702 0 0 0-1.505-3.481.832.832 0 0 1-.265-.609v-3.698a.827.827 0 1 1 1.656 0v3.352A6.36 6.36 0 0 1 .835-.821.827.827 0 0 1 .007 0Z" style="fill:#0098da;fill-opacity:1;fill-rule:nonzero;stroke:none" transform="translate(40.644 15.263)"/><path d="M0 0c.458 0 .828.37.828.828V2.6c0 .458-.37.828-.828.828h-.886a.944.944 0 0 0-.942.942v1.771a.828.828 0 0 1-.829.828h-.567c.074.206.129.373.18.529.1.301.186.563.385 1.034a.83.83 0 0 1-1.528.646c-.223-.531-.32-.824-.43-1.16-.083-.252-.176-.53-.347-.978a1.274 1.274 0 0 1 .137-1.175 1.275 1.275 0 0 1 1.05-.553h.292V4.37A2.602 2.602 0 0 1-.886 1.771h.057V.828C-.829.37-.458 0 0 0" style="fill:#0098da;fill-opacity:1;fill-rule:nonzero;stroke:none" transform="translate(32.683 5.811)"/><path d="M0 0a.829.829 0 0 1 .503-1.059c.409-.146.645-.286.766-.378-.423-.34-1.944-.875-4.412-.935a.828.828 0 0 1 .021-1.656h.019c2.818.067 6.109.787 6.109 2.593 0 .569-.338 1.366-1.947 1.938A.83.83 0 0 1 0 0" style="fill:#0098da;fill-opacity:1;fill-rule:nonzero;stroke:none" transform="translate(38.474 19.582)"/><path d="M0 0a.824.824 0 0 1-.868.787C-2.188.723-6.496.344-6.496-1.79c0-.471.236-1.148 1.362-1.693a.832.832 0 0 1 1.108.383.83.83 0 0 1-.384 1.108c-.172.083-.28.154-.348.207.394.315 1.734.806 3.972.917A.828.828 0 0 1 0 0" style="fill:#0098da;fill-opacity:1;fill-rule:nonzero;stroke:none" transform="translate(34.809 19.94)"/><path d="M0 0c.105-.313.347-.554.66-.657a.832.832 0 0 1 .647 0c.314.103.555.343.661.656.042.1.066.21.066.325l-.001.001.001.002a.83.83 0 0 1-.066.324 1.035 1.035 0 0 1-.661.657.83.83 0 0 1-.647 0A1.033 1.033 0 0 1 0 .651.83.83 0 0 1-.065.327V.324C-.065.209-.042.1 0 0" style="fill:#0098da;fill-opacity:1;fill-rule:nonzero;stroke:none" transform="translate(35.683 19.151)"/><path d="M0 0a1.03 1.03 0 0 1-.659.657.832.832 0 0 1-.647 0A1.031 1.031 0 0 1-1.966 0a.834.834 0 0 1-.066-.324l.001-.001-.001-.002a.83.83 0 0 1 .066-.324c.105-.314.346-.554.66-.658a.826.826 0 0 1 .647 0c.313.104.555.344.659.658a.812.812 0 0 1 .066.324v.003A.816.816 0 0 1 0 0" style="fill:#0098da;fill-opacity:1;fill-rule:nonzero;stroke:none" transform="translate(33.665 17.146)"/></g></svg>