<svg width="43" height="27" fill="none" xmlns="http://www.w3.org/2000/svg" style=""><rect id="backgroundrect" width="100%" height="100%" x="0" y="0" fill="none" stroke="none"/><g class="currentLayer" style=""><title>Layer 1</title><path d="M36.2 22.91h-9.12a.6.6 0 01-.6-.62V8.07a.6.6 0 01.6-.62h9.12c.33 0 .6.28.6.62v2.13a.6.6 0 01-.6.62.6.6 0 01-.6-.62V8.7h-7.91v12.98h7.9v-1.76a.6.6 0 01.6-.61c.34 0 .61.27.61.61v2.37a.6.6 0 01-.6.62z" fill="#ffffff" id="svg_1" class="selected" fill-opacity="1"/><path d="M40.6 15.8h-9.42a.61.61 0 01-.6-.62c0-.34.27-.62.6-.62h9.42c.34 0 .61.28.61.62a.6.6 0 01-.6.62z" fill="#ffffff" id="svg_2" class="selected" fill-opacity="1"/><path d="M38.45 19.13a.7.7 0 01-.44-.17.61.61 0 010-.86l2.86-2.99-2.86-2.85a.61.61 0 010-.86c.24-.24.6-.24.84 0l3.3 3.3c.1.1.17.28.17.45 0 .17-.07.3-.17.45l-3.3 3.43c-.1.07-.26.1-.4.1zM30.71 27H4.31A4.34 4.34 0 010 22.6V4.4C0 1.96 1.92 0 4.3 0h26.41c2.4 0 4.31 1.96 4.31 4.4a.6.6 0 01-.6.62.6.6 0 01-.61-.62 3.12 3.12 0 00-3.1-3.16H4.31c-1.72 0-3.1 1.4-3.1 3.16v18.2a3.12 3.12 0 003.1 3.16h26.4c.34 0 .6.28.6.62a.6.6 0 01-.6.62z" fill="#ffffff" id="svg_3" class="selected" fill-opacity="1"/><path d="M8.28 17.86a4.11 4.11 0 01-2.93-1.23 4.3 4.3 0 010-5.98l5.75-5.88a4.08 4.08 0 015.86 0 4.3 4.3 0 010 5.98l-5.76 5.88a4.17 4.17 0 01-2.92 1.23zm5.71-13.05c-.74 0-1.48.27-2.05.86L6.2 11.54a3.03 3.03 0 000 4.23 2.88 2.88 0 004.14 0l5.75-5.88a3.03 3.03 0 000-4.22A2.86 2.86 0 0014 4.8z" fill="#ffffff" id="svg_4" class="selected" fill-opacity="1"/><path d="M13.62 13.67a.7.7 0 01-.43-.17L8.4 8.59a.61.61 0 010-.86c.24-.24.6-.24.84 0l4.81 4.91c.24.24.24.62 0 .86a.7.7 0 01-.44.17zM20.45 23.02c-.74 0-1.51-.31-2.08-.9l-3.8-3.88a3.07 3.07 0 010-4.26 2.92 2.92 0 014.17 0l3.8 3.88c.54.55.84 1.3.84 2.13 0 .83-.3 1.55-.87 2.13-.58.62-1.32.9-2.06.9zm-5.04-8.15a1.81 1.81 0 000 2.51l3.8 3.88c.67.69 1.78.69 2.45 0 .34-.34.5-.79.5-1.23 0-.45-.16-.93-.5-1.24l-3.8-3.88a1.69 1.69 0 00-1.2-.52c-.45 0-.92.17-1.25.48z" fill="#ffffff" id="svg_5" class="selected" fill-opacity="1"/><path d="M16.99 20.47a.7.7 0 01-.44-.17.61.61 0 010-.86l3.2-3.26c.23-.24.6-.24.84 0 .23.24.23.62 0 .86l-3.2 3.26c-.1.1-.27.17-.4.17z" fill="#ffffff" id="svg_6" class="selected" fill-opacity="1"/></g></svg>