<svg xmlns="http://www.w3.org/2000/svg" xml:space="preserve" width="66.667" height="66.667"><defs><clipPath clipPathUnits="userSpaceOnUse" id="a"><path d="M0 50h50V0H0Z"/></clipPath></defs><g clip-path="url(#a)" transform="matrix(1.33333 0 0 -1.33333 0 66.667)"><path d="M0 0a2.534 2.534 0 0 1-2.53-2.53v-11.799A2.533 2.533 0 0 1 0-16.859h36.491a2.533 2.533 0 0 1 2.53 2.531V-2.53A2.534 2.534 0 0 1 36.491 0zm36.491-18.559H0a4.235 4.235 0 0 0-4.23 4.23V-2.53A4.234 4.234 0 0 0 0 1.699h36.491a4.234 4.234 0 0 0 4.23-4.229v-11.798a4.236 4.236 0 0 0-4.23-4.231" style="fill:#0098da;fill-opacity:1;fill-rule:nonzero;stroke:none" transform="translate(6.969 19.528)"/><path d="M0 0h.01zm-4.32-3.941h1.12v1.97c0 .47.381.85.85.85h1.971V0H-2.35a.85.85 0 0 0-.85.85v1.97h-1.12V.85A.85.85 0 0 0-5.17 0h-1.971v-1.121h1.971a.85.85 0 0 0 .85-.85zm1.5-1.7H-4.7c-.728 0-1.321.592-1.321 1.321v1.5h-1.5a1.32 1.32 0 0 0-1.32 1.319V.38c0 .727.592 1.319 1.32 1.319h1.5V3.2c0 .728.593 1.32 1.321 1.32h1.88c.728 0 1.32-.592 1.32-1.32V1.699H0A1.32 1.32 0 0 0 1.32.38v-1.881A1.32 1.32 0 0 0 0-2.82h-1.5v-1.5c0-.729-.592-1.321-1.32-1.321" style="fill:#0098da;fill-opacity:1;fill-rule:nonzero;stroke:none" transform="translate(28.202 11.66)"/><path d="M0 0c-.312 0-.617-.123-.843-.348L-5.375-4.88a1.194 1.194 0 0 1 .019-1.664 1.194 1.194 0 0 1 1.67-.011L.841-2.032A1.193 1.193 0 0 1 0 0m-4.518-8.587c-.741 0-1.48.281-2.041.842a2.9 2.9 0 0 0-.025 4.058l4.54 4.541a2.905 2.905 0 0 0 2.792.748A2.902 2.902 0 0 0 2.791-.443a2.895 2.895 0 0 0-.749-2.791l-4.533-4.531a2.893 2.893 0 0 0-2.027-.822" style="fill:#0098da;fill-opacity:1;fill-rule:nonzero;stroke:none" transform="translate(40.38 14.545)"/><path d="M0 0a.849.849 0 0 0-.602.249l-2.883 2.885a.85.85 0 0 0 1.203 1.201L.602 1.45A.85.85 0 0 0 0 0" style="fill:#0098da;fill-opacity:1;fill-rule:nonzero;stroke:none" transform="translate(39.349 8.592)"/><path d="m0 0-.001-.002L0 0m-.848-.002.001-.001-.001.001m.424-.677c-.845-1.39-2.269-3.992-2.269-5.7A2.272 2.272 0 0 1-.424-8.648a2.27 2.27 0 0 1 2.268 2.269c0 1.708-1.425 4.311-2.268 5.7m0-9.668a3.974 3.974 0 0 0-3.97 3.968c0 2.45 2.074 5.922 2.965 7.301.44.682 1.567.686 2.01-.002.89-1.377 2.963-4.849 2.963-7.299a3.972 3.972 0 0 0-3.968-3.968" style="fill:#0098da;fill-opacity:1;fill-rule:nonzero;stroke:none" transform="translate(11.246 15.538)"/><path d="M0 0a.85.85 0 0 0-.85.85v15.911c0 1.199-.913 2.174-2.034 2.174h-3.125a.85.85 0 0 0 0 1.7h3.125c2.059 0 3.734-1.738 3.734-3.874V.85A.85.85 0 0 0 0 0" style="fill:#0098da;fill-opacity:1;fill-rule:nonzero;stroke:none" transform="translate(41.966 22.39)"/><path d="M0 0a.85.85 0 0 0-.85.85v16.021c0 2.136 1.675 3.874 3.734 3.874h3.125a.85.85 0 1 0 0-1.701H2.884c-1.121 0-2.034-.975-2.034-2.173V.85A.85.85 0 0 0 0 0" style="fill:#0098da;fill-opacity:1;fill-rule:nonzero;stroke:none" transform="translate(8.462 22.281)"/><path d="M0 0a5.82 5.82 0 0 1-5.814-5.813A5.82 5.82 0 0 1 0-11.627a5.82 5.82 0 0 1 5.814 5.814A5.82 5.82 0 0 1 0 0m0-13.327c-4.143 0-7.514 3.371-7.514 7.514C-7.514-1.67-4.143 1.7 0 1.7c4.143 0 7.513-3.37 7.513-7.513S4.143-13.327 0-13.327" style="fill:#0098da;fill-opacity:1;fill-rule:nonzero;stroke:none" transform="translate(25.214 47.816)"/><path d="M0 0a.85.85 0 0 0-.85.85v6.387a.85.85 0 0 0 1.7 0V.85A.85.85 0 0 0 0 0" style="fill:#0098da;fill-opacity:1;fill-rule:nonzero;stroke:none" transform="translate(25.214 37.96)"/><path d="M0 0a.85.85 0 0 0-.601 1.451l2.733 2.733a.85.85 0 0 0 1.202-1.203L.601.249A.848.848 0 0 0 0 0" style="fill:#0098da;fill-opacity:1;fill-rule:nonzero;stroke:none" transform="translate(22.481 41.614)"/><path d="M0 0a.846.846 0 0 0-.601.249l-2.733 2.732a.851.851 0 0 0 1.202 1.203L.601 1.451A.85.85 0 0 0 0 0" style="fill:#0098da;fill-opacity:1;fill-rule:nonzero;stroke:none" transform="translate(27.947 41.614)"/><path d="M0 0h-21.846a.85.85 0 0 0 0 1.7H0A.85.85 0 1 0 0 0" style="fill:#0098da;fill-opacity:1;fill-rule:nonzero;stroke:none" transform="translate(35.84 29.56)"/><path d="M0 0h-21.63a.85.85 0 1 0 0 1.7H0A.85.85 0 1 0 0 0" style="fill:#0098da;fill-opacity:1;fill-rule:nonzero;stroke:none" transform="translate(35.679 24.359)"/></g></svg>