<svg width="47" height="47" fill="none" xmlns="http://www.w3.org/2000/svg"><path d="M46.73 7.61a.9.9 0 00-.65-.27h-6.24V.92c0-.5-.41-.92-.92-.92h-38C.42 0 0 .41 0 .92V42.4A4.6 4.6 0 004.59 47h38a4.62 4.62 0 004.4-4.59V16.97c.01-.5-.4-.91-.9-.91-.51 0-.93.4-.93.91v25.44c0 1.49-1.19 2.7-2.66 2.75a2.76 2.76 0 01-2.66-2.75V9.18h5.32v3.2c0 .5.42.92.92.92s.92-.41.92-.92V8.26c0-.24-.1-.48-.27-.65zM1.83 1.84H38v12.85H1.84V1.84zM4.6 45.16a2.76 2.76 0 01-2.75-2.75V16.52H38v25.89c0 1.03.34 1.98.92 2.75H4.6z" fill="#0098DA"/><path d="M15.6 5.5c.51 0 .92-.4.92-.91 0-.5-.41-.92-.91-.92h-2.77c-.5 0-.92.41-.92.92v7.34c0 .5.42.92.92.92h2.77a.92.92 0 000-1.84h-1.85V9.19h1.57a.92.92 0 000-1.84h-1.57V5.51h1.85zM27.77 3.69a.92.92 0 00-1.08.72l-.9 4.4-1.46-4.5a.92.92 0 00-1.77.08l-1.42 4.44-.92-4.41a.9.9 0 00-1.08-.71.9.9 0 00-.7 1.08l1.54 7.35c.15.43.56.71 1.01.71H21c.46 0 .88-.3 1.02-.72l1.44-4.53 1.47 4.54c.16.42.57.7 1.02.7h.01c.46 0 .87-.3 1.02-.72l1.5-7.34c.1-.5-.22-.99-.71-1.09zM9.18 3.67c-.5 0-.92.41-.92.92v4.22L5.37 4.12a.92.92 0 00-1.7.48v7.33a.92.92 0 001.84 0V7.85l2.71 4.41c.25.4.71.6 1.14.47.45-.13.74-.54.74-1.04v-7.1c0-.5-.42-.92-.92-.92zM34.01 7.46a33.8 33.8 0 01-1.92-.8.52.52 0 01-.16-.5c.02-.13.1-.44.54-.58.96-.3 1.86.44 1.89.46.39.33.95.28 1.3-.1a.92.92 0 00-.1-1.29c-.06-.05-1.68-1.44-3.64-.82-.98.3-1.67 1.1-1.82 2.06-.14.92.25 1.81 1 2.33.04.02 1.15.54 2.24.96.31.12 1.02.46.91 1.02-.07.4-.54.82-1.2.82-.7 0-1.35-.3-1.77-.78a.92.92 0 10-1.4 1.2c.77.89 1.96 1.41 3.17 1.41 1.48 0 2.75-.97 3-2.32.21-1.03-.23-2.38-2.04-3.07zM35.25 31.21h-7.34a.92.92 0 000 1.84h7.34c.5 0 .92-.42.92-.92s-.42-.92-.92-.92zM35.25 34.88h-7.34c-.5 0-.92.42-.92.92s.41.92.92.92h7.34a.92.92 0 000-1.84zM32.5 38.55h-4.6a.92.92 0 000 1.84h4.6a.92.92 0 000-1.84zM24.23 31.21H4.6a.92.92 0 000 1.84h19.64c.5 0 .92-.42.92-.92s-.41-.92-.92-.92zM24.23 34.88h-8.26c-.5 0-.92.42-.92.92s.42.92.92.92h8.26a.92.92 0 000-1.84zM4.59 36.72h7.25a.92.92 0 000-1.84H4.6c-.5 0-.92.42-.92.92s.41.92.92.92zM22.4 38.55H4.59c-.5 0-.92.42-.92.92s.41.92.92.92h17.8c.51 0 .93-.41.93-.92 0-.5-.42-.92-.92-.92zM10.15 27.5c.48.17 1-.08 1.18-.56l.43-1.2h2.92l.43 1.2a.92.92 0 101.73-.62l-2.6-7.24-.01-.03a1.08 1.08 0 00-1-.7c-.45 0-.84.28-1 .7l-.01.02L9.6 26.3a.92.92 0 00.55 1.18zm3.08-5.8l.8 2.2h-1.6l.8-2.2zM18.73 26.63c0 .5.41.92.91.92s.92-.41.92-.92v-1.86l3.08 2.57c.17.14.37.2.59.2a.92.92 0 00.59-1.62l-3.73-3.1 3.42-2.73a.9.9 0 00.15-1.28.91.91 0 00-1.29-.15l-2.8 2.23v-1.6c0-.5-.42-.92-.93-.92-.5 0-.91.41-.91.92v7.34zM5.5 27.55c.5 0 .92-.41.92-.92v-2.75h1.57a.92.92 0 000-1.84H6.42V20.2h1.84c.5 0 .92-.4.92-.91 0-.5-.41-.92-.92-.92H5.5c-.5 0-.92.41-.92.92v7.34c0 .5.41.92.92.92zM34.05 23.42c.5 0 .92-.42.92-.92v-3.21c0-.5-.42-.92-.92-.92s-.92.41-.92.92v3.2c0 .51.41.93.92.93zM34.05 27.55a.92.92 0 000-1.84c-.5 0-.92.42-.92.92s.41.92.92.92zM27.9 27.55h2.76a.92.92 0 000-1.84h-1.85v-1.83h1.57a.92.92 0 000-1.84h-1.57V20.2h1.85c.5 0 .92-.4.92-.91 0-.5-.42-.92-.92-.92H27.9c-.5 0-.92.41-.92.92v7.34c0 .5.41.92.92.92z" fill="#0098DA"/></svg>