<svg width="66.667" height="66.667" xmlns="http://www.w3.org/2000/svg"><defs><clipPath clipPathUnits="userSpaceOnUse" id="a"><path d="M0 50h50V0H0Z"/></clipPath></defs><g clip-path="url(#a)" transform="matrix(1.33333 0 0 -1.33333 0 66.667)"><path d="M0 0a.853.853 0 0 1 0 1.203l-2.026 2.026c-.08.08-.17.14-.271.18-.04.02-.08.03-.12.04a.767.767 0 0 1-.381.01.794.794 0 0 1-.301-.12c-.05-.03-.09-.07-.13-.11l-2.156-2.146a.854.854 0 0 1 .601-1.454c.221 0 .442.08.602.25l.702.702v-2.417a.852.852 0 1 1 1.705 0V.571L-1.203 0A.853.853 0 0 1 0 0" style="fill:#0098da;fill-opacity:1;fill-rule:nonzero;stroke:none" transform="translate(27.417 20.919)"/><path d="M0 0a.852.852 0 0 1-.853-.853v-1.714c0-.662-.541-1.204-1.203-1.204h-17.539c-.662 0-1.203.542-1.203 1.204v22.713c0 .663.541 1.204 1.203 1.204h2.868a.852.852 0 1 1 0 1.705h-2.868a2.91 2.91 0 0 1-2.908-2.909V-2.567a2.91 2.91 0 0 1 2.908-2.909h17.539A2.911 2.911 0 0 1 .853-2.567v1.714A.852.852 0 0 1 0 0" style="fill:#0098da;fill-opacity:1;fill-rule:nonzero;stroke:none" transform="translate(22.573 13.738)"/><path d="M0 0h2.688c.661 0 1.203-.542 1.203-1.204v-3.81a.852.852 0 1 1 1.705 0v3.81a2.91 2.91 0 0 1-2.908 2.909H0A.852.852 0 1 1 0 0" style="fill:#0098da;fill-opacity:1;fill-rule:nonzero;stroke:none" transform="translate(17.83 35.088)"/><path d="M0 0h-10.125a.852.852 0 1 1 0-1.704H0A.853.853 0 1 1 0 0" style="fill:#0098da;fill-opacity:1;fill-rule:nonzero;stroke:none" transform="translate(15.21 22.169)"/><path d="M0 0h-10.125a.852.852 0 1 1 0-1.704H0A.853.853 0 1 1 0 0" style="fill:#0098da;fill-opacity:1;fill-rule:nonzero;stroke:none" transform="translate(15.21 17.78)"/><path d="M0 0c0-.471.382-.853.852-.853h10.126a.853.853 0 0 1 0 1.706H.852A.853.853 0 0 1 0 0" style="fill:#0098da;fill-opacity:1;fill-rule:nonzero;stroke:none" transform="translate(4.233 25.706)"/><path d="M0 0h10.125a.852.852 0 1 1 0 1.704H0A.851.851 0 1 1 0 0" style="fill:#0098da;fill-opacity:1;fill-rule:nonzero;stroke:none" transform="translate(34.41 20.465)"/><path d="M0 0h10.125a.852.852 0 1 1 0 1.704H0A.851.851 0 1 1 0 0" style="fill:#0098da;fill-opacity:1;fill-rule:nonzero;stroke:none" transform="translate(34.41 16.075)"/><path d="M0 0h10.125a.852.852 0 1 1 0 1.705H0A.852.852 0 0 1 0 0" style="fill:#0098da;fill-opacity:1;fill-rule:nonzero;stroke:none" transform="translate(34.41 24.854)"/><path d="M0 0h-2.868a.851.851 0 1 1 0-1.705H0c.662 0 1.204-.541 1.204-1.203v-22.714c0-.661-.542-1.203-1.204-1.203h-17.539c-.662 0-1.203.542-1.203 1.203v1.715a.852.852 0 1 1-1.705 0v-1.715a2.91 2.91 0 0 1 2.908-2.908H0a2.91 2.91 0 0 1 2.908 2.908v22.714A2.91 2.91 0 0 1 0 0" style="fill:#0098da;fill-opacity:1;fill-rule:nonzero;stroke:none" transform="translate(47.022 36.793)"/><path d="M0 0c.472 0 .853.381.853.853v3.81c0 .662.541 1.204 1.203 1.204h2.687a.852.852 0 1 1 0 1.704H2.056A2.91 2.91 0 0 1-.853 4.663V.853C-.853.381-.472 0 0 0" style="fill:#0098da;fill-opacity:1;fill-rule:nonzero;stroke:none" transform="translate(27.427 29.222)"/><path d="M0 0c.873 0 1.474-.472 1.474-.893 0-.421-.631-.892-1.514-.892a1.643 1.643 0 0 0-1.374.652.851.851 0 0 1-1.203.16.857.857 0 0 1-.161-1.194A3.452 3.452 0 0 1-.852-3.41v-.511A.85.85 0 0 1 0-4.773c.472 0 .853.38.853.852v.531c1.354.291 2.326 1.284 2.326 2.497C3.179.562 1.785 1.705 0 1.705c-.862 0-1.474.471-1.474.892 0 .411.592.882 1.474.893h.04a1.656 1.656 0 0 0 1.374-.652.87.87 0 0 1 1.204-.161.86.86 0 0 1 .16 1.194A3.328 3.328 0 0 1 .853 5.114v.391A.851.851 0 0 1 0 6.357a.85.85 0 0 1-.852-.852v-.411c-1.354-.291-2.327-1.283-2.327-2.497C-3.179 1.143-1.775 0 0 0" style="fill:#0098da;fill-opacity:1;fill-rule:nonzero;stroke:none" transform="translate(11.652 35.38)"/><path d="M0 0h1.454a2.816 2.816 0 0 1 2.813 2.813v6.781a2.817 2.817 0 0 1-2.813 2.814H-.027a.852.852 0 0 1 0-1.705h1.481a1.11 1.11 0 0 0 1.109-1.109V2.813c0-.612-.499-1.11-1.109-1.11H0A.851.851 0 1 1 0 0" style="fill:#0098da;fill-opacity:1;fill-rule:nonzero;stroke:none" transform="translate(27.212 15.113)"/><path d="M0 0h-1.88a1.11 1.11 0 0 0-1.109 1.11v6.781A1.11 1.11 0 0 0-1.88 9H.054a.853.853 0 0 1 0 1.705H-1.88a2.817 2.817 0 0 1-2.814-2.814V1.11A2.817 2.817 0 0 1-1.88-1.703H0A.852.852 0 1 1 0 0" style="fill:#0098da;fill-opacity:1;fill-rule:nonzero;stroke:none" transform="translate(22.664 16.816)"/><path d="M0 0h.471a5.328 5.328 0 0 1 5.255-4.482.85.85 0 1 1 0 1.704A3.64 3.64 0 0 0 2.195 0h2.297a.852.852 0 1 1 0 1.705H2.195a3.638 3.638 0 0 0 3.531 2.778.851.851 0 1 1 0 1.704A5.328 5.328 0 0 1 .471 1.705H0A.852.852 0 1 1 0 0" style="fill:#0098da;fill-opacity:1;fill-rule:nonzero;stroke:none" transform="translate(35.951 35.319)"/></g></svg>