<svg xmlns="http://www.w3.org/2000/svg" width="66.667" height="66.667"><defs><clipPath id="a" clipPathUnits="userSpaceOnUse"><path d="M0 50h50V0H0Z"/></clipPath></defs><g clip-path="url(#a)" transform="matrix(1.33333 0 0 -1.33333 0 66.667)"><path d="M0 0h40.305a2.49 2.49 0 0 0 2.486-2.486v-5.845H-2.486v5.845A2.489 2.489 0 0 0 0 0m23.042-39.864H0a2.488 2.488 0 0 0-2.486 2.486v27.302h45.277v-15.636a.872.872 0 1 1 1.745 0v23.226a4.237 4.237 0 0 1-4.231 4.232H0a4.237 4.237 0 0 1-4.231-4.232v-34.892A4.236 4.236 0 0 1 0-41.609h23.042a.871.871 0 1 1 0 1.745" style="fill:#0098da;fill-opacity:1;fill-rule:nonzero;stroke:none" transform="translate(4.703 46.712)"/><path d="M0 0a.729.729 0 0 0 0-1.455A.729.729 0 0 0 0 0m0-3.2A2.476 2.476 0 0 1 2.473-.728 2.477 2.477 0 0 1 0 1.746 2.476 2.476 0 0 1-2.473-.728 2.475 2.475 0 0 1 0-3.2" style="fill:#0098da;fill-opacity:1;fill-rule:nonzero;stroke:none" transform="translate(7.803 43.342)"/><path d="M0 0a.729.729 0 0 0 0-1.455A.729.729 0 0 0 0 0m0-3.2A2.475 2.475 0 0 1 2.473-.728 2.476 2.476 0 0 1 0 1.746 2.476 2.476 0 0 1-2.473-.728 2.475 2.475 0 0 1 0-3.2" style="fill:#0098da;fill-opacity:1;fill-rule:nonzero;stroke:none" transform="translate(14.545 43.342)"/><path d="M0 0a.729.729 0 0 0 0-1.455A.728.728 0 0 0 0 0m0-3.2A2.475 2.475 0 0 1 2.473-.728 2.476 2.476 0 0 1 0 1.746 2.477 2.477 0 0 1-2.473-.728 2.476 2.476 0 0 1 0-3.2" style="fill:#0098da;fill-opacity:1;fill-rule:nonzero;stroke:none" transform="translate(21.287 43.342)"/><path d="M0 0h-5.735a.872.872 0 0 1 0-1.746H0A.873.873 0 0 1 0 0" style="fill:#0098da;fill-opacity:1;fill-rule:nonzero;stroke:none" transform="translate(43.238 26.124)"/><path d="M0 0h-11.205a.872.872 0 0 1 0-1.746H0A.873.873 0 0 1 0 0" style="fill:#0098da;fill-opacity:1;fill-rule:nonzero;stroke:none" transform="translate(43.238 31.018)"/><path d="M0 0h2.39a.872.872 0 0 1 0 1.746H0A.872.872 0 0 1 0 0" style="fill:#0098da;fill-opacity:1;fill-rule:nonzero;stroke:none" transform="translate(32.033 24.378)"/><path d="M0 0a7.387 7.387 0 0 0-2.636-5.045 7.372 7.372 0 0 0-5.43-1.705 7.379 7.379 0 0 0-5.045 2.636c-2.633 3.144-2.216 7.844.928 10.476a7.383 7.383 0 0 0 5.432 1.705 7.378 7.378 0 0 0 5.046-2.635h.001A7.394 7.394 0 0 0 0 0m-.367 6.553h.001c-3.249 3.882-9.052 4.399-12.937 1.148-3.883-3.25-4.397-9.054-1.148-12.936a9.127 9.127 0 0 1 6.23-3.253 9.125 9.125 0 0 1 6.706 2.103A9.125 9.125 0 0 1 1.738-.153 9.12 9.12 0 0 1-.367 6.553" style="fill:#0098da;fill-opacity:1;fill-rule:nonzero;stroke:none" transform="translate(47.753 10.067)"/><path d="M0 0a.874.874 0 0 1-1.234-.001l-2.405-2.405-2.404 2.405a.873.873 0 0 1-1.235-1.233l2.405-2.407-2.405-2.405a.873.873 0 0 1 1.235-1.233l2.404 2.404 2.405-2.404A.872.872 0 1 1 .001-6.046l-2.406 2.405L.001-1.234C.341-.894.341-.341 0 0" style="fill:#0098da;fill-opacity:1;fill-rule:nonzero;stroke:none" transform="translate(43.983 14.366)"/><path d="M0 0h5.05a.873.873 0 1 1 0 1.746H1.936v1.785a.873.873 0 0 1-1.746 0V1.746H0a3.802 3.802 0 0 1-3.797-3.797c0-2.709 2.359-4.006 4.44-5.152 2.199-1.209 3.535-2.055 3.535-3.62a2.055 2.055 0 0 0-2.052-2.052h-5.05a.873.873 0 1 1 0-1.745H.19v-1.786a.873.873 0 0 1 1.746 0v1.786h.19a3.8 3.8 0 0 1 3.797 3.797c0 2.709-2.358 4.006-4.439 5.151-2.199 1.209-3.535 2.057-3.535 3.621C-2.051-.92-1.131 0 0 0" style="fill:#0098da;fill-opacity:1;fill-rule:nonzero;stroke:none" transform="translate(21.628 28.192)"/><path d="M0 0a9.144 9.144 0 0 0 4.463 4.154C3.794 3.055 3.27 1.639 2.938 0Zm2.672-6.646H-.689a9.053 9.053 0 0 0-.345 2.451c0 .849.126 1.669.345 2.449h3.36a22.45 22.45 0 0 1 .001-4.9m1.791-5.9A9.147 9.147 0 0 0 0-8.391h2.938c.332-1.639.856-3.055 1.525-4.155M8.062 4.9a.874.874 0 0 1 0 1.746c-4.683 0-8.669-2.99-10.183-7.156-.009-.022-.016-.044-.024-.067a10.774 10.774 0 0 1-.634-3.618c0-1.279.234-2.5.641-3.64l.013-.035c1.511-4.172 5.5-7.166 10.187-7.166a.873.873 0 1 1 0 1.744c-1.269 0-2.638 1.89-3.327 4.901h2.662a.872.872 0 1 1 0 1.745H4.434a19.985 19.985 0 0 0 0 4.9h2.963a.874.874 0 0 1 0 1.746H4.735c.689 3.011 2.058 4.9 3.327 4.9" style="fill:#0098da;fill-opacity:1;fill-rule:nonzero;stroke:none" transform="translate(8.649 25.95)"/></g></svg>