<svg xmlns="http://www.w3.org/2000/svg" xml:space="preserve" width="66.667" height="66.667"><defs><clipPath clipPathUnits="userSpaceOnUse" id="a"><path d="M0 50h50V0H0Z"/></clipPath></defs><g clip-path="url(#a)" transform="matrix(1.33333 0 0 -1.33333 0 66.667)"><path d="M0 0h-22.667a4.68 4.68 0 0 0-4.679 4.679v26.692a4.68 4.68 0 0 0 4.679 4.679H7.367" style="fill:none;stroke:#ffffff;stroke-width:1.71000004;stroke-linecap:round;stroke-linejoin:miter;stroke-miterlimit:10;stroke-dasharray:none;stroke-opacity:1" transform="translate(29.47 8.602)"/><path d="M0 0v16.978a4.68 4.68 0 0 1-4.679 4.679h-.565" style="fill:none;stroke:#ffffff;stroke-width:1.71000004;stroke-linecap:round;stroke-linejoin:miter;stroke-miterlimit:10;stroke-dasharray:none;stroke-opacity:1" transform="translate(41.602 22.995)"/><path d="M0 0h-11.343a2.813 2.813 0 0 0-2.813 2.813v9.693a2.813 2.813 0 0 0 2.813 2.813H0a2.813 2.813 0 0 0 2.813-2.813V2.813A2.813 2.813 0 0 0 0 0Z" style="fill:none;stroke:#ffffff;stroke-width:1.70000005;stroke-linecap:round;stroke-linejoin:round;stroke-miterlimit:10;stroke-dasharray:none;stroke-opacity:1" transform="translate(46.064 5.348)"/><path d="M0 0h-8.008" style="fill:none;stroke:#ffffff;stroke-width:1.71000004;stroke-linecap:round;stroke-linejoin:miter;stroke-miterlimit:10;stroke-dasharray:none;stroke-opacity:1" transform="translate(15.28 35.712)"/><path d="M0 0h-8.008" style="fill:none;stroke:#ffffff;stroke-width:1.71000004;stroke-linecap:round;stroke-linejoin:miter;stroke-miterlimit:10;stroke-dasharray:none;stroke-opacity:1" transform="translate(36.42 35.712)"/><path d="M0 0h8.008" style="fill:none;stroke:#ffffff;stroke-width:1.71000004;stroke-linecap:round;stroke-linejoin:miter;stroke-miterlimit:10;stroke-dasharray:none;stroke-opacity:1" transform="translate(7.272 24.768)"/><path d="M0 0h8.008" style="fill:none;stroke:#ffffff;stroke-width:1.71000004;stroke-linecap:round;stroke-linejoin:miter;stroke-miterlimit:10;stroke-dasharray:none;stroke-opacity:1" transform="translate(7.272 30.24)"/><path d="M0 0h8.008" style="fill:none;stroke:#ffffff;stroke-width:1.71000004;stroke-linecap:round;stroke-linejoin:miter;stroke-miterlimit:10;stroke-dasharray:none;stroke-opacity:1" transform="translate(28.413 24.768)"/><path d="M0 0h8.008" style="fill:none;stroke:#ffffff;stroke-width:1.71000004;stroke-linecap:round;stroke-linejoin:miter;stroke-miterlimit:10;stroke-dasharray:none;stroke-opacity:1" transform="translate(28.413 30.24)"/><path d="M0 0c0 .806.653 1.459 1.459 1.459h10.214A1.46 1.46 0 0 0 13.133 0v-17.875a1.46 1.46 0 0 0-1.46-1.459H1.459c-.806 0-1.459.653-1.459 1.459Z" style="fill:none;stroke:#ffffff;stroke-width:1.71000004;stroke-linecap:round;stroke-linejoin:miter;stroke-miterlimit:10;stroke-dasharray:none;stroke-opacity:1" transform="translate(15.28 36.442)"/><path d="M0 0a3.24 3.24 0 0 1 2.711-1.277c1.662 0 3.011 1.011 3.011 2.258 0 1.246-1.349 2.255-3.011 2.255-1.662 0-3.009 1.012-3.009 2.259 0 1.248 1.347 2.258 3.009 2.258a3.24 3.24 0 0 0 2.711-1.277" style="fill:none;stroke:#ffffff;stroke-width:1.71000004;stroke-linecap:round;stroke-linejoin:miter;stroke-miterlimit:10;stroke-dasharray:none;stroke-opacity:1" transform="translate(19.135 24.267)"/><path d="M0 0v-1.505" style="fill:none;stroke:#ffffff;stroke-width:1.71000004;stroke-linecap:round;stroke-linejoin:miter;stroke-miterlimit:10;stroke-dasharray:none;stroke-opacity:1" transform="translate(21.846 22.99)"/><path d="M0 0v-1.504" style="fill:none;stroke:#ffffff;stroke-width:1.71000004;stroke-linecap:round;stroke-linejoin:miter;stroke-miterlimit:10;stroke-dasharray:none;stroke-opacity:1" transform="translate(21.846 33.524)"/><path d="M0 0h-.054c-4.376-.034-6.051-3.934-6.12-4.1l-.261-.625.328-.592c.094-.17 2.346-4.157 6.063-4.157h.059c3.71.042 6.093 4.043 6.193 4.214l.378.645-.327.673C6.181-3.781 4.296 0 0 0m0-1.4c3.469 0 5-3.153 5-3.153S2.959-8.04-.001-8.074h-.043c-2.935 0-4.838 3.436-4.838 3.436S-3.544-1.427-.044-1.4H0" style="fill:#ffffff;fill-opacity:1;fill-rule:nonzero;stroke:none" transform="translate(40.333 17.443)"/><path d="M0 0a3.791 3.791 0 0 1-3.787-3.787A3.792 3.792 0 0 1 0-7.575a3.792 3.792 0 0 1 3.787 3.788A3.791 3.791 0 0 1 0 0m0-1.4a2.387 2.387 0 1 0 0-4.775A2.387 2.387 0 0 0 0-1.4" style="fill:#ffffff;fill-opacity:1;fill-rule:nonzero;stroke:none" transform="translate(40.392 16.494)"/><path d="M0 0a1.18 1.18 0 1 0-2.358 0A1.18 1.18 0 0 0 0 0" style="fill:#ffffff;fill-opacity:1;fill-rule:nonzero;stroke:none" transform="translate(41.57 12.706)"/></g></svg>