<svg xmlns="http://www.w3.org/2000/svg" xml:space="preserve" width="66.667" height="66.667"><defs><clipPath clipPathUnits="userSpaceOnUse" id="a"><path d="M0 50h50V0H0Z"/></clipPath></defs><g clip-path="url(#a)" transform="matrix(1.33333 0 0 -1.33333 0 66.667)"><path d="m0 0-3.841-5.254-2.117 1.74a.848.848 0 1 1-1.08-1.312l2.118-1.741a1.64 1.64 0 0 1 1.249-.366c.455.056.858.292 1.137.666l3.899 5.253A.85.85 0 0 1 0 0" style="fill:#0098da;fill-opacity:1;fill-rule:nonzero;stroke:none" transform="translate(41.616 19.13)"/><path d="M0 0h-15.714a.85.85 0 1 1 0-1.699H0A.85.85 0 1 1 0 0" style="fill:#0098da;fill-opacity:1;fill-rule:nonzero;stroke:none" transform="translate(24.877 16.753)"/><path d="M0 0h-11.131a.85.85 0 1 1 0-1.699H0A.85.85 0 1 1 0 0" style="fill:#0098da;fill-opacity:1;fill-rule:nonzero;stroke:none" transform="translate(24.877 10.229)"/><path d="M0 0a.85.85 0 1 1 0-1.699h1.509a.85.85 0 1 1 0 1.699z" style="fill:#0098da;fill-opacity:1;fill-rule:nonzero;stroke:none" transform="translate(9.163 10.229)"/><path d="M0 0h-2.908a.85.85 0 1 1 0-1.699H0A.85.85 0 1 1 0 0" style="fill:#0098da;fill-opacity:1;fill-rule:nonzero;stroke:none" transform="translate(24.877 23.277)"/><path d="M0 0c0-.47.381-.85.85-.85h9.732a.85.85 0 1 1 0 1.7H.85A.85.85 0 0 1 0 0" style="fill:#0098da;fill-opacity:1;fill-rule:nonzero;stroke:none" transform="translate(8.313 22.428)"/><path d="M0 0c.26-.273.462-.598.623-.942h-5.042c-1.831 0-3.32 1.583-3.32 3.529v5.304c.287-.161.561-.353.799-.602Zm6.58 7.562c.21-.22.374-.479.513-.751H2.564C.917 6.811-.423 8.237-.423 9.99v4.763c.221-.134.432-.289.618-.484zM1.838-26.95a.85.85 0 0 1-.85-.849c0-1.021-.773-1.852-1.723-1.852h-25.154c-.95 0-1.723.831-1.723 1.852V6.257c0 1.13.858 2.05 1.911 2.05h16.262v-5.72c0-2.883 2.252-5.23 5.02-5.23H.988v-2.024a.85.85 0 1 1 1.7 0v2.154c0 .234-.036.46-.065.688.001.012.007.021.007.033 0 .031-.015.057-.018.088A5.262 5.262 0 0 1 1.23 1.172l-6.939 7.289a4.975 4.975 0 0 1-2.762 1.462c-.04.006-.076.024-.118.024-.014 0-.025-.007-.038-.008-.214.03-.427.068-.644.068h-9.357v3.36c0 .86 1.592 1.817 2.671 1.817h13.835V9.99c0-2.691 2.102-4.88 4.686-4.88h4.907v-9.539a.85.85 0 1 1 1.699 0v9.727c0 .213-.033.42-.059.628.001.012.007.022.007.034 0 .033-.015.062-.019.094a4.91 4.91 0 0 1-1.287 2.68l-6.386 6.707a4.635 4.635 0 0 1-2.589 1.366c-.037.005-.071.022-.109.022-.013 0-.023-.006-.035-.007-.197.027-.393.062-.593.062h-14.057c-1.76 0-4.372-1.477-4.372-3.517v-3.36h-5.372c-1.991 0-3.611-1.682-3.611-3.75v-34.056c0-1.958 1.536-3.551 3.423-3.551H-.735c1.887 0 3.423 1.593 3.423 3.551a.85.85 0 0 1-.85.849" style="fill:#0098da;fill-opacity:1;fill-rule:nonzero;stroke:none" transform="translate(32.02 32.252)"/><path d="M0 0c0-.986-.631-1.79-1.405-1.79h-11.797c-.775 0-1.405.804-1.405 1.79v11.94c0 .987.63 1.789 1.405 1.789h11.797c.774 0 1.405-.802 1.405-1.789Zm-1.405 15.429h-11.797c-1.712 0-3.105-1.565-3.105-3.489V0c0-1.924 1.393-3.489 3.105-3.489h11.797C.307-3.489 1.699-1.924 1.699 0v11.94c0 1.924-1.392 3.489-3.104 3.489" style="fill:#0098da;fill-opacity:1;fill-rule:nonzero;stroke:none" transform="translate(46.013 9.86)"/><path d="M0 0a1.002 1.002 0 0 0-.838.395.85.85 0 1 1-1.353-1.03 2.704 2.704 0 0 1 1.378-.942v-.131a.85.85 0 1 1 1.7 0v.135C1.894-1.285 2.603-.508 2.603.44c0 1.199-1.127 2.139-2.566 2.139-.538 0-.868.284-.868.44 0 .154.33.439.902.439.334.004.64-.134.838-.395a.85.85 0 0 1 1.353 1.03 2.703 2.703 0 0 1-1.375.937v.137a.85.85 0 0 1-1.7 0v-.135c-1.008-.287-1.718-1.065-1.718-2.013C-2.531 1.818-1.403.878.037.878.574.878.903.595.903.44.903.285.573.001 0 0" style="fill:#0098da;fill-opacity:1;fill-rule:nonzero;stroke:none" transform="translate(10.35 29.755)"/><path d="M0 0a.85.85 0 0 1 0 1.7 4.287 4.287 0 0 1-4.194-3.429h-.191a.85.85 0 0 1 0-1.701h.191A4.286 4.286 0 0 1 0-6.859a.85.85 0 1 1 0 1.7A2.575 2.575 0 0 0-2.424-3.43h1.665a.85.85 0 0 1 0 1.701h-1.665A2.575 2.575 0 0 0 0 0" style="fill:#0098da;fill-opacity:1;fill-rule:nonzero;stroke:none" transform="translate(19.82 34.105)"/></g></svg>