<svg xmlns="http://www.w3.org/2000/svg" xml:space="preserve" width="66.667" height="66.667"><defs><clipPath id="a" clipPathUnits="userSpaceOnUse"><path d="M0 50h50V0H0Z"/></clipPath></defs><g clip-path="url(#a)" transform="matrix(1.33333 0 0 -1.33333 0 66.667)"><path d="M0 0c.47 0 .85.38.85.85v.754c1.737.315 3.041 1.561 3.041 3.052 0 1.728-1.745 3.132-3.891 3.132-1.189 0-2.194.658-2.194 1.437 0 .777 1.005 1.434 2.229 1.434a2.406 2.406 0 0 0 2.032-.957.85.85 0 0 1 1.354 1.029A4.127 4.127 0 0 1 .85 12.305v.726a.85.85 0 1 1-1.7 0v-.753c-1.738-.313-3.043-1.56-3.043-3.053 0-1.73 1.746-3.136 3.893-3.136 1.187 0 2.191-.656 2.191-1.433S1.185 3.222-.04 3.222c-.772-.044-1.553.325-2.032.957a.85.85 0 1 1-1.354-1.03A4.12 4.12 0 0 1-.85 1.6V.85C-.85.38-.47 0 0 0" style="fill:#0098da;fill-opacity:1;fill-rule:nonzero;stroke:none" transform="translate(36.07 6.034)"/><path d="M0 0h-15.092a.85.85 0 1 1 0-1.699H0A.85.85 0 1 1 0 0" style="fill:#0098da;fill-opacity:1;fill-rule:nonzero;stroke:none" transform="translate(22.161 14.866)"/><path d="M0 0h-9.983a.85.85 0 1 1 0-1.699H0A.85.85 0 1 1 0 0" style="fill:#0098da;fill-opacity:1;fill-rule:nonzero;stroke:none" transform="translate(22.161 9.271)"/><path d="M0 0a.85.85 0 1 1 0-1.699h2.353a.85.85 0 1 1 0 1.699z" style="fill:#0098da;fill-opacity:1;fill-rule:nonzero;stroke:none" transform="translate(7.069 9.271)"/><path d="M0 0v4.799c.268-.145.522-.315.738-.531L7.45-2.444c.22-.22.39-.473.535-.739H3.184A3.188 3.188 0 0 0 0 0m.532-10.064c.277-.279.489-.603.658-.947h-5.345c-1.949 0-3.533 1.598-3.533 3.561v5.373c.345-.173.671-.389.951-.672zm17.043-12.615-2.463 2.462a.85.85 0 0 1-1.201-.001l-2.613-2.614a.849.849 0 1 1 1.201-1.201l1.216 1.215v-14.496a2.612 2.612 0 0 0-2.608-2.609H-1.096a2.613 2.613 0 0 0-2.609 2.609v16.226a2.612 2.612 0 0 0 2.609 2.608h8.442a2.74 2.74 0 0 1 2.736 2.736v11.048c0 .215-.035.423-.062.633.001.011.006.02.006.03 0 .031-.014.057-.017.087a4.836 4.836 0 0 1-1.357 2.704L1.941 5.469A4.898 4.898 0 0 1-.742 6.822c-.037.005-.07.022-.108.022-.012 0-.023-.007-.036-.008-.207.028-.413.063-.623.063H-17.08a3.756 3.756 0 0 1-3.751-3.752V.016h-5.689c-2.069 0-3.752-1.691-3.752-3.77v-34.297c0-1.97 1.594-3.572 3.554-3.572h18.427a.85.85 0 1 1 0 1.7h-18.427a1.865 1.865 0 0 0-1.854 1.872v34.297c0 1.142.921 2.07 2.052 2.07h17.132V-7.45c0-2.901 2.348-5.261 5.233-5.261h5.724v-1.514a.85.85 0 1 1 1.7 0v1.639c0 .234-.038.461-.067.689 0 .013.007.023.007.036 0 .037-.016.068-.021.103a5.21 5.21 0 0 1-1.451 2.892L-5.531-1.55A5.254 5.254 0 0 1-8.41-.07c-.044.007-.083.026-.128.026-.016 0-.029-.008-.044-.009-.234.031-.467.069-.707.069h-9.842v3.131c0 1.131.92 2.052 2.051 2.052h15.381V0a4.889 4.889 0 0 1 4.883-4.883h5.199v-10.861c0-.571-.466-1.036-1.037-1.036h-8.442a4.312 4.312 0 0 1-4.308-4.308v-16.226a4.313 4.313 0 0 1 4.308-4.309h12.203a4.313 4.313 0 0 1 4.307 4.309v14.391l.96-.959a.85.85 0 0 1 1.201 1.203" style="fill:#0098da;fill-opacity:1;fill-rule:nonzero;stroke:none" transform="translate(31.491 42.362)"/><path d="M0 0c.444 0 .819.349.819.762v4.726c0 .587-.686 1.008-1.294.664l-1.608-.927a.743.743 0 0 1-.379-.665c0-.42.317-.714.771-.714.258 0 .443.101.608.204l.264.158V.762C-.819.342-.452 0 0 0" style="fill:#0098da;fill-opacity:1;fill-rule:nonzero;stroke:none" transform="translate(7.92 19.924)"/><path d="M0 0c0-.236-.086-.518-.498-.518-.412 0-.499.282-.499.518v2.255c0 .551.267.621.499.621.231 0 .498-.07.498-.621Zm1.63 0v2.199c0 1.328-.816 2.153-2.128 2.153-1.313 0-2.129-.825-2.129-2.153V0c0-1.197.856-2.001 2.129-2.001C.775-2.001 1.63-1.197 1.63 0" style="fill:#0098da;fill-opacity:1;fill-rule:nonzero;stroke:none" transform="translate(12.521 21.917)"/><path d="M0 0c.441 0 .787.324.787.737 0 .408-.353.739-.787.739h-2.025c-.439 0-.795-.331-.795-.739 0-.413.349-.737.795-.737Z" style="fill:#0098da;fill-opacity:1;fill-rule:nonzero;stroke:none" transform="translate(17.222 21.9)"/><path d="M0 0c-.452 0-.819-.342-.819-.762v-4.75c0-.424.367-.769.819-.769.444 0 .819.352.819.769v1.242l1.276-1.68a.813.813 0 0 1 .67-.331c.481 0 .803.406.803.786a.647.647 0 0 1-.141.424L1.772-2.917l1.48 1.644c.17.188.202.325.202.511 0 .429-.435.762-.81.762a.902.902 0 0 1-.651-.315L.819-1.627v.865C.819-.349.444 0 0 0" style="fill:#0098da;fill-opacity:1;fill-rule:nonzero;stroke:none" transform="translate(19.281 26.197)"/></g></svg>