<?xml version="1.0" encoding="UTF-8" standalone="no"?>
<!-- Created with Inkscape (http://www.inkscape.org/) -->

<svg
   version="1.1"
   id="svg287"
   width="66.666664"
   height="66.666664"
   viewBox="0 0 66.666664 66.666664"
   sodipodi:docname="Finance_Legal_Healthcare NLP.svg"
   inkscape:version="1.2.1 (9c6d41e410, 2022-07-14)"
   xmlns:inkscape="http://www.inkscape.org/namespaces/inkscape"
   xmlns:sodipodi="http://sodipodi.sourceforge.net/DTD/sodipodi-0.dtd"
   xmlns="http://www.w3.org/2000/svg"
   xmlns:svg="http://www.w3.org/2000/svg">
  <defs
     id="defs291">
    <clipPath
       clipPathUnits="userSpaceOnUse"
       id="clipPath303">
      <path
         d="M 0,50 H 50 V 0 H 0 Z"
         id="path301" />
    </clipPath>
  </defs>
  <sodipodi:namedview
     id="namedview289"
     pagecolor="#ffffff"
     bordercolor="#000000"
     borderopacity="0.25"
     inkscape:showpageshadow="2"
     inkscape:pageopacity="0.0"
     inkscape:pagecheckerboard="0"
     inkscape:deskcolor="#d1d1d1"
     showgrid="false"
     inkscape:zoom="12.21"
     inkscape:cx="33.333332"
     inkscape:cy="33.374282"
     inkscape:window-width="1920"
     inkscape:window-height="1001"
     inkscape:window-x="-9"
     inkscape:window-y="-9"
     inkscape:window-maximized="1"
     inkscape:current-layer="g295">
    <inkscape:page
       x="0"
       y="0"
       id="page293"
       width="66.666664"
       height="66.666664" />
  </sodipodi:namedview>
  <g
     id="g295"
     inkscape:groupmode="layer"
     inkscape:label="Page 1"
     transform="matrix(1.3333333,0,0,-1.3333333,0,66.666667)">
    <g
       id="g297">
      <g
         id="g299"
         clip-path="url(#clipPath303)">
        <g
           id="g305"
           transform="translate(34.0545,5.185)">
          <path
             d="m 0,0 c 0,-0.166 -0.135,-0.301 -0.311,-0.301 h -17.236 c -0.166,0 -0.312,0.135 -0.312,0.301 v 20.807 c 0,0.177 0.146,0.312 0.312,0.312 H -0.311 C -0.135,21.119 0,20.984 0,20.807 Z m -0.311,22.884 h -17.236 c -1.142,0 -2.077,-0.934 -2.077,-2.077 V 0 c 0,-1.142 0.935,-2.066 2.077,-2.066 h 17.236 c 1.152,0 2.076,0.924 2.076,2.066 v 20.807 c 0,1.143 -0.924,2.077 -2.076,2.077"
             style="fill:#ff8a00;fill-opacity:1;fill-rule:nonzero;stroke:none"
             id="path307" />
        </g>
        <g
           id="g309"
           transform="translate(29.704,15.6717)">
          <path
             d="M 0,0 C -0.509,0 -0.934,0.415 -0.934,0.924 -0.924,1.121 -0.623,1.692 0,2.45 0.623,1.692 0.924,1.121 0.934,0.924 0.934,0.415 0.509,0 0,0 m -9.085,0 c -0.519,0 -0.934,0.415 -0.934,0.924 0,0.197 0.301,0.768 0.934,1.526 C -8.462,1.692 -8.161,1.121 -8.161,0.924 -8.161,0.415 -8.576,0 -9.085,0 M 0.727,4.288 C 0.54,4.496 0.28,4.61 0.01,4.61 -0.052,4.61 -0.114,4.6 -0.166,4.589 h -0.01 C -0.27,4.631 -0.363,4.652 -0.467,4.652 h -3.229 v 1.775 c 0,0.488 -0.395,0.883 -0.883,0.883 -0.488,0 -0.882,-0.395 -0.882,-0.883 V 4.652 h -3.23 c -0.103,0 -0.197,-0.021 -0.28,-0.052 -0.031,0.01 -0.072,0.01 -0.114,0.01 -0.249,0 -0.571,-0.145 -0.737,-0.322 -0.893,-0.945 -1.963,-2.305 -1.963,-3.364 0,-1.485 1.205,-2.689 2.7,-2.689 1.485,0 2.689,1.204 2.689,2.689 0,0.602 -0.343,1.298 -0.81,1.962 h 1.745 V -5.7 h -1.215 c -0.488,0 -0.883,-0.395 -0.883,-0.883 0,-0.488 0.395,-0.882 0.883,-0.882 h 4.195 c 0.487,0 0.882,0.394 0.882,0.882 0,0.488 -0.395,0.883 -0.882,0.883 H -3.696 V 2.886 H -1.89 C -2.357,2.222 -2.7,1.526 -2.7,0.924 c 0,-1.485 1.215,-2.689 2.7,-2.689 1.485,0 2.7,1.204 2.7,2.689 0,1.059 -1.07,2.419 -1.973,3.364"
             style="fill:#ff8a00;fill-opacity:1;fill-rule:nonzero;stroke:none"
             id="path311" />
        </g>
        <g
           id="g313"
           transform="translate(48.0406,5.2422)">
          <path
             d="m 0,0 h -10.605 c -0.488,0 -0.882,0.394 -0.882,0.882 0,0.488 0.394,0.882 0.882,0.882 H 0 c 0.049,0 0.088,0.041 0.088,0.09 v 16.99 c 0,0.049 -0.039,0.088 -0.088,0.088 h -10.349 c -0.488,0 -0.883,0.396 -0.883,0.883 0,0.487 0.395,0.882 0.883,0.882 H 0 c 1.022,0 1.852,-0.831 1.852,-1.853 V 1.854 C 1.852,0.831 1.022,0 0,0"
             style="fill:#ff8a00;fill-opacity:1;fill-rule:nonzero;stroke:none"
             id="path315" />
        </g>
        <g
           id="g317"
           transform="translate(12.6713,5.2422)">
          <path
             d="m 0,0 h -10.605 c -1.022,0 -1.853,0.831 -1.853,1.854 v 16.99 c 0,1.022 0.831,1.853 1.853,1.853 h 10.349 c 0.488,0 0.883,-0.395 0.883,-0.882 0,-0.487 -0.395,-0.883 -0.883,-0.883 h -10.349 c -0.049,0 -0.088,-0.039 -0.088,-0.088 V 1.854 c 0,-0.049 0.039,-0.09 0.088,-0.09 L 0,1.764 C 0.487,1.764 0.883,1.37 0.883,0.882 0.883,0.394 0.487,0 0,0"
             style="fill:#ff8a00;fill-opacity:1;fill-rule:nonzero;stroke:none"
             id="path319" />
        </g>
        <g
           id="g321"
           transform="translate(45.6107,13.8755)">
          <path
             d="m 0,0 c 0,-1.215 -0.955,-2.201 -2.295,-2.502 v -0.374 c 0,-0.488 -0.394,-0.883 -0.882,-0.883 -0.488,0 -0.883,0.395 -0.883,0.883 v 0.363 c -0.737,0.177 -1.412,0.603 -1.889,1.226 -0.291,0.394 -0.218,0.944 0.176,1.235 0.384,0.301 0.935,0.218 1.236,-0.166 0.311,-0.415 0.81,-0.644 1.329,-0.623 h 0.031 c 0.82,0.01 1.412,0.446 1.412,0.841 0,0.395 -0.602,0.831 -1.412,0.831 -1.776,0 -3.167,1.142 -3.167,2.606 0,1.204 0.955,2.191 2.284,2.492 v 0.373 c 0,0.488 0.395,0.883 0.883,0.883 0.488,0 0.882,-0.395 0.882,-0.883 V 5.949 C -1.557,5.773 -0.883,5.347 -0.405,4.714 -0.104,4.33 -0.187,3.779 -0.571,3.478 -0.966,3.188 -1.516,3.26 -1.807,3.644 -2.118,4.06 -2.627,4.299 -3.136,4.278 H -3.177 C -3.997,4.267 -4.579,3.821 -4.579,3.437 -4.579,3.042 -3.977,2.596 -3.177,2.596 -1.391,2.596 0,1.454 0,0"
             style="fill:#ff8a00;fill-opacity:1;fill-rule:nonzero;stroke:none"
             id="path323" />
        </g>
        <g
           id="g325"
           transform="translate(7.7749,12.9939)">
          <path
             d="m 0,0 h 1.417 v 1.006 c 0,0.488 0.395,0.882 0.883,0.882 H 3.306 V 3.306 H 2.3 C 1.812,3.306 1.417,3.7 1.417,4.188 V 5.195 L 0,5.195 V 4.188 C 0,3.7 -0.395,3.306 -0.883,3.306 H -1.888 V 1.888 h 1.005 C -0.395,1.888 0,1.494 0,1.006 Z m 1.918,-1.764 h -2.419 c -0.697,0 -1.264,0.567 -1.264,1.263 v 0.625 h -0.624 c -0.697,0 -1.265,0.567 -1.265,1.263 v 2.419 c 0,0.697 0.568,1.264 1.265,1.264 h 0.624 v 0.624 c 0,0.698 0.567,1.265 1.264,1.265 h 2.419 c 0.697,0 1.264,-0.567 1.264,-1.265 V 5.07 h 0.623 c 0.698,0 1.266,-0.567 1.266,-1.264 V 1.387 C 5.071,0.691 4.503,0.124 3.805,0.124 H 3.182 v -0.625 c 0,-0.696 -0.567,-1.263 -1.264,-1.263"
             style="fill:#ff8a00;fill-opacity:1;fill-rule:nonzero;stroke:none"
             id="path327" />
        </g>
        <g
           id="g329"
           transform="translate(22.1764,36.4791)">
          <path
             d="m 0,0 v -6.136 c 0,-0.478 -0.384,-0.841 -0.893,-0.841 -0.322,0 -0.654,0.176 -0.81,0.425 v 0.011 l -2.17,3.779 v -3.405 c 0,-0.437 -0.394,-0.81 -0.862,-0.81 -0.467,0 -0.841,0.363 -0.841,0.81 v 6.136 c 0,0.477 0.374,0.841 0.883,0.841 0.322,0 0.644,-0.177 0.81,-0.447 0.612,-1.048 1.048,-1.817 1.537,-2.689 0.197,-0.353 0.404,-0.716 0.633,-1.111 V 0 c 0,0.436 0.405,0.81 0.872,0.81 C -0.374,0.81 0,0.446 0,0"
             style="fill:#ff8a00;fill-opacity:1;fill-rule:nonzero;stroke:none"
             id="path331" />
        </g>
        <g
           id="g333"
           transform="translate(28.427,30.3947)">
          <path
             d="m 0,0 c 0,-0.446 -0.363,-0.799 -0.831,-0.799 h -2.928 c -0.498,0 -0.913,0.384 -0.913,0.851 v 6.043 c 0,0.436 0.394,0.799 0.861,0.799 0.468,0 0.852,-0.363 0.852,-0.799 V 0.768 h 2.128 C -0.374,0.768 0,0.426 0,0"
             style="fill:#ff8a00;fill-opacity:1;fill-rule:nonzero;stroke:none"
             id="path335" />
        </g>
        <g
           id="g337"
           transform="translate(31.9676,33.6757)">
          <path
             d="M 0,0 H -0.758 V 1.942 H 0 C 0.716,1.942 1.059,1.63 1.059,0.966 1.059,0.311 0.716,0 0,0 m 0,3.52 h -1.526 c -0.509,0 -0.945,-0.405 -0.945,-0.883 v -5.991 c 0,-0.446 0.394,-0.82 0.862,-0.82 0.456,0 0.851,0.374 0.851,0.82 v 1.776 H 0 c 1.703,0 2.772,0.965 2.772,2.533 C 2.772,2.565 1.734,3.52 0,3.52"
             style="fill:#ff8a00;fill-opacity:1;fill-rule:nonzero;stroke:none"
             id="path339" />
        </g>
        <g
           id="g341"
           transform="translate(2.5956,26.4288)">
          <path
             d="m 0,0 c -0.487,0 -0.883,0.395 -0.883,0.883 0,4.429 3.149,8.315 7.459,9.381 -0.018,0.189 -0.028,0.379 -0.028,0.569 0,3.241 2.686,5.879 5.988,5.879 1.101,0 2.164,-0.294 3.086,-0.842 1.759,3.472 5.413,5.735 9.426,5.735 5.803,0 10.524,-4.629 10.524,-10.32 0,-0.154 -0.003,-0.307 -0.01,-0.459 5.197,-0.353 9.313,-4.612 9.313,-9.796 0,-0.488 -0.394,-0.883 -0.882,-0.883 -0.488,0 -0.882,0.395 -0.882,0.883 0,4.459 -3.7,8.048 -8.304,8.055 -0.046,0 -0.093,-0.001 -0.137,-0.004 -0.266,-0.032 -0.534,0.077 -0.719,0.274 -0.186,0.197 -0.27,0.468 -0.23,0.735 0.057,0.384 0.087,0.786 0.087,1.195 0,4.717 -3.93,8.555 -8.76,8.555 -3.672,0 -6.98,-2.267 -8.233,-5.64 -0.101,-0.275 -0.333,-0.481 -0.618,-0.55 -0.283,-0.072 -0.585,0.006 -0.802,0.204 -0.776,0.704 -1.791,1.092 -2.859,1.092 -2.328,0 -4.223,-1.845 -4.223,-4.113 0,-0.352 0.046,-0.701 0.136,-1.038 C 8.514,9.552 8.472,9.294 8.334,9.084 8.197,8.874 7.976,8.733 7.728,8.695 3.826,8.105 0.883,4.746 0.883,0.883 0.883,0.395 0.487,0 0,0"
             style="fill:#ff8a00;fill-opacity:1;fill-rule:nonzero;stroke:none"
             id="path343" />
        </g>
      </g>
    </g>
  </g>
</svg>
