<svg xmlns="http://www.w3.org/2000/svg" xml:space="preserve" width="66.667" height="66.667"><defs><clipPath clipPathUnits="userSpaceOnUse" id="a"><path d="M0 50h50V0H0Z"/></clipPath></defs><g clip-path="url(#a)" transform="matrix(1.33333 0 0 -1.33333 0 66.667)"><path d="M0 0h-.554a5.437 5.437 0 0 0-5.432 5.433V31.58a5.439 5.439 0 0 0 5.432 5.434H0a.85.85 0 1 0 0-1.701h-.554a3.737 3.737 0 0 1-3.733-3.733V5.433A3.738 3.738 0 0 1-.554 1.699H0A.85.85 0 1 0 0 0" style="fill:#0098da;fill-opacity:1;fill-rule:nonzero;stroke:none" transform="translate(36.489 6.685)"/><path d="M0 0h-4.291a.85.85 0 1 0 0 1.699H0A.85.85 0 1 0 0 0" style="fill:#0098da;fill-opacity:1;fill-rule:nonzero;stroke:none" transform="translate(35.643 24.343)"/><path d="M0 0a.75.75 0 0 1-.19-.5v-6.643a.14.14 0 0 1 .141-.14h7.521a.14.14 0 0 1 .14.14v9.287a.14.14 0 0 1-.14.14H3.237a.758.758 0 0 1-.533-.22.8.8 0 0 0-.088-.076Zm7.472-8.983H-.049a1.843 1.843 0 0 0-1.841 1.84V-.5c0 .655.255 1.271.719 1.736a.8.8 0 0 0 .088.076l2.63 1.998a2.472 2.472 0 0 0 1.689.674h4.236c1.014 0 1.84-.825 1.84-1.84v-9.287c0-1.014-.826-1.84-1.84-1.84" style="fill:#0098da;fill-opacity:1;fill-rule:nonzero;stroke:none" transform="translate(40.294 45.184)"/><path d="M0 0h-2.386a.85.85 0 0 0 0 1.7H0c.417 0 .757.339.757.756v1.743a.85.85 0 1 0 1.699 0V2.456A2.46 2.46 0 0 0 0 0" style="fill:#0098da;fill-opacity:1;fill-rule:nonzero;stroke:none" transform="translate(41.662 44.098)"/><path d="M0 0h-4.944a.85.85 0 1 0 0 1.7H0A.85.85 0 1 0 0 0" style="fill:#0098da;fill-opacity:1;fill-rule:nonzero;stroke:none" transform="translate(46.478 41.952)"/><path d="M0 0h-4.944a.85.85 0 1 0 0 1.7H0A.85.85 0 1 0 0 0" style="fill:#0098da;fill-opacity:1;fill-rule:nonzero;stroke:none" transform="translate(46.478 39.204)"/><path d="M0 0a.751.751 0 0 1-.19-.501v-6.642a.14.14 0 0 1 .141-.14h7.521a.14.14 0 0 1 .14.14v9.287a.14.14 0 0 1-.14.14H3.237a.759.759 0 0 1-.534-.221.7.7 0 0 0-.087-.075Zm7.472-8.982H-.049A1.842 1.842 0 0 0-1.89-7.143v6.642c0 .656.255 1.272.719 1.737a.923.923 0 0 0 .088.076l2.631 1.999a2.473 2.473 0 0 0 1.688.673h4.236c1.014 0 1.84-.825 1.84-1.84v-9.287a1.842 1.842 0 0 0-1.84-1.839" style="fill:#0098da;fill-opacity:1;fill-rule:nonzero;stroke:none" transform="translate(40.294 27.574)"/><path d="M0 0h-2.386a.85.85 0 0 0 0 1.7H0c.417 0 .757.339.757.755v1.743a.85.85 0 1 0 1.699 0V2.455A2.458 2.458 0 0 0 0 0" style="fill:#0098da;fill-opacity:1;fill-rule:nonzero;stroke:none" transform="translate(41.662 26.488)"/><path d="M0 0h-4.944a.85.85 0 1 0 0 1.699H0A.85.85 0 1 0 0 0" style="fill:#0098da;fill-opacity:1;fill-rule:nonzero;stroke:none" transform="translate(46.478 24.343)"/><path d="M0 0h-4.944a.85.85 0 1 0 0 1.699H0A.85.85 0 1 0 0 0" style="fill:#0098da;fill-opacity:1;fill-rule:nonzero;stroke:none" transform="translate(46.478 21.595)"/><path d="M0 0a.753.753 0 0 1-.19-.501v-6.643a.14.14 0 0 1 .141-.14h7.521a.14.14 0 0 1 .14.14v9.287a.14.14 0 0 1-.14.141H3.238a.766.766 0 0 1-.534-.22.722.722 0 0 0-.088-.078Zm7.472-8.983H-.049A1.842 1.842 0 0 0-1.89-7.144v6.643c0 .654.255 1.271.719 1.735a.722.722 0 0 0 .088.078l2.63 1.997a2.475 2.475 0 0 0 1.691.674h4.234c1.014 0 1.84-.825 1.84-1.84v-9.287a1.842 1.842 0 0 0-1.84-1.839" style="fill:#0098da;fill-opacity:1;fill-rule:nonzero;stroke:none" transform="translate(40.294 9.965)"/><path d="M0 0h-2.386a.85.85 0 0 0 0 1.699H0c.417 0 .757.339.757.756v1.743a.85.85 0 1 0 1.699 0V2.455A2.459 2.459 0 0 0 0 0" style="fill:#0098da;fill-opacity:1;fill-rule:nonzero;stroke:none" transform="translate(41.662 8.878)"/><path d="M0 0h-4.944a.85.85 0 1 0 0 1.699H0A.85.85 0 1 0 0 0" style="fill:#0098da;fill-opacity:1;fill-rule:nonzero;stroke:none" transform="translate(46.478 6.732)"/><path d="M0 0h-4.944a.85.85 0 1 0 0 1.699H0A.85.85 0 1 0 0 0" style="fill:#0098da;fill-opacity:1;fill-rule:nonzero;stroke:none" transform="translate(46.478 3.984)"/><path d="M0 0h-17.481a4.547 4.547 0 0 0-4.543 4.542v13.899a.85.85 0 0 0 1.7 0V4.542a2.846 2.846 0 0 1 2.843-2.843H0a2.846 2.846 0 0 1 2.842 2.843v20.111A2.846 2.846 0 0 1 0 27.496h-8.626a.85.85 0 1 0 0 1.7H0a4.548 4.548 0 0 0 4.542-4.543V4.542A4.547 4.547 0 0 0 0 0" style="fill:#0098da;fill-opacity:1;fill-rule:nonzero;stroke:none" transform="translate(24.028 10.571)"/><path d="M0 0a5.022 5.022 0 0 0-3.975 1.983.851.851 0 0 0 1.353 1.03 3.345 3.345 0 0 1 2.781-1.31c1.673 0 3.059.942 3.059 2.058 0 1.113-1.382 2.054-3.018 2.054-2.605 0-4.724 1.686-4.724 3.758S-2.405 13.33.2 13.33a5.056 5.056 0 0 0 4.168-1.979.852.852 0 0 0-1.354-1.03 3.348 3.348 0 0 1-2.78 1.31c-1.673-.001-3.058-.943-3.058-2.058 0-1.115 1.385-2.058 3.024-2.058 2.602 0 4.718-1.684 4.718-3.754C4.918 1.689 2.798.004.192.004A4.1 4.1 0 0 0 0 0" style="fill:#0098da;fill-opacity:1;fill-rule:nonzero;stroke:none" transform="translate(15.087 17.503)"/><path d="M0 0a.85.85 0 0 0-.85.85v1.936a.85.85 0 1 0 1.7 0V.85A.85.85 0 0 0 0 0" style="fill:#0098da;fill-opacity:1;fill-rule:nonzero;stroke:none" transform="translate(15.287 15.57)"/><path d="M0 0a.85.85 0 0 0-.85.85v1.937a.85.85 0 0 0 1.7 0V.85A.85.85 0 0 0 0 0" style="fill:#0098da;fill-opacity:1;fill-rule:nonzero;stroke:none" transform="translate(15.287 29.133)"/><path d="m0 0-.002-.002zm-9.334-.065.002-.002-.002.002M.152-.461l.003-.001zm-9.625-.071h-.001.001m.89-2.446v-.001zm7.81-.182-.001-.002.001.002m-8.16 2.71 1.608-1.543c.34-.325.497-.797.42-1.262l-.361-2.199 1.963 1.05c.416.222.917.227 1.337.012l1.986-1.023-.393 2.195c-.082.465.069.939.405 1.268L-.39-.387l-2.207.303a1.438 1.438 0 0 0-1.084.772l-1.004 1.995-.973-2.006a1.434 1.434 0 0 0-1.076-.791Zm1.319-6.926c-.29 0-.579.089-.828.263a1.428 1.428 0 0 0-.589 1.399l.425 2.594-1.902 1.826a1.429 1.429 0 0 0 .78 2.443l2.602.396 1.144 2.359.002.003c.241.492.731.8 1.279.805h.01c.546 0 1.037-.3 1.284-.786l1.18-2.345 2.608-.358c.533-.07.992-.448 1.165-.963a1.432 1.432 0 0 0-.352-1.47L-.674-3.063-.21-5.65a1.434 1.434 0 0 0-2.071-1.521l-2.34 1.204-2.314-1.238a1.443 1.443 0 0 0-.679-.171" style="fill:#0098da;fill-opacity:1;fill-rule:nonzero;stroke:none" transform="translate(11.341 39.564)"/></g></svg>