<svg xmlns="http://www.w3.org/2000/svg" xml:space="preserve" width="66.667" height="66.667"><defs><clipPath clipPathUnits="userSpaceOnUse" id="a"><path d="M0 50h50V0H0Z"/></clipPath></defs><g clip-path="url(#a)" transform="matrix(1.33333 0 0 -1.33333 0 66.667)"><path d="M0 0c-4.025 0-7.3 3.274-7.3 7.299s3.275 7.3 7.3 7.3c4.024 0 7.299-3.275 7.299-7.3S4.024 0 0 0m0 16.298c-4.962 0-8.999-4.037-8.999-8.999 0-4.962 4.037-8.998 8.999-8.998 4.962 0 8.998 4.036 8.998 8.998S4.962 16.298 0 16.298" style="fill:#0098da;fill-opacity:1;fill-rule:nonzero;stroke:none" transform="translate(38.514 8.447)"/><path d="M0 0c-.714 0-1.248.383-1.248.726 0 .341.534.723 1.283.723.434.024.9-.187 1.178-.553a.849.849 0 1 1 1.353 1.027A3.105 3.105 0 0 1 .85 3.051v.297a.85.85 0 0 1-1.7 0v-.31c-1.223-.295-2.097-1.2-2.097-2.312 0-1.361 1.294-2.425 2.947-2.425.712 0 1.244-.382 1.244-.723 0-.342-.534-.724-1.283-.724a1.412 1.412 0 0 0-1.179.555.85.85 0 0 1-1.353-1.029A3.116 3.116 0 0 1-.85-4.754v-.291a.85.85 0 1 1 1.7 0v.311c1.22.296 2.093 1.2 2.093 2.312C2.943-1.063 1.65 0 0 0" style="fill:#0098da;fill-opacity:1;fill-rule:nonzero;stroke:none" transform="translate(38.766 16.885)"/><path d="M0 0a3.24 3.24 0 0 0 .656-.96H-3.96c-1.566 0-2.841 1.435-2.841 3.199v4.562zm-7.03-7.693c.1-.101.18-.216.267-.326h-4.91c-1.566 0-2.841 1.436-2.841 3.2v4.598c.022-.021.048-.036.07-.057zm1.906-27.427a.85.85 0 0 1-.85-.85 1.9 1.9 0 0 0-1.898-1.898h-26.871a1.9 1.9 0 0 0-1.899 1.898v34.647c0 1.158.942 2.1 2.1 2.1h17.551c.265 0 .524-.035.777-.09v-5.506c0-2.702 2.037-4.9 4.541-4.9h5.486c.057 0 .106.022.159.032.028-.184.054-.368.054-.558v-2.191a.85.85 0 1 1 1.7 0v2.191c0 1.417-.551 2.75-1.553 3.753L-13.242.924a5.269 5.269 0 0 1-3.749 1.553h-10.054V5.91c0 .882 1.736 1.863 2.913 1.863h15.016c.207 0 .414-.022.616-.061V2.239c0-2.702 2.036-4.9 4.54-4.9H.952V-13.25a.85.85 0 1 1 1.699 0v10.951a4.915 4.915 0 0 1-1.449 3.501l-6.821 6.823a4.983 4.983 0 0 1-3.497 1.449h-15.016c-1.858 0-4.613-1.497-4.613-3.564V2.477h-5.797a3.805 3.805 0 0 1-3.8-3.8V-35.97a3.601 3.601 0 0 1 3.599-3.597h26.871a3.601 3.601 0 0 1 3.598 3.597c0 .47-.38.85-.85.85" style="fill:#0098da;fill-opacity:1;fill-rule:nonzero;stroke:none" transform="translate(40.83 39.972)"/><path d="M0 0h-17.721a.85.85 0 1 1 0-1.699H0A.85.85 0 1 1 0 0" style="fill:#0098da;fill-opacity:1;fill-rule:nonzero;stroke:none" transform="translate(25.465 7.078)"/><path d="M0 0h-17.721a.85.85 0 1 1 0-1.699H0A.85.85 0 1 1 0 0" style="fill:#0098da;fill-opacity:1;fill-rule:nonzero;stroke:none" transform="translate(25.465 11.837)"/><path d="M0 0h-17.721a.85.85 0 1 1 0-1.699H0A.85.85 0 1 1 0 0" style="fill:#0098da;fill-opacity:1;fill-rule:nonzero;stroke:none" transform="translate(25.465 16.596)"/><path d="M9.244 23.839h.961v-1.707h-.961Zm5.404 4.273h.96v-5.98h-.96zm5.403-1.709h.961v-4.271h-.961ZM7.534 24.267v-2.135h-.035a.855.855 0 0 1 0-1.711h15.258a.855.855 0 0 1 0 1.711h-.035v4.699c0 .707-.583 1.282-1.3 1.282h-1.78a1.293 1.293 0 0 1-1.301-1.282v-4.699h-1.023v6.408c0 .707-.583 1.282-1.299 1.282h-1.781c-.717 0-1.3-.575-1.3-1.282v-6.408h-1.023v2.135c0 .707-.583 1.282-1.3 1.282H8.834c-.717 0-1.3-.575-1.3-1.282" style="fill:#0098da;fill-opacity:1;fill-rule:nonzero;stroke:none"/><path d="m0 0-3.388.87A2.24 2.24 0 0 1-5.482.326l-3.461-3.323A.855.855 0 1 1-7.758-4.23l3.46 3.322c.125.12.309.167.485.121l3.364-.863a2.234 2.234 0 0 1 2.157.526l2.526 2.426V.575a.855.855 0 0 1 1.71 0v2.484c0 .515-.42.935-.935.935H2.418a.855.855 0 0 1 0-1.71h.369L.523.11A.536.536 0 0 0 0 0" style="fill:#0098da;fill-opacity:1;fill-rule:nonzero;stroke:none" transform="translate(17.286 32.197)"/></g></svg>