<svg width="66.667" height="66.667" xmlns="http://www.w3.org/2000/svg"><defs><clipPath clipPathUnits="userSpaceOnUse" id="a"><path d="M0 50h50V0H0Z"/></clipPath></defs><g clip-path="url(#a)" transform="matrix(1.33333 0 0 -1.33333 0 66.667)"><path d="M0 0c.444 0 .804.359.804.804v.485c0 2.658-2.16 4.82-4.819 4.82h-26.41a4.825 4.825 0 0 1-4.82-4.82V.804a.804.804 0 0 1 1.61 0v.485a3.214 3.214 0 0 0 3.21 3.211h12.4V1.546a.804.804 0 1 1 1.61 0V4.5h12.4c1.771 0 3.21-1.44 3.21-3.211V.804C-.805.359-.445 0 0 0" style="fill:#0098da;fill-opacity:1;fill-rule:nonzero;stroke:none" transform="translate(42.333 9.662)"/><path d="m0 0-8.404.063v5.819c0 .04.032.072.071.072h8.324c.04 0 .072-.032.072-.072zm-.009 7.563h-8.324a1.682 1.682 0 0 1-1.681-1.681V.063c0-.921.75-1.671 1.672-1.671H0c.923 0 1.672.75 1.672 1.671v5.819c0 .928-.753 1.681-1.681 1.681" style="fill:#0098da;fill-opacity:1;fill-rule:nonzero;stroke:none" transform="translate(46.266 1.77)"/><path d="M0 0h-4.33a.804.804 0 1 1 0-1.609H0A.805.805 0 1 1 0 0" style="fill:#0098da;fill-opacity:1;fill-rule:nonzero;stroke:none" transform="translate(44.26 6.808)"/><path d="M0 0h-4.33a.804.804 0 1 1 0-1.608H0A.804.804 0 1 1 0 0" style="fill:#0098da;fill-opacity:1;fill-rule:nonzero;stroke:none" transform="translate(44.26 4.4)"/><path d="m0 0-8.404.063v5.819a.07.07 0 0 0 .071.072h8.324a.07.07 0 0 0 .072-.072zm-.009 7.563h-8.324a1.682 1.682 0 0 1-1.681-1.681V.063c0-.921.75-1.671 1.673-1.671H0c.922 0 1.672.75 1.672 1.671v5.819c0 .928-.753 1.681-1.681 1.681" style="fill:#0098da;fill-opacity:1;fill-rule:nonzero;stroke:none" transform="translate(28.732 1.77)"/><path d="M0 0h-4.332a.804.804 0 0 1 0-1.609H0A.804.804 0 0 1 0 0" style="fill:#0098da;fill-opacity:1;fill-rule:nonzero;stroke:none" transform="translate(26.727 6.808)"/><path d="M0 0h-4.332a.804.804 0 1 1 0-1.608H0A.803.803 0 1 1 0 0" style="fill:#0098da;fill-opacity:1;fill-rule:nonzero;stroke:none" transform="translate(26.727 4.4)"/><path d="m0 0-8.404.063v5.819c0 .04.031.072.071.072h8.324a.07.07 0 0 0 .071-.072zm-.009 7.563h-8.324a1.682 1.682 0 0 1-1.681-1.681V.063c0-.921.75-1.671 1.672-1.671H0c.922 0 1.672.75 1.672 1.671v5.819c0 .928-.754 1.681-1.681 1.681" style="fill:#0098da;fill-opacity:1;fill-rule:nonzero;stroke:none" transform="translate(12.076 1.77)"/><path d="M0 0h-4.331a.804.804 0 0 1 0-1.609H0A.805.805 0 1 1 0 0" style="fill:#0098da;fill-opacity:1;fill-rule:nonzero;stroke:none" transform="translate(10.07 6.808)"/><path d="M0 0h-4.331a.804.804 0 1 1 0-1.608H0A.804.804 0 1 1 0 0" style="fill:#0098da;fill-opacity:1;fill-rule:nonzero;stroke:none" transform="translate(10.07 4.4)"/><path d="M0 0c0-.767-.624-1.39-1.391-1.39h-8.282c-.766 0-1.39.623-1.39 1.39v8.096c0 .766.624 1.389 1.39 1.389h8.282C-.624 9.485 0 8.862 0 8.096Zm1.609 0v8.096a3.002 3.002 0 0 1-3 2.999h-8.282a3.002 3.002 0 0 1-2.999-2.999V0a3.002 3.002 0 0 1 2.999-2.998h8.282c1.655 0 3 1.345 3 2.998" style="fill:#0098da;fill-opacity:1;fill-rule:nonzero;stroke:none" transform="translate(44.427 20.857)"/><path d="M0 0c.07.258.119.524.119.803 0 .459-.105.891-.285 1.283C.421 1.508.7.94.7.94S.446.511 0 0m-6.679.877s.275.641.896 1.263A3.062 3.062 0 0 1-6.098.803c0-.333.067-.649.164-.95-.478.544-.745 1.024-.745 1.024m5.472-.074a1.782 1.782 0 1 0-3.564 0 1.782 1.782 0 0 0 3.564 0m-1.826 3.818h-.043c-3.45-.027-4.772-3.103-4.826-3.234l-.247-.592.31-.56c.074-.133 1.834-3.249 4.773-3.249 2.924.033 4.715 2.952 4.91 3.285l.358.611-.309.638c-.062.126-1.545 3.101-4.926 3.101" style="fill:#0098da;fill-opacity:1;fill-rule:nonzero;stroke:none" transform="translate(41.885 24.102)"/><path d="M0 0a.88.88 0 1 1 1.76 0A.88.88 0 0 1 0 0" style="fill:#0098da;fill-opacity:1;fill-rule:nonzero;stroke:none" transform="translate(38.016 24.905)"/><path d="M0 0h35.521c.839 0 1.523-.626 1.523-1.396v-2.702H-1.524v2.702C-1.524-.626-.841 0 0 0m0-29.562h22.141a.803.803 0 1 1 0 1.609H0c-.841 0-1.524.626-1.524 1.395v20.85h38.568v-7.75a.805.805 0 0 1 1.609 0v12.062c0 1.657-1.405 3.005-3.132 3.005H0c-1.728 0-3.134-1.348-3.134-3.005v-25.162c0-1.656 1.406-3.004 3.134-3.004" style="fill:#0098da;fill-opacity:1;fill-rule:nonzero;stroke:none" transform="translate(6.946 48.23)"/><path d="M0 0h10.866a.804.804 0 0 1 0 1.61H0A.804.804 0 0 1 0 0" style="fill:#0098da;fill-opacity:1;fill-rule:nonzero;stroke:none" transform="translate(29.918 37.88)"/><path d="M0 0h10.866a.804.804 0 0 1 0 1.61H0A.805.805 0 0 1 0 0" style="fill:#0098da;fill-opacity:1;fill-rule:nonzero;stroke:none" transform="translate(29.918 34.047)"/><path d="M0 0c.444 0 .805.36.805.805v.768c1.711.3 2.997 1.522 2.997 2.984 0 1.685-1.705 3.055-3.802 3.055-1.19 0-2.196.664-2.196 1.449 0 .784 1.006 1.447 2.229 1.448a2.459 2.459 0 0 0 2.031-.957.805.805 0 1 1 1.282.974 4.046 4.046 0 0 1-2.541 1.533v.754a.806.806 0 1 1-1.61 0v-.767c-1.713-.298-3.001-1.522-3.001-2.985 0-1.686 1.707-3.059 3.806-3.059 1.189 0 2.192-.662 2.192-1.445 0-.785-1.006-1.447-2.23-1.448a2.462 2.462 0 0 0-2.032.957.804.804 0 1 1-1.281-.975A4.035 4.035 0 0 1-.805 1.573V.805C-.805.36-.444 0 0 0" style="fill:#0098da;fill-opacity:1;fill-rule:nonzero;stroke:none" transform="translate(21.282 24.633)"/><path d="M0 0a6.611 6.611 0 0 0 2.652 2.554C2.28 1.831 1.981.969 1.774 0Zm1.527-4.915H-.656a6.53 6.53 0 0 0-.219 1.652c0 .572.081 1.124.218 1.653h2.184a16.967 16.967 0 0 1 0-3.305m1.125-4.164A6.613 6.613 0 0 0 0-6.524h1.774c.207-.97.506-1.832.878-2.555m3.04 12.384a.806.806 0 0 1 0 1.61c-3.528 0-6.533-2.251-7.677-5.389-.008-.017-.013-.035-.019-.052a8.123 8.123 0 0 1-.481-2.737c0-.966.177-1.89.486-2.751l.011-.029c1.142-3.142 4.148-5.395 7.68-5.395a.804.804 0 1 1 0 1.608c-.845 0-1.756 1.297-2.255 3.306H5.2a.804.804 0 1 1 0 1.609H3.152c-.06.525-.096 1.076-.096 1.652 0 .577.036 1.128.096 1.653H5.2A.804.804 0 1 1 5.2 0H3.437c.499 2.008 1.41 3.305 2.255 3.305" style="fill:#0098da;fill-opacity:1;fill-rule:nonzero;stroke:none" transform="translate(10.945 34.704)"/></g></svg>