<svg width="38" height="36" fill="none" xmlns="http://www.w3.org/2000/svg"><path d="M19 26.24c.46 0 .9.16 1.26.46l.83-.92a3.25 3.25 0 00-3.4-.49 3.07 3.07 0 00-1.87 2.78c0 1.19.73 2.29 1.87 2.77 1.13.5 2.46.3 3.4-.48l-.83-.92c-.47.4-1.11.55-1.71.4-.6-.13-1.1-.56-1.32-1.12a1.8 1.8 0 01.2-1.69c.37-.5.95-.8 1.57-.8z" fill="#0098DA"/><path d="M23.1 26.47l1.18-.46a5.75 5.75 0 00-6.38-3.33 5.55 5.55 0 00-4.61 5.39c0 2.62 1.93 4.89 4.61 5.39 2.68.5 5.35-.9 6.38-3.34l-1.17-.46a4.48 4.48 0 01-4.96 2.6 4.32 4.32 0 01-3.6-4.2 4.3 4.3 0 013.6-4.18c2.09-.4 4.16.69 4.96 2.6z" fill="#0098DA"/><path d="M37.37 25.63H32.3a.6.6 0 00-.44.18l-1.72 1.65H19v1.22h11.14l1.7 1.65c.12.1.3.18.45.18h5.07c.34 0 .63-.28.63-.61v-3.66a.6.6 0 00-.62-.61zm-.64 3.66h-4.17l-1.26-1.22 1.26-1.22h4.17v2.44zM6.33 20.75H5.07v3.66h1.26v-3.66z" fill="#0098DA"/><path d="M35.47 24.4v-4.8c0-1.4-1-2.63-2.4-2.96L30.4 16v-.4c.8-.53 1.27-1.4 1.27-2.33v-3.5c0-2.03-1.7-3.67-3.8-3.67-2.1 0-3.8 1.64-3.8 3.66v.75l-2.54-.61v-.4c.8-.52 1.27-1.4 1.27-2.32V3.66C22.8 1.64 21.1 0 19 0c-2.1 0-3.8 1.64-3.8 3.66v3.52c0 .93.48 1.8 1.27 2.32v.4l-2.54.6v-.74c0-2.02-1.7-3.66-3.8-3.66-2.1 0-3.8 1.64-3.8 3.66v3.52c0 .93.47 1.8 1.27 2.33v.4l-2.67.64a3.07 3.07 0 00-2.4 2.95v4.8H3.8v-4.8c0-.85.6-1.57 1.44-1.78l3.14-.76a.6.6 0 00.48-.59v-1.22a.61.61 0 00-.35-.54 1.59 1.59 0 01-.92-1.43V9.76a2.48 2.48 0 012.53-2.44c1.4 0 2.54 1.09 2.54 2.44v3.52c0 .6-.35 1.16-.92 1.43a.6.6 0 00-.35.54v1.22c0 .29.2.53.47.6l3.15.75c.82.2 1.41.9 1.44 1.72l1.26-.04a3.1 3.1 0 00-2.4-2.87l-2.66-.64v-.4c.8-.53 1.26-1.4 1.26-2.33v-1.48l.17-.07 3.15-.77a.61.61 0 00.47-.59v-1.2a.61.61 0 00-.35-.55 1.59 1.59 0 01-.91-1.42V3.66a2.48 2.48 0 012.53-2.44c1.4 0 2.53 1.09 2.53 2.44v3.52c0 .61-.35 1.16-.92 1.42a.61.61 0 00-.34.55v1.22c0 .29.2.53.47.6l3.15.76c.06 0 .11.03.16.05v1.5c0 .93.47 1.8 1.27 2.33v.4l-2.67.64a3.09 3.09 0 00-2.4 2.87l1.27.04c.03-.82.61-1.52 1.44-1.72l3.14-.76a.62.62 0 00.49-.58v-1.23a.61.61 0 00-.35-.54 1.59 1.59 0 01-.92-1.43V9.76a2.48 2.48 0 012.53-2.44c1.4 0 2.54 1.09 2.54 2.44v3.52c0 .6-.35 1.16-.92 1.43a.6.6 0 00-.35.54v1.22c0 .29.2.53.48.6l3.14.75c.85.2 1.44.93 1.44 1.78v4.8h1.32z" fill="#0098DA"/><path d="M32.93 20.75h-1.26v3.66h1.26v-3.66zM.26 28.57L2.8 30.3c.22.15.5.15.73 0l2.37-1.62h4.9a8.08 8.08 0 007.48 7.29 8.21 8.21 0 008.69-5.92l-1.22-.3a6.96 6.96 0 01-7.63 4.98 6.8 6.8 0 01-6.09-6.66 6.8 6.8 0 016.1-6.66 6.96 6.96 0 017.62 4.98l1.22-.3a8.22 8.22 0 00-8.69-5.92 8.08 8.08 0 00-7.48 7.29H5.9l-2.36-1.62a.64.64 0 00-.73 0L.27 27.57a.59.59 0 00-.27.5c0 .2.1.38.26.5zm2.9-1.48l1.44.98-1.43.97-1.44-.97 1.44-.98z" fill="#0098DA"/></svg>