<svg width="38" height="38" fill="none" xmlns="http://www.w3.org/2000/svg" style=""><rect id="backgroundrect" width="100%" height="100%" x="0" y="0" fill="none" stroke="none"/><g class="currentLayer" style=""><title>Layer 1</title><path d="M12.15 15.13l-.1.1v6.93c0 .2.1.48.3.57l6.46 3.9h.57l6.47-3.9c.19-.1.28-.28.28-.57V15.7v-.19-.19-.09s0-.1-.1-.1l-.09-.09-.1-.1-6.46-3.89a.81.81 0 00-.67 0l-6.56 4.08c.1 0 .1 0 0 0zm12.75 6.65l-5.23 3.13v-4.93l5.23-3.14v4.94zm-.58-6.17l-5.23 3.13-2-1.23 5.24-3.14 2 1.24zm-5.23-3.13l2 1.23-5.23 3.13-2-1.23 5.23-3.13zm-5.89 4.27l5.23 3.13v4.94l-5.23-3.13v-4.94zM19.76 2.6l.76 1.05 1.05-.76-2-2.66c-.19-.29-.67-.29-.95-.1l-.1.1-2 2.56 1.05.76.76-1.04v5.22h1.34V2.6h.1zM19.67 35.45v-5.22h-1.34v5.22l-.76-1.04-1.04.76 2 2.56c.18.29.66.38.95.1.09 0 .09-.1.09-.1l2-2.56-1.05-.76-.85 1.04zM7.78 18.17H2.55l1.05-.76-.77-1.04-2.56 2c-.29.18-.38.66-.1.94 0 .1.1.1.1.1l2.56 2 .77-1.05-1.05-.76h5.23v-1.43zM35.17 16.46l-.77 1.05 1.05.76h-5.23v1.33h5.23l-1.05.76.77 1.04 2.56-2c.29-.18.38-.66.1-.94 0-.1-.1-.1-.1-.1l-2.56-1.9zM11.3 10.2L7.59 6.5l1.33.18.2-1.33-3.24-.47c-.38-.1-.67.19-.76.57v.19l.47 3.23 1.33-.2-.19-1.32 3.71 3.7.86-.85zM31.36 29.1l.2 1.32-3.72-3.7-.95.95 3.71 3.7-1.33-.19-.2 1.33 3.24.48h.1c.38 0 .66-.29.66-.67v-.1L32.6 29l-1.24.1zM10.35 26.72l-3.71 3.7.19-1.33-1.33-.19-.48 3.23c-.1.38.2.67.57.76h.2l3.23-.47-.2-1.33-1.33.19 3.71-3.7-.85-.86zM32.6 8.87l.47-3.23c0-.19 0-.38-.19-.57-.19-.19-.38-.19-.57-.19l-3.23.47.19 1.33 1.33-.19-3.7 3.7.94.96 3.71-3.7-.19 1.32 1.24.1zM11.68 12.38a.73.73 0 01-.48-.19c-.28-.28-.28-.66 0-.95.29-.28.67-.28.95 0 .29.29.29.67 0 .95-.1.2-.28.2-.47.2zM19.1 10a.73.73 0 01-.48-.18c-.29-.29-.29-.67 0-.95.28-.29.67-.29.95 0 .29.28.29.66 0 .95-.1.1-.28.19-.47.19zM26.32 12.29a.73.73 0 01-.47-.2c-.29-.28-.29-.66 0-.94.28-.29.66-.29.95 0 .28.28.28.66 0 .95-.2.1-.38.19-.48.19zM28.7 19.5a.73.73 0 01-.48-.19c-.28-.28-.28-.66 0-.95.29-.28.67-.28.95 0 .29.29.29.67 0 .95-.19.2-.38.2-.47.2zM26.42 26.81a.73.73 0 01-.48-.19c-.28-.28-.28-.66 0-.95.29-.28.67-.28.95 0 .29.29.29.67 0 .95-.19.2-.28.2-.47.2zM18.9 29.57a.73.73 0 01-.47-.2c-.29-.28-.29-.66 0-.94.28-.29.67-.29.95 0 .29.28.29.66 0 .95-.1.1-.28.19-.48.19zM11.77 26.9a.73.73 0 01-.47-.18c-.29-.29-.29-.67 0-.95.28-.29.66-.29.95 0 .28.28.28.66 0 .95-.1.19-.29.19-.48.19zM9.11 19.6a.73.73 0 01-.47-.2c-.29-.28-.29-.66 0-.94.28-.29.66-.29.95 0 .28.28.28.66 0 .95-.1.1-.29.19-.48.19z" fill="#ffffff" id="svg_1" class="selected" fill-opacity="1"/></g></svg>