<svg width="35" height="35" fill="none" xmlns="http://www.w3.org/2000/svg"><rect id="backgroundrect" width="100%" height="100%" x="0" y="0" fill="none" stroke="none"/>





<g class="currentLayer" style=""><title>Layer 1</title><path d="M32.7419 15.8065C32.7419 12.071 29.7031 9.03226 25.9677 9.03226C22.2323 9.03226 19.1935 12.071 19.1935 15.8065C19.1935 19.5419 22.2323 22.5806 25.9677 22.5806C29.7031 22.5806 32.7419 19.5419 32.7419 15.8065ZM20.3226 15.8065C20.3226 12.6937 22.855 10.1613 25.9677 10.1613C29.0805 10.1613 31.6129 12.6937 31.6129 15.8065C31.6129 18.9192 29.0805 21.4516 25.9677 21.4516C22.855 21.4516 20.3226 18.9192 20.3226 15.8065Z" fill="#ffffff" id="svg_1" class="selected" fill-opacity="1"/><path d="M28.2258 24.5412C32.1148 23.5347 35 20.0059 35 15.8065C35 10.8263 30.9479 6.77419 25.9677 6.77419V2.82258C25.9677 1.26621 24.7015 0 23.1452 0H2.82258C1.26621 0 0 1.26621 0 2.82258V14.1129C0 15.6693 1.26621 16.9355 2.82258 16.9355H10.4238L12.2957 19.7434C12.5373 20.1064 12.9415 20.3226 13.3773 20.3226C14.0943 20.3226 14.6774 19.7394 14.6774 19.0225V16.9355H17.014C17.4774 20.628 20.1752 23.6267 23.7097 24.5412V25.4032C23.7097 25.7064 23.796 25.9869 23.936 26.2336C23.4624 26.534 23.1452 27.0601 23.1452 27.6613V32.1774C23.1452 33.7338 24.4114 35 25.9677 35C27.5241 35 28.7903 33.7338 28.7903 32.1774V27.6613C28.7903 27.0601 28.4731 26.534 27.9994 26.2336C28.1394 25.9869 28.2258 25.7064 28.2258 25.4032V24.5412ZM13.5484 15.8065V19.0225C13.5484 19.1744 13.3198 19.2432 13.2351 19.1173L11.0278 15.8065H2.82258C1.88887 15.8065 1.12903 15.0466 1.12903 14.1129V2.82258C1.12903 1.88887 1.88887 1.12903 2.82258 1.12903H23.1452C24.0789 1.12903 24.8387 1.88887 24.8387 2.82258V6.85266C22.5981 7.13379 20.615 8.23742 19.1935 9.8525V6.20968C19.1935 5.27597 19.9534 4.51613 20.8871 4.51613C21.8208 4.51613 22.5806 5.27597 22.5806 6.20968H23.7097C23.7097 4.65331 22.4435 3.3871 20.8871 3.3871C19.3307 3.3871 18.0645 4.65331 18.0645 6.20968V10.7258C18.0645 10.9285 18.0939 11.1283 18.1368 11.3253C17.3769 12.6474 16.9355 14.175 16.9355 15.8065H13.5484ZM18.0645 15.8065C18.0645 11.4484 21.6097 7.90323 25.9677 7.90323C30.3258 7.90323 33.871 11.4484 33.871 15.8065C33.871 20.1645 30.3258 23.7097 25.9677 23.7097C21.6097 23.7097 18.0645 20.1645 18.0645 15.8065ZM25.9677 24.8387C26.351 24.8387 26.7259 24.8071 27.0968 24.7602V25.4032C27.0968 25.7143 26.8439 25.9677 26.5323 25.9677H25.4032C25.0916 25.9677 24.8387 25.7143 24.8387 25.4032V24.7602C25.2096 24.8071 25.5844 24.8387 25.9677 24.8387ZM27.6613 32.1774C27.6613 33.1111 26.9015 33.871 25.9677 33.871C25.034 33.871 24.2742 33.1111 24.2742 32.1774V27.6613C24.2742 27.3502 24.5271 27.0968 24.8387 27.0968H27.0968C27.4084 27.0968 27.6613 27.3502 27.6613 27.6613V32.1774Z" fill="#ffffff" id="svg_2" class="selected" fill-opacity="1"/><path d="M15.8065 6.20968C15.8065 4.65331 14.5402 3.3871 12.9839 3.3871H10.1613V13.5484H12.9839C14.5402 13.5484 15.8065 12.2822 15.8065 10.7258C15.8065 9.80339 15.3616 8.98314 14.6757 8.46774C15.3616 7.95234 15.8065 7.1321 15.8065 6.20968ZM14.6774 10.7258C14.6774 11.6595 13.9176 12.4194 12.9839 12.4194H11.2903V9.03226H12.9839C13.9176 9.03226 14.6774 9.7921 14.6774 10.7258ZM12.9839 7.90323H11.2903V4.51613H12.9839C13.9176 4.51613 14.6774 5.27597 14.6774 6.20968C14.6774 7.14339 13.9176 7.90323 12.9839 7.90323Z" fill="#ffffff" id="svg_3" class="selected" fill-opacity="1"/><path d="M5.08065 3.3871C3.52427 3.3871 2.25806 4.65331 2.25806 6.20968V13.5484H3.3871V10.1613H6.77419V13.5484H7.90323V6.20968C7.90323 4.65331 6.63702 3.3871 5.08065 3.3871ZM3.3871 9.03226V6.20968C3.3871 5.27597 4.14694 4.51613 5.08065 4.51613C6.01435 4.51613 6.77419 5.27597 6.77419 6.20968V9.03226H3.3871Z" fill="#ffffff" id="svg_4" class="selected" fill-opacity="1"/><path d="M28.9556 12.5848L24.2741 17.2663L22.9796 15.9719L22.1814 16.7701L24.2741 18.8627L29.7538 13.383L28.9556 12.5848Z" fill="#ffffff" id="svg_5" class="selected" fill-opacity="1"/></g></svg>