<svg xmlns="http://www.w3.org/2000/svg" xml:space="preserve" width="66.667" height="66.667"><defs><clipPath clipPathUnits="userSpaceOnUse" id="a"><path d="M0 50h50V0H0Z"/></clipPath></defs><g clip-path="url(#a)" transform="matrix(1.33333 0 0 -1.33333 0 66.667)"><path d="M0 0h-.554a5.437 5.437 0 0 0-5.432 5.433v26.148a5.439 5.439 0 0 0 5.432 5.433H0a.85.85 0 1 0 0-1.701h-.554a3.737 3.737 0 0 1-3.733-3.732V5.433A3.738 3.738 0 0 1-.554 1.699H0A.85.85 0 1 0 0 0" style="fill:#ffffff;fill-opacity:1;fill-rule:nonzero;stroke:none" transform="translate(35.567 6.48)"/><path d="M0 0h-4.291a.85.85 0 1 0 0 1.7H0A.85.85 0 1 0 0 0" style="fill:#ffffff;fill-opacity:1;fill-rule:nonzero;stroke:none" transform="translate(34.722 24.136)"/><path d="M0 0a.751.751 0 0 1-.189-.5v-6.643a.14.14 0 0 1 .14-.14h7.522a.14.14 0 0 1 .14.14v9.287a.14.14 0 0 1-.14.141H3.239a.749.749 0 0 1-.534-.221.8.8 0 0 0-.088-.076Zm7.473-8.983H-.049c-1.014 0-1.84.826-1.84 1.84V-.5c0 .657.255 1.273.72 1.737a.689.689 0 0 0 .087.075l2.63 1.998a2.437 2.437 0 0 0 1.691.675h4.234c1.014 0 1.84-.826 1.84-1.841v-9.287c0-1.014-.826-1.84-1.84-1.84" style="fill:#ffffff;fill-opacity:1;fill-rule:nonzero;stroke:none" transform="translate(39.372 44.978)"/><path d="M0 0h-2.386a.85.85 0 0 0 0 1.7H0c.417 0 .756.339.756.756v1.743a.85.85 0 1 0 1.699 0V2.456A2.458 2.458 0 0 0 0 0" style="fill:#ffffff;fill-opacity:1;fill-rule:nonzero;stroke:none" transform="translate(40.741 43.892)"/><path d="M0 0h-4.943a.85.85 0 1 0 0 1.7H0A.85.85 0 1 0 0 0" style="fill:#ffffff;fill-opacity:1;fill-rule:nonzero;stroke:none" transform="translate(45.556 41.747)"/><path d="M0 0h-4.943a.85.85 0 1 0 0 1.7H0A.85.85 0 1 0 0 0" style="fill:#ffffff;fill-opacity:1;fill-rule:nonzero;stroke:none" transform="translate(45.556 38.998)"/><path d="M0 0a.75.75 0 0 1-.189-.5v-6.643a.14.14 0 0 1 .14-.14h7.522a.14.14 0 0 1 .14.14v9.287a.14.14 0 0 1-.14.141H3.239a.751.751 0 0 1-.535-.221.707.707 0 0 0-.087-.076Zm7.473-8.982H-.049c-1.014 0-1.84.825-1.84 1.839V-.5c0 .657.255 1.273.72 1.737a.689.689 0 0 0 .087.075l2.63 1.999a2.442 2.442 0 0 0 1.691.674h4.234c1.014 0 1.84-.826 1.84-1.841v-9.287a1.842 1.842 0 0 0-1.84-1.839" style="fill:#ffffff;fill-opacity:1;fill-rule:nonzero;stroke:none" transform="translate(39.372 27.368)"/><path d="M0 0h-2.386a.85.85 0 0 0 0 1.7H0c.417 0 .756.339.756.756v1.743a.85.85 0 1 0 1.699 0V2.456A2.458 2.458 0 0 0 0 0" style="fill:#ffffff;fill-opacity:1;fill-rule:nonzero;stroke:none" transform="translate(40.741 26.282)"/><path d="M0 0h-4.943a.85.85 0 1 0 0 1.7H0A.85.85 0 1 0 0 0" style="fill:#ffffff;fill-opacity:1;fill-rule:nonzero;stroke:none" transform="translate(45.556 24.136)"/><path d="M0 0h-4.943a.85.85 0 1 0 0 1.699H0A.85.85 0 1 0 0 0" style="fill:#ffffff;fill-opacity:1;fill-rule:nonzero;stroke:none" transform="translate(45.556 21.389)"/><path d="M0 0a.758.758 0 0 1-.189-.5v-6.643a.14.14 0 0 1 .14-.14h7.522a.14.14 0 0 1 .14.14v9.288a.14.14 0 0 1-.14.14H3.239a.755.755 0 0 1-.535-.221.803.803 0 0 0-.087-.076Zm7.473-8.982H-.049c-1.014 0-1.84.825-1.84 1.839V-.5c0 .648.263 1.281.721 1.737a.608.608 0 0 0 .086.075l2.63 1.999a2.441 2.441 0 0 0 1.691.673h4.234c1.014 0 1.84-.825 1.84-1.839v-9.288a1.842 1.842 0 0 0-1.84-1.839" style="fill:#ffffff;fill-opacity:1;fill-rule:nonzero;stroke:none" transform="translate(39.372 9.758)"/><path d="M0 0h-2.386a.85.85 0 0 0 0 1.699H0c.417 0 .756.339.756.756v1.743a.85.85 0 1 0 1.699 0V2.455A2.458 2.458 0 0 0 0 0" style="fill:#ffffff;fill-opacity:1;fill-rule:nonzero;stroke:none" transform="translate(40.741 8.672)"/><path d="M0 0h-4.943a.85.85 0 1 0 0 1.699H0A.85.85 0 1 0 0 0" style="fill:#ffffff;fill-opacity:1;fill-rule:nonzero;stroke:none" transform="translate(45.556 6.526)"/><path d="M0 0h-4.943a.85.85 0 1 0 0 1.699H0A.85.85 0 1 0 0 0" style="fill:#ffffff;fill-opacity:1;fill-rule:nonzero;stroke:none" transform="translate(45.556 3.778)"/><path d="M0 0a.85.85 0 0 0-.85.85v2.189a.85.85 0 0 0 1.7 0V.85A.85.85 0 0 0 0 0" style="fill:#ffffff;fill-opacity:1;fill-rule:nonzero;stroke:none" transform="translate(18.489 32.776)"/><path d="M0 0a.85.85 0 1 0 0 1.699h6.908c.147.001.27.125.269.278v10.15a.276.276 0 0 1-.274.278h-9.822a.85.85 0 0 0 0 1.7h9.827a1.981 1.981 0 0 0 1.969-1.979V1.978A1.98 1.98 0 0 0 6.914 0Z" style="fill:#ffffff;fill-opacity:1;fill-rule:nonzero;stroke:none" transform="translate(17.03 20.371)"/><path d="M0 0a.849.849 0 0 0-.6 1.451l1.777 1.776c.55.549 1.444.549 1.994.002L4.347 2.05l2.167 2.167a.85.85 0 1 0 1.202-1.202L5.345.644A1.416 1.416 0 0 0 3.35.643L2.174 1.821.601.249A.848.848 0 0 0 0 0" style="fill:#ffffff;fill-opacity:1;fill-rule:nonzero;stroke:none" transform="translate(15.707 26.234)"/><path d="M0 0a.85.85 0 0 0-.85.85v5.108a.85.85 0 1 0 1.7 0V.85A.85.85 0 0 0 0 0" style="fill:#ffffff;fill-opacity:1;fill-rule:nonzero;stroke:none" transform="translate(18.489 15.263)"/><path d="M0 0a.849.849 0 0 0-.511 1.529l2.919 2.19a.85.85 0 0 0 1.02-1.36L.51.17A.847.847 0 0 0 0 0" style="fill:#ffffff;fill-opacity:1;fill-rule:nonzero;stroke:none" transform="translate(15.57 13.073)"/><path d="M0 0a.847.847 0 0 0-.545.197l-2.618 2.19a.85.85 0 0 0 1.09 1.304L.546 1.502A.85.85 0 0 0 0 0" style="fill:#ffffff;fill-opacity:1;fill-rule:nonzero;stroke:none" transform="translate(21.107 13.073)"/><path d="M0 0a2.071 2.071 0 0 1-2.069-2.069c0-1.14.928-2.069 2.069-2.069s2.069.929 2.069 2.069A2.071 2.071 0 0 1 0 0m0-5.838a3.774 3.774 0 0 0-3.769 3.769A3.774 3.774 0 0 0 0 1.7a3.774 3.774 0 0 0 3.769-3.769A3.774 3.774 0 0 0 0-5.838" style="fill:#ffffff;fill-opacity:1;fill-rule:nonzero;stroke:none" transform="translate(8.273 34.965)"/><path d="M0 0h2.84l.654 6.533a.849.849 0 0 0 .845.765h1.339v1.34a4.262 4.262 0 0 1-4.258 4.257 4.262 4.262 0 0 1-4.258-4.257v-1.34h1.339c.437 0 .803-.33.846-.765zm3.609-1.699H-.769a.85.85 0 0 0-.846.764l-.653 6.534h-1.42a.85.85 0 0 0-.85.849v2.19a5.964 5.964 0 0 0 5.958 5.957 5.964 5.964 0 0 0 5.958-5.957v-2.19a.85.85 0 0 0-.85-.849h-1.42L4.455-.935a.849.849 0 0 0-.846-.764" style="fill:#ffffff;fill-opacity:1;fill-rule:nonzero;stroke:none" transform="translate(6.853 14.773)"/></g></svg>