<svg version="1.1" id="Слой_1" xmlns="http://www.w3.org/2000/svg" x="0" y="0" viewBox="0 0 30 30" xml:space="preserve"><style>.st0{fill:#ffffff}</style><path class="st0" d="M27.9 20.8H27c-.1-.2-.1-.4-.2-.5l.7-.7c.4-.4.4-1.1 0-1.6l-.9-.9V3.8c0-1.4-1.1-2.5-2.5-2.5H4.8c-1.4 0-2.5 1.1-2.5 2.5V21c0 1.1.9 2 2 2h10.5v.2c0 .6.5 1.1 1.1 1.1h.9c.1.2.1.4.2.5l-.7.7c-.4.4-.4 1.1 0 1.6l.9.9c.4.4 1.1.4 1.6 0l.7-.7c.2.1.4.2.5.2v.9c0 .6.5 1.1 1.1 1.1h1.3c.6 0 1.1-.5 1.1-1.1v-.9c.2-.1.4-.1.5-.2l.7.7c.4.4 1.1.4 1.6 0l.9-.9c.4-.4.4-1.1 0-1.6l-.7-.7c.1-.2.2-.3.2-.5h.9c.6 0 1.1-.5 1.1-1.1v-1.3c.3-.6-.2-1.1-.8-1.1zM4.3 22.1c-.6 0-1.1-.5-1.1-1.1V6.8h16c.3 0 .5-.2.5-.5s-.2-.5-.5-.5h-16V3.7c0-.9.7-1.6 1.6-1.6H24c.9 0 1.6.7 1.6 1.6v2.1h-2.7c-.3 0-.5.2-.5.5s.2.5.5.5h2.7v10c-.6.1-.8.5-1.3 1-.2-.1-.3-.2-.5-.2v-.9c0-.5-.4-1-.8-1.1-.2-.1-.3 0-1.6 0-.6 0-1.1.5-1.1 1.1v.9c-.2.1-.4.1-.5.2l-.8-.7c-.4-.4-1.1-.4-1.6 0l-1 1c-.2.2-.3.4-.3.7 0 .6.5.9.7 1.1l.3.3c-.1.2-.2.4-.2.5h-1.2c-.5.1-.8.6-.8 1.1v.2H4.3zm23.8 1.1c0 .1-.1.2-.2.2h-1.3c-.2 0-.4.1-.4.3-.1.3-.2.7-.4 1-.1.2-.1.4.1.5l.9.9c.1.1.1.2 0 .3l-.9.9c-.1.1-.2.1-.3 0l-.9-.9c-.1-.1-.4-.2-.5-.1a3 3 0 01-1 .4c-.2.1-.3.2-.3.4v1.3c0 .1-.1.2-.2.2h-1.3c-.1 0-.2-.1-.2-.2v-1.3c0-.2-.1-.4-.3-.4-.3-.1-.7-.2-1-.4-.2-.1-.4-.1-.5.1l-.9.9c-.1.1-.2.1-.3 0l-.9-.9c-.1-.1-.1-.2 0-.3l.9-.9c.1-.1.2-.4.1-.5a3 3 0 01-.4-1c-.1-.2-.2-.3-.4-.3H16c-.1 0-.2-.1-.2-.2v-1.3c0-.1.1-.2.2-.2h1.3c.2 0 .4-.1.4-.3.2-.8.5-.9.5-1.2 0-.1 0-.2-.1-.3l-1-.9c-.1-.1-.1-.2 0-.3l.9-.9c.1-.1.2-.1.3 0l.9.9c.1.1.4.2.5.1a3 3 0 011-.4c.2-.1.3-.2.3-.4v-1.3c0-.1.1-.2.2-.2h1.4c.1 0 .1.1.1.2V18c0 .2.1.4.3.4.3.1.7.2 1 .4.2.1.4.1.5-.1l.9-.9c.1-.1.2-.1.3 0l.9.9c.1.1.1.2 0 .3l-.9.9c-.1.1-.2.4-.1.5.2.3.3.6.4 1 .1.2.2.3.4.3h1.3c.1 0 .2.1.2.2v1.3zm0 0"/><path class="st0" d="M21.1 6.8c.3 0 .5-.2.5-.5s-.2-.5-.5-.5-.5.2-.5.5.2.5.5.5zm0 0M22 19.6c-1.7 0-3.1 1.3-3.1 2.9 0 1.8 1.4 3.2 3.1 3.1 1.6-.1 3-1.4 2.9-3.1.1-1.6-1.3-2.9-2.9-2.9zm-.1.9c1 0 1.9.7 2.2 1.6h-4.2c.2-.9 1-1.6 2-1.6zm.1 4.3c-.6 0-1.2-.2-1.6-.6-.3-.3-.5-.7-.6-1.1H24c-.1.9-1 1.6-2 1.7zm0 0M5.7 3.1a1 1 0 000 2c.5 0 1-.4 1-1 0-.5-.5-1-1-1zm0 1.3c-.2 0-.3-.2-.3-.3 0-.2.2-.3.3-.3.2 0 .3.1.3.3 0 .2-.1.3-.3.3zm0 0M8 3.1a1 1 0 000 2 1 1 0 000-2zm0 1.3c-.2 0-.3-.2-.3-.3 0-.2.2-.3.3-.3.2 0 .3.2.3.3.1.2-.1.3-.3.3zm0 0M10.4 3.2a1 1 0 000 2c.5 0 1-.4 1-1-.1-.6-.5-1-1-1zm0 1.3c-.2 0-.3-.2-.3-.3 0-.2.2-.3.3-.3.2 0 .3.2.3.3 0 .1-.2.3-.3.3zm0 0"/><g><path class="st0" d="M11.6 10.2c0-.9-.8-1.7-1.7-1.7h-.1c-.9 0-1.7.8-1.7 1.7 0 .7.5 1.4 1.2 1.6l.9.3c.3.1.6.4.6.8 0 .5-.4.8-.8.8h-.2c-.5 0-.8-.4-.8-.8v-.5h-.9v.5c0 .9.8 1.7 1.7 1.7h.1c.9 0 1.7-.8 1.7-1.7 0-.7-.5-1.4-1.2-1.6l-.8-.3c-.4-.1-.6-.5-.6-.8 0-.5.4-.8.8-.8h.1c.5 0 .8.4.8.8h.9zm0 0M16.9 12.4v-1.8c0-1.2-1-2.2-2.2-2.2s-2.2 1-2.2 2.2v1.8c0 1.2 1 2.2 2.2 2.2.4 0 .9-.1 1.2-.4l.7.7.6-.6-.7-.7c.3-.3.4-.7.4-1.2zm-2.2 1.3c-.7 0-1.3-.6-1.3-1.3v-1.8c0-.7.6-1.3 1.3-1.3.7 0 1.3.6 1.3 1.3v1.8c0 .8-.6 1.3-1.3 1.3zm0 0M18.7 8.5h-.9v6.2h2.6v-.9h-1.8V8.5zm0 0"/></g><g><path class="st0" d="M6.6 17.5h.8c.2 0 .4-.2.4-.4s-.2-.4-.4-.4h-.8c-.2 0-.4.2-.4.4s.2.4.4.4zM9.1 17.5H14c.2 0 .4-.2.4-.4s-.2-.4-.4-.4H9.1c-.2 0-.4.2-.4.4s.2.4.4.4zM6.6 19.2h.8c.2 0 .4-.2.4-.4s-.2-.4-.4-.4h-.8c-.2 0-.4.2-.4.4s.2.4.4.4zM9.1 19.2H14c.2 0 .4-.2.4-.4s-.2-.4-.4-.4H9.1c-.2 0-.4.2-.4.4s.2.4.4.4zM6.6 20.8h.8c.2 0 .4-.2.4-.4s-.2-.4-.4-.4h-.8c-.2 0-.4.2-.4.4s.2.4.4.4zM9.1 20.8H14c.2 0 .4-.2.4-.4s-.2-.4-.4-.4H9.1c-.2 0-.4.2-.4.4s.2.4.4.4z"/></g></svg>