<svg xmlns="http://www.w3.org/2000/svg" width="66.667" height="66.667"><defs><clipPath id="a"><path d="M0 50h50V0H0z"/></clipPath></defs><g clip-path="url(#a)" transform="matrix(1.3333 0 0 -1.3333 0 66.667)"><path fill="#0098da" d="M21.559 24.689c-1.299 0-2.355 1.057-2.355 2.356S20.26 29.4 21.559 29.4s2.356-1.056 2.356-2.355-1.057-2.356-2.356-2.356m9.048-.619c-.501-.501-1.403-.806-2.438-.157a.816.816 0 0 0-.243.243c-.648 1.034-.344 1.937.156 2.438.5.5 1.403.807 2.439.157a.816.816 0 0 0 .243-.243c.649-1.033.345-1.937-.157-2.438m3.693-3.868c0-.264-.105-.513-.277-.706a4.983 4.983 0 0 1-1.952 2.768 5.062 5.062 0 0 1-.711.403c.122.093.246.183.357.294 1.149 1.148 1.3 2.909.375 4.382-.185.296-.44.55-.736.737-1.474.923-3.235.772-4.383-.376-1.148-1.149-1.299-2.909-.375-4.384.16-.253.377-.466.619-.642a.78.78 0 0 1-.191-.833.786.786 0 0 1 1.008-.466 3.431 3.431 0 0 0 3.14-.402c.797-.556 1.29-1.425 1.413-2.376l-7.133-4.12a1.072 1.072 0 0 0-1.063 0L17.26 18.6a4.377 4.377 0 0 0 4.299 3.677 4.36 4.36 0 0 0 4.354-4.354c0-.434.351-.784.786-.784.433 0 .784.35.784.784a5.931 5.931 0 0 1-4.139 5.646c1.264.653 2.14 1.958 2.14 3.476 0 2.164-1.761 3.925-3.925 3.925s-3.925-1.761-3.925-3.925c0-1.53.888-2.844 2.169-3.491a5.942 5.942 0 0 1-3.944-4.104 1.067 1.067 0 0 0-.314.752v9.602c0 .378.203.731.531.92l8.315 4.8c.328.19.735.19 1.062 0l8.316-4.8c.327-.189.531-.541.531-.92zm.253 11.881-8.315 4.801a2.64 2.64 0 0 1-2.631 0l-8.316-4.801a2.638 2.638 0 0 1-1.315-2.279v-9.602c0-.936.503-1.809 1.315-2.278l8.316-4.802a2.64 2.64 0 0 1 2.631 0l7.491 4.326.008.004.816.472a2.639 2.639 0 0 1 1.316 2.278v9.602c0 .938-.504 1.81-1.316 2.279"/><path fill="#0098da" d="M42.477 11.562a3.117 3.117 0 0 0-3.112 3.114 3.116 3.116 0 0 0 3.112 3.113 3.117 3.117 0 0 0 3.113-3.113 3.117 3.117 0 0 0-3.113-3.114M28.853 7.564a4.672 4.672 0 0 1-3.788 1.952 4.671 4.671 0 0 1-3.788-1.952l-9.398 5.426c.204.524.327 1.09.327 1.686 0 2.348-1.742 4.278-3.998 4.613v11.145c2.256.335 3.998 2.266 3.998 4.613 0 .606-.125 1.182-.335 1.714a.746.746 0 0 1 .284.092l9.299 5.368c.859-1.053 2.15-1.739 3.611-1.739s2.752.687 3.611 1.739l9.455-5.459a4.64 4.64 0 0 1-.335-1.715c0-2.391 1.808-4.347 4.126-4.626v-11.12c-2.318-.278-4.126-2.233-4.126-4.625 0-.619.127-1.208.346-1.75zm-3.788-5.843c-1.716 0-3.112 1.397-3.112 3.113s1.396 3.113 3.112 3.113c1.717 0 3.113-1.397 3.113-3.113s-1.396-3.113-3.113-3.113M7.524 11.562a3.117 3.117 0 0 0-3.112 3.114c0 1.716 1.396 3.113 3.112 3.113s3.112-1.397 3.112-3.113a3.117 3.117 0 0 0-3.112-3.114M4.412 35.047c0 1.717 1.396 3.113 3.112 3.113s3.112-1.396 3.112-3.113c0-1.716-1.396-3.112-3.112-3.112s-3.112 1.396-3.112 3.112m20.653 13.23a3.116 3.116 0 0 0 3.113-3.112 3.117 3.117 0 0 0-3.113-3.114 3.117 3.117 0 0 0-3.112 3.114 3.115 3.115 0 0 0 3.112 3.112M42.477 38.16a3.116 3.116 0 0 0 3.113-3.113 3.116 3.116 0 0 0-3.113-3.112 3.115 3.115 0 0 0-3.112 3.112 3.116 3.116 0 0 0 3.112 3.113m1.014-18.919v11.241c2.094.466 3.668 2.332 3.668 4.565 0 2.581-2.1 4.682-4.682 4.682-1.41 0-2.662-.64-3.521-1.63l-9.502 5.485a4.64 4.64 0 0 1 .294 1.581 4.688 4.688 0 0 1-4.683 4.681 4.687 4.687 0 0 1-4.682-4.681c0-.558.115-1.084.294-1.581l-9.306-5.372a.772.772 0 0 1-.239-.218c-.86 1.05-2.149 1.735-3.608 1.735a4.688 4.688 0 0 1-4.682-4.682 4.684 4.684 0 0 1 3.797-4.592V19.268a4.684 4.684 0 0 1-3.797-4.592c0-2.582 2.1-4.682 4.682-4.682 1.421 0 2.682.65 3.541 1.654l9.528-5.502a4.635 4.635 0 0 1-.21-1.312A4.687 4.687 0 0 1 25.065.153a4.687 4.687 0 0 1 4.683 4.681 4.6 4.6 0 0 1-.211 1.312l9.441 5.451c.858-.974 2.102-1.603 3.499-1.603 2.582 0 4.682 2.1 4.682 4.682a4.686 4.686 0 0 1-3.668 4.565"/></g></svg>