<svg version="1.1" id="Слой_1" xmlns="http://www.w3.org/2000/svg" x="0" y="0" viewBox="0 0 50 50" xml:space="preserve"><style>.st0{fill:#ffffff}</style><path class="st0" d="M27 5.1A19.95 19.95 0 005.1 27C6 36.4 13.6 44 23 44.9c12.6 1.3 23.2-9.3 21.9-21.9C44 13.6 36.4 6 27 5.1zm16.4 20.7c-.1 2.3-.6 4.4-1.5 6.4h-5.5c.2-.7.5-1.5.6-2.2.1-.4-.2-.9-.6-1-.4-.1-.8.2-.9.6-.2.9-.5 1.7-.8 2.6h-4.3c-.4 0-.8.4-.8.8s.4.8.8.8H34c-.6 1.3-1.3 2.5-2.2 3.6a21.8 21.8 0 01-6 5.3v-4.8c0-.4-.4-.8-.8-.8s-.8.4-.8.8v4.9a21.4 21.4 0 01-6.2-5.4c-.8-1.1-1.6-2.3-2.2-3.6h3.4c.4 0 .8-.4.8-.8s-.4-.8-.8-.8h-4.1c-.3-.8-.6-1.7-.8-2.6-.1-.4-.5-.7-.9-.6-.4.1-.8.5-.6 1l.6 2.2H8.1c-.9-2-1.4-4.1-1.5-6.4h1.1c.4 0 .8-.4.8-.8s-.4-.8-.8-.8H6.6c.1-2.3.6-4.5 1.5-6.6h5.3c-.3.8-.5 1.7-.7 2.5-.1.4.2.9.7 1 .4.1.8-.2.9-.6.2-1 .5-1.9.9-2.9h4c.4 0 .8-.4.8-.8s-.4-.8-.8-.8h-3.3c1.8-3.7 4.7-6.8 8.2-8.8v4.9c0 .4.4.8.8.8s.8-.4.8-.8V7.3c3.5 2.1 6.3 5.1 8.1 8.7h-3.6c-.4 0-.8.4-.8.8s.4.8.8.8h4.3c.4.9.7 1.9.9 2.9.1.4.5.7.9.6.4-.1.8-.5.7-1-.2-.9-.4-1.7-.7-2.5h5.5c.9 2 1.4 4.2 1.5 6.6h-1.1c-.4 0-.8.4-.8.8s.4.8.8.8h1.2zM41 16h-5.3c-1.6-3.6-4.2-6.8-7.4-9.1 5.4 1 10.1 4.4 12.7 9.1zM21.5 7c-3.2 2.3-5.8 5.4-7.4 9H9c2.6-4.6 7.1-8 12.5-9zM8.9 33.9h5.2c.7 1.6 1.6 3.2 2.7 4.6 1.3 1.8 3 3.3 4.8 4.6-5.5-1.1-10.1-4.6-12.7-9.2zm19.3 9.2c1.8-1.3 3.5-2.9 4.8-4.7 1.1-1.4 2-2.9 2.7-4.6H41c-2.5 4.8-7.2 8.3-12.8 9.3z"/><path class="st0" d="M25 19.6a2.8 2.8 0 100-5.6 2.8 2.8 0 100 5.6zm0-4c.7 0 1.2.5 1.2 1.2S25.6 18 25 18c-.7 0-1.2-.5-1.2-1.2s.5-1.2 1.2-1.2zM12.9 22.2a2.8 2.8 0 10-.01 5.59 2.8 2.8 0 00.01-5.59zm0 4c-.7 0-1.2-.5-1.2-1.2s.5-1.2 1.2-1.2 1.2.5 1.2 1.2-.6 1.2-1.2 1.2zM37.1 22.2a2.8 2.8 0 100 5.6c1.6 0 2.8-1.3 2.8-2.8 0-1.6-1.2-2.8-2.8-2.8zm0 4c-.7 0-1.2-.5-1.2-1.2s.5-1.2 1.2-1.2 1.2.5 1.2 1.2-.5 1.2-1.2 1.2zM25 30.2a2.8 2.8 0 100 5.6c1.6 0 2.8-1.3 2.8-2.8 0-1.5-1.3-2.8-2.8-2.8zm0 4c-.7 0-1.2-.5-1.2-1.2s.5-1.2 1.2-1.2 1.2.5 1.2 1.2-.6 1.2-1.2 1.2zM25 21.1c-.4 0-.8.4-.8.8v2.2h-6.1c-.4 0-.8.4-.8.8s.4.8.8.8h6.1v2.4c0 .4.4.8.8.8s.8-.4.8-.8v-2.4h5.9c.4 0 .8-.4.8-.8s-.4-.8-.8-.8h-5.9v-2.2c0-.4-.4-.8-.8-.8z"/></svg>