<svg width="35" height="35" fill="none" xmlns="http://www.w3.org/2000/svg"><path d="M32.67 7.04V5.81a2.33 2.33 0 00-2.34-2.33h-1.49c.54-.91.4-2.07-.36-2.82a2.39 2.39 0 00-3.3 0l-2.66 2.67c-.05.05-.1.1-.13.16H21c-.9 0-1.79.3-2.5.86a8.72 8.72 0 00-2.17-.29l-.23.02a4.04 4.04 0 00-2.1-.6H4.67a2.33 2.33 0 00-2.34 2.33v1.23A2.92 2.92 0 000 9.9v22.18C0 33.7 1.3 35 2.92 35h29.16C33.7 35 35 33.7 35 32.08V9.9c0-1.39-.98-2.58-2.33-2.86zM31.5 5.81v21.02c0 .64-.52 1.17-1.17 1.17H21c-1.08 0-2.12.42-2.88 1.2-.02 0-.03.02-.04.03V21.4a8.7 8.7 0 003.48-1.58h7.6a.58.58 0 000-1.16h-6.32a8.8 8.8 0 001.23-1.75h5.1a.58.58 0 000-1.17h-4.6c.2-.57.35-1.16.43-1.75h4.17a.58.58 0 000-1.17h-4.09c0-.59-.05-1.18-.17-1.75h4.26a.58.58 0 000-1.17h-4.6a8.73 8.73 0 00-.94-1.9l1.07-1.08c.4.12.83 0 1.12-.3l1.98-1.97h2.53c.65 0 1.17.52 1.17 1.16zm0 23.04v1.48c0 .65-.52 1.17-1.17 1.17H18.14A2.93 2.93 0 0121 29.16h9.33c.41 0 .82-.1 1.17-.31zM22.93 5.39l.83.83-.85.84c-.26-.29-.53-.57-.82-.82l.84-.85zm3.08-3.9a1.17 1.17 0 111.65 1.65L25 5.8l-1.65-1.65L26 1.5zM21 4.66h1.01l-.86.86c-.38-.25-.79-.48-1.2-.67.33-.12.69-.19 1.05-.2zm2.92 8.16a7.59 7.59 0 11-15.17 0 7.59 7.59 0 0115.17 0zm-20.42-7c0-.65.52-1.17 1.17-1.17h8.55c-1.3.5-2.46 1.3-3.39 2.33h-4a.58.58 0 000 1.17h3.11A8.74 8.74 0 008.1 9.9H5.83a.58.58 0 000 1.17h1.93a8.8 8.8 0 00-.18 1.75H5.83a.58.58 0 000 1.17h1.84c.08.6.22 1.18.42 1.75H5.83a.58.58 0 000 1.17H8.6a8.8 8.8 0 001.23 1.75h-4a.58.58 0 000 1.16h5.28a8.69 8.69 0 005.22 1.75l.59-.02v7.68l-.03-.03A4.03 4.03 0 0014 28H4.67c-.65 0-1.17-.53-1.17-1.17V5.8zm0 23.03c.35.2.76.31 1.17.31H14c1.38 0 2.58.98 2.86 2.34H4.66c-.64 0-1.16-.52-1.16-1.17v-1.48zm30.33 3.23c0 .97-.78 1.75-1.75 1.75H2.92c-.97 0-1.75-.78-1.75-1.75V9.9c0-.74.47-1.4 1.16-1.64v22.07a2.33 2.33 0 002.34 2.34h25.66a2.33 2.33 0 002.34-2.34V8.26c.7.24 1.16.9 1.16 1.64v22.18z" fill="#536B76"/><path d="M5.83 22.74h6.42a.58.58 0 000-1.17H5.83a.58.58 0 000 1.17zM5.83 25.66h2.92a.58.58 0 000-1.17H5.83a.58.58 0 000 1.17zM10.5 25.08c0 .32.26.58.58.58H14a.58.58 0 000-1.17h-2.92a.58.58 0 00-.58.59zM29.17 24.5H21a.58.58 0 000 1.16h8.17a.58.58 0 000-1.17zM29.17 21.57H21a.58.58 0 000 1.17h8.17a.58.58 0 000-1.17zM26.83 6.98a.58.58 0 000 1.17h2.34a.58.58 0 000-1.17h-2.34zM10.45 10.26a6.37 6.37 0 00-.5 3.14 6.42 6.42 0 0012.77 0 6.37 6.37 0 00-.5-3.14 6.41 6.41 0 00-11.76 0zM20.7 9.9h-.28a.58.58 0 000 1.17h.86c.2.56.3 1.15.3 1.75h-1.16a.58.58 0 000 1.17h1.03a5.27 5.27 0 01-3.37 3.78v-9.9A5.27 5.27 0 0120.7 9.9zm-4.37-2.33c.2 0 .4 0 .59.03v10.44a5.19 5.19 0 01-3.88-1.13h1.54a.58.58 0 000-1.17h-2.6a5.23 5.23 0 01-.76-1.75h3.36a.58.58 0 000-1.17h-3.5c0-.6.1-1.19.31-1.75h3.2a.58.58 0 000-1.17h-2.62a5.25 5.25 0 014.36-2.33z" fill="#536B76"/></svg>