<svg id="Слой_1" data-name="Слой 1" xmlns="http://www.w3.org/2000/svg" viewBox="0 0 29.99055 29.99055"><defs><style>.cls-1,.cls-2{fill:#0098da;}.cls-2{font-size:4px;font-family:Arial-BoldMT, Arial;font-weight:700;}.cls-3{fill:none;stroke:#0098da;stroke-linecap:round;stroke-linejoin:round;stroke-width:0.65px;}</style></defs><title>icons for icons Healthcare</title><path class="cls-1" d="M19.13662,11.01762a.40514.40514,0,0,1-.32653-.15064L17.05168,8.98382a.44432.44432,0,0,1,.65312-.6026l1.43182,1.55669,1.50718-1.406a.44431.44431,0,1,1,.60289.65282L19.413,10.892A.36.36,0,0,1,19.13662,11.01762Z"/><path class="cls-1" d="M7.55689,17.09384c-.201,0-.32658.02506-.40194.02506v2.61131a1.23063,1.23063,0,0,0,.32655.02506,1.24546,1.24546,0,0,0,1.35645-1.406A1.16782,1.16782,0,0,0,7.55689,17.09384Z"/><path class="cls-1" d="M4.06493,17.06872c-.17584,0-.30144.02506-.3768.02506v1.18013a1.03558,1.03558,0,0,0,.30144.02511c.47728,0,.77871-.25111.77871-.65282C4.76828,17.29467,4.51709,17.06872,4.06493,17.06872Z"/><path class="cls-1" d="M13.88684,8.45654a.285.285,0,0,0-.07535-.20087L10.571,4.56471a.51764.51764,0,0,0-.12977-.08381.2942.2942,0,0,0-.14648-.01659H2.35687a.62748.62748,0,0,0-.65311.62771V20.55874a.66488.66488,0,0,0,.65311.65283H13.23373a.6649.6649,0,0,0,.65311-.65283V8.45654ZM5.29588,18.5752a1.78564,1.78564,0,0,1-1.30623.42683,1.03507,1.03507,0,0,1-.30143-.02512V20.4081H2.78391v-3.942a7.37555,7.37555,0,0,1,1.23087-.07529,1.896,1.896,0,0,1,1.23086.32641,1.17165,1.17165,0,0,1,.427.929A1.422,1.422,0,0,1,5.29588,18.5752ZM9.11407,19.931a2.84746,2.84746,0,0,1-1.83373.52729,9.19146,9.19146,0,0,1-1.02991-.05023v-3.942a8.49234,8.49234,0,0,1,1.23086-.07529,2.489,2.489,0,0,1,1.63278.42682,1.73446,1.73446,0,0,1,.67824,1.50654A2.13838,2.13838,0,0,1,9.11407,19.931Zm3.6926-2.76191h-1.5323V18.073h1.43182v.72818H11.27437v1.6069h-.9043V16.41589h2.4366ZM2.35687,15.61242V5.092H9.99325V8.45654a.33247.33247,0,0,0,.32659.32641h2.91389v6.82947Z"/><path class="cls-1" d="M11.17384,11.51975c-.02512,0-.47724-.05018-1.20571-.05018a6.13546,6.13546,0,0,0-.67824.02506A31.38935,31.38935,0,0,1,6.12479,8.783.88772.88772,0,0,1,6.1499,8.6323a2.34734,2.34734,0,0,0-.27631-1.73248.6737.6737,0,0,0-.67823-.17575.85615.85615,0,0,0-.55264.52727c-.10048.35152.07536.77836.50239,1.28053a5.38117,5.38117,0,0,0,.427.42684c-.17584.85367-.65311,2.68657-.87919,3.56539a4.59894,4.59894,0,0,0-1.33134,1.02942l-.05025.05024a1.14652,1.14652,0,0,0-.07535.77836.49022.49022,0,0,0,.32655.30129h.15072c.27632,0,.95455-.15065,1.30623-1.48142L5.12,12.85052a11.078,11.078,0,0,1,4.01913-.87883c.60288.42688,1.18065.85371,1.75841,1.20524h.02512a1.26269,1.26269,0,0,0,.57777.12553.81221.81221,0,0,0,.82894-.70306v-.02512a.92858.92858,0,0,0-.17582-.67789A1.53286,1.53286,0,0,0,11.17384,11.51975ZM3.76353,14.18123h0a.62575.62575,0,0,1,.05024-.35153,3.13294,3.13294,0,0,1,.75359-.62771C4.26592,14.10594,3.864,14.18123,3.76353,14.18123ZM5.52191,8.18035c-.427-.47706-.427-.703-.40191-.80347a.3569.3569,0,0,1,.201-.17576c.07535-.0251.15071-.0251.17583.02511A1.716,1.716,0,0,1,5.64751,8.331,1.53635,1.53635,0,0,0,5.52191,8.18035Zm-.22608,4.06758v-.02512c.22608-.8286.52752-2.084.70336-2.86237.57775.55235,1.45694,1.33077,2.512,2.15931l.02511.02511A11.23757,11.23757,0,0,0,5.29583,12.24793Zm6.55625.27617c-.07536.27618-.22606.32642-.35165.32642a1.23216,1.23216,0,0,1-.32659-.07536c-.37677-.25106-.77871-.50217-1.18059-.80347.67823,0,1.15547.05023,1.15547.05023a.88451.88451,0,0,1,.628.25107C11.85208,12.32322,11.85208,12.42363,11.85208,12.5241Z"/><path class="cls-1" d="M27.47652,24.17436H15.56979a.45014.45014,0,0,1-.45218-.452V6.7994a.45017.45017,0,0,1,.45218-.452H24.437a.40508.40508,0,0,1,.32654.15065L27.82817,9.712a.46326.46326,0,0,1,.12559.30129V23.72241A.48964.48964,0,0,1,27.47652,24.17436Zm-11.45461-.90389H27.04946V10.189L24.236,7.25135H16.02191Z"/><path class="cls-1" d="M27.47675,10.46521H24.4121a.45016.45016,0,0,1-.45212-.452V6.7994a.4541.4541,0,0,1,.77871-.32641l3.06459,3.21386a.51366.51366,0,0,1,.10048.50218A.4788.4788,0,0,1,27.47675,10.46521Zm-2.61247-.90389h1.55741l-1.55741-1.632Z"/><path class="cls-1" d="M19.11162,10.8418a.31853.31853,0,0,1-.1507-.02512.45769.45769,0,0,1-.2763-.57747A4.1495,4.1495,0,0,0,13.76114,4.866a.481.481,0,0,1-.55265-.32641.48066.48066,0,0,1,.32659-.55238,5.05731,5.05731,0,0,1,6.0036,6.55326A.48921.48921,0,0,1,19.11162,10.8418Z"/><text class="cls-2" transform="translate(19.20895 21.28161)">En</text><path class="cls-3" d="M18.73108,18.73012a3.79177,3.79177,0,1,1,5.8788.20959"/><line class="cls-3" x1="20.55793" y1="15.08462" x2="22.84057" y2="17.25009"/><line class="cls-3" x1="22.95376" y1="15.08462" x2="20.67111" y2="17.25009"/></svg>