<svg id="Слой_1" data-name="Слой 1" xmlns="http://www.w3.org/2000/svg" viewBox="0 0 29.99055 29.99055"><defs><style>.cls-1,.cls-2{fill:#0098da;}.cls-2{font-size:4px;font-family:Arial-BoldMT, Arial;font-weight:700;}.cls-3{fill:none;stroke:#0098da;stroke-linecap:round;stroke-linejoin:round;stroke-width:0.65px;}</style></defs><title>icons for icons Healthcare</title><path class="cls-1" d="M19.13662,11.01762a.40514.40514,0,0,1-.32653-.15064L17.05168,8.98382a.44432.44432,0,0,1,.65312-.6026l1.43182,1.55669,1.50718-1.406a.44431.44431,0,1,1,.60289.65282L19.413,10.892A.36.36,0,0,1,19.13662,11.01762Z"/><path class="cls-1" d="M13.88684,8.45654a.285.285,0,0,0-.07535-.20087L10.571,4.56475a.32784.32784,0,0,0-.12963-.08469.69144.69144,0,0,0-.20168-.02052c-1.98447,0-7.88283.00477-7.88283.00477a.62748.62748,0,0,0-.65311.62771V20.55874a.66488.66488,0,0,0,.65311.65283H13.23373a.6649.6649,0,0,0,.65311-.65283V8.45654ZM2.42379,20.46143,2.44662,5.18018l7.53949-.02845.00714,3.30481a.33247.33247,0,0,0,.32659.32641l2.86094-.01067-.03,11.65Z"/><path class="cls-1" d="M27.47652,24.17436H15.56979a.45014.45014,0,0,1-.45218-.452V6.7994a.45017.45017,0,0,1,.45218-.452H24.437a.40508.40508,0,0,1,.32654.15065L27.82817,9.712a.46326.46326,0,0,1,.12559.30129V23.72241A.48964.48964,0,0,1,27.47652,24.17436Zm-11.45461-.90389H27.04946V10.189L24.236,7.25135H16.02191Z"/><path class="cls-1" d="M27.47675,10.46521H24.4121a.45016.45016,0,0,1-.45212-.452V6.7994a.4541.4541,0,0,1,.77871-.32641l3.06459,3.21386a.51366.51366,0,0,1,.10048.50218A.4788.4788,0,0,1,27.47675,10.46521Zm-2.61247-.90389h1.55741l-1.55741-1.632Z"/><path class="cls-1" d="M19.11162,10.8418a.31853.31853,0,0,1-.1507-.02512.45769.45769,0,0,1-.2763-.57747A4.1495,4.1495,0,0,0,13.76114,4.866a.481.481,0,0,1-.55265-.32641.48066.48066,0,0,1,.32659-.55238,5.05731,5.05731,0,0,1,6.0036,6.55326A.48921.48921,0,0,1,19.11162,10.8418Z"/><text class="cls-2" transform="translate(19.20897 21.28161)">En</text><path class="cls-3" d="M18.73108,18.73012a3.79177,3.79177,0,1,1,5.8788.20959"/><line class="cls-3" x1="20.55793" y1="15.08462" x2="22.84057" y2="17.25009"/><line class="cls-3" x1="22.95376" y1="15.08462" x2="20.67111" y2="17.25009"/><path class="cls-1" d="M3.64305,16.44079a.275.275,0,0,1-.24609-.1543.292.292,0,0,1,.03369-.2959l2.79882-3.68847a.27014.27014,0,0,1,.21485-.10742.26046.26046,0,0,1,.21435.08886l1.98682,2.376,1.23682-1.373a.276.276,0,0,1,.19189-.09472.27194.27194,0,0,1,.25391.125l1.91308,2.69433a.28449.28449,0,0,1,.01416.294.35173.35173,0,0,1-.26464.13574Zm.57226-.55469H11.4702l-1.34375-1.88965L8.92332,15.348a.30244.30244,0,0,1-.4331-.001L6.46043,12.91833Z"/><path class="cls-1" d="M8.9116,12.84118a1.28,1.28,0,0,1-1.27929-1.27832A1.25661,1.25661,0,0,1,8.9116,10.30212a1.26956,1.26956,0,1,1,0,2.53906Zm0-1.98437a.72461.72461,0,1,0,.72412.72461A.73416.73416,0,0,0,8.9116,10.85681Z"/></svg>