<svg id="Слой_1" data-name="Слой 1" xmlns="http://www.w3.org/2000/svg" viewBox="0 0 29.99055 29.99055"><defs><style>.cls-1,.cls-2{fill:#0098da;}.cls-2{font-size:4px;font-family:Arial-BoldMT, Arial;font-weight:700;}.cls-3{fill:none;stroke:#0098da;stroke-linecap:round;stroke-linejoin:round;stroke-width:0.65px;}</style></defs><title>icons for icons Healthcare</title><path class="cls-1" d="M19.13662,11.01762a.40514.40514,0,0,1-.32653-.15064L17.05168,8.98382a.44432.44432,0,0,1,.65312-.6026l1.43182,1.55669,1.50718-1.406a.44431.44431,0,1,1,.60289.65282L19.413,10.892A.36.36,0,0,1,19.13662,11.01762Z"/><path class="cls-1" d="M27.47652,24.17436H15.56979a.45014.45014,0,0,1-.45218-.452V6.7994a.45017.45017,0,0,1,.45218-.452H24.437a.40508.40508,0,0,1,.32654.15065L27.82817,9.712a.46326.46326,0,0,1,.12559.30129V23.72241A.48964.48964,0,0,1,27.47652,24.17436Zm-11.45461-.90389H27.04946V10.189L24.236,7.25135H16.02191Z"/><path class="cls-1" d="M27.47675,10.46521H24.4121a.45016.45016,0,0,1-.45212-.452V6.7994a.4541.4541,0,0,1,.77871-.32641l3.06459,3.21386a.51366.51366,0,0,1,.10048.50218A.4788.4788,0,0,1,27.47675,10.46521Zm-2.61247-.90389h1.55741l-1.55741-1.632Z"/><path class="cls-1" d="M19.11162,10.8418a.31853.31853,0,0,1-.1507-.02512.45769.45769,0,0,1-.2763-.57747A4.1495,4.1495,0,0,0,13.76114,4.866a.481.481,0,0,1-.55265-.32641.48066.48066,0,0,1,.32659-.55238,5.05731,5.05731,0,0,1,6.0036,6.55326A.48921.48921,0,0,1,19.11162,10.8418Z"/><text class="cls-2" transform="translate(19.20895 21.28161)">En</text><path class="cls-3" d="M18.73108,18.73012a3.79177,3.79177,0,1,1,5.8788.20959"/><line class="cls-3" x1="20.55793" y1="15.08462" x2="22.84057" y2="17.25009"/><line class="cls-3" x1="22.95376" y1="15.08462" x2="20.67111" y2="17.25009"/><rect class="cls-1" x="3.26626" y="9.68819" width="8.29688" height="0.95312" rx="0.47656" ry="0.47656"/><rect class="cls-1" x="3.31313" y="7.77152" width="3.34375" height="0.95312" rx="0.47656" ry="0.47656"/><rect class="cls-1" x="3.26626" y="11.60485" width="8.29688" height="0.95312" rx="0.47656" ry="0.47656"/><rect class="cls-1" x="3.26626" y="13.52152" width="8.29688" height="0.95312" rx="0.47656" ry="0.47656"/><path class="cls-1" d="M6.56362,17.2764a.4962.4962,0,0,0-.42236.19141.96607.96607,0,0,0-.15137.58789V18.919a.96935.96935,0,0,0,.15235.59277.49906.49906,0,0,0,.42382.19239.51885.51885,0,0,0,.438-.19239A.94836.94836,0,0,0,7.1603,18.919V18.0557a.934.934,0,0,0-.15722-.58692A.52566.52566,0,0,0,6.56362,17.2764Z"/><path class="cls-1" d="M13.81149,8.25565,10.571,4.56473a.51418.51418,0,0,0-.12976-.0838.29407.29407,0,0,0-.14649-.0166H2.3569a.62744.62744,0,0,0-.65314.62768V20.55875a.66492.66492,0,0,0,.65314.65283H13.23373a.665.665,0,0,0,.65313-.65283V8.45652A.28512.28512,0,0,0,13.81149,8.25565ZM5.03188,18.711a1.51972,1.51972,0,0,1-.31884.9961,1.03453,1.03453,0,0,1-.832.39062H2.98159V16.87894H3.881a1.02935,1.02935,0,0,1,.832.39356,1.52241,1.52241,0,0,1,.31884.99511Zm2.64356.208a1.27306,1.27306,0,0,1-.30127.89844,1.05667,1.05667,0,0,1-.80811.32519,1.0312,1.0312,0,0,1-.79687-.32519,1.29156,1.29156,0,0,1-.29444-.89844v-.85742a1.3,1.3,0,0,1,.29444-.89844,1.01879,1.01879,0,0,1,.79443-.3291,1.05709,1.05709,0,0,1,.80957.32715,1.27952,1.27952,0,0,1,.30225.90039ZM9.5397,17.40824a.48944.48944,0,0,0-.38233-.14063.4383.4383,0,0,0-.38476.19336,1.03348,1.03348,0,0,0-.14161.58985v.87207a1.02416,1.02416,0,0,0,.14551.59472.52584.52584,0,0,0,.76514.05664.70279.70279,0,0,0,.12353-.46484v-.0498H10.152l.01856.06152a1.02306,1.02306,0,0,1-1.77051.69726,1.30686,1.30686,0,0,1-.28614-.8955v-.86524a1.33,1.33,0,0,1,.28174-.89648.96291.96291,0,0,1,.76172-.32715,1.04357,1.04357,0,0,1,.751.26074.98471.98471,0,0,1,.26416.75977l-.00586.02636-.01025.03614H9.66763v-.04981A.68352.68352,0,0,0,9.5397,17.40824Zm2.58056,2.68945-.5415-1.18945-.54,1.18945h-.61035l.0376-.07324.80322-1.55078-.82031-1.59473h.604l.51953,1.16016.52344-1.16016h.60791l-.0376.07227-.78271,1.52246.85449,1.624Zm1.11347-4.48529H2.3569V5.092H9.99325V8.45652a.33246.33246,0,0,0,.3266.32641h2.91388Z"/><path class="cls-1" d="M3.881,17.31253H3.49868V19.668H3.881a.51556.51556,0,0,0,.45215-.25879A1.25486,1.25486,0,0,0,4.5104,18.711v-.44726a1.24321,1.24321,0,0,0-.17725-.69239A.51558.51558,0,0,0,3.881,17.31253Z"/></svg>