<svg id="Слой_1" data-name="Слой 1" xmlns="http://www.w3.org/2000/svg" viewBox="0 0 29.99055 29.99055"><defs><style>.cls-1{fill:#ffffff;}</style></defs><title>icons for icons Healthcare</title><path class="cls-1" d="M3.07937,8.36185a.52515.52515,0,0,1-.52469-.52468V3.60745a.52557.52557,0,0,1,.525-.52485H7.30877a.52485.52485,0,0,1,0,1.0497H3.60406V7.83717A.52515.52515,0,0,1,3.07937,8.36185Z"/><path class="cls-1" d="M26.14945,8.36185a.52515.52515,0,0,1-.52468-.52468V4.1323H21.92006a.52485.52485,0,0,1,0-1.0497h4.22939a.52525.52525,0,0,1,.52469.52469V7.83717A.52515.52515,0,0,1,26.14945,8.36185Z"/><path class="cls-1" d="M3.07937,27.20254a.52515.52515,0,0,1-.52469-.52469V22.448a.52469.52469,0,0,1,1.04938,0v3.70488H7.30877a.52485.52485,0,0,1,0,1.04969Z"/><path class="cls-1" d="M21.92006,27.20254a.52485.52485,0,0,1,0-1.04969h3.70471V22.448a.52469.52469,0,0,1,1.04937,0v4.22988a.52515.52515,0,0,1-.52469.52469Z"/><rect class="cls-1" x="3.73737" y="14.72033" width="21.75409" height="1.01117" rx="0.47491" ry="0.47491"/><path class="cls-1" d="M10.74089,9.65972H13.9041a.34451.34451,0,0,0,0-.689H10.74089a.34451.34451,0,0,0,0,.689Z"/><path class="cls-1" d="M10.74089,18.09279h7.84527a.34452.34452,0,1,0,0-.689H10.74089a.34452.34452,0,0,0,0,.689Z"/><path class="cls-1" d="M10.74089,19.87117h7.84527a.34449.34449,0,1,0,0-.689H10.74089a.34449.34449,0,0,0,0,.689Z"/><path class="cls-1" d="M10.74089,21.64961h7.84527a.34451.34451,0,1,0,0-.689H10.74089a.34451.34451,0,0,0,0,.689Z"/><path class="cls-1" d="M20.78465,17.42256v4.624a1.0105,1.0105,0,0,1-.291.73731,1.03639,1.03639,0,0,1-.74853.31641H10.13035a1.05632,1.05632,0,0,1-1.05517-1.05469v-4.623H8.27293V22.03a1.85923,1.85923,0,0,0,1.85742,1.85742h9.59912A1.85923,1.85923,0,0,0,21.5869,22.03V17.42256Z"/><path class="cls-1" d="M9.07518,13.17256V8.01924a1.05652,1.05652,0,0,1,1.05517-1.05566l6.47083-.05622h.04919V10.446a.40167.40167,0,0,0,.40137.40137l3.72485-.05652h.00806v2.38171h.80225V10.43037L21.56541,10.28a.37017.37017,0,0,0-.0747-.10937L17.34227,6.25655a.48789.48789,0,0,0-.14014-.08887.28443.28443,0,0,0-.13476-.02149h-6.937A1.85924,1.85924,0,0,0,8.27293,8.00362v5.16894Z"/></svg>