<svg id="Слой_1" data-name="Слой 1" xmlns="http://www.w3.org/2000/svg" viewBox="0 0 29.99 29.99"><defs><style>.cls-1{fill:#ffffff}</style></defs><path class="cls-1" d="M12.72 14.16a.39.39 0 00-.54-.04L9.7 16.24a.39.39 0 000 .59l2.5 2.12a.39.39 0 00.5-.59l-2.16-1.83 2.15-1.83a.39.39 0 00.04-.54zM17.6 14.12a.39.39 0 00-.5.58l2.15 1.83-2.15 1.83a.39.39 0 10.5.59l2.5-2.12a.39.39 0 000-.59zM15.64 12.5a.39.39 0 00-.46.3l-1.55 7.37a.39.39 0 00.3.45.4.4 0 00.08.01.39.39 0 00.37-.3l1.56-7.38a.39.39 0 00-.3-.45zM9.7 8.4a1.22 1.22 0 10-1.23-1.22A1.22 1.22 0 009.7 8.39zm0-1.67a.45.45 0 11-.46.45.45.45 0 01.45-.45zM5.95 8.38a1.22 1.22 0 10-1.22-1.22 1.22 1.22 0 001.22 1.22zm0-1.67a.45.45 0 11-.45.45.45.45 0 01.45-.45zM13.43 8.4a1.22 1.22 0 10-1.21-1.21 1.22 1.22 0 001.21 1.22zm0-1.66a.45.45 0 11-.44.45.45.45 0 01.44-.45z"/><path class="cls-1" d="M26.51 18.1V6.65a2.67 2.67 0 00-2.66-2.67H5.7a2.67 2.67 0 00-2.67 2.67v15.4a2.66 2.66 0 002.67 2.67h14.04a4.8 4.8 0 106.77-6.64zM3.96 6.65A1.74 1.74 0 015.7 4.92h18.15a1.74 1.74 0 011.74 1.74v2.73H3.96zM5.7 23.8a1.74 1.74 0 01-1.74-1.74V10.31h21.63v7.24a4.8 4.8 0 00-6.37 6.25zm17.93 2.04a3.9 3.9 0 113.92-3.91 3.9 3.9 0 01-3.92 3.91z"/><path class="cls-1" d="M22.36 21.1a.25.25 0 00.18-.08.24.24 0 00.07-.17.25.25 0 00-.07-.18.24.24 0 00-.18-.07h-1.47a.24.24 0 00-.18.07.26.26 0 00-.07.19v2.35a.26.26 0 00.07.19.24.24 0 00.18.08h1.47a.24.24 0 00.18-.08.25.25 0 00.07-.18.23.23 0 00-.25-.24h-1.22v-.7h.85a.24.24 0 00.18-.08.26.26 0 000-.35.24.24 0 00-.18-.07h-.85v-.69zM23.9 21.76a.83.83 0 01-.43-.14.31.31 0 01-.12-.25.26.26 0 01.12-.23.63.63 0 01.36-.09.55.55 0 01.29.07.57.57 0 01.19.21.27.27 0 00.1.1.26.26 0 00.13.04l.1-.02.03-.02a.23.23 0 00.1-.19.33.33 0 00-.05-.16 1.08 1.08 0 00-.35-.38.95.95 0 00-.52-.13 1.3 1.3 0 00-.5.09.83.83 0 00-.35.27.71.71 0 00-.14.43.76.76 0 00.26.59 1.16 1.16 0 00.68.27.64.64 0 01.39.15.38.38 0 01.12.28.3.3 0 01-.14.27.62.62 0 01-.36.1.7.7 0 01-.35-.08.4.4 0 01-.2-.2.28.28 0 00-.1-.12.25.25 0 00-.15-.04h-.04a.26.26 0 00-.14.08.21.21 0 00-.05.15l.02.1a.9.9 0 00.39.44 1.19 1.19 0 00.62.16 1.22 1.22 0 00.48-.1.86.86 0 00.37-.29.8.8 0 00.14-.48.82.82 0 00-.24-.6 1.07 1.07 0 00-.65-.28zM26.86 21.08a.86.86 0 00-.33-.36.9.9 0 00-.47-.12h-.65a.24.24 0 00-.18.07.26.26 0 00-.07.19v2.35a.26.26 0 00.07.19.24.24 0 00.18.08.24.24 0 00.18-.08.27.27 0 00.07-.19v-.68h.4a.92.92 0 00.47-.12.86.86 0 00.33-.34 1.03 1.03 0 00.11-.5 1.1 1.1 0 00-.11-.5zm-.8.96h-.4v-.95h.4a.39.39 0 01.3.14.5.5 0 01.13.35.46.46 0 01-.12.33.4.4 0 01-.31.13z"/></svg>