<svg xmlns="http://www.w3.org/2000/svg" xml:space="preserve" width="69.33" height="71.31"><defs><clipPath clipPathUnits="userSpaceOnUse" id="a"><path d="M0 53.48h52V0H0Z"/></clipPath></defs><g clip-path="url(#a)" transform="matrix(1.33333 0 0 -1.33333 0 71.31)"><path d="M19.2 47.91H7.73a.97.97 0 1 0 0 1.94H19.2a.97.97 0 0 0 0-1.94M46.33 26.75a.97.97 0 0 0-.96.97v14.9a.97.97 0 0 0 1.93 0v-14.9a.97.97 0 0 0-.97-.97M4.6 7.02a.97.97 0 0 0-.97.97v10.34a.97.97 0 0 0 1.93 0V8a.97.97 0 0 0-.96-.97M43.2 3.9H31.72a.97.97 0 0 0 0 1.93H43.2a.97.97 0 0 0 0-1.94" fill="#ffffff"/><path d="M2.5 51.04a.08.08 0 0 1-.07-.08V46.8c0-.04.04-.07.08-.07h4.17c.04 0 .08.03.08.07v4.17c0 .05-.04.08-.08.08Zm4.18-6.26H2.51c-1.11 0-2.01.9-2.01 2.01v4.17c0 1.11.9 2.02 2 2.02h4.18c1.11 0 2.01-.9 2.01-2.02V46.8c0-1.1-.9-2.01-2-2.01M2.5 26.75a.08.08 0 0 1-.07-.07V22.5c0-.05.04-.08.08-.08h4.17c.04 0 .08.03.08.08v4.17c0 .04-.04.07-.08.07Zm4.18-6.26H2.51C1.4 20.5.5 21.4.5 22.51v4.17c0 1.1.9 2.01 2 2.01h4.18c1.11 0 2.01-.9 2.01-2.01V22.5c0-1.11-.9-2.02-2-2.02M44.25 26.75a.08.08 0 0 1-.08-.07V22.5c0-.05.04-.08.08-.08h4.17c.04 0 .08.03.08.08v4.17c0 .04-.04.07-.08.07Zm4.17-6.26h-4.17c-1.11 0-2.01.9-2.01 2.02v4.17c0 1.1.9 2.01 2 2.01h4.18c1.11 0 2.01-.9 2.01-2.01V22.5c0-1.11-.9-2.02-2-2.02M44.25 51.04a.08.08 0 0 1-.08-.08V46.8c0-.04.04-.07.08-.07h4.17c.04 0 .08.03.08.07v4.17c0 .05-.04.08-.08.08Zm4.17-6.26h-4.17c-1.11 0-2.01.9-2.01 2.01v4.17c0 1.11.9 2.02 2 2.02h4.18c1.11 0 2.01-.9 2.01-2.02V46.8c0-1.1-.9-2.01-2-2.01M23.38 51.04a.08.08 0 0 1-.08-.08V46.8c0-.04.04-.07.08-.07h4.17c.04 0 .08.03.08.07v4.17c0 .05-.04.08-.08.08Zm4.17-6.26h-4.17c-1.11 0-2.01.9-2.01 2.01v4.17c0 1.11.9 2.02 2 2.02h4.18c1.11 0 2.01-.9 2.01-2.02V46.8c0-1.1-.9-2.01-2-2.01M2.5 7.02a.08.08 0 0 1-.07-.07V2.77c0-.04.04-.07.08-.07h4.17c.04 0 .08.03.08.07v4.18c0 .04-.04.07-.08.07ZM6.69.76H2.51C1.4.76.5 1.66.5 2.77v4.18c0 1.1.9 2.01 2 2.01h4.18c1.11 0 2.01-.9 2.01-2.01V2.77c0-1.1-.9-2-2-2M44.25 7.02a.08.08 0 0 1-.08-.07V2.77c0-.04.04-.07.08-.07h4.17c.04 0 .08.03.08.07v4.18c0 .04-.04.07-.08.07ZM48.42.76h-4.17c-1.11 0-2.01.9-2.01 2.01v4.18c0 1.1.9 2.01 2 2.01h4.18c1.11 0 2.01-.9 2.01-2.01V2.77c0-1.1-.9-2-2-2M23.38 7.02a.08.08 0 0 1-.08-.07V2.77c0-.04.04-.07.08-.07h4.17c.04 0 .08.03.08.07v4.18c0 .04-.04.07-.08.07ZM27.55.76h-4.17c-1.11 0-2.01.9-2.01 2.01v4.18c0 1.1.9 2.01 2 2.01h4.18c1.11 0 2.01-.9 2.01-2.01V2.77c0-1.1-.9-2-2-2" fill="#ffffff"/><path d="M40.07 47.91H28.6a.97.97 0 0 0 0 1.94h11.48a.97.97 0 0 0 0-1.94M46.33 10.15a.97.97 0 0 0-.96.97v10.34a.97.97 0 0 0 1.93 0V11.12a.97.97 0 0 0-.97-.97M4.6 31.02a.97.97 0 0 0-.97.97v13.76a.97.97 0 0 0 1.93 0V31.99a.97.97 0 0 0-.96-.97M22.33 3.9H10.86a.97.97 0 0 0 0 1.93h11.47a.97.97 0 0 0 0-1.94M14.5 31.27l-2.91 5.06v-4.69c0-.43-.41-.8-.89-.8a.84.84 0 0 0-.86.8v7.4c0 .48.38.85.9.85.35 0 .69-.19.86-.47 1.12-1.93 1.75-3.07 2.9-5.08v4.73c0 .44.42.82.9.82.49 0 .86-.38.86-.82v-7.39c0-.46-.37-.85-.93-.85-.32 0-.67.18-.84.44" fill="#ffffff"/><path d="m14.5 31.27-2.91 5.06v-4.69c0-.43-.41-.8-.89-.8a.84.84 0 0 0-.86.8v7.4c0 .48.38.85.9.85.35 0 .69-.19.86-.47 1.12-1.93 1.75-3.07 2.9-5.08v4.73c0 .44.42.82.9.82.49 0 .86-.38.86-.82v-7.39c0-.46-.37-.85-.93-.85-.32 0-.67.18-.84.44Z" fill="none" stroke="#ffffff" stroke-width=".11" stroke-miterlimit="10"/><path d="M17.81 39.09c0 .42.4.8.88.8s.88-.38.88-.8v-7.46c0-.42-.4-.8-.88-.8-.49 0-.88.38-.88.8Z" fill="#ffffff"/><path d="M17.81 39.09c0 .42.4.8.88.8s.88-.38.88-.8v-7.46c0-.42-.4-.8-.88-.8-.49 0-.88.38-.88.8Z" fill="none" stroke="#ffffff" stroke-width=".11" stroke-miterlimit="10"/><path d="M26.46 30.83c-.46 0-.88.38-.88.81v2.92h-2.67v-2.92c0-.43-.4-.81-.87-.81-.5 0-.88.38-.88.81v7.45c0 .42.39.8.88.8.47 0 .87-.38.87-.8v-2.92h2.67v2.92c0 .42.42.8.88.8s.88-.38.88-.8v-7.45c0-.43-.4-.81-.88-.81" fill="#ffffff"/><path d="M26.46 30.83c-.46 0-.88.38-.88.81v2.92h-2.67v-2.92c0-.43-.4-.81-.87-.81-.5 0-.88.38-.88.81v7.45c0 .42.39.8.88.8.47 0 .87-.38.87-.8v-2.92h2.67v2.92c0 .42.42.8.88.8s.88-.38.88-.8v-7.45c0-.43-.4-.81-.88-.81Z" fill="none" stroke="#ffffff" stroke-width=".11" stroke-miterlimit="10"/><path d="M32 34.35c-.25.11-.57.23-.9.34-1.23.37-2.56.79-2.56 2.6 0 1.62 1.13 2.6 2.9 2.6.74 0 2.52-.19 2.52-1.13 0-.41-.32-.79-.87-.79-.23 0-.4.08-.62.14-.24.09-.51.19-.95.19-.61 0-1.2-.22-1.2-.96 0-.55.32-.73.54-.83.32-.17.62-.27.9-.34 1.23-.4 2.57-.82 2.57-2.6 0-1.74-1.33-2.74-3.12-2.74-.93 0-2.68.33-2.68 1.2 0 .4.36.8.82.8.19 0 .39-.07.63-.16.3-.1.7-.25 1.24-.25.86 0 1.3.39 1.3 1.08 0 .56-.29.75-.51.85" fill="#ffffff"/><path d="M32 34.35c-.25.11-.57.23-.9.34-1.23.37-2.56.79-2.56 2.6 0 1.62 1.13 2.6 2.9 2.6.74 0 2.52-.19 2.52-1.13 0-.41-.32-.79-.87-.79-.23 0-.4.08-.62.14-.24.09-.51.19-.95.19-.61 0-1.2-.22-1.2-.96 0-.55.32-.73.54-.83.32-.17.62-.27.9-.34 1.23-.4 2.57-.82 2.57-2.6 0-1.74-1.33-2.74-3.12-2.74-.93 0-2.68.33-2.68 1.2 0 .4.36.8.82.8.19 0 .39-.07.63-.16.3-.1.7-.25 1.24-.25.86 0 1.3.39 1.3 1.08 0 .56-.29.75-.51.85Z" fill="none" stroke="#ffffff" stroke-width=".11" stroke-miterlimit="10"/><path d="M38.62 34.35c-.26.11-.57.23-.91.34-1.23.37-2.56.79-2.56 2.6 0 1.62 1.13 2.6 2.91 2.6.74 0 2.52-.19 2.52-1.13 0-.41-.33-.79-.88-.79-.23 0-.4.08-.61.14-.24.09-.52.19-.96.19-.61 0-1.19-.22-1.19-.96 0-.55.32-.73.53-.83.33-.17.63-.27.9-.34 1.23-.4 2.57-.82 2.57-2.6 0-1.74-1.33-2.74-3.12-2.74-.93 0-2.68.33-2.68 1.2 0 .4.36.8.83.8.18 0 .38-.07.62-.16.3-.1.7-.25 1.24-.25.87 0 1.3.39 1.3 1.08 0 .56-.28.75-.5.85" fill="#ffffff"/><path d="M38.62 34.35c-.26.11-.57.23-.91.34-1.23.37-2.56.79-2.56 2.6 0 1.62 1.13 2.6 2.91 2.6.74 0 2.52-.19 2.52-1.13 0-.41-.33-.79-.88-.79-.23 0-.4.08-.61.14-.24.09-.52.19-.96.19-.61 0-1.19-.22-1.19-.96 0-.55.32-.73.53-.83.33-.17.63-.27.9-.34 1.23-.4 2.57-.82 2.57-2.6 0-1.74-1.33-2.74-3.12-2.74-.93 0-2.68.33-2.68 1.2 0 .4.36.8.83.8.18 0 .38-.07.62-.16.3-.1.7-.25 1.24-.25.87 0 1.3.39 1.3 1.08 0 .56-.28.75-.5.85Z" fill="none" stroke="#ffffff" stroke-width=".11" stroke-miterlimit="10"/><path d="M25.46 10.44a.97.97 0 0 0-.96.97v10.9c0 .73-.6 1.31-1.31 1.31H11.14a.97.97 0 1 0 0 1.94H23.2a3.25 3.25 0 0 0 3.24-3.25v-10.9a.97.97 0 0 0-.97-.97" fill="#ffffff"/></g></svg>