<svg xmlns="http://www.w3.org/2000/svg" xml:space="preserve" width="40" height="40"><defs><clipPath clipPathUnits="userSpaceOnUse" id="a"><path d="M0 30h30V0H0Z"/></clipPath></defs><g clip-path="url(#a)" transform="matrix(1.33333 0 0 -1.33333 0 40)"><path d="M27.57 10.5c0-1.2-.98-2.18-2.19-2.18H23.5a.5.5 0 0 1-.36-.16.44.44 0 0 1-.18-.33l-.04-1.53v-.6l.05-.2v-.1L20.1 8.2l-.3.12h-6.9c-1.2 0-2.18.98-2.18 2.19v.68h8.36a3.16 3.16 0 0 1 2.64 3.11v5.09h3.65c1.2 0 2.19-.98 2.19-2.19Zm-6.82 8.89V14.3c0-1.2-.98-2.18-2.19-2.18h-7.83v5.08c0 1.21.98 2.19 2.18 2.19zm-11-2.19v-5.08H6.09c-1.2 0-2.19.98-2.19 2.18V21c0 1.21.98 2.19 2.19 2.19h1.88a.5.5 0 0 1 .36.16c.08.06.18.17.18.33l.04 1.53v.6l-.05.2v.11l2.86-2.82.3-.1 6.9-.01c1.2 0 2.19-.98 2.19-2.19v-.68h-8.37a3.16 3.16 0 0 1-2.63-3.12m16.17 3.12h-4.2V21a3.17 3.17 0 0 1-3.16 3.17l-6.73-.03-3.48 3.45a.36.36 0 0 1-.61-.24l-.03-3.18H6.09A3.17 3.17 0 0 1 2.92 21v-6.7c0-1.54 1.1-2.85 2.63-3.11h4.2v-.69a3.17 3.17 0 0 1 3.16-3.16l6.73.03 3.48-3.45a.36.36 0 0 1 .62.24l.03 3.18h1.61a3.17 3.17 0 0 1 3.17 3.17v6.7c0 1.54-1.1 2.85-2.63 3.11" fill="#0098da"/><path d="M13.56 15.8c.12 0 .24.05.32.13.44.44.8.66 1.15.66.19-.01.31-.1.52-.28.25-.2.56-.46 1.12-.49.6 0 1.18.32 1.85 1.01a.45.45 0 0 1-.65.63c-.45-.46-.9-.74-1.23-.74-.18.01-.3.1-.52.28-.24.2-.55.46-1.1.49-.57 0-1.18-.32-1.78-.92a.45.45 0 0 1-.13-.32c0-.12.05-.23.14-.32.08-.08.2-.13.31-.13M18.03 15.62c-.44-.46-.9-.73-1.23-.74-.18 0-.3.1-.51.28-.25.2-.56.46-1.1.48-.57 0-1.2-.31-1.79-.92a.45.45 0 0 1 .32-.76c.12 0 .24.04.32.13.42.42.81.65 1.15.66.19-.01.31-.11.52-.29.25-.2.56-.46 1.14-.48.56 0 1.18.34 1.83 1.01.08.09.12.2.12.32s-.05.23-.14.32a.45.45 0 0 1-.64-.01M6.98 21.36c-.61 0-1.08-.13-1.52-.41-.18-.12-.26-.23-.26-.38 0-.24.2-.38.39-.38.11 0 .21.06.33.13a1.78 1.78 0 0 0 1.05.29c.65 0 1.05-.43 1.05-1.1 0-.37-.15-.73-.48-1.1a6.09 6.09 0 0 0-.28-.34 3.07 3.07 0 0 1-.67-.98.92.92 0 0 1-.05-.37c0-.22.18-.4.4-.4.22 0 .4.18.4.4 0 .15.02.26.06.33.1.21.27.38.46.57l.3.3c.45.51.66 1.03.66 1.69 0 1.03-.76 1.75-1.84 1.75M6.95 15.78a.53.53 0 0 1-.53-.52c0-.3.24-.54.53-.54.28 0 .52.24.52.54 0 .28-.23.52-.52.52M24.5 16.46c-.62 0-1.1-.13-1.54-.41-.18-.12-.26-.23-.26-.39 0-.23.2-.38.4-.38.1 0 .2.06.33.13a1.9 1.9 0 0 0 1.06.3c.66 0 1.07-.43 1.07-1.12 0-.38-.16-.74-.49-1.11l-.29-.34c-.26-.3-.53-.6-.67-1a.97.97 0 0 1-.06-.37c0-.22.19-.41.41-.41.22 0 .41.19.41.4 0 .16.02.27.05.34.1.21.28.39.48.58l.3.3c.46.52.66 1.05.66 1.71 0 1.04-.77 1.77-1.86 1.77M24.47 10.8a.53.53 0 0 1-.54-.52c0-.3.24-.54.54-.54.29 0 .53.25.53.54 0 .3-.24.53-.53.53" fill="#0098da"/></g></svg>