<svg xmlns="http://www.w3.org/2000/svg" xml:space="preserve" width="66.667" height="66.667"><defs><clipPath clipPathUnits="userSpaceOnUse" id="a"><path d="M0 50h50V0H0Z"/></clipPath></defs><g clip-path="url(#a)" transform="matrix(1.33333 0 0 -1.33333 0 66.667)"><path d="M0 0a5.5 5.5 0 0 1-3.016-.899A5.493 5.493 0 0 1-5.4-4.392a5.488 5.488 0 0 1 .784-4.155 5.532 5.532 0 0 1 7.648-1.6 5.533 5.533 0 0 1 1.6 7.648A5.526 5.526 0 0 1 0 0m.02-12.702a7.18 7.18 0 0 0-6.022 3.249 7.132 7.132 0 0 0-1.019 5.401A7.131 7.131 0 0 0-3.922.487a7.146 7.146 0 0 0 5.401 1.019 7.14 7.14 0 0 0 4.54-3.099c2.166-3.313 1.233-7.773-2.081-9.941A7.143 7.143 0 0 0 .02-12.702" style="fill:#0098da;fill-opacity:1;fill-rule:nonzero;stroke:none" transform="translate(17.204 16.544)"/><path d="M0 0c-.401 0-.778.155-1.064.437l-1.575 1.561a.828.828 0 1 0 1.165 1.177L0 1.716l3.58 3.609a.829.829 0 0 0 1.177-1.167L1.076.447A1.505 1.505 0 0 0 .008 0Z" style="fill:#0098da;fill-opacity:1;fill-rule:nonzero;stroke:none" transform="translate(16.216 7.789)"/><path d="M0 0a.809.809 0 0 1-.762-1.105A.816.816 0 1 1 0 0m-.004-3.287A2.474 2.474 0 0 0-2.256.195a2.473 2.473 0 0 0 4.512-2.02 2.477 2.477 0 0 0-2.26-1.462" style="fill:#0098da;fill-opacity:1;fill-rule:nonzero;stroke:none" transform="translate(33.876 14.551)"/><path d="M0 0h23.851v3.423c0 .716-.582 1.298-1.297 1.298H1.298A1.3 1.3 0 0 1 0 3.423Zm25.507-1.656H-1.657v5.079a2.958 2.958 0 0 0 2.955 2.954h21.256a2.956 2.956 0 0 0 2.953-2.954z" style="fill:#0098da;fill-opacity:1;fill-rule:nonzero;stroke:none" transform="translate(2.657 39.78)"/><path d="M0 0h-.601c-2.8 0-5.079 2.28-5.079 5.081v22.084h22.913v-9.222a.828.828 0 1 0-1.657 0v7.566H-4.023V5.081A3.426 3.426 0 0 1-.601 1.657H0A.828.828 0 1 0 0 0" style="fill:#0098da;fill-opacity:1;fill-rule:nonzero;stroke:none" transform="translate(8.806 12.616)"/><path d="M0 0a.829.829 0 0 0-.829.829V17.47h22.913v-4.995a.828.828 0 1 0-1.657 0v3.338H.828V.829A.828.828 0 0 0 0 0" style="fill:#0098da;fill-opacity:1;fill-rule:nonzero;stroke:none" transform="translate(3.955 17.913)"/><path d="M0 0v-.003zm-5.593-1.491h.829v-3.148l1.579.055-.025 3.093H.026L.001-.055H-3.21v3.147l-1.58-.055.026-3.092h-3.237l.025-1.491zm2.408-4.749H-4.79c-.899 0-1.631.719-1.631 1.601v1.492h-1.58c-.899 0-1.632.718-1.632 1.601V0c0 .883.733 1.601 1.632 1.601h1.58v1.491c0 .883.732 1.601 1.631 1.601h1.605c.9 0 1.632-.718 1.632-1.601V1.601H.026C.925 1.601 1.657.883 1.657 0v-1.546c0-.883-.732-1.601-1.631-1.601h-1.579v-1.492c0-.882-.732-1.601-1.632-1.601" style="fill:#0098da;fill-opacity:1;fill-rule:nonzero;stroke:none" transform="translate(18.57 27.421)"/><path d="M0 0h-18.679a.829.829 0 1 0 0 1.657H0c1.208 0 2.308.614 2.941 1.639a3.48 3.48 0 0 1 .152 3.365L-7.115 27.074a3.44 3.44 0 0 1-3.093 1.912 3.44 3.44 0 0 1-3.092-1.912l-7.664-14.486a.827.827 0 1 0-1.464.773l7.656 14.471a5.075 5.075 0 0 0 4.564 2.81 5.083 5.083 0 0 0 4.574-2.828L4.574 7.402a5.15 5.15 0 0 0-.223-4.976A5.082 5.082 0 0 0 0 0" style="fill:#0098da;fill-opacity:1;fill-rule:nonzero;stroke:none" transform="translate(43.89 6.282)"/><path d="M0 0a.328.328 0 0 1-.328-.329v-8.579c0-.182.146-.329.328-.329h.464c.182 0 .328.147.328.329v8.579A.328.328 0 0 1 .464 0Zm.464-10.894H0a1.988 1.988 0 0 0-1.985 1.986v8.579c0 1.095.891 1.985 1.985 1.985h.464c1.095 0 1.985-.89 1.985-1.985v-8.579c0-1.095-.89-1.986-1.985-1.986" style="fill:#0098da;fill-opacity:1;fill-rule:nonzero;stroke:none" transform="translate(33.644 28.528)"/></g></svg>