<svg xmlns="http://www.w3.org/2000/svg" width="66.667" height="66.667"><defs><clipPath id="a" clipPathUnits="userSpaceOnUse"><path d="M0 50h50V0H0Z"/></clipPath></defs><g clip-path="url(#a)" transform="matrix(1.33333 0 0 -1.33333 0 66.667)"><path d="m0 0-.75 2.24c.601.16 1.181.33 1.76.54.73-.679 1.52-1.259 2.32-1.75C2.25.59 1.141.25 0 0m12.23 3.65c-.089.02-9.43 1.85-9.44 7.47a2.136 2.136 0 0 0 2.28 2.28.27.27 0 0 1 .12 0c.621.04 1.23-.179 1.67-.62.43-.44.661-1.04.611-1.719A4.85 4.85 0 0 0 6.51 8.17a.825.825 0 0 1 .171-1.149.824.824 0 0 1 1.149.169A6.444 6.444 0 0 1 9.11 11c.08 1.09-.31 2.17-1.089 2.94a3.767 3.767 0 0 1-2.891 1.1c-1.06.07-2.12-.34-2.88-1.1-.779-.78-1.18-1.85-1.1-2.879C1.15 5.26 8.4 2.9 11.021 2.24L10.271 0C9.32.2 7.48.69 5.561 1.63c-.231.12-.471.24-.701.37-1.179.66-2.19 1.391-3.009 2.21l-.071.07C-.069 6.141-1 8.41-1 11.061a6.13 6.13 0 0 0 12.26-.011 9.453 9.453 0 0 0-1.119-4.57.81.81 0 0 1 .33-1.11.824.824 0 0 1 1.119.33c.881 1.64 1.341 3.5 1.32 5.361 0 4.279-3.49 7.769-7.78 7.769-4.279 0-7.77-3.49-7.77-7.769 0-2.92.98-5.191 2.42-6.96-.58-.181-1.17-.33-1.77-.451a.805.805 0 0 1-.539-.4.828.828 0 0 1-.071-.67l1.27-3.79c.11-.34.431-.56.78-.56.04 0 .09 0 .14.01 1.931.35 3.801.95 5.57 1.79 2.88-1.37 5.481-1.78 5.54-1.79.04-.01.08-.01.12-.01.35 0 .67.22.781.56l1.259 3.79c.08.231.05.47-.07.68-.12.2-.319.35-.56.39" style="fill:#0098da;fill-opacity:1;fill-rule:nonzero;stroke:none" transform="translate(35.01 8.26)"/><path d="M0 0a1.288 1.288 0 1 0-2.577 0A1.288 1.288 0 0 0 0 0" style="fill:#0098da;fill-opacity:1;fill-rule:nonzero;stroke:none" transform="translate(14.179 41.354)"/><path d="M0 0h-11.078a.823.823 0 1 0 0 1.645H0A.822.822 0 0 0 0 0" style="fill:#0098da;fill-opacity:1;fill-rule:nonzero;stroke:none" transform="translate(26.583 22.994)"/><path d="M0 0h-11.078a.822.822 0 1 0 0 1.645H0A.822.822 0 0 0 0 0" style="fill:#0098da;fill-opacity:1;fill-rule:nonzero;stroke:none" transform="translate(26.583 17.955)"/><path d="M0 0h-11.078a.823.823 0 0 0 0 1.646H0A.822.822 0 0 0 0 0" style="fill:#0098da;fill-opacity:1;fill-rule:nonzero;stroke:none" transform="translate(39.563 35.412)"/><path d="M0 0h-11.078a.823.823 0 0 0 0 1.646H0A.822.822 0 0 0 0 0" style="fill:#0098da;fill-opacity:1;fill-rule:nonzero;stroke:none" transform="translate(39.563 30.372)"/><path d="m0 0-4.25 2.19c-.64.38-1.38.58-2.12.58h-9.77c-1.2 0-2.18.98-2.18 2.18v9.41c0 1.2.98 2.17 2.18 2.17h13.96c1.21 0 2.18-.97 2.18-2.17Zm-5.32-20.089c2.32 0 4.21-1.921 4.21-4.271l-.08-4.79c-.08.07-.16.14-.24.22l-8.38 8.49c-.11.12-.22.24-.32.37zM22.88-3.54c.45 0 .82.37.82.83V8.16c0 2.19-1.76 3.97-3.929 3.97H1.65v2.23c0 2.11-1.72 3.82-3.83 3.82h-13.96c-2.11 0-3.83-1.71-3.83-3.82V4.95c0-2.11 1.72-3.82 3.83-3.82h3.45v-18.54c0-1.58.61-3.07 1.71-4.179l8.38-8.491a5.802 5.802 0 0 1 4.15-1.74h18.221c2.199 0 3.91 1.691 3.91 3.861a.818.818 0 0 1-.821.819c-.45 0-.82-.37-.82-.819 0-1.261-.979-2.221-2.269-2.221H1.55c-.38 0-.75.051-1.1.15l.09 5.66c0 3.27-2.63 5.92-5.86 5.92l-5.6.031c-.08.33-.12.669-.12 1.009V1.13h4.67c.45 0 .89-.12 1.32-.38l4.47-2.31c.24-.15.51-.24.79-.24A1.445 1.445 0 0 1 1.65-.36v10.84h18.121c1.259 0 2.29-1.04 2.29-2.32V-2.71c0-.46.359-.83.819-.83" style="fill:#0098da;fill-opacity:1;fill-rule:nonzero;stroke:none" transform="translate(22.05 31.82)"/><path d="M0 0a3.968 3.968 0 0 1-.64 5.34c1.95-.99 2.83-2.82 2.83-2.82S1.37 1.12 0 0m-8.61 2.43s.86 2.06 2.98 3.03a3.942 3.942 0 0 1-1.54-3.14A3.9 3.9 0 0 1-6.15-.32C-7.7.79-8.61 2.43-8.61 2.43m5.4 2.5c1.44 0 2.61-1.16 2.61-2.61C-.6.88-1.77-.29-3.21-.29S-5.82.88-5.82 2.32c0 1.45 1.17 2.61 2.61 2.61m6.62-1.81c-.08.17-2.1 4.21-6.68 4.21h-.06C-8 7.29-9.79 3.13-9.86 2.95l-.25-.6.32-.57c.1-.19 2.51-4.46 6.47-4.46h.06c3.96.05 6.51 4.34 6.62 4.52l.37.63z" style="fill:#0098da;fill-opacity:1;fill-rule:nonzero;stroke:none" transform="translate(16.1 39.03)"/></g></svg>