<svg xmlns="http://www.w3.org/2000/svg" xml:space="preserve" width="66.667" height="66.667"><defs><clipPath clipPathUnits="userSpaceOnUse" id="a"><path d="M0 50h50V0H0Z"/></clipPath></defs><g clip-path="url(#a)" transform="matrix(1.33333 0 0 -1.33333 0 66.667)"><path d="M0 0h.01Zm4.346 1.492c-.297 0-.597-.03-.895-.093A4.3 4.3 0 0 1 .716-.468a4.293 4.293 0 0 1-.614-3.255 4.295 4.295 0 0 1 1.867-2.735 4.295 4.295 0 0 1 3.255-.614c1.131.237 2.102.9 2.735 1.867.633.968.851 2.123.614 3.255A4.3 4.3 0 0 1 6.706.785a4.3 4.3 0 0 1-2.36.707M4.325-8.876a5.996 5.996 0 0 0-3.292.986 6.003 6.003 0 0 0-2.605 3.817A5.993 5.993 0 0 0-.716.468a6 6 0 0 0 3.817 2.605 5.988 5.988 0 0 0 4.541-.856 6.045 6.045 0 0 0 1.749-8.358 6.003 6.003 0 0 0-3.817-2.605 6.098 6.098 0 0 0-1.249-.13" style="fill:#0098da;fill-opacity:1;fill-rule:nonzero;stroke:none" transform="translate(36.446 10.798)"/><path d="M0 0c-.359 0-.719.136-.994.407l-1.285 1.274a.855.855 0 1 0 1.203 1.215l1.075-1.065 2.794 2.817a.857.857 0 0 0 1.215-1.205L1.005.416A1.416 1.416 0 0 0 0 0" style="fill:#0098da;fill-opacity:1;fill-rule:nonzero;stroke:none" transform="translate(39.873 5.146)"/><path d="M0 0c.11-.247.404-.357.648-.247a.49.49 0 1 1-.4.896A.49.49 0 0 1 0 0m.451-2A2.203 2.203 0 0 0-1.608.985c.21.55.621.985 1.157 1.225a2.182 2.182 0 0 0 1.684.048 2.19 2.19 0 0 0 1.224-1.157c.24-.538.257-1.135.048-1.685A2.193 2.193 0 0 0 .451-2" style="fill:#0098da;fill-opacity:1;fill-rule:nonzero;stroke:none" transform="translate(28.914 8.496)"/><path d="M0 0h-13.757a4.339 4.339 0 0 0-3.714 2.071 4.337 4.337 0 0 0-.19 4.246l9.287 16.746a4.326 4.326 0 0 0 3.887 2.381c1.665 0 3.16-.924 3.903-2.414l5.522-10.154a.853.853 0 1 0-1.501-.816L-2.1 22.24a2.65 2.65 0 0 1-2.387 1.494 2.64 2.64 0 0 1-2.374-1.468L-16.148 5.52a2.623 2.623 0 0 1 .132-2.55 2.64 2.64 0 0 1 2.259-1.259H0A.855.855 0 1 0 0 0" style="fill:#0098da;fill-opacity:1;fill-rule:nonzero;stroke:none" transform="translate(34.008 2.416)"/><path d="M0 0a.092.092 0 0 1-.092-.092v-7.024c0-.052.041-.093.092-.093h.379c.051 0 .092.041.092.093v7.024A.092.092 0 0 1 .379 0Zm.379-8.92H0c-.994 0-1.803.81-1.803 1.804v7.024c0 .994.809 1.803 1.803 1.803h.379c.994 0 1.803-.809 1.803-1.803v-7.024c0-.994-.809-1.804-1.803-1.804" style="fill:#0098da;fill-opacity:1;fill-rule:nonzero;stroke:none" transform="translate(29.173 20.63)"/><path d="m0 0-4.643 4.883h-8.676a3.45 3.45 0 0 0-3.445 3.446V27.15c0 2.071 2.676 3.445 4.445 3.445H18.78a3.45 3.45 0 0 0 3.446-3.445V9.329a3.45 3.45 0 0 0-3.446-3.446l-1.294-.02c-.486-.02-.86.371-.868.843a.856.856 0 0 0 .843.868l1.307.019a1.74 1.74 0 0 1 1.747 1.736V27.15c0 .957-.779 1.735-1.735 1.735h-31.099c-1.079 0-2.735-.93-2.735-1.735V8.329c0-.957.779-1.736 1.735-1.736h9.409l3.586-3.771 1.946 3.312a.854.854 0 1 0 1.475-.866Z" style="fill:#0098da;fill-opacity:1;fill-rule:nonzero;stroke:none" transform="translate(18.942 17.981)"/><path d="M0 0h-11.155a.855.855 0 0 0 0 1.711H0A.855.855 0 0 0 0 0" style="fill:#0098da;fill-opacity:1;fill-rule:nonzero;stroke:none" transform="translate(14.293 10.679)"/><path d="M0 0h-8.833a.855.855 0 0 0 0 1.711H0A.855.855 0 0 0 0 0" style="fill:#0098da;fill-opacity:1;fill-rule:nonzero;stroke:none" transform="translate(11.97 5.988)"/><path d="M0 0h-14.118a.855.855 0 0 0 0 1.711H0A.855.855 0 0 0 0 0" style="fill:#0098da;fill-opacity:1;fill-rule:nonzero;stroke:none" transform="translate(17.255 15.368)"/><path d="M0 0a.855.855 0 0 0-.005 1.711l3.306.02c.962 0 1.74.779 1.74 1.735v17.821c0 .957-.778 1.735-1.735 1.735H.622a.855.855 0 1 0 0 1.71h2.684a3.45 3.45 0 0 0 3.446-3.445V3.466A3.45 3.45 0 0 0 3.306.021L.005 0Z" style="fill:#0098da;fill-opacity:1;fill-rule:nonzero;stroke:none" transform="translate(40.07 19.537)"/><path d="M0 0h13.524L6.762 10.799Zm13.688-.261h.009zm.131-1.449H-.294c-.561 0-1.08.302-1.354.788a1.533 1.533 0 0 0 .036 1.57l7.057 11.269c.569.912 2.063.912 2.634.001L15.136.648a1.53 1.53 0 0 0 .036-1.57 1.555 1.555 0 0 0-1.353-.788" style="fill:#0098da;fill-opacity:1;fill-rule:nonzero;stroke:none" transform="translate(8.128 33.216)"/><path d="m0 0 6.762-10.799L13.524 0Zm6.894-11.01h.01zm-.132-1.635c-.54 0-1.033.272-1.318.728L-1.612-.648c-.3.478-.313 1.08-.036 1.57.274.486.793.788 1.354.788h14.113c.56 0 1.078-.302 1.353-.788a1.53 1.53 0 0 0-.037-1.571L8.079-11.917a1.541 1.541 0 0 0-1.317-.728" style="fill:#0098da;fill-opacity:1;fill-rule:nonzero;stroke:none" transform="translate(8.128 40.164)"/><path d="M0 0h-3.951a.855.855 0 1 0 0 1.71H0A.855.855 0 1 0 0 0" style="fill:#0098da;fill-opacity:1;fill-rule:nonzero;stroke:none" transform="translate(35.688 36.077)"/><path d="M0 0h-8.462a.855.855 0 1 0 0 1.71H0A.855.855 0 1 0 0 0" style="fill:#0098da;fill-opacity:1;fill-rule:nonzero;stroke:none" transform="translate(35.688 31.814)"/><path d="M0 0h-8.462a.855.855 0 1 0 0 1.71H0A.855.855 0 1 0 0 0" style="fill:#0098da;fill-opacity:1;fill-rule:nonzero;stroke:none" transform="translate(35.688 40.4)"/><path d="M0 0h-1.317a.855.855 0 1 0 0 1.71H0A.855.855 0 1 0 0 0" style="fill:#0098da;fill-opacity:1;fill-rule:nonzero;stroke:none" transform="translate(28.608 36.077)"/></g></svg>