<svg xmlns="http://www.w3.org/2000/svg" width="66.667" height="66.667"><defs><clipPath id="a" clipPathUnits="userSpaceOnUse"><path d="M0 50h50V0H0Z"/></clipPath></defs><g clip-path="url(#a)" transform="matrix(1.33333 0 0 -1.33333 0 66.667)"><path d="M0 0h1.468v2.21c0 .475.386.86.86.86h2.329v1.35H2.328a.86.86 0 0 0-.86.86v2.211H0V5.28a.86.86 0 0 0-.86-.86h-2.328V3.07H-.86A.86.86 0 0 0 0 2.21Zm1.531-1.721H-.063c-.914 0-1.657.731-1.657 1.628V1.35h-1.531c-.914 0-1.657.73-1.657 1.628v1.535c0 .897.743 1.627 1.657 1.627h1.531v1.443c0 .897.743 1.628 1.657 1.628h1.594c.914 0 1.657-.731 1.657-1.628V6.14h1.531c.914 0 1.658-.73 1.658-1.627V2.978c0-.898-.744-1.628-1.658-1.628H3.188V-.093c0-.897-.743-1.628-1.657-1.628" style="fill:#0098da;fill-opacity:1;fill-rule:nonzero;stroke:none" transform="translate(9.576 28.012)"/><path d="M0 0a.54.54 0 0 1-.051.152.196.196 0 0 0 .03-.051c0-.01.01-.03.01-.05C0 .041 0 .02 0 0" style="fill:#0098da;fill-opacity:1;fill-rule:nonzero;stroke:none" transform="translate(40.744 38.842)"/><path d="M0 0a3.226 3.226 0 0 0-3.218 3.218v4.866c.274-.141.527-.323.749-.546L4.32.749c.223-.223.406-.476.557-.749Zm-10.998 1.133c.354-.172.678-.404.961-.688l7.356-7.356c.273-.273.506-.597.667-.941h-5.413a3.571 3.571 0 0 0-3.571 3.572zM6.921-.88v.02c0 .02 0 .03-.01.05l-.03.163a.533.533 0 0 1-.051.151c.01-.01.021-.03.03-.05a4.847 4.847 0 0 1-1.325 2.509l-6.789 6.789a4.968 4.968 0 0 1-2.651 1.366 3.866 3.866 0 0 1-.84.081h-15.754a3.794 3.794 0 0 1-3.794-3.794V3.238h-5.758a3.804 3.804 0 0 1-3.794-3.804V-35.05a3.594 3.594 0 0 1 3.592-3.592h18.648a.86.86 0 0 1 0 1.721h-18.648a1.874 1.874 0 0 0-1.872 1.871V-.566a2.08 2.08 0 0 0 2.074 2.084h17.333V-4.28a5.303 5.303 0 0 1 5.291-5.292h5.798v-2.054a.86.86 0 1 1 1.721 0v2.186c0 .243-.021.485-.062.728a.896.896 0 0 1-.019.172 5.243 5.243 0 0 1-1.478 2.843l-7.346 7.356c-.769.759-1.74 1.285-2.782 1.467-.02.021-.041.021-.071.021a.599.599 0 0 1-.192.03 4.646 4.646 0 0 1-.759.061h-9.956v3.167c0 1.143.93 2.074 2.074 2.074h15.562V3.218A4.944 4.944 0 0 1 0-1.72h5.262v-9.663a.86.86 0 1 1 1.719 0v9.845c0 .223-.03.445-.06.658" style="fill:#0098da;fill-opacity:1;fill-rule:nonzero;stroke:none" transform="translate(33.863 39.49)"/><path d="M0 0a.54.54 0 0 1-.051.152.196.196 0 0 0 .03-.051c0-.01.01-.03.01-.05C0 .041 0 .02 0 0" style="fill:#0098da;fill-opacity:1;fill-rule:nonzero;stroke:none" transform="translate(40.744 38.842)"/><path d="M0 0a.54.54 0 0 1-.051.152.196.196 0 0 0 .03-.051c0-.01.01-.03.01-.05C0 .041 0 .02 0 0" style="fill:#0098da;fill-opacity:1;fill-rule:nonzero;stroke:none" transform="translate(40.744 38.842)"/><path d="M0 0h-16.282a.86.86 0 1 0 0 1.72H0A.86.86 0 0 0 0 0" style="fill:#0098da;fill-opacity:1;fill-rule:nonzero;stroke:none" transform="translate(21.81 13.168)"/><path d="M0 0h-12.125a.86.86 0 0 0 0 1.72H0A.86.86 0 1 0 0 0" style="fill:#0098da;fill-opacity:1;fill-rule:nonzero;stroke:none" transform="translate(21.81 7.506)"/><path d="M0 0h-1.368a.86.86 0 1 0 0 1.72H0A.86.86 0 1 0 0 0" style="fill:#0098da;fill-opacity:1;fill-rule:nonzero;stroke:none" transform="translate(6.896 7.506)"/><path d="M0 0h-4.664a.86.86 0 1 0 0 1.72H0A.86.86 0 0 0 0 0" style="fill:#0098da;fill-opacity:1;fill-rule:nonzero;stroke:none" transform="translate(21.81 19.09)"/><path d="M0 0h-8.829a.86.86 0 1 0 0 1.72H0A.86.86 0 0 0 0 0" style="fill:#0098da;fill-opacity:1;fill-rule:nonzero;stroke:none" transform="translate(14.357 19.09)"/><path d="M0 0a2.642 2.642 0 0 0-2.631-2.642h-16.401A2.644 2.644 0 0 0-21.673 0v17.423a2.643 2.643 0 0 0 2.641 2.641h16.401A2.64 2.64 0 0 0 0 17.423Zm-2.631 21.784h-16.401a4.367 4.367 0 0 1-4.361-4.361V0a4.367 4.367 0 0 1 4.361-4.361h16.401A4.359 4.359 0 0 1 1.72 0v17.423a4.358 4.358 0 0 1-4.351 4.361" style="fill:#0098da;fill-opacity:1;fill-rule:nonzero;stroke:none" transform="translate(48.262 4.673)"/><path d="m0 0-.607 1.831c.475.122.961.264 1.426.426A13.676 13.676 0 0 1 2.701.83C1.821.476.921.202 0 0m11.059 3.299c-.091.01-8.479 1.659-8.479 6.668a1.802 1.802 0 0 0 .526 1.416c.374.374.89.566 1.416.536a.294.294 0 0 1 .132 0 1.865 1.865 0 0 0 1.416-.536c.375-.374.568-.891.527-1.478 0-.687-.172-1.365-.486-1.972a.864.864 0 0 1 .365-1.154.858.858 0 0 1 1.163.365 5.9 5.9 0 0 1 .678 2.701 3.56 3.56 0 0 1-1.032 2.762 3.482 3.482 0 0 1-2.702 1.022 3.5 3.5 0 0 1-2.691-1.022c-.729-.728-1.103-1.74-1.033-2.702 0-5.251 6.426-7.436 8.925-8.084L9.167-.01c-.87.192-2.429.607-4.058 1.396-.1.041-.202.092-.293.152h-.02c-1.072.557-2.165 1.275-3.097 2.206l-.191.192C.132 5.383-.86 7.325-.86 9.905a5.445 5.445 0 0 0 5.443 5.445 5.456 5.456 0 0 0 5.454-5.454 8.442 8.442 0 0 0-.8-3.664.875.875 0 0 1 .415-1.153.872.872 0 0 1 1.144.415c.647 1.376.981 2.904.961 4.411 0 3.957-3.217 7.164-7.174 7.164-3.945 0-7.163-3.207-7.163-7.164 0-2.61.85-4.654 2.104-6.253a17.62 17.62 0 0 0-1.417-.364.868.868 0 0 1-.576-.414.887.887 0 0 1-.071-.698l1.153-3.441a.85.85 0 0 1 .81-.587c.051 0 .101 0 .152.01 1.75.324 3.44.861 5.038 1.619 2.612-1.234 4.958-1.608 5.009-1.619.041-.01.081-.01.132-.01.364 0 .687.233.809.587l1.154 3.441a.873.873 0 0 1-.081.708.872.872 0 0 1-.577.415" style="fill:#0098da;fill-opacity:1;fill-rule:nonzero;stroke:none" transform="translate(32.842 5.775)"/></g></svg>