<svg xmlns="http://www.w3.org/2000/svg" xml:space="preserve" width="66.667" height="66.667"><defs><clipPath clipPathUnits="userSpaceOnUse" id="a"><path d="M0 50h50V0H0Z"/></clipPath></defs><g clip-path="url(#a)" transform="matrix(1.33333 0 0 -1.33333 0 66.667)"><path d="M0 0h-28.353a3.847 3.847 0 0 0-3.842 3.842v3.803a.85.85 0 1 0 1.7 0V3.842c0-1.182.961-2.143 2.142-2.143H0c1.182 0 2.143.961 2.143 2.143v33.047A2.145 2.145 0 0 1 0 39.031h-3.202a.85.85 0 1 0 0 1.7H0a3.847 3.847 0 0 0 3.842-3.842V3.842A3.847 3.847 0 0 0 0 0" style="fill:#ffffff;fill-opacity:1;fill-rule:nonzero;stroke:none" transform="translate(45.397 2.89)"/><path d="M0 0a.918.918 0 0 0-.919.919v6.857a3.917 3.917 0 0 0 3.912 3.912h2.935a.92.92 0 0 0 0-1.838H2.993A2.076 2.076 0 0 1 .919 7.776V.919A.918.918 0 0 0 0 0" style="fill:#ffffff;fill-opacity:1;fill-rule:nonzero;stroke:none" transform="translate(14.052 32.002)"/><path d="m0 0 .127-.106A1.657 1.657 0 0 1 2.461.1l4.868 5.816-2.668 2.232-4.867-5.816A1.657 1.657 0 0 1 0 0m1.189-2.191c-.761 0-1.525.255-2.152.781l-.127.105v.001A3.335 3.335 0 0 0-2.28.973a3.336 3.336 0 0 0 .77 2.451l5.413 6.468c.3.358.836.407 1.197.106l3.971-3.323a.851.851 0 0 0 .107-1.198L3.765-.992a3.353 3.353 0 0 0-2.576-1.199" style="fill:#ffffff;fill-opacity:1;fill-rule:nonzero;stroke:none" transform="translate(3.054 7.693)"/><path d="M0 0c-2.666-3.186-2.243-7.946.942-10.612a7.513 7.513 0 0 1 5.501-1.727 7.484 7.484 0 0 1 5.111 2.67 7.482 7.482 0 0 1 1.727 5.5A7.487 7.487 0 0 1 10.612.942C7.428 3.606 2.667 3.185 0 0m5.761-14.069c-2.161 0-4.233.75-5.909 2.154-3.905 3.268-4.423 9.102-1.156 13.006 3.267 3.904 9.102 4.422 13.007 1.155a9.173 9.173 0 0 0 3.271-6.265 9.176 9.176 0 0 0-2.116-6.742 9.183 9.183 0 0 0-6.264-3.271 9.334 9.334 0 0 0-.833-.037" style="fill:#ffffff;fill-opacity:1;fill-rule:nonzero;stroke:none" transform="translate(9.42 26.472)"/><path d="M0 0c-.377 0-.757.12-1.077.369l-2.306 1.802a.85.85 0 1 0 1.047 1.34L-.031 1.71l3.644 4.572a.85.85 0 0 0 1.339-1.047L1.384.672A1.75 1.75 0 0 0 0 0" style="fill:#ffffff;fill-opacity:1;fill-rule:nonzero;stroke:none" transform="translate(14.546 17.898)"/><path d="M0 0h-28.353a3.847 3.847 0 0 0-3.842 3.842v3.803a.85.85 0 1 0 1.7 0V3.842c0-1.182.961-2.143 2.142-2.143H0c1.182 0 2.143.961 2.143 2.143v33.047A2.145 2.145 0 0 1 0 39.031h-4.174a.85.85 0 0 0 0 1.7H0a3.847 3.847 0 0 0 3.842-3.842V3.842A3.847 3.847 0 0 0 0 0" style="fill:#ffffff;fill-opacity:1;fill-rule:nonzero;stroke:none" transform="translate(45.397 2.89)"/><path d="M0 0a.918.918 0 0 0-.919.919v6.857a3.917 3.917 0 0 0 3.912 3.912H6.9a.92.92 0 0 0 0-1.838H2.993A2.076 2.076 0 0 1 .919 7.776V.919A.918.918 0 0 0 0 0" style="fill:#ffffff;fill-opacity:1;fill-rule:nonzero;stroke:none" transform="translate(14.052 32.002)"/><path d="m0 0 .127-.106A1.657 1.657 0 0 1 2.461.1l4.868 5.816-2.668 2.232-4.867-5.816A1.657 1.657 0 0 1 0 0m1.189-2.191c-.761 0-1.525.255-2.152.781l-.127.105v.001A3.335 3.335 0 0 0-2.28.973a3.336 3.336 0 0 0 .77 2.451l5.413 6.468c.3.358.836.407 1.197.106l3.971-3.323a.851.851 0 0 0 .107-1.198L3.765-.992a3.353 3.353 0 0 0-2.576-1.199" style="fill:#ffffff;fill-opacity:1;fill-rule:nonzero;stroke:none" transform="translate(3.054 7.693)"/><path d="M0 0c-2.666-3.186-2.243-7.946.942-10.612a7.513 7.513 0 0 1 5.501-1.727 7.484 7.484 0 0 1 5.111 2.67 7.482 7.482 0 0 1 1.727 5.5A7.487 7.487 0 0 1 10.612.942C7.428 3.606 2.667 3.185 0 0m5.761-14.069c-2.161 0-4.233.75-5.909 2.154-3.905 3.268-4.423 9.102-1.156 13.006 3.267 3.904 9.102 4.422 13.007 1.155a9.173 9.173 0 0 0 3.271-6.265 9.176 9.176 0 0 0-2.116-6.742 9.183 9.183 0 0 0-6.264-3.271 9.334 9.334 0 0 0-.833-.037" style="fill:#ffffff;fill-opacity:1;fill-rule:nonzero;stroke:none" transform="translate(9.42 26.472)"/><path d="M0 0c-.377 0-.757.12-1.077.369l-2.306 1.802a.85.85 0 1 0 1.047 1.34L-.031 1.71l3.644 4.572a.85.85 0 0 0 1.339-1.047L1.384.672A1.75 1.75 0 0 0 0 0" style="fill:#ffffff;fill-opacity:1;fill-rule:nonzero;stroke:none" transform="translate(14.546 17.898)"/><path d="M0 0a6.94 6.94 0 0 1-6.931-6.931A6.94 6.94 0 0 1 0-13.862c3.822 0 6.932 3.109 6.932 6.931S3.822 0 0 0m0-15.562c-4.759 0-8.631 3.872-8.631 8.631S-4.759 1.7 0 1.7c4.76 0 8.631-3.872 8.631-8.631S4.76-15.562 0-15.562" style="fill:#ffffff;fill-opacity:1;fill-rule:nonzero;stroke:none" transform="translate(31.22 48.157)"/><path d="M0 0h-15.518a.85.85 0 1 0 0 1.699H0A.85.85 0 1 0 0 0" style="fill:#ffffff;fill-opacity:1;fill-rule:nonzero;stroke:none" transform="translate(42.451 18.828)"/><path d="M0 0h-10.992a.85.85 0 1 0 0 1.699H0A.85.85 0 1 0 0 0" style="fill:#ffffff;fill-opacity:1;fill-rule:nonzero;stroke:none" transform="translate(42.451 12.378)"/><path d="M0 0h-1.49a.85.85 0 1 0 0 1.699H0A.85.85 0 1 0 0 0" style="fill:#ffffff;fill-opacity:1;fill-rule:nonzero;stroke:none" transform="translate(28.424 12.378)"/><path d="M0 0h-2.872a.85.85 0 1 0 0 1.7H0A.85.85 0 1 0 0 0" style="fill:#ffffff;fill-opacity:1;fill-rule:nonzero;stroke:none" transform="translate(42.451 25.278)"/><path d="M0 0h-9.61a.85.85 0 1 0 0 1.7H0A.85.85 0 1 0 0 0" style="fill:#ffffff;fill-opacity:1;fill-rule:nonzero;stroke:none" transform="translate(36.544 25.278)"/><path d="M0 0c-.908 0-1.798.438-2.368 1.187a.851.851 0 0 0 1.353 1.03A1.303 1.303 0 0 1 .08 1.701c.683.001 1.188.352 1.188.654 0 .301-.503.651-1.151.651-1.599 0-2.852 1.034-2.852 2.354 0 1.319 1.253 2.353 2.852 2.353a3.037 3.037 0 0 0 2.482-1.186.85.85 0 1 0-1.354-1.029c-.259.34-.662.525-1.094.516-.683-.001-1.187-.352-1.187-.654 0-.302.504-.653 1.153-.653 1.598 0 2.85-1.034 2.85-2.352C2.967 1.036 1.714.002.113.002.075 0 .038 0 0 0" style="fill:#ffffff;fill-opacity:1;fill-rule:nonzero;stroke:none" transform="translate(31.344 37.646)"/><path d="M0 0a.85.85 0 0 0-.85.85v1.002a.85.85 0 1 0 1.7 0V.85A.85.85 0 0 0 0 0" style="fill:#ffffff;fill-opacity:1;fill-rule:nonzero;stroke:none" transform="translate(31.461 36.646)"/><path d="M0 0a.85.85 0 0 0-.85.85v1.002a.85.85 0 1 0 1.7 0V.85A.85.85 0 0 0 0 0" style="fill:#ffffff;fill-opacity:1;fill-rule:nonzero;stroke:none" transform="translate(31.461 43.658)"/></g></svg>