<svg xmlns="http://www.w3.org/2000/svg" xml:space="preserve" width="66.667" height="66.667"><defs><clipPath clipPathUnits="userSpaceOnUse" id="a"><path d="M0 50h50V0H0Z"/></clipPath></defs><g clip-path="url(#a)" transform="matrix(1.33333 0 0 -1.33333 0 66.667)"><path d="M0 0h-28.612a3.873 3.873 0 0 0-3.87 3.869v3.839a.85.85 0 1 0 1.7 0V3.869c0-1.196.973-2.17 2.17-2.17H0c1.197 0 2.171.974 2.171 2.17V37.22A2.173 2.173 0 0 1 0 39.389h-3.23a.85.85 0 1 0 0 1.7H0a3.873 3.873 0 0 0 3.87-3.869V3.869A3.873 3.873 0 0 0 0 0" style="fill:#0098da;fill-opacity:1;fill-rule:nonzero;stroke:none" transform="translate(45.583 1.308)"/><path d="M0 0a.918.918 0 0 0-.919.919v6.92a3.943 3.943 0 0 0 3.939 3.939h2.962a.918.918 0 1 0 0-1.838H3.02A2.103 2.103 0 0 1 .919 7.839V.919A.918.918 0 0 0 0 0" style="fill:#0098da;fill-opacity:1;fill-rule:nonzero;stroke:none" transform="translate(13.95 30.689)"/><path d="m0 0 .127-.106c.346-.29.785-.424 1.228-.387.447.04.851.251 1.139.596l4.918 5.875L4.708 8.24-.21 2.364a1.663 1.663 0 0 1-.385-1.225C-.555.692-.344.287 0 0m1.204-2.198c-.766 0-1.535.258-2.166.786l-.127.106-.002.001A3.36 3.36 0 0 0-2.288.988c-.08.9.195 1.776.774 2.468l5.463 6.527a.85.85 0 0 0 1.197.107l4.008-3.354a.851.851 0 0 0 .107-1.198L3.798-.989a3.377 3.377 0 0 0-2.594-1.209" style="fill:#0098da;fill-opacity:1;fill-rule:nonzero;stroke:none" transform="translate(2.848 6.142)"/><path d="M0 0h.01Zm6.501 2.182c-.227 0-.456-.011-.686-.031A7.558 7.558 0 0 1 .652-.546c-2.693-3.217-2.266-8.026.952-10.72a7.567 7.567 0 0 1 5.557-1.744 7.558 7.558 0 0 1 5.163 2.697c2.693 3.217 2.266 8.027-.952 10.72a7.55 7.55 0 0 1-4.871 1.775M6.472-14.74a9.235 9.235 0 0 0-5.959 2.172C-3.424-9.274-3.946-3.391-.652.546a9.249 9.249 0 0 0 6.317 3.298 9.245 9.245 0 0 0 6.798-2.134c3.936-3.294 4.459-9.178 1.165-13.115a9.257 9.257 0 0 0-6.317-3.298 9.828 9.828 0 0 0-.839-.037" style="fill:#0098da;fill-opacity:1;fill-rule:nonzero;stroke:none" transform="translate(8.62 25.65)"/><path d="M0 0c-.379 0-.76.121-1.082.371l-2.327 1.818a.851.851 0 0 0 1.047 1.34l2.326-1.817 3.689 4.615A.85.85 0 0 0 4.992 5.28L1.391.676A1.761 1.761 0 0 0 0 0" style="fill:#0098da;fill-opacity:1;fill-rule:nonzero;stroke:none" transform="translate(14.45 16.455)"/><path d="M0 0h-28.612a3.873 3.873 0 0 0-3.87 3.869v3.839a.85.85 0 1 0 1.7 0V3.869c0-1.196.973-2.17 2.17-2.17H0c1.197 0 2.171.974 2.171 2.17V37.22A2.173 2.173 0 0 1 0 39.389h-4.212a.85.85 0 1 0 0 1.7H0a3.873 3.873 0 0 0 3.87-3.869V3.869A3.873 3.873 0 0 0 0 0" style="fill:#0098da;fill-opacity:1;fill-rule:nonzero;stroke:none" transform="translate(45.583 1.308)"/><path d="M0 0a.918.918 0 0 0-.919.919v6.92a3.943 3.943 0 0 0 3.939 3.939h3.944a.918.918 0 1 0 0-1.838H3.02A2.103 2.103 0 0 1 .919 7.839V.919A.918.918 0 0 0 0 0" style="fill:#0098da;fill-opacity:1;fill-rule:nonzero;stroke:none" transform="translate(13.95 30.689)"/><path d="m0 0 .127-.106c.346-.29.785-.424 1.228-.387.447.04.851.251 1.139.596l4.918 5.875L4.708 8.24-.21 2.364a1.663 1.663 0 0 1-.385-1.225C-.555.692-.344.287 0 0m1.204-2.198c-.766 0-1.535.258-2.166.786l-.127.106-.002.001A3.36 3.36 0 0 0-2.288.988c-.08.9.195 1.776.774 2.468l5.463 6.527a.85.85 0 0 0 1.197.107l4.008-3.354a.851.851 0 0 0 .107-1.198L3.798-.989a3.377 3.377 0 0 0-2.594-1.209" style="fill:#0098da;fill-opacity:1;fill-rule:nonzero;stroke:none" transform="translate(2.848 6.142)"/><path d="M0 0h.01Zm6.501 2.182c-.227 0-.456-.011-.686-.031A7.558 7.558 0 0 1 .652-.546c-2.693-3.217-2.266-8.026.952-10.72a7.567 7.567 0 0 1 5.557-1.744 7.558 7.558 0 0 1 5.163 2.697c2.693 3.217 2.266 8.027-.952 10.72a7.55 7.55 0 0 1-4.871 1.775M6.472-14.74a9.235 9.235 0 0 0-5.959 2.172C-3.424-9.274-3.946-3.391-.652.546a9.249 9.249 0 0 0 6.317 3.298 9.245 9.245 0 0 0 6.798-2.134c3.936-3.294 4.459-9.178 1.165-13.115a9.257 9.257 0 0 0-6.317-3.298 9.828 9.828 0 0 0-.839-.037" style="fill:#0098da;fill-opacity:1;fill-rule:nonzero;stroke:none" transform="translate(8.62 25.65)"/><path d="M0 0c-.379 0-.76.121-1.082.371l-2.327 1.818a.851.851 0 0 0 1.047 1.34l2.326-1.817 3.689 4.615A.85.85 0 0 0 4.992 5.28L1.391.676A1.761 1.761 0 0 0 0 0" style="fill:#0098da;fill-opacity:1;fill-rule:nonzero;stroke:none" transform="translate(14.45 16.455)"/><path d="M0 0a.85.85 0 0 0-.85.85v9.179a.85.85 0 1 0 1.7 0V.85A.85.85 0 0 0 0 0" style="fill:#0098da;fill-opacity:1;fill-rule:nonzero;stroke:none" transform="translate(31.349 34.777)"/><path d="M0 0h-1.655a.85.85 0 1 0 0 1.7H0A.85.85 0 1 0 0 0" style="fill:#0098da;fill-opacity:1;fill-rule:nonzero;stroke:none" transform="translate(32.177 34.306)"/><path d="M0 0a.849.849 0 0 0-.005 1.7l6.742.038c.503-.026.853-.376.855-.845a.85.85 0 0 0-.845-.855L.005 0Z" style="fill:#0098da;fill-opacity:1;fill-rule:nonzero;stroke:none" transform="translate(27.978 41.741)"/><path d="M0 0c-.388-.492-.587-.865-.603-1.002a.602.602 0 0 1 1.205.004C.582-.858.383-.488 0 0m0-3.292A2.304 2.304 0 0 0-2.302-.991c0 .894.878 2.012 1.613 2.792.162.171.456.298.691.298h.004a.948.948 0 0 0 .689-.307c.729-.772 1.606-1.89 1.606-2.783A2.304 2.304 0 0 0 0-3.292" style="fill:#0098da;fill-opacity:1;fill-rule:nonzero;stroke:none" transform="translate(27.796 41.321)"/><path d="M0 0c-.387-.492-.586-.866-.602-1.002a.604.604 0 0 1 1.205.004C.584-.859.384-.488 0 0m.001-3.292A2.304 2.304 0 0 0-2.301-.991c0 .716.542 1.655 1.613 2.792.161.171.455.298.689.298a.95.95 0 0 0 .685-.294C1.76.664 2.302-.275 2.302-.991A2.303 2.303 0 0 0 .001-3.292" style="fill:#0098da;fill-opacity:1;fill-rule:nonzero;stroke:none" transform="translate(34.758 41.33)"/><path d="M0 0a7.01 7.01 0 0 1-7.002-7.002A7.01 7.01 0 0 1 0-14.005a7.01 7.01 0 0 1 7.003 7.003C7.003-3.141 3.861 0 0 0m0-15.705c-4.799 0-8.703 3.904-8.703 8.703C-8.703-2.204-4.799 1.7 0 1.7c4.799 0 8.702-3.904 8.702-8.702 0-4.799-3.903-8.703-8.702-8.703" style="fill:#0098da;fill-opacity:1;fill-rule:nonzero;stroke:none" transform="translate(31.277 46.992)"/><path d="M0 0h-15.66a.85.85 0 1 0 0 1.699H0A.85.85 0 1 0 0 0" style="fill:#0098da;fill-opacity:1;fill-rule:nonzero;stroke:none" transform="translate(42.611 17.393)"/><path d="M0 0h-11.093a.848.848 0 1 0 0 1.699H0A.85.85 0 1 0 0 0" style="fill:#0098da;fill-opacity:1;fill-rule:nonzero;stroke:none" transform="translate(42.611 10.884)"/><path d="M0 0h-1.504a.85.85 0 1 0 0 1.699H0A.85.85 0 1 0 0 0" style="fill:#0098da;fill-opacity:1;fill-rule:nonzero;stroke:none" transform="translate(28.455 10.884)"/><path d="M0 0h-2.898a.85.85 0 1 0 0 1.699H0A.85.85 0 1 0 0 0" style="fill:#0098da;fill-opacity:1;fill-rule:nonzero;stroke:none" transform="translate(42.611 23.902)"/><path d="M0 0h-9.698a.85.85 0 1 0 0 1.699H0A.85.85 0 1 0 0 0" style="fill:#0098da;fill-opacity:1;fill-rule:nonzero;stroke:none" transform="translate(36.65 23.902)"/></g></svg>