<?xml version="1.0" encoding="utf-8"?>
<!-- Generator: Adobe Illustrator 22.0.1, SVG Export Plug-In . SVG Version: 6.00 Build 0)  -->
<svg version="1.1" id="Слой_1" xmlns="http://www.w3.org/2000/svg" xmlns:xlink="http://www.w3.org/1999/xlink" x="0px" y="0px"
	 viewBox="0 0 30 30" style="enable-background:new 0 0 30 30;" xml:space="preserve">
<style type="text/css">
	.st0{fill:#ffffff;}
</style>
<title>Detect similar sentences</title>
<g>
	<g>
		<g>
			<path class="st0" d="M28.1,18.4c0-1.1-0.9-1.9-1.9-1.9h-3.4c-0.5,0-1-0.4-1-1h-1c0,1.1,0.9,1.9,1.9,1.9h3.4c0.5,0,1,0.4,1,1h-7.7
				V4.6c0-0.4-0.3-0.8-0.8-0.8h-4.1H14h-1l0-0.4c0-1.6-1.1-3.1-2.7-3.4C8.2-0.4,6.3,1.3,6.3,3.4v0.5h-1H4.8H0.5C0.2,3.9,0,4.1,0,4.3
				v25.2C0,29.8,0.2,30,0.5,30h18.1c0.4,0,0.8-0.3,0.8-0.8v-7l8.6,0c1,0,1.9-0.7,2-1.6C30.2,19.4,29.2,18.4,28.1,18.4z M14.5,4.8
				h3.1c0.4,0,0.8,0.3,0.8,0.8v12.8h-1v-12c0-0.3-0.3-0.6-0.6-0.6h-2.3V4.8z M7.3,3.4C7.3,2.1,8.3,1,9.7,1s2.4,1.1,2.4,2.4v0.5H7.3
				V3.4z M11.6,8.7v-1H5.8V4.8h7.7v2.9h-1v1h1.9V6.8h1.4c0.3,0,0.6,0.3,0.6,0.6v11h-2.1l-3.2,1.9l3.2,1.9h2.1v4.2
				c0,0.3-0.3,0.6-0.6,0.6H3.6c-0.4,0-0.7-0.3-0.7-0.7V7.2c0-0.2,0.2-0.4,0.4-0.4h1.5v1.9H11.6z M17.6,29H1.4C1.2,29,1,28.8,1,28.6
				V5.3c0-0.3,0.2-0.5,0.5-0.5h3.4v1H2.4C2.1,5.8,1.9,6,1.9,6.2v21.2c0,0.4,0.3,0.7,0.7,0.7h14.2c0.3,0,0.6-0.3,0.6-0.6v-5.2h1v6
				C18.4,28.7,18,29,17.6,29z M23.7,21.3h-9.1l-1.6-1l1.6-1h9.1V21.3z M25.6,21.3h-1v-1.9h1V21.3z M28.1,21.3h-1.5v-1.9h1.5
				c0.5,0,1,0.4,1,1S28.6,21.3,28.1,21.3z"/>
		</g>
	</g>
	<g>
		<g>
			<path class="st0" d="M3.9,10.6v6.8h11.6v-6.8H3.9z M14.5,16.5H4.8v-2.9h0.7l1.2,1.8l1-1.5l1.5,1.9l1.2-1.8h4.1V16.5z M14.5,13.1
				H9.9l-0.7,1.1l-1.5-1.9l-0.9,1.4l-0.7-1.1H4.8v-1h9.7V13.1z"/>
		</g>
	</g>
	<g>
		<g>
			<rect x="4.8" y="18.4" class="st0" width="5.8" height="1"/>
		</g>
	</g>
	<g>
		<g>
			<rect x="4.8" y="22.3" class="st0" width="5.8" height="1"/>
		</g>
	</g>
	<g>
		<g>
			<rect x="4.8" y="20.3" class="st0" width="2.4" height="1"/>
		</g>
	</g>
	<g>
		<g>
			<rect x="8.2" y="20.3" class="st0" width="2.4" height="1"/>
		</g>
	</g>
	<g>
		<g>
			<rect x="4.8" y="24.2" class="st0" width="1" height="1"/>
		</g>
	</g>
	<g>
		<g>
			<rect x="7.3" y="24.2" class="st0" width="1" height="1"/>
		</g>
	</g>
	<g>
		<g>
			<rect x="9.7" y="24.2" class="st0" width="1" height="1"/>
		</g>
	</g>
</g>
</svg>
