<svg xmlns="http://www.w3.org/2000/svg" xml:space="preserve" width="66.667" height="66.667"><defs><clipPath clipPathUnits="userSpaceOnUse" id="a"><path d="M0 50h50V0H0Z"/></clipPath></defs><g clip-path="url(#a)" transform="matrix(1.33333 0 0 -1.33333 0 66.667)"><path d="M0 0a2.043 2.043 0 0 1-2.042-2.041v-14.758c0-1.126.916-2.041 2.042-2.041h13.393c1.126 0 2.041.915 2.041 2.041v14.758A2.043 2.043 0 0 1 13.393 0Zm13.393-20.533H0a3.739 3.739 0 0 0-3.735 3.734v14.758A3.738 3.738 0 0 0 0 1.693h13.393a3.739 3.739 0 0 0 3.734-3.734v-14.758a3.74 3.74 0 0 0-3.734-3.734" style="fill:#0098da;fill-opacity:1;fill-rule:nonzero;stroke:none" transform="translate(32.38 26.874)"/><path d="M0 0h-29.34a3.742 3.742 0 0 0-3.738 3.737V33.89a.85.85 0 0 0 1.7 0V3.737a2.04 2.04 0 0 1 2.038-2.038H0a2.04 2.04 0 0 1 2.038 2.038v1.888a.85.85 0 1 0 1.699 0V3.737A3.741 3.741 0 0 0 0 0" style="fill:#0098da;fill-opacity:1;fill-rule:nonzero;stroke:none" transform="translate(40.447 .58)"/><path d="M0 0a.85.85 0 0 0-.85.85v4.702a3.81 3.81 0 0 1-1.123 2.712l-7.792 7.792a3.798 3.798 0 0 1-2.706 1.121h-7.566a.85.85 0 0 0 0 1.701h7.567a5.49 5.49 0 0 0 3.907-1.62l7.792-7.792A5.5 5.5 0 0 0 .85 5.552V.85A.85.85 0 0 0 0 0" style="fill:#0098da;fill-opacity:1;fill-rule:nonzero;stroke:none" transform="translate(43.335 26.9)"/><path d="M0 0h-6.96a5.538 5.538 0 0 0-5.531 5.532v6.959a.85.85 0 1 0 1.699 0V5.532A3.837 3.837 0 0 1-6.96 1.7H0A.85.85 0 1 0 0 0" style="fill:#0098da;fill-opacity:1;fill-rule:nonzero;stroke:none" transform="translate(43.272 32.372)"/><path d="M0 0a2.04 2.04 0 0 1-2.038-2.038v-8.118A2.04 2.04 0 0 1 0-12.194h8.623c.728 0 1.443-.197 2.068-.57l4.892-2.925v13.651A2.04 2.04 0 0 1 13.545 0Zm15.846-17.593c-.307 0-.612.101-.859.285l-5.168 3.084a2.33 2.33 0 0 1-1.196.33H0a3.742 3.742 0 0 0-3.738 3.738v8.118A3.742 3.742 0 0 0 0 1.7h13.545a3.743 3.743 0 0 0 3.739-3.738v-14.117c0-.549-.305-1.042-.796-1.286a1.446 1.446 0 0 0-.642-.152" style="fill:#0098da;fill-opacity:1;fill-rule:nonzero;stroke:none" transform="translate(6.455 47.558)"/><path d="M0 0h-11.373a.85.85 0 1 0 0 1.699H0A.85.85 0 1 0 0 0" style="fill:#0098da;fill-opacity:1;fill-rule:nonzero;stroke:none" transform="translate(24.233 13.763)"/><path d="M0 0h-5.333a.85.85 0 1 0 0 1.699H0A.85.85 0 1 0 0 0" style="fill:#0098da;fill-opacity:1;fill-rule:nonzero;stroke:none" transform="translate(24.233 8.207)"/><path d="M0 0h-3.176a.85.85 0 1 0 0 1.699H0A.85.85 0 1 0 0 0" style="fill:#0098da;fill-opacity:1;fill-rule:nonzero;stroke:none" transform="translate(16.036 8.207)"/><path d="M0 0h-5.333a.85.85 0 1 0 0 1.699H0A.85.85 0 1 0 0 0" style="fill:#0098da;fill-opacity:1;fill-rule:nonzero;stroke:none" transform="translate(18.193 19.32)"/><path d="M0 0h-3.176a.85.85 0 1 0 0 1.699H0A.85.85 0 1 0 0 0" style="fill:#0098da;fill-opacity:1;fill-rule:nonzero;stroke:none" transform="translate(24.233 19.32)"/><path d="M0 0h-11.373a.85.85 0 1 0 0 1.699H0A.85.85 0 1 0 0 0" style="fill:#0098da;fill-opacity:1;fill-rule:nonzero;stroke:none" transform="translate(24.064 24.876)"/><path d="M0 0h-.061C-4.84-.037-6.669-4.297-6.745-4.478l-.26-.625.328-.592c.103-.186 2.571-4.559 6.628-4.559h.008l.056.001c4.051.046 6.668 4.437 6.777 4.624l.378.646-.327.673C6.758-4.134 4.696 0 0 0m0-1.4c3.874 0 5.584-3.522 5.584-3.522S3.305-8.816-.001-8.854h-.048c-3.278 0-5.404 3.837-5.404 3.837S-3.958-1.43-.049-1.4H0" style="fill:#0098da;fill-opacity:1;fill-rule:nonzero;stroke:none" transform="translate(12.794 46.736)"/><path d="M0 0a4.07 4.07 0 0 1-4.066-4.066A4.07 4.07 0 0 1 0-8.133a4.07 4.07 0 0 1 4.066 4.067A4.07 4.07 0 0 1 0 0m0-1.4a2.666 2.666 0 1 0 0-5.332A2.666 2.666 0 0 0 0-1.4" style="fill:#0098da;fill-opacity:1;fill-rule:nonzero;stroke:none" transform="translate(12.86 45.676)"/><path d="M0 0a1.316 1.316 0 1 0-2.632 0A1.316 1.316 0 0 0 0 0" style="fill:#0098da;fill-opacity:1;fill-rule:nonzero;stroke:none" transform="translate(14.176 41.61)"/><path d="M0 0c.13.367.545.616.883.616.532 0 .935-.341.935-.84 0-.065-.013-.222-.039-.288L-.753-7.979c-.182-.525-.441-.892-1.065-.892-.623 0-.883.381-1.052.892L-5.402-.512a1.102 1.102 0 0 0-.038.288c0 .499.427.84.934.84.312 0 .728-.235.858-.616l1.596-5.065c.117-.381.182-.879.234-1.287.052.408.117.906.234 1.287z" style="fill:#0098da;fill-opacity:1;fill-rule:nonzero;stroke:none" transform="translate(37.384 21.186)"/><path d="M0 0c-.273.118-.598.236-.948.355-1.273.393-2.65.826-2.65 2.729 0 1.692 1.169 2.716 3.013 2.716.767 0 2.61-.196 2.61-1.181 0-.433-.338-.827-.909-.827-.233 0-.415.079-.635.144-.248.092-.533.198-.988.198-.635 0-1.233-.224-1.233-.997 0-.578.324-.775.545-.88a5 5 0 0 1 .935-.355c1.273-.406 2.662-.852 2.662-2.716 0-1.824-1.377-2.874-3.233-2.874-.961 0-2.779.341-2.779 1.26 0 .42.377.827.857.827.194 0 .402-.066.65-.158.311-.104.726-.262 1.285-.262.896 0 1.35.407 1.35 1.128C.532-.302.233-.105 0 0" style="fill:#0098da;fill-opacity:1;fill-rule:nonzero;stroke:none" transform="translate(43.37 16.003)"/></g></svg>