<svg xmlns="http://www.w3.org/2000/svg" xml:space="preserve" width="69.33" height="76.61"><defs><clipPath clipPathUnits="userSpaceOnUse" id="a"><path d="M0 57.45h52V0H0Z"/></clipPath></defs><g clip-path="url(#a)" transform="matrix(1.33333 0 0 -1.33333 0 76.6)"><path d="M49.15 5.5a2.52 2.52 0 0 0-2.52-2.53H38.2a2.53 2.53 0 0 0-2.52 2.52v8.43a2.53 2.53 0 0 0 2.52 2.52h8.43a2.53 2.53 0 0 0 2.52-2.52Zm-2.52 12.64H38.2a4.23 4.23 0 0 1-4.22-4.22V5.49c0-2.33 1.9-4.22 4.22-4.22h8.43c2.33 0 4.22 1.9 4.22 4.22v8.43c0 2.33-1.9 4.22-4.22 4.22" fill="#0098da"/><path d="m45.4 13.37-2.99-2.84-2.98 2.84a.85.85 0 0 1-1.17-1.23l2.92-2.78-2.59-2.45a.85.85 0 0 1 1.17-1.23l2.65 2.51 2.66-2.51a.85.85 0 0 1 1.2.03c.32.34.3.88-.03 1.2l-2.59 2.45 2.92 2.78a.85.85 0 0 1-1.17 1.23M14.32 50.77a.85.85 0 0 1-1.2 0l-4.98-4.94-2.1 2.07a.85.85 0 0 1-1.2-1.2l2.1-2.08a1.76 1.76 0 0 1 2.5.01l4.89 4.94c.33.33.33.87 0 1.2" fill="#0098da"/><path d="M2.85 43.53v8.43a2.52 2.52 0 0 0 2.52 2.52h8.43a2.52 2.52 0 0 0 2.52-2.52v-8.43a2.52 2.52 0 0 0-2.52-2.52H5.37a2.52 2.52 0 0 0-2.52 2.52m15.17 0v8.43c0 2.33-1.9 4.22-4.22 4.22H5.37a4.23 4.23 0 0 1-4.22-4.22v-8.43c0-2.32 1.9-4.22 4.22-4.22h8.43c2.33 0 4.22 1.9 4.22 4.22M30.94 8.89h-19.2a3.42 3.42 0 0 0-3.41 3.4v1.57l-.01.05v21.41a.85.85 0 0 1-1.7 0V13.96l.02-.05-.01-.05V12.3c0-2.82 2.3-5.11 5.1-5.11h19.2a.85.85 0 1 1 0 1.7M42.07 40.8l.17-.21h-5.68c-1.1 0-2 .87-2 1.99l-.27 6Zm-21.18 8.87h11.49l.16-.02.33-7.11a3.68 3.68 0 0 1 3.69-3.65h6.09V20.95a.85.85 0 1 1 1.7 0V39.4l-.02.23.02.12c0 .11-.03.22-.07.32-.13.73-.47 1.4-1.01 1.94l-8.28 8.29c-.7.7-1.63 1.08-2.61 1.08H20.89a.85.85 0 1 1 0-1.7" fill="#0098da"/><path d="M34.65 25.65c.47 0 .85.38.85.85 0 2.64-4.55 4.1-9.3 4.25v5.12c4.1-.18 6.67-1.57 6.67-2.55a.85.85 0 1 1 1.7 0c0 2.6-4.17 4.07-8.37 4.25V39a.85.85 0 1 1-1.7 0v-1.44c-4.2-.18-8.37-1.65-8.37-4.25a.85.85 0 0 1 1.7 0c0 .98 2.57 2.37 6.67 2.55v-5.12c-4.75-.16-9.3-1.6-9.3-4.25a.85.85 0 1 1 1.7 0c0 .96 3 2.39 7.6 2.55v-5.13c-3.28-.15-6.5-1.13-6.5-3.1a.85.85 0 0 1 1.69-.01c.09.4 1.81 1.26 4.81 1.4v-3.67a.85.85 0 1 1 1.7 0v3.67c3-.14 4.72-1 4.8-1.4a.85.85 0 1 1 1.7 0c0 1.98-3.22 2.96-6.5 3.1v5.14c4.6-.16 7.6-1.59 7.6-2.55 0-.47.38-.85.85-.85" fill="#0098da"/></g></svg>