<svg xmlns="http://www.w3.org/2000/svg" xml:space="preserve" width="66.667" height="66.667"><defs><clipPath clipPathUnits="userSpaceOnUse" id="a"><path d="M0 50h50V0H0Z"/></clipPath></defs><g clip-path="url(#a)" transform="matrix(1.33333 0 0 -1.33333 0 66.667)"><path d="M0 0c-1.219 0-2.21 1.009-2.21 2.248v8.036a8.944 8.944 0 0 1 4.244-1.072c2.213 0 4.244.807 5.825 2.145V0Zm11.156 18.487c0 .664-.073 1.311-.204 1.936a8.952 8.952 0 0 1 1.84-.214c5.03 0 9.122 4.162 9.122 9.276a9.325 9.325 0 0 1-1.604 5.241h7.529v-6.122c0-2.991 2.394-5.424 5.335-5.424h6.02V5.668H9.443v7.43a9.32 9.32 0 0 1 1.713 5.389m-5.39 8.454a7.678 7.678 0 0 0-.438 2.544c0 4.184 3.348 7.589 7.464 7.589 4.116 0 7.464-3.405 7.464-7.589 0-4.186-3.348-7.59-7.464-7.59a7.38 7.38 0 0 0-2.22.34c-.071.023-.141.02-.212.023a9.25 9.25 0 0 1-4.594 4.683m-7.976-.242v10.468c0 1.24.991 2.249 2.21 2.249h21.467c.878 0 1.592-.727 1.592-1.62l.001-1.46h-4.143c-1.62 1.5-3.766 2.424-6.125 2.424-5.029 0-9.122-4.161-9.122-9.275 0-.649.071-1.287.2-1.912a8.962 8.962 0 0 1-1.836.189 8.954 8.954 0 0 1-4.244-1.063m40.306-.775c.325-.332.575-.718.76-1.133h-5.682c-2.068 0-3.751 1.71-3.751 3.813v5.774a3.735 3.735 0 0 0 1.115-.768zM36.55-1.216a9.19 9.19 0 0 1-.71.268c-.954.297-1.984.624-1.984 2.06 0 1.279.876 2.051 2.257 2.051.574 0 1.955-.148 1.955-.892 0-.326-.253-.625-.682-.625-.175 0-.31.061-.475.111-.185.069-.4.148-.74.148-.477 0-.924-.168-.924-.753 0-.436.243-.585.408-.664.253-.129.486-.208.701-.267.954-.308 1.994-.645 1.994-2.051 0-1.377-1.031-2.17-2.422-2.17-.72 0-2.082.258-2.082.951 0 .318.281.624.642.624.146 0 .302-.049.486-.119.234-.079.545-.197.964-.197.671 0 1.012.306 1.012.851 0 .446-.224.595-.4.674m-7.809 3.031c-.388 0-.681.288-.681.624 0 .279.302.635.681.635h3.426c.349 0 .69-.277.69-.635 0-.336-.321-.624-.69-.624h-1.033v-5.18c0-.337-.31-.635-.68-.635-.38 0-.681.298-.681.635v5.18zm-6.593.387a.827.827 0 0 0-.078.337c0 .317.302.624.652.624.302 0 .535-.218.672-.455l1.1-1.844 1.099 1.844c.125.188.34.455.681.455a.65.65 0 0 0 .642-.635.885.885 0 0 0-.088-.326L25.291-.284l1.683-2.735a.754.754 0 0 0 .098-.337c0-.328-.322-.644-.653-.644-.339 0-.515.208-.632.396l-1.293 2.18-1.294-2.18v.011c-.109-.179-.283-.407-.623-.407-.351 0-.661.316-.661.644 0 .109.047.257.096.337l1.684 2.735zM19.846.221c.341 0 .671-.268.671-.624 0-.357-.291-.634-.671-.634h-1.838v-1.615h2.12c.36 0 .682-.278.682-.615 0-.356-.311-.644-.682-.644H17.55c-.476 0-.904.169-.904.704v5.578c0 .347.321.703.749.703h2.636c.369 0 .68-.298.68-.644 0-.356-.311-.615-.68-.615h-2.023V.221Zm-8.607 1.594c-.388 0-.68.288-.68.624 0 .279.301.635.68.635h3.425c.35 0 .69-.277.69-.635 0-.336-.32-.624-.69-.624h-1.031v-5.18c0-.337-.312-.635-.681-.635-.38 0-.681.298-.681.635v5.18zm29.469 22.133c.001.013.008.024.008.038 0 .038-.016.071-.021.107a5.402 5.402 0 0 1-1.48 2.969l-7.557 7.688a5.335 5.335 0 0 1-2.902 1.498c-.042.007-.08.025-.125.025-.014 0-.026-.007-.042-.008-.232.032-.464.071-.7.071h-3.245v1.46c0 1.781-1.426 3.23-3.177 3.23H0c-2.093 0-3.795-1.731-3.795-3.859V25.815c0-.059.021-.111.033-.166a9.282 9.282 0 0 1-.654-.603.852.852 0 0 1 0-1.192.818.818 0 0 1 1.172 0 7.358 7.358 0 0 0 5.278 2.223c4.116 0 7.464-3.405 7.464-7.59 0-4.185-3.348-7.591-7.464-7.591-4.116 0-7.464 3.406-7.464 7.591 0 .148.004.295.012.44a.837.837 0 0 1-.78.889.84.84 0 0 1-.875-.793 9.32 9.32 0 0 1 3.278-7.663V2.248C-3.795.12-2.093-1.61 0-1.61h7.859v-1.923c0-2.016 1.612-3.654 3.594-3.654h25.732c1.981 0 3.593 1.638 3.593 3.654v26.759c0 .246-.038.483-.07.722" style="fill:#ffffff;fill-opacity:1;fill-rule:nonzero;stroke:none" transform="translate(7.702 7.792)"/><path d="M0 0a.818.818 0 0 1 1.162-.157.852.852 0 0 1 .154 1.181A2.848 2.848 0 0 1-.913 2.066c-1.189 0-1.904-.949-1.982-1.058a.85.85 0 0 1 .181-1.176.811.811 0 0 1 .488-.163c.256 0 .508.121.67.346.003.004.29.365.643.365C-.32.38-.003.003 0 0" style="fill:#ffffff;fill-opacity:1;fill-rule:nonzero;stroke:none" transform="translate(18.431 38.936)"/><path d="M0 0c.003.003.294.374.65.374.593 0 .91-.378.913-.381a.82.82 0 0 1 1.161-.157.85.85 0 0 1 .154 1.181c-.08.107-.824 1.042-2.228 1.042-1.19 0-1.905-.949-1.983-1.058a.847.847 0 0 1 .176-1.165A.825.825 0 0 1 0 0" style="fill:#ffffff;fill-opacity:1;fill-rule:nonzero;stroke:none" transform="translate(22.562 38.943)"/><path d="M0 0c2.06 0 3.148 1.464 3.193 1.527.27.371.193.89-.169 1.169a.823.823 0 0 1-1.158-.16A2.425 2.425 0 0 0 0 1.685c-.83 0-1.428.817-1.439.833a.818.818 0 0 1-1.151.199.852.852 0 0 1-.201-1.174C-2.747 1.479-1.702 0 0 0" style="fill:#ffffff;fill-opacity:1;fill-rule:nonzero;stroke:none" transform="translate(20.287 32.764)"/><path d="M0 0a.836.836 0 0 1-1.003-.604c-.006-.02-.14-.498-.679-.748-.317-.145-.724.056-.743.066a.82.82 0 0 1-1.119-.327.85.85 0 0 1 .315-1.147 2.768 2.768 0 0 1 1.286-.332c.297 0 .621.055.95.207A2.9 2.9 0 0 1 .608-.996.835.835 0 0 1 0 0" style="fill:#ffffff;fill-opacity:1;fill-rule:nonzero;stroke:none" transform="translate(7.798 29.352)"/><path d="M0 0c.33-.153.654-.208.95-.208a2.76 2.76 0 0 1 1.286.333.848.848 0 0 1 .316 1.146.82.82 0 0 1-1.128.322c-.004-.002-.416-.21-.735-.06-.539.25-.673.727-.675.731a.831.831 0 0 1-.992.634.843.843 0 0 1-.623-1.009C-1.572 1.758-1.276.593 0 0" style="fill:#ffffff;fill-opacity:1;fill-rule:nonzero;stroke:none" transform="translate(12.666 26.468)"/><path d="M0 0a.854.854 0 0 1 .174-1.179.82.82 0 0 1 1.159.178c.006.008.647.843 1.861.843.826 0 1.423-.811 1.439-.832a.82.82 0 0 1 1.151-.199.85.85 0 0 1 .2 1.173c-.044.064-1.088 1.543-2.79 1.543C1.134 1.527.045.062 0 0" style="fill:#ffffff;fill-opacity:1;fill-rule:nonzero;stroke:none" transform="translate(6.672 23.953)"/><path d="M0 0c.435 0 .788.359.788.801A.794.794 0 0 1 0 1.602.794.794 0 0 1-.788.801C-.788.359-.435 0 0 0" style="fill:#ffffff;fill-opacity:1;fill-rule:nonzero;stroke:none" transform="translate(2.23 29.133)"/><path d="M0 0h12.992c.438 0 .792.36.792.806a.799.799 0 0 1-.792.805H0A.8.8 0 0 1-.792.806C-.792.36-.437 0 0 0" style="fill:#ffffff;fill-opacity:1;fill-rule:nonzero;stroke:none" transform="translate(22.366 24.482)"/><path d="M0 0a.8.8 0 0 1 .792-.806h12.992a.8.8 0 0 1 .792.806.799.799 0 0 1-.792.805H.792A.799.799 0 0 1 0 0" style="fill:#ffffff;fill-opacity:1;fill-rule:nonzero;stroke:none" transform="translate(28.398 21.072)"/><path d="M0 0h3.243c.438 0 .792.361.792.806a.798.798 0 0 1-.792.804H0A.798.798 0 0 1-.792.806.8.8 0 0 1 0 0" style="fill:#ffffff;fill-opacity:1;fill-rule:nonzero;stroke:none" transform="translate(22.366 20.267)"/><path d="M0 0h19.816c.438 0 .792.361.792.806a.798.798 0 0 1-.792.804H0A.798.798 0 0 1-.792.806.8.8 0 0 1 0 0" style="fill:#ffffff;fill-opacity:1;fill-rule:nonzero;stroke:none" transform="translate(22.366 16.05)"/><path d="M0 0h3.685c.511 0 .925.421.925.941 0 .519-.414.94-.925.94H0a.933.933 0 0 1-.925-.94C-.925.421-.511 0 0 0" style="fill:#ffffff;fill-opacity:1;fill-rule:nonzero;stroke:none" transform="translate(38.498 24.347)"/></g></svg>