<svg xmlns="http://www.w3.org/2000/svg" width="66.667" height="66.667"><defs><clipPath id="a"><path d="M0 50h50V0H0z"/></clipPath></defs><g clip-path="url(#a)" transform="matrix(1.3333 0 0 -1.3333 0 66.667)"><path fill="#0098da" d="M13.635 19.777c.511 0 .925.413.925.925v2.079a.925.925 0 0 1-.925.926h-1.04c-.636 0-1.153.517-1.153 1.153v2.08c0 .51-.415.925-.926.925h-.729l.236.624c.753 1.999 1.462 3.887 2.501 5.137a.926.926 0 0 1-1.423 1.183c-1.238-1.49-2.002-3.519-2.809-5.668l-.441-1.16a1.445 1.445 0 0 1 1.348-1.967h.392V24.86a3.008 3.008 0 0 1 3.004-3.004h.115v-1.154c0-.512.414-.925.925-.925M20.63 34.896a.926.926 0 0 1-.048-1.308 5.596 5.596 0 0 0 1.482-3.994 5.524 5.524 0 0 0-1.779-3.87.926.926 0 0 1-.297-.68v-4.342a.924.924 0 1 1 1.851 0v3.954a7.353 7.353 0 0 1 2.074 4.868 7.46 7.46 0 0 1-1.975 5.324.928.928 0 0 1-1.308.048M15.195 31.213c.339 0 .666.187.828.511.776 1.552.073 2.489-.347 3.049-.353.471-.437.582-.173 1.11a.926.926 0 0 1-1.655.828c-.776-1.551-.073-2.489.347-3.048.353-.471.437-.583.173-1.111a.925.925 0 0 1 .827-1.339M18.169 31.31a.926.926 0 0 1 1.242.414c.775 1.551.072 2.488-.347 3.048-.353.471-.437.582-.173 1.11a.926.926 0 0 1-1.655.828c-.775-1.551-.073-2.488.347-3.048.353-.471.437-.582.172-1.11a.927.927 0 0 1 .414-1.242"/><path fill="#0098da" d="M22.087 16.597h-6.561a.924.924 0 0 1-.654-.27l-6.264-6.263v5.608a.924.924 0 0 1-.925.925H4.697c-1.135 0-2.06.925-2.06 2.062v19.492c0 1.135.925 2.06 2.06 2.06h26.469a2.064 2.064 0 0 0 2.061-2.06v-9.358a.924.924 0 1 1 1.85 0v9.358a3.915 3.915 0 0 1-3.911 3.91H4.697a3.914 3.914 0 0 1-3.91-3.91V18.659a3.915 3.915 0 0 1 3.91-3.912h2.06V7.83a.925.925 0 0 1 .926-.924c.241 0 .477.093.654.269l7.572 7.572h6.178a.924.924 0 1 1 0 1.85"/><path fill="#0098da" d="M13.648 43.49c.511 0 .925.415.925.926v1.973c0 .921.833 1.669 1.855 1.669h24.65c1.023 0 1.856-.748 1.856-1.669V30.522c0-.92-.833-1.669-1.856-1.669h-3.142a.925.925 0 1 1 0-1.85h3.142c2.043 0 3.706 1.578 3.706 3.519v15.867c0 1.941-1.663 3.52-3.706 3.52h-24.65c-2.043 0-3.705-1.579-3.705-3.52v-1.973c0-.511.414-.926.925-.926M46.757 2.338a1.648 1.648 0 0 0-1.239-.39 1.68 1.68 0 0 0-1.152.602l-4.918 5.876c.401.245.79.515 1.158.822.495.414.939.873 1.333 1.367l5.031-5.883c.6-.718.506-1.792-.213-2.394M33.892 8.933a7.517 7.517 0 0 0-5.133 2.68c-2.679 3.202-2.254 7.983.947 10.662a7.51 7.51 0 0 0 5.526 1.733 7.512 7.512 0 0 0 5.133-2.682 7.515 7.515 0 0 0 1.735-5.524 7.52 7.52 0 0 0-2.682-5.135 7.524 7.524 0 0 0-5.526-1.734m14.49-3.006-5.403 6.32a9.435 9.435 0 0 1 .965 3.39 9.366 9.366 0 0 1-2.159 6.878h-.001a9.36 9.36 0 0 1-6.388 3.337 9.383 9.383 0 0 1-6.878-2.16c-3.983-3.333-4.511-9.283-1.178-13.266a9.35 9.35 0 0 1 6.389-3.336 9.34 9.34 0 0 1 3.999.508l5.219-6.236A3.517 3.517 0 0 1 45.673.09a3.52 3.52 0 0 1 2.272.829 3.556 3.556 0 0 1 .437 5.007"/><path fill="#0098da" d="M39.231 19.831a.923.923 0 0 1-1.299-.159l-4.214-5.389a.146.146 0 0 0-.201-.024l-2.724 2.126a.924.924 0 1 1-1.139-1.458l2.724-2.127a1.99 1.99 0 0 1 1.224-.42c.594 0 1.181.263 1.573.763l4.215 5.389a.924.924 0 0 1-.159 1.299"/></g></svg>