<svg xmlns="http://www.w3.org/2000/svg" xml:space="preserve" width="66.667" height="66.667"><defs><clipPath clipPathUnits="userSpaceOnUse" id="a"><path d="M0 50h50V0H0Z"/></clipPath></defs><g clip-path="url(#a)" transform="matrix(1.33333 0 0 -1.33333 0 66.667)"><path d="M0 0h-7.095a.85.85 0 0 0 0 1.7H0A.85.85 0 1 0 0 0" style="fill:#0098da;fill-opacity:1;fill-rule:nonzero;stroke:none" transform="translate(30.086 38.065)"/><path d="M0 0a1.69 1.69 0 0 0 1.687-1.687A1.69 1.69 0 0 0 0-3.374a1.69 1.69 0 0 0-1.687 1.687C-1.687-.757-.93 0 0 0m0 1.7a3.39 3.39 0 0 1-3.387-3.387c0-1.025.467-1.933 1.188-2.555a6.87 6.87 0 0 1-1.509-.692.85.85 0 1 1 .904-1.44A5.276 5.276 0 0 0 2.8-6.393a.851.851 0 0 1 .912 1.435c-.48.305-.995.532-1.523.708a3.366 3.366 0 0 1 1.198 2.563A3.39 3.39 0 0 1 0 1.7" style="fill:#0098da;fill-opacity:1;fill-rule:nonzero;stroke:none" transform="translate(12.397 36.255)"/><path d="M0 0h-1.182a1.645 1.645 0 0 1-1.642-1.643v-1.181a.855.855 0 0 1 1.71 0l-.068 1.114H0A.855.855 0 0 1 0 0" style="fill:#0098da;fill-opacity:1;fill-rule:nonzero;stroke:none" transform="translate(8.459 40.605)"/><path d="M0 0c0 .906-.737 1.643-1.643 1.643h-1.181a.855.855 0 0 1 0-1.71L-1.71 0v-1.182a.855.855 0 0 1 1.71 0z" style="fill:#0098da;fill-opacity:1;fill-rule:nonzero;stroke:none" transform="translate(19.159 38.962)"/><path d="M0 0c0-.905.737-1.642 1.643-1.642h1.181a.855.855 0 0 1 0 1.71L1.71 0v1.182a.855.855 0 0 1-1.71 0Z" style="fill:#0098da;fill-opacity:1;fill-rule:nonzero;stroke:none" transform="translate(5.635 28.723)"/><path d="M0 0c0-.472.383-.855.855-.855h1.181c.906 0 1.643.737 1.643 1.642v1.182a.855.855 0 0 1-1.71 0L2.036.855H.855A.855.855 0 0 1 0 0" style="fill:#0098da;fill-opacity:1;fill-rule:nonzero;stroke:none" transform="translate(15.48 27.936)"/><path d="M0 0a.918.918 0 0 1-.919-.919c0-1.119-.853-2.029-1.901-2.029h-26.72c-1.048 0-1.901.91-1.901 2.029v32.564c0 1.119.853 2.03 1.901 2.03h26.72c1.048 0 1.901-.911 1.901-2.03v-9.551a.918.918 0 1 1 1.838 0v9.551c0 2.133-1.678 3.868-3.739 3.868h-26.72c-2.062 0-3.739-1.735-3.739-3.868V-.919c0-2.133 1.677-3.867 3.739-3.867h26.72C-.759-4.786.919-3.052.919-.919A.918.918 0 0 1 0 0" style="fill:#0098da;fill-opacity:1;fill-rule:nonzero;stroke:none" transform="translate(33.746 10.123)"/><path d="M0 0h-17.086a.85.85 0 1 1 0-1.699H0A.85.85 0 1 1 0 0" style="fill:#0098da;fill-opacity:1;fill-rule:nonzero;stroke:none" transform="translate(22.908 12.543)"/><path d="M0 0h-17.086a.85.85 0 1 1 0-1.699H0A.85.85 0 1 1 0 0" style="fill:#0098da;fill-opacity:1;fill-rule:nonzero;stroke:none" transform="translate(22.908 18.049)"/><path d="M0 0h-17.086a.85.85 0 1 1 0-1.699H0A.85.85 0 1 1 0 0" style="fill:#0098da;fill-opacity:1;fill-rule:nonzero;stroke:none" transform="translate(22.908 23.555)"/><path d="M0 0a.85.85 0 0 1-.85.85h-7.095a.85.85 0 0 1 0-1.7H-.85c.47 0 .85.381.85.85" style="fill:#0098da;fill-opacity:1;fill-rule:nonzero;stroke:none" transform="translate(30.936 34.328)"/><path d="m0 0-.067-.058a1.553 1.553 0 0 0-1.127-.353c-.41.037-.783.231-1.048.548l-4.527 5.408 2.435 2.038 4.527-5.41c.265-.317.39-.717.354-1.127A1.53 1.53 0 0 0 0 0m-11.993 6.096A6.991 6.991 0 0 0-16.77 8.59a6.995 6.995 0 0 0-1.613 5.14 6.993 6.993 0 0 0 2.494 4.777 7.009 7.009 0 0 0 4.513 1.638 7.027 7.027 0 0 0 5.405-2.519 6.998 6.998 0 0 0 1.614-5.141 6.995 6.995 0 0 0-2.496-4.776 6.96 6.96 0 0 0-5.14-1.613m13.49-2.831-5.021 6a8.75 8.75 0 0 1 .86 3.07 8.682 8.682 0 0 1-2.004 6.382 8.68 8.68 0 0 1-5.93 3.097 8.682 8.682 0 0 1-6.382-2.003 8.679 8.679 0 0 1-3.096-5.93 8.681 8.681 0 0 1 2.004-6.383 8.678 8.678 0 0 1 5.928-3.096 8.69 8.69 0 0 1 3.719.474l4.88-5.831a3.234 3.234 0 0 1 2.488-1.159c.737 0 1.478.248 2.087.759l.064.053A3.224 3.224 0 0 1 2.24.895a3.225 3.225 0 0 1-.743 2.37" style="fill:#0098da;fill-opacity:1;fill-rule:nonzero;stroke:none" transform="translate(47.338 7.34)"/><path d="m0 0-3.359-4.295-2.17 1.694A.85.85 0 1 1-6.576-3.94l2.171-1.696c.31-.241.678-.357 1.044-.357.506 0 1.007.223 1.342.651L1.34-1.047A.85.85 0 0 1 0 0" style="fill:#0098da;fill-opacity:1;fill-rule:nonzero;stroke:none" transform="translate(38.602 22.873)"/></g></svg>