<?xml version="1.0" encoding="UTF-8" standalone="no"?>
<!-- Created with Inkscape (http://www.inkscape.org/) -->

<svg
   xmlns:dc="http://purl.org/dc/elements/1.1/"
   xmlns:cc="http://creativecommons.org/ns#"
   xmlns:rdf="http://www.w3.org/1999/02/22-rdf-syntax-ns#"
   xmlns:svg="http://www.w3.org/2000/svg"
   xmlns="http://www.w3.org/2000/svg"
   xmlns:sodipodi="http://sodipodi.sourceforge.net/DTD/sodipodi-0.dtd"
   xmlns:inkscape="http://www.inkscape.org/namespaces/inkscape"
   version="1.1"
   id="svg4177"
   xml:space="preserve"
   width="60"
   height="64"
   viewBox="0 0 60 64"
   sodipodi:docname="Identify whether pairs of questions are semantically similar.svg"
   inkscape:version="0.92.3 (2405546, 2018-03-11)"><metadata
     id="metadata4183"><rdf:RDF><cc:Work
         rdf:about=""><dc:format>image/svg+xml</dc:format><dc:type
           rdf:resource="http://purl.org/dc/dcmitype/StillImage" /><dc:title></dc:title></cc:Work></rdf:RDF></metadata><defs
     id="defs4181"><clipPath
       clipPathUnits="userSpaceOnUse"
       id="clipPath4193"><path
         d="M 0,48 H 45 V 0 H 0 Z"
         id="path4191"
         inkscape:connector-curvature="0" /></clipPath></defs><sodipodi:namedview
     pagecolor="#ffffff"
     bordercolor="#666666"
     borderopacity="1"
     objecttolerance="10"
     gridtolerance="10"
     guidetolerance="10"
     inkscape:pageopacity="0"
     inkscape:pageshadow="2"
     inkscape:window-width="697"
     inkscape:window-height="480"
     id="namedview4179"
     showgrid="false"
     inkscape:zoom="3.6875"
     inkscape:cx="30"
     inkscape:cy="32"
     inkscape:window-x="0"
     inkscape:window-y="0"
     inkscape:window-maximized="0"
     inkscape:current-layer="g4185" /><g
     id="g4185"
     inkscape:groupmode="layer"
     inkscape:label="Identify whether pairs of questions are semantically similar"
     transform="matrix(1.3333333,0,0,-1.3333333,0,64)"><g
       id="g4187"><g
         id="g4189"
         clip-path="url(#clipPath4193)"><g
           id="g4195"
           transform="translate(9.9673,45.4258)"><path
             d="m 0,0 c -0.149,0 -0.291,-0.111 -0.305,-0.28 l -0.416,-5.032 -2.821,-0.016 c -3.555,-0.021 -6.425,-2.908 -6.425,-6.463 v -11.368 c 0,-3.348 2.713,-6.061 6.06,-6.061 h 20.386 c 3.116,0 5.642,2.526 5.642,5.642 v 12.462 c 0,3.176 -2.575,5.75 -5.75,5.75 H 7.2 L 0.183,-0.062 C 0.126,-0.02 0.062,0 0,0 M 1.181,-2.947 6.175,-6.722 C 6.471,-6.945 6.831,-7.066 7.2,-7.066 h 9.171 c 2.233,0 4.05,-1.817 4.05,-4.05 v -12.462 c 0,-2.174 -1.768,-3.942 -3.942,-3.942 H -3.907 c -2.404,0 -4.36,1.957 -4.36,4.361 v 11.368 c 0,2.611 2.124,4.748 4.734,4.763 l 2.822,0.017 c 0.88,0.005 1.611,0.682 1.684,1.559 l 0.208,2.505"
             style="fill:#ffffff;fill-opacity:1;fill-rule:nonzero;stroke:none"
             id="path4197"
             inkscape:connector-curvature="0" /></g><g
           id="g4199"
           transform="translate(39.376,31.77)"><path
             d="m 0,0 h -21.259 c -2.875,0 -5.205,-2.33 -5.205,-5.205 V -19.54 c 0,-2.935 2.379,-5.314 5.314,-5.314 h 9.606 l 7.412,-3.92 c 0.058,-0.03 0.117,-0.045 0.176,-0.045 0.2,0 0.382,0.162 0.379,0.384 l -0.045,3.526 3.255,0.02 c 3.314,0.019 5.991,2.712 5.991,6.026 V -5.624 C 5.624,-2.518 3.106,0 0,0 m 0,-1.7 c 2.164,0 3.924,-1.76 3.924,-3.924 v -13.239 c 0,-2.371 -1.929,-4.312 -4.301,-4.326 l -3.255,-0.019 c -0.453,-0.003 -0.887,-0.186 -1.203,-0.509 -0.317,-0.324 -0.493,-0.76 -0.487,-1.213 l 0.016,-1.3 -5.443,2.879 c -0.244,0.13 -0.518,0.197 -0.795,0.197 h -9.606 c -1.993,0 -3.614,1.621 -3.614,3.614 v 14.335 c 0,1.933 1.572,3.505 3.505,3.505 L 0,-1.7"
             style="fill:#ffffff;fill-opacity:1;fill-rule:nonzero;stroke:none"
             id="path4201"
             inkscape:connector-curvature="0" /></g><g
           id="g4203"
           transform="translate(23.4326,24.605)"><path
             d="m 0,0 c -0.393,0 -0.782,0.081 -1.137,0.242 -0.355,0.16 -0.647,0.38 -0.905,0.573 -0.096,0.072 -0.191,0.144 -0.29,0.212 -0.431,0.294 -0.708,0.253 -0.92,0.175 -0.384,-0.144 -0.796,-0.42 -1.19,-0.8 -0.339,-0.325 -0.877,-0.315 -1.203,0.023 -0.325,0.339 -0.314,0.877 0.024,1.202 0.569,0.548 1.166,0.94 1.775,1.167 0.574,0.214 1.469,0.324 2.474,-0.365 0.119,-0.081 0.235,-0.167 0.351,-0.254 0.206,-0.154 0.4,-0.3 0.586,-0.384 C -0.163,1.666 0.184,1.672 0.49,1.802 0.762,1.917 0.989,2.167 1.254,2.458 1.359,2.574 1.466,2.691 1.578,2.804 1.908,3.137 2.446,3.141 2.78,2.809 3.113,2.479 3.116,1.941 2.785,1.607 2.69,1.512 2.601,1.413 2.512,1.314 2.162,0.931 1.768,0.496 1.153,0.237 0.781,0.079 0.389,0 0,0"
             style="fill:#ffffff;fill-opacity:1;fill-rule:nonzero;stroke:none"
             id="path4205"
             inkscape:connector-curvature="0" /></g><g
           id="g4207"
           transform="translate(23.7715,20.5234)"><path
             d="M 0,0 C -0.394,0 -0.782,0.081 -1.138,0.242 -1.49,0.401 -1.782,0.62 -2.04,0.812 -2.136,0.885 -2.233,0.958 -2.332,1.025 -2.765,1.321 -3.04,1.281 -3.253,1.201 -3.637,1.059 -4.049,0.781 -4.443,0.402 -4.782,0.076 -5.32,0.087 -5.646,0.426 c -0.325,0.338 -0.314,0.876 0.024,1.201 0.569,0.548 1.166,0.94 1.775,1.167 0.575,0.215 1.468,0.324 2.474,-0.365 0.119,-0.081 0.236,-0.168 0.352,-0.255 0.206,-0.154 0.4,-0.3 0.584,-0.382 0.272,-0.125 0.619,-0.12 0.928,0.011 0.27,0.113 0.497,0.363 0.761,0.653 C 1.358,2.573 1.465,2.69 1.577,2.803 1.907,3.136 2.445,3.14 2.779,2.809 3.112,2.479 3.115,1.94 2.784,1.606 2.689,1.511 2.6,1.412 2.51,1.312 2.161,0.93 1.767,0.495 1.152,0.236 0.781,0.079 0.388,0 0,0"
             style="fill:#ffffff;fill-opacity:1;fill-rule:nonzero;stroke:none"
             id="path4209"
             inkscape:connector-curvature="0" /></g><g
           id="g4211"
           transform="translate(8.1685,23.918)"><path
             d="m 0,0 c -0.524,0 -0.952,-0.42 -0.962,-0.944 0,-0.544 0.436,-0.98 0.962,-0.98 0.508,0 0.944,0.436 0.944,0.98 C 0.944,-0.436 0.526,0 0,0"
             style="fill:#ffffff;fill-opacity:1;fill-rule:nonzero;stroke:none"
             id="path4213"
             inkscape:connector-curvature="0" /></g><g
           id="g4215"
           transform="translate(8.0127,24.8579)"><path
             d="m 0,0 c -0.422,0 -0.788,0.313 -0.842,0.743 -0.165,1.294 0.455,2.264 0.936,2.881 L 0.373,3.975 C 0.753,4.446 1.112,4.892 1.283,5.38 1.409,5.742 1.429,6.134 1.337,6.486 1.223,6.921 0.933,7.294 0.52,7.533 0.065,7.798 -0.512,7.871 -1.025,7.731 -1.34,7.645 -1.771,7.441 -2.04,6.96 -2.27,6.551 -2.787,6.404 -3.196,6.632 -3.606,6.861 -3.753,7.378 -3.524,7.788 -3.091,8.565 -2.363,9.127 -1.475,9.37 -0.517,9.633 0.521,9.499 1.374,9.003 2.181,8.535 2.752,7.793 2.982,6.915 3.158,6.24 3.124,5.495 2.887,4.818 2.619,4.053 2.129,3.445 1.697,2.908 L 1.435,2.58 C 0.955,1.962 0.778,1.478 0.844,0.958 0.903,0.492 0.574,0.066 0.108,0.007 0.072,0.002 0.036,0 0,0"
             style="fill:#ffffff;fill-opacity:1;fill-rule:nonzero;stroke:none"
             id="path4217"
             inkscape:connector-curvature="0" /></g><g
           id="g4219"
           transform="translate(37.167,13.0312)"><path
             d="m 0,0 c -0.524,0 -0.952,-0.42 -0.962,-0.944 0,-0.544 0.436,-0.98 0.962,-0.98 0.509,0 0.944,0.436 0.944,0.98 C 0.944,-0.436 0.526,0 0,0"
             style="fill:#ffffff;fill-opacity:1;fill-rule:nonzero;stroke:none"
             id="path4221"
             inkscape:connector-curvature="0" /></g><g
           id="g4223"
           transform="translate(37.0127,13.9717)"><path
             d="m 0,0 c -0.422,-0.001 -0.787,0.312 -0.842,0.741 -0.166,1.294 0.454,2.265 0.935,2.882 l 0.28,0.352 C 0.753,4.446 1.111,4.891 1.281,5.379 1.409,5.741 1.428,6.134 1.337,6.484 1.223,6.921 0.933,7.294 0.52,7.533 0.064,7.798 -0.511,7.871 -1.025,7.73 -1.34,7.644 -1.772,7.439 -2.041,6.959 -2.27,6.548 -2.786,6.401 -3.197,6.631 -3.607,6.86 -3.754,7.378 -3.525,7.787 -3.092,8.564 -2.363,9.126 -1.475,9.37 -0.516,9.631 0.521,9.499 1.373,9.004 2.181,8.534 2.752,7.792 2.981,6.914 3.157,6.238 3.124,5.494 2.886,4.817 2.619,4.053 2.13,3.445 1.697,2.909 L 1.435,2.579 C 0.954,1.962 0.777,1.477 0.844,0.958 0.903,0.492 0.574,0.066 0.109,0.007 0.072,0.002 0.036,0 0,0"
             style="fill:#ffffff;fill-opacity:1;fill-rule:nonzero;stroke:none"
             id="path4225"
             inkscape:connector-curvature="0" /></g></g></g></g></svg>