<svg xmlns="http://www.w3.org/2000/svg" width="66.667" height="66.667"><defs><clipPath id="a" clipPathUnits="userSpaceOnUse"><path d="M0 50h50V0H0Z"/></clipPath></defs><g clip-path="url(#a)" transform="matrix(1.33333 0 0 -1.33333 0 66.667)"><path d="M0 0h.069C.13 0 .189 0 .25.01.17.01.08 0 0 0" style="fill:#0098da;fill-opacity:1;fill-rule:nonzero;stroke:none" transform="translate(37.525 15.29)"/><path d="M0 0h.069C.13 0 .189 0 .25.01.17.01.08 0 0 0" style="fill:#0098da;fill-opacity:1;fill-rule:nonzero;stroke:none" transform="translate(37.525 15.29)"/><path d="M0 0c-2.109 2.98-4.359 6.74-4.359 8.38a4.354 4.354 0 1 0 8.71 0C4.351 6.74 2.101 2.97 0 0m-.01 14.44c-3.34 0-6.05-2.72-6.05-6.06 0-2.65 3.59-7.89 5.14-10.02.21-.29.55-.46.91-.46.37 0 .71.17.93.46C2.46.49 6.05 5.73 6.05 8.38c0 3.34-2.71 6.06-6.06 6.06" style="fill:#0098da;fill-opacity:1;fill-rule:nonzero;stroke:none" transform="translate(37.675 8.75)"/><path d="M0 0c-3.325 0-8.951.666-8.951 3.164 0 1.247 1.436 2.192 4.156 2.734a.856.856 0 0 0 1-.668.852.852 0 0 0-.668-1c-1.886-.375-2.603-.866-2.766-1.069C-6.845 2.623-4.18 1.699 0 1.699s6.846.924 7.229 1.462c-.162.203-.883.696-2.78 1.071a.85.85 0 0 0 .33 1.668c2.731-.54 4.173-1.486 4.173-2.736C8.952.666 3.325 0 0 0" style="fill:#0098da;fill-opacity:1;fill-rule:nonzero;stroke:none" transform="translate(37.67 4.13)"/><path d="M0 0a3.19 3.19 0 0 0-3.19 3.18V8c.27-.14.52-.33.74-.55L4.26.74c.219-.22.41-.47.55-.74Zm-10.88 1.12c.35-.16.68-.4.96-.68l7.27-7.27c.27-.28.49-.59.66-.93h-5.35c-1.95 0-3.54 1.59-3.54 3.53zM6.84-.85c0 .06-.01.12-.021.18-.17.98-.63 1.89-1.359 2.61l-6.71 6.71a4.86 4.86 0 0 1-2.62 1.36.88.88 0 0 1-.17.02c-.22.04-.44.05-.66.05h-15.57c-2.07 0-3.75-1.68-3.75-3.75V3.2h-5.69c-2.07 0-3.75-1.69-3.75-3.75v-34.09a3.55 3.55 0 0 1 3.55-3.55h18.43a.85.85 0 1 1 0 1.7h-18.43c-1.02 0-1.85.829-1.85 1.85V-.55c0 1.13.92 2.05 2.05 2.05h17.13v-5.73c0-2.88 2.35-5.23 5.24-5.23h5.72v-2.03c0-.46.38-.85.849-.85.471 0 .851.39.851.85v2.16c0 .24-.02.48-.06.72 0 .06-.01.12-.02.17a5.096 5.096 0 0 1-1.45 2.81l-7.27 7.27c-.78.79-1.76 1.29-2.83 1.48-.06.01-.12.02-.18.02-.25.04-.5.06-.75.06h-9.84v3.13c0 1.13.92 2.05 2.05 2.05h15.379v-5.2A4.89 4.89 0 0 1 0-1.7h5.189v-9.55a.85.85 0 1 1 1.701 0v9.74c0 .22-.01.44-.05.66" style="fill:#0098da;fill-opacity:1;fill-rule:nonzero;stroke:none" transform="translate(33.615 39.18)"/><path d="M0 0h-16.092a.85.85 0 1 0 0 1.699H0A.85.85 0 1 0 0 0" style="fill:#0098da;fill-opacity:1;fill-rule:nonzero;stroke:none" transform="translate(22.097 13.167)"/><path d="M0 0h-11.983a.85.85 0 1 0 0 1.699H0A.85.85 0 1 0 0 0" style="fill:#0098da;fill-opacity:1;fill-rule:nonzero;stroke:none" transform="translate(22.097 7.572)"/><path d="M0 0h-1.353a.85.85 0 1 0 0 1.699H0A.85.85 0 1 0 0 0" style="fill:#0098da;fill-opacity:1;fill-rule:nonzero;stroke:none" transform="translate(7.357 7.572)"/><path d="M0 0h-4.61a.85.85 0 1 0 0 1.699H0A.85.85 0 1 0 0 0" style="fill:#0098da;fill-opacity:1;fill-rule:nonzero;stroke:none" transform="translate(22.097 19.02)"/><path d="M0 0h-8.726a.85.85 0 1 0 0 1.699H0A.85.85 0 1 0 0 0" style="fill:#0098da;fill-opacity:1;fill-rule:nonzero;stroke:none" transform="translate(14.731 19.02)"/><path d="M0 0a2.611 2.611 0 0 0-2.609-2.609H-18.81c-1.44 0-2.61 1.17-2.61 2.609v17.22c0 1.44 1.17 2.61 2.61 2.61h16.201A2.612 2.612 0 0 0 0 17.22Zm-2.609 21.53H-18.81a4.311 4.311 0 0 1-4.31-4.31V0c0-2.38 1.931-4.31 4.31-4.31h16.201C-.239-4.31 1.7-2.38 1.7 0v17.22c0 2.38-1.939 4.31-4.309 4.31" style="fill:#0098da;fill-opacity:1;fill-rule:nonzero;stroke:none" transform="translate(48.145 5.05)"/><path d="M0 0c-.17.16-.27.39-.279.63-.011.24.08.46.239.64h.011a.9.9 0 0 0 .62.28H.62a.94.94 0 0 0 .62-.24c.361-.34.37-.92.031-1.281a.921.921 0 0 0-.63-.279C.41-.271.181-.17 0 0m3.79-1.54c-.319.3-.659.55-1.01.74a2.606 2.606 0 0 1-.38 3.34c-.5.48-1.17.739-1.86.71a2.607 2.607 0 0 1-1.81-.811A2.577 2.577 0 0 1-1.979.58c.019-.54.189-1.04.5-1.46-.3-.17-.581-.38-.851-.63a.844.844 0 0 1-.05-1.2.842.842 0 0 1 1.2-.05c.54.489 1.13.77 1.731.81.08 0 .17.01.25.01.619-.02 1.25-.3 1.83-.84.17-.16.369-.23.579-.23.23 0 .46.09.62.27.32.34.311.88-.04 1.2" style="fill:#0098da;fill-opacity:1;fill-rule:nonzero;stroke:none" transform="translate(36.975 17.24)"/><path d="m0 0-.29.86c.23.06.45.13.67.21.28-.26.57-.49.88-.7C.85.22.43.1 0 0m7.8 2.31c-.06.01-5.87 1.19-5.88 4.56a1.069 1.069 0 0 0 1.14 1.14h.13c.3.03.61-.09.83-.31.22-.22.34-.52.31-.89 0-.45-.11-.9-.32-1.3a.865.865 0 0 1 .36-1.15c.42-.21.93-.05 1.15.36.33.65.51 1.37.51 2.02.06.81-.23 1.6-.8 2.17-.56.55-1.32.84-2.1.8-.77.04-1.54-.25-2.1-.8-.57-.57-.86-1.36-.8-2.1 0-3.76 4.34-5.4 6.31-5.95L6.26 0C4.4.45-.54 2.1-.54 6.81a3.664 3.664 0 1 0 7.33-.01c.01-.87-.17-1.74-.54-2.52-.2-.43-.02-.93.41-1.13.42-.2.93-.02 1.13.4.47 1.02.72 2.15.7 3.26 0 2.96-2.4 5.36-5.36 5.36-2.96 0-5.37-2.4-5.37-5.36 0-1.74.53-3.18 1.36-4.34-.23-.07-.45-.12-.68-.17a.798.798 0 0 1-.56-.4.858.858 0 0 1-.07-.7l.82-2.46c.12-.35.44-.58.8-.58.05 0 .1 0 .15.01 1.23.22 2.42.6 3.54 1.12 1.29-.62 2.58-.97 3.58-1.12.04-.01.08-.01.12-.01.36 0 .69.23.81.58l.82 2.46c.08.24.05.49-.07.7a.87.87 0 0 1-.58.41" style="fill:#0098da;fill-opacity:1;fill-rule:nonzero;stroke:none" transform="translate(6.865 26.02)"/></g></svg>