<svg width="44" height="31" fill="none" xmlns="http://www.w3.org/2000/svg" style=""><rect id="backgroundrect" width="100%" height="100%" x="0" y="0" fill="none" stroke="none"/><g class="currentLayer" style=""><title>Layer 1</title><path d="M30.4 10.94c-.04 0-.04 0 0 0a.63.63 0 01-.5-.23l-2.73-2.88a.66.66 0 01.04-.95.69.69 0 01.97.03L30.4 9.3l2.33-2.15a.69.69 0 01.97.04c.23.27.23.73-.04.96l-2.84 2.6c-.07.12-.27.2-.42.2z" fill="#ffffff" id="svg_1" class="selected" fill-opacity="1"/><path d="M43.3 31H24.84a.7.7 0 01-.7-.69V4.51a.7.7 0 01.7-.7h13.72c.2 0 .39.08.5.23l4.75 4.9c.11.12.19.31.19.46v20.91a.7.7 0 01-.7.69zm-17.76-1.38H42.6V9.67L38.25 5.2H25.54v24.43z" fill="#ffffff" id="svg_2" class="selected" fill-opacity="1"/><path d="M34.09 24.1a.7.7 0 01-.7-.68v-9.57a.7.7 0 01.7-.7c.39 0 .7.31.7.7v9.57a.7.7 0 01-.7.69z" fill="#ffffff" id="svg_3" class="selected" fill-opacity="1"/><path d="M38.75 14.5H29.4a.7.7 0 01-.7-.7.7.7 0 01.7-.68h9.36c.4 0 .7.3.7.69a.7.7 0 01-.7.69zM43.3 10.1h-4.74a.7.7 0 01-.7-.7V4.5a.7.7 0 01.43-.65.72.72 0 01.77.15l4.75 4.9c.19.2.23.5.15.77a.79.79 0 01-.66.42zM39.26 8.7h2.4l-2.4-2.48V8.7zM30.36 10.67c-.08 0-.16 0-.24-.04a.7.7 0 01-.42-.88 6.3 6.3 0 00-2.57-7.35 6.52 6.52 0 00-5.05-.85.75.75 0 01-.86-.5.73.73 0 01.5-.84c2.1-.5 4.36-.11 6.15 1.04a7.67 7.67 0 013.1 8.96.66.66 0 01-.61.46zM20.06 21.31H2.56a.7.7 0 01-.62-.38c-.11-.23-.07-.5.08-.73l5.87-7.62a.68.68 0 01.54-.27c.24 0 .43.08.55.23l4.16 4.9 2.4-2.83c.16-.15.36-.27.6-.23.22 0 .42.12.53.3l4 5.56c.16.2.16.5.05.73a.87.87 0 01-.66.34zM4 19.93h14.73l-2.68-3.71-2.33 2.8c-.27.3-.82.3-1.09 0l-4.16-4.9L4 19.92z" fill="#ffffff" id="svg_4" class="selected" fill-opacity="1"/><path d="M13.6 13.88a2.8 2.8 0 01-2.8-2.75 2.73 2.73 0 012.8-2.72 2.8 2.8 0 012.8 2.75 2.76 2.76 0 01-2.8 2.72zm0-4.1c-.77 0-1.4.62-1.4 1.38 0 .77.63 1.38 1.4 1.38.78 0 1.4-.6 1.4-1.38a1.4 1.4 0 00-1.4-1.37z" fill="#ffffff" id="svg_5" class="selected" fill-opacity="1"/><path d="M21.92 26.14H.7a.7.7 0 01-.7-.7V3.63a.7.7 0 01.7-.69h21.22c.4 0 .7.3.7.7v21.82a.7.7 0 01-.7.69zM1.4 24.76h19.82V4.3H1.4v20.45z" fill="#ffffff" id="svg_6" class="selected" fill-opacity="1"/></g></svg>