<svg width="41" height="38" fill="none" xmlns="http://www.w3.org/2000/svg"><rect width="100%" height="100%"/><defs><clipPath id="a"><path fill="#fff" d="M0 0h40.28v38H0z"/></clipPath></defs><g class="currentLayer"><g clip-path="url(#a)" class="selected" fill="#fff"><path d="M20.14 0c-.4 0-.74.34-.74.74v.88c0 .41.33.75.74.75.4 0 .74-.34.74-.75V.74c0-.4-.32-.74-.74-.74zM18.14 2.26l-.7-.54a.77.77 0 00-.45-.17c-.23 0-.44.1-.59.28a.75.75 0 00.12 1.05l.7.55c.13.1.3.16.46.16a.74.74 0 00.47-1.33zM5.96 13.49a.95.95 0 00-.1.87 5.19 5.19 0 004.8 3.27c2.1 0 4.03-1.32 4.8-3.27a.94.94 0 00-.87-1.27H6.73c-.32 0-.6.14-.78.4zm8.26.76a4 4 0 01-3.56 2.2c-1.5 0-2.88-.86-3.55-2.2h7.1zM32.08 17.17a.95.95 0 00.77-.94 3.16 3.16 0 00-6.3 0c0 .45.33.85.77.94a12.22 12.22 0 004.76 0zm-4.35-1.12a1.98 1.98 0 013.94 0c-1.31.23-2.63.23-3.94 0zM8.27 8.77c-.4 0-.74.34-.74.75v.52c0 .4.33.74.74.74.4 0 .74-.34.74-.74v-.52c0-.41-.33-.75-.74-.75zM13.05 8.77c-.4 0-.74.34-.74.75v.52c0 .4.33.74.74.74.4 0 .74-.34.74-.74v-.52c0-.41-.32-.75-.74-.75zM28.14 7.76a.74.74 0 00-.51.2l-.17.16c-.3.28-.67.48-1.07.58l-.44.1a.74.74 0 00.18 1.47c.06 0 .11 0 .17-.02l.44-.11.18-.05a.74.74 0 001.48-.1v-.68-.04l.07-.07.17-.15c.3-.28.31-.75.03-1.05a.7.7 0 00-.53-.24zM31.02 9.08a2 2 0 00.14.12l-.01.1v.68c0 .33.26.59.59.59.32 0 .58-.27.58-.59v-.11l.38.11.44.11.14.02a.59.59 0 00.14-1.16l-.44-.11c-.42-.1-.82-.32-1.14-.62l-.17-.16a.6.6 0 00-.83.03c-.22.23-.2.6.03.82l.15.17zM11.62 21.37v5.58a.56.56 0 101.13 0v-5.58a.56.56 0 00-.57-.57.57.57 0 00-.56.57zM19.06 27.52c.31 0 .56-.25.56-.57v-5.58a.56.56 0 00-.56-.57h-1.12c-.26 0-.5.2-.55.45l-.57 2.85-.57-2.85a.56.56 0 00-.55-.45h-1.12a.56.56 0 00-.56.57v5.58a.56.56 0 101.13 0v-5.03h.1l1.03 5.14c.05.22.22.4.44.44.3.06.6-.13.66-.44l1.03-5.14h.1v5.03c-.01.32.25.57.55.57zM20.9 21.37v5.58c0 .32.25.57.56.57h1.12c.93 0 1.68-.75 1.68-1.68v-3.36c0-.93-.75-1.68-1.68-1.68h-1.12a.57.57 0 00-.56.57zm1.12.56h.56c.31 0 .56.25.56.56v3.36c0 .3-.25.56-.56.56h-.56v-4.48zM26.1 20.81a.56.56 0 00-.56.56V26.95a.56.56 0 00.96.4 1.68 1.68 0 002.41-1.51V23.6a1.68 1.68 0 00-2.24-1.59v-.65c-.01-.3-.26-.56-.57-.56zm1.12 2.23c.31 0 .56.25.56.57v2.23c0 .31-.25.56-.56.56a.56.56 0 01-.56-.56V23.6c0-.3.25-.56.56-.56z"/><path d="M7.85 38a.71.71 0 01-.5-.21.68.68 0 01-.2-.5c0-.38.34-.69.72-.69h.28v-1.2c0-1 .8-1.8 1.8-1.8h5.88l2.98-4.21H1.36c-.74 0-1.35-.6-1.35-1.35v-8c0-.74.6-1.34 1.35-1.34h4.92l-.11-.08a7.51 7.51 0 01-3.11-6.11c0-2.1.88-4.12 2.42-5.55.13-.12.3-.2.47-.2A.7.7 0 016.42 8a6.14 6.14 0 00-.14 8.9 6.18 6.18 0 004.4 1.81H11a6.18 6.18 0 004.16-10.45 6.16 6.16 0 00-6.84-1.48.7.7 0 01-.94-.46.7.7 0 01.43-.84 7.6 7.6 0 0110.45 7.04 7.5 7.5 0 01-3.11 6.12l-.11.07h5.7c.2 0 .38.08.5.21.14.14.21.32.2.51 0 .38-.33.68-.72.68H1.4v7.92H38.9v-7.93H23.27a.71.71 0 01-.5-.22.68.68 0 01-.2-.5c.01-.38.34-.68.72-.68h2.01l-.1-.08a7.51 7.51 0 01-3.11-6.11 7.6 7.6 0 1112.1 6.12l-.1.08h4.83c.36 0 .7.14.95.4.26.25.4.59.4.95v8c0 .74-.6 1.35-1.35 1.35H21.47l3.01 4.2h3.97c1 0 1.8.8 1.8 1.8v1.21h.39c.19 0 .37.08.5.21s.2.32.2.5c-.01.38-.34.69-.72.69H7.85V38zm2.1-3a.4.4 0 00-.4.4v1.2h19.31v-1.2a.4.4 0 00-.4-.4l-4.25-.01a.8.8 0 01-.67-.35l-3.38-4.73-2.63 3.7h4.3c.18 0 .36.07.5.2.13.14.2.33.19.51 0 .38-.34.68-.72.68H9.95zM29.7 6.3c-1.71 0-3.3.68-4.49 1.92a6.14 6.14 0 00-1.71 4.57 6.23 6.23 0 006.2 5.9c1.7 0 3.3-.68 4.48-1.92a6.14 6.14 0 001.72-4.57A6.23 6.23 0 0030 6.3h-.3zM21.92 2.5l.73-.57.11-.07c.34-.15.7-.05.9.2a.75.75 0 01-.08 1.02l-.76.6-.11.07a.76.76 0 01-.91-.2.75.75 0 01.12-1.05z"/></g></g></svg>