<svg xmlns="http://www.w3.org/2000/svg" width="66.667" height="66.667"><defs><clipPath id="a" clipPathUnits="userSpaceOnUse"><path d="M0 50h50V0H0Z"/></clipPath></defs><g clip-path="url(#a)" transform="matrix(1.33333 0 0 -1.33333 0 66.667)"><path d="M0 0h40.603a2.509 2.509 0 0 0 2.505-2.505v-5.888H-2.504v5.888A2.507 2.507 0 0 0 0 0m23.213-40.159H0a2.506 2.506 0 0 0-2.504 2.504v27.504h45.612v-15.752a.878.878 0 1 1 1.757 0v23.398a4.267 4.267 0 0 1-4.262 4.263H0a4.267 4.267 0 0 1-4.263-4.263v-35.15A4.266 4.266 0 0 1 0-41.917h23.213a.879.879 0 0 1 0 1.758" style="fill:#0098da;fill-opacity:1;fill-rule:nonzero;stroke:none" transform="translate(4.553 46.873)"/><path d="M0 0a.734.734 0 0 0 0-1.466A.733.733 0 0 0 0 0m0-3.224A2.495 2.495 0 0 1 2.492-.733 2.494 2.494 0 0 1 0 1.758 2.493 2.493 0 0 1-2.491-.733 2.494 2.494 0 0 1 0-3.224" style="fill:#0098da;fill-opacity:1;fill-rule:nonzero;stroke:none" transform="translate(7.676 43.478)"/><path d="M0 0a.734.734 0 0 0 0-1.466A.734.734 0 0 0 0 0m0-3.224A2.494 2.494 0 0 1 2.491-.733 2.493 2.493 0 0 1 0 1.758 2.494 2.494 0 0 1-2.492-.733 2.495 2.495 0 0 1 0-3.224" style="fill:#0098da;fill-opacity:1;fill-rule:nonzero;stroke:none" transform="translate(14.468 43.478)"/><path d="M0 0a.734.734 0 0 0 0-1.466A.734.734 0 0 0 0 0m0-3.224A2.495 2.495 0 0 1 2.492-.733 2.494 2.494 0 0 1 0 1.758 2.493 2.493 0 0 1-2.491-.733 2.494 2.494 0 0 1 0-3.224" style="fill:#0098da;fill-opacity:1;fill-rule:nonzero;stroke:none" transform="translate(21.26 43.478)"/><path d="M0 0h-5.777a.878.878 0 1 1 0-1.758H0A.88.88 0 0 1 0 0" style="fill:#0098da;fill-opacity:1;fill-rule:nonzero;stroke:none" transform="translate(43.373 26.132)"/><path d="M0 0h-11.288a.879.879 0 0 1 0-1.758H0A.88.88 0 0 1 0 0" style="fill:#0098da;fill-opacity:1;fill-rule:nonzero;stroke:none" transform="translate(43.373 31.062)"/><path d="M0 0h2.407a.878.878 0 1 1 0 1.758H0A.878.878 0 0 1 0 0" style="fill:#0098da;fill-opacity:1;fill-rule:nonzero;stroke:none" transform="translate(32.085 24.374)"/><path d="M0 0a7.44 7.44 0 0 0-2.655-5.082A7.427 7.427 0 0 0-8.126-6.8a7.437 7.437 0 0 0-5.082 2.654c-2.651 3.169-2.232 7.904.936 10.555a7.431 7.431 0 0 0 5.471 1.718 7.443 7.443 0 0 0 5.083-2.655h.001A7.445 7.445 0 0 0 0 0m-.369 6.601h.001c-3.274 3.911-9.119 4.432-13.033 1.157-3.911-3.274-4.429-9.12-1.157-13.032a9.192 9.192 0 0 1 6.277-3.277 9.192 9.192 0 0 1 6.756 2.119A9.202 9.202 0 0 1 1.752-.154 9.187 9.187 0 0 1-.369 6.601" style="fill:#0098da;fill-opacity:1;fill-rule:nonzero;stroke:none" transform="translate(47.92 9.957)"/><path d="m0 0 7.905-7.152a.245.245 0 0 0 .078-.174.242.242 0 0 0-.08-.175l-.844-.811c-.118-.112-.365-.095-.448-.016L-.81-.773c.26.267.53.525.81.773m-4.606-2.896a.36.36 0 0 0-.397.051L-8.198.223a.24.24 0 0 0-.08.175c0 .039.01.078.03.113 2.867 1.56 5.234 3.833 6.862 6.587a.356.356 0 0 0 .4-.05L2.211 3.98a.24.24 0 0 0 .079-.174.229.229 0 0 0-.028-.108C-.641 2.167-3.01-.107-4.606-2.896m11.433-7.262c.547 0 1.063.206 1.45.579l.842.808c.396.378.622.905.622 1.445s-.226 1.066-.639 1.461L1.396 1.109c.579.405 1.187.777 1.826 1.106a.9.9 0 0 1 .205.146c.395.378.621.904.621 1.445a2.01 2.01 0 0 1-.62 1.443L.233 8.316c-.779.751-2.127.751-2.906 0a.882.882 0 0 1-.151-.193c-1.492-2.581-3.704-4.705-6.397-6.14a.843.843 0 0 1-.195-.141 2.013 2.013 0 0 1-.621-1.444c0-.539.226-1.065.62-1.444l3.197-3.068c.39-.374.906-.579 1.451-.579.546 0 1.061.206 1.452.58.063.06.116.129.159.206.352.632.751 1.233 1.189 1.803l7.343-7.474c.389-.374.905-.58 1.453-.58" style="fill:#0098da;fill-opacity:1;fill-rule:nonzero;stroke:none" transform="translate(18.273 23.78)"/><path d="M0 0v.432c0 .239.218.432.487.432h6.829c.269 0 .488-.193.488-.432V0Zm7.316 2.622H.487c-1.238 0-2.245-.982-2.245-2.19V0h-.487a.88.88 0 0 1 0-1.758h12.293a.88.88 0 1 1 0 1.758h-.486v.432c0 1.208-1.007 2.19-2.246 2.19" style="fill:#0098da;fill-opacity:1;fill-rule:nonzero;stroke:none" transform="translate(9.134 13.035)"/><path d="M0 0a.88.88 0 0 1-1.243-.001l-2.422-2.422-2.422 2.422a.88.88 0 0 1-1.245-1.242l2.424-2.424-2.424-2.424a.88.88 0 0 1 1.245-1.242l2.422 2.423 2.422-2.423A.877.877 0 0 1 0-7.334c.344.344.344.9.001 1.243l-2.423 2.424L.001-1.243C.344-.899.344-.343 0 0" style="fill:#0098da;fill-opacity:1;fill-rule:nonzero;stroke:none" transform="translate(44.123 14.287)"/></g></svg>