<svg xmlns="http://www.w3.org/2000/svg" xml:space="preserve" width="66.667" height="66.667"><defs><clipPath clipPathUnits="userSpaceOnUse" id="a"><path d="M0 50h50V0H0Z"/></clipPath></defs><g clip-path="url(#a)" transform="matrix(1.33333 0 0 -1.33333 0 66.667)"><path d="M0 0c.722-.86 1.139-1.583 1.139-1.855A1.14 1.14 0 0 0 0-2.994a1.14 1.14 0 0 0-1.138 1.139c0 .272.417.996 1.138 1.855m9.539-2.98a1.14 1.14 0 0 0-1.138 1.138c0 .274.416.996 1.138 1.855.722-.859 1.138-1.582 1.138-1.855 0-.628-.51-1.138-1.138-1.138M0-4.694a2.843 2.843 0 0 1 2.839 2.839c0 .682-.433 1.492-.99 2.255l2.169.012v-9.55H2.566a.85.85 0 0 1 0-1.7h4.603a.85.85 0 1 1 0 1.7H5.718V.421l1.984.011C7.14-.335 6.701-1.153 6.701-1.842a2.842 2.842 0 0 1 2.838-2.839 2.842 2.842 0 0 1 2.838 2.839c0 1.117-1.154 2.578-2.123 3.608-.042.045-.1.066-.15.101a.84.84 0 0 1-.618.276h-.005l-3.763-.021v2.153a.85.85 0 1 1-1.7 0V2.112L.245 2.091c-.08 0-.151-.025-.223-.046a.982.982 0 0 1-.737-.293C-1.684.723-2.838-.739-2.838-1.855A2.842 2.842 0 0 1 0-4.694" style="fill:#0098da;fill-opacity:1;fill-rule:nonzero;stroke:none" transform="translate(13.473 38.079)"/><path d="M0 0h-12.289a.85.85 0 1 1 0-1.699H0A.85.85 0 1 1 0 0" style="fill:#0098da;fill-opacity:1;fill-rule:nonzero;stroke:none" transform="translate(23.49 11.326)"/><path d="M0 0h-15.173a.85.85 0 1 1 0-1.699H0A.85.85 0 1 1 0 0" style="fill:#0098da;fill-opacity:1;fill-rule:nonzero;stroke:none" transform="translate(26.374 17.132)"/><path d="M0 0c0 .47-.38.85-.85.85h-22.943a.85.85 0 1 1 0-1.7H-.85c.47 0 .85.38.85.85" style="fill:#0098da;fill-opacity:1;fill-rule:nonzero;stroke:none" transform="translate(34.994 22.088)"/><path d="M0 0a2.067 2.067 0 0 0-2.064-2.064h-9.598A2.067 2.067 0 0 0-13.727 0v9.061c0 1.137.927 2.064 2.065 2.064h8.278c.043-.007.082-.025.126-.025.045 0 .083.018.126.025h1.068A2.068 2.068 0 0 0 0 9.061Zm-15.426 9.061V0c0-.065.016-.126.019-.19h-20.55c-1.147 0-2.08 1.05-2.08 2.34v38.561c0 1.29.933 2.34 2.08 2.34h19.972v-6.907c0-3.321 2.511-6.022 5.599-6.022h6.277v-.001l.001-17.297h-7.554a3.768 3.768 0 0 1-3.764-3.763m10.149 24.144c.363-.396.648-.869.847-1.383h-5.956c-2.15 0-3.9 1.938-3.9 4.322v6.499a3.89 3.89 0 0 0 1.103-.83zm3.213-20.381h-.344l-.002 17.297c0 .276-.04.543-.073.812 0 .014.007.025.007.039 0 .035-.016.066-.02.1-.181 1.234-.698 2.377-1.529 3.282l-7.906 8.609c-1.044 1.137-2.495 1.788-3.981 1.788h-20.045c-2.084 0-3.78-1.812-3.78-4.04V2.15c0-2.227 1.696-4.04 3.78-4.04h20.741c.102 0 .196.025.287.058.645-1.146 1.86-1.932 3.267-1.932h9.598A3.768 3.768 0 0 1 1.699 0v9.061a3.767 3.767 0 0 1-3.763 3.763" style="fill:#0098da;fill-opacity:1;fill-rule:nonzero;stroke:none" transform="translate(45.022 4.427)"/><path d="m0 0-3.293-4.437-1.714 1.409a.85.85 0 1 1-1.08-1.313l1.836-1.509a1.532 1.532 0 0 1 1.168-.344c.42.05.808.277 1.065.623l3.383 4.557A.85.85 0 0 1 0 0" style="fill:#0098da;fill-opacity:1;fill-rule:nonzero;stroke:none" transform="translate(40.935 12.025)"/></g></svg>