<svg xmlns="http://www.w3.org/2000/svg" xml:space="preserve" width="66.667" height="66.667"><defs><clipPath clipPathUnits="userSpaceOnUse" id="a"><path d="M0 50h50V0H0Z"/></clipPath></defs><g clip-path="url(#a)" transform="matrix(1.33333 0 0 -1.33333 0 66.667)"><path d="M0 0a.85.85 0 0 0-.85.85v19.156a.85.85 0 0 0 1.7 0V.85A.85.85 0 0 0 0 0" style="fill:#ffffff;fill-opacity:1;fill-rule:nonzero;stroke:none" transform="translate(21.302 16.925)"/><path d="M0 0h-7.132a.85.85 0 1 0 0 1.699H0A.85.85 0 1 0 0 0" style="fill:#ffffff;fill-opacity:1;fill-rule:nonzero;stroke:none" transform="translate(24.868 15.926)"/><path d="M0 0a.85.85 0 0 0-.005 1.7l14.309.08c.515.023.852-.376.854-.845a.85.85 0 0 0-.845-.855L.005 0Z" style="fill:#ffffff;fill-opacity:1;fill-rule:nonzero;stroke:none" transform="translate(14.148 33.322)"/><path d="M0 0c-1.335-1.508-2.23-2.936-2.23-3.589 0-1.23 1-2.231 2.23-2.231s2.23 1.001 2.23 2.231C2.23-2.936 1.335-1.507 0 0m0-7.52a3.936 3.936 0 0 0-3.931 3.931c0 1.662 1.982 4.015 3.164 5.269.198.212.477.333.765.334H0c.288 0 .567-.121.767-.333C1.948.426 3.93-1.927 3.93-3.589A3.935 3.935 0 0 0 0-7.52" style="fill:#ffffff;fill-opacity:1;fill-rule:nonzero;stroke:none" transform="translate(13.761 32.964)"/><path d="m0 0 .003-.003L0 0m.471-.516C-.863-2.023-1.76-3.452-1.76-4.105c0-1.23 1.001-2.23 2.231-2.23s2.231 1 2.231 2.23c0 .652-.896 2.081-2.231 3.589m0-7.519a3.935 3.935 0 0 0-3.931 3.93c0 1.661 1.982 4.015 3.163 5.27.201.212.481.334.768.334h.004c.288-.002.567-.124.765-.336C2.42-.09 4.401-2.445 4.401-4.105a3.934 3.934 0 0 0-3.93-3.93" style="fill:#ffffff;fill-opacity:1;fill-rule:nonzero;stroke:none" transform="translate(28.067 33.5)"/><path d="M0 0h-22.601a5.527 5.527 0 0 0-5.52 5.52v26.614a5.526 5.526 0 0 0 5.52 5.52H7.345a.855.855 0 0 0 0-1.71h-29.946c-2.1 0-3.81-1.709-3.81-3.81V5.52c0-2.1 1.71-3.809 3.81-3.809H0A.855.855 0 1 0 0 0" style="fill:#ffffff;fill-opacity:1;fill-rule:nonzero;stroke:none" transform="translate(28.734 7.795)"/><path d="M0 0a.855.855 0 0 0-.855.855v14.932a3.814 3.814 0 0 1-3.81 3.81h-.564a.855.855 0 1 0 0 1.71h.564a5.526 5.526 0 0 0 5.52-5.52V.855A.855.855 0 0 0 0 0" style="fill:#ffffff;fill-opacity:1;fill-rule:nonzero;stroke:none" transform="translate(40.831 24.142)"/><path d="M0 0a2.084 2.084 0 0 1-2.08-2.081V-12.89c0-1.146.934-2.08 2.08-2.08h11.059c1.147 0 2.081.934 2.081 2.08v10.809A2.084 2.084 0 0 1 11.059 0Zm11.059-16.669H0a3.783 3.783 0 0 0-3.779 3.779v10.809A3.783 3.783 0 0 0 0 1.699h11.059a3.784 3.784 0 0 0 3.78-3.78V-12.89a3.784 3.784 0 0 0-3.78-3.779" style="fill:#ffffff;fill-opacity:1;fill-rule:nonzero;stroke:none" transform="translate(34.542 21.226)"/><path d="M0 0h-.055C-4.42-.034-6.091-3.925-6.16-4.09l-.26-.625.328-.592c.093-.169 2.339-4.147 6.048-4.147h.059c3.701.042 6.078 4.033 6.178 4.203l.378.646-.327.673C6.166-3.772 4.285 0 0 0m0-1.4c3.458 0 4.985-3.144 4.985-3.144S2.95-8.02-.001-8.054h-.043c-2.927 0-4.824 3.425-4.824 3.425S-3.534-1.427-.044-1.4H0" style="fill:#ffffff;fill-opacity:1;fill-rule:nonzero;stroke:none" transform="translate(40.013 18.468)"/><path d="M0 0a3.784 3.784 0 0 1-3.78-3.78A3.784 3.784 0 0 1 0-7.561 3.784 3.784 0 0 1 3.78-3.78 3.784 3.784 0 0 1 0 0m0-1.4a2.38 2.38 0 1 0 0-4.76A2.38 2.38 0 0 0 0-1.4" style="fill:#ffffff;fill-opacity:1;fill-rule:nonzero;stroke:none" transform="translate(40.072 17.52)"/><path d="M0 0a1.175 1.175 0 1 0-2.35 0A1.175 1.175 0 0 0 0 0" style="fill:#ffffff;fill-opacity:1;fill-rule:nonzero;stroke:none" transform="translate(41.247 13.74)"/></g></svg>