<svg width="66.667" height="66.667" xmlns="http://www.w3.org/2000/svg"><defs><clipPath clipPathUnits="userSpaceOnUse" id="a"><path d="M0 50h50V0H0Z"/></clipPath></defs><g clip-path="url(#a)" transform="matrix(1.33333 0 0 -1.33333 0 66.667)"><path d="M0 0c.301-.14.57-.35.811-.59L7.74-7.52c.24-.24.441-.51.59-.8H3.32C1.49-8.32 0-6.84 0-5.01Zm-7.93-7.09c.37-.17.71-.41 1.011-.71l7.52-7.53c.299-.3.54-.63.71-1H-4.26c-2.02 0-3.67 1.65-3.67 3.67zM2.53-43.189a.85.85 0 0 1-.849-.851c0-1.069-.87-1.939-1.941-1.939h-27.28c-1.069 0-1.939.87-1.939 1.939v35.17c0 1.18.959 2.15 2.139 2.15h17.71v-5.94c0-2.96 2.41-5.37 5.37-5.37h5.941v-2.12a.85.85 0 1 1 1.7 0v2.23c0 .25-.021.5-.061.74 0 .06-.009.12-.019.18a5.375 5.375 0 0 1-1.5 2.88L-5.72-6.6c-.8.8-1.8 1.31-2.88 1.5-.06.01-.12.02-.18.02-.24.04-.49.06-.74.06h-10.22v3.49c0 .91 1.77 1.91 2.97 1.91h15.081v-5.39c0-2.77 2.24-5.01 5.009-5.01h5.39v-9.88a.85.85 0 0 1 1.7 0v10.04c0 .23-.01.47-.059.69 0 .06-.01.12-.021.17a4.96 4.96 0 0 1-1.39 2.69L2.021.61C1.271 1.36.341 1.84-.68 2a.871.871 0 0 1-.17.02c-.219.05-.45.06-.679.06H-16.77c-1.879 0-4.669-1.51-4.669-3.61v-3.49h-5.901a3.85 3.85 0 0 1-3.84-3.85v-35.17a3.64 3.64 0 0 1 3.64-3.64H-.26c2 0 3.641 1.63 3.641 3.64a.85.85 0 0 1-.851.851" style="fill:#0098da;fill-opacity:1;fill-rule:nonzero;stroke:none" transform="translate(31.85 47.8)"/><path d="M0 0c0-1.03-.71-1.87-1.59-1.87h-12.8c-.88 0-1.589.84-1.589 1.87v12.34c0 1.03.709 1.87 1.589 1.87h12.8c.88 0 1.59-.84 1.59-1.87Zm-1.59 15.91h-12.8c-1.82 0-3.29-1.599-3.29-3.57V0c0-1.97 1.47-3.57 3.29-3.57h12.8C.22-3.57 1.7-1.97 1.7 0v12.34c0 1.971-1.48 3.57-3.29 3.57" style="fill:#0098da;fill-opacity:1;fill-rule:nonzero;stroke:none" transform="translate(47.63 9.34)"/><path d="M0 0a.803.803 0 0 1-.6.25c-.24 0-.45-.09-.6-.25l-3.57-3.58a.835.835 0 0 1 0-1.2c.161-.16.38-.25.6-.25.21 0 .43.09.6.25l2.12 2.12v-5.361A.84.84 0 0 1-.6-8.86c.47 0 .85.37.85.839v5.361l1.92-1.91c.33-.33.87-.33 1.2 0 .33.33.33.87 0 1.2z" style="fill:#0098da;fill-opacity:1;fill-rule:nonzero;stroke:none" transform="translate(40.34 19.82)"/><path d="M0 0c.66-.8 1.06-1.48 1.06-1.73 0-.58-.48-1.06-1.06-1.06-.59 0-1.06.48-1.06 1.06 0 .25.39.93 1.06 1.73m-9.17-2.8c-.59 0-1.06.47-1.06 1.06 0 .22.33.86 1.06 1.73.73-.87 1.06-1.51 1.06-1.73 0-.59-.48-1.06-1.06-1.06M-4.49 5a.85.85 0 0 1-.85-.85V2.11l-3.6-.02c-.07 0-.14-.01-.21-.03h-.02c-.27 0-.53-.11-.71-.31-.94-.99-2.05-2.41-2.05-3.49a2.76 2.76 0 1 1 5.52 0c0 .65-.4 1.42-.93 2.14l2 .01v-9.119h-1.37a.85.85 0 1 1 0-1.701h4.43a.85.85 0 1 1 0 1.701h-1.36V.42l1.81.01c-.53-.73-.93-1.5-.93-2.16a2.76 2.76 0 1 1 5.52 0C2.76-.64 1.64.77.71 1.76c-.06.07-.14.13-.22.17H.48c-.14.13-.32.21-.53.21h-.01l-3.58-.02v2.03c0 .47-.38.85-.85.85" style="fill:#0098da;fill-opacity:1;fill-rule:nonzero;stroke:none" transform="translate(17.59 32.57)"/><path d="M0 0h-19.072a.85.85 0 1 1 0-1.699H0A.85.85 0 1 1 0 0" style="fill:#0098da;fill-opacity:1;fill-rule:nonzero;stroke:none" transform="translate(25.75 12.668)"/><path d="M0 0h-13.51a.85.85 0 1 1 0-1.699H0A.85.85 0 1 1 0 0" style="fill:#0098da;fill-opacity:1;fill-rule:nonzero;stroke:none" transform="translate(25.75 7.58)"/><path d="M0 0a.85.85 0 1 1 0-1.699h1.831a.85.85 0 1 1 0 1.699Z" style="fill:#0098da;fill-opacity:1;fill-rule:nonzero;stroke:none" transform="translate(6.678 7.58)"/><path d="M0 0h-3.53a.85.85 0 1 1 0-1.699H0A.85.85 0 1 1 0 0" style="fill:#0098da;fill-opacity:1;fill-rule:nonzero;stroke:none" transform="translate(25.75 17.99)"/><path d="M0 0a.85.85 0 1 1 0-1.699h11.811a.85.85 0 1 1 0 1.699z" style="fill:#0098da;fill-opacity:1;fill-rule:nonzero;stroke:none" transform="translate(6.678 17.99)"/></g></svg>