<svg xmlns="http://www.w3.org/2000/svg" xml:space="preserve" width="66.667" height="66.667"><defs><clipPath clipPathUnits="userSpaceOnUse" id="a"><path d="M0 50h50V0H0Z"/></clipPath></defs><g clip-path="url(#a)" transform="matrix(1.33333 0 0 -1.33333 0 66.667)"><path d="m0 0-.396-.246a9.659 9.659 0 0 0-7.347-1.207c-2.543.597-4.724 2.186-6.14 4.477a9.126 9.126 0 0 0-1.366 4.798c-.003 2.695 1.015 5.196 2.862 7.042a9.649 9.649 0 0 0 6.864 2.842h.019c3.521.027 6.773-1.903 8.484-4.98a9.695 9.695 0 0 0-.24-9.834l-.247-.398 2.266-4.76Zm7.029-3.056L4.434 2.396a11.408 11.408 0 0 1 .041 11.162 11.409 11.409 0 0 1-9.965 5.858h-.033a11.352 11.352 0 0 1-8.073-3.342c-2.172-2.17-3.366-5.101-3.363-8.253a10.843 10.843 0 0 1 1.621-5.697c1.657-2.68 4.216-4.541 7.205-5.242A11.334 11.334 0 0 1 .099-1.94l5.45-2.596a1.11 1.11 0 0 1 1.48 1.48" style="fill:#0098da;fill-opacity:1;fill-rule:nonzero;stroke:none" transform="translate(42.37 5.61)"/><path d="M0 0h.615a.855.855 0 0 1 0 1.71H0a5.947 5.947 0 0 1-5.94-5.94v-29.008A5.947 5.947 0 0 1 0-39.179h.615a.855.855 0 0 1 0 1.711H0a4.235 4.235 0 0 0-4.23 4.23V-4.23A4.234 4.234 0 0 0 0 0" style="fill:#0098da;fill-opacity:1;fill-rule:nonzero;stroke:none" transform="translate(7.692 46.679)"/><path d="M0 0h28.646a.855.855 0 1 1 0 1.71H0A.855.855 0 0 1 0 0" style="fill:#0098da;fill-opacity:1;fill-rule:nonzero;stroke:none" transform="translate(10.086 39.395)"/><path d="M0 0h28.646a.855.855 0 1 1 0 1.71H0A.855.855 0 0 1 0 0" style="fill:#0098da;fill-opacity:1;fill-rule:nonzero;stroke:none" transform="translate(10.086 33.742)"/><path d="M0 0h28.646a.855.855 0 1 1 0 1.71H0A.855.855 0 0 1 0 0" style="fill:#0098da;fill-opacity:1;fill-rule:nonzero;stroke:none" transform="translate(10.086 28.09)"/><path d="M0 0h-13.646a.855.855 0 0 1 0-1.711H0A.855.855 0 0 1 0 0" style="fill:#0098da;fill-opacity:1;fill-rule:nonzero;stroke:none" transform="translate(23.732 23.648)"/><path d="M0 0h-8.005a.855.855 0 0 1 0-1.711H0A.855.855 0 0 1 0 0" style="fill:#0098da;fill-opacity:1;fill-rule:nonzero;stroke:none" transform="translate(18.091 17.494)"/><path d="M0 0h.615a4.234 4.234 0 0 0 4.229-4.23v-18.277a.855.855 0 0 1 1.711 0V-4.23a5.947 5.947 0 0 1-5.94 5.94H0A.855.855 0 1 1 0 0" style="fill:#0098da;fill-opacity:1;fill-rule:nonzero;stroke:none" transform="translate(39.812 46.679)"/><path d="M0 0h-2.405v1.923H-.32c.43 0 .761.33.761.755 0 .424-.375.743-.761.743h-2.085v1.898H-.11c.419 0 .772.307.772.732a.78.78 0 0 1-.772.766H-3.1a.864.864 0 0 1-.849-.837V-.66c0-.638.485-.838 1.025-.838H0c.419 0 .772.342.772.767C.772-.33.408 0 0 0" style="fill:#0098da;fill-opacity:1;fill-rule:nonzero;stroke:none" transform="translate(35.13 10.987)"/><path d="M0 0a.774.774 0 0 1-.761-.778v-4.813c0-.838-.386-1.439-1.214-1.439-.838 0-1.224.59-1.224 1.439v4.813A.782.782 0 0 1-3.961 0a.765.765 0 0 1-.783-.778v-4.813c0-1.686.993-2.937 2.769-2.937 1.744 0 2.769 1.239 2.769 2.937v4.813A.789.789 0 0 1 0 0" style="fill:#0098da;fill-opacity:1;fill-rule:nonzero;stroke:none" transform="translate(42.063 17.911)"/></g></svg>