<svg xmlns="http://www.w3.org/2000/svg" xml:space="preserve" width="66.667" height="66.667"><defs><clipPath clipPathUnits="userSpaceOnUse" id="a"><path d="M0 50h50V0H0Z"/></clipPath></defs><g clip-path="url(#a)" transform="matrix(1.33333 0 0 -1.33333 0 66.667)"><path d="M0 0h.615a.85.85 0 1 1 0 1.7H0c-2.335 0-4.234 1.753-4.234 3.907v13.109c0 2.155 1.899 3.908 4.234 3.908h.615a.85.85 0 0 1 0 1.7H0c-3.272 0-5.935-2.516-5.935-5.608V5.607C-5.935 2.515-3.272 0 0 0" style="fill:#0098da;fill-opacity:1;fill-rule:nonzero;stroke:none" transform="translate(8.807 23.26)"/><path d="M0 0h28.646a.85.85 0 0 1 0 1.7H0A.85.85 0 0 1 0 0" style="fill:#0098da;fill-opacity:1;fill-rule:nonzero;stroke:none" transform="translate(11.202 40.646)"/><path d="M0 0h28.646a.85.85 0 0 1 0 1.7H0A.85.85 0 0 1 0 0" style="fill:#0098da;fill-opacity:1;fill-rule:nonzero;stroke:none" transform="translate(11.202 34.214)"/><path d="M0 0h28.646a.85.85 0 0 1 0 1.7H0A.85.85 0 0 1 0 0" style="fill:#0098da;fill-opacity:1;fill-rule:nonzero;stroke:none" transform="translate(11.202 27.782)"/><path d="M0 0h-.615a.85.85 0 1 1 0-1.7H0c2.335 0 4.235-1.753 4.235-3.908v-13.109c0-2.155-1.9-3.908-4.235-3.908h-.615a.85.85 0 1 1 0-1.699H0c3.272 0 5.935 2.515 5.935 5.607v13.109C5.935-2.516 3.272 0 0 0" style="fill:#0098da;fill-opacity:1;fill-rule:nonzero;stroke:none" transform="translate(41.542 47.585)"/><path d="M0 0c-.405 0-.728-.314-.728-.672v-6.246c0-.355.323-.672.728-.672.396 0 .728.317.728.672v6.246C.728-.314.396 0 0 0" style="fill:#0098da;fill-opacity:1;fill-rule:nonzero;stroke:none" transform="translate(10.804 14.316)"/><path d="M0 0c-.396 0-.738-.314-.738-.682V-4.65c-.956 1.691-1.486 2.646-2.41 4.263A.861.861 0 0 1-3.855 0c-.437 0-.759-.303-.759-.713v-6.193c0-.367.312-.684.718-.684.394 0 .737.317.737.684v3.926l2.411-4.243c.135-.218.426-.367.696-.367.457 0 .769.326.769.715v6.193C.717-.314.405 0 0 0" style="fill:#0098da;fill-opacity:1;fill-rule:nonzero;stroke:none" transform="translate(17.723 14.316)"/><path d="M0 0c0-.828-.385-1.512-1.527-1.512h-.707v4.746h.707C-.405 3.234 0 2.604 0 1.807Zm-1.704 4.566h-1.175c-.436 0-.81-.345-.81-.755v-5.899c0-.41.374-.756.81-.756h1.175C.654-2.844 1.454-1.48 1.454 0v1.807c0 1.459-.809 2.759-3.158 2.759" style="fill:#0098da;fill-opacity:1;fill-rule:nonzero;stroke:none" transform="translate(23.703 9.666)"/><path d="M0 0c-.405 0-.728-.314-.728-.672v-6.246c0-.355.323-.672.728-.672.396 0 .728.317.728.672v6.246C.728-.314.396 0 0 0" style="fill:#0098da;fill-opacity:1;fill-rule:nonzero;stroke:none" transform="translate(27.169 14.316)"/><path d="m0 0 .551 1.795c.094.305.145.703.186 1.027.042-.324.094-.722.188-1.027L1.455 0Zm1.59 4.125c-.146.42-.354.713-.853.713-.498 0-.706-.303-.841-.713L-2.13-1.848a.876.876 0 0 1-.031-.232c0-.399.343-.672.748-.672.249 0 .582.189.685.494l.343 1.061h2.214l.363-1.061c.104-.295.437-.494.707-.494.426 0 .748.273.748.672 0 .053-.01.18-.031.232z" style="fill:#0098da;fill-opacity:1;fill-rule:nonzero;stroke:none" transform="translate(31.189 9.479)"/><path d="M0 0c-.396 0-.738-.314-.738-.682V-4.65c-.956 1.691-1.486 2.646-2.41 4.263A.861.861 0 0 1-3.855 0c-.437 0-.759-.303-.759-.713v-6.193c0-.367.312-.684.718-.684.394 0 .737.317.737.684v3.926l2.411-4.243c.135-.218.426-.367.696-.367.457 0 .769.326.769.715v6.193C.717-.314.405 0 0 0" style="fill:#0098da;fill-opacity:1;fill-rule:nonzero;stroke:none" transform="translate(40.515 14.316)"/><path d="M0 0a3.122 3.122 0 0 0-3.119-3.119h-33.967A3.122 3.122 0 0 0-40.205 0v11.624a3.122 3.122 0 0 0 3.118 3.119l22.188-.008c.266 0 .518.125.678.339l2.615 3.473 1.619-3.326a.85.85 0 0 1 .764-.478h6.104A3.122 3.122 0 0 0 0 11.624Zm-3.119 16.442h-5.572l-1.995 4.098a.85.85 0 0 1-.683.474.873.873 0 0 1-.76-.335l-3.194-4.243-21.763.006a4.824 4.824 0 0 1-4.819-4.818V0a4.824 4.824 0 0 1 4.819-4.818h33.967A4.823 4.823 0 0 1 1.699 0v11.624a4.823 4.823 0 0 1-4.818 4.818" style="fill:#0098da;fill-opacity:1;fill-rule:nonzero;stroke:none" transform="translate(45.277 5.17)"/></g></svg>