<svg xmlns="http://www.w3.org/2000/svg" xml:space="preserve" width="66.667" height="66.667"><defs><clipPath clipPathUnits="userSpaceOnUse" id="a"><path d="M0 50h50V0H0Z"/></clipPath></defs><g clip-path="url(#a)" transform="matrix(1.33333 0 0 -1.33333 0 66.667)"><path d="M0 0c0-.293-.271-.541-.585-.541-.322 0-.602.248-.602.541v2.952l-.967-1.923c-.111-.223-.323-.325-.56-.325a.588.588 0 0 0-.551.325l-.967 1.923V0c0-.293-.28-.541-.611-.541-.322 0-.577.248-.577.541v5.099c0 .325.264.565.611.565.272 0 .484-.111.594-.334l1.509-3.03 1.511 3.039c.118.248.347.325.584.325.348 0 .611-.257.611-.565Z" style="fill:#0098da;fill-opacity:1;fill-rule:nonzero;stroke:none" transform="translate(17.879 14.544)"/><path d="M0 0c0-.293-.271-.541-.585-.541-.322 0-.602.248-.602.541v2.952l-.967-1.923c-.111-.223-.323-.325-.56-.325a.588.588 0 0 0-.551.325l-.967 1.923V0c0-.293-.28-.541-.611-.541-.322 0-.577.248-.577.541v5.099c0 .325.264.565.611.565.272 0 .484-.111.594-.334l1.509-3.03 1.511 3.039c.118.248.347.325.584.325.348 0 .611-.257.611-.565Z" style="fill:none;stroke:#1097d5;stroke-width:.14300001;stroke-linecap:butt;stroke-linejoin:miter;stroke-miterlimit:10;stroke-dasharray:none;stroke-opacity:1" transform="translate(17.879 14.544)"/><path d="M0 0c0 .292.263.549.594.549.322 0 .593-.257.593-.549v-5.107c0-.291-.271-.549-.593-.549-.331 0-.594.258-.594.549Z" style="fill:#0098da;fill-opacity:1;fill-rule:nonzero;stroke:none" transform="translate(19.08 19.66)"/><path d="M0 0c0 .292.263.549.594.549.322 0 .593-.257.593-.549v-5.107c0-.291-.271-.549-.593-.549-.331 0-.594.258-.594.549Z" style="fill:none;stroke:#1097d5;stroke-width:.14300001;stroke-linecap:butt;stroke-linejoin:miter;stroke-miterlimit:10;stroke-dasharray:none;stroke-opacity:1" transform="translate(19.08 19.66)"/><path d="M0 0c0 .652-.332 1.167-1.247 1.167h-.577v-3.88h.577C-.314-2.713 0-2.154 0-1.477Zm-1.391-3.803h-.959c-.356 0-.661.283-.661.618V1.64c0 .334.305.617.661.617h.959C.526 2.257 1.187 1.192 1.187 0v-1.477c0-1.211-.653-2.326-2.578-2.326" style="fill:#0098da;fill-opacity:1;fill-rule:nonzero;stroke:none" transform="translate(24.525 17.883)"/><path d="M0 0c0 .652-.332 1.167-1.247 1.167h-.577v-3.88h.577C-.314-2.713 0-2.154 0-1.477Zm-1.391-3.803h-.959c-.356 0-.661.283-.661.618V1.64c0 .334.305.617.661.617h.959C.526 2.257 1.187 1.192 1.187 0v-1.477c0-1.211-.653-2.326-2.578-2.326z" style="fill:none;stroke:#1097d5;stroke-width:.14300001;stroke-linecap:butt;stroke-linejoin:miter;stroke-miterlimit:10;stroke-dasharray:none;stroke-opacity:1" transform="translate(24.525 17.883)"/><path d="M0 0c0 .652-.331 1.167-1.246 1.167h-.577v-3.88h.577C-.313-2.713 0-2.154 0-1.477Zm-1.391-3.803h-.959c-.355 0-.661.283-.661.618V1.64c0 .334.306.617.661.617h.959C.526 2.257 1.187 1.192 1.187 0v-1.477c0-1.211-.652-2.326-2.578-2.326" style="fill:#0098da;fill-opacity:1;fill-rule:nonzero;stroke:none" transform="translate(29.735 17.883)"/><path d="M0 0c0 .652-.331 1.167-1.246 1.167h-.577v-3.88h.577C-.313-2.713 0-2.154 0-1.477Zm-1.391-3.803h-.959c-.355 0-.661.283-.661.618V1.64c0 .334.306.617.661.617h.959C.526 2.257 1.187 1.192 1.187 0v-1.477c0-1.211-.652-2.326-2.578-2.326z" style="fill:none;stroke:#1097d5;stroke-width:.14300001;stroke-linecap:butt;stroke-linejoin:miter;stroke-miterlimit:10;stroke-dasharray:none;stroke-opacity:1" transform="translate(29.735 17.883)"/><path d="M0 0h-2.393c-.338 0-.635.258-.635.592v4.987c0 .292.262.549.594.549.322 0 .593-.257.593-.549V1.082H0C.306 1.082.576.85.576.55.576.24.322 0 0 0" style="fill:#0098da;fill-opacity:1;fill-rule:nonzero;stroke:none" transform="translate(34.963 14.08)"/><path d="M0 0h-2.393c-.338 0-.635.258-.635.592v4.987c0 .292.262.549.594.549.322 0 .593-.257.593-.549V1.082H0C.306 1.082.576.85.576.55.576.24.322 0 0 0Z" style="fill:none;stroke:#1097d5;stroke-width:.14300001;stroke-linecap:butt;stroke-linejoin:miter;stroke-miterlimit:10;stroke-dasharray:none;stroke-opacity:1" transform="translate(34.963 14.08)"/><path d="M0 0h-2.247c-.415 0-.789.146-.789.609v4.833c0 .3.279.609.653.609h2.299c.322 0 .594-.257.594-.558 0-.308-.272-.532-.594-.532h-1.765V3.579h1.604c.297 0 .584-.231.584-.541 0-.309-.254-.55-.584-.55h-1.604V1.09H0c.314 0 .595-.24.595-.532C.595.249.322 0 0 0" style="fill:#0098da;fill-opacity:1;fill-rule:nonzero;stroke:none" transform="translate(39.41 14.08)"/><path d="M0 0h-2.247c-.415 0-.789.146-.789.609v4.833c0 .3.279.609.653.609h2.299c.322 0 .594-.257.594-.558 0-.308-.272-.532-.594-.532h-1.765V3.579h1.604c.297 0 .584-.231.584-.541 0-.309-.254-.55-.584-.55h-1.604V1.09H0c.314 0 .595-.24.595-.532C.595.249.322 0 0 0Z" style="fill:none;stroke:#1097d5;stroke-width:.14300001;stroke-linecap:butt;stroke-linejoin:miter;stroke-miterlimit:10;stroke-dasharray:none;stroke-opacity:1" transform="translate(39.41 14.08)"/><path d="M0 0h-2.248c-.415 0-.789.146-.789.61v4.832c0 .3.281.61.653.61h2.299c.322 0 .594-.257.594-.558 0-.309-.272-.533-.594-.533h-1.764V3.579h1.603c.297 0 .585-.231.585-.541 0-.308-.255-.549-.585-.549h-1.603V1.091H0c.313 0 .594-.24.594-.533C.594.249.322 0 0 0" style="fill:#0098da;fill-opacity:1;fill-rule:nonzero;stroke:none" transform="translate(12.284 5.976)"/><path d="M0 0h-2.248c-.415 0-.789.146-.789.61v4.832c0 .3.281.61.653.61h2.299c.322 0 .594-.257.594-.558 0-.309-.272-.533-.594-.533h-1.764V3.579h1.603c.297 0 .585-.231.585-.541 0-.308-.255-.549-.585-.549h-1.603V1.091H0c.313 0 .594-.24.594-.533C.594.249.322 0 0 0Z" style="fill:none;stroke:#1097d5;stroke-width:.14300001;stroke-linecap:butt;stroke-linejoin:miter;stroke-miterlimit:10;stroke-dasharray:none;stroke-opacity:1" transform="translate(12.284 5.976)"/><path d="M0 0c-.076.249-.118.575-.153.841C-.187.575-.229.249-.306 0l-.449-1.468H.433zm-1.348-3.313a.636.636 0 0 0-.56-.404c-.331 0-.611.224-.611.55 0 .043.009.146.025.188L-.84 1.905c.111.335.28.584.687.584.407 0 .577-.24.696-.584l1.653-4.884a.673.673 0 0 0 .027-.188c0-.326-.264-.55-.611-.55a.654.654 0 0 0-.578.404l-.296.867h-1.807z" style="fill:#0098da;fill-opacity:1;fill-rule:nonzero;stroke:none" transform="translate(16.12 9.615)"/><path d="M0 0c-.076.249-.118.575-.153.841C-.187.575-.229.249-.306 0l-.449-1.468H.433zm-1.348-3.313a.636.636 0 0 0-.56-.404c-.331 0-.611.224-.611.55 0 .043.009.146.025.188L-.84 1.905c.111.335.28.584.687.584.407 0 .577-.24.696-.584l1.653-4.884a.673.673 0 0 0 .027-.188c0-.326-.264-.55-.611-.55a.654.654 0 0 0-.578.404l-.296.867h-1.807z" style="fill:none;stroke:#1097d5;stroke-width:.14300001;stroke-linecap:butt;stroke-linejoin:miter;stroke-miterlimit:10;stroke-dasharray:none;stroke-opacity:1" transform="translate(16.12 9.615)"/><path d="M0 0a8.14 8.14 0 0 1-.619.231c-.832.258-1.73.541-1.73 1.787 0 1.106.763 1.776 1.967 1.776.5 0 1.705-.129 1.705-.773 0-.283-.22-.541-.594-.541-.153 0-.271.052-.416.095a1.65 1.65 0 0 1-.644.128c-.416 0-.806-.144-.806-.651 0-.378.212-.507.357-.575.22-.113.423-.18.611-.233C.661.979 1.569.687 1.569-.532c0-1.193-.9-1.88-2.112-1.88-.627 0-1.815.224-1.815.824 0 .275.246.541.56.541.127 0 .262-.043.423-.103.205-.069.476-.171.84-.171.585 0 .882.265.882.738C.347-.197.153-.068 0 0" style="fill:#0098da;fill-opacity:1;fill-rule:nonzero;stroke:none" transform="translate(21.458 8.31)"/><path d="M0 0a8.14 8.14 0 0 1-.619.231c-.832.258-1.73.541-1.73 1.787 0 1.106.763 1.776 1.967 1.776.5 0 1.705-.129 1.705-.773 0-.283-.22-.541-.594-.541-.153 0-.271.052-.416.095a1.65 1.65 0 0 1-.644.128c-.416 0-.806-.144-.806-.651 0-.378.212-.507.357-.575.22-.113.423-.18.611-.233C.661.979 1.569.687 1.569-.532c0-1.193-.9-1.88-2.112-1.88-.627 0-1.815.224-1.815.824 0 .275.246.541.56.541.127 0 .262-.043.423-.103.205-.069.476-.171.84-.171.585 0 .882.265.882.738C.347-.197.153-.068 0 0Z" style="fill:none;stroke:#1097d5;stroke-width:.14300001;stroke-linecap:butt;stroke-linejoin:miter;stroke-miterlimit:10;stroke-dasharray:none;stroke-opacity:1" transform="translate(21.458 8.31)"/><path d="M0 0h-.899c-.339 0-.593.25-.593.541 0 .24.263.55.593.55h2.986c.306 0 .602-.24.602-.55C2.689.25 2.409 0 2.087 0h-.9v-4.488c0-.292-.27-.55-.593-.55-.331 0-.594.258-.594.55Z" style="fill:#0098da;fill-opacity:1;fill-rule:nonzero;stroke:none" transform="translate(25.15 10.937)"/><path d="M0 0h-.899c-.339 0-.593.25-.593.541 0 .24.263.55.593.55h2.986c.306 0 .602-.24.602-.55C2.689.25 2.409 0 2.087 0h-.9v-4.488c0-.292-.27-.55-.593-.55-.331 0-.594.258-.594.55Z" style="fill:none;stroke:#1097d5;stroke-width:.14300001;stroke-linecap:butt;stroke-linejoin:miter;stroke-miterlimit:10;stroke-dasharray:none;stroke-opacity:1" transform="translate(25.15 10.937)"/><path d="M0 0h-2.248c-.415 0-.789.146-.789.61v4.832c0 .3.279.61.653.61h2.299c.322 0 .594-.257.594-.558 0-.309-.272-.533-.594-.533H-1.85V3.579h1.604c.297 0 .585-.231.585-.541 0-.308-.255-.549-.585-.549H-1.85V1.091H0c.313 0 .594-.24.594-.533C.594.249.321 0 0 0" style="fill:#0098da;fill-opacity:1;fill-rule:nonzero;stroke:none" transform="translate(31.751 5.976)"/><path d="M0 0h-2.248c-.415 0-.789.146-.789.61v4.832c0 .3.279.61.653.61h2.299c.322 0 .594-.257.594-.558 0-.309-.272-.533-.594-.533H-1.85V3.579h1.604c.297 0 .585-.231.585-.541 0-.308-.255-.549-.585-.549H-1.85V1.091H0c.313 0 .594-.24.594-.533C.594.249.321 0 0 0Z" style="fill:none;stroke:#1097d5;stroke-width:.14300001;stroke-linecap:butt;stroke-linejoin:miter;stroke-miterlimit:10;stroke-dasharray:none;stroke-opacity:1" transform="translate(31.751 5.976)"/><path d="M0 0h-.899v-1.425h.95c.586 0 .899.249.899.696C.95-.368.772 0 0 0m.958-2.377L2.12-4.145c.28-.429-.136-.884-.517-.884a.574.574 0 0 0-.5.266L-.322-2.505h-.577v-1.967c0-.299-.28-.566-.603-.566a.584.584 0 0 0-.584.566V.473c0 .335.297.618.644.618H.034c1.595 0 2.103-.918 2.103-1.82 0-.85-.449-1.408-1.179-1.648" style="fill:#0098da;fill-opacity:1;fill-rule:nonzero;stroke:none" transform="translate(35.332 10.937)"/><path d="M0 0h-.899v-1.425h.95c.586 0 .899.249.899.696C.95-.368.772 0 0 0Zm.958-2.377L2.12-4.145c.28-.429-.136-.884-.517-.884a.574.574 0 0 0-.5.266L-.322-2.505h-.577v-1.967c0-.299-.28-.566-.603-.566a.584.584 0 0 0-.584.566V.473c0 .335.297.618.644.618H.034c1.595 0 2.103-.918 2.103-1.82 0-.85-.449-1.408-1.179-1.648z" style="fill:none;stroke:#1097d5;stroke-width:.14300001;stroke-linecap:butt;stroke-linejoin:miter;stroke-miterlimit:10;stroke-dasharray:none;stroke-opacity:1" transform="translate(35.332 10.937)"/><path d="m0 0-1.969 3.468V.257c0-.3-.279-.558-.602-.558a.573.573 0 0 0-.585.558v5.064c0 .335.262.584.619.584a.703.703 0 0 0 .577-.317C-1.205 4.266-.772 3.485.008 2.103v3.245c0 .3.279.557.601.557a.572.572 0 0 0 .586-.557V.283c0-.317-.255-.584-.628-.584-.22 0-.458.12-.567.301" style="fill:#0098da;fill-opacity:1;fill-rule:nonzero;stroke:none" transform="translate(41.705 6.2)"/><path d="m0 0-1.969 3.468V.257c0-.3-.279-.558-.602-.558a.573.573 0 0 0-.585.558v5.064c0 .335.262.584.619.584a.703.703 0 0 0 .577-.317C-1.205 4.266-.772 3.485.008 2.103v3.245c0 .3.279.557.601.557a.572.572 0 0 0 .586-.557V.283c0-.317-.255-.584-.628-.584-.22 0-.458.12-.567.301Z" style="fill:none;stroke:#1097d5;stroke-width:.14300001;stroke-linecap:butt;stroke-linejoin:miter;stroke-miterlimit:10;stroke-dasharray:none;stroke-opacity:1" transform="translate(41.705 6.2)"/><path d="M0 0h-.585c-3.121 0-5.659 2.398-5.659 5.347v12.498c0 2.948 2.538 5.346 5.659 5.346H0a.81.81 0 1 0 0-1.621h-.585c-2.227 0-4.038-1.671-4.038-3.725V5.347c0-2.055 1.811-3.726 4.038-3.726H0A.81.81 0 1 0 0 0" style="fill:#0098da;fill-opacity:1;fill-rule:nonzero;stroke:none" transform="translate(10.639 25.511)"/><path d="M0 0h-27.312a.81.81 0 0 0 0 1.621H0A.81.81 0 1 0 0 0" style="fill:#0098da;fill-opacity:1;fill-rule:nonzero;stroke:none" transform="translate(39.648 42.087)"/><path d="M0 0h-27.312a.81.81 0 0 0 0 1.621H0A.81.81 0 1 0 0 0" style="fill:#0098da;fill-opacity:1;fill-rule:nonzero;stroke:none" transform="translate(39.648 35.955)"/><path d="M0 0h-27.312a.81.81 0 0 0 0 1.621H0A.81.81 0 1 0 0 0" style="fill:#0098da;fill-opacity:1;fill-rule:nonzero;stroke:none" transform="translate(39.648 29.823)"/><path d="M0 0h-.586a.81.81 0 0 0 0 1.621H0c2.226 0 4.038 1.671 4.038 3.726v12.498c0 2.054-1.812 3.725-4.038 3.725h-.586a.81.81 0 0 0 0 1.621H0c3.12 0 5.658-2.398 5.658-5.346V5.347C5.658 2.398 3.12 0 0 0" style="fill:#0098da;fill-opacity:1;fill-rule:nonzero;stroke:none" transform="translate(41.263 25.511)"/><path d="M0 0a2.978 2.978 0 0 1-2.973-2.974v-12.99A2.976 2.976 0 0 1 0-18.937h32.384a2.977 2.977 0 0 1 2.975 2.973v12.99A2.979 2.979 0 0 1 32.384 0h-5.818a.81.81 0 0 0-.728.455l-1.546 3.171L21.801.315a.808.808 0 0 0-.647-.323Zm32.384-20.558H0a4.6 4.6 0 0 0-4.594 4.594v12.99A4.599 4.599 0 0 0 0 1.62l20.75-.007 3.044 4.046a.807.807 0 0 0 1.375-.133l1.904-3.906h5.311a4.598 4.598 0 0 0 4.594-4.594v-12.99a4.599 4.599 0 0 0-4.594-4.594" style="fill:#0098da;fill-opacity:1;fill-rule:nonzero;stroke:none" transform="translate(9.465 22.321)"/></g></svg>