<svg xmlns="http://www.w3.org/2000/svg" xml:space="preserve" width="66.667" height="66.667"><defs><clipPath clipPathUnits="userSpaceOnUse" id="a"><path d="M0 50h50V0H0Z"/></clipPath></defs><g clip-path="url(#a)" transform="matrix(1.33333 0 0 -1.33333 0 66.667)"><path d="M0 0h-.615C-3.887 0-6.55 2.515-6.55 5.607v13.109c0 3.093 2.663 5.608 5.935 5.608H0a.85.85 0 0 0 0-1.7h-.615c-2.335 0-4.235-1.753-4.235-3.908V5.607c0-2.154 1.9-3.907 4.235-3.907H0A.85.85 0 0 0 0 0" style="fill:#0098da;fill-opacity:1;fill-rule:nonzero;stroke:none" transform="translate(9.396 23.662)"/><path d="M0 0h-28.646a.85.85 0 0 0 0 1.7H0A.85.85 0 1 0 0 0" style="fill:#0098da;fill-opacity:1;fill-rule:nonzero;stroke:none" transform="translate(39.821 41.047)"/><path d="M0 0h-28.646a.85.85 0 0 0 0 1.7H0A.85.85 0 1 0 0 0" style="fill:#0098da;fill-opacity:1;fill-rule:nonzero;stroke:none" transform="translate(39.821 34.616)"/><path d="M0 0h-28.646a.85.85 0 0 0 0 1.7H0A.85.85 0 1 0 0 0" style="fill:#0098da;fill-opacity:1;fill-rule:nonzero;stroke:none" transform="translate(39.821 28.184)"/><path d="M0 0h-.614a.85.85 0 1 0 0 1.7H0c2.335 0 4.235 1.753 4.235 3.907v13.109c0 2.155-1.9 3.908-4.235 3.908h-.614a.85.85 0 1 0 0 1.7H0c3.272 0 5.935-2.515 5.935-5.608V5.607C5.935 2.515 3.272 0 0 0" style="fill:#0098da;fill-opacity:1;fill-rule:nonzero;stroke:none" transform="translate(41.516 23.662)"/><path d="M0 0c-.094.305-.146.703-.187 1.028C-.229.703-.28.305-.374 0l-.551-1.795H.53Zm-1.652-4.052c-.104-.304-.437-.494-.686-.494-.405 0-.748.274-.748.672 0 .053.01.179.031.231l2.026 5.974c.135.409.343.713.842.713.499 0 .707-.293.852-.713l2.026-5.974a.87.87 0 0 0 .032-.231c0-.398-.323-.672-.748-.672-.271 0-.604.199-.707.494l-.364 1.06H-1.31Z" style="fill:#0098da;fill-opacity:1;fill-rule:nonzero;stroke:none" transform="translate(8.276 11.675)"/><path d="M0 0c0-.356-.332-.672-.728-.672-.405 0-.727.316-.727.672v6.089c0 .368.344.745.801.745h2.815c.396 0 .728-.314.728-.682 0-.378-.332-.651-.728-.651H0v-1.7h1.964c.364 0 .717-.283.717-.662 0-.377-.312-.672-.717-.672H0Z" style="fill:#0098da;fill-opacity:1;fill-rule:nonzero;stroke:none" transform="translate(13.311 7.8)"/><path d="M0 0h-1.102v-1.742H.062c.717 0 1.102.305 1.102.85C1.164-.451.945 0 0 0m1.174-2.907L2.598-5.07c.342-.525-.166-1.081-.634-1.081a.703.703 0 0 0-.613.325L-.395-3.064h-.707v-2.405c0-.367-.342-.693-.737-.693-.385 0-.718.315-.718.693V.578c0 .409.365.756.79.756H.042c1.953 0 2.576-1.123 2.576-2.226 0-1.04-.551-1.721-1.444-2.015" style="fill:#0098da;fill-opacity:1;fill-rule:nonzero;stroke:none" transform="translate(19.75 13.291)"/><path d="M0 0c0 .357.322.672.728.672.395 0 .727-.315.727-.672v-6.246c0-.357-.332-.672-.727-.672-.406 0-.728.315-.728.672Z" style="fill:#0098da;fill-opacity:1;fill-rule:nonzero;stroke:none" transform="translate(23.475 14.047)"/><path d="M0 0c0-.903.312-1.471 1.247-1.471.332 0 .603.084.862.252l.105.064c.135.084.207.157.446.157.395 0 .686-.294.686-.63 0-.608-1.049-1.123-2.151-1.123-1.818 0-2.651 1.092-2.651 2.751v2.078c0 1.658.833 2.75 2.651 2.75 1.102 0 2.151-.514 2.151-1.123 0-.336-.291-.63-.686-.63-.239 0-.311.073-.446.157l-.105.064c-.259.168-.53.252-.862.252C.312 3.548 0 2.98 0 2.078Z" style="fill:#0098da;fill-opacity:1;fill-rule:nonzero;stroke:none" transform="translate(27.412 9.89)"/><path d="M0 0c-.094.305-.146.703-.187 1.028C-.229.703-.28.305-.374 0l-.551-1.795H.53Zm-1.652-4.052c-.104-.304-.437-.494-.686-.494-.405 0-.748.274-.748.672 0 .053.01.179.031.231l2.026 5.974c.135.409.343.713.842.713.499 0 .707-.293.852-.713l2.026-5.974a.87.87 0 0 0 .032-.231c0-.398-.323-.672-.748-.672-.271 0-.604.199-.707.494l-.364 1.06H-1.31Z" style="fill:#0098da;fill-opacity:1;fill-rule:nonzero;stroke:none" transform="translate(34.506 11.675)"/><path d="m0 0-2.411 4.242V.315c0-.367-.343-.682-.737-.682-.406 0-.718.315-.718.682V6.51c0 .409.322.713.759.713.28 0 .561-.158.707-.388.924-1.617 1.454-2.572 2.41-4.263v3.969c0 .367.343.682.738.682.405 0 .717-.315.717-.682V.347c0-.388-.312-.714-.769-.714C.426-.367.135-.22 0 0" style="fill:#0098da;fill-opacity:1;fill-rule:nonzero;stroke:none" transform="translate(41.9 7.496)"/><path d="M0 0a3.122 3.122 0 0 1-3.118-3.119v-11.624A3.122 3.122 0 0 1 0-17.862h37.967a3.122 3.122 0 0 1 3.119 3.119v11.624A3.122 3.122 0 0 1 37.967 0h-8.102a.853.853 0 0 0-.765.478l-1.62 3.326L24.866.331a.847.847 0 0 0-.679-.339Zm37.967-19.562H0a4.824 4.824 0 0 0-4.818 4.819v11.624A4.823 4.823 0 0 0 0 1.699l23.763-.007 3.195 4.244c.177.236.47.357.759.335a.851.851 0 0 0 .684-.474l1.995-4.098h7.571a4.823 4.823 0 0 0 4.819-4.818v-11.624a4.824 4.824 0 0 0-4.819-4.819" style="fill:#0098da;fill-opacity:1;fill-rule:nonzero;stroke:none" transform="translate(6.165 20.315)"/></g></svg>