<svg xmlns="http://www.w3.org/2000/svg" xml:space="preserve" width="66.667" height="66.667"><defs><clipPath clipPathUnits="userSpaceOnUse" id="a"><path d="M0 50h50V0H0Z"/></clipPath></defs><g clip-path="url(#a)" transform="matrix(1.33333 0 0 -1.33333 0 66.667)"><path d="M0 0h-2.229c-.413 0-.783.145-.783.604v4.794c0 .298.278.605.648.605h2.28c.32 0 .589-.255.589-.554 0-.306-.269-.528-.589-.528h-1.75v-1.37h1.59c.295 0 .58-.231.58-.537 0-.306-.252-.545-.58-.545h-1.59V1.081H0c.312 0 .589-.238.589-.528C.589.246.32 0 0 0" style="fill:#0098da;fill-opacity:1;fill-rule:nonzero;stroke:none" transform="translate(18.636 14.136)"/><path d="M0 0h-2.229c-.413 0-.783.145-.783.604v4.794c0 .298.278.605.648.605h2.28c.32 0 .589-.255.589-.554 0-.306-.269-.528-.589-.528h-1.75v-1.37h1.59c.295 0 .58-.231.58-.537 0-.306-.252-.545-.58-.545h-1.59V1.081H0c.312 0 .589-.238.589-.528C.589.246.32 0 0 0Z" style="fill:none;stroke:#1097d5;stroke-width:.142;stroke-linecap:butt;stroke-linejoin:miter;stroke-miterlimit:10;stroke-dasharray:none;stroke-opacity:1" transform="translate(18.636 14.136)"/><path d="M0 0c-.076.247-.117.57-.151.834C-.185.57-.227.247-.303 0l-.446-1.456H.43Zm-1.337-3.287a.63.63 0 0 0-.556-.401c-.328 0-.606.222-.606.545 0 .043.009.146.025.188L-.833 1.89c.11.333.278.579.682.579.403 0 .572-.239.69-.579l1.64-4.845a.71.71 0 0 0 .026-.188c0-.323-.262-.545-.606-.545a.65.65 0 0 0-.573.401l-.294.86h-1.793z" style="fill:#0098da;fill-opacity:1;fill-rule:nonzero;stroke:none" transform="translate(22.441 17.746)"/><path d="M0 0c-.076.247-.117.57-.151.834C-.185.57-.227.247-.303 0l-.446-1.456H.43Zm-1.337-3.287a.63.63 0 0 0-.556-.401c-.328 0-.606.222-.606.545 0 .043.009.146.025.188L-.833 1.89c.11.333.278.579.682.579.403 0 .572-.239.69-.579l1.64-4.845a.71.71 0 0 0 .026-.188c0-.323-.262-.545-.606-.545a.65.65 0 0 0-.573.401l-.294.86h-1.793z" style="fill:none;stroke:#1097d5;stroke-width:.142;stroke-linecap:butt;stroke-linejoin:miter;stroke-miterlimit:10;stroke-dasharray:none;stroke-opacity:1" transform="translate(22.441 17.746)"/><path d="M0 0a8.15 8.15 0 0 1-.614.23c-.825.256-1.717.537-1.717 1.772 0 1.098.757 1.762 1.952 1.762.496 0 1.691-.127 1.691-.766 0-.281-.218-.536-.589-.536-.152 0-.269.051-.411.093-.161.06-.346.128-.64.128-.413 0-.8-.145-.8-.647 0-.375.211-.503.354-.571.218-.111.42-.178.606-.23C.655.971 1.557.682 1.557-.527c0-1.184-.893-1.866-2.096-1.866-.622 0-1.801.222-1.801.818a.56.56 0 0 0 .556.537c.126 0 .261-.043.421-.103.202-.068.47-.17.833-.17.58 0 .875.264.875.733C.345-.195.151-.067 0 0" style="fill:#0098da;fill-opacity:1;fill-rule:nonzero;stroke:none" transform="translate(27.737 16.451)"/><path d="M0 0a8.15 8.15 0 0 1-.614.23c-.825.256-1.717.537-1.717 1.772 0 1.098.757 1.762 1.952 1.762.496 0 1.691-.127 1.691-.766 0-.281-.218-.536-.589-.536-.152 0-.269.051-.411.093-.161.06-.346.128-.64.128-.413 0-.8-.145-.8-.647 0-.375.211-.503.354-.571.218-.111.42-.178.606-.23C.655.971 1.557.682 1.557-.527c0-1.184-.893-1.866-2.096-1.866-.622 0-1.801.222-1.801.818a.56.56 0 0 0 .556.537c.126 0 .261-.043.421-.103.202-.068.47-.17.833-.17.58 0 .875.264.875.733C.345-.195.151-.067 0 0Z" style="fill:none;stroke:#1097d5;stroke-width:.142;stroke-linecap:butt;stroke-linejoin:miter;stroke-miterlimit:10;stroke-dasharray:none;stroke-opacity:1" transform="translate(27.737 16.451)"/><path d="M0 0h-.893c-.336 0-.587.248-.587.537 0 .238.26.545.587.545H2.07c.303 0 .597-.238.597-.545C2.667.248 2.39 0 2.07 0h-.892v-4.453c0-.289-.269-.545-.589-.545-.328 0-.589.256-.589.545Z" style="fill:#0098da;fill-opacity:1;fill-rule:nonzero;stroke:none" transform="translate(31.4 19.057)"/><path d="M0 0h-.893c-.336 0-.587.248-.587.537 0 .238.26.545.587.545H2.07c.303 0 .597-.238.597-.545C2.667.248 2.39 0 2.07 0h-.892v-4.453c0-.289-.269-.545-.589-.545-.328 0-.589.256-.589.545Z" style="fill:none;stroke:#1097d5;stroke-width:.142;stroke-linecap:butt;stroke-linejoin:miter;stroke-miterlimit:10;stroke-dasharray:none;stroke-opacity:1" transform="translate(31.4 19.057)"/><path d="M0 0c-.076.246-.117.569-.151.834C-.185.569-.227.246-.303 0l-.446-1.457H.43Zm-1.337-3.287a.63.63 0 0 0-.556-.401c-.328 0-.606.222-.606.545 0 .043.009.146.025.188L-.833 1.89c.11.332.278.579.682.579.403 0 .572-.239.69-.579l1.64-4.845a.672.672 0 0 0 .026-.188c0-.323-.262-.545-.606-.545a.65.65 0 0 0-.573.401l-.294.859H-1.06Z" style="fill:#0098da;fill-opacity:1;fill-rule:nonzero;stroke:none" transform="translate(15.824 9.707)"/><path d="M0 0c-.076.246-.117.569-.151.834C-.185.569-.227.246-.303 0l-.446-1.457H.43Zm-1.337-3.287a.63.63 0 0 0-.556-.401c-.328 0-.606.222-.606.545 0 .043.009.146.025.188L-.833 1.89c.11.332.278.579.682.579.403 0 .572-.239.69-.579l1.64-4.845a.672.672 0 0 0 .026-.188c0-.323-.262-.545-.606-.545a.65.65 0 0 0-.573.401l-.294.859H-1.06Z" style="fill:none;stroke:#1097d5;stroke-width:.142;stroke-linecap:butt;stroke-linejoin:miter;stroke-miterlimit:10;stroke-dasharray:none;stroke-opacity:1" transform="translate(15.824 9.707)"/><path d="M0 0a8.011 8.011 0 0 1-.614.229c-.825.256-1.717.538-1.717 1.772 0 1.099.757 1.763 1.952 1.763.496 0 1.691-.128 1.691-.766 0-.282-.218-.537-.589-.537-.151 0-.268.051-.412.094-.16.059-.345.127-.639.127-.413 0-.8-.144-.8-.647 0-.375.211-.502.354-.57.219-.111.42-.179.606-.231C.656.971 1.556.682 1.556-.527c0-1.184-.892-1.866-2.095-1.866-.622 0-1.8.222-1.8.818a.56.56 0 0 0 .555.537c.126 0 .261-.043.421-.103.202-.068.471-.17.833-.17.58 0 .875.264.875.733C.345-.196.151-.067 0 0" style="fill:#0098da;fill-opacity:1;fill-rule:nonzero;stroke:none" transform="translate(21.12 8.412)"/><path d="M0 0a8.011 8.011 0 0 1-.614.229c-.825.256-1.717.538-1.717 1.772 0 1.099.757 1.763 1.952 1.763.496 0 1.691-.128 1.691-.766 0-.282-.218-.537-.589-.537-.151 0-.268.051-.412.094-.16.059-.345.127-.639.127-.413 0-.8-.144-.8-.647 0-.375.211-.502.354-.57.219-.111.42-.179.606-.231C.656.971 1.556.682 1.556-.527c0-1.184-.892-1.866-2.095-1.866-.622 0-1.8.222-1.8.818a.56.56 0 0 0 .555.537c.126 0 .261-.043.421-.103.202-.068.471-.17.833-.17.58 0 .875.264.875.733C.345-.196.151-.067 0 0Z" style="fill:none;stroke:#1097d5;stroke-width:.142;stroke-linecap:butt;stroke-linejoin:miter;stroke-miterlimit:10;stroke-dasharray:none;stroke-opacity:1" transform="translate(21.12 8.412)"/><path d="M0 0c0 .29.26.545.589.545.32 0 .589-.255.589-.545v-5.066c0-.289-.269-.545-.589-.545-.329 0-.589.256-.589.545Z" style="fill:#0098da;fill-opacity:1;fill-rule:nonzero;stroke:none" transform="translate(23.646 11.63)"/><path d="M0 0c0 .29.26.545.589.545.32 0 .589-.255.589-.545v-5.066c0-.289-.269-.545-.589-.545-.329 0-.589.256-.589.545Z" style="fill:none;stroke:#1097d5;stroke-width:.142;stroke-linecap:butt;stroke-linejoin:miter;stroke-miterlimit:10;stroke-dasharray:none;stroke-opacity:1" transform="translate(23.646 11.63)"/><path d="M0 0c-.076.246-.117.569-.151.834C-.185.569-.228.246-.304 0l-.445-1.457H.43Zm-1.338-3.287a.63.63 0 0 0-.555-.401c-.329 0-.606.222-.606.545 0 .043.009.146.025.188L-.833 1.89c.109.332.277.579.682.579.403 0 .572-.239.689-.579l1.641-4.845a.71.71 0 0 0 .025-.188c0-.323-.261-.545-.605-.545a.65.65 0 0 0-.573.401l-.294.859h-1.793z" style="fill:#0098da;fill-opacity:1;fill-rule:nonzero;stroke:none" transform="translate(28.2 9.707)"/><path d="M0 0c-.076.246-.117.569-.151.834C-.185.569-.228.246-.304 0l-.445-1.457H.43Zm-1.338-3.287a.63.63 0 0 0-.555-.401c-.329 0-.606.222-.606.545 0 .043.009.146.025.188L-.833 1.89c.109.332.277.579.682.579.403 0 .572-.239.689-.579l1.641-4.845a.71.71 0 0 0 .025-.188c0-.323-.261-.545-.605-.545a.65.65 0 0 0-.573.401l-.294.859h-1.793z" style="fill:none;stroke:#1097d5;stroke-width:.142;stroke-linecap:butt;stroke-linejoin:miter;stroke-miterlimit:10;stroke-dasharray:none;stroke-opacity:1" transform="translate(28.2 9.707)"/><path d="m0 0-1.952 3.439V.255c0-.298-.277-.554-.598-.554a.568.568 0 0 0-.58.554v5.023c0 .332.261.579.614.579a.697.697 0 0 0 .572-.315C-1.195 4.23-.766 3.457.009 2.085v3.219c0 .299.276.553.596.553a.567.567 0 0 0 .582-.553V.28c0-.314-.253-.579-.624-.579A.684.684 0 0 0 0 0" style="fill:#0098da;fill-opacity:1;fill-rule:nonzero;stroke:none" transform="translate(34.361 6.318)"/><path d="m0 0-1.952 3.439V.255c0-.298-.277-.554-.598-.554a.568.568 0 0 0-.58.554v5.023c0 .332.261.579.614.579a.697.697 0 0 0 .572-.315C-1.195 4.23-.766 3.457.009 2.085v3.219c0 .299.276.553.596.553a.567.567 0 0 0 .582-.553V.28c0-.314-.253-.579-.624-.579A.684.684 0 0 0 0 0Z" style="fill:none;stroke:#1097d5;stroke-width:.142;stroke-linecap:butt;stroke-linejoin:miter;stroke-miterlimit:10;stroke-dasharray:none;stroke-opacity:1" transform="translate(34.361 6.318)"/><path d="M0 0h-.582C-3.68 0-6.2 2.382-6.2 5.309v12.399c0 2.927 2.52 5.308 5.618 5.308H0a.81.81 0 0 0 0-1.617h-.582c-2.206 0-4.001-1.656-4.001-3.691V5.309c0-2.036 1.795-3.691 4.001-3.691H0A.81.81 0 0 0 0 0" style="fill:#0098da;fill-opacity:1;fill-rule:nonzero;stroke:none" transform="translate(9.83 25.62)"/><path d="M0 0h-27.094a.809.809 0 0 0 0 1.617H0A.81.81 0 1 0 0 0" style="fill:#0098da;fill-opacity:1;fill-rule:nonzero;stroke:none" transform="translate(38.606 42.065)"/><path d="M0 0h-27.094a.809.809 0 0 0 0 1.617H0A.81.81 0 1 0 0 0" style="fill:#0098da;fill-opacity:1;fill-rule:nonzero;stroke:none" transform="translate(38.606 35.981)"/><path d="M0 0h-27.094a.809.809 0 0 0 0 1.617H0A.81.81 0 1 0 0 0" style="fill:#0098da;fill-opacity:1;fill-rule:nonzero;stroke:none" transform="translate(38.606 29.898)"/><path d="M0 0h-.582a.81.81 0 0 0 0 1.618H0c2.206 0 4 1.655 4 3.691v12.399c0 2.035-1.794 3.691-4 3.691h-.582a.81.81 0 0 0 0 1.617H0c3.097 0 5.618-2.381 5.618-5.308V5.309C5.618 2.382 3.097 0 0 0" style="fill:#0098da;fill-opacity:1;fill-rule:nonzero;stroke:none" transform="translate(40.209 25.62)"/><path d="M0 0a2.947 2.947 0 0 1-2.944-2.943V-15.83A2.947 2.947 0 0 1 0-18.774h32.127a2.946 2.946 0 0 1 2.944 2.944v12.887A2.946 2.946 0 0 1 32.127 0h-5.772a.81.81 0 0 0-.728.455l-1.529 3.139L21.632.315a.81.81 0 0 0-.646-.323Zm32.127-20.393H0a4.568 4.568 0 0 0-4.562 4.563v12.887A4.568 4.568 0 0 0 0 1.618l20.582-.007L23.6 5.623c.17.225.442.352.725.318a.806.806 0 0 0 .649-.45l1.886-3.873h5.267a4.568 4.568 0 0 0 4.562-4.561V-15.83a4.568 4.568 0 0 0-4.562-4.563" style="fill:#0098da;fill-opacity:1;fill-rule:nonzero;stroke:none" transform="translate(8.665 22.455)"/></g></svg>