<?xml version="1.0" encoding="utf-8"?>
<!-- Generator: Adobe Illustrator 22.0.1, SVG Export Plug-In . SVG Version: 6.00 Build 0)  -->
<svg version="1.1" id="Слой_1" xmlns="http://www.w3.org/2000/svg" xmlns:xlink="http://www.w3.org/1999/xlink" x="0px" y="0px"
	 viewBox="0 0 30 30" style="enable-background:new 0 0 30 30;" xml:space="preserve">
<style type="text/css">
	.st0{fill:#ffffff;}
</style>
<title>Detect similar sentences</title>
<g>
	<g>
		<path class="st0" d="M10.4,19.5c-1-1-2.6-1-3.6,0l-2.1,2.1c-1,1-0.9,2.6,0,3.6c0.2,0.2,0.3,0.3,0.5,0.4l0.4-0.4
			c0.3-0.3,0.2-0.5,0.2-0.8c-0.1,0-0.1-0.1-0.2-0.1c-0.5-0.5-0.5-1.3,0-1.8c0.1-0.1,2.1-2.1,2.1-2.1c0.5-0.5,1.3-0.5,1.8,0
			c0.5,0.5,0.5,1.3,0,1.8l-1.4,1.4c0,0.2,0.3,0.8,0.2,1.6c0,0,0,0,0,0l2.1-2.1C11.3,22.1,11.3,20.5,10.4,19.5z"/>
	</g>
</g>
<g>
	<g>
		<path class="st0" d="M6.9,23c-0.2-0.2-0.3-0.3-0.5-0.4L6,23c-0.3,0.3-0.2,0.5-0.2,0.8c0.1,0,0.1,0.1,0.2,0.1
			c0.5,0.5,0.5,1.3,0,1.8c-0.1,0.1-2.2,2.2-2.3,2.3c-0.5,0.5-1.3,0.5-1.8,0c-0.5-0.5-0.5-1.3,0-1.8l1.6-1.6c0-0.2-0.3-0.8-0.2-1.6
			c0,0,0,0,0,0l-2.3,2.3c-1,1-1,2.6,0,3.6c1,1,2.6,1,3.6,0l2.3-2.3C7.9,25.5,7.9,23.9,6.9,23z"/>
	</g>
</g>
<g>
	<g>
		<path class="st0" d="M25.9,8c-0.8,0-1.4,0-2.2,0c-0.3,0-0.6,0.3-0.6,0.6c0,0.3,0.3,0.6,0.6,0.6H24l-1.5,4.4l-1.5-4.4h0.3
			c0.3,0,0.6-0.3,0.6-0.6C22,8.3,21.7,8,21.4,8h-2.2c-0.3,0-0.6,0.3-0.6,0.6c0,0.3,0.3,0.6,0.6,0.6h0.3L18,13.6l-1.5-4.4h0.3
			c0.3,0,0.6-0.3,0.6-0.6c0-0.3-0.3-0.6-0.6-0.6c-0.8,0-1.4,0-2.2,0c-0.3,0-0.6,0.3-0.6,0.6c0,0.3,0.3,0.6,0.6,0.6h0.7l2.1,6.4
			c0.1,0.2,0.3,0.4,0.5,0.4s0.5-0.2,0.5-0.4l1.7-5.1l1.7,5.1c0.1,0.2,0.3,0.4,0.5,0.4s0.5-0.2,0.5-0.4l2.1-6.4h0.7
			c0.3,0,0.6-0.3,0.6-0.6C26.5,8.3,26.2,8,25.9,8z"/>
	</g>
</g>
<g>
	<g>
		<path class="st0" d="M28.2,0.1H12.4c-0.9,0-1.7,0.8-1.7,1.7v15.8c0,0.9,0.8,1.7,1.7,1.7h15.8c0.9,0,1.7-0.8,1.7-1.7V1.8
			C29.9,0.9,29.1,0.1,28.2,0.1z M11.8,1.8c0-0.3,0.3-0.6,0.6-0.6h10.7v3.4H11.8V1.8z M28.8,17.6c0,0.3-0.3,0.6-0.6,0.6H12.4
			c-0.3,0-0.6-0.3-0.6-0.6V5.7h16.9V17.6z M28.8,4.6h-4.5V1.2h4c0.3,0,0.6,0.3,0.6,0.6V4.6z"/>
	</g>
</g>
<g>
	<g>
		<path class="st0" d="M14.7,2.4h-1.2c-0.3,0-0.6,0.3-0.6,0.6s0.3,0.6,0.6,0.6h1.2c0.3,0,0.6-0.3,0.6-0.6S15,2.4,14.7,2.4z"/>
	</g>
</g>
<g>
	<g>
		<path class="st0" d="M18,2.4h-1.1c-0.3,0-0.6,0.3-0.6,0.6s0.3,0.6,0.6,0.6H18c0.3,0,0.6-0.3,0.6-0.6S18.3,2.4,18,2.4z"/>
	</g>
</g>
<g>
	<g>
		<path class="st0" d="M21.4,2.4h-1.1c-0.3,0-0.6,0.3-0.6,0.6s0.3,0.6,0.6,0.6h1.1c0.3,0,0.6-0.3,0.6-0.6S21.7,2.4,21.4,2.4z"/>
	</g>
</g>
<g>
	<path class="st0" d="M7.9,18c-0.3,0-0.5-0.2-0.5-0.5V5c0-1.3,1-2.3,2.3-2.3h1.4c0.3,0,0.5,0.2,0.5,0.5s-0.2,0.5-0.5,0.5H9.7
		C8.9,3.7,8.4,4.3,8.4,5v12.5C8.4,17.8,8.1,18,7.9,18z"/>
</g>
<g>
	<path class="st0" d="M25.1,22.8H12.6c-0.3,0-0.5-0.2-0.5-0.5s0.2-0.5,0.5-0.5h12.5c0.7,0,1.3-0.6,1.3-1.3v-1.8
		c0-0.3,0.2-0.5,0.5-0.5s0.5,0.2,0.5,0.5v1.8C27.4,21.8,26.4,22.8,25.1,22.8z"/>
</g>
<g>
	<path class="st0" d="M4.5,20.2c-0.3,0-0.5-0.2-0.5-0.5V8.8c0-1.3,1-2.3,2.3-2.3h1.4c0.3,0,0.5,0.2,0.5,0.5S8,7.4,7.8,7.4H6.3
		C5.6,7.4,5,8,5,8.8v10.9C5,19.9,4.8,20.2,4.5,20.2z"/>
</g>
<g>
	<path class="st0" d="M21.8,26.6H9.3c-0.3,0-0.5-0.2-0.5-0.5s0.2-0.5,0.5-0.5h12.5c0.7,0,1.3-0.6,1.3-1.3v-1.8
		c0-0.3,0.2-0.5,0.5-0.5s0.5,0.2,0.5,0.5v1.8C24.1,25.5,23,26.6,21.8,26.6z"/>
</g>
</svg>
