<svg width="66.667" height="66.667" xmlns="http://www.w3.org/2000/svg"><defs><clipPath clipPathUnits="userSpaceOnUse" id="a"><path d="M0 50h50V0H0Z"/></clipPath></defs><g clip-path="url(#a)" transform="matrix(1.33333 0 0 -1.33333 0 66.667)"><path d="M0 0c0-.48-.44-.9-.96-.9h-1.02v-5.98c0-.5-.43-.92-.94-.92-.52 0-.95.42-.95.92V-.9h-1.02c-.53 0-.95.41-.95.9 0 .42.42.92.95.92h3.93C-.44.92 0 .5 0 0" style="fill:#0098da;fill-opacity:1;fill-rule:nonzero;stroke:none" transform="translate(33.62 9.14)"/><path d="M0 0c0-.48-.44-.93-.91-.93-.48 0-.73.32-.87.55l-1.35 2.34L-4.78-.9v.16a.847.847 0 0 0-.55-.19c-.48 0-.93.44-.93.93 0 .17.07.37.14.48l1.89 3.16-1.73 2.87c-.08.15-.12.33-.12.48 0 .48.43.91.92.91.36 0 .69-.23.91-.63l1.12-1.94L-2 7.27c.17.27.46.63.92.63.49 0 .9-.42.9-.92 0-.13-.04-.28-.11-.45l-1.73-2.89L-.13.48C-.07.37 0 .17 0 0" style="fill:#0098da;fill-opacity:1;fill-rule:nonzero;stroke:none" transform="translate(40.25 2.27)"/><path d="M0 0c0-.48-.44-.9-.96-.9h-1.02v-5.98c0-.5-.44-.92-.95-.92s-.95.42-.95.92V-.9H-4.9c-.52 0-.95.41-.95.9 0 .42.43.92.95.92h3.94C-.44.92 0 .5 0 0" style="fill:#0098da;fill-opacity:1;fill-rule:nonzero;stroke:none" transform="translate(46.47 9.14)"/><path d="M0 0v-31.19h-1.35a2.81 2.81 0 0 0-2.8 2.81V5.18c0 1.55 1.26 2.8 2.8 2.8h24.03c1.55 0 2.8-1.25 2.8-2.8V3.41H3.41C1.53 3.41 0 1.88 0 0m29.92 3.41h-2.59v1.77a4.66 4.66 0 0 1-4.65 4.65H-1.35A4.66 4.66 0 0 1-6 5.18v-33.56a4.66 4.66 0 0 1 4.65-4.65H0v-3.01c0-1.88 1.53-3.41 3.41-3.41h12.63a.926.926 0 0 1 0 1.85H3.41c-.86 0-1.56.7-1.56 1.56V0c0 .86.7 1.56 1.56 1.56h26.51c.86 0 1.56-.7 1.56-1.56v-26.39a.926.926 0 0 1 1.85 0V0c0 1.88-1.53 3.41-3.41 3.41" style="fill:#0098da;fill-opacity:1;fill-rule:nonzero;stroke:none" transform="translate(9.53 39.81)"/><path d="M0 0c-1.682 0-3.05 1.298-3.05 2.892v6.159c0 1.595 1.368 2.893 3.05 2.893a.929.929 0 0 0 0-1.857c-.659 0-1.195-.465-1.195-1.036V2.892c0-.571.536-1.036 1.195-1.036A.928.928 0 0 0 0 0" style="fill:#0098da;fill-opacity:1;fill-rule:nonzero;stroke:none" transform="translate(17.098 11.633)"/><path d="M0 0h-17.165a.922.922 0 1 0 0 1.844H0A.922.922 0 1 0 0 0" style="fill:#0098da;fill-opacity:1;fill-rule:nonzero;stroke:none" transform="translate(37.47 16.69)"/><path d="M0 0h-17.165a.922.922 0 1 0 0 1.844H0A.922.922 0 1 0 0 0" style="fill:#0098da;fill-opacity:1;fill-rule:nonzero;stroke:none" transform="translate(37.47 20.485)"/><path d="M0 0h-10.356a.922.922 0 1 0 0 1.844H0A.922.922 0 1 0 0 0" style="fill:#0098da;fill-opacity:1;fill-rule:nonzero;stroke:none" transform="translate(30.66 12.88)"/><path d="M0 0a.927.927 0 1 0 0 1.855c.659 0 1.195.465 1.195 1.037V9.05c0 .572-.536 1.037-1.195 1.037a.927.927 0 1 0 0 1.855c1.682 0 3.051-1.297 3.051-2.892V2.892C3.051 1.297 1.682 0 0 0" style="fill:#0098da;fill-opacity:1;fill-rule:nonzero;stroke:none" transform="translate(35.346 25.251)"/><path d="M0 0h-17.165a.922.922 0 0 0 0 1.845H0A.922.922 0 0 0 0 0" style="fill:#0098da;fill-opacity:1;fill-rule:nonzero;stroke:none" transform="translate(32.14 30.307)"/><path d="M0 0h-17.165a.922.922 0 0 0 0 1.845H0A.922.922 0 0 0 0 0" style="fill:#0098da;fill-opacity:1;fill-rule:nonzero;stroke:none" transform="translate(32.14 34.102)"/><path d="M0 0h-10.356a.922.922 0 0 0 0 1.845H0A.922.922 0 0 0 0 0" style="fill:#0098da;fill-opacity:1;fill-rule:nonzero;stroke:none" transform="translate(32.14 26.499)"/></g></svg>