<?xml version="1.0" encoding="UTF-8" standalone="no"?>
<!-- Created with Inkscape (http://www.inkscape.org/) -->

<svg
   xmlns:dc="http://purl.org/dc/elements/1.1/"
   xmlns:cc="http://creativecommons.org/ns#"
   xmlns:rdf="http://www.w3.org/1999/02/22-rdf-syntax-ns#"
   xmlns:svg="http://www.w3.org/2000/svg"
   xmlns="http://www.w3.org/2000/svg"
   xmlns:sodipodi="http://sodipodi.sourceforge.net/DTD/sodipodi-0.dtd"
   xmlns:inkscape="http://www.inkscape.org/namespaces/inkscape"
   version="1.1"
   id="svg4227"
   xml:space="preserve"
   width="60"
   height="64.299469"
   viewBox="0 0 60 64.299469"
   sodipodi:docname="Map Healthcare Codes.svg"
   inkscape:version="0.92.3 (2405546, 2018-03-11)"><metadata
     id="metadata4233"><rdf:RDF><cc:Work
         rdf:about=""><dc:format>image/svg+xml</dc:format><dc:type
           rdf:resource="http://purl.org/dc/dcmitype/StillImage" /><dc:title></dc:title></cc:Work></rdf:RDF></metadata><defs
     id="defs4231"><clipPath
       clipPathUnits="userSpaceOnUse"
       id="clipPath4243"><path
         d="M 0,48.225 H 45 V 0 H 0 Z"
         id="path4241"
         inkscape:connector-curvature="0" /></clipPath></defs><sodipodi:namedview
     pagecolor="#ffffff"
     bordercolor="#666666"
     borderopacity="1"
     objecttolerance="10"
     gridtolerance="10"
     guidetolerance="10"
     inkscape:pageopacity="0"
     inkscape:pageshadow="2"
     inkscape:window-width="697"
     inkscape:window-height="480"
     id="namedview4229"
     showgrid="false"
     inkscape:zoom="3.6703258"
     inkscape:cx="30"
     inkscape:cy="32.149734"
     inkscape:window-x="0"
     inkscape:window-y="0"
     inkscape:window-maximized="0"
     inkscape:current-layer="g4235" /><g
     id="g4235"
     inkscape:groupmode="layer"
     inkscape:label="Map Healthcare Codes"
     transform="matrix(1.3333333,0,0,-1.3333333,0,64.299467)"><g
       id="g4237"><g
         id="g4239"
         clip-path="url(#clipPath4243)"><g
           id="g4245"
           transform="translate(43.1612,2.7184)"><path
             d="m 0,0 c 0,-0.483 -0.395,-0.878 -0.879,-0.88 h -39.563 c -0.484,0.002 -0.88,0.397 -0.88,0.88 v 7.728 l 2.181,0.544 c 0.411,0.106 0.697,0.471 0.697,0.894 v 7.192 c 0,0.423 -0.286,0.789 -0.697,0.894 l -2.181,0.546 v 7.726 c 0,0.485 0.395,0.878 0.879,0.878 h 8.282 c 2.552,-5.704 7.412,-12.459 9.639,-15.423 h -13.253 c -0.507,0 -0.919,-0.413 -0.919,-0.92 0,-0.507 0.412,-0.919 0.919,-0.919 h 30.228 c 0.507,0 0.92,0.412 0.92,0.919 0,0.507 -0.413,0.92 -0.92,0.92 H -18.8 c 2.225,2.96 7.083,9.71 9.64,15.423 h 8.281 C -0.395,26.402 0,26.009 0,25.524 Z m -41.322,15.9 1.039,-0.26 V 9.885 l -1.039,-0.26 z m 20.661,27.767 c 6.228,-0.006 11.303,-5.08 11.309,-11.308 0,-1.158 -0.419,-2.731 -1.253,-4.682 -1.002,-2.352 -2.587,-5.211 -4.708,-8.493 -2.096,-3.244 -4.193,-6.089 -5.348,-7.616 -1.158,1.531 -3.259,4.383 -5.348,7.616 -2.12,3.282 -3.704,6.141 -4.713,8.503 -0.829,1.945 -1.249,3.516 -1.249,4.672 0.008,6.228 5.082,11.302 11.31,11.308 M -0.879,28.243 h -7.528 c 0.594,1.621 0.894,3.005 0.894,4.116 0,7.25 -5.898,13.147 -13.148,13.147 -7.25,0 -13.149,-5.897 -13.149,-13.147 0,-1.108 0.302,-2.491 0.896,-4.116 h -7.529 c -1.497,-0.002 -2.717,-1.221 -2.718,-2.719 V 0 c 0.001,-1.497 1.221,-2.717 2.718,-2.719 H -0.879 C 0.619,-2.717 1.838,-1.497 1.839,0 v 25.524 c -10e-4,1.498 -1.22,2.717 -2.718,2.719"
             style="fill:#ffffff;fill-opacity:1;fill-rule:nonzero;stroke:none"
             id="path4247"
             inkscape:connector-curvature="0" /></g><g
           id="g4249"
           transform="translate(22.5001,39.193)"><path
             d="M 0,0 C 1.087,0 2.057,-0.649 2.474,-1.653 2.89,-2.658 2.662,-3.802 1.893,-4.571 1.388,-5.077 0.716,-5.354 0.001,-5.354 c -0.354,0 -0.698,0.069 -1.025,0.203 -1.004,0.416 -1.653,1.387 -1.653,2.474 C -2.675,-1.203 -1.474,-0.002 0,0 m 0,-7.193 c 1.834,0 3.472,1.093 4.174,2.787 0.7,1.693 0.316,3.624 -0.981,4.922 C 2.342,1.37 1.207,1.839 0.001,1.839 -0.595,1.839 -1.177,1.723 -1.729,1.494 -3.421,0.793 -4.516,-0.844 -4.516,-2.677 -4.513,-5.167 -2.487,-7.191 0,-7.193"
             style="fill:#ffffff;fill-opacity:1;fill-rule:nonzero;stroke:none"
             id="path4251"
             inkscape:connector-curvature="0" /></g><g
           id="g4253"
           transform="translate(19.7994,6.0046)"><path
             d="m 0,0 h -8.047 c -0.494,0 -0.898,-0.404 -0.898,-0.897 0,-0.495 0.404,-0.899 0.898,-0.899 H 0 c 0.494,0 0.898,0.404 0.898,0.899 C 0.898,-0.404 0.494,0 0,0"
             style="fill:#ffffff;fill-opacity:1;fill-rule:nonzero;stroke:none"
             id="path4255"
             inkscape:connector-curvature="0" /></g><g
           id="g4257"
           transform="translate(7.6739,16.7643)"><path
             d="m 0,0 h 6.25 c 0.494,0 0.898,0.404 0.898,0.898 0,0.494 -0.404,0.898 -0.898,0.898 H 0 C -0.494,1.796 -0.898,1.392 -0.898,0.898 -0.898,0.404 -0.494,0 0,0"
             style="fill:#ffffff;fill-opacity:1;fill-rule:nonzero;stroke:none"
             id="path4259"
             inkscape:connector-curvature="0" /></g><g
           id="g4261"
           transform="translate(7.7291,20.8102)"><path
             d="m 0,0 h 3.303 c 0.494,0 0.898,0.403 0.898,0.897 0,0.495 -0.404,0.899 -0.898,0.899 H 0 C -0.494,1.796 -0.898,1.392 -0.898,0.897 -0.898,0.403 -0.494,0 0,0"
             style="fill:#ffffff;fill-opacity:1;fill-rule:nonzero;stroke:none"
             id="path4263"
             inkscape:connector-curvature="0" /></g><g
           id="g4265"
           transform="translate(37.7061,18.5602)"><path
             d="m 0,0 h -6.25 c -0.494,0 -0.898,-0.404 -0.898,-0.897 0,-0.495 0.404,-0.899 0.898,-0.899 H 0 c 0.494,0 0.898,0.404 0.898,0.899 C 0.898,-0.404 0.494,0 0,0"
             style="fill:#ffffff;fill-opacity:1;fill-rule:nonzero;stroke:none"
             id="path4267"
             inkscape:connector-curvature="0" /></g><g
           id="g4269"
           transform="translate(37.7061,22.6061)"><path
             d="m 0,0 h -3.303 c -0.494,0 -0.898,-0.404 -0.898,-0.898 0,-0.495 0.404,-0.898 0.898,-0.898 H 0 c 0.494,0 0.898,0.403 0.898,0.898 C 0.898,-0.404 0.494,0 0,0"
             style="fill:#ffffff;fill-opacity:1;fill-rule:nonzero;stroke:none"
             id="path4271"
             inkscape:connector-curvature="0" /></g><g
           id="g4273"
           transform="translate(8.4219,6.0046)"><path
             d="m 0,0 h -1.349 c -0.493,0 -0.898,-0.404 -0.898,-0.897 0,-0.495 0.405,-0.899 0.898,-0.899 H 0 c 0.494,0 0.898,0.404 0.898,0.899 C 0.898,-0.404 0.494,0 0,0"
             style="fill:#ffffff;fill-opacity:1;fill-rule:nonzero;stroke:none"
             id="path4275"
             inkscape:connector-curvature="0" /></g><g
           id="g4277"
           transform="translate(37.3799,6.0046)"><path
             d="m 0,0 h -8.048 c -0.493,0 -0.897,-0.404 -0.897,-0.897 0,-0.495 0.404,-0.899 0.897,-0.899 H 0 c 0.494,0 0.897,0.404 0.897,0.899 C 0.897,-0.404 0.494,0 0,0"
             style="fill:#ffffff;fill-opacity:1;fill-rule:nonzero;stroke:none"
             id="path4279"
             inkscape:connector-curvature="0" /></g><g
           id="g4281"
           transform="translate(25.9151,6.0046)"><path
             d="m 0,0 h -1.349 c -0.493,0 -0.897,-0.404 -0.897,-0.897 0,-0.495 0.404,-0.899 0.897,-0.899 H 0 c 0.494,0 0.898,0.404 0.898,0.899 C 0.898,-0.404 0.494,0 0,0"
             style="fill:#ffffff;fill-opacity:1;fill-rule:nonzero;stroke:none"
             id="path4283"
             inkscape:connector-curvature="0" /></g></g></g></g></svg>