<svg xmlns="http://www.w3.org/2000/svg" xml:space="preserve" width="66.67" height="73.33"><defs><clipPath clipPathUnits="userSpaceOnUse" id="a"><path d="M0 55h50V0H0Z"/></clipPath></defs><g clip-path="url(#a)" transform="matrix(1.33333 0 0 -1.33333 0 73.33)"><path d="M13.29 41.84h-2.07a.85.85 0 0 1-.85-.85v-1.96H9.16V41c0 .47-.38.85-.85.85H6.24v1.1h2.07c.47 0 .85.39.85.86v1.96h1.21V43.8c0-.47.38-.85.85-.85h2.07zm1.7 1.26c0 .85-.71 1.55-1.58 1.55h-1.34v1.25c0 .86-.7 1.56-1.58 1.56H9.03c-.87 0-1.57-.7-1.57-1.56v-1.25H6.12c-.87 0-1.58-.7-1.58-1.55v-1.4c0-.86.7-1.56 1.58-1.56h1.34V38.9c0-.86.7-1.56 1.57-1.56h1.46c.87 0 1.58.7 1.58 1.56v1.25h1.34c.87 0 1.58.7 1.58 1.55zM5.95 32.32h6a.75.75 0 0 1 0 1.5h-6a.75.75 0 0 1 0-1.5M5.95 28.64h6a.75.75 0 0 1 0 1.5h-6a.75.75 0 0 1 0-1.5M5.95 24.97h6a.75.75 0 0 1 0 1.5h-6a.75.75 0 0 1 0-1.5M20.15 25.73c-.33 0-.57.1-.75.16-.14.05-.27.09-.38.09a.5.5 0 0 1-.5-.48c0-.53 1.06-.73 1.62-.73 1.09 0 1.9.6 1.9 1.66 0 1.08-.82 1.34-1.56 1.58-.17.04-.35.1-.55.2-.13.06-.32.18-.32.5 0 .46.35.59.72.59.27 0 .43-.06.58-.12.13-.03.23-.08.37-.08.33 0 .53.23.53.48 0 .57-1.08.68-1.52.68-1.08 0-1.76-.59-1.76-1.57 0-1.1.8-1.35 1.54-1.58a7 7 0 0 0 .56-.2c.13-.07.31-.18.31-.52 0-.42-.27-.66-.79-.66M23.42 24.77c.3 0 .54.23.54.5v2.83l1.76-3.07c.1-.16.31-.26.5-.26.34 0 .57.23.57.52v4.48c0 .26-.23.5-.52.5-.3 0-.54-.24-.54-.5V26.9l-1.76 3.08a.63.63 0 0 1-.52.28c-.32 0-.55-.22-.55-.51v-4.49c0-.26.23-.5.52-.5M30.63 26.77c0-.61-.29-1.04-.9-1.04-.63 0-.92.43-.92 1.04v1.5c0 .62.24 1.03.91 1.03s.91-.41.91-1.03Zm-.9 3.5c-1.43 0-1.98-.92-1.98-2v-1.5c0-1.11.66-2 1.97-2s1.97.89 1.97 2v1.5c0 1.08-.55 2-1.97 2M33.69 27.86l.87-1.7c.1-.2.28-.29.49-.29.21 0 .4.1.5.29l.86 1.7v-2.61c0-.26.25-.48.54-.48.28 0 .52.22.52.48v4.51c0 .27-.23.5-.54.5-.21 0-.42-.07-.52-.29l-1.35-2.69-1.35 2.69c-.1.2-.3.3-.54.3-.3 0-.54-.22-.54-.51v-4.51c0-.26.23-.48.51-.48.3 0 .55.22.55.48zM39.27 24.84h2c.3 0 .54.22.54.5 0 .25-.25.46-.53.46h-1.66v1.24h1.44c.3 0 .52.21.52.49 0 .27-.26.48-.52.48h-1.44v1.22h1.58c.29 0 .53.2.53.47 0 .27-.24.5-.53.5h-2.05c-.34 0-.59-.28-.59-.55v-4.27c0-.41.34-.54.7-.54M45.3 26.9c0-.6-.28-1.1-1.11-1.1h-.52v3.44h.52c.81 0 1.11-.46 1.11-1.04Zm-1.24 3.3h-.86c-.32 0-.6-.25-.6-.55v-4.27c0-.3.28-.54.6-.54h.86c1.72 0 2.3.98 2.3 2.06v1.3c0 1.06-.59 2-2.3 2" fill="#0098da"/><path d="M47.9 5.45c0-.6-.5-1.1-1.1-1.1H17.64c-.62 0-1.11.5-1.11 1.1v29.02c0 .6.5 1.1 1.1 1.1H46.8c.62 0 1.11-.5 1.11-1.1zm-1.1 31.83H17.64a2.81 2.81 0 0 1-2.81-2.81V5.45a2.81 2.81 0 0 1 2.8-2.8H46.8c1.55 0 2.81 1.25 2.81 2.8v29.02a2.81 2.81 0 0 1-2.8 2.8" fill="#0098da"/><path d="M28.2 41.77c.09-.08.13-.18.2-.27h-7.64c-.73 0-1.33.59-1.33 1.32v7.63c.1-.05.2-.1.28-.18ZM12.93 18.93c0 .47-.38.85-.85.85H3.38c-.73 0-1.32.59-1.32 1.32v28.23c0 .73.6 1.33 1.32 1.33h14.35v-7.84a3.02 3.02 0 0 1 3.03-3.02h8.68c.47 0 .85.38.85.85v.18a3 3 0 0 1-.88 2.14l-8.5 8.5a3 3 0 0 1-2.14.89H3.38a3.02 3.02 0 0 1-3.02-3.03V21.1a3.02 3.02 0 0 1 3.02-3.02h8.69c.47 0 .85.38.85.85M28.5 13.46a1.33 1.33 0 1 0 0 2.66 1.33 1.33 0 0 0 0-2.66m-6.42-5.55a2.02 2.02 0 1 0 0 4.05 2.02 2.02 0 0 0 0-4.05m.13 9.11a.74.74 0 0 0 0 1.48.74.74 0 0 0 0-1.48m6.29.6c-.89 0-1.67-.42-2.19-1.05l-1.9.8c.02.13.04.26.04.39a2.24 2.24 0 1 1-2.24-2.24c.56 0 1.06.21 1.45.55l2.05-.87c-.02-.14-.04-.27-.04-.41 0-.45.11-.87.3-1.25l-1.35-1.18a3.5 3.5 0 0 1-6.06-2.42 3.53 3.53 0 0 1 7.04 0c0 .39-.08.76-.2 1.1l1.56 1.38a2.83 2.83 0 1 1 1.53 5.2M11.27 15.84c-.15.21-.37.38-.7.35a.85.85 0 0 1-.83-.86c0-.27.01-.4.5-.85h-4.7a.75.75 0 1 1 0-1.5h4.75l-.26-.26a.85.85 0 0 1 1.2-1.2l1.71 1.69a.85.85 0 0 1-.05 1.26c-.65.53-1.42 1.18-1.62 1.37M34.29 39.48a.85.85 0 0 1 1.2.01c.33.33.33.87 0 1.2l-.27.26h4.75a.75.75 0 0 1 0 1.5h-4.7c.5.45.5.58.5.85a.85.85 0 0 1-1.53.5l-1.61-1.36a.85.85 0 0 1-.06-1.26ZM41.87 10.53c-.56 0-1.62.2-1.62.73 0 .25.22.48.5.48.12 0 .24-.04.38-.09.18-.06.43-.15.75-.15.52 0 .8.23.8.65 0 .34-.18.46-.32.52-.16.07-.35.13-.55.2-.75.23-1.55.48-1.55 1.58 0 .98.68 1.58 1.76 1.58.45 0 1.52-.12 1.52-.69 0-.25-.2-.48-.53-.48-.13 0-.24.05-.37.09-.14.05-.31.11-.58.11-.37 0-.72-.13-.72-.58 0-.33.2-.44.32-.5.2-.1.38-.17.55-.21.74-.24 1.55-.5 1.55-1.57 0-1.06-.8-1.67-1.89-1.67m-3.07.07h-2.01c-.37 0-.7.13-.7.54v4.28c0 .26.24.54.58.54h2.05c.3 0 .53-.23.53-.5s-.24-.47-.53-.47h-1.57v-1.22h1.43c.26 0 .52-.2.52-.48 0-.27-.23-.49-.52-.49h-1.43v-1.23h1.65c.28 0 .53-.22.53-.48 0-.27-.24-.49-.53-.49m5.35 8.24h-8.92c-.86 0-1.56-.7-1.56-1.56V9.13c0-.86.7-1.56 1.56-1.56h8.92c.87 0 1.56.7 1.56 1.56v8.15c0 .86-.7 1.56-1.56 1.56" fill="#0098da"/></g></svg>