<svg xmlns="http://www.w3.org/2000/svg" xml:space="preserve" width="66.67" height="73.33"><defs><clipPath clipPathUnits="userSpaceOnUse" id="a"><path d="M0 55h50V0H0Z"/></clipPath></defs><g clip-path="url(#a)" transform="matrix(1.33333 0 0 -1.33333 0 73.33)"><path d="M13.2 41.97h-2.1a.85.85 0 0 1-.84-.85v-1.98H9.02v1.98c0 .47-.38.85-.85.85h-2.1v1.13h2.1c.47 0 .85.39.85.85v1.99h1.24v-1.99c0-.46.38-.85.85-.85h2.1Zm.12 2.83h-1.36v1.28c0 .86-.71 1.56-1.59 1.56H8.9c-.87 0-1.58-.7-1.58-1.56V44.8H5.96c-.88 0-1.59-.7-1.59-1.55v-1.42c0-.86.71-1.56 1.59-1.56h1.36V39c0-.85.7-1.55 1.58-1.55h1.47c.88 0 1.59.7 1.59 1.55v1.28h1.36c.87 0 1.58.7 1.58 1.56v1.42c0 .86-.71 1.55-1.58 1.55M5.79 32.37h6.9a.75.75 0 0 1 0 1.5h-6.9a.75.75 0 0 1 0-1.5M5.79 28.66h6.9a.75.75 0 0 1 0 1.5h-6.9a.75.75 0 0 1 0-1.5M5.79 24.95h6.9a.75.75 0 0 1 0 1.5h-6.9a.75.75 0 0 1 0-1.5M23.97 30.18c-.33 0-.63-.27-.63-.58v-2.1H21.4v2.1c0 .31-.29.58-.63.58-.35 0-.63-.27-.63-.58v-5.37c0-.32.28-.59.63-.59.34 0 .63.27.63.59v2.1h1.93v-2.1c0-.32.3-.59.63-.59.34 0 .63.27.63.59v5.37c0 .31-.3.58-.63.58M29.67 24.62c0 .29-.26.54-.6.54-.2 0-.27-.06-.39-.14l-.09-.05a1.31 1.31 0 0 0-.75-.22c-.81 0-1.08.5-1.08 1.27v1.8c0 .77.27 1.26 1.08 1.26.3 0 .52-.07.75-.22l.1-.05c.1-.08.17-.14.38-.14.34 0 .6.25.6.54 0 .53-.92.97-1.87.97-1.58 0-2.3-.94-2.3-2.37v-1.8c0-1.42.72-2.36 2.3-2.36.95 0 1.87.44 1.87.97M31.72 28.95h.77c.85 0 1.04-.49 1.04-.96 0-.65-.36-.95-1.04-.95h-.77zm-.63-5.31c.34 0 .63.28.63.6v1.65h.77c1.4 0 2.3.75 2.3 2.1 0 1.1-.6 2.11-2.3 2.11h-1.33c-.38 0-.7-.3-.7-.65v-5.21c0-.33.3-.6.63-.6M37.78 23.65c.96 0 1.87.44 1.87.97 0 .29-.25.54-.6.54-.2 0-.27-.06-.38-.14l-.1-.05a1.33 1.33 0 0 0-.74-.22c-.82 0-1.09.5-1.09 1.27v1.8c0 .77.27 1.26 1.08 1.26.3 0 .53-.07.76-.22l.09-.05c.11-.08.18-.14.38-.14.35 0 .6.25.6.54 0 .53-.91.97-1.87.97-1.58 0-2.3-.94-2.3-2.37v-1.8c0-1.42.72-2.36 2.3-2.36M42.64 27.5c-.2.05-.41.12-.65.24-.15.07-.37.2-.37.6 0 .54.41.7.85.7.32 0 .52-.08.69-.14.15-.05.28-.1.44-.1.4 0 .63.27.63.57 0 .68-1.28.81-1.81.81-1.28 0-2.1-.7-2.1-1.87 0-1.31.96-1.61 1.85-1.88.24-.08.47-.17.66-.25.16-.07.37-.2.37-.61 0-.5-.32-.78-.94-.78-.4 0-.68.1-.9.18-.17.06-.31.1-.45.1a.6.6 0 0 1-.6-.56c0-.63 1.27-.87 1.94-.87 1.29 0 2.25.72 2.25 1.98 0 1.29-.97 1.6-1.86 1.87" fill="#0098da"/><path d="M48.15 5.22c0-.6-.5-1.1-1.11-1.1H18.67c-.6 0-1.1.5-1.1 1.1v29.33c0 .61.5 1.11 1.1 1.11h28.37c.61 0 1.11-.5 1.11-1.1zm-1.11 32.14H18.67a2.81 2.81 0 0 1-2.8-2.8V5.21a2.81 2.81 0 0 1 2.8-2.8h28.37c1.55 0 2.8 1.25 2.8 2.8v29.33a2.81 2.81 0 0 1-2.8 2.81" fill="#0098da"/><path d="M28.27 41.91c.08-.08.13-.19.19-.29h-7.72c-.74 0-1.35.6-1.35 1.34v7.72c.1-.05.2-.1.29-.19zM12.8 18.84c0 .47-.38.85-.85.85H3.2c-.74 0-1.34.6-1.34 1.35v28.5c0 .74.6 1.35 1.34 1.35h14.5v-7.93a3.05 3.05 0 0 1 3.05-3.04h8.77c.47 0 .85.38.85.85v.19c0 .81-.32 1.58-.9 2.15l-8.58 8.59c-.57.57-1.34.89-2.15.89H3.2a3.05 3.05 0 0 1-3.04-3.05v-28.5a3.05 3.05 0 0 1 3.04-3.05h8.77c.47 0 .85.38.85.85M37.24 13.42a1.4 1.4 0 1 0 0 2.81 1.4 1.4 0 0 0 0-2.8M30.6 7.67a2.12 2.12 0 1 0 0 4.25 2.12 2.12 0 0 0 0-4.25m.14 9.43a.79.79 0 1 0 0 1.58.79.79 0 0 0 0-1.58m6.5.62c-.9 0-1.71-.43-2.25-1.1l-2 .86a2.3 2.3 0 1 1-2.25-1.88c.57 0 1.1.22 1.5.57l2.15-.92a2.88 2.88 0 0 1 .28-1.74l-1.44-1.25a3.6 3.6 0 0 1-6.25-2.47 3.62 3.62 0 0 1 7.24 0c0 .4-.08.8-.2 1.16l1.63 1.44a2.89 2.89 0 0 1 4.5 2.42c0 1.6-1.3 2.9-2.9 2.9M12.53 15.72a.85.85 0 0 1-.69.35.85.85 0 0 1-.85-.86c0-.27.01-.4.52-.87H5.66a.75.75 0 0 1 0-1.5h5.9l-.28-.27a.85.85 0 0 1 1.2-1.2l1.74 1.7a.85.85 0 0 1-.06 1.27c-.66.53-1.43 1.19-1.63 1.38M34.4 39.6a.85.85 0 0 1 1.2.01c.34.33.33.87 0 1.2l-.28.27h5.9a.75.75 0 0 1 0 1.5h-5.85c.5.47.52.6.52.87 0 .47-.37.85-.84.86h-.01a.85.85 0 0 1-.69-.35c-.2-.2-.97-.85-1.63-1.38a.85.85 0 0 1-.05-1.27Z" fill="#0098da"/></g></svg>