<svg xmlns="http://www.w3.org/2000/svg" width="66.667" height="66.667"><defs><clipPath id="a"><path d="M0 50h50V0H0z"/></clipPath></defs><g clip-path="url(#a)" transform="matrix(1.3333 0 0 -1.3333 0 66.667)"><path fill="#0098da" d="M46.31 4.934a2.742 2.742 0 0 0-2.738-2.738H10.764a2.742 2.742 0 0 0-2.739 2.738v10.604a2.742 2.742 0 0 0 2.739 2.738l21.15-.007a.88.88 0 0 1 .704.352l2.28 3.028 1.401-2.877a.882.882 0 0 1 .793-.496h6.48a2.742 2.742 0 0 0 2.738-2.738zm-2.738 15.104h-5.929l-1.79 3.678a.88.88 0 0 1-.709.492.908.908 0 0 1-.788-.348l-2.882-3.827-20.71.005a4.505 4.505 0 0 1-4.502-4.5V4.934A4.507 4.507 0 0 1 10.764.433h32.808a4.507 4.507 0 0 1 4.501 4.5v10.605c0 2.482-2.02 4.5-4.501 4.5"/><path fill="#0098da" d="M43.571 45.421H18.097a.881.881 0 0 1 0-1.764h25.474a2.74 2.74 0 0 0 2.738-2.738V30.316a2.74 2.74 0 0 0-2.738-2.738l-21.15.007a.879.879 0 0 1-.704-.351l-2.28-3.03-1.403 2.879a.883.883 0 0 1-.792.495h-6.479a2.742 2.742 0 0 0-2.739 2.738v3.159a.882.882 0 1 1-1.763 0v-3.159a4.507 4.507 0 0 1 4.502-4.502h5.927l1.792-3.677a.879.879 0 0 1 .793-.495c.275 0 .536.128.704.352l2.881 3.827 20.711-.007a4.507 4.507 0 0 1 4.501 4.502v10.603a4.507 4.507 0 0 1-4.501 4.502"/><path fill="#0098da" d="M32.228 38.715H17.999a.881.881 0 0 1 0-1.764h14.229a.882.882 0 0 1 0 1.764M32.228 34.195H13.706c-.488 0-.881-.395-.881-.882s.393-.882.881-.882h18.522a.882.882 0 0 1 0 1.764M41.764 35.641c.563.604 1.034 1.312 1.034 2.327 0 1.619-1.178 2.699-2.971 2.699-1.086 0-2.853-.399-2.853-1.337 0-.476.457-.784.877-.784.353 0 .536.218.811.347.328.154.746.206 1.035.206.889 0 1.296-.515 1.296-1.118 0-.772-.655-1.389-1.035-1.774-.471-.476-1.021-1.131-1.021-1.787 0-.642.511-.9.917-.9.458 0 .889.322.916.823 0 .116.025.321.104.399.236.244.458.437.89.899"/><path fill="none" stroke="#0098da" stroke-miterlimit="10" stroke-width=".15" d="M41.764 35.641c.563.604 1.034 1.312 1.034 2.327 0 1.619-1.178 2.699-2.971 2.699-1.086 0-2.853-.399-2.853-1.337 0-.476.457-.784.877-.784.353 0 .536.218.811.347.328.154.746.206 1.035.206.889 0 1.296-.515 1.296-1.118 0-.772-.655-1.389-1.035-1.774-.471-.476-1.021-1.131-1.021-1.787 0-.642.511-.9.917-.9.458 0 .889.322.916.823 0 .116.025.321.104.399.236.244.458.437.89.899z"/><path fill="#0098da" d="M39.84 33.212c-.603 0-1.087-.45-1.087-.989 0-.54.484-1.003 1.087-1.003.602 0 1.1.463 1.1 1.003 0 .539-.498.989-1.1.989"/><path fill="none" stroke="#0098da" stroke-miterlimit="10" stroke-width=".15" d="M39.84 33.212c-.603 0-1.087-.45-1.087-.989 0-.54.484-1.003 1.087-1.003.602 0 1.1.463 1.1 1.003 0 .539-.498.989-1.1.989z"/><path fill="#0098da" d="M40.516 13.366H18.765a.881.881 0 1 1 0-1.763h21.751a.882.882 0 0 1 0 1.763M40.516 8.847H18.765a.882.882 0 0 1 0-1.763h21.751a.881.881 0 1 1 0 1.763M12.934 7.877c-.59 0-1.087-.45-1.087-.99 0-.539.497-1.002 1.087-1.002.614 0 1.099.463 1.099 1.002 0 .54-.485.99-1.099.99"/><path fill="none" stroke="#0098da" stroke-miterlimit="10" stroke-width=".15" d="M12.934 7.877c-.59 0-1.087-.45-1.087-.99 0-.539.497-1.002 1.087-1.002.614 0 1.099.463 1.099 1.002 0 .54-.485.99-1.099.99z"/><path fill="#0098da" d="M12.959 8.21c.445 0 .786.322.786.722l.13 5.41c0 .438-.405.836-.916.836-.498 0-.916-.398-.916-.836l.131-5.41c.013-.386.38-.721.785-.721"/><path fill="none" stroke="#0098da" stroke-miterlimit="10" stroke-width=".15" d="M12.959 8.21c.445 0 .786.322.786.722l.13 5.41c0 .438-.405.836-.916.836-.498 0-.916-.398-.916-.836l.131-5.41c.013-.386.38-.721.785-.721z"/><path fill="#0098da" d="M9.07 41.583v-1.238H8.63v1.238a.881.881 0 0 1-.88.882H6.428v.357H7.75c.487 0 .881.395.881.882v1.237h.438v-1.237c0-.487.395-.882.882-.882h1.32v-.357H9.95a.882.882 0 0 1-.882-.882m1.763-1.59v.708h.77c.79 0 1.431.634 1.431 1.413v1.059c0 .779-.641 1.412-1.43 1.412h-.77v.708c0 .779-.643 1.412-1.433 1.412H8.3a1.423 1.423 0 0 1-1.432-1.412v-.708h-.77a1.423 1.423 0 0 1-1.43-1.412v-1.059c0-.779.641-1.413 1.43-1.413h.77v-.708c0-.778.642-1.411 1.431-1.411H9.4c.79 0 1.432.633 1.432 1.411"/><path fill="#0098da" d="M3.69 42.644a5.166 5.166 0 0 0 5.16 5.16c2.846 0 5.16-2.315 5.16-5.16s-2.314-5.16-5.16-5.16a5.166 5.166 0 0 0-5.16 5.16m12.083 0c0 3.817-3.104 6.923-6.922 6.923s-6.923-3.106-6.923-6.923 3.105-6.923 6.923-6.923 6.922 3.106 6.922 6.923"/></g></svg>