<svg xmlns="http://www.w3.org/2000/svg" xml:space="preserve" width="66.667" height="66.667"><defs><clipPath clipPathUnits="userSpaceOnUse" id="a"><path d="M0 50h50V0H0Z"/></clipPath></defs><g clip-path="url(#a)" transform="matrix(1.33333 0 0 -1.33333 0 66.667)"><path d="M0 0a2.094 2.094 0 0 1-2.092-2.091v-15.01c0-1.153.939-2.091 2.092-2.091h13.621c1.153 0 2.091.938 2.091 2.091v15.01A2.093 2.093 0 0 1 13.621 0Zm13.621-20.885H0a3.79 3.79 0 0 0-3.785 3.784v15.01A3.788 3.788 0 0 0 0 1.692h13.621a3.788 3.788 0 0 0 3.784-3.783v-15.01a3.789 3.789 0 0 0-3.784-3.784" style="fill:#0098da;fill-opacity:1;fill-rule:nonzero;stroke:none" transform="translate(31.746 26.954)"/><path d="M0 0h-29.842a3.79 3.79 0 0 0-3.787 3.787v30.669a.85.85 0 1 0 1.7 0V3.787a2.09 2.09 0 0 1 2.087-2.088H0a2.09 2.09 0 0 1 2.088 2.088v1.92a.85.85 0 1 0 1.699 0v-1.92A3.79 3.79 0 0 0 0 0" style="fill:#0098da;fill-opacity:1;fill-rule:nonzero;stroke:none" transform="translate(39.952 .21)"/><path d="M0 0a.85.85 0 0 0-.85.85v4.783a3.889 3.889 0 0 1-1.146 2.768l-7.926 7.926a3.883 3.883 0 0 1-2.763 1.144h-7.695a.85.85 0 1 0 0 1.7h7.696a5.571 5.571 0 0 0 3.964-1.642l7.926-7.926A5.58 5.58 0 0 0 .85 5.633V.85A.85.85 0 0 0 0 0" style="fill:#0098da;fill-opacity:1;fill-rule:nonzero;stroke:none" transform="translate(42.89 26.98)"/><path d="M0 0h-7.078a5.617 5.617 0 0 0-5.611 5.612v7.078a.85.85 0 1 0 1.699 0V5.612A3.917 3.917 0 0 1-7.078 1.7H0A.85.85 0 1 0 0 0" style="fill:#0098da;fill-opacity:1;fill-rule:nonzero;stroke:none" transform="translate(42.824 32.547)"/><path d="M0 0a2.09 2.09 0 0 1-2.088-2.087v-8.257A2.09 2.09 0 0 1 0-12.431h8.771c.737 0 1.462-.2 2.096-.579l4.998-2.988v13.911A2.09 2.09 0 0 1 13.777 0Zm16.118-17.894c-.314 0-.613.1-.866.287l-5.257 3.138c-.37.221-.793.338-1.224.338H0a3.792 3.792 0 0 0-3.788 3.787v8.257A3.792 3.792 0 0 0 0 1.7h13.777a3.792 3.792 0 0 0 3.788-3.787v-14.359a1.44 1.44 0 0 0-.802-1.296 1.456 1.456 0 0 0-.645-.152" style="fill:#0098da;fill-opacity:1;fill-rule:nonzero;stroke:none" transform="translate(5.379 47.992)"/><path d="M0 0h-11.567a.85.85 0 1 0 0 1.699H0A.85.85 0 1 0 0 0" style="fill:#0098da;fill-opacity:1;fill-rule:nonzero;stroke:none" transform="translate(23.46 13.619)"/><path d="M0 0h-5.424a.85.85 0 1 0 0 1.699H0A.85.85 0 1 0 0 0" style="fill:#0098da;fill-opacity:1;fill-rule:nonzero;stroke:none" transform="translate(23.46 7.968)"/><path d="M0 0h-3.23a.85.85 0 1 0 0 1.699H0A.85.85 0 1 0 0 0" style="fill:#0098da;fill-opacity:1;fill-rule:nonzero;stroke:none" transform="translate(15.123 7.968)"/><path d="M0 0h-5.424a.85.85 0 1 0 0 1.699H0A.85.85 0 1 0 0 0" style="fill:#0098da;fill-opacity:1;fill-rule:nonzero;stroke:none" transform="translate(17.317 19.27)"/><path d="M0 0h-3.23a.85.85 0 1 0 0 1.699H0A.85.85 0 1 0 0 0" style="fill:#0098da;fill-opacity:1;fill-rule:nonzero;stroke:none" transform="translate(23.46 19.27)"/><path d="M0 0h-11.567a.85.85 0 1 0 0 1.699H0A.85.85 0 1 0 0 0" style="fill:#0098da;fill-opacity:1;fill-rule:nonzero;stroke:none" transform="translate(23.289 24.923)"/><path d="M0 0a4.704 4.704 0 0 0-3.717 1.855.85.85 0 0 0 1.352 1.032C-1.771 2.106-.852 1.65.147 1.703c1.512 0 2.762.84 2.762 1.833 0 .992-1.246 1.831-2.721 1.831-2.44 0-4.425 1.585-4.425 3.534 0 1.949 1.985 3.533 4.425 3.533 1.52.078 2.97-.631 3.899-1.853a.85.85 0 0 0-1.354-1.029 2.946 2.946 0 0 1-2.51 1.182c-1.512 0-2.761-.839-2.761-1.833S-1.289 7.066.188 7.066c2.438 0 4.42-1.583 4.42-3.53C4.608 1.588 2.622.004.181.004A3.643 3.643 0 0 0 0 0" style="fill:#0098da;fill-opacity:1;fill-rule:nonzero;stroke:none" transform="translate(38.54 11.14)"/><path d="M0 0a.85.85 0 0 0-.85.85v1.788a.85.85 0 0 0 1.7 0V.85A.85.85 0 0 0 0 0" style="fill:#0098da;fill-opacity:1;fill-rule:nonzero;stroke:none" transform="translate(38.729 9.355)"/><path d="M0 0a.85.85 0 0 0-.85.85v1.788a.85.85 0 0 0 1.7 0V.85A.85.85 0 0 0 0 0" style="fill:#0098da;fill-opacity:1;fill-rule:nonzero;stroke:none" transform="translate(38.729 21.874)"/><path d="M0 0h-.061c-4.845-.038-6.701-4.356-6.777-4.54l-.261-.625.328-.592c.105-.189 2.609-4.624 6.721-4.624h.065c4.107.047 6.762 4.502 6.873 4.692l.377.646-.326.673C6.852-4.192 4.761 0 0 0m0-1.4c3.94 0 5.679-3.582 5.679-3.582S3.361-8.943-.001-8.981H-.05c-3.334 0-5.496 3.902-5.496 3.902S-4.026-1.431-.05-1.4H0" style="fill:#0098da;fill-opacity:1;fill-rule:nonzero;stroke:none" transform="translate(11.826 47.117)"/><path d="M0 0a4.117 4.117 0 0 1-4.112-4.112A4.117 4.117 0 0 1 0-8.224a4.117 4.117 0 0 1 4.112 4.112A4.117 4.117 0 0 1 0 0m0-1.4a2.712 2.712 0 1 0 0-5.423A2.712 2.712 0 0 0 0-1.4" style="fill:#0098da;fill-opacity:1;fill-rule:nonzero;stroke:none" transform="translate(11.893 46.039)"/><path d="M0 0a1.339 1.339 0 1 0-2.678 0A1.339 1.339 0 0 0 0 0" style="fill:#0098da;fill-opacity:1;fill-rule:nonzero;stroke:none" transform="translate(13.232 41.927)"/></g></svg>