<svg xmlns="http://www.w3.org/2000/svg" xml:space="preserve" width="66.667" height="66.667"><defs><clipPath id="a" clipPathUnits="userSpaceOnUse"><path d="M0 50h50V0H0Z"/></clipPath></defs><g clip-path="url(#a)" transform="matrix(1.33333 0 0 -1.33333 0 66.667)"><path d="m0 0 .734.02c.318 0 .694.084.694.488 0 .222-.076.518-.737.518H0Zm-.667-3.396c-.352 0-.65.283-.65.619v4.34c0 .36.322.665.704.665H.722c1.828 0 2.025-1.203 2.025-1.72 0-.725-.363-1.26-1.025-1.518l.988-1.41a.568.568 0 0 0 .035-.598.718.718 0 0 0-.604-.371.644.644 0 0 0-.555.288L.298-1.118l-.319-.043L0-2.775c0-.332-.312-.621-.667-.621" style="fill:#0098da;fill-opacity:1;fill-rule:nonzero;stroke:none" transform="translate(5.11 39.398)"/><path d="M0 0c-.545 0-.798-.284-.798-.895v-1.492c0-.582.283-.902.798-.902.515 0 .798.32.798.902v1.492C.798-.284.544 0 0 0m0-4.491c-1.286 0-2.116.826-2.116 2.104v1.492c0 1.332.771 2.097 2.116 2.097 1.345 0 2.117-.765 2.117-2.097v-1.492c0-1.278-.831-2.104-2.117-2.104" style="fill:#0098da;fill-opacity:1;fill-rule:nonzero;stroke:none" transform="translate(10.53 40.492)"/><path d="M0 0c-1.244 0-2.048.785-2.048 1.998v3.075c0 .353.287.619.668.619.353 0 .651-.283.651-.619V1.998c0-.363.126-.796.729-.796.465 0 .722.282.722.796v3.075c0 .342.292.619.651.619.372 0 .675-.277.675-.619V1.998C2.048.785 1.244 0 0 0" style="fill:#0098da;fill-opacity:1;fill-rule:nonzero;stroke:none" transform="translate(15.297 36.001)"/><path d="M0 0H-27.187c.484.658.779 1.462.779 2.338 0 .886-.288 1.7-.762 2.368H0c1.247 0 2.262-1.056 2.262-2.353C2.262 1.056 1.247 0 0 0m-41.964 27.867c-.811 0-1.47.66-1.47 1.47V37.2c0 .811.659 1.47 1.47 1.47h13.893c.811 0 1.47-.659 1.47-1.47V25.187l-3.677 2.198a3.405 3.405 0 0 1-1.746.482zM0 6.405h-30.401c-.027 0-.051-.013-.077-.015h-1.013a.85.85 0 1 1 0-1.7h1.122c1.246 0 2.261-1.055 2.261-2.352 0-1.277-1.007-2.278-2.293-2.278-.034 0-.063-.016-.096-.02a2.774 2.774 0 0 0-2.381 2.737v23.39h.854c.308 0 .61-.084.874-.241l4.134-2.466c.227-.17.509-.264.793-.264.204 0 .409.049.589.139.452.225.733.678.733 1.183v8.952H-6.49a2.596 2.596 0 0 0 2.593-2.592v-3.172a.85.85 0 1 1 1.699 0v3.172A4.296 4.296 0 0 1-6.49 35.17h-18.411v2.03a3.174 3.174 0 0 1-3.17 3.17h-13.893a3.174 3.174 0 0 1-3.17-3.17v-7.863a3.174 3.174 0 0 1 3.17-3.17h7.386V2.777A4.482 4.482 0 0 1-30.1-1.699H0c2.184 0 3.961 1.817 3.961 4.052 0 2.235-1.777 4.052-3.961 4.052" style="fill:#0098da;fill-opacity:1;fill-rule:nonzero;stroke:none" transform="translate(45.587 5.665)"/><path d="M0 0h-15.619a.85.85 0 1 1 0-1.699H0A.85.85 0 1 1 0 0" style="fill:#0098da;fill-opacity:1;fill-rule:nonzero;stroke:none" transform="translate(33.064 21.645)"/><path d="M0 0h-11.064a.85.85 0 1 1 0-1.699H0A.85.85 0 1 1 0 0" style="fill:#0098da;fill-opacity:1;fill-rule:nonzero;stroke:none" transform="translate(33.064 17.207)"/><path d="M0 0a.85.85 0 1 1 0-1.699h2.438a.85.85 0 1 1 0 1.699z" style="fill:#0098da;fill-opacity:1;fill-rule:nonzero;stroke:none" transform="translate(17.446 17.207)"/><path d="M0 0h-3.828a.85.85 0 1 1 0-1.7H0A.85.85 0 1 1 0 0" style="fill:#0098da;fill-opacity:1;fill-rule:nonzero;stroke:none" transform="translate(33.064 26.084)"/><path d="M0 0h9.673a.85.85 0 1 1 0 1.7H0A.85.85 0 0 1 0 0" style="fill:#0098da;fill-opacity:1;fill-rule:nonzero;stroke:none" transform="translate(17.446 24.383)"/><path d="M0 0h-9.384a.85.85 0 0 1 0-1.7H0A.85.85 0 1 1 0 0" style="fill:#0098da;fill-opacity:1;fill-rule:nonzero;stroke:none" transform="translate(33.064 30.521)"/><path d="M0 0a4.935 4.935 0 0 0-4.93-4.929A4.934 4.934 0 0 0-9.858 0 4.934 4.934 0 0 0-4.93 4.929 4.935 4.935 0 0 0 0 0m-1.746-8.776-3.252 1.584a.85.85 0 0 1-.796-.028l-2.513-1.446v2.973a6.588 6.588 0 0 1 6.561-.118zM-11.558 0c0-1.619.585-3.102 1.552-4.254v-5.883a.849.849 0 0 1 1.273-.736l3.396 1.955 4.068-1.982a.85.85 0 0 1 1.222.763v5.665l-.001.004A6.593 6.593 0 0 1 1.699 0 6.637 6.637 0 0 1-4.93 6.629 6.636 6.636 0 0 1-11.558 0" style="fill:#0098da;fill-opacity:1;fill-rule:nonzero;stroke:none" transform="translate(47.816 24.397)"/></g></svg>