<svg xmlns="http://www.w3.org/2000/svg" xml:space="preserve" width="66.667" height="66.667"><defs><clipPath clipPathUnits="userSpaceOnUse" id="a"><path d="M0 50h50V0H0Z"/></clipPath></defs><g clip-path="url(#a)" transform="matrix(1.33333 0 0 -1.33333 0 66.667)"><path d="M0 0h-15.42a.85.85 0 1 0 0 1.699H0A.85.85 0 1 0 0 0" style="fill:#0098da;fill-opacity:1;fill-rule:nonzero;stroke:none" transform="translate(24.673 15.206)"/><path d="M0 0h-10.923a.85.85 0 1 0 0 1.699H0A.85.85 0 1 0 0 0" style="fill:#0098da;fill-opacity:1;fill-rule:nonzero;stroke:none" transform="translate(24.673 8.805)"/><path d="M0 0h-1.48a.85.85 0 1 0 0 1.699H0A.85.85 0 1 0 0 0" style="fill:#0098da;fill-opacity:1;fill-rule:nonzero;stroke:none" transform="translate(10.733 8.805)"/><path d="M0 0h-2.854a.85.85 0 1 0 0 1.699H0A.85.85 0 1 0 0 0" style="fill:#0098da;fill-opacity:1;fill-rule:nonzero;stroke:none" transform="translate(24.673 21.608)"/><path d="M0 0h-9.55a.85.85 0 1 0 0 1.699H0A.85.85 0 1 0 0 0" style="fill:#0098da;fill-opacity:1;fill-rule:nonzero;stroke:none" transform="translate(18.803 21.608)"/><path d="M0 0a.85.85 0 0 0-.85.85v9.811a3.23 3.23 0 0 1-.869 2.211l-6.265 6.581a2.809 2.809 0 0 1-2.045.893h-13.792c-1.053 0-2.606-.931-2.606-1.768v-3.732a.85.85 0 1 0-1.7 0v3.732c0 2.012 2.572 3.468 4.306 3.468h13.792a4.548 4.548 0 0 0 3.276-1.422l6.265-6.58A4.874 4.874 0 0 0 .85 10.661V.85A.85.85 0 0 0 0 0" style="fill:#0098da;fill-opacity:1;fill-rule:nonzero;stroke:none" transform="translate(39.847 26.635)"/><path d="M0 0h-5.597c-2.545 0-4.614 2.155-4.614 4.804v5.877a.85.85 0 1 0 1.699 0V4.804c0-1.711 1.308-3.104 2.915-3.104H0A.85.85 0 1 0 0 0" style="fill:#0098da;fill-opacity:1;fill-rule:nonzero;stroke:none" transform="translate(39.795 37.096)"/><path d="M0 0h-24.682c-1.861 0-3.375 1.57-3.375 3.5v33.418c0 2.038 1.597 3.695 3.56 3.695h16.121a4.869 4.869 0 0 0 3.507-1.522l6.809-7.152a5.227 5.227 0 0 0 1.434-3.626v-2.114a.85.85 0 1 0-1.699 0v2.114c0 .916-.352 1.81-.965 2.454l-6.811 7.152a3.12 3.12 0 0 1-2.275.994h-16.121c-1.025 0-1.859-.895-1.859-1.995V3.5c0-.993.751-1.801 1.674-1.801H0c.923 0 1.675.808 1.675 1.801a.85.85 0 1 0 1.699 0C3.374 1.57 1.86 0 0 0" style="fill:#0098da;fill-opacity:1;fill-rule:nonzero;stroke:none" transform="translate(30.96 1.32)"/><path d="M0 0h-6.083c-2.726 0-4.943 2.309-4.943 5.147v6.388a.85.85 0 0 0 1.7 0V5.147c0-1.9 1.455-3.447 3.243-3.447H0A.85.85 0 1 0 0 0" style="fill:#0098da;fill-opacity:1;fill-rule:nonzero;stroke:none" transform="translate(33.43 29.489)"/><path d="M0 0c-.752 0-1.363-.78-1.363-1.739v-11.717c0-.959.611-1.74 1.363-1.74h11.576c.752 0 1.363.781 1.363 1.74v11.717C12.939-.78 12.328 0 11.576 0Zm11.576-16.896H0c-1.688 0-3.063 1.544-3.063 3.44v11.717C-3.063.157-1.688 1.7 0 1.7h11.576c1.689 0 3.063-1.543 3.063-3.439v-11.717c0-1.896-1.374-3.44-3.063-3.44" style="fill:#0098da;fill-opacity:1;fill-rule:nonzero;stroke:none" transform="translate(32.457 23.582)"/><path d="M0 0c-.943 0-1.867.455-2.459 1.233a.85.85 0 0 0 1.353 1.03c.281-.37.735-.579 1.191-.561.756.001 1.296.388 1.296.734s-.538.732-1.258.732c-1.66 0-2.96 1.069-2.96 2.434 0 1.365 1.3 2.434 2.96 2.434a3.084 3.084 0 0 0 2.579-1.231.85.85 0 0 0-1.354-1.029 1.448 1.448 0 0 1-1.19.561c-.756-.001-1.295-.388-1.295-.735 0-.346.539-.734 1.26-.734 1.659 0 2.958-1.068 2.958-2.432C3.081 1.071 1.78.002.119.002A4.644 4.644 0 0 0 0 0" style="fill:#0098da;fill-opacity:1;fill-rule:nonzero;stroke:none" transform="translate(10.344 27.351)"/><path d="M0 0a.85.85 0 0 0-.85.85v1.056a.85.85 0 0 0 1.7 0V.85A.85.85 0 0 0 0 0" style="fill:#0098da;fill-opacity:1;fill-rule:nonzero;stroke:none" transform="translate(10.467 26.298)"/><path d="M0 0a.85.85 0 0 0-.85.85v1.056a.85.85 0 0 0 1.7 0V.85A.85.85 0 0 0 0 0" style="fill:#0098da;fill-opacity:1;fill-rule:nonzero;stroke:none" transform="translate(10.467 33.687)"/><path d="M0 0a4.22 4.22 0 0 0-4.215 4.215A4.22 4.22 0 0 0 0 8.431a.85.85 0 0 0 0-1.7 2.518 2.518 0 0 1-2.515-2.516A2.518 2.518 0 0 1 0 1.7.85.85 0 0 0 0 0" style="fill:#0098da;fill-opacity:1;fill-rule:nonzero;stroke:none" transform="translate(19.71 27.17)"/><path d="M0 0h-3.559a.85.85 0 0 0 0 1.7H0A.85.85 0 0 0 0 0" style="fill:#0098da;fill-opacity:1;fill-rule:nonzero;stroke:none" transform="translate(18.965 30.535)"/><path d="M0 0h-11.012a.848.848 0 1 0 0 1.699H0A.85.85 0 1 0 0 0" style="fill:#0098da;fill-opacity:1;fill-rule:nonzero;stroke:none" transform="translate(43.751 12.169)"/><path d="M0 0h3.967l.381 3.807H-.381Zm4.736-1.699H-.77a.849.849 0 0 0-.845.764l-.551 5.506a.851.851 0 0 0 .846.935h6.607a.853.853 0 0 0 .846-.935L5.582-.935a.849.849 0 0 0-.846-.764" style="fill:#0098da;fill-opacity:1;fill-rule:nonzero;stroke:none" transform="translate(36.262 8.362)"/><path d="M0 0a1.078 1.078 0 0 1 0-2.154A1.078 1.078 0 0 1 0 0m0-3.854a2.78 2.78 0 0 0-2.776 2.777A2.779 2.779 0 0 0 0 1.699a2.779 2.779 0 0 0 2.776-2.776A2.78 2.78 0 0 0 0-3.854" style="fill:#0098da;fill-opacity:1;fill-rule:nonzero;stroke:none" transform="translate(38.245 19.877)"/><path d="M0 0a.85.85 0 0 0-.647.299c-.868 1.018-2.608 1.02-3.477 0A.85.85 0 1 0-5.419 1.4a3.977 3.977 0 0 0 3.033 1.401A3.97 3.97 0 0 0 .647 1.4.85.85 0 0 0 0 0" style="fill:#0098da;fill-opacity:1;fill-rule:nonzero;stroke:none" transform="translate(40.63 14.371)"/></g></svg>