<svg xmlns="http://www.w3.org/2000/svg" xml:space="preserve" width="66.667" height="71.337"><defs><clipPath clipPathUnits="userSpaceOnUse" id="a"><path d="M0 53.503h50V0H0Z"/></clipPath></defs><g clip-path="url(#a)" transform="matrix(1.33333 0 0 -1.33333 0 71.337)"><path d="M0 0c0 1.185.965 2.149 2.15 2.149h13.928c1.186 0 2.15-.964 2.15-2.149v-14.132l-5.113 3.056a4.086 4.086 0 0 1-2.098.579H2.15c-1.185 0-2.15.965-2.15 2.15zm19.08-15.789c.485.243.787.731.787 1.273v13.087h7.349V-7.83a5.64 5.64 0 0 1 5.634-5.634h6.401v-4.022H28.806a3.79 3.79 0 0 1-3.786-3.785v-15.173a3.79 3.79 0 0 1 3.786-3.786H39.29c-.016-.064-.039-.125-.039-.194v-1.94a2.153 2.153 0 0 0-2.15-2.151H6.934c-1.185 0-2.15.965-2.15 2.151v30.228h6.233c.442 0 .878-.12 1.257-.347l5.318-3.173a1.431 1.431 0 0 1 1.488-.133m19 5.179c.355-.355.628-.769.825-1.215H32.85a4 4 0 0 0-3.996 3.995v6.052c.449-.198.865-.47 1.215-.82zm6.649-10.661v-15.173a2.157 2.157 0 0 0-2.154-2.154H28.806a2.156 2.156 0 0 0-2.154 2.154v15.173c0 1.187.966 2.154 2.154 2.154h13.769a2.157 2.157 0 0 0 2.154-2.154M2.15-12.136h.995v-30.228c0-2.09 1.7-3.789 3.789-3.789h30.167a3.794 3.794 0 0 1 3.789 3.789v1.94c0 .069-.024.13-.039.194h1.724a3.79 3.79 0 0 1 3.786 3.786v15.173a3.79 3.79 0 0 1-3.786 3.785H40.89v4.049a5.602 5.602 0 0 1-1.65 3.986l-8.012 8.013A5.592 5.592 0 0 1 27.249.21h-7.403c-.112 1.99-1.751 3.579-3.768 3.579H2.15A3.794 3.794 0 0 1-1.639 0v-8.347c0-2.089 1.7-3.789 3.789-3.789" style="fill:#0098da;fill-opacity:1;fill-rule:nonzero;stroke:none" transform="translate(4.299 48.37)"/><path d="M0 0h-1.062v2.507H0c.949 0 1.411-.41 1.411-1.254C1.411.41.949 0 0 0m-1.804-4.128c.395 0 .742.32.742.687v2.131H0c1.812 0 2.895.954 2.895 2.552 0 1.619-1.083 2.586-2.895 2.586h-1.711c-.452 0-.834-.345-.834-.753v-6.516c0-.367.346-.687.741-.687" style="fill:#0098da;fill-opacity:1;fill-rule:nonzero;stroke:none" transform="translate(9.758 44.524)"/><path d="M0 0h1.307v-5.97c0-.361.339-.665.741-.665.395 0 .742.311.742.665V0h1.307c.401 0 .753.306.753.655 0 .355-.352.666-.753.666H0c-.418 0-.742-.358-.742-.666C-.742.293-.409 0 0 0" style="fill:#0098da;fill-opacity:1;fill-rule:nonzero;stroke:none" transform="translate(14.312 47.03)"/><path d="M0 0c.64-.768 1.019-1.424 1.019-1.661 0-.562-.458-1.02-1.019-1.02-.562 0-1.02.458-1.02 1.02C-1.02-1.424-.642-.77 0 0m8.818-2.668A1.02 1.02 0 0 0 7.8-1.648c0 .237.379.891 1.018 1.661.641-.769 1.019-1.423 1.019-1.661a1.02 1.02 0 0 0-1.019-1.02M0-4.318a2.66 2.66 0 0 1 2.657 2.657c0 .624-.385 1.357-.884 2.053l1.908.01v-7.798H2.372a.819.819 0 1 1 0-1.639h4.256a.819.819 0 0 1 0 1.639h-1.31V.411l1.739.01c-.505-.699-.896-1.441-.896-2.069a2.662 2.662 0 0 1 2.657-2.659 2.662 2.662 0 0 1 2.658 2.659c0 1.044-1.073 2.403-1.968 3.353-.039.043-.094.063-.14.096a.81.81 0 0 1-.598.268h-.005L5.318 2.05v1.957a.82.82 0 1 1-1.637 0V2.04L.225 2.021c-.063 0-.119-.023-.176-.037-.018.001-.032.01-.049.01h-.005a1.077 1.077 0 0 1-.681-.296c-.9-.956-1.972-2.314-1.972-3.359A2.66 2.66 0 0 1 0-4.318" style="fill:#0098da;fill-opacity:1;fill-rule:nonzero;stroke:none" transform="translate(35.465 22.471)"/><path d="M0 0h-5.483a.819.819 0 1 1 0-1.639H0A.82.82 0 0 1 0 0" style="fill:#0098da;fill-opacity:1;fill-rule:nonzero;stroke:none" transform="translate(24.728 12.66)"/><path d="M0 0h-11.693a.819.819 0 1 1 0-1.638H0A.82.82 0 0 1 0 0" style="fill:#0098da;fill-opacity:1;fill-rule:nonzero;stroke:none" transform="translate(24.728 18.133)"/><path d="M0 0h-3.265a.819.819 0 1 1 0-1.639H0A.82.82 0 1 1 0 0" style="fill:#0098da;fill-opacity:1;fill-rule:nonzero;stroke:none" transform="translate(16.3 12.66)"/><path d="M0 0h-5.483a.819.819 0 1 1 0-1.639H0A.82.82 0 0 1 0 0" style="fill:#0098da;fill-opacity:1;fill-rule:nonzero;stroke:none" transform="translate(24.728 23.266)"/><path d="M0 0a.82.82 0 0 1 .82-.82h11.693a.82.82 0 0 1 0 1.64H.82A.82.82 0 0 1 0 0" style="fill:#0098da;fill-opacity:1;fill-rule:nonzero;stroke:none" transform="translate(12.215 27.92)"/><path d="M0 0h3.265a.819.819 0 1 1 0 1.639H0A.82.82 0 1 1 0 0" style="fill:#0098da;fill-opacity:1;fill-rule:nonzero;stroke:none" transform="translate(13.034 21.627)"/></g></svg>