<svg xmlns="http://www.w3.org/2000/svg" xml:space="preserve" width="66.67" height="73.33"><defs><clipPath clipPathUnits="userSpaceOnUse" id="a"><path d="M0 55h50V0H0Z"/></clipPath></defs><g clip-path="url(#a)" transform="matrix(1.33333 0 0 -1.33333 0 73.33)"><path d="M11.39 29.25h12.09a.85.85 0 0 1 0 1.7H11.39a.85.85 0 0 1 0-1.7M38.5 29.25a.85.85 0 1 1 0 1.7H27.95a.85.85 0 1 1 0-1.7zM11.39 24.74h27.12a.85.85 0 1 1 0 1.7H11.39a.85.85 0 0 1 0-1.7M21.12 21.93h-9.73a.85.85 0 1 1 0-1.7h9.73a.85.85 0 1 1 0 1.7" fill="#0098da"/><path d="M47.02 38.9H36.5c-.3 0-.61-.08-.87-.24l-4.91-2.94-.1 14.75h16.41Zm-33.22-.23a1.7 1.7 0 0 1-.84.23H2.42v11.57h16.44l.1-14.76zm34.29 13.5H29.53a.63.63 0 0 1-.64-.64l.04-5.35H20.6l-.04 5.35c0 .35-.29.64-.63.64H1.35a.63.63 0 0 1-.63-.64v-13.7c0-.35.28-.63.63-.63h2.12V12.76a3.2 3.2 0 0 1 3.16-3.2H17.6V3.7h-5.32a.85.85 0 1 1 0-1.7h6.17c.47 0 .85.38.85.85v7.59c0 .47-.38.84-.85.84H6.64c-.82 0-1.47.68-1.47 1.49V37.2h7.79l6.7-3.86a.63.63 0 0 1 .66-.06c.22.1.35.33.35.57l-.07 10.63h8.34l.08-10.63a.63.63 0 0 1 1.01-.5l6.46 3.85h7.39V24.1a.85.85 0 0 1 1.7 0V37.2h2.5c.36 0 .64.28.64.63v13.7c0 .35-.28.64-.63.64" fill="#0098da"/><path d="M8.53 47.52c-.27 0-.5-.22-.5-.47v-1.7H6.46v1.7c0 .25-.24.47-.52.47s-.5-.22-.5-.47V42.7c0-.26.22-.48.5-.48s.52.22.52.48v1.7h1.55v-1.7c0-.26.24-.48.51-.48.28 0 .52.22.52.48v4.35c0 .25-.24.47-.52.47M10.6 47.52c-.28 0-.5-.22-.5-.47v-4.36c0-.25.22-.47.5-.47s.52.22.52.47v4.36c0 .25-.24.47-.51.47M15.44 47.52c-.28 0-.52-.22-.52-.48v-2.77l-1.7 2.98a.6.6 0 0 1-.5.27c-.3 0-.53-.21-.53-.5V42.7c0-.26.22-.48.5-.48s.52.22.52.48v2.74l1.7-2.96a.6.6 0 0 1 .49-.26c.32 0 .54.23.54.5v4.32a.5.5 0 0 1-.5.48M35.58 42.1h2.54c.15 0 .27.06.36.17.09.1.13.22.13.37s-.04.27-.13.37c-.1.1-.22.16-.36.16h-2.04v1.25h1.4c.15 0 .27.06.36.16.1.1.14.23.14.37 0 .15-.05.28-.14.38-.1.1-.21.16-.36.16h-1.4v1.2h2.04c.14 0 .27.06.36.16.09.1.13.22.13.37s-.04.28-.13.38c-.09.1-.21.16-.36.16h-2.54a.47.47 0 0 1-.37-.17.58.58 0 0 1-.13-.39v-4.54c0-.15.04-.27.13-.38.1-.12.22-.18.37-.18M39.74 42.1c.15 0 .28.06.37.17.09.1.13.23.13.38v1.89c0 .12.03.23.08.33a.62.62 0 0 0 .55.32c.21 0 .37-.07.5-.2.12-.15.18-.38.18-.7v-1.64c0-.15.05-.28.14-.38a.47.47 0 0 1 .73 0c.08.1.13.23.13.38v1.65c0 .39-.07.73-.2 1.01-.13.3-.31.52-.56.68a1.48 1.48 0 0 1-1.64-.03.46.46 0 0 1-.41.23.47.47 0 0 1-.36-.17.57.57 0 0 1-.13-.38v-3c0-.14.04-.27.13-.37.09-.11.22-.17.36-.17M36.1 13.05a.98.98 0 1 0 0-1.96.98.98 0 0 0 0 1.96m0-3.66a2.68 2.68 0 1 1 0 5.37 2.68 2.68 0 0 1 0-5.37" fill="#0098da"/><path d="M30.6 15.08a6.24 6.24 0 0 1-.38-5.17 13.86 13.86 0 0 0-1.72 2.31s.63 1.5 2.1 2.86m13.11-2.73s-.58-.99-1.6-2.12a6.25 6.25 0 0 1-.43 4.72 9.84 9.84 0 0 0 2.03-2.6m-7.6 4.3a4.58 4.58 0 1 0 0-9.16 4.58 4.58 0 0 0 0 9.16m-.16-11.42h.08c5.46.07 9 6.01 9.15 6.26l.46.79-.4.82c-.12.23-2.9 5.8-9.22 5.8h-.09c-6.43-.04-8.9-5.78-9-6.02l-.31-.76.4-.72c.13-.25 3.47-6.17 8.93-6.17" fill="#0098da"/><path d="M46.59 3.69H25.63v16.77h20.96zm.85 18.46H24.78a.85.85 0 0 1-.85-.84V2.84c0-.47.38-.85.85-.85h22.66c.47 0 .85.38.85.85V21.3c0 .47-.39.85-.85.85" fill="#0098da"/></g></svg>