<svg xmlns="http://www.w3.org/2000/svg" xml:space="preserve" width="69.33" height="76.61"><defs><clipPath clipPathUnits="userSpaceOnUse" id="a"><path d="M0 57.45h52V0H0Z"/></clipPath></defs><g clip-path="url(#a)" transform="matrix(1.33333 0 0 -1.33333 0 76.6)"><path d="M31.36 27.15a5.54 5.54 0 0 1-.23 2.94c.8-.87 1.17-1.64 1.17-1.64s-.34-.57-.94-1.3m-11.78 1.2s.37.86 1.19 1.8a5.5 5.5 0 0 1-.2-3.23 10.9 10.9 0 0 0-1 1.42m10.2-.12a3.83 3.83 0 1 0-7.66 0 3.83 3.83 0 0 0 7.66 0m-3.9 6h-.08c-5.56-.05-7.7-5.01-7.78-5.22l-.32-.76.4-.72c.12-.22 3-5.3 7.72-5.3h.07c4.72.05 7.76 5.16 7.89 5.37l.46.79-.4.81c-.1.2-2.5 5.02-7.97 5.02" fill="#ffffff"/><path d="M26.83 28.22a.9.9 0 0 0-1.78 0 .89.89 0 0 0 1.78 0m-3.48 0a2.6 2.6 0 1 1 5.18 0 2.6 2.6 0 0 1-5.18 0" fill="#ffffff"/><path d="M46.5 26.36a2.92 2.92 0 1 0 0 5.84 2.92 2.92 0 0 0 0-5.84m-10.04.3a10.67 10.67 0 0 0-4.6-6.8 10.67 10.67 0 0 0-12.85.75c-.02.03-.03.06-.06.08l-.1.07a10.74 10.74 0 1 0 17.61 5.9M29.71 8.52a2.92 2.92 0 1 0-5.85.01 2.92 2.92 0 0 0 5.85 0m-6.9 40.46a2.92 2.92 0 1 0 5.84 0 2.92 2.92 0 0 0-5.84 0m18.13-31.25A2.92 2.92 0 0 0 43 12.75a2.98 2.98 0 0 0-4.12 0 2.92 2.92 0 0 0 2.06 4.98M14.4 12a2.92 2.92 0 1 0-4.12 4.13A2.92 2.92 0 0 0 14.39 12M6.03 25.3a2.92 2.92 0 1 0 0 5.84 2.92 2.92 0 0 0 0-5.84m3.49 15.32a2.92 2.92 0 1 0 4.13 4.12 2.92 2.92 0 0 0-4.13-4.12m28.61 4.87a2.9 2.9 0 0 0 4.12 0 2.92 2.92 0 1 0-4.12 0m8.36-11.6a4.61 4.61 0 0 1-4.53-3.8c-.07.01-.14.04-.21.04H38.3a12.37 12.37 0 0 1-3.17 7.04l2.3 2.3c.05.05.08.12.12.18a4.6 4.6 0 1 1-1.14 1.14c-.07-.03-.13-.06-.18-.12l-2.32-2.31a12.38 12.38 0 0 1-7.34 2.86v3.01c0 .08-.02.15-.04.22a4.62 4.62 0 1 1-1.62 0c-.02-.07-.04-.14-.04-.22V41.2a12.47 12.47 0 0 1-7.36-3.26l-1.99 1.98c-.05.06-.11.09-.18.12a4.62 4.62 0 1 1-1.14-1.14l.12-.18 2.01-2a12.36 12.36 0 0 1-2.83-7.65h-2.74c-.07 0-.14-.03-.21-.05a4.62 4.62 0 1 1 0-1.61c.07-.02.14-.04.21-.04h2.82a12.5 12.5 0 0 1 3.52-7.32l-2.03-2.03c-.05-.05-.08-.12-.12-.18a4.61 4.61 0 1 1 1.14-1.14c.07.03.13.06.18.12l2.12 2.11a12.33 12.33 0 0 1 7.54-2.56v-3.11c0-.08.02-.15.04-.22a4.61 4.61 0 1 1 1.62 0c.02.07.04.14.04.22v3.22a12.39 12.39 0 0 1 7 3.44l2.35-2.35c.05-.05.11-.09.18-.12a4.61 4.61 0 1 1 1.14 1.14c-.04.06-.07.13-.12.18l-2.42 2.42a12.37 12.37 0 0 1 2.6 7.24h3.38c.07 0 .14.02.21.04a4.61 4.61 0 1 1 4.53 5.42" fill="#ffffff"/></g></svg>