<svg width="25" height="24" viewBox="0 0 25 24" fill="none" xmlns="http://www.w3.org/2000/svg">
<path d="M24.2676 5.0642H18.7012V0.730414C18.7012 0.327031 18.3732 0 17.9688 0H0.732422C0.32793 0 0 0.327031 0 0.730414V19.6238C0 21.6375 1.64282 23.2759 3.66211 23.2759H21.3379C23.3572 23.2759 25 21.6375 25 19.6238V5.79462C25 5.39123 24.6721 5.0642 24.2676 5.0642ZM3.66211 21.815C2.45054 21.815 1.46484 20.832 1.46484 19.6238V1.46083H17.2363C17.2363 20.7665 17.2271 19.6931 17.2531 19.9684C17.3168 20.6455 17.57 21.2841 17.9705 21.815H3.66211ZM23.5352 19.6238C23.5352 20.832 22.5495 21.815 21.3379 21.815C21.1735 21.815 21.0598 21.815 20.8984 21.815C19.6869 21.815 18.7012 20.832 18.7012 19.6238V6.52503H23.5352V19.6238Z" fill="white"/>
<path d="M14.8438 3.50599H3.90625C3.50176 3.50599 3.17383 3.83302 3.17383 4.2364C3.17383 4.63978 3.50176 4.96682 3.90625 4.96682H14.8438C15.2482 4.96682 15.5762 4.63978 15.5762 4.2364C15.5762 3.83302 15.2482 3.50599 14.8438 3.50599Z" fill="white"/>
<path d="M14.8438 6.62242H3.90625C3.50176 6.62242 3.17383 6.94945 3.17383 7.35284C3.17383 7.75622 3.50176 8.08325 3.90625 8.08325H14.8438C15.2482 8.08325 15.5762 7.75622 15.5762 7.35284C15.5762 6.94945 15.2482 6.62242 14.8438 6.62242Z" fill="white"/>
<path d="M14.8438 18.309H3.90625C3.50176 18.309 3.17383 18.6361 3.17383 19.0395C3.17383 19.4428 3.50176 19.7699 3.90625 19.7699H14.8438C15.2482 19.7699 15.5762 19.4428 15.5762 19.0395C15.5762 18.6361 15.2482 18.309 14.8438 18.309Z" fill="white"/>
<path d="M14.8438 9.73885H9.375C8.97051 9.73885 8.64258 10.0659 8.64258 10.4693V15.923C8.64258 16.3264 8.97051 16.6534 9.375 16.6534H14.8438C15.2482 16.6534 15.5762 16.3264 15.5762 15.923V10.4693C15.5762 10.0659 15.2482 9.73885 14.8438 9.73885ZM14.1113 15.1926H10.1074V11.1997H14.1113V15.1926Z" fill="white"/>
<path d="M3.90625 12.3683H6.25C6.65449 12.3683 6.98242 12.0413 6.98242 11.6379C6.98242 11.2345 6.65449 10.9075 6.25 10.9075H3.90625C3.50176 10.9075 3.17383 11.2345 3.17383 11.6379C3.17383 12.0413 3.50176 12.3683 3.90625 12.3683Z" fill="white"/>
<path d="M3.90625 15.4848H6.25C6.65449 15.4848 6.98242 15.1577 6.98242 14.7544C6.98242 14.351 6.65449 14.024 6.25 14.024H3.90625C3.50176 14.024 3.17383 14.351 3.17383 14.7544C3.17383 15.1577 3.50176 15.4848 3.90625 15.4848Z" fill="white"/>
</svg>
