<svg width="60" height="60" viewBox="0 0 60 60" fill="none" xmlns="http://www.w3.org/2000/svg">
<path d="M38.663 26.6349C38.663 26.0621 38.2334 25.4893 37.5174 25.4893H36.515V20.6205C36.515 19.7613 35.7991 19.0454 34.9399 19.0454H29.3551V11.4559C29.3551 10.5967 28.6391 9.88068 27.78 9.88068H21.4792C20.6201 9.88068 19.9041 10.5967 19.9041 11.4559V14.463H14.3193C13.4602 14.463 12.7442 15.179 12.7442 16.0382V25.4893H11.7418C11.169 25.4893 10.5962 25.9189 10.5962 26.6349C10.5962 27.3508 11.0258 27.7804 11.7418 27.7804H37.5174C38.0902 27.7804 38.663 27.2076 38.663 26.6349ZM19.9041 25.4893H14.8921V16.611H19.9041V25.4893ZM27.064 25.4893H22.052V12.1718H27.064V25.4893ZM34.2239 25.4893H29.2119V21.1933H34.2239V25.4893Z" fill="#FF8A00"/>
<path d="M30.5009 34.9403L28.6393 30.0716C28.4961 29.642 28.0665 29.3556 27.6369 29.3556C27.2073 29.3556 26.7777 29.642 26.6345 30.0716L24.2002 36.6587L22.625 32.0764C22.4818 31.6468 22.0522 31.3604 21.6226 31.3604C21.193 31.3604 20.9066 31.6468 20.6202 31.9332L18.9018 34.9403H14.7491C14.1763 34.9403 13.6035 35.3699 13.6035 36.0859C13.6035 36.8019 14.0331 37.2315 14.7491 37.2315H19.4746C19.9042 37.2315 20.1906 36.9451 20.477 36.6587L21.3362 35.2267L23.1978 40.525C23.341 40.9546 23.7706 41.241 24.2002 41.241C24.6298 41.241 25.0594 40.9546 25.2026 40.525L27.6369 33.7947L28.7825 36.5155C28.9257 36.9451 29.3553 37.2315 29.7849 37.2315H34.6536C35.2264 37.2315 35.7992 36.8019 35.7992 36.0859C35.7992 35.3699 35.3696 34.9403 34.6536 34.9403H30.5009Z" fill="#FF8A00"/>
<path d="M58.7112 27.0644C59.4272 27.0644 60 26.4916 60 25.7757C60 25.0597 59.4272 24.4869 58.7112 24.4869H49.2601C49.2601 24.0573 49.2601 23.6277 49.2601 23.1981H53.5561C54.2721 23.1981 54.8449 22.6253 54.8449 21.9093C54.8449 21.1933 54.2721 20.6205 53.5561 20.6205H48.9737C48.401 17.6134 47.3986 14.6062 45.8234 12.0286C45.3938 11.4558 44.6778 11.1695 44.105 11.599C43.5322 12.0286 43.2458 12.7446 43.6754 13.3174C45.6802 16.7542 46.8258 20.6205 46.8258 24.6301C46.8258 36.6587 36.9451 46.5394 24.7733 46.5394C13.3174 46.5394 4.00955 37.9475 2.86396 26.9212C2.86396 26.3484 2.72076 25.6325 2.72076 25.0597C2.72076 12.7446 12.7446 2.86396 24.9165 2.72076C28.926 2.72076 32.7924 3.86635 36.0859 5.87112C36.8019 6.30072 37.2315 6.73031 38.0907 7.3031C38.3771 7.4463 38.6635 7.7327 38.9499 7.7327C39.2363 7.7327 39.6659 7.5895 39.8091 7.3031C40.3819 6.73031 40.2387 6.01432 39.8091 5.44153C38.9499 4.58234 37.6611 3.72315 36.6587 3.29356C33.0788 1.14558 28.926 0 24.6301 0C11.0263 0 0 11.0263 0 24.4869C0 36.2291 8.44869 46.1098 19.6181 48.401V53.5561C19.6181 54.2721 20.1909 54.8449 20.9069 54.8449C21.6229 54.8449 22.1957 54.2721 22.1957 53.5561V48.8305C22.6253 48.8305 23.0549 48.8305 23.4845 48.8305V58.7112C23.4845 59.4272 24.0573 60 24.7733 60C25.4893 60 26.0621 59.4272 26.0621 58.7112V48.8305C26.4916 48.8305 26.9212 48.8305 27.3508 48.6873V53.4129C27.3508 54.1289 27.9236 54.7017 28.6396 54.7017C29.3556 54.7017 29.9284 54.1289 29.9284 53.4129V48.2578C33.5084 47.5418 36.8019 45.9666 39.6659 43.6754L42.1002 46.1098C41.957 46.5394 41.8138 46.969 41.8138 47.5418C41.8138 48.5442 42.1002 49.4033 42.8162 50.1193L50.5489 58.568C51.2649 59.284 52.2673 59.7136 53.1265 59.7136C53.9857 59.7136 54.8449 59.4272 55.5609 58.7112L57.9952 56.42C58.7112 55.7041 59.1408 54.8449 59.1408 53.9857C59.1408 52.9833 58.8544 52.1241 58.1384 51.4081L55.7041 48.8305C55.2745 48.401 54.5585 48.401 54.1289 48.8305C53.6993 49.2601 53.6993 49.9761 54.1289 50.4057L56.5632 52.9833C56.8496 53.2697 56.8496 53.5561 56.8496 53.8425C56.8496 54.1289 56.7064 54.5585 56.42 54.7017L53.9857 57.2792C53.4129 57.7088 52.6969 57.7088 52.1241 57.136L44.3914 48.8305C44.105 48.5441 44.105 48.2578 44.105 47.9714C44.105 47.685 44.2482 47.2554 44.5346 47.1122L46.969 44.821C47.5418 44.3914 48.2578 44.3914 48.8305 44.9642L51.5513 47.9714C51.9809 48.401 52.6969 48.401 53.1265 47.9714C53.5561 47.5418 53.5561 46.8258 53.1265 46.3962L50.4057 43.389C49.4033 42.2434 47.8282 41.957 46.5394 42.3866L43.9618 39.8091C45.9666 37.2315 47.5418 34.2243 48.401 30.9308H53.5561C54.2721 30.9308 54.8449 30.358 54.8449 29.642C54.8449 28.926 54.2721 28.3532 53.5561 28.3532H48.9737C48.9737 27.9236 49.1169 27.494 49.1169 27.2076H58.7112V27.0644ZM42.5298 41.241L44.821 43.5322L43.5322 44.6778L41.3842 42.5298C41.3842 42.5298 41.3842 42.5298 41.5274 42.3866C41.8138 42.1002 42.2434 41.6706 42.5298 41.241Z" fill="#FF8A00"/>
<path d="M42.0998 10.4535C42.8116 10.4535 43.3886 9.87644 43.3886 9.16467C43.3886 8.45289 42.8116 7.87589 42.0998 7.87589C41.388 7.87589 40.811 8.45289 40.811 9.16467C40.811 9.87644 41.388 10.4535 42.0998 10.4535Z" fill="#FF8A00"/>
</svg>
