<svg width="63" height="62" viewBox="0 0 63 62" fill="none" xmlns="http://www.w3.org/2000/svg">
<path d="M43.6046 32.2232C44.2777 32.2232 44.8284 31.6783 44.8284 31.0122C44.8284 30.3462 44.2777 29.8013 43.6046 29.8013H39.2845V27.5248H41.7689C42.4419 27.5248 42.9927 26.9798 42.9927 26.3138C42.9927 25.6478 42.4419 25.1029 41.7689 25.1029H39.2845V24.3521C39.2845 23.6861 38.7338 23.1412 38.0607 23.1412H37.3019V20.683C37.3019 20.0169 36.7512 19.472 36.0781 19.472C35.405 19.472 34.8543 20.0169 34.8543 20.683V23.1412H32.5657V18.8787C32.5657 18.2126 32.015 17.6677 31.3419 17.6677C30.6688 17.6677 30.1181 18.2126 30.1181 18.8787V23.1412H27.8173V20.683C27.8173 20.0169 27.2666 19.472 26.5935 19.472C25.9204 19.472 25.3697 20.0169 25.3697 20.683V23.1412H24.6109C23.9378 23.1412 23.3871 23.6861 23.3871 24.3521V25.1029H20.9028C20.2297 25.1029 19.679 25.6478 19.679 26.3138C19.679 26.9798 20.2297 27.5248 20.9028 27.5248H23.3871V29.8013H19.0793C18.4062 29.8013 17.8555 30.3462 17.8555 31.0122C17.8555 31.6783 18.4062 32.2232 19.0793 32.2232H23.3871V34.4997H20.9028C20.2297 34.4997 19.679 35.0447 19.679 35.7107C19.679 36.3767 20.2297 36.9216 20.9028 36.9216H23.3871V37.6724C23.3871 38.3384 23.9378 38.8833 24.6109 38.8833H25.3697V41.3415C25.3697 42.0076 25.9204 42.5525 26.5935 42.5525C27.2666 42.5525 27.8173 42.0076 27.8173 41.3415V38.8833H30.1181V43.1579C30.1181 43.824 30.6688 44.3689 31.3419 44.3689C32.015 44.3689 32.5657 43.824 32.5657 43.1579V38.8833H34.8665V41.3415C34.8665 42.0076 35.4172 42.5525 36.0903 42.5525C36.7634 42.5525 37.3142 42.0076 37.3142 41.3415V38.8833H38.0729C38.746 38.8833 39.2967 38.3384 39.2967 37.6724V36.9216H41.7811C42.4542 36.9216 43.0049 36.3767 43.0049 35.7107C43.0049 35.0447 42.4542 34.4997 41.7811 34.4997H39.2967V32.2232H43.6046ZM25.8348 36.4494V25.563H36.8369V36.4494H25.8348Z" fill="#FF8A00"/>
<path d="M58.5106 26.8949C56.6504 26.8949 55.0595 28.118 54.5455 29.8012H49.7236C49.7236 29.7527 49.7114 29.7043 49.7114 29.6438C49.6624 28.9777 49.075 28.4813 48.4019 28.5297C47.7288 28.5781 47.227 29.1594 47.276 29.8254C47.79 36.643 43.8493 42.9883 37.461 45.6039C29.3226 48.934 19.9604 45.1074 16.5949 37.0547C13.2294 29.002 17.0967 19.7383 25.2351 16.4082C31.6234 13.7926 38.954 15.5121 43.4577 20.6949C43.8983 21.2035 44.6693 21.2641 45.1833 20.8281C45.6973 20.3922 45.7585 19.6293 45.3179 19.1207C45.2812 19.0844 45.2445 19.048 45.2077 18.9996L48.61 15.6332C49.1974 15.948 49.8705 16.1055 50.5558 16.1055C51.6695 16.1055 52.7097 15.6816 53.493 14.9066C54.2762 14.1316 54.7046 13.1023 54.7046 12.0004C54.7046 10.8984 54.2762 9.86914 53.493 9.09414C52.7097 8.31914 51.6695 7.89531 50.5558 7.89531C49.4421 7.89531 48.4019 8.31914 47.6187 9.09414C46.8354 9.86914 46.4071 10.8984 46.4071 12.0004C46.4071 12.6785 46.5784 13.3324 46.8844 13.9258L43.4822 17.2922C40.3982 14.616 36.5554 13.0781 32.578 12.8238V8.05273C34.2791 7.53203 35.5151 5.96992 35.5151 4.11719C35.5151 1.85273 33.6549 0 31.3542 0C29.0656 0 27.1932 1.84063 27.1932 4.11719C27.1932 5.96992 28.4292 7.53203 30.1303 8.05273V12.8238C28.1722 12.957 26.2019 13.4051 24.305 14.1801C22.3958 14.9672 20.6947 16.0207 19.2261 17.3043L15.7995 13.9258C16.1177 13.3445 16.2767 12.6785 16.2767 12.0004C16.2767 10.8984 15.8484 9.86914 15.0652 9.09414C14.2819 8.31914 13.2417 7.89531 12.128 7.89531C11.0143 7.89531 9.9741 8.31914 9.19085 9.09414C8.40761 9.86914 7.96704 10.8984 7.96704 12.0004C7.96704 13.1023 8.39537 14.1316 9.17862 14.9066C9.96186 15.6816 11.0021 16.1055 12.1158 16.1055C12.8011 16.1055 13.462 15.9359 14.0616 15.6332L17.4761 19.0117C14.8204 22.0148 13.2294 25.8172 12.9602 29.8012H8.13837C7.61213 28.118 6.03341 26.8949 4.16097 26.8949C1.87244 26.8949 0 28.7355 0 31.0121C0 33.2766 1.8602 35.1293 4.16097 35.1293C6.03341 35.1293 7.61213 33.9062 8.13837 32.223H12.9602C13.0948 34.1605 13.5354 36.098 14.3186 37.9871C15.1141 39.8762 16.1911 41.5594 17.4761 43.0125L14.0739 46.391C13.4864 46.0762 12.8133 45.9188 12.128 45.9188C11.0143 45.9188 9.9741 46.3426 9.19085 47.1176C8.40761 47.8926 7.97928 48.9219 7.97928 50.0238C7.97928 51.1258 8.40761 52.1551 9.19085 52.9301C9.9741 53.7051 11.0143 54.1289 12.128 54.1289C13.2417 54.1289 14.2819 53.7051 15.0652 52.9301C15.8484 52.1551 16.2767 51.1258 16.2767 50.0238C16.2767 49.3457 16.1054 48.6797 15.7995 48.0984L19.2139 44.7199C22.249 47.3477 26.0917 48.9219 30.1181 49.1883V53.9594C28.417 54.4801 27.1809 56.0422 27.1809 57.8828C27.1809 60.1473 29.0411 62 31.3419 62C33.6305 62 35.5029 60.1594 35.5029 57.8828C35.5029 56.0422 34.2668 54.468 32.5657 53.9473V49.1762C34.5238 49.043 36.4819 48.607 38.3911 47.832C40.288 47.057 41.9891 45.9914 43.4822 44.7199L46.8844 48.0863C46.5662 48.6676 46.4071 49.3336 46.4071 50.0117C46.4071 51.1137 46.8354 52.143 47.6187 52.918C48.4019 53.693 49.4421 54.1168 50.5558 54.1168C51.6695 54.1168 52.7097 53.693 53.493 52.918C54.2762 52.143 54.7046 51.1137 54.7046 50.0117C54.7046 48.9098 54.2762 47.8805 53.493 47.1055C52.7097 46.3305 51.6695 45.9066 50.5558 45.9066C49.8705 45.9066 49.1974 46.0762 48.61 46.3789L45.2077 43.0125C47.8389 40.0457 49.4544 36.2676 49.7236 32.2109H54.5455C55.0717 33.8941 56.6504 35.1172 58.5229 35.1172C60.8114 35.1172 62.6838 33.2766 62.6838 31C62.6716 28.7477 60.8114 26.8949 58.5106 26.8949ZM49.3442 10.8016C49.6624 10.4867 50.0908 10.3051 50.5558 10.3051C51.0209 10.3051 51.437 10.4867 51.7674 10.8016C52.0856 11.1164 52.2692 11.5402 52.2692 12.0004C52.2692 12.4605 52.0856 12.8723 51.7674 13.1992C51.4492 13.5141 51.0209 13.6957 50.5558 13.6957C50.0908 13.6957 49.6747 13.5141 49.3442 13.1992C49.0138 12.8844 48.8425 12.4605 48.8425 12.0004C48.8425 11.5402 49.0261 11.1285 49.3442 10.8016ZM29.6286 4.1293C29.6286 3.19687 30.3996 2.43398 31.3419 2.43398C32.2843 2.43398 33.0553 3.19687 33.0553 4.1293C33.0553 5.06172 32.2843 5.82461 31.3419 5.82461C30.3996 5.8125 29.6286 5.06172 29.6286 4.1293ZM13.3396 13.1992C13.0214 13.5141 12.5931 13.6957 12.128 13.6957C11.663 13.6957 11.2469 13.5141 10.9164 13.1992C10.5982 12.8844 10.4147 12.4605 10.4147 12.0004C10.4147 11.5402 10.5982 11.1285 10.9164 10.8016C11.2346 10.4867 11.663 10.3051 12.128 10.3051C12.5931 10.3051 13.0092 10.4867 13.3396 10.8016C13.6578 11.1164 13.8414 11.5402 13.8414 12.0004C13.8414 12.4605 13.6578 12.8723 13.3396 13.1992ZM4.17321 32.7074C3.23087 32.7074 2.45987 31.9445 2.45987 31.0121C2.45987 30.0797 3.23087 29.3168 4.17321 29.3168C5.11555 29.3168 5.88655 30.0797 5.88655 31.0121C5.87431 31.9445 5.11555 32.7074 4.17321 32.7074ZM13.3396 51.2227C13.0214 51.5375 12.5931 51.7191 12.128 51.7191C11.663 51.7191 11.2469 51.5375 10.9164 51.2227C10.5982 50.9078 10.4147 50.484 10.4147 50.0238C10.4147 49.5637 10.5982 49.152 10.9164 48.825C11.2346 48.5102 11.663 48.3285 12.128 48.3285C12.5931 48.3285 13.0092 48.5102 13.3396 48.825C13.67 49.1398 13.8414 49.5637 13.8414 50.0238C13.8414 50.484 13.6578 50.8957 13.3396 51.2227ZM33.0553 57.8949C33.0553 58.8273 32.2843 59.5902 31.3419 59.5902C30.3996 59.5902 29.6286 58.8273 29.6286 57.8949C29.6286 56.9625 30.3996 56.1996 31.3419 56.1996C32.2843 56.2117 33.0553 56.9625 33.0553 57.8949ZM49.3442 48.825C49.6624 48.5102 50.0908 48.3285 50.5558 48.3285C51.0209 48.3285 51.437 48.5102 51.7674 48.825C52.0856 49.1398 52.2692 49.5637 52.2692 50.0238C52.2692 50.484 52.0856 50.8957 51.7674 51.2227C51.4492 51.5375 51.0209 51.7191 50.5558 51.7191C50.0908 51.7191 49.6747 51.5375 49.3442 51.2227C49.0261 50.9078 48.8425 50.484 48.8425 50.0238C48.8425 49.5637 49.0261 49.1398 49.3442 48.825ZM58.5106 32.7074C57.5683 32.7074 56.7973 31.9445 56.7973 31.0121C56.7973 30.0797 57.5683 29.3168 58.5106 29.3168C59.453 29.3168 60.224 30.0797 60.224 31.0121C60.224 31.9445 59.453 32.7074 58.5106 32.7074Z" fill="#FF8A00"/>
<path d="M46.6764 23.4195C46.0767 23.7223 45.8319 24.4488 46.1256 25.0422V25.0543C46.3337 25.4781 46.7743 25.7203 47.2148 25.7203C47.3984 25.7203 47.582 25.684 47.7656 25.5871C48.3652 25.2844 48.61 24.5578 48.3163 23.9644C48.0226 23.359 47.276 23.1168 46.6764 23.4195Z" fill="#FF8A00"/>
</svg>
