<svg width="48" height="52" viewBox="0 0 48 52" fill="none" xmlns="http://www.w3.org/2000/svg">
<path d="M13.9911 30.086C13.9911 31.116 13.6888 32.0961 13.1362 32.9461C15.3673 34.0462 16.8895 36.2663 16.8895 38.8264C16.8895 39.3765 16.4203 39.8265 15.8469 39.8265C15.2735 39.8265 14.8043 39.3765 14.8043 38.8264C14.8043 36.2863 12.6462 34.2162 9.99808 34.2162C9.42467 34.2162 8.95551 33.7662 8.95551 33.2161C8.95551 32.6661 9.42467 32.2161 9.99808 32.2161C10.3526 32.2161 10.707 32.2461 11.0407 32.2961C13.0111 30.146 11.3534 26.6858 8.37167 26.7058C7.79826 26.7058 7.3291 26.2557 7.3291 25.7057C7.3291 25.1557 7.79826 24.7057 8.37167 24.7057C11.4785 24.6957 13.9911 27.1158 13.9911 30.086Z" fill="#FF8A00"/>
<path d="M18.4223 22.4553C16.0452 21.8453 14.0435 20.4352 12.7298 18.4651C11.8958 18.8051 10.9783 19.0051 10.0087 19.0051C8.63252 18.9551 8.6221 17.045 10.0087 17.005C12.6568 17.005 14.815 14.9349 14.815 12.3947C14.815 11.8447 15.2841 11.3947 15.8575 11.3947C16.431 11.3947 16.9001 11.8447 16.9001 12.3947C16.9001 14.3949 15.9722 16.195 14.5022 17.405C15.5343 18.9451 17.1086 20.0452 18.9644 20.5252C20.278 20.9052 19.7672 22.7553 18.4223 22.4553Z" fill="#FF8A00"/>
<path d="M40.848 24.605C42.1095 20.7947 47.9166 21.5548 48 25.605C47.9062 29.6552 42.1095 30.4253 40.848 26.6051H25.0321V32.6154H37.6785C38.0539 32.6154 38.3979 32.8054 38.5856 33.1154L40.0973 35.6256C42.3493 35.0855 44.6325 36.8056 44.6012 39.0357C44.6012 40.9659 42.9644 42.5359 40.9522 42.5359C37.7619 42.5459 36.1147 38.8157 38.2937 36.6256L37.0843 34.6155H25.0321V40.6258H30.4952C30.8705 40.6258 31.2146 40.8158 31.4023 41.1259L32.5074 42.966C34.7593 42.4259 37.0426 44.146 37.0113 46.3761C37.0113 48.3063 35.3745 49.8763 33.3623 49.8763C30.172 49.8863 28.5248 46.1561 30.7037 43.966L29.8905 42.6259H25.0321V46.2261C24.8653 52.2965 16.0035 53.0465 14.6898 47.1662C11.2181 46.7362 8.50739 43.956 8.34057 40.5458C3.99305 40.0058 1.06342 35.6256 2.37706 31.6053C-0.792355 28.3452 -0.792355 22.8449 2.37706 19.5947C1.07385 15.5645 3.99305 11.1942 8.34057 10.6542C8.50739 7.24401 11.2181 4.47385 14.6898 4.03383C16.0139 -1.84649 24.8758 -1.09645 25.0321 4.97388V8.57408H29.8905L30.7037 7.234C28.5143 5.04388 30.1616 1.31368 33.3623 1.32368C35.3745 1.32368 37.0113 2.89377 37.0113 4.82388C37.0426 7.054 34.7593 8.77409 32.5074 8.23406L31.4023 10.0742C31.2146 10.3842 30.8705 10.5742 30.4952 10.5742H25.0321V16.5845H37.0738L38.2832 14.5744C36.0938 12.3843 37.7411 8.65408 40.9418 8.66409C42.954 8.66409 44.5908 10.2342 44.5908 12.1643C44.6221 14.3944 42.3388 16.1145 40.0869 15.5745L38.5752 18.0846C38.3875 18.3946 38.0434 18.5846 37.6681 18.5846H25.0321V24.605H40.848ZM44.351 27.1051C45.2163 27.1051 45.9149 26.4351 45.9149 25.605C45.8315 23.6149 42.8601 23.6149 42.7871 25.605C42.7767 26.4351 43.4857 27.1051 44.351 27.1051ZM40.9418 40.5358C41.8071 40.5358 42.5056 39.8658 42.5056 39.0357C42.4222 37.0456 39.4509 37.0456 39.3779 39.0357C39.3779 39.8658 40.0765 40.5358 40.9418 40.5358ZM33.3623 47.8762C34.2276 47.8762 34.9262 47.2062 34.9262 46.3761C34.8427 44.386 31.8714 44.386 31.7984 46.3761C31.788 47.2062 32.497 47.8762 33.3623 47.8762ZM34.9262 4.83387C34.9262 4.00383 34.2276 3.33379 33.3623 3.33379C31.2876 3.4138 31.2876 6.26395 33.3623 6.33396C34.2172 6.33396 34.9262 5.66392 34.9262 4.83387ZM42.5056 12.1743C42.5056 11.3442 41.8071 10.6742 40.9418 10.6742C38.8671 10.7542 38.8671 13.6044 40.9418 13.6744C41.8071 13.6744 42.5056 13.0043 42.5056 12.1743ZM22.947 4.98388C22.7906 1.01366 16.848 0.993664 16.6811 4.98388C16.6811 5.53391 16.212 5.98394 15.6386 5.98394C12.7611 5.98394 10.4153 8.23406 10.4153 10.9942C10.4153 11.1642 10.4257 11.3342 10.4361 11.4942C10.5091 12.0643 9.99826 12.6143 9.39357 12.5943C6.57863 12.5243 4.08688 14.9044 4.14944 17.6046C4.14944 18.2546 4.27454 18.8846 4.52476 19.4847C4.68115 19.8647 4.58732 20.2947 4.28497 20.5847C1.33449 23.2049 1.33449 28.0351 4.28497 30.6553C4.58732 30.9353 4.68115 31.3753 4.52476 31.7554C4.27454 32.3554 4.14944 32.9854 4.14944 33.6355C4.08688 36.3256 6.55778 38.6957 9.36229 38.6457C9.67507 38.6357 9.96698 38.7557 10.1755 38.9757C10.5404 39.3158 10.4257 39.8158 10.4153 40.2558C10.4153 43.016 12.7611 45.2661 15.6386 45.2661C16.212 45.2661 16.6811 45.7161 16.6811 46.2661C16.8271 50.2364 22.7802 50.2564 22.947 46.2661V4.98388Z" fill="#FF8A00"/>
</svg>
