<svg width="54" height="51" viewBox="0 0 54 51" fill="none" xmlns="http://www.w3.org/2000/svg">
<g clip-path="url(#clip0)">
<path d="M52.5711 26.1043C51.9668 26.1043 51.4834 26.5877 51.4834 27.1919V34.8057H2.17536V8.58057H51.4834V22.4787C51.4834 23.0829 51.9668 23.5664 52.5711 23.5664C53.1754 23.5664 53.6588 23.0829 53.6588 22.4787V2.17536C53.6588 0.966825 52.6919 0 51.4834 0H11.7227C11.1185 0 10.6351 0.483412 10.6351 1.08768C10.6351 1.69194 11.1185 2.17536 11.7227 2.17536H51.3626V6.52607H2.17536V2.17536H7.49289C8.09716 2.17536 8.58057 1.69194 8.58057 1.08768C8.58057 0.483412 8.09716 0 7.49289 0H2.17536C0.966825 0 0 0.966825 0 2.17536V41.8152C0 43.0237 0.966825 43.9905 2.17536 43.9905H19.9408C19.5782 44.7156 18.8531 45.3199 18.0071 45.5616L17.282 45.8033C15.9526 46.2867 14.9858 47.4953 14.9858 48.9455V50.0332C14.9858 50.6374 15.4692 51.1208 16.0735 51.1208H37.4645C38.0687 51.1208 38.5521 50.6374 38.5521 50.0332V48.9455C38.5521 47.4953 37.7062 46.2867 36.2559 45.8033L35.41 45.5616C34.564 45.3199 33.9597 44.7156 33.4763 43.9905H51.2417C52.4502 43.9905 53.4171 43.0237 53.4171 41.8152V27.1919C53.6588 26.5877 53.1754 26.1043 52.5711 26.1043ZM17.1611 48.9455C17.1611 48.4621 17.5237 47.9787 17.8863 47.8578L18.7322 47.6161C20.4242 47.0118 21.7536 45.6825 22.237 43.9905H31.1801C31.6635 45.6825 32.9929 47.0118 34.6848 47.6161L35.41 47.8578C35.8934 47.9787 36.1351 48.4621 36.1351 48.9455H17.1611ZM51.3626 36.8602V41.8152H2.17536V36.8602H51.3626Z" fill="#FF8A00"/>
<path d="M25.0164 40.2441H28.5211C29.0045 40.2441 29.3671 39.8815 29.3671 39.3981C29.3671 38.9147 29.0045 38.5521 28.5211 38.5521H25.0164C24.533 38.5521 24.1704 38.9147 24.1704 39.3981C24.1704 39.8815 24.533 40.2441 25.0164 40.2441Z" fill="#FF8A00"/>
<path d="M23.204 30.5758H30.3343C30.8178 30.5758 31.3012 30.0924 31.3012 29.609V26.2251H34.8059C35.2893 26.2251 35.7727 25.7417 35.7727 25.2583V18.128C35.7727 17.6445 35.2893 17.1611 34.8059 17.1611H31.3012V13.7772C31.3012 13.2938 30.8178 12.8104 30.3343 12.8104H23.204C22.7206 12.8104 22.2372 13.2938 22.2372 13.7772V17.1611H18.7325C18.249 17.1611 17.7656 17.6445 17.7656 18.128V25.1374C17.7656 25.6208 18.249 26.1043 18.7325 26.1043H22.2372V29.4881C22.2372 30.2133 22.7206 30.5758 23.204 30.5758ZM30.3343 19.0948H33.8391V24.1706H30.3343C29.8509 24.1706 29.3675 24.654 29.3675 25.1374V28.5213H24.1708V25.1374C24.1708 24.654 23.6874 24.1706 23.204 24.1706H19.6993V19.0948H23.204C23.6874 19.0948 24.1708 18.6114 24.1708 18.128V14.7441H29.3675V18.128C29.3675 18.7322 29.7301 19.0948 30.3343 19.0948Z" fill="#FF8A00"/>
<path d="M43.9907 32.2678C44.1115 32.2678 44.3532 32.2678 44.4741 32.2678C46.4077 32.2678 47.9788 30.6967 47.9788 28.763C47.9788 26.8294 46.4077 25.2583 44.4741 25.2583C43.3864 25.2583 42.2987 25.7417 41.6945 26.5877L37.7063 25.2583L37.1021 26.9502L40.9694 28.2796C40.7276 30.2133 42.057 32.0261 43.9907 32.2678ZM44.4741 26.9502C45.4409 26.9502 46.2869 27.7962 46.2869 28.763C46.2869 29.7299 45.4409 30.5758 44.4741 30.5758C43.5073 30.5758 42.6613 29.7299 42.6613 28.763C42.6613 27.7962 43.5073 26.9502 44.4741 26.9502Z" fill="#FF8A00"/>
<path d="M15.8317 25.2583L11.8436 26.5877C10.635 25.0166 8.45968 24.7749 6.88859 25.9834C5.3175 27.192 5.0758 29.3673 6.28433 30.9384C7.49286 32.5095 9.66822 32.7512 11.2393 31.5427C12.2061 30.8176 12.8104 29.4882 12.5687 28.2796L16.436 26.9503L15.8317 25.2583ZM9.06395 30.5758C8.09713 30.5758 7.25115 29.7299 7.25115 28.763C7.25115 27.7962 8.09713 26.9503 9.06395 26.9503C10.0308 26.9503 10.8767 27.7962 10.8767 28.763C10.8767 29.7299 10.0308 30.5758 9.06395 30.5758Z" fill="#FF8A00"/>
<path d="M47.2537 12.4479C46.5286 11.6019 45.5618 11.1185 44.4741 11.1185C42.5404 11.1185 40.9694 12.6896 40.9694 14.6232C40.9694 14.7441 40.9694 14.9858 40.9694 15.1067L37.1021 16.436L37.7063 18.128L41.6945 16.7986C42.903 18.3697 45.0784 18.6114 46.6494 17.4029C48.2205 16.1943 48.4622 14.019 47.2537 12.4479ZM44.4741 16.436C43.5073 16.436 42.6613 15.5901 42.6613 14.6232C42.6613 13.6564 43.5073 12.8104 44.4741 12.8104C45.4409 12.8104 46.2869 13.6564 46.2869 14.6232C46.2869 15.5901 45.4409 16.436 44.4741 16.436Z" fill="#FF8A00"/>
<path d="M9.54761 11.1185C7.61396 10.8768 5.80116 12.2061 5.55946 14.1398C5.31775 16.0734 6.52628 17.8862 8.45993 18.1279C9.78931 18.3696 10.9978 17.7654 11.8438 16.7986L15.832 18.1279L16.4362 16.436L12.5689 15.1066C12.8106 13.173 11.4813 11.481 9.54761 11.1185ZM9.06419 16.436C8.09737 16.436 7.2514 15.59 7.2514 14.6232C7.2514 13.6564 8.09737 12.8104 9.06419 12.8104C10.031 12.8104 10.877 13.6564 10.877 14.6232C10.877 15.59 10.031 16.436 9.06419 16.436Z" fill="#FF8A00"/>
</g>
<defs>
<clipPath id="clip0">
<rect width="53.6588" height="51" fill="white"/>
</clipPath>
</defs>
</svg>
