<svg width="62" height="62" viewBox="0 0 62 62" fill="none" xmlns="http://www.w3.org/2000/svg">
<path d="M24.4767 25.6498C22.7891 25.6498 21.4246 27.0143 21.4246 28.7019V28.8815C21.257 28.8575 21.0895 28.8456 20.9219 28.8456C18.552 28.8456 16.625 30.7726 16.625 33.1425C16.625 35.5124 18.552 37.4394 20.9219 37.4394C21.0895 37.4394 21.257 37.4274 21.4246 37.4035V37.583C21.4246 39.2707 22.7891 40.6351 24.4767 40.6351H30.3895C31.0837 40.6351 31.6462 40.0726 31.6462 39.3784C31.6462 38.6842 31.0837 38.1216 30.3895 38.1216H24.4767C24.1775 38.1216 23.9381 37.8822 23.9381 37.583V28.7139C23.9381 28.4147 24.1775 28.1753 24.4767 28.1753H37.5949C37.8941 28.1753 38.1335 28.4147 38.1335 28.7139V37.583C38.1335 37.8822 37.8941 38.1216 37.5949 38.1216H34.9377C34.2435 38.1216 33.681 38.6842 33.681 39.3784C33.681 40.0726 34.2435 40.6351 34.9377 40.6351H37.5949C39.2825 40.6351 40.647 39.2707 40.647 37.583V37.4035C40.8146 37.4274 40.9821 37.4394 41.1497 37.4394C43.5196 37.4394 45.4466 35.5124 45.4466 33.1425C45.4466 30.7726 43.5196 28.8456 41.1497 28.8456C40.9821 28.8456 40.8146 28.8575 40.647 28.8815V28.7019C40.647 27.0143 39.2825 25.6498 37.5949 25.6498H32.2926V25.1351C33.8126 24.6085 34.854 23.1602 34.854 21.5324C34.854 19.4259 33.1424 17.7143 31.0358 17.7143C28.9292 17.7143 27.2177 19.4259 27.2177 21.5324C27.2177 23.1602 28.259 24.6085 29.7791 25.1351V25.6498H24.4767ZM21.4246 34.8421C21.257 34.89 21.0895 34.9139 20.9219 34.9139C19.9404 34.9139 19.1385 34.112 19.1385 33.1305C19.1385 32.149 19.9404 31.3471 20.9219 31.3471C21.0895 31.3471 21.257 31.3711 21.4246 31.4189V34.8421ZM40.659 31.4309C40.8265 31.383 40.9941 31.3591 41.1617 31.3591C42.1431 31.3591 42.9451 32.161 42.9451 33.1425C42.9451 34.1239 42.1431 34.9259 41.1617 34.9259C40.9941 34.9259 40.8265 34.9019 40.659 34.8541V31.4309ZM29.7312 21.5324C29.7312 20.8143 30.3177 20.2278 31.0358 20.2278C31.754 20.2278 32.3404 20.8143 32.3404 21.5324C32.3404 22.2506 31.754 22.8371 31.0358 22.8371C30.3177 22.8371 29.7312 22.2506 29.7312 21.5324Z" fill="#FF8A00"/>
<path d="M25.4106 32.915C25.4106 33.8726 26.1886 34.6386 27.1342 34.6386C28.0917 34.6386 28.8577 33.8606 28.8577 32.915C28.8577 31.9695 28.0798 31.1915 27.1342 31.1915C26.1886 31.1795 25.4106 31.9575 25.4106 32.915Z" fill="#FF8A00"/>
<path d="M34.9379 34.6386C35.8898 34.6386 36.6615 33.867 36.6615 32.9151C36.6615 31.9632 35.8898 31.1915 34.9379 31.1915C33.986 31.1915 33.2144 31.9632 33.2144 32.9151C33.2144 33.867 33.986 34.6386 34.9379 34.6386Z" fill="#FF8A00"/>
<path d="M60.9228 25.2907L54.4355 24.3691C53.9208 22.5378 53.1907 20.7784 52.2571 19.1147L56.195 13.8842C56.566 13.3815 56.5181 12.6753 56.0753 12.2444L49.7556 5.92471C49.5162 5.68533 49.205 5.55367 48.8699 5.55367C48.5946 5.55367 48.3313 5.63745 48.1158 5.80502L42.8853 9.74286C41.2336 8.82124 39.4622 8.07915 37.6309 7.56448L36.7093 1.07722C36.6255 0.466795 36.0869 0 35.4645 0H26.5355C25.9131 0 25.3745 0.466795 25.2907 1.07722L24.3691 7.56448C22.5378 8.07915 20.7784 8.80927 19.1147 9.74286L13.8842 5.80502C13.6687 5.63745 13.4054 5.55367 13.1301 5.55367C12.795 5.55367 12.4838 5.68533 12.2444 5.92471L5.92471 12.2444C5.48185 12.6873 5.43398 13.3934 5.80502 13.8842L9.74286 19.1147C8.80927 20.7664 8.07915 22.5378 7.56448 24.3691L1.07722 25.2907C0.466795 25.3745 0 25.9131 0 26.5355V35.4645C0 36.0869 0.466795 36.6255 1.07722 36.7093L7.56448 37.6309C8.07915 39.4622 8.80927 41.2216 9.74286 42.8853L5.80502 48.1158C5.43398 48.6185 5.48185 49.3247 5.92471 49.7556L12.2444 56.0753C12.4838 56.3147 12.795 56.4463 13.1301 56.4463C13.4054 56.4463 13.6687 56.3625 13.8842 56.195L15.6795 54.8425C16.2301 54.4236 16.3498 53.6336 15.9309 53.083C15.6915 52.7718 15.3205 52.5803 14.9255 52.5803C14.6502 52.5803 14.3869 52.6641 14.1714 52.8317L13.2498 53.5259L8.47413 48.7502L12.2564 43.7232C12.5676 43.3042 12.5915 42.7537 12.3282 42.3108C11.1792 40.4077 10.3174 38.361 9.79073 36.1946C9.67104 35.6919 9.25212 35.3209 8.74942 35.249L2.52548 34.3633V27.6127L8.74942 26.727C9.26409 26.6552 9.67104 26.2842 9.79073 25.7815C10.3174 23.627 11.1672 21.5683 12.3162 19.6653C12.5795 19.2224 12.5556 18.6718 12.2444 18.2529L8.46216 13.2259L13.2378 8.45019L18.2649 12.2324C18.4803 12.4 18.7436 12.4838 19.0189 12.4838C19.2463 12.4838 19.4737 12.4239 19.6772 12.3042C21.5803 11.1552 23.627 10.3054 25.7934 9.7668C26.2961 9.6471 26.6672 9.24015 26.739 8.72548L27.6247 2.50154H34.3753L35.261 8.72548C35.3328 9.24015 35.7039 9.6471 36.2066 9.7668C38.361 10.2934 40.4197 11.1432 42.3228 12.2923C42.5143 12.412 42.7417 12.4718 42.9691 12.4718C43.2444 12.4718 43.5077 12.388 43.7232 12.2205L48.7502 8.43822L53.5259 13.2139L49.7436 18.2409C49.4324 18.6598 49.4085 19.2104 49.6718 19.6533C50.8209 21.5564 51.6707 23.6031 52.2093 25.7695C52.329 26.2722 52.7359 26.6432 53.2506 26.7151L59.4745 27.6008V34.3514L53.2506 35.2371C52.7359 35.3089 52.329 35.6799 52.2093 36.1826C51.6826 38.3371 50.8328 40.3958 49.6718 42.2988C49.4085 42.7417 49.4324 43.2923 49.7436 43.7112L53.5259 48.7382L48.7502 53.5139L43.7232 49.7317C43.5077 49.5641 43.2444 49.4803 42.9691 49.4803C42.7417 49.4803 42.5143 49.5402 42.3228 49.6598C40.4197 50.8089 38.373 51.6587 36.2066 52.1973C35.7039 52.317 35.3328 52.7239 35.261 53.2386L34.3753 59.4625H27.6247L26.739 53.2386C26.6672 52.7239 26.2961 52.317 25.7934 52.1973C23.639 51.6707 21.5803 50.8209 19.6772 49.6718C19.4857 49.5521 19.2583 49.4923 19.0189 49.4923C18.7436 49.4923 18.4803 49.5761 18.2649 49.7436L17.032 50.6652C16.7687 50.8687 16.5892 51.156 16.5413 51.4911C16.4934 51.8263 16.5772 52.1494 16.7807 52.4247C17.0201 52.7359 17.3911 52.9274 17.7861 52.9274C18.0614 52.9274 18.3247 52.8436 18.5402 52.6761L19.1027 52.2571C20.7664 53.1907 22.5259 53.9208 24.3571 54.4355L25.2788 60.9228C25.3625 61.5332 25.9012 62 26.5236 62H35.4525C36.0749 62 36.6135 61.5332 36.6973 60.9228L37.6189 54.4355C39.4502 53.9208 41.2097 53.1907 42.8734 52.2571L48.1039 56.195C48.3193 56.3625 48.5826 56.4463 48.8579 56.4463C49.1931 56.4463 49.5042 56.3147 49.7436 56.0753L56.0633 49.7556C56.5062 49.3127 56.5541 48.6066 56.183 48.1158L52.2452 42.8853C53.1788 41.2336 53.9089 39.4622 54.4236 37.6309L60.9108 36.7093C61.5212 36.6255 61.988 36.0869 61.988 35.4645V26.5236C62 25.9131 61.5332 25.3745 60.9228 25.2907Z" fill="#FF8A00"/>
<path d="M20.8027 16.254C20.5274 16.254 20.2641 16.3378 20.0487 16.5054C15.4765 19.9764 12.8433 25.2548 12.8433 30.988C12.8433 41.0062 20.9942 49.1571 31.0124 49.1571C41.0305 49.1571 49.1815 41.0062 49.1815 30.988C49.1815 20.9699 41.0185 12.8309 31.0004 12.8309C28.3313 12.8309 25.746 13.3934 23.3402 14.5185C23.0409 14.6621 22.8016 14.9135 22.6938 15.2247C22.5741 15.5359 22.5981 15.883 22.7297 16.1822C22.9332 16.6251 23.388 16.9123 23.8668 16.9123C24.0463 16.9123 24.2259 16.8764 24.3935 16.7926C26.4641 15.8232 28.6904 15.3444 30.9884 15.3444C39.6182 15.3444 46.644 22.3703 46.644 31C46.644 39.6297 39.6182 46.6556 30.9884 46.6556C22.3587 46.6556 15.3448 39.6297 15.3448 31C15.3448 26.0567 17.607 21.5085 21.5568 18.5162C22.1074 18.0973 22.2151 17.3073 21.7962 16.7567C21.5568 16.4455 21.1977 16.254 20.8027 16.254Z" fill="#FF8A00"/>
</svg>
