<svg id="Слой_1" data-name="Слой 1" xmlns="http://www.w3.org/2000/svg" viewBox="0 0 29.97 30.03"><defs><style>.cls-1{fill:#ffffff}.cls-2{fill:none}</style></defs><path class="cls-1" d="M24.67 21.04a1.4 1.4 0 00-2.76-.35h-1.16a1.4 1.4 0 100 .7h1.16a1.4 1.4 0 001 1v1.16a1.4 1.4 0 10.7 0v-1.16a1.4 1.4 0 001.06-1.35zm-5.28.7a.7.7 0 11.7-.7.7.7 0 01-.7.7zm4.58 3.17a.7.7 0 11-.7-.7.7.7 0 01.7.7zm-.7-3.17a.7.7 0 11.7-.7.7.7 0 01-.7.7zM6.49 10.69a1.43 1.43 0 001.43 1.43h14.62a1.43 1.43 0 001.43-1.43v-1a8.74 8.74 0 00-17.48 0zm.84-1a7.9 7.9 0 0115.8 0v1a.59.59 0 01-.6.59H7.93a.59.59 0 01-.59-.59z"/><path class="cls-1" d="M8.68 10.1l5.17-.04a1.43 1.43 0 001.38 1.05 1.33 1.33 0 001.32-1h5.23a.42.42 0 00.42-.43 6.97 6.97 0 00-10.46-6.03.41.41 0 00-.2.25.42.42 0 00.05.33l2.49 4.2-3.12-1.75a.42.42 0 00-.63.38.42.42 0 00.22.36l3.43 1.85-4.69.05h-.18A5.25 5.25 0 0111.1 5.2a.42.42 0 10-.53-.66 6.11 6.11 0 00-2.32 5.13.42.42 0 00.13.3.42.42 0 00.3.12zm6.55.17a.59.59 0 11.58-.59.59.59 0 01-.58.59zM12.49 4.2a6.14 6.14 0 012.74-.65 7.08 7.08 0 012.6.53l.12.05-2.08 3.6a.42.42 0 00.36.63.42.42 0 00.37-.21l1.87-3.35.13-.23a6.38 6.38 0 012.77 4.48l.03.21-4.8.04a1.43 1.43 0 00-1.37-1.05.43.43 0 00-.3.08l-2.3-3.87zM14.51 18v-3.1a.73.73 0 00-.73-.72H7.32a.73.73 0 00-.73.73v3.08a.73.73 0 00.73.73h6.46a.73.73 0 00.73-.73zm-7.17 0l-.02-3.07h6.44l.02 3.04zM13.84 21.14H7.5a.38.38 0 100 .76h6.33a.38.38 0 100-.76zM13.74 22.89H7.42a.38.38 0 100 .76h6.32a.38.38 0 100-.76zM23.53 13.42H17.2a.38.38 0 100 .76h6.33a.38.38 0 100-.76zM23.53 15.42H17.2a.38.38 0 100 .76h6.33a.38.38 0 100-.76z"/><path class="cls-2" d="M25.93 17.98h-8.46a.54.54 0 00-.54.53v8.25a.54.54 0 00.54.54h8.46a.54.54 0 00.53-.54v-8.25a.54.54 0 00-.53-.53zM16.03 26.51H5.37a1.06 1.06 0 01-1.07-1.06V8.59h-.57a.25.25 0 00-.25.25v18.23a.25.25 0 00.25.25h12.41a1.43 1.43 0 01-.11-.56zM26.22 8.6h-.57v8.48h.28a1.43 1.43 0 01.54.1V8.84a.25.25 0 00-.25-.25z"/><path class="cls-1" d="M26.22 7.7h-.57v-.62a1.07 1.07 0 00-.71-1 1.6 1.6 0 00-.85-.04.43.43 0 00-.26.18.45.45 0 00.3.69h.45a.16.16 0 01.17.17v10h-7.28a1.44 1.44 0 00-1.44 1.43v7.1H5.37a.16.16 0 01-.17-.16V7.08a.16.16 0 01.17-.17h.81a.45.45 0 00.45-.44.46.46 0 00-.45-.45h-.81A1.07 1.07 0 004.3 7.07v.61h-.57a1.15 1.15 0 00-1.15 1.15v18.23a1.15 1.15 0 001.15 1.15h22.5a1.15 1.15 0 001.14-1.15V8.84a1.15 1.15 0 00-1.15-1.15zM3.72 27.31a.25.25 0 01-.24-.25V8.84a.25.25 0 01.25-.25h.57v16.86a1.06 1.06 0 001.07 1.06h10.66v.25a1.43 1.43 0 00.11.56zm22.74-.56a.54.54 0 01-.53.54h-8.46a.54.54 0 01-.54-.54v-8.25a.54.54 0 01.54-.53h8.46a.54.54 0 01.53.53zm.01-9.58a1.43 1.43 0 00-.54-.1h-.28V8.59h.57a.25.25 0 01.25.25z"/></svg>