<svg xmlns="http://www.w3.org/2000/svg" xml:space="preserve" width="66.667" height="64.345"><defs><clipPath clipPathUnits="userSpaceOnUse" id="a"><path d="M0 48.259h50V0H0Z"/></clipPath></defs><g clip-path="url(#a)" transform="matrix(1.33333 0 0 -1.33333 0 64.345)"><path d="M0 0a2.501 2.501 0 0 1-2.498-2.498v-36.433A2.5 2.5 0 0 1 0-41.427h39.746a2.499 2.499 0 0 1 2.497 2.496v36.433A2.5 2.5 0 0 1 39.746 0Zm39.746-43.058H0a4.131 4.131 0 0 0-4.127 4.127v36.433A4.132 4.132 0 0 0 0 1.63h39.746a4.133 4.133 0 0 0 4.127-4.128v-36.433a4.132 4.132 0 0 0-4.127-4.127" style="fill:#0098da;fill-opacity:1;fill-rule:nonzero;stroke:none" transform="translate(5.525 45.145)"/><path d="M0 0h-46.37a.815.815 0 1 0 0 1.629H0A.814.814 0 1 0 0 0" style="fill:#0098da;fill-opacity:1;fill-rule:nonzero;stroke:none" transform="translate(48.583 35.209)"/><path d="M0 0a.815.815 0 0 0-.815.815v33.121a.815.815 0 0 0 1.629 0V.815A.814.814 0 0 0 0 0" style="fill:#0098da;fill-opacity:1;fill-rule:nonzero;stroke:none" transform="translate(18.773 2.087)"/><path d="M0 0h-3.313a.815.815 0 0 0 0 1.629H0A.814.814 0 1 0 0 0" style="fill:#0098da;fill-opacity:1;fill-rule:nonzero;stroke:none" transform="translate(12.15 28.585)"/><path d="M0 0h-3.313a.814.814 0 0 0 0 1.63H0A.815.815 0 1 0 0 0" style="fill:#0098da;fill-opacity:1;fill-rule:nonzero;stroke:none" transform="translate(12.15 21.96)"/><path d="M0 0h-3.313a.814.814 0 0 0 0 1.631H0A.815.815 0 0 0 0 0" style="fill:#0098da;fill-opacity:1;fill-rule:nonzero;stroke:none" transform="translate(12.15 15.336)"/><path d="M0 0h-3.313a.815.815 0 0 0 0 1.631H0A.815.815 0 0 0 0 0" style="fill:#0098da;fill-opacity:1;fill-rule:nonzero;stroke:none" transform="translate(12.15 8.711)"/><path d="M0 0a.743.743 0 0 1 0-1.484A.743.743 0 0 1 0 0m0-3.114A2.375 2.375 0 0 0-2.372-.742 2.375 2.375 0 0 0 0 1.63 2.375 2.375 0 0 0 2.372-.742 2.375 2.375 0 0 0 0-3.114" style="fill:#0098da;fill-opacity:1;fill-rule:nonzero;stroke:none" transform="translate(9.01 41.605)"/><path d="M0 0a.743.743 0 0 1 0-1.484A.743.743 0 0 1 0 0m0-3.114A2.375 2.375 0 0 0-2.372-.742 2.375 2.375 0 0 0 0 1.63 2.375 2.375 0 0 0 2.372-.742 2.375 2.375 0 0 0 0-3.114" style="fill:#0098da;fill-opacity:1;fill-rule:nonzero;stroke:none" transform="translate(15.57 41.605)"/><path d="M0 0a.743.743 0 0 1 0-1.484A.743.743 0 0 1 0 0m0-3.114A2.375 2.375 0 0 0-2.372-.742 2.375 2.375 0 0 0 0 1.63 2.375 2.375 0 0 0 2.372-.742 2.375 2.375 0 0 0 0-3.114" style="fill:#0098da;fill-opacity:1;fill-rule:nonzero;stroke:none" transform="translate(22.13 41.605)"/><path d="M0 0a9.925 9.925 0 0 1-7.035-2.98 9.925 9.925 0 0 1-2.872-7.085v-1.987c0-.339.276-.614.615-.614H9.292c.339 0 .614.275.614.614v1.983C9.948-4.558 5.504-.045 0 0m9.292-14.297H-9.292a2.247 2.247 0 0 0-2.245 2.245v1.98a11.546 11.546 0 0 0 3.34 8.236 11.546 11.546 0 0 0 8.19 3.465h.014c6.405-.048 11.578-5.299 11.53-11.705v-1.976a2.247 2.247 0 0 0-2.245-2.245" style="fill:#0098da;fill-opacity:1;fill-rule:nonzero;stroke:none" transform="translate(33.703 30.44)"/><path d="M0 0a.815.815 0 0 0-.815.815v.715a2.046 2.046 0 0 1-2.044 2.044A2.046 2.046 0 0 1-4.903 1.53V.815a.815.815 0 0 0-1.63 0v.715a3.678 3.678 0 0 0 3.674 3.675A3.678 3.678 0 0 0 .815 1.53V.815A.815.815 0 0 0 0 0" style="fill:#0098da;fill-opacity:1;fill-rule:nonzero;stroke:none" transform="translate(36.562 16.144)"/><path d="M0 0a.815.815 0 0 0-.773 1.073l2.144 6.433a.811.811 0 0 0 1.031.515.813.813 0 0 0 .516-1.03L.773.558A.815.815 0 0 0 0 0" style="fill:#0098da;fill-opacity:1;fill-rule:nonzero;stroke:none" transform="translate(33.703 19.715)"/><path d="M0 0a.458.458 0 1 1 .003-.917A.458.458 0 0 1 0 0m0-1.631A1.174 1.174 0 1 0 1.174-.458c0-.647-.528-1.173-1.174-1.173" style="fill:#0098da;fill-opacity:1;fill-rule:nonzero;stroke:none" transform="translate(26.912 21.349)"/><path d="M0 0a.459.459 0 0 1 0-.915A.458.458 0 0 1 0 0m0-1.63c-.647 0-1.173.526-1.173 1.172C-1.173.189-.647.715 0 .715A1.174 1.174 0 0 0 0-1.63" style="fill:#0098da;fill-opacity:1;fill-rule:nonzero;stroke:none" transform="translate(28.343 24.92)"/><path d="M0 0a.459.459 0 1 1 .001-.917A.459.459 0 0 1 0 0m0-1.631c-.647 0-1.173.526-1.173 1.173A1.174 1.174 0 1 0 0-1.631" style="fill:#0098da;fill-opacity:1;fill-rule:nonzero;stroke:none" transform="translate(40.494 21.349)"/><path d="M0 0a.459.459 0 1 1 .001-.917A.459.459 0 0 1 0 0m0-1.63c-.647 0-1.173.526-1.173 1.172a1.174 1.174 0 0 0 2.346 0C1.173-1.104.646-1.63 0-1.63" style="fill:#0098da;fill-opacity:1;fill-rule:nonzero;stroke:none" transform="translate(39.064 24.92)"/><path d="M0 0a.459.459 0 1 1 .001-.917A.459.459 0 0 1 0 0m0-1.629A1.173 1.173 0 1 0 .002.717 1.173 1.173 0 0 0 0-1.63" style="fill:#0098da;fill-opacity:1;fill-rule:nonzero;stroke:none" transform="translate(31.201 27.779)"/><path d="M0 0h-18.572a.815.815 0 1 0 0 1.631H0A.815.815 0 1 0 0 0" style="fill:#0098da;fill-opacity:1;fill-rule:nonzero;stroke:none" transform="translate(43.293 12.186)"/><path d="M0 0h-13.343a.69.69 0 1 0 0 1.381H0A.69.69 0 0 0 0 0" style="fill:#0098da;fill-opacity:1;fill-rule:nonzero;stroke:none" transform="translate(40.434 8.498)"/></g></svg>