<svg width="38" height="38" fill="none" xmlns="http://www.w3.org/2000/svg"><path d="M37.7 33.77l-.54-.54a.56.56 0 00-.79 0 .56.56 0 000 .78l.46.46-2.36 2.36-4.01-4.01 2.36-2.36 1.87 1.87c.22.21.57.21.79 0a.56.56 0 000-.79l-2.27-2.26-1.57-1.57-1.39-1.4a.97.97 0 00-.7-.29c-.27 0-.52.1-.7.3l-.09.08-1.99-1.99a15.07 15.07 0 002.95-6.19h3.92c.3 0 .56-.25.56-.56 0-.3-.25-.55-.56-.55h-3.72c.05-.36.09-.72.1-1.08h6.27c.3 0 .56-.25.56-.56 0-.3-.25-.55-.56-.55h-6.23c0-.37-.02-.72-.05-1.08h3.63c.3 0 .56-.25.56-.55 0-.3-.25-.56-.56-.56H29.9a14.86 14.86 0 00-3.07-7.02.56.56 0 00-.87.69 13.93 13.93 0 01-10.93 22.55 13.93 13.93 0 01-13.9-13.92 13.93 13.93 0 0123.27-10.3c.23.2.58.2.79-.04.2-.23.19-.58-.04-.79A15.02 15.02 0 000 15.03c0 7.32 5.25 13.43 12.19 14.76v3.76c0 .3.25.55.55.55.3 0 .56-.25.56-.55v-3.59c.36.04.71.07 1.08.08v6.12c0 .3.25.56.55.56.3 0 .56-.26.56-.56v-6.1l1.08-.08v3.57c0 .3.25.55.55.55.3 0 .56-.25.56-.55v-3.72c2.51-.45 4.8-1.52 6.73-3.06l1.99 1.99-.08.08a.97.97 0 000 1.41l1.39 1.39 1.57 1.57 4.49 4.5c.19.19.44.29.7.29.27 0 .52-.1.71-.3l2.52-2.51c.18-.2.3-.44.3-.7a1 1 0 00-.3-.72zm-11.66-8.52l1.93 1.94-.78.78-1.94-1.93c.27-.26.53-.52.79-.8zm3.64 6.79l-.79-.79 2.36-2.36.79.79-2.36 2.36zm-.13-4.85l.92.92-2.36 2.36-.92-.92 2.36-2.36z" fill="#fff"/><path d="M7.28 25.22a12.82 12.82 0 0020.55-10.19c0-7.06-5.74-12.8-12.8-12.8-3.4 0-6.61 1.33-9.03 3.75a12.95 12.95 0 00-3.77 9.04 12.5 12.5 0 003.22 8.52c.2.23.55.25.78.05.23-.2.25-.56.05-.79a11.42 11.42 0 01-2.94-7.76A11.81 11.81 0 016.8 6.77a11.52 11.52 0 018.23-3.43 11.7 11.7 0 0111.69 11.69 11.7 11.7 0 01-18.77 9.3.56.56 0 00-.67.89z" fill="#fff"/><path d="M17.14 5.08H13.3a.86.86 0 00-.86.86V7.9h-3.6a.86.86 0 00-.85.86v5.97h-.74c-.3 0-.56.25-.56.56 0 .3.25.56.56.56H23.2c.3 0 .56-.26.56-.56 0-.3-.25-.56-.56-.56h-.74v-3.15a.86.86 0 00-.85-.86H18V5.94c-.01-.47-.4-.86-.87-.86zM9.1 9.02h3.34v5.71H9.1V9.02zm4.45-2.82h3.34v8.53h-3.34V6.2zm7.8 5.64v2.9H18v-2.9h3.34zM21.45 20.57h-2.62l-1.19-3.05a.56.56 0 00-1.05 0l-1.62 4.4-1.14-3.22a.55.55 0 00-1-.09l-1.1 1.96h-2.6c-.31 0-.57.25-.57.55 0 .3.26.56.56.56h2.94c.2 0 .39-.11.48-.28l.66-1.17 1.24 3.51c.08.23.29.37.52.37.23 0 .44-.14.52-.36l1.66-4.46.8 2.03c.07.22.28.36.51.36h3c.3 0 .56-.25.56-.56 0-.3-.26-.55-.56-.55z" fill="#fff"/></svg>