<svg width="35" height="39" fill="none" xmlns="http://www.w3.org/2000/svg"><g clip-path="url(#clip0)" fill="#fff"><path d="M10.2 23.12c0 .77-.22 1.51-.62 2.15a4.96 4.96 0 012.74 4.42.76.76 0 01-1.52 0 3.5 3.5 0 00-3.51-3.47.76.76 0 01-.76-.75c0-.41.34-.75.76-.75.26 0 .52.02.76.06 1.44-1.62.23-4.22-1.95-4.2a.76.76 0 01-.76-.75c0-.42.35-.76.76-.76 2.27 0 4.1 1.82 4.1 4.05zM13.43 17.38a7.05 7.05 0 01-4.15-3c-.6.26-1.28.4-1.98.4-1-.03-1.01-1.47 0-1.5a3.5 3.5 0 003.5-3.46.76.76 0 011.52 0c0 1.5-.67 2.85-1.75 3.76a5.56 5.56 0 003.26 2.35c.96.29.58 1.68-.4 1.45z"/><path d="M29.79 19c.91-2.87 5.15-2.3 5.21.75-.07 3.04-4.3 3.62-5.21.75H18.25v4.52h9.22c.28 0 .53.14.67.38l1.1 1.88c1.64-.4 3.3.9 3.28 2.57 0 1.45-1.2 2.63-2.66 2.63-2.33 0-3.53-2.8-1.94-4.44l-.88-1.52h-8.79v4.52h3.99c.27 0 .52.15.66.38l.8 1.38c1.65-.4 3.31.89 3.29 2.57 0 1.45-1.2 2.63-2.66 2.63-2.33 0-3.53-2.8-1.94-4.45l-.6-1h-3.54v2.7c-.12 4.57-6.58 5.13-7.54.71a5.3 5.3 0 01-4.63-4.98 5.29 5.29 0 01-4.35-6.72 6.75 6.75 0 010-9.03A5.29 5.29 0 016.08 8.5a5.3 5.3 0 014.63-4.98c.97-4.42 7.43-3.86 7.54.7v2.71h3.55l.59-1c-1.6-1.65-.4-4.46 1.94-4.45a2.65 2.65 0 012.66 2.63A2.67 2.67 0 0123.7 6.7l-.8 1.38a.76.76 0 01-.66.38h-3.99v4.52h8.78l.88-1.52c-1.6-1.64-.39-4.45 1.94-4.44a2.65 2.65 0 012.66 2.63 2.67 2.67 0 01-3.28 2.57l-1.1 1.88a.76.76 0 01-.66.38h-9.22V19H29.8zm2.55 1.88c.63 0 1.14-.5 1.14-1.13-.06-1.5-2.23-1.5-2.28 0 0 .62.5 1.13 1.14 1.13zm-2.49 10.1c.63 0 1.14-.5 1.14-1.13-.06-1.5-2.22-1.5-2.28 0 0 .62.51 1.13 1.14 1.13zm-5.52 5.51c.63 0 1.14-.5 1.14-1.12-.06-1.5-2.23-1.5-2.28 0-.01.62.5 1.12 1.14 1.12zm1.14-32.36c0-.62-.51-1.13-1.14-1.13-1.52.06-1.52 2.2 0 2.26.62 0 1.14-.5 1.14-1.13zm5.52 5.52c0-.62-.5-1.13-1.14-1.13-1.5.06-1.5 2.2 0 2.26.63 0 1.14-.5 1.14-1.13zm-14.26-5.4c-.11-3-4.45-3-4.57 0 0 .4-.34.75-.76.75a3.8 3.8 0 00-3.79 4.14.76.76 0 01-.76.83 3.8 3.8 0 00-3.55 5.18c.11.28.04.6-.18.82a5.25 5.25 0 000 7.58c.22.2.3.54.18.82a3.8 3.8 0 003.53 5.18c.22 0 .44.09.59.25.27.26.18.63.17.96a3.8 3.8 0 003.81 3.77c.42 0 .76.34.76.75.11 2.99 4.45 3 4.57 0V4.24z"/></g><defs><clipPath id="clip0"><path fill="#fff" transform="matrix(1 0 0 -1 0 39)" d="M0 0h35v38.5H0z"/></clipPath></defs></svg>