<svg width="38" height="38" fill="none" xmlns="http://www.w3.org/2000/svg"><g clip-path="url(#clip0)" fill="#fff"><path d="M26.44 19.74c.4 0 .74-.33.74-.74 0-.4-.34-.74-.74-.74h-2.62v-1.4h1.5c.41 0 .75-.33.75-.74 0-.4-.34-.74-.75-.74h-1.5v-.46c0-.41-.34-.74-.75-.74h-.46v-1.51c0-.4-.33-.74-.74-.74-.4 0-.74.33-.74.74v1.5h-1.39v-2.6c0-.41-.33-.75-.74-.75-.4 0-.74.34-.74.74v2.62h-1.4v-1.51c0-.4-.33-.74-.74-.74-.4 0-.74.33-.74.74v1.5h-.46c-.41 0-.74.34-.74.75v.46h-1.51c-.4 0-.74.33-.74.74 0 .4.33.74.74.74h1.5v1.4h-2.6c-.42 0-.75.33-.75.74 0 .4.33.74.74.74h2.62v1.4h-1.51c-.4 0-.74.33-.74.74 0 .4.33.74.74.74h1.5v.46c0 .41.34.74.75.74h.46v1.51c0 .4.33.74.74.74.4 0 .74-.33.74-.74v-1.5h1.4v2.61c0 .41.33.75.74.75.4 0 .74-.34.74-.75v-2.62h1.4v1.51c0 .4.33.74.74.74.4 0 .74-.33.74-.74v-1.5h.46c.41 0 .74-.34.74-.75v-.46h1.51c.4 0 .74-.33.74-.74 0-.4-.33-.74-.74-.74h-1.5v-1.4h2.6zm-10.78 2.6v-6.68h6.67v6.67h-6.67z"/><path d="M35.48 16.48c-1.13 0-2.1.75-2.4 1.78h-2.93l-.01-.1a.74.74 0 10-1.48.11 9.7 9.7 0 11-2.32-5.6.74.74 0 101.14-.96.65.65 0 01-.07-.07l2.06-2.07a2.5 2.5 0 003.7-2.23 2.5 2.5 0 00-2.52-2.5 2.5 2.5 0 00-2.51 2.5c0 .42.1.82.29 1.19l-2.07 2.06a11.11 11.11 0 00-6.61-2.74V4.93a2.53 2.53 0 10-1.48 0v2.92a11.29 11.29 0 00-6.62 2.75L9.57 8.53a2.5 2.5 0 00-2.23-3.7c-.67 0-1.3.26-1.77.74a2.5 2.5 0 00-.01 3.56 2.5 2.5 0 002.96.44l2.07 2.07a11.2 11.2 0 00-2.74 6.62H4.93a2.53 2.53 0 100 1.48h2.92a11.32 11.32 0 002.74 6.62l-2.06 2.07a2.5 2.5 0 00-3.7 2.23 2.5 2.5 0 002.52 2.5 2.5 2.5 0 002.51-2.5c0-.42-.1-.83-.29-1.19l2.07-2.07a11.2 11.2 0 006.62 2.74v2.92a2.52 2.52 0 101.48 0v-2.93a11.32 11.32 0 006.62-2.73l2.07 2.06a2.5 2.5 0 002.23 3.7 2.5 2.5 0 002.5-2.52 2.5 2.5 0 00-2.5-2.51c-.42 0-.83.1-1.19.29l-2.06-2.06a11.13 11.13 0 002.74-6.63h2.92a2.53 2.53 0 004.94-.74 2.54 2.54 0 00-2.53-2.51zM29.92 6.6a1.03 1.03 0 011.47 0 1.03 1.03 0 010 1.47 1.03 1.03 0 01-1.47 0 1.05 1.05 0 010-1.47zM17.96 2.52a1.04 1.04 0 012.08 0c0 .58-.47 1.04-1.04 1.04-.57 0-1.04-.46-1.04-1.04zM8.08 8.08a1.03 1.03 0 01-1.47 0 1.03 1.03 0 010-1.47 1.03 1.03 0 011.47 0 1.03 1.03 0 010 1.47zM2.52 20.04a1.04 1.04 0 010-2.08c.58 0 1.04.47 1.04 1.04 0 .57-.46 1.04-1.04 1.04zm5.56 11.35a1.03 1.03 0 01-1.47 0 1.03 1.03 0 010-1.47 1.03 1.03 0 011.47 0 1.05 1.05 0 010 1.47zm11.96 4.09a1.04 1.04 0 01-2.08 0c0-.57.47-1.04 1.04-1.04.57 0 1.04.47 1.04 1.04zm9.88-5.56a1.03 1.03 0 011.47 0 1.03 1.03 0 010 1.47 1.03 1.03 0 01-1.47 0 1.03 1.03 0 010-1.47zm5.56-9.88c-.57 0-1.04-.47-1.04-1.04 0-.57.47-1.04 1.04-1.04a1.04 1.04 0 010 2.08z"/><path d="M28.3 14.35a.75.75 0 00-.33 1 .74.74 0 00.99.33.75.75 0 00.33-1 .74.74 0 00-.99-.33z"/></g><defs><clipPath id="clip0"><path fill="#fff" d="M0 0h38v38H0z"/></clipPath></defs></svg>