<svg width="38" height="38" fill="none" xmlns="http://www.w3.org/2000/svg"><path d="M37.71 4.22a.73.73 0 00-.64-.14l-3.52.9c-.57.14-1.15.22-1.74.22h-5.18a3.36 3.36 0 00-3.34 2.86 1.88 1.88 0 01-1.87 1.61h-.2V8.12A4.38 4.38 0 0019 0a4.37 4.37 0 00-2.23 8.12v1.55h-.19c-.94 0-1.73-.67-1.87-1.61a3.35 3.35 0 00-3.34-2.86H6.19c-.59 0-1.17-.08-1.74-.22l-3.52-.9a.73.73 0 00-.64.14.73.73 0 00-.29.58 6 6 0 001.59 4.07c.02 1.8.87 3.4 2.2 4.44l.7.94a8.5 8.5 0 0012.28 1.37v2.64h-.66a4.8 4.8 0 00-4.21 7.12.74.74 0 101.3-.72 3.31 3.31 0 012.9-4.91h.67v6.63h-1.74a3.55 3.55 0 000 7.1h2.06c.26 1.39.67 2.75 1.23 4.07a.74.74 0 001.37 0l.02-.04a19 19 0 001.2-4.04h.85a1.52 1.52 0 010 3.05h-.05c-.4 0-.74.33-.74.74 0 .4.33.74.74.74h.05a3.01 3.01 0 000-6.01h-.63c.07-.65.1-1.3.1-1.97v-2.16h.5a4.8 4.8 0 000-9.6h-.5V15.6a8.5 8.5 0 0012.3-1.37l.68-.94a5.73 5.73 0 002.2-4.45A5.93 5.93 0 0038 4.8c0-.23-.1-.44-.29-.58zM16.2 14.14a6.94 6.94 0 01-9.4.38c.18.01.37.03.56.03h1.24a.74.74 0 000-1.48H7.34a4.27 4.27 0 01-4.04-2.92 6 6 0 002.7.65h1.53c.41 0 .75-.34.75-.74 0-.41-.34-.75-.75-.75H6a4.53 4.53 0 01-4.41-3.53l2.5.64c.68.18 1.4.26 2.1.26h5.18c.94 0 1.73.68 1.87 1.61a3.35 3.35 0 003.34 2.87h.2v2.4l-.6.58zm-1.16 17.85a2.07 2.07 0 01-2.06-2.06c0-1.14.92-2.07 2.06-2.07h1.74v2.12c0 .67.04 1.35.1 2h-1.84zm4.71-1.97c0 1.73-.24 3.42-.73 5.06-.5-1.65-.75-3.36-.75-5.1v-2.12h1.48v2.16zm0-3.65h-1.48V8.67a4.12 4.12 0 001.48 0v17.7zm1.98-6.63a3.32 3.32 0 010 6.64h-.5v-6.64h.5zM19 7.25a2.88 2.88 0 110-5.76 2.88 2.88 0 010 5.76zm13 2.06h-1.53a.74.74 0 100 1.48H32c.98 0 1.89-.22 2.7-.64a4.27 4.27 0 01-4.04 2.91h-1.24c-.4 0-.74.34-.74.74 0 .41.33.75.74.75h1.24c.2 0 .38-.01.56-.03a7 7 0 01-9.4-.38l-.59-.58v-2.4h.2a3.36 3.36 0 003.34-2.86c.14-.94.92-1.61 1.87-1.61h5.18c.7 0 1.42-.1 2.1-.26l2.5-.64A4.54 4.54 0 0132 9.3zM16.56 36.73a.73.73 0 00-.53-.21c-.2 0-.38.08-.53.21a.72.72 0 00-.21.53c0 .2.08.38.21.52.15.15.33.22.53.22s.39-.08.53-.22a.73.73 0 00.21-.52c0-.2-.08-.39-.21-.53z" fill="#fff"/></svg>