<svg width="36" height="36" fill="none" xmlns="http://www.w3.org/2000/svg"><path d="M3 36h25.2a3 3 0 003-3H33a3 3 0 003-3V9a.6.6 0 00-.18-.42l-8.4-8.4A.6.6 0 0027 0H15a3 3 0 00-3 3v3.6c0 .33.27.6.6.6a.6.6 0 00.6-.6V3c0-1 .8-1.8 1.8-1.8h11.4v5.4a3 3 0 003 3h5.4V30c0 1-.8 1.8-1.8 1.8h-1.8V17.4a3 3 0 00-3-3h-12c-1 0-1.8-.8-1.8-1.8v-1.2a3 3 0 00-3-3H3a3 3 0 00-3 3V33a3 3 0 003 3zM27.6 6.6V2.04l6.36 6.36H29.4c-1 0-1.8-.8-1.8-1.8zM1.2 11.4c0-1 .8-1.8 1.8-1.8h8.4c1 0 1.8.8 1.8 1.8v1.2a3 3 0 003 3h12c1 0 1.8.8 1.8 1.8V33c0 1-.8 1.8-1.8 1.8H3c-1 0-1.8-.8-1.8-1.8V11.4z" fill="#0098DA"/><path d="M16.2 8.4h1.2a.6.6 0 00.6-.6.6.6 0 00-.6-.6h-1.2a.6.6 0 00-.6.6c0 .33.27.6.6.6zM20.4 8.4h4.2a.6.6 0 00.6-.6.6.6 0 00-.6-.6h-4.2a.6.6 0 00-.6.6c0 .33.27.6.6.6zM16.2 10.8h1.2a.6.6 0 00.6-.6.6.6 0 00-.6-.6h-1.2a.6.6 0 00-.6.6c0 .33.27.6.6.6zM20.4 10.8h4.2a.6.6 0 00.6-.6.6.6 0 00-.6-.6h-4.2a.6.6 0 00-.6.6c0 .33.27.6.6.6zM16.2 13.2h1.2a.6.6 0 00.6-.6.6.6 0 00-.6-.6h-1.2a.6.6 0 00-.6.6c0 .33.27.6.6.6zM20.4 13.2h4.2a.6.6 0 00.6-.6.6.6 0 00-.6-.6h-4.2a.6.6 0 00-.6.6c0 .33.27.6.6.6zM3 13.2a.6.6 0 00.6-.6v-1.2a.6.6 0 00-.6-.6.6.6 0 00-.6.6v1.2c0 .33.27.6.6.6zM3 24.6a.6.6 0 00.6-.6v-8.4A.6.6 0 003 15a.6.6 0 00-.6.6V24c0 .33.27.6.6.6zM15.6 32.4c4.5 0 8.3-4.12 9.73-5.89.62-.76.62-1.85 0-2.62C23.91 22.12 20.1 18 15.6 18s-8.3 4.12-9.73 5.89a2.09 2.09 0 000 2.62c1.42 1.77 5.23 5.89 9.73 5.89zm8.8-7.75c.27.33.27.78 0 1.11-.63.79-1.33 1.53-2.08 2.22.64-1.8.64-3.75 0-5.55.75.68 1.45 1.42 2.08 2.22zm-4.6-4.15a7.07 7.07 0 010 9.4 8.3 8.3 0 01-4.2 1.3 8.27 8.27 0 01-4.21-1.3 7.06 7.06 0 010-9.39 8.3 8.3 0 014.21-1.3c1.5.04 2.95.49 4.2 1.3zm-13 4.15a22.1 22.1 0 012.07-2.22 8.32 8.32 0 000 5.55 22.1 22.1 0 01-2.07-2.22.89.89 0 010-1.11z" fill="#0098DA"/><path d="M15.6 28.8a3.6 3.6 0 100-7.2 3.6 3.6 0 000 7.2zm0-6a2.4 2.4 0 010 4.8 2.4 2.4 0 010-4.8z" fill="#0098DA"/></svg>