<svg width="60" height="60" viewBox="0 0 60 60" fill="none" xmlns="http://www.w3.org/2000/svg">
<path d="M6.90955 21.8847C7.08075 22.0561 7.30552 22.1422 7.53028 22.1422C7.75504 22.1422 7.97981 22.0565 8.15147 21.8847C8.49434 21.5414 8.49434 20.9847 8.15147 20.6414L6.01919 18.5068L8.15147 16.3727C8.49434 16.029 8.49434 15.4727 8.15147 15.1295C7.8086 14.7862 7.25241 14.7862 6.90955 15.1295L4.15653 17.8854C3.99174 18.0504 3.89927 18.274 3.89927 18.5068C3.89927 18.7401 3.99174 18.9637 4.15653 19.1287L6.90955 21.8847Z" fill="#FF8A00"/>
<path d="M15.6236 18.5068L13.4913 20.6414C13.1484 20.9847 13.1484 21.5414 13.4918 21.8847C13.663 22.0561 13.8877 22.1422 14.1125 22.1422C14.3373 22.1422 14.562 22.0561 14.7332 21.8847L17.4867 19.1282C17.8296 18.785 17.8296 18.2282 17.4867 17.8854L14.7332 15.129C14.3904 14.7858 13.8346 14.7858 13.4918 15.129C13.1484 15.4727 13.1484 16.029 13.4918 16.3723L15.6236 18.5068Z" fill="#FF8A00"/>
<path d="M9.51239 22.0813C9.61768 22.1225 9.72663 22.1422 9.83329 22.1422C10.1839 22.1422 10.5149 21.9305 10.6509 21.5845L12.8138 16.0721C12.9914 15.6203 12.7689 15.1102 12.3176 14.9324C11.8667 14.7551 11.3567 14.9773 11.1796 15.4292L9.01617 20.9416C8.83902 21.3934 9.06104 21.9039 9.51239 22.0813Z" fill="#FF8A00"/>
<path d="M5.27438 27.2995H11.1901C11.6749 27.2995 12.0681 26.9058 12.0681 26.4201C12.0681 25.9348 11.6749 25.5411 11.1901 25.5411H5.27438C4.78914 25.5411 4.39638 25.9348 4.39638 26.4201C4.39638 26.9058 4.78914 27.2995 5.27438 27.2995Z" fill="#FF8A00"/>
<path d="M24.8151 25.5411H14.4146C13.9298 25.5411 13.5366 25.9348 13.5366 26.4201C13.5366 26.9058 13.9298 27.2995 14.4146 27.2995H24.8151C25.3003 27.2995 25.6935 26.9058 25.6935 26.4201C25.6935 25.9348 25.3003 25.5411 24.8151 25.5411Z" fill="#FF8A00"/>
<path d="M5.27438 31.0073H7.79438C8.27916 31.0073 8.67238 30.6136 8.67238 30.1279C8.67238 29.6426 8.27916 29.2489 7.79438 29.2489H5.27438C4.78914 29.2489 4.39638 29.6426 4.39638 30.1279C4.39638 30.6136 4.78914 31.0073 5.27438 31.0073Z" fill="#FF8A00"/>
<path d="M21.6025 29.2489C21.1172 29.2489 20.7245 29.6426 20.7245 30.1279C20.7245 30.6136 21.1172 31.0073 21.6025 31.0073H23.1369C23.6221 31.0073 24.0154 30.6136 24.0154 30.1279C24.0154 29.6426 23.6221 29.2489 23.1369 29.2489H21.6025Z" fill="#FF8A00"/>
<path d="M19.2912 30.1279C19.2912 29.6426 18.898 29.2489 18.4132 29.2489H10.8756C10.3904 29.2489 9.99764 29.6426 9.99764 30.1279C9.99764 30.6136 10.3904 31.0073 10.8756 31.0073H18.4132C18.898 31.0073 19.2912 30.6136 19.2912 30.1279Z" fill="#FF8A00"/>
<path d="M25.0435 30.1279C25.0435 30.6136 25.4367 31.0073 25.9215 31.0073H28.7958C29.2811 31.0073 29.6743 30.6136 29.6743 30.1279C29.6743 29.6426 29.2811 29.2489 28.7958 29.2489H25.9215C25.4367 29.2489 25.0435 29.6426 25.0435 30.1279Z" fill="#FF8A00"/>
<path d="M20.2612 19.2121H23.293C23.7783 19.2121 24.1715 18.8185 24.1715 18.3327C24.1715 17.8474 23.7783 17.4538 23.293 17.4538H20.2612C19.776 17.4538 19.3828 17.8474 19.3828 18.3327C19.3828 18.8185 19.776 19.2121 20.2612 19.2121Z" fill="#FF8A00"/>
<path d="M26.6887 19.2121H45.1876C45.6728 19.2121 46.0655 18.8185 46.0655 18.3327C46.0655 17.8474 45.6728 17.4538 45.1876 17.4538H26.6887C26.2035 17.4538 25.8103 17.8474 25.8103 18.3327C25.8103 18.8185 26.2035 19.2121 26.6887 19.2121Z" fill="#FF8A00"/>
<path d="M42.3778 21.3215H34.8841C34.3994 21.3215 34.0061 21.7151 34.0061 22.2009C34.0061 22.6862 34.3994 23.0798 34.8841 23.0798H42.3778C42.8626 23.0798 43.2558 22.6862 43.2558 22.2009C43.2558 21.7151 42.8626 21.3215 42.3778 21.3215Z" fill="#FF8A00"/>
<path d="M32.0744 21.3215H29.4985C29.0133 21.3215 28.6205 21.7151 28.6205 22.2009C28.6205 22.6862 29.0133 23.0798 29.4985 23.0798H32.0744C32.5596 23.0798 32.9524 22.6862 32.9524 22.2009C32.9524 21.7151 32.5596 21.3215 32.0744 21.3215Z" fill="#FF8A00"/>
<path d="M20.2612 23.0798H26.5715C27.0563 23.0798 27.4495 22.6862 27.4495 22.2009C27.4495 21.7151 27.0563 21.3215 26.5715 21.3215H20.2612C19.776 21.3215 19.3828 21.7151 19.3828 22.2009C19.3828 22.6862 19.776 23.0798 20.2612 23.0798Z" fill="#FF8A00"/>
<path d="M18.4242 32.9255H12.5089C12.0237 32.9255 11.6305 33.3192 11.6305 33.8045C11.6305 34.2898 12.0237 34.6834 12.5089 34.6834H18.4242C18.909 34.6834 19.3022 34.2898 19.3022 33.8045C19.3022 33.3192 18.909 32.9255 18.4242 32.9255Z" fill="#FF8A00"/>
<path d="M9.81909 32.9255H5.27438C4.78914 32.9255 4.39638 33.3192 4.39638 33.8045C4.39638 34.2898 4.78914 34.6834 5.27438 34.6834H9.81909C10.3043 34.6834 10.6971 34.2898 10.6971 33.8045C10.6971 33.3192 10.3043 32.9255 9.81909 32.9255Z" fill="#FF8A00"/>
<path d="M29.1474 32.9255H21.4198C20.9346 32.9255 20.5418 33.3192 20.5418 33.8045C20.5418 34.2898 20.9346 34.6834 21.4198 34.6834H29.1474C29.6322 34.6834 30.0254 34.2898 30.0254 33.8045C30.0254 33.3192 29.6322 32.9255 29.1474 32.9255Z" fill="#FF8A00"/>
<path d="M39.5978 28.4098H35.3721C34.8873 28.4098 34.4941 28.8035 34.4941 29.2888C34.4941 29.7745 34.8873 30.1682 35.3721 30.1682H39.5978C40.083 30.1682 40.4757 29.7745 40.4757 29.2888C40.4757 28.8035 40.083 28.4098 39.5978 28.4098Z" fill="#FF8A00"/>
<path d="M46.9303 30.1682H52.8954C53.3807 30.1682 53.7739 29.7745 53.7739 29.2888C53.7739 28.8035 53.3807 28.4098 52.8954 28.4098H46.9303C46.445 28.4098 46.0523 28.8035 46.0523 29.2888C46.0523 29.7745 46.4455 30.1682 46.9303 30.1682Z" fill="#FF8A00"/>
<path d="M43.9475 28.4098H42.5806C42.0954 28.4098 41.7021 28.8035 41.7021 29.2888C41.7021 29.7745 42.0954 30.1682 42.5806 30.1682H43.9475C44.4327 30.1682 44.8255 29.7745 44.8255 29.2888C44.8255 28.8035 44.4327 28.4098 43.9475 28.4098Z" fill="#FF8A00"/>
<path d="M35.3721 39.7477H39.5978C40.083 39.7477 40.4757 39.3545 40.4757 38.8687C40.4757 38.3834 40.083 37.9898 39.5978 37.9898H35.3721C34.8873 37.9898 34.4941 38.3834 34.4941 38.8687C34.4941 39.3545 34.8873 39.7477 35.3721 39.7477Z" fill="#FF8A00"/>
<path d="M46.9303 39.7477H52.8954C53.3807 39.7477 53.7739 39.3545 53.7739 38.8687C53.7739 38.3834 53.3807 37.9898 52.8954 37.9898H46.9303C46.445 37.9898 46.0523 38.3834 46.0523 38.8687C46.0523 39.3545 46.4455 39.7477 46.9303 39.7477Z" fill="#FF8A00"/>
<path d="M42.5806 39.7477H43.9475C44.4327 39.7477 44.826 39.3545 44.826 38.8687C44.826 38.3834 44.4327 37.9898 43.9475 37.9898H42.5806C42.0954 37.9898 41.7026 38.3834 41.7026 38.8687C41.7026 39.3545 42.0954 39.7477 42.5806 39.7477Z" fill="#FF8A00"/>
<path d="M39.5978 47.5697H35.3721C34.8873 47.5697 34.4941 47.9633 34.4941 48.4486C34.4941 48.9339 34.8873 49.3276 35.3721 49.3276H39.5978C40.083 49.3276 40.4757 48.9339 40.4757 48.4486C40.4757 47.9633 40.083 47.5697 39.5978 47.5697Z" fill="#FF8A00"/>
<path d="M52.8954 47.5697H46.9303C46.445 47.5697 46.0523 47.9633 46.0523 48.4486C46.0523 48.9339 46.445 49.3276 46.9303 49.3276H52.8954C53.3807 49.3276 53.7739 48.9339 53.7739 48.4486C53.7739 47.9633 53.3807 47.5697 52.8954 47.5697Z" fill="#FF8A00"/>
<path d="M43.9475 47.5697H42.5806C42.0954 47.5697 41.7021 47.9633 41.7021 48.4486C41.7021 48.9339 42.0954 49.3276 42.5806 49.3276H43.9475C44.4327 49.3276 44.8255 48.9339 44.8255 48.4486C44.8255 47.9633 44.4327 47.5697 43.9475 47.5697Z" fill="#FF8A00"/>
<path d="M56.136 0H3.86493C1.73402 0 0 1.73543 0 3.86909V46.4034C0 48.5366 1.73402 50.2721 3.86493 50.2721H7.16955C7.65432 50.2721 8.04755 49.8789 8.04755 49.3931C8.04755 48.9078 7.65432 48.5142 7.16955 48.5142H3.86493C2.7022 48.5142 1.75645 47.5674 1.75645 46.4034V43.0687H33.7484V44.5837H33.0522C32.0995 44.5837 31.325 45.359 31.325 46.3127V48.5142H12.5085C12.0237 48.5142 11.6305 48.9078 11.6305 49.3931C11.6305 49.8789 12.0237 50.2721 12.5085 50.2721H20.9515V53.4249H18.3002C16.5313 53.4249 15.0926 54.8657 15.0926 56.6359V58.5349C15.0926 59.3429 15.749 60 16.5561 60H43.3776C44.1846 60 44.841 59.3429 44.841 58.5349V56.6359C44.841 54.8657 43.4023 53.4249 41.6335 53.4249H38.9821V52.3136H55.2159C56.168 52.3136 56.9426 51.5382 56.9426 50.5846V50.1708C58.6542 49.773 59.9336 48.2355 59.9336 46.4034L60 3.86863C60.0005 1.73543 58.2669 0 56.136 0ZM33.0815 40.9758V36.7621H55.1866V40.9758H33.0815ZM35.5044 35.0037V33.1542H52.7632V35.0037H35.5044ZM52.7632 42.7337V44.5837H35.5044V42.7337H52.7632ZM22.7075 50.2721H31.325V50.585C31.325 51.5382 32.0995 52.3136 33.0522 52.3136H37.2261V53.4249H22.7075V50.2721ZM41.6339 55.1832C42.4341 55.1832 43.085 55.8349 43.085 56.6359V58.2421H16.8486V56.6359C16.8486 55.8349 17.5 55.1832 18.3002 55.1832H41.6339ZM55.1866 50.5553H33.0815V46.342H55.1866V50.5553ZM58.1776 46.4034C58.1776 47.2549 57.6704 47.9885 56.943 48.3217V46.3122C56.943 45.359 56.168 44.5837 55.2159 44.5837H54.5196V43.0687H58.1776V46.4034ZM58.1776 41.3108H56.9142C56.932 41.2113 56.943 36.7328 56.943 36.7328C56.943 35.7791 56.168 35.0037 55.2159 35.0037H54.5196V33.1542H55.2159C56.168 33.1542 56.943 32.3784 56.943 31.4252V27.1528C56.943 26.1996 56.168 25.4238 55.2159 25.4238H50.256C49.7707 25.4238 49.378 25.8175 49.378 26.3032C49.378 26.7885 49.7707 27.1822 50.256 27.1822H55.1866V31.3959H33.0815V27.1822H44.7921C45.2773 27.1822 45.6701 26.7885 45.6701 26.3032C45.6701 25.8175 45.2773 25.4238 44.7921 25.4238H33.0522C32.0995 25.4238 31.325 26.1996 31.325 27.1528V31.4252C31.325 32.3784 32.0995 33.1542 33.0522 33.1542H33.7484V35.0037H33.0522C32.0995 35.0037 31.325 35.7796 31.325 36.7328C31.325 36.7328 31.336 41.2113 31.3538 41.3108H1.75645V11.9578H58.1776V41.3108ZM58.1776 10.1995H1.821V3.86863C1.821 2.70511 2.76674 1.75834 3.92947 1.75834H56.0692C57.2319 1.75834 58.1776 2.70511 58.1776 3.86909V10.1995Z" fill="#FF8A00"/>
<path d="M6.47604 3.37417C5.05513 3.37417 3.89927 4.53128 3.89927 5.95372C3.89927 7.37616 5.05513 8.53372 6.47604 8.53372C7.89695 8.53372 9.05327 7.37616 9.05327 5.95372C9.05327 4.53128 7.89695 3.37417 6.47604 3.37417ZM6.47604 6.77538C6.02377 6.77538 5.65526 6.40693 5.65526 5.95372C5.65526 5.50095 6.02377 5.13205 6.47604 5.13205C6.92877 5.13205 7.29682 5.50095 7.29682 5.95372C7.29682 6.40693 6.92877 6.77538 6.47604 6.77538Z" fill="#FF8A00"/>
<path d="M13.0372 3.37417C11.6163 3.37417 10.46 4.53128 10.46 5.95372C10.46 7.37616 11.6163 8.53372 13.0372 8.53372C14.4581 8.53372 15.614 7.37616 15.614 5.95372C15.614 4.53128 14.4577 3.37417 13.0372 3.37417ZM13.0372 6.77538C12.5845 6.77538 12.2165 6.40693 12.2165 5.95372C12.2165 5.50095 12.5845 5.13205 13.0372 5.13205C13.4895 5.13205 13.858 5.50095 13.858 5.95372C13.858 6.40693 13.4895 6.77538 13.0372 6.77538Z" fill="#FF8A00"/>
<path d="M19.5979 3.37417C18.177 3.37417 17.0212 4.53128 17.0212 5.95372C17.0212 7.37616 18.177 8.53372 19.5979 8.53372C21.0189 8.53372 22.1752 7.37616 22.1752 5.95372C22.1752 4.53128 21.0189 3.37417 19.5979 3.37417ZM19.5979 6.77538C19.1457 6.77538 18.7772 6.40693 18.7772 5.95372C18.7772 5.50095 19.1457 5.13205 19.5979 5.13205C20.0507 5.13205 20.4187 5.50095 20.4187 5.95372C20.4187 6.40693 20.0507 6.77538 19.5979 6.77538Z" fill="#FF8A00"/>
</svg>
