<svg width="40" height="31" fill="none" xmlns="http://www.w3.org/2000/svg"><path d="M26.56 10.94a.62.62 0 01-.5-.23L23.4 7.84a.67.67 0 01.04-.96.67.67 0 01.95.04l2.18 2.37 2.3-2.14a.67.67 0 01.96.04c.27.27.23.73-.04.96l-2.8 2.6c-.07.11-.26.19-.42.19zM8.92 20.2c-.3 0-.5.04-.61.04v3.98c.11.04.3.04.5.04 1.26 0 2.06-.69 2.06-2.14-.04-1.27-.76-1.92-1.95-1.92zM3.6 20.17c-.27 0-.46.03-.58.03V22c.12.04.27.04.46.04.73 0 1.19-.38 1.19-1 0-.53-.38-.87-1.07-.87z" fill="#0098DA"/><path d="M18.56 7.03a.43.43 0 00-.11-.3L13.51 1.1c-.04-.04-.07-.08-.11-.08 0 0-.04 0-.04-.03-.04 0-.08-.04-.12-.04H1A.96.96 0 000 1.9v23.58c0 .53.46 1 1 1h16.57c.54 0 1-.47 1-1V7.1v-.08zM5.47 22.46c-.46.46-1.14.65-1.99.65-.19 0-.34 0-.46-.03v2.18H1.65v-6.01c.42-.08 1.03-.12 1.87-.12.84 0 1.46.16 1.88.5.38.3.65.8.65 1.42a2.17 2.17 0 01-.58 1.41zm5.82 2.07c-.65.54-1.6.8-2.8.8-.72 0-1.22-.03-1.56-.07v-6.01c.5-.08 1.15-.12 1.87-.12 1.15 0 1.92.2 2.5.65.64.46 1.03 1.23 1.03 2.3a3.26 3.26 0 01-1.04 2.45zm5.63-4.21h-2.34v1.38h2.19v1.1h-2.19v2.46h-1.37v-6.09h3.7v1.15zM1 17.95V1.9h11.63v5.12c0 .27.23.5.5.5h4.44v10.42H1z" fill="#0098DA"/><path d="M14.43 11.7c-.04 0-.73-.07-1.84-.07-.34 0-.69 0-1.03.04a47.84 47.84 0 01-4.82-4.14c0-.11.04-.19.04-.23.11-1.3 0-2.18-.43-2.64-.26-.27-.65-.38-1.03-.27-.23.08-.69.31-.84.8-.15.54.11 1.2.76 1.96 0 0 .23.27.65.65-.26 1.3-1 4.1-1.34 5.44-.8.42-1.49.95-2.02 1.57l-.08.07c-.04.12-.3.7-.12 1.19.08.23.27.38.5.46H3.06c.42 0 1.46-.23 2-2.26l.15-.54c1.95-.95 4.36-1.22 6.12-1.34.92.66 1.8 1.3 2.68 1.84h.04c.04.04.42.2.88.2.65 0 1.1-.39 1.26-1.08v-.04c.04-.38-.04-.72-.27-1.03-.5-.54-1.41-.57-1.49-.57zm-11.3 4.06c-.03 0-.03 0 0 0-.03-.11 0-.34.09-.53.3-.35.68-.7 1.14-.96-.46 1.38-1.07 1.5-1.22 1.5zm2.69-9.15c-.65-.72-.65-1.07-.61-1.22.07-.2.3-.27.3-.27.12-.04.23-.04.27.04.15.19.3.69.23 1.68l-.2-.23zm-.35 6.2v-.03c.35-1.27.8-3.18 1.08-4.37.88.85 2.22 2.03 3.82 3.3l.04.03c-1.5.12-3.33.42-4.94 1.08zm10 .43c-.12.42-.35.5-.54.5-.23 0-.46-.12-.5-.12-.57-.38-1.19-.77-1.8-1.23 1.03 0 1.76.08 1.76.08.2 0 .73.08.96.38.11.08.11.23.11.39zM39.27 31H21.13a.69.69 0 01-.69-.69V4.51c0-.38.3-.7.69-.7h13.51c.2 0 .38.09.5.24l4.67 4.9c.11.11.19.3.19.46v20.9a.75.75 0 01-.73.69zm-17.45-1.38h16.8V9.68L34.33 5.2H21.82v24.42z" fill="#0098DA"/><path d="M30.2 24.1a.69.69 0 01-.69-.68v-9.57c0-.38.3-.69.7-.69.37 0 .68.3.68.69v9.57c0 .38-.3.69-.69.69z" fill="#0098DA"/><path d="M34.8 14.5h-9.23a.69.69 0 01-.69-.69c0-.38.3-.69.69-.69h9.22c.39 0 .7.3.7.7 0 .37-.31.68-.7.68zM39.27 10.1H34.6a.69.69 0 01-.69-.7V4.5a.7.7 0 01.43-.64.7.7 0 01.76.15l4.67 4.9c.2.2.23.5.15.77a.73.73 0 01-.65.42zM35.3 8.72h2.38l-2.38-2.49v2.49zM26.53 10.67c-.08 0-.16 0-.23-.04-.35-.11-.54-.5-.42-.88a6.34 6.34 0 00-7.5-8.19.73.73 0 01-.85-.5.73.73 0 01.5-.84 7.72 7.72 0 019.15 10 .75.75 0 01-.65.45z" fill="#0098DA"/></svg>