<svg xmlns="http://www.w3.org/2000/svg" xml:space="preserve" width="64" height="49.17"><defs><clipPath clipPathUnits="userSpaceOnUse" id="a"><path d="M0 36.88h48V0H0Z"/></clipPath></defs><g clip-path="url(#a)" transform="matrix(1.33333 0 0 -1.33333 0 49.17)"><path d="M5.43 11.1v1.66c.42-.06.74-.4.74-.83a.84.84 0 0 0-.74-.83m-.1 2.84h-.48a.58.58 0 0 1-.58-.58V8.59a.58.58 0 0 1 1.16 0v1.34a2 2 0 0 1-.1 4M9.24 11.1v1.66c.41-.06.74-.4.74-.83a.84.84 0 0 0-.74-.83m-.1 2.84h-.48a.58.58 0 0 1-.58-.58V8.59a.58.58 0 0 1 1.16 0v1.34a2 2 0 0 1-.1 4M14.37 13.94h-1.9a.58.58 0 1 1 0-1.16h.37V8.6a.58.58 0 1 1 1.16 0v4.18h.37a.58.58 0 0 1 0 1.16M18.37 13.9a.58.58 0 0 1-.75-.33l-.42-1.03-.41 1.03a.58.58 0 0 1-1.08-.43l.87-2.16-.87-2.17a.58.58 0 0 1 1.08-.43l.41 1.04.42-1.04a.58.58 0 1 1 1.07.43l-.86 2.17.86 2.16c.12.3-.02.64-.32.75" fill="#ffffff"/><path d="M1.64 16.64h19.72V6.04H1.64Zm13.41 18.28v-6.4a.82.82 0 0 1 .82-.82l5.49.03v-9.45H1.64v16.64zm6.07-5.55-4.43-.02v4.92zm-3.76 6.6c-.33.38-.82.6-1.32.6H1.35C.61 36.56 0 35.95 0 35.2V5.75C0 5 .6 4.4 1.35 4.4h20.3C22.4 4.4 23 5 23 5.75v23.3c0 .45-.16.87-.46 1.2z" fill="#ffffff"/><path d="M26.64 1.64v30.88h4.63c1-1.63 1.07-3.4 1.07-3.52 0-.06.03-.1.04-.17-1.34 1.1-1.47 1.08-1.8 1.03a.82.82 0 0 1-.19-1.57c.3-.2 1.5-1.17 2.49-2a.82.82 0 0 1 1.2.16l2 2.96a.82.82 0 1 1-1.36.92l-.75-1.1c-.04.88-.28 2.08-.85 3.29h6.93v-6.14a.82.82 0 0 1 .82-.82l5.49.02V1.64Zm19.41 25.58-4.36-.02v4.7Zm1.48.85-5.18 5.52a1.8 1.8 0 0 1-1.31.57h-8.93a7.01 7.01 0 0 1-3.61 2.4c-3.94 1.13-7.41-1.08-7.56-1.17a.82.82 0 0 1 .9-1.38c.02.02 3 1.89 6.2.97.68-.2 1.23-.48 1.7-.82h-3.39c-.74 0-1.35-.6-1.35-1.33V1.33C25 .6 25.6 0 26.35 0h20.3C47.39 0 48 .6 48 1.33V26.9c0 .44-.17.86-.47 1.18M17.2 22.66h1.07a.82.82 0 0 1 0 1.64H17.2a.82.82 0 0 1 0-1.64M13.77 20.34c0-.45.36-.82.82-.82h3.68a.82.82 0 1 1 0 1.64h-3.68a.82.82 0 0 1-.82-.82M8.56 29.37v-3.09L6 24.58a3.58 3.58 0 0 0 2.56 4.79m4.45-3.53a3.63 3.63 0 0 0-6.1-2.64l2.93 1.96c.23.15.36.4.36.68v3.53c1.6-.38 2.8-1.81 2.8-3.53m-3.62-5.27a5.28 5.28 0 1 1-.01 10.55 5.28 5.28 0 0 1 .01-10.55" fill="#ffffff"/><path d="M44.4 18.31a.82.82 0 1 1 0 1.64H28.78a.82.82 0 1 1 0-1.64h3.82v-2.94h-3.82a.82.82 0 1 1 0-1.64h3.82V10.8h-3.82a.82.82 0 1 1 0-1.64h3.82V6.22h-3.82a.82.82 0 1 1 0-1.64h15.39a.82.82 0 1 1 0 1.64h-9.93v2.94h9.93a.82.82 0 1 1 0 1.64h-9.93v2.93h9.93a.82.82 0 1 1 0 1.64h-9.93v2.94Z" fill="#ffffff"/></g></svg>