<svg xmlns="http://www.w3.org/2000/svg" xml:space="preserve" width="64" height="46.4"><defs><clipPath clipPathUnits="userSpaceOnUse" id="a"><path d="M0 34.8h48V0H0Z"/></clipPath></defs><g clip-path="url(#a)" transform="matrix(1.33333 0 0 -1.33333 0 46.4)"><path d="M5.43 9.02v1.66c.42-.05.74-.4.74-.83a.84.84 0 0 0-.74-.83m-.1 2.84h-.48a.58.58 0 0 1-.58-.58V6.51a.58.58 0 0 1 1.16 0v1.34a2 2 0 0 1-.1 4M9.24 9.02v1.66c.41-.05.74-.4.74-.83a.84.84 0 0 0-.74-.83m-.1 2.84h-.48a.58.58 0 0 1-.58-.58V6.51a.58.58 0 0 1 1.16 0v1.34a2 2 0 0 1-.1 4M14.37 11.86h-1.9a.58.58 0 0 1 0-1.16h.37V6.52a.58.58 0 0 1 1.16 0v4.18h.37a.58.58 0 1 1 0 1.16M18.37 11.82a.58.58 0 0 1-.75-.33l-.42-1.03-.41 1.03a.58.58 0 1 1-1.08-.43l.87-2.16-.87-2.17a.58.58 0 0 1 1.08-.43l.41 1.04.42-1.04a.58.58 0 1 1 1.07.43l-.86 2.17.86 2.16c.12.3-.02.64-.32.76" fill="#0098da"/><path d="M1.64 14.56h19.72V3.96H1.64Zm13.41 18.28v-6.4a.82.82 0 0 1 .82-.81l5.49.02V16.2H1.64v16.64zm6.07-5.55-4.43-.02v4.92zm-3.76 6.6c-.33.38-.82.6-1.32.6H1.35c-.74 0-1.35-.61-1.35-1.36V3.67c0-.74.6-1.35 1.35-1.35h20.3c.75 0 1.35.6 1.35 1.35v23.3c0 .45-.16.87-.46 1.2z" fill="#0098da"/><path d="M33.16 26.12h.02M26.64 1.64v28.8h4.63c1-1.63 1.07-3.4 1.07-3.51 0-.06.03-.12.04-.17-1.34 1.08-1.47 1.08-1.8 1.02a.82.82 0 0 1-.19-1.56c.3-.2 1.5-1.18 2.49-2.02a.82.82 0 0 1 1.2.17l2 2.96a.82.82 0 1 1-1.36.92l-.75-1.1c-.04.88-.28 2.09-.85 3.29h6.93V24.3a.83.83 0 0 1 .82-.82l5.49.02V1.64zm19.41 23.5-4.36-.02v4.7zm1.48.85-5.18 5.53a1.8 1.8 0 0 1-1.31.56h-8.93a7.02 7.02 0 0 1-3.61 2.4c-3.94 1.13-7.41-1.08-7.56-1.17a.82.82 0 0 1 .9-1.38c.02.02 3 1.9 6.2.97.68-.2 1.23-.48 1.7-.82h-3.39c-.74 0-1.35-.6-1.35-1.33V1.33C25 .6 25.6 0 26.35 0h20.3C47.39 0 48 .6 48 1.33v23.48c0 .44-.17.86-.47 1.18" fill="#0098da"/><path d="M39.6 19.22H32.7a.82.82 0 0 1 0-1.64h2.62V8.83a.82.82 0 1 1 1.64 0v8.75h2.62a.82.82 0 0 1 0 1.64M17.2 20.58h1.07a.82.82 0 0 1 0 1.64H17.2a.82.82 0 0 1 0-1.64M13.77 18.26c0-.45.36-.82.82-.82h3.68a.82.82 0 1 1 0 1.64h-3.68a.82.82 0 0 1-.82-.82M8.56 27.29V24.2L6 22.5a3.58 3.58 0 0 0 2.56 4.79m4.45-3.53a3.63 3.63 0 0 0-6.1-2.63l2.93 1.95c.23.15.36.4.36.68v3.53c1.6-.37 2.8-1.81 2.8-3.53M9.39 18.5a5.28 5.28 0 1 1-.01 10.56 5.28 5.28 0 0 1 .01-10.56" fill="#0098da"/></g></svg>