<svg xmlns="http://www.w3.org/2000/svg" xml:space="preserve" width="66.667" height="66.667"><defs><clipPath id="a" clipPathUnits="userSpaceOnUse"><path d="M0 50h50V0H0Z"/></clipPath></defs><g clip-path="url(#a)" transform="matrix(1.33333 0 0 -1.33333 0 66.667)"><path d="M0 0a.831.831 0 0 0 0-1.66A.83.83 0 0 0 0 0m-.844-3.215c-.001-.019-.011-.035-.011-.054v-5.862a.855.855 0 1 1 1.71 0v5.862c0 .019-.009.035-.01.054A2.536 2.536 0 0 1 2.541-.83C2.541.571 1.401 1.71 0 1.71c-1.4 0-2.54-1.139-2.54-2.54 0-1.103.711-2.035 1.696-2.385" style="fill:#0098da;fill-opacity:1;fill-rule:nonzero;stroke:none" transform="translate(25.316 46.846)"/><path d="M0 0a.832.832 0 0 0 .831-.83.831.831 0 0 0-1.661 0c0 .457.373.83.83.83m0-3.37c1.12 0 2.063.733 2.4 1.742h.651v-4.361a.855.855 0 0 1 1.71 0v5.216a.855.855 0 0 1-.855.855H2.364A2.538 2.538 0 0 1 0 1.71c-1.4 0-2.54-1.139-2.54-2.54S-1.4-3.37 0-3.37" style="fill:#0098da;fill-opacity:1;fill-rule:nonzero;stroke:none" transform="translate(14.717 43.703)"/><path d="M0 0a.831.831 0 0 0 0-1.66A.83.83 0 0 0 0 0m-3.906-6.844c.472 0 .855.383.855.855v4.361h.652A2.533 2.533 0 0 1 0-3.37 2.543 2.543 0 0 1 2.541-.83C2.541.571 1.401 1.71 0 1.71A2.54 2.54 0 0 1-2.364.082h-1.542a.855.855 0 0 1-.856-.855v-5.216c0-.472.383-.855.856-.855" style="fill:#0098da;fill-opacity:1;fill-rule:nonzero;stroke:none" transform="translate(35.278 43.703)"/><path d="M0 0a.831.831 0 0 0 0 1.66A.83.83 0 0 0 0 0m8.108 1.685h-5.67c-.019 0-.035-.009-.053-.011A2.536 2.536 0 0 1 0 3.37 2.542 2.542 0 0 1-2.54.83 2.542 2.542 0 0 1 0-1.71c1.103 0 2.035.711 2.385 1.696.018-.001.034-.011.053-.011h5.67a.855.855 0 0 1 0 1.71" style="fill:#0098da;fill-opacity:1;fill-rule:nonzero;stroke:none" transform="translate(2.7 24.467)"/><path d="M0 0a.83.83 0 1 0 .001 1.661A.83.83 0 0 0 0 0m4.965 5.592H-.057a.855.855 0 0 1-.855-.856V3.195A2.54 2.54 0 0 1-2.54.83 2.543 2.543 0 0 1 0-1.711c1.401 0 2.54 1.14 2.54 2.541a2.536 2.536 0 0 1-1.742 2.4v.651h4.167a.855.855 0 1 1 0 1.711" style="fill:#0098da;fill-opacity:1;fill-rule:nonzero;stroke:none" transform="translate(5.843 13.867)"/><path d="M0 0a.831.831 0 0 0 0-1.661A.831.831 0 0 0 0 0m4.965-3.881H.798v.651A2.536 2.536 0 0 1 2.54-.83 2.542 2.542 0 0 1 0 1.71 2.542 2.542 0 0 1-2.54-.83c0-1.079.678-1.996 1.628-2.364v-1.542c0-.472.383-.855.855-.855h5.022a.855.855 0 1 1 0 1.71" style="fill:#0098da;fill-opacity:1;fill-rule:nonzero;stroke:none" transform="translate(5.843 36.089)"/><path d="M0 0a.831.831 0 0 0 0 1.661A.831.831 0 0 0 0 0m0 3.371a2.536 2.536 0 0 1-2.385-1.696c-.018.001-.034.011-.053.011h-5.808a.855.855 0 1 1 0-1.71h5.808c.019 0 .035.009.053.01A2.536 2.536 0 0 1 0-1.71 2.543 2.543 0 0 1 2.541.831c0 1.401-1.14 2.54-2.541 2.54" style="fill:#0098da;fill-opacity:1;fill-rule:nonzero;stroke:none" transform="translate(47.299 23.829)"/><path d="M0 0a.831.831 0 0 0 0-1.661A.831.831 0 0 0 0 0m-5.104-5.591H.058c.472 0 .855.383.855.855v1.542A2.54 2.54 0 0 1 2.541-.83C2.541.571 1.401 1.71 0 1.71c-1.4 0-2.54-1.139-2.54-2.54 0-1.121.734-2.063 1.742-2.4v-.651h-4.306a.855.855 0 0 1 0-1.71" style="fill:#0098da;fill-opacity:1;fill-rule:nonzero;stroke:none" transform="translate(44.156 36.089)"/><path d="M0 0a.83.83 0 0 0-.83.829.831.831 0 0 0 1.661 0A.831.831 0 0 0 0 0m.844 3.215c.002.018.011.034.011.053v5.685a.855.855 0 1 1-1.71 0V3.268c0-.019.01-.035.011-.053A2.536 2.536 0 0 1-2.54.829c0-1.4 1.139-2.54 2.54-2.54A2.544 2.544 0 0 1 2.541.829 2.537 2.537 0 0 1 .844 3.215" style="fill:#0098da;fill-opacity:1;fill-rule:nonzero;stroke:none" transform="translate(24.679 3.155)"/><path d="M0 0a.83.83 0 0 0-.83.829.831.831 0 0 0 1.661 0A.831.831 0 0 0 0 0m3.906 6.666a.855.855 0 0 1-.855-.855V1.628H2.4A2.537 2.537 0 0 1 0 3.37c-1.4 0-2.54-1.14-2.54-2.541 0-1.4 1.14-2.54 2.54-2.54A2.54 2.54 0 0 1 2.364-.083h1.542c.472 0 .855.383.855.855v5.039a.855.855 0 0 1-.855.855" style="fill:#0098da;fill-opacity:1;fill-rule:nonzero;stroke:none" transform="translate(14.717 6.298)"/><path d="M0 0c-.702 0-1.266-.524-1.266-1.154 0-.629.564-1.168 1.266-1.168.702 0 1.282.539 1.282 1.168C1.282-.524.702 0 0 0" style="fill:#0098da;fill-opacity:1;fill-rule:nonzero;stroke:none" transform="translate(24.472 21.85)"/><path d="M0 0c.656.704 1.205 1.528 1.205 2.712 0 1.888-1.373 3.146-3.463 3.146-1.266 0-3.326-.464-3.326-1.558 0-.554.533-.914 1.022-.914.412 0 .626.255.946.405.381.18.87.24 1.205.24 1.038 0 1.511-.6 1.511-1.304 0-.899-.763-1.619-1.205-2.068-.55-.555-1.191-1.319-1.191-2.083 0-.749.595-1.049 1.069-1.049.534 0 1.037.375 1.067.959 0 .135.031.375.122.465C-.763-.764-.504-.54 0 0" style="fill:#0098da;fill-opacity:1;fill-rule:nonzero;stroke:none" transform="translate(26.715 24.683)"/><path d="M0 0h-3.491c-.387 0-.695-.351-.695-.624 0-.331.298-.614.695-.614h1.052v-5.1c0-.331.307-.624.694-.624.377 0 .694.293.694.624v5.1H0c.377 0 .704.283.704.614C.704-.273.357 0 0 0" style="fill:#0098da;fill-opacity:1;fill-rule:nonzero;stroke:none" transform="translate(36.783 15.645)"/><path d="M0 0c-.218 0-.446-.02-.645-.078l.06 1.267H1.27c.357 0 .753.157.753.595 0 .448-.396.614-.753.614h-2.39c-.367 0-.744-.244-.754-.653l-.1-2.691c-.009-.39.298-.663.695-.663.317 0 .714.302.714.302.169.088.328.127.545.127.537 0 .953-.332.953-1.053 0-.576-.268-1.151-1.151-1.151-.664 0-.942.361-1.329.361-.377 0-.664-.283-.664-.604 0-.81 1.755-.937 2.222-.937 1.626 0 2.301 1.239 2.301 2.37C2.312-.819 1.359 0 0 0" style="fill:#0098da;fill-opacity:1;fill-rule:nonzero;stroke:none" transform="translate(40.067 13.256)"/><path d="M0 0c-4.436 0-8.044 3.608-8.044 8.045 0 4.437 3.608 8.045 8.044 8.045s8.045-3.608 8.045-8.045C8.045 3.608 4.436 0 0 0m0 17.801c-5.379 0-9.755-4.377-9.755-9.756 0-5.379 4.376-9.756 9.755-9.756 5.379 0 9.756 4.377 9.756 9.756 0 5.379-4.377 9.756-9.756 9.756" style="fill:#0098da;fill-opacity:1;fill-rule:nonzero;stroke:none" transform="translate(37.658 4.84)"/><path d="M0 0c.473 0 .855.383.855.855v8.276c0 1.522-1.334 2.76-2.972 2.76h-18.618c-1.639 0-2.972-1.238-2.972-2.76V-7.422c0-1.521 1.333-2.76 2.972-2.76h9.603a.856.856 0 0 1 0 1.711h-9.603c-.696 0-1.262.471-1.262 1.049V9.131c0 .579.566 1.05 1.262 1.05h18.618c.696 0 1.262-.471 1.262-1.05V.855C-.855.383-.473 0 0 0" style="fill:#0098da;fill-opacity:1;fill-rule:nonzero;stroke:none" transform="translate(36.424 24.123)"/></g></svg>