<svg width="66.667" height="66.667" xmlns="http://www.w3.org/2000/svg"><defs><clipPath clipPathUnits="userSpaceOnUse" id="a"><path d="M0 50h50V0H0Z"/></clipPath></defs><g clip-path="url(#a)" transform="matrix(1.33333 0 0 -1.33333 0 66.667)"><path d="M0 0h-11.579a.85.85 0 1 0 0 1.699H0A.85.85 0 1 0 0 0" style="fill:#0098da;fill-opacity:1;fill-rule:nonzero;stroke:none" transform="translate(20.74 14.3)"/><path d="M0 0h-14.757a.85.85 0 1 0 0 1.699H0A.85.85 0 1 0 0 0" style="fill:#0098da;fill-opacity:1;fill-rule:nonzero;stroke:none" transform="translate(23.919 18.344)"/><path d="M0 0h-7.764a.85.85 0 1 0 0 1.7H0A.85.85 0 0 0 0 0" style="fill:#0098da;fill-opacity:1;fill-rule:nonzero;stroke:none" transform="translate(16.925 22.389)"/><path d="M0 0a.86.86 0 0 1-1.1-.01l-2.92-2.5-2.92 2.5c-.15.13-.35.2-.55.2-.2 0-.39-.07-.55-.21l-2.91-2.49-2.9 2.49c-.32.28-.8.28-1.11 0l-2.05-1.77v24.27c0 .76.45 1.41.98 1.41H1.23c.53 0 .97-.65.97-1.41l.01-24.31Zm1.23 25.59h-17.26c-1.48 0-2.68-1.4-2.68-3.11V-3.64c0-.33.19-.64.49-.78a.889.889 0 0 1 .91.13l2.9 2.51 2.91-2.5c.32-.27.79-.27 1.11 0l2.9 2.5 2.92-2.5c.31-.27.78-.27 1.1 0l2.94 2.51 3.04-2.52c.26-.21.61-.25.91-.11.29.14.48.44.48.77v26.11c0 1.71-1.19 3.11-2.67 3.11" style="fill:#0098da;fill-opacity:1;fill-rule:nonzero;stroke:none" transform="translate(24.17 12)"/><path d="M0 0a.85.85 0 1 0-1.7 0c0 .71-.41 1.31-.9 1.31h-16.57c-.49 0-.9-.6-.9-1.31v-23.01l1.39 1.4c.33.33.87.33 1.21 0 .33-.33.33-.87 0-1.2l-2.85-2.86a.857.857 0 0 0-.6-.25c-.11 0-.22.02-.32.07-.32.13-.53.44-.53.78V0c0 1.66 1.17 3.01 2.6 3.01H-2.6C-1.17 3.01 0 1.66 0 0" style="fill:#0098da;fill-opacity:1;fill-rule:nonzero;stroke:none" transform="translate(21.79 39.48)"/><path d="M0 0a1.1 1.1 0 0 0-1.1 1.1v5.136a1.1 1.1 0 0 0 2.2 0V1.1A1.1 1.1 0 0 0 0 0" style="fill:#0098da;fill-opacity:1;fill-rule:nonzero;stroke:none" transform="translate(9.934 26.743)"/><path d="M0 0a1.1 1.1 0 0 0-1.1 1.1v5.136a1.1 1.1 0 0 0 2.2 0V1.1A1.1 1.1 0 0 0 0 0" style="fill:#0098da;fill-opacity:1;fill-rule:nonzero;stroke:none" transform="translate(13.444 26.743)"/><path d="M0 0a1.1 1.1 0 0 0-1.1 1.1v5.136a1.1 1.1 0 0 0 2.2 0V1.1A1.1 1.1 0 0 0 0 0" style="fill:#0098da;fill-opacity:1;fill-rule:nonzero;stroke:none" transform="translate(16.954 26.743)"/><path d="M0 0a1.1 1.1 0 0 0-1.1 1.1v5.136a1.1 1.1 0 0 0 2.2 0V1.1A1.1 1.1 0 0 0 0 0" style="fill:#0098da;fill-opacity:1;fill-rule:nonzero;stroke:none" transform="translate(20.464 26.743)"/><path d="M0 0a.85.85 0 0 0-.85-.85h-.6C-4.68-.85-7.3 1.78-7.3 5v27.53c0 3.22 2.62 5.85 5.85 5.85h.6a.85.85 0 1 0 0-1.7h-.6c-2.29 0-4.15-1.87-4.15-4.15V20.11h3.83a.85.85 0 1 0 0-1.7H-5.6V5C-5.6 2.71-3.74.85-1.45.85h.6C-.38.85 0 .47 0 0" style="fill:#0098da;fill-opacity:1;fill-rule:nonzero;stroke:none" transform="translate(37.87 6.86)"/><path d="M0 0h-2.951a.85.85 0 1 0 0 1.7H0A.85.85 0 1 0 0 0" style="fill:#0098da;fill-opacity:1;fill-rule:nonzero;stroke:none" transform="translate(46.313 42.195)"/><path d="M0 0h-2.951a.85.85 0 1 0 0 1.7H0A.85.85 0 1 0 0 0" style="fill:#0098da;fill-opacity:1;fill-rule:nonzero;stroke:none" transform="translate(46.313 39.807)"/><path d="m0 0-.8.44a.87.87 0 0 1-.8.01l-1.85-.94-1.58.92c-.14.07-.28.11-.43.11-.13 0-.26-.03-.38-.09l-1.04-.52V6.7H0Zm.1 8.4h-7.08c-.88 0-1.6-.7-1.6-1.56v-8.28c-.01-.29.15-.57.4-.72.25-.16.56-.17.82-.04l1.87.93 1.58-.93c.13-.07.28-.11.43-.11.13 0 .26.03.38.09l1.87.95 1.67-.91c.27-.14.58-.14.84.01.26.16.42.43.42.73v8.27C1.7 7.7.98 8.4.1 8.4" style="fill:#0098da;fill-opacity:1;fill-rule:nonzero;stroke:none" transform="translate(48.28 38.47)"/><path d="M0 0h-2.951a.85.85 0 1 0 0 1.7H0A.85.85 0 1 0 0 0" style="fill:#0098da;fill-opacity:1;fill-rule:nonzero;stroke:none" transform="translate(46.313 25.682)"/><path d="M0 0h-2.951a.85.85 0 1 0 0 1.7H0A.85.85 0 1 0 0 0" style="fill:#0098da;fill-opacity:1;fill-rule:nonzero;stroke:none" transform="translate(46.313 23.293)"/><path d="M0 0h.01zm2.27-6.294a.849.849 0 0 0 .427-.116l1.581-.919 1.857.943a.847.847 0 0 0 .792-.012l.803-.439v6.701H.85L.847-6.902l1.045.52a.866.866 0 0 0 .378.088m1.981-2.852a.851.851 0 0 0-.428.115l-1.586.922-1.863-.926a.852.852 0 0 0-1.228.762L-.85 0c0 .862.716 1.564 1.597 1.564h7.085C8.713 1.564 9.43.862 9.43 0l.001-8.27a.852.852 0 0 0-1.257-.746l-1.669.911-1.869-.949a.843.843 0 0 0-.385-.092" style="fill:#0098da;fill-opacity:1;fill-rule:nonzero;stroke:none" transform="translate(40.549 28.791)"/><path d="M0 0h-2.951a.85.85 0 1 0 0 1.699H0A.85.85 0 1 0 0 0" style="fill:#0098da;fill-opacity:1;fill-rule:nonzero;stroke:none" transform="translate(46.313 9.169)"/><path d="M0 0h-2.951a.85.85 0 1 0 0 1.699H0A.85.85 0 1 0 0 0" style="fill:#0098da;fill-opacity:1;fill-rule:nonzero;stroke:none" transform="translate(46.313 6.78)"/><path d="M0 0h.01zm2.27-6.294a.845.845 0 0 0 .427-.115l1.581-.92 1.857.943a.853.853 0 0 0 .792-.011l.803-.44v6.701H.85L.847-6.901l1.045.518a.84.84 0 0 0 .378.089m1.981-2.852a.849.849 0 0 0-.428.115l-1.586.923-1.863-.926a.85.85 0 0 0-1.228.761L-.85 0c0 .862.716 1.563 1.597 1.563h7.085C8.713 1.563 9.43.862 9.43 0l.001-8.27a.852.852 0 0 0-1.257-.746l-1.669.912-1.869-.951a.854.854 0 0 0-.385-.091" style="fill:#0098da;fill-opacity:1;fill-rule:nonzero;stroke:none" transform="translate(40.549 12.278)"/></g></svg>