<svg xmlns="http://www.w3.org/2000/svg" xml:space="preserve" width="66.667" height="69.432"><defs><clipPath clipPathUnits="userSpaceOnUse" id="a"><path d="M0 52.074h50V0H0Z"/></clipPath></defs><g clip-path="url(#a)" transform="matrix(1.33333 0 0 -1.33333 0 69.432)"><path d="M0 0v5.802a2.493 2.493 0 0 0 2.49 2.49h39.736a2.494 2.494 0 0 0 2.491-2.49V0Zm42.226 9.934H2.49a4.137 4.137 0 0 1-4.132-4.132v-21.428a.82.82 0 0 1 1.642 0v13.984h44.717v-14.2c0-.454.366-.82.821-.82a.82.82 0 0 1 .82.82V5.802a4.137 4.137 0 0 1-4.132 4.132" style="fill:#0098da;fill-opacity:1;fill-rule:nonzero;stroke:none" transform="translate(2.642 41.002)"/><path d="M0 0a.758.758 0 0 0 0 1.513A.757.757 0 0 0 0 0m0 3.155A2.401 2.401 0 0 1-2.399.757 2.401 2.401 0 0 1 0-1.642 2.401 2.401 0 0 1 2.398.757 2.401 2.401 0 0 1 0 3.155" style="fill:#0098da;fill-opacity:1;fill-rule:nonzero;stroke:none" transform="translate(8.188 44.458)"/><path d="M0 0a.757.757 0 1 0 .002 1.514A.757.757 0 0 0 0 0m0 3.155A2.401 2.401 0 0 1-2.398.757 2.401 2.401 0 0 1 0-1.642 2.401 2.401 0 0 1 2.399.757 2.401 2.401 0 0 1 0 3.155" style="fill:#0098da;fill-opacity:1;fill-rule:nonzero;stroke:none" transform="translate(14.835 44.458)"/><path d="M0 0a.758.758 0 0 0 0 1.513A.758.758 0 0 0 0 0m0 3.155A2.401 2.401 0 0 1-2.399.757 2.401 2.401 0 0 1 0-1.642 2.401 2.401 0 0 1 2.398.757 2.401 2.401 0 0 1 0 3.155" style="fill:#0098da;fill-opacity:1;fill-rule:nonzero;stroke:none" transform="translate(21.482 44.458)"/><path d="M0 0a.82.82 0 0 1 0 1.642h-7.094a.822.822 0 0 1 0-1.642Z" style="fill:#0098da;fill-opacity:1;fill-rule:nonzero;stroke:none" transform="translate(22.52 32.905)"/><path d="M0 0h16.196a.82.82 0 1 1 0 1.641H0A.82.82 0 1 1 0 0" style="fill:#0098da;fill-opacity:1;fill-rule:nonzero;stroke:none" transform="translate(6.448 27.094)"/><path d="M0 0h4.369a.82.82 0 1 1 0 1.642H0A.822.822 0 0 1 0 0" style="fill:#0098da;fill-opacity:1;fill-rule:nonzero;stroke:none" transform="translate(6.448 32.905)"/><path d="M0 0h8.373a.82.82 0 0 1 0 1.642H0A.82.82 0 0 1 0 0" style="fill:#0098da;fill-opacity:1;fill-rule:nonzero;stroke:none" transform="translate(31.712 30.76)"/><path d="M0 0v5.152c0 .51.414.924.924.924h13.123c.51 0 .924-.414.924-.924V0a.924.924 0 0 0-.924-.923H.924A.924.924 0 0 0 0 0m14.047-2.565A2.567 2.567 0 0 1 16.611 0v5.152a2.568 2.568 0 0 1-2.564 2.566H.924a2.569 2.569 0 0 1-2.565-2.566V0A2.568 2.568 0 0 1 .924-2.565z" style="fill:#0098da;fill-opacity:1;fill-rule:nonzero;stroke:none" transform="translate(28.413 29.005)"/><path d="m0 0 .552 1.803c.094.304.147.705.188 1.032.042-.327.093-.728.188-1.032L1.459 0Zm1.595 4.142c-.146.42-.355.716-.855.716s-.708-.305-.844-.716l-2.032-5.996a.927.927 0 0 1-.031-.233c0-.399.344-.674.75-.674.25 0 .584.191.688.496l.344 1.064h2.219l.364-1.064c.105-.295.438-.496.71-.496.426 0 .749.275.749.674 0 .054-.01.18-.031.233z" style="fill:#0098da;fill-opacity:1;fill-rule:nonzero;stroke:none" transform="translate(7.767 13.106)"/><path d="M0 0c.396 0 .73.273.73.653 0 .368-.334.685-.73.685h-2.823c-.459 0-.802-.379-.802-.748v-6.112c0-.358.322-.674.729-.674.396 0 .729.316.729.674v2.477h1.969c.406 0 .719.295.719.674 0 .38-.354.664-.719.664h-1.969V0Z" style="fill:#0098da;fill-opacity:1;fill-rule:nonzero;stroke:none" transform="translate(15.914 16.541)"/><path d="M0 0h-1.167v1.749h1.104c.949 0 1.167-.453 1.167-.895C1.104.306.719 0 0 0m1.115-1.17c.896.296 1.448.981 1.448 2.024 0 1.106-.625 2.233-2.584 2.233h-1.812c-.428 0-.792-.347-.792-.758V-3.74c0-.38.332-.697.718-.697.396 0 .74.328.74.697v2.412h.709l1.75-2.771a.704.704 0 0 1 .615-.326c.468 0 .98.558.635 1.084z" style="fill:#0098da;fill-opacity:1;fill-rule:nonzero;stroke:none" transform="translate(20.268 14.782)"/><path d="M0 0c-.407 0-.729-.316-.729-.675v-6.27c0-.358.322-.674.729-.674.396 0 .729.316.729.674v6.27C.729-.316.396 0 0 0" style="fill:#0098da;fill-opacity:1;fill-rule:nonzero;stroke:none" transform="translate(24.675 17.964)"/><path d="M0 0c.333 0 .604-.085.864-.252l.105-.063c.135-.085.208-.159.447-.159.396 0 .688.295.688.632 0 .611-1.051 1.128-2.156 1.128-1.824 0-2.657-1.097-2.657-2.761v-2.087c0-1.665.833-2.759 2.657-2.759 1.105 0 2.156.515 2.156 1.127 0 .337-.292.632-.688.632-.239 0-.312-.075-.447-.159l-.105-.062A1.512 1.512 0 0 0 0-5.036c-.937 0-1.251.568-1.251 1.474v2.087C-1.251-.569-.937 0 0 0" style="fill:#0098da;fill-opacity:1;fill-rule:nonzero;stroke:none" transform="translate(29.145 16.678)"/><path d="m0 0 .553 1.803c.093.304.146.705.187 1.032.042-.327.094-.728.188-1.032L1.459 0Zm1.595 4.142c-.147.42-.355.716-.855.716s-.708-.305-.844-.716l-2.032-5.996a.927.927 0 0 1-.031-.233c0-.399.344-.674.75-.674.25 0 .584.191.688.496l.344 1.064h2.219l.364-1.064c.105-.295.438-.496.709-.496.427 0 .75.275.75.674 0 .054-.01.18-.031.233z" style="fill:#0098da;fill-opacity:1;fill-rule:nonzero;stroke:none" transform="translate(34.082 13.106)"/><path d="M0 0c-.396 0-.74-.316-.74-.685v-3.983c-.958 1.695-1.489 2.655-2.416 4.277a.866.866 0 0 1-.71.391c-.438 0-.76-.306-.76-.717v-6.217c0-.369.313-.685.719-.685.395 0 .74.316.74.685v3.941L-.751-7.25c.136-.221.428-.369.699-.369.458 0 .771.327.771.717v6.217C.719-.316.406 0 0 0" style="fill:#0098da;fill-opacity:1;fill-rule:nonzero;stroke:none" transform="translate(43.178 17.964)"/><path d="M0 0a.753.753 0 0 0-.742-.761h-2.949a.997.997 0 0 1-.997-.996v-2.911l-4.789 3.631a1.342 1.342 0 0 1-.823.276h-33.676a.752.752 0 0 0-.741.761v11.588c0 .418.34.759.759.759H-.742A.743.743 0 0 0 0 11.604Zm-.742 13.988h-43.216a2.403 2.403 0 0 1-2.401-2.4V0a2.395 2.395 0 0 1 2.383-2.401h33.581L-4.62-6.78a.975.975 0 0 1 1.029-.098.975.975 0 0 1 .544.878v3.599h2.305A2.395 2.395 0 0 1 1.641 0v11.604a2.386 2.386 0 0 1-2.383 2.384" style="fill:#0098da;fill-opacity:1;fill-rule:nonzero;stroke:none" transform="translate(47.36 8.118)"/></g></svg>