<?xml version="1.0" encoding="utf-8"?>
<!-- Generator: Adobe Illustrator 22.0.1, SVG Export Plug-In . SVG Version: 6.00 Build 0)  -->
<svg version="1.1" id="Слой_1" xmlns="http://www.w3.org/2000/svg" xmlns:xlink="http://www.w3.org/1999/xlink" x="0px" y="0px"
	 viewBox="0 0 30 30" style="enable-background:new 0 0 30 30;" xml:space="preserve">
<style type="text/css">
	.st0{fill:#0098DA;}
	.st1{clip-path:url(#SVGID_2_);fill:#BE003A;}
	.st2{clip-path:url(#SVGID_2_);fill:#FFFFFF;}
</style>
<g>
	<path class="st0" d="M1.7,10.9c0.4,0,0.7-0.3,0.7-0.7V3.5c0-0.5,0.4-1,1-1h6.8c0.4,0,0.7-0.3,0.7-0.7s-0.3-0.7-0.7-0.7H3.3
		c-1.3,0-2.3,1-2.3,2.3v6.8C1.1,10.6,1.4,10.9,1.7,10.9z"/>
	<path class="st0" d="M26.6,1.2h-6.8c-0.4,0-0.7,0.3-0.7,0.7s0.3,0.7,0.7,0.7h6.8c0.5,0,1,0.4,1,1v6.8c0,0.4,0.3,0.7,0.7,0.7
		c0.4,0,0.7-0.3,0.7-0.7V3.5C28.8,2.2,27.8,1.2,26.6,1.2z"/>
	<path class="st0" d="M28.2,19.2c-0.4,0-0.7,0.3-0.7,0.7v6.8c0,0.5-0.4,1-1,1h-6.8c-0.4,0-0.7,0.3-0.7,0.7c0,0.4,0.3,0.7,0.7,0.7
		h6.8c1.3,0,2.3-1,2.3-2.3v-6.8C28.8,19.5,28.5,19.2,28.2,19.2z"/>
	<path class="st0" d="M10.1,27.6H3.3c-0.5,0-1-0.4-1-1v-6.8c0-0.4-0.3-0.7-0.7-0.7s-0.7,0.3-0.7,0.7v6.8c0,1.3,1,2.3,2.3,2.3h6.8
		c0.4,0,0.7-0.3,0.7-0.7C10.8,27.9,10.5,27.6,10.1,27.6z"/>
</g>
<g id="Denmark_2_">
	<g>
		<g>
			<defs>
				<rect id="SVGID_1_" x="5.4" y="9.8" width="19.1" height="11.1"/>
			</defs>
			<clipPath id="SVGID_2_">
				<use xlink:href="#SVGID_1_"  style="overflow:visible;"/>
			</clipPath>
			<path class="st1" d="M6.4,21h17.1c0.6,0,1-0.4,1-1v-9.1c0-0.6-0.4-1-1-1H6.4c-0.6,0-1,0.4-1,1V20C5.4,20.5,5.8,21,6.4,21z"/>
			<rect x="11.6" y="9.8" class="st2" width="2.1" height="11.1"/>
			<rect x="5.4" y="14.4" class="st2" width="19.1" height="2.1"/>
		</g>
	</g>
</g>
</svg>
