<svg xmlns="http://www.w3.org/2000/svg" xml:space="preserve" width="66.667" height="68.947"><defs><clipPath clipPathUnits="userSpaceOnUse" id="a"><path d="M0 51.71h50V0H0Z"/></clipPath></defs><g clip-path="url(#a)" transform="matrix(1.33333 0 0 -1.33333 0 68.947)"><path d="M0 0h38.834a2.398 2.398 0 0 0 2.395-2.395v-5.631H-2.395v5.631A2.397 2.397 0 0 0 0 0m20.222-38.409H0a2.398 2.398 0 0 0-2.395 2.395v26.306h43.624v-19.023a.84.84 0 1 1 1.681 0v26.336a4.08 4.08 0 0 1-4.076 4.077H0a4.082 4.082 0 0 1-4.077-4.077v-33.619A4.082 4.082 0 0 1 0-40.091h20.222a.84.84 0 0 1 .84.841.84.84 0 0 1-.84.841" style="fill:#ffffff;fill-opacity:1;fill-rule:nonzero;stroke:none" transform="translate(5.12 48.744)"/><path d="M0 0a.702.702 0 0 0 0-1.402A.702.702 0 0 0 0 0m0-3.084A2.386 2.386 0 0 1 2.383-.701 2.386 2.386 0 0 1 0 1.682 2.386 2.386 0 0 1-2.383-.701 2.386 2.386 0 0 1 0-3.084" style="fill:#ffffff;fill-opacity:1;fill-rule:nonzero;stroke:none" transform="translate(8.107 45.497)"/><path d="M0 0a.701.701 0 1 0 0-1.402A.701.701 0 0 0 0 0m0-3.084A2.386 2.386 0 0 1 2.383-.701 2.386 2.386 0 0 1 0 1.682 2.386 2.386 0 0 1-2.383-.701 2.386 2.386 0 0 1 0-3.084" style="fill:#ffffff;fill-opacity:1;fill-rule:nonzero;stroke:none" transform="translate(14.603 45.497)"/><path d="M0 0a.702.702 0 1 0-.002-1.404A.702.702 0 0 0 0 0m0-3.084A2.386 2.386 0 0 1 2.383-.701 2.386 2.386 0 0 1 0 1.682 2.386 2.386 0 0 1-2.383-.701 2.386 2.386 0 0 1 0-3.084" style="fill:#ffffff;fill-opacity:1;fill-rule:nonzero;stroke:none" transform="translate(21.1 45.497)"/><path d="M0 0h-5.526a.841.841 0 1 1 0-1.682H0A.84.84 0 0 1 0 0" style="fill:#ffffff;fill-opacity:1;fill-rule:nonzero;stroke:none" transform="translate(41.26 29.897)"/><path d="M0 0h-11.785a.841.841 0 1 1 0-1.682H0A.84.84 0 0 1 0 0" style="fill:#ffffff;fill-opacity:1;fill-rule:nonzero;stroke:none" transform="translate(41.26 35.511)"/><path d="M0 0a.841.841 0 1 1 0-1.682h3.291a.841.841 0 1 1 0 1.682Z" style="fill:#ffffff;fill-opacity:1;fill-rule:nonzero;stroke:none" transform="translate(29.475 29.897)"/><path d="m0 0-.121-.102A1.514 1.514 0 0 0-1.23-.45c-.404.035-.77.226-1.031.539l-4.557 5.444 2.45 2.051L.189 2.139A1.513 1.513 0 0 0 0 0m-16.817 8.572c-2.496 2.983-2.101 7.441.881 9.936a7.025 7.025 0 0 0 4.522 1.64 7.038 7.038 0 0 0 5.413-2.522 7.06 7.06 0 0 0-.882-9.936c-2.982-2.498-7.439-2.099-9.934.882M1.479 3.219l-5.051 6.036c1.468 3.005 1.143 6.724-1.138 9.451h-.001c-3.091 3.69-8.607 4.183-12.305 1.091-3.692-3.09-4.183-8.61-1.091-12.305a8.722 8.722 0 0 1 6.706-3.124 8.74 8.74 0 0 1 2.939.509l4.911-5.868A3.192 3.192 0 0 1-1.09-2.138c.748 0 1.467.26 2.052.749l.119.1A3.182 3.182 0 0 1 2.213.881a3.184 3.184 0 0 1-.734 2.338" style="fill:#ffffff;fill-opacity:1;fill-rule:nonzero;stroke:none" transform="translate(46.818 3.046)"/><path d="M0 0a.84.84 0 0 1-1.181-.146l-4.014-5.118-2.171 1.696a.841.841 0 0 1-1.036-1.326L-6.23-6.59a1.696 1.696 0 0 1 2.375.293l4 5.116A.841.841 0 0 1 0 0" style="fill:#ffffff;fill-opacity:1;fill-rule:nonzero;stroke:none" transform="translate(39.622 19.132)"/><path d="m0 0-3.252-2.6L-6.691.149a1.687 1.687 0 0 0-.637 1.325v.736H.637v-.885C.637.807.405.324 0 0m0-7.223c.405-.324.637-.807.637-1.325v-1.318h-7.965v1.169c0 .518.232 1.002.637 1.326l3.439 2.748zm1.735-5.83H-8.426v1.606H1.735ZM-8.426 5.397H1.735V3.791H-8.426ZM3.315 3.466v2.257c0 .691-.563 1.255-1.255 1.255H-8.751a1.257 1.257 0 0 1-1.255-1.255V3.466c0-.637.483-1.143 1.098-1.224v-.768c0-1.002.449-1.934 1.23-2.56l3.16-2.525-3.16-2.526a3.263 3.263 0 0 1-1.23-2.56v-1.2c-.615-.082-1.098-.587-1.098-1.224v-2.257c0-.692.563-1.256 1.255-1.256H2.06c.692 0 1.255.564 1.255 1.256v2.257c0 .636-.483 1.142-1.097 1.224v1.349c0 1-.449 1.934-1.232 2.56l-2.973 2.377L.986-1.235a3.262 3.262 0 0 1 1.232 2.56v.903c0 .005-.003.009-.003.014.616.079 1.1.586 1.1 1.224" style="fill:#ffffff;fill-opacity:1;fill-rule:nonzero;stroke:none" transform="translate(17.396 28.856)"/></g></svg>