<svg xmlns="http://www.w3.org/2000/svg" xml:space="preserve" width="66.667" height="68.947"><defs><clipPath clipPathUnits="userSpaceOnUse" id="a"><path d="M0 51.71h50V0H0Z"/></clipPath></defs><g clip-path="url(#a)" transform="matrix(1.33333 0 0 -1.33333 0 68.947)"><path d="M0 0h6.434c.277 0 .492-.183.511-.347a.377.377 0 0 0-.074-.278H5.663a.84.84 0 1 1 0-1.681h.333l-.042-2.913c-.507.083-1.262.096-1.916-.339-.318-.212-.686-.587-.893-1.235-.536.043-1.2-.013-1.746-.406-.406-.292-.888-.876-.878-2.002a.842.842 0 0 1 .842-.832h.008a.842.842 0 0 1 .833.849c-.002.182.019.505.176.619.235.17.831.102 1.168-.01a.838.838 0 0 1 1.116.756c.014.307.078.707.305.861.262.178.771.088.979.018.01-.004.022-.002.032-.005.01-.033.007-.067.02-.098l1.49-3.489h-8.547L.434-7.043a.855.855 0 0 1 .067.331v5.1c0 .384-.334.738-.705.834-.209.053-.333.226-.308.431C-.492-.183-.277 0 0 0m10.455-17.468a.619.619 0 0 0-.059-.59.695.695 0 0 0-.577-.296l-13.355-.044c-.347.038-.423.161-.448.201-.133.213-.078.617-.037.731l2.245 5.254h9.984l2.246-5.255zm-16.023.662c-.138-.322-.385-1.353.125-2.228.239-.411.732-.924 1.816-1.04l13.448.039c.789 0 1.522.384 1.963 1.029.446.652.527 1.474.217 2.199L7.617-6.546l.063 4.409a2.055 2.055 0 0 1 .935 1.991C8.489.896 7.551 1.682 6.434 1.682H0c-1.1 0-2.058-.803-2.181-1.828a2.036 2.036 0 0 1 1-2.019v-4.376z" style="fill:#ffffff;fill-opacity:1;fill-rule:nonzero;stroke:none" transform="translate(11.384 33.83)"/><path d="M0 0h38.834a2.398 2.398 0 0 0 2.395-2.395v-5.631H-2.395v5.631A2.397 2.397 0 0 0 0 0m20.222-38.409H0a2.398 2.398 0 0 0-2.395 2.395v26.306h43.624v-19.023a.84.84 0 1 1 1.681 0v26.336a4.08 4.08 0 0 1-4.076 4.077H0a4.082 4.082 0 0 1-4.077-4.077v-33.619A4.082 4.082 0 0 1 0-40.091h20.222a.84.84 0 0 1 .84.841.84.84 0 0 1-.84.841" style="fill:#ffffff;fill-opacity:1;fill-rule:nonzero;stroke:none" transform="translate(5.12 48.744)"/><path d="M0 0a.702.702 0 0 0 0-1.402A.702.702 0 0 0 0 0m0-3.084A2.386 2.386 0 0 1 2.383-.701 2.386 2.386 0 0 1 0 1.682 2.386 2.386 0 0 1-2.383-.701 2.386 2.386 0 0 1 0-3.084" style="fill:#ffffff;fill-opacity:1;fill-rule:nonzero;stroke:none" transform="translate(8.107 45.497)"/><path d="M0 0a.701.701 0 1 0 0-1.402A.701.701 0 0 0 0 0m0-3.084A2.386 2.386 0 0 1 2.383-.701 2.386 2.386 0 0 1 0 1.682 2.386 2.386 0 0 1-2.383-.701 2.386 2.386 0 0 1 0-3.084" style="fill:#ffffff;fill-opacity:1;fill-rule:nonzero;stroke:none" transform="translate(14.603 45.497)"/><path d="M0 0a.702.702 0 1 0-.002-1.404A.702.702 0 0 0 0 0m0-3.084A2.386 2.386 0 0 1 2.383-.701 2.386 2.386 0 0 1 0 1.682 2.386 2.386 0 0 1-2.383-.701 2.386 2.386 0 0 1 0-3.084" style="fill:#ffffff;fill-opacity:1;fill-rule:nonzero;stroke:none" transform="translate(21.1 45.497)"/><path d="M0 0a.841.841 0 0 1-.841.841h-4.28a.841.841 0 1 1 0-1.682h4.28C-.376-.841 0-.464 0 0" style="fill:#ffffff;fill-opacity:1;fill-rule:nonzero;stroke:none" transform="translate(34.596 34.67)"/><path d="M0 0h8.903a.841.841 0 1 1 0 1.682H0A.841.841 0 1 1 0 0" style="fill:#ffffff;fill-opacity:1;fill-rule:nonzero;stroke:none" transform="translate(33.755 28.214)"/><path d="M0 0h-5.68a.84.84 0 0 1 0-1.682H0A.841.841 0 1 1 0 0" style="fill:#ffffff;fill-opacity:1;fill-rule:nonzero;stroke:none" transform="translate(42.659 35.511)"/><path d="M0 0a.841.841 0 1 1 0-1.682h1.312a.841.841 0 1 1 0 1.682Z" style="fill:#ffffff;fill-opacity:1;fill-rule:nonzero;stroke:none" transform="translate(29.475 29.897)"/><path d="m0 0-.121-.102A1.514 1.514 0 0 0-1.23-.45c-.404.035-.77.226-1.031.539l-4.557 5.444 2.45 2.051L.189 2.139A1.513 1.513 0 0 0 0 0m-16.817 8.572c-2.496 2.983-2.101 7.441.881 9.936a7.025 7.025 0 0 0 4.522 1.64 7.038 7.038 0 0 0 5.413-2.522 7.06 7.06 0 0 0-.882-9.936c-2.982-2.498-7.439-2.099-9.934.882M1.479 3.219l-5.051 6.036c1.468 3.005 1.143 6.724-1.138 9.451h-.001c-3.091 3.69-8.607 4.183-12.305 1.091-3.692-3.09-4.183-8.61-1.091-12.305a8.722 8.722 0 0 1 6.706-3.124 8.74 8.74 0 0 1 2.939.509l4.911-5.868A3.192 3.192 0 0 1-1.09-2.138c.748 0 1.467.26 2.052.749l.119.1A3.182 3.182 0 0 1 2.213.881a3.184 3.184 0 0 1-.734 2.338" style="fill:#ffffff;fill-opacity:1;fill-rule:nonzero;stroke:none" transform="translate(46.818 3.046)"/><path d="M0 0a.84.84 0 0 1-1.181-.146l-4.014-5.118-2.171 1.696a.841.841 0 0 1-1.036-1.326L-6.23-6.59a1.696 1.696 0 0 1 2.375.293l4 5.116A.841.841 0 0 1 0 0" style="fill:#ffffff;fill-opacity:1;fill-rule:nonzero;stroke:none" transform="translate(39.622 19.132)"/></g></svg>