<svg xmlns="http://www.w3.org/2000/svg" xml:space="preserve" width="66.667" height="68"><defs><clipPath clipPathUnits="userSpaceOnUse" id="a"><path d="M0 51h50V0H0Z"/></clipPath></defs><g clip-path="url(#a)" transform="matrix(1.33333 0 0 -1.33333 0 68)"><path d="M0 0h38.757a2.412 2.412 0 0 0 2.409-2.409v-5.638H-2.409v5.638A2.412 2.412 0 0 0 0 0m18.208-38.371H0a2.412 2.412 0 0 0-2.409 2.41v26.272h43.575v-15.805a.82.82 0 1 1 1.642 0v23.085a4.057 4.057 0 0 1-4.051 4.051H0a4.056 4.056 0 0 1-4.051-4.051v-33.552A4.057 4.057 0 0 1 0-40.013h18.208a.82.82 0 0 1 .82.822.82.82 0 0 1-.82.82" style="fill:#0098da;fill-opacity:1;fill-rule:nonzero;stroke:none" transform="translate(5.05 48.305)"/><path d="M0 0a.719.719 0 1 0-.001-1.437A.719.719 0 0 0 0 0m0-3.078a2.363 2.363 0 0 1 2.36 2.36A2.363 2.363 0 0 1 0 1.642a2.363 2.363 0 0 1-2.36-2.36A2.363 2.363 0 0 1 0-3.078" style="fill:#0098da;fill-opacity:1;fill-rule:nonzero;stroke:none" transform="translate(8.032 45.064)"/><path d="M0 0a.719.719 0 1 0-.001-1.437A.719.719 0 0 0 0 0m0-3.078a2.363 2.363 0 0 1 2.36 2.36A2.363 2.363 0 0 1 0 1.642a2.363 2.363 0 0 1-2.36-2.36A2.363 2.363 0 0 1 0-3.078" style="fill:#0098da;fill-opacity:1;fill-rule:nonzero;stroke:none" transform="translate(14.515 45.064)"/><path d="M0 0a.719.719 0 1 0-.001-1.437A.719.719 0 0 0 0 0m0-3.078a2.362 2.362 0 0 1 2.359 2.36A2.362 2.362 0 0 1 0 1.642a2.363 2.363 0 0 1-2.36-2.36A2.363 2.363 0 0 1 0-3.078" style="fill:#0098da;fill-opacity:1;fill-rule:nonzero;stroke:none" transform="translate(20.997 45.064)"/><path d="M0 0a.82.82 0 1 1 0 1.642h-6.919a.822.822 0 0 1 0-1.642Z" style="fill:#0098da;fill-opacity:1;fill-rule:nonzero;stroke:none" transform="translate(22.009 32.32)"/><path d="M0 0h15.796a.82.82 0 1 1 0 1.642H0A.822.822 0 0 1 0 0" style="fill:#0098da;fill-opacity:1;fill-rule:nonzero;stroke:none" transform="translate(6.334 26.652)"/><path d="M0 0h4.261a.822.822 0 0 1 0 1.642H0A.822.822 0 0 1 0 0" style="fill:#0098da;fill-opacity:1;fill-rule:nonzero;stroke:none" transform="translate(6.334 32.32)"/><path d="M0 0h8.167a.82.82 0 0 1 0 1.641H0A.82.82 0 1 1 0 0" style="fill:#0098da;fill-opacity:1;fill-rule:nonzero;stroke:none" transform="translate(10.352 17.145)"/><path d="M0 0c0 .485.395.881.88.881h12.801c.485 0 .88-.396.88-.881v-5.025a.881.881 0 0 0-.88-.88H.88a.881.881 0 0 0-.88.88Zm-1.642-5.025A2.524 2.524 0 0 1 .88-7.547h12.801a2.524 2.524 0 0 1 2.521 2.522V0a2.524 2.524 0 0 1-2.521 2.522H.88A2.524 2.524 0 0 1-1.642 0Z" style="fill:#0098da;fill-opacity:1;fill-rule:nonzero;stroke:none" transform="translate(7.155 20.478)"/><path d="M0 0h-8.167a.82.82 0 0 1 0-1.642H0A.82.82 0 1 1 0 0" style="fill:#0098da;fill-opacity:1;fill-rule:nonzero;stroke:none" transform="translate(39.142 31.87)"/><path d="M0 0v-5.025a.882.882 0 0 0-.881-.881h-12.8a.882.882 0 0 0-.88.881V0c0 .485.396.88.88.88h12.8A.882.882 0 0 0 0 0m-13.681 2.522A2.524 2.524 0 0 1-16.202 0v-5.025a2.524 2.524 0 0 1 2.521-2.523h12.8a2.525 2.525 0 0 1 2.523 2.523V0A2.525 2.525 0 0 1-.881 2.522z" style="fill:#0098da;fill-opacity:1;fill-rule:nonzero;stroke:none" transform="translate(42.339 33.561)"/><path d="m0 0-.382-.236a9.538 9.538 0 0 0-2.893-1.191 33.536 33.536 0 0 1 1.519 8.289h5.821l.003.001A9.48 9.48 0 0 0 2.703 2.85l-.237-.381 2.243-4.71Zm-6.543-1.606a32.284 32.284 0 0 0-1.665 8.468H-3.4a31.972 31.972 0 0 0-1.685-8.527c-.484-.017-.971 0-1.458.059m-7.1 4.585a8.978 8.978 0 0 0-1.284 3.883h5.073c.157-2.72.649-5.421 1.464-8.059-2.161.707-4.007 2.164-5.253 4.176m1.473 11.642a9.518 9.518 0 0 0 3.21 2.114 33.889 33.889 0 0 1-.944-8.231h-5.043c.179 2.338 1.146 4.487 2.777 6.117m6.766 2.795h.016c.309 0 .612-.032.914-.062.004-.021-.002-.042.004-.063A32.198 32.198 0 0 0-3.338 8.8c0-.099-.005-.197-.006-.296h-4.92a32.336 32.336 0 0 0 1.108 8.75 9.696 9.696 0 0 0 1.735.162zm8.343-4.897a9.483 9.483 0 0 0 1.165-4.023c-.013.001-.025.008-.039.008h-5.767c0 .099.006.197.006.296a33.941 33.941 0 0 1-1.024 8.225 9.52 9.52 0 0 0 5.659-4.506M6.881-2.985 4.33 2.373a11.175 11.175 0 0 1-9.718 16.685h-.033a11.113 11.113 0 0 1-7.91-3.276c-2.128-2.126-3.298-4.997-3.295-8.085.001-1.973.55-3.903 1.588-5.582 1.624-2.626 4.132-4.45 7.06-5.137A11.107 11.107 0 0 1 .095-1.863l5.357-2.551a1.083 1.083 0 0 1 1.22.209c.319.321.403.81.209 1.22" style="fill:#0098da;fill-opacity:1;fill-rule:nonzero;stroke:none" transform="translate(42.016 5.57)"/></g></svg>