<svg xmlns="http://www.w3.org/2000/svg" xml:space="preserve" width="66.667" height="66.667"><defs><clipPath clipPathUnits="userSpaceOnUse" id="a"><path d="M0 50h50V0H0Z"/></clipPath></defs><g clip-path="url(#a)" transform="matrix(1.33333 0 0 -1.33333 0 66.667)"><path d="M0 0c0 .427-.359.773-.803.773H-3.21v2.318c0 .427-.359.773-.803.773h-1.604c-.444 0-.803-.346-.803-.773V.773h-2.407C-9.271.773-9.63.427-9.63 0v-1.545c0-.427.359-.773.803-.773h2.407v-2.319c0-.426.359-.773.803-.773h1.604c.444 0 .803.347.803.773v2.319h2.407c.444 0 .803.346.803.773z" style="fill:none;stroke:#0098da;stroke-width:1.76999998;stroke-linecap:round;stroke-linejoin:round;stroke-miterlimit:10;stroke-dasharray:none;stroke-opacity:1" transform="translate(35.98 44.301)"/><path d="M0 0c-.084.271-.131.628-.168.918C-.206.628-.253.271-.336 0l-.496-1.604H.477zm-1.485-3.619c-.094-.272-.394-.441-.618-.441-.365 0-.672.244-.672.6 0 .047.008.16.028.207l1.822 5.334c.121.366.309.638.757.638s.636-.263.767-.638l1.822-5.334a.865.865 0 0 0 .027-.207c0-.356-.29-.6-.673-.6-.243 0-.542.179-.635.441l-.328.947h-1.989z" style="fill:#0098da;fill-opacity:1;fill-rule:nonzero;stroke:none" transform="translate(39.587 33.805)"/><path d="M0 0c-.084.271-.131.628-.168.918C-.206.628-.253.271-.336 0l-.496-1.604H.477zm-1.485-3.619c-.094-.272-.394-.441-.618-.441-.365 0-.672.244-.672.6 0 .047.008.16.028.207l1.822 5.334c.121.366.309.638.757.638s.636-.263.767-.638l1.822-5.334a.865.865 0 0 0 .027-.207c0-.356-.29-.6-.673-.6-.243 0-.542.179-.635.441l-.328.947h-1.989z" style="fill:none;stroke:#0098da;stroke-width:.208;stroke-linecap:butt;stroke-linejoin:miter;stroke-miterlimit:10;stroke-dasharray:none;stroke-opacity:1" transform="translate(39.587 33.805)"/><path d="M0 0v-1.63h1.047c.616 0 .925.308.925.795 0 .536-.374.835-.869.835Zm1.074 1.2c.327 0 .721.225.721.732 0 .356-.169.674-.655.674H0V1.2ZM-.58-2.821c-.411 0-.729.308-.729.675v5.258c0 .385.337.676.729.676H1c1.401 0 2.103-.9 2.103-1.838 0-.656-.42-1.058-.982-1.331C2.7.384 3.28-.037 3.28-.854c0-1.096-.879-1.967-2.318-1.967Z" style="fill:#0098da;fill-opacity:1;fill-rule:nonzero;stroke:none" transform="translate(38.569 22.663)"/><path d="M0 0v-1.63h1.047c.616 0 .925.308.925.795 0 .536-.374.835-.869.835Zm1.074 1.2c.327 0 .721.225.721.732 0 .356-.169.674-.655.674H0V1.2ZM-.58-2.821c-.411 0-.729.308-.729.675v5.258c0 .385.337.676.729.676H1c1.401 0 2.103-.9 2.103-1.838 0-.656-.42-1.058-.982-1.331C2.7.384 3.28-.037 3.28-.854c0-1.096-.879-1.967-2.318-1.967Z" style="fill:none;stroke:#0098da;stroke-width:.208;stroke-linecap:butt;stroke-linejoin:miter;stroke-miterlimit:10;stroke-dasharray:none;stroke-opacity:1" transform="translate(38.569 22.663)"/><path d="M0 0c0-.805.28-1.312 1.122-1.312.299 0 .541.075.775.225l.093.057c.122.075.188.14.402.14.355 0 .617-.262.617-.562 0-.543-.945-1.004-1.935-1.004-1.635 0-2.383.977-2.383 2.456v1.856c0 1.483.748 2.456 2.383 2.456.99 0 1.935-.458 1.935-1.001 0-.301-.262-.563-.617-.563-.214 0-.28.065-.402.14l-.093.055a1.362 1.362 0 0 1-.775.226C.28 3.169 0 2.663 0 1.856Z" style="fill:#0098da;fill-opacity:1;fill-rule:nonzero;stroke:none" transform="translate(38.307 12.232)"/><path d="M0 0c0-.805.28-1.312 1.122-1.312.299 0 .541.075.775.225l.093.057c.122.075.188.14.402.14.355 0 .617-.262.617-.562 0-.543-.945-1.004-1.935-1.004-1.635 0-2.383.977-2.383 2.456v1.856c0 1.483.748 2.456 2.383 2.456.99 0 1.935-.458 1.935-1.001 0-.301-.262-.563-.617-.563-.214 0-.28.065-.402.14l-.093.055a1.362 1.362 0 0 1-.775.226C.28 3.169 0 2.663 0 1.856Z" style="fill:none;stroke:#0098da;stroke-width:.208;stroke-linecap:butt;stroke-linejoin:miter;stroke-miterlimit:10;stroke-dasharray:none;stroke-opacity:1" transform="translate(38.307 12.232)"/><path d="M0 0h-28.102a3.788 3.788 0 0 0-3.784 3.783v3.771a.818.818 0 1 0 1.637 0V3.783c0-1.183.963-2.146 2.147-2.146H0c1.184 0 2.147.963 2.147 2.146v35.646A2.15 2.15 0 0 1 0 41.576h-5.102a.818.818 0 0 0 0 1.637H0a3.787 3.787 0 0 0 3.783-3.784V3.783A3.787 3.787 0 0 0 0 0" style="fill:#0098da;fill-opacity:1;fill-rule:nonzero;stroke:none" transform="translate(45.216 .985)"/><path d="M0 0a.885.885 0 0 0-.885.885v9.688a3.856 3.856 0 0 0 3.851 3.851h4.837a.885.885 0 1 0 0-1.77H2.966a2.084 2.084 0 0 1-2.081-2.081V.885A.885.885 0 0 0 0 0" style="fill:#0098da;fill-opacity:1;fill-rule:nonzero;stroke:none" transform="translate(14.148 29.84)"/><path d="M0 0h-8.264a.885.885 0 1 0 0 1.77H0A.886.886 0 1 0 0 0" style="fill:#0098da;fill-opacity:1;fill-rule:nonzero;stroke:none" transform="translate(33.694 29.542)"/><path d="M0 0h-4.897a.885.885 0 1 0 0 1.77H0A.886.886 0 1 0 0 0" style="fill:#0098da;fill-opacity:1;fill-rule:nonzero;stroke:none" transform="translate(33.694 19.628)"/><path d="M0 0h-8.264a.885.885 0 1 0 0 1.77H0A.886.886 0 1 0 0 0" style="fill:#0098da;fill-opacity:1;fill-rule:nonzero;stroke:none" transform="translate(33.694 9.676)"/><path d="m0 0-4.84-5.783a1.65 1.65 0 0 1-.381-1.215c.038-.443.248-.845.589-1.13l.127-.106a1.668 1.668 0 0 1 2.346.208l4.84 5.783zm-3.438-10.259c-.749 0-1.5.253-2.117.769l-.127.106a3.28 3.28 0 0 0-1.17 2.241c-.078.878.19 1.735.756 2.412l5.366 6.41a.82.82 0 0 0 1.153.102l3.936-3.294a.819.819 0 0 0 .103-1.154l-5.366-6.41a3.303 3.303 0 0 0-2.534-1.182" style="fill:#0098da;fill-opacity:1;fill-rule:nonzero;stroke:none" transform="translate(7.865 13.832)"/><path d="M0 0c-2.65-3.167-2.23-7.901.937-10.552a7.414 7.414 0 0 1 5.469-1.717 7.44 7.44 0 0 1 5.082 2.655 7.437 7.437 0 0 1 1.717 5.468A7.44 7.44 0 0 1 10.552.937C7.385 3.588 2.651 3.166 0 0m5.728-13.936a9.06 9.06 0 0 0-5.842 2.129C-3.973-8.577-4.485-2.809-1.255 1.05c3.23 3.86 8.998 4.371 12.857 1.142a9.062 9.062 0 0 0 3.233-6.193 9.065 9.065 0 0 0-2.091-6.665 9.068 9.068 0 0 0-6.193-3.233 9.096 9.096 0 0 0-.823-.037" style="fill:#0098da;fill-opacity:1;fill-rule:nonzero;stroke:none" transform="translate(9.54 24.35)"/><path d="M0 0c-.369 0-.74.119-1.052.361l-2.286 1.786a.82.82 0 0 0 1.007 1.291l2.286-1.786a.076.076 0 0 1 .109.015L3.6 6.188A.82.82 0 0 0 4.889 5.18L1.354.657A1.719 1.719 0 0 0 0 0" style="fill:#0098da;fill-opacity:1;fill-rule:nonzero;stroke:none" transform="translate(14.639 15.86)"/></g></svg>