<svg width="50" height="50" fill="none" xmlns="http://www.w3.org/2000/svg"><path d="M12.76 21.45a.56.56 0 00-.35.12l-8.31 6.5c-.24.2-.3.54-.1.8.1.13.27.2.45.2.12 0 .24-.03.35-.1l1.26-1h13.41l1.26 1c.1.07.22.11.35.11.17 0 .34-.08.45-.21.1-.12.13-.27.11-.42a.6.6 0 00-.21-.38l-8.32-6.5a.56.56 0 00-.35-.12zm-5.26 5.4l5.26-4.13 5.27 4.12H7.5z" fill="#536B76"/><path d="M6.25 29.04a.56.56 0 00-.56.56v6.98l-.66-.05a.56.56 0 000 1.13h15.08a.56.56 0 000-1.13h-.21v-6.98a.56.56 0 00-1.13 0v6.98l-11.96.05V29.6a.56.56 0 00-.56-.56zM4.44 39.03a.5.5 0 00-.5.5c0 .27.23.49.5.49h15.4a.5.5 0 00.5-.5.5.5 0 00-.5-.49H4.44zM11.96 25.03c0 .44.37.81.81.81.45 0 .82-.37.82-.81a.81.81 0 10-1.63 0z" fill="#536B76"/><path d="M7.6 31.55v3.02h.68v-1.2h1.06v1.2h.67v-3.02h-.67v1.24H8.28v-1.24H7.6zM11.34 34.61c.33 0 .6-.1.77-.33.19-.21.29-.5.29-.87 0-.34-.1-.61-.29-.83a1 1 0 00-.78-.34.98.98 0 00-.78.34c-.18.22-.28.5-.28.87 0 .34.1.62.28.83.2.22.46.33.79.33zm-.28-1.64c.07-.11.15-.15.28-.15.14 0 .22.05.29.15.07.11.1.26.1.48 0 .18-.03.33-.1.45a.32.32 0 01-.28.14.32.32 0 01-.3-.14.92.92 0 01-.1-.49c0-.18.03-.34.1-.44zM15.77 34.57v-1.36c0-.32-.07-.56-.2-.72a.73.73 0 00-.58-.25.8.8 0 00-.42.11l-.2.17a.75.75 0 00-.17-.18.8.8 0 00-.41-.1.8.8 0 00-.4.1c-.06.02-.1.05-.14.08l-.01-.14h-.62v2.3h.67v-1.61a.34.34 0 01.1-.1.38.38 0 01.2-.04c.08 0 .15.03.2.08.05.06.07.16.07.3v1.37h.67v-1.45l-.01-.06a.46.46 0 01.11-.17.3.3 0 01.2-.06c.1 0 .15.03.2.08.03.04.07.12.07.3v1.37h.67v-.02zM17.99 33.28c0-.3-.09-.56-.25-.75a.93.93 0 00-.73-.3c-.3 0-.53.12-.73.34-.2.22-.29.5-.29.82v.08c0 .33.1.6.3.81a1 1 0 00.78.32c.18 0 .35-.03.48-.07a1 1 0 00.35-.2l.06-.05-.23-.48-.1.07c-.08.04-.15.1-.24.12a.84.84 0 01-.3.04.38.38 0 01-.3-.13.66.66 0 01-.11-.25h1.3v-.37zm-1.29-.17a.66.66 0 01.1-.2c.05-.07.12-.11.21-.11.1 0 .18.03.23.09.05.06.07.12.08.21h-.62v.01zM32.17 28.9h-1.7v-1.98H29.4v4.81h1.07v-1.91h1.7v1.91h1.06v-4.81h-1.06v1.98zM35.35 28.01c-.5 0-.93.19-1.24.54-.3.35-.44.8-.44 1.4 0 .53.15.98.44 1.32.3.35.73.53 1.25.53.53 0 .94-.17 1.24-.52.3-.35.45-.8.45-1.4 0-.53-.15-.97-.45-1.32-.3-.36-.72-.55-1.25-.55zm.47 2.64c-.1.15-.24.23-.46.23-.2 0-.35-.08-.45-.23-.1-.18-.17-.42-.17-.78 0-.29.06-.52.17-.7.1-.16.24-.24.45-.24a.5.5 0 01.47.25c.12.18.17.41.17.76-.02.3-.07.53-.18.7zM41.18 28.01a1.23 1.23 0 00-.99.46.93.93 0 00-.28-.27c-.18-.12-.4-.18-.65-.18a1.42 1.42 0 00-.86.28l-.02-.22h-.99v3.66h1.07v-2.57a.5.5 0 01.16-.16.61.61 0 01.31-.07c.15 0 .25.04.32.13.08.09.12.26.12.5v2.16h1.06v-2.42c.03-.11.1-.2.18-.27.09-.07.18-.1.3-.1.15 0 .26.04.33.12.05.06.1.2.1.5v2.17h1.07v-2.17c0-.5-.1-.89-.33-1.15-.21-.26-.52-.4-.9-.4zM44.5 31.8a2.13 2.13 0 001.32-.43l.09-.08-.38-.77-.15.11a1.4 1.4 0 01-.85.26.61.61 0 01-.47-.2.93.93 0 01-.2-.4h2.09v-.6c0-.5-.14-.9-.4-1.2-.27-.31-.66-.47-1.16-.47-.47 0-.85.18-1.16.54-.3.35-.46.8-.46 1.31V30c0 .52.15.96.46 1.3.32.33.74.5 1.26.5zm-.43-2.7c.09-.1.2-.17.34-.17.17 0 .29.05.37.15.06.09.11.2.12.34h-.98a.7.7 0 01.15-.32z" fill="#536B76"/><path d="M48.7 21.05a.86.86 0 00-.2-.48l-5.46-5.42a1.6 1.6 0 00-.66-.22.81.81 0 00-.28.06H26.8c-.45 0-.74.28-.74.72L26 39.8h-2.06V21.07c.1-.11 0-.32-.1-.55l-5.12-5.3a.87.87 0 00-.44-.2.77.77 0 00-.54-.01H2.44a.73.73 0 00-.75.76v27.9c0 .44.33.76.75.76h20.73a.8.8 0 00.34-.08l.4.02h20.93a3.86 3.86 0 003.97-3.83l.02-19.35-.14-.13zm-5.53-3.43l1.42 1.41 1.52 1.56-2.93-.06v-2.91h-.01zm-24.23.03l2.55 2.65h-2.55v-2.65zM3.2 42.9V16.5h14.1v4.55c0 .43.34.75.76.75h4.45V42.9H3.2zm20.74.02v-1.67l16.77.04.1.28c.14.42.3.9.54 1.26l.07.1H23.94v-.01zm23.21-2.23a2.5 2.5 0 01-2.47 2.4 2.5 2.5 0 01-2.47-2.4c0-.44-.3-.72-.75-.72l-13.9-.06V16.58l14.12.06v4.66c0 .43.3.72.75.72l4.73.05V40.7h-.01zM34.67 10.15l-3.88.72c-.36.12-.73.49-.6.97.12.36.48.73.97.6l4.6-.97c.24 0 .49-.11.6-.36.12-.24.12-.48.12-.6l-.97-4.47c-.12-.36-.48-.73-.97-.6-.36.11-.73.48-.6.97l.73 3.74z" fill="#536B76"/><path d="M31.28 9.18c.35.35.84.35 1.2.11.12 0 .12-.11.25-.24 0-.12 0-.6-.24-.84a9.36 9.36 0 00-16.1 3.03c-.12.48.12.84.6 1.09.48.11.84-.12 1.09-.6a7.51 7.51 0 013.99-4.6 7.82 7.82 0 019.2 2.05z" fill="#536B76"/></svg>