<svg xmlns="http://www.w3.org/2000/svg" xml:space="preserve" width="66.667" height="69.827"><defs><clipPath clipPathUnits="userSpaceOnUse" id="a"><path d="M0 52.37h50V0H0Z"/></clipPath></defs><g clip-path="url(#a)" transform="matrix(1.33333 0 0 -1.33333 0 69.827)"><path d="M0 0a.91.91 0 0 1-.91-.91v-1.171c-2.281-.341-4.015-1.934-4.015-3.849 0-2.164 2.209-3.924 4.925-3.924 1.68 0 3.099-.962 3.099-2.1 0-1.139-1.423-2.102-3.143-2.103a3.418 3.418 0 0 0-2.857 1.346.91.91 0 0 1-1.449-1.103 5.251 5.251 0 0 1 3.44-2.013v-1.147a.91.91 0 0 1 1.821 0v1.171c2.278.345 4.008 1.936 4.008 3.849 0 2.162-2.207 3.92-4.919 3.92-1.683 0-3.104.964-3.104 2.104 0 1.14 1.421 2.102 3.141 2.103a3.4 3.4 0 0 0 2.856-1.345.91.91 0 1 1 1.449 1.101A5.242 5.242 0 0 1 .911-2.065V-.91C.911-.408.503 0 0 0" style="fill:#ffffff;fill-opacity:1;fill-rule:nonzero;stroke:none" transform="translate(12.346 43.95)"/><path d="M0 0a2.395 2.395 0 0 0-2.392-2.392h-15.294A2.394 2.394 0 0 0-20.077 0v10.428a2.394 2.394 0 0 0 2.391 2.391h15.294A2.394 2.394 0 0 0 0 10.428Zm-2.392 14.632h-15.294a4.209 4.209 0 0 1-4.204-4.204V0a4.21 4.21 0 0 1 4.204-4.205h15.294A4.21 4.21 0 0 1 1.813 0v10.428a4.21 4.21 0 0 1-4.205 4.204" style="fill:#ffffff;fill-opacity:1;fill-rule:nonzero;stroke:none" transform="translate(47.23 13.504)"/><path d="M0 0c.675.794 1.099 1.808 1.099 2.929 0 1.523-.76 2.867-1.914 3.692 2.521-1.105 3.671-3.458 3.671-3.458S1.774 1.325 0 0m-9.748 3.055s1.12 2.682 3.914 3.723A4.532 4.532 0 0 1-7.99 2.929c0-1.325.579-2.508 1.486-3.339C-8.533.874-9.748 3.055-9.748 3.055m6.302-3.171a3.045 3.045 0 1 0 0 6.09 3.045 3.045 0 0 0 0-6.09m-.075 8.8h-.068c-5.392-.041-7.457-4.848-7.543-5.053l-.278-.669.35-.634c.118-.211 2.909-5.155 7.484-5.155l.071.001c4.571.052 7.531 5.02 7.655 5.231l.405.693-.35.72c-.097.199-2.425 4.866-7.726 4.866" style="fill:#ffffff;fill-opacity:1;fill-rule:nonzero;stroke:none" transform="translate(40.637 15.79)"/><path d="M0 0a1.503 1.503 0 1 1 0-3.006A1.503 1.503 0 0 1 0 0" style="fill:#ffffff;fill-opacity:1;fill-rule:nonzero;stroke:none" transform="translate(37.19 20.22)"/><path d="M0 0c.396-.395.698-.854.917-1.35h-6.726a4.442 4.442 0 0 0-4.437 4.437V9.81c.498-.22.961-.523 1.349-.911zm2.211-31.662a.908.908 0 0 1-.909-.909v-2.699a2.393 2.393 0 0 0-2.389-2.388h-33.506a2.391 2.391 0 0 0-2.388 2.388V7.809a2.39 2.39 0 0 0 2.388 2.388h22.527v-7.11A6.264 6.264 0 0 1-5.809-3.17h7.111v-6.41a.91.91 0 1 1 1.819 0v6.44c0 1.672-.65 3.244-1.832 4.427l-8.898 8.9a6.212 6.212 0 0 1-4.42 1.831h-22.564a4.214 4.214 0 0 1-4.209-4.209V-35.27a4.213 4.213 0 0 1 4.209-4.208h33.506a4.213 4.213 0 0 1 4.208 4.208v2.699a.909.909 0 0 1-.91.909" style="fill:#ffffff;fill-opacity:1;fill-rule:nonzero;stroke:none" transform="translate(39.845 40.057)"/><path d="M0 0h-5.982a.91.91 0 0 1 0-1.819H0A.91.91 0 1 1 0 0" style="fill:#ffffff;fill-opacity:1;fill-rule:nonzero;stroke:none" transform="translate(19.876 15.5)"/><path d="M0 0h-12.757a.91.91 0 1 1 0-1.819H0A.91.91 0 1 1 0 0" style="fill:#ffffff;fill-opacity:1;fill-rule:nonzero;stroke:none" transform="translate(19.876 21.578)"/><path d="M0 0a.91.91 0 1 1 0-1.819h3.563a.91.91 0 1 1 0 1.819z" style="fill:#ffffff;fill-opacity:1;fill-rule:nonzero;stroke:none" transform="translate(7.119 15.5)"/></g></svg>