<svg xmlns="http://www.w3.org/2000/svg" xml:space="preserve" width="66.667" height="66.667"><defs><clipPath clipPathUnits="userSpaceOnUse" id="a"><path d="M0 50h50V0H0Z"/></clipPath></defs><g clip-path="url(#a)" transform="matrix(1.33333 0 0 -1.33333 0 66.667)"><path d="M0 0h38.134a2.355 2.355 0 0 0 2.351-2.352v-5.53H-2.352v5.53A2.355 2.355 0 0 0 0 0m18.886-37.717H0a2.355 2.355 0 0 0-2.352 2.353v25.831h42.837v-15.533a.827.827 0 1 1 1.653 0v22.714a4.009 4.009 0 0 1-4.004 4.003H0a4.007 4.007 0 0 1-4.003-4.003v-33.012A4.007 4.007 0 0 1 0-39.368h18.886a.826.826 0 1 1 0 1.651" style="fill:#ffffff;fill-opacity:1;fill-rule:nonzero;stroke:none" transform="translate(5.04 47.212)"/><path d="M0 0a.689.689 0 1 0-.001-1.377A.689.689 0 0 0 0 0m0-3.028c1.29 0 2.34 1.049 2.34 2.34C2.34.602 1.29 1.651 0 1.651A2.341 2.341 0 0 1-2.339-.688 2.342 2.342 0 0 1 0-3.028" style="fill:#ffffff;fill-opacity:1;fill-rule:nonzero;stroke:none" transform="translate(7.973 44.024)"/><path d="M0 0a.69.69 0 0 0 0-1.377A.69.69 0 0 0 0 0m0-3.028c1.29 0 2.34 1.049 2.34 2.34C2.34.602 1.29 1.651 0 1.651A2.341 2.341 0 0 1-2.339-.688 2.342 2.342 0 0 1 0-3.028" style="fill:#ffffff;fill-opacity:1;fill-rule:nonzero;stroke:none" transform="translate(14.351 44.024)"/><path d="M0 0a.69.69 0 0 0 .689-.688A.69.69 0 1 0 0 0m0-3.028a2.342 2.342 0 0 1 2.34 2.34A2.342 2.342 0 0 1 0 1.651 2.341 2.341 0 0 1-2.339-.688 2.342 2.342 0 0 1 0-3.028" style="fill:#ffffff;fill-opacity:1;fill-rule:nonzero;stroke:none" transform="translate(20.73 44.024)"/><path d="M0 0a.826.826 0 0 1 0 1.651h-6.807a.825.825 0 1 1 0-1.651Z" style="fill:#ffffff;fill-opacity:1;fill-rule:nonzero;stroke:none" transform="translate(21.725 31.484)"/><path d="M0 0h15.543a.826.826 0 0 1 0 1.651H0A.825.825 0 1 1 0 0" style="fill:#ffffff;fill-opacity:1;fill-rule:nonzero;stroke:none" transform="translate(6.302 25.907)"/><path d="M0 0h4.193a.826.826 0 0 1 0 1.651H0A.825.825 0 1 1 0 0" style="fill:#ffffff;fill-opacity:1;fill-rule:nonzero;stroke:none" transform="translate(6.302 31.484)"/><path d="M0 0h8.035a.826.826 0 0 1 0 1.652H0A.826.826 0 0 1 0 0" style="fill:#ffffff;fill-opacity:1;fill-rule:nonzero;stroke:none" transform="translate(10.256 16.553)"/><path d="M0 0c0 .468.38.848.848.848h12.595c.468 0 .848-.38.848-.848v-4.944a.848.848 0 0 0-.848-.848H.848A.848.848 0 0 0 0-4.944Zm-1.651-4.944c0-1.379 1.121-2.5 2.499-2.5h12.595a2.502 2.502 0 0 1 2.499 2.5V0c0 1.379-1.121 2.5-2.499 2.5H.848A2.502 2.502 0 0 1-1.651 0Z" style="fill:#ffffff;fill-opacity:1;fill-rule:nonzero;stroke:none" transform="translate(7.128 19.85)"/><path d="M0 0h-8.035a.826.826 0 0 1 0-1.651H0A.826.826 0 0 1 0 0" style="fill:#ffffff;fill-opacity:1;fill-rule:nonzero;stroke:none" transform="translate(38.583 31.076)"/><path d="M0 0v-4.944a.848.848 0 0 0-.848-.848h-12.594a.848.848 0 0 0-.848.848V0c0 .468.38.848.848.848H-.848C-.38.848 0 .468 0 0m-13.442 2.5a2.503 2.503 0 0 1-2.5-2.5v-4.944a2.502 2.502 0 0 1 2.5-2.499H-.848c1.379 0 2.5 1.121 2.5 2.499V0c0 1.378-1.121 2.5-2.5 2.5z" style="fill:#ffffff;fill-opacity:1;fill-rule:nonzero;stroke:none" transform="translate(41.71 32.723)"/><path d="m0 0-.383-.237a9.284 9.284 0 0 0-5.445-1.397c.013.059.035.114.035.178v6.514h9.459a9.325 9.325 0 0 0-1.02-2.265l-.239-.384 2.19-4.597Zm-9.332-.751c.025.079.05.158.05.245V6.71h-5.383c-.027.28-.06.561-.06.844 0 .368.025.731.063 1.092.044-.008.083-.027.128-.027h5.252v7.599a9.304 9.304 0 0 0 1.838.632V8.619H4.01a9.3 9.3 0 0 0-.027-1.909H-7.444v-8.118c-.011.002-.022.003-.032.006a9.367 9.367 0 0 0-1.856.651m-4.073 3.672c-.415.67-.73 1.39-.951 2.137h3.421V.215a9.819 9.819 0 0 0-2.47 2.706m1.444 11.432c.322.321.669.607 1.026.875v-4.957h-3.413a9.367 9.367 0 0 0 2.387 4.082m6.644 2.744h.017a9.362 9.362 0 0 0 8.178-4.809c.359-.644.62-1.323.814-2.017h-9.485v6.803c.153.008.306.023.46.023zM6.789-2.949 4.281 2.313a11.018 11.018 0 0 1 .04 10.779A11.015 11.015 0 0 1-5.3 18.749h-.033a10.953 10.953 0 0 1-7.794-3.228c-2.099-2.095-3.252-4.925-3.25-7.969a10.481 10.481 0 0 1 1.566-5.5c1.602-2.588 4.073-4.386 6.959-5.063A10.96 10.96 0 0 1 .096-1.873L5.358-4.38a1.073 1.073 0 0 1 1.431 1.431" style="fill:#ffffff;fill-opacity:1;fill-rule:nonzero;stroke:none" transform="translate(42.145 5.188)"/></g></svg>