<svg xmlns="http://www.w3.org/2000/svg" xml:space="preserve" width="66.667" height="66.667"><defs><clipPath id="a" clipPathUnits="userSpaceOnUse"><path d="M0 50h50V0H0Z"/></clipPath></defs><g clip-path="url(#a)" transform="matrix(1.33333 0 0 -1.33333 0 66.667)"><path d="M0 0h3.17c1.15 0 2.08-1 2.08-2.22v-16.14a.85.85 0 1 1 1.7 0v16.14c0 2.16-1.69 3.92-3.78 3.92H0A.85.85 0 1 1 0 0" style="fill:#0098da;fill-opacity:1;fill-rule:nonzero;stroke:none" transform="translate(35.9 41.46)"/><path d="M0 0c.47 0 .85.38.85.85v16.26c0 1.22.93 2.22 2.08 2.22H6.1a.85.85 0 1 1 0 1.7H2.93c-2.08 0-3.78-1.76-3.78-3.92V.86C-.85.38-.47 0 0 0" style="fill:#0098da;fill-opacity:1;fill-rule:nonzero;stroke:none" transform="translate(8 22.13)"/><path d="M0 0c3.26 0 5.91-2.65 5.91-5.91 0-3.26-2.65-5.91-5.91-5.91-3.26 0-5.91 2.65-5.91 5.91C-5.91-2.65-3.26 0 0 0m0-13.52c4.2 0 7.61 3.41 7.61 7.61S4.2 1.7 0 1.7s-7.61-3.41-7.61-7.61S-4.2-13.52 0-13.52" style="fill:#0098da;fill-opacity:1;fill-rule:nonzero;stroke:none" transform="translate(25 48.04)"/><path d="M0 0c.22 0 .44.08.6.25l1.32 1.32v-4.43a.85.85 0 1 1 1.7 0v4.43L4.94.25c.17-.17.38-.25.6-.25a.851.851 0 0 1 .6 1.45L3.37 4.22s-.01 0-.01.01c-.08.07-.17.13-.27.18-.1.04-.21.06-.32.06-.11 0-.22-.02-.33-.07a.8.8 0 0 1-.27-.18s-.01 0-.01-.01L-.6 1.45a.851.851 0 0 1 0-1.2C-.44.08-.22 0 0 0" style="fill:#0098da;fill-opacity:1;fill-rule:nonzero;stroke:none" transform="translate(22.23 41.75)"/><path d="M0 0h-22.16a.85.85 0 1 1 0-1.7H0A.85.85 0 1 1 0 0" style="fill:#0098da;fill-opacity:1;fill-rule:nonzero;stroke:none" transform="translate(35.78 31.22)"/><path d="M0 0h-21.95a.85.85 0 1 1 0-1.7H0A.85.85 0 1 1 0 0" style="fill:#0098da;fill-opacity:1;fill-rule:nonzero;stroke:none" transform="translate(35.62 25.94)"/><path d="M0 0c1.3 0 2.36-1.06 2.36-2.36 0-1.3-1.06-2.36-2.36-2.36-1.3 0-2.36 1.06-2.36 2.36C-2.36-1.06-1.3 0 0 0m4.57-6.68c-.71.45-1.47.78-2.26 1 1.05.73 1.74 1.95 1.74 3.32C4.05-.12 2.23 1.7-.01 1.7c-2.24 0-4.06-1.82-4.06-4.06 0-1.37.69-2.58 1.73-3.31-.78-.22-1.54-.54-2.24-.98a.846.846 0 0 1-.27-1.17c.25-.4.77-.52 1.17-.27a6.9 6.9 0 0 0 7.33-.02c.14-.09.3-.13.46-.13.28 0 .56.14.72.39.26.39.14.91-.26 1.17" style="fill:#0098da;fill-opacity:1;fill-rule:nonzero;stroke:none" transform="translate(11 13.8)"/><path d="M0 0a2.54 2.54 0 0 0-2.53-2.53h-37.12c-1.4 0-2.53 1.14-2.53 2.53v12.07a2.54 2.54 0 0 0 2.53 2.53h37.12A2.54 2.54 0 0 0 0 12.07Zm-2.53 16.3h-37.12c-2.33 0-4.23-1.9-4.23-4.23V0c0-2.33 1.9-4.23 4.23-4.23h37.12C-.2-4.23 1.7-2.33 1.7 0v12.07c0 2.33-1.9 4.23-4.23 4.23" style="fill:#0098da;fill-opacity:1;fill-rule:nonzero;stroke:none" transform="translate(46.09 4.49)"/><path d="M0 0c-.62 0-1.13-.51-1.13-1.13 0-.62.51-1.13 1.13-1.13A1.129 1.129 0 1 1 0 0" style="fill:#0098da;fill-opacity:1;fill-rule:nonzero;stroke:none" transform="translate(22.45 13.16)"/><path d="M0 0c-1.37 1.99-2.28 3.76-2.28 4.45a2.279 2.279 0 1 0 4.56 0C2.29 3.76 1.37 2 0 0m0 8.44c-2.2 0-3.98-1.79-3.98-3.98 0-1.63 1.98-4.6 3.16-6.23.19-.26.5-.42.82-.42.33 0 .64.16.83.42C2.01-.15 3.98 2.82 3.98 4.46 3.99 6.65 2.2 8.44 0 8.44" style="fill:#0098da;fill-opacity:1;fill-rule:nonzero;stroke:none" transform="translate(22.45 7.4)"/><path d="M0 0v4.98l3.66-2.52c.35-.24.76-.36 1.17-.36.41 0 .82.12 1.17.36l3.66 2.52V0Zm7.98 5.87L5.05 3.85a.345.345 0 0 0-.41 0L1.71 5.87Zm3.05 1.07-.03.03c-.29.36-.74.59-1.24.59H-.09c-.5 0-.94-.23-1.24-.59l-.03-.03c0-.01 0-.01-.01-.02-.2-.27-.33-.6-.33-.96V-.1c0-.89.72-1.61 1.61-1.61h9.85c.89 0 1.61.72 1.61 1.61v6.06c0 .36-.13.69-.33.96-.01.01-.01.02-.01.02" style="fill:#0098da;fill-opacity:1;fill-rule:nonzero;stroke:none" transform="translate(31.47 7.59)"/></g></svg>