<svg width="32" height="37" fill="none" xmlns="http://www.w3.org/2000/svg"><rect id="backgroundrect" width="100%" height="100%" x="0" y="0" fill="none" stroke="none"/><g class="currentLayer" style=""><title>Layer 1</title><path d="M31.92 3c0-1.66-1.3-3-2.9-3H5.82c-1.6 0-2.9 1.34-2.9 3v11.4c0 .32.26.6.58.6a.6.6 0 00.58-.6V3c0-1 .78-1.8 1.74-1.8h23.2c.96 0 1.74.8 1.74 1.8v23.4H26.7c-1.6 0-2.9 1.33-2.9 3v4.2h-2.32a.6.6 0 00-.58.6c0 .32.26.6.58.6h2.9c.16 0 .3-.07.41-.19l6.96-7.2a.6.6 0 00.17-.42V3zM26.7 27.6h3.25l-4.99 5.15v-3.36c0-1 .78-1.8 1.74-1.8z" fill="#ffffff" id="svg_1" class="selected" fill-opacity="1"/><path d="M8.14 3.6H6.98a.6.6 0 00-.58.6c0 .33.26.6.58.6h1.16a.6.6 0 00.58-.6.6.6 0 00-.58-.6zM27.86 3.6h-17.4a.6.6 0 00-.58.6c0 .33.26.6.58.6h17.4a.6.6 0 00.58-.6.6.6 0 00-.58-.6zM8.14 7.2H6.98a.6.6 0 00-.58.6c0 .33.26.6.58.6h1.16a.6.6 0 00.58-.6.6.6 0 00-.58-.6zM10.46 8.4H23.8a.6.6 0 00.58-.6.6.6 0 00-.58-.6H10.46a.6.6 0 00-.58.6c0 .33.26.6.58.6zM8.14 10.8H6.98a.6.6 0 00-.58.6c0 .33.26.6.58.6h1.16a.6.6 0 00.58-.6.6.6 0 00-.58-.6zM10.46 12h9.28a.6.6 0 00.58-.6.6.6 0 00-.58-.6h-9.28a.6.6 0 00-.58.6c0 .33.26.6.58.6zM29.6 12.6a.6.6 0 00-.58-.6.6.6 0 00-.58.6V21c0 .32.27.6.58.6a.6.6 0 00.58-.6v-8.4zM29.02 22.8a.6.6 0 00-.58.6v1.2c0 .32.27.6.58.6a.6.6 0 00.58-.6v-1.2a.6.6 0 00-.58-.6zM.01 33.54a2.4 2.4 0 001.4 2.25c.85.4 1.85.21 2.53-.46l5.65-5.61 5.64 5.6c.6.6 1.46.83 2.26.6a2.45 2.45 0 00.95-4.06l-5.5-5.47 5.5-5.46c.68-.68.9-1.7.56-2.6a2.34 2.34 0 00-2.12-1.53 2.26 2.26 0 00-1.65.66l-5.65 5.6-5.65-5.6a2.26 2.26 0 00-3.28.08c-.89.95-.86 2.47.06 3.39l5.51 5.46-5.49 5.47c-.44.44-.7 1.05-.72 1.68zm1.52-.81l5.94-5.9a.6.6 0 000-.86l-5.94-5.91a1.25 1.25 0 01-.28-1.3c.17-.46.59-.76 1.06-.76.3-.01.6.1.82.33l6.05 6c.23.23.58.23.8 0l6.05-6c.22-.22.52-.34.83-.33.47 0 .89.3 1.06.75.17.45.06.97-.28 1.3l-5.94 5.91a.6.6 0 000 .86l5.95 5.9a1.22 1.22 0 01.02 1.7c-.45.46-1.17.47-1.64.03l-6.04-6a.57.57 0 00-.81 0l-6.05 6c-.47.44-1.19.43-1.64-.03-.2-.23-.32-.54-.32-.86.01-.32.14-.62.36-.83z" fill="#ffffff" id="svg_2" class="selected" fill-opacity="1"/></g></svg>