<svg width="36" height="36" fill="none" xmlns="http://www.w3.org/2000/svg"><path d="M31.6 8.41V7.23a2.83 2.83 0 00-2.83-2.83h-9.64v-.57A2.83 2.83 0 0016.3 1H3.83A2.83 2.83 0 001 3.83v11.9c0 .31.26.57.57.57.3 0 .56-.26.56-.57V3.83c0-.94.76-1.7 1.7-1.7H16.3c.94 0 1.7.76 1.7 1.7v1.14c0 .3.26.56.57.56h10.2c.94 0 1.7.76 1.7 1.7v1.14H14.6a.57.57 0 00-.57.56c0 .31.26.57.57.57h16.43a2.83 2.83 0 012.84 2.83v16.44a2.83 2.83 0 01-2.84 2.83h-8.5a.57.57 0 00-.56.57c0 .3.25.56.56.56h8.5A3.97 3.97 0 0035 28.77V12.33a3.97 3.97 0 00-3.4-3.92z" fill="#0098DA"/><path d="M11.77 9.5c.3 0 .56-.26.56-.57a.57.57 0 00-.56-.56H9.5a.57.57 0 00-.57.56c0 .31.26.57.57.57h2.27zM1.78 26.03l1.85.62c.17.57.39 1.1.67 1.63l-.87 1.74c-.23.44-.14.97.2 1.31l1.04 1.03c.34.35.86.44 1.3.21l1.75-.87c.51.28 1.06.5 1.63.67l.62 1.85c.15.46.58.78 1.07.78h1.45c.49 0 .92-.31 1.08-.78l.62-1.85c.57-.17 1.11-.39 1.63-.67l1.75.87c.43.23.96.14 1.3-.2l1.03-1.04c.35-.34.44-.86.22-1.3l-.88-1.75c.28-.51.5-1.06.67-1.63l1.85-.62c.46-.16.77-.58.77-1.07V23.5c0-.49-.3-.92-.77-1.08l-1.85-.62c-.17-.57-.4-1.1-.67-1.63l.88-1.75c.22-.43.13-.96-.22-1.3l-1.02-1.03a1.13 1.13 0 00-1.31-.22l-1.75.88a8.2 8.2 0 00-1.63-.67l-.62-1.85a1.13 1.13 0 00-1.07-.77h-1.45c-.49 0-.92.3-1.08.77l-.62 1.85c-.57.17-1.1.4-1.63.67l-1.74-.88a1.13 1.13 0 00-1.31.22l-1.03 1.02c-.35.35-.44.87-.21 1.31l.87 1.75a8.2 8.2 0 00-.67 1.63l-1.85.62C1.32 22.58 1 23 1 23.5v1.45c0 .5.31.93.78 1.08zm.35-2.52l2.14-.72a.58.58 0 00.37-.4c.17-.67.44-1.3.8-1.9.1-.17.1-.37.01-.54l-1-2.02 1.02-1.03 2.02 1.01c.17.09.38.08.54-.02.6-.35 1.24-.62 1.9-.8a.56.56 0 00.4-.36l.71-2.14h1.45l.72 2.14c.06.18.21.31.4.37.67.17 1.3.44 1.9.8.17.1.37.1.54.01l2.02-1 1.03 1.02-1.01 2.02a.56.56 0 00.02.54c.35.6.62 1.24.8 1.9.04.19.18.34.36.4l2.14.7v1.46l-2.14.72a.58.58 0 00-.37.4 7.05 7.05 0 01-.8 1.9c-.1.17-.1.37-.01.54l1 2.02-1.02 1.03-2.02-1.01a.56.56 0 00-.54.01c-.6.36-1.24.62-1.9.8a.56.56 0 00-.4.37l-.7 2.14h-1.46l-.72-2.14a.58.58 0 00-.4-.37 7.06 7.06 0 01-1.9-.8.56.56 0 00-.54-.01l-2.02 1-1.03-1.02 1.01-2.02a.56.56 0 00-.01-.54 7.48 7.48 0 01-.8-1.9.56.56 0 00-.37-.4l-2.14-.71V23.5z" fill="#0098DA"/><path d="M7.38 27.54c0 .43.23.82.62 1a1 1 0 001.12-.22l2.5-2.48 2.5 2.48c.27.27.66.37 1.01.26.35-.1.63-.4.72-.77.08-.37-.03-.76-.3-1.02l-2.44-2.42 2.44-2.42c.3-.3.4-.75.25-1.15-.16-.4-.53-.67-.94-.67a1 1 0 00-.73.29l-2.5 2.48-2.51-2.48a1 1 0 00-1.46.03c-.4.43-.38 1.1.03 1.5l2.44 2.42L7.7 26.8c-.2.2-.31.46-.32.75zm.67-.37l2.64-2.6a.27.27 0 000-.38l-2.64-2.62a.55.55 0 01-.12-.58c.07-.2.26-.33.47-.33.13 0 .27.05.36.15l2.68 2.65c.1.1.26.1.36 0l2.68-2.65c.1-.1.23-.16.37-.15.2 0 .4.13.47.33.08.2.03.43-.13.58l-2.63 2.61a.26.26 0 000 .38l2.64 2.61a.54.54 0 01.01.75c-.2.2-.52.21-.73.02l-2.68-2.66a.25.25 0 00-.36 0l-2.68 2.66c-.2.2-.52.19-.72-.02a.56.56 0 01-.15-.38c.01-.14.07-.27.16-.37z" fill="#0098DA"/><path d="M31.6 8.41V7.23a2.83 2.83 0 00-2.83-2.83h-9.64v-.57A2.83 2.83 0 0016.3 1H3.83A2.83 2.83 0 001 3.83v11.9c0 .31.26.57.57.57.3 0 .56-.26.56-.57V3.83c0-.94.76-1.7 1.7-1.7H16.3c.94 0 1.7.76 1.7 1.7v1.14c0 .3.26.56.57.56h10.2c.94 0 1.7.76 1.7 1.7v1.14H14.6a.57.57 0 00-.57.56c0 .31.26.57.57.57h16.43a2.83 2.83 0 012.84 2.83v16.44a2.83 2.83 0 01-2.84 2.83h-8.5a.57.57 0 00-.56.57c0 .3.25.56.56.56h8.5A3.97 3.97 0 0035 28.77V12.33a3.97 3.97 0 00-3.4-3.92z" stroke="#0098DA" stroke-width=".4"/><path d="M11.77 9.5c.3 0 .56-.26.56-.57a.57.57 0 00-.56-.56H9.5a.57.57 0 00-.57.56c0 .31.26.57.57.57h2.27zM1.78 26.03l1.85.62c.17.57.39 1.1.67 1.63l-.87 1.74c-.23.44-.14.97.2 1.31l1.04 1.03c.34.35.86.44 1.3.21l1.75-.87c.51.28 1.06.5 1.63.67l.62 1.85c.15.46.58.78 1.07.78h1.45c.49 0 .92-.31 1.08-.78l.62-1.85c.57-.17 1.11-.39 1.63-.67l1.75.87c.43.23.96.14 1.3-.2l1.03-1.04c.35-.34.44-.86.22-1.3l-.88-1.75c.28-.51.5-1.06.67-1.63l1.85-.62c.46-.16.77-.58.77-1.07V23.5c0-.49-.3-.92-.77-1.08l-1.85-.62c-.17-.57-.4-1.1-.67-1.63l.88-1.75c.22-.43.13-.96-.22-1.3l-1.02-1.03a1.13 1.13 0 00-1.31-.22l-1.75.88a8.2 8.2 0 00-1.63-.67l-.62-1.85a1.13 1.13 0 00-1.07-.77h-1.45c-.49 0-.92.3-1.08.77l-.62 1.85c-.57.17-1.1.4-1.63.67l-1.74-.88a1.13 1.13 0 00-1.31.22l-1.03 1.02c-.35.35-.44.87-.21 1.31l.87 1.75a8.2 8.2 0 00-.67 1.63l-1.85.62C1.32 22.58 1 23 1 23.5v1.45c0 .5.31.93.78 1.08zm.35-2.52l2.14-.72a.58.58 0 00.37-.4c.17-.67.44-1.3.8-1.9.1-.17.1-.37.01-.54l-1-2.02 1.02-1.03 2.02 1.01c.17.09.38.08.54-.02.6-.35 1.24-.62 1.9-.8a.56.56 0 00.4-.36l.71-2.14h1.45l.72 2.14c.06.18.21.31.4.37.67.17 1.3.44 1.9.8.17.1.37.1.54.01l2.02-1 1.03 1.02-1.01 2.02a.56.56 0 00.02.54c.35.6.62 1.24.8 1.9.04.19.18.34.36.4l2.14.7v1.46l-2.14.72a.58.58 0 00-.37.4 7.05 7.05 0 01-.8 1.9c-.1.17-.1.37-.01.54l1 2.02-1.02 1.03-2.02-1.01a.56.56 0 00-.54.01c-.6.36-1.24.62-1.9.8a.56.56 0 00-.4.37l-.7 2.14h-1.46l-.72-2.14a.58.58 0 00-.4-.37 7.06 7.06 0 01-1.9-.8.56.56 0 00-.54-.01l-2.02 1-1.03-1.02 1.01-2.02a.56.56 0 00-.01-.54 7.48 7.48 0 01-.8-1.9.56.56 0 00-.37-.4l-2.14-.71V23.5z" stroke="#0098DA" stroke-width=".4"/><path d="M7.38 27.54c0 .43.23.82.62 1a1 1 0 001.12-.22l2.5-2.48 2.5 2.48c.27.27.66.37 1.01.26.35-.1.63-.4.72-.77.08-.37-.03-.76-.3-1.02l-2.44-2.42 2.44-2.42c.3-.3.4-.75.25-1.15-.16-.4-.53-.67-.94-.67a1 1 0 00-.73.29l-2.5 2.48-2.51-2.48a1 1 0 00-1.46.03c-.4.43-.38 1.1.03 1.5l2.44 2.42L7.7 26.8c-.2.2-.31.46-.32.75zm.67-.37l2.64-2.6a.27.27 0 000-.38l-2.64-2.62a.55.55 0 01-.12-.58c.07-.2.26-.33.47-.33.13 0 .27.05.36.15l2.68 2.65c.1.1.26.1.36 0l2.68-2.65c.1-.1.23-.16.37-.15.2 0 .4.13.47.33.08.2.03.43-.13.58l-2.63 2.61a.26.26 0 000 .38l2.64 2.61a.54.54 0 01.01.75c-.2.2-.52.21-.73.02l-2.68-2.66a.25.25 0 00-.36 0l-2.68 2.66c-.2.2-.52.19-.72-.02a.56.56 0 01-.15-.38c.01-.14.07-.27.16-.37z" stroke="#0098DA" stroke-width=".4"/></svg>