<svg xmlns="http://www.w3.org/2000/svg" xml:space="preserve" width="66.667" height="71.337"><defs><clipPath clipPathUnits="userSpaceOnUse" id="a"><path d="M0 53.503h50V0H0Z"/></clipPath></defs><g clip-path="url(#a)" transform="matrix(1.33333 0 0 -1.33333 0 71.337)"><path d="M0 0c-.085.271-.131.628-.168.918C-.206.628-.253.271-.337 0l-.495-1.604H.477Zm-1.485-3.619a.702.702 0 0 0-.618-.441c-.364 0-.672.244-.672.6 0 .047.009.16.028.207l1.822 5.334c.121.366.308.638.757.638.448 0 .636-.263.767-.638l1.822-5.334a.865.865 0 0 0 .027-.207c0-.356-.29-.6-.673-.6-.243 0-.542.179-.635.441l-.328.947h-1.989z" style="fill:#0098da;fill-opacity:1;fill-rule:nonzero;stroke:none" transform="translate(28.297 34.11)"/><path d="M0 0c-.085.271-.131.628-.168.918C-.206.628-.253.271-.337 0l-.495-1.604H.477Zm-1.485-3.619a.702.702 0 0 0-.618-.441c-.364 0-.672.244-.672.6 0 .047.009.16.028.207l1.822 5.334c.121.366.308.638.757.638.448 0 .636-.263.767-.638l1.822-5.334a.865.865 0 0 0 .027-.207c0-.356-.29-.6-.673-.6-.243 0-.542.179-.635.441l-.328.947h-1.989z" style="fill:none;stroke:#0098da;stroke-width:.208;stroke-linecap:butt;stroke-linejoin:miter;stroke-miterlimit:10;stroke-dasharray:none;stroke-opacity:1" transform="translate(28.297 34.11)"/><path d="M0 0c-.084.271-.131.628-.168.918C-.206.628-.253.271-.336 0l-.496-1.604h1.31zm-1.485-3.619c-.094-.272-.394-.441-.618-.441-.365 0-.672.244-.672.6 0 .047.008.16.027.207l1.823 5.334c.121.366.309.638.757.638s.636-.263.767-.638l1.822-5.334a.865.865 0 0 0 .027-.207c0-.356-.29-.6-.673-.6-.243 0-.542.179-.635.441l-.328.947h-1.989z" style="fill:#0098da;fill-opacity:1;fill-rule:nonzero;stroke:none" transform="translate(34.568 34.11)"/><path d="M0 0c-.084.271-.131.628-.168.918C-.206.628-.253.271-.336 0l-.496-1.604h1.31zm-1.485-3.619c-.094-.272-.394-.441-.618-.441-.365 0-.672.244-.672.6 0 .047.008.16.027.207l1.823 5.334c.121.366.309.638.757.638s.636-.263.767-.638l1.822-5.334a.865.865 0 0 0 .027-.207c0-.356-.29-.6-.673-.6-.243 0-.542.179-.635.441l-.328.947h-1.989z" style="fill:none;stroke:#0098da;stroke-width:.208;stroke-linecap:butt;stroke-linejoin:miter;stroke-miterlimit:10;stroke-dasharray:none;stroke-opacity:1" transform="translate(34.568 34.11)"/><path d="M0 0c-.084.271-.131.628-.169.918C-.205.628-.253.271-.337 0l-.495-1.604H.477zm-1.486-3.619c-.093-.272-.393-.441-.618-.441-.363 0-.671.244-.671.6 0 .047.008.16.028.207l1.821 5.334c.122.366.309.638.757.638.449 0 .636-.263.767-.638L2.42-3.253a.776.776 0 0 0 .028-.207c0-.356-.289-.6-.673-.6-.243 0-.542.179-.634.441l-.328.947h-1.991z" style="fill:#0098da;fill-opacity:1;fill-rule:nonzero;stroke:none" transform="translate(40.84 34.11)"/><path d="M0 0c-.084.271-.131.628-.169.918C-.205.628-.253.271-.337 0l-.495-1.604H.477zm-1.486-3.619c-.093-.272-.393-.441-.618-.441-.363 0-.671.244-.671.6 0 .047.008.16.028.207l1.821 5.334c.122.366.309.638.757.638.449 0 .636-.263.767-.638L2.42-3.253a.776.776 0 0 0 .028-.207c0-.356-.289-.6-.673-.6-.243 0-.542.179-.634.441l-.328.947h-1.991z" style="fill:none;stroke:#0098da;stroke-width:.208;stroke-linecap:butt;stroke-linejoin:miter;stroke-miterlimit:10;stroke-dasharray:none;stroke-opacity:1" transform="translate(40.84 34.11)"/><path d="M0 0c-.085.272-.131.629-.168.919C-.206.629-.253.272-.337 0l-.495-1.604H.477Zm-1.485-3.618a.702.702 0 0 0-.618-.442c-.364 0-.672.245-.672.601 0 .047.009.159.028.206l1.822 5.334c.121.366.308.638.757.638.448 0 .636-.262.767-.638l1.822-5.334a.857.857 0 0 0 .027-.206c0-.356-.29-.601-.673-.601-.243 0-.542.179-.635.442l-.328.947h-1.989z" style="fill:#0098da;fill-opacity:1;fill-rule:nonzero;stroke:none" transform="translate(28.297 23.65)"/><path d="M0 0c-.085.272-.131.629-.168.919C-.206.629-.253.272-.337 0l-.495-1.604H.477Zm-1.485-3.618a.702.702 0 0 0-.618-.442c-.364 0-.672.245-.672.601 0 .047.009.159.028.206l1.822 5.334c.121.366.308.638.757.638.448 0 .636-.262.767-.638l1.822-5.334a.857.857 0 0 0 .027-.206c0-.356-.29-.601-.673-.601-.243 0-.542.179-.635.442l-.328.947h-1.989z" style="fill:none;stroke:#0098da;stroke-width:.208;stroke-linecap:butt;stroke-linejoin:miter;stroke-miterlimit:10;stroke-dasharray:none;stroke-opacity:1" transform="translate(28.297 23.65)"/><path d="M0 0c-.084.272-.131.629-.168.919C-.206.629-.253.272-.336 0l-.496-1.604h1.31zm-1.485-3.618a.7.7 0 0 0-.618-.442c-.365 0-.672.245-.672.601 0 .047.008.159.027.206l1.823 5.334c.121.366.309.638.757.638s.636-.262.767-.638l1.822-5.334a.857.857 0 0 0 .027-.206c0-.356-.29-.601-.673-.601-.243 0-.542.179-.635.442l-.328.947h-1.989z" style="fill:#0098da;fill-opacity:1;fill-rule:nonzero;stroke:none" transform="translate(34.568 23.65)"/><path d="M0 0c-.084.272-.131.629-.168.919C-.206.629-.253.272-.336 0l-.496-1.604h1.31zm-1.485-3.618a.7.7 0 0 0-.618-.442c-.365 0-.672.245-.672.601 0 .047.008.159.027.206l1.823 5.334c.121.366.309.638.757.638s.636-.262.767-.638l1.822-5.334a.857.857 0 0 0 .027-.206c0-.356-.29-.601-.673-.601-.243 0-.542.179-.635.442l-.328.947h-1.989z" style="fill:none;stroke:#0098da;stroke-width:.208;stroke-linecap:butt;stroke-linejoin:miter;stroke-miterlimit:10;stroke-dasharray:none;stroke-opacity:1" transform="translate(34.568 23.65)"/><path d="M0 0c0-.319-.3-.601-.655-.601-.365 0-.655.282-.655.601v5.437c0 .329.309.666.72.666h2.533c.355 0 .654-.282.654-.61 0-.337-.299-.581-.654-.581H0V3.394h1.766c.327 0 .644-.253.644-.591 0-.337-.28-.6-.644-.6H0Z" style="fill:#0098da;fill-opacity:1;fill-rule:nonzero;stroke:none" transform="translate(39.57 20.192)"/><path d="M0 0c0-.319-.3-.601-.655-.601-.365 0-.655.282-.655.601v5.437c0 .329.309.666.72.666h2.533c.355 0 .654-.282.654-.61 0-.337-.299-.581-.654-.581H0V3.394h1.766c.327 0 .644-.253.644-.591 0-.337-.28-.6-.644-.6H0Z" style="fill:none;stroke:#0098da;stroke-width:.208;stroke-linecap:butt;stroke-linejoin:miter;stroke-miterlimit:10;stroke-dasharray:none;stroke-opacity:1" transform="translate(39.57 20.192)"/><path d="M0 0v-.001zm-5.602-1.5a.818.818 0 0 0 .818-.819v-2.318l1.59.046-.017 2.272c0 .452.366.819.818.819H.016L0-.046h-2.393a.819.819 0 0 0-.818.819v2.318L-4.8 3.045l.016-2.272a.818.818 0 0 0-.818-.819H-8.01l.017-1.5zm2.408-4.729H-4.8c-.893 0-1.62.714-1.62 1.592v1.499h-1.59c-.893 0-1.621.715-1.621 1.592V0c0 .877.728 1.591 1.621 1.591h1.59v1.5c0 .878.727 1.592 1.62 1.592h1.606c.893 0 1.62-.714 1.62-1.592v-1.5h1.59C.909 1.591 1.637.877 1.637 0v-1.546c0-.877-.728-1.592-1.621-1.592h-1.59v-1.499c0-.878-.727-1.592-1.62-1.592" style="fill:#0098da;fill-opacity:1;fill-rule:nonzero;stroke:none" transform="translate(34.727 46.612)"/><path d="M0 0h-28.102a3.788 3.788 0 0 0-3.784 3.784v3.77a.818.818 0 1 0 1.637 0v-3.77a2.15 2.15 0 0 1 2.147-2.148H0a2.15 2.15 0 0 1 2.148 2.148V39.43A2.15 2.15 0 0 1 0 41.578h-5.101a.818.818 0 1 0 0 1.637H0a3.789 3.789 0 0 0 3.784-3.785V3.784A3.788 3.788 0 0 0 0 0" style="fill:#0098da;fill-opacity:1;fill-rule:nonzero;stroke:none" transform="translate(44.781 3.294)"/><path d="M0 0a.885.885 0 0 0-.885.885v9.688a3.855 3.855 0 0 0 3.851 3.85h4.837a.884.884 0 1 0 0-1.769H2.966a2.084 2.084 0 0 1-2.081-2.081V.885A.885.885 0 0 0 0 0" style="fill:#0098da;fill-opacity:1;fill-rule:nonzero;stroke:none" transform="translate(13.713 32.152)"/><path d="m0 0 .125-.104a1.644 1.644 0 0 1 1.218-.383c.443.039.844.249 1.13.591l4.839 5.782L4.631 8.13-.208 2.347A1.668 1.668 0 0 1 0 0m1.19-2.131c-.773 0-1.515.268-2.115.771l-.124.103-.002.002a3.306 3.306 0 0 0-.413 4.652l5.365 6.412a.822.822 0 0 0 1.153.102l3.937-3.295a.821.821 0 0 0 .102-1.153L3.728-.948A3.283 3.283 0 0 0 1.19-2.131" style="fill:#0098da;fill-opacity:1;fill-rule:nonzero;stroke:none" transform="translate(2.798 8.012)"/><path d="M0 0c-2.65-3.167-2.23-7.9.937-10.552a7.437 7.437 0 0 1 5.47-1.716 7.443 7.443 0 0 1 5.082 2.654 7.44 7.44 0 0 1 1.717 5.469A7.441 7.441 0 0 1 10.552.937C7.384 3.588 2.651 3.168 0 0m5.729-13.936a9.054 9.054 0 0 0-5.842 2.13c-3.86 3.23-4.372 8.997-1.142 12.857 3.23 3.86 8.998 4.373 12.858 1.142A9.066 9.066 0 0 0 14.836-4a9.064 9.064 0 0 0-2.092-6.665 9.06 9.06 0 0 0-6.192-3.233 9.115 9.115 0 0 0-.823-.038" style="fill:#0098da;fill-opacity:1;fill-rule:nonzero;stroke:none" transform="translate(9.104 26.66)"/><path d="M0 0c-.369 0-.74.118-1.053.361l-2.286 1.785a.818.818 0 0 0 1.007 1.291l2.286-1.785a.078.078 0 0 1 .11.014L3.6 6.188A.82.82 0 0 0 4.889 5.18L1.353.657A1.716 1.716 0 0 0 0 0" style="fill:#0098da;fill-opacity:1;fill-rule:nonzero;stroke:none" transform="translate(14.204 18.17)"/><path d="M0 0c-.084.271-.131.628-.168.919C-.205.628-.252.271-.336 0l-.495-1.604H.477zm-1.485-3.619a.7.7 0 0 0-.618-.441c-.364 0-.672.244-.672.6 0 .047.009.16.028.207l1.822 5.334c.122.366.308.638.757.638.448 0 .636-.263.767-.638l1.822-5.334a.819.819 0 0 0 .028-.207c0-.356-.29-.6-.674-.6-.242 0-.541.179-.634.441l-.328.947h-1.99z" style="fill:#0098da;fill-opacity:1;fill-rule:nonzero;stroke:none" transform="translate(28.297 13.19)"/><path d="M0 0c-.084.271-.131.628-.168.919C-.205.628-.252.271-.336 0l-.495-1.604H.477zm-1.485-3.619a.7.7 0 0 0-.618-.441c-.364 0-.672.244-.672.6 0 .047.009.16.028.207l1.822 5.334c.122.366.308.638.757.638.448 0 .636-.263.767-.638l1.822-5.334a.819.819 0 0 0 .028-.207c0-.356-.29-.6-.674-.6-.242 0-.541.179-.634.441l-.328.947h-1.99z" style="fill:none;stroke:#0098da;stroke-width:.208;stroke-linecap:butt;stroke-linejoin:miter;stroke-miterlimit:10;stroke-dasharray:none;stroke-opacity:1" transform="translate(28.297 13.19)"/><path d="M0 0c-.083.271-.131.628-.168.919C-.205.628-.252.271-.335 0l-.496-1.604H.478zm-1.485-3.619a.7.7 0 0 0-.618-.441c-.364 0-.671.244-.671.6 0 .047.008.16.027.207l1.822 5.334c.122.366.309.638.757.638s.636-.263.767-.638l1.822-5.334a.819.819 0 0 0 .028-.207c0-.356-.29-.6-.674-.6-.242 0-.541.179-.634.441l-.328.947h-1.99z" style="fill:#0098da;fill-opacity:1;fill-rule:nonzero;stroke:none" transform="translate(34.568 13.19)"/><path d="M0 0c-.083.271-.131.628-.168.919C-.205.628-.252.271-.335 0l-.496-1.604H.478zm-1.485-3.619a.7.7 0 0 0-.618-.441c-.364 0-.671.244-.671.6 0 .047.008.16.027.207l1.822 5.334c.122.366.309.638.757.638s.636-.263.767-.638l1.822-5.334a.819.819 0 0 0 .028-.207c0-.356-.29-.6-.674-.6-.242 0-.541.179-.634.441l-.328.947h-1.99z" style="fill:none;stroke:#0098da;stroke-width:.208;stroke-linecap:butt;stroke-linejoin:miter;stroke-miterlimit:10;stroke-dasharray:none;stroke-opacity:1" transform="translate(34.568 13.19)"/><path d="M0 0c0-.807.28-1.313 1.122-1.313.327 0 .56.084.775.198V.347h-.486a.6.6 0 0 0-.589.59.6.6 0 0 0 .589.591H2.43c.429 0 .766-.206.766-.657V-1.2c0-.881-1.159-1.257-2.122-1.257-1.635 0-2.383.976-2.383 2.457v1.856c0 1.481.748 2.456 2.383 2.456.991 0 1.935-.459 1.935-1.002 0-.301-.261-.563-.616-.563-.215 0-.281.066-.403.14l-.093.056a1.442 1.442 0 0 1-.775.225C.28 3.168 0 2.662 0 1.856Z" style="fill:#0098da;fill-opacity:1;fill-rule:nonzero;stroke:none" transform="translate(39.261 11.597)"/><path d="M0 0c0-.807.28-1.313 1.122-1.313.327 0 .56.084.775.198V.347h-.486a.6.6 0 0 0-.589.59.6.6 0 0 0 .589.591H2.43c.429 0 .766-.206.766-.657V-1.2c0-.881-1.159-1.257-2.122-1.257-1.635 0-2.383.976-2.383 2.457v1.856c0 1.481.748 2.456 2.383 2.456.991 0 1.935-.459 1.935-1.002 0-.301-.261-.563-.616-.563-.215 0-.281.066-.403.14l-.093.056a1.442 1.442 0 0 1-.775.225C.28 3.168 0 2.662 0 1.856Z" style="fill:none;stroke:#0098da;stroke-width:.208;stroke-linecap:butt;stroke-linejoin:miter;stroke-miterlimit:10;stroke-dasharray:none;stroke-opacity:1" transform="translate(39.261 11.597)"/></g></svg>