<?xml version="1.0" encoding="UTF-8" standalone="no"?>
<!-- Created with Inkscape (http://www.inkscape.org/) -->

<svg
   xmlns:dc="http://purl.org/dc/elements/1.1/"
   xmlns:cc="http://creativecommons.org/ns#"
   xmlns:rdf="http://www.w3.org/1999/02/22-rdf-syntax-ns#"
   xmlns:svg="http://www.w3.org/2000/svg"
   xmlns="http://www.w3.org/2000/svg"
   xmlns:sodipodi="http://sodipodi.sourceforge.net/DTD/sodipodi-0.dtd"
   xmlns:inkscape="http://www.inkscape.org/namespaces/inkscape"
   version="1.1"
   id="svg4375"
   xml:space="preserve"
   width="60"
   height="64.98027"
   viewBox="0 0 60 64.98027"
   sodipodi:docname="Resolve Drugs to RxNorm Codes.svg"
   inkscape:version="0.92.3 (2405546, 2018-03-11)"><metadata
     id="metadata4381"><rdf:RDF><cc:Work
         rdf:about=""><dc:format>image/svg+xml</dc:format><dc:type
           rdf:resource="http://purl.org/dc/dcmitype/StillImage" /><dc:title></dc:title></cc:Work></rdf:RDF></metadata><defs
     id="defs4379"><clipPath
       clipPathUnits="userSpaceOnUse"
       id="clipPath4391"><path
         d="M 0,48.735 H 45 V 0 H 0 Z"
         id="path4389"
         inkscape:connector-curvature="0" /></clipPath></defs><sodipodi:namedview
     pagecolor="#ffffff"
     bordercolor="#666666"
     borderopacity="1"
     objecttolerance="10"
     gridtolerance="10"
     guidetolerance="10"
     inkscape:pageopacity="0"
     inkscape:pageshadow="2"
     inkscape:window-width="697"
     inkscape:window-height="480"
     id="namedview4377"
     showgrid="false"
     inkscape:zoom="3.6318716"
     inkscape:cx="30"
     inkscape:cy="32.490135"
     inkscape:window-x="0"
     inkscape:window-y="0"
     inkscape:window-maximized="0"
     inkscape:current-layer="g4383" /><g
     id="g4383"
     inkscape:groupmode="layer"
     inkscape:label="Resolve Drugs to RxNorm Codes"
     transform="matrix(1.3333333,0,0,-1.3333333,0,64.980267)"><g
       id="g4385"><g
         id="g4387"
         clip-path="url(#clipPath4391)"><g
           id="g4393"
           transform="translate(19.5181,7.2713)"><path
             d="m 0,0 v 0.015 h -0.072 c -0.008,0 -0.014,0.004 -0.022,0.004 H -3.071 V 0.015 h -12.772 c -1.11,0 -2.012,0.902 -2.012,2.011 V 31.247 H 11.54 c 0.459,0 0.832,0.373 0.832,0.832 0,0.46 -0.373,0.832 -0.832,0.832 h -29.395 v 3.931 c 0,1.631 1.327,2.958 2.958,2.958 h 35.121 c 1.631,0 2.958,-1.327 2.958,-2.958 v -3.931 h -4.989 c -0.459,0 -0.832,-0.372 -0.832,-0.832 0,-0.459 0.373,-0.832 0.832,-0.832 h 4.989 V 18.083 h -0.005 v -2.977 c 0,-0.455 0.369,-0.823 0.824,-0.823 h 0.021 c 0.455,0 0.823,0.368 0.823,0.823 v 0.008 2.969 18.76 c 0,2.548 -2.073,4.621 -4.621,4.621 h -35.121 c -2.548,0 -4.621,-2.073 -4.621,-4.622 V 2.026 c 0,-2.026 1.649,-3.675 3.675,-3.675 H -3.071 -0.094 0 v 0.019 c 0.408,0.049 0.729,0.383 0.729,0.805 v 0.02 C 0.729,-0.384 0.408,-0.049 0,0"
             style="fill:#0098da;fill-opacity:1;fill-rule:nonzero;stroke:none"
             id="path4395"
             inkscape:connector-curvature="0" /></g><g
           id="g4397"
           transform="translate(35.1368,39.4597)"><path
             d="m 0,0 c 0,0.459 -0.372,0.832 -0.831,0.832 h -0.003 c -0.459,0 -0.83,-0.373 -0.83,-0.832 0,-0.459 0.373,-0.832 0.833,-0.832 C -0.372,-0.832 0,-0.459 0,0"
             style="fill:#0098da;fill-opacity:1;fill-rule:nonzero;stroke:none"
             id="path4399"
             inkscape:connector-curvature="0" /></g><g
           id="g4401"
           transform="translate(6.7325,43.5301)"><path
             d="m 0,0 c 0,-0.34 -0.276,-0.616 -0.616,-0.616 -0.34,0 -0.616,0.276 -0.616,0.616 0,0.34 0.276,0.616 0.616,0.616 C -0.276,0.616 0,0.34 0,0 m -2.395,0 c 0,-0.98 0.798,-1.778 1.779,-1.778 0.98,0 1.778,0.798 1.778,1.778 0,0.98 -0.798,1.778 -1.778,1.778 C -1.597,1.778 -2.395,0.98 -2.395,0"
             style="fill:#0098da;fill-opacity:1;fill-rule:nonzero;stroke:none"
             id="path4403"
             inkscape:connector-curvature="0" /></g><g
           id="g4405"
           transform="translate(11.0484,43.5301)"><path
             d="m 0,0 c 0,-0.34 -0.276,-0.616 -0.616,-0.616 -0.34,0 -0.616,0.276 -0.616,0.616 0,0.34 0.276,0.616 0.616,0.616 C -0.276,0.616 0,0.34 0,0 m -2.394,0 c 0,-0.98 0.798,-1.778 1.778,-1.778 0.981,0 1.779,0.798 1.779,1.778 0,0.98 -0.798,1.778 -1.779,1.778 -0.98,0 -1.778,-0.798 -1.778,-1.778"
             style="fill:#0098da;fill-opacity:1;fill-rule:nonzero;stroke:none"
             id="path4407"
             inkscape:connector-curvature="0" /></g><g
           id="g4409"
           transform="translate(15.2847,43.49)"><path
             d="m 0,0 c 0,-0.34 -0.276,-0.616 -0.616,-0.616 -0.34,0 -0.616,0.276 -0.616,0.616 0,0.339 0.276,0.616 0.616,0.616 C -0.276,0.616 0,0.339 0,0 m -2.395,0 c 0,-0.98 0.798,-1.778 1.779,-1.778 0.98,0 1.779,0.798 1.779,1.778 0,0.98 -0.799,1.778 -1.779,1.778 C -1.597,1.778 -2.395,0.98 -2.395,0"
             style="fill:#0098da;fill-opacity:1;fill-rule:nonzero;stroke:none"
             id="path4411"
             inkscape:connector-curvature="0" /></g><g
           id="g4413"
           transform="translate(41.9317,6.0056)"><path
             d="m 0,0 c -2.587,-4.205 -8.112,-5.52 -12.316,-2.937 -4.205,2.586 -5.522,8.112 -2.937,12.317 1.69,2.746 4.632,4.26 7.642,4.26 1.598,0 3.215,-0.427 4.674,-1.324 C 1.268,9.729 2.585,4.204 0,0 m -2.022,13.802 c -5.025,3.089 -11.626,1.516 -14.717,-3.508 -3.09,-5.024 -1.516,-11.627 3.508,-14.717 1.744,-1.071 3.675,-1.583 5.586,-1.583 3.596,0 7.113,1.811 9.13,5.091 3.09,5.025 1.517,11.627 -3.507,14.717"
             style="fill:#0098da;fill-opacity:1;fill-rule:nonzero;stroke:none"
             id="path4415"
             inkscape:connector-curvature="0" /></g><g
           id="g4417"
           transform="translate(31.4532,13.3914)"><path
             d="M 0,0 C -0.313,0.314 -0.859,0.313 -1.173,0.001 L -3.665,-2.49 c -0.153,-0.156 -0.241,-0.369 -0.241,-0.587 0,-0.222 0.086,-0.429 0.242,-0.585 l 2.46,-2.461 c 0.157,-0.154 0.365,-0.239 0.585,-0.239 0.219,0 0.426,0.085 0.586,0.242 0.157,0.157 0.244,0.366 0.244,0.588 0,0.222 -0.087,0.43 -0.251,0.593 L -1.956,-3.131 0,-1.174 C 0.324,-0.851 0.324,-0.324 0,0"
             style="fill:#0098da;fill-opacity:1;fill-rule:nonzero;stroke:none"
             id="path4419"
             inkscape:connector-curvature="0" /></g><g
           id="g4421"
           transform="translate(37.7335,13.3914)"><path
             d="M 0,0 C -0.321,-0.324 -0.321,-0.851 0.008,-1.181 L 1.957,-3.022 0.034,-4.944 c -0.156,-0.158 -0.243,-0.365 -0.243,-0.587 0,-0.223 0.086,-0.432 0.245,-0.592 0.158,-0.154 0.365,-0.239 0.584,-0.239 0.22,0 0.428,0.085 0.588,0.242 l 2.456,2.458 c 0.157,0.156 0.243,0.363 0.243,0.585 0,0.218 -0.088,0.431 -0.241,0.587 L 1.174,0.002 C 0.858,0.313 0.315,0.313 0,0"
             style="fill:#0098da;fill-opacity:1;fill-rule:nonzero;stroke:none"
             id="path4423"
             inkscape:connector-curvature="0" /></g><g
           id="g4425"
           transform="translate(36.4805,14.8387)"><path
             d="m 0,0 -0.289,0.064 c -0.347,0.033 -0.65,-0.183 -0.784,-0.494 l -3.195,-7.512 c -0.086,-0.201 -0.087,-0.423 -0.003,-0.626 0.083,-0.203 0.238,-0.362 0.488,-0.461 l 0.235,-0.05 c 0.011,-10e-4 0.021,-10e-4 0.032,-10e-4 0.324,0 0.623,0.196 0.753,0.497 l 3.192,7.51 c 0.087,0.2 0.09,0.423 0.008,0.627 C 0.356,-0.244 0.2,-0.085 0,0"
             style="fill:#0098da;fill-opacity:1;fill-rule:nonzero;stroke:none"
             id="path4427"
             inkscape:connector-curvature="0" /></g><g
           id="g4429"
           transform="translate(7.3467,31.3445)"><path
             d="m 0,0 h -1.114 v 1.563 h 1.055 c 0.905,0 1.114,-0.405 1.114,-0.8 C 1.055,0.273 0.687,0 0,0 m 2.447,0.763 c 0,0.988 -0.596,1.996 -2.466,1.996 H -1.75 c -0.408,0 -0.756,-0.311 -0.756,-0.678 v -5.423 c 0,-0.34 0.318,-0.621 0.687,-0.621 0.378,0 0.705,0.292 0.705,0.621 v 2.156 h 0.677 l 1.671,-2.477 c 0.13,-0.188 0.338,-0.291 0.587,-0.291 0.448,0 0.935,0.499 0.606,0.969 l -1.362,1.94 c 0.855,0.264 1.382,0.876 1.382,1.808"
             style="fill:#0098da;fill-opacity:1;fill-rule:nonzero;stroke:none"
             id="path4431"
             inkscape:connector-curvature="0" /></g><g
           id="g4433"
           transform="translate(13.7916,27.739)"><path
             d="m 0,0 c 0.178,-0.235 0.308,-0.339 0.626,-0.339 0.418,0 0.696,0.273 0.696,0.593 0,0.094 -0.019,0.197 -0.099,0.291 l -1.284,1.601 1.195,1.517 c 0.079,0.093 0.099,0.216 0.099,0.3 0,0.32 -0.358,0.565 -0.677,0.565 -0.318,0 -0.467,-0.132 -0.617,-0.329 L -0.856,3.153 -1.612,4.124 c -0.138,0.178 -0.298,0.404 -0.686,0.404 -0.388,0 -0.687,-0.273 -0.687,-0.584 0,-0.084 0.04,-0.216 0.119,-0.3 C -2.467,3.125 -2.069,2.645 -1.671,2.146 -2.12,1.572 -2.517,1.101 -2.965,0.526 -3.034,0.442 -3.064,0.339 -3.064,0.245 c 0,-0.349 0.308,-0.584 0.696,-0.584 0.238,0 0.418,0.093 0.567,0.282 0.299,0.396 0.617,0.8 0.926,1.196 C -0.518,0.659 -0.348,0.47 0,0"
             style="fill:#0098da;fill-opacity:1;fill-rule:nonzero;stroke:none"
             id="path4435"
             inkscape:connector-curvature="0" /></g><g
           id="g4437"
           transform="translate(19.8477,33.576)"><path
             d="m 0,0 v -3.559 c -0.915,1.516 -1.422,2.373 -2.308,3.823 -0.139,0.206 -0.408,0.348 -0.676,0.348 -0.417,0 -0.726,-0.273 -0.726,-0.64 v -5.555 c 0,-0.33 0.298,-0.612 0.687,-0.612 0.377,0 0.705,0.282 0.705,0.612 v 3.521 l 2.308,-3.804 c 0.13,-0.197 0.408,-0.329 0.667,-0.329 0.437,0 0.736,0.292 0.736,0.64 L 1.393,0 C 1.393,0.329 1.094,0.612 0.706,0.612 0.328,0.612 0,0.329 0,0"
             style="fill:#0098da;fill-opacity:1;fill-rule:nonzero;stroke:none"
             id="path4439"
             inkscape:connector-curvature="0" /></g><g
           id="g4441"
           transform="translate(25.5167,30.5633)"><path
             d="m 0,0 v -1.413 c 0,-0.395 -0.269,-0.639 -0.785,-0.639 -0.518,0 -0.786,0.244 -0.786,0.639 V 0 c 0,0.386 0.268,0.631 0.786,0.631 C -0.269,0.631 0,0.386 0,0 m -2.945,-0.01 v -1.403 c 0,-0.988 0.747,-1.75 2.16,-1.75 1.411,0 2.158,0.762 2.158,1.75 v 1.403 c 0,0.989 -0.747,1.752 -2.158,1.752 -1.413,0 -2.16,-0.763 -2.16,-1.752"
             style="fill:#0098da;fill-opacity:1;fill-rule:nonzero;stroke:none"
             id="path4443"
             inkscape:connector-curvature="0" /></g><g
           id="g4445"
           transform="translate(30.5587,31.0999)"><path
             d="m 0,0 c 0.378,-0.019 0.695,0.226 0.695,0.593 0,0.32 -0.188,0.565 -0.814,0.565 -0.319,0 -0.777,-0.151 -1.235,-0.405 -0.139,0.169 -0.318,0.291 -0.527,0.291 -0.358,0 -0.676,-0.225 -0.676,-0.564 0,-0.141 0.059,-0.216 0.14,-0.311 0.079,-0.113 0.108,-0.225 0.108,-0.442 v -2.843 c 0,-0.33 0.298,-0.584 0.687,-0.584 0.388,0 0.686,0.254 0.686,0.584 v 2.843 c 0,0.056 -0.009,0.112 -0.02,0.179 C -0.607,0.038 -0.429,0.019 0,0"
             style="fill:#0098da;fill-opacity:1;fill-rule:nonzero;stroke:none"
             id="path4447"
             inkscape:connector-curvature="0" /></g><g
           id="g4449"
           transform="translate(38.5948,27.4095)"><path
             d="m 0,0 c 0.457,0 0.686,0.253 0.686,0.574 v 2.627 c 0,1.007 -0.726,1.685 -1.9,1.685 -0.537,0 -0.965,-0.141 -1.502,-0.415 -0.357,0.274 -0.735,0.415 -1.154,0.415 -0.428,0 -0.895,-0.151 -1.342,-0.415 -0.13,0.161 -0.299,0.264 -0.527,0.264 -0.339,0 -0.647,-0.216 -0.647,-0.555 0,-0.104 0.029,-0.179 0.168,-0.358 0.04,-0.056 0.08,-0.085 0.08,-0.395 V 0.574 C -6.138,0.253 -5.909,0 -5.452,0 c 0.459,0 0.687,0.253 0.687,0.574 v 2.853 c 0,0.028 0,0.075 -0.01,0.103 0.298,0.141 0.596,0.245 0.845,0.245 0.438,0 0.518,-0.329 0.518,-0.762 V 0.574 C -3.412,0.253 -3.183,0 -2.726,0 c 0.457,0 0.687,0.253 0.687,0.574 v 2.627 c 0,0.084 -0.01,0.159 -0.02,0.245 0.269,0.206 0.538,0.329 0.795,0.329 0.368,0 0.577,-0.263 0.577,-0.593 V 0.574 C -0.687,0.253 -0.458,0 0,0"
             style="fill:#0098da;fill-opacity:1;fill-rule:nonzero;stroke:none"
             id="path4451"
             inkscape:connector-curvature="0" /></g><g
           id="g4453"
           transform="translate(17.3409,11.0056)"><path
             d="M 0,0 C 0.528,0 0.957,0.428 0.957,0.956 0.957,1.484 0.528,1.913 0,1.913 H -2.961 C -3.489,1.913 -3.918,1.484 -3.918,0.956 -3.918,0.428 -3.489,0 -2.961,0 Z"
             style="fill:#0098da;fill-opacity:1;fill-rule:nonzero;stroke:none"
             id="path4455"
             inkscape:connector-curvature="0" /></g><g
           id="g4457"
           transform="translate(19.7003,17.3074)"><path
             d="m 0,0 h -3.447 c -0.52,0 -0.942,-0.422 -0.942,-0.941 v -0.031 c 0,-0.519 0.422,-0.941 0.942,-0.941 H 0 c 0.52,0 0.941,0.422 0.941,0.941 v 0.031 C 0.941,-0.422 0.52,0 0,0"
             style="fill:#0098da;fill-opacity:1;fill-rule:nonzero;stroke:none"
             id="path4459"
             inkscape:connector-curvature="0" /></g><g
           id="g4461"
           transform="translate(24.4922,20.6306)"><path
             d="m 0,0 c 0,0.528 -0.429,0.956 -0.957,0.956 h -9.167 c -0.528,0 -0.957,-0.428 -0.957,-0.956 0,-0.528 0.429,-0.957 0.957,-0.957 h 9.167 C -0.429,-0.957 0,-0.528 0,0"
             style="fill:#0098da;fill-opacity:1;fill-rule:nonzero;stroke:none"
             id="path4463"
             inkscape:connector-curvature="0" /></g><g
           id="g4465"
           transform="translate(8.105,12.657)"><path
             d="m 0,0 h 1.141 c 0.392,0 0.711,0.318 0.711,0.711 v 1.921 h 2.035 c 0.393,0 0.711,0.318 0.711,0.711 v 1.14 c 0,0.393 -0.318,0.712 -0.711,0.712 H 1.852 v 1.92 c 0,0.394 -0.319,0.712 -0.711,0.712 L 0,7.827 c -0.393,0 -0.711,-0.318 -0.711,-0.712 v -1.92 h -1.807 c -0.392,0 -0.711,-0.319 -0.711,-0.712 v -1.14 c 0,-0.393 0.319,-0.711 0.711,-0.711 h 1.807 V 0.711 C -0.711,0.318 -0.393,0 0,0"
             style="fill:#0098da;fill-opacity:1;fill-rule:nonzero;stroke:none"
             id="path4467"
             inkscape:connector-curvature="0" /></g></g></g></g></svg>