<?xml version="1.0" encoding="UTF-8" standalone="no"?>
<!-- Created with Inkscape (http://www.inkscape.org/) -->

<svg
   xmlns:dc="http://purl.org/dc/elements/1.1/"
   xmlns:cc="http://creativecommons.org/ns#"
   xmlns:rdf="http://www.w3.org/1999/02/22-rdf-syntax-ns#"
   xmlns:svg="http://www.w3.org/2000/svg"
   xmlns="http://www.w3.org/2000/svg"
   xmlns:sodipodi="http://sodipodi.sourceforge.net/DTD/sodipodi-0.dtd"
   xmlns:inkscape="http://www.inkscape.org/namespaces/inkscape"
   version="1.1"
   id="svg4285"
   xml:space="preserve"
   width="60"
   height="65.223198"
   viewBox="0 0 60 65.223198"
   sodipodi:docname="Resolve Clinical Entities to LOINC.svg"
   inkscape:version="0.92.3 (2405546, 2018-03-11)"><metadata
     id="metadata4291"><rdf:RDF><cc:Work
         rdf:about=""><dc:format>image/svg+xml</dc:format><dc:type
           rdf:resource="http://purl.org/dc/dcmitype/StillImage" /><dc:title></dc:title></cc:Work></rdf:RDF></metadata><defs
     id="defs4289"><clipPath
       clipPathUnits="userSpaceOnUse"
       id="clipPath4301"><path
         d="M 0,48.917 H 45 V 0 H 0 Z"
         id="path4299"
         inkscape:connector-curvature="0" /></clipPath></defs><sodipodi:namedview
     pagecolor="#ffffff"
     bordercolor="#666666"
     borderopacity="1"
     objecttolerance="10"
     gridtolerance="10"
     guidetolerance="10"
     inkscape:pageopacity="0"
     inkscape:pageshadow="2"
     inkscape:window-width="697"
     inkscape:window-height="480"
     id="namedview4287"
     showgrid="false"
     inkscape:zoom="3.6183445"
     inkscape:cx="30"
     inkscape:cy="32.611599"
     inkscape:window-x="0"
     inkscape:window-y="0"
     inkscape:window-maximized="0"
     inkscape:current-layer="g4293" /><g
     id="g4293"
     inkscape:groupmode="layer"
     inkscape:label="Resolve Clinical Entities to LOINC"
     transform="matrix(1.3333333,0,0,-1.3333333,0,65.2232)"><g
       id="g4295"><g
         id="g4297"
         clip-path="url(#clipPath4301)"><g
           id="g4303"
           transform="translate(19.5152,7.4591)"><path
             d="m 0,0 v 0.015 h -0.072 c -0.008,0 -0.014,0.005 -0.022,0.005 H -3.07 V 0.015 h -12.77 c -1.11,0 -2.012,0.902 -2.012,2.011 v 29.217 h 29.39 c 0.459,0 0.832,0.373 0.832,0.832 0,0.459 -0.373,0.831 -0.832,0.831 h -29.39 v 3.931 c 0,1.631 1.327,2.958 2.957,2.958 h 35.116 c 1.631,0 2.957,-1.327 2.957,-2.958 V 32.906 H 18.19 c -0.459,0 -0.831,-0.372 -0.831,-0.831 0,-0.459 0.372,-0.832 0.831,-0.832 h 4.988 V 18.081 h -0.004 v -2.977 c 0,-0.454 0.368,-0.823 0.824,-0.823 h 0.02 c 0.455,0 0.824,0.369 0.824,0.823 v 0.009 2.968 18.757 c 0,2.547 -2.073,4.62 -4.621,4.62 h -35.116 c -2.547,0 -4.62,-2.073 -4.62,-4.621 V 2.026 c 0,-2.026 1.648,-3.674 3.674,-3.674 H -3.07 -0.094 0 v 0.019 c 0.408,0.049 0.729,0.383 0.729,0.804 v 0.021 C 0.729,-0.383 0.408,-0.049 0,0"
             style="fill:#ffffff;fill-opacity:1;fill-rule:nonzero;stroke:none"
             id="path4305"
             inkscape:connector-curvature="0" /></g><g
           id="g4307"
           transform="translate(35.1319,39.4532)"><path
             d="m 0,0 c 0,0.46 -0.372,0.832 -0.832,0.832 h -0.002 c -0.459,0 -0.83,-0.372 -0.83,-0.832 0,-0.459 0.373,-0.832 0.832,-0.832 C -0.372,-0.832 0,-0.459 0,0"
             style="fill:#ffffff;fill-opacity:1;fill-rule:nonzero;stroke:none"
             id="path4309"
             inkscape:connector-curvature="0" /></g><g
           id="g4311"
           transform="translate(6.7315,43.523)"><path
             d="m 0,0 c 0,-0.34 -0.276,-0.616 -0.616,-0.616 -0.34,0 -0.616,0.276 -0.616,0.616 0,0.34 0.276,0.616 0.616,0.616 C -0.276,0.616 0,0.34 0,0 m -2.394,0 c 0,-0.98 0.797,-1.778 1.778,-1.778 0.98,0 1.778,0.798 1.778,1.778 0,0.98 -0.798,1.778 -1.778,1.778 C -1.597,1.778 -2.394,0.98 -2.394,0"
             style="fill:#ffffff;fill-opacity:1;fill-rule:nonzero;stroke:none"
             id="path4313"
             inkscape:connector-curvature="0" /></g><g
           id="g4315"
           transform="translate(11.0469,43.523)"><path
             d="m 0,0 c 0,-0.34 -0.276,-0.616 -0.616,-0.616 -0.34,0 -0.616,0.276 -0.616,0.616 0,0.34 0.276,0.616 0.616,0.616 C -0.276,0.616 0,0.34 0,0 m -2.394,0 c 0,-0.98 0.798,-1.778 1.778,-1.778 0.981,0 1.778,0.798 1.778,1.778 0,0.98 -0.797,1.778 -1.778,1.778 -0.98,0 -1.778,-0.798 -1.778,-1.778"
             style="fill:#ffffff;fill-opacity:1;fill-rule:nonzero;stroke:none"
             id="path4317"
             inkscape:connector-curvature="0" /></g><g
           id="g4319"
           transform="translate(15.2828,43.483)"><path
             d="m 0,0 c 0,-0.34 -0.276,-0.616 -0.616,-0.616 -0.34,0 -0.616,0.276 -0.616,0.616 0,0.339 0.276,0.616 0.616,0.616 C -0.276,0.616 0,0.339 0,0 m -2.395,0 c 0,-0.98 0.798,-1.778 1.779,-1.778 0.98,0 1.778,0.798 1.778,1.778 0,0.98 -0.798,1.778 -1.778,1.778 C -1.597,1.778 -2.395,0.98 -2.395,0"
             style="fill:#ffffff;fill-opacity:1;fill-rule:nonzero;stroke:none"
             id="path4321"
             inkscape:connector-curvature="0" /></g><g
           id="g4323"
           transform="translate(41.9249,6.005)"><path
             d="m 0,0 c -2.586,-4.205 -8.109,-5.521 -12.314,-2.937 -4.205,2.586 -5.521,8.11 -2.936,12.314 1.253,2.037 3.224,3.465 5.549,4.019 0.695,0.166 1.395,0.248 2.093,0.248 1.634,0 3.243,-0.453 4.671,-1.331 C -0.899,11.061 0.528,9.09 1.082,6.764 1.637,4.438 1.252,2.036 0,0 m 2.779,7.169 c -0.662,2.778 -2.367,5.135 -4.801,6.63 -2.434,1.498 -5.303,1.959 -8.083,1.294 -2.78,-0.662 -5.135,-2.367 -6.63,-4.802 -3.091,-5.023 -1.517,-11.624 3.506,-14.713 1.744,-1.073 3.676,-1.583 5.586,-1.583 3.596,0 7.112,1.81 9.128,5.09 1.497,2.435 1.957,5.304 1.294,8.084"
             style="fill:#ffffff;fill-opacity:1;fill-rule:nonzero;stroke:none"
             id="path4325"
             inkscape:connector-curvature="0" /></g><g
           id="g4327"
           transform="translate(31.6915,12.8009)"><path
             d="m 0,0 c 0,0.223 -0.086,0.432 -0.244,0.591 -0.312,0.31 -0.853,0.313 -1.173,-0.002 l -2.488,-2.49 c -0.155,-0.155 -0.243,-0.369 -0.243,-0.587 0,-0.219 0.088,-0.434 0.242,-0.585 l 2.458,-2.459 c 0.157,-0.155 0.365,-0.241 0.586,-0.241 0.219,0 0.427,0.086 0.588,0.244 0.155,0.157 0.241,0.365 0.241,0.585 0,0.222 -0.087,0.431 -0.249,0.592 l -1.917,1.81 1.956,1.956 C -0.087,-0.43 0,-0.223 0,0"
             style="fill:#ffffff;fill-opacity:1;fill-rule:nonzero;stroke:none"
             id="path4329"
             inkscape:connector-curvature="0" /></g><g
           id="g4331"
           transform="translate(38.9005,13.3927)"><path
             d="m 0,0 c -0.316,0.31 -0.856,0.311 -1.172,-0.003 -0.323,-0.325 -0.323,-0.851 0.007,-1.182 l 1.948,-1.84 -1.923,-1.923 c -0.323,-0.325 -0.323,-0.852 0.002,-1.176 0.158,-0.155 0.365,-0.241 0.585,-0.241 0.221,0 0.43,0.086 0.589,0.243 l 2.454,2.455 c 0.156,0.153 0.244,0.368 0.244,0.587 0,0.217 -0.088,0.431 -0.241,0.586 z"
             style="fill:#ffffff;fill-opacity:1;fill-rule:nonzero;stroke:none"
             id="path4333"
             inkscape:connector-curvature="0" /></g><g
           id="g4335"
           transform="translate(36.4756,14.836)"><path
             d="M 0,0 -0.289,0.065 C -0.625,0.101 -0.942,-0.12 -1.074,-0.431 l -3.194,-7.51 c -0.084,-0.201 -0.086,-0.422 -0.004,-0.624 0.081,-0.204 0.236,-0.362 0.489,-0.463 l 0.235,-0.049 c 0.011,-10e-4 0.022,-10e-4 0.032,-10e-4 0.324,0 0.623,0.196 0.753,0.497 l 3.192,7.508 c 0.086,0.2 0.089,0.421 0.008,0.623 C 0.355,-0.246 0.2,-0.086 0,0"
             style="fill:#ffffff;fill-opacity:1;fill-rule:nonzero;stroke:none"
             id="path4337"
             inkscape:connector-curvature="0" /></g><g
           id="g4339"
           transform="translate(14.2896,12.5821)"><path
             d="m 0,0 c 0,-0.528 0.428,-0.956 0.957,-0.956 h 2.96 c 0.529,0 0.957,0.428 0.957,0.956 0,0.528 -0.428,0.957 -0.957,0.957 H 0.957 C 0.428,0.957 0,0.528 0,0"
             style="fill:#ffffff;fill-opacity:1;fill-rule:nonzero;stroke:none"
             id="path4341"
             inkscape:connector-curvature="0" /></g><g
           id="g4343"
           transform="translate(20.566,17.6905)"><path
             d="m 0,0 h -3.446 c -0.52,0 -0.942,-0.421 -0.942,-0.941 v -0.03 c 0,-0.52 0.422,-0.942 0.942,-0.942 H 0 c 0.52,0 0.941,0.422 0.941,0.942 v 0.03 C 0.941,-0.421 0.52,0 0,0"
             style="fill:#ffffff;fill-opacity:1;fill-rule:nonzero;stroke:none"
             id="path4345"
             inkscape:connector-curvature="0" /></g><g
           id="g4347"
           transform="translate(25.3565,20.8868)"><path
             d="m 0,0 c 0,0.528 -0.428,0.956 -0.956,0.956 h -9.166 c -0.528,0 -0.956,-0.428 -0.956,-0.956 0,-0.528 0.428,-0.957 0.956,-0.957 h 9.166 C -0.428,-0.957 0,-0.528 0,0"
             style="fill:#ffffff;fill-opacity:1;fill-rule:nonzero;stroke:none"
             id="path4349"
             inkscape:connector-curvature="0" /></g><g
           id="g4351"
           transform="translate(8.148,13.256)"><path
             d="M 0,0 H 1.067 C 1.434,0 1.732,0.298 1.732,0.665 V 2.461 H 3.635 C 4.002,2.461 4.3,2.759 4.3,3.126 V 4.193 C 4.3,4.561 4.002,4.858 3.635,4.858 H 1.732 v 1.796 c 0,0.367 -0.298,0.665 -0.665,0.665 L 0,7.319 c -0.367,0 -0.665,-0.298 -0.665,-0.665 V 4.858 h -1.689 c -0.367,0 -0.665,-0.297 -0.665,-0.665 V 3.126 c 0,-0.367 0.298,-0.665 0.665,-0.665 h 1.689 V 0.665 C -0.665,0.298 -0.367,0 0,0"
             style="fill:#ffffff;fill-opacity:1;fill-rule:nonzero;stroke:none"
             id="path4353"
             inkscape:connector-curvature="0" /></g><g
           id="g4355"
           transform="translate(6.2286,34.4005)"><path
             d="m 0,0 c -0.521,0 -0.934,-0.339 -0.934,-0.723 v -6.561 c 0,-0.44 0.467,-0.779 1,-0.779 H 3.83 c 0.507,0 0.907,0.316 0.907,0.723 0,0.395 -0.427,0.699 -0.907,0.699 H 0.934 v 5.918 C 0.934,-0.339 0.506,0 0,0"
             style="fill:#ffffff;fill-opacity:1;fill-rule:nonzero;stroke:none"
             id="path4357"
             inkscape:connector-curvature="0" /></g><g
           id="g4359"
           transform="translate(13.834,31.442)"><path
             d="M 0,0 C 0,0.915 0.427,1.525 1.601,1.525 2.776,1.525 3.203,0.915 3.203,0 V -2.236 C 3.203,-3.14 2.696,-3.772 1.601,-3.772 0.507,-3.772 0,-3.14 0,-2.236 Z m 1.601,-5.207 c 2.309,0 3.47,1.322 3.47,2.971 V 0 c 0,1.604 -0.974,2.958 -3.47,2.958 -2.495,0 -3.469,-1.354 -3.469,-2.958 v -2.236 c 0,-1.649 1.16,-2.971 3.469,-2.971"
             style="fill:#ffffff;fill-opacity:1;fill-rule:nonzero;stroke:none"
             id="path4361"
             inkscape:connector-curvature="0" /></g><g
           id="g4363"
           transform="translate(22.545,26.9581)"><path
             d="m 0,0 v 6.72 c 0,0.384 -0.427,0.722 -0.933,0.722 -0.521,0 -0.934,-0.338 -0.934,-0.722 V 0 c 0,-0.384 0.413,-0.723 0.934,-0.723 C -0.427,-0.723 0,-0.384 0,0"
             style="fill:#ffffff;fill-opacity:1;fill-rule:nonzero;stroke:none"
             id="path4365"
             inkscape:connector-curvature="0" /></g><g
           id="g4367"
           transform="translate(26.4424,26.9703)"><path
             d="m 0,0 v 4.223 l 3.096,-4.562 c 0.174,-0.238 0.548,-0.396 0.894,-0.396 0.588,0 0.988,0.351 0.988,0.768 V 6.697 C 4.978,7.091 4.578,7.43 4.057,7.43 3.55,7.43 3.109,7.091 3.109,6.697 V 2.428 C 1.881,4.246 1.201,5.273 0.014,7.013 -0.174,7.261 -0.533,7.43 -0.894,7.43 -1.455,7.43 -1.868,7.103 -1.868,6.663 V 0 c 0,-0.396 0.4,-0.735 0.921,-0.735 C -0.44,-0.735 0,-0.396 0,0"
             style="fill:#ffffff;fill-opacity:1;fill-rule:nonzero;stroke:none"
             id="path4369"
             inkscape:connector-curvature="0" /></g><g
           id="g4371"
           transform="translate(36.543,33.0226)"><path
             d="M 0,0 C 0.427,0 0.773,-0.09 1.107,-0.271 L 1.24,-0.338 c 0.174,-0.091 0.268,-0.169 0.574,-0.169 0.508,0 0.881,0.315 0.881,0.676 0,0.656 -1.347,1.209 -2.761,1.209 -2.336,0 -3.404,-1.174 -3.404,-2.959 v -2.235 c 0,-1.785 1.068,-2.959 3.404,-2.959 1.414,0 2.761,0.553 2.761,1.208 0,0.361 -0.373,0.677 -0.881,0.677 -0.306,0 -0.4,-0.079 -0.574,-0.169 L 1.107,-5.127 C 0.773,-5.308 0.427,-5.398 0,-5.398 c -1.201,0 -1.602,0.61 -1.602,1.582 v 2.235 C -1.602,-0.609 -1.201,0 0,0"
             style="fill:#ffffff;fill-opacity:1;fill-rule:nonzero;stroke:none"
             id="path4373"
             inkscape:connector-curvature="0" /></g></g></g></g></svg>