<svg xmlns="http://www.w3.org/2000/svg" xml:space="preserve" width="66.667" height="71.337"><defs><clipPath clipPathUnits="userSpaceOnUse" id="a"><path d="M0 53.503h50V0H0Z"/></clipPath></defs><g clip-path="url(#a)" transform="matrix(1.33333 0 0 -1.33333 0 71.337)"><path d="M0 0h-1.22v1.814h1.154c.992 0 1.22-.471 1.22-.928C1.154.316.751 0 0 0m1.165-1.211C2.102-.905 2.679-.195 2.679.886c0 1.145-.654 2.313-2.701 2.313h-1.895c-.447 0-.828-.358-.828-.786v-6.29c0-.394.349-.721.751-.721.414 0 .774.338.774.721v2.5h.741l1.83-2.872a.741.741 0 0 1 .643-.338c.489 0 1.023.58.664 1.126z" style="fill:#0098da;fill-opacity:1;fill-rule:nonzero;stroke:none" transform="translate(9.209 11.923)"/><path d="m0 0 1.307 1.759c.088.109.11.251.11.35 0 .37-.393.655-.741.655-.349 0-.512-.153-.676-.382l-.872-1.213-.827 1.126c-.153.208-.327.469-.752.469s-.751-.317-.751-.677c0-.099.043-.251.131-.349C-2.636 1.137-2.2.58-1.764 0c-.491-.665-.927-1.211-1.417-1.878a.546.546 0 0 1-.109-.327c0-.404.338-.678.763-.678.261 0 .458.111.62.327.328.459.676.929 1.014 1.388.393-.557.577-.775.959-1.321.195-.273.338-.394.686-.394.457 0 .763.317.763.689 0 .11-.023.229-.11.338z" style="fill:#0098da;fill-opacity:1;fill-rule:nonzero;stroke:none" transform="translate(16.205 10.23)"/><path d="M0 0c-.415 0-.773-.328-.773-.709v-4.13C-1.776-3.08-2.332-2.086-3.301-.405A.899.899 0 0 1-4.042 0c-.457 0-.795-.316-.795-.743v-6.444c0-.382.327-.709.752-.709.413 0 .773.327.773.709v4.085l2.528-4.412c.141-.229.446-.382.73-.382.478 0 .805.337.805.744v6.443C.751-.328.424 0 0 0" style="fill:#0098da;fill-opacity:1;fill-rule:nonzero;stroke:none" transform="translate(23.681 15.222)"/><path d="M0 0c0-.457-.294-.742-.859-.742-.568 0-.862.285-.862.742v1.64c0 .446.294.731.862.731.565 0 .859-.285.859-.731Zm-.859 3.66c-1.548 0-2.365-.886-2.365-2.033V0c0-1.146.817-2.031 2.365-2.031 1.546 0 2.363.885 2.363 2.031v1.627c0 1.147-.817 2.033-2.363 2.033" style="fill:#0098da;fill-opacity:1;fill-rule:nonzero;stroke:none" transform="translate(29.12 9.378)"/><path d="M0 0c-.349 0-.851-.175-1.351-.47-.153.196-.348.338-.578.338-.391 0-.74-.262-.74-.655 0-.163.065-.252.152-.36.087-.132.121-.262.121-.515v-3.297c0-.383.326-.678.75-.678.426 0 .752.295.752.678v3.297c0 .066-.01.132-.021.209.381.152.577.131 1.046.109.413-.022.762.262.762.688C.893-.285.686 0 0 0" style="fill:#0098da;fill-opacity:1;fill-rule:nonzero;stroke:none" transform="translate(34.516 12.984)"/><path d="M0 0c-.588 0-1.057-.163-1.645-.479-.392.316-.806.479-1.263.479-.469 0-.982-.174-1.471-.479-.142.186-.327.305-.577.305-.371 0-.708-.251-.708-.644 0-.12.032-.208.185-.414.043-.066.086-.1.086-.459v-3.31c0-.372.251-.667.752-.667s.751.295.751.667v3.31c0 .032 0 .087-.01.119.328.164.654.285.925.285.48 0 .567-.383.567-.886v-2.828c0-.372.251-.667.753-.667.501 0 .751.295.751.667v3.047c0 .098-.012.186-.022.284.294.24.588.383.871.383.404 0 .632-.307.632-.689v-3.025c0-.372.25-.667.752-.667.501 0 .751.295.751.667v3.047C2.08-.786 1.285 0 0 0" style="fill:#0098da;fill-opacity:1;fill-rule:nonzero;stroke:none" transform="translate(42.122 13.026)"/><path d="M0 0a2.63 2.63 0 0 0-2.628-2.626h-39.928A2.63 2.63 0 0 0-45.184 0v8.179a2.63 2.63 0 0 0 2.628 2.628h39.928A2.63 2.63 0 0 0 0 8.179Zm-2.628 12.216h-39.928a4.04 4.04 0 0 1-4.035-4.037V0a4.04 4.04 0 0 1 4.035-4.035h39.928A4.04 4.04 0 0 1 1.409 0v8.179a4.04 4.04 0 0 1-4.037 4.037" style="fill:#0098da;fill-opacity:1;fill-rule:nonzero;stroke:none" transform="translate(47.656 7.392)"/><path d="M0 0c0 .498.405.904.904.904h16.782A.905.905 0 0 0 18.59 0v-2.583H0Zm16.912-6.055H1.678v1.924h15.234ZM-.774-4.131H.13v-5.987a.775.775 0 1 1 1.548 0V-7.603h15.234V-20.139a2.587 2.587 0 0 0-2.582-2.583h-.475a.772.772 0 1 1 0-1.547h.475a4.135 4.135 0 0 1 4.13 4.13v16.008h.904c.428 0 .774.347.774.775V0c0 1.352-1.1 2.452-2.452 2.452H.904A2.455 2.455 0 0 1-1.548 0v-3.356c0-.428.346-.775.774-.775" style="fill:#0098da;fill-opacity:1;fill-rule:nonzero;stroke:none" transform="translate(4.847 47.684)"/><path d="M0 0a1.983 1.983 0 0 0 0-3.964 1.984 1.984 0 0 0-1.982 1.982C-1.982-.889-1.093 0 0 0m6.377 4.134a1.294 1.294 0 0 0 0-2.586 1.294 1.294 0 0 0 0 2.586m-6.244.955a.705.705 0 0 0 0 1.408.704.704 0 0 0 0-1.408M0-5.512a3.534 3.534 0 0 1 3.53 3.53c0 .384-.077.748-.192 1.095L4.857.449C5.298.169 5.817 0 6.377 0a2.845 2.845 0 0 1 2.842 2.841 2.844 2.844 0 0 1-2.842 2.841 2.824 2.824 0 0 1-2.176-1.037l-1.853.787c.02.118.037.237.037.361A2.254 2.254 0 0 1 .133 8.045a2.254 2.254 0 0 1-2.252-2.252A2.254 2.254 0 0 1 .133 3.541c.552 0 1.051.207 1.443.537l2-.849c-.018-.128-.039-.255-.039-.388 0-.444.111-.859.294-1.233L2.533.466A3.51 3.51 0 0 1 0 1.548a3.534 3.534 0 0 1-3.53-3.53A3.534 3.534 0 0 1 0-5.512" style="fill:#0098da;fill-opacity:1;fill-rule:nonzero;stroke:none" transform="translate(6.588 26.874)"/><path d="M0 0a1.87 1.87 0 0 0 1.868-1.867A1.87 1.87 0 0 0 0-3.734a1.87 1.87 0 0 0-1.867 1.867A1.87 1.87 0 0 0 0 0m-14.818-2.23h11.44C-3.194-3.94-1.759-5.282 0-5.282a3.42 3.42 0 0 1 3.416 3.415A3.42 3.42 0 0 1 0 1.548a3.41 3.41 0 0 1-3.19-2.23h-11.628a.773.773 0 1 1 0-1.548" style="fill:#0098da;fill-opacity:1;fill-rule:nonzero;stroke:none" transform="translate(42.743 47.24)"/><path d="M0 0a1.87 1.87 0 0 0 1.868-1.868A1.87 1.87 0 0 0 0-3.734a1.869 1.869 0 0 0-1.867 1.866A1.87 1.87 0 0 0 0 0m-14.818-2.656h11.505A3.413 3.413 0 0 1 0-5.283a3.42 3.42 0 0 1 3.416 3.415A3.42 3.42 0 0 1 0 1.548a3.415 3.415 0 0 1-3.323-2.656h-11.495a.774.774 0 1 1 0-1.548" style="fill:#0098da;fill-opacity:1;fill-rule:nonzero;stroke:none" transform="translate(42.743 37.65)"/><path d="M0 0a1.87 1.87 0 0 0 1.868-1.867A1.87 1.87 0 0 0 0-3.735a1.87 1.87 0 0 0-1.867 1.868A1.87 1.87 0 0 0 0 0m-14.818-2.171h11.434C-3.228-3.911-1.779-5.282 0-5.282a3.42 3.42 0 0 1 3.416 3.415A3.42 3.42 0 0 1 0 1.548 3.413 3.413 0 0 1-3.172-.623h-11.646a.773.773 0 1 1 0-1.548" style="fill:#0098da;fill-opacity:1;fill-rule:nonzero;stroke:none" transform="translate(42.743 28.058)"/></g></svg>