<svg xmlns="http://www.w3.org/2000/svg" xml:space="preserve" width="69.33" height="76.61"><defs><clipPath clipPathUnits="userSpaceOnUse" id="a"><path d="M0 57.45h52V0H0Z"/></clipPath></defs><g clip-path="url(#a)" transform="matrix(1.33333 0 0 -1.33333 0 76.6)"><path d="M10.68 27.56c.5 0 .83.35.83.76V35c0 .4-.34.74-.78.74-.43 0-.8-.34-.8-.74v-4.27l-2.62 4.6a.94.94 0 0 1-.77.41c-.48 0-.83-.33-.83-.77V28.3c0-.4.34-.73.78-.73.43 0 .8.33.8.73v4.23l2.63-4.57c.15-.24.46-.4.76-.4M17.53 30.72c0-.9-.42-1.63-1.66-1.63h-.77v5.11h.77c1.22 0 1.66-.68 1.66-1.53Zm1.58 0v1.95c0 1.57-.88 2.97-3.44 2.97H14.4c-.48 0-.89-.37-.89-.82v-6.35c0-.44.41-.81.89-.81h1.27c2.57 0 3.44 1.47 3.44 3.06M23.42 34.35c.36 0 .66-.09.94-.27l.11-.07c.15-.09.23-.17.49-.17.43 0 .74.32.74.68 0 .66-1.14 1.21-2.34 1.21-1.97 0-2.88-1.18-2.88-2.96v-2.24c0-1.79.9-2.96 2.88-2.96 1.2 0 2.34.55 2.34 1.2 0 .37-.31.68-.74.68-.26 0-.34-.07-.49-.16l-.11-.07a1.66 1.66 0 0 0-.94-.27c-1.02 0-1.36.6-1.36 1.58v2.24c0 .97.34 1.58 1.36 1.58" fill="#0098da"/><path d="M5.62 50.68h38.3a2.52 2.52 0 0 0 2.52-2.52V42.3H3.1v5.87a2.52 2.52 0 0 0 2.51 2.52M26.64 10.7H5.62a2.52 2.52 0 0 0-2.51 2.52v27.36h43.33V25.93a.85.85 0 1 1 1.7 0v22.23a4.22 4.22 0 0 1-4.22 4.22H5.62a4.22 4.22 0 0 1-4.21-4.22V13.23A4.22 4.22 0 0 1 5.62 9h21.02a.85.85 0 1 1 0 1.7" fill="#0098da"/><path d="M8.73 47.3a.75.75 0 1 0 0-1.5.75.75 0 0 0 0 1.5m0-3.2a2.46 2.46 0 1 1-.01 4.9 2.46 2.46 0 0 1 0-4.9M15.48 47.3a.75.75 0 1 0 0-1.5.75.75 0 0 0 0 1.5m0-3.2a2.46 2.46 0 1 1-.01 4.9 2.46 2.46 0 0 1 0-4.9M22.23 47.3a.75.75 0 1 0 0-1.5.75.75 0 0 0 0 1.5m0-3.2a2.46 2.46 0 1 1 0 4.9 2.46 2.46 0 0 1 0-4.9M31.4 33.7h3.91a.85.85 0 1 1 0 1.7H31.4a.85.85 0 1 1 0-1.7M42.18 35.4h-3.92a.85.85 0 1 1 0-1.7h3.92a.85.85 0 1 1 0 1.7M31.4 28.98h10.78a.85.85 0 1 1 0 1.7H31.39a.85.85 0 1 1 0-1.7M49.4 6.82H31.49v14.14h17.93zm.86 15.84H30.63a.85.85 0 0 1-.85-.85V5.97c0-.47.38-.85.85-.85h19.63c.47 0 .85.38.85.84v15.85c0 .47-.38.85-.85.85" fill="#0098da"/><path d="M38.34 12.57a1.7 1.7 0 1 0 0-3.41 1.7 1.7 0 0 0 0 3.4m5.68 3.69c.6 0 1.09-.5 1.09-1.1a1.1 1.1 0 1 0-1.1 1.1m-5.55.97a.57.57 0 0 0 0 1.13.57.57 0 0 0 0-1.13m-.12-9.56a3.2 3.2 0 0 1 3.04 4.16l1.3 1.13a2.6 2.6 0 1 1 1.34 4.8c-.79 0-1.48-.36-1.96-.91l-1.56.66.03.28a2.07 2.07 0 1 1-2.07-2.06c.5 0 .94.18 1.3.47l1.7-.73-.03-.3c0-.4.1-.76.24-1.09l-1.07-.94a3.2 3.2 0 1 1-2.26-5.47M12.02 21.18a.9.9 0 0 1-.26.64.93.93 0 0 1-1.28 0L7.57 18.9a.92.92 0 0 1-.27-.64c0-.24.1-.47.27-.64l2.87-2.87a.9.9 0 1 1 1.27 1.29L9.42 18.2l2.34 2.33c.17.17.26.4.26.65M19.23 14.75a.91.91 0 0 1 1.28 0l2.87 2.87c.18.17.27.4.27.64s-.1.47-.26.64l-2.92 2.92a.93.93 0 0 1-1.28 0 .91.91 0 0 1 .01-1.3l2.33-2.2-2.3-2.29a.91.91 0 0 1 0-1.28M17.66 23.5l-.32.07c-.4.04-.7-.2-.85-.54l-3.74-8.79a.9.9 0 0 1 0-.68.9.9 0 0 1 .52-.5l.27-.06h.03a.9.9 0 0 1 .82.54l3.74 8.78a.89.89 0 0 1-.47 1.18" fill="#0098da"/></g></svg>