<svg xmlns="http://www.w3.org/2000/svg" xml:space="preserve" width="60" height="64"><defs><clipPath clipPathUnits="userSpaceOnUse" id="a"><path d="M0 48h45V0H0Z"/></clipPath></defs><g clip-path="url(#a)" transform="matrix(1.33333 0 0 -1.33333 0 64)"><path d="M29.66 15.47c-1.4 0-2.58.99-2.89 2.3h5.78a2.97 2.97 0 0 0-2.89-2.3m0 5.95c1.28 0 2.36-.81 2.78-1.94h-5.55a2.97 2.97 0 0 0 2.77 1.94m4.68-2.97a4.68 4.68 0 1 1-9.36-.01 4.68 4.68 0 0 1 9.36 0M38.88 13.29l-1.43-1.43-2.18 2.18 1.45 1.45a1.53 1.53 0 0 0 2.62-.67 1.55 1.55 0 0 0-.47-1.53m-4.04-4.04a1.53 1.53 0 0 0-2.13.05c-.58.58-.6 1.52-.05 2.11l1.42 1.43 2.18-2.18zm3.82 8.33a3.23 3.23 0 0 1-3.15-.91l-2.02-2.02h-.01l-.01-.02-2.04-2.04a3.23 3.23 0 0 1 .08-4.5 3.23 3.23 0 0 1 4.5-.08l.02.02 4.04 4.04a3.24 3.24 0 0 1-1.41 5.5" fill="#0098da"/><path d="M17.38 14.13H3.07c-.76 0-1.37.62-1.37 1.38v28.94c0 .76.6 1.38 1.36 1.4H38.3c.76-.02 1.37-.64 1.37-1.4V32.23a.85.85 0 1 1 1.7 0v12.21a3.09 3.09 0 0 1-3.06 3.1H3.04A3.09 3.09 0 0 1 0 44.44V15.52a3.1 3.1 0 0 1 3.06-3.1h13.47V4.86H9.48a.85.85 0 1 1 0-1.7h7.9c.47 0 .85.38.85.85v9.27c0 .47-.38.85-.85.85" fill="#0098da"/><path d="M6.78 27a.85.85 0 0 1 1.2-.18l6.6 4.96a.85.85 0 0 1 0 1.37l-6.6 4.96a.85.85 0 0 1-1.03-1.37l5.7-4.28-5.7-4.27a.85.85 0 0 1-.17-1.2M29.8 32.46c0 .47-.37.86-.84.86h-8.27a.85.85 0 1 1 0-1.7h8.27c.47 0 .85.37.85.84M43.3 6c0-.36-.66-.87-1.68-.87H24.46c-1.03 0-1.68.51-1.68.86v18.73c0 .35.65.86 1.68.86h17.16c1.02 0 1.68-.5 1.68-.86Zm-1.68 21.29H24.46c-1.9 0-3.38-1.13-3.38-2.57V6c0-1.43 1.48-2.56 3.38-2.56h17.16c1.9 0 3.38 1.13 3.38 2.56v18.73c0 1.44-1.48 2.57-3.38 2.57" fill="#0098da"/></g></svg>