<svg xmlns="http://www.w3.org/2000/svg" xml:space="preserve" width="64" height="65.68"><defs><clipPath clipPathUnits="userSpaceOnUse" id="a"><path d="M0 49.26h48V0H0Z"/></clipPath></defs><g clip-path="url(#a)" transform="matrix(1.33333 0 0 -1.33333 0 65.68)"><path d="M13.1 36.89c-.26.15-.57.24-.88.24H1.78v10.35h16.25V43.76l.1-9.76Zm16.83 8.15v2.44h16.25V37.13H35.74c-.32 0-.64-.1-.91-.26l-4.8-2.86-.1 9.77zm-1.78-1.4L28.28 32a.63.63 0 0 1 1-.5l6.46 3.85h7.34V23.32a.89.89 0 1 1 1.78 0v12.03h2.47c.35 0 .63.28.63.63v12.65c0 .34-.28.63-.63.63H28.78a.63.63 0 0 1-.63-.63V45.4h-8.34v3.22c0 .34-.28.63-.63.63H.63a.63.63 0 0 1-.63-.63V35.98c0-.35.28-.63.63-.63h2.08V11.98A3.23 3.23 0 0 1 5.9 8.75h10.93v-5.8h-5.27a.89.89 0 1 1 0-1.78h6.16c.5 0 .89.4.89.89v7.58c0 .5-.4.89-.89.89H5.91c-.79 0-1.43.65-1.42 1.44v23.38h7.73l6.7-3.86a.64.64 0 0 1 .67-.06c.21.11.35.33.35.57l-.13 11.63Z" fill="#ffffff"/><path d="M6.84 42.86a.89.89 0 0 1 0 1.78H4a.89.89 0 1 1 0-1.78ZM15.82 44.64h-5.26a.89.89 0 1 1 0-1.78h5.26a.89.89 0 1 1 0 1.78M15.47 41.08H4.31a.89.89 0 0 1 0-1.78h11.16a.89.89 0 0 1 0 1.78M41.13 42.86h2.84a.89.89 0 0 1 0 1.78h-2.84a.89.89 0 0 1 0-1.78M32.14 42.86h5.26a.89.89 0 0 1 0 1.78h-5.26a.89.89 0 1 1 0-1.78M43.66 41.08H32.49a.89.89 0 0 1 0-1.78h11.17a.89.89 0 0 1 0 1.78M18.23 29.44c-.42 0-.8-.35-.8-.74v-2.68h-2.44v2.68c0 .4-.37.74-.8.74-.45 0-.8-.35-.8-.74v-6.83c0-.4.35-.75.8-.75.43 0 .8.35.8.75v2.68h2.44v-2.68c0-.4.38-.75.8-.75.44 0 .8.35.8.75v6.83c0 .4-.37.74-.8.74M23.99 25.45H23v2.42H24c1.08 0 1.32-.62 1.32-1.22 0-.82-.46-1.2-1.32-1.2m2.92 1.2c0 1.4-.77 2.68-2.92 2.68H22.3c-.48 0-.89-.38-.89-.82v-6.63c0-.41.38-.76.8-.76.44 0 .8.36.8.76v2.1H24c1.78 0 2.92.96 2.92 2.66M33.11 26.42v-2.27c0-.92-.43-1.57-1.37-1.57-.94 0-1.38.65-1.38 1.57v2.27c0 .93.37 1.56 1.38 1.56 1 0 1.37-.63 1.37-1.56m-4.35 0v-2.27c0-1.68 1-3.03 2.98-3.03s2.98 1.35 2.98 3.03v2.27c0 1.64-.84 3.02-2.98 3.02-2.15 0-2.98-1.38-2.98-3.02M46.22 1.78H26.78v15.36h19.44zm.9 17.13H25.88a.89.89 0 0 1-.89-.89V.9c0-.5.4-.89.9-.89H47.1c.5 0 .89.4.89.89v17.13c0 .5-.4.9-.89.9" fill="#ffffff"/><path d="M33.77 7.96a1.9 1.9 0 1 0 0-3.81 1.9 1.9 0 0 0 0 3.8m6.13 3.98a1.24 1.24 0 1 0 0-2.48 1.24 1.24 0 0 0 0 2.48m-6 .93a.67.67 0 1 0 0 1.35.67.67 0 0 0 0-1.35m-.13-10.2a3.4 3.4 0 0 1 3.4 3.4c0 .36-.08.71-.19 1.05l1.46 1.28a2.74 2.74 0 1 1 1.46 5.05c-.84 0-1.6-.4-2.1-1l-1.77.75c.02.11.04.23.04.34a2.18 2.18 0 1 1-2.18-2.17c.53 0 1.02.2 1.4.52l1.91-.82c-.02-.12-.04-.24-.04-.37 0-.42.11-.82.29-1.18L36.2 8.4a3.39 3.39 0 0 1-5.84-2.36 3.4 3.4 0 0 1 3.4-3.4" fill="#ffffff"/></g></svg>