<svg xmlns="http://www.w3.org/2000/svg" width="39.99" height="39.99"><defs><clipPath clipPathUnits="userSpaceOnUse" id="a"><path d="M0 30h30V0H0z"/></clipPath></defs><g clip-path="url(#a)" transform="matrix(1.33333 0 0 -1.33333 0 39.99)"><path d="M6.08 20.11c-.28 0-.5-.18-.5-.38v-3.49c0-.23.25-.41.53-.41H8.1c.27 0 .48.17.48.38s-.22.38-.48.38H6.57v3.14c0 .2-.22.38-.5.38M10.25 17.35v1.19c0 .49.23.8.85.8.61 0 .84-.31.84-.8v-1.19c0-.48-.27-.81-.84-.81-.58 0-.85.33-.85.81m2.67 0v1.19c0 .85-.51 1.57-1.82 1.57-1.32 0-1.83-.72-1.83-1.57v-1.19c0-.87.61-1.57 1.83-1.57 1.21 0 1.82.7 1.82 1.57M15.01 16.16v3.57c0 .2-.22.38-.49.38s-.5-.18-.5-.38v-3.57c0-.2.23-.39.5-.39s.5.18.5.39M17.24 18.4L18.86 16c.1-.13.3-.21.48-.21.3 0 .51.18.51.4v3.54c0 .21-.2.39-.48.39-.27 0-.5-.18-.5-.39v-2.27c-.64.97-1 1.52-1.63 2.44a.61.61 0 01-.47.22c-.3 0-.52-.17-.52-.4v-3.54c0-.21.21-.4.49-.4.27 0 .5.19.5.4zM22.72 19.38c.23 0 .41-.05.59-.15l.07-.03c.09-.05.14-.1.3-.1.27 0 .46.18.46.37 0 .35-.7.64-1.45.64-1.23 0-1.79-.62-1.79-1.57v-1.19c0-.95.56-1.57 1.79-1.57.74 0 1.45.3 1.45.64 0 .2-.2.36-.46.36-.16 0-.21-.04-.3-.09l-.07-.03c-.18-.1-.36-.15-.59-.15-.63 0-.84.33-.84.84v1.19c0 .52.21.84.84.84M22.45 22.8c0 .26-.22.48-.5.48a.49.49 0 11.5-.49M5.8 25.18a.36.36 0 10-.73 0 .36.36 0 00.72 0m-1.4 0a1.04 1.04 0 112.08 0 1.04 1.04 0 01-2.08 0M8.32 25.18a.36.36 0 10-.72 0 .36.36 0 00.72 0m-1.4 0a1.04 1.04 0 112.09 0 1.04 1.04 0 01-2.1 0M10.8 25.15a.36.36 0 10-.72 0 .36.36 0 00.73 0m-1.4 0a1.04 1.04 0 112.08 0 1.04 1.04 0 01-2.09 0M27 4.41a4.83 4.83 0 00-6.69-1.59 4.82 4.82 0 00-1.59 6.68 4.83 4.83 0 006.68 1.6A4.83 4.83 0 0027 4.4m1.42 3.87A5.72 5.72 0 1117.3 5.61a5.72 5.72 0 0111.12 2.67" fill="#0098da"/><path d="M21.33 8.8a.36.36 0 01-.5 0l-1.76-1.76a.35.35 0 010-.5l1.74-1.73a.35.35 0 01.5 0c.06.07.1.15.1.25s-.04.18-.1.25l-1.52 1.43h-.01l1.55 1.56c.14.14.14.36 0 .5M25.01 8.8a.36.36 0 01-.5 0 .35.35 0 010-.5l1.55-1.47-1.52-1.52a.36.36 0 01.25-.6c.09 0 .18.03.25.1l1.73 1.73a.35.35 0 010 .5zM24.07 9.89l-.13.02a.36.36 0 01-.33-.23l-2.07-5.47a.35.35 0 01.2-.46l.13-.02c.14 0 .28.1.33.23l2.07 5.47a.35.35 0 01-.2.46" fill="#0098da"/><path d="M15.98 5.8H4c-.65 0-1.18.53-1.18 1.18V22.3h17.23a.49.49 0 110 .98H2.82v2.3c0 .96.78 1.74 1.73 1.74h20.6c.95 0 1.73-.78 1.73-1.73v-2.31h-2.92a.49.49 0 110-.98h2.92V12.24h.01a.48.48 0 01.47-.43h.02c.25 0 .44.19.47.43V25.6c0 1.49-1.21 2.7-2.7 2.7H4.55a2.71 2.71 0 01-2.7-2.7V6.98c0-1.2.96-2.16 2.15-2.16H15.98c.27 0 .48.22.48.49s-.21.5-.48.5" fill="#0098da"/><path d="M15.58 12.86c0 .25-.2.45-.45.45h-2.98a.45.45 0 110-.9h2.98c.24 0 .45.2.45.45M16.22 10.93h-2.98a.45.45 0 010-.9h2.98a.45.45 0 010 .9M11.68 8.1c0-.25.2-.45.45-.45h2.97a.45.45 0 010 .9h-2.97a.45.45 0 01-.45-.45M5.44 10.1l-.01.76h1.73l-.01 1.8h.76v-1.8H9.8l.01-.75H7.91l.02-1.8-.77-.01v1.8h-.5zm1.7-2.79h.79c.54 0 .98.44.98.99v.8h.9c.54 0 .98.45.98 1v.77c0 .55-.44.99-.99.99h-.89v.8c0 .55-.44 1-.98 1h-.78a.99.99 0 01-.99-1v-.8h-.73a.99.99 0 01-.99-.99v-.78c0-.54.45-.98.99-.98h.73V8.3c0-.55.45-.99.99-.99" fill="#0098da"/></g></svg>