<svg version="1.1" id="svg410" xmlns="http://www.w3.org/2000/svg" xmlns:xlink="http://www.w3.org/1999/xlink" x="0" y="0" viewBox="0 0 69.3 76.6" xml:space="preserve"><style>.st1{fill:#0098da}</style><g id="g418" transform="matrix(1.33333 0 0 -1.33333 0 76.6)"><g id="g420"><defs><path id="SVGID_1_" d="M-8.7-9.6h69.3V67H-8.7z"/></defs><clipPath id="SVGID_2_"><use xlink:href="#SVGID_1_" overflow="visible"/></clipPath><g id="g422" clip-path="url(#SVGID_2_)"><g id="g460" transform="translate(21.77 45.55)"><path id="path462" class="st1" d="M0 0h22.6c1.3 0 2.3-1 2.3-2.3v-2.6H0c-.5 0-.9-.4-.9-.8 0-.5.4-.9.9-.9H24.9v-15.6c0-.5.4-.9.8-.9.5 0 .9.4.9.9v19.8c0 2.2-1.8 4-4 4L0 1.7c-.5 0-.9-.4-.9-.9S-.5 0 0 0"/></g><g id="g464" transform="translate(27.39 8.29)"><path id="path466" class="st1" d="M0 0h-19.8c-1.3 0-2.3 1-2.3 2.3v26.6c0 .5-.4.9-.9.9a.9.9 0 0 1-.9-.9V2.3c0-2.2 1.8-4 4-4H0c.5 0 .9.4.9.8C.9-.4.5 0 0 0"/></g><g id="g468" transform="translate(13.32 18.7)"><path id="path470" class="st1" d="M0 0c0 .2-.1.5-.3.6-.3.4-.9.4-1.2 0l-2.9-2.9c-.2-.2-.3-.4-.3-.6 0-.2.1-.5.3-.6l2.9-2.9c.2-.2.4-.3.6-.3.2 0 .5.1.6.3.2.2.3.4.3.6 0 .2-.1.5-.3.6L-2.6-3-.3-.7c.2.2.3.5.3.7"/></g><g id="g472" transform="translate(20.22 12.95)"><path id="path474" class="st1" d="M0 0c0-.2.1-.5.3-.6.2-.2.4-.3.6-.3.2 0 .5.1.6.3l2.9 2.9c.2.2.3.4.3.6 0 .2-.1.5-.3.6L1.5 6.4c-.3.3-.9.3-1.3 0-.4-.4-.4-.9 0-1.3l2.3-2.2L.3.6C.1.5 0 .2 0 0"/></g><g id="g476" transform="translate(14.04 11.13)"><path id="path478" class="st1" d="M0 0c.1-.2.3-.4.5-.5l.3-.1c.4 0 .7.2.8.5l3.7 8.7c.1.2.1.5 0 .7 0 .3-.2.5-.4.6l-.3.1c-.4 0-.7-.2-.9-.5L0 .7C-.1.5-.1.2 0 0"/></g><path id="path480" class="st1" d="M49 5.3H31.2v14.1H49V5.3zm.9 15.8H30.3c-.5 0-.9-.4-.9-.8V4.5c0-.5.4-.9.9-.9h19.5c.5 0 .9.4.9.9v15.8c0 .4-.4.8-.8.8"/><g id="g482" transform="translate(38 11.05)"><path id="path484" class="st1" d="M0 0c.9 0 1.7-.8 1.7-1.7 0-.9-.8-1.7-1.7-1.7s-1.7.8-1.7 1.7C-1.7-.8-.9 0 0 0m5.6 3.7c.6 0 1.1-.5 1.1-1.1 0-.6-.5-1.1-1.1-1.1-.5 0-1 .5-1 1.1 0 .6.5 1.1 1 1.1m-5.5.9c-.3 0-.6.3-.6.6s.3.6.6.6.6-.3.6-.6-.3-.6-.6-.6M0-4.9c1.8 0 3.2 1.4 3.2 3.2 0 .3-.1.7-.2 1L4.3.4c.4-.3.9-.4 1.3-.4C7 0 8.2 1.2 8.2 2.6 8.2 4 7 5.2 5.6 5.2c-.8 0-1.5-.4-1.9-.9l-1.6.6v.3c0 1.1-.9 2.1-2.1 2.1s-2.1-.9-2.1-2.1c0-1.1.9-2.1 2.1-2.1.5 0 .9.2 1.3.5L3 2.9v-.3c0-.4.1-.7.2-1.1l-1-.9c-.5.5-1.3.9-2.2.9-1.8 0-3.2-1.4-3.2-3.2 0-1.7 1.4-3.2 3.2-3.2"/></g><g id="g486" transform="translate(3.56 51.3)"><path id="path488" class="st1" d="M0 0h14.8l-.1-13.2-4.3 2.6c-.3.2-.6.2-.9.2H0V0zm15.5-15.6c.1-.1.2-.1.3-.1.1 0 .2 0 .3.1.2.1.3.3.3.5l.1 16.3c0 .3-.3.6-.6.6h-17c-.3 0-.6-.3-.6-.6v-12.6c0-.3.3-.6.6-.6H9.5l6-3.6z"/></g><g id="g490" transform="translate(9.19 45.76)"><path id="path492" class="st1" d="M0 0c0-.8-.4-1.4-1.4-1.4h-.7V3h.7C-.4 3 0 2.4 0 1.7V0zm-1.6 4.2h-1.1c-.4 0-.7-.3-.7-.7v-5.4c0-.4.3-.7.7-.7h1.1C.6-2.6 1.3-1.3 1.3 0v1.7c0 1.3-.7 2.5-2.9 2.5"/></g><g id="g494" transform="translate(16.07 43.78)"><path id="path496" class="st1" d="M0 0c0 .3-.3.6-.7.6h-2.1v1.6H-1c.4 0 .7.3.7.6s-.3.6-.7.6h-1.8v1.5h2c.4 0 .7.3.7.6s-.3.6-.7.6h-2.6c-.4 0-.7-.3-.7-.7V.1c0-.5.4-.7.9-.7h2.5c.4 0 .7.3.7.6"/></g></g></g></g><path class="st1" d="m13.8 37.7-.9-.3c-1.3-.4-2.6-.8-2.6-2.7 0-1.6 1.1-2.6 3-2.6.8 0 2.6.2 2.6 1.1 0 .4-.3.8-.9.8-.2 0-.4-.1-.6-.1-.2-.1-.5-.2-1-.2-.6 0-1.2.2-1.2 1 0 .6.3.8.5.9.3.2.6.3.9.3 1.3.4 2.6.8 2.6 2.6s-1.4 2.8-3.2 2.8c-.9 0-2.7-.3-2.7-1.2 0-.4.4-.8.8-.8.2 0 .4.1.6.2.3.1.7.3 1.3.3.9 0 1.3-.4 1.3-1.1 0-.7-.3-.9-.5-1z"/><path class="st1" d="M13 41.3c-.9 0-2.8-.3-2.8-1.3 0-.5.4-.9.9-.9.2 0 .4.1.7.2h.1c.3.1.7.2 1.2.2.8 0 1.3-.4 1.3-1 0-.5-.3-.7-.5-.8-.2-.1-.5-.2-.9-.3-1.2-.4-2.6-.8-2.6-2.7 0-1.7 1.2-2.7 3-2.7.1 0 2.6 0 2.6 1.2 0 .4-.3.9-.9.9-.2 0-.3 0-.5-.1h-.1c-.2-.1-.5-.2-1-.2s-1.2.2-1.2.9c0 .5.3.7.5.8.4.2.7.3.9.3 1.2.4 2.7.8 2.7 2.7-.2 1.7-1.4 2.8-3.4 2.8zm-1.9-2c-.4 0-.8.4-.8.8 0 .9 1.8 1.2 2.7 1.2 1.9 0 3.1-1.1 3.1-2.7 0-1.8-1.3-2.2-2.6-2.6l-.9-.3c-.3-.1-.6-.3-.6-.9 0-.7.4-1 1.3-1 .5 0 .8.1 1 .2h.1c.2 0 .3.1.5.1.6 0 .8-.4.8-.8 0-.9-1.6-1.1-2.5-1.1-1.8 0-2.9 1-2.9 2.6 0 1.8 1.3 2.2 2.6 2.6.4.1.7.2.9.3.2.1.6.3.6.9 0 .7-.5 1.1-1.4 1.1-.5 0-.9-.1-1.2-.2h-.1c-.2-.1-.4-.2-.6-.2zM22.8 40.8l-3-5.2v4.8c0 .4-.4.8-.9.8s-.9-.4-.9-.8v-7.5c0-.5.4-.9.9-.9.3 0 .7.2.9.5 1.1 2 1.8 3.1 3 5.2v-4.8c0-.4.4-.8.9-.8s.9.4.9.8v7.5c0 .5-.4.9-.9.9-.4 0-.8-.2-.9-.5z"/><path class="st1" d="M23.6 41.3c-.4 0-.7-.2-.9-.5l-2.9-5v4.6c0 .5-.4.9-1 .9a.9.9 0 0 1-.9-.9v-7.5c0-.5.4-.9 1-.9.4 0 .7.2.9.5.7 1.3 1.3 2.2 1.9 3.3.3.5.6 1.1 1 1.8V33c0-.5.4-.9 1-.9.5 0 .9.4.9.9v7.5c0 .4-.4.8-1 .8zm-.8-.5c.2.2.5.4.8.4.5 0 .9-.4.9-.8v-7.5c0-.4-.4-.8-.8-.8-.5 0-.9.4-.9.8v5l-.1-.2c-.4-.7-.8-1.3-1.1-1.9-.6-1.1-1.1-2-1.9-3.3a.9.9 0 0 0-.8-.4c-.5 0-.9.3-.9.8v7.5c0 .4.4.8.8.8.5 0 .9-.4.9-.8v-5l3.1 5.4zM26.6 37.9v-2.5c0-1.8.9-3.3 3.3-3.3s3.3 1.5 3.3 3.3v2.5c0 1.9-1.1 3.4-3.3 3.4s-3.3-1.5-3.3-3.4zm1.8-2.5v2.5c0 1 .5 1.7 1.5 1.7s1.5-.7 1.5-1.7v-2.5c0-1-.4-1.7-1.5-1.7s-1.5.7-1.5 1.7z"/><path class="st1" d="M29.9 41.3c-2 0-3.4-1.3-3.4-3.4v-2.5c0-2.2 1.2-3.4 3.4-3.4 2.1 0 3.4 1.2 3.4 3.4v2.5c0 2.1-1.4 3.4-3.4 3.4zm0-9.2c-2.1 0-3.3 1.2-3.3 3.3v2.5c0 1.6.9 3.3 3.3 3.3s3.3-1.7 3.3-3.3v-2.5c0-2.1-1.2-3.3-3.3-3.3zm0 7.6c-1 0-1.6-.7-1.6-1.8v-2.5c0-1.2.5-1.8 1.6-1.8s1.6.6 1.6 1.8v2.5c0 1.2-.6 1.8-1.6 1.8zm0-6c-1 0-1.5.5-1.5 1.7v2.5c0 1.1.5 1.7 1.5 1.7s1.5-.6 1.5-1.7v-2.5c0-1.1-.5-1.7-1.5-1.7z"/><g><path class="st1" d="M43.3 40.5c0 .4-.4.8-.9.8s-.9-.4-.9-.8v-4.4L40.1 39c-.2.3-.5.5-.8.5-.3 0-.7-.2-.8-.5L37 36.1v4.4c0 .4-.4.8-.9.8s-.9-.4-.9-.8v-7.6c0-.5.4-.8.9-.8.4 0 .7.2.9.5l2.3 4.5 2.3-4.5c.2-.4.5-.5.9-.5.5 0 .9.4.9.8v7.6z"/><path class="st1" d="M42.4 41.3c-.5 0-1-.4-1-.9v-4.2L40.1 39c-.2.3-.5.5-.9.5s-.7-.2-.9-.5L37 36.3v4.2c0 .5-.4.9-1 .9a.9.9 0 0 1-.9-.9v-7.6c0-.5.4-.9 1-.9.4 0 .8.2.9.5l2.2 4.4 2.2-4.4c.2-.3.5-.5.9-.5.5 0 1 .4 1 .9v7.6c.1.4-.4.8-.9.8zm-.8-5.4v4.6c0 .4.4.8.9.8.4 0 .8-.4.8-.8v-7.6c0-.4-.4-.8-.9-.8-.4 0-.7.2-.8.5l-2.3 4.6-2.3-4.6c-.2-.3-.4-.5-.8-.5-.5 0-.9.3-.9.8v7.6c0 .4.4.8.8.8.5 0 .9-.3.9-.8v-4.6l1.5 3c.1.3.4.5.8.5s.6-.2.8-.5l1.5-3z"/></g><g><path class="st1" d="M50.1 41.2h-3.4c-.6 0-1.2-.2-1.2-.9v-7.2c0-.4.4-.9 1-.9H50c.5 0 .9.4.9.8 0 .5-.4.8-.9.8h-2.7v2.1h2.4c.4 0 .9.3.9.8s-.4.8-.9.8h-2.4v2.1h2.8c.5 0 .9.4.9.8s-.4.8-.9.8z"/><path class="st1" d="M50.1 41.2h-3.4c-.8 0-1.2-.3-1.2-1V33c0-.5.4-1 1-1H50c.5 0 .9.4.9.9s-.4.8-.9.8h-2.6v2h2.4c.4 0 .9.3.9.9 0 .5-.4.9-.9.9h-2.4v2h2.7c.5 0 .9.4.9.8 0 .5-.4.9-.9.9zm-3.6-9c-.5 0-.9.5-.9.9v7.2c0 .7.6.9 1.1.9h3.4c.5 0 .8-.3.8-.8 0-.4-.4-.7-.8-.7h-2.8v-2.2h2.5c.5 0 .8-.3.8-.8s-.4-.8-.8-.8h-2.5v-2.2H50c.5 0 .8-.3.8-.7 0-.4-.4-.8-.8-.8h-3.5z"/></g><g><path class="st1" d="M55.2 41.2h-1.4c-.5 0-1-.4-1-.9v-7.2c0-.5.5-.9 1-.9h1.4c2.9 0 3.9 1.6 3.9 3.4v2.2c-.1 1.7-1.1 3.4-3.9 3.4zm2-5.7c0-1-.5-1.7-1.9-1.7h-.9v5.8h.9c1.4 0 1.9-.8 1.9-1.8v-2.3z"/><path class="st1" d="M55.2 41.2h-1.4c-.6 0-1-.4-1-1V33c0-.5.5-1 1-1h1.4c2.5 0 3.9 1.2 3.9 3.4v2.2c0 1.2-.4 3.6-3.9 3.6zm-1.5-9c-.5 0-.9.4-.9.9v7.2c0 .5.4.9.9.9h1.4c2.4 0 3.8-1.2 3.8-3.4v-2.2c0-1.2-.5-3.3-3.8-3.3h-1.4zm1.7 7.4h-.9v-5.9h.9c1.2 0 1.9.6 1.9 1.8v2.2c0 .9-.3 1.9-1.9 1.9zm-.8-.1h.8c1.5 0 1.8-1 1.8-1.8v-2.2c0-.8-.3-1.7-1.8-1.7h-.8v5.7z"/></g></svg>