<svg xmlns="http://www.w3.org/2000/svg" xml:space="preserve" width="66.667" height="71.337"><defs><clipPath clipPathUnits="userSpaceOnUse" id="a"><path d="M0 53.503h50V0H0Z"/></clipPath></defs><g clip-path="url(#a)" transform="matrix(1.33333 0 0 -1.33333 0 71.337)"><path d="M0 0a.754.754 0 0 1-.764-.742v-3.89c0-.391-.12-1.049-.925-1.049-.812 0-.934.658-.934 1.049v3.89c0 .402-.35.742-.764.742-.447 0-.784-.319-.784-.742v-3.89c0-1.511.974-2.486 2.482-2.486 1.484 0 2.482.999 2.482 2.486v3.89C.793-.333.437 0 0 0" style="fill:#0098da;fill-opacity:1;fill-rule:nonzero;stroke:none" transform="translate(8.889 14.156)"/><path d="M0 0c-.36 0-.62-.147-.752-.425L-2.33-3.596-3.908-.435c-.139.281-.41.435-.762.435-.452 0-.793-.319-.793-.742v-5.662c0-.394.338-.714.755-.714.429 0 .792.327.792.714v2.802l.861-1.709c.134-.27.394-.425.715-.425.327 0 .591.155.724.424l.861 1.709v-2.801c0-.387.359-.714.783-.714.415 0 .764.327.764.714v5.662C.792-.326.445 0 0 0" style="fill:#0098da;fill-opacity:1;fill-rule:nonzero;stroke:none" transform="translate(16.224 14.156)"/><path d="M0 0h-1.934v4.881c0 .391-.355.723-.774.723-.419 0-.774-.332-.774-.723V-.656c0-.426.368-.772.821-.772H0c.424 0 .755.318.755.724C.755-.316.417 0 0 0" style="fill:#0098da;fill-opacity:1;fill-rule:nonzero;stroke:none" transform="translate(21.673 8.552)"/><path d="M0 0a3.422 3.422 0 0 0-.661.251c-.172.081-.331.203-.331.535 0 .405.263.611.783.611.311 0 .506-.072.685-.138l.094-.03c.122-.039.248-.079.4-.079.503 0 .775.368.775.714 0 .766-1.265.971-2.011.971-1.42 0-2.302-.8-2.302-2.087 0-1.47 1.065-1.8 2.002-2.09.299-.1.508-.179.679-.253.165-.075.319-.193.319-.545 0-.467-.292-.706-.868-.706-.356 0-.628.093-.846.166l-.048.017c-.201.075-.357.123-.512.123-.399 0-.736-.327-.736-.715 0-.777 1.437-1.028 2.133-1.028 1.473 0 2.462.884 2.462 2.2C2.017-.646.948-.304 0 0" style="fill:#0098da;fill-opacity:1;fill-rule:nonzero;stroke:none" transform="translate(25.661 11.322)"/><path d="M0 0c.273 0 .495-.064.724-.212L.864-.3c.102-.066.198-.129.418-.129.406 0 .737.308.737.685C2.019.924.93 1.39-.048 1.39c-1.625 0-2.519-.928-2.519-2.611v-1.886c0-1.685.894-2.612 2.519-2.612.978 0 2.067.465 2.067 1.133 0 .378-.331.686-.737.686-.22 0-.316-.064-.418-.13l-.143-.089A1.256 1.256 0 0 0 0-4.33c-.714 0-1.02.365-1.02 1.223v1.886C-1.02-.365-.714 0 0 0" style="fill:#0098da;fill-opacity:1;fill-rule:nonzero;stroke:none" transform="translate(33.948 12.767)"/><path d="M0 0a.755.755 0 0 1-.765-.742v-3.89c0-.391-.12-1.049-.923-1.049-.813 0-.934.658-.934 1.049v3.89c0 .402-.351.742-.765.742-.447 0-.784-.319-.784-.742v-3.89c0-1.511.975-2.486 2.483-2.486 1.484 0 2.481.999 2.481 2.486v3.89C.793-.333.437 0 0 0" style="fill:#0098da;fill-opacity:1;fill-rule:nonzero;stroke:none" transform="translate(40.897 14.156)"/><path d="M0 0c-.42 0-.774-.332-.774-.724v-5.672c0-.391.354-.722.774-.722.419 0 .773.331.773.722v5.672C.773-.332.419 0 0 0" style="fill:#0098da;fill-opacity:1;fill-rule:nonzero;stroke:none" transform="translate(43.582 14.156)"/><path d="M0 0a2.553 2.553 0 0 0-2.55-2.55h-39.813A2.553 2.553 0 0 0-44.913 0v8.155a2.553 2.553 0 0 0 2.55 2.551H-2.55A2.553 2.553 0 0 0 0 8.155Zm-2.55 12.249h-39.813a4.099 4.099 0 0 1-4.094-4.094V0a4.098 4.098 0 0 1 4.094-4.093H-2.55A4.097 4.097 0 0 1 1.543 0v8.155a4.098 4.098 0 0 1-4.093 4.094" style="fill:#0098da;fill-opacity:1;fill-rule:nonzero;stroke:none" transform="translate(47.295 6.563)"/><path d="M0 0c0 .497.404.902.901.902h16.734A.903.903 0 0 0 18.537 0v-2.575H0Zm16.863-6.037H1.673v1.918h15.19zM-.772-4.119h.901v-11.418a.772.772 0 0 1 1.544 0V-7.581h15.19V-20.08a2.578 2.578 0 0 0-2.575-2.575h-.473a.77.77 0 1 1 0-1.543h.473a4.122 4.122 0 0 1 4.118 4.118v15.961h.903c.425 0 .771.347.771.772V0a2.449 2.449 0 0 1-2.445 2.445H.901A2.448 2.448 0 0 1-1.544 0v-3.347c0-.425.346-.772.772-.772" style="fill:#0098da;fill-opacity:1;fill-rule:nonzero;stroke:none" transform="translate(25.345 45.404)"/><path d="m0 0 2.895 6.773c.042-.007.08-.025.125-.025h12.734l2.884-6.75h.001a1.046 1.046 0 0 0-.1-1.006 1.152 1.152 0 0 0-.954-.493L.835-1.556c-.577.065-.726.312-.774.393C-.175-.772-.053-.134 0 0m5.58 20.291a.773.773 0 0 1-.582.741l-.09.023c-.398.103-.643.45-.595.846.045.376.458.682.919.682h8.055c.461 0 .874-.306.919-.682a.746.746 0 0 0-.261-.661h-1.624a.772.772 0 0 1 0-1.544h.708l-.022-4.81c-.548.132-1.615.273-2.503-.322-.535-.357-.894-.898-1.071-1.615-.653.086-1.53.068-2.225-.433-.455-.327-.994-.987-.981-2.275a.771.771 0 0 1 .772-.764h.007a.773.773 0 0 1 .765.779c-.005.501.107.84.336 1.005.466.338 1.424.125 1.72.024a.771.771 0 0 1 1.024.694c.029.655.199 1.092.506 1.299.454.308 1.218.143 1.474.054.059-.021.119-.02.179-.026a.75.75 0 0 1 .052-.257l2.033-4.757H3.544l2.034 4.757a.784.784 0 0 1 .062.31zM.751-3.095l16.836.051c.894 0 1.726.435 2.226 1.164.504.739.595 1.668.244 2.485l-5.513 12.903.029 6.283a2.292 2.292 0 0 1 1.165 2.295c-.138 1.145-1.216 2.041-2.451 2.041H5.232c-1.236 0-2.314-.897-2.451-2.041a2.296 2.296 0 0 1 1.26-2.345l.054-6.234-5.514-12.9c-.147-.343-.437-1.545.14-2.537.268-.46.821-1.034 2.03-1.165" style="fill:#0098da;fill-opacity:1;fill-rule:nonzero;stroke:none" transform="translate(6.59 24.008)"/><path d="M0 0c-.875 0-1.587.712-1.587 1.586A1.59 1.59 0 0 0 0 3.174a1.59 1.59 0 0 0 1.587-1.588C1.587.712.875 0 0 0m5.458 6.71a.998.998 0 1 0-.001-1.99.998.998 0 0 0 .001 1.99M.114 7.746a.494.494 0 1 0 0 .988.494.494 0 0 0 0-.988m5.344-4.572c1.4 0 2.54 1.138 2.54 2.539a2.544 2.544 0 0 1-2.54 2.541 2.527 2.527 0 0 1-1.895-.865L2.126 8c.009.079.024.157.024.239a2.039 2.039 0 0 1-2.036 2.036 2.038 2.038 0 0 1-2.037-2.036c0-1.123.913-2.036 2.037-2.036.475 0 .906.17 1.252.443l1.578-.67c-.008-.088-.026-.173-.026-.263 0-.367.082-.714.223-1.03l-.968-.852A3.115 3.115 0 0 1 0 4.717a3.134 3.134 0 0 1-3.13-3.131A3.133 3.133 0 0 1 0-1.543a3.132 3.132 0 0 1 3.13 3.129c0 .315-.061.614-.148.901l1.191 1.048a2.51 2.51 0 0 1 1.285-.361" style="fill:#0098da;fill-opacity:1;fill-rule:nonzero;stroke:none" transform="translate(31.817 22.75)"/></g></svg>