<?xml version="1.0" encoding="UTF-8" standalone="no"?>
<!-- Created with Inkscape (http://www.inkscape.org/) -->

<svg
   xmlns:dc="http://purl.org/dc/elements/1.1/"
   xmlns:cc="http://creativecommons.org/ns#"
   xmlns:rdf="http://www.w3.org/1999/02/22-rdf-syntax-ns#"
   xmlns:svg="http://www.w3.org/2000/svg"
   xmlns="http://www.w3.org/2000/svg"
   xmlns:sodipodi="http://sodipodi.sourceforge.net/DTD/sodipodi-0.dtd"
   xmlns:inkscape="http://www.inkscape.org/namespaces/inkscape"
   version="1.1"
   id="svg4469"
   xml:space="preserve"
   width="60"
   height="65.125069"
   viewBox="0 0 60 65.125069"
   sodipodi:docname="Resolve Symptoms to ICD10-CM Codes.svg"
   inkscape:version="0.92.3 (2405546, 2018-03-11)"><metadata
     id="metadata4475"><rdf:RDF><cc:Work
         rdf:about=""><dc:format>image/svg+xml</dc:format><dc:type
           rdf:resource="http://purl.org/dc/dcmitype/StillImage" /><dc:title></dc:title></cc:Work></rdf:RDF></metadata><defs
     id="defs4473"><clipPath
       clipPathUnits="userSpaceOnUse"
       id="clipPath4485"><path
         d="M 0,48.844 H 45 V 0 H 0 Z"
         id="path4483"
         inkscape:connector-curvature="0" /></clipPath></defs><sodipodi:namedview
     pagecolor="#ffffff"
     bordercolor="#666666"
     borderopacity="1"
     objecttolerance="10"
     gridtolerance="10"
     guidetolerance="10"
     inkscape:pageopacity="0"
     inkscape:pageshadow="2"
     inkscape:window-width="697"
     inkscape:window-height="480"
     id="namedview4471"
     showgrid="false"
     inkscape:zoom="3.6237966"
     inkscape:cx="30"
     inkscape:cy="32.562534"
     inkscape:window-x="0"
     inkscape:window-y="0"
     inkscape:window-maximized="0"
     inkscape:current-layer="g4477" /><g
     id="g4477"
     inkscape:groupmode="layer"
     inkscape:label="Resolve Symptoms to ICD10-CM Codes"
     transform="matrix(1.3333333,0,0,-1.3333333,0,65.125067)"><g
       id="g4479"><g
         id="g4481"
         clip-path="url(#clipPath4485)"><g
           id="g4487"
           transform="translate(4.296,34.1714)"><path
             d="m 0,0 c -0.354,0 -0.636,-0.272 -0.636,-0.583 v -5.414 c 0,-0.31 0.282,-0.583 0.636,-0.583 0.346,0 0.637,0.273 0.637,0.583 v 5.414 C 0.637,-0.272 0.346,0 0,0"
             style="fill:#ffffff;fill-opacity:1;fill-rule:nonzero;stroke:none"
             id="path4489"
             inkscape:connector-curvature="0" /></g><g
           id="g4491"
           transform="translate(8.192,33.0616)"><path
             d="m 0,0 c 0.291,0 0.527,-0.073 0.755,-0.218 l 0.09,-0.055 c 0.118,-0.073 0.183,-0.137 0.391,-0.137 0.345,0 0.6,0.255 0.6,0.546 0,0.528 -0.918,0.974 -1.881,0.974 -1.59,0 -2.317,-0.946 -2.317,-2.384 v -1.803 c 0,-1.438 0.727,-2.384 2.317,-2.384 0.963,0 1.881,0.445 1.881,0.974 0,0.29 -0.255,0.546 -0.6,0.546 -0.208,0 -0.273,-0.064 -0.391,-0.136 L 0.755,-4.132 C 0.527,-4.278 0.291,-4.351 0,-4.351 c -0.817,0 -1.09,0.491 -1.09,1.274 v 1.803 C -1.09,-0.492 -0.817,0 0,0"
             style="fill:#ffffff;fill-opacity:1;fill-rule:nonzero;stroke:none"
             id="path4493"
             inkscape:connector-curvature="0" /></g><g
           id="g4495"
           transform="translate(14.0489,30.1392)"><path
             d="m 0,0 c 0,-0.719 -0.336,-1.311 -1.335,-1.311 h -0.618 v 4.114 h 0.618 C -0.354,2.803 0,2.258 0,1.566 Z m 1.272,0 v 1.566 c 0,1.265 -0.709,2.393 -2.762,2.393 h -1.027 c -0.381,0 -0.708,-0.3 -0.708,-0.655 v -5.115 c 0,-0.355 0.327,-0.655 0.708,-0.655 h 1.027 c 2.063,0 2.762,1.183 2.762,2.466"
             style="fill:#ffffff;fill-opacity:1;fill-rule:nonzero;stroke:none"
             id="path4497"
             inkscape:connector-curvature="0" /></g><g
           id="g4499"
           transform="translate(18.6519,27.6006)"><path
             d="m 0,0 c 0.345,0 0.635,0.273 0.635,0.583 v 5.378 c 0,0.346 -0.29,0.61 -0.672,0.61 -0.127,0 -0.227,-0.027 -0.354,-0.1 L -2.19,5.415 C -2.363,5.314 -2.472,5.142 -2.472,4.906 c 0,-0.392 0.309,-0.529 0.582,-0.529 0.208,0 0.363,0.082 0.536,0.192 l 0.717,0.437 V 0.583 C -0.637,0.273 -0.355,0 0,0"
             style="fill:#ffffff;fill-opacity:1;fill-rule:nonzero;stroke:none"
             id="path4501"
             inkscape:connector-curvature="0" /></g><g
           id="g4503"
           transform="translate(23.836,32.1514)"><path
             d="m 0,0 v -2.566 c 0,-0.52 -0.291,-0.875 -0.836,-0.875 -0.545,0 -0.836,0.355 -0.836,0.875 V 0 c 0,0.583 0.236,0.992 0.836,0.992 C -0.236,0.992 0,0.583 0,0 m -2.936,-0.064 v -2.502 c 0,-1.112 0.747,-1.994 2.1,-1.994 1.354,0 2.099,0.882 2.099,1.994 v 2.502 c 0,1.201 -0.636,2.167 -2.099,2.167 -1.463,0 -2.1,-0.966 -2.1,-2.167"
             style="fill:#ffffff;fill-opacity:1;fill-rule:nonzero;stroke:none"
             id="path4505"
             inkscape:connector-curvature="0" /></g><g
           id="g4507"
           transform="translate(26.3126,30.9581)"><path
             d="m 0,0 c -0.345,0 -0.608,-0.254 -0.608,-0.554 0,-0.319 0.263,-0.555 0.608,-0.555 h 2.263 c 0.336,0 0.599,0.236 0.599,0.555 C 2.862,-0.254 2.599,0 2.263,0 Z"
             style="fill:#ffffff;fill-opacity:1;fill-rule:nonzero;stroke:none"
             id="path4509"
             inkscape:connector-curvature="0" /></g><g
           id="g4511"
           transform="translate(32.3594,33.0616)"><path
             d="m 0,0 c 0.291,0 0.527,-0.073 0.755,-0.218 l 0.091,-0.055 c 0.118,-0.073 0.182,-0.137 0.39,-0.137 0.345,0 0.6,0.255 0.6,0.546 0,0.528 -0.917,0.974 -1.881,0.974 -1.59,0 -2.316,-0.946 -2.316,-2.384 v -1.803 c 0,-1.438 0.726,-2.384 2.316,-2.384 0.964,0 1.881,0.445 1.881,0.974 0,0.29 -0.255,0.546 -0.6,0.546 -0.208,0 -0.272,-0.064 -0.39,-0.136 L 0.755,-4.132 C 0.527,-4.278 0.291,-4.351 0,-4.351 c -0.816,0 -1.09,0.491 -1.09,1.274 v 1.803 C -1.09,-0.492 -0.816,0 0,0"
             style="fill:#ffffff;fill-opacity:1;fill-rule:nonzero;stroke:none"
             id="path4513"
             inkscape:connector-curvature="0" /></g><g
           id="g4515"
           transform="translate(40.1339,27.5918)"><path
             d="m 0,0 c 0.337,0 0.628,0.264 0.628,0.572 v 5.407 c 0,0.328 -0.282,0.601 -0.655,0.601 -0.255,0 -0.499,-0.082 -0.626,-0.346 L -2.271,3.012 -3.888,6.225 C -4.006,6.461 -4.234,6.58 -4.524,6.58 -4.896,6.58 -5.179,6.325 -5.179,5.979 V 0.572 C -5.179,0.264 -4.905,0 -4.561,0 c 0.354,0 0.654,0.264 0.654,0.572 V 3.703 L -2.87,1.665 c 0.117,-0.236 0.345,-0.346 0.59,-0.346 0.254,0 0.481,0.11 0.599,0.346 l 1.036,2.038 V 0.572 C -0.645,0.264 -0.345,0 0,0"
             style="fill:#ffffff;fill-opacity:1;fill-rule:nonzero;stroke:none"
             id="path4517"
             inkscape:connector-curvature="0" /></g><g
           id="g4519"
           transform="translate(35.1368,39.459)"><path
             d="m 0,0 c 0,0.459 -0.372,0.832 -0.831,0.832 h -0.003 c -0.459,0 -0.83,-0.373 -0.83,-0.832 0,-0.459 0.373,-0.832 0.833,-0.832 C -0.372,-0.832 0,-0.459 0,0"
             style="fill:#ffffff;fill-opacity:1;fill-rule:nonzero;stroke:none"
             id="path4521"
             inkscape:connector-curvature="0" /></g><g
           id="g4523"
           transform="translate(6.7325,43.5293)"><path
             d="m 0,0 c 0,-0.34 -0.276,-0.616 -0.616,-0.616 -0.34,0 -0.616,0.276 -0.616,0.616 0,0.339 0.276,0.616 0.616,0.616 C -0.276,0.616 0,0.339 0,0 m -2.395,0 c 0,-0.98 0.798,-1.778 1.779,-1.778 0.98,0 1.778,0.798 1.778,1.778 0,0.98 -0.798,1.778 -1.778,1.778 C -1.597,1.778 -2.395,0.98 -2.395,0"
             style="fill:#ffffff;fill-opacity:1;fill-rule:nonzero;stroke:none"
             id="path4525"
             inkscape:connector-curvature="0" /></g><g
           id="g4527"
           transform="translate(11.0484,43.5293)"><path
             d="m 0,0 c 0,-0.34 -0.276,-0.616 -0.616,-0.616 -0.34,0 -0.616,0.276 -0.616,0.616 0,0.339 0.276,0.616 0.616,0.616 C -0.276,0.616 0,0.339 0,0 m -2.394,0 c 0,-0.98 0.798,-1.778 1.778,-1.778 0.981,0 1.778,0.798 1.778,1.778 0,0.98 -0.797,1.778 -1.778,1.778 -0.98,0 -1.778,-0.798 -1.778,-1.778"
             style="fill:#ffffff;fill-opacity:1;fill-rule:nonzero;stroke:none"
             id="path4529"
             inkscape:connector-curvature="0" /></g><g
           id="g4531"
           transform="translate(15.2847,43.4888)"><path
             d="m 0,0 c 0,-0.34 -0.276,-0.616 -0.616,-0.616 -0.34,0 -0.616,0.276 -0.616,0.616 0,0.34 0.276,0.616 0.616,0.616 C -0.276,0.616 0,0.34 0,0 m -2.395,0 c 0,-0.98 0.798,-1.778 1.779,-1.778 0.98,0 1.779,0.798 1.779,1.778 0,0.981 -0.799,1.778 -1.779,1.778 -0.981,0 -1.779,-0.797 -1.779,-1.778"
             style="fill:#ffffff;fill-opacity:1;fill-rule:nonzero;stroke:none"
             id="path4533"
             inkscape:connector-curvature="0" /></g><g
           id="g4535"
           transform="translate(41.9317,6.0049)"><path
             d="m 0,0 c -2.587,-4.203 -8.111,-5.521 -12.316,-2.937 -4.205,2.587 -5.523,8.112 -2.937,12.317 1.689,2.746 4.632,4.26 7.641,4.26 1.599,0 3.216,-0.428 4.675,-1.324 C 1.268,9.729 2.585,4.205 0,0 m -2.022,13.802 c -5.024,3.089 -11.626,1.515 -14.717,-3.508 -3.09,-5.025 -1.517,-11.626 3.508,-14.716 1.744,-1.072 3.676,-1.583 5.586,-1.583 3.596,0 7.114,1.81 9.13,5.091 3.09,5.025 1.517,11.626 -3.507,14.716"
             style="fill:#ffffff;fill-opacity:1;fill-rule:nonzero;stroke:none"
             id="path4537"
             inkscape:connector-curvature="0" /></g><g
           id="g4539"
           transform="translate(31.6964,12.8047)"><path
             d="M 0,0 C 0,0.223 -0.088,0.43 -0.244,0.586 -0.557,0.9 -1.103,0.899 -1.416,0.587 l -2.492,-2.492 c -0.155,-0.158 -0.241,-0.366 -0.241,-0.586 0,-0.222 0.086,-0.43 0.243,-0.586 l 2.457,-2.458 c 0.158,-0.155 0.366,-0.241 0.587,-0.241 0.219,0 0.426,0.086 0.585,0.243 0.158,0.156 0.245,0.365 0.245,0.587 0,0.223 -0.088,0.432 -0.251,0.592 l -1.917,1.808 1.956,1.957 C -0.086,-0.432 0,-0.223 0,0"
             style="fill:#ffffff;fill-opacity:1;fill-rule:nonzero;stroke:none"
             id="path4541"
             inkscape:connector-curvature="0" /></g><g
           id="g4543"
           transform="translate(37.7344,13.3907)"><path
             d="m 0,0 c -0.323,-0.323 -0.323,-0.85 0.006,-1.182 l 1.95,-1.841 -1.923,-1.922 c -0.157,-0.157 -0.243,-0.366 -0.243,-0.588 0,-0.223 0.087,-0.431 0.244,-0.588 0.157,-0.155 0.365,-0.241 0.585,-0.241 0.22,0 0.429,0.086 0.587,0.243 l 2.456,2.456 c 0.158,0.156 0.244,0.364 0.244,0.586 0,0.221 -0.086,0.429 -0.241,0.586 L 1.172,0.002 C 0.856,0.313 0.313,0.313 0,0"
             style="fill:#ffffff;fill-opacity:1;fill-rule:nonzero;stroke:none"
             id="path4545"
             inkscape:connector-curvature="0" /></g><g
           id="g4547"
           transform="translate(36.4805,14.8379)"><path
             d="M 0,0 -0.289,0.064 C -0.629,0.096 -0.94,-0.119 -1.074,-0.43 l -3.194,-7.512 c -0.085,-0.201 -0.086,-0.422 -0.004,-0.627 0.084,-0.202 0.239,-0.361 0.49,-0.461 l 0.234,-0.048 c 0.011,-0.001 0.021,-0.001 0.031,-0.001 0.325,0 0.624,0.196 0.753,0.497 l 3.193,7.509 c 0.087,0.2 0.09,0.423 0.008,0.626 C 0.355,-0.244 0.2,-0.085 0,0"
             style="fill:#ffffff;fill-opacity:1;fill-rule:nonzero;stroke:none"
             id="path4549"
             inkscape:connector-curvature="0" /></g><g
           id="g4551"
           transform="translate(19.5176,7.3799)"><path
             d="m 0,0 v 0.015 h -0.072 c -0.008,0 -0.014,0.004 -0.022,0.004 H -3.07 V 0.015 h -12.772 c -1.11,0 -2.012,0.902 -2.012,2.011 V 31.247 H 11.54 c 0.459,0 0.832,0.373 0.832,0.832 0,0.46 -0.373,0.832 -0.832,0.832 h -29.394 v 3.931 c 0,1.631 1.327,2.958 2.958,2.958 h 35.121 c 1.63,0 2.958,-1.327 2.958,-2.958 v -3.931 h -4.99 c -0.459,0 -0.832,-0.372 -0.832,-0.832 0,-0.459 0.373,-0.832 0.832,-0.832 h 4.99 V 18.083 h -0.005 v -2.977 c 0,-0.454 0.369,-0.823 0.824,-0.823 h 0.02 c 0.456,0 0.824,0.369 0.824,0.823 v 0.008 2.969 18.76 c 0,2.548 -2.074,4.621 -4.621,4.621 h -35.121 c -2.548,0 -4.622,-2.073 -4.622,-4.622 V 2.026 c 0,-2.026 1.649,-3.675 3.675,-3.675 H -3.07 -0.094 0 v 0.019 c 0.409,0.049 0.729,0.383 0.729,0.805 v 0.02 C 0.729,-0.383 0.409,-0.049 0,0"
             style="fill:#ffffff;fill-opacity:1;fill-rule:nonzero;stroke:none"
             id="path4553"
             inkscape:connector-curvature="0" /></g><g
           id="g4555"
           transform="translate(17.8018,12.5918)"><path
             d="m 0,0 h -10.294 c -0.492,0 -0.892,0.4 -0.892,0.892 0,0.491 0.4,0.891 0.892,0.891 H 0 c 0.49,0 0.89,-0.4 0.89,-0.891 C 0.89,0.4 0.49,0 0,0 m 0,3.527 h -10.294 c -1.455,0 -2.637,-1.181 -2.637,-2.635 0,-1.454 1.182,-2.636 2.637,-2.636 H 0 c 1.453,0 2.634,1.182 2.634,2.636 0,1.454 -1.181,2.635 -2.634,2.635"
             style="fill:#ffffff;fill-opacity:1;fill-rule:nonzero;stroke:none"
             id="path4557"
             inkscape:connector-curvature="0" /></g><g
           id="g4559"
           transform="translate(7.5074,21.4209)"><path
             d="m 0,0 h 4.134 c 0.491,0 0.891,-0.4 0.891,-0.891 0,-0.491 -0.4,-0.89 -0.891,-0.89 H 0 c -0.491,0 -0.891,0.399 -0.891,0.89 C -0.891,-0.4 -0.491,0 0,0 m 0,-3.526 h 4.134 c 1.454,0 2.636,1.182 2.636,2.635 0,1.453 -1.182,2.635 -2.636,2.635 L 0,1.744 c -1.454,0 -2.636,-1.182 -2.636,-2.635 0,-1.453 1.182,-2.635 2.636,-2.635"
             style="fill:#ffffff;fill-opacity:1;fill-rule:nonzero;stroke:none"
             id="path4561"
             inkscape:connector-curvature="0" /></g><g
           id="g4563"
           transform="translate(23.063,19.6397)"><path
             d="m 0,0 h -4.311 c -0.491,0 -0.891,0.399 -0.891,0.891 0,0.49 0.4,0.89 0.891,0.89 H 0 c 0.491,0 0.89,-0.4 0.89,-0.89 C 0.89,0.399 0.491,0 0,0 M 2.634,0.891 C 2.634,2.344 1.453,3.525 0,3.525 h -4.311 c -1.454,0 -2.636,-1.181 -2.636,-2.634 0,-1.453 1.182,-2.636 2.636,-2.636 H 0 c 1.453,0 2.634,1.183 2.634,2.636"
             style="fill:#ffffff;fill-opacity:1;fill-rule:nonzero;stroke:none"
             id="path4565"
             inkscape:connector-curvature="0" /></g></g></g></g></svg>