<svg xmlns="http://www.w3.org/2000/svg" xml:space="preserve" width="66.667" height="66.667"><defs><clipPath clipPathUnits="userSpaceOnUse" id="a"><path d="M0 50h50V0H0Z"/></clipPath></defs><g clip-path="url(#a)" transform="matrix(1.33333 0 0 -1.33333 0 66.667)"><path d="M0 0c.352 0 .638-.088.913-.264l.11-.066c.143-.088.22-.165.473-.165.418 0 .726.308.726.66 0 .639-1.111 1.178-2.277 1.178C-1.98 1.343-2.86.198-2.86-1.54v-2.179c0-1.737.88-2.881 2.805-2.881 1.166 0 2.277.539 2.277 1.176 0 .353-.308.66-.726.66-.253 0-.33-.077-.473-.165l-.11-.065A1.609 1.609 0 0 0 0-5.259c-.99 0-1.32.595-1.32 1.54v2.179C-1.32-.594-.99 0 0 0" style="fill:#1097d5;fill-opacity:1;fill-rule:nonzero;stroke:none" transform="translate(7.842 29.54)"/><path d="M0 0h.935C1.969 0 2.2-.595 2.2-1.167c0-.792-.44-1.155-1.265-1.155H0Zm0-5.732v2.013h.935c1.705 0 2.805.913 2.805 2.541 0 1.343-.737 2.574-2.805 2.574H-.682c-.462 0-.859-.363-.859-.792v-6.336c0-.395.364-.726.771-.726.418 0 .77.341.77.726" style="fill:#1097d5;fill-opacity:1;fill-rule:nonzero;stroke:none" transform="translate(13.122 29.386)"/><path d="M0 0c0 .396-.385.704-.781.704h-3.873c-.429 0-.77-.395-.77-.704 0-.374.33-.692.77-.692h1.166v-5.754c0-.374.342-.704.771-.704.418 0 .77.33.77.704v5.754h1.166C-.363-.692 0-.374 0 0" style="fill:#1097d5;fill-opacity:1;fill-rule:nonzero;stroke:none" transform="translate(23.33 30.079)"/><path d="M0 0h37.256a2.424 2.424 0 0 0 2.421-2.421v-5.692H-2.421v5.692A2.424 2.424 0 0 0 0 0m20.442-38.827H0a2.425 2.425 0 0 0-2.421 2.422v26.592h42.098v-14.23a.85.85 0 1 1 1.699 0v21.622a4.125 4.125 0 0 1-4.12 4.121H0a4.126 4.126 0 0 1-4.122-4.121v-33.984A4.127 4.127 0 0 1 0-40.526h20.442a.85.85 0 1 1 0 1.699" style="fill:#1097d5;fill-opacity:1;fill-rule:nonzero;stroke:none" transform="translate(5.202 45.395)"/><path d="M0 0a.709.709 0 1 0-.001-1.417A.709.709 0 0 0 0 0m0-3.117A2.412 2.412 0 0 1 2.409-.708 2.411 2.411 0 0 1 0 1.7 2.411 2.411 0 0 1-2.409-.708 2.412 2.412 0 0 1 0-3.117" style="fill:#1097d5;fill-opacity:1;fill-rule:nonzero;stroke:none" transform="translate(8.221 42.113)"/><path d="M0 0a.709.709 0 1 0-.001-1.417A.709.709 0 0 0 0 0m0-3.117A2.412 2.412 0 0 1 2.409-.708 2.411 2.411 0 0 1 0 1.7 2.411 2.411 0 0 1-2.409-.708 2.412 2.412 0 0 1 0-3.117" style="fill:#1097d5;fill-opacity:1;fill-rule:nonzero;stroke:none" transform="translate(14.788 42.113)"/><path d="M0 0a.709.709 0 1 0-.001-1.417A.709.709 0 0 0 0 0m0-3.117A2.412 2.412 0 0 1 2.409-.708 2.411 2.411 0 0 1 0 1.7 2.411 2.411 0 0 1-2.409-.708 2.412 2.412 0 0 1 0-3.117" style="fill:#1097d5;fill-opacity:1;fill-rule:nonzero;stroke:none" transform="translate(21.354 42.113)"/><path d="M0 0h3.811a.85.85 0 0 1 0 1.7H0A.85.85 0 1 1 0 0" style="fill:#1097d5;fill-opacity:1;fill-rule:nonzero;stroke:none" transform="translate(30.269 28.878)"/><path d="M0 0h-3.812a.85.85 0 0 1 0-1.7H0A.85.85 0 1 1 0 0" style="fill:#1097d5;fill-opacity:1;fill-rule:nonzero;stroke:none" transform="translate(40.762 30.579)"/><path d="M0 0h10.493a.85.85 0 1 1 0 1.7H0A.85.85 0 1 1 0 0" style="fill:#1097d5;fill-opacity:1;fill-rule:nonzero;stroke:none" transform="translate(30.269 24.295)"/><path d="M47.771 2.777h-17.39v13.717h17.39zm.849 15.416H29.531a.849.849 0 0 1-.849-.849V1.928c0-.47.38-.85.849-.85H48.62c.47 0 .85.38.85.85v15.416a.85.85 0 0 1-.85.849" style="fill:#1097d5;fill-opacity:1;fill-rule:nonzero;stroke:none"/><path d="M0 0c.847 0 1.536-.689 1.536-1.536A1.536 1.536 0 1 0 0 0m5.521 3.578c.518 0 .94-.422.94-.939a.941.941 0 0 0-.94-.94.941.941 0 0 0-.939.94c0 .517.422.939.939.939M.115 4.764a.43.43 0 1 0 .002.86.43.43 0 0 0-.002-.86M0-4.771a3.239 3.239 0 0 1 3.235 3.235c0 .31-.057.604-.139.889L4.23.352A2.605 2.605 0 0 1 5.521 0 2.642 2.642 0 0 1 8.16 2.639a2.64 2.64 0 0 1-2.639 2.638 2.625 2.625 0 0 1-1.936-.86l-1.36.578c.005.067.019.131.019.198A2.131 2.131 0 0 1 .115 7.322a2.131 2.131 0 0 1-2.129-2.129c0-1.173.955-2.129 2.129-2.129.482 0 .921.167 1.279.438l1.511-.643c-.007-.073-.022-.144-.022-.22 0-.365.074-.711.208-1.027L2.196.825A3.213 3.213 0 0 1 0 1.699a3.238 3.238 0 0 1-3.234-3.235A3.239 3.239 0 0 1 0-4.771" style="fill:#1097d5;fill-opacity:1;fill-rule:nonzero;stroke:none" transform="translate(37.03 8.23)"/><path d="M0 0a.786.786 0 0 1-.234.562.817.817 0 0 1-1.122 0l-2.832-2.833a.803.803 0 0 1-.232-.562c0-.212.082-.41.232-.561l2.795-2.794A.793.793 0 1 1-.275-5.06l-2.292 2.164L-.234-.563C-.083-.413 0-.213 0 0" style="fill:#1097d5;fill-opacity:1;fill-rule:nonzero;stroke:none" transform="translate(11.343 16.724)"/><path d="M0 0a.791.791 0 0 1 .793-.794c.211 0 .41.081.563.232l2.793 2.793a.792.792 0 0 1 .001 1.123L1.317 6.187a.815.815 0 0 1-1.122 0A.8.8 0 0 1 .2 5.057l2.329-2.2L.232.562A.794.794 0 0 1 0 0" style="fill:#1097d5;fill-opacity:1;fill-rule:nonzero;stroke:none" transform="translate(18.27 11.099)"/><path d="m0 0 .24-.052.032-.001a.79.79 0 0 1 .722.478l3.631 8.541a.776.776 0 0 1 .007.6.776.776 0 0 1-.42.431l-.276.062a.783.783 0 0 1-.755-.476L-.452 1.04A.783.783 0 0 1 0 0" style="fill:#1097d5;fill-opacity:1;fill-rule:nonzero;stroke:none" transform="translate(12.665 8.907)"/></g></svg>