<svg xmlns="http://www.w3.org/2000/svg" xml:space="preserve" width="64" height="65.68"><defs><clipPath clipPathUnits="userSpaceOnUse" id="a"><path d="M0 49.26h48V0H0Z"/></clipPath></defs><g clip-path="url(#a)" transform="matrix(1.33333 0 0 -1.33333 0 65.68)"><path d="M13.08 36.81a1.7 1.7 0 0 1-.85.23H1.7v10.52h16.43v-3.8l.1-9.91Zm16.8 8.23v2.52H46.3V37.04H35.77c-.31 0-.61-.08-.88-.24l-4.91-2.94-.1 9.91Zm-9.93-13.05-.12 11.68h8.34l.13-11.68a.63.63 0 0 1 1.01-.5l6.46 3.85h7.39V23.3a.85.85 0 1 1 1.7 0v12.04h2.5c.36 0 .64.28.64.63v12.66c0 .35-.28.63-.63.63H28.8a.63.63 0 0 1-.64-.63v-3.26h-8.34v3.26c0 .35-.29.63-.64.63H.63a.63.63 0 0 1-.63-.63V35.97c0-.35.28-.63.63-.63h2.12V11.95a3.2 3.2 0 0 1 3.15-3.2H16.9V2.87h-5.32a.85.85 0 1 1 0-1.7h6.17c.46 0 .85.38.85.85v7.59c0 .47-.39.85-.85.85H5.9c-.8 0-1.46.67-1.46 1.49v23.39h7.78l6.71-3.86a.64.64 0 0 1 .66-.06c.22.1.35.33.35.57" fill="#ffffff"/><path d="M6.84 42.9a.85.85 0 0 1 0 1.7H4a.85.85 0 0 1 0-1.7zM15.83 44.6h-5.26a.85.85 0 0 1 0-1.7h5.26a.85.85 0 0 1 0 1.7M15.49 41.04H4.3a.85.85 0 0 1 0-1.7h11.18a.85.85 0 0 1 0 1.7M41.16 42.9H44a.85.85 0 0 1 0 1.7h-2.84a.85.85 0 1 1 0-1.7M32.17 42.9h5.26a.85.85 0 0 1 0 1.7h-5.26a.85.85 0 1 1 0-1.7M43.7 41.04H32.51a.85.85 0 0 1 0-1.7h11.17a.85.85 0 1 1 0 1.7M17.2 20.82c.42 0 .79.33.79.72v6.84c0 .41-.36.76-.83.76-.32 0-.63-.1-.8-.44l-2.03-4.07-2.05 4.06c-.15.3-.43.45-.8.45-.47 0-.83-.33-.83-.76v-6.84c0-.39.35-.72.78-.72.45 0 .83.33.83.72v3.96l1.3-2.58a.8.8 0 0 1 .76-.43c.32 0 .6.13.75.43l1.31 2.58v-3.96c0-.39.38-.72.82-.72M21.02 24.84c0 .46.3.75.85.75.44 0 .68-.18.68-.64 0-.5-.27-.65-.7-.65l-.83.05zm.88-1.72c1.55 0 2.23.64 2.23 1.75 0 1.16-.75 1.95-2.25 1.95-1.6 0-2.45-.88-2.45-2.04v-1.93c0-1.13.87-2 2.39-2 .73 0 2.2.2 2.2 1 0 .27-.16.64-.71.64-.2 0-.3-.05-.34-.07a2.44 2.44 0 0 0-1.04-.26c-.62 0-.91.26-.91.65v.38c.33-.05.58-.07.88-.07M27.53 22.28c-.49 0-.86.14-1.13.23-.22.08-.4.14-.58.14a.76.76 0 0 1-.75-.73c0-.8 1.6-1.1 2.45-1.1 1.64 0 2.86.92 2.86 2.52 0 1.63-1.23 2.02-2.35 2.38-.26.07-.53.16-.83.3-.2.1-.48.27-.48.78 0 .68.53.87 1.09.87.4 0 .65-.09.87-.17.2-.06.36-.12.56-.12.5 0 .8.34.8.72 0 .86-1.62 1.04-2.3 1.04-1.63 0-2.66-.9-2.66-2.39 0-1.66 1.21-2.04 2.34-2.39.3-.1.6-.2.84-.31.2-.1.47-.26.47-.78 0-.64-.4-1-1.2-1M36.55 20.82c.44 0 .8.34.8.75v6.83c0 .39-.37.74-.8.74-.42 0-.8-.35-.8-.74v-2.68H33.3v2.68c0 .39-.36.74-.8.74-.45 0-.8-.35-.8-.74v-6.83c0-.4.35-.75.8-.75.44 0 .8.34.8.75v2.68h2.45v-2.68c0-.4.38-.75.8-.75M46.3 1.7H26.76v15.45H46.3zm.85 17.15H25.91a.85.85 0 0 1-.85-.85V.85c0-.47.38-.85.85-.85h21.24c.47 0 .85.38.85.85V18c0 .47-.38.85-.85.85" fill="#ffffff"/><path d="M34.26 8.05a1.9 1.9 0 1 0 0-3.8 1.9 1.9 0 0 0 0 3.8m6.14 3.98a1.24 1.24 0 1 0 0-2.48 1.24 1.24 0 0 0 0 2.48m-6.02.93c-.37 0-.67.3-.67.68a.67.67 0 0 0 1.35 0c0-.37-.3-.68-.68-.68m-.12-10.21a3.4 3.4 0 0 1 3.22 4.45l1.45 1.29a2.74 2.74 0 1 1 1.47 5.05c-.85 0-1.6-.4-2.1-1l-1.78.75c.02.12.04.23.04.35a2.18 2.18 0 1 1-2.18-2.18c.54 0 1.02.2 1.4.52l1.91-.82c-.01-.12-.03-.24-.03-.37 0-.42.1-.82.28-1.18L36.7 8.5a3.39 3.39 0 0 1-5.85-2.36 3.4 3.4 0 0 1 3.4-3.4" fill="#ffffff"/></g></svg>