<svg version="1.1" id="svg410" xmlns="http://www.w3.org/2000/svg" xmlns:xlink="http://www.w3.org/1999/xlink" x="0" y="0" viewBox="0 0 69.3 76.6" xml:space="preserve"><style>.st1{fill:#0098da}</style><g id="g418" transform="matrix(1.33333 0 0 -1.33333 0 76.6)"><g id="g420"><defs><path id="SVGID_1_" d="M-8.7-9.6h69.3V67H-8.7z"/></defs><clipPath id="SVGID_2_"><use xlink:href="#SVGID_1_" overflow="visible"/></clipPath><g id="g422" clip-path="url(#SVGID_2_)"><g id="g428" transform="translate(8.84 32.04)"><path id="path430" class="st1" d="M0 0c0 .3-.3.6-.6.6-.4 0-.6-.3-.6-.6v-5.3c0-.3.3-.6.6-.6s.6.3.6.6V0z"/></g><g id="g432" transform="translate(12.04 31.53)"><path id="path434" class="st1" d="M0 0c.3 0 .5-.1.7-.2l.1-.1c.1 0 .2-.1.4-.1.3 0 .6.3.6.5 0 .5-.9 1-1.8 1-1.6 0-2.3-.9-2.3-2.3V-3c0-1.4.7-2.3 2.3-2.3.9 0 1.8.4 1.8 1 0 .3-.3.5-.6.5C1-3.9.9-3.9.8-4H.7a.9.9 0 0 0-.7-.3c-.8 0-1.1.5-1.1 1.2v1.8C-1.1-.5-.8 0 0 0"/></g><g id="g436" transform="translate(15.87 31.41)"><path id="path438" class="st1" d="M0 0h.6c1 0 1.3-.5 1.3-1.2v-1.5C1.9-3.4 1.6-4 .6-4H0v4zm.5-5.2c2 0 2.7 1.2 2.7 2.4v1.5C3.2-.1 2.5 1 .5 1h-1c-.4 0-.7-.3-.7-.6v-5c0-.3.3-.6.7-.6h1z"/></g><g id="g440" transform="translate(19.88 30.98)"><path id="path442" class="st1" d="M0 0c0-.4.3-.5.6-.5.2 0 .4.1.5.2l.7.4v-4.3c0-.3.3-.6.6-.6.4 0 .6.3.6.6V1c0 .3-.3.6-.7.6-.1 0-.2 0-.3-.1L.2.5C.1.4 0 .2 0 0"/></g><g id="g444" transform="translate(27.4 28.12)"><path id="path446" class="st1" d="M0 0c0-.5-.3-.9-.8-.9s-.8.3-.8.9v2.5c0 .6.2 1 .8 1 .6 0 .8-.4.8-1V0zm-.8 4.6c-1.4 0-2.1-.9-2.1-2.1V0c0-1.1.7-2 2.1-2s2.1.9 2.1 2v2.5C1.2 3.6.6 4.6-.8 4.6"/></g><g id="g448" transform="translate(32.04 28.38)"><path id="path450" class="st1" d="M0 0c.3 0 .6.2.6.5S.3 1 0 1h-2.2c-.3 0-.6-.3-.6-.5 0-.3.2-.5.6-.5H0z"/></g><g id="g452" transform="translate(35.76 31.53)"><path id="path454" class="st1" d="M0 0c.3 0 .5-.1.7-.2l.1-.1c.1 0 .2-.1.4-.1.3 0 .6.3.6.5 0 .5-.9 1-1.8 1-1.6 0-2.3-.9-2.3-2.3V-3c0-1.4.7-2.3 2.3-2.3.9 0 2 .4 2 1.2v2c0 .4-.3.6-.7.6h-1c-.3-.1-.6-.3-.6-.6s.3-.6.6-.6h.5v-1.4c-.3-.1-.5-.2-.8-.2-.8 0-1.1.5-1.1 1.2v1.8C-1.1-.5-.8 0 0 0"/></g><g id="g456" transform="translate(43.7 26.17)"><path id="path458" class="st1" d="M0 0c.3 0 .6.3.6.6v5.3c0 .3-.3.6-.6.6-.2 0-.5-.1-.6-.3L-2.2 3l-1.6 3.1c-.1.2-.3.3-.6.3-.4 0-.6-.2-.6-.6V.6c-.1-.3.2-.6.5-.6s.6.3.6.6v3.1l1-2c.1-.2.3-.3.6-.3s.5.1.6.3l1 2V.6C-.6.3-.3 0 0 0"/></g><g id="g460" transform="translate(21.77 45.55)"><path id="path462" class="st1" d="M0 0h22.6c1.3 0 2.3-1 2.3-2.3v-2.6H0c-.5 0-.9-.4-.9-.8 0-.5.4-.9.9-.9H24.9v-15.6c0-.5.4-.9.8-.9.5 0 .9.4.9.9v19.8c0 2.2-1.8 4-4 4L0 1.7c-.5 0-.9-.4-.9-.9S-.5 0 0 0"/></g><g id="g464" transform="translate(27.39 8.29)"><path id="path466" class="st1" d="M0 0h-19.8c-1.3 0-2.3 1-2.3 2.3v26.6c0 .5-.4.9-.9.9a.9.9 0 0 1-.9-.9V2.3c0-2.2 1.8-4 4-4H0c.5 0 .9.4.9.8C.9-.4.5 0 0 0"/></g><g id="g468" transform="translate(13.32 18.7)"><path id="path470" class="st1" d="M0 0c0 .2-.1.5-.3.6-.3.4-.9.4-1.2 0l-2.9-2.9c-.2-.2-.3-.4-.3-.6 0-.2.1-.5.3-.6l2.9-2.9c.2-.2.4-.3.6-.3.2 0 .5.1.6.3.2.2.3.4.3.6 0 .2-.1.5-.3.6L-2.6-3-.3-.7c.2.2.3.5.3.7"/></g><g id="g472" transform="translate(20.22 12.95)"><path id="path474" class="st1" d="M0 0c0-.2.1-.5.3-.6.2-.2.4-.3.6-.3.2 0 .5.1.6.3l2.9 2.9c.2.2.3.4.3.6 0 .2-.1.5-.3.6L1.5 6.4c-.3.3-.9.3-1.3 0-.4-.4-.4-.9 0-1.3l2.3-2.2L.3.6C.1.5 0 .2 0 0"/></g><g id="g476" transform="translate(14.04 11.13)"><path id="path478" class="st1" d="M0 0c.1-.2.3-.4.5-.5l.3-.1c.4 0 .7.2.8.5l3.7 8.7c.1.2.1.5 0 .7 0 .3-.2.5-.4.6l-.3.1c-.4 0-.7-.2-.9-.5L0 .7C-.1.5-.1.2 0 0"/></g><path id="path480" class="st1" d="M49 5.3H31.2v14.1H49V5.3zm.9 15.8H30.3c-.5 0-.9-.4-.9-.8V4.5c0-.5.4-.9.9-.9h19.5c.5 0 .9.4.9.9v15.8c0 .4-.4.8-.8.8"/><g id="g482" transform="translate(38 11.05)"><path id="path484" class="st1" d="M0 0c.9 0 1.7-.8 1.7-1.7 0-.9-.8-1.7-1.7-1.7s-1.7.8-1.7 1.7C-1.7-.8-.9 0 0 0m5.6 3.7c.6 0 1.1-.5 1.1-1.1 0-.6-.5-1.1-1.1-1.1-.5 0-1 .5-1 1.1 0 .6.5 1.1 1 1.1m-5.5.9c-.3 0-.6.3-.6.6s.3.6.6.6.6-.3.6-.6-.3-.6-.6-.6M0-4.9c1.8 0 3.2 1.4 3.2 3.2 0 .3-.1.7-.2 1L4.3.4c.4-.3.9-.4 1.3-.4C7 0 8.2 1.2 8.2 2.6 8.2 4 7 5.2 5.6 5.2c-.8 0-1.5-.4-1.9-.9l-1.6.6v.3c0 1.1-.9 2.1-2.1 2.1s-2.1-.9-2.1-2.1c0-1.1.9-2.1 2.1-2.1.5 0 .9.2 1.3.5L3 2.9v-.3c0-.4.1-.7.2-1.1l-1-.9c-.5.5-1.3.9-2.2.9-1.8 0-3.2-1.4-3.2-3.2 0-1.7 1.4-3.2 3.2-3.2"/></g><g id="g486" transform="translate(3.56 51.3)"><path id="path488" class="st1" d="M0 0h14.8l-.1-13.2-4.3 2.6c-.3.2-.6.2-.9.2H0V0zm15.5-15.6c.1-.1.2-.1.3-.1.1 0 .2 0 .3.1.2.1.3.3.3.5l.1 16.3c0 .3-.3.6-.6.6h-17c-.3 0-.6-.3-.6-.6v-12.6c0-.3.3-.6.6-.6H9.5l6-3.6z"/></g><g id="g490" transform="translate(9.19 45.76)"><path id="path492" class="st1" d="M0 0c0-.8-.4-1.4-1.4-1.4h-.7V3h.7C-.4 3 0 2.4 0 1.7V0zm-1.6 4.2h-1.1c-.4 0-.7-.3-.7-.7v-5.4c0-.4.3-.7.7-.7h1.1C.6-2.6 1.3-1.3 1.3 0v1.7c0 1.3-.7 2.5-2.9 2.5"/></g><g id="g494" transform="translate(16.07 43.78)"><path id="path496" class="st1" d="M0 0c0 .3-.3.6-.7.6h-2.1v1.6H-1c.4 0 .7.3.7.6s-.3.6-.7.6h-1.8v1.5h2c.4 0 .7.3.7.6s-.3.6-.7.6h-2.6c-.4 0-.7-.3-.7-.7V.1c0-.5.4-.7.9-.7h2.5c.4 0 .7.3.7.6"/></g></g></g></g></svg>