<svg xmlns="http://www.w3.org/2000/svg" xml:space="preserve" width="66.667" height="66.667"><defs><clipPath clipPathUnits="userSpaceOnUse" id="a"><path d="M0 50h50V0H0Z"/></clipPath></defs><g clip-path="url(#a)" transform="matrix(1.33333 0 0 -1.33333 0 66.667)"><path d="M0 0a.844.844 0 0 0-.464.139C-.559.201-2.796 1.7-4.442 5.31a.85.85 0 0 0 1.547.705C-1.467 2.883.453 1.571.472 1.558A.851.851 0 0 0 0 0" style="fill:#ffffff;fill-opacity:1;fill-rule:nonzero;stroke:none" transform="translate(24.483 22.657)"/><path d="M0 0a.848.848 0 0 0-.561.211c-.173.153-1.716 1.524-2.226 2.545a.85.85 0 1 0 1.52.76C-.993 2.97 0 1.982.561 1.488A.849.849 0 0 0 0 0" style="fill:#ffffff;fill-opacity:1;fill-rule:nonzero;stroke:none" transform="translate(8.373 22.657)"/><path d="M0 0a.87.87 0 0 0-1.737 0A.87.87 0 0 0 0 0m-3.048 0c0-1.202.978-2.18 2.179-2.18 1.202 0 2.18.978 2.18 2.18 0 1.202-.978 2.18-2.18 2.18A2.182 2.182 0 0 1-3.048 0" style="fill:#ffffff;fill-opacity:1;fill-rule:nonzero;stroke:none" transform="translate(12.42 31.247)"/><path d="M0 0a.87.87 0 1 0 0-1.735A.87.87 0 0 0 0 0m0-3.048c1.202 0 2.18.978 2.18 2.179 0 1.202-.978 2.18-2.18 2.18a2.183 2.183 0 0 1-2.18-2.18c0-1.201.978-2.179 2.18-2.179" style="fill:#ffffff;fill-opacity:1;fill-rule:nonzero;stroke:none" transform="translate(15.148 37.202)"/><path d="M0 0c0 .365.329.687.744.687.403 0 .743-.322.743-.687v-6.392c0-.365-.34-.687-.743-.687-.415 0-.744.322-.744.687Z" style="fill:#ffffff;fill-opacity:1;fill-rule:nonzero;stroke:none" transform="translate(5.353 14.905)"/><path d="M0 0c0 .365.329.687.744.687.403 0 .743-.322.743-.687v-6.392c0-.365-.34-.687-.743-.687-.415 0-.744.322-.744.687Z" style="fill:none;stroke:#ffffff;stroke-width:.25600001;stroke-linecap:butt;stroke-linejoin:miter;stroke-miterlimit:10;stroke-dasharray:none;stroke-opacity:1" transform="translate(5.353 14.905)"/><path d="M0 0c0-.924.319-1.504 1.274-1.504.34 0 .617.086.882.258l.106.064c.138.086.213.162.457.162.403 0 .701-.301.701-.645 0-.623-1.073-1.149-2.199-1.149-1.858 0-2.708 1.117-2.708 2.814v2.127c0 1.697.85 2.814 2.708 2.814 1.126 0 2.199-.526 2.199-1.149 0-.344-.298-.644-.701-.644-.244 0-.319.075-.457.161l-.106.064a1.547 1.547 0 0 1-.882.258C.319 3.631 0 3.051 0 2.127Z" style="fill:#ffffff;fill-opacity:1;fill-rule:nonzero;stroke:none" transform="translate(9.642 10.652)"/><path d="M0 0c0-.924.319-1.504 1.274-1.504.34 0 .617.086.882.258l.106.064c.138.086.213.162.457.162.403 0 .701-.301.701-.645 0-.623-1.073-1.149-2.199-1.149-1.858 0-2.708 1.117-2.708 2.814v2.127c0 1.697.85 2.814 2.708 2.814 1.126 0 2.199-.526 2.199-1.149 0-.344-.298-.644-.701-.644-.244 0-.319.075-.457.161l-.106.064a1.547 1.547 0 0 1-.882.258C.319 3.631 0 3.051 0 2.127Z" style="fill:none;stroke:#ffffff;stroke-width:.25600001;stroke-linecap:butt;stroke-linejoin:miter;stroke-miterlimit:10;stroke-dasharray:none;stroke-opacity:1" transform="translate(9.642 10.652)"/><path d="M0 0c0 .816-.415 1.461-1.562 1.461h-.722v-4.856h.722C-.393-3.395 0-2.696 0-1.848zm-1.742-4.759h-1.2c-.446 0-.829.355-.829.774v6.037c0 .419.383.773.829.773h1.2c2.4 0 3.228-1.332 3.228-2.825v-1.848c0-1.514-.817-2.911-3.228-2.911" style="fill:#ffffff;fill-opacity:1;fill-rule:nonzero;stroke:none" transform="translate(18.03 12.682)"/><path d="M0 0c0 .816-.415 1.461-1.562 1.461h-.722v-4.856h.722C-.393-3.395 0-2.696 0-1.848zm-1.742-4.759h-1.2c-.446 0-.829.355-.829.774v6.037c0 .419.383.773.829.773h1.2c2.4 0 3.228-1.332 3.228-2.825v-1.848c0-1.514-.817-2.911-3.228-2.911z" style="fill:none;stroke:#ffffff;stroke-width:.25600001;stroke-linecap:butt;stroke-linejoin:miter;stroke-miterlimit:10;stroke-dasharray:none;stroke-opacity:1" transform="translate(18.03 12.682)"/><path d="M0 0h-2.645c-.403 0-.711.279-.711.655 0 .355.308.656.711.656H0c.393 0 .701-.301.701-.656C.701.279.393 0 0 0" style="fill:#ffffff;fill-opacity:1;fill-rule:nonzero;stroke:none" transform="translate(24.103 10.49)"/><path d="M0 0h-2.645c-.403 0-.711.279-.711.655 0 .355.308.656.711.656H0c.393 0 .701-.301.701-.656C.701.279.393 0 0 0Z" style="fill:none;stroke:#ffffff;stroke-width:.25600001;stroke-linecap:butt;stroke-linejoin:miter;stroke-miterlimit:10;stroke-dasharray:none;stroke-opacity:1" transform="translate(24.103 10.49)"/><path d="M0 0v-2.127c0-.859.403-1.461 1.274-1.461s1.275.602 1.275 1.461V0c0 .87-.34 1.45-1.275 1.45C.34 1.45 0 .87 0 0m-1.486-2.127V0c0 1.525.774 2.814 2.76 2.814 1.987 0 2.762-1.289 2.762-2.814v-2.127c0-1.568-.925-2.825-2.762-2.825-1.836 0-2.76 1.257-2.76 2.825" style="fill:#ffffff;fill-opacity:1;fill-rule:nonzero;stroke:none" transform="translate(27.564 12.779)"/><path d="M0 0v-2.127c0-.859.403-1.461 1.274-1.461s1.275.602 1.275 1.461V0c0 .87-.34 1.45-1.275 1.45C.34 1.45 0 .87 0 0Zm-1.486-2.127V0c0 1.525.774 2.814 2.76 2.814 1.987 0 2.762-1.289 2.762-2.814v-2.127c0-1.568-.925-2.825-2.762-2.825-1.836 0-2.76 1.257-2.76 2.825z" style="fill:none;stroke:#ffffff;stroke-width:.25600001;stroke-linecap:butt;stroke-linejoin:miter;stroke-miterlimit:10;stroke-dasharray:none;stroke-opacity:1" transform="translate(27.564 12.779)"/><path d="M0 0a2.197 2.197 0 0 1-2.196-2.195v-10.58A2.2 2.2 0 0 1 0-14.972h28.515a2.2 2.2 0 0 1 2.196 2.197v10.58A2.197 2.197 0 0 1 28.515 0Zm28.515-16.665H0a3.894 3.894 0 0 0-3.889 3.89v10.58A3.894 3.894 0 0 0 0 1.693h28.515a3.894 3.894 0 0 0 3.89-3.888v-10.58a3.894 3.894 0 0 0-3.89-3.89" style="fill:#ffffff;fill-opacity:1;fill-rule:nonzero;stroke:none" transform="translate(4.232 19.24)"/><path d="M0 0a.846.846 0 1 0-1.693 0A.846.846 0 0 0 0 0" style="fill:#ffffff;fill-opacity:1;fill-rule:nonzero;stroke:none" transform="translate(40.415 9.6)"/><path d="M0 0c1.997 2.013 2.929 3.555 3.24 4.069.046.076.077.128.097.157.824 1.175 2.049 3.882 2.794 6.783.694 2.703 1.183 6.401-.208 9.181 4.043-2.497 6.476-6.946 6.391-11.773-.077-4.336-2.153-8.705-6.173-12.989C3.79-3.089 1.726-1.552 0 0m-5.485 8.667a4.265 4.265 0 0 0 4.26 4.259 4.264 4.264 0 0 0 4.259-4.259c0-2.783-2.608-5.845-4.259-7.504-1.652 1.659-4.26 4.719-4.26 7.504m-1.29 2.138c-.657 2.324-1.36 6.05-.105 8.595.862 1.747 2.589 2.688 5.135 2.796.183.008.367.012.549.012 2.815 0 4.708-.945 5.626-2.808 1.255-2.544.552-6.27-.105-8.594a5.964 5.964 0 0 1-5.55 3.81 5.963 5.963 0 0 1-5.55-3.811M12.087-7.892A68.92 68.92 0 0 0 7.613-5.47c4.158 4.52 6.308 9.181 6.39 13.857.145 8.253-6.185 15.056-14.411 15.488a15.4 15.4 0 0 1-.829.022c-4.494 0-8.724-1.978-11.646-5.436a3.813 3.813 0 0 1-2.991 1.451 3.767 3.767 0 0 1-2.154-.682l-.139-.096a2.097 2.097 0 0 0-1.2-.374 2.09 2.09 0 0 0-1.201.374l-.139.096c-.634.44-1.38.673-2.157.673a3.793 3.793 0 0 1-2.973-1.418.838.838 0 0 1-.182-.62.838.838 0 0 1 .839-.754c.258 0 .498.115.659.315a2.184 2.184 0 0 0 1.661.801c.421 0 .821-.129 1.191-.385l.138-.096a3.774 3.774 0 0 1 2.164-.674c.781 0 1.529.233 2.163.674l.139.096a2.09 2.09 0 0 0 1.193.379c.811 0 1.566-.479 1.911-1.201a15.095 15.095 0 0 1-2.494-8.353c0-1.559.143-3.544.893-5.201 0 0 1.889-.123 1.594.532-.719 1.593-.798 3.247-.798 4.669 0 4.672 2.426 9.012 6.375 11.489-1.369-2.777-.881-6.458-.19-9.147.746-2.902 1.97-5.609 2.794-6.784.023-.033.059-.092.109-.176.312-.517 1.175-1.935 3.034-3.848l1.958-1.838c3.154-2.748 7.283-5.422 12.041-7.777a1.824 1.824 0 0 0 .868-2.385l-1.634-3.611a1.82 1.82 0 0 0-2.46-.88c-.275.136-.549.272-.822.409a.84.84 0 0 1-1.134-.372.84.84 0 0 1 .373-1.135c.277-.141.556-.28.837-.418a3.488 3.488 0 0 1 1.549-.362h.001c1.377 0 2.627.806 3.195 2.061l1.633 3.612c.785 1.734.032 3.758-1.674 4.603" style="fill:#ffffff;fill-opacity:1;fill-rule:nonzero;stroke:none" transform="translate(35.69 24.322)"/><path d="M0 0h2.066l-.209.27a9.243 9.243 0 0 0-.287.444c-.278.446-.657.791-.99 1.068a2.103 2.103 0 0 0-.613 2.41l.062.156a3.81 3.81 0 0 1-.961 4.218l-.125.115a2.08 2.08 0 0 0-.634 2.025 2.081 2.081 0 0 0 1.449 1.549l.161.048a3.8 3.8 0 0 1 2.337 2.003.84.84 0 0 1 .034.645.836.836 0 0 1-.432.481.84.84 0 0 1-.364.083.85.85 0 0 1-.763-.482c-.19-.398-.589-.92-1.458-1.159a3.754 3.754 0 0 1-2.612-2.792 3.756 3.756 0 0 1 1.142-3.649l.124-.113c.646-.59.861-1.532.534-2.344l-.062-.154A3.784 3.784 0 0 1-.468.457 3.57 3.57 0 0 0 0 0" style="fill:#ffffff;fill-opacity:1;fill-rule:nonzero;stroke:none" transform="translate(7.121 23.628)"/></g></svg>