<svg xmlns="http://www.w3.org/2000/svg" xml:space="preserve" width="66.67" height="69.33"><defs><clipPath clipPathUnits="userSpaceOnUse" id="a"><path d="M0 52h50V0H0Z"/></clipPath></defs><g clip-path="url(#a)" transform="matrix(1.33333 0 0 -1.33333 0 69.33)"><path d="M5.46 28.96c.4 0 .73.32.73.67v6.25c0 .36-.33.67-.73.67-.4 0-.73-.31-.73-.67v-6.25c0-.35.32-.67.73-.67M9.43 35.27c.33 0 .6-.08.87-.25l.1-.06c.14-.09.21-.16.45-.16.4 0 .7.3.7.63 0 .61-1.06 1.12-2.17 1.12-1.84 0-2.67-1.09-2.67-2.75v-2.08c0-1.65.83-2.75 2.67-2.75 1.1 0 2.16.52 2.16 1.13 0 .33-.29.63-.69.63-.24 0-.31-.08-.45-.16l-.1-.06a1.54 1.54 0 0 0-.87-.26c-.94 0-1.26.57-1.26 1.47v2.08c0 .9.32 1.47 1.26 1.47M15.66 31.9c0-.83-.39-1.51-1.54-1.51h-.71v4.75h.71c1.13 0 1.54-.63 1.54-1.43Zm-1.72 4.57h-1.18c-.44 0-.82-.35-.82-.76v-5.9c0-.4.38-.75.82-.75h1.18c2.38 0 3.19 1.36 3.19 2.84v1.8c0 1.47-.82 2.77-3.19 2.77M20.45 28.97c.4 0 .73.32.73.68v6.2c0 .4-.34.7-.78.7a.76.76 0 0 1-.4-.11l-2.08-1.22a.64.64 0 0 1-.32-.59c0-.45.36-.6.67-.6.24 0 .42.09.62.21l.82.5v-5.1c0-.35.33-.67.74-.67M23.98 31.26v2.96c0 .67.27 1.15.96 1.15.7 0 .96-.48.96-1.15v-2.96c0-.6-.33-1-.96-1-.63 0-.96.4-.96 1m3.38 0v2.89c0 1.38-.74 2.5-2.42 2.5-1.69 0-2.42-1.12-2.42-2.5v-2.89c0-1.28.86-2.3 2.42-2.3s2.42 1.02 2.42 2.3M28.24 32.85c-.4 0-.7-.3-.7-.64 0-.37.3-.64.7-.64h2.6c.4 0 .7.27.7.64 0 .34-.3.64-.7.64ZM34.69 35.27c.33 0 .6-.08.87-.25l.1-.06c.14-.09.21-.16.45-.16.4 0 .7.3.7.63 0 .61-1.06 1.12-2.17 1.12-1.83 0-2.67-1.09-2.67-2.75v-2.08c0-1.65.84-2.75 2.67-2.75 1.1 0 2.16.52 2.16 1.13 0 .33-.29.63-.69.63-.24 0-.31-.08-.45-.16l-.1-.06a1.54 1.54 0 0 0-.87-.26c-.94 0-1.26.57-1.26 1.47v2.08c0 .9.32 1.47 1.26 1.47M43.13 28.96c.39 0 .72.3.72.66v6.24c0 .38-.33.7-.75.7-.3 0-.58-.1-.73-.4l-1.86-3.72-1.86 3.7c-.14.28-.4.41-.74.41-.42 0-.75-.3-.75-.69v-6.24c0-.35.32-.66.71-.66.41 0 .76.3.76.66v3.61l1.19-2.35c.14-.27.4-.4.68-.4.3 0 .56.13.7.4l1.18 2.35v-3.6c0-.36.35-.67.75-.67M33.02 19.1c0 .19-.07.36-.2.5a.71.71 0 0 1-1 0l-1.88-1.89a.7.7 0 0 1 0-.98l1.86-1.86a.7.7 0 1 1 .98 1l-1.4 1.31 1.43 1.43c.14.13.2.3.2.5M40.53 17.22a.7.7 0 0 1-.2.5l-1.88 1.88a.72.72 0 0 1-.99 0 .7.7 0 0 1 0-1l1.43-1.34-1.4-1.4a.7.7 0 0 1 .49-1.2.7.7 0 0 1 .5.21l1.85 1.86c.13.13.2.3.2.49M36.59 20.7l-.24.06c-.28.04-.55-.16-.66-.42l-2.42-5.67a.69.69 0 0 1 0-.53.7.7 0 0 1 .42-.4l.19-.03h.02a.7.7 0 0 1 .64.42l2.41 5.67c.08.17.08.36 0 .53-.06.17-.2.3-.36.37" fill="#ffffff"/><path d="M4.67 49.95h39.26a2.42 2.42 0 0 0 2.42-2.42v-5.7H2.25v5.7a2.42 2.42 0 0 0 2.42 2.42m20.45-38.83H4.67a2.42 2.42 0 0 0-2.42 2.42v26.6h44.1V20.9a.85.85 0 1 1 1.7 0v26.62a4.13 4.13 0 0 1-4.12 4.12H4.67a4.13 4.13 0 0 1-4.12-4.12V13.54a4.13 4.13 0 0 1 4.12-4.12h20.45a.85.85 0 1 1 0 1.7" fill="#ffffff"/><path d="m47.2 3.52-.27-.22a1.52 1.52 0 0 0-2.16.2L39.9 9.3l2.62 2.2 4.86-5.82a1.52 1.52 0 0 0-.2-2.16m-17.75 8.94A7.44 7.44 0 0 0 40.84 22a7.39 7.39 0 0 0 1.7-5.42 7.44 7.44 0 0 0-13.1-4.11m19.25-5.7-5.37 6.42a9.1 9.1 0 0 1-1.18 9.9 9.14 9.14 0 1 1-3.9-14.45l5.23-6.24a3.22 3.22 0 0 1 4.55-.4l.27.22a3.21 3.21 0 0 1 .4 4.56M7.7 46.67a.7.7 0 1 0 0-1.42.7.7 0 0 0 0 1.42m0-3.12a2.41 2.41 0 1 1-.01 4.82 2.41 2.41 0 0 1 0-4.82M14.26 46.67a.7.7 0 1 0 0-1.42.7.7 0 0 0 0 1.42m0-3.12a2.41 2.41 0 1 1 0 4.82 2.41 2.41 0 0 1 0-4.82M20.83 46.67a.7.7 0 1 0 0-1.42.7.7 0 0 0 0 1.42m0-3.12a2.41 2.41 0 1 1 0 4.82 2.41 2.41 0 0 1 0-4.82M5.4 21h5.7a.85.85 0 1 1 0 1.7H5.4a.85.85 0 1 1 0-1.7M14.54 21.85c0-.47.38-.85.85-.85h5.7a.85.85 0 1 1 0 1.7h-5.7a.85.85 0 0 1-.85-.85M5.4 15h17.7a.85.85 0 1 1 0 1.7H5.4a.85.85 0 1 1 0-1.7" fill="#ffffff"/></g></svg>