<svg xmlns="http://www.w3.org/2000/svg" xml:space="preserve" width="64" height="65.98"><defs><clipPath clipPathUnits="userSpaceOnUse" id="a"><path d="M0 49.48h48V0H0Z"/></clipPath></defs><g clip-path="url(#a)" transform="matrix(1.33333 0 0 -1.33333 0 65.98)"><path d="M4.67 34.75c-.39 0-.69-.27-.69-.64v-3.96c0-1.39.87-2.42 2.43-2.42 1.53 0 2.43 1.02 2.43 2.42v3.96c0 .34-.3.64-.7.64a.66.66 0 0 1-.66-.64v-3.96c0-.69-.34-1.18-1.07-1.18s-1.07.48-1.07 1.18v3.96c0 .35-.31.64-.67.64M14.95 34.75c-.27 0-.53-.09-.67-.37l-1.72-3.43-1.72 3.42c-.13.26-.37.38-.68.38-.4 0-.7-.27-.7-.64v-5.77c0-.33.3-.6.66-.6.38 0 .7.27.7.6v3.34l1.1-2.17a.67.67 0 0 1 .63-.37c.27 0 .51.12.64.37l1.1 2.17v-3.34c0-.33.32-.6.69-.6.36 0 .67.27.67.6v5.77c0 .35-.3.64-.7.64M17.04 34.75c-.37 0-.67-.29-.67-.62v-5.64c0-.38.33-.67.72-.67h2.73c.37 0 .66.27.66.62 0 .34-.31.6-.66.6h-2.1v5.09c0 .33-.31.62-.68.62M25.14 29.86c0 1.38-1.03 1.7-1.98 2-.21.07-.45.14-.7.27-.16.08-.4.22-.4.65 0 .57.44.74.92.74.33 0 .55-.08.73-.15.17-.05.3-.1.48-.1.42 0 .67.29.67.6 0 .74-1.37.88-1.94.88-1.38 0-2.25-.76-2.25-2 0-1.42 1.03-1.74 1.98-2.03.26-.09.5-.17.7-.26.18-.08.4-.22.4-.66 0-.53-.34-.83-1-.83-.42 0-.73.11-.96.19-.19.07-.34.12-.49.12a.64.64 0 0 1-.64-.62c0-.68 1.36-.93 2.07-.93 1.39 0 2.41.78 2.41 2.13M25.21 25.68h5.71c.38 0 .67.27.67.62s-.33.62-.67.62h-5.7c-.35 0-.68-.27-.68-.62s.3-.62.67-.62M33.54 33.57c.3 0 .56-.08.8-.24l.1-.05c.12-.08.2-.15.41-.15.37 0 .64.27.64.58 0 .57-.97 1.04-2 1.04-1.7 0-2.47-1-2.47-2.54v-1.92c0-1.54.78-2.55 2.47-2.55 1.03 0 2 .48 2 1.04 0 .31-.27.58-.64.58-.22 0-.29-.06-.41-.14l-.1-.06c-.24-.16-.5-.23-.8-.23-.87 0-1.16.52-1.16 1.36v1.92c0 .83.29 1.36 1.16 1.36M36.47 34.75c-.39 0-.69-.27-.69-.64v-3.96c0-1.39.87-2.42 2.43-2.42 1.53 0 2.43 1.02 2.43 2.42v3.96c0 .34-.3.64-.7.64a.66.66 0 0 1-.66-.64v-3.96c0-.69-.34-1.18-1.07-1.18s-1.07.48-1.07 1.18v3.96c0 .35-.31.64-.67.64M41.3 34.13v-5.78c0-.33.3-.62.68-.62.37 0 .68.3.68.62v5.78c0 .33-.31.62-.68.62-.38 0-.68-.29-.68-.62M31.87 17.53c0 .19-.07.36-.2.49a.7.7 0 0 1-.97 0l-1.85-1.85a.68.68 0 0 1 0-.97l1.83-1.82a.68.68 0 0 1 .97 0 .68.68 0 0 1 0 .97l-1.38 1.3 1.4 1.4c.13.13.2.3.2.48M38.83 15.95zm.42-.26a.7.7 0 0 1-.2.48l-1.85 1.85a.7.7 0 0 1-.97 0 .69.69 0 0 1 0-.98l1.4-1.32-1.37-1.37a.68.68 0 1 1 .97-.97l1.82 1.82c.13.13.2.3.2.49M35.38 19.1l-.24.06a.67.67 0 0 1-.65-.4l-2.37-5.58a.68.68 0 0 1 0-.52.7.7 0 0 1 .4-.38l.2-.04h.02c.27 0 .52.16.63.4l2.36 5.58c.08.16.08.35.01.52-.07.16-.2.3-.36.37" fill="#ffffff"/><path d="M4.05 47.82h38.53a2.38 2.38 0 0 0 2.38-2.38v-5.59H1.66v5.59a2.38 2.38 0 0 0 2.39 2.38M24.1 9.7H4.05a2.38 2.38 0 0 0-2.38 2.38v26.1h43.3V19.3a.83.83 0 1 1 1.66 0v26.14a4.05 4.05 0 0 1-4.05 4.04H4.05A4.05 4.05 0 0 1 0 45.44V12.08a4.05 4.05 0 0 1 4.05-4.05H24.1a.83.83 0 1 1 0 1.67" fill="#ffffff"/><path d="m45.8 2.24-.27-.22a1.51 1.51 0 0 0-2.12.19l-4.77 5.7 2.57 2.15 4.77-5.7a1.5 1.5 0 0 0-.19-2.12m-17.43 8.78a7.3 7.3 0 0 0 11.19 9.36 7.25 7.25 0 0 0-.91-10.28 7.3 7.3 0 0 0-10.28.92m18.9-5.59L42 11.73a8.95 8.95 0 0 1-7.25 12.9 8.9 8.9 0 0 1-6.54-2.06 8.9 8.9 0 0 1-3.18-6.08A8.95 8.95 0 0 1 37 7.27l5.13-6.13a3.17 3.17 0 0 1 4.47-.4l.26.22a3.18 3.18 0 0 1 .4 4.47M7.01 44.6a.7.7 0 1 0 0-1.4.7.7 0 0 0 0 1.4m0-3.07a2.37 2.37 0 1 1 0 4.74 2.37 2.37 0 0 1 0-4.74M13.46 44.6a.7.7 0 1 0 0-1.4.7.7 0 0 0 0 1.4m0-3.07a2.37 2.37 0 1 1 0 4.74 2.37 2.37 0 0 1 0-4.74M19.9 44.6a.7.7 0 1 0 0-1.4.7.7 0 0 0 0 1.4m0-3.07a2.37 2.37 0 1 1 0 4.74 2.37 2.37 0 0 1 0-4.74M4.75 21.36h5.6a.83.83 0 1 1 0 1.67h-5.6a.83.83 0 1 1 0-1.67M13.74 22.2c0-.47.37-.84.83-.84h5.6a.83.83 0 1 1 0 1.67h-5.6a.83.83 0 0 1-.83-.84M22.97 17.7c0 .46-.38.83-.84.83H4.75a.83.83 0 1 1 0-1.67h17.38c.46 0 .84.37.84.83M4.75 14.03a.83.83 0 1 1 0-1.67h5.6a.83.83 0 1 1 0 1.67Z" fill="#ffffff"/></g></svg>