<svg xmlns="http://www.w3.org/2000/svg" xml:space="preserve" width="66.67" height="69.33"><defs><clipPath clipPathUnits="userSpaceOnUse" id="a"><path d="M0 52h50V0H0Z"/></clipPath></defs><g clip-path="url(#a)" transform="matrix(1.33333 0 0 -1.33333 0 69.33)"><path d="M5.28 27.52c.4 0 .73.31.73.67v6.25c0 .35-.33.67-.73.67-.4 0-.73-.32-.73-.67v-6.25c0-.36.32-.67.73-.67M11.36 28.65c0 .34-.3.63-.69.63-.24 0-.31-.07-.45-.15l-.1-.07a1.54 1.54 0 0 0-.87-.25c-.95 0-1.26.57-1.26 1.47v2.08c0 .9.31 1.47 1.26 1.47.33 0 .6-.09.87-.25l.1-.07c.14-.08.21-.15.45-.15.4 0 .7.29.7.63 0 .6-1.07 1.12-2.18 1.12-1.83 0-2.66-1.1-2.66-2.75v-2.08c0-1.66.83-2.75 2.66-2.75 1.11 0 2.17.51 2.17 1.12M15.48 30.46c0-.83-.39-1.51-1.54-1.51h-.71v4.74h.71c1.13 0 1.54-.63 1.54-1.43Zm1.46 0v1.8c0 1.46-.81 2.76-3.18 2.76h-1.18c-.44 0-.82-.34-.82-.75v-5.9c0-.41.38-.76.82-.76h1.18c2.38 0 3.18 1.37 3.18 2.85M21 28.2v6.2c0 .4-.34.7-.78.7a.76.76 0 0 1-.4-.1l-2.08-1.22a.65.65 0 0 1-.32-.6c0-.44.35-.6.67-.6.24 0 .42.1.62.22l.82.5v-5.1c0-.36.33-.67.74-.67.4 0 .73.31.73.67M25.72 32.78v-2.96c0-.6-.33-1.01-.96-1.01-.63 0-.96.4-.96 1v2.97c0 .67.27 1.14.96 1.14s.96-.47.96-1.14m-3.38-.07v-2.9c0-1.27.86-2.3 2.42-2.3s2.42 1.03 2.42 2.3v2.9c0 1.38-.74 2.5-2.42 2.5-1.69 0-2.42-1.12-2.42-2.5M28.06 31.4c-.4 0-.7-.3-.7-.64 0-.36.3-.64.7-.64h2.6c.4 0 .7.28.7.64 0 .35-.3.64-.7.64ZM34.5 33.83c.34 0 .62-.09.88-.25l.1-.07c.14-.08.21-.15.45-.15.4 0 .7.29.7.63 0 .6-1.06 1.12-2.17 1.12-1.84 0-2.67-1.1-2.67-2.75v-2.08c0-1.66.83-2.75 2.67-2.75 1.1 0 2.16.51 2.16 1.12 0 .34-.29.63-.69.63-.24 0-.31-.07-.45-.15l-.1-.07a1.54 1.54 0 0 0-.87-.25c-.94 0-1.26.57-1.26 1.47v2.08c0 .9.32 1.47 1.26 1.47M42.95 27.52c.39 0 .72.3.72.66v6.24c0 .37-.33.69-.75.69-.3 0-.58-.1-.73-.4l-1.86-3.72-1.86 3.71c-.14.27-.4.41-.74.41-.42 0-.75-.3-.75-.7v-6.23c0-.36.32-.66.71-.66.41 0 .76.3.76.66v3.61l1.19-2.35c.14-.27.4-.4.68-.4.3 0 .56.13.69.4l1.2 2.35v-3.61c0-.36.34-.66.74-.66M8.97 16.52c.4 0 .74.31.74.68v6.24c0 .35-.35.67-.74.67-.38 0-.73-.32-.73-.67v-2.45H6.01v2.45c0 .35-.33.67-.73.67-.4 0-.73-.32-.73-.67V17.2c0-.37.32-.68.73-.68.4 0 .73.31.73.68v2.45h2.23V17.2c0-.37.35-.68.73-.68M12.94 22.83c.34 0 .61-.09.87-.25l.1-.07c.14-.08.22-.15.46-.15.4 0 .69.29.69.63 0 .6-1.06 1.12-2.17 1.12-1.83 0-2.67-1.1-2.67-2.75v-2.08c0-1.66.84-2.75 2.67-2.75 1.11 0 2.17.51 2.17 1.12 0 .34-.3.63-.7.63-.23 0-.3-.07-.44-.15l-.1-.07a1.54 1.54 0 0 0-.88-.25c-.94 0-1.25.57-1.25 1.47v2.08c0 .9.31 1.47 1.25 1.47M17.9 22.83c.34 0 .62-.09.88-.25l.1-.07c.14-.08.21-.15.45-.15.4 0 .7.29.7.63 0 .6-1.06 1.12-2.17 1.12-1.84 0-2.67-1.1-2.67-2.75v-2.08c0-1.66.83-2.75 2.67-2.75 1.1 0 2.16.51 2.16 1.12 0 .34-.29.63-.69.63-.24 0-.31-.07-.45-.15l-.1-.07a1.54 1.54 0 0 0-.87-.25c-.94 0-1.26.57-1.26 1.47v2.08c0 .9.32 1.47 1.26 1.47M32.84 18.66c0 .18-.07.36-.2.5a.71.71 0 0 1-1 0l-1.88-1.9a.7.7 0 0 1 0-.98l1.86-1.86a.7.7 0 1 1 .98 1l-1.4 1.32 1.43 1.42c.14.14.2.31.2.5M38.07 14.65Zm-.57 4.27Zm2.85-2.14a.7.7 0 0 1-.2.49l-1.88 1.88a.72.72 0 0 1-1 0 .7.7 0 0 1 .01-1l1.42-1.34-1.4-1.4a.7.7 0 0 1 .5-1.2.7.7 0 0 1 .5.21l1.85 1.86c.13.13.2.3.2.5M36.4 20.26l-.23.05a.69.69 0 0 1-.66-.41l-2.42-5.68a.68.68 0 0 1 .42-.92l.19-.04h.02a.7.7 0 0 1 .64.42l2.41 5.68c.07.16.08.35 0 .52-.06.17-.2.3-.36.38" fill="#0098da"/><path d="M4.5 49.5h39.25a2.42 2.42 0 0 0 2.42-2.42V41.4H2.07v5.7A2.42 2.42 0 0 0 4.5 49.5m20.44-38.82H4.5a2.42 2.42 0 0 0-2.42 2.42v26.59h44.1V20.46a.85.85 0 1 1 1.7 0v26.62a4.13 4.13 0 0 1-4.12 4.12H4.49a4.13 4.13 0 0 1-4.12-4.12V13.1A4.13 4.13 0 0 1 4.5 8.98h20.44a.85.85 0 1 1 0 1.7" fill="#0098da"/><path d="m47.02 3.08-.27-.23a1.54 1.54 0 0 0-2.16.2l-4.86 5.8 2.62 2.2 4.86-5.81a1.52 1.52 0 0 0-.2-2.16M34.3 9.38a7.44 7.44 0 1 0 1.34 14.8 7.44 7.44 0 0 0-1.34-14.8M48.5 6.33l-5.37 6.42a9.1 9.1 0 0 1-1.18 9.9 9.07 9.07 0 0 1-6.2 3.24 9.14 9.14 0 1 1 2.3-17.69l5.22-6.24a3.22 3.22 0 0 1 4.56-.4l.27.21a3.21 3.21 0 0 1 .4 4.56M7.51 46.22a.7.7 0 1 0 0-1.42.7.7 0 0 0 0 1.42m0-3.12a2.41 2.41 0 1 1 0 4.83 2.41 2.41 0 0 1 0-4.83M14.08 46.22a.7.7 0 1 0 0-1.42.7.7 0 0 0 0 1.42m0-3.12a2.41 2.41 0 1 1 0 4.83 2.41 2.41 0 0 1 0-4.83M20.64 46.22a.7.7 0 1 0 0-1.42.7.7 0 0 0 0 1.42m0-3.12a2.41 2.41 0 1 1 0 4.83 2.41 2.41 0 0 1 0-4.83" fill="#0098da"/></g></svg>