<svg version="1.1" id="svg10" xmlns="http://www.w3.org/2000/svg" x="0" y="0" viewBox="0 0 53.3 53.3" xml:space="preserve"><style>.st0{fill:#ffffff}</style><path class="st0" d="M7.4 20.4c-.4 0-.7.2-.7.5v4.8c0 .3.3.5.7.5.4 0 .7-.2.7-.5v-4.8c0-.3-.3-.5-.7-.5zM11.6 21.4c.3 0 .6.1.8.2h.1c.1.1.2.1.4.1.4 0 .6-.2.6-.5 0-.5-1-.9-2-.9-1.7 0-2.5.8-2.5 2.1V24c0 1.3.8 2.1 2.5 2.1 1 0 2-.4 2-.9 0-.3-.3-.5-.6-.5-.2 0-.3.1-.4.1h-.1c-.2.1-.5.2-.8.2-.9 0-1.2-.4-1.2-1.1v-1.6c0-.5.3-.9 1.2-.9zM19.3 24v-1.4c0-1.1-.8-2.1-3-2.1h-1.1c-.4 0-.8.3-.8.6v4.6c0 .3.4.6.8.6h1.1c2.2-.1 3-1.2 3-2.3zm-1.4 0c0 .6-.4 1.2-1.4 1.2h-.7v-3.7h.7c1.1 0 1.4.5 1.4 1.1V24zM22.8 26.2c.4 0 .7-.2.7-.5v-4.8c0-.3-.3-.5-.7-.5-.1 0-.2 0-.4.1l-1.9.9c-.2.1-.3.2-.3.5s.3.5.6.5c.2 0 .4-.1.6-.2l.8-.4v3.9c0 .3.3.5.6.5zM25.3 22.2v2.2c0 1 .8 1.8 2.3 1.8 1.5 0 2.3-.8 2.3-1.8v-2.2c0-1.1-.7-1.9-2.3-1.9-1.7 0-2.3.9-2.3 1.9zm3.1 0v2.3c0 .5-.3.8-.9.8-.6 0-.9-.3-.9-.8v-2.3c0-.5.3-.9.9-.9.6 0 .9.4.9.9zM31.1 23.2c-.4 0-.7.2-.7.5s.3.5.7.5h2.4c.4 0 .6-.2.6-.5s-.3-.5-.6-.5h-2.4zM37.5 21.4c.3 0 .6.1.8.2h.1c.1.1.2.1.4.1.4 0 .6-.2.6-.5 0-.5-1-.9-2-.9-1.7 0-2.5.8-2.5 2.1V24c0 1.3.8 2.1 2.5 2.1 1 0 2-.4 2-.9 0-.3-.3-.5-.6-.5-.2 0-.3.1-.4.1h-.1c-.2.1-.5.2-.8.2-.9 0-1.2-.4-1.2-1.1v-1.6c.1-.5.4-.9 1.2-.9zM45.9 26.2c.4 0 .7-.2.7-.5v-4.8c0-.3-.3-.5-.7-.5-.3 0-.5.1-.7.3l-1.7 2.9-1.7-2.9c-.1-.2-.4-.3-.7-.3-.4 0-.7.2-.7.5v4.8c0 .3.3.5.7.5.4 0 .7-.2.7-.5v-2.8l1.1 1.8c.1.2.4.3.6.3.3 0 .5-.1.6-.3l1.1-1.8v2.8c0 .3.3.5.7.5zM40.4 13.8c.5 0 .9-.4.9-.9s-.4-.9-.9-.9-.9.4-.9.9.4.9.9.9zM7.8 8.5a1.9 1.9 0 103.8 0 1.9 1.9 0 00-3.8 0zm2.6 0c0 .4-.3.7-.7.7-.4 0-.7-.3-.7-.7 0-.4.3-.7.7-.7.4 0 .7.3.7.7zM12.5 8.5a1.9 1.9 0 103.8 0 1.9 1.9 0 00-3.8 0zm2.6 0c0 .4-.3.7-.7.7-.4 0-.7-.3-.7-.7 0-.4.3-.7.7-.7.4 0 .7.3.7.7zM17.1 8.5A1.9 1.9 0 1019 6.6c-1 0-1.9.9-1.9 1.9zm2.6 0c0 .4-.3.7-.7.7s-.7-.3-.7-.7.3-.7.7-.7.7.4.7.7zM47.1 33c-2.4-1.5-5.3-2-8.1-1.3s-5.1 2.4-6.6 4.8a10.7 10.7 0 009.1 16.3c3.6 0 7.1-1.8 9.1-5.1 3.1-5.1 1.5-11.7-3.5-14.7zm2 13.7a8.93 8.93 0 01-12.3 2.9c-2-1.2-3.5-3.2-4-5.5-.6-2.3-.2-4.7 1.1-6.8 1.3-2 3.2-3.5 5.5-4 .7-.2 1.4-.2 2.1-.2 1.6 0 3.2.5 4.7 1.3 4.2 2.6 5.5 8.1 2.9 12.3z"/><path class="st0" d="M38.7 38.6c-.1-.1-.3-.2-.5-.2s-.3.1-.5.2l-3.3 3.3c-.1.1-.2.3-.2.5s.1.3.2.5l3.2 3.2c.1.1.3.2.5.2s.3-.1.5-.2c.1-.1.2-.3.2-.5s-.1-.3-.2-.5l-2.8-2.7 2.9-2.9c.2-.2.2-.6 0-.9zM45 38.4c-.2 0-.3.1-.5.2-.3.3-.3.7 0 .9l2.9 2.7-2.8 2.8c-.3.3-.3.7 0 .9.1.1.3.2.5.2s.3-.1.5-.2l3.2-3.2c.1-.1.2-.3.2-.5s-.1-.3-.2-.5l-3.3-3.3c-.1.1-.3 0-.5 0zM43.7 36.6h-.2c-.3 0-.5.2-.6.4L39 47.1c-.1.2-.1.3 0 .5s.2.3.4.3h.2c.3 0 .5-.2.6-.4L44 37.4c.2-.3.1-.7-.3-.8z"/><path class="st0" d="M29.3 44.4H7.1c-1.2 0-2.2-1-2.2-2.2V13.8h31.9c.5 0 .9-.4.9-.9s-.4-.9-.9-.9H4.9V7.7c0-1.8 1.4-3.2 3.2-3.2h38.2c1.8 0 3.2 1.4 3.2 3.2V12h-5.4c-.5 0-.9.4-.9.9s.4.9.9.9h5.4v18.6c0 .4.4.8.9.8s.8-.4.9-.8V7.7c0-2.8-2.3-5-5-5H8.1c-2.8 0-5 2.3-5 5v34.5c0 2.2 1.8 4 4 4h22.2c.5 0 .9-.4.9-.9s-.4-.9-.9-.9z"/><path class="st0" d="M6.8 32.8c0 1.3 1 2.3 2.3 2.3h4.7c1.2 0 2.3-1 2.3-2.3 0-1.2-1-2.3-2.3-2.3H9.1c-1.2 0-2.3 1-2.3 2.3zm2.3-.8h4.7c.4 0 .8.3.8.8 0 .4-.3.8-.8.8H9.1c-.4 0-.8-.3-.8-.8.1-.5.4-.8.8-.8zM9.1 41.1h12.5c1.2 0 2.3-1 2.3-2.3 0-1.2-1-2.3-2.3-2.3H9.1c-1.2 0-2.3 1-2.3 2.3 0 1.3 1.1 2.3 2.3 2.3zm0-3h12.5c.4 0 .8.3.8.8 0 .4-.3.8-.8.8H9.1c-.4 0-.8-.3-.8-.8.1-.4.4-.8.8-.8zM29.2 30.5h-8.8c-1.2 0-2.3 1-2.3 2.3 0 1.3 1 2.3 2.3 2.3h8.8c1.2 0 2.3-1 2.3-2.3-.1-1.3-1.1-2.3-2.3-2.3zm0 3h-8.8c-.4 0-.8-.3-.8-.8 0-.4.3-.8.8-.8h8.8c.4 0 .8.3.8.8-.1.5-.4.8-.8.8z"/></svg>