<svg version="1.1" id="svg116" xmlns="http://www.w3.org/2000/svg" x="0" y="0" viewBox="0 0 53.3 53.3" xml:space="preserve"><style>.st0{fill:#0098da}</style><path class="st0" d="M13.9 19.3c0-1-.6-1.9-2.7-1.9H9.4c-.4 0-.8.3-.8.7v5.3c0 .3.3.6.7.6.4 0 .8-.3.8-.6v-2.1h.7l1.8 2.4c.1.2.4.3.6.3.5 0 1-.5.7-.9L12.4 21c.9-.2 1.5-.8 1.5-1.7zm-2.6.7h-1.2v-1.5h1.1c1 0 1.2.4 1.2.8s-.4.7-1.1.7zM19.4 23.3c0-.1 0-.2-.1-.3l-1.4-1.6 1.3-1.5c.1-.1.1-.2.1-.3 0-.3-.4-.6-.7-.6-.3 0-.5.1-.7.3l-.9 1-.8-.9c-.1-.2-.3-.4-.7-.4-.4 0-.7.3-.7.6 0 .1 0 .2.1.3.4.5.9 1 1.3 1.5-.5.6-.9 1-1.4 1.6-.1.1-.1.2-.1.3 0 .3.3.6.8.6.3 0 .5-.1.6-.3.3-.4.7-.8 1-1.2.4.5.6.7.9 1.1.2.2.3.3.7.3.4 0 .7-.2.7-.5zM25 17.2c-.4 0-.8.3-.8.6v3.5c-1-1.5-1.5-2.3-2.5-3.7a.9.9 0 00-.7-.3c-.5 0-.8.3-.8.6v5.4c0 .3.3.6.7.6.4 0 .8-.3.8-.6v-3.4l2.5 3.7c.1.2.4.3.7.3.5 0 .8-.3.8-.6v-5.4c0-.4-.3-.7-.7-.7zM31.6 22.1v-1.4c0-1-.8-1.7-2.3-1.7-1.5 0-2.3.7-2.3 1.7v1.4c0 1 .8 1.7 2.3 1.7 1.5 0 2.3-.7 2.3-1.7zm-1.5 0c0 .4-.3.6-.8.6-.6 0-.8-.2-.8-.6v-1.4c0-.4.3-.6.8-.6.6 0 .8.2.8.6v1.4zM35.3 20.2c.4 0 .8-.2.8-.6 0-.3-.2-.6-.9-.6-.3 0-.8.1-1.3.4-.2-.2-.3-.3-.6-.3-.4 0-.7.2-.7.6 0 .1.1.2.1.3.1.1.1.2.1.4v2.8c0 .3.3.6.7.6.4 0 .7-.2.7-.6v-2.8-.2h1.1zM43.7 23.8c.5 0 .7-.2.7-.6v-2.6c0-1-.8-1.6-2.1-1.6-.6 0-1 .1-1.6.4-.4-.3-.8-.4-1.2-.4-.5 0-1 .1-1.5.4-.1-.2-.3-.3-.6-.3-.4 0-.7.2-.7.5 0 .1 0 .2.2.3 0 .1.1.1.1.4v2.8c0 .3.2.6.7.6s.7-.2.7-.6v-2.8-.1c.3-.1.6-.2.9-.2.5 0 .6.3.6.7v2.4c0 .3.2.6.7.6.5 0 .7-.2.7-.6v-2.6-.2c.3-.2.6-.3.9-.3.4 0 .6.3.6.6v2.5c.1.5.4.7.9.7zM40.8 12.4c0-.5-.4-.9-.9-.9s-.9.4-.9.9.4.9.9.9c.5-.1.9-.5.9-.9zM7.9 8c0 1 .9 1.9 1.9 1.9 1 0 1.9-.9 1.9-1.9 0-1-.9-1.9-1.9-1.9-1 0-1.9.9-1.9 1.9zm2.6 0c0 .4-.3.7-.7.7s-.7-.3-.7-.7.3-.7.7-.7.7.3.7.7zM12.5 8c0 1 .9 1.9 1.9 1.9 1 0 1.9-.9 1.9-1.9 0-1-.9-1.9-1.9-1.9-1 0-1.9.9-1.9 1.9zm2.6 0c0 .4-.3.7-.7.7s-.6-.3-.6-.7.3-.7.7-.7.6.3.6.7zM17 8.1c0 1 .9 1.9 1.9 1.9 1 0 1.9-.9 1.9-1.9 0-1-.9-1.9-1.9-1.9-1 0-1.9.8-1.9 1.9zm2.6 0c0 .4-.3.7-.7.7s-.7-.3-.7-.7.3-.7.7-.7.7.3.7.7zM47 32.3c-4.9-3-11.3-1.5-14.3 3.4-1.5 2.4-1.9 5.2-1.3 7.9a10.33 10.33 0 0012.5 7.7c2.7-.6 5-2.3 6.5-4.7 3-4.9 1.5-11.3-3.4-14.3zm2.1 13.5a9 9 0 01-5.5 4c-2.3.5-4.7.2-6.7-1.1a9 9 0 01-4-5.5c-.5-2.3-.2-4.7 1.1-6.7 1.7-2.7 4.6-4.2 7.5-4.2 1.6 0 3.2.4 4.6 1.3a9 9 0 013 12.2z"/><path class="st0" d="M38.8 37.8c-.1-.1-.3-.2-.5-.2s-.3.1-.5.2L34.6 41c-.1.1-.2.3-.2.5s.1.3.2.5l3.2 3.2c.1.1.3.2.5.2s.3-.1.5-.2c.1-.1.2-.3.2-.5s-.1-.3-.2-.5L36 41.6l2.8-2.8c.2-.3.2-.7 0-1zM45.5 37.8c-.1-.1-.3-.2-.5-.2s-.3.1-.5.2c-.2.3-.2.7 0 .9l2.8 2.7-2.8 2.8c-.3.2-.3.7 0 .9.1.1.3.2.5.2s.3-.1.5-.2l3.2-3.2c.1-.1.2-.3.2-.5s-.1-.3-.2-.5l-3.2-3.1zM43.7 35.9h-.2c-.3 0-.5.2-.6.4l-3.8 10c-.1.2-.1.3 0 .5s.2.3.4.3h.2c.3 0 .5-.2.6-.4l3.8-10c.1-.3 0-.7-.4-.8z"/><path class="st0" d="M29 43.3H7.2c-1.2 0-2.1-1-2.1-2.1v-28h31.4c.5 0 .9-.4.9-.9s-.4-.9-.9-.9H5V7.3c0-1.7 1.4-3.2 3.2-3.2h37.5c1.7 0 3.2 1.4 3.2 3.2v4.2h-5.3c-.5 0-.9.4-.9.9s.4.9.9.9h5.3v18.3c0 .4.4.8.9.8s.8-.3.9-.8v-.1V7.3c0-2.7-2.2-4.9-4.9-4.9H8.2a4.9 4.9 0 00-4.9 4.9v33.9c0 2.2 1.8 3.9 3.9 3.9H29c.5 0 .9-.4.9-.9s-.4-.9-.9-.9z"/><path class="st0" d="M20.4 29c0 .5.4.8.8.8h5.4c.5 0 .8-.4.8-.8 0-.5-.4-.8-.8-.8h-5.4c-.4 0-.8.3-.8.8zM29.9 32.9c0-.5-.4-.8-.8-.8h-5.4c-.5 0-.8.4-.8.8 0 .5.4.8.8.8H29c.5 0 .9-.3.9-.8zM21.2 37.7h5.4c.5 0 .8-.4.8-.8 0-.5-.4-.8-.8-.8h-5.4c-.5 0-.8.4-.8.8s.4.8.8.8zM11.9 38.2h3.2c.4 0 .8-.4.8-.8V35h2.4c.4 0 .8-.4.8-.8V31c0-.4-.4-.8-.8-.8h-2.4v-2.4c0-.4-.4-.8-.8-.8h-3.2c-.4 0-.8.4-.8.8v2.4H8.8c-.4 0-.8.4-.8.8v3.2c0 .5.3.8.8.8h2.4v2.4c-.1.5.3.8.7.8zm-2.3-4.8v-1.6H12c.4 0 .8-.4.8-.8v-2.4h1.6V31c0 .4.4.8.8.8h2.4v1.6h-2.4c-.4 0-.8.4-.8.8v2.4h-1.6v-2.4c0-.4-.4-.8-.8-.8H9.6z"/></svg>