<svg width="33" height="30" fill="none" xmlns="http://www.w3.org/2000/svg"><rect id="backgroundrect" width="100%" height="100%" x="0" y="0" fill="none" stroke="none"/><g class="currentLayer" style=""><title>Layer 1</title><path d="M32.26 24.12h-9.9v-3.76c0-1.47.51-2.92 1.44-4.07l2.12-2.66c.25-.3.64-.46 1.04-.4a1.11 1.11 0 01.78 1.7l-2.28 3.4c-.2.3-.12.69.18.88.3.2.7.12.89-.18l2.28-3.39a2.38 2.38 0 00-1.67-3.68 2.4 2.4 0 00-2.22.88l-2.13 2.66a7.8 7.8 0 00-1.71 4.86v3.76a.64.64 0 00-.64.64v4.6c0 .36.28.64.64.64.35 0 .64-.28.64-.64V25.4h9.9v3.97c0 .36.29.64.64.64.36 0 .64-.28.64-.64v-4.6a.64.64 0 00-.64-.64z" fill="#ffffff" id="svg_1" class="selected" fill-opacity="1"/><path d="M32.07 21.56a.65.65 0 00-.91 0 .63.63 0 00.45 1.09c.17 0 .34-.07.46-.19a.64.64 0 00.19-.45.64.64 0 00-.2-.45zM30.83 8.65L27.9 1.67A2.73 2.73 0 0024.07.32a2.69 2.69 0 00-1.22 3.46l3.1 7.2c.14.32.52.47.84.33a.63.63 0 00.34-.83l-3.1-7.2c-.3-.7-.02-1.48.65-1.84a1.45 1.45 0 012.04.72l2.93 6.98c.87 2.1 1.32 4.3 1.32 6.57v3.68c0 .35.29.63.64.63.36 0 .65-.28.65-.63V15.7c0-2.43-.48-4.8-1.43-7.06zM24.7 26.97a.65.65 0 00-.9-.04.63.63 0 00-.05.9.64.64 0 00.92.04.63.63 0 00.04-.9zM11.82 24.12v-3.76a7.8 7.8 0 00-1.7-4.86l-2.13-2.66a2.4 2.4 0 00-2.23-.87 2.38 2.38 0 00-1.67 3.67l2.28 3.4c.2.29.6.37.9.17.29-.2.37-.59.17-.88l-2.27-3.4c-.21-.3-.25-.69-.1-1.03.14-.37.47-.62.87-.68.4-.05.79.1 1.04.41l2.13 2.66a6.53 6.53 0 011.43 4.07v3.76h-8.6v-8.41c0-2.27.44-4.48 1.32-6.57l2.93-6.98c.16-.38.46-.67.86-.8a1.45 1.45 0 011.82 1.92l-3.1 7.2c-.14.32.01.7.34.83.33.14.7-.01.84-.34l3.1-7.2c.57-1.3.04-2.78-1.22-3.45A2.77 2.77 0 005 1.67L2.07 8.65a18.14 18.14 0 00-1.42 7.06v8.41a.64.64 0 00-.65.64v4.6c0 .36.29.64.64.64.36 0 .65-.28.65-.64V25.4h9.9v3.97c0 .36.28.64.63.64.36 0 .65-.28.65-.64v-4.6a.64.64 0 00-.65-.64z" fill="#ffffff" id="svg_2" class="selected" fill-opacity="1"/><path d="M9.11 26.93a.65.65 0 00-.9.03l-.01.01a.63.63 0 00.04.9.64.64 0 00.9-.04h.01a.63.63 0 00-.04-.9zM19 5.78a4 4 0 00-2.55.94 4 4 0 00-2.55-.94c-2.29 0-4.15 2-4.15 4.44 0 1.4 1.09 3.1 3.24 5.07a29.63 29.63 0 003.1 2.46.65.65 0 00.72 0 29.6 29.6 0 003.1-2.46c2.15-1.96 3.24-3.67 3.24-5.07 0-2.45-1.86-4.44-4.15-4.44zm.05 8.57a29.13 29.13 0 01-2.6 2.1 29.1 29.1 0 01-2.6-2.1c-1.81-1.66-2.81-3.13-2.81-4.13 0-1.75 1.28-3.16 2.86-3.16.79 0 1.52.34 2.07.96a.65.65 0 00.97 0A2.72 2.72 0 0119 7.06c1.58 0 2.87 1.41 2.87 3.16 0 1-1 2.47-2.82 4.13z" fill="#ffffff" id="svg_3" class="selected" fill-opacity="1"/></g></svg>