<svg version="1.1" id="Слой_1" xmlns="http://www.w3.org/2000/svg" x="0" y="0" viewBox="0 0 85 85" xml:space="preserve"><style>.st1{fill:#0098da}</style><path fill="none" d="M0 0h85v85H0z"/><path class="st1" d="M7.6 22c-.9 0-1.6-.7-1.6-1.6V7.6C6 6.7 6.7 6 7.6 6h12.8c.9 0 1.6.7 1.6 1.6 0 .9-.7 1.6-1.6 1.6H9.2v11.2c0 .9-.8 1.6-1.6 1.6zM77.5 22c-.9 0-1.6-.7-1.6-1.6V9.2H64.7c-.9 0-1.6-.7-1.6-1.6 0-.9.7-1.6 1.6-1.6h12.8c.9 0 1.6.7 1.6 1.6v12.8c0 .9-.8 1.6-1.6 1.6zM7.6 79.1c-.9 0-1.6-.7-1.6-1.6V64.7c0-.9.7-1.6 1.6-1.6s1.6.7 1.6 1.6v11.2h11.2c.9 0 1.6.7 1.6 1.6 0 .9-.7 1.6-1.6 1.6H7.6zM64.7 79.1c-.9 0-1.6-.7-1.6-1.6 0-.9.7-1.6 1.6-1.6h11.2V64.7c0-.9.7-1.6 1.6-1.6s1.6.7 1.6 1.6v12.8c0 .9-.7 1.6-1.6 1.6H64.7z"/><g><path class="st1" d="M42.4 71.3c-.8 0-1.5 0-2.3-.1-13.8-1.1-25-12.3-26.1-26-.7-8.3 2.3-16.5 8.3-22.4 5.9-5.9 14.1-8.9 22.4-8.3 13.8 1.1 25 12.3 26.1 26 .7 8.3-2.3 16.5-8.2 22.4-5.4 5.4-12.6 8.4-20.2 8.4zm.1-53.9c-6.7 0-13.2 2.7-18 7.5-5.3 5.3-8 12.6-7.4 20.1 1 12.3 11 22.3 23.3 23.3 7.5.6 14.8-2.1 20.1-7.4 5.3-5.3 8-12.6 7.4-20.1-1-12.3-11-22.3-23.3-23.3-.8-.1-1.4-.1-2.1-.1z"/><path class="st1" d="M44.1 15H41v-4c0-.8.6-1.4 1.4-1.4h.2c.8 0 1.4.6 1.4 1.4v4zM44.1 70H41v4c0 .8.6 1.4 1.4 1.4h.2c.8 0 1.4-.6 1.4-1.4v-4z"/><g><path class="st1" d="M15 41v3.1h-4c-.8 0-1.4-.6-1.4-1.4v-.2c0-.8.6-1.4 1.4-1.4h4zM70 41v3.1h4c.8 0 1.4-.6 1.4-1.4v-.2c0-.8-.6-1.4-1.4-1.4h-4z"/></g><g><path class="st1" d="M21.5 49.6c.6.2 1.3-.1 1.5-.7l1-2.7h6.8l1 2.7c.3.4.6.9 1.5.7.6-.2.9-.9.7-1.5l-5.2-13.7c-.2-.5-.8-.9-1.4-.9-.6 0-1.1.4-1.4.9l-5.2 13.7c-.2.7.1 1.3.7 1.5zm5.9-12.2l2.5 6.7h-5l2.5-6.7zM42.7 33.4h-4c-.6 0-1.1.5-1.1 1.1v13.9c0 .5.4 1.1 1.2 1.1h4.7c2.7 0 4.9-2.2 4.9-4.9 0-1.7-.9-3.3-2.3-4.1.6-.8 1-1.7 1-2.8-.1-2.4-2-4.3-4.4-4.3zm0 2.3a2 2 0 012 2 2 2 0 01-2 2h-2.9v-4.1h2.9zm.7 11.5h-3.6V42h3.6c1.4 0 2.6 1.2 2.6 2.6 0 1.4-1.2 2.6-2.6 2.6zM59.1 35.7c1.2 0 2.3.3 3.2 1 .5.4 1.2.2 1.6-.3.4-.5.2-1.2-.3-1.6A8.07 8.07 0 0051 41.5c0 4.5 3.6 8.1 8.1 8.1 1.8 0 3.3-.6 4.6-1.7.2-.2.5-.4.7-.7.4-.5.3-1.2-.1-1.6-.5-.4-1.2-.3-1.6.1-.1.2-.3.3-.4.5-.8.7-1.8 1.1-3 1.1-3.2 0-5.8-2.6-5.8-5.8s2.4-5.8 5.6-5.8zM21.1 52.9c0 .5.4 1 1 1 1.1 0 1.5.3 2.2.8.7.5 1.6 1.2 3.3 1.2 1.7 0 2.6-.7 3.3-1.2.7-.5 1.1-.8 2.2-.8s1.5.3 2.2.8c.7.5 1.6 1.2 3.3 1.2 1.7 0 2.6-.7 3.3-1.2.7-.5 1.1-.8 2.2-.8s1.5.3 2.2.8c.7.5 1.6 1.2 3.3 1.2 1.7 0 2.6-.7 3.3-1.2.7-.5 1.1-.8 2.2-.8s1.5.3 2.2.8c.7.5 1.6 1.2 3.3 1.2a1 1 0 000-2c-1.1 0-1.5-.3-2.2-.8-.7-.5-1.6-1.2-3.3-1.2-1.7 0-2.6.7-3.3 1.2-.7.5-1.1.8-2.2.8s-1.5-.3-2.2-.8c-.7-.5-1.6-1.2-3.3-1.2-1.7 0-2.6.7-3.3 1.2-.7.5-1.1.8-2.2.8s-1.5-.3-2.2-.8c-.7-.5-1.6-1.2-3.3-1.2s-2.6.7-3.3 1.2c-.7.5-1.1.8-2.2.8s-1.5-.3-2.2-.8c-.7-.5-1.6-1.2-3.3-1.2-.6 0-1 .4-1 1z"/></g></g></svg>