<svg width="66.667" height="66.667" xmlns="http://www.w3.org/2000/svg"><defs><clipPath clipPathUnits="userSpaceOnUse" id="a"><path d="M0 50h50V0H0Z"/></clipPath></defs><g clip-path="url(#a)" transform="matrix(1.33333 0 0 -1.33333 0 66.667)"><path d="M0 0h-29.374a3.904 3.904 0 0 0-3.899 3.9.8.8 0 1 0 1.6 0c0-1.267 1.032-2.3 2.299-2.3H0a2.304 2.304 0 0 1 2.301 2.3v34.238A2.303 2.303 0 0 1 0 40.437h-3.316a.8.8 0 1 0 0 1.601H0c2.151 0 3.9-1.75 3.9-3.9V3.9C3.9 1.75 2.151 0 0 0" style="fill:#0098da;fill-opacity:1;fill-rule:nonzero;stroke:none" transform="translate(39.687 .268)"/><path d="M0 0h-29.374a3.904 3.904 0 0 0-3.899 3.9.8.8 0 1 0 1.6 0c0-1.267 1.032-2.3 2.299-2.3H0a2.304 2.304 0 0 1 2.301 2.3v34.238A2.303 2.303 0 0 1 0 40.437h-3.358a.8.8 0 1 0 0 1.601H0c2.151 0 3.9-1.75 3.9-3.9V3.9C3.9 1.75 2.151 0 0 0" style="fill:#0098da;fill-opacity:1;fill-rule:nonzero;stroke:none" transform="translate(39.687 .268)"/><path d="M0 0c-4.003 0-7.261-3.257-7.261-7.261S-4.003-14.522 0-14.522c4.004 0 7.262 3.257 7.262 7.261S4.004 0 0 0m0-16.123c-4.886 0-8.861 3.976-8.861 8.862S-4.886 1.601 0 1.601c4.887 0 8.861-3.976 8.861-8.862S4.887-16.123 0-16.123" style="fill:#0098da;fill-opacity:1;fill-rule:nonzero;stroke:none" transform="translate(25 48.131)"/><path d="M0 0c-2.15 0-3.9 1.75-3.9 3.9v34.238c0 2.15 1.75 3.9 3.9 3.9h2.353a.801.801 0 0 0 0-1.601H0a2.302 2.302 0 0 1-2.299-2.299V3.9c0-1.267 1.031-2.3 2.299-2.3A.8.8 0 1 0 0 0" style="fill:#0098da;fill-opacity:1;fill-rule:nonzero;stroke:none" transform="translate(10.313 .268)"/><path d="M0 0c-2.15 0-3.9 1.75-3.9 3.9v34.238c0 2.15 1.75 3.9 3.9 3.9h3.36a.8.8 0 0 0 0-1.601H0a2.302 2.302 0 0 1-2.299-2.299V3.9c0-1.267 1.031-2.3 2.299-2.3A.8.8 0 1 0 0 0" style="fill:#0098da;fill-opacity:1;fill-rule:nonzero;stroke:none" transform="translate(10.313 .268)"/><path d="M0 0a3.03 3.03 0 0 0-2.39 1.198.801.801 0 0 0 1.274.969 1.453 1.453 0 0 1 1.2-.565c.763.001 1.309.4 1.309.757s-.544.756-1.272.756c-1.612 0-2.875 1.035-2.875 2.358 0 1.321 1.263 2.357 2.875 2.357a3.05 3.05 0 0 0 2.506-1.196.8.8 0 1 0-1.274-.969 1.44 1.44 0 0 1-1.199.565c-.762-.001-1.308-.4-1.308-.757 0-.358.546-.758 1.275-.758 1.61 0 2.872-1.034 2.872-2.356C2.993 1.038 1.73.002.117.002L0 0" style="fill:#0098da;fill-opacity:1;fill-rule:nonzero;stroke:none" transform="translate(25.128 37.241)"/><path d="M0 0a.8.8 0 0 0-.8.8v1.038a.8.8 0 1 0 1.6 0V.8A.8.8 0 0 0 0 0" style="fill:#0098da;fill-opacity:1;fill-rule:nonzero;stroke:none" transform="translate(25.25 36.206)"/><path d="M0 0a.8.8 0 0 0-.8.8v1.038a.8.8 0 1 0 1.6 0V.8A.8.8 0 0 0 0 0" style="fill:#0098da;fill-opacity:1;fill-rule:nonzero;stroke:none" transform="translate(25.25 43.47)"/><path d="M0 0h-14.983a.8.8 0 1 0 0 1.601H0A.801.801 0 0 0 0 0" style="fill:#0098da;fill-opacity:1;fill-rule:nonzero;stroke:none" transform="translate(36.917 25.772)"/><path d="M0 0h3.469v1.91H2.062a.801.801 0 0 0-.64.319l-.345.46H0Zm3.879-1.6h-4.29c-.655 0-1.19.533-1.19 1.19V3.1c0 .656.535 1.19 1.19 1.19h1.693c.374 0 .73-.179.953-.477l.227-.303h1.417c.657 0 1.191-.534 1.191-1.19V-.41c0-.657-.534-1.19-1.191-1.19" style="fill:#0098da;fill-opacity:1;fill-rule:nonzero;stroke:none" transform="translate(13.885 25.227)"/><path d="M0 0h-14.983a.8.8 0 1 0 0 1.6H0A.8.8 0 0 0 0 0" style="fill:#0098da;fill-opacity:1;fill-rule:nonzero;stroke:none" transform="translate(36.917 16.781)"/><path d="M0 0h3.469v1.91H2.062a.8.8 0 0 0-.64.32l-.344.459H0Zm3.879-1.6h-4.29c-.655 0-1.19.534-1.19 1.19V3.1c0 .656.535 1.189 1.19 1.189h1.693c.374 0 .73-.177.953-.476l.228-.303h1.416c.657 0 1.191-.533 1.191-1.19V-.41c0-.656-.534-1.19-1.191-1.19" style="fill:#0098da;fill-opacity:1;fill-rule:nonzero;stroke:none" transform="translate(13.885 16.235)"/><path d="M0 0h-14.983a.8.8 0 1 0 0 1.6H0A.8.8 0 0 0 0 0" style="fill:#0098da;fill-opacity:1;fill-rule:nonzero;stroke:none" transform="translate(36.917 7.79)"/><path d="m0 0 .001-.001zm-.954-2.853h3.469v1.911H1.108a.799.799 0 0 0-.64.319l-.345.46H-.954zm3.879-1.599h-4.29a1.19 1.19 0 0 0-1.19 1.189v3.51c0 .656.534 1.19 1.19 1.19H.328c.373 0 .73-.178.953-.477l.227-.303h1.417A1.19 1.19 0 0 0 4.116-.532v-2.731a1.19 1.19 0 0 0-1.191-1.189" style="fill:#0098da;fill-opacity:1;fill-rule:nonzero;stroke:none" transform="translate(14.839 10.097)"/></g></svg>