<svg xmlns="http://www.w3.org/2000/svg" xml:space="preserve" width="66.667" height="68.947"><defs><clipPath clipPathUnits="userSpaceOnUse" id="a"><path d="M0 51.71h50V0H0Z"/></clipPath></defs><g clip-path="url(#a)" transform="matrix(1.33333 0 0 -1.33333 0 68.947)"><path d="M0 0a4.462 4.462 0 0 0-.865.327c-.203.097-.504.279-.504.814 0 .715.553.922 1.14.922.421 0 .685-.098.914-.182.205-.061.373-.134.588-.134.529 0 .84.364.84.765 0 .909-1.704 1.092-2.413 1.092-1.706 0-2.787-.947-2.787-2.512 0-1.76 1.273-2.16 2.45-2.525.325-.109.625-.218.877-.328.216-.095.492-.278.492-.824 0-.668-.42-1.044-1.249-1.044-.516 0-.901.146-1.189.242-.229.086-.42.146-.601.146-.444 0-.793-.376-.793-.764 0-.849 1.682-1.165 2.572-1.165 1.717 0 2.99.971 2.99 2.657C2.462-.789 1.178-.376 0 0" style="fill:#0098da;fill-opacity:1;fill-rule:nonzero;stroke:none" transform="translate(29.33 24.005)"/><path d="M0 0c0-.971-.456-1.65-1.441-1.65-.986 0-1.441.679-1.441 1.65v2.402c0 .984.384 1.64 1.441 1.64S0 3.386 0 2.402Zm-1.441 5.582c-2.247 0-3.123-1.456-3.123-3.18V0c0-1.554.793-2.827 2.391-3.131.215-1.238.924-2.051 2.029-2.051.757 0 1.333.025 1.333.741 0 .461-.335.74-.829.74H.013c-.265 0-.433.181-.529.619C.949-2.729 1.683-1.48 1.683 0v2.402c0 1.724-.877 3.18-3.124 3.18" style="fill:#0098da;fill-opacity:1;fill-rule:nonzero;stroke:none" transform="translate(37.34 22.026)"/><path d="M0 0h-2.606v6.359c0 .412-.384.777-.841.777-.469 0-.841-.365-.841-.777V-.69c0-.474.421-.838.901-.838H0c.457 0 .817.339.817.776C.817-.328.433 0 0 0" style="fill:#0098da;fill-opacity:1;fill-rule:nonzero;stroke:none" transform="translate(44.603 20.472)"/><path d="M0 0a2.252 2.252 0 0 0-2.249-2.248h-20.079A2.251 2.251 0 0 0-24.576 0v15.546a2.25 2.25 0 0 0 2.248 2.247h20.079A2.251 2.251 0 0 0 0 15.546Zm-2.249 19.507h-20.079a3.966 3.966 0 0 1-3.962-3.961V0a3.966 3.966 0 0 1 3.962-3.961h20.079A3.965 3.965 0 0 1 1.713 0v15.546a3.966 3.966 0 0 1-3.962 3.961" style="fill:#0098da;fill-opacity:1;fill-rule:nonzero;stroke:none" transform="translate(47.288 14.42)"/><path d="M0 0a4.157 4.157 0 0 0-.863 1.27h6.332a4.182 4.182 0 0 0 4.176-4.176v-6.333c-.467.205-.899.49-1.27.861zm35.666-3.785a.856.856 0 0 1-.856-.856v-2.71A2.253 2.253 0 0 0 32.561-9.6H11.358v6.694a5.894 5.894 0 0 1-5.889 5.888h-6.693v30.214a2.25 2.25 0 0 0 2.248 2.248h31.537a2.251 2.251 0 0 0 2.249-2.248v-9.27a.856.856 0 0 1 1.712 0v9.27a3.966 3.966 0 0 1-3.961 3.962H1.024a3.967 3.967 0 0 1-3.962-3.962V2.951a5.845 5.845 0 0 1 1.727-4.163l8.374-8.377a5.848 5.848 0 0 1 4.161-1.723h21.237a3.965 3.965 0 0 1 3.961 3.961v2.71a.856.856 0 0 1-.856.856" style="fill:#0098da;fill-opacity:1;fill-rule:nonzero;stroke:none" transform="translate(3.938 12.932)"/><path d="M0 0a.854.854 0 0 1-.377-1.151.855.855 0 0 1 .638-.461c.259-.084 1.181-.459 1.943-.781a.855.855 0 0 1 1.153.541L4.049.442a.857.857 0 0 1-1.641.495L2.385.858C1.631 2.259.037 3.996-2.531 3.923c-2.894-.057-4.772-2.263-4.851-2.357A.856.856 0 0 1-6.07.464c.015.016 1.473 1.705 3.573 1.746l.074.001C-.525 2.211.483.787.904-.022.349.166.229.117 0 0" style="fill:#0098da;fill-opacity:1;fill-rule:nonzero;stroke:none" transform="translate(31.488 40.01)"/><path d="M0 0h3.588a.857.857 0 0 1 0 1.714H0A.857.857 0 0 1 0 0" style="fill:#0098da;fill-opacity:1;fill-rule:nonzero;stroke:none" transform="translate(6.505 37.765)"/><path d="M0 0h-11.05a.857.857 0 0 1 0-1.713H0A.857.857 0 1 1 0 0" style="fill:#0098da;fill-opacity:1;fill-rule:nonzero;stroke:none" transform="translate(17.556 33.757)"/><path d="M0 0h-4.76a.857.857 0 0 1 0-1.714H0A.857.857 0 0 1 0 0" style="fill:#0098da;fill-opacity:1;fill-rule:nonzero;stroke:none" transform="translate(17.556 39.48)"/><path d="M0 0h3.588a.857.857 0 0 1 0 1.714H0A.857.857 0 0 1 0 0" style="fill:#0098da;fill-opacity:1;fill-rule:nonzero;stroke:none" transform="translate(6.505 26.172)"/><path d="M0 0h-4.76a.857.857 0 0 1 0-1.714H0A.857.857 0 0 1 0 0" style="fill:#0098da;fill-opacity:1;fill-rule:nonzero;stroke:none" transform="translate(17.556 27.886)"/><path d="M0 0h7.462a.856.856 0 1 1 0 1.713H0A.857.857 0 1 1 0 0" style="fill:#0098da;fill-opacity:1;fill-rule:nonzero;stroke:none" transform="translate(6.505 20.452)"/><path d="M0 0h-1.1a.857.857 0 1 1 0-1.713H0A.857.857 0 1 1 0 0" style="fill:#0098da;fill-opacity:1;fill-rule:nonzero;stroke:none" transform="translate(17.556 22.165)"/></g></svg>