<svg xmlns="http://www.w3.org/2000/svg" xml:space="preserve" width="66.667" height="71.337"><defs><clipPath clipPathUnits="userSpaceOnUse" id="a"><path d="M0 53.503h50V0H0Z"/></clipPath></defs><g clip-path="url(#a)" transform="matrix(1.33333 0 0 -1.33333 0 71.337)"><path d="M0 0a3.286 3.286 0 0 0-3.282-3.282H-41.14A3.285 3.285 0 0 0-44.421 0v12.235a3.286 3.286 0 0 0 3.281 3.283l24.406-.009a.89.89 0 0 1 .714.357l2.751 3.655 1.705-3.5a.894.894 0 0 1 .804-.503h7.478A3.287 3.287 0 0 0 0 12.235Zm-3.282 17.306H-10.2l-2.099 4.313a.898.898 0 0 1-1.519.146l-3.363-4.466-23.959.007a5.077 5.077 0 0 1-5.071-5.071V0a5.077 5.077 0 0 1 5.071-5.071h37.858A5.076 5.076 0 0 1 1.789 0v12.235a5.076 5.076 0 0 1-5.071 5.071" style="fill:#0098da;fill-opacity:1;fill-rule:nonzero;stroke:none" transform="translate(47.412 6)"/><path d="M0 0a3.287 3.287 0 0 0-3.282-3.283l-24.405.008h-.001a.893.893 0 0 1-.715-.356l-2.751-3.655-1.705 3.5a.896.896 0 0 1-.805.503h-7.476A3.286 3.286 0 0 0-44.421 0v12.235a3.285 3.285 0 0 0 3.281 3.282h37.858A3.286 3.286 0 0 0 0 12.235Zm-3.282 17.307H-41.14a5.077 5.077 0 0 1-5.071-5.072V0a5.076 5.076 0 0 1 5.071-5.071h6.917l2.101-4.313a.892.892 0 0 1 1.519-.145l3.361 4.465 23.96-.007A5.076 5.076 0 0 1 1.789 0v12.235a5.077 5.077 0 0 1-5.071 5.072" style="fill:#0098da;fill-opacity:1;fill-rule:nonzero;stroke:none" transform="translate(47.412 35.02)"/><path d="M0 0h-18.018a.894.894 0 1 1 0-1.788H0A.894.894 0 1 1 0 0" style="fill:#0098da;fill-opacity:1;fill-rule:nonzero;stroke:none" transform="translate(26.908 15.984)"/><path d="M0 0h-18.018a.894.894 0 1 1 0-1.788H0A.894.894 0 1 1 0 0" style="fill:#0098da;fill-opacity:1;fill-rule:nonzero;stroke:none" transform="translate(26.908 9.668)"/><path d="M0 0h-18.019a.895.895 0 0 1 0-1.79H0A.895.895 0 0 1 0 0" style="fill:#0098da;fill-opacity:1;fill-rule:nonzero;stroke:none" transform="translate(41.644 45.456)"/><path d="M0 0h-18.019a.894.894 0 0 1 0-1.789H0A.894.894 0 1 1 0 0" style="fill:#0098da;fill-opacity:1;fill-rule:nonzero;stroke:none" transform="translate(41.644 39.14)"/><path d="M0 0h-1.708v1.708a.895.895 0 0 1-1.79 0V0h-1.707a.895.895 0 1 1 0-1.789h1.707v-1.707a.895.895 0 0 1 1.79 0v1.707H0A.895.895 0 1 1 0 0" style="fill:#0098da;fill-opacity:1;fill-rule:nonzero;stroke:none" transform="translate(15.629 42.123)"/><path d="M0 0a4.954 4.954 0 0 0-4.948 4.948A4.954 4.954 0 0 0 0 9.897a4.954 4.954 0 0 0 4.948-4.949A4.954 4.954 0 0 0 0 0m0 11.687c-3.715 0-6.737-3.023-6.737-6.739A6.744 6.744 0 0 1 0-1.789a6.744 6.744 0 0 1 6.737 6.737c0 3.716-3.022 6.739-6.737 6.739" style="fill:#0098da;fill-opacity:1;fill-rule:nonzero;stroke:none" transform="translate(13.026 36.281)"/><path d="M0 0h-5.205a.895.895 0 1 1 0-1.789H0A.895.895 0 1 1 0 0" style="fill:#0098da;fill-opacity:1;fill-rule:nonzero;stroke:none" transform="translate(40.89 12.653)"/><path d="M0 0a4.955 4.955 0 0 0-4.948 4.948A4.954 4.954 0 0 0 0 9.897a4.954 4.954 0 0 0 4.949-4.949A4.955 4.955 0 0 0 0 0m0 11.686a6.745 6.745 0 0 1-6.737-6.738A6.744 6.744 0 0 1 0-1.788a6.743 6.743 0 0 1 6.737 6.736A6.744 6.744 0 0 1 0 11.686" style="fill:#0098da;fill-opacity:1;fill-rule:nonzero;stroke:none" transform="translate(38.287 6.81)"/></g></svg>