<svg xmlns="http://www.w3.org/2000/svg" xml:space="preserve" width="66.667" height="71.337"><defs><clipPath clipPathUnits="userSpaceOnUse" id="a"><path d="M0 53.503h50V0H0Z"/></clipPath></defs><g clip-path="url(#a)" transform="matrix(1.33333 0 0 -1.33333 0 71.337)"><path d="M0 0a3.287 3.287 0 0 0-3.283-3.282H-41.14A3.286 3.286 0 0 0-44.422 0v12.236a3.286 3.286 0 0 0 3.281 3.282l24.406-.008c.281 0 .546.132.714.356l2.751 3.655 1.706-3.5a.892.892 0 0 1 .804-.503h7.477A3.287 3.287 0 0 0 0 12.236Zm-3.283 17.307h-6.918l-2.099 4.312a.897.897 0 0 1-.72.499.898.898 0 0 1-.799-.353l-3.363-4.466-23.958.008a5.077 5.077 0 0 1-5.072-5.071V0a5.076 5.076 0 0 1 5.072-5.07h37.857A5.075 5.075 0 0 1 1.788 0v12.236a5.076 5.076 0 0 1-5.071 5.071" style="fill:#0098da;fill-opacity:1;fill-rule:nonzero;stroke:none" transform="translate(47.696 6.567)"/><path d="M0 0a3.288 3.288 0 0 0-3.283-3.283l-24.405.008a.892.892 0 0 1-.715-.356l-2.751-3.655-1.706 3.5a.894.894 0 0 1-.804.503h-7.476A3.286 3.286 0 0 0-44.422 0v12.235a3.285 3.285 0 0 0 3.282 3.282h37.857A3.287 3.287 0 0 0 0 12.235Zm-3.283 17.307H-41.14a5.077 5.077 0 0 1-5.072-5.072V0a5.077 5.077 0 0 1 5.072-5.071h6.917l2.1-4.312a.893.893 0 0 1 1.519-.147l3.361 4.466 23.96-.007A5.076 5.076 0 0 1 1.788 0v12.235a5.077 5.077 0 0 1-5.071 5.072" style="fill:#0098da;fill-opacity:1;fill-rule:nonzero;stroke:none" transform="translate(47.696 35.588)"/><path d="M0 0h-32.754a.893.893 0 1 1 0-1.788H0A.895.895 0 1 1 0 0" style="fill:#0098da;fill-opacity:1;fill-rule:nonzero;stroke:none" transform="translate(41.928 16.55)"/><path d="M0 0h-32.754a.894.894 0 1 1 0-1.789H0A.895.895 0 1 1 0 0" style="fill:#0098da;fill-opacity:1;fill-rule:nonzero;stroke:none" transform="translate(41.928 10.236)"/><path d="M0 0a5.263 5.263 0 0 0-5.256 5.256A5.263 5.263 0 0 0 0 10.511a5.262 5.262 0 0 0 5.255-5.255A5.262 5.262 0 0 0 0 0m0 12.19c-3.824 0-6.936-3.11-6.936-6.934 0-3.824 3.112-6.935 6.936-6.935a6.943 6.943 0 0 1 6.935 6.935C6.935 9.08 3.823 12.19 0 12.19" style="fill:#0098da;fill-opacity:1;fill-rule:nonzero;stroke:none" transform="translate(37.191 36.48)"/><path d="M0 0c.338 0 .518-.196.522-.199a.836.836 0 0 1 1.177-.157c.369.281.44.808.157 1.176A2.38 2.38 0 0 1 0 1.68c-1.005 0-1.606-.784-1.672-.874a.834.834 0 0 1 .176-1.157.848.848 0 0 1 1.172.154C-.292-.155-.14 0 0 0" style="fill:#0098da;fill-opacity:1;fill-rule:nonzero;stroke:none" transform="translate(35.11 42.612)"/><path d="M0 0a.834.834 0 0 1 .176-1.157.848.848 0 0 1 1.172.154c.033.042.184.197.325.197.337 0 .517-.196.522-.2A.839.839 0 1 1 3.527.015a2.38 2.38 0 0 1-1.854.859C.667.874.066.089 0 0" style="fill:#0098da;fill-opacity:1;fill-rule:nonzero;stroke:none" transform="translate(37.747 43.418)"/><path d="M0 0a1.655 1.655 0 0 0-1.238-.542c-.512 0-.904.513-.917.533a.84.84 0 0 1-1.368-.975c.088-.126.912-1.237 2.285-1.237 1.329 0 2.253.767 2.589 1.222A.841.841 0 0 1 0 0" style="fill:#0098da;fill-opacity:1;fill-rule:nonzero;stroke:none" transform="translate(38.443 39.956)"/><path d="m0 0 .276 2.384a.836.836 0 0 1-.834.936h-.494l2.54 2.925-.285-2.367a.838.838 0 0 1 .834-.94l.501.001Zm3.679 4.617h-.695l.499 4.146a.838.838 0 0 1-1.467.651l-5.031-5.796a1.165 1.165 0 0 1-.249-1.237c.166-.424.566-.714 1.068-.74h.695l-.482-4.16a.839.839 0 0 1 1.469-.646l5.01 5.804c.315.324.414.808.25 1.236-.165.42-.562.711-1.067.742" style="fill:#0098da;fill-opacity:1;fill-rule:nonzero;stroke:none" transform="translate(24.037 38.612)"/><path d="m0 0-4.447-4.638L-8.906.013a2.145 2.145 0 0 0-.401 2.481 2.152 2.152 0 0 0 3.441.558l.825-.826a.867.867 0 0 1 1.188 0l.825.826a2.152 2.152 0 0 0 3.443-.558A2.155 2.155 0 0 0 0 0m-.895 5.312a3.841 3.841 0 0 1-3.321-1.073l-.231-.231-.231.231a3.84 3.84 0 0 1-3.32 1.073 3.836 3.836 0 0 1-2.811-2.067 3.815 3.815 0 0 1 .704-4.407l5.052-5.271a.84.84 0 0 1 1.213 0L1.2-1.175a3.825 3.825 0 0 1 .717 4.42A3.84 3.84 0 0 1-.895 5.312" style="fill:#0098da;fill-opacity:1;fill-rule:nonzero;stroke:none" transform="translate(17.404 42.402)"/></g></svg>