<svg xmlns="http://www.w3.org/2000/svg" xml:space="preserve" width="66.667" height="68.947"><defs><clipPath clipPathUnits="userSpaceOnUse" id="a"><path d="M0 51.71h50V0H0Z"/></clipPath></defs><g clip-path="url(#a)" transform="matrix(1.33333 0 0 -1.33333 0 68.947)"><path d="M0 0a2.252 2.252 0 0 0-2.248-2.249h-9.184v20.042h9.184A2.251 2.251 0 0 0 0 15.545Zm-24.576 0v15.545a2.25 2.25 0 0 0 2.247 2.248h9.184V-2.249h-9.184A2.251 2.251 0 0 0-24.576 0m22.328 19.506h-20.081a3.966 3.966 0 0 1-3.961-3.961V0a3.965 3.965 0 0 1 3.961-3.961h20.081A3.964 3.964 0 0 1 1.713 0v15.545a3.965 3.965 0 0 1-3.961 3.961" style="fill:#ffffff;fill-opacity:1;fill-rule:nonzero;stroke:none" transform="translate(47.33 14.977)"/><path d="M0 0c-.372.37-.657.803-.863 1.27h6.332a4.181 4.181 0 0 0 4.176-4.177V-9.24a4.171 4.171 0 0 0-1.27.862zm35.666-3.785a.855.855 0 0 1-.856-.857v-2.71A2.251 2.251 0 0 0 32.562-9.6H11.359v6.693a5.896 5.896 0 0 1-5.89 5.889h-6.692v30.213a2.25 2.25 0 0 0 2.248 2.248h31.537a2.25 2.25 0 0 0 2.248-2.248v-9.269a.856.856 0 1 1 1.712 0v9.269a3.966 3.966 0 0 1-3.96 3.962H1.025a3.967 3.967 0 0 1-3.962-3.962V2.95c0-1.572.614-3.051 1.726-4.162L7.163-9.59a5.85 5.85 0 0 1 4.162-1.723H32.562a3.965 3.965 0 0 1 3.96 3.961v2.71a.855.855 0 0 1-.856.857" style="fill:#ffffff;fill-opacity:1;fill-rule:nonzero;stroke:none" transform="translate(3.98 13.49)"/><path d="M0 0a.857.857 0 0 1 .262-1.612c.259-.084 1.181-.459 1.942-.782a.862.862 0 0 1 .698.014.854.854 0 0 1 .456.528L4.049.442a.856.856 0 1 1-1.64.494L2.387.861C1.639 2.257.063 3.98-2.53 3.923c-2.894-.057-4.772-2.263-4.851-2.358A.855.855 0 0 1-7.275.362a.859.859 0 0 1 1.206.101c.014.017 1.472 1.705 3.572 1.747a1.9 1.9 0 0 0 .075.001C-.524 2.211.484.787.905-.023.35.166.23.117 0 0" style="fill:#ffffff;fill-opacity:1;fill-rule:nonzero;stroke:none" transform="translate(31.53 40.567)"/><path d="M0 0c-.264.012-.528.003-.793.003h-1.27c0 .272.009.491-.001.709-.021.409-.31.693-.693.694-.377.002-.681-.29-.703-.688-.013-.219-.003-.439-.003-.715h-.393c-.563 0-1.124.006-1.686-.004-.338-.006-.596-.158-.703-.496-.097-.306-.021-.588.246-.756.165-.105.39-.156.589-.159 1.2-.013 2.401-.006 3.602-.006h.377c-.238-.963-.663-1.749-1.337-2.435l-.529.635c-.308.37-.712.445-1.041.193-.324-.249-.359-.67-.075-1.057.186-.253.389-.497.609-.777-.432-.275-.834-.545-1.248-.793-.461-.275-.619-.645-.414-1.028.211-.392.629-.478 1.108-.189.545.33 1.072.69 1.632 1.053.068-.052.16-.13.26-.195.479-.312.948-.643 1.445-.923a.687.687 0 0 1 1.032.578c.01.318-.161.529-.429.689-.438.263-.868.542-1.289.808.029.08.031.106.044.12a6.487 6.487 0 0 1 1.645 3.15c.017.078.128.164.214.196.381.144.581.419.537.768C.687-.259.412-.018 0 0" style="fill:#ffffff;fill-opacity:1;fill-rule:nonzero;stroke:none" transform="translate(44.264 25.784)"/><path d="m0 0 .558 1.476L1.112 0Zm3.347-1.956c-.023.085-.058.166-.089.248C2.6.05 1.94 1.808 1.281 3.565c-.168.447-.4.653-.738.635-.398-.02-.586-.281-.715-.628C-.83 1.803-1.496.036-2.157-1.732c-.05-.133-.079-.273-.098-.338 0-.4.207-.672.519-.759a.685.685 0 0 1 .802.366c.122.257.19.54.317.794.05.099.193.207.298.21.582.021 1.166.021 1.748 0 .104-.003.248-.11.298-.209.128-.253.198-.535.321-.792a.672.672 0 0 1 .86-.347.7.7 0 0 1 .439.851" style="fill:#ffffff;fill-opacity:1;fill-rule:nonzero;stroke:none" transform="translate(27.875 21.866)"/><path d="M0 0h3.588a.857.857 0 0 1 0 1.714H0A.857.857 0 0 1 0 0" style="fill:#ffffff;fill-opacity:1;fill-rule:nonzero;stroke:none" transform="translate(6.548 38.322)"/><path d="M0 0h-11.05a.857.857 0 0 1 0-1.714H0A.857.857 0 0 1 0 0" style="fill:#ffffff;fill-opacity:1;fill-rule:nonzero;stroke:none" transform="translate(17.599 34.315)"/><path d="M0 0h-4.76a.857.857 0 0 1 0-1.714H0A.857.857 0 0 1 0 0" style="fill:#ffffff;fill-opacity:1;fill-rule:nonzero;stroke:none" transform="translate(17.599 40.036)"/><path d="M0 0h3.588a.857.857 0 0 1 0 1.714H0A.857.857 0 0 1 0 0" style="fill:#ffffff;fill-opacity:1;fill-rule:nonzero;stroke:none" transform="translate(6.548 26.73)"/><path d="M0 0h-4.76a.857.857 0 0 1 0-1.714H0A.857.857 0 0 1 0 0" style="fill:#ffffff;fill-opacity:1;fill-rule:nonzero;stroke:none" transform="translate(17.599 28.444)"/><path d="M0 0h7.463a.856.856 0 1 1 0 1.713H0A.857.857 0 1 1 0 0" style="fill:#ffffff;fill-opacity:1;fill-rule:nonzero;stroke:none" transform="translate(6.548 21.008)"/><path d="M0 0h-1.1a.857.857 0 1 1 0-1.713H0A.856.856 0 1 1 0 0" style="fill:#ffffff;fill-opacity:1;fill-rule:nonzero;stroke:none" transform="translate(17.599 22.721)"/></g></svg>