<svg xmlns="http://www.w3.org/2000/svg" xml:space="preserve" width="66.667" height="66.667"><defs><clipPath clipPathUnits="userSpaceOnUse" id="a"><path d="M0 50h50V0H0Z"/></clipPath></defs><g clip-path="url(#a)" transform="matrix(1.33333 0 0 -1.33333 0 66.667)"><path d="M0 0h21.764a2.197 2.197 0 0 0 2.194-2.194v-2.454c-.03.003-.056.018-.088.018H.008a.837.837 0 0 1 0-1.673H23.87c.032 0 .058.014.088.018v-12.027a.836.836 0 0 1 1.672 0v16.118a3.87 3.87 0 0 1-3.866 3.866H0A.836.836 0 0 1 0 0" style="fill:#ffffff;fill-opacity:1;fill-rule:nonzero;stroke:none" transform="translate(21.137 41.566)"/><path d="M0 0h-19.026a2.192 2.192 0 0 0-2.189 2.189V27.81a.837.837 0 0 1-1.673 0V2.189a3.866 3.866 0 0 1 3.862-3.861H0A.835.835 0 1 1 0 0" style="fill:#ffffff;fill-opacity:1;fill-rule:nonzero;stroke:none" transform="translate(26.547 5.753)"/><path d="M0 0a2.198 2.198 0 0 0-2.195-2.194h-12.721c-1.21 0-2.195.985-2.195 2.194v11.537c0 1.21.985 2.194 2.195 2.194h12.721c1.21 0 2.195-.984 2.195-2.194Zm-2.195 15.403h-12.721a3.87 3.87 0 0 1-3.867-3.866V0a3.87 3.87 0 0 1 3.867-3.866h12.721A3.87 3.87 0 0 1 1.672 0v11.537a3.87 3.87 0 0 1-3.867 3.866" style="fill:#ffffff;fill-opacity:1;fill-rule:nonzero;stroke:none" transform="translate(47.329 5.109)"/><path d="M0 0a1.023 1.023 0 0 0 0 2.045A1.023 1.023 0 0 0 0 0m-5.432-4.693A1.61 1.61 0 0 0-7.04-3.085a1.61 1.61 0 0 0 3.218 0 1.61 1.61 0 0 0-1.61-1.608m.114 7.709a.521.521 0 1 0 0 1.042.521.521 0 0 0 0-1.042M0 3.521c-.752 0-1.418-.34-1.877-.867l-1.471.625c.011.085.027.169.027.257a1.999 1.999 0 0 1-1.997 1.997 1.998 1.998 0 0 1-1.996-1.997c0-1.1.895-1.996 1.996-1.996.471 0 .9.171 1.242.445l1.606-.682c-.01-.093-.028-.185-.028-.281 0-.369.085-.716.229-1.033l-.999-.88A3.072 3.072 0 0 1-5.432 0a3.087 3.087 0 0 1-3.084-3.085c0-1.7 1.383-3.084 3.084-3.084a3.088 3.088 0 0 1 3.085 3.084c0 .318-.061.619-.151.907l1.214 1.069A2.466 2.466 0 0 1 0-1.476a2.5 2.5 0 0 1 2.498 2.498A2.5 2.5 0 0 1 0 3.521" style="fill:#ffffff;fill-opacity:1;fill-rule:nonzero;stroke:none" transform="translate(42.116 11.196)"/><path d="M0 0v7.175a1.36 1.36 0 0 0 1.357 1.358h12.347a1.36 1.36 0 0 0 1.358-1.358V-4.029l-3.355 2.005a4.704 4.704 0 0 1-2.413.666H1.357A1.36 1.36 0 0 0 0 0m9.294-3.031c.547 0 1.084-.148 1.555-.429l4.99-2.983a.566.566 0 0 1 .585-.052c.191.095.31.288.31.5v13.17a3.03 3.03 0 0 1-3.03 3.03H1.357a3.03 3.03 0 0 1-3.03-3.03V0a3.03 3.03 0 0 1 3.03-3.031z" style="fill:#ffffff;fill-opacity:1;fill-rule:nonzero;stroke:none" transform="translate(2.673 38.552)"/><path d="M0 0h.978c.841 0 1.035-.398 1.035-.786 0-.481-.342-.749-.979-.749H0Zm-.656-5.429c.351 0 .656.287.656.611V-2.7h.627l1.552-2.433a.627.627 0 0 1 .544-.286c.416 0 .869.49.564.952L2.021-2.562c.795.26 1.284.86 1.284 1.776 0 .972-.554 1.961-2.289 1.961H-.591c-.378 0-.702-.305-.702-.666v-5.327c0-.333.296-.611.637-.611" style="fill:#ffffff;fill-opacity:1;fill-rule:nonzero;stroke:none" transform="translate(6.37 44.45)"/><path d="M0 0c1.459 0 2.317.971 2.317 2.303v3.773c0 .324-.285.611-.663.611a.628.628 0 0 1-.638-.611V2.303c0-.656-.323-1.128-1.016-1.128-.702 0-1.024.462-1.024 1.128v3.773c0 .334-.296.611-.637.611-.37 0-.655-.259-.655-.611V2.303C-2.316.981-1.486 0 0 0" style="fill:#ffffff;fill-opacity:1;fill-rule:nonzero;stroke:none" transform="translate(13.086 39.02)"/><path d="M0 0h18.275" style="fill:none;stroke:#ffffff;stroke-width:1.70000005;stroke-linecap:round;stroke-linejoin:round;stroke-miterlimit:10;stroke-dasharray:none;stroke-opacity:1" transform="translate(20.506 25.38)"/><path d="M0 0h5.028" style="fill:none;stroke:#ffffff;stroke-width:1.70000005;stroke-linecap:round;stroke-linejoin:round;stroke-miterlimit:10;stroke-dasharray:none;stroke-opacity:1" transform="translate(11.754 25.38)"/><path d="M0 0h-13.39" style="fill:none;stroke:#ffffff;stroke-width:1.70000005;stroke-linecap:round;stroke-linejoin:round;stroke-miterlimit:10;stroke-dasharray:none;stroke-opacity:1" transform="translate(25.144 18.434)"/><path d="M0 0h-13.39" style="fill:none;stroke:#ffffff;stroke-width:1.70000005;stroke-linecap:round;stroke-linejoin:round;stroke-miterlimit:10;stroke-dasharray:none;stroke-opacity:1" transform="translate(25.144 11.488)"/></g></svg>