<svg width="37" height="35" fill="none" xmlns="http://www.w3.org/2000/svg"><rect id="backgroundrect" width="100%" height="100%" x="0" y="0" fill="none" stroke="none"/><g class="currentLayer" style=""><title>Layer 1</title><path d="M37 20.1c0-.2-.1-.38-.27-.48L28 14.6l.03-8.87c0-.19-.1-.37-.27-.47l-9-5.19a.54.54 0 00-.55 0L9.27 5.26a.54.54 0 00-.27.47l-.03 8.86L.3 19.62a.54.54 0 00-.28.47L0 29.27c0 .19.1.37.27.47l9 5.18c.15.12.4.1.55 0l4.14-2.4a.54.54 0 10-.55-.93L10.1 33.5l.02-7.92 7.86-4.56-.02 7.93-2.24 1.3a.54.54 0 10.55.93l2.23-1.3 8.73 5.03c.15.12.39.1.54 0l8.95-5.18c.16-.1.27-.28.27-.47v-3.1a.54.54 0 00-1.08 0v2.79l-7.86 4.55.02-7.92 7.85-4.56v2.65a.54.54 0 001.08 0L37 20.1zm-19-8.87l-.02 7.93-7.92-4.57.02-7.92L18 11.22zm-8.49 4.3l7.92 4.56-7.86 4.57-7.92-4.57 7.86-4.56zm9.54 5.5l7.92 4.56-.02 7.93-7.92-4.56.02-7.93zm8.46 3.63l-7.92-4.57 7.87-4.56 7.92 4.56-7.87 4.57zm-9.03-23.5l7.92 4.57-4.23 2.46a.54.54 0 10.55.93l4.22-2.45-.02 7.92-7.86 4.56.02-7.92 1.44-.83a.54.54 0 10-.55-.94l-1.43.83-7.92-4.56 7.86-4.56zM1.11 21.04l7.92 4.56L9 33.52l-7.92-4.56.03-7.93z" fill="#ffffff" id="svg_1" class="selected" fill-opacity="1"/></g></svg>