<svg id="Слой_1" data-name="Слой 1" xmlns="http://www.w3.org/2000/svg" viewBox="0 0 29.99 29.99"><defs><style>.cls-1{fill:#ffffff}</style></defs><path class="cls-1" d="M9.77 19.75L8.6 18.5a.3.3 0 10-.43.41l.78.8a2.76 2.76 0 01-2.97-3.55.3.3 0 10-.57-.18 3.35 3.35 0 003.32 4.34l-.57.55a.3.3 0 10.41.42l1.2-1.15a.24.24 0 00.1-.18.27.27 0 00-.09-.22zM23.1 19.3H11.9A1.74 1.74 0 0010.45 21v2.96a1.75 1.75 0 001.74 1.75h.69l.07 1.67a.25.25 0 00.15.24c.12.04.26-.1.26-.1l1.8-1.81h7.66a1.75 1.75 0 001.74-1.75v-2.96a1.74 1.74 0 00-1.46-1.72zM15.08 25a.34.34 0 00-.24.1l-1.24 1.24-.05-.98a.32.32 0 00-.13-.25.35.35 0 00-.25-.1h-.98a1.03 1.03 0 01-1.03-1.04v-2.96a1.03 1.03 0 011.03-1.03h10.63a1.03 1.03 0 011.03 1.03v2.96A1.03 1.03 0 0122.82 25zM26.6 3.11H5.06a3.1 3.1 0 00-2.6 3.07v5.7a3.12 3.12 0 003.12 3.11l14.77-.01 3.48 3.45a.31.31 0 00.53-.21l.08-3.23h1.62a3.12 3.12 0 003.11-3.11v-5.7A3.1 3.1 0 0026.6 3.1zm-.54 11h-1.89a.45.45 0 00-.32.15.4.4 0 00-.17.3l-.04 1.53v.97l-2.88-2.84-.27-.1H5.59a2.24 2.24 0 01-2.24-2.24v-5.7a2.24 2.24 0 012.23-2.24h20.48a2.24 2.24 0 012.23 2.24v5.7a2.24 2.24 0 01-2.23 2.23z"/><path class="cls-1" d="M12.45 22.63a.28.28 0 010-.54h3.04a.28.28 0 010 .54zM12.45 21.44a.28.28 0 010-.55h3.04a.28.28 0 010 .55zM12.45 23.83a.28.28 0 010-.54h3.04a.28.28 0 010 .54zM19.56 21.17a.2.2 0 00.15-.07.24.24 0 00.06-.17.26.26 0 00-.06-.17.2.2 0 00-.15-.07h-1.57a.2.2 0 00-.16.08.27.27 0 00-.06.18v2.8a.27.27 0 00.06.17.2.2 0 00.16.08h1.57a.2.2 0 00.15-.07.26.26 0 00.06-.17.24.24 0 00-.06-.17.2.2 0 00-.15-.07H18.2v-.95h.96a.2.2 0 00.15-.07.27.27 0 000-.34.2.2 0 00-.15-.07h-.96v-.92zM21.9 22.15a.86.86 0 00-.3-.38.82.82 0 00-.46-.13.8.8 0 00-.34.08.82.82 0 00-.21.14.25.25 0 00-.05-.13.2.2 0 00-.16-.07.2.2 0 00-.16.07.26.26 0 00-.06.18v1.84a.27.27 0 00.06.18.2.2 0 00.32 0 .27.27 0 00.05-.18V22.6a.5.5 0 01.07-.25.46.46 0 01.17-.18.47.47 0 01.24-.06.46.46 0 01.37.16.71.71 0 01.14.48v1.01a.27.27 0 00.06.18.2.2 0 00.32 0 .27.27 0 00.06-.18v-1.01a1.44 1.44 0 00-.11-.6z"/><path id="path2999" class="cls-1" d="M13.53 4.13a.92.92 0 00-.03.1l-.03.08V4.73a.44.44 0 01-.47.25.23.23 0 01-.17-.12.31.31 0 01-.02-.16.73.73 0 01.02-.2 3.84 3.84 0 00.02-.14.4.4 0 00-.06.16c-.1.35-.05.61.13.66a.4.4 0 00.18 0 .55.55 0 00.27-.19.95.95 0 00.17-.39 6.47 6.47 0 000-.47z"/><path id="path3001" class="cls-1" d="M9.25 5.08l-.15.36a.58.58 0 00-.06.22v.04l.03.04a3.47 3.47 0 01.26.38 1.06 1.06 0 01.1.88l-.17.54a3.67 3.67 0 00-.16.62 1.63 1.63 0 00-.02.32 1 1 0 00.1.47.34.34 0 00.05.09.63.63 0 00.32.17 2.23 2.23 0 01.3.13c.06.03.06.03.08.06a.63.63 0 01-.06.54 2.18 2.18 0 01-.92.97 1.59 1.59 0 01-.79.21 1.04 1.04 0 01-.25-.02.92.92 0 01-.56-.37 1.74 1.74 0 01-.2-.53 2.45 2.45 0 01-.06-.67 9.87 9.87 0 01.32-1.61l.05-.2v-.05c0-.06 0-.07-.02-.08-.02-.03-.06 0-.08.04L7.22 8a12.97 12.97 0 00-.37 1.32 5.9 5.9 0 00-.1.75v.62a2.4 2.4 0 00.28.92 1.26 1.26 0 00.25.31 1 1 0 00.53.23 1.43 1.43 0 00.32 0 1.96 1.96 0 00.76-.33 3.1 3.1 0 00.97-1.24 4.2 4.2 0 00.37-1.39 2.75 2.75 0 000-.38.95.95 0 00-.11-.38.55.55 0 00-.29-.22c-.3-.13-.32-.14-.35-.18a.36.36 0 01-.07-.12.37.37 0 010-.15 8.64 8.64 0 01.3-.77 2.9 2.9 0 00.12-.45 3 3 0 01.02-.12 1.8 1.8 0 00-.07-1.01 2 2 0 00-.32-.54.32.32 0 00-.09-.07l-.12.28z"/><path id="path3003" class="cls-1" d="M13.13 5.85c-.42.48-.4.45-.39.46a.57.57 0 00.06.1 2.13 2.13 0 00.2.2.97.97 0 00.23.2.16.16 0 00.1.01 3.89 3.89 0 00.5-.53c.03-.04.02-.07-.03-.1a.35.35 0 01-.07-.08 1.03 1.03 0 00-.1-.1 4.44 4.44 0 01-.35-.32l-.15.16z"/><path id="path3005" class="cls-1" d="M11.29 6.09c-.02 0-.03.03-.05.09l-.1.31a2.05 2.05 0 00-.14.39.85.85 0 00-.02.16l-.01 1.06-.01 1.05v.44l.01.19a5 5 0 00.1.72.86.86 0 00.42.57.94.94 0 00.6 0 1.17 1.17 0 00.62-.48l.5-.83.38-.64v-.05c.02-.05.02-.05.01-.08a.1.1 0 00-.05-.06.38.38 0 00-.05 0l-.12-.02c-.41-.04-.82-.07-1.08-.07-.1 0-.1 0-.1-.02 0-.04.07-.12.18-.22a1.76 1.76 0 011.03-.46.23.23 0 01.16.03.9.9 0 01.17.13.64.64 0 00.19.11.18.18 0 00.08 0c.24 0 .5-.25.76-.7.1-.18.12-.22.12-.26V7.4a.12.12 0 00-.05-.02.07.07 0 00-.05 0l-.29.32a.61.61 0 01-.29.2.45.45 0 01-.18.01.28.28 0 01-.17-.1.57.57 0 00-.12-.1.16.16 0 00-.08-.02 1.18 1.18 0 00-.54.12l-.5.28a2.16 2.16 0 00-.81.99c-.02.06-.02.07 0 .1l.1.03a2.54 2.54 0 00.53.05 60.4 60.4 0 00.7.06.8.8 0 01-.08.14 2.04 2.04 0 01-.39.37 1.21 1.21 0 01-.76.24.6.6 0 01-.3-.1.79.79 0 01-.23-.46l-.05-.35-.03-.3v-.72a20.75 20.75 0 01.08-1.85c.02-.16.02-.16-.01-.19a.1.1 0 00-.06-.03.1.1 0 00-.02 0z"/><path id="path3007" class="cls-1" d="M14.42 9l-.43.53v.02l.03.05a.73.73 0 00.16.19 1.21 1.21 0 00.35.24c.06.02.04.04.26-.2a2.27 2.27 0 01.21-.21c.01 0 .03.01.06.05a3.58 3.58 0 00.3.31c.01.02.06.04.1.07.07.03.08.04.11.04.06 0 .05.02.3-.27l.22-.27a.1.1 0 00.02-.07.12.12 0 000-.03l-.12-.1a6.37 6.37 0 01-.36-.33l-.06-.05h-.07l-.18.23a8.94 8.94 0 01-.22.21l-.06-.05a11.02 11.02 0 01-.52-.44h-.02l-.08.09z"/><path id="path3009" class="cls-1" d="M14.77 10.43l-.25.3a1.04 1.04 0 00.18.24 1.2 1.2 0 00.25.21c.05.03.05.03.08.03.06 0 .08 0 .18-.11a4.25 4.25 0 00.35-.44v-.03l-.07-.07q-.18-.15-.33-.31l-.1-.1H15z"/><path id="path3011" class="cls-1" d="M11.53 11.97l-.27.28c-.1.1-.1.1-.1.13l-.01.03.04.05.26.31.08.09.08.04a.4.4 0 00.1.05c.04 0 .05 0 .32-.28.25-.25.27-.27.27-.3 0-.02 0-.03-.05-.07l-.34-.34a1.06 1.06 0 00-.17-.16.1.1 0 00-.03-.01l-.18.18z"/><path id="path3013" class="cls-1" d="M9.15 12.49a21.14 21.14 0 01-.52.52.26.26 0 00.04.12 2.77 2.77 0 00.37.44.22.22 0 00.12.04c.02 0 .03 0 .07-.04a3.46 3.46 0 00.55-.48.17.17 0 00.03-.07c0-.02 0-.03-.14-.17a6.72 6.72 0 01-.33-.38l-.05-.07h-.05l-.09.09z"/><rect class="cls-1" x="18.72" y="6.59" width="6.21" height=".81" rx=".41" ry=".41"/><rect class="cls-1" x="18.72" y="8.32" width="6.21" height=".81" rx=".41" ry=".41"/><rect class="cls-1" x="18.72" y="10.05" width="6.21" height=".81" rx=".41" ry=".41"/></svg>