<svg id="Слой_1" data-name="Слой 1" xmlns="http://www.w3.org/2000/svg" viewBox="0 0 29.99 29.99"><defs><style>.cls-1{fill:#ffffff}</style></defs><path id="path20" class="cls-1" d="M9 12.67l-.26-.3v-1.88H6.82v.48c0 .47 0 .47-.06.53a.2.2 0 01-.1.06 4.51 4.51 0 01-1.42-1.48c-.04-.1-.02-.19.07-.22a2.36 2.36 0 01.43-.03h.35V7.7H4.73v-.66h16.7l-.1-.22a1.87 1.87 0 01-.1-1.7 1.15 1.15 0 01.27-.36 1.4 1.4 0 011.01-.43 2.05 2.05 0 011.64.68 4.9 4.9 0 01.96 1.69l.13.34h1.4v.66h-1.41v5.26h-.1c-.11 0-.12 0-.37-.3l-.26-.3V7.7h-3.14v1.65l.22.04a1.67 1.67 0 011.4 1.19 2.06 2.06 0 010 .76 1.9 1.9 0 01-1.76 1.27 2.07 2.07 0 01-2.28-1.8 1.18 1.18 0 01.29-1.02 3.02 3.02 0 01.96-.48c.34-.12.43-.17.5-.3.04-.07.05-.13.05-.7l.01-.6h-3.63v5.27h-.08c-.07 0-.1-.03-.36-.32l-.28-.32V7.7h-1.48c-1.4 0-1.48 0-1.46.03l.06.23a2.11 2.11 0 01.05.64 2.05 2.05 0 01-.05.66 2.8 2.8 0 01-.7 1.18l-.23.24.36.35a17.15 17.15 0 001.9 1.57l.25.17-.05.1-.06.08-.14-.1c-.26-.18-.97-.71-1.27-.96a10.1 10.1 0 01-1.84-1.83c-.27-.4-.26-.72.01-.86a.6.6 0 01.37-.06 1.73 1.73 0 01.44.06 1.32 1.32 0 00.22.04l.1-.15a1.26 1.26 0 00.04-1.22l-.07-.18H9.48l-.01 2.64v2.63l-.1.01h-.1zm12.09-.64a2 2 0 001.27-.91 1 1 0 00-.47-1.4 1.85 1.85 0 00-.4-.14c-.2-.04-.2-.04-.28.01a3.17 3.17 0 01-.73.32 2.07 2.07 0 00-1 .47.96.96 0 00-.11 1.07 1.31 1.31 0 00.44.5 1.43 1.43 0 00.28.1 2.41 2.41 0 001-.02zM8.74 8.76V7.7H6.82v2.14h1.92zm16.22-1.74l-.17-.36A4.62 4.62 0 0024 5.51a1.91 1.91 0 00-.7-.48.97.97 0 00-.5-.08.84.84 0 00-.73.24 1.18 1.18 0 00-.27.97 2.25 2.25 0 00.15.72l.05.15h1.48l1.48-.01z"/><path class="cls-1" d="M9.77 19.75L8.6 18.5a.3.3 0 10-.43.41l.78.8a2.76 2.76 0 01-2.97-3.55.3.3 0 10-.57-.18 3.35 3.35 0 003.32 4.34l-.57.55a.3.3 0 10.41.42l1.2-1.15a.24.24 0 00.1-.18.27.27 0 00-.09-.22zM23.1 19.3H11.9A1.74 1.74 0 0010.45 21v2.96a1.75 1.75 0 001.74 1.75h.69l.07 1.67a.25.25 0 00.15.24c.12.04.26-.1.26-.1l1.8-1.81h7.66a1.75 1.75 0 001.74-1.75v-2.96a1.74 1.74 0 00-1.46-1.72zM15.08 25a.34.34 0 00-.24.1l-1.24 1.24-.05-.98a.32.32 0 00-.13-.25.35.35 0 00-.25-.1h-.98a1.03 1.03 0 01-1.03-1.04v-2.96a1.03 1.03 0 011.03-1.03h10.63a1.03 1.03 0 011.03 1.03v2.96A1.03 1.03 0 0122.82 25zM26.6 3.11H5.06a3.1 3.1 0 00-2.6 3.07v5.7a3.12 3.12 0 003.12 3.11l14.77-.01 3.48 3.45a.3.3 0 00.22.09.31.31 0 00.3-.3l.09-3.23h1.62a3.12 3.12 0 003.11-3.11v-5.7A3.1 3.1 0 0026.6 3.1zm-.54 11h-1.89a.45.45 0 00-.32.15.4.4 0 00-.17.3l-.04 1.52v.98l-2.88-2.84-.27-.1H5.59a2.24 2.24 0 01-2.24-2.24v-5.7a2.24 2.24 0 012.23-2.24h20.48a2.24 2.24 0 012.23 2.24v5.7a2.24 2.24 0 01-2.23 2.23z"/><path class="cls-1" d="M12.45 22.63a.28.28 0 010-.54h3.04a.28.28 0 010 .54zM12.45 21.44a.28.28 0 010-.55h3.04a.28.28 0 010 .55zM12.45 23.83a.28.28 0 010-.54h3.04a.28.28 0 010 .54zM20 21.4a.2.2 0 00.15-.06.23.23 0 00.06-.16.25.25 0 00-.06-.16.2.2 0 00-.15-.07h-1.51a.2.2 0 00-.16.07.26.26 0 00-.06.18v2.7a.26.26 0 00.06.17.2.2 0 00.16.08h1.5a.2.2 0 00.16-.07.25.25 0 00.06-.17.23.23 0 00-.06-.16.2.2 0 00-.15-.06h-1.3v-.93h.92a.2.2 0 00.15-.06.26.26 0 000-.33.2.2 0 00-.15-.06h-.92v-.9zM22.27 22.36a.84.84 0 00-.3-.37.8.8 0 00-.44-.12.77.77 0 00-.33.07.79.79 0 00-.2.14.25.25 0 00-.05-.13.2.2 0 00-.16-.06.2.2 0 00-.15.06.26.26 0 00-.06.18v1.78a.26.26 0 00.06.17.2.2 0 00.3 0 .26.26 0 00.06-.17v-1.13a.49.49 0 01.06-.24.45.45 0 01.17-.17.46.46 0 01.24-.06.45.45 0 01.35.15.69.69 0 01.14.47v.98a.26.26 0 00.06.17.2.2 0 00.3 0 .26.26 0 00.06-.17v-.98a1.39 1.39 0 00-.1-.57z"/></svg>