<?xml version="1.0" encoding="UTF-8" standalone="no"?>
<!-- Created with Inkscape (http://www.inkscape.org/) -->

<svg
   xmlns:dc="http://purl.org/dc/elements/1.1/"
   xmlns:cc="http://creativecommons.org/ns#"
   xmlns:rdf="http://www.w3.org/1999/02/22-rdf-syntax-ns#"
   xmlns:svg="http://www.w3.org/2000/svg"
   xmlns="http://www.w3.org/2000/svg"
   xmlns:sodipodi="http://sodipodi.sourceforge.net/DTD/sodipodi-0.dtd"
   xmlns:inkscape="http://www.inkscape.org/namespaces/inkscape"
   version="1.1"
   id="svg4625"
   xml:space="preserve"
   width="60"
   height="64"
   viewBox="0 0 60 64"
   sodipodi:docname="Translate text from Punjabi to English.svg"
   inkscape:version="0.92.3 (2405546, 2018-03-11)"><metadata
     id="metadata4631"><rdf:RDF><cc:Work
         rdf:about=""><dc:format>image/svg+xml</dc:format><dc:type
           rdf:resource="http://purl.org/dc/dcmitype/StillImage" /><dc:title></dc:title></cc:Work></rdf:RDF></metadata><defs
     id="defs4629"><clipPath
       clipPathUnits="userSpaceOnUse"
       id="clipPath4653"><path
         d="M 0,48 H 45 V 0 H 0 Z"
         id="path4651"
         inkscape:connector-curvature="0" /></clipPath></defs><sodipodi:namedview
     pagecolor="#ffffff"
     bordercolor="#666666"
     borderopacity="1"
     objecttolerance="10"
     gridtolerance="10"
     guidetolerance="10"
     inkscape:pageopacity="0"
     inkscape:pageshadow="2"
     inkscape:window-width="697"
     inkscape:window-height="480"
     id="namedview4627"
     showgrid="false"
     inkscape:zoom="3.6875"
     inkscape:cx="30"
     inkscape:cy="32"
     inkscape:window-x="0"
     inkscape:window-y="0"
     inkscape:window-maximized="0"
     inkscape:current-layer="g4633" /><g
     id="g4633"
     inkscape:groupmode="layer"
     inkscape:label="Translate text from Punjabi to English"
     transform="matrix(1.3333333,0,0,-1.3333333,0,64)"><g
       id="g4635"
       transform="translate(28.7031,35.5366)"><path
         d="M 0,0 H 8.917"
         style="fill:none;stroke:#0098da;stroke-width:1.70000005;stroke-linecap:round;stroke-linejoin:round;stroke-miterlimit:10;stroke-dasharray:none;stroke-opacity:1"
         id="path4637"
         inkscape:connector-curvature="0" /></g><g
       id="g4639"
       transform="translate(28.7031,39.5366)"><path
         d="M 0,0 H 8.917"
         style="fill:none;stroke:#0098da;stroke-width:1.70000005;stroke-linecap:round;stroke-linejoin:round;stroke-miterlimit:10;stroke-dasharray:none;stroke-opacity:1"
         id="path4641"
         inkscape:connector-curvature="0" /></g><g
       id="g4643"
       transform="translate(28.7031,31.5366)"><path
         d="M 0,0 H 8.917"
         style="fill:none;stroke:#0098da;stroke-width:1.70000005;stroke-linecap:round;stroke-linejoin:round;stroke-miterlimit:10;stroke-dasharray:none;stroke-opacity:1"
         id="path4645"
         inkscape:connector-curvature="0" /></g><g
       id="g4647"><g
         id="g4649"
         clip-path="url(#clipPath4653)"><g
           id="g4655"
           transform="translate(39.3867,47.0278)"><path
             d="m 0,0 h -34.191 c -2.87,0 -5.196,-2.326 -5.196,-5.195 v -12.307 c 0,-2.929 2.375,-5.303 5.304,-5.303 h 22.562 l 7.397,-3.913 c 0.058,-0.031 0.118,-0.044 0.177,-0.044 0.199,0 0.38,0.161 0.377,0.383 l -0.045,3.52 3.249,0.019 c 3.308,0.019 5.979,2.706 5.979,6.014 V -5.613 C 5.613,-2.513 3.101,0 0,0 m 0,-1.7 c 2.158,0 3.913,-1.755 3.913,-3.913 v -11.213 c 0,-2.365 -1.924,-4.3 -4.289,-4.315 l -3.249,-0.019 c -0.453,-0.002 -0.886,-0.186 -1.203,-0.509 -0.318,-0.323 -0.492,-0.759 -0.486,-1.212 l 0.016,-1.292 -5.428,2.871 c -0.245,0.129 -0.517,0.197 -0.795,0.197 h -22.562 c -1.987,0 -3.604,1.616 -3.604,3.603 v 12.307 c 0,1.927 1.568,3.495 3.496,3.495 L 0,-1.7"
             style="fill:#0098da;fill-opacity:1;fill-rule:nonzero;stroke:none"
             id="path4657"
             inkscape:connector-curvature="0" /></g><g
           id="g4659"
           transform="translate(32.7236,19.2031)"><path
             d="m 0,0 h -20.46 c -1.765,0 -3.195,-1.43 -3.195,-3.194 v -9.382 c 0,-1.883 1.52,-3.412 3.403,-3.423 l 1.849,-0.011 -0.025,-2.004 c -0.002,-0.126 0.101,-0.217 0.215,-0.217 0.033,0 0.067,0.007 0.1,0.025 l 4.21,2.227 h 13.841 c 1.666,0 3.018,1.351 3.018,3.018 V -2.956 C 2.956,-1.323 1.633,0 0,0 m 0,-1.7 c 0.692,0 1.256,-0.564 1.256,-1.256 v -10.005 c 0,-0.727 -0.591,-1.318 -1.318,-1.318 h -13.841 c -0.277,0 -0.55,-0.068 -0.795,-0.198 l -2.063,-1.09 c -0.076,0.279 -0.222,0.538 -0.428,0.748 -0.318,0.323 -0.751,0.506 -1.204,0.509 l -1.849,0.011 c -0.945,0.005 -1.713,0.778 -1.713,1.723 v 9.382 c 0,0.824 0.671,1.494 1.495,1.494 L 0,-1.7"
             style="fill:#0098da;fill-opacity:1;fill-rule:nonzero;stroke:none"
             id="path4661"
             inkscape:connector-curvature="0" /></g><g
           id="g4663"
           transform="translate(22.5767,7.4443)"><path
             d="m 0,0 c -0.192,0 -0.36,0.08 -0.486,0.231 -0.117,0.14 -0.176,0.311 -0.176,0.504 v 5.994 c 0,0.201 0.062,0.377 0.18,0.512 C -0.356,7.388 -0.189,7.465 0,7.465 H 3.352 C 3.546,7.465 3.713,7.391 3.834,7.252 3.947,7.122 4.006,6.951 4.006,6.756 4.006,6.562 3.947,6.397 3.831,6.27 3.708,6.135 3.543,6.063 3.352,6.063 H 0.663 V 4.464 H 2.514 C 2.702,4.464 2.867,4.391 2.991,4.253 3.108,4.121 3.168,3.957 3.168,3.764 3.168,3.572 3.106,3.404 2.99,3.274 2.867,3.137 2.702,3.063 2.514,3.063 H 0.663 V 1.402 H 3.352 C 3.541,1.402 3.706,1.331 3.829,1.198 3.946,1.069 4.006,0.901 4.006,0.71 4.006,0.515 3.947,0.344 3.834,0.214 3.713,0.074 3.546,0 3.352,0 Z"
             style="fill:#0098da;fill-opacity:1;fill-rule:nonzero;stroke:none"
             id="path4665"
             inkscape:connector-curvature="0" /></g><g
           id="g4667"
           transform="translate(31.1221,7.4355)"><path
             d="m 0,0 c -0.189,0 -0.361,0.081 -0.482,0.228 -0.115,0.135 -0.173,0.304 -0.173,0.499 v 2.178 c 0,0.408 -0.085,0.711 -0.254,0.903 C -1.072,3.993 -1.278,4.08 -1.558,4.08 -1.716,4.08 -1.855,4.043 -1.984,3.968 -2.114,3.892 -2.212,3.792 -2.285,3.663 -2.356,3.535 -2.394,3.387 -2.394,3.224 V 0.727 C -2.394,0.536 -2.45,0.364 -2.558,0.231 -2.683,0.08 -2.852,0 -3.048,0 -3.236,0 -3.407,0.081 -3.53,0.227 c -0.115,0.138 -0.172,0.306 -0.172,0.5 v 3.949 c 0,0.202 0.058,0.373 0.175,0.507 0.126,0.144 0.292,0.219 0.479,0.219 0.196,0 0.364,-0.077 0.486,-0.223 0.021,-0.025 0.04,-0.05 0.057,-0.078 0.088,0.062 0.181,0.118 0.279,0.165 0.256,0.12 0.531,0.179 0.817,0.179 0.392,0 0.753,-0.102 1.069,-0.306 C -0.021,4.928 0.228,4.627 0.399,4.244 0.568,3.869 0.654,3.418 0.654,2.905 V 0.727 C 0.654,0.533 0.597,0.365 0.483,0.229 0.359,0.081 0.188,0 0,0"
             style="fill:#0098da;fill-opacity:1;fill-rule:nonzero;stroke:none"
             id="path4669"
             inkscape:connector-curvature="0" /></g><g
           id="g4671"
           transform="translate(13.8613,11.0664)"><path
             d="M 0,0 H 5"
             style="fill:none;stroke:#0098da;stroke-width:1.70000005;stroke-linecap:round;stroke-linejoin:round;stroke-miterlimit:10;stroke-dasharray:none;stroke-opacity:1"
             id="path4673"
             inkscape:connector-curvature="0" /></g><g
           id="g4675"
           transform="translate(13.8613,14.0664)"><path
             d="M 0,0 H 5"
             style="fill:none;stroke:#0098da;stroke-width:1.70000005;stroke-linecap:round;stroke-linejoin:round;stroke-miterlimit:10;stroke-dasharray:none;stroke-opacity:1"
             id="path4677"
             inkscape:connector-curvature="0" /></g><g
           id="g4679"
           transform="translate(13.8613,8.0664)"><path
             d="M 0,0 H 5"
             style="fill:none;stroke:#0098da;stroke-width:1.70000005;stroke-linecap:round;stroke-linejoin:round;stroke-miterlimit:10;stroke-dasharray:none;stroke-opacity:1"
             id="path4681"
             inkscape:connector-curvature="0" /></g><g
           id="g4683"
           transform="translate(1.7559,22.5479)"><path
             d="M 0,0 C -0.616,-4.628 2.965,-7.627 5.157,-7.537"
             style="fill:none;stroke:#0098da;stroke-width:1.70000005;stroke-linecap:round;stroke-linejoin:round;stroke-miterlimit:10;stroke-dasharray:none;stroke-opacity:1"
             id="path4685"
             inkscape:connector-curvature="0" /></g><g
           id="g4687"
           transform="translate(6.3911,18.2012)"><path
             d="M 0,0 0.872,-3.956 -2.943,-4.205"
             style="fill:none;stroke:#0098da;stroke-width:1.70000005;stroke-linecap:round;stroke-linejoin:round;stroke-miterlimit:10;stroke-dasharray:none;stroke-opacity:1"
             id="path4689"
             inkscape:connector-curvature="0" /></g><g
           id="g4691"
           transform="translate(18.644,43.6167)"><path
             d="m 0,0 c -0.009,-0.015 -0.036,-0.092 -0.059,-0.169 l -0.045,-0.143 0.003,-0.326 0.002,-0.326 -0.021,-0.051 c -0.115,-0.286 -0.486,-0.492 -0.774,-0.431 -0.137,0.03 -0.237,0.104 -0.284,0.21 -0.037,0.083 -0.045,0.133 -0.044,0.264 10e-4,0.112 0.003,0.129 0.047,0.333 0.025,0.118 0.046,0.222 0.047,0.232 10e-4,0.011 -0.004,0.017 -0.016,0.017 -0.02,0 -0.08,-0.14 -0.113,-0.27 -0.16,-0.602 -0.073,-1.035 0.222,-1.114 0.078,-0.021 0.217,-0.02 0.301,0.003 0.175,0.05 0.358,0.172 0.463,0.313 0.136,0.179 0.253,0.454 0.283,0.659 0.012,0.089 0.034,0.788 0.025,0.815 C 0.029,0.035 0.017,0.029 0,0"
             style="fill:#0098da;fill-opacity:1;fill-rule:nonzero;stroke:none"
             id="path4693"
             inkscape:connector-curvature="0" /></g><g
           id="g4695"
           transform="translate(11.4331,42.0093)"><path
             d="m 0,0 c -0.107,-0.258 -0.222,-0.533 -0.255,-0.61 -0.079,-0.188 -0.1,-0.263 -0.105,-0.363 l -0.005,-0.08 0.052,-0.063 c 0.156,-0.193 0.345,-0.458 0.45,-0.638 0.259,-0.439 0.299,-0.84 0.149,-1.478 -0.041,-0.178 -0.079,-0.304 -0.271,-0.907 -0.16,-0.505 -0.217,-0.726 -0.266,-1.044 -0.036,-0.23 -0.044,-0.324 -0.043,-0.542 0,-0.34 0.043,-0.562 0.155,-0.793 0.026,-0.051 0.051,-0.086 0.109,-0.149 0.131,-0.14 0.211,-0.184 0.537,-0.3 0.259,-0.091 0.419,-0.157 0.515,-0.21 0.087,-0.048 0.089,-0.051 0.114,-0.1 0.112,-0.238 0.079,-0.531 -0.104,-0.921 -0.315,-0.669 -0.861,-1.242 -1.549,-1.623 -0.441,-0.245 -0.866,-0.362 -1.317,-0.364 -0.179,-10e-4 -0.281,0.009 -0.424,0.04 -0.385,0.084 -0.697,0.291 -0.942,0.623 -0.124,0.17 -0.278,0.558 -0.355,0.891 -0.081,0.353 -0.115,0.778 -0.091,1.126 0.041,0.595 0.209,1.451 0.534,2.72 l 0.084,0.325 -0.003,0.103 c -0.002,0.094 -0.004,0.104 -0.021,0.124 -0.041,0.046 -0.109,0.017 -0.145,-0.062 -0.03,-0.066 -0.17,-0.439 -0.232,-0.624 -0.225,-0.66 -0.493,-1.629 -0.616,-2.227 -0.089,-0.428 -0.153,-0.88 -0.18,-1.257 -0.014,-0.195 -0.005,-0.897 0.012,-1.046 0.071,-0.613 0.22,-1.108 0.467,-1.55 0.108,-0.195 0.283,-0.413 0.429,-0.536 0.247,-0.208 0.539,-0.333 0.885,-0.378 0.132,-0.018 0.4,-0.014 0.535,0.008 0.416,0.068 0.904,0.276 1.293,0.552 0.637,0.451 1.202,1.177 1.623,2.085 0.336,0.728 0.561,1.568 0.622,2.337 0.013,0.173 0.011,0.498 -0.005,0.64 -0.032,0.288 -0.094,0.514 -0.177,0.643 -0.102,0.162 -0.225,0.253 -0.482,0.366 -0.512,0.222 -0.541,0.237 -0.597,0.303 -0.049,0.058 -0.093,0.14 -0.112,0.21 -0.017,0.06 -0.017,0.182 0,0.248 0.006,0.029 0.108,0.297 0.226,0.597 0.118,0.299 0.239,0.618 0.271,0.708 0.097,0.274 0.167,0.531 0.206,0.754 0.01,0.061 0.029,0.153 0.04,0.204 0.121,0.568 0.077,1.148 -0.13,1.704 C 0.768,-0.251 0.521,0.17 0.354,0.349 0.302,0.405 0.218,0.471 0.2,0.471 0.197,0.471 0.107,0.259 0,0"
             style="fill:#0098da;fill-opacity:1;fill-rule:nonzero;stroke:none"
             id="path4697"
             inkscape:connector-curvature="0" /></g><g
           id="g4699"
           transform="translate(17.9692,40.7065)"><path
             d="m 0,0 c -0.716,-0.811 -0.663,-0.748 -0.652,-0.772 0.015,-0.039 0.054,-0.105 0.091,-0.158 0.043,-0.06 0.106,-0.129 0.331,-0.356 0.17,-0.174 0.296,-0.277 0.403,-0.329 0.048,-0.024 0.12,-0.034 0.159,-0.023 0.075,0.022 0.79,0.78 0.855,0.908 0.034,0.065 0.017,0.12 -0.057,0.175 C 1.077,-0.514 1.009,-0.446 1.003,-0.428 1.001,-0.421 0.931,-0.352 0.847,-0.276 0.65,-0.098 0.546,0.003 0.414,0.142 0.315,0.245 0.282,0.272 0.251,0.272 0.245,0.272 0.132,0.149 0,0"
             style="fill:#0098da;fill-opacity:1;fill-rule:nonzero;stroke:none"
             id="path4701"
             inkscape:connector-curvature="0" /></g><g
           id="g4703"
           transform="translate(14.8647,40.3086)"><path
             d="M 0,0 C -0.034,-0.015 -0.052,-0.052 -0.078,-0.148 -0.106,-0.255 -0.186,-0.48 -0.265,-0.676 -0.424,-1.07 -0.454,-1.156 -0.491,-1.33 -0.506,-1.398 -0.512,-1.458 -0.518,-1.599 -0.539,-2.123 -0.544,-2.45 -0.545,-3.392 -0.546,-3.953 -0.552,-4.747 -0.557,-5.155 l -0.01,-0.742 0.033,-0.321 c 0.087,-0.845 0.113,-1.043 0.161,-1.219 0.129,-0.462 0.358,-0.774 0.707,-0.959 0.21,-0.113 0.668,-0.119 1.01,-0.014 0.409,0.125 0.761,0.401 1.047,0.817 0.069,0.102 0.038,0.05 0.84,1.401 l 0.641,1.079 0.021,0.088 c 0.019,0.087 0.019,0.088 0.006,0.129 -0.022,0.059 -0.053,0.098 -0.087,0.107 -0.016,0.004 -0.056,0.01 -0.088,0.013 -0.033,0.004 -0.12,0.011 -0.194,0.018 -0.7,0.066 -1.385,0.113 -1.822,0.127 -0.173,0.006 -0.176,0.006 -0.176,0.025 0,0.064 0.12,0.21 0.313,0.378 0.53,0.46 1.101,0.713 1.724,0.765 0.133,0.01 0.169,0.005 0.27,-0.047 0.083,-0.04 0.144,-0.084 0.298,-0.208 0.126,-0.102 0.231,-0.166 0.314,-0.194 0.05,-0.015 0.07,-0.017 0.143,-0.013 0.389,0.021 0.827,0.434 1.28,1.208 0.165,0.28 0.2,0.357 0.2,0.429 0,0.04 -0.003,0.048 -0.02,0.063 -0.011,0.01 -0.04,0.022 -0.063,0.028 C 5.953,-2.188 5.941,-2.189 5.906,-2.201 5.863,-2.216 5.834,-2.246 5.418,-2.727 5.255,-2.915 5.096,-3.027 4.922,-3.076 4.836,-3.101 4.705,-3.107 4.616,-3.09 4.51,-3.07 4.457,-3.037 4.333,-2.91 4.246,-2.821 4.184,-2.769 4.133,-2.741 4.097,-2.721 4.081,-2.718 3.987,-2.714 3.706,-2.705 3.361,-2.785 3.08,-2.925 2.785,-3.074 2.344,-3.322 2.256,-3.389 1.503,-3.959 1.039,-4.52 0.875,-5.055 0.844,-5.153 0.847,-5.172 0.889,-5.218 0.916,-5.246 0.929,-5.251 1.042,-5.28 1.176,-5.313 1.106,-5.307 1.943,-5.361 2.288,-5.383 2.508,-5.396 2.938,-5.42 3.068,-5.426 3.107,-5.436 3.107,-5.458 3.107,-5.479 3.026,-5.641 2.988,-5.699 2.888,-5.849 2.556,-6.166 2.327,-6.327 1.928,-6.609 1.431,-6.766 1.049,-6.728 0.841,-6.708 0.683,-6.651 0.532,-6.544 0.374,-6.432 0.223,-6.132 0.15,-5.789 0.138,-5.734 0.107,-5.488 0.075,-5.194 l -0.054,0.502 v 1.215 c 0,1.15 0.004,1.494 0.023,1.848 0.022,0.4 0.061,0.855 0.11,1.265 0.033,0.283 0.034,0.275 -0.02,0.325 C 0.103,-0.009 0.062,0.012 0.039,0.012 0.031,0.011 0.013,0.006 0,0"
             style="fill:#0098da;fill-opacity:1;fill-rule:nonzero;stroke:none"
             id="path4705"
             inkscape:connector-curvature="0" /></g><g
           id="g4707"
           transform="translate(20.1436,35.3877)"><path
             d="M 0,0 C -0.315,-0.372 -0.659,-0.788 -0.719,-0.873 L -0.741,-0.904 -0.682,-1 c 0.074,-0.117 0.124,-0.173 0.283,-0.313 0.259,-0.231 0.442,-0.358 0.584,-0.409 0.097,-0.035 0.061,-0.062 0.442,0.341 0.232,0.247 0.343,0.359 0.354,0.359 0.012,0 0.042,-0.03 0.096,-0.095 0.131,-0.159 0.446,-0.491 0.499,-0.527 0.026,-0.018 0.106,-0.064 0.178,-0.103 0.12,-0.064 0.136,-0.071 0.187,-0.075 0.104,-0.008 0.081,-0.028 0.493,0.45 0.201,0.235 0.374,0.438 0.383,0.453 0.029,0.046 0.038,0.08 0.035,0.124 -0.003,0.024 -0.006,0.044 -0.008,0.045 -10e-4,0.001 -0.095,0.082 -0.209,0.179 -0.302,0.259 -0.446,0.388 -0.607,0.546 L 1.936,0.066 1.878,0.064 1.82,0.062 1.507,-0.314 C 1.334,-0.521 1.187,-0.693 1.18,-0.698 1.17,-0.704 1.162,-0.7 1.142,-0.68 1.128,-0.666 1.082,-0.626 1.041,-0.592 0.753,-0.352 0.403,-0.048 0.285,0.066 0.219,0.13 0.205,0.138 0.163,0.144 L 0.127,0.149 Z"
             style="fill:#0098da;fill-opacity:1;fill-rule:nonzero;stroke:none"
             id="path4709"
             inkscape:connector-curvature="0" /></g><g
           id="g4711"
           transform="translate(20.7246,32.9941)"><path
             d="m 0,0 c -0.248,-0.285 -0.416,-0.485 -0.417,-0.496 -0.004,-0.035 0.158,-0.254 0.313,-0.421 0.14,-0.151 0.254,-0.25 0.414,-0.353 0.082,-0.054 0.083,-0.054 0.142,-0.054 0.096,0 0.124,0.019 0.288,0.197 0.198,0.214 0.514,0.607 0.59,0.733 0.023,0.038 0.025,0.047 0.015,0.056 C 1.339,-0.332 1.279,-0.28 1.211,-0.222 1.019,-0.056 0.833,0.12 0.657,0.306 L 0.494,0.477 H 0.454 0.415 Z"
             style="fill:#0098da;fill-opacity:1;fill-rule:nonzero;stroke:none"
             id="path4713"
             inkscape:connector-curvature="0" /></g><g
           id="g4715"
           transform="translate(15.2769,30.3979)"><path
             d="M 0,0 C -0.162,-0.168 -0.37,-0.384 -0.462,-0.48 -0.627,-0.649 -0.631,-0.655 -0.639,-0.698 L -0.646,-0.74 -0.58,-0.827 c 0.136,-0.179 0.308,-0.386 0.436,-0.526 l 0.133,-0.144 0.141,-0.077 c 0.096,-0.051 0.152,-0.077 0.169,-0.077 0.071,0 0.075,0.003 0.533,0.464 0.433,0.436 0.462,0.468 0.462,0.52 0,0.034 -0.011,0.049 -0.089,0.119 C 1.046,-0.405 0.883,-0.244 0.64,0.013 0.436,0.229 0.38,0.283 0.353,0.293 0.334,0.3 0.312,0.306 0.306,0.306 0.298,0.305 0.161,0.168 0,0"
             style="fill:#0098da;fill-opacity:1;fill-rule:nonzero;stroke:none"
             id="path4717"
             inkscape:connector-curvature="0" /></g><g
           id="g4719"
           transform="translate(11.2661,29.5249)"><path
             d="m 0,0 c -0.36,-0.354 -0.712,-0.693 -0.834,-0.802 -0.039,-0.034 -0.042,-0.041 -0.042,-0.073 0,-0.055 0.027,-0.136 0.065,-0.2 0.127,-0.204 0.516,-0.671 0.625,-0.749 0.056,-0.039 0.135,-0.067 0.191,-0.067 0.039,0 0.048,0.004 0.125,0.06 0.115,0.084 0.213,0.163 0.347,0.276 0.182,0.155 0.544,0.491 0.579,0.537 0.024,0.033 0.049,0.093 0.049,0.123 0.001,0.029 -0.011,0.044 -0.231,0.287 C 0.616,-0.325 0.458,-0.141 0.32,0.035 L 0.23,0.15 H 0.191 0.152 Z"
             style="fill:#0098da;fill-opacity:1;fill-rule:nonzero;stroke:none"
             id="path4721"
             inkscape:connector-curvature="0" /></g></g></g></g></svg>