<?xml version="1.0" encoding="UTF-8" standalone="no"?>
<!-- Created with Inkscape (http://www.inkscape.org/) -->

<svg
   xmlns:dc="http://purl.org/dc/elements/1.1/"
   xmlns:cc="http://creativecommons.org/ns#"
   xmlns:rdf="http://www.w3.org/1999/02/22-rdf-syntax-ns#"
   xmlns:svg="http://www.w3.org/2000/svg"
   xmlns="http://www.w3.org/2000/svg"
   xmlns:sodipodi="http://sodipodi.sourceforge.net/DTD/sodipodi-0.dtd"
   xmlns:inkscape="http://www.inkscape.org/namespaces/inkscape"
   version="1.1"
   id="svg4567"
   xml:space="preserve"
   width="60"
   height="64"
   viewBox="0 0 60 64"
   sodipodi:docname="Translate text from Marathi to English.svg"
   inkscape:version="0.92.3 (2405546, 2018-03-11)"><metadata
     id="metadata4573"><rdf:RDF><cc:Work
         rdf:about=""><dc:format>image/svg+xml</dc:format><dc:type
           rdf:resource="http://purl.org/dc/dcmitype/StillImage" /><dc:title></dc:title></cc:Work></rdf:RDF></metadata><defs
     id="defs4571"><clipPath
       clipPathUnits="userSpaceOnUse"
       id="clipPath4583"><path
         d="M 0,48 H 45 V 0 H 0 Z"
         id="path4581"
         inkscape:connector-curvature="0" /></clipPath></defs><sodipodi:namedview
     pagecolor="#ffffff"
     bordercolor="#666666"
     borderopacity="1"
     objecttolerance="10"
     gridtolerance="10"
     guidetolerance="10"
     inkscape:pageopacity="0"
     inkscape:pageshadow="2"
     inkscape:window-width="697"
     inkscape:window-height="480"
     id="namedview4569"
     showgrid="false"
     inkscape:zoom="3.6875"
     inkscape:cx="30"
     inkscape:cy="32"
     inkscape:window-x="0"
     inkscape:window-y="0"
     inkscape:window-maximized="0"
     inkscape:current-layer="g4575" /><g
     id="g4575"
     inkscape:groupmode="layer"
     inkscape:label="Translate text from Marathi to English"
     transform="matrix(1.3333333,0,0,-1.3333333,0,64)"><g
       id="g4577"><g
         id="g4579"
         clip-path="url(#clipPath4583)"><g
           id="g4585"
           transform="translate(35.9961,39.957)"><path
             d="M 0,0 C 1.194,0 2.071,0.007 2.394,0.016 2.341,0.119 2.252,0.297 2.151,0.494 1.737,1.312 1.277,1.985 0.822,2.441 0.399,2.865 0.097,3.077 -0.335,3.251 c -0.268,0.108 -0.312,0.12 -0.784,0.12 v 0.1 l -0.038,-0.1 C -1.811,3.37 -2.032,3.298 -2.343,2.987 -2.681,2.649 -2.814,2.163 -2.776,1.409 -2.753,0.936 -2.701,0.674 -2.536,0.194 L -2.47,0 Z m -25.391,-1.329 h -3.101 v -3.477 h 3.101 z m 21.666,-3.189 c -0.035,0 -0.045,-0.004 -0.109,-0.05 -0.231,-0.164 -0.82,-0.42 -1.285,-0.557 -0.95,-0.28 -1.386,-0.487 -1.664,-0.792 -0.396,-0.433 -0.472,-1.136 -0.187,-1.71 0.158,-0.315 0.463,-0.657 0.728,-0.812 0.087,-0.051 0.295,-0.13 0.456,-0.174 0.159,-0.043 0.394,-0.067 0.663,-0.067 0.352,0 0.713,0.039 0.991,0.108 0.923,0.228 1.812,0.861 2.112,1.503 0.435,0.93 0.129,1.846 -0.761,2.28 -0.192,0.094 -0.47,0.189 -0.661,0.226 -0.147,0.029 -0.227,0.045 -0.283,0.045 m -21.642,-4.806 -0.024,1.678 v 1.512 h -3.101 v -0.717 c 0,-0.842 0,-0.858 -0.132,-0.99 -0.063,-0.064 -0.169,-0.132 -0.251,-0.132 -0.45,0 -2.257,1.936 -2.523,2.601 -0.053,0.131 -0.058,0.246 -0.015,0.34 0.037,0.081 0.107,0.141 0.203,0.175 0.097,0.033 0.466,0.051 0.764,0.051 h 0.5 v 3.477 h -2.34 V 0 h 14.434 c 7.143,0 13.164,0.006 14.178,0.014 -0.031,0.058 -0.071,0.137 -0.116,0.221 -0.541,1.032 -0.603,2.099 -0.172,3.006 0.118,0.248 0.237,0.407 0.491,0.656 0.522,0.513 1.012,0.721 1.807,0.768 0.073,0.004 0.145,0.007 0.218,0.007 0.989,0 1.913,-0.419 2.673,-1.21 C 1.85,2.813 2.41,1.827 2.891,0.53 L 3.087,0 H 5.525 V -1.329 H 3.102 v -9.026 H 2.818 c -0.228,0 -0.255,0.031 -0.701,0.546 L 1.674,-9.297 1.648,-5.23 1.647,-1.329 h -5.19 v -2.643 l 0.305,-0.058 c 1.274,-0.243 2.219,-1.052 2.468,-2.109 0.087,-0.367 0.088,-1.028 0.001,-1.361 -0.315,-1.208 -1.62,-2.157 -3.102,-2.256 -0.098,-0.007 -0.194,-0.01 -0.291,-0.01 -1.938,0 -3.503,1.341 -3.721,3.189 -0.092,0.781 0.087,1.416 0.518,1.838 0.259,0.255 0.918,0.589 1.678,0.85 0.587,0.203 0.706,0.284 0.806,0.455 0.065,0.11 0.073,0.181 0.085,1.151 l 0.012,0.954 h -6.03 v -9.068 h -0.238 c -0.177,0 -0.263,0.093 -0.691,0.588 l -0.481,0.554 -0.024,4.035 v 3.871 l -3.881,0.015 c -0.383,0 -0.791,-0.002 -0.955,-0.016 0.024,-0.078 0.059,-0.195 0.091,-0.311 0.078,-0.278 0.092,-0.448 0.093,-1.134 10e-4,-0.694 -0.013,-0.855 -0.094,-1.147 -0.209,-0.75 -0.613,-1.432 -1.235,-2.081 l -0.318,-0.332 0.546,-0.532 c 0.857,-0.836 2.044,-1.813 3.258,-2.68 0.222,-0.16 0.412,-0.297 0.421,-0.305 0.078,-0.066 0.017,-0.17 -0.065,-0.288 l -0.154,-0.225 -0.335,0.226 c -0.445,0.3 -1.669,1.221 -2.183,1.643 -1.493,1.225 -2.619,2.35 -3.173,3.168 -0.296,0.438 -0.411,0.835 -0.331,1.146 0.052,0.203 0.187,0.367 0.391,0.472 0.185,0.094 0.277,0.112 0.583,0.112 0.385,-0.003 0.63,-0.033 0.88,-0.1 0.136,-0.036 0.257,-0.065 0.312,-0.074 -0.014,0.021 0.042,0.111 0.102,0.212 0.371,0.616 0.391,1.162 0.075,2.015 l -0.088,0.236 h -5.629 l -0.021,-9.04 -0.484,-0.035 z"
             style="fill:#0098da;fill-opacity:1;fill-rule:nonzero;stroke:none"
             id="path4587"
             inkscape:connector-curvature="0" /></g><g
           id="g4589"
           transform="translate(39.3867,48)"><path
             d="m 0,0 h -34.191 c -2.87,0 -5.196,-2.326 -5.196,-5.195 v -12.307 c 0,-2.929 2.375,-5.303 5.304,-5.303 h 22.562 l 7.397,-3.913 c 0.058,-0.03 0.118,-0.045 0.177,-0.045 0.199,0 0.38,0.162 0.377,0.383 l -0.045,3.52 3.249,0.02 c 3.308,0.019 5.979,2.706 5.979,6.014 V -5.613 C 5.613,-2.513 3.101,0 0,0 m 0,-1.7 c 2.158,0 3.913,-1.756 3.913,-3.913 v -11.213 c 0,-2.365 -1.924,-4.3 -4.289,-4.315 l -3.249,-0.019 c -0.453,-0.003 -0.886,-0.186 -1.203,-0.509 -0.318,-0.323 -0.492,-0.76 -0.486,-1.212 l 0.016,-1.292 -5.428,2.87 c -0.245,0.13 -0.517,0.198 -0.795,0.198 h -22.562 c -1.987,0 -3.604,1.616 -3.604,3.603 v 12.307 c 0,1.927 1.568,3.495 3.496,3.495 L 0,-1.7"
             style="fill:#0098da;fill-opacity:1;fill-rule:nonzero;stroke:none"
             id="path4591"
             inkscape:connector-curvature="0" /></g><g
           id="g4593"
           transform="translate(32.9648,20.1758)"><path
             d="m 0,0 h -20.46 c -1.765,0 -3.195,-1.431 -3.195,-3.195 v -9.382 c 0,-1.882 1.52,-3.411 3.403,-3.423 l 1.849,-0.011 -0.025,-2.003 c -0.002,-0.126 0.101,-0.217 0.215,-0.217 0.033,0 0.067,0.007 0.1,0.025 l 4.21,2.227 h 13.841 c 1.666,0 3.018,1.351 3.018,3.018 V -2.957 C 2.956,-1.324 1.633,0 0,0 m 0,-1.7 c 0.692,0 1.256,-0.564 1.256,-1.257 v -10.004 c 0,-0.727 -0.591,-1.318 -1.318,-1.318 h -13.841 c -0.277,0 -0.55,-0.069 -0.795,-0.198 l -2.063,-1.091 c -0.076,0.279 -0.222,0.538 -0.428,0.749 -0.318,0.322 -0.751,0.506 -1.204,0.508 l -1.849,0.011 c -0.945,0.006 -1.713,0.779 -1.713,1.723 v 9.382 c 0,0.824 0.671,1.495 1.495,1.495 L 0,-1.7"
             style="fill:#0098da;fill-opacity:1;fill-rule:nonzero;stroke:none"
             id="path4595"
             inkscape:connector-curvature="0" /></g><g
           id="g4597"
           transform="translate(22.8179,8.416)"><path
             d="m 0,0 c -0.192,0 -0.36,0.081 -0.486,0.232 -0.117,0.14 -0.176,0.31 -0.176,0.503 v 5.994 c 0,0.201 0.062,0.378 0.18,0.512 C -0.356,7.388 -0.189,7.465 0,7.465 H 3.352 C 3.546,7.465 3.713,7.391 3.834,7.252 3.947,7.122 4.006,6.951 4.006,6.756 4.006,6.562 3.947,6.398 3.831,6.27 3.708,6.135 3.543,6.063 3.352,6.063 H 0.663 V 4.464 H 2.514 C 2.702,4.464 2.867,4.391 2.991,4.253 3.108,4.121 3.168,3.957 3.168,3.764 3.168,3.573 3.106,3.404 2.99,3.275 2.867,3.137 2.702,3.063 2.514,3.063 H 0.663 V 1.402 h 2.689 c 0.189,0 0.354,-0.07 0.477,-0.204 C 3.946,1.069 4.006,0.901 4.006,0.71 4.006,0.515 3.947,0.344 3.834,0.214 3.713,0.074 3.546,0 3.352,0 Z"
             style="fill:#0098da;fill-opacity:1;fill-rule:nonzero;stroke:none"
             id="path4599"
             inkscape:connector-curvature="0" /></g><g
           id="g4601"
           transform="translate(31.3633,8.4072)"><path
             d="m 0,0 c -0.189,0 -0.361,0.081 -0.482,0.228 -0.115,0.136 -0.173,0.305 -0.173,0.5 v 2.177 c 0,0.408 -0.085,0.711 -0.254,0.903 C -1.072,3.994 -1.278,4.08 -1.558,4.08 -1.716,4.08 -1.855,4.044 -1.984,3.968 -2.114,3.892 -2.212,3.792 -2.285,3.663 -2.356,3.536 -2.394,3.388 -2.394,3.224 V 0.728 C -2.394,0.537 -2.45,0.364 -2.558,0.231 -2.683,0.08 -2.852,0 -3.048,0 -3.236,0 -3.407,0.081 -3.53,0.227 -3.645,0.365 -3.702,0.534 -3.702,0.728 v 3.948 c 0,0.202 0.058,0.373 0.174,0.507 0.127,0.145 0.293,0.22 0.48,0.22 0.196,0 0.364,-0.077 0.486,-0.223 0.021,-0.025 0.04,-0.05 0.057,-0.078 0.088,0.061 0.181,0.117 0.279,0.164 0.256,0.12 0.531,0.18 0.817,0.18 0.392,0 0.753,-0.103 1.069,-0.307 C -0.021,4.928 0.228,4.627 0.399,4.245 0.568,3.869 0.654,3.418 0.654,2.905 V 0.728 C 0.654,0.534 0.597,0.365 0.483,0.229 0.359,0.081 0.188,0 0,0"
             style="fill:#0098da;fill-opacity:1;fill-rule:nonzero;stroke:none"
             id="path4603"
             inkscape:connector-curvature="0" /></g><g
           id="g4605"
           transform="translate(14.1025,12.0391)"><path
             d="M 0,0 H 5"
             style="fill:none;stroke:#0098da;stroke-width:1.70000005;stroke-linecap:round;stroke-linejoin:round;stroke-miterlimit:10;stroke-dasharray:none;stroke-opacity:1"
             id="path4607"
             inkscape:connector-curvature="0" /></g><g
           id="g4609"
           transform="translate(14.1025,15.0391)"><path
             d="M 0,0 H 5"
             style="fill:none;stroke:#0098da;stroke-width:1.70000005;stroke-linecap:round;stroke-linejoin:round;stroke-miterlimit:10;stroke-dasharray:none;stroke-opacity:1"
             id="path4611"
             inkscape:connector-curvature="0" /></g><g
           id="g4613"
           transform="translate(14.1025,9.0391)"><path
             d="M 0,0 H 5"
             style="fill:none;stroke:#0098da;stroke-width:1.70000005;stroke-linecap:round;stroke-linejoin:round;stroke-miterlimit:10;stroke-dasharray:none;stroke-opacity:1"
             id="path4615"
             inkscape:connector-curvature="0" /></g><g
           id="g4617"
           transform="translate(1.9971,23.5195)"><path
             d="M 0,0 C -0.616,-4.628 2.965,-7.626 5.157,-7.536"
             style="fill:none;stroke:#0098da;stroke-width:1.70000005;stroke-linecap:round;stroke-linejoin:round;stroke-miterlimit:10;stroke-dasharray:none;stroke-opacity:1"
             id="path4619"
             inkscape:connector-curvature="0" /></g><g
           id="g4621"
           transform="translate(6.6323,19.1729)"><path
             d="M 0,0 0.872,-3.956 -2.943,-4.205"
             style="fill:none;stroke:#0098da;stroke-width:1.70000005;stroke-linecap:round;stroke-linejoin:round;stroke-miterlimit:10;stroke-dasharray:none;stroke-opacity:1"
             id="path4623"
             inkscape:connector-curvature="0" /></g></g></g></g></svg>