<svg xmlns="http://www.w3.org/2000/svg" width="39.99" height="39.99"><defs><clipPath clipPathUnits="userSpaceOnUse" id="a"><path d="M0 30h30V0H0z"/></clipPath><clipPath clipPathUnits="userSpaceOnUse" id="b"><path d="M0 30h30V0H0z"/></clipPath></defs><g clip-path="url(#a)" transform="matrix(1.33333 0 0 -1.33333 0 39.99)"><path d="M24.74 17.65a6.41 6.41 0 00-7.84-6.24l.02.05a6.35 6.35 0 01-1.42 6.89c-.15.15-.3.3-.48.43a6.22 6.22 0 01-2.62 1.27h-.02a6.42 6.42 0 0012.36-2.4" fill="#e30a17"/></g><text transform="matrix(1.33333 0 0 1.33333 9.37 23.31)" style="-inkscape-font-specification:RobotoCondensed-Regular" font-weight="400" font-stretch="condensed" font-size="3.31" font-family="Roboto Condensed" fill="#ffffff"><tspan x="0 2.1391902 3.8652179 5.607111 7.3490038" y="0">HATE</tspan></text><g clip-path="url(#b)" transform="matrix(1.33333 0 0 -1.33333 0 39.99)"><path d="M8.81 14.85H8.5V13.8h-.9v1.06h-.33V12.5h.32v1.04h.9V12.5h.33zM10.64 12.5h.33l-.72 2.35h-.31L9.2 12.5h.34l.17.6h.75zm-.55 1.88h0l.3-1.02h-.6zM12.48 14.85h-1.53v-.24h.6v-2.1h.33v2.1h.6zM14.06 13.85h-.87v.76h1v.24h-1.32V12.5h1.33v.25h-1v.85h.86z" fill="none" stroke="#ffffff" stroke-width=".2" stroke-miterlimit="10"/><path d="M23.09 18.56l-1.07-.34-.65.9V18l-1.07-.34 1.07-.35V16.2l.65.9 1.07-.34-.66.9zM18.66 15.2c.73 0 1.38.32 1.83.82a3.06 3.06 0 00-3.17-1.38c-.04.39-.13.78-.25 1.15.43-.37.98-.6 1.6-.6M18.66 20.12a2.46 2.46 0 01-2.46-2.46l.01-.16a5.56 5.56 0 01-1.19 1.28 3.07 3.07 0 005.47.53c-.45.5-1.1.8-1.83.8" fill="#fff"/><path d="M28.04 10.03h-.1v14.12c0 1.15-.92 2.09-2.07 2.09H10.82a2.1 2.1 0 01-2.1-2.1l-.03-4.4c.26.1.52.17.8.23l.2.04.04 4.14c0 .6.49 1.08 1.09 1.08h15.05c.6 0 1.08-.48 1.08-1.08V10.03L16.05 10c-.2-.28-.43-.55-.68-.8l-.22-.2h12.59V7.95c0-.6-.48-1.08-1.08-1.08H10.02c-.48 0-.88.33-1.02.77l-.33.1-.57-.58a2.08 2.08 0 011.92-1.3h16.64c1.15 0 2.09.94 2.09 2.09v1.38c0 .39-.32.7-.71.7" fill="#ffffff"/><path d="M14.1 10.52c-.32-.33-.68-.6-1.07-.8l-.86-.35a4.6 4.6 0 00-3.73.47c-.62.36-1.38 1.3-1.38 1.3a4.63 4.63 0 00.52 5.89 4.78 4.78 0 003.26 1.34c2.55 0 4.7-2.22 4.6-4.77a4.62 4.62 0 00-1.34-3.08M6.92 8.7L5.76 9.86l.62.62a5.23 5.23 0 011.16-1.16zM2.9 4.66L1.73 5.83 5.1 9.19l1.16-1.16zm13.34 10.4a5.39 5.39 0 01-1.47 2.64 5.54 5.54 0 01-8.88-6.4L.7 6.1a.4.4 0 010-.57l1.9-1.92a.4.4 0 01.58 0l5.2 5.18a5.4 5.4 0 011.78-.53h.02a5.47 5.47 0 014.58 1.58 5.52 5.52 0 011.47 5.21" fill="#ffffff"/></g></svg>