<svg width="58" height="58" fill="none" xmlns="http://www.w3.org/2000/svg"><g clip-path="url(#clip0)" fill="#0098DA"><path d="M31.3 34.79a23.23 23.23 0 01-6.62-2.37c-.72-.39-1.06-.6-1-1.2a.9.9 0 01.9-.8c1.85.02 3.34-.1 4.43-.38l.36-.1-.33-.17a5.32 5.32 0 01-2.22-2.2c-.23-.43-.23-.97.01-1.4l.06-.11-.1-.08a5.11 5.11 0 01-1.9-3.34 1.5 1.5 0 01.67-1.47l.12-.07-.07-.12a5.16 5.16 0 01-.35-4.51 1.47 1.47 0 012.45-.45 13.02 13.02 0 007.02 3.9l.17.04v-.17c.09-1.55.9-3.14 2.14-4.15a4.9 4.9 0 014.02-1.04c.43.08.87.21 1.3.4a4.84 4.84 0 012.69 3.15l.01.05 2.17 1.32a.9.9 0 01-.03 1.56l-1.92 1.05v.07c-.28 2.45-.7 4.36-1.32 6-.84 2.2-2 3.85-3.56 5.01-2.3 1.74-5.36 2.26-9.1 1.58zm.27-6.14c.45.09.78.52.73.98-.02.22-.18 1-1.4 1.63-.57.29-1.31.52-2.2.68l-.54.1.52.18c1 .35 2 .62 2.94.8 3.23.59 5.81.17 7.7-1.23 3.03-2.28 3.86-6.7 4.23-10.31.03-.3.2-.55.46-.7l.96-.52-1.14-.7a.9.9 0 01-.4-.56c-.3-1.16-.89-1.95-1.79-2.34-.3-.13-.6-.23-.9-.28a3.1 3.1 0 00-2.56.66 4.07 4.07 0 00-1.48 2.94c0 .29.02.57.08.85a.9.9 0 01-.94 1.08 15 15 0 01-8.88-4.07l-.2-.2-.04.28c-.17 1.24.36 2.43 1.59 3.56a.9.9 0 01.21 1.02.91.91 0 01-.88.55c-.04 0-.23-.02-.53-.08-.04 0-.07 0-.1-.02l-.26-.05.09.24c.4 1.08 1.3 1.81 2.64 2.16.39.1.66.43.68.83a.9.9 0 01-.6.9c-.06.02-.26.08-.6.13l-.27.04.18.2a3.75 3.75 0 002.19 1.18l.43.07h.08z"/><path d="M51.25 13.45a19 19 0 00-31.8 20.71l-1.7 1.17a3 3 0 00-4.18-.77L2.05 42.51a3 3 0 00-.77 4.17l1.13 1.65a2.99 2.99 0 004.17.76l11.53-7.95a3 3 0 00.77-4.17l1.7-1.17a18.98 18.98 0 0030.67-22.35zM16.98 39.5L5.45 47.45a1 1 0 01-1.4-.26l-1.12-1.64a1 1 0 01.25-1.4l11.52-7.93c.46-.3 1.07-.2 1.4.25l1.13 1.65a.98.98 0 01-.25 1.38zm28.26-1.27a17 17 0 11-19.28-28 17 17 0 0119.28 28z"/></g><defs><clipPath id="clip0"><path fill="#fff" transform="rotate(10.43 4.49 49.18)" d="M0 0h49.59v49.59H0z"/></clipPath></defs></svg>