<svg xmlns="http://www.w3.org/2000/svg" width="66.667" height="66.667"><defs><clipPath id="a" clipPathUnits="userSpaceOnUse"><path d="M0 50h50V0H0Z"/></clipPath></defs><g clip-path="url(#a)" transform="matrix(1.33333 0 0 -1.33333 0 66.667)"><path d="M0 0a.85.85 0 0 1 .85.85v.663c1.627.314 2.844 1.49 2.844 2.898 0 1.674-1.622 2.985-3.694 2.985-1.064 0-1.998.603-1.998 1.289 0 .685.934 1.287 2.032 1.288a2.225 2.225 0 0 0 1.856-.874.85.85 0 0 1 1.353 1.028A3.928 3.928 0 0 1 .85 11.602v.644a.85.85 0 0 1-1.7 0v-.662c-1.629-.312-2.848-1.49-2.848-2.899 0-1.648 1.659-2.989 3.698-2.989 1.081 0 1.994-.588 1.994-1.285 0-.685-.934-1.286-2.034-1.287a2.252 2.252 0 0 0-1.856.874.85.85 0 0 1-1.352-1.03A3.92 3.92 0 0 1-.85 1.503V.85A.85.85 0 0 1 0 0" style="fill:#0098da;fill-opacity:1;fill-rule:nonzero;stroke:none" transform="translate(22.634 27.757)"/><path d="M0 0a.63.63 0 0 1 .407-.77c.336-.07.662.031.824.3l3.43 5.967c.021.04.052.12.062.18.081.3-.132.58-.438.67-.315.09-.631-.01-.804-.281L.051.11Z" style="fill:#0098da;fill-opacity:1;fill-rule:nonzero;stroke:none" transform="translate(35.085 40.055)"/><path d="M0 0c.295 0 .437-.229.437-.609 0-.42-.142-.65-.437-.65-.295 0-.437.23-.437.65 0 .38.142.609.437.609m0-2.378c1.059 0 1.639.759 1.639 1.749C1.639.36 1.069 1.12 0 1.12c-1.068 0-1.639-.76-1.639-1.749 0-.99.58-1.749 1.639-1.749" style="fill:#0098da;fill-opacity:1;fill-rule:nonzero;stroke:none" transform="translate(35.543 45.312)"/><path d="M0 0c0-.419-.143-.649-.437-.649-.295 0-.438.23-.438.649 0 .38.143.61.438.61C-.143.61 0 .38 0 0m-2.076-.02c0-.989.569-1.749 1.639-1.749 1.068 0 1.638.76 1.638 1.749 0 .98-.58 1.749-1.638 1.749-1.059 0-1.639-.769-1.639-1.749" style="fill:#0098da;fill-opacity:1;fill-rule:nonzero;stroke:none" transform="translate(39.757 40.964)"/><path d="M0 0c.469 0 .85.38.85.85 0 1.189 1.564 2.195 3.415 2.195h25.631c1.851 0 3.415-1.006 3.415-2.195a.85.85 0 1 1 1.699 0c0 2.183-2.246 3.894-5.114 3.894H4.265C1.396 4.744-.85 3.033-.85.85-.85.38-.469 0 0 0" style="fill:#0098da;fill-opacity:1;fill-rule:nonzero;stroke:none" transform="translate(7.854 13.41)"/><path d="M0 0c-.01.032-.013.063-.027.095a.85.85 0 0 1-.171.256l-.005.006c-.01.01-.024.014-.034.023a.825.825 0 0 1-.216.142c-.034.016-.068.025-.104.036-.038.011-.072.031-.112.037l-2.337.369a.854.854 0 0 1-.973-.707.851.851 0 0 1 .707-.973l.694-.109-1.284-1.293c-.037-.037-.092-.051-.167-.029l-2.525.674a1.843 1.843 0 0 1-1.778-.478l-2.573-2.574a.851.851 0 0 1 1.202-1.202l2.574 2.575a.15.15 0 0 0 .138.037l2.498-.668a1.849 1.849 0 0 1 1.834.464l1.214 1.221.078-.677a.85.85 0 0 1 1.689.193L.042-.148C.037-.096.015-.049 0 0" style="fill:#0098da;fill-opacity:1;fill-rule:nonzero;stroke:none" transform="translate(15.97 8.893)"/><path d="M0 0a.15.15 0 0 0-.15-.15h-15.259a.15.15 0 0 0-.15.15v8.727c0 .083.067.15.15.15H-.15a.15.15 0 0 0 .15-.15Zm-.15 10.576h-15.259c-1.02 0-1.85-.829-1.85-1.849V0c0-1.021.83-1.85 1.85-1.85H-.15C.87-1.85 1.7-1.021 1.7 0v8.727c0 1.02-.83 1.849-1.85 1.849" style="fill:#0098da;fill-opacity:1;fill-rule:nonzero;stroke:none" transform="translate(18.34 2.127)"/><path d="M0 0a.846.846 0 0 1-.941-.748l-.079-.678-1.215 1.223a1.838 1.838 0 0 1-1.808.47l-2.52-.675a.143.143 0 0 0-.14.037l-2.573 2.575a.85.85 0 1 1-1.203-1.201l2.574-2.575a1.846 1.846 0 0 1 1.779-.479l2.546.682c.052.015.107 0 .142-.034l1.286-1.294-.694-.11a.85.85 0 1 1 .264-1.679l2.338.368c.041.007.075.025.113.038.036.011.07.018.105.034a.877.877 0 0 1 .211.139c.011.011.027.014.039.026l.005.008a.837.837 0 0 1 .17.255c.013.031.018.062.028.095.014.049.036.095.042.148L.748-.941A.85.85 0 0 1 0 0" style="fill:#0098da;fill-opacity:1;fill-rule:nonzero;stroke:none" transform="translate(44.424 7.413)"/><path d="M0 0a.15.15 0 0 0-.15-.15h-15.259a.15.15 0 0 0-.151.15v8.727c0 .083.068.15.151.15H-.15a.15.15 0 0 0 .15-.15Zm-.15 10.576h-15.259a1.85 1.85 0 0 1-1.85-1.849V0a1.85 1.85 0 0 1 1.85-1.85H-.15A1.85 1.85 0 0 1 1.699 0v8.727A1.85 1.85 0 0 1-.15 10.576" style="fill:#0098da;fill-opacity:1;fill-rule:nonzero;stroke:none" transform="translate(47.22 2.127)"/><path d="M0 0h19.163c1.508 0 2.736 1.314 2.736 2.93v9.181a.85.85 0 1 1-1.699 0V2.93c0-.679-.466-1.231-1.037-1.231H0c-.572 0-1.037.552-1.037 1.231v22.976c0 .678.465 1.23 1.037 1.23h12.731a.85.85 0 1 1 0 1.7H0c-1.509 0-2.737-1.315-2.737-2.93V2.93C-2.737 1.314-1.509 0 0 0" style="fill:#0098da;fill-opacity:1;fill-rule:nonzero;stroke:none" transform="translate(13.773 20.26)"/><path d="M0 0a1.53 1.53 0 0 0 1.529 1.528h10.498A1.53 1.53 0 0 0 13.556 0v-7.458a1.53 1.53 0 0 0-1.529-1.529H3.799c-.627 0-1.242-.17-1.847-.535L0-10.951Zm-.962-12.865a1.34 1.34 0 0 1 1.389.12l2.463 1.807c.275.165.589.251.909.251h8.228a3.231 3.231 0 0 1 3.228 3.229V0a3.232 3.232 0 0 1-3.228 3.229H1.529A3.232 3.232 0 0 1-1.699 0v-11.672c0-.508.282-.965.737-1.193" style="fill:#0098da;fill-opacity:1;fill-rule:nonzero;stroke:none" transform="translate(30.782 46.494)"/></g></svg>