<svg xmlns="http://www.w3.org/2000/svg" xml:space="preserve" width="66.667" height="69.333"><defs><clipPath clipPathUnits="userSpaceOnUse" id="a"><path d="M0 52h50V0H0Z"/></clipPath></defs><g clip-path="url(#a)" transform="matrix(1.33333 0 0 -1.33333 0 69.333)"><path d="M0 0a.882.882 0 0 1-.879-.883v-5.123c0-.939-.461-1.477-1.263-1.477-1.108 0-1.274.925-1.274 1.477v5.123a.894.894 0 0 1-.88.883c-.516 0-.903-.38-.903-.883v-5.123c0-1.932 1.2-3.181 3.057-3.181 1.858 0 3.058 1.249 3.058 3.181v5.123C.916-.396.506 0 0 0" style="fill:#ffffff;fill-opacity:1;fill-rule:nonzero;stroke:none" transform="translate(33.028 38.385)"/><path d="M0 0c.854 0 1.287-.341 1.287-1.014 0-.629-.421-.962-1.215-.962h-1.287V0Zm-2.997.745v-7.233c0-.478.402-.883.88-.883.481 0 .902.413.902.883v2.821h.731L1.51-6.943a.855.855 0 0 1 .752-.415c.313 0 .636.204.803.507a.82.82 0 0 1-.028.869L1.435-3.453c1.055.387 1.634 1.25 1.634 2.439 0 .817-.294 2.716-3.021 2.716h-2.082a.972.972 0 0 1-.963-.957" style="fill:#ffffff;fill-opacity:1;fill-rule:nonzero;stroke:none" transform="translate(38.839 36.57)"/><path d="M0 0c0-1.468.589-2.799 1.54-3.775h-32.891A3.78 3.78 0 0 0-35.126 0v39.56a2.245 2.245 0 0 0 2.243 2.243h30.639A2.245 2.245 0 0 0 0 39.56v-2.269h-15.034c-.933 0-1.692-.778-1.695-1.735l-.174-22.258c0-.657.354-1.25.925-1.55.239-.124.505-.189.77-.189.351 0 .698.114.984.322l9.038 5.459h5.041zm9.591 35.552V19.079c0-.063-.038-.099-.054-.099H-5.414a.814.814 0 0 1-.424-.118l-9.269-5.597c-.028-.017-.085-.04-.111-.061-.022.011-.043.047-.043.088l.174 22.253v.007c0 .063.038.097.053.097H9.537c.016 0 .054-.034.054-.097m1.641-16.473v16.473c0 .958-.76 1.739-1.695 1.739H1.642v2.269a3.89 3.89 0 0 1-3.886 3.885h-30.639a3.89 3.89 0 0 1-3.885-3.885V0a5.423 5.423 0 0 1 5.417-5.416H5.417A5.423 5.423 0 0 1 10.833 0v13.972a.82.82 0 0 1-1.641 0V0a3.78 3.78 0 0 0-3.775-3.775A3.78 3.78 0 0 0 1.642.007L1.497 17.34h8.04c.935 0 1.695.779 1.695 1.739" style="fill:#ffffff;fill-opacity:1;fill-rule:nonzero;stroke:none" transform="translate(37.767 6.986)"/><path d="M0 0h-21.447a.82.82 0 1 1 0-1.641H0A.82.82 0 0 1 0 0" style="fill:#ffffff;fill-opacity:1;fill-rule:nonzero;stroke:none" transform="translate(29.847 15.287)"/><path d="M0 0h-12.256a.82.82 0 1 1 0-1.642H0A.822.822 0 0 1 0 0" style="fill:#ffffff;fill-opacity:1;fill-rule:nonzero;stroke:none" transform="translate(20.655 9.16)"/><path d="M0 0c0 .441.359.8.801.8h2.566a.796.796 0 0 0 .565-.234l2.299-2.294a.794.794 0 0 0 .236-.566v-4.193a.802.802 0 0 0-.801-.801H.801A.801.801 0 0 0 0-6.487Zm.801-8.93h4.865a2.446 2.446 0 0 1 2.443 2.443v4.194a2.43 2.43 0 0 1-.718 1.728l-2.3 2.294a2.422 2.422 0 0 1-1.723.713H.801A2.445 2.445 0 0 1-1.642 0v-6.487A2.446 2.446 0 0 1 .801-8.93" style="fill:#ffffff;fill-opacity:1;fill-rule:nonzero;stroke:none" transform="translate(8.531 42.374)"/><path d="M0 0c0 .441.359.801.801.801h2.564a.799.799 0 0 0 .567-.234l2.299-2.295a.795.795 0 0 0 .236-.567v-4.192a.802.802 0 0 0-.801-.801H.801A.801.801 0 0 0 0-6.487Zm.801-8.929h4.865a2.445 2.445 0 0 1 2.443 2.442v4.193a2.431 2.431 0 0 1-.718 1.729l-2.3 2.294a2.428 2.428 0 0 1-1.726.714H.801A2.446 2.446 0 0 1-1.642 0v-6.487A2.445 2.445 0 0 1 .801-8.929" style="fill:#ffffff;fill-opacity:1;fill-rule:nonzero;stroke:none" transform="translate(8.531 28.319)"/></g></svg>