<svg xmlns="http://www.w3.org/2000/svg" xml:space="preserve" width="66.667" height="69.333"><defs><clipPath clipPathUnits="userSpaceOnUse" id="a"><path d="M0 52h50V0H0Z"/></clipPath></defs><g clip-path="url(#a)" transform="matrix(1.33333 0 0 -1.33333 0 69.333)"><path d="M0 0a.883.883 0 0 1-.881-.882v-5.123c0-.939-.459-1.478-1.262-1.478-1.108 0-1.274.926-1.274 1.478v5.123a.892.892 0 0 1-.88.882C-4.812 0-5.2-.379-5.2-.882v-5.123c0-1.932 1.2-3.182 3.057-3.182 1.858 0 3.058 1.25 3.058 3.182v5.123C.915-.396.505 0 0 0" style="fill:#ffffff;fill-opacity:1;fill-rule:nonzero;stroke:none" transform="translate(34.62 39.126)"/><path d="M0 0c0-.629-.42-.962-1.215-.962h-1.286v1.976h1.215C-.433 1.014 0 .673 0 0m.147-2.439C1.203-2.052 1.783-1.188 1.783 0c0 .816-.295 2.716-3.021 2.716H-3.32a.974.974 0 0 1-.964-.958v-7.232c0-.479.402-.883.88-.883.481 0 .903.412.903.883v2.821h.73L.224-5.93a.855.855 0 0 1 .752-.415c.312 0 .635.204.802.507a.823.823 0 0 1-.027.87z" style="fill:#ffffff;fill-opacity:1;fill-rule:nonzero;stroke:none" transform="translate(41.717 36.296)"/><path d="M0 0a.83.83 0 0 1-.425-.118L-9.06-5.331l.162 20.611-.011.035 22.746-.029L13.847 0Zm-15.166-12.103v-9.778c0-1.258-1.143-2.282-2.548-2.282h-10.618c-1.405 0-2.548 1.024-2.548 2.282v9.778c0 1.258 1.143 2.282 2.548 2.282h10.618c1.405 0 2.548-1.024 2.548-2.282M15.478.03v15.256c0 .922-.731 1.672-1.631 1.672H6.596v3.007a3.664 3.664 0 0 1-3.659 3.659H-25.44a3.663 3.663 0 0 1-3.659-3.659V-8.047c0-.072.023-.136.04-.202-1.963-.324-3.463-1.923-3.463-3.854v-9.778c0-2.163 1.879-3.923 4.19-3.923h10.618c2.311 0 4.19 1.76 4.19 3.923v9.778c0 2.164-1.879 3.923-4.19 3.923h-9.77c.007.045.027.085.027.133v28.012c0 1.112.904 2.016 2.017 2.016H2.937a2.018 2.018 0 0 0 2.016-2.016v-3.007H-8.909c-.898 0-1.628-.748-1.631-1.667l-.162-20.615c0-.632.341-1.202.886-1.486.228-.122.486-.184.745-.184.355 0 .706.12.911.286L.229-1.642h4.614c-.01-.05-.031-.097-.03-.151l.14-16.812c0-1.33.525-2.531 1.363-3.437h-17.418a.82.82 0 1 1 0-1.641h21.133a5.083 5.083 0 0 1 5.076 5.078v12.939a.82.82 0 1 1-1.64 0v-12.939a3.44 3.44 0 0 0-3.436-3.437A3.44 3.44 0 0 0 6.596-18.6L6.455-1.779c0 .049-.02.092-.029.137h7.421c.9 0 1.631.75 1.631 1.672" style="fill:#ffffff;fill-opacity:1;fill-rule:nonzero;stroke:none" transform="translate(33.522 27.09)"/><path d="M0 0a.818.818 0 0 1 1.161 0l2.872 2.873L6.905 0a.818.818 0 0 1 1.161 0 .819.819 0 0 1 0 1.16L5.193 4.033l2.873 2.873a.82.82 0 1 1-1.161 1.16L4.033 5.193 1.161 8.066A.82.82 0 1 1 0 6.906l2.873-2.873L0 1.16A.819.819 0 0 1 0 0" style="fill:#ffffff;fill-opacity:1;fill-rule:nonzero;stroke:none" transform="translate(6.466 6.261)"/><path d="M0 0h10.185a.82.82 0 1 1 0 1.642H0A.822.822 0 0 1 0 0" style="fill:#ffffff;fill-opacity:1;fill-rule:nonzero;stroke:none" transform="translate(23.642 13.923)"/><path d="M0 0h6.423a.82.82 0 1 1 0 1.642H0A.822.822 0 0 1 0 0" style="fill:#ffffff;fill-opacity:1;fill-rule:nonzero;stroke:none" transform="translate(23.642 8.248)"/><path d="M0 0h-7.657a.822.822 0 0 1 0-1.642H0A.822.822 0 0 1 0 0" style="fill:#ffffff;fill-opacity:1;fill-rule:nonzero;stroke:none" transform="translate(18.844 38.994)"/><path d="M0 0h-7.657a.822.822 0 0 1 0-1.642H0A.822.822 0 0 1 0 0" style="fill:#ffffff;fill-opacity:1;fill-rule:nonzero;stroke:none" transform="translate(18.844 33.624)"/><path d="M0 0h-7.657a.822.822 0 0 1 0-1.642H0A.822.822 0 0 1 0 0" style="fill:#ffffff;fill-opacity:1;fill-rule:nonzero;stroke:none" transform="translate(18.844 28.738)"/></g></svg>