<svg xmlns="http://www.w3.org/2000/svg" width="66.667" height="66.667"><defs><clipPath id="a" clipPathUnits="userSpaceOnUse"><path d="M0 50h50V0H0Z"/></clipPath></defs><g clip-path="url(#a)" transform="matrix(1.33333 0 0 -1.33333 0 66.667)"><path d="M0 0a.78.78 0 0 1 .78.78v.483c0 1.77 1.44 3.211 3.21 3.211h14.179V1.518a.78.78 0 1 1 1.56 0v2.956h14.18a3.214 3.214 0 0 0 3.209-3.211V.78a.78.78 0 1 1 1.559 0v.483a4.774 4.774 0 0 1-4.768 4.769H3.99A4.775 4.775 0 0 1-.78 1.263V.78C-.78.349-.43 0 0 0" style="fill:#0098da;fill-opacity:1;fill-rule:nonzero;stroke:none" transform="translate(5.823 12.39)"/><path d="M0 0h25.477c.368 0 .599-.116.679-.183V-6.75L23.31-4.78c-.581.391-1.304.879-2.75.879-1.096 0-2.025-.396-2.801-1.223l-6.454-7.996c-.318-.394-1.107-.487-1.622-.192l-3.744 2.145c-1.025.737-2.602.573-3.38-.345l-3.238-2.941v14.27C-.599-.116-.368 0 0 0m0-20.336h14.15a.78.78 0 1 1 0 1.56H0c-.368 0-.599.116-.679.182v2.034l4.329 3.932a.792.792 0 0 1 .088.095c.227.288.914.386 1.306.09a.713.713 0 0 1 .081-.054l3.782-2.168c1.191-.682 2.809-.428 3.612.566l6.414 7.951c.437.462.969.688 1.627.688.97 0 1.37-.27 1.87-.608l4.061-2.809a.78.78 0 0 1 1.21.782c.002.024.013.045.013.069v7.918c0 .951-.962 1.668-2.237 1.668H0c-1.276 0-2.238-.717-2.238-1.668v-18.56c0-.951.962-1.668 2.238-1.668" style="fill:#0098da;fill-opacity:1;fill-rule:nonzero;stroke:none" transform="translate(10.591 46.012)"/><path d="M0 0a1.232 1.232 0 0 0 0-2.462A1.232 1.232 0 0 0 0 0m0-4.022a2.794 2.794 0 0 1 2.791 2.791A2.794 2.794 0 0 1 0 1.56a2.794 2.794 0 0 1-2.791-2.791A2.794 2.794 0 0 1 0-4.022" style="fill:#0098da;fill-opacity:1;fill-rule:nonzero;stroke:none" transform="translate(16.642 42.104)"/><path d="M0 0a6.31 6.31 0 0 0-6.303-6.302A6.31 6.31 0 0 0-12.604 0a6.31 6.31 0 0 0 6.301 6.301A6.31 6.31 0 0 0 0 0m-14.162 0c0-4.334 3.525-7.861 7.859-7.861 4.335 0 7.862 3.527 7.862 7.861s-3.527 7.86-7.862 7.86c-4.334 0-7.859-3.526-7.859-7.86" style="fill:#0098da;fill-opacity:1;fill-rule:nonzero;stroke:none" transform="translate(41.973 27.935)"/><path d="M0 0a.798.798 0 0 1-.724-.495l-.755-2.342-.758 2.338c-.114.324-.451.499-.71.499-.431 0-.768-.308-.768-.703 0-.005 0-.152.036-.237l1.383-3.964c.053-.157.211-.623.771-.648h.099c.493.023.677.376.772.646L.728-.951a.81.81 0 0 1 .039.248C.767-.302.437 0 0 0" style="fill:#0098da;fill-opacity:1;fill-rule:nonzero;stroke:none" transform="translate(34.296 30.523)"/><path d="M0 0v-4.148c0-.387.338-.702.753-.702.409 0 .754.321.754.702V0c0 .381-.345.703-.754.703C.338.703 0 .387 0 0" style="fill:#0098da;fill-opacity:1;fill-rule:nonzero;stroke:none" transform="translate(35.144 29.82)"/><path d="M0 0h.497v-3.39c0-.387.338-.702.754-.702.408 0 .753.321.753.702V0h.497c.411 0 .76.318.76.696 0 .38-.349.701-.76.701H0c-.424 0-.753-.377-.753-.701C-.753.312-.415 0 0 0" style="fill:#0098da;fill-opacity:1;fill-rule:nonzero;stroke:none" transform="translate(37.5 29.063)"/><path d="m0 0 1.875 2.747a.234.234 0 0 0 .182.102.248.248 0 0 0 .184-.072L4.564.037A.146.146 0 0 0 4.474 0Zm-3.983.145v5.713c0 .08.064.145.143.145h8.314c.08 0 .144-.065.144-.145V2.385l-1.196 1.41a1.78 1.78 0 0 1-1.451.61 1.79 1.79 0 0 1-1.38-.771L-1.887 0H-3.84a.143.143 0 0 0-.143.145m8.457 7.417H-3.84a1.705 1.705 0 0 1-1.703-1.704V.145c0-.94.764-1.704 1.703-1.704h8.314c.94 0 1.704.764 1.704 1.704v5.713c0 .94-.764 1.704-1.704 1.704" style="fill:#0098da;fill-opacity:1;fill-rule:nonzero;stroke:none" transform="translate(5.698 3.987)"/><path d="M0 0c0 .557-.454 1.011-1.011 1.011a1.012 1.012 0 0 1 0-2.022C-.454-1.011 0-.558 0 0" style="fill:#0098da;fill-opacity:1;fill-rule:nonzero;stroke:none" transform="translate(4.717 7.998)"/><path d="m0 0 1.874 2.747a.236.236 0 0 0 .183.102.248.248 0 0 0 .183-.072L4.564.037A.143.143 0 0 0 4.475 0Zm-3.984.145v5.713c0 .08.065.145.145.145h8.314a.144.144 0 0 0 .143-.145V2.385l-1.196 1.41a1.788 1.788 0 0 1-1.449.61 1.79 1.79 0 0 1-1.382-.771L-1.887 0h-1.952a.144.144 0 0 0-.145.145m8.459 7.417h-8.314c-.94 0-1.704-.764-1.704-1.704V.145c0-.94.764-1.704 1.704-1.704h8.314c.938 0 1.702.764 1.702 1.704v5.713c0 .94-.764 1.704-1.702 1.704" style="fill:#0098da;fill-opacity:1;fill-rule:nonzero;stroke:none" transform="translate(24.455 3.987)"/><path d="M0 0c0 .557-.454 1.011-1.011 1.011a1.012 1.012 0 0 1 0-2.022C-.454-1.011 0-.558 0 0" style="fill:#0098da;fill-opacity:1;fill-rule:nonzero;stroke:none" transform="translate(23.474 7.998)"/><path d="m0 0 1.874 2.747c.043.06.11.098.184.102a.255.255 0 0 0 .183-.072L4.565.037A.143.143 0 0 0 4.475 0Zm-3.983.145v5.713c0 .08.064.145.144.145h8.314c.08 0 .144-.065.144-.145V2.385l-1.196 1.41a1.785 1.785 0 0 1-1.45.61 1.788 1.788 0 0 1-1.381-.771L-1.887 0h-1.952a.144.144 0 0 0-.144.145m8.458 7.417h-8.314a1.705 1.705 0 0 1-1.703-1.704V.145c0-.94.764-1.704 1.703-1.704h8.314c.939 0 1.703.764 1.703 1.704v5.713c0 .94-.764 1.704-1.703 1.704" style="fill:#0098da;fill-opacity:1;fill-rule:nonzero;stroke:none" transform="translate(43.667 3.987)"/><path d="M0 0c0 .557-.453 1.011-1.011 1.011a1.012 1.012 0 0 1 0-2.022C-.453-1.011 0-.558 0 0" style="fill:#0098da;fill-opacity:1;fill-rule:nonzero;stroke:none" transform="translate(42.685 7.998)"/></g></svg>