<svg xmlns="http://www.w3.org/2000/svg" width="66.667" height="66.667"><defs><clipPath id="a" clipPathUnits="userSpaceOnUse"><path d="M0 50h50V0H0Z"/></clipPath></defs><g clip-path="url(#a)" transform="matrix(1.33333 0 0 -1.33333 0 66.667)"><path d="M0 0a1.288 1.288 0 1 0-2.577 0A1.288 1.288 0 0 0 0 0" style="fill:#0098da;fill-opacity:1;fill-rule:nonzero;stroke:none" transform="translate(13.283 41.413)"/><path d="M0 0h-7.369a.823.823 0 1 0 0 1.645H0A.823.823 0 0 0 0 0" style="fill:#0098da;fill-opacity:1;fill-rule:nonzero;stroke:none" transform="translate(22.309 22.994)"/><path d="M0 0h-7.369a.823.823 0 1 0 0 1.646H0A.824.824 0 0 0 0 0" style="fill:#0098da;fill-opacity:1;fill-rule:nonzero;stroke:none" transform="translate(22.309 17.955)"/><path d="M0 0c0-.561-.116-1.103-.329-1.577l-.01-.01a.822.822 0 0 0-1.287.678v.987a.803.803 0 0 0 .803.745A.822.822 0 0 0 0 0" style="fill:#0098da;fill-opacity:1;fill-rule:nonzero;stroke:none" transform="translate(45.161 3.861)"/><path d="M0 0c0-.561-.116-1.103-.329-1.577l-.01-.01a.822.822 0 0 0-1.287.678v.987a.803.803 0 0 0 .803.745A.822.822 0 0 0 0 0" style="fill:#0098da;fill-opacity:1;fill-rule:nonzero;stroke:none" transform="translate(45.161 3.861)"/><path d="m0 0-4.259 2.197a4.148 4.148 0 0 1-2.11.581h-9.775a2.18 2.18 0 0 0-2.178 2.177v9.408c0 1.2.978 2.178 2.178 2.178h13.966c1.2 0 2.178-.978 2.178-2.178zm-5.323-20.083c2.323 0 4.21-1.917 4.21-4.269l-.077-4.791a2.569 2.569 0 0 0-.243.223l-8.372 8.488a3.785 3.785 0 0 0-.319.368zm25.087 32.22H1.645v2.226a3.825 3.825 0 0 1-3.823 3.823h-13.966a3.825 3.825 0 0 1-3.823-3.823V4.955a3.825 3.825 0 0 1 3.823-3.823h3.455v-18.535a5.91 5.91 0 0 1 1.713-4.18l8.382-8.489a5.849 5.849 0 0 1 4.142-1.742h18.216c1.616 0 2.981.919 3.571 2.274a.822.822 0 0 0-1.287.678v.987c-.009-.029-.009-.048-.009-.078 0-1.257-.978-2.215-2.275-2.215H1.548c-.377 0-.745.047-1.103.154l.087 5.652c0 3.272-2.623 5.924-5.855 5.924l-5.594.029a3.891 3.891 0 0 0-.126 1.006V1.132h4.674A2.51 2.51 0 0 0-5.052.755l4.471-2.304c.232-.164.513-.242.794-.242.223 0 .445.049.639.155.493.242.793.736.793 1.278v10.85h18.119c1.258 0 2.284-1.046 2.284-2.324v-36.043a.803.803 0 0 0 .803.746.823.823 0 0 0 .823-.824c0-.56-.116-1.102-.329-1.577a.8.8 0 0 1 .348.668v37.03c0 2.188-1.761 3.969-3.929 3.969" style="fill:#0098da;fill-opacity:1;fill-rule:nonzero;stroke:none" transform="translate(21.487 31.814)"/><path d="M0 0c.474.648.745 1.442.745 2.304A3.947 3.947 0 0 1-.668 5.333c1.955-.997 2.846-2.826 2.846-2.826S1.365 1.113 0 0m-8.624 2.41s.872 2.081 3.03 3.059a3.924 3.924 0 0 1-1.588-3.165c0-1.026.388-1.965 1.026-2.662C-7.704.755-8.624 2.41-8.624 2.41m5.401 2.497A2.606 2.606 0 0 0-.61 2.304a2.608 2.608 0 1 0-5.217 0 2.598 2.598 0 0 0 2.604 2.603m6.62-1.81c-.087.165-2.1 4.211-6.678 4.211h-.01l-.048-.01c-4.675-.029-6.456-4.191-6.533-4.365l-.252-.61.319-.571C-9.708 1.568-7.288-2.7-3.33-2.7h.059c3.958.048 6.513 4.336 6.62 4.52l.368.619z" style="fill:#0098da;fill-opacity:1;fill-rule:nonzero;stroke:none" transform="translate(15.215 39.111)"/><path d="M0 0a1.545 1.545 0 1 1 .001-3.09A1.545 1.545 0 0 1 0 0m0-4.733a3.192 3.192 0 0 0-3.189 3.19A3.193 3.193 0 0 0 0 1.646a3.193 3.193 0 0 0 3.189-3.189c0-1.76-1.43-3.19-3.189-3.19" style="fill:#0098da;fill-opacity:1;fill-rule:nonzero;stroke:none" transform="translate(29.537 24.581)"/><path d="M0 0a2.864 2.864 0 0 1-2.861-2.86A2.865 2.865 0 0 1 0-5.721 2.864 2.864 0 0 1 2.861-2.86 2.863 2.863 0 0 1 0 0m0-7.366A4.511 4.511 0 0 0-4.506-2.86 4.512 4.512 0 0 0 0 1.646 4.511 4.511 0 0 0 4.506-2.86 4.51 4.51 0 0 0 0-7.366" style="fill:#0098da;fill-opacity:1;fill-rule:nonzero;stroke:none" transform="translate(33.887 35.291)"/><path d="M0 0v-6.243c0-1.22-.842-2.245-1.974-2.517v-4.927c0-1.606-1.384-2.922-3.088-2.922h-2.574c-1.704 0-3.097 1.316-3.097 2.922v4.811a2.577 2.577 0 0 0-1.82 2.459v1.771a.822.822 0 1 0 1.646 0v-1.771a.93.93 0 0 1 .928-.93h.069a.821.821 0 0 0 .822-.822v-5.518c0-.706.649-1.277 1.452-1.277h2.574c.794 0 1.443.571 1.443 1.277v5.518c0 .319.183.59.445.726h.01a.763.763 0 0 0 .59.261c.512 0 .929.426.929.939V0c0 1.868-1.665 3.387-3.716 3.387h-2.275a.822.822 0 1 0 0 1.646h2.275C-2.409 5.033 0 2.777 0 0" style="fill:#0098da;fill-opacity:1;fill-rule:nonzero;stroke:none" transform="translate(40.389 22.436)"/><path d="M0 0a1.281 1.281 0 1 1 .002-2.562A1.281 1.281 0 0 1 0 0m0-4.206A2.928 2.928 0 0 0-2.925-1.28 2.928 2.928 0 0 0 0 1.645 2.929 2.929 0 0 0 2.926-1.28 2.93 2.93 0 0 0 0-4.206" style="fill:#0098da;fill-opacity:1;fill-rule:nonzero;stroke:none" transform="translate(33.887 18.785)"/></g></svg>