<svg width="187" height="50" viewBox="0 0 187 50" fill="none" xmlns="http://www.w3.org/2000/svg">
<path d="M38.6212 18.6877H42.3588V29.0697C42.3588 33.7209 40.1163 35.382 36.5448 35.382C35.7143 35.382 34.5515 35.2159 33.804 34.9668L34.2192 31.9767C34.7176 32.1428 35.382 32.3089 36.1295 32.3089C37.7076 32.3089 38.6212 31.6445 38.6212 29.0697V18.6877Z" fill="#3E4095"/>
<path d="M55.2325 28.9867C55.2325 33.3056 52.1594 35.299 48.9202 35.299C45.4319 35.299 42.774 32.9734 42.774 29.1528C42.774 25.3322 45.2657 22.8405 49.0863 22.8405C52.7408 22.8405 55.2325 25.4153 55.2325 28.9867ZM46.5946 29.0698C46.5946 31.1462 47.4252 32.6412 49.0033 32.6412C50.4152 32.6412 51.3289 31.2292 51.3289 29.0698C51.3289 27.3256 50.6644 25.4983 49.0033 25.4983C47.2591 25.4983 46.5946 27.3256 46.5946 29.0698Z" fill="#3E4095"/>
<path d="M55.6478 17.774H59.3854V24.5847H59.4684C59.8837 24.0863 60.382 23.6711 60.9634 23.3388C61.4618 23.0066 62.2093 22.8405 62.8737 22.8405C65.1993 22.8405 67.0266 24.5016 67.0266 28.0731V35.0498H63.289V28.4883C63.289 26.9103 62.7907 25.8305 61.3787 25.8305C60.382 25.8305 59.8006 26.495 59.5515 27.1594C59.4684 27.4086 59.4684 27.7408 59.4684 27.99V35.0498H55.6478V17.774Z" fill="#3E4095"/>
<path d="M68.1064 26.9103C68.1064 25.4153 68.0233 24.1694 68.0233 23.0897H71.2625L71.4286 24.7508C71.927 24.0033 73.0898 22.8405 75.0831 22.8405C77.4917 22.8405 79.319 24.4186 79.319 27.907V34.9668H75.5814V28.4053C75.5814 26.9103 75.0831 25.8305 73.6711 25.8305C72.6745 25.8305 72.01 26.495 71.7609 27.2425C71.6778 27.4917 71.5947 27.8239 71.5947 28.1561V35.0498H68.1064V26.9103Z" fill="#3E4095"/>
<path d="M83.887 31.2292C84.8836 31.7275 86.3787 32.2259 87.9567 32.2259C89.6179 32.2259 90.5315 31.5614 90.5315 30.4817C90.5315 29.485 89.784 28.9036 87.7906 28.1561C85.0497 27.2425 83.3056 25.6644 83.3056 23.3388C83.3056 20.5149 85.6311 18.4385 89.5348 18.4385C91.362 18.4385 92.774 18.8538 93.6876 19.269L92.8571 22.2591C92.1926 21.9268 91.0298 21.5116 89.4517 21.5116C87.8737 21.5116 87.0431 22.2591 87.0431 23.0896C87.0431 24.1694 87.9567 24.5847 90.1162 25.4152C93.0232 26.495 94.3521 27.99 94.3521 30.3156C94.3521 33.0564 92.2757 35.382 87.7076 35.382C85.7973 35.382 83.97 34.8837 83.0564 34.3853L83.887 31.2292Z" fill="#3E4095"/>
<path d="M94.9336 26.9103C94.9336 25.4153 94.8505 24.1694 94.8505 23.0897H98.0897L98.2558 24.7508H98.3389C98.8372 24.0033 100 22.8405 101.993 22.8405C104.402 22.8405 106.229 24.4186 106.229 27.907V34.9668H102.492V28.4053C102.492 26.9103 101.993 25.8305 100.581 25.8305C99.5847 25.8305 98.9203 26.495 98.6711 27.2425C98.5881 27.4917 98.505 27.8239 98.505 28.1561V35.0498H94.7675V26.9103H94.9336Z" fill="#3E4095"/>
<path d="M119.103 28.9867C119.103 33.3056 116.03 35.299 112.791 35.299C109.302 35.299 106.645 32.9734 106.645 29.1528C106.645 25.3322 109.136 22.8405 112.957 22.8405C116.694 22.8405 119.103 25.4153 119.103 28.9867ZM110.465 29.0698C110.465 31.1462 111.296 32.6412 112.874 32.6412C114.286 32.6412 115.199 31.2292 115.199 29.0698C115.199 27.3256 114.535 25.4983 112.874 25.4983C111.13 25.4983 110.465 27.3256 110.465 29.0698Z" fill="#3E4095"/>
<path d="M121.927 23.1727L122.841 28.0731C123.09 29.3189 123.339 30.6478 123.505 31.9767H123.588C123.837 30.6478 124.17 29.2359 124.502 28.0731L125.748 23.1727H128.655L129.817 27.9069C130.15 29.2359 130.482 30.5648 130.731 31.9767H130.814C130.98 30.6478 131.229 29.2359 131.478 27.9069L132.475 23.1727H136.13L132.475 35.0498H128.987L127.907 30.897C127.575 29.7342 127.409 28.6545 127.16 27.1594H127.076C126.827 28.6545 126.578 29.7342 126.329 30.897L125.166 35.0498H121.678L118.189 23.1727H121.927Z" fill="#3E4095"/>
<path d="M143.023 18.9369H145.1V32.8073H152.575V34.5515H143.023V18.9369Z" fill="#0098DA"/>
<path d="M155.399 29.5681L153.571 34.5515H151.329L157.226 18.9369H159.801L165.781 34.5515H163.455L161.545 29.5681H155.399ZM161.213 27.99L159.468 23.3389C159.136 22.3422 158.804 21.5116 158.555 20.6811H158.472C158.223 21.5116 157.973 22.3422 157.641 23.2558L155.897 27.99H161.213Z" fill="#0098DA"/>
<path d="M165.864 19.186C166.777 19.0199 168.355 18.8538 169.933 18.8538C172.176 18.8538 173.505 19.186 174.502 20.0166C175.332 20.6811 175.914 21.5947 175.914 22.8405C175.914 24.3355 174.834 25.6644 173.173 26.2458V26.3289C174.502 26.6611 176.495 27.8239 176.495 30.2326C176.495 31.5615 175.914 32.6412 175.083 33.3887C173.92 34.3854 172.093 34.8837 169.269 34.8837C167.774 34.8837 166.611 34.8007 165.864 34.7176V19.186ZM168.023 25.5814H170.183C172.508 25.5814 173.754 24.5017 173.754 23.0066C173.754 21.0963 172.176 20.4319 170.1 20.4319C169.02 20.4319 168.355 20.5149 168.023 20.598V25.5814ZM168.023 32.9734C168.521 33.0565 169.103 33.0565 169.933 33.0565C172.093 33.0565 174.252 32.392 174.252 29.9834C174.252 27.8239 172.342 26.9934 169.933 26.9934H167.94V32.9734H168.023Z" fill="#0098DA"/>
<path d="M176.91 31.9768C177.907 32.6412 179.402 33.1396 180.98 33.1396C183.223 33.1396 184.468 32.0598 184.468 30.4818C184.468 28.9867 183.638 28.1562 181.229 27.4087C178.239 26.495 176.661 25.1661 176.661 22.9236C176.661 20.4319 178.821 18.6047 182.06 18.6047C183.887 18.6047 185.133 19.02 185.963 19.4352L185.382 21.0964C184.884 20.7641 183.638 20.2658 182.06 20.2658C179.734 20.2658 178.821 21.5947 178.821 22.5914C178.821 24.0033 179.817 24.7509 182.226 25.4984C185.133 26.412 186.628 27.6578 186.628 30.1495C186.628 32.4751 184.884 34.7176 180.814 34.7176C179.153 34.7176 177.325 34.2193 176.412 33.6379L176.91 31.9768Z" fill="#0098DA"/>
<path d="M22.5083 35.6312C22.5083 40.1163 18.8538 43.7708 14.3688 43.7708C9.88372 43.7708 6.22924 40.1163 6.22924 35.6312V12.2093L0 11.4618V35.6312C0 43.6047 6.4784 50 14.3688 50C22.2591 50 28.7375 43.5216 28.7375 35.6312V11.4618L22.5083 12.2093V35.6312Z" fill="#0098DA"/>
<path d="M16.1129 17.7741H8.63786C8.13952 17.7741 7.72424 17.3588 7.72424 16.8604V9.38536C7.72424 8.88702 8.13952 8.47174 8.63786 8.47174H16.1129C16.6113 8.47174 17.0266 8.88702 17.0266 9.38536V16.8604C17.0266 17.3588 16.6113 17.7741 16.1129 17.7741Z" fill="#3E4095"/>
<path d="M20.515 22.7575H15.2824C14.7841 22.7575 14.3688 22.3422 14.3688 21.8439V16.6113C14.3688 16.113 14.7841 15.6977 15.2824 15.6977H20.515C21.0133 15.6977 21.4286 16.113 21.4286 16.6113V21.8439C21.4286 22.4253 21.0133 22.7575 20.515 22.7575Z" fill="#3E4095"/>
<path d="M19.8505 9.71762H16.113C15.6146 9.71762 15.1993 9.30233 15.1993 8.80399V5.06645C15.1993 4.56811 15.6146 4.15283 16.113 4.15283H19.8505C20.3488 4.15283 20.7641 4.56811 20.7641 5.06645V8.80399C20.6811 9.30233 20.3488 9.71762 19.8505 9.71762Z" fill="#3E4095"/>
<path d="M13.6213 3.48837H11.8771C11.3788 3.48837 10.9635 3.07309 10.9635 2.57475V0.913621C10.9635 0.415282 11.3788 0 11.8771 0H13.6213C14.1196 0 14.5349 0.415282 14.5349 0.913621V2.65781C14.5349 3.15615 14.1196 3.48837 13.6213 3.48837Z" fill="#3E4095"/>
<path d="M20.2658 41.196H8.38867V41.3622H20.2658V41.196Z" fill="#ECF9FF"/>
<path d="M20.2658 40.9469H8.38867V41.113H20.2658V40.9469Z" fill="#EBF9FF"/>
<path d="M20.2658 40.7808H8.38867V40.9469H20.2658V40.7808Z" fill="#EAF8FF"/>
<path d="M20.2658 40.6146H8.38867V40.7807H20.2658V40.6146Z" fill="#E9F8FF"/>
<path d="M20.2658 40.3655H8.38867V40.5316H20.2658V40.3655Z" fill="#E8F8FF"/>
<path d="M20.2658 40.1993H8.38867V40.3655H20.2658V40.1993Z" fill="#E7F7FF"/>
<path d="M20.2658 40.0333H8.38867V40.1994H20.2658V40.0333Z" fill="#E6F7FF"/>
<path d="M20.2658 39.8671H8.38867V40.0332H20.2658V39.8671Z" fill="#E5F7FF"/>
<path d="M20.2658 39.618H8.38867V39.7841H20.2658V39.618Z" fill="#E4F6FE"/>
<path d="M20.2658 39.4518H8.38867V39.618H20.2658V39.4518Z" fill="#E3F6FE"/>
<path d="M20.2658 39.2858H8.38867V39.4519H20.2658V39.2858Z" fill="#E2F5FE"/>
<path d="M20.2658 39.0366H8.38867V39.2027H20.2658V39.0366Z" fill="#E1F5FE"/>
<path d="M20.2658 38.8705H8.38867V39.0366H20.2658V38.8705Z" fill="#E0F5FE"/>
<path d="M20.2658 38.7043H8.38867V38.8705H20.2658V38.7043Z" fill="#DFF4FE"/>
<path d="M20.2658 38.4552H8.38867V38.6213H20.2658V38.4552Z" fill="#DEF4FE"/>
<path d="M20.2658 38.2891H8.38867V38.4552H20.2658V38.2891Z" fill="#DDF4FE"/>
<path d="M20.2658 38.1229H8.38867V38.289H20.2658V38.1229Z" fill="#DCF3FE"/>
<path d="M20.2658 37.8738H8.38867V38.0399H20.2658V37.8738Z" fill="#DBF3FE"/>
<path d="M20.2658 37.7077H8.38867V37.8738H20.2658V37.7077Z" fill="#DAF3FE"/>
<path d="M20.2658 37.5416H8.38867V37.7077H20.2658V37.5416Z" fill="#D9F2FE"/>
<path d="M20.2658 37.3754H8.38867V37.5415H20.2658V37.3754Z" fill="#D8F2FE"/>
<path d="M20.2658 37.1263H8.38867V37.2924H20.2658V37.1263Z" fill="#D7F2FE"/>
<path d="M20.2658 36.9601H8.38867V37.1263H20.2658V36.9601Z" fill="#D6F1FE"/>
<path d="M20.2658 36.7941H8.38867V36.9602H20.2658V36.7941Z" fill="#D5F1FE"/>
<path d="M20.2658 36.5449H8.38867V36.711H20.2658V36.5449Z" fill="#D4F1FD"/>
<path d="M20.2658 36.3788H8.38867V36.5449H20.2658V36.3788Z" fill="#D3F0FD"/>
<path d="M20.2658 36.2126H8.38867V36.3788H20.2658V36.2126Z" fill="#D2F0FD"/>
<path d="M20.2658 35.9635H8.38867V36.1296H20.2658V35.9635Z" fill="#D1F0FD"/>
<path d="M20.2658 35.7974H8.38867V35.9635H20.2658V35.7974Z" fill="#D0EFFD"/>
<path d="M20.2658 35.6313H8.38867V35.7974H20.2658V35.6313Z" fill="#CFEFFD"/>
<path d="M20.2658 35.3821H8.38867V35.5482H20.2658V35.3821Z" fill="#CEEEFD"/>
<path d="M20.2658 35.216H8.38867V35.3821H20.2658V35.216Z" fill="#CDEEFD"/>
<path d="M20.2658 35.0499H8.38867V35.216H20.2658V35.0499Z" fill="#CCEEFD"/>
<path d="M20.2658 34.8837H8.38867V35.0498H20.2658V34.8837Z" fill="#CBEDFD"/>
<path d="M20.2658 34.6346H8.38867V34.8007H20.2658V34.6346Z" fill="#CAEDFD"/>
<path d="M20.2658 34.4684H8.38867V34.6346H20.2658V34.4684Z" fill="#C9EDFD"/>
<path d="M20.2658 34.3024H8.38867V34.4685H20.2658V34.3024Z" fill="#C8ECFD"/>
<path d="M20.2658 34.0532H8.38867V34.2193H20.2658V34.0532Z" fill="#C7ECFD"/>
<path d="M20.2658 33.8871H8.38867V34.0532H20.2658V33.8871Z" fill="#C6ECFD"/>
<path d="M20.2658 33.7209H8.38867V33.8871H20.2658V33.7209Z" fill="#C4EBFC"/>
<path d="M20.2658 33.4718H8.38867V33.6379H20.2658V33.4718Z" fill="#C3EBFC"/>
<path d="M20.2658 33.3057H8.38867V33.4718H20.2658V33.3057Z" fill="#C2EBFC"/>
<path d="M20.2658 33.1396H8.38867V33.3057H20.2658V33.1396Z" fill="#C1EAFC"/>
<path d="M20.2658 32.8904H8.38867V33.0565H20.2658V32.8904Z" fill="#C0EAFC"/>
<path d="M20.2658 32.7242H8.38867V32.8904H20.2658V32.7242Z" fill="#BFEAFC"/>
<path d="M20.2658 32.5582H8.38867V32.7243H20.2658V32.5582Z" fill="#BEE9FC"/>
<path d="M20.2658 32.392H8.38867V32.5581H20.2658V32.392Z" fill="#BDE9FC"/>
<path d="M20.2658 32.1429H8.38867V32.309H20.2658V32.1429Z" fill="#BCE9FC"/>
<path d="M20.2658 31.9768H8.38867V32.1429H20.2658V31.9768Z" fill="#BBE8FC"/>
<path d="M20.2658 31.8107H8.38867V31.9768H20.2658V31.8107Z" fill="#BAE8FC"/>
<path d="M20.2658 31.5615H8.38867V31.7276H20.2658V31.5615Z" fill="#B9E7FC"/>
<path d="M20.2658 31.3954H8.38867V31.5615H20.2658V31.3954Z" fill="#B8E7FC"/>
<path d="M20.2658 31.2292H8.38867V31.3954H20.2658V31.2292Z" fill="#B7E7FC"/>
<path d="M20.2658 30.9801H8.38867V31.1462H20.2658V30.9801Z" fill="#B6E6FC"/>
<path d="M20.2658 30.814H8.38867V30.9801H20.2658V30.814Z" fill="#B5E6FB"/>
<path d="M20.2658 30.6479H8.38867V30.814H20.2658V30.6479Z" fill="#B4E6FB"/>
<path d="M20.2658 30.3987H8.38867V30.5648H20.2658V30.3987Z" fill="#B3E5FB"/>
<path d="M20.2658 30.2326H8.38867V30.3987H20.2658V30.2326Z" fill="#B2E5FB"/>
<path d="M20.2658 30.0665H8.38867V30.2326H20.2658V30.0665Z" fill="#B1E5FB"/>
<path d="M20.2658 29.9004H8.38867V30.0665H20.2658V29.9004Z" fill="#B0E4FB"/>
<path d="M20.2658 29.6512H8.38867V29.8173H20.2658V29.6512Z" fill="#AFE4FB"/>
<path d="M20.2658 29.4851H8.38867V29.6512H20.2658V29.4851Z" fill="#AEE4FB"/>
<path d="M20.2658 29.319H8.38867V29.4851H20.2658V29.319Z" fill="#ADE3FB"/>
<path d="M20.2658 29.0698H8.38867V29.2359H20.2658V29.0698Z" fill="#ACE3FB"/>
<path d="M20.2658 28.9037H8.38867V29.0698H20.2658V28.9037Z" fill="#ABE3FB"/>
<path d="M20.2658 28.7375H8.38867V28.9037H20.2658V28.7375Z" fill="#AAE2FB"/>
<path d="M20.2658 28.4884H8.38867V28.6545H20.2658V28.4884Z" fill="#A9E2FB"/>
<path d="M20.2658 28.3223H8.38867V28.4884H20.2658V28.3223Z" fill="#A8E2FB"/>
<path d="M20.2658 28.1562H8.38867V28.3223H20.2658V28.1562Z" fill="#A7E1FB"/>
<path d="M20.2658 27.907H8.38867V28.0731H20.2658V27.907Z" fill="#A6E1FB"/>
<path d="M20.2658 27.7409H8.38867V27.907H20.2658V27.7409Z" fill="#A5E0FA"/>
<path d="M20.2658 27.5748H8.38867V27.7409H20.2658V27.5748Z" fill="#A4E0FA"/>
<path d="M20.2658 27.4087H8.38867V27.5748H20.2658V27.4087Z" fill="#A3E0FA"/>
<path d="M20.2658 27.1595H8.38867V27.3256H20.2658V27.1595Z" fill="#A2DFFA"/>
<path d="M20.2658 26.9934H8.38867V27.1595H20.2658V26.9934Z" fill="#A1DFFA"/>
<path d="M20.2658 26.8273H8.38867V26.9934H20.2658V26.8273Z" fill="#A0DFFA"/>
<path d="M20.2658 26.5781H8.38867V26.7442H20.2658V26.5781Z" fill="#9FDEFA"/>
<path d="M20.2658 26.412H8.38867V26.5781H20.2658V26.412Z" fill="#9EDEFA"/>
</svg>
