<?xml version="1.0" encoding="utf-8"?>
<!-- Generator: Adobe Illustrator 22.0.1, SVG Export Plug-In . SVG Version: 6.00 Build 0)  -->
<svg version="1.1" id="Слой_1" xmlns="http://www.w3.org/2000/svg" xmlns:xlink="http://www.w3.org/1999/xlink" x="0px" y="0px"
	 viewBox="0 0 30 30" style="enable-background:new 0 0 30 30;" xml:space="preserve">
<style type="text/css">
	.st0{fill:#ffffff;}
	.st1{fill:none;}
</style>
<title>Detect similar sentences</title>
<g>
	<path class="st0" d="M18.2,4.9c-0.1,0-0.2-0.1-0.3-0.1c0,0-0.6-0.7-0.8-1c-0.2-0.2-0.3-0.5-0.1-0.7c0.2-0.2,0.4-0.2,0.6,0
		c0,0,0,0,0,0l0.6,0.7c0,0,0.9-1,1.2-1.4c0.1-0.2,0.4-0.2,0.6-0.1c0,0,0,0,0,0c0.1,0.1,0.2,0.4,0,0.5c-0.4,0.4-1.5,1.8-1.5,1.8
		C18.4,4.8,18.3,4.9,18.2,4.9L18.2,4.9z"/>
	<polygon class="st1" points="25.2,4.3 28.4,7.8 25.2,7.8 	"/>
	<polygon class="st1" points="25.2,7.8 28.4,7.8 25.2,4.3 	"/>
	<path class="st0" d="M13.4,11.6h4.9c0.3,0,0.6-0.3,0.6-0.5c0-0.3-0.3-0.5-0.6-0.5h-4.9c-0.3,0-0.6,0.3-0.6,0.5
		C12.8,11.3,13.1,11.6,13.4,11.6z"/>
	<path class="st0" d="M26.2,24.3h-4.9c-0.3,0-0.6,0.3-0.6,0.5c0,0.3,0.3,0.5,0.6,0.5h4.9c0.3,0,0.6-0.3,0.6-0.5
		C26.7,24.6,26.5,24.4,26.2,24.3z"/>
	<path class="st0" d="M26.5,21.8H14.4c-0.2,0-0.6,0.3-0.6,0.5c0,0.3,0.3,0.5,0.6,0.5h12.1c0.2,0,0.6-0.3,0.6-0.5
		C27,22,26.8,21.8,26.5,21.8z"/>
	<path class="st0" d="M26.5,19.3H14.4c-0.2,0-0.6,0.3-0.6,0.5c0,0.3,0.3,0.5,0.6,0.5h12.1c0.2,0,0.6-0.3,0.6-0.5
		C27,19.5,26.8,19.3,26.5,19.3z"/>
	<path class="st0" d="M26.5,16.7H14.4c-0.2,0-0.6,0.3-0.6,0.5c0,0.3,0.3,0.5,0.6,0.5h12.1c0.2,0,0.6-0.3,0.6-0.5
		C27,16.9,26.8,16.7,26.5,16.7z"/>
	<path class="st0" d="M26.5,14H14.4c-0.2,0-0.6,0.3-0.6,0.5c0,0.3,0.3,0.5,0.6,0.5h12.1c0.2,0,0.6-0.3,0.6-0.5
		C27,14.3,26.8,14.1,26.5,14z"/>
	<g>
		<path class="st0" d="M7.1,20.3h-2c-0.3,0-0.5,0.2-0.5,0.5v1.5H3.1c-0.3,0-0.5,0.2-0.5,0.5v2c0,0.3,0.2,0.5,0.5,0.5h1.5v1.5
			c0,0.3,0.2,0.5,0.5,0.5h2c0.3,0,0.5-0.2,0.5-0.5v-1.5h1.5c0.3,0,0.5-0.2,0.5-0.5v-2c0-0.3-0.2-0.5-0.5-0.5H7.6v-1.5
			C7.6,20.5,7.4,20.3,7.1,20.3z M8.6,23.3v1H7.1c-0.3,0-0.5,0.2-0.5,0.5v1.5h-1v-1.5c0-0.3-0.2-0.5-0.5-0.5H3.6v-1h1.5
			c0.3,0,0.5-0.2,0.5-0.5v-1.5h1v1.5c0,0.3,0.2,0.5,0.5,0.5H8.6z"/>
		<path class="st0" d="M13.6,23.3c-0.5,0-1,0.1-1.5,0.3v-4.8c0-0.1-0.1-0.3-0.1-0.4l-0.9-0.9v-1.3c0.6-0.1,1-0.5,1-1.1v-2.8
			c0-0.6-0.5-1.1-1.1-1.1H1.3c-0.6,0-1.1,0.5-1.1,1.1v2.8c0,0.6,0.4,1.1,1,1.1v1.3l-0.9,0.9c-0.1,0.1-0.1,0.2-0.1,0.4v2.5h1V19
			l0.7-0.7h6.8v-1H2.1v-1h8v1.5c0,0.1,0.1,0.3,0.1,0.4l0.9,0.9v5.3c-1.4,1.4-1.3,3.6,0,4.9c0,0,0,0,0,0H1.3c-0.1,0-0.1-0.1-0.1-0.1
			v-6.9h-1v6.9c0,0.6,0.5,1.1,1.1,1.1h12.4c1.9,0,3.5-1.6,3.5-3.5S15.6,23.3,13.6,23.3z M1.3,15.3c-0.1,0-0.1-0.1-0.1-0.1v-2.8
			c0-0.1,0.1-0.1,0.1-0.1H11c0.1,0,0.1,0.1,0.1,0.1v2.8c0,0.1-0.1,0.1-0.1,0.1H1.3z M11.1,26.8c0-0.7,0.3-1.4,0.8-1.9l2.4,4.2
			c-1.3,0.4-2.7-0.3-3.2-1.6C11.2,27.3,11.1,27,11.1,26.8L11.1,26.8z M15.3,28.6l-2.4-4.2c1.3-0.4,2.7,0.3,3.2,1.6
			C16.3,26.9,16,28,15.3,28.6z"/>
	</g>
	<path class="st0" d="M24.9,2.5c-0.1-0.1-0.2-0.1-0.3-0.1l-2.7,0c-0.6-1.8-2.5-2.8-4.4-2.3c-1.1,0.3-2,1.2-2.3,2.3l-2.9,0
		C10.5,2.4,9,3.8,9,5.5v4.9h1.1V5.5c0-1.2,1-2.1,2.2-2c0,0,0,0,0,0l2.8,0c0,1.9,1.6,3.5,3.6,3.4c1.9,0,3.4-1.6,3.4-3.5
		c0,0,0,0,0-0.1l2,0v4.8c0,0.3,0.3,0.5,0.6,0.5h4.5l-0.1,16c0,0.3-0.1,0.4-0.1,0.6c-0.3,0.9-1.2,1.5-2.1,1.5h-9v1h9
		c1.5,0,2.8-0.9,3.2-2.3v-3.3v-1.4V8.1C29.2,7.1,24.9,2.5,24.9,2.5z M18.5,6C17.2,6,16,4.8,16,3.5c0-1.4,1.1-2.5,2.5-2.5
		c1.4,0,2.5,1.1,2.5,2.5S19.9,6,18.5,6z M25.2,7.8V4.3l3.2,3.5H25.2z"/>
</g>
</svg>
