<svg width="26" height="26" fill="none" xmlns="http://www.w3.org/2000/svg"><path d="M25.89 13.94a2.32 2.32 0 00-2.92-1.48l-2.34.75-1.58-4.87 2.33-.76a2.32 2.32 0 10-1.43-4.4l-2.33.75-.76-2.33a2.31 2.31 0 10-4.4 1.43l.75 2.34-4.87 1.58-.76-2.33a2.32 2.32 0 00-4.4 1.43l.76 2.33-2.41.79a2.31 2.31 0 00-1.44 2.81 2.3 2.3 0 002.87 1.59l2.4-.78 1.59 4.87-2.4.78a2.32 2.32 0 00-1.44 2.82 2.3 2.3 0 002.86 1.59l2.41-.79.78 2.41a2.32 2.32 0 002.82 1.44 2.3 2.3 0 001.59-2.87l-.78-2.4 4.87-1.59.79 2.4a2.32 2.32 0 002.81 1.45 2.3 2.3 0 001.59-2.87l-.78-2.41 2.33-.76a2.32 2.32 0 001.49-2.92zm-14.53 2.3l-1.59-4.88 4.88-1.59 1.58 4.88-4.87 1.58z" fill="#FF8A00"/></svg>