<?xml version="1.0" encoding="utf-8"?>
<!-- Generator: Adobe Illustrator 22.0.1, SVG Export Plug-In . SVG Version: 6.00 Build 0)  -->
<svg version="1.1" id="Слой_1" xmlns="http://www.w3.org/2000/svg" xmlns:xlink="http://www.w3.org/1999/xlink" x="0px" y="0px"
	 viewBox="0 0 30 30" style="enable-background:new 0 0 30 30;" xml:space="preserve">
<style type="text/css">
	.st0{fill:#0098DA;}
</style>
<title>Detect similar sentences</title>
<g>
	<g>
		<path class="st0" d="M4.6,16.9c-0.2,0.2-0.2,0.5,0,0.7c0.1,0.1,0.2,0.1,0.3,0.1c0.1,0,0.2-0.1,0.3-0.1c0.3-0.3,0.7-0.5,1.1-0.5
			s0.8,0.2,1.1,0.5c0.1,0.1,0.2,0.1,0.3,0.1s0.2,0,0.3-0.1c0.2-0.2,0.2-0.5,0-0.7c-0.5-0.5-1.1-0.7-1.8-0.7
			C5.7,16.2,5.1,16.5,4.6,16.9z"/>
		<path class="st0" d="M3.2,15.2c0.1,0,0.3,0.1,0.4,0.1c0.3,0,0.6-0.1,0.8-0.2c0.4-0.2,0.7-0.6,0.8-1c0-0.1,0-0.3,0-0.4
			c-0.1-0.1-0.2-0.2-0.3-0.2c0,0-0.1,0-0.1,0c-0.2,0-0.4,0.1-0.5,0.4c-0.1,0.2-0.2,0.3-0.3,0.4c-0.1,0.1-0.2,0.1-0.4,0.1
			c-0.1,0-0.1,0-0.2,0c0,0-0.1,0-0.1,0c-0.2,0-0.4,0.1-0.5,0.4C2.7,14.8,2.9,15.1,3.2,15.2z"/>
		<path class="st0" d="M8.4,15c0.3,0.1,0.5,0.2,0.8,0.2c0.1,0,0.3,0,0.4-0.1c0.1,0,0.2-0.1,0.3-0.2c0.1-0.1,0.1-0.2,0-0.4
			c-0.1-0.2-0.2-0.4-0.5-0.4c0,0-0.1,0-0.1,0c-0.1,0-0.1,0-0.2,0c-0.1,0-0.2,0-0.4-0.1c-0.2-0.1-0.3-0.2-0.3-0.4
			c-0.1-0.2-0.2-0.4-0.5-0.4c0,0-0.1,0-0.1,0c-0.3,0.1-0.4,0.3-0.3,0.6C7.7,14.4,8,14.8,8.4,15z"/>
		<path class="st0" d="M13.8,1.5c-3.4,0-6.2,2.8-6.2,6.2c0,0.4,0,0.8,0.1,1.3C7.2,9,6.8,8.9,6.4,8.9c-1,0-2,0.2-2.9,0.7
			c-0.2,0.1-0.3,0.4-0.2,0.7c0.1,0.2,0.2,0.3,0.4,0.3c0.1,0,0.2,0,0.2-0.1c0.8-0.4,1.6-0.6,2.5-0.6c2.9,0,5.3,2.4,5.3,5.3
			s-2.4,5.3-5.3,5.3s-5.3-2.4-5.3-5.3c0-0.9,0.2-1.7,0.6-2.5c0.1-0.1,0.1-0.2,0-0.4c0-0.1-0.1-0.2-0.2-0.3C1.4,12,1.4,12,1.3,12
			c-0.2,0-0.3,0.1-0.4,0.3c-0.5,0.9-0.7,1.9-0.7,2.9c0,3.4,2.8,6.2,6.2,6.2s6.2-2.8,6.2-6.2c0-0.4,0-0.8-0.1-1.3
			c0.4,0.1,0.8,0.1,1.3,0.1c3.4,0,6.2-2.8,6.2-6.2S17.2,1.5,13.8,1.5z M13.8,13.1c-0.6,0-1.1-0.1-1.6-0.2c-0.6-1.6-1.9-2.9-3.5-3.5
			C8.6,8.9,8.5,8.3,8.5,7.8c0-2.9,2.4-5.3,5.3-5.3s5.3,2.4,5.3,5.3C19.1,10.7,16.7,13.1,13.8,13.1z"/>
		<path class="st0" d="M15.2,8.8c-0.1,0-0.2,0.1-0.3,0.1c-0.3,0.3-0.7,0.5-1.1,0.5S13,9.3,12.7,9c-0.1-0.1-0.2-0.1-0.3-0.1
			c-0.1,0-0.2,0.1-0.3,0.1c-0.2,0.2-0.2,0.5,0,0.7c0.5,0.5,1.1,0.7,1.8,0.7c0.7,0,1.3-0.3,1.8-0.7c0.2-0.2,0.2-0.5,0-0.7
			C15.5,8.9,15.3,8.8,15.2,8.8z"/>
		<path class="st0" d="M12.3,7.7c0.1,0,0.2-0.1,0.3-0.1c0.1-0.1,0.1-0.2,0.1-0.3S12.8,7,12.7,6.9c-0.3-0.3-0.7-0.5-1.2-0.5
			c-0.4,0-0.9,0.2-1.2,0.5c-0.1,0.1-0.1,0.2-0.1,0.3s0.1,0.2,0.1,0.3c0.1,0.1,0.2,0.1,0.3,0.1c0.1,0,0.2-0.1,0.3-0.1
			c0.1-0.1,0.3-0.2,0.5-0.2s0.4,0.1,0.5,0.2C12.1,7.7,12.2,7.7,12.3,7.7z"/>
		<path class="st0" d="M16.1,6.4c-0.4,0-0.9,0.2-1.2,0.5c-0.1,0.1-0.1,0.2-0.1,0.3s0.1,0.2,0.1,0.3c0.1,0.1,0.2,0.1,0.3,0.1
			c0.1,0,0.2-0.1,0.3-0.1c0.1-0.1,0.3-0.2,0.5-0.2s0.4,0.1,0.5,0.2c0.1,0.1,0.2,0.1,0.3,0.1s0.2-0.1,0.3-0.1
			c0.1-0.1,0.1-0.2,0.1-0.3S17.3,7,17.3,6.9C16.9,6.6,16.5,6.4,16.1,6.4z"/>
		<path class="st0" d="M2.3,11.6c0.1,0,0.2,0,0.3-0.1c0.2-0.2,0.2-0.5,0-0.7c-0.1-0.1-0.2-0.1-0.3-0.1c-0.1,0-0.3,0.1-0.3,0.1
			c-0.2,0.2-0.2,0.5,0,0.7C2.1,11.5,2.2,11.6,2.3,11.6z"/>
	</g>
	<g>
		<path class="st0" d="M29.5,2.7H18.8V0.6c0-0.3-0.2-0.5-0.5-0.5H4.1c-0.3,0-0.5,0.2-0.5,0.5v9.5c0.3-0.2,0.6-0.3,1-0.4V1.1h13.2
			v1.6h-1.2c0.1,0.1,0.2,0.1,0.4,0.2c0.3,0.2,0.5,0.5,0.7,0.8H29V29H11.9V16.4c0,0.1-0.1,0.1-0.1,0.2c0,0,0,0.1,0,0.1
			c0,0.7-0.4,1.3-0.9,1.8v7.9H4.6v-5.6c-0.4-0.1-0.7-0.3-1-0.6v6.6c0,0.3,0.2,0.5,0.5,0.5h6.8v2.1c0,0.3,0.2,0.5,0.5,0.5h18.1
			c0.3,0,0.5-0.2,0.5-0.5V3.2C30,2.9,29.8,2.7,29.5,2.7z"/>
		<path class="st0" d="M15.2,22.8H26c0.3,0,0.5-0.2,0.5-0.5s-0.2-0.5-0.5-0.5H15.2c-0.3,0-0.5,0.2-0.5,0.5S14.9,22.8,15.2,22.8z"/>
		<path class="st0" d="M15.2,24.8H26c0.3,0,0.5-0.2,0.5-0.5s-0.2-0.5-0.5-0.5H15.2c-0.3,0-0.5,0.2-0.5,0.5S14.9,24.8,15.2,24.8z"/>
		<path class="st0" d="M15.2,26.9H26c0.3,0,0.5-0.2,0.5-0.5s-0.2-0.5-0.5-0.5H15.2c-0.3,0-0.5,0.2-0.5,0.5S14.9,26.9,15.2,26.9z"/>
		<path class="st0" d="M15.2,20.4h10.8c0.3,0,0.5-0.2,0.5-0.5s-0.2-0.5-0.5-0.5h-0.5c-0.2-2.4-2.1-4.2-4.4-4.5v-0.9
			c0-0.3-0.2-0.5-0.5-0.5s-0.5,0.2-0.5,0.5v0.9c-2.3,0.2-4.2,2.1-4.4,4.5h-0.5c-0.3,0-0.5,0.2-0.5,0.5S15,20.4,15.2,20.4z
			 M20.7,15.8c2,0,3.7,1.6,4,3.5h-7.9C16.9,17.4,18.6,15.8,20.7,15.8z"/>
	</g>
</g>
</svg>
