<svg xmlns="http://www.w3.org/2000/svg" xml:space="preserve" width="66.667" height="66.667"><defs><clipPath clipPathUnits="userSpaceOnUse" id="a"><path d="M0 50h50V0H0Z"/></clipPath></defs><g clip-path="url(#a)" transform="matrix(1.33333 0 0 -1.33333 0 66.667)"><path d="M0 0a.85.85 0 0 0-.85.85v.504a3.326 3.326 0 0 1-3.322 3.323h-27.445a3.326 3.326 0 0 1-3.322-3.323V.85a.85.85 0 1 0-1.7 0v.504a5.027 5.027 0 0 0 5.022 5.022h27.445A5.027 5.027 0 0 0 .85 1.354V.85A.85.85 0 0 0 0 0" style="fill:#0098da;fill-opacity:1;fill-rule:nonzero;stroke:none" transform="translate(42.936 11.721)"/><path d="M0 0a.85.85 0 0 0-.85.85v3.906a.85.85 0 0 0 1.7 0V.85A.85.85 0 0 0 0 0" style="fill:#0098da;fill-opacity:1;fill-rule:nonzero;stroke:none" transform="translate(25.041 12.492)"/><path d="m0 0-.061-6.107 8.72-.052.053 6.098L8.65 0Zm8.659-7.858H-.009c-.966 0-1.751.785-1.751 1.751v6.046c0 .971.789 1.76 1.76 1.76h8.65c.971 0 1.761-.789 1.761-1.76v-6.046c0-.966-.786-1.751-1.752-1.751" style="fill:#0098da;fill-opacity:1;fill-rule:nonzero;stroke:none" transform="translate(38.362 9.707)"/><path d="M0 0h-4.5a.85.85 0 1 0 0 1.699H0A.85.85 0 1 0 0 0" style="fill:#0098da;fill-opacity:1;fill-rule:nonzero;stroke:none" transform="translate(44.938 7.083)"/><path d="M0 0h-4.5a.85.85 0 1 0 0 1.699H0A.85.85 0 1 0 0 0" style="fill:#0098da;fill-opacity:1;fill-rule:nonzero;stroke:none" transform="translate(44.938 4.582)"/><path d="m0 0-.06-6.107 8.719-.052.052 6.098L8.65 0Zm8.659-7.858H-.009c-.966 0-1.751.785-1.751 1.751v6.046c0 .971.789 1.76 1.76 1.76h8.65c.971 0 1.76-.789 1.76-1.76v-6.046c0-.966-.785-1.751-1.751-1.751" style="fill:#0098da;fill-opacity:1;fill-rule:nonzero;stroke:none" transform="translate(20.143 9.707)"/><path d="M0 0h-4.5a.85.85 0 1 0 0 1.699H0A.85.85 0 1 0 0 0" style="fill:#0098da;fill-opacity:1;fill-rule:nonzero;stroke:none" transform="translate(26.718 7.083)"/><path d="M0 0h-4.5a.85.85 0 1 0 0 1.699H0A.85.85 0 1 0 0 0" style="fill:#0098da;fill-opacity:1;fill-rule:nonzero;stroke:none" transform="translate(26.718 4.582)"/><path d="m0 0-.06-6.107 8.72-.052.051 6.098-.06.061Zm8.66-7.858H-.009c-.966 0-1.751.785-1.751 1.751v6.046c0 .971.789 1.76 1.76 1.76h8.651c.971 0 1.76-.789 1.76-1.76v-6.046c0-.966-.785-1.751-1.751-1.751" style="fill:#0098da;fill-opacity:1;fill-rule:nonzero;stroke:none" transform="translate(2.834 9.707)"/><path d="M0 0h-4.5a.85.85 0 1 0 0 1.699H0A.85.85 0 1 0 0 0" style="fill:#0098da;fill-opacity:1;fill-rule:nonzero;stroke:none" transform="translate(9.41 7.083)"/><path d="M0 0h-4.5a.85.85 0 1 0 0 1.699H0A.85.85 0 1 0 0 0" style="fill:#0098da;fill-opacity:1;fill-rule:nonzero;stroke:none" transform="translate(9.41 4.582)"/><path d="M0 0a.852.852 0 0 0-.85.85v2.825h-1.13a4.496 4.496 0 0 0-4.492 4.491v14.517a4.497 4.497 0 0 0 4.492 4.491h19.1a4.496 4.496 0 0 0 4.491-4.491v-.574a.85.85 0 1 0-1.699 0v.574a2.795 2.795 0 0 1-2.792 2.791h-19.1a2.793 2.793 0 0 1-2.791-2.791V8.166A2.794 2.794 0 0 1-1.98 5.374H0a.85.85 0 0 0 .85-.85v-2.13l4.502 2.848a.84.84 0 0 0 .454.132h5.743a.85.85 0 1 0 0-1.699H6.053L.455.132A.85.85 0 0 0 0 0" style="fill:#0098da;fill-opacity:1;fill-rule:nonzero;stroke:none" transform="translate(13.142 20.025)"/><path d="M0 0c1.575-.143 2.718.288 3.482.785 1.363.886 2.244 2.5 2.244 4.111v.403a.85.85 0 0 0 .236.588.842.842 0 0 0-.232.502.856.856 0 0 0-.444.217 1.31 1.31 0 0 1-.887.355 1.341 1.341 0 0 1-1.327-1.339v-.483a.851.851 0 0 0-.679-.833c-1.182-.244-2.324-.014-3.453.701a.85.85 0 0 0-.351-1.408c.084-.022.172-.036.262-.041a.85.85 0 0 0 .355-1.596c.232-.045.518-.078.876-.106A.85.85 0 0 0 .495.307 6.883 6.883 0 0 0 0 0m.619-1.719c-1.33 0-2.759.326-4.228.979a.85.85 0 0 0-.485.962c.088.396.406.704.849.664.228-.005.454.006.677.033a2.744 2.744 0 0 0-.727.924.847.847 0 0 0 .08.89 3.053 3.053 0 0 0-.893 1.819.85.85 0 0 0 .866.95c-.13.583-.126 1.244.012 1.979a.852.852 0 0 0 1.477.402C-.64 6.603.374 5.964 1.386 5.917a3.052 3.052 0 0 0 3.02 2.745 3.037 3.037 0 0 0 1.621-.485l.815.271a.85.85 0 0 0 1.041-1.161l-.172-.374.22-.094a.849.849 0 0 0 .163-1.47l-.668-.484C7.415 2.671 6.261.563 4.408-.641 3.303-1.359 2.016-1.719.619-1.719" style="fill:#0098da;fill-opacity:1;fill-rule:nonzero;stroke:none" transform="translate(15.66 31.907)"/><path d="M0 0h.01Zm6.453 2.159c-.225 0-.452-.01-.681-.03A7.497 7.497 0 0 1 .652-.545H.651a7.497 7.497 0 0 1-1.729-5.512 7.499 7.499 0 0 1 2.674-5.122 7.493 7.493 0 0 1 5.511-1.729 7.494 7.494 0 0 1 5.121 2.675 7.497 7.497 0 0 1 1.731 5.511A7.5 7.5 0 0 1 11.284.399a7.489 7.489 0 0 1-4.831 1.76m-.029-16.798a9.181 9.181 0 0 0-5.92 2.157 9.189 9.189 0 0 0-3.276 6.274A9.186 9.186 0 0 0-.651.545a9.182 9.182 0 0 0 6.273 3.277 9.179 9.179 0 0 0 6.754-2.119 9.189 9.189 0 0 0 3.276-6.275 9.187 9.187 0 0 0-2.121-6.753 9.183 9.183 0 0 0-6.273-3.277 9.711 9.711 0 0 0-.834-.037" style="fill:#0098da;fill-opacity:1;fill-rule:nonzero;stroke:none" transform="translate(27.488 36.48)"/><path d="M0 0c-.008-.009-.017-.018-.023-.028zm-4.828-1.172-.023-.026c.008.008.016.016.023.026m1.164.73a.77.77 0 0 0 .579-.26.77.77 0 0 0 .191-.605l-.273-2.363L-.65-.754h-.536a.776.776 0 0 0-.77.868l.283 2.347-2.521-2.903zm-.565-6.422a.776.776 0 0 0-.77.866l.464 4.004h-.695c-.465.025-.839.294-.995.688A1.09 1.09 0 0 0-5.994-.15l4.808 5.54a.776.776 0 0 0 1.357-.602L-.311.797h.695c.471-.028.843-.3.995-.695a1.09 1.09 0 0 0-.234-1.15l-4.786-5.546a.777.777 0 0 0-.588-.27" style="fill:#0098da;fill-opacity:1;fill-rule:nonzero;stroke:none" transform="translate(36.353 31.693)"/></g></svg>