<svg width="50" height="50" viewBox="0 0 50 50" fill="none" xmlns="http://www.w3.org/2000/svg">
<path d="M25.2015 16.7984H31.341C31.8759 16.7984 32.31 16.3643 32.31 15.8294V9.66666C32.31 9.13177 31.8759 8.69766 31.341 8.69766H25.2015C24.6666 8.69766 24.2325 9.13177 24.2325 9.66666V11.124C24.2325 11.4418 24.496 11.7054 24.8139 11.7054C25.1317 11.7054 25.3953 11.4418 25.3953 11.124V9.86045H31.1472V15.6356H25.3953V13.9225C25.3953 13.6046 25.1317 13.3411 24.8139 13.3411C24.496 13.3411 24.2325 13.6046 24.2325 13.9225V15.8294C24.2325 16.3643 24.6666 16.7984 25.2015 16.7984Z" fill="#536B76"/>
<path d="M14.3722 15.8605H22.2947C22.6125 15.8605 22.8761 15.5969 22.8761 15.2791C22.8761 14.9612 22.6125 14.6977 22.2947 14.6977H14.3722C14.0544 14.6977 13.7908 14.9612 13.7908 15.2791C13.7908 15.5969 14.0544 15.8605 14.3722 15.8605Z" fill="#536B76"/>
<path d="M27.6281 20.1938C27.6281 19.876 27.3645 19.6124 27.0467 19.6124H19.0545C18.7366 19.6124 18.4731 19.876 18.4731 20.1938C18.4731 20.5116 18.7366 20.7752 19.0545 20.7752H27.0467C27.3723 20.7752 27.6281 20.5116 27.6281 20.1938Z" fill="#536B76"/>
<path d="M14.3722 13.3256H22.2947C22.6125 13.3256 22.8761 13.062 22.8761 12.7442C22.8761 12.4264 22.6125 12.1628 22.2947 12.1628H14.3722C14.0544 12.1628 13.7908 12.4264 13.7908 12.7442C13.7908 13.0698 14.0544 13.3256 14.3722 13.3256Z" fill="#536B76"/>
<path d="M14.3722 10.7985H22.2947C22.6125 10.7985 22.8761 10.5349 22.8761 10.2171C22.8761 9.89924 22.6125 9.63567 22.2947 9.63567H14.3722C14.0544 9.63567 13.7908 9.89924 13.7908 10.2171C13.7908 10.5349 14.0544 10.7985 14.3722 10.7985Z" fill="#536B76"/>
<path d="M14.3722 27.2093H26.3024C26.6202 27.2093 26.8838 26.9457 26.8838 26.6279C26.8838 26.3101 26.6202 26.0465 26.3024 26.0465H14.3722C14.0544 26.0465 13.7908 26.3101 13.7908 26.6279C13.7908 26.9457 14.0544 27.2093 14.3722 27.2093Z" fill="#536B76"/>
<path d="M14.3722 23.9535H23.8063C24.1241 23.9535 24.3877 23.6899 24.3877 23.3721C24.3877 23.0543 24.1241 22.7907 23.8063 22.7907H14.3722C14.0544 22.7907 13.7908 23.0543 13.7908 23.3721C13.7908 23.6899 14.0544 23.9535 14.3722 23.9535Z" fill="#536B76"/>
<path d="M31.7673 22.7907H26.3332C26.0153 22.7907 25.7518 23.0543 25.7518 23.3721C25.7518 23.6899 26.0153 23.9535 26.3332 23.9535H31.7673C32.0851 23.9535 32.3487 23.6899 32.3487 23.3721C32.3487 23.0543 32.0851 22.7907 31.7673 22.7907Z" fill="#536B76"/>
<path d="M44.1628 41.1163C44.155 41.1085 44.1473 41.1008 44.1395 41.093L40.5581 37.907C41.124 36.876 41.4496 35.7209 41.4884 34.5194C41.4961 34.2016 41.2481 33.9302 40.9302 33.9147C40.6124 33.907 40.3411 34.155 40.3256 34.4729C40.2403 37.8992 37.3333 40.7209 33.907 40.6822C30.3643 40.6822 27.4806 37.7907 27.4806 34.2326C27.4264 30.7519 30.4264 27.7364 33.907 27.7829C36.6202 27.7829 39.0465 29.5039 39.9612 32.062C40.0698 32.3643 40.4031 32.5194 40.7054 32.4186C41.0078 32.3101 41.1628 31.9767 41.062 31.6744C40.093 28.9457 37.6512 27.0233 34.8295 26.6744V6.12403C34.8295 5.58915 34.3953 5.15504 33.8605 5.15504H12.2403C11.7054 5.15504 11.2713 5.58915 11.2713 6.12403V8.22481H9.18605C8.65116 8.22481 8.21705 8.65892 8.21705 9.1938V11.2946H6.12403C5.58915 11.2946 5.15504 11.7287 5.15504 12.2636V41.2713C5.15504 41.8062 5.58915 42.2403 6.12403 42.2403H24.6357C25.1705 42.2403 25.6047 41.8062 25.6047 41.2713V39.1705H28.1318C29.5271 40.814 31.6047 41.8605 33.9147 41.8605C35.186 41.8605 36.4186 41.5426 37.5116 40.9535L41.1163 44.1861C41.9767 45.0388 43.3643 45.0853 44.2248 44.2326C45.0775 43.4109 45.031 41.9302 44.1628 41.1163ZM12.4341 6.31783H33.6667V26.6512C31.1938 26.7287 28.9535 28.0155 27.6047 30.0233H25.2403C24.9225 30.0233 24.6589 30.2868 24.6589 30.6047C24.6589 30.9225 24.9225 31.186 25.2403 31.186H26.9612C26.8837 31.3643 26.814 31.5426 26.7442 31.7287C26.4574 32.5426 26.3178 33.3876 26.3178 34.2558C26.3178 34.4884 26.3256 34.7132 26.3488 34.938H18.2713C19.0698 34.1705 19.5659 33.1008 19.5659 31.907V31.186H22.7287C23.0465 31.186 23.3101 30.9225 23.3101 30.6047C23.3101 30.2868 23.0465 30.0233 22.7287 30.0233H18.9845C18.6667 30.0233 18.4031 30.2868 18.4031 30.6047V31.8992C18.4031 33.5736 17.0465 34.9302 15.3876 34.9302H12.4419L12.4341 6.31783ZM9.37984 38.0078V30.0543C9.37984 29.7364 9.11628 29.4729 8.79845 29.4729C8.48062 29.4729 8.21705 29.7364 8.21705 30.0543V38.1938C8.21705 38.7287 8.65116 39.1628 9.18605 39.1628H24.4419V41.0698H6.31783V12.4574H8.21705V27.5969C8.21705 27.9147 8.48062 28.1783 8.79845 28.1783C9.11628 28.1783 9.37984 27.9147 9.37984 27.5969V9.3876H11.2791V35.5116C11.2791 35.8295 11.5426 36.093 11.8605 36.093H26.5504C26.7209 36.7674 26.9767 37.4109 27.3178 38L9.37984 38.0078ZM43.4031 43.4031C43 43.8062 42.3178 43.7597 41.8992 43.3256L38.5194 40.2946C39.0388 39.8915 39.5194 39.4109 39.9225 38.8915L43.3566 41.9457C43.7519 42.3333 43.7985 43.0233 43.4031 43.4031Z" fill="#536B76"/>
<path d="M25.2015 16.9535H31.341C31.9611 16.9535 32.465 16.4496 32.465 15.8294V9.66666C32.465 9.0465 31.9611 8.54262 31.341 8.54262H25.2015C24.5813 8.54262 24.0774 9.0465 24.0774 9.66666V11.124C24.0774 11.5271 24.4108 11.8605 24.8139 11.8605C25.217 11.8605 25.5503 11.5271 25.5503 11.124V10.0155H30.9922V15.4806H25.5503V13.9225C25.5503 13.5194 25.217 13.186 24.8139 13.186C24.4108 13.186 24.0774 13.5194 24.0774 13.9225V15.8294C24.0774 16.4496 24.5813 16.9535 25.2015 16.9535Z" fill="#536B76"/>
<path d="M14.3722 16.0078H22.2947C22.6978 16.0078 23.0311 15.6744 23.0311 15.2713C23.0311 14.8682 22.6978 14.5349 22.2947 14.5349H14.3722C13.9691 14.5349 13.6358 14.8682 13.6358 15.2713C13.6358 15.6744 13.9691 16.0078 14.3722 16.0078Z" fill="#536B76"/>
<path d="M19.0545 19.4574C18.6514 19.4574 18.318 19.7907 18.318 20.1938C18.318 20.5969 18.6514 20.9302 19.0545 20.9302H27.0467C27.4498 20.9302 27.7832 20.5969 27.7832 20.1938C27.7832 19.7907 27.4498 19.4574 27.0467 19.4574H19.0545Z" fill="#536B76"/>
<path d="M14.3722 13.4806H22.2947C22.6978 13.4806 23.0311 13.1473 23.0311 12.7442C23.0311 12.3411 22.6978 12.0078 22.2947 12.0078H14.3722C13.9691 12.0078 13.6358 12.3411 13.6358 12.7442C13.6435 13.155 13.9691 13.4806 14.3722 13.4806Z" fill="#536B76"/>
<path d="M14.3722 10.9535H22.2947C22.6978 10.9535 23.0311 10.6202 23.0311 10.2171C23.0311 9.81396 22.6978 9.48063 22.2947 9.48063H14.3722C13.9691 9.48063 13.6358 9.81396 13.6358 10.2171C13.6358 10.6202 13.9691 10.9535 14.3722 10.9535Z" fill="#536B76"/>
<path d="M26.3024 25.8915H14.3722C13.9691 25.8915 13.6358 26.2248 13.6358 26.6279C13.6358 27.031 13.9691 27.3643 14.3722 27.3643H26.3024C26.7055 27.3643 27.0389 27.031 27.0389 26.6279C27.0389 26.2248 26.7055 25.8915 26.3024 25.8915Z" fill="#536B76"/>
<path d="M14.3722 24.1085H23.8063C24.2094 24.1085 24.5427 23.7752 24.5427 23.3721C24.5427 22.969 24.2094 22.6357 23.8063 22.6357H14.3722C13.9691 22.6357 13.6358 22.969 13.6358 23.3721C13.6435 23.7752 13.9691 24.1085 14.3722 24.1085Z" fill="#536B76"/>
<path d="M32.5037 23.3721C32.5037 22.969 32.1704 22.6357 31.7673 22.6357H26.3332C25.9301 22.6357 25.5967 22.969 25.5967 23.3721C25.5967 23.7752 25.9301 24.1085 26.3332 24.1085H31.7673C32.1704 24.1085 32.5037 23.7752 32.5037 23.3721Z" fill="#536B76"/>
<path d="M44.2713 41.0078C44.2636 41 44.2558 40.9922 44.2481 40.9845L40.7597 37.8837C41.3023 36.8605 41.6124 35.7054 41.6512 34.5349C41.6667 34.1318 41.3488 33.7907 40.938 33.7752H40.9147C40.5116 33.7752 40.1938 34.0853 40.1783 34.4884C40.093 37.8295 37.3101 40.5504 33.9767 40.5504H33.9147C30.4574 40.5504 27.6434 37.7287 27.6434 34.2558C27.6202 32.6512 28.2791 31.0465 29.4574 29.845C30.6357 28.6512 32.2248 27.9612 33.8295 27.9612C33.8605 27.9612 33.8837 27.9612 33.9147 27.9612C36.5581 27.9612 38.938 29.6434 39.8217 32.1395C39.9225 32.4341 40.2015 32.6279 40.5116 32.6279C40.5969 32.6279 40.6822 32.6124 40.7597 32.5814C41.1395 32.4419 41.3411 32.0233 41.2093 31.6434C40.2481 28.9457 37.8139 26.9612 34.9845 26.5659V6.12403C34.9845 5.50388 34.4806 5 33.8605 5H12.2403C11.6279 5 11.124 5.50388 11.124 6.12403V8.06977H9.18605C8.56589 8.06977 8.06202 8.57364 8.06202 9.1938V11.1395H6.12403C5.50388 11.1473 5 11.6512 5 12.2636V41.2713C5 41.8915 5.50388 42.3954 6.12403 42.3954H24.6357C25.2558 42.3954 25.7597 41.8915 25.7597 41.2713V39.3256H28.062C29.5349 41.0388 31.6667 42.0155 33.9147 42.0155C35.1628 42.0155 36.3953 41.7132 37.4884 41.1395L41.0077 44.2946C41.4651 44.7519 42.0698 45 42.7132 45C43.3256 45 43.8992 44.7674 44.3256 44.3411C44.7597 43.9302 44.9922 43.3488 44.9922 42.7132C44.9922 42.062 44.7287 41.4341 44.2713 41.0078ZM9.52713 37.8527V30.0543C9.52713 29.6512 9.1938 29.3178 8.7907 29.3178C8.3876 29.3178 8.05426 29.6512 8.05426 30.0543V38.1938C8.05426 38.814 8.55814 39.3178 9.17829 39.3178H24.2868V40.9225H6.47287V12.6124H8.06202V27.5969C8.06202 28 8.39535 28.3333 8.79845 28.3333C9.20155 28.3333 9.53488 28 9.53488 27.5969V9.54264H11.124V35.5116C11.124 35.9147 11.4574 36.2481 11.8605 36.2481H26.4419C26.5891 36.8062 26.7984 37.3411 27.062 37.8527H9.52713ZM25.2481 29.8605C24.845 29.8605 24.5116 30.1938 24.5116 30.5969C24.5116 31 24.845 31.3333 25.2481 31.3333H26.7364C26.6899 31.4496 26.6512 31.5581 26.6124 31.6744C26.3256 32.5039 26.1783 33.3721 26.1783 34.2558C26.1783 34.4264 26.186 34.6047 26.1938 34.7829H18.6357C19.3411 33.9845 19.7287 32.9767 19.7287 31.907V31.3411H22.7364C23.1395 31.3411 23.4729 31.0078 23.4729 30.6047C23.4729 30.2015 23.1395 29.8682 22.7364 29.8682H18.9922C18.5891 29.8682 18.2558 30.2015 18.2558 30.6047V31.8992C18.2558 33.4884 16.969 34.7752 15.3876 34.7752H12.5969V6.47287H33.5194V26.5039C31.1163 26.6279 28.8992 27.876 27.5349 29.8682H25.2481V29.8605ZM43.2946 43.2946C43.1473 43.4419 42.938 43.5271 42.7132 43.5271C42.4496 43.5271 42.1938 43.4186 42.0155 43.2171L42.0077 43.2093L38.7597 40.3023C39.1938 39.9535 39.5969 39.5504 39.9457 39.1163L43.2558 42.062C43.4264 42.2326 43.5271 42.4729 43.5271 42.7209C43.5271 42.9457 43.4419 43.1473 43.2946 43.2946Z" fill="#536B76"/>
<path d="M33.9149 29.124C33.8916 29.124 33.8684 29.124 33.8451 29.124C32.535 29.124 31.2405 29.6822 30.2792 30.6589C29.318 31.6357 28.7831 32.9457 28.7986 34.2481C28.7986 37.0698 31.0932 39.3721 33.9071 39.3721C36.7211 39.3721 39.0156 37.0775 39.0156 34.2481C39.0234 31.4264 36.7288 29.124 33.9149 29.124ZM33.9149 37.907C31.9071 37.907 30.2792 36.2713 30.2792 34.2558C30.2637 33.3256 30.6513 32.3953 31.3335 31.6977C32.0157 31 32.9381 30.6047 33.8684 30.6047H33.9149C35.9226 30.6047 37.5505 32.2403 37.5505 34.2558C37.5505 36.2636 35.9226 37.907 33.9149 37.907Z" fill="#536B76"/>
<path d="M33.9145 29.2791C31.2324 29.2403 28.9145 31.5659 28.9611 34.2481C28.9611 36.9845 31.1859 39.2171 33.9145 39.2171C36.651 39.2171 38.868 36.9845 38.868 34.2481C38.868 31.5116 36.6432 29.2791 33.9145 29.2791ZM33.9145 38.0543C31.8215 38.0543 30.1239 36.3488 30.1239 34.2481C30.0928 32.1938 31.8603 30.4109 33.9145 30.4419C36.0076 30.4419 37.7052 32.1473 37.7052 34.2481C37.7052 36.3488 36.0076 38.0543 33.9145 38.0543Z" fill="#536B76"/>
</svg>
