<svg width="38" height="38" fill="none" xmlns="http://www.w3.org/2000/svg"><rect width="100%" height="100%"/><defs><clipPath id="a"><path fill="#fff" d="M0 0h37.99v38H0z"/></clipPath></defs><g class="currentLayer"><g clip-path="url(#a)" class="selected" fill="#fff"><path d="M19.2 11.2h5.82c.51 0 .92-.4.92-.91V4.43c0-.5-.4-.92-.92-.92H19.2c-.5 0-.92.42-.92.92v1.39c0 .3.25.55.55.55.3 0 .56-.25.56-.55v-1.2h5.46v5.48h-5.46V8.48c0-.3-.25-.56-.56-.56-.3 0-.55.25-.55.56v1.8c0 .52.41.93.92.93zM8.9 10.32h7.53c.3 0 .55-.25.55-.55 0-.3-.25-.56-.55-.56H8.9a.56.56 0 000 1.1zM21.5 14.43c0-.3-.25-.55-.56-.55h-7.59c-.3 0-.55.25-.55.55 0 .3.25.56.55.56h7.6c.3 0 .55-.25.55-.56zM8.9 7.9h7.53c.3 0 .55-.24.55-.54 0-.3-.25-.56-.55-.56H8.9c-.3 0-.55.26-.55.56 0 .3.25.55.55.55zM8.9 5.5h7.53c.3 0 .55-.24.55-.54 0-.3-.25-.56-.55-.56H8.9a.56.56 0 000 1.1zM8.9 21.1h11.34c.3 0 .55-.25.55-.55 0-.3-.25-.56-.55-.56H8.9a.56.56 0 000 1.1zM8.9 18h8.97c.3 0 .55-.24.55-.55 0-.3-.25-.55-.55-.55H8.9c-.3 0-.55.25-.55.55 0 .3.25.56.55.56zM25.43 16.9h-5.16c-.3 0-.56.25-.56.55 0 .3.25.56.56.56h5.16a.56.56 0 000-1.1z"/><path d="M37.2 34.31l-.02-.02-3.4-3.03c.54-.98.85-2.08.88-3.22.01-.3-.22-.56-.53-.57-.3 0-.56.23-.57.53a6.1 6.1 0 01-12.2-.23 6.15 6.15 0 016.1-6.13 6.12 6.12 0 015.75 4.07c.1.29.42.43.71.34.29-.1.43-.42.34-.7a7.24 7.24 0 00-5.92-4.76V1.07c0-.51-.41-.92-.92-.92H6.88c-.51 0-.92.41-.92.92v2H3.98c-.51 0-.92.4-.92.91v2h-2c-.5 0-.91.41-.91.92v27.56c0 .5.41.92.92.92h17.58c.51 0 .92-.41.92-.92v-2h2.4a7.2 7.2 0 008.92 1.7l3.42 3.07a2.1 2.1 0 002.95.04 2.1 2.1 0 00-.06-2.96zM7.06 1.25h20.17v19.32a7.22 7.22 0 00-5.76 3.2h-2.24c-.3 0-.55.25-.55.55 0 .3.25.56.55.56h1.63l-.2.51a7.18 7.18 0 00-.38 3.05h-7.67a3.97 3.97 0 001.23-2.88v-.68h3a.56.56 0 000-1.1H13.3c-.3 0-.56.24-.56.54v1.23c0 1.6-1.29 2.88-2.86 2.88h-2.8V1.25zm-2.9 30.1V23.8c0-.3-.25-.55-.55-.55-.3 0-.55.25-.55.55v7.73c0 .51.4.92.92.92h14.49v1.82H1.25V7.08h1.8v14.39c0 .3.26.55.56.55.3 0 .55-.25.55-.55V4.17h1.8v24.82c0 .3.26.55.56.55h13.95c.17.64.4 1.25.73 1.81H4.16zm32.32 5.13c-.38.39-1.03.34-1.43-.07l-3.2-2.88c.49-.38.94-.84 1.33-1.33l3.26 2.9c.37.37.42 1.02.04 1.38z"/><path d="M19.2 11.36h5.82c.6 0 1.07-.48 1.07-1.07V4.43c0-.59-.48-1.06-1.07-1.06H19.2c-.59 0-1.07.47-1.07 1.06v1.39c0 .38.32.7.7.7a.7.7 0 00.7-.7V4.76h5.17v5.2h-5.17V8.48a.7.7 0 00-.7-.7.7.7 0 00-.7.7v1.8c0 .6.48 1.08 1.07 1.08zM8.9 10.46h7.53a.7.7 0 00.7-.7.7.7 0 00-.7-.7H8.9a.7.7 0 00-.7.7c0 .38.32.7.7.7zM13.35 13.73a.7.7 0 00-.7.7c0 .39.32.7.7.7h7.6a.7.7 0 00.7-.7.7.7 0 00-.7-.7h-7.6zM8.9 8.06h7.53a.7.7 0 00.7-.7.7.7 0 00-.7-.7H8.9a.7.7 0 00-.7.7c.01.39.32.7.7.7zM8.9 5.66h7.53a.7.7 0 00.7-.7.7.7 0 00-.7-.7H8.9a.7.7 0 00-.7.7c0 .38.32.7.7.7zM20.24 19.85H8.9a.7.7 0 00-.7.7c0 .38.32.7.7.7h11.34a.7.7 0 00.7-.7.7.7 0 00-.7-.7zM8.9 18.15h8.97a.7.7 0 00.7-.7.7.7 0 00-.7-.7H8.9a.7.7 0 00-.7.7c.01.39.32.7.7.7zM26.13 17.45a.7.7 0 00-.7-.7h-5.16a.7.7 0 00-.7.7c0 .39.31.7.7.7h5.16a.7.7 0 00.7-.7z"/><path d="M37.3 34.2l-.01-.01-3.32-2.95c.52-.97.81-2.07.85-3.18a.7.7 0 00-.68-.72h-.02a.7.7 0 00-.7.67 5.94 5.94 0 01-5.9 5.76h-.05a5.97 5.97 0 01-.08-11.96h.08c2.51 0 4.77 1.6 5.61 3.97a.7.7 0 00.9.42.7.7 0 00.42-.89 7.42 7.42 0 00-5.91-4.82V1.07C28.49.47 28 0 27.42 0H6.88C6.3 0 5.82.48 5.82 1.07v1.85H3.98c-.6 0-1.07.47-1.07 1.06v1.85H1.07C.47 5.84 0 6.32 0 6.9v27.56c0 .59.48 1.07 1.07 1.07h17.58c.6 0 1.07-.48 1.07-1.07V32.6h2.19a7.32 7.32 0 008.95 1.72l3.35 3c.43.43 1 .67 1.62.67a2.15 2.15 0 002.16-2.17c0-.62-.25-1.22-.68-1.62zm-33-2.99v-7.4a.7.7 0 00-.7-.7.7.7 0 00-.7.7v7.72c0 .6.48 1.07 1.07 1.07h14.35v1.53H1.4V7.23h1.5v14.24c0 .38.33.7.7.7a.7.7 0 00.7-.7V4.32h1.52v24.67c0 .38.31.7.7.7h13.85c.14.53.34 1.03.59 1.52H4.3zm14.94-7.6a.7.7 0 00-.7.7c0 .39.31.7.7.7h1.41l-.12.33a7.49 7.49 0 00-.4 2.95h-7.18A4.1 4.1 0 0014 25.56v-.54h2.86a.7.7 0 00.7-.7.7.7 0 00-.7-.7h-3.56a.7.7 0 00-.7.7v1.23a2.73 2.73 0 01-2.72 2.74H7.22V1.39h19.87v19.04a7.36 7.36 0 00-5.68 3.2h-2.17v-.01zm17.14 12.77a.78.78 0 01-.55.22c-.25 0-.5-.1-.67-.3l-3.09-2.76c.41-.33.8-.72 1.13-1.13l3.14 2.8a.9.9 0 01.26.62c0 .22-.08.41-.22.55z"/><path d="M27.47 22.92h-.07a4.8 4.8 0 00-3.38 1.46 4.87 4.87 0 003.45 8.28 4.87 4.87 0 000-9.74zm0 8.34a3.46 3.46 0 01-2.45-5.9 3.4 3.4 0 012.4-1.04h.05a3.46 3.46 0 010 6.94z"/><path d="M27.47 23.07a4.73 4.73 0 000 9.44 4.72 4.72 0 000-9.44zm0 8.33a3.61 3.61 0 11.02-7.22 3.61 3.61 0 01-.02 7.22z"/></g></g></svg>