<svg width="28" height="17" fill="none" xmlns="http://www.w3.org/2000/svg"><path d="M2.26 13.45c-3.05-2.63-2.98-8.16 0-10.8 1.07.75 1.76 1.93 2.87 2.64a4.4 4.4 0 000 5.53c-1.1.71-1.8 1.88-2.87 2.63zM14 13.84a7.47 7.47 0 01-2.42-6.94c.51-3.35 2.44-5.64 5.64-6.54 2.93-.83 5.67-.25 7.85 2.1-1 .85-1.95 1.78-2.77 2.81-1.2-.98-2.53-1.43-4.03-.95-2.75.89-3.48 3.74-1.7 6.5-.28.33-.57.63-.83.96-.56.7-1.46 1.12-1.75 2.06z" fill="#FF8A00"/><path d="M22.3 5.27a20.62 20.62 0 012.77-2.81 8 8 0 010 11.25 7.85 7.85 0 01-11.08.13c.3-.93 1.19-1.35 1.75-2.06.26-.33.55-.63.82-.95 1.2 1.06 2.57 1.46 4.11.96 2.74-.9 3.48-3.93 1.63-6.52zM5.13 5.29c-1.1-.71-1.8-1.89-2.87-2.63a7.78 7.78 0 019.67-1.56c.64.37.82.7.33 1.3-.18.21-.3.48-.45.72-.34.55-.58 1.23-1.06 1.59-.55.4-1.02-.4-1.6-.51a4.4 4.4 0 00-4.02 1.09zM2.26 13.45c1.07-.75 1.76-1.92 2.86-2.63 1.57 1.33 3.26 1.65 5.08.58.38-.23.58-.1.77.22.44.73.86 1.48 1.35 2.17.39.56.25.83-.29 1.16a7.79 7.79 0 01-9.77-1.5z" fill="#FF8A00"/></svg>