<svg width="31" height="31" fill="none" xmlns="http://www.w3.org/2000/svg"><path d="M22.28 26.66a1.5 1.5 0 00-.06-.1l-.07-.09a.52.52 0 00-.08-.07.32.32 0 00-.1-.05.35.35 0 00-.11-.04.5.5 0 00-.23 0 .4.4 0 00-.11.04l-.1.05-.1.07a.53.53 0 00-.06.1.33.33 0 00-.05.1.37.37 0 00-.04.1l-.01.13.01.12a1.53 1.53 0 00.09.22l.07.08.04.04.05.04.1.05.1.04a.7.7 0 00.12.01l.12-.01a.4.4 0 00.11-.04l.1-.05.05-.04a.14.14 0 00.04-.04.47.47 0 00.07-.09.33.33 0 00.05-.1.36.36 0 00.04-.11l.01-.12-.01-.12-.04-.12zM11.98 3.47l.05.1.08.1.08.07.1.05.11.04a.7.7 0 00.12 0 .7.7 0 00.1 0 .4.4 0 00.12-.04l.1-.05a.53.53 0 00.16-.16.42.42 0 00.05-.1l.03-.12.02-.12-.02-.12a.42.42 0 00-.03-.11L13 2.9l-.07-.1a.52.52 0 00-.1-.07.32.32 0 00-.1-.05l-.1-.04a.5.5 0 00-.23 0 .4.4 0 00-.11.04l-.1.05a.57.57 0 00-.17.16.33.33 0 00-.05.1 2.8 2.8 0 00-.03.12l-.02.12.02.12c0 .04.02.08.04.11z" fill="#0098DA"/><path d="M26.72 2.65A3.4 3.4 0 0023.44 0H5.06A5.12 5.12 0 000 5.16v18.76a3.41 3.41 0 003.28 3.44A3.4 3.4 0 006.56 30h20.08A3.4 3.4 0 0030 26.57V6.07a3.41 3.41 0 00-3.29-3.42zm2.1 23.91c0 1.24-.98 2.24-2.19 2.24H6.55a2.21 2.21 0 01-2.2-2.24V23.4l6.72-11.64a1.1 1.1 0 011.93.03l7.1 13.3a.58.58 0 00.8.25.6.6 0 00.23-.82l-1.37-2.55c.6.03 1.2-.17 1.66-.57l2.64-2.23a1.1 1.1 0 011.45.03l.14.14 1.17 1.09 2 1.88v4.25zm0-5.87l-2-1.88-1.17-.9a2.24 2.24 0 00-2.34.34l-2.64 2.23a1.25 1.25 0 01-1.9-.38l-1.85-3.45-1.04-1.94-1.86-3.48a2.26 2.26 0 00-3.96-.08l-5.7 9.89V6.08c0-1.24.98-2.24 2.2-2.24h3.61a.6.6 0 00.59-.6.6.6 0 00-.59-.6H6.55a3.4 3.4 0 00-3.37 3.44v20.07a2.22 2.22 0 01-2-2.23V5.16A3.94 3.94 0 015.05 1.2h18.39c.94 0 1.74.6 2.06 1.44H14.86a.6.6 0 00-.59.6c0 .33.27.6.59.6H26.82a2.23 2.23 0 012 2.24v14.61z" fill="#0098DA"/><path d="M21.95 14.4c2.62 0 4.84-2.4 5.67-3.43.36-.45.36-1.09 0-1.54C26.8 8.4 24.57 6 21.95 6c-2.63 0-4.85 2.4-5.68 3.43a1.22 1.22 0 000 1.54c.83 1.03 3.05 3.43 5.68 3.43zm5.13-4.52c.16.19.16.46 0 .65-.37.46-.77.89-1.21 1.3.37-1.06.37-2.2 0-3.25.44.4.84.83 1.21 1.3zM24.4 7.46a4.12 4.12 0 010 5.48c-.73.47-1.58.73-2.45.76a4.82 4.82 0 01-2.46-.76 4.12 4.12 0 010-5.47 4.84 4.84 0 012.46-.76c.87.02 1.72.28 2.45.75zm-7.59 2.42c.37-.46.78-.9 1.21-1.3a4.85 4.85 0 000 3.24c-.43-.4-.84-.83-1.2-1.3a.52.52 0 010-.64z" fill="#0098DA"/><path d="M21.95 12.3a2.1 2.1 0 100-4.2 2.1 2.1 0 000 4.2zm0-3.5a1.4 1.4 0 010 2.8 1.4 1.4 0 010-2.8z" fill="#0098DA"/></svg>