<?xml version="1.0" encoding="utf-8"?>
<!-- Generator: Adobe Illustrator 22.0.1, SVG Export Plug-In . SVG Version: 6.00 Build 0)  -->
<svg version="1.1" id="Слой_1" xmlns="http://www.w3.org/2000/svg" xmlns:xlink="http://www.w3.org/1999/xlink" x="0px" y="0px"
	 viewBox="0 0 36 30" style="enable-background:new 0 0 36 30;" xml:space="preserve">
<style type="text/css">
	.st0{fill:#ffffff;}
</style>
<g>
	<path class="st0" d="M9.9,11.8c-2,0-3.6-1.8-4.2-2.5C5.5,9.2,5.4,8.9,5.4,8.7c0-0.2,0.1-0.5,0.2-0.6C6.3,7.2,8,5.6,9.9,5.6
		c2.1,0,3.9,2.1,4.2,2.5c0.2,0.2,0.2,0.4,0.2,0.6s-0.1,0.5-0.2,0.6C13.5,10,11.8,11.8,9.9,11.8z M9.8,6.2C9.3,6.3,8.6,6.4,8,6.8
		c-1,1.1-1,2.7,0,3.9c0.6,0.4,1.2,0.5,1.7,0.5c0.5-0.1,1.2-0.2,1.8-0.6c1-1.1,1-2.7,0-3.9C11.1,6.4,10.4,6.2,9.8,6.2z M12.9,7.9
		c0.1,0.5,0.2,1.1,0,1.7c0.2-0.2,0.4-0.4,0.6-0.6c0.1-0.1,0.1-0.3,0-0.4C13.3,8.3,13.1,8.1,12.9,7.9z M6.7,7.9
		C6.6,8.1,6.4,8.3,6.2,8.5c-0.1,0.1,0,0.3,0,0.3c0.2,0.2,0.4,0.5,0.6,0.7C6.6,9,6.6,8.4,6.7,7.9z"/>
	<path class="st0" d="M9.9,11.8c-2,0-3.6-1.7-4.2-2.5C5.4,9,5.4,8.4,5.7,8.1C6.3,7.3,8,5.7,9.9,5.7c2.1,0,3.8,2.1,4.2,2.5
		c0.1,0.1,0.2,0.4,0.2,0.6c0,0.2-0.1,0.4-0.2,0.6C13.4,10,11.8,11.8,9.9,11.8z M9.8,6.2C9.3,6.2,8.6,6.3,8,6.7c-1,1.1-1,2.8,0,3.9
		c0.6,0.4,1.2,0.6,1.8,0.6c0.5-0.1,1.2-0.2,1.8-0.6c1-1.1,1-2.8,0-3.9C11.1,6.4,10.4,6.2,9.8,6.2z M12.8,7.7c0.2,0.6,0.2,1.4,0,2
		c0.2-0.2,0.5-0.5,0.7-0.8c0.1-0.1,0.1-0.3,0-0.5C13.3,8.2,13.1,7.9,12.8,7.7z M6.9,7.7C6.6,7.9,6.4,8.2,6.1,8.5
		c-0.1,0.1-0.1,0.3,0,0.4c0.2,0.3,0.5,0.6,0.7,0.8C6.6,9,6.6,8.4,6.9,7.7z"/>
	<path class="st0" d="M9.9,10.3c-0.9,0-1.6-0.7-1.6-1.6C8.2,7.8,9,7,9.9,7c0.9,0,1.6,0.8,1.6,1.6C11.5,9.6,10.8,10.3,9.9,10.3z
		 M9.9,7.8c-0.5,0-0.9,0.4-0.9,0.9s0.4,0.9,0.9,0.9s0.9-0.4,0.9-0.9S10.4,7.8,9.9,7.8z"/>
	<path class="st0" d="M9.9,10.2c-0.9,0-1.6-0.7-1.6-1.6c0-0.9,0.7-1.6,1.6-1.6c0.8,0,1.6,0.7,1.6,1.6C11.4,9.6,10.8,10.2,9.9,10.2z
		 M9.9,7.7c-0.6,0-1,0.4-1,1c0,0.6,0.4,1,1,1c0.6,0,1-0.4,1-1C10.8,8.1,10.4,7.7,9.9,7.7z"/>
</g>
<path class="st0" d="M17.8,17.3c-0.4,0-0.7-0.4-0.7-0.7v-5.2H15c-0.4,0-0.7-0.4-0.7-0.7c0-0.4,0.4-0.6,0.7-0.6h5.5
	c0.4,0,0.7,0.4,0.7,0.7c0,0.4-0.4,0.6-0.7,0.6h-2.1v5.2C18.4,16.9,18.1,17.3,17.8,17.3z"/>
<path class="st0" d="M28.2,11.3h-5c-0.4,0-0.7-0.4-0.7-0.7c0-0.4,0.4-0.7,0.7-0.7h5c0.4,0,0.7,0.4,0.7,0.7
	C29,11,28.7,11.3,28.2,11.3z"/>
<path class="st0" d="M28.4,14.2h-5c-0.4,0-0.7-0.4-0.7-0.7c0-0.4,0.4-0.7,0.7-0.7h5c0.4,0,0.7,0.4,0.7,0.7
	C29.1,14,28.7,14.2,28.4,14.2z"/>
<path class="st0" d="M28.4,17.3h-5c-0.4,0-0.7-0.4-0.7-0.7s0.4-0.7,0.7-0.7h5c0.4,0,0.7,0.4,0.7,0.7S28.7,17.3,28.4,17.3z"/>
<path class="st0" d="M32.9,6.8l-5.7-6c-0.1-0.1-0.4-0.2-0.6-0.2H10.2C9.7,0.6,9.4,1,9.4,1.5v2.4c0,0.5,0.4,0.9,0.9,0.9h0
	c0.5,0,0.9-0.4,0.9-0.9V2.3h15.2l5.2,5.5v20.5H11.1V14.2c0-0.5-0.4-0.9-0.9-0.9h0c-0.5,0-0.9,0.4-0.9,0.9v14.9
	c0,0.5,0.4,0.9,0.9,0.9h22.1c0.5,0,0.9-0.4,0.9-0.9V7.4C33.2,7.2,33.1,6.9,32.9,6.8z"/>
<g>
	<path class="st0" d="M14.2,19.2c-0.4,0-0.7,0.4-0.7,0.7s0.4,0.7,0.7,0.7h14.3c0.4,0,0.7-0.3,0.7-0.7l0,0c0-0.4-0.3-0.7-0.7-0.7
		H14.2z"/>
	<path class="st0" d="M14.9,5.6c-0.4,0-0.7,0.4-0.7,0.7S14.6,7,14.9,7h12.3C27.6,7,28,6.7,28,6.3v0c0-0.4-0.3-0.7-0.7-0.7H14.9z"/>
	<path class="st0" d="M14.1,22.3c-0.4,0-0.7,0.4-0.7,0.7c0,0.4,0.4,0.7,0.7,0.7h14.4c0.4,0,0.7-0.3,0.7-0.7l0,0
		c0-0.4-0.3-0.7-0.7-0.7H14.1z"/>
	<path class="st0" d="M14.1,25.2c-0.4,0-0.7,0.4-0.7,0.7s0.4,0.7,0.7,0.7h14.4c0.4,0,0.7-0.3,0.7-0.7l0,0c0-0.4-0.3-0.7-0.7-0.7
		H14.1z"/>
</g>
</svg>
