<?xml version="1.0" encoding="utf-8"?>
<!-- Generator: Adobe Illustrator 22.0.1, SVG Export Plug-In . SVG Version: 6.00 Build 0)  -->
<svg version="1.1" id="Слой_1" xmlns="http://www.w3.org/2000/svg" xmlns:xlink="http://www.w3.org/1999/xlink" x="0px" y="0px"
	 viewBox="0 0 36 30" style="enable-background:new 0 0 36 30;" xml:space="preserve">
<style type="text/css">
	.st0{fill:#0098DA;}
</style>
<path class="st0" d="M9,6.1C8.8,6.1,8.6,6,8.6,5.8S8.8,5.4,9,5.4c0.2,0,0.4,0.2,0.4,0.4S9.2,6.1,9,6.1z"/>
<path class="st0" d="M9,8C8.8,8,8.6,7.9,8.6,7.6V6.7c0-0.2,0.2-0.4,0.4-0.4s0.4,0.2,0.4,0.4v0.9C9.4,7.9,9.2,8,9,8z"/>
<path class="st0" d="M17.3,29.4c-1.3,0-2.4-0.9-2.7-2.1c-1.5-0.3-2.9-0.9-4.1-1.7C10.1,25.9,9.6,26,9,26c-1.5,0-2.8-1.2-2.8-2.8
	c0-0.6,0.2-1.2,0.5-1.6c-0.7-1.2-1.2-2.5-1.5-3.9C4,17.6,2.9,16.4,2.9,15c0-1.5,1.2-2.7,2.7-2.7C5.9,11,6.4,9.8,7.2,8.7
	C6.6,8.3,6.3,7.5,6.3,6.8C6.3,5.3,7.5,4,9,4c0.8,0,1.6,0.4,2.1,1c1-0.7,2.2-1.1,3.5-1.4c-0.1,0-0.1-0.1-0.1-0.2
	c0-1.5,1.2-2.7,2.7-2.8c1.5,0,2.7,1.2,2.7,2.8c0,0.1,0,0.2,0,0.3c1.2,0.2,2.4,0.7,3.5,1.3c0.5-0.6,1.2-1,2-1c1.5,0,2.7,1.2,2.7,2.8
	c0,0.8-0.3,1.5-0.9,2c0.8,1,1.3,2.2,1.6,3.5c0,0,0,0,0,0c1.4,0,2.6,1.2,2.6,2.7c0,1.4-1.1,2.6-2.5,2.7c-0.2,1.4-0.7,2.7-1.5,3.9
	c0.4,0.4,0.5,1,0.5,1.6c0,1.5-1.2,2.7-2.7,2.7c-0.5,0-1.1-0.2-1.5-0.5c-1.2,0.9-2.6,1.5-4.1,1.8C19.7,28.6,18.6,29.4,17.3,29.4z
	 M17.3,25c-1,0-1.7,0.8-1.7,1.7c0,1,0.8,1.7,1.7,1.7s1.7-0.8,1.7-1.7C19,25.7,18.2,25,17.3,25L17.3,25z M17.3,23.9
	c1.4,0,2.6,1,2.7,2.4c1.1-0.3,2.3-0.8,3.3-1.5c-0.4-0.4-0.6-1-0.6-1.6c0-1.5,1.2-2.7,2.7-2.8c0.5,0,1.1,0.2,1.5,0.5
	c0.5-1,0.9-2.2,1.2-3.4c-1.2-0.2-2-1.3-2-2.6c0-1.2,0.8-2.2,1.9-2.6c-0.4-1.1-0.8-2.2-1.5-3.1c-0.3,0.2-0.7,0.3-1,0.3
	c-1.5,0-2.7-1.2-2.7-2.7c0-0.3,0.1-0.6,0.2-1c-1-0.5-2.1-1-3.3-1.2c-0.4,0.9-1.4,1.5-2.4,1.5s-2-0.6-2.5-1.6
	c-1.1,0.3-2.2,0.7-3.2,1.3c0.1,0.2,0.2,0.6,0.2,0.9c0,1.5-1.2,2.7-2.7,2.7c-0.4,0-0.8-0.1-1.1-0.2c-0.6,1-1.1,2.1-1.4,3.2
	c0.4,0.1,0.7,0.3,1,0.6c0.5,0.5,0.8,1.2,0.8,1.9c0,0.7-0.3,1.4-0.8,1.9c-0.3,0.3-0.8,0.6-1.3,0.7C6.6,18.8,7,20,7.6,21
	C8,20.7,8.5,20.5,9,20.5c1.5,0,2.7,1.2,2.7,2.8c0,0.6-0.2,1.2-0.6,1.6c1,0.6,2.2,1.1,3.4,1.4C14.7,25,15.9,23.9,17.3,23.9L17.3,23.9
	z M25.5,21.5c-1,0-1.7,0.8-1.7,1.7c0,1,0.8,1.7,1.7,1.7s1.7-0.8,1.7-1.7S26.5,21.5,25.5,21.5L25.5,21.5z M9,21.5
	c-1,0-1.7,0.8-1.7,1.7c0,1,0.8,1.7,1.7,1.7c1,0,1.7-0.8,1.7-1.7S10,21.5,9,21.5L9,21.5z M5.6,13.3c-1,0-1.7,0.8-1.7,1.7
	c0,1,0.8,1.7,1.7,1.7c0.5,0,0.9-0.2,1.2-0.5c0.3-0.3,0.5-0.8,0.5-1.2c0-0.5-0.2-0.9-0.5-1.2C6.5,13.5,6.1,13.3,5.6,13.3L5.6,13.3z
	 M28.9,13.3c-1,0-1.7,0.8-1.7,1.7c0,0.9,0.7,1.7,1.6,1.7c0,0,0.1,0,0.1,0c1,0,1.8-0.8,1.8-1.7C30.7,14.1,29.9,13.3,28.9,13.3z
	 M25.5,5c-1,0-1.7,0.8-1.7,1.7c0,1,0.8,1.7,1.7,1.7c1,0,1.7-0.8,1.7-1.7C27.3,5.8,26.5,5,25.5,5L25.5,5z M9,5c-1,0-1.7,0.8-1.7,1.7
	S8.1,8.5,9,8.5s1.7-0.8,1.7-1.7C10.8,5.8,10,5,9,5L9,5z M17.3,1.6c-1,0-1.7,0.8-1.7,1.7s0.8,1.7,1.7,1.7S19,4.3,19,3.4
	C19,2.4,18.2,1.6,17.3,1.6L17.3,1.6z"/>
<path class="st0" d="M17.3,2.9c-0.2,0-0.4-0.2-0.4-0.4s0.2-0.4,0.4-0.4c0.2,0,0.4,0.2,0.4,0.4S17.5,2.9,17.3,2.9z"/>
<path class="st0" d="M17.3,4.8c-0.2,0-0.4-0.2-0.4-0.4V3.5c0-0.2,0.2-0.4,0.4-0.4s0.4,0.2,0.4,0.4v0.9C17.7,4.6,17.6,4.8,17.3,4.8z"
	/>
<path class="st0" d="M25.5,6.1c-0.2,0-0.4-0.2-0.4-0.4s0.2-0.4,0.4-0.4c0.2,0,0.4,0.2,0.4,0.4S25.7,6.1,25.5,6.1z"/>
<path class="st0" d="M25.5,8c-0.2,0-0.4-0.2-0.4-0.4V6.7c0-0.2,0.2-0.4,0.4-0.4s0.4,0.2,0.4,0.4v0.9C25.9,7.9,25.7,8,25.5,8z"/>
<path class="st0" d="M29,14.5c-0.2,0-0.4-0.2-0.4-0.4s0.2-0.4,0.4-0.4c0.2,0,0.4,0.2,0.4,0.4S29.2,14.5,29,14.5z"/>
<path class="st0" d="M29,16.4c-0.2,0-0.4-0.2-0.4-0.4v-0.9c0-0.2,0.2-0.4,0.4-0.4s0.4,0.2,0.4,0.4V16C29.4,16.2,29.2,16.4,29,16.4z"
	/>
<path class="st0" d="M25.5,22.7c-0.2,0-0.4-0.2-0.4-0.4s0.2-0.4,0.4-0.4c0.2,0,0.4,0.2,0.4,0.4S25.7,22.7,25.5,22.7z"/>
<path class="st0" d="M25.5,24.6c-0.2,0-0.4-0.2-0.4-0.4v-0.9c0-0.2,0.2-0.4,0.4-0.4s0.4,0.2,0.4,0.4v0.9
	C25.9,24.4,25.7,24.6,25.5,24.6z"/>
<path class="st0" d="M17.3,26.1c-0.2,0-0.4-0.2-0.4-0.4s0.2-0.4,0.4-0.4c0.2,0,0.4,0.2,0.4,0.4S17.5,26.1,17.3,26.1z"/>
<path class="st0" d="M17.3,27.9c-0.2,0-0.4-0.2-0.4-0.4v-0.9c0-0.2,0.2-0.4,0.4-0.4s0.4,0.2,0.4,0.4v0.9
	C17.7,27.8,17.5,27.9,17.3,27.9z"/>
<path class="st0" d="M9,22.8c-0.2,0-0.4-0.2-0.4-0.4S8.8,22,9,22c0.2,0,0.4,0.2,0.4,0.4S9.2,22.8,9,22.8z"/>
<path class="st0" d="M9,24.7c-0.2,0-0.4-0.2-0.4-0.4v-0.9C8.6,23.2,8.8,23,9,23s0.4,0.2,0.4,0.4v0.9C9.4,24.5,9.2,24.7,9,24.7z"/>
<path class="st0" d="M5.6,14.5c-0.2,0-0.4-0.2-0.4-0.4s0.2-0.4,0.4-0.4c0.2,0,0.4,0.2,0.4,0.4S5.8,14.5,5.6,14.5z"/>
<path class="st0" d="M5.6,16.4c-0.2,0-0.4-0.2-0.4-0.4v-0.9c0-0.2,0.2-0.4,0.4-0.4S6,14.9,6,15.1V16C6,16.2,5.8,16.4,5.6,16.4z"/>
<g>
	<path class="st0" d="M17.3,19.4c-2.7,0-4.9-2.4-5.7-3.4c-0.4-0.4-0.4-1.2,0-1.6c0.9-1.2,3.2-3.4,5.7-3.4c2.9,0,5.3,2.9,5.7,3.4
		c0.2,0.2,0.3,0.5,0.3,0.8c0,0.3-0.1,0.6-0.3,0.8C22.2,17,20,19.4,17.3,19.4z M17.2,11.7c-0.7,0.1-1.7,0.2-2.5,0.8
		c-1.4,1.6-1.4,3.8,0,5.4c0.9,0.5,1.6,0.8,2.5,0.8c0.7-0.1,1.7-0.2,2.5-0.8c1.4-1.6,1.4-3.8,0-5.4C19,12,18.1,11.7,17.2,11.7z
		 M21.3,13.9c0.3,0.9,0.3,1.9,0,2.8c0.3-0.3,0.7-0.7,1-1.1c0.2-0.2,0.2-0.4,0-0.6C22,14.5,21.7,14.1,21.3,13.9z M13.2,13.8
		c-0.3,0.3-0.7,0.7-1,1.1c-0.1,0.2-0.1,0.4,0,0.5c0.3,0.4,0.7,0.8,1,1.1C12.9,15.7,12.9,14.7,13.2,13.8z"/>
	<path class="st0" d="M17.3,17.3c-1.2,0-2.2-0.9-2.2-2.2c0-1.2,1-2.2,2.2-2.2c1.1,0,2.2,1,2.2,2.2C19.5,16.4,18.5,17.3,17.3,17.3z
		 M17.3,13.8c-0.8,0-1.3,0.6-1.3,1.3c0,0.8,0.6,1.3,1.3,1.3c0.8,0,1.3-0.6,1.3-1.3C18.7,14.4,18.1,13.8,17.3,13.8z"/>
</g>
</svg>
