<svg version="1.1" id="Слой_1" xmlns="http://www.w3.org/2000/svg" x="0" y="0" viewBox="0 0 30 30" xml:space="preserve"><style>.st0{fill:#ffffff}.st1{fill:none}</style><path transform="rotate(-5.72 16.8 26.13) scale(.99998)" class="st0" d="M16.4 25.5h.9v1.3h-.9z"/><path transform="rotate(-5.72 15.08 26.3) scale(.99998)" class="st0" d="M14.6 25.7h.9V27h-.9z"/><path class="st0" d="M11.4 24.7c2 .4 3.9.2 5.8-.5l-.3-.8c-5.1 1.9-10.9-.8-12.8-6-1.9-5.1.8-10.8 5.9-12.7 5.1-1.9 10.9.7 12.8 5.9.6 1.7.8 3.6.4 5.3l.9.2c1.2-5.9-2.6-11.6-8.5-12.7S4.1 6.1 2.9 11.9c-1.2 6 2.6 11.7 8.5 12.8z"/><path class="st0" d="M9.9 26.6c1.2.3 2.3.5 3.4.5v-.9C6.6 26.2 1.2 20.7 1.2 14S6.7 2 13.4 2c6.7 0 12.1 5.5 12.1 12.2 0 1.1-.1 2.2-.5 3.2l.9.3c1.9-6.9-2.1-14-9-16-6.9-1.9-14 2.1-16 9s2.1 13.9 9 15.9z"/><path class="st1" d="M12.4 11c-.4-.2-.8-.3-1.2-.5-.1.4-.1.8-.2 1.3.2-.1.4-.3.7-.4.3-.1.5-.3.7-.4zM15.4 9.7c-.5-2.1-1.3-3.6-2-3.6s-1.5 1.4-2 3.6c.7.2 1.4.5 2 .8.6-.3 1.3-.6 2-.8zM15 11.4c.2.1.5.3.7.4 0-.4-.1-.9-.2-1.3-.4.1-.8.3-1.2.5.3.1.5.3.7.4zM12.4 17.4c-.2-.1-.5-.3-.7-.4-.2-.1-.5-.3-.7-.4 0 .5.1.9.2 1.3.1 0 .1 0 .2-.1.3-.1.7-.2 1-.4zM19.5 19.5a3.42 3.42 0 002.5 5.7c.9 0 1.8-.4 2.4-1 1.3-1.3 1.3-3.5 0-4.8-.6-.6-1.5-1-2.4-1-.3 0-.5 0-.8.1 0 .1 0 .1-.1.2-.3.5-.8.7-1.6.8zM10.2 12.4c0-.7.1-1.5.2-2.2-.4-.1-.8-.2-1.3-.3-.3-.1-.9-.2-1.4-.2-.7 0-1.1.2-1.3.4-.3.5.1 1.4 1.1 2.5.3.4.7.7 1 1 .5-.4 1.1-.8 1.7-1.2zM11.4 18.8c.5 2.1 1.3 3.6 2 3.6s1.5-1.5 2-3.6c-.6-.2-1.3-.5-2-.8-.7.2-1.4.5-2 .8zM9.1 14.3l.1.1.9.6v-.8-.8c-.3.3-.7.6-1 .9zM8.5 14.8c-.4.3-.7.6-1 1-1 1.1-1.4 2-1.1 2.5.2.3.6.4 1.3.4.4 0 .9-.1 1.4-.2.5-.1 1-.2 1.4-.4-.2-.6-.3-1.4-.3-2.1-.6-.3-1.2-.8-1.7-1.2zM19.3 15.8c-.3-.3-.6-.7-1-1-.6.5-1.1.9-1.7 1.3 0 .7-.1 1.5-.2 2.2.4.1.9.2 1.4.3.5.1 1 .2 1.4.2.4-.4.9-.7 1.4-.9-.2-.6-.6-1.3-1.3-2.1zM14.3 17.4c.4.2.8.4 1.3.5v-.2c0-.3 0-.7.1-1.1-.2.1-.4.3-.7.4-.2.2-.4.3-.7.4zM26.3 25.3l-.8.9 2.5 2.4.8-.9zM25.7 24.7l-.4-.3c-.1.1-.2.3-.4.4-.1.1-.3.3-.5.4l.1.1.4.3.8-.9zM18.3 13.7c.3-.3.6-.7 1-1 1-1.1 1.4-2 1.1-2.5-.2-.3-.6-.4-1.3-.4-.6 0-1.1.1-1.4.2-.5.1-.9.2-1.4.4.2.6.3 1.4.3 2.1.6.3 1.2.7 1.7 1.2zM16.6 13.4V15l1.1-.8-.1-.1c-.3-.2-.6-.4-1-.7zM15.6 12.8c-.3-.2-.7-.4-1-.6-.4-.2-.7-.4-1.1-.6h-.1-.1c-.4.2-.7.4-1.1.6-.4.2-.7.4-1 .6-.1 0-.2.1-.2.2v2.4c0 .1.1.2.1.2.3.2.7.4 1 .6.4.2.7.4 1.1.6h.2c.4-.2.7-.4 1.1-.6.4-.2.7-.4 1-.6.1-.1.1-.1.1-.2v-1.2V13c.2-.1.1-.2 0-.2z"/><path class="st0" d="M25.8 23.7c.8-1.6.5-3.6-.8-4.9-.8-.8-1.9-1.2-3-1.2-.2 0-.5 0-.7.1 0 .3 0 .6-.1.9.3-.1.5-.1.8-.1 1.2 0 2.2.6 2.9 1.6.7 1.1.7 2.5 0 3.6-.7 1-1.7 1.6-2.9 1.6a3.41 3.41 0 01-2.5-5.7h-1.1a4.23 4.23 0 003.6 6.5c.7 0 1.3-.2 1.8-.5l3.9 3.9c.1.1.4.1.5 0l1.4-1.5c.1-.1.1-.3 0-.5l-3.8-3.8zm-.8 1.9l-.4-.3-.1-.1c.2-.1.3-.3.5-.4l.4-.4.4.3-.8.9zm.5.6l.8-.8 2.5 2.4-.8.8-2.5-2.4z"/><path class="st0" d="M20.4 18.3c.1-.1.1-.3.1-.4-.5.2-1 .5-1.4.9.7-.1 1.1-.2 1.3-.5z"/><path class="st0" d="M19.1 18.7c-.4 0-.9-.1-1.4-.2-.5-.1-1-.2-1.4-.3.1-.7.2-1.4.2-2.2.6-.4 1.2-.8 1.7-1.3.3.3.7.6 1 1 .7.8 1.1 1.6 1.2 2.1.3-.1.5-.2.8-.2-.1-.7-.6-1.5-1.4-2.4-.3-.4-.7-.7-1-.9.4-.3.7-.7 1-1 1.3-1.4 1.7-2.6 1.2-3.5-.3-.6-1-.9-2-.9-.5 0-1 .1-1.6.2-.5.1-.9.2-1.3.4-.6-2.7-1.6-4.2-2.8-4.2-1.2 0-2.1 1.4-2.7 3.9 0 .1 0 .2-.1.2-.5-.1-.9-.3-1.4-.4-.4-.1-.9-.1-1.4-.1-1 0-1.7.3-2 .9-.5.8-.1 2 1.2 3.5.3.4.7.7 1 .9-.4.3-.7.7-1 1-1.3 1.4-1.7 2.6-1.2 3.5.3.6 1 .9 2 .9.5 0 1-.1 1.6-.2.5-.1.9-.2 1.3-.4.6 2.7 1.6 4.2 2.8 4.2 1.2 0 2.1-1.4 2.7-3.9 0-.1 0-.1.1-.2a7.37 7.37 0 002.3.5c.2-.2.3-.5.6-.7-.1-.1-.1-.2 0-.2zm-11.6-6c-1-1.1-1.4-2-1.1-2.5.1-.3.6-.5 1.3-.5.6 0 1.1.1 1.4.2.5.1 1 .2 1.4.3-.1.7-.2 1.4-.2 2.2-.6.4-1.2.9-1.7 1.3-.5-.3-.8-.7-1.1-1zm2.6 2.3c-.3-.2-.6-.5-.9-.6l-.1-.1c.3-.3.7-.6 1.1-.8v.8c-.1.2-.1.4-.1.7zm-1 3.6c-.5.1-1 .2-1.4.2-.7 0-1.2-.2-1.3-.4-.3-.5.2-1.4 1.1-2.5.3-.3.6-.7 1-1 .6.5 1.1.9 1.7 1.3.1.8.1 1.5.3 2.1-.5 0-.9.2-1.4.3zm6.6-6.8c-.2-.1-.4-.3-.7-.4-.2-.1-.5-.3-.7-.4.4-.2.8-.3 1.2-.5.1.4.1.9.2 1.3zm-2.3-5.7c.7 0 1.5 1.4 2 3.6-.7.3-1.4.6-2 .9-.7-.3-1.4-.6-2-.8.5-2.3 1.2-3.7 2-3.7zm-2.1 4.4c.4.1.8.3 1.2.5-.2.1-.5.3-.7.4-.2.1-.5.3-.7.4 0-.4.1-.9.2-1.3zm-.2 6.1c.2.1.4.3.7.4.2.1.5.3.7.4-.4.2-.7.3-1 .5-.1 0-.1 0-.2.1-.1-.5-.2-.9-.2-1.4zm2.3 5.7c-.7 0-1.5-1.5-2-3.6.7-.3 1.4-.5 2-.9.7.3 1.3.6 2 .8-.5 2.3-1.3 3.7-2 3.7zm2.2-4.5v.2c-.4-.2-.8-.3-1.3-.5.2-.1.5-.3.7-.4.2-.1.5-.3.7-.4-.1.3-.1.7-.1 1.1zm.2-2.4c0 .1-.1.2-.1.2-.3.2-.7.4-1 .6-.4.2-.7.4-1.1.6h-.1-.1c-.4-.2-.7-.4-1.1-.6-.4-.2-.7-.4-1-.6-.1-.1-.1-.1-.1-.2v-1.2V13c0-.1.1-.2.1-.2.3-.2.7-.4 1-.6.4-.2.7-.4 1.1-.6h.2c.4.2.7.4 1.1.6.4.2.7.4 1 .6.1.1.1.1.1.2v2.4zm.8-.4v-.8-.8c.3.2.6.5.9.6l.1.1c-.2.4-.6.6-1 .9zm1.1-5.1c.3-.1.9-.2 1.4-.2.7 0 1.1.2 1.3.4.3.5-.1 1.4-1.1 2.5-.3.4-.7.7-1 1-.6-.5-1.2-.9-1.8-1.3-.1-.8-.1-1.5-.3-2.1l1.5-.3z"/><path class="st0" d="M19.5 19.5l.1-.1c.5-.5 1-.8 1.6-.9.1-.3.1-.5.1-.9-.3 0-.5.1-.8.2 0 .2 0 .3-.1.4-.2.3-.6.4-1.3.4l-.1.1c-.2.2-.4.5-.6.7h.7c.1.1.2.1.4.1zM13.4 12.7c-.6 0-1.1.4-1.4.9-.2.6-.1 1.2.3 1.6.3.3.7.4 1 .4.2 0 .4 0 .6-.1.6-.2.9-.8.9-1.4.1-.7-.6-1.4-1.4-1.4zm-.6 1.8c-.1-.2 0-.5.1-.7.1-.1.3-.2.5-.2h.2c.2.1.4.3.4.6 0 .4-.3.6-.6.6-.3.1-.5-.1-.6-.3zM21.9 18.8a3.1 3.1 0 00-2.2 5.2h.3c.1 0 .1 0 .2-.1s.1-.1.1-.2 0-.1-.1-.2c-.9-.9-1-2.4-.1-3.3.5-.5 1.1-.9 1.9-.9.5 0 1 .2 1.4.5 1 .7 1.3 2.2.7 3.3-.4.7-1.2 1.2-2.1 1.2-.4 0-.7-.1-1.1-.3h-.1c-.1 0-.2.1-.2.1v.2c0 .1.1.1.1.2.4.2.9.3 1.3.3 1.7 0 3-1.3 3-3-.1-1.7-1.4-3-3.1-3z"/><path class="st0" d="M23.4 21.8c0 .1.1.2.2.2s.2-.1.2-.2c0-.5-.2-1-.6-1.4-.1-.1-.2-.1-.3 0-.1.1-.1.2 0 .3.3.3.5.7.5 1.1zm0 0M22.1 20.4c.1 0 .2-.1.2-.2s-.1-.2-.2-.2h-.2c-.1 0-.2.1-.2.2s.1.2.2.2h.2zm0 0"/></svg>