<svg version="1.1" id="Слой_1" xmlns="http://www.w3.org/2000/svg" x="0" y="0" viewBox="0 0 85 85" xml:space="preserve"><style>.st1{fill:#ffffff}</style><path fill="none" d="M0 .8h85v85H0z"/><path class="st1" d="M73.2 13.3h-4.4V12c0-2.1-1.7-3.9-3.9-3.9h-6.7a8.35 8.35 0 00-16.4 0h-6.7a3.9 3.9 0 00-3.9 3.9v1.3H27c-3.9 0-7.1 3.2-7.1 7.1v14.8c0 .9.7 1.6 1.6 1.6.9 0 1.6-.7 1.6-1.6V20.4c0-2.1 1.7-3.8 3.8-3.8h4.4v2H27c-1 0-1.9.8-1.9 1.9v14.7c0 .9.7 1.6 1.6 1.6.9 0 1.6-.7 1.6-1.6V21.8h3c.1 2 1.8 3.7 3.9 3.7h21.9c.7 0 1.4-.4 1.6-1.1.4-1.1-.5-2.1-1.5-2.1h-22c-.4 0-.7-.3-.7-.7V12c0-.4.3-.7.7-.7h8.1c.9 0 1.6-.8 1.6-1.7 0-3.7 4.1-6.5 8-4.2 1.5.9 2.2 2.6 2.2 4.3 0 .9.7 1.6 1.6 1.6H65c.4 0 .7.3.7.7v9.5c0 .4-.3.7-.7.7h-3.1c-.7 0-1.4.4-1.6 1.1-.4 1.1.5 2.1 1.5 2.1H65c2.1 0 3.8-1.6 3.9-3.7h3v49.7H35.3c-.9 0-1.6.7-1.6 1.6 0 .9.7 1.6 1.6 1.6h37.9c1 0 1.9-.8 1.9-1.9V20.4c0-1-.8-1.9-1.9-1.9h-4.4v-2h4.4c2.1 0 3.8 1.7 3.8 3.8v52.4c0 2.1-1.7 3.8-3.8 3.8H31.1c-.7 0-1.4.4-1.6 1.1-.4 1.1.5 2.1 1.5 2.1h42.2c3.9 0 7.1-3.2 7.1-7.1V20.4c0-3.9-3.2-7.1-7.1-7.1z"/><path class="st1" d="M43.5 41.7c-6.4-6.4-16.9-6.4-23.3 0-5.1 5.1-6.2 12.8-3.1 19L.9 76.9l7.4 7.4 16.2-16.2c2.3 1.1 4.8 1.7 7.4 1.7 4.2 0 8.4-1.6 11.6-4.8 6.5-6.5 6.5-16.9 0-23.3zM8.3 80.4L4.9 77l10-10 3.4 3.4-10 10zm12-12L16.8 65l1.8-1.8c.5.6 1 1.3 1.6 1.8.6.6 1.2 1.1 1.8 1.6l-1.7 1.8zM41.6 63c-5.3 5.3-14 5.3-19.3 0-5.3-5.3-5.3-14 0-19.3 2.7-2.7 6.2-4 9.7-4 3.5 0 7 1.3 9.7 4 5.2 5.3 5.2 14-.1 19.3zM47.6 31.2h-2.9a1 1 0 00-1 1v3.9c0 .5.4 1 1 1h2.9V40c0 .5.4 1 1 1h3.9c.5 0 1-.4 1-1v-2.9h2.9c.5 0 1-.4 1-1v-3.9c0-.5-.4-1-1-1h-2.9v-2.9c0-.5-.4-1-1-1h-3.9a1 1 0 00-1 1v2.9zm1 2c.5 0 1-.4 1-1v-2.9h1.9v2.9c0 .5.4 1 1 1h2.9v1.9h-2.9a1 1 0 00-1 1V39h-1.9v-2.9c0-.5-.4-1-1-1h-2.9v-1.9h2.9z"/><path class="st1" d="M29.1 51.8a1 1 0 01-1-1v-5.7c0-.5.4-1 1-1h5.7c.5 0 1 .4 1 1v5.7c0 .5-.4 1-1 1h-5.7zm.9-2h3.8V46H30v3.8zM29 61.5a1 1 0 01-1-1v-5.7c0-.5.4-1 1-1h5.7c.5 0 1 .4 1 1v5.7c0 .5-.4 1-1 1H29zm1-1.9h3.8v-3.8H30v3.8zM49.9 45.5c-.3 0-.6-.4-.6-1s.3-1 .6-1h16.4c.3 0 .6.4.6 1s-.3 1-.6 1H49.9zM50.4 51.3a1 1 0 010-2h9.4a1 1 0 010 2h-9.4zM48.4 62.7c-.5 0-1-.4-1-1s.4-1 1-1h9.4c.5 0 1 .4 1 1s-.4 1-1 1h-9.4z"/><path class="st1" d="M49.9 45.8h16.4c.5 0 .9-.6.9-1.2 0-.7-.4-1.2-.9-1.2H49.9c-.5 0-.9.6-.9 1.2 0 .7.4 1.2.9 1.2zM50.4 49.1c-.7 0-1.2.6-1.2 1.2 0 .7.6 1.2 1.2 1.2h9.4c.7 0 1.2-.6 1.2-1.2 0-.7-.6-1.2-1.2-1.2h-9.4zM57.9 60.5h-9.4c-.7 0-1.2.6-1.2 1.2 0 .7.6 1.2 1.2 1.2h9.4c.7 0 1.2-.6 1.2-1.2s-.5-1.2-1.2-1.2zM67 54.8H50.6c-.5 0-.9.6-.9 1.2 0 .7.4 1.2.9 1.2H67c.5 0 .9-.6.9-1.2s-.4-1.2-.9-1.2z"/><path class="st1" d="M50.6 57c-.3 0-.6-.4-.6-1s.3-1 .6-1H67c.3 0 .6.4.6 1s-.3 1-.6 1H50.6z"/></svg>