<?xml version="1.0" encoding="utf-8"?>
<!-- Generator: Adobe Illustrator 22.0.1, SVG Export Plug-In . SVG Version: 6.00 Build 0)  -->
<svg version="1.1" id="Слой_1" xmlns="http://www.w3.org/2000/svg" xmlns:xlink="http://www.w3.org/1999/xlink" x="0px" y="0px"
	 viewBox="0 0 30 30" style="enable-background:new 0 0 30 30;" xml:space="preserve">
<style type="text/css">
	.st0{fill:#0098DA;}
</style>
<g>
	<path class="st0" d="M0.9,15.6c0.3,0,0.6-0.3,0.6-0.6c0-0.3-0.3-0.6-0.6-0.6c0,0,0,0,0,0c-0.3,0-0.6,0.3-0.6,0.6v0
		C0.3,15.4,0.5,15.6,0.9,15.6z"/>
	<path class="st0" d="M13,18.1c1.5,0,2.7-1.1,3-2.5h1.2c0.3,0,0.6-0.3,0.6-0.6s-0.3-0.6-0.6-0.6H16C15.7,13,14.5,12,13,12
		c0,0,0,0,0,0c-0.4-0.8-0.9-1.5-1.5-2.1L9.6,8l1.9-1.9c1.3-1.3,2.2-3.5,2.2-5.5c0-0.3-0.3-0.6-0.6-0.6s-0.6,0.3-0.6,0.6
		c0,1.8-0.7,3.6-1.8,4.7L8.8,7.1l-1-1l1.9-1.9c1-1,1.4-2.6,1.4-3.7c0-0.3-0.3-0.6-0.6-0.6c-0.3,0-0.6,0.3-0.6,0.6
		c0,0.7-0.2,1.5-0.6,2.2H4.5C4,2.2,3.7,1.4,3.7,0.6C3.7,0.3,3.5,0,3.2,0S2.6,0.3,2.6,0.6C2.6,1.9,3.1,3.1,4,4l6.7,6.7
		c0.5,0.5,0.8,1,1.1,1.5c-0.4,0.2-0.8,0.5-1.1,0.8c-0.2-0.5-0.6-1-1-1.4L3,5C1.8,3.8,1.2,2.3,1.2,0.6C1.2,0.3,0.9,0,0.6,0
		S0,0.3,0,0.6c0,2,0.8,3.8,2.2,5.2L4.3,8L2.5,9.8c-0.8,0.8-1.4,1.8-1.8,2.9c-0.1,0.3,0.1,0.6,0.4,0.7c0.1,0,0.1,0,0.2,0
		c0.2,0,0.5-0.2,0.6-0.4c0.3-0.9,0.8-1.8,1.5-2.5l1.9-1.9l1,1l-1.9,1.9c-0.9,0.9-1.4,2.1-1.4,3.4c0,1.3,0.5,2.5,1.4,3.4l4.1,4.1
		c0,0,0,0,0,0c0,0,0,0.1,0.1,0.1l2,2c1.1,1.1,1.8,2.9,1.8,4.7c0,0.3,0.3,0.6,0.6,0.6c0.3,0,0.6-0.3,0.6-0.6c0-2.1-0.8-4.2-2.2-5.5
		l-1.7-1.7l1.9-1.9C12.1,19.7,12.6,18.9,13,18.1z M5.6,4h2.7L7,5.3L5.6,4z M14.9,15c0,0.9-0.6,1.7-1.5,1.9c0.1-0.6,0.2-1.2,0.2-1.8
		c0-0.7-0.1-1.3-0.2-1.9C14.2,13.4,14.9,14.1,14.9,15z M12.2,13.3c0.2,0.6,0.3,1.2,0.3,1.8c0,0.6-0.1,1.2-0.2,1.7
		c-0.7-0.3-1.2-1-1.2-1.8C11.1,14.3,11.5,13.6,12.2,13.3z M5.5,18.1h2.9L7,19.5L5.5,18.1z M4.6,13.1h4.8c0.3,0.4,0.4,0.8,0.5,1.3
		H4.1C4.2,14,4.3,13.5,4.6,13.1z M9.9,15.6c-0.1,0.5-0.2,0.9-0.5,1.3H4.5c-0.2-0.4-0.4-0.9-0.5-1.3H9.9z M8.3,12H5.6L7,10.6L8.3,12z
		 M8.8,21.4l-1-1l1.9-1.9c0.4-0.4,0.8-0.9,1-1.5c0.3,0.4,0.7,0.6,1.2,0.8c-0.3,0.6-0.7,1.1-1.2,1.6L8.8,21.4z"/>
	<path class="st0" d="M7.5,23.7C7.4,23.6,7.4,23.6,7.5,23.7l-4.2-4.2c-0.7-0.7-1.2-1.6-1.5-2.5c-0.1-0.3-0.4-0.5-0.7-0.4
		c-0.3,0.1-0.5,0.4-0.4,0.7c0.4,1.1,1,2.1,1.8,3l1.9,1.9l-1.7,1.7c-1.3,1.3-2.2,3.5-2.2,5.5C0.4,29.7,0.7,30,1,30
		c0.3,0,0.6-0.3,0.6-0.6c0-1.8,0.7-3.6,1.8-4.7L5.1,23l1,1l-1.7,1.7c-1,1-1.4,2.6-1.4,3.7C3,29.7,3.3,30,3.6,30
		c0.3,0,0.6-0.3,0.6-0.6c0-0.7,0.2-1.5,0.6-2.2h4.4c0,0,0,0,0,0c0.4,0.7,0.6,1.5,0.6,2.2c0,0.3,0.3,0.6,0.6,0.6
		c0.3,0,0.6-0.3,0.6-0.6c0-1.1-0.4-2.7-1.4-3.7L7.5,23.7z M7,24.8l1.2,1.2H5.7L7,24.8z"/>
	<path class="st0" d="M28.4,15l1.6-2.7c0.1-0.2,0.1-0.4,0-0.6l-1.7-3c-0.1-0.2-0.3-0.3-0.5-0.3h-3.2l-1.6-2.7
		c-0.1-0.2-0.3-0.3-0.5-0.3h-3.5c-0.2,0-0.4,0.1-0.5,0.3l-1.6,2.7h-3c-0.3,0-0.6,0.3-0.6,0.6c0,0.3,0.3,0.6,0.6,0.6h3l1.6,2.7
		c0.1,0.2,0.3,0.3,0.5,0.3h3.2l1.4,2.5l-1.4,2.4h-3.2c-0.2,0-0.4,0.1-0.5,0.3l-1.7,3c-0.1,0.2-0.1,0.4,0,0.6l1.7,3
		c0.1,0.2,0.3,0.3,0.5,0.3h3.5c0.2,0,0.4-0.1,0.5-0.3l1.6-2.7h3.2c0.2,0,0.4-0.1,0.5-0.3l1.7-3c0.1-0.2,0.1-0.4,0-0.6L28.4,15z
		 M28.7,12l-1.4,2.4h-2.9L23.1,12l1.4-2.4h2.9L28.7,12z M17.8,9l1.4-2.4H22L23.4,9L22,11.4h-2.8L17.8,9z M22,23.5h-2.8l-1.4-2.4
		l1.4-2.4H22l1.4,2.4L22,23.5z M27.3,20.5h-2.8L23.1,18l1.4-2.4h2.8l1.4,2.4L27.3,20.5z"/>
	<path class="st0" d="M19.4,15.6c0.2,0,0.3-0.1,0.4-0.2c0.1-0.1,0.2-0.3,0.2-0.4c0-0.2-0.1-0.3-0.2-0.4c-0.1-0.1-0.3-0.2-0.4-0.2
		c-0.2,0-0.3,0.1-0.4,0.2c-0.1,0.1-0.2,0.3-0.2,0.4c0,0.2,0.1,0.3,0.2,0.4C19.1,15.6,19.2,15.6,19.4,15.6z"/>
</g>
</svg>
