<svg version="1.1" id="Слой_1" xmlns="http://www.w3.org/2000/svg" x="0" y="0" viewBox="0 0 85 85" xml:space="preserve"><style>.st1{fill:#ffffff}</style><path fill="none" d="M0 0h85v85H0z"/><path class="st1" d="M49.1 53h-2.5c-.8 0-1.4-.6-1.4-1.4s.6-1.4 1.4-1.4h1.1v-.6c0-.8.6-1.4 1.4-1.4s1.4.6 1.4 1.4v.6H52V47c0-1.5-1.2-2.7-2.7-2.7h-9c-1.5 0-2.7 1.2-2.7 2.7v3.1H39v-.6c0-.8.6-1.4 1.4-1.4s1.4.6 1.4 1.4v.6H43c.8 0 1.4.6 1.4 1.4S43.8 53 43 53h-6.8c-.8 0-1.4-.6-1.4-1.4V47c0-2.8 2-5.1 4.7-5.5a6.6 6.6 0 1112-3.8c0 1.4-.4 2.7-1.2 3.8 2.6.4 4.7 2.7 4.7 5.5v4.5c0 .8-.6 1.4-1.4 1.4l-4.5.1zm-4.3-18.9c-2 0-3.7 1.7-3.7 3.7s1.7 3.7 3.7 3.7 3.7-1.7 3.7-3.7-1.6-3.7-3.7-3.7z"/><path class="st1" d="M65.8 43.2v-.3h1.9l.1.2a5.7 5.7 0 005.2 3.8c3 0 5.5-2.5 5.5-5.5S76 35.9 73 35.9c-2.4 0-4.5 1.5-5.2 3.8l-.1.2h-1.9v-.3c-.4-4.4-2.1-8.6-5-11.9l-.2-.2 4.5-4.5.2.1a6.8 6.8 0 10-2.5-2.5l.1.2-4.5 4.5-.2-.2c-3.4-2.8-7.6-4.6-11.9-5H46v-1.9l.2-.1a5.7 5.7 0 003.8-5.2c0-3-2.5-5.5-5.5-5.5S39 9.8 39 12.9c0 2.4 1.5 4.5 3.8 5.2l.2.1v1.9h-.3c-4.4.4-8.6 2.1-11.9 5l-.2.2-4.6-4.6.1-.2c.6-1 .9-2.2.9-3.4 0-2.3-1.1-4.4-3-5.7-.3-.2-.6-.3-.9-.3-.5 0-1 .3-1.3.7-.5.7-.3 1.7.4 2.1 1 .7 1.6 1.9 1.6 3.1a3.7 3.7 0 11-7.4 0c0-1.7 1.1-3.1 2.7-3.6.4-.1.7-.4.9-.7.2-.4.2-.8.1-1.2-.2-.7-.8-1.1-1.5-1.1-.1 0-.3 0-.4.1-2.9.8-5 3.5-5 6.6A6.8 6.8 0 0023.4 23l.2-.1 4.5 4.5-.2.2c-2.8 3.3-4.6 7.6-5 11.9v.3H21l-.1-.2a5.7 5.7 0 00-5.2-3.8c-3 0-5.5 2.5-5.5 5.5s2.5 5.5 5.5 5.5c2.4 0 4.5-1.5 5.2-3.8l.1-.2h1.9v.3c.3 3.2 1.3 6.3 2.9 9L5.9 72.5l7.9 7.9L34 60c1.8 1 3.8 1.8 5.8 2.3.2 0 .3.1.5.1.8.2 1.6.3 2.4.3h.3v1.9l-.2.1a5.55 5.55 0 001.7 10.8c3 0 5.5-2.5 5.5-5.5 0-2.4-1.5-4.5-3.8-5.2l-.2-.1v-1.9h.3c4.3-.4 8.6-2.1 11.9-5l.2-.2 4.5 4.5-.1.2a6.8 6.8 0 1012.7 3.4c0-.7-.1-1.5-.4-2.2-.2-.6-.8-1.1-1.5-1.1-.2 0-.3 0-.5.1-.4.1-.7.4-.9.8-.2.4-.2.8-.1 1.2.1.4.2.8.2 1.2a3.7 3.7 0 11-7.4 0c0-2.1 1.7-3.7 3.7-3.7.5 0 .9.1 1.4.3.2.1.4.1.6.1.6 0 1.2-.4 1.4-1 .2-.4.1-.8 0-1.2-.2-.4-.5-.7-.9-.8a6.65 6.65 0 00-5.9.4l-.2.1-4.5-4.5.2-.2c2.9-3.4 4.7-7.6 5.1-12zM73 39c1.3 0 2.4 1.1 2.4 2.4 0 1.3-1.1 2.4-2.4 2.4-1.3 0-2.4-1.1-2.4-2.4 0-1.3 1.1-2.4 2.4-2.4zm-4.2-25.6a3.7 3.7 0 110 7.4 3.7 3.7 0 110-7.4zM15.9 43.8c-1.3 0-2.4-1.1-2.4-2.4 0-1.3 1.1-2.4 2.4-2.4s2.4 1.1 2.4 2.4c0 1.3-1 2.4-2.4 2.4zm26.2-30.9c0-1.3 1.1-2.4 2.4-2.4s2.4 1.1 2.4 2.4-1.1 2.4-2.4 2.4-2.4-1.1-2.4-2.4zM13.8 76.1l-3.7-3.7 12.7-12.8 3.7 3.7-12.7 12.8zm14.7-14.8l-3.7-3.7 2.9-2.9c.3.3.6.7.9 1 .9 1 1.8 1.8 2.9 2.6l-3 3zM46.9 70c0 1.3-1.1 2.4-2.4 2.4s-2.4-1.1-2.4-2.4c0-1.3 1.1-2.4 2.4-2.4s2.4 1 2.4 2.4zm-2.4-10.3a18.3 18.3 0 1118.3-18.3c0 10.1-8.3 18.3-18.3 18.3z"/></svg>