<svg id="Слой_1" data-name="Слой 1" xmlns="http://www.w3.org/2000/svg" viewBox="0 0 32.37549 27.94092"><defs><style>.cls-1{fill:#ffffff;}</style></defs><title>Detect demographics and vital signs using rules</title><path class="cls-1" d="M30.91858,3.66211H4.31262A2.88783,2.88783,0,0,0,1.42786,6.54688V24.28369a2.88783,2.88783,0,0,0,2.88476,2.88477H14.73108v.17968a1.54137,1.54137,0,0,1-.85742,1.38575l-3.2085,1.60449A.66755.66755,0,0,0,10.964,31.603H24.26721a.66769.66769,0,0,0,.29883-1.26465l-3.209-1.60547a1.53882,1.53882,0,0,1-.85743-1.38477v-.17968H30.91858a2.88783,2.88783,0,0,0,2.88476-2.88477V6.54688A2.88783,2.88783,0,0,0,30.91858,3.66211Zm-17.12695,26.606.67968-.33985A2.86983,2.86983,0,0,0,16.066,27.34814v-.17968h3.09863v.17968a2.86983,2.86983,0,0,0,1.59473,2.58008l.67969.33985Zm-9.479-4.43457a1.55166,1.55166,0,0,1-1.5498-1.54981V22.73486H32.46741v1.54883a1.55146,1.55146,0,0,1-1.54883,1.54981Zm3.7666-16.373V21.3999H2.76282V15.40576a6.87518,6.87518,0,0,1,1.71045-4.42138A5.4701,5.4701,0,0,1,8.07922,9.46045ZM30.25159,7.355V21.3999H27.152l-.001-9.82177a2.69085,2.69085,0,0,0,1.13965-.53321l.08008-.06689a2.619,2.619,0,0,0,.97558-1.9585c.01075-.08594.01856-.16943.02246-.2583a2.01746,2.01746,0,0,1,.01661-.2124,1.76469,1.76469,0,0,1,.25293-.72119A1.39154,1.39154,0,0,1,30.25159,7.355ZM25.816,11.75977V21.3999H20.49963v-.91406a4.6736,4.6736,0,0,0,2.998-1.3457,5.58694,5.58694,0,0,0,1.43652-3.72461V13.18945a1.85811,1.85811,0,0,1,.44043-1.15527A1.14857,1.14857,0,0,1,25.816,11.75977Zm-6.65137,8.73486v.90527H9.41418V9.48535c1.69776.21826,5.3169,1.23682,5.3169,5.93018C14.73108,16.5957,14.73108,20.16846,19.16467,20.49463ZM30.90979,5.87939c-.06445,0-.13379.0044-.20117.01075a2.696,2.696,0,0,0-2.03418.99023l-.06543.0835A2.72567,2.72567,0,0,0,28.04749,8.481c-.00879.09082-.01368.1792-.01368.25537a1.79876,1.79876,0,0,1-.63867,1.311,2.03015,2.03015,0,0,1-.9248.26758,2.76418,2.76418,0,0,0-2.04785.78272,3.203,3.203,0,0,0-.82325,2.10058v2.23291a4.33518,4.33518,0,0,1-1.05566,2.7749,3.63558,3.63558,0,0,1-2.71094.97608c-3.7666,0-3.7666-2.35791-3.7666-3.7666,0-7.186-7.2417-7.31836-7.31543-7.31885H8.7467a7.03069,7.03069,0,0,0-5.22363,1.9502,6.4702,6.4702,0,0,0-.76025.93359V6.54688a1.55155,1.55155,0,0,1,1.5498-1.54932h26.606a1.54906,1.54906,0,0,1,1.39062.88183Zm.67578,15.52051V7.21436h.88184V21.3999Z" transform="translate(-1.42786 -3.66211)"/><path class="cls-1" d="M17.22174,23.89056a.56819.56819,0,0,0-.1607.39356.55177.55177,0,0,0,.04431.21063.64781.64781,0,0,0,.11639.18292.57039.57039,0,0,0,.39356.16077.55184.55184,0,0,0,.21063-.04437.49965.49965,0,0,0,.29931-.29932.55185.55185,0,0,0,.04438-.21063.55433.55433,0,0,0-.94788-.39356Z" transform="translate(-1.42786 -3.66211)"/></svg>