<svg xmlns="http://www.w3.org/2000/svg" width="66.667" height="66.667"><defs><clipPath id="a" clipPathUnits="userSpaceOnUse"><path d="M0 50h50V0H0Z"/></clipPath></defs><g clip-path="url(#a)" transform="matrix(1.33333 0 0 -1.33333 0 66.667)"><path d="M0 0v5.99C0 7.4 1.14 8.54 2.55 8.54h41.32c1.41 0 2.55-1.14 2.55-2.55V0Zm43.87 10.33H2.55c-2.39 0-4.34-1.94-4.34-4.34v-35.77a4.35 4.35 0 0 1 4.34-4.34h22.57c.49 0 .89.4.89.9 0 .49-.4.89-.89.89H2.55C1.14-32.33 0-31.18 0-29.78v27.99h46.42v-14.98c0-.49.4-.89.9-.89.49 0 .89.4.89.89V5.99c0 2.4-1.95 4.34-4.34 4.34" style="fill:#0098da;fill-opacity:1;fill-rule:nonzero;stroke:none" transform="translate(1.79 38.57)"/><path d="M0 0a.747.747 0 0 1-.746-.746c0-.411.335-.746.746-.746s.746.335.746.746A.747.747 0 0 1 0 0m0-3.282A2.54 2.54 0 0 0-2.536-.746 2.54 2.54 0 0 0 0 1.79 2.54 2.54 0 0 0 2.536-.746 2.54 2.54 0 0 0 0-3.282" style="fill:#0098da;fill-opacity:1;fill-rule:nonzero;stroke:none" transform="translate(7.517 43.658)"/><path d="M0 0a.747.747 0 0 1-.746-.746c0-.411.335-.746.746-.746s.746.335.746.746A.747.747 0 0 1 0 0m0-3.282A2.54 2.54 0 0 0-2.536-.746 2.54 2.54 0 0 0 0 1.79 2.54 2.54 0 0 0 2.536-.746 2.54 2.54 0 0 0 0-3.282" style="fill:#0098da;fill-opacity:1;fill-rule:nonzero;stroke:none" transform="translate(14.43 43.658)"/><path d="M0 0a.747.747 0 0 1-.746-.746c0-.411.335-.746.746-.746s.746.335.746.746A.747.747 0 0 1 0 0m0-3.282A2.54 2.54 0 0 0-2.536-.746 2.54 2.54 0 0 0 0 1.79 2.54 2.54 0 0 0 2.536-.746 2.54 2.54 0 0 0 0-3.282" style="fill:#0098da;fill-opacity:1;fill-rule:nonzero;stroke:none" transform="translate(21.341 43.658)"/><path d="M0 0h-5.881a.894.894 0 0 0-.893.895c0 .494.399.895.893.895H0A.895.895 0 0 0 0 0" style="fill:#0098da;fill-opacity:1;fill-rule:nonzero;stroke:none" transform="translate(43.848 24.215)"/><path d="M0 0h-11.488a.895.895 0 0 0 0 1.79H0A.895.895 0 0 0 0 0" style="fill:#0098da;fill-opacity:1;fill-rule:nonzero;stroke:none" transform="translate(43.848 29.232)"/><path d="M0 0h-2.45a.895.895 0 0 0 0 1.79H0A.895.895 0 0 0 0 0" style="fill:#0098da;fill-opacity:1;fill-rule:nonzero;stroke:none" transform="translate(34.81 24.215)"/><path d="M0 0a7.439 7.439 0 0 1-4.793-1.74 7.427 7.427 0 0 1-2.65-5.073 7.424 7.424 0 0 1 1.714-5.46 7.427 7.427 0 0 1 5.074-2.65 7.446 7.446 0 0 1 5.46 1.714 7.427 7.427 0 0 1 2.65 5.072A7.422 7.422 0 0 1 5.74-2.676 7.46 7.46 0 0 1 0 0m.022-16.743c-.277 0-.556.013-.835.037a9.217 9.217 0 0 0-6.289 3.284 9.219 9.219 0 0 0-2.124 6.767A9.213 9.213 0 0 0-5.942-.366c3.921 3.277 9.776 2.757 13.054-1.16h.001c3.28-3.92 2.76-9.776-1.159-13.056a9.202 9.202 0 0 0-5.932-2.161" style="fill:#0098da;fill-opacity:1;fill-rule:nonzero;stroke:none" transform="translate(40.727 17.84)"/><path d="M0 0c-.387 0-.776.123-1.104.379l-2.303 1.798a.894.894 0 1 0 1.1 1.41L-.004 1.79l4.256 5.428a.895.895 0 1 0 1.41-1.102L1.419.688A1.802 1.802 0 0 0 0 0" style="fill:#0098da;fill-opacity:1;fill-rule:nonzero;stroke:none" transform="translate(39.694 6.165)"/><path d="M0 0c-2.82 3.96-5.92 9.09-5.92 11.35 0 3.26 2.65 5.92 5.92 5.92 3.26 0 5.92-2.66 5.92-5.92C5.92 9.09 2.82 3.96 0 0m0 19.06c-4.25 0-7.71-3.46-7.71-7.71 0-3.42 4.67-10.22 6.68-12.99.24-.32.62-.52 1.03-.52.4 0 .79.2 1.03.53 2.01 2.76 6.68 9.56 6.68 12.98 0 4.25-3.46 7.71-7.71 7.71" style="fill:#0098da;fill-opacity:1;fill-rule:nonzero;stroke:none" transform="translate(16.72 14.92)"/><path d="M0 0c-.29.27-.43.64-.43 1A1.384 1.384 0 0 0 .92 2.4h.04c.36 0 .69-.13.95-.38.28-.25.43-.6.44-.97.01-.37-.12-.73-.38-1-.24-.26-.56-.4-.89-.42-.05 0-.1 0-.14-.01C.61-.38.26-.25 0 0m4.96-2.02c-.48.44-.98.8-1.5 1.06 1.01 1.28.89 3.15-.32 4.28-.61.59-1.42.91-2.27.87-.85-.02-1.64-.38-2.23-.99a3.205 3.205 0 0 1-.11-4.25c-.45-.24-.88-.55-1.29-.93a.897.897 0 0 1-.05-1.26c.33-.37.9-.39 1.26-.06 1.64 1.5 3.66 1.49 5.29-.03.18-.16.39-.23.61-.23a.9.9 0 0 1 .66.28c.33.36.31.93-.05 1.26" style="fill:#0098da;fill-opacity:1;fill-rule:nonzero;stroke:none" transform="translate(15.66 26.25)"/><path d="M0 0c-5.537 0-11.496 1.227-11.496 3.923 0 1.914 2.863 2.885 5.264 3.364a.9.9 0 0 0 1.052-.703.896.896 0 0 0-.703-1.053c-2.842-.565-3.797-1.378-3.823-1.609.075-.637 3.468-2.134 9.706-2.134 6.239 0 9.631 1.497 9.707 2.136-.028.229-.989 1.044-3.845 1.61a.895.895 0 1 0 .349 1.756c2.411-.478 5.285-1.45 5.285-3.367C11.496 1.227 5.537 0 0 0" style="fill:#0098da;fill-opacity:1;fill-rule:nonzero;stroke:none" transform="translate(16.718 9.472)"/></g></svg>