<?xml version="1.0" encoding="utf-8"?>
<!-- Generator: Adobe Illustrator 22.0.1, SVG Export Plug-In . SVG Version: 6.00 Build 0)  -->
<svg version="1.1" id="Слой_1" xmlns="http://www.w3.org/2000/svg" xmlns:xlink="http://www.w3.org/1999/xlink" x="0px" y="0px"
	 viewBox="0 0 30 30" style="enable-background:new 0 0 30 30;" xml:space="preserve">
<style type="text/css">
	.st0{fill:#0098DA;}
</style>
<path class="st0" d="M24.1,22.5L23,19.7c0,0-0.1,0-0.1,0s-0.1,0-0.1,0l-1.1,2.8c-0.1,0.2-0.2,0.3-0.5,0.3c-0.1,0-0.2,0-0.3-0.1
	c-2.2-0.9-3.4-3.1-3.1-5.4c0-0.3,0.3-0.4,0.5-0.4c0,0,0.1,0,0.1,0l3,0.4c0-0.1,0.1-0.1,0.1-0.2l-1.9-2.4c-0.1-0.1-0.1-0.2-0.1-0.4
	c0-0.1,0.1-0.3,0.2-0.3c0.8-0.6,1.8-1,2.8-1.1c0.1,0,0.3,0,0.4,0c1.1,0,2.2,0.4,3.1,1.1c0.1,0.1,0.2,0.2,0.2,0.3
	c0,0.1,0,0.3-0.1,0.4l-1.9,2.4c0,0.1,0.1,0.1,0.1,0.2l3-0.4c0,0,0.1,0,0.1,0c0.3,0,0.5,0.2,0.5,0.4c0.2,1.2,0,2.3-0.6,3.3
	c-0.6,1-1.4,1.7-2.5,2.2c-0.1,0-0.1,0-0.2,0C24.3,22.8,24.2,22.7,24.1,22.5z M21.8,19.3c-0.3-0.3-0.5-0.6-0.6-1L18.8,18
	c0,1.7,1,3.1,2.1,3.6L21.8,19.3z M24.5,18.3c-0.1,0.4-0.3,0.7-0.6,1l0.9,2.3c0.7-0.4,1.2-0.9,1.6-1.5c0.4-0.6,0.5-1.4,0.5-2.1
	L24.5,18.3z M22.2,18.1c0,0.3,0.3,0.6,0.6,0.6s0.6-0.3,0.6-0.6c0-0.3-0.3-0.6-0.6-0.6S22.2,17.7,22.2,18.1z M24.9,14.6
	c-0.6-0.4-1.3-0.6-2.1-0.6c-0.8,0-1.5,0.2-2.1,0.6l1.5,1.9c0.2-0.1,0.4-0.1,0.6-0.1c0.2,0,0.4,0,0.6,0.1L24.9,14.6z"/>
<path class="st0" d="M11.5,26.4c-0.4,0.4-0.6,0.9-0.6,1.5c0,0.6,0.2,1.1,0.6,1.5c0.4,0.4,0.9,0.6,1.5,0.6c0.6,0,1.1-0.2,1.5-0.6l5-5
	c1,0.5,2.1,0.8,3.2,0.8c0.1,0,0.1,0,0.2,0c3.9,0,7.2-3.2,7.2-7.2s-3.2-7.2-7.2-7.2c-0.1,0-0.1,0-0.2,0c-1.9,0-3.6,0.8-4.9,2.1
	c-1.3,1.3-2,3.1-2,5c0,1.2,0.3,2.3,0.8,3.4L11.5,26.4L11.5,26.4z M22.7,24c-3.2-0.1-5.8-2.7-5.8-6c0-3.2,2.6-5.9,5.8-6
	c0,0,0.1,0,0.1,0c3.3,0,6,2.7,6,6s-2.7,6-6,6C22.8,24,22.8,24,22.7,24L22.7,24z M12.4,28.5c-0.2-0.2-0.3-0.4-0.3-0.6
	c0-0.2,0.1-0.5,0.3-0.6l4.8-4.8c0.2,0.2,0.3,0.4,0.5,0.6c0.2,0.2,0.5,0.4,0.7,0.6l-4.8,4.8c-0.2,0.2-0.4,0.3-0.6,0.3
	S12.5,28.7,12.4,28.5L12.4,28.5z"/>
<g>
	<path class="st0" d="M6.1,4.7h10.5V6H6.1V4.7z"/>
	<path class="st0" d="M6.1,7.5h10.5v1.3H6.1V7.5z"/>
	<path class="st0" d="M6.1,10.3h10.5v1.3H6.1V10.3z"/>
	<path class="st0" d="M15.1,14.9H9.2l-4.8,3.3v-3.3H3.1c-1,0-1.8-0.8-1.8-1.8v-10c0-1,0.8-1.8,1.8-1.8h16.4c1,0,1.8,0.8,1.8,1.8v6.8
		c0.4-0.1,0.8-0.1,1.2-0.1l0.1,0V3.1c0-1.7-1.4-3.1-3.1-3.1H3.1C1.4,0,0,1.4,0,3.1v10c0,1.7,1.4,3.1,3.1,3.1v4.6l6.5-4.6h5
		C14.8,15.8,14.9,15.4,15.1,14.9z"/>
</g>
</svg>
