<svg version="1.1" id="Слой_1" xmlns="http://www.w3.org/2000/svg" x="0" y="0" viewBox="0 0 30 30" xml:space="preserve"><style>.st0{fill:#ffffff}</style><path class="st0" d="M15.4 12.8c0 .3.2.5.5.5s.5-.2.5-.5-.2-.5-.5-.5c-.3-.1-.5.2-.5.5zM5.2 13.5h8.7c.3 0 .5-.2.5-.5s-.2-.5-.5-.5H5.2c-.3 0-.5.2-.5.5s.2.5.5.5zM3.7 28.5z"/><path class="st0" d="M28.2 26.6l-3.8-9.2v-3.9h.1c.5-.1.9-.6.8-1.2-.1-.5-.6-1-1.2-1H24h-5.4c-.6 0-1.1.4-1.2 1-.1.5.3 1 .8 1.2h.1v3.9l-3.8 9.2c-.1.3-.1.6 0 .9v.1H3.7c-.3 0-.6-.3-.6-.6V4c0-.3.3-.6.6-.6H13v6.1c0 .3.2.5.5.5h6.9c0-.4-.2-.9-.4-1.1L14.1 3c-.3-.3-.7-.5-1.1-.5H3.7c-.8 0-1.5.7-1.5 1.5v23c0 .9.7 1.5 1.5 1.5l23.2-.1c.4 0 .8-.2 1.1-.6.3-.3.3-.8.2-1.2zM14 4l4.9 5H14V4zm5.1 13.7V13.1c0-.2-.2-.4-.4-.4h-.2c-.1 0-.2-.1-.2-.2s.1-.2.2-.2h5.7c.1 0 .2.1.2.2s-.1.2-.2.2H20v.9h3.5v3.1H23c-1 0-1.9.7-2.1 1.7v.1h-.1c-.1 0-.2 0-.3.1a3 3 0 00-1.1.6c-.5.5-.9 1.2-.9 1.9h.9c0-.7.4-1.3 1-1.6.2-.1.5-.2.7-.2.2 0 .4-.2.4-.4 0-.7.6-1.3 1.3-1.3h.4l.1.1v.1L25 22h-7.9l2-4.3zm8.2 9.7c-.1.1-.2.2-.4.2H15.6c-.1 0-.3-.1-.4-.2a.3.3 0 010-.4l1.8-4.2 8.6-.1 1.8 4.3c0 .1 0 .2-.1.4z"/><path class="st0" d="M6.4 23.6h6.7c.8 0 1.5-.7 1.5-1.5v-5.2c0-.8-.7-1.5-1.5-1.5H6.4c-.8 0-1.5.7-1.5 1.5v5.2c0 .9.7 1.5 1.5 1.5zm-.6-6.7c0-.4.3-.6.6-.6h6.7c.4 0 .6.3.6.6v5.2c0 .4-.3.6-.6.6H6.4c-.4 0-.6-.3-.6-.6v-5.2zM5.2 10.3h5.7c.3 0 .5-.2.5-.5s-.2-.5-.5-.5H5.2c-.3 0-.5.2-.5.5s.2.5.5.5zM5.2 7.3h5.7c.3 0 .5-.2.5-.5s-.2-.5-.5-.5H5.2c-.3 0-.5.2-.5.5s.2.5.5.5z"/><path class="st0" d="M8 20.7c0-.3-.2-.5-.5-.5s-.5.2-.5.5v1.1h1v-1.1zM9.5 19.7c0-.3-.2-.5-.5-.5s-.5.2-.5.5v2.1h1.1v-2.1zM11.1 18.7c0-.3-.2-.5-.5-.5s-.6.2-.6.5v3.1h1.1v-3.1zM12.7 17.6c0-.3-.2-.5-.5-.5s-.5.2-.5.5v4.1h1.1v-4.1zM19.7 4.9c.9 0 1.6-.6 1.8-1.4H23c.2.6.7 1.2 1.3 1.3v1.5c-.8.2-1.4.9-1.4 1.8a1.9 1.9 0 103.8 0c0-.9-.6-1.6-1.4-1.8V4.8c.7-.2 1.3-.9 1.3-1.8 0-1-.8-1.9-1.9-1.9-.9 0-1.6.6-1.8 1.4h-1.5c-.2-.8-.9-1.4-1.8-1.4-1 0-1.9.8-1.9 1.9s.9 1.9 2 1.9zm6 3.2c0 .5-.4.9-.9.9s-.9-.4-.9-.9.4-.9.9-.9.9.4.9.9zm-.9-6c.5 0 .9.4.9.9s-.4.9-.9.9-1-.4-1-.9.4-.9 1-.9zm-5.1 0c.5 0 .9.4.9.9s-.4.9-.9.9-1-.4-1-.9.5-.9 1-.9z"/></svg>