<svg id="Слой_1" data-name="Слой 1" xmlns="http://www.w3.org/2000/svg" viewBox="0 0 26.38 26.38"><defs><style>.cls-1{fill:#0098da}</style></defs><path class="cls-1" d="M28.16 13.04l-6.74-2.53V7.3a1.32 1.32 0 00-1.32-1.32h-.44v-.44a1.32 1.32 0 00-1.32-1.32h-.44v-.44a1.32 1.32 0 00-1.32-1.32H3.4a1.32 1.32 0 00-1.32 1.32v15.83a1.32 1.32 0 001.32 1.31h1.32v.44a1.32 1.32 0 001.32 1.32h.44v.44a1.32 1.32 0 001.32 1.32h8.73l4.14 4.26a.45.45 0 00.63 0l5.23-5.38a6.39 6.39 0 001.93-4.6v-5.27a.44.44 0 00-.29-.41zm-8.5-6.18h.44a.44.44 0 01.44.44v3.21l-.88.33zM17.9 5.1h.44a.44.44 0 01.44.44v5.63l-.88.33zm-5.28-1.76h1.76v2.01l-.63-.42a.43.43 0 00-.49 0l-.64.42zM3.4 20.04a.44.44 0 01-.44-.44V3.78a.44.44 0 01.44-.44h8.36v2.84a.43.43 0 00.23.38.42.42 0 00.45-.02l1.07-.72 1.08.72a.44.44 0 00.68-.36V3.34h1.32a.44.44 0 01.44.44v8.05L13.87 13H5.1a.46.46 0 100 .93h8.4v1.66H5.1a.46.46 0 100 .93h8.41v1.73H5.1a.46.46 0 100 .92h8.43a5.79 5.79 0 00.11.86zm2.64 1.76a.44.44 0 01-.44-.44v-.44h8.3a5.81 5.81 0 00.4.88zm1.76 1.76a.44.44 0 01-.44-.44v-.44h7.52a7.65 7.65 0 00.56.64l.23.24zm19.78-4.83a5.53 5.53 0 01-1.68 3.98l-4.91 5.06-4.92-5.06a5.53 5.53 0 01-1.68-3.98v-4.98l6.6-2.47 6.59 2.47z" transform="translate(-2.07 -2.46)"/><path class="cls-1" d="M20.8 12.17l-5.27 2.2a.44.44 0 00-.27.4v3.9a4.8 4.8 0 001.42 3.41l3.99 3.99a.44.44 0 00.62 0l3.98-3.99a4.8 4.8 0 001.42-3.42v-3.89a.44.44 0 00-.27-.4l-5.27-2.2a.44.44 0 00-.34 0zm5.01 2.9v3.6a3.93 3.93 0 01-1.16 2.8l-3.67 3.67-3.68-3.68a3.93 3.93 0 01-1.16-2.8v-3.6l4.84-2.01z" transform="translate(-2.07 -2.46)"/><path class="cls-1" d="M19.66 15.2v2.2h-2.2a.44.44 0 00-.44.45v1.75a.44.44 0 00.44.44h2.2v2.2a.44.44 0 00.44.44h1.76a.44.44 0 00.44-.44v-2.2h2.2a.44.44 0 00.43-.44v-1.75a.44.44 0 00-.44-.44h-2.2v-2.2a.44.44 0 00-.43-.44H20.1a.44.44 0 00-.44.44zm.88 2.65v-2.2h.88v2.2a.44.44 0 00.44.44h2.2v.88h-2.2a.44.44 0 00-.44.43v2.2h-.88v-2.2a.44.44 0 00-.44-.43h-2.2v-.88h2.2a.44.44 0 00.44-.44zM5.05 11.33h8.16a.46.46 0 000-.93H5.05a.46.46 0 000 .93zM4.59 8.26a.46.46 0 00.46.46h8.16a.46.46 0 000-.93H5.05a.46.46 0 00-.46.47zM4.96 6.12h5.37a.46.46 0 100-.93H4.96a.46.46 0 100 .93z" transform="translate(-2.07 -2.46)"/></svg>