<svg version="1.1" id="Слой_1" xmlns="http://www.w3.org/2000/svg" x="0" y="0" viewBox="0 0 85 85" xml:space="preserve"><style>.st1{fill:#ffffff}</style><path fill="none" d="M0 0h85v85H0z"/><path class="st1" d="M47.7 54.3h13.1c.8 0 1.4-.6 1.4-1.4 0-.8-.6-1.4-1.4-1.4H47.5c-.2-1.7-.7-3.3-1.4-4.9h14.7c.8 0 1.4-.6 1.4-1.4 0-.8-.6-1.4-1.4-1.4H44.5a16.6 16.6 0 00-25.1-1.9c-5.2 5.2-6.2 13-3.1 19.2L.6 77.1l7.5 7.5 15.5-15.8c2.3 1.2 4.9 1.7 7.4 1.7 4.3 0 8.5-1.6 11.8-4.9 3.1-3.1 4.7-7.2 4.9-11.3zM8.1 80.5L4.6 77l9.2-9.5 3.5 3.5-9.2 9.5zm11.2-11.4l-3.5-3.5 1.9-1.9a14.62 14.62 0 003.5 3.5l-1.9 1.9zm2-5.5a13.76 13.76 0 019.8-23.5 13.76 13.76 0 019.8 23.5c-5.4 5.4-14.2 5.4-19.6 0z"/><path class="st1" d="M54.2 16.7c-6.6 0-12 5.4-12 12s5.4 12 12 12 12-5.4 12-12-5.4-12-12-12zm0 21.2c-5.1 0-9.3-4.2-9.3-9.3 0-5.1 4.2-9.3 9.3-9.3 5.1 0 9.3 4.2 9.3 9.3 0 5.2-4.2 9.3-9.3 9.3z"/><path class="st1" d="M77.8 7.6H40.4c-.5 0-1 .2-1.3.5L26.9 20.2c-.3.3-.5.8-.5 1.3v11.6c0 1 .8 1.8 1.8 1.8s1.8-.8 1.8-1.8v-9.8h7.6c2.5 0 4.6-2 4.6-4.6v-7.6h35.6c.5 0 .9.4.9.9v61.5c0 .5-.4.9-.9.9h-40c-1 0-1.8.8-1.8 1.8s.8 1.8 1.8 1.8h40c2.5 0 4.6-2 4.6-4.6V12.1c0-2.5-2.1-4.5-4.6-4.5zM38.5 18.8c0 .5-.4.9-.9.9h-4.9l5.8-5.8v4.9z"/><path class="st1" d="M71.5 42.5H67c-.8 0-1.4.6-1.4 1.4 0 .8.6 1.4 1.4 1.4h4.4c.8 0 1.4-.6 1.4-1.4 0-.8-.6-1.4-1.3-1.4zM71.5 50.1H67c-.8 0-1.4.6-1.4 1.4 0 .8.6 1.4 1.4 1.4h4.4c.8 0 1.4-.6 1.4-1.4 0-.8-.6-1.4-1.3-1.4zM60.3 57.7c-.4 0-.7.1-1 .4-.3.3-.4.6-.4 1s.1.7.4 1c.3.3.6.4 1 .4s.7-.1 1-.4c.3-.3.4-.6.4-1s-.1-.7-.4-1c-.3-.2-.7-.4-1-.4zM67 57.7c-.8 0-1.4.6-1.4 1.4 0 .8.6 1.4 1.4 1.4h4.4c.8 0 1.4-.6 1.4-1.4 0-.8-.6-1.4-1.4-1.4H67zM40.4 52.3L34 45.8a5.29 5.29 0 00-7.6 0 5.22 5.22 0 00-1.4 4.9h-.3c-2.9 0-5.3 2.4-5.3 5.3a5.34 5.34 0 0010.6.8l3 3a5.29 5.29 0 007.6 0c1-1 1.6-2.3 1.6-3.8s-.8-2.7-1.8-3.7zM23.5 59c-1.2-.5-2-1.6-2-2.9 0-1.3.8-2.5 2-2.9V59zm2.2 0v-5.9c1.2.5 2 1.6 2 2.9.1 1.4-.7 2.5-2 3zm2.3-7.2c-.6-.6-.9-1.4-.9-2.2 0-.8.3-1.6.9-2.2.6-.6 1.4-.9 2.2-.9.8 0 1.6.3 2.2.9l2.4 2.4-4.4 4.4-2.4-2.4zm10.9 6.5c-.6.6-1.4.9-2.2.9-.8 0-1.6-.3-2.2-.9L32 55.8l4.4-4.4 2.4 2.4c.6.6.9 1.4.9 2.2s-.3 1.7-.8 2.3zM57.3 25.6v-3c0-.5-.4-1-1-1h-3.9a1 1 0 00-1 1v3h-3a1 1 0 00-1 1v3.9c0 .5.4 1 1 1h3v3c0 .5.4 1 1 1h3.9c.5 0 1-.4 1-1v-3h3c.5 0 1-.4 1-1v-3.9c0-.5-.4-1-1-1h-3zm1.9 3.9h-3a1 1 0 00-1 1v3h-2v-3c0-.5-.4-1-1-1h-3v-2h3c.5 0 1-.4 1-1v-3h2v3c0 .5.4 1 1 1h3v2z"/></svg>