<svg version="1.1" id="Слой_1" xmlns="http://www.w3.org/2000/svg" x="0" y="0" viewBox="0 0 85 85" xml:space="preserve"><style>.st1{fill:#ffffff}</style><path fill="none" d="M0 0h85v85H0z"/><path class="st1" d="M71.2 13.9H31.9c-1 0-1.7.8-1.7 1.7v20c0 .8.7 1.5 1.5 1.5s1.5-.7 1.5-1.5V16.9H70v48H37.8c-.8 0-1.5.7-1.5 1.5s.7 1.5 1.5 1.5h33.4c1 0 1.7-.8 1.7-1.7V15.6c0-.9-.8-1.7-1.7-1.7z"/><path class="st1" d="M73 7.2H30a6.6 6.6 0 00-6.6 6.6v22.9c0 .8.7 1.5 1.5 1.5s1.5-.7 1.5-1.5V13.8c0-2 1.6-3.6 3.6-3.6h43c2 0 3.6 1.6 3.6 3.6v58.9c0 2-1.6 3.6-3.6 3.6H33.9c-.7 0-1.3.4-1.5 1-.3 1 .4 2 1.4 2H73c3.6 0 6.6-2.9 6.6-6.6V13.8c0-3.7-2.9-6.6-6.6-6.6z"/><circle class="st1" cx="51.3" cy="71.5" r="1.9"/><path class="st1" d="M41.9 38h24.6c.8 0 1.4-.6 1.4-1.4V34c0-.8-.6-1.4-1.4-1.4h-5v-4.9c0-.8-.6-1.4-1.4-1.4h-5.6c-.8 0-1.4.6-1.4 1.4v1.8h-4.4c-.1-.7-.7-1.2-1.3-1.2h-5.6c-.8 0-1.4.6-1.4 1.4v6.9c.1.7.7 1.4 1.5 1.4zm24-3.4V36h-4.4v-1.4h4.4zm-10.8-6.3h4.4V36h-4.4V28.3zM53.2 36h-4.4v-4.6h4.4V36zm-10.8-5.7h4.4V36h-4.4v-5.7zM51.2 49.8c2.2 0 4-1.8 4-4s-1.8-4-4-4-4 1.8-4 4 1.8 4 4 4zm0-6.1c1.1 0 2.1.9 2.1 2.1s-.9 2.1-2.1 2.1-2.1-.9-2.1-2.1 1-2.1 2.1-2.1zM50.9 54.7c-2.2 0-4 1.8-4 4s1.8 4 4 4 4-1.8 4-4-1.8-4-4-4zm0 6c-1.1 0-2.1-.9-2.1-2.1s.9-2.1 2.1-2.1 2.1.9 2.1 2.1-1 2.1-2.1 2.1zM58.7 43.1h-2.1c-.5 0-1 .4-1 1s.4 1 1 1h2.1c.5 0 1-.4 1-1s-.4-1-1-1zM58.7 46.9h-2.1a1 1 0 000 2h2.1c.5 0 1-.4 1-1s-.4-1-1-1zM58.4 56h-2.1a1 1 0 000 2h2.1c.5 0 1-.4 1-1s-.5-1-1-1zM58.4 59.8h-2.1a1 1 0 000 2h2.1c.5 0 1-.4 1-1s-.5-1-1-1zM40.8 42.5c-6-6-15.7-6-21.7 0-4.8 4.8-5.7 11.9-2.9 17.7l-15 15L8 82.1 23.2 67a15.23 15.23 0 0017.6-2.9c6-6 6-15.7 0-21.6zM8 78.4l-3.2-3.2 9.3-9.3 3.2 3.2L8 78.4zm11.2-11.1L16 64.1l1.7-1.7c.4.6.9 1.2 1.5 1.7.5.5 1.1 1 1.7 1.5l-1.7 1.7zm19.8-5c-5 5-13 5-18 0s-5-13 0-18c2.5-2.5 5.7-3.7 9-3.7s6.5 1.2 9 3.7c4.9 4.9 4.9 13 0 18z"/><path class="st1" d="M25.4 60c-.5 0-.9-.3-1-.7l-1-2.7-.5 1.3c-.2.4-.6.7-1 .7H18c-.6 0-1.1-.5-1.1-1.1 0-.6.5-1.1 1.1-1.1h3l1.3-3.4c.2-.4.6-.7 1-.7.5 0 .9.3 1 .7l1 2.7 3.6-9.5c.2-.4.6-.7 1-.7s.9.3 1 .7l2.7 6.9 1.6-4.2c.2-.4.6-.7 1-.7s.9.3 1 .7l1.3 3.4h3c.6 0 1.1.5 1.1 1.1s-.5 1.1-1.1 1.1H38c-.5 0-.9-.3-1-.7l-.5-1.4-1.6 4.2c-.2.4-.6.7-1 .7-.5 0-.9-.3-1-.7l-2.7-6.9-3.7 9.6c-.3.4-.7.7-1.1.7z"/></svg>