<svg version="1.1" id="Слой_1" xmlns="http://www.w3.org/2000/svg" x="0" y="0" viewBox="0 0 85 85" xml:space="preserve"><style>.st0{fill:none}.st1{fill:#0098da}</style><path class="st0" d="M0 0h85v85H0z"/><path class="st1" d="M28.3 20.8h49.6c.8 0 1.4-.6 1.4-1.4 0-.8-.6-1.4-1.4-1.4H28.3c-.8 0-1.4.6-1.4 1.4 0 .8.6 1.4 1.4 1.4z"/><circle class="st1" cx="32.9" cy="13.5" r="2.1"/><circle class="st1" cx="39.1" cy="13.5" r="2.1"/><circle class="st1" cx="45.3" cy="13.5" r="2.1"/><path class="st1" d="M49.2 18.9h3v55.7h-3zM64.9 43.7a10.5 10.5 0 100-21 10.5 10.5 0 000 21zm0-2.6c-.4 0-.9 0-1.3-.1v-7.8h2.1l2.2 2.2c.5.5 1.3.5 1.9 0l2.2-2.2h.8c-.1 4.4-3.6 7.9-7.9 7.9zm7.4-10.5h-.9c-.3 0-.7.1-.9.4l-1.7 1.7-1.7-1.7c-.2-.2-.6-.4-.9-.4h-2.6v-5.1a7.8 7.8 0 018.7 5.1zM61 26.4v4.2h-3.5a7.6 7.6 0 013.5-4.2zm0 6.8V40a7.9 7.9 0 01-3.9-6.8H61zM72 56.1h-9.8c-.8 0-1.4-.6-1.4-1.4 0-.8.6-1.4 1.4-1.4H72c.8 0 1.4.6 1.4 1.4 0 .7-.6 1.4-1.4 1.4zM72 63.1c-.8 0-1.4-.6-1.4-1.4 0-.8.6-1.4 1.4-1.4.8 0 1.4.6 1.4 1.4 0 .7-.6 1.4-1.4 1.4zM66.4 63.1H55.2c-.8 0-1.4-.6-1.4-1.4 0-.8.6-1.4 1.4-1.4h11.2c.8 0 1.4.6 1.4 1.4 0 .7-.6 1.4-1.4 1.4zM72 70.1h-8.4c-.8 0-1.4-.6-1.4-1.4 0-.8.6-1.4 1.4-1.4H72c.8 0 1.4.6 1.4 1.4 0 .8-.6 1.4-1.4 1.4zM58 70.1h-2.8c-.8 0-1.4-.6-1.4-1.4 0-.8.6-1.4 1.4-1.4H58c.8 0 1.4.6 1.4 1.4 0 .8-.7 1.4-1.4 1.4zM72 49h-5.6c-.8 0-1.4-.6-1.4-1.4 0-.8.6-1.4 1.4-1.4H72c.8 0 1.4.6 1.4 1.4 0 .8-.6 1.4-1.4 1.4z"/><g><path class="st0" d="M43.5 41.8c6.5 6.5 6.5 17 0 23.5-3.2 3.2-7.5 4.9-11.8 4.9-1.2 0-2.4-.1-3.5-.4v2.3c0 .5.4.9.9.9H76c.5 0 .9-.4.9-.9V10.8c0-.5-.4-.9-.9-.9H29.1c-.5 0-.9.4-.9.9v26.6c5.4-1.2 11.2.3 15.3 4.4z"/><path transform="rotate(-45 11.26 74.07)" class="st0" d="M4.1 71.6h14.3v4.9H4.1z"/><path class="st0" d="M18.4 63.4l-1.9 1.9 3.5 3.5 1.9-1.9a14.62 14.62 0 01-3.5-3.5z"/><path class="st1" d="M76 6.2H29.1c-2.5 0-4.6 2-4.6 4.6v27.8c-1.6.8-3.2 1.8-4.6 3.2-5.2 5.2-6.2 13-3.1 19.2L.5 77.4 8 84.8l16.4-16.4c.1 0 .1.1.2.1v3.6c0 2.5 2 4.6 4.6 4.6H76c2.5 0 4.6-2 4.6-4.6V10.8c-.1-2.6-2.1-4.6-4.6-4.6zM8 80.9l-3.5-3.5 10.1-10.1 3.5 3.5L8 80.9zm12-12.1l-3.5-3.5 1.9-1.9a14.62 14.62 0 003.5 3.5L20 68.8zm2-5.5c-5.4-5.4-5.4-14.1 0-19.5.8-.8 1.7-1.4 2.6-2a14.08 14.08 0 017.2-2.1 13.76 13.76 0 019.8 23.5 13.84 13.84 0 01-17 2c-.9-.4-1.8-1.1-2.6-1.9zm54.9 8.8c0 .5-.4.9-.9.9H29.1a.9.9 0 01-.9-.9v-2.3c1.2.2 2.3.4 3.5.4 4.3 0 8.5-1.6 11.8-4.9 6.5-6.5 6.5-17 0-23.5-4.1-4.1-9.9-5.6-15.3-4.5V10.8c0-.5.4-.9.9-.9H76c.5 0 .9.4.9.9v61.3z"/></g><path class="st1" d="M44 33.1h-9.8c-.8 0-1.4-.6-1.4-1.4 0-.8.6-1.4 1.4-1.4H44c.8 0 1.4.6 1.4 1.4 0 .7-.6 1.4-1.4 1.4zM44 26h-5.6c-.8 0-1.4-.6-1.4-1.4 0-.8.6-1.4 1.4-1.4H44c.8 0 1.4.6 1.4 1.4 0 .8-.6 1.4-1.4 1.4zM32.4 45.4c0 .6.5 1.1 1.1 1.2 4.1.6 7.1 4.5 6.3 8.9-.6 2.9-2.9 5.3-5.8 5.8-4.4.9-8.3-2.2-8.9-6.3-.1-.6-.6-1.1-1.2-1.1-.8 0-1.4.7-1.2 1.4.7 4.9 5 8.7 10.2 8.6A10 10 0 0034 44c-.9.1-1.6.7-1.6 1.4z"/></svg>