<svg xmlns="http://www.w3.org/2000/svg" width="66.667" height="66.667"><defs><clipPath id="a" clipPathUnits="userSpaceOnUse"><path d="M0 50h50V0H0Z"/></clipPath></defs><g clip-path="url(#a)" transform="matrix(1.33333 0 0 -1.33333 0 66.667)"><path d="M0 0c-2.34 0-4.24 1.9-4.24 4.24 0 2.34 1.9 4.239 4.24 4.239 2.34 0 4.24-1.899 4.24-4.239S2.34 0 0 0m0 10.18c-3.28 0-5.94-2.67-5.94-5.94A5.94 5.94 0 0 1 0-1.7c3.27 0 5.94 2.66 5.94 5.94 0 3.27-2.67 5.94-5.94 5.94" style="fill:#0098da;fill-opacity:1;fill-rule:nonzero;stroke:none" transform="translate(24.86 7.83)"/><path d="M0 0a.851.851 0 0 0-1.2 0l-.68.681v-2.63a.85.85 0 1 0-1.701 0V.67l-.799-.8a.832.832 0 0 0-.6-.25.82.82 0 0 0-.601.25.853.853 0 0 0 0 1.2l2.25 2.26c.04.04.081.07.131.11.139.081.3.13.47.13a.94.94 0 0 0 .47-.13c.05-.04.09-.07.13-.11L0 1.2C.33.87.33.33 0 0" style="fill:#0098da;fill-opacity:1;fill-rule:nonzero;stroke:none" transform="translate(27.65 11.68)"/><path d="M0 0c-.14.08-.3.13-.47.13C-.64.13-.8.08-.94 0c.28.18.66.18.94 0" style="fill:#0098da;fill-opacity:1;fill-rule:nonzero;stroke:none" transform="translate(25.39 15.12)"/><path d="M0 0v-18.71c0-1.4-1.07-2.54-2.38-2.54h-14.519c-1.311 0-2.381 1.14-2.381 2.54v2.31a.85.85 0 1 0 1.7 0v-2.31c0-.46.31-.84.681-.84H-2.38c.37 0 .68.38.68.84V0c0 .47-.31.85-.68.85h-14.519c-.371 0-.681-.39-.681-.85v-2.13a.85.85 0 0 0-1.7 0V0c0 1.41 1.07 2.55 2.381 2.55h8.829V3c0 1.41-1.15 2.56-2.56 2.56h-22.43c-1.41 0-2.56-1.15-2.56-2.56v-.45h8.44c1.32 0 2.39-1.14 2.39-2.55v-2.13c0-.47-.38-.849-.85-.849s-.85.379-.85.849V0c0 .46-.32.85-.69.85h-14.51c-.37 0-.68-.39-.68-.85v-18.71c0-.46.31-.84.68-.84h14.51c.37 0 .69.38.69.84v2.31a.85.85 0 1 0 1.7 0v-2.31c0-1.4-1.07-2.54-2.39-2.54h-14.51c-1.32 0-2.38 1.14-2.38 2.54V0c0 1.41 1.06 2.55 2.38 2.55h4.37V3c0 2.35 1.91 4.26 4.26 4.26h22.43c2.34 0 4.25-1.91 4.25-4.26v-.45h4C-1.07 2.55 0 1.41 0 0" style="fill:#0098da;fill-opacity:1;fill-rule:nonzero;stroke:none" transform="translate(47.09 21.42)"/><path d="M0 0h-8.438a.85.85 0 1 0 0 1.699H0A.85.85 0 1 0 0 0" style="fill:#0098da;fill-opacity:1;fill-rule:nonzero;stroke:none" transform="translate(16.27 6.547)"/><path d="M0 0h-8.438a.85.85 0 1 0 0 1.699H0A.85.85 0 1 0 0 0" style="fill:#0098da;fill-opacity:1;fill-rule:nonzero;stroke:none" transform="translate(16.27 11.258)"/><path d="M0 0h-8.439a.85.85 0 1 0 0 1.699H0A.85.85 0 1 0 0 0" style="fill:#0098da;fill-opacity:1;fill-rule:nonzero;stroke:none" transform="translate(16.248 15.89)"/><path d="M0 0h-8.439a.849.849 0 1 0 0 1.699H0A.85.85 0 1 0 0 0" style="fill:#0098da;fill-opacity:1;fill-rule:nonzero;stroke:none" transform="translate(42.273 6.547)"/><path d="M0 0h-8.439a.849.849 0 1 0 0 1.699H0A.85.85 0 1 0 0 0" style="fill:#0098da;fill-opacity:1;fill-rule:nonzero;stroke:none" transform="translate(42.273 11.258)"/><path d="M0 0h-8.439a.849.849 0 1 0 0 1.699H0A.85.85 0 1 0 0 0" style="fill:#0098da;fill-opacity:1;fill-rule:nonzero;stroke:none" transform="translate(42.297 15.89)"/><path d="M0 0c0-.08 0-.33-.49-.33h-.531v.7h.491C0 .37 0 .1 0 0m1.03-2.2L.32-1.16c.48.21.75.62.75 1.16C1.07.32.95 1.34-.5 1.34h-1.021c-.309 0-.569-.24-.569-.54v-3.29c0-.27.25-.5.529-.5.29 0 .54.23.54.5v1.18h.201l.95-1.44a.5.5 0 0 1 .44-.24c.2 0 .4.12.49.3.08.16.07.34-.03.49" style="fill:#0098da;fill-opacity:1;fill-rule:nonzero;stroke:none" transform="translate(34.08 44.66)"/><path d="M0 0c0 .45.17.65.57.65.4 0 .58-.2.58-.65v-1.13c0-.3-.1-.66-.58-.66-.47 0-.57.36-.57.66Zm.57 1.62c-1.03 0-1.64-.6-1.64-1.62v-1.13c0-1 .64-1.63 1.64-1.63 1 0 1.64.63 1.64 1.63V0c0 1.02-.61 1.62-1.64 1.62" style="fill:#0098da;fill-opacity:1;fill-rule:nonzero;stroke:none" transform="translate(8.72 38.71)"/><path d="M0 0v-3.38c0-.29-.24-.51-.56-.51-.2 0-.4.1-.49.25l-.01.01-1.11 1.91V-3.4c0-.27-.25-.49-.54-.49-.29 0-.53.22-.53.49v3.38c0 .29.24.51.55.51.2 0 .39-.1.5-.27.33-.55.57-.97.83-1.42l.29-.5V0c0 .27.25.49.54.49C-.24.49 0 .27 0 0" style="fill:#0098da;fill-opacity:1;fill-rule:nonzero;stroke:none" transform="translate(14.55 39.84)"/><path d="M0 0c0-.44-.69-.74-1.34-.74-1.02 0-1.61.59-1.61 1.63v1.13c0 1.03.59 1.62 1.61 1.62.65 0 1.34-.29 1.34-.73 0-.26-.23-.47-.51-.47-.16 0-.23.04-.29.08l-.09.05c-.13.09-.26.12-.42.12-.4 0-.57-.19-.57-.67V.89c0-.48.17-.68.57-.68.16 0 .29.04.42.12l.09.05c.06.04.13.09.29.09C-.23.47 0 .26 0 0" style="fill:#0098da;fill-opacity:1;fill-rule:nonzero;stroke:none" transform="translate(17.82 36.69)"/><path d="M0 0c0 .45.17.65.57.65.4 0 .57-.2.57-.65v-1.13c0-.3-.1-.66-.57-.66-.48 0-.57.36-.57.66Zm.57 1.62c-1.03 0-1.64-.6-1.64-1.62v-1.13c0-1 .64-1.63 1.64-1.63 1 0 1.64.63 1.64 1.63V0c0 1.02-.61 1.62-1.64 1.62" style="fill:#0098da;fill-opacity:1;fill-rule:nonzero;stroke:none" transform="translate(19.02 38.71)"/><path d="M0 0c0-.28-.22-.49-.52-.49h-1.64c-.31 0-.56.23-.56.52v3.32c0 .27.24.49.53.49.29 0 .53-.22.53-.49V.48h1.14C-.23.48 0 .26 0 0" style="fill:#0098da;fill-opacity:1;fill-rule:nonzero;stroke:none" transform="translate(24.33 36.49)"/><path d="M0 0c0 .45.18.65.57.65.4 0 .58-.2.58-.65v-1.13c0-.3-.1-.66-.58-.66-.47 0-.57.36-.57.66Zm.57 1.62c-1.02 0-1.64-.6-1.64-1.62v-1.13c0-1 .65-1.63 1.64-1.63 1 0 1.64.63 1.64 1.63V0c0 1.02-.61 1.62-1.64 1.62" style="fill:#0098da;fill-opacity:1;fill-rule:nonzero;stroke:none" transform="translate(25.44 38.71)"/><path d="M0 0v-1.27c0-.61-.75-.89-1.45-.89-1.02 0-1.61.59-1.61 1.63V.6c0 1.03.59 1.62 1.61 1.62.64 0 1.33-.29 1.33-.73 0-.26-.23-.47-.51-.47-.149 0-.22.04-.28.08l-.09.05c-.14.09-.27.12-.42.12-.41 0-.569-.19-.569-.67V-.53c0-.48.159-.68.569-.68.15 0 .271.03.36.07v.69h-.179a.49.49 0 0 0-.49.49c0 .26.219.48.49.48H-.6c.361 0 .6-.2.6-.52" style="fill:#0098da;fill-opacity:1;fill-rule:nonzero;stroke:none" transform="translate(30.97 38.11)"/><path d="M0 0v-3.4c0-.27-.239-.49-.529-.49-.301 0-.54.22-.54.49V0c0 .27.239.49.54.49C-.239.49 0 .27 0 0" style="fill:#0098da;fill-opacity:1;fill-rule:nonzero;stroke:none" transform="translate(32.39 39.84)"/><path d="M0 0c0-.44-.69-.74-1.33-.74-1.03 0-1.62.59-1.62 1.63v1.13c0 1.03.59 1.62 1.62 1.62.64 0 1.33-.29 1.33-.73 0-.26-.23-.47-.51-.47-.15 0-.23.04-.29.08l-.08.05a.73.73 0 0 1-.42.12c-.41 0-.58-.19-.58-.67V.89c0-.48.17-.68.58-.68.15 0 .279.04.409.12l.071.03c.08.06.16.11.31.11C-.23.47 0 .26 0 0" style="fill:#0098da;fill-opacity:1;fill-rule:nonzero;stroke:none" transform="translate(35.66 36.69)"/><path d="M0 0h-.47l.241.77zm1.5-1.09L.37 2.17c-.08.22-.22.47-.599.47-.38 0-.521-.27-.59-.47L-1.95-1.08c-.029-.06-.029-.17-.029-.17 0-.28.239-.49.54-.49.189 0 .429.13.509.35l.16.49H.29l.181-.49a.566.566 0 0 1 .509-.35c.32 0 .55.2.55.49 0 0 0 .11-.03.16" style="fill:#0098da;fill-opacity:1;fill-rule:nonzero;stroke:none" transform="translate(37.76 37.69)"/><path d="M0 0c0-.28-.229-.49-.52-.49h-1.65c-.309 0-.559.23-.559.52v3.32c0 .27.24.49.529.49.29 0 .54-.22.54-.49V.48h1.14C-.239.48 0 .26 0 0" style="fill:#0098da;fill-opacity:1;fill-rule:nonzero;stroke:none" transform="translate(42.22 36.49)"/><path d="M0 0c0-.84-1.181-1.58-2.521-1.58h-13.41a.986.986 0 0 1-.299-.05l-4.24-1.62-4.19 1.62c-.1.03-.2.05-.31.05h-13.02c-1.361 0-2.51.72-2.51 1.58v11.56c0 .85 1.149 1.57 2.51 1.57h35.469c1.34 0 2.521-.73 2.521-1.57Zm-2.521 14.83H-37.99c-2.361 0-4.21-1.43-4.21-3.27V0c0-1.84 1.849-3.28 4.21-3.28h12.86l4.35-1.67a.815.815 0 0 1 .61 0l4.399 1.67h13.25c2.371 0 4.22 1.44 4.22 3.28v11.56c0 1.84-1.849 3.27-4.22 3.27" style="fill:#0098da;fill-opacity:1;fill-rule:nonzero;stroke:none" transform="translate(45.11 35)"/><path d="M0 0h-.48l.24.76zm1.5-1.1L.359 2.16c-.08.22-.21.47-.589.47-.39 0-.53-.27-.59-.47l-1.14-3.25c-.03-.06-.03-.17-.03-.17 0-.28.24-.49.55-.49.18 0 .419.13.5.35l.16.49H.29l.17-.49c.08-.22.33-.35.519-.35.311 0 .541.2.541.49 0 0 0 .11-.02.16" style="fill:#0098da;fill-opacity:1;fill-rule:nonzero;stroke:none" transform="translate(30.24 43.42)"/><path d="M0 0c0-.28-.22-.49-.52-.49h-1.64c-.31 0-.56.23-.56.52v3.32c0 .27.241.49.531.49.29 0 .53-.22.53-.49V.48H-.52C-.229.48 0 .26 0 0" style="fill:#0098da;fill-opacity:1;fill-rule:nonzero;stroke:none" transform="translate(28.14 42.21)"/><path d="M0 0v-2.33c0-.93-.64-1.55-1.59-1.55-.96 0-1.58.6-1.58 1.55V0c0 .29.23.5.53.5.29 0 .53-.23.53-.5v-2.33c0-.27.09-.58.52-.58.43 0 .52.31.52.58V0c0 .28.24.5.53.5C-.24.5 0 .28 0 0" style="fill:#0098da;fill-opacity:1;fill-rule:nonzero;stroke:none" transform="translate(24.98 45.55)"/><path d="M0 0v-3.38c0-.29-.24-.51-.55-.51-.2 0-.4.1-.5.25v.01l-1.12 1.91V-3.4c0-.27-.25-.49-.54-.49-.29 0-.53.22-.53.49v3.38c0 .29.24.51.55.51.2 0 .4-.1.51-.26.32-.56.56-.98.83-1.43l.29-.5V0c0 .27.24.49.54.49C-.23.49 0 .27 0 0" style="fill:#0098da;fill-opacity:1;fill-rule:nonzero;stroke:none" transform="translate(21.36 45.56)"/><path d="M0 0h-.48l.24.77zm1.5-1.1L.36 2.16c-.08.22-.22.47-.6.47s-.52-.27-.59-.47l-1.13-3.25c-.03-.06-.03-.17-.03-.17 0-.28.24-.49.55-.49.18 0 .42.13.5.35l.16.49H.29l.17-.49c.08-.22.33-.35.52-.35.31 0 .54.2.54.49 0 0 0 .11-.02.16" style="fill:#0098da;fill-opacity:1;fill-rule:nonzero;stroke:none" transform="translate(16.4 43.42)"/><path d="M0 0h.5c.52 0 .52-.271.52-.37C1.02-.59.86-.7.53-.7H0Zm2.06-2.57-.71 1.04c.48.21.74.62.74 1.16C2.09-.05 1.98.97.52.97H-.49c-.31 0-.57-.241-.57-.54v-3.29c0-.27.24-.5.52-.5.3 0 .54.23.54.5v1.18h.21l.94-1.44c.1-.151.26-.24.45-.24s.39.12.48.3c.09.16.08.34-.02.49" style="fill:#0098da;fill-opacity:1;fill-rule:nonzero;stroke:none" transform="translate(12.08 45.03)"/><path d="M0 0v-1.27c0-.61-.75-.89-1.45-.89-1.02 0-1.61.59-1.61 1.63V.6c0 1.03.59 1.62 1.61 1.62.65 0 1.33-.29 1.33-.73 0-.26-.22-.47-.5-.47-.16 0-.23.04-.29.08l-.09.05a.74.74 0 0 1-.42.13c-.4 0-.57-.2-.57-.68V-.53c0-.48.17-.68.57-.68.16 0 .27.03.36.07v.69h-.18c-.26 0-.49.22-.49.49 0 .26.23.48.49.48h.64c.37 0 .6-.2.6-.52" style="fill:#0098da;fill-opacity:1;fill-rule:nonzero;stroke:none" transform="translate(10.65 43.83)"/></g></svg>