<svg width="44" height="31" fill="none" xmlns="http://www.w3.org/2000/svg"><rect id="backgroundrect" width="100%" height="100%" x="0" y="0" fill="none" stroke="none"/><g class="currentLayer" style=""><title>Layer 1</title><path d="M30.4 10.94c-.04 0-.04 0 0 0a.63.63 0 01-.5-.23l-2.73-2.88a.66.66 0 01.04-.95.69.69 0 01.97.03L30.4 9.3l2.33-2.15a.69.69 0 01.97.04c.27.27.23.73-.04.96l-2.84 2.6c-.07.12-.27.2-.42.2z" fill="#ffffff" id="svg_1" class="selected" fill-opacity="1"/><path d="M43.3 31H24.84a.7.7 0 01-.7-.69V4.51a.7.7 0 01.7-.7h13.72c.2 0 .39.08.5.23l4.75 4.9c.11.12.19.31.19.46v20.91a.7.7 0 01-.7.69zm-17.76-1.38H42.6V9.67L38.25 5.2H25.54v24.43z" fill="#ffffff" id="svg_2" class="selected" fill-opacity="1"/><path d="M34.09 24.1a.7.7 0 01-.7-.68v-9.57a.7.7 0 01.7-.7c.39 0 .7.31.7.7v9.57a.7.7 0 01-.7.69z" fill="#ffffff" id="svg_3" class="selected" fill-opacity="1"/><path d="M38.75 14.5h-9.37a.7.7 0 01-.7-.7.7.7 0 01.7-.68h9.37c.4 0 .7.3.7.69a.7.7 0 01-.7.69zM43.3 10.1h-4.74a.7.7 0 01-.7-.7V4.5a.7.7 0 01.43-.65.72.72 0 01.77.15l4.75 4.9c.19.2.23.5.15.77a.79.79 0 01-.66.42zM39.26 8.7h2.4l-2.4-2.48V8.7zM30.36 10.67c-.08 0-.16 0-.24-.04a.7.7 0 01-.42-.88 6.3 6.3 0 00-2.57-7.35 6.52 6.52 0 00-5.05-.85.75.75 0 01-.86-.5.73.73 0 01.5-.84c2.1-.5 4.36-.11 6.15 1.04a7.67 7.67 0 013.1 8.96.66.66 0 01-.61.46zM21.92 23.72H.7a.7.7 0 01-.7-.68V3.62a.7.7 0 01.7-.69h21.22c.4 0 .7.3.7.7v19.4a.7.7 0 01-.7.7zM1.4 22.35h19.82V4.3H1.4v18.04zM1.01 25.22h1.17c.3 0 .58.04.77.07.2.04.43.16.59.31.46.38.7 1 .7 1.8 0 .27-.04.5-.08.73-.04.23-.12.42-.23.57-.12.2-.24.35-.4.46-.1.12-.23.2-.38.27-.16.08-.31.11-.47.15-.15.04-.35.04-.54.04H.97c-.15 0-.27-.04-.39-.08-.07-.03-.15-.11-.15-.19-.04-.07-.04-.19-.04-.34v-3.26c0-.19.04-.34.12-.42.19-.07.3-.11.5-.11zm.39.69v2.98H2.45c.08 0 .15-.03.27-.07.08-.04.16-.08.23-.16.32-.26.47-.68.47-1.3 0-.42-.08-.76-.2-1-.11-.22-.34-.3-.54-.34-.2-.04-.43-.07-.7-.07H1.4v-.04zM5.13 29.16v-3.48c0-.2.04-.3.12-.42.08-.08.2-.16.3-.16.16 0 .24.04.36.16.08.07.12.23.12.42v3.48c0 .2-.04.3-.12.42a.5.5 0 01-.35.16.36.36 0 01-.31-.16.68.68 0 01-.12-.42zM10.88 28.24a1 1 0 01-.11.46c-.08.16-.2.3-.35.5-.16.15-.35.27-.59.38-.23.12-.5.16-.81.16-.24 0-.47-.04-.66-.08-.2-.04-.4-.12-.55-.2a1.34 1.34 0 01-.42-.37c-.12-.16-.24-.31-.32-.46a2.2 2.2 0 01-.19-.54c-.04-.2-.08-.38-.08-.61 0-.35.04-.7.16-.96.11-.27.27-.54.46-.73a2.12 2.12 0 011.55-.61c.36 0 .7.08.98.23.27.15.5.3.66.54a1 1 0 01.23.6c0 .12-.03.2-.11.28a.36.36 0 01-.27.11c-.12 0-.2-.04-.28-.08a2.6 2.6 0 01-.2-.26 1.39 1.39 0 00-.42-.5.95.95 0 00-.58-.15c-.39 0-.66.15-.9.42a1.8 1.8 0 00-.35 1.18c0 .35.04.62.16.85.12.23.23.38.43.5.2.1.39.15.62.15.27 0 .47-.08.66-.2.2-.1.31-.3.43-.57.04-.11.08-.23.15-.27.04-.07.16-.11.28-.11.11 0 .19.04.27.11.11.04.15.12.15.23zM13.68 25.14c.47 0 .86.08 1.2.27.36.2.59.46.75.8a2.86 2.86 0 01.11 2.15c-.11.27-.23.53-.43.73-.19.19-.42.34-.7.45-.27.12-.58.16-.93.16a2.2 2.2 0 01-1.63-.61c-.2-.2-.31-.46-.43-.73a3.25 3.25 0 01-.15-.92c0-.35.04-.65.15-.92.12-.27.24-.54.43-.73a2.38 2.38 0 011.63-.65zm1.28 2.26c0-.3-.03-.61-.15-.84a1.28 1.28 0 00-.47-.54c-.2-.11-.42-.19-.66-.19-.2 0-.35.04-.5.12a.98.98 0 00-.4.3c-.1.12-.19.3-.26.5-.08.2-.08.42-.08.69 0 .27.04.46.08.69.07.19.15.38.27.5.11.11.23.23.39.3.15.08.3.12.5.12.24 0 .43-.04.62-.16.2-.11.35-.3.47-.53.12-.3.2-.61.2-.96zM18.19 28.97l-.7-2.8v3.07c0 .15-.04.3-.12.38a.44.44 0 01-.3.12.45.45 0 01-.32-.12c-.08-.07-.11-.19-.11-.38v-3.49c0-.19.03-.3.15-.38a.7.7 0 01.43-.11h.27c.16 0 .31 0 .35.03a.3.3 0 01.16.16c.03.07.07.19.11.38l.66 2.41.66-2.4c.04-.2.08-.32.12-.4a.3.3 0 01.16-.15c.07-.03.2-.03.35-.03h.27a.8.8 0 01.43.11c.11.08.15.2.15.38v3.49c0 .15-.04.3-.12.38a.44.44 0 01-.3.12.45.45 0 01-.32-.12c-.08-.07-.11-.23-.11-.38v-3.06l-.7 2.8c-.04.18-.08.3-.12.37a.8.8 0 01-.16.23.45.45 0 01-.3.12c-.12 0-.2-.04-.28-.08-.08-.04-.12-.11-.15-.19a.54.54 0 01-.08-.23.4.4 0 01-.08-.23z" fill="#ffffff" id="svg_4" class="selected" fill-opacity="1"/><path d="M11.27 20.16a.7.7 0 01-.7-.69v-9.5a.7.7 0 01.7-.68c.4 0 .7.3.7.69v9.5a.7.7 0 01-.7.68zM9.52 11.7h-.11c-3.62-.61-4.24-2.99-4.28-3.06a.73.73 0 01.5-.84c.4-.08.74.11.86.5.04.07.5 1.6 3.15 2.06.39.08.62.42.58.8a.75.75 0 01-.7.54zM8.9 14.57a5.77 5.77 0 01-5.05-2.87.65.65 0 01.3-.92c.36-.19.79-.04.94.3a4.43 4.43 0 004.4 2.11.7.7 0 01.77.62.7.7 0 01-.62.76H8.9z" fill="#ffffff" id="svg_5" class="selected" fill-opacity="1"/><path d="M8.94 16.95c-5.1 0-5.99-2.76-6.02-2.87a.66.66 0 01.46-.85c.35-.11.74.08.86.46.04.12.81 2.07 5.24 1.88.4 0 .7.27.74.65 0 .38-.27.69-.66.73h-.62zM13.14 11.7a.7.7 0 01-.7-.57c-.08-.39.2-.73.58-.8 2.68-.47 3.15-2 3.15-2.08a.75.75 0 01.86-.5c.38.08.58.47.5.85-.04.11-.66 2.49-4.28 3.06-.03.04-.07.04-.11.04zM13.76 14.57c-.23 0-.47 0-.7-.04a.7.7 0 01-.62-.76.7.7 0 01.78-.61c3.03.3 4.31-2 4.39-2.11.2-.34.62-.46.93-.27.35.2.47.58.31.92-.08.12-1.6 2.87-5.09 2.87z" fill="#ffffff" id="svg_6" class="selected" fill-opacity="1"/><path d="M13.72 16.95h-.62a.67.67 0 01-.66-.73c0-.38.35-.69.74-.65 4.47.19 5.2-1.8 5.24-1.88.12-.34.5-.53.9-.42.35.12.58.5.46.84-.07.08-.97 2.84-6.06 2.84z" fill="#ffffff" id="svg_7" class="selected" fill-opacity="1"/></g></svg>