<svg width="45" height="45" fill="none" xmlns="http://www.w3.org/2000/svg"><g clip-path="url(#clip0)" fill="#0098DA"><path d="M22.5 45c-.7 0-1.35-.31-1.8-.85l-5.46-7.37a2.1 2.1 0 00-1.59-.73h-9.8A3.87 3.87 0 010 32.2V3.85A3.86 3.86 0 013.85 0h37.3a3.86 3.86 0 013.86 3.85V32.2c0 .18-.02.37-.04.55A11.27 11.27 0 0133.7 44.99c-2.9 0-5.64-1.1-7.75-3.07l-1.6 2.18c-.45.56-1.12.88-1.83.9h-.02zM33.7 24.11a9.58 9.58 0 000 19.14 9.58 9.58 0 000-19.14zM22.05 43.06c.12.11.28.17.45.17.18 0 .36-.07.48-.2l1.78-2.4a11.3 11.3 0 018.92-18.25h.02c3.89.01 7.52 2.03 9.57 5.3V3.86c0-1.16-.94-2.11-2.12-2.11H3.85c-1.16 0-2.11.94-2.11 2.11V32.2c0 1.16.94 2.11 2.11 2.11h9.8c1.14 0 2.22.5 2.95 1.4l5.45 7.35z"/><path d="M34.44 26.23h-1.5c-.82 0-1.49.66-1.49 1.5v5.96c0 .82.67 1.5 1.5 1.5h1.5c.81 0 1.49-.67 1.49-1.5v-5.97c-.01-.83-.68-1.5-1.5-1.5zm-1.5 7.45v-5.97h1.5v5.97h-1.5zM34.44 36.67h-1.5c-.82 0-1.49.67-1.49 1.5v1.49c0 .82.67 1.5 1.5 1.5h1.5c.81 0 1.49-.67 1.49-1.5v-1.5c-.01-.82-.68-1.49-1.5-1.49zm-1.5 2.98v-1.5h1.5v1.5h-1.5zM5.9 7.1h2.62a.88.88 0 100-1.75H5.9c-.48 0-.87.4-.87.87 0 .48.39.88.87.88zM10.78 7.1h16.6a.88.88 0 100-1.75h-16.6c-.48 0-.88.4-.88.87 0 .48.4.88.88.88zM39.62 5.35H30c-.48 0-.87.4-.87.87 0 .48.39.88.87.88h9.62c.48 0 .87-.4.87-.88 0-.49-.4-.87-.87-.87zM39.1 9.82H36.5a.88.88 0 100 1.75h2.62a.87.87 0 100-1.75zM35.1 10.7c0-.48-.39-.88-.87-.88h-16.6a.88.88 0 100 1.75h16.6c.48 0 .87-.4.87-.87zM5.38 11.57H15c.48 0 .87-.4.87-.87 0-.48-.39-.88-.87-.88H5.38a.88.88 0 000 1.75zM5.9 16.05h2.62a.88.88 0 100-1.75H5.9c-.48 0-.87.4-.87.87 0 .48.39.88.87.88zM10.78 14.3c-.48 0-.88.4-.88.87 0 .48.4.88.88.88h16.6a.88.88 0 100-1.75h-16.6zM8.52 23.25H5.9c-.48 0-.87.39-.87.87s.39.88.87.88h2.62a.88.88 0 100-1.75zM24.21 23.25h-13.1c-.49 0-.88.39-.88.87s.39.88.87.88h13.11a.88.88 0 100-1.75zM39.62 14.3H30c-.48 0-.87.4-.87.87 0 .48.39.88.87.88h9.62a.88.88 0 000-1.75zM39.1 18.77H36.5a.88.88 0 100 1.75h2.62a.87.87 0 100-1.75zM34.23 18.77h-16.6a.88.88 0 100 1.75h16.6a.87.87 0 100-1.75zM5.38 20.52H15c.48 0 .87-.4.87-.87 0-.48-.39-.88-.87-.88H5.38a.88.88 0 000 1.75z"/></g><defs><clipPath id="clip0"><path fill="#fff" d="M0 0h45v45H0z"/></clipPath></defs></svg>