<svg width="43" height="27" fill="none" xmlns="http://www.w3.org/2000/svg" style=""><rect id="backgroundrect" width="100%" height="100%" x="0" y="0" fill="none" stroke="none"/><g class="currentLayer" style=""><title>Layer 1</title><path d="M36.2 22.91h-9.12a.6.6 0 01-.6-.62V8.07a.6.6 0 01.6-.62h9.12c.33 0 .6.28.6.62v2.13a.6.6 0 01-.6.62.6.6 0 01-.6-.62V8.7h-7.91v12.98h7.9v-1.76a.6.6 0 01.6-.61c.34 0 .61.27.61.61v2.37a.6.6 0 01-.6.62z" fill="#ffffff" id="svg_1" class="selected" fill-opacity="1"/><path d="M40.64 15.8h-9.42a.61.61 0 01-.6-.62c0-.34.26-.62.6-.62h9.42c.33 0 .6.28.6.62a.6.6 0 01-.6.62z" fill="#ffffff" id="svg_2" class="selected" fill-opacity="1"/><path d="M38.45 19.13a.7.7 0 01-.44-.17.61.61 0 010-.86l2.86-2.99-2.86-2.85a.61.61 0 010-.86c.24-.24.6-.24.84 0l3.3 3.3c.1.1.17.28.17.45 0 .17-.07.3-.17.45l-3.3 3.43a.7.7 0 01-.4.1zM30.71 27H4.31A4.34 4.34 0 010 22.6V4.4C0 1.96 1.92 0 4.3 0h26.41c2.4 0 4.3 1.96 4.3 4.4a.6.6 0 01-.6.62.6.6 0 01-.6-.62 3.12 3.12 0 00-3.1-3.16H4.31c-1.72 0-3.1 1.4-3.1 3.16v18.2a3.12 3.12 0 003.1 3.16h26.4c.34 0 .6.28.6.62a.6.6 0 01-.6.62z" fill="#ffffff" id="svg_3" class="selected" fill-opacity="1"/><path d="M14.33 21.06c-.07 0-.13 0-.2-.04L7.1 18.55a.63.63 0 01-.4-.58v-9.1a.7.7 0 01.36-.6L14.1 5.5c.2-.07.4-.04.57.06.17.1.27.31.27.52v14.36c0 .2-.1.38-.27.51-.07.07-.2.1-.34.1zm-6.42-3.54l5.82 2.06V7.01L7.9 9.3v8.2z" fill="#ffffff" id="svg_4" class="selected" fill-opacity="1"/><path d="M6.12 19.89a1.7 1.7 0 01-1.68-1.72v-9.3c0-.93.74-1.72 1.68-1.72.91 0 1.68.75 1.68 1.71v9.31c0 .96-.74 1.72-1.68 1.72zm0-11.44c-.23 0-.47.2-.47.48v9.31c0 .24.2.48.47.48.27 0 .47-.2.47-.48v-9.3c0-.28-.2-.49-.47-.49zM23.21 13.67h-6.39a.61.61 0 01-.6-.62c0-.34.26-.61.6-.61h6.4c.33 0 .6.27.6.61 0 .35-.27.62-.6.62zM16.82 10.17a.6.6 0 01-.54-.35c-.13-.3-.03-.68.27-.82l4.48-2.27c.3-.13.67-.03.8.28.14.3.04.68-.27.82L17.1 10.1c-.1.03-.17.07-.27.07zM21.03 19.89a.64.64 0 01-.34-.1l-4.2-2.72a.65.65 0 01-.2-.86.62.62 0 01.83-.2l4.2 2.71c.28.17.38.55.21.86-.1.2-.3.3-.5.3z" fill="#ffffff" id="svg_5" class="selected" fill-opacity="1"/></g></svg>