<svg width="43" height="27" fill="none" xmlns="http://www.w3.org/2000/svg" style=""><rect id="backgroundrect" width="100%" height="100%" x="0" y="0" fill="none" stroke="none"/><g class="currentLayer" style=""><title>Layer 1</title><path d="M36.2 22.91h-9.12a.6.6 0 01-.6-.62V8.07a.6.6 0 01.6-.62h9.12c.33 0 .6.28.6.62v2.13a.6.6 0 01-.6.62.6.6 0 01-.6-.62V8.7h-7.91v12.98h7.9v-1.76a.6.6 0 01.6-.61c.34 0 .61.27.61.61v2.37a.6.6 0 01-.6.62z" fill="#ffffff" id="svg_1" class="selected" fill-opacity="1"/><path d="M40.64 15.8h-9.42a.6.6 0 01-.6-.62.6.6 0 01.6-.62h9.42c.33 0 .6.28.6.62a.6.6 0 01-.6.62z" fill="#ffffff" id="svg_2" class="selected" fill-opacity="1"/><path d="M38.45 19.13a.7.7 0 01-.44-.17.61.61 0 010-.86l2.86-2.99-2.86-2.85a.61.61 0 010-.86c.24-.24.6-.24.84 0l3.3 3.3c.1.1.17.28.17.45 0 .17-.07.3-.17.45l-3.3 3.43a.7.7 0 01-.4.1zM30.71 27H4.31A4.34 4.34 0 010 22.6V4.4C0 1.96 1.92 0 4.3 0h26.41c2.4 0 4.3 1.96 4.3 4.4a.6.6 0 01-.6.62.6.6 0 01-.6-.62 3.12 3.12 0 00-3.1-3.16H4.31c-1.72 0-3.1 1.4-3.1 3.16v18.2a3.12 3.12 0 003.1 3.16h26.4c.34 0 .6.28.6.62 0 .35-.26.62-.6.62z" fill="#ffffff" id="svg_3" class="selected" fill-opacity="1"/><path d="M15.95 20.47h-4.38a3.3 3.3 0 01-3.26-3.33v-1.58c0-1.1.54-2.13 1.45-2.75.26-.2.63-.13.84.14a3.87 3.87 0 006.39 0c.2-.27.57-.34.84-.14.9.62 1.45 1.65 1.45 2.75v1.58a3.4 3.4 0 01-3.33 3.33zM9.99 14.2c-.3.37-.5.86-.5 1.37v1.58c0 1.17.9 2.1 2.05 2.1h4.37c1.15 0 2.05-.93 2.05-2.1v-1.58c0-.51-.16-1-.5-1.37a4.95 4.95 0 01-7.47 0z" fill="#ffffff" id="svg_4" class="selected" fill-opacity="1"/><path d="M13.76 14.05c-2.22 0-4-1.86-4-4.09a4.06 4.06 0 014-4.09c2.22 0 4 1.86 4 4.1a4.06 4.06 0 01-4 4.08zm0-6.97a2.82 2.82 0 00-2.8 2.85 2.82 2.82 0 002.8 2.85c1.55 0 2.8-1.27 2.8-2.85a2.82 2.82 0 00-2.8-2.85zM20.15 13.2c-.74 0-1.48-.28-2.05-.8a.59.59 0 01-.14-.72 4.25 4.25 0 00.07-3.3.65.65 0 01.17-.72 3.11 3.11 0 011.95-.72 3.1 3.1 0 013.06 3.12 3.1 3.1 0 01-3.06 3.13zm-.9-1.49c.26.18.56.24.9.24 1.01 0 1.85-.85 1.85-1.89 0-1.03-.84-1.88-1.85-1.88-.3 0-.57.06-.84.2a5.33 5.33 0 01-.07 3.33z" fill="#ffffff" id="svg_5" class="selected" fill-opacity="1"/><path d="M21.73 18H20.4a.54.54 0 01-.44-.2.83.83 0 01-.17-.49v-.03-1.75c0-.42-.07-.8-.2-1.17a.7.7 0 01.07-.59c.1-.17.3-.27.5-.27.88 0 1.72-.45 2.22-1.17.1-.14.24-.24.4-.24.17-.03.34 0 .48.1.63.49 1 1.28 1 2.07v1.13A2.55 2.55 0 0121.73 18zm-.03-1.24c.74 0 1.31-.62 1.31-1.34V14.3c0-.24-.07-.45-.17-.62-.54.52-1.2.9-1.95 1.03.07.28.07.55.07.83v1.23h.74zM7.4 13.2a3.1 3.1 0 01-3.06-3.14A3.1 3.1 0 017.4 6.94c.7 0 1.41.24 1.95.72.2.17.27.48.17.72a4.13 4.13 0 00.07 3.3c.1.24.07.55-.14.72-.57.48-1.3.8-2.05.8zm0-5.02a1.89 1.89 0 000 3.78c.3 0 .64-.07.91-.25a5.38 5.38 0 01-.07-3.36c-.27-.1-.57-.17-.84-.17z" fill="#ffffff" id="svg_6" class="selected" fill-opacity="1"/><path d="M7.17 18H5.82a2.57 2.57 0 01-2.52-2.58V14.3c0-.79.37-1.58 1-2.06.14-.1.3-.14.48-.1.17.03.3.1.4.24.5.72 1.35 1.16 2.22 1.16.2 0 .4.1.5.28.1.17.14.38.07.58-.13.38-.2.76-.2 1.17v1.79c0 .17-.03.34-.17.48-.1.1-.27.17-.43.17zm-2.5-4.36c-.1.2-.16.41-.16.62v1.13c0 .75.6 1.34 1.31 1.34h.7v-1.24c0-.27.04-.55.07-.82-.7-.1-1.38-.48-1.91-1.03z" fill="#ffffff" id="svg_7" class="selected" fill-opacity="1"/></g></svg>