<svg xmlns="http://www.w3.org/2000/svg" width="66.667" height="66.667"><defs><clipPath id="a" clipPathUnits="userSpaceOnUse"><path d="M0 50h50V0H0Z"/></clipPath></defs><g clip-path="url(#a)" transform="matrix(1.33333 0 0 -1.33333 0 66.667)"><path d="M0 0c0-.719-.585-1.303-1.303-1.303H-24.41c-.717 0-1.301.584-1.301 1.303v11.977h4.403a2.622 2.622 0 0 1 2.611 2.63v17.802h8.286a.773.773 0 0 1-.092-.354v-5.116a5.038 5.038 0 0 1 5.033-5.033H0Zm-.511 23.936c.128-.128.227-.276.308-.433H-5.47a3.44 3.44 0 0 0-3.437 3.436v5.111c.338-.165.655-.374.928-.647zm1.129 1.129-7.469 7.467a4.998 4.998 0 0 1-3.557 1.474h-8.289v5.461c0 1.451-1.17 2.631-2.611 2.631h-16.837a.8.8 0 0 1 0-1.597h16.837c.56 0 1.015-.464 1.015-1.034v-24.86c0-.57-.455-1.034-1.015-1.034h-21.583c-.559 0-1.014.464-1.014 1.034v24.484l1.369-1.391a.799.799 0 0 1 1.138 1.12l-2.74 2.784a.794.794 0 0 1-1.187-.054c-.929-1.136-2.007-2.414-2.283-2.684a.799.799 0 0 1 .438-1.466h.01c.332.005.459.012 1.658 1.431V14.607a2.623 2.623 0 0 1 2.611-2.63h15.582V0a2.901 2.901 0 0 1 2.899-2.898h23.107A2.9 2.9 0 0 1 1.596 0v22.705c0 .891-.347 1.729-.978 2.36" style="fill:#0098da;fill-opacity:1;fill-rule:nonzero;stroke:none" transform="translate(48.187 5.4)"/><path d="M0 0c0-.441.357-.798.798-.798h11.875a.798.798 0 0 1 0 1.596H.798A.798.798 0 0 1 0 0" style="fill:#0098da;fill-opacity:1;fill-rule:nonzero;stroke:none" transform="translate(31.814 23.032)"/><path d="M0 0h-11.875a.798.798 0 0 1 0-1.597H0A.8.8 0 0 1 0 0" style="fill:#0098da;fill-opacity:1;fill-rule:nonzero;stroke:none" transform="translate(44.486 18.517)"/><path d="M0 0h-8.681a.798.798 0 1 1 0-1.597H0A.798.798 0 0 1 0 0" style="fill:#0098da;fill-opacity:1;fill-rule:nonzero;stroke:none" transform="translate(34.644 14.153)"/><path d="M0 0h-8.681a.798.798 0 1 1 0-1.597H0A.798.798 0 0 1 0 0" style="fill:#0098da;fill-opacity:1;fill-rule:nonzero;stroke:none" transform="translate(34.644 9.513)"/><path d="m0 0-2.703-3.457-1.709 1.335a.797.797 0 0 1-1.12-.138.798.798 0 0 1 .136-1.121l1.789-1.395a1.5 1.5 0 0 1 2.102.258L1.259-.983A.799.799 0 0 1 0 0" style="fill:#0098da;fill-opacity:1;fill-rule:nonzero;stroke:none" transform="translate(43.765 13.009)"/><path d="M0 0a2.9 2.9 0 0 0 2.896 2.896A2.9 2.9 0 0 0 5.792 0a2.9 2.9 0 0 0-2.896-2.896A2.9 2.9 0 0 0 0 0m7.389 0a4.499 4.499 0 0 1-4.493 4.493A4.498 4.498 0 0 1-1.597 0a4.498 4.498 0 0 1 4.493-4.494A4.499 4.499 0 0 1 7.389 0" style="fill:#0098da;fill-opacity:1;fill-rule:nonzero;stroke:none" transform="translate(13.191 38.152)"/><path d="M0 0v.433h.433a.798.798 0 0 1 0 1.597H0v.433a.8.8 0 0 1-1.597 0V2.03h-.433a.8.8 0 0 1 0-1.597h.433V0A.8.8 0 0 1 0 0" style="fill:#0098da;fill-opacity:1;fill-rule:nonzero;stroke:none" transform="translate(16.886 36.92)"/><path d="M14.783 29.805h2.609v-6.046h-2.609zm-7.14-7.642h16.889a.798.798 0 0 1 0 1.596h-1.428v12.498a.8.8 0 0 1-1.597 0V23.759h-2.518v6.845a.8.8 0 0 1-.799.798h-4.206a.798.798 0 0 1-.798-.798v-6.845h-2.518v12.498a.8.8 0 0 1-1.597 0V23.759H7.643a.798.798 0 1 1 0-1.596" style="fill:#0098da;fill-opacity:1;fill-rule:nonzero;stroke:none"/></g></svg>