<svg width="43" height="27" fill="none" xmlns="http://www.w3.org/2000/svg"><path d="M36.2 22.91h-9.12a.61.61 0 01-.6-.62V8.07c0-.34.26-.62.6-.62h9.12c.33 0 .6.28.6.62v2.13a.6.6 0 01-.6.62.6.6 0 01-.6-.62V8.7h-7.91v12.98h7.9v-1.76a.6.6 0 01.6-.61c.34 0 .61.27.61.61v2.37a.6.6 0 01-.6.62z" fill="#0098DA"/><path d="M40.6 15.8h-9.42a.6.6 0 01-.6-.62.6.6 0 01.6-.62h9.42c.34 0 .61.28.61.62a.6.6 0 01-.6.62z" fill="#0098DA"/><path d="M38.45 19.13a.7.7 0 01-.44-.17.61.61 0 010-.86l2.86-2.99-2.86-2.85a.61.61 0 010-.86c.24-.24.6-.24.84 0l3.3 3.3c.1.1.17.28.17.45 0 .17-.07.3-.17.45l-3.3 3.43c-.1.07-.26.1-.4.1zM30.71 27H4.31A4.34 4.34 0 010 22.6V4.4C0 1.96 1.92 0 4.3 0h26.41c2.4 0 4.31 1.96 4.31 4.4a.6.6 0 01-.6.62.6.6 0 01-.61-.62 3.12 3.12 0 00-3.1-3.16H4.31c-1.72 0-3.1 1.4-3.1 3.16v18.2a3.12 3.12 0 003.1 3.16h26.4c.34 0 .6.28.6.62 0 .35-.26.62-.6.62z" fill="#0098DA"/><path d="M22.8 13.43a4.96 4.96 0 00-4.87-.86c.24-.75.34-1.47.34-2.23 0-1.34-.37-2.61-1.11-3.71l-.37-.51a6.54 6.54 0 00-5.42-2.48 6.6 6.6 0 00-6.19 6.8c.03 2.1.98 4.16 2.83 6.19-.64.37-1.35.79-2.06 1.13-.7.34-1 1.2-.67 1.92l.7 1.62c.34.75 1.22 1.1 1.96.72.13-.07.23-.14.37-.17.13-.07.2-.24.13-.38-.06-.14-.23-.2-.37-.14-.13.07-.23.14-.37.17a.86.86 0 01-1.17-.44l-.71-1.62a.9.9 0 01.4-1.16 23.88 23.88 0 005.62-3.78c1.31-1.24 1.75-2.13 1.82-2.27.37-.52.87-1.72 1.2-2.99.35-1.37.51-3.1-.23-4.3a6.07 6.07 0 013.1 5.33c0 .86-.17 1.72-.5 2.58a5.12 5.12 0 00-2.53 3.7 24.08 24.08 0 01-5.45 4.06c-.13.07-.2.24-.1.41.07.14.24.21.4.1.78-.44 1.52-.89 2.22-1.37A33.4 33.4 0 0015.54 22c.54.27 1.18.17 1.62-.25.74.45 1.58.7 2.49.7 2.75 0 5-2.31 5-5.13 0-1.37-.53-2.6-1.37-3.53l-.47-.35zM8.55 16.35c-1.78-1.92-2.72-3.91-2.75-5.87a6.15 6.15 0 013.1-5.46c-.75 1.2-.58 2.92-.24 4.29.33 1.27.84 2.47 1.2 2.99.07.1.48.86 1.52 1.92-.8.72-1.75 1.44-2.83 2.13zm3.2-2.54c-.87-.86-1.95-2.23-1.95-3.47 0-1.1.87-2 1.95-2s1.95.9 1.95 2c0 1.24-1.07 2.61-1.95 3.47zm2.42-4.12a2.53 2.53 0 00-2.42-1.9c-1.14 0-2.12.8-2.42 1.9-.37-1.24-.67-2.96-.1-4.16.5-1.06 1.61-1.34 2.76-1.3 1.14.03 1.91.48 2.32 1.3.57 1.2.23 2.92-.14 4.16zm1.62 11.85a29.25 29.25 0 01-3.54-2.06c.85-.62 1.65-1.27 2.4-1.96.03 1.61.8 3.06 1.98 3.98a.9.9 0 01-.84.04zm3.87.38a4.48 4.48 0 01-4.44-4.54c0-2.5 1.98-4.53 4.44-4.53a4.48 4.48 0 014.44 4.53c0 2.51-1.99 4.54-4.44 4.54z" fill="#0098DA"/><path d="M19.65 22.77c-.88 0-1.72-.2-2.5-.65-.5.38-1.17.45-1.74.14a31.47 31.47 0 01-3.67-2.13c-.67.45-1.35.9-2.09 1.3a.54.54 0 01-.74-.2.6.6 0 01.2-.76 24.42 24.42 0 005.32-3.95A5.52 5.52 0 0117 12.74c.3-.79.44-1.61.44-2.37 0-1.82-.85-3.53-2.26-4.63.34 1.2.17 2.57-.1 3.64a10.8 10.8 0 01-1.24 3.06s-.04.03-.04.06c-.17.28-.67 1.14-1.81 2.24a25.33 25.33 0 01-5.66 3.84.64.64 0 00-.3.83l.7 1.61c.08.17.21.28.38.35.17.07.33.03.47-.04.13-.07.23-.14.37-.17.27-.14.6-.03.7.24.07.14.07.28.04.41a.48.48 0 01-.27.31c-.13.07-.24.14-.37.17-.4.21-.87.24-1.31.07a1.74 1.74 0 01-.98-.92l-.7-1.62a1.74 1.74 0 01.8-2.27c.6-.3 1.21-.61 1.79-.96-1.75-2-2.66-4.05-2.7-6.11a6.86 6.86 0 016.43-7.08c2.19-.1 4.24.83 5.65 2.54l.37.52a7.05 7.05 0 01.91 5.7 5.25 5.25 0 014.68 1.03l.43.41a5.5 5.5 0 011.48 3.71 5.34 5.34 0 01-5.24 5.46zm-2.53-1.27l.17.1c.7.42 1.55.66 2.39.66a4.79 4.79 0 004.74-4.84c0-1.28-.47-2.44-1.3-3.37l-.45-.41a4.77 4.77 0 00-4.6-.83l-.48.17.17-.51a6.91 6.91 0 00-.7-5.74l-.37-.51a6.51 6.51 0 00-2.66-1.96l.8.45a6.4 6.4 0 013.2 5.56c0 .9-.17 1.79-.54 2.65l-.03.06-.07.04A4.87 4.87 0 0015 16.56v.07l-.06.06a24.18 24.18 0 01-5.49 4.13s-.03.03 0 .03a26.84 26.84 0 002.22-1.37l.14-.1.13.1c1.15.79 2.4 1.5 3.77 2.2.44.2.98.13 1.31-.21l.1.03zM9.55 4.33a6.35 6.35 0 00-4.07 6.15c.04 2.02.98 4.05 2.76 6l.2.25-.27.17c-.67.41-1.34.8-2.08 1.13-.57.31-.84 1-.57 1.58l.7 1.62c.14.3.37.51.68.65.3.1.64.1.94-.07.13-.07.23-.13.37-.17 0 0 .03-.03 0-.03 0 0-.04-.04-.04 0-.13.07-.23.13-.37.17a.98.98 0 01-.87.03c-.3-.1-.5-.3-.64-.62l-.7-1.61c-.24-.58-.04-1.24.53-1.51a23.67 23.67 0 005.55-3.75c1.11-1.06 1.58-1.85 1.75-2.1.04-.03.04-.06.07-.1.34-.47.84-1.64 1.18-2.91.3-1.24.54-2.92-.2-4.1l-.5-.82a6.1 6.1 0 00-4.32 0l-.53.83c-.74 1.17-.5 2.85-.2 4.09a10.77 10.77 0 001.24 3.02c.13.24.54.9 1.41 1.82l.2.2-.2.18c-.8.72-1.75 1.47-2.82 2.16l-.17.1-.14-.13c-1.85-2-2.79-4.02-2.82-6.05a6.36 6.36 0 013.23-5.7l.7-.48zM8.28 5.7a5.86 5.86 0 00-2.26 4.78c.04 1.85.88 3.7 2.56 5.56.9-.58 1.71-1.2 2.39-1.82a8.86 8.86 0 01-1.32-1.72c0-.03-.03-.03-.03-.06-.37-.55-.9-1.76-1.24-3.06a7.13 7.13 0 01-.1-3.68zm11.37 16.5a4.74 4.74 0 01-4.68-4.78 4.76 4.76 0 014.68-4.78 4.76 4.76 0 014.67 4.78 4.74 4.74 0 01-4.67 4.77zm0-9.08a4.22 4.22 0 00-4.18 4.26 4.24 4.24 0 004.18 4.26 4.24 4.24 0 004.17-4.26 4.22 4.22 0 00-4.17-4.26zm-3.47 8.76c-.17 0-.34-.03-.5-.1a39.37 39.37 0 01-3.57-2.06l-.3-.2.3-.21a19.5 19.5 0 002.36-1.96l.4-.41v.58c.03 1.51.7 2.88 1.88 3.78l.3.24-.3.2c-.17.07-.37.14-.57.14zm-3.46-2.4c.97.65 2.05 1.27 3.2 1.82.06.03.13.07.2.07a5.38 5.38 0 01-1.69-3.3c-.54.48-1.1.93-1.71 1.4zm-.98-5.3l-.17-.16c-.9-.93-2.02-2.3-2.02-3.65a2.2 2.2 0 012.19-2.23c1.21 0 2.19 1 2.19 2.23 0 1.34-1.11 2.72-2.02 3.65l-.17.17zm0-5.52c-.94 0-1.68.75-1.68 1.71 0 1.1.97 2.34 1.68 3.1.7-.76 1.68-2 1.68-3.1 0-.96-.74-1.71-1.68-1.71zm2.42 1.95l-.23-.85a2.28 2.28 0 00-2.19-1.72c-1.04 0-1.92.69-2.19 1.72l-.23.85-.27-.85c-.37-1.28-.7-3.06-.1-4.33.47-1 1.51-1.51 3-1.45 1.24.07 2.08.55 2.52 1.45.6 1.27.26 3.05-.1 4.33l-.2.85zM11.74 4.5c-1.14 0-1.92.38-2.29 1.17-.43.93-.3 2.27-.06 3.26a2.79 2.79 0 012.35-1.37c.98 0 1.88.55 2.36 1.37.23-1 .4-2.3-.07-3.26-.34-.72-1.04-1.1-2.09-1.14a.42.42 0 00-.2-.03z" fill="#0098DA"/><path d="M22.2 16.15h-1.34v-1.38c0-.3-.24-.55-.54-.55h-1.38c-.3 0-.54.24-.54.55v1.38h-1.34c-.3 0-.54.24-.54.55v1.4c0 .31.23.55.54.55h1.34v1.38c0 .3.24.55.54.55h1.38c.3 0 .54-.24.54-.55v-1.38h1.34c.3 0 .54-.24.54-.55v-1.4c0-.31-.23-.55-.54-.55zm-.03 1.92h-1.35c-.3 0-.53.24-.53.55v1.37H19v-1.37c0-.31-.24-.55-.54-.55h-1.35v-1.3h1.35c.3 0 .54-.25.54-.56v-1.37h1.28v1.37c0 .31.23.55.53.55h1.35v1.3z" fill="#0098DA"/><path d="M20.32 20.82h-1.38a.77.77 0 01-.77-.8v-1.1h-1.08a.77.77 0 01-.77-.78v-1.41c0-.45.33-.8.77-.8h1.08v-1.09c0-.45.33-.79.77-.79h1.38c.44 0 .77.34.77.79v1.1h1.11c.44 0 .78.34.78.79v1.4c0 .45-.34.8-.78.8h-1.07v1.1c0 .4-.37.79-.81.79zm-1.55-.59c.04.04.1.07.17.07h1.38c.07 0 .13-.03.17-.07h-1.72zm1.85-1.82a.27.27 0 00-.07.17v1.58c.04-.03.07-.1.07-.17v-1.58zm-1.95 0V20c0 .07.03.14.07.17v-1.58c0-.06 0-.1-.07-.17zm.57 1.3h.78v-1.1c0-.44.33-.78.77-.78h1.08v-.8h-1.08a.77.77 0 01-.77-.78v-1.1h-.78v1.1c0 .44-.33.79-.77.79h-1.08v.79h1.08c.44 0 .77.34.77.79v1.1zm1.42-1.33h1.54c.07 0 .14-.04.17-.07h-1.55a.25.25 0 00-.16.07zm-3.74-.07c.03.03.1.07.17.07h1.55a.25.25 0 00-.17-.07h-1.55zm-.03-1.79a.27.27 0 00-.07.17v1.41c0 .07.03.14.07.17v-1.75zm5.51 0v1.75c.04-.03.07-.1.07-.17v-1.4a.27.27 0 00-.07-.18zm-1.74-.1c.03.03.1.07.16.07h1.55a.25.25 0 00-.17-.07h-1.54zm-3.74.07h1.55c.07 0 .13-.04.17-.07h-1.55a.25.25 0 00-.17.07zm3.63-1.9v1.59c0 .07.04.14.07.17v-1.58c0-.03-.03-.1-.07-.17zm-1.81 0a.27.27 0 00-.07.18v1.58c.03-.03.07-.1.07-.17V14.6zm.03-.03h1.75a.25.25 0 00-.17-.06h-1.38c-.06 0-.13.03-.2.06z" fill="#0098DA"/></svg>