<svg width="43" height="27" fill="none" xmlns="http://www.w3.org/2000/svg"><path d="M36.2 22.91h-9.12a.6.6 0 01-.6-.62V8.07a.6.6 0 01.6-.62h9.12c.33 0 .6.28.6.62v2.13a.6.6 0 01-.6.62.6.6 0 01-.6-.62V8.7h-7.91v12.98h7.9v-1.76a.6.6 0 01.6-.61c.34 0 .61.27.61.61v2.37a.6.6 0 01-.6.62z" fill="#0098DA"/><path d="M40.6 15.8h-9.42a.6.6 0 01-.6-.62.6.6 0 01.6-.62h9.42c.34 0 .61.28.61.62 0 .35-.27.62-.6.62z" fill="#0098DA"/><path d="M38.45 19.17a.7.7 0 01-.44-.17.61.61 0 010-.86l2.86-3-2.86-2.84a.61.61 0 010-.86c.24-.24.6-.24.84 0l3.3 3.3c.1.1.17.27.17.44 0 .17-.07.31-.17.45l-3.3 3.43c-.1.04-.26.1-.4.1zM30.71 27H4.31A4.34 4.34 0 010 22.6V4.4C0 1.96 1.92 0 4.3 0h26.41c2.4 0 4.31 1.96 4.31 4.4a.6.6 0 01-.6.62.61.61 0 01-.61-.62 3.12 3.12 0 00-3.1-3.16H4.31c-1.72 0-3.1 1.4-3.1 3.16v18.2a3.12 3.12 0 003.1 3.16h26.4c.34 0 .6.28.6.62a.6.6 0 01-.6.62z" fill="#0098DA"/><path d="M21 21.92c-.58.68-1.49 1-2.77 1-.54 0-1.14-.08-1.85-.18-5.68-.96-5.98-2.99-5.98-6.18 0-2.37 1.48-3.23 2.38-3.54a5.76 5.76 0 01-1.64-3.16A3.52 3.52 0 0112.3 6.6l-.47-.76c-.07-.14-.07-.31.04-.41l.67-.76c.07-.07.17-.14.3-.1.1 0 .2.07.27.17l.6 1.1.24-.07-.13-1.13c0-.1.03-.2.1-.28.06-.07.17-.1.27-.1h.94c.2 0 .33.14.33.34v.8h.34l.14-1a.4.4 0 01.37-.31l.84.1c.16.04.33.17.3.38l-.1 1.37.7.9c.07.06.1.17.07.27a.56.56 0 01-.13.24s-1.52 1.13-2.02 2.1c-.3.58-.27 1.16-.1 1.47.03.07.1.14.13.14.07-.03.17-.34.2-.51.14-.42.3-.93.68-1.41.6-.76 1.61-1.34 2.32-1.34.23 0 .4.07.54.17.54.41.6 1.72.64 2.1 0 .17-.1.3-.27.34l-1.11.27c-.17.04-.47.14-.5.31-.04.1-.04.41.63 1.24.91 1.1 1.78 2.33 2.26 5.29.23 1.34.53 3.26-.4 4.4z" fill="#0098DA"/><path d="M11.4 12.54c0-.04-1-1.82-1.1-2.85-.1-.96.26-1.41.26-1.41.07-.07.1-.17.07-.31-.03-.1-.07-.2-.17-.24-.03-.04-.4-.2-.84-.2-.27 0-.54.1-.74.27-.47.41-.4 2.06-.27 3.12-.27.28-.6 1-.77 2.68a5.96 5.96 0 001.34 4.37c.07.06.17.1.24.1.2 0 .34-.17.34-.34v-.07c-.04-.21-.14-1.55.2-2.75a3.41 3.41 0 011.31-1.86c.17-.13.24-.34.13-.51z" fill="#0098DA"/></svg>