<svg xmlns="http://www.w3.org/2000/svg" xml:space="preserve" width="66.667" height="66.667"><defs><clipPath clipPathUnits="userSpaceOnUse" id="a"><path d="M0 50h50V0H0Z"/></clipPath></defs><g clip-path="url(#a)" transform="matrix(1.33333 0 0 -1.33333 0 66.667)"><path d="M0 0a2.327 2.327 0 0 1-2.324-2.324v-16.197A2.327 2.327 0 0 1 0-20.846h14.699a2.326 2.326 0 0 1 2.323 2.325v16.197A2.326 2.326 0 0 1 14.699 0Zm14.699-22.539H0a4.022 4.022 0 0 0-4.017 4.018v16.197A4.02 4.02 0 0 0 0 1.692h14.699a4.02 4.02 0 0 0 4.017-4.016v-16.197a4.022 4.022 0 0 0-4.017-4.018" style="fill:#ffffff;fill-opacity:1;fill-rule:nonzero;stroke:none" transform="translate(29.49 29.01)"/><path d="M0 0h-32.204a4.024 4.024 0 0 0-4.02 4.02v33.096a.85.85 0 0 0 1.7 0V4.02a2.323 2.323 0 0 1 2.32-2.321H0A2.323 2.323 0 0 1 2.32 4.02v2.071c0 .47.38.849.85.849s.85-.379.85-.849V4.02A4.024 4.024 0 0 0 0 0" style="fill:#ffffff;fill-opacity:1;fill-rule:nonzero;stroke:none" transform="translate(38.346 .15)"/><path d="M0 0a.85.85 0 0 0-.85.85v5.161a4.268 4.268 0 0 1-1.257 3.035l-8.552 8.553a4.253 4.253 0 0 1-3.03 1.255h-21.453a2.555 2.555 0 0 1-2.552-2.552V8.226a.85.85 0 1 0-1.7 0v8.076a4.258 4.258 0 0 0 4.252 4.253h21.453a5.947 5.947 0 0 0 4.233-1.754l8.552-8.553A5.956 5.956 0 0 0 .85 6.011V.85A.85.85 0 0 0 0 0" style="fill:#ffffff;fill-opacity:1;fill-rule:nonzero;stroke:none" transform="translate(41.516 29.04)"/><path d="M0 0h-7.639a5.996 5.996 0 0 0-5.988 5.989v7.639a.85.85 0 1 0 1.699 0V5.989A4.294 4.294 0 0 1-7.639 1.7H0A.85.85 0 1 0 0 0" style="fill:#ffffff;fill-opacity:1;fill-rule:nonzero;stroke:none" transform="translate(41.446 35.046)"/><path d="M0 0h-6.554a.85.85 0 1 0 0 1.699H0A.85.85 0 1 0 0 0" style="fill:#ffffff;fill-opacity:1;fill-rule:nonzero;stroke:none" transform="translate(22.042 8.52)"/><path d="M0 0h-3.903a.85.85 0 1 0 0 1.699H0A.85.85 0 1 0 0 0" style="fill:#ffffff;fill-opacity:1;fill-rule:nonzero;stroke:none" transform="translate(11.969 8.52)"/><path d="M0 0h-6.554a.85.85 0 1 0 0 1.699H0A.85.85 0 1 0 0 0" style="fill:#ffffff;fill-opacity:1;fill-rule:nonzero;stroke:none" transform="translate(14.619 14.358)"/><path d="M0 0h-3.903a.85.85 0 1 0 0 1.699H0A.85.85 0 1 0 0 0" style="fill:#ffffff;fill-opacity:1;fill-rule:nonzero;stroke:none" transform="translate(22.042 14.358)"/><path d="M0 0h-14.179a.85.85 0 1 0 0 1.699H0A.85.85 0 1 0 0 0" style="fill:#ffffff;fill-opacity:1;fill-rule:nonzero;stroke:none" transform="translate(22.244 20.718)"/><path d="M0 0a.85.85 0 0 0-.85.85v14.693a.85.85 0 1 0 1.7 0V.85A.85.85 0 0 0 0 0" style="fill:#ffffff;fill-opacity:1;fill-rule:nonzero;stroke:none" transform="translate(37.052 10.797)"/><path d="M0 0h-4.967a.848.848 0 1 0 0 1.699H0A.85.85 0 1 0 0 0" style="fill:#ffffff;fill-opacity:1;fill-rule:nonzero;stroke:none" transform="translate(39.535 10.101)"/><path d="M0 0a.849.849 0 0 0-.005 1.699l9.965.056c.469-.012.853-.375.854-.845A.848.848 0 0 0 9.97.056L.005 0Z" style="fill:#ffffff;fill-opacity:1;fill-rule:nonzero;stroke:none" transform="translate(32.07 22.216)"/><path d="m0 0-.001-.002L0 0m-1.032-.002.003-.002-.003.002m.516-.575c-.845-.993-1.295-1.797-1.295-2.106 0-.713.581-1.296 1.294-1.296.714 0 1.296.583 1.296 1.296 0 .31-.45 1.115-1.295 2.106m-.001-5.101a2.998 2.998 0 0 0-2.994 2.995c0 1.181 1.236 2.744 2.272 3.846.373.399 1.071.399 1.446-.001C1.242.064 2.479-1.498 2.479-2.683A3 3 0 0 0-.517-5.678" style="fill:#ffffff;fill-opacity:1;fill-rule:nonzero;stroke:none" transform="translate(32.317 22.408)"/><path d="m0 0 .003-.002L0 0m.516-.575C-.328-1.567-.779-2.372-.779-2.682a1.297 1.297 0 0 1 2.591 0c0 .311-.451 1.116-1.296 2.107m0-5.101a2.997 2.997 0 0 0-2.995 2.994c0 1.182 1.236 2.744 2.272 3.847.192.202.474.298.728.314a.993.993 0 0 0 .718-.315C2.274.065 3.511-1.496 3.511-2.682A2.998 2.998 0 0 0 .516-5.676" style="fill:#ffffff;fill-opacity:1;fill-rule:nonzero;stroke:none" transform="translate(41.575 22.42)"/><path d="M0 0h-11.693c-1.702 0-3.085 1.499-3.085 3.341v2.661a.85.85 0 1 0 1.7 0V3.341c0-.904.621-1.641 1.385-1.641H0c.763 0 1.384.737 1.384 1.641v2.661a.85.85 0 0 0 1.701 0V3.341C3.085 1.499 1.701 0 0 0" style="fill:#ffffff;fill-opacity:1;fill-rule:nonzero;stroke:none" transform="translate(20.697 28.076)"/><path d="M0 0a.85.85 0 0 0-.601 1.451l3.268 3.267a.849.849 0 0 0 1.202 0L6.947 1.64A.85.85 0 1 0 5.745.438L3.268 2.915.601.249A.848.848 0 0 0 0 0" style="fill:#ffffff;fill-opacity:1;fill-rule:nonzero;stroke:none" transform="translate(11.617 36.735)"/><path d="M0 0a.85.85 0 0 0-.85.85v6.775a.85.85 0 0 0 1.7 0V.85A.85.85 0 0 0 0 0" style="fill:#ffffff;fill-opacity:1;fill-rule:nonzero;stroke:none" transform="translate(14.885 33.227)"/></g></svg>