<svg width="44" height="27" fill="none" xmlns="http://www.w3.org/2000/svg"><rect id="backgroundrect" width="100%" height="100%" x="0" y="0" fill="none" stroke="none"/><g class="currentLayer" style=""><title>Layer 1</title><path d="M36.96 22.91h-9.3a.62.62 0 01-.63-.62V8.07c0-.34.28-.62.62-.62h9.3c.35 0 .63.28.63.62v2.13c0 .35-.28.62-.62.62a.62.62 0 01-.62-.62V8.7h-8.07v12.98h8.07v-1.76c0-.34.28-.61.62-.61.34 0 .62.27.62.61v2.37c0 .35-.28.62-.62.62z" fill="#ffffff" id="svg_1" class="selected" fill-opacity="1"/><path d="M41.46 15.8h-9.62a.62.62 0 01-.62-.62c0-.34.28-.62.62-.62h9.62c.34 0 .62.28.62.62 0 .35-.28.62-.62.62z" fill="#ffffff" id="svg_2" class="selected" fill-opacity="1"/><path d="M39.26 19.17a.72.72 0 01-.45-.17.6.6 0 010-.86l2.92-3-2.92-2.88a.6.6 0 010-.86.6.6 0 01.86 0l3.37 3.3c.1.1.17.28.17.45 0 .17-.07.3-.17.45l-3.37 3.43a.84.84 0 01-.41.14zM31.36 27H4.4A4.38 4.38 0 010 22.6V4.4C0 1.96 1.96 0 4.4 0h26.96c2.44 0 4.4 1.96 4.4 4.4 0 .34-.28.62-.62.62a.62.62 0 01-.62-.62c0-1.75-1.4-3.16-3.16-3.16H4.4A3.15 3.15 0 001.24 4.4v18.2c0 1.75 1.4 3.16 3.16 3.16h26.96c.34 0 .62.28.62.62 0 .35-.28.62-.62.62z" fill="#ffffff" id="svg_3" class="selected" fill-opacity="1"/><path d="M15.94 12.02H7.59a.62.62 0 01-.62-.62c0-.34.28-.61.62-.61h8.31c.35 0 .62.27.62.61 0 .35-.24.62-.58.62zM15.94 14.15H7.59a.62.62 0 01-.62-.62c0-.34.28-.61.62-.61h8.31c.35 0 .62.27.62.61 0 .35-.24.62-.58.62zM15.94 16.08H7.59a.62.62 0 01-.62-.62c0-.35.28-.62.62-.62h8.31c.35 0 .62.27.62.62 0 .34-.24.62-.58.62zM12.57 18H7.6a.62.62 0 01-.62-.62c0-.34.28-.62.62-.62h4.98c.35 0 .62.28.62.62 0 .35-.27.62-.62.62zM15.77 20.2h-3.92a.62.62 0 01-.62-.62c0-.34.28-.62.62-.62h3.88c.35 0 .62.28.62.62 0 .34-.27.62-.58.62z" fill="#ffffff" id="svg_4" class="selected" fill-opacity="1"/><path d="M18.14 23.6H5.67a.62.62 0 01-.62-.62V6.77c0-.35.27-.62.62-.62h12.47c.34 0 .61.27.61.62v16.21c0 .34-.27.62-.61.62zM6.29 22.36h11.23V7.4H6.29v14.97z" fill="#ffffff" id="svg_5" class="selected" fill-opacity="1"/><path d="M21.98 21.06h-3.84a.62.62 0 01-.62-.62c0-.34.27-.62.62-.62h3.22V4.84H10.13V6.7c0 .34-.27.62-.62.62a.62.62 0 01-.61-.62V4.23c0-.35.27-.62.61-.62h12.47c.35 0 .62.27.62.62v16.2c0 .35-.27.63-.62.63z" fill="#ffffff" id="svg_6" class="selected" fill-opacity="1"/></g></svg>