<?xml version="1.0" encoding="utf-8"?>
<!-- Generator: Adobe Illustrator 22.0.1, SVG Export Plug-In . SVG Version: 6.00 Build 0)  -->
<svg version="1.1" id="Слой_1" xmlns="http://www.w3.org/2000/svg" xmlns:xlink="http://www.w3.org/1999/xlink" x="0px" y="0px"
	 viewBox="0 0 30 30" style="enable-background:new 0 0 30 30;" xml:space="preserve">
<style type="text/css">
	.st0{fill:#ffffff;}
</style>
<g>
	<g>
		<path class="st0" d="M22.4,25c-0.2,0-0.4,0-0.5,0v3.1c0.1,0,0.2,0,0.4,0c1,0,1.6-0.5,1.6-1.7C23.9,25.5,23.3,25,22.4,25z"/>
		<path class="st0" d="M18.2,25c-0.2,0-0.4,0-0.5,0v1.4c0.1,0,0.2,0,0.4,0c0.6,0,0.9-0.3,0.9-0.8C19,25.3,18.7,25,18.2,25z"/>
		<path class="st0" d="M30,14.6c0-0.1,0-0.2-0.1-0.2L26,10c0,0-0.1-0.1-0.1-0.1c0,0,0,0,0,0c0,0-0.1,0-0.1,0c0,0,0,0,0,0
			c0,0-0.1,0-0.1,0h-9.6c-0.4,0-0.8,0.3-0.8,0.8v18.6c0,0.4,0.4,0.8,0.8,0.8h13.1c0.4,0,0.8-0.4,0.8-0.8V14.6
			C30,14.7,30,14.7,30,14.6z M19.7,26.8c-0.4,0.4-0.9,0.5-1.6,0.5c-0.2,0-0.3,0-0.4,0V29h-1.1v-4.7c0.3-0.1,0.8-0.1,1.5-0.1
			c0.7,0,1.1,0.1,1.5,0.4c0.3,0.2,0.5,0.6,0.5,1.1C20.1,26.2,19.9,26.5,19.7,26.8z M24.3,28.5c-0.5,0.4-1.3,0.6-2.2,0.6
			c-0.6,0-1,0-1.2-0.1v-4.7c0.4-0.1,0.9-0.1,1.5-0.1c0.9,0,1.5,0.2,2,0.5c0.5,0.4,0.8,1,0.8,1.8C25,27.4,24.7,28.1,24.3,28.5z
			 M28.7,25.1h-1.8v1.1h1.7v0.9h-1.7V29h-1.1v-4.8h2.9V25.1z M16.1,23.3V10.6h9.2v4.1c0,0.2,0.2,0.4,0.4,0.4h3.5v8.2H16.1z"/>
		<path class="st0" d="M26.7,18.3c0,0-0.6-0.1-1.5-0.1c-0.3,0-0.5,0-0.8,0c-1.7-1.3-3.1-2.5-3.8-3.3c0-0.1,0-0.2,0-0.2
			c0.1-1,0-1.7-0.3-2.1c-0.2-0.2-0.5-0.3-0.8-0.2c-0.2,0.1-0.5,0.2-0.7,0.6c-0.1,0.4,0.1,0.9,0.6,1.5c0,0,0.2,0.2,0.5,0.5
			c-0.2,1-0.8,3.2-1.1,4.3c-0.6,0.3-1.2,0.8-1.6,1.2l-0.1,0.1c0,0.1-0.2,0.5-0.1,0.9c0.1,0.2,0.2,0.3,0.4,0.4h0.1c0,0,0,0,0.1,0
			c0.3,0,1.1-0.2,1.6-1.8l0.1-0.4c1.5-0.8,3.4-1,4.8-1.1c0.7,0.5,1.4,1,2.1,1.5h0c0,0,0.3,0.2,0.7,0.2c0.5,0,0.9-0.3,1-0.8v0
			c0-0.3,0-0.6-0.2-0.8C27.5,18.4,26.8,18.3,26.7,18.3z M17.8,21.5C17.8,21.5,17.8,21.5,17.8,21.5c0-0.1,0-0.3,0.1-0.4
			c0.2-0.3,0.5-0.5,0.9-0.8C18.4,21.4,17.9,21.5,17.8,21.5z M19.9,14.3c-0.5-0.6-0.5-0.8-0.5-1c0.1-0.2,0.2-0.2,0.2-0.2
			c0.1,0,0.2,0,0.2,0c0.1,0.2,0.2,0.5,0.2,1.3C20,14.4,19.9,14.3,19.9,14.3z M19.7,19.2L19.7,19.2c0.3-1,0.6-2.5,0.8-3.5
			c0.7,0.7,1.8,1.6,3,2.6l0,0C22.4,18.4,20.9,18.7,19.7,19.2z M27.6,19.5c-0.1,0.3-0.3,0.4-0.4,0.4c-0.2,0-0.4-0.1-0.4-0.1
			c-0.5-0.3-0.9-0.6-1.4-1c0.8,0,1.4,0.1,1.4,0.1c0.2,0,0.6,0.1,0.8,0.3C27.6,19.3,27.6,19.4,27.6,19.5z"/>
	</g>
	<path class="st0" d="M13.3,17.9H1.2v-3.3h12.1c0.3,0,0.6-0.3,0.6-0.6v0c0-0.3-0.3-0.6-0.6-0.6H1.2v-3.3h12.1c0.3,0,0.6-0.3,0.6-0.6
		v0c0-0.3-0.3-0.6-0.6-0.6H1.2V5.7h13.2v2.4c0,0.3,0.3,0.6,0.6,0.6h0c0.3,0,0.6-0.3,0.6-0.6V5.7h13.2v3.2c0,1.1,0.4,2.2,1.2,3v0V5.1
		V0.6C30,0.3,29.7,0,29.4,0H15H0.6C0.3,0,0,0.3,0,0.6v4.5v4.5V14v4.5c0,0.3,0.3,0.6,0.6,0.6h12.7c0.3,0,0.6-0.3,0.6-0.6v0
		C13.9,18.2,13.6,17.9,13.3,17.9z M15.6,1.2h13.2v3.3H15.6V1.2z M1.2,1.2h13.2v3.3H1.2V1.2z"/>
	<path class="st0" d="M13,27.6c-3,0-5.5-2.3-6-5.2l1.7,1.2c0.3,0.2,0.6,0.1,0.8-0.2c0.2-0.3,0.1-0.6-0.2-0.8l-2.7-1.9
		c-0.3-0.2-0.6-0.1-0.8,0.1l-2.2,2.7c-0.2,0.3-0.2,0.6,0.1,0.8c0.1,0.1,0.2,0.1,0.4,0.1c0.2,0,0.3-0.1,0.5-0.2l1.3-1.5
		c0.6,3.4,3.5,6,7.1,6c0.3,0,0.6-0.3,0.6-0.6C13.6,27.8,13.3,27.6,13,27.6z"/>
</g>
</svg>
