<svg xmlns="http://www.w3.org/2000/svg" xml:space="preserve" width="66.667" height="66.667"><defs><clipPath clipPathUnits="userSpaceOnUse" id="a"><path d="M0 50h50V0H0Z"/></clipPath></defs><g clip-path="url(#a)" transform="matrix(1.33333 0 0 -1.33333 0 66.667)"><path d="M0 0a5.336 5.336 0 0 1-5.33-5.329A5.335 5.335 0 0 1 0-10.658a5.335 5.335 0 0 1 5.329 5.329A5.336 5.336 0 0 1 0 0m0-12.358c-3.876 0-7.03 3.153-7.03 7.029S-3.876 1.7 0 1.7c3.876 0 7.028-3.153 7.028-7.029S3.876-12.358 0-12.358" style="fill:#ffffff;fill-opacity:1;fill-rule:nonzero;stroke:none" transform="translate(32.621 44.803)"/><path d="M0 0a.85.85 0 0 0-.85.85v6.18a.85.85 0 1 0 1.7 0V.85A.85.85 0 0 0 0 0" style="fill:#ffffff;fill-opacity:1;fill-rule:nonzero;stroke:none" transform="translate(32.621 35.533)"/><path d="M0 0a.85.85 0 0 0-.601 1.451l2.318 2.318a.851.851 0 0 0 1.201-1.203L.601.249A.845.845 0 0 0 0 0" style="fill:#ffffff;fill-opacity:1;fill-rule:nonzero;stroke:none" transform="translate(30.304 39.396)"/><path d="M0 0a.845.845 0 0 0-.601.249l-2.317 2.317a.851.851 0 0 0 1.201 1.203L.601 1.451A.85.85 0 0 0 0 0" style="fill:#ffffff;fill-opacity:1;fill-rule:nonzero;stroke:none" transform="translate(34.939 39.396)"/><path d="M0 0a.843.843 0 0 0-.549.201l-.817.689c-3.576 3.008-7.275 6.12-7.189 9.747v8.865l-2.899 3.657a.85.85 0 1 0 1.332 1.055l3.083-3.888a.85.85 0 0 0 .184-.528v-9.181C-6.922 7.786-3.541 4.941-.271 2.19l.821-.692A.85.85 0 0 0 0 0" style="fill:#ffffff;fill-opacity:1;fill-rule:nonzero;stroke:none" transform="translate(12.7 22.282)"/><path d="M0 0c-.894 0-1.768.357-2.406 1.012l-3.635 3.724a.85.85 0 1 0 1.216 1.188l3.636-3.725a1.656 1.656 0 0 1 2.37 2.307l-5.653 5.768a.853.853 0 0 0-.243.595v2.934a11.978 11.978 0 0 1-1.866 4.635.85.85 0 0 0 1.412.947 13.678 13.678 0 0 0 2.142-5.366.863.863 0 0 0 .012-.143v-2.66l5.411-5.522a3.363 3.363 0 0 0 .828-3.251A3.36 3.36 0 0 0 0 0" style="fill:#ffffff;fill-opacity:1;fill-rule:nonzero;stroke:none" transform="translate(16.556 30.072)"/><path d="M0 0h-15.415a3.938 3.938 0 0 0-3.933 3.933v24.609a.85.85 0 0 0 1.7 0V3.933a2.236 2.236 0 0 1 2.233-2.234H0A.85.85 0 1 0 0 0" style="fill:#ffffff;fill-opacity:1;fill-rule:nonzero;stroke:none" transform="translate(31.201 4.972)"/><path d="M0 0h-10.175a.85.85 0 1 0 0 1.7H0A.85.85 0 0 0 0 0" style="fill:#ffffff;fill-opacity:1;fill-rule:nonzero;stroke:none" transform="translate(23.47 40.77)"/><path d="M0 0a.846.846 0 0 0-.707.376 13.702 13.702 0 0 0-2.142 5.357.873.873 0 0 0-.011.144v2.657l-5.419 5.524a3.337 3.337 0 0 0-.954 2.386 3.354 3.354 0 0 0 5.754 2.296l2.14-2.189v8.844a.85.85 0 0 0 1.398.649c3.586-3.029 6.546-5.809 6.466-9.138V8.043l2.9-3.656A.85.85 0 1 0 8.093 3.33L5.01 7.219a.852.852 0 0 0-.184.528v9.18c.053 2.198-1.951 4.388-4.466 6.613v-9.076a.849.849 0 0 0-1.458-.594l-3.597 3.684a1.649 1.649 0 0 1-1.163.5c-.452.018-.86-.16-1.176-.469a1.657 1.657 0 0 1-.03-2.339l5.66-5.769a.85.85 0 0 0 .243-.595V5.95c.295-1.663.922-3.22 1.866-4.627A.85.85 0 0 0 0 0" style="fill:#ffffff;fill-opacity:1;fill-rule:nonzero;stroke:none" transform="translate(39.398 1.897)"/><path d="M0 0a.85.85 0 0 0-.85.85v10.93a.85.85 0 1 0 1.7 0V.85A.85.85 0 0 0 0 0" style="fill:#ffffff;fill-opacity:1;fill-rule:nonzero;stroke:none" transform="translate(38.868 19.085)"/><path d="M0 0h-11.731a.85.85 0 1 0 0 1.699H0A.85.85 0 1 0 0 0" style="fill:#ffffff;fill-opacity:1;fill-rule:nonzero;stroke:none" transform="translate(29.109 10.7)"/><path d="M0 0h-8.235a.85.85 0 1 0 0 1.699H0A.85.85 0 1 0 0 0" style="fill:#ffffff;fill-opacity:1;fill-rule:nonzero;stroke:none" transform="translate(25.613 16.93)"/><path d="M0 0h-16.972a.85.85 0 1 0 0 1.699H0A.85.85 0 1 0 0 0" style="fill:#ffffff;fill-opacity:1;fill-rule:nonzero;stroke:none" transform="translate(34.35 23.14)"/><path d="M0 0h-11.281a.85.85 0 1 0 0 1.7H0A.85.85 0 1 0 0 0" style="fill:#ffffff;fill-opacity:1;fill-rule:nonzero;stroke:none" transform="translate(34.35 28.738)"/></g></svg>