<svg xmlns="http://www.w3.org/2000/svg" xml:space="preserve" width="66.667" height="66.667"><defs><clipPath clipPathUnits="userSpaceOnUse" id="a"><path d="M0 50h50V0H0Z"/></clipPath></defs><g clip-path="url(#a)" transform="matrix(1.33333 0 0 -1.33333 0 66.667)"><path d="M0 0a.85.85 0 0 0-.85.85v3.349a2.788 2.788 0 0 1-2.785 2.784h-17.566a.85.85 0 0 0 0 1.701h17.566A4.49 4.49 0 0 0 .85 4.199V.85A.85.85 0 0 0 0 0" style="fill:#0098da;fill-opacity:1;fill-rule:nonzero;stroke:none" transform="translate(41.6 34.094)"/><path d="M0 0h-30.126a4.685 4.685 0 0 0-4.68 4.68v19.557a.85.85 0 1 0 1.7 0V4.68a2.984 2.984 0 0 1 2.98-2.981H0A.85.85 0 1 0 0 0" style="fill:#0098da;fill-opacity:1;fill-rule:nonzero;stroke:none" transform="translate(43.165 3.946)"/><path d="M0 0h-31.07a.85.85 0 1 0 0 1.699H0c1.342 0 2.435 1.136 2.435 2.533 0 1.396-1.093 2.532-2.435 2.532h-32.097a.85.85 0 1 0 0 1.699H0c2.279 0 4.134-1.899 4.134-4.231C4.134 1.898 2.279 0 0 0" style="fill:#0098da;fill-opacity:1;fill-rule:nonzero;stroke:none" transform="translate(44.819 3.946)"/><path d="M0 0a.85.85 0 1 0 0 1.699c1.384 0 2.468 1.077 2.468 2.452 0 1.397-1.092 2.533-2.434 2.533h-1.185a.85.85 0 1 0 0 1.699H.034c2.279 0 4.134-1.899 4.134-4.232C4.168 1.862 2.298 0 0 0" style="fill:#0098da;fill-opacity:1;fill-rule:nonzero;stroke:none" transform="translate(12.721 4.01)"/><path d="M0 0h-17.253a.85.85 0 1 0 0 1.699H0A.85.85 0 1 0 0 0" style="fill:#0098da;fill-opacity:1;fill-rule:nonzero;stroke:none" transform="translate(32.36 21.393)"/><path d="M0 0h-12.222a.85.85 0 1 0 0 1.699H0A.85.85 0 1 0 0 0" style="fill:#0098da;fill-opacity:1;fill-rule:nonzero;stroke:none" transform="translate(32.36 16.01)"/><path d="M0 0h-2.692a.85.85 0 1 0 0 1.699H0A.85.85 0 1 0 0 0" style="fill:#0098da;fill-opacity:1;fill-rule:nonzero;stroke:none" transform="translate(17.8 16.01)"/><path d="M0 0h-4.229a.85.85 0 1 0 0 1.7H0A.85.85 0 1 0 0 0" style="fill:#0098da;fill-opacity:1;fill-rule:nonzero;stroke:none" transform="translate(32.36 26.776)"/><path d="M0 0h-10.685a.85.85 0 0 0 0 1.7H0A.85.85 0 0 0 0 0" style="fill:#0098da;fill-opacity:1;fill-rule:nonzero;stroke:none" transform="translate(25.792 26.776)"/><path d="M0 0h-11.989a.85.85 0 0 0 0 1.7H0A.85.85 0 1 0 0 0" style="fill:#0098da;fill-opacity:1;fill-rule:nonzero;stroke:none" transform="translate(32.36 32.16)"/><path d="M0 0c-.683 0-1.238-.663-1.238-1.478v-10.533c0-.815.555-1.478 1.238-1.478h10.928c.682 0 1.238.663 1.238 1.478v10.533C12.166-.663 11.61 0 10.928 0Zm10.928-15.189H0c-1.62 0-2.938 1.426-2.938 3.178v10.533C-2.938.274-1.62 1.7 0 1.7h10.928c1.62 0 2.938-1.426 2.938-3.178v-10.533c0-1.752-1.318-3.178-2.938-3.178" style="fill:#0098da;fill-opacity:1;fill-rule:nonzero;stroke:none" transform="translate(3.801 46.159)"/><path d="M0 0a.85.85 0 0 0-.601 1.451l3.053 3.054a.876.876 0 0 0 1.202 0l2.877-2.877A.85.85 0 1 0 5.329.426L3.053 2.702.601.249A.846.846 0 0 0 0 0" style="fill:#0098da;fill-opacity:1;fill-rule:nonzero;stroke:none" transform="translate(6.244 39.062)"/><path d="M0 0a.85.85 0 0 0-.85.85v6.331a.85.85 0 0 0 1.7 0V.85A.85.85 0 0 0 0 0" style="fill:#0098da;fill-opacity:1;fill-rule:nonzero;stroke:none" transform="translate(9.298 35.784)"/><path d="M0 0a5.257 5.257 0 0 1-5.252-5.251A5.259 5.259 0 0 1 0-10.503a5.26 5.26 0 0 1 5.252 5.252A5.258 5.258 0 0 1 0 0m0-12.202a6.959 6.959 0 0 0-6.951 6.951A6.959 6.959 0 0 0 0 1.7a6.959 6.959 0 0 0 6.951-6.951A6.959 6.959 0 0 0 0-12.202" style="fill:#0098da;fill-opacity:1;fill-rule:nonzero;stroke:none" transform="translate(41.968 30.722)"/><path d="M0 0a.851.851 0 0 0-.85.85v6.316a.85.85 0 1 0 1.7 0V2.32l2.723 1.568a.847.847 0 0 0 .796.027L7.87 2.209V6.83a.85.85 0 1 0 1.699 0V.85A.848.848 0 0 0 8.348.086L4.03 2.189.424.113A.845.845 0 0 0 0 0" style="fill:#0098da;fill-opacity:1;fill-rule:nonzero;stroke:none" transform="translate(37.506 13.92)"/></g></svg>