<svg width="43" height="27" fill="none" xmlns="http://www.w3.org/2000/svg"><rect id="backgroundrect" width="100%" height="100%" x="0" y="0" fill="none" stroke="none"/><g class="currentLayer" style=""><title>Layer 1</title><path d="M36.2 22.91h-9.12a.6.6 0 01-.6-.62V8.07a.6.6 0 01.6-.62h9.12c.33 0 .6.28.6.62v2.13c0 .35-.27.62-.6.62a.6.6 0 01-.6-.62V8.7h-7.91v12.98h7.9v-1.76c0-.34.27-.61.6-.61.34 0 .61.27.61.61v2.37c0 .35-.27.62-.6.62z" fill="#ffffff" id="svg_1" class="selected" fill-opacity="1"/><path d="M40.64 15.8h-9.42a.6.6 0 01-.6-.62.6.6 0 01.6-.62h9.42c.33 0 .6.28.6.62 0 .35-.27.62-.6.62z" fill="#ffffff" id="svg_2" class="selected" fill-opacity="1"/><path d="M38.45 19.17a.7.7 0 01-.44-.17.61.61 0 010-.86l2.86-3-2.86-2.84a.61.61 0 010-.86c.24-.24.6-.24.84 0l3.3 3.3c.1.1.17.27.17.44 0 .18-.07.31-.17.45l-3.3 3.43c-.1.04-.23.1-.4.1zM30.71 27H4.31A4.34 4.34 0 010 22.6V4.4C0 1.96 1.92 0 4.3 0h26.41c2.4 0 4.3 1.96 4.3 4.4a.6.6 0 01-.6.62.6.6 0 01-.6-.62 3.12 3.12 0 00-3.1-3.16H4.31c-1.72 0-3.1 1.4-3.1 3.16v18.2a3.12 3.12 0 003.1 3.16h26.4c.34 0 .6.28.6.62a.6.6 0 01-.6.62z" fill="#ffffff" id="svg_3" class="selected" fill-opacity="1"/><path d="M7.43 23.94a4 4 0 01-2.85-1.2 4.19 4.19 0 010-5.84l8.91-9.14c.24-.24.6-.24.84 0l4.88 4.98c.1.1.17.28.17.45 0 .17-.07.31-.17.45l-8.95 9.13a4.1 4.1 0 01-2.83 1.17zm6.5-14.87l-8.51 8.69a2.93 2.93 0 000 4.09 2.78 2.78 0 004 0l8.51-8.7-4-4.08z" fill="#ffffff" id="svg_4" class="selected" fill-opacity="1"/><path d="M19.44 14.02c-.4 0-.8-.18-1.1-.49l-4.72-4.8c-.3-.31-.47-.7-.47-1.14a1.63 1.63 0 011.58-1.61c.4 0 .81.17 1.11.48l4.71 4.8c.61.63.61 1.66 0 2.27-.3.31-.7.49-1.1.49zm-4.7-6.77a.3.3 0 00-.24.1.37.37 0 00-.1.24c0 .1.03.2.1.24l4.7 4.81c.14.14.38.14.51 0 .07-.07.1-.17.1-.24 0-.1-.03-.2-.1-.24l-4.7-4.8a.38.38 0 00-.28-.11zM14.23 12.16a.7.7 0 01-.44-.17l-1.78-1.82a.61.61 0 010-.86c.24-.24.6-.24.84 0l1.78 1.82c.24.24.24.62 0 .86-.06.1-.23.17-.4.17zM12.21 12.4a.7.7 0 01-.44-.17l-.9-.93a.61.61 0 010-.86c.23-.24.6-.24.84 0l.9.93c.24.24.24.62 0 .86-.1.1-.23.17-.4.17zM11.1 13.53a.7.7 0 01-.44-.17l-.9-.92a.61.61 0 010-.86c.23-.24.6-.24.84 0l.9.92c.24.24.24.62 0 .86-.1.1-.26.17-.4.17zM9.96 14.7a.7.7 0 01-.44-.17l-.9-.93a.61.61 0 010-.86c.23-.24.6-.24.83 0l.91.93c.24.24.24.62 0 .86-.1.1-.23.17-.4.17zM14.4 18.27H4.74a.6.6 0 01-.6-.61.6.6 0 01.6-.62h9.66c.33 0 .6.27.6.62a.6.6 0 01-.6.61zM18.03 7.04a1.9 1.9 0 01-1.88-1.92 1.9 1.9 0 011.88-1.93 1.9 1.9 0 011.88 1.93 1.9 1.9 0 01-1.88 1.92zm0-2.64c-.37 0-.67.3-.67.68 0 .38.3.7.67.7.37 0 .67-.32.67-.7 0-.37-.3-.68-.67-.68zM22.84 10.92c-.84 0-1.51-.68-1.51-1.54s.67-1.55 1.51-1.55 1.52.69 1.52 1.55c0 .86-.68 1.54-1.52 1.54zm0-1.85a.3.3 0 00-.3.3c0 .18.13.32.3.32a.3.3 0 00.3-.31.3.3 0 00-.3-.31zM8.44 21.71c-.7 0-1.3-.58-1.3-1.34 0-.72.56-1.34 1.3-1.34.71 0 1.32.58 1.32 1.34 0 .72-.58 1.34-1.32 1.34zm0-1.44c-.06 0-.1.03-.1.1s.04.1.1.1c.07 0 .1-.03.1-.1s-.03-.1-.1-.1zM22.47 6.46c-.7 0-1.31-.59-1.31-1.34 0-.76.57-1.34 1.31-1.34.7 0 1.31.58 1.31 1.34a1.3 1.3 0 01-1.3 1.34zm0-1.44c-.07 0-.1.03-.1.1s.03.1.1.1.1-.03.1-.1-.03-.1-.1-.1z" fill="#ffffff" id="svg_5" class="selected" fill-opacity="1"/></g></svg>