<svg xmlns="http://www.w3.org/2000/svg" xml:space="preserve" width="66.667" height="66.667"><defs><clipPath id="a" clipPathUnits="userSpaceOnUse"><path d="M0 50h50V0H0Z"/></clipPath></defs><g clip-path="url(#a)" transform="matrix(1.33333 0 0 -1.33333 0 66.667)"><path d="M0 0c.262-.262.462-.565.625-.886h-5.218a3.457 3.457 0 0 0-3.453 3.453v5.212a3.51 3.51 0 0 0 .91-.642zm6.789 7.43c.209-.209.371-.448.51-.698H2.611A3.112 3.112 0 0 0-.498 9.84v4.689c.251-.139.49-.301.699-.51zM-7.652-29.091h-19.092c-.995 0-1.804.809-1.804 1.804v33.46a2 2 0 0 0 1.999 1.998h16.803V2.567a5.16 5.16 0 0 1 5.153-5.153h5.605V-5.56a.85.85 0 1 1 1.699 0v3.117c0 .228-.037.449-.066.672.001.013.007.023.007.035 0 .036-.016.066-.02.101a5.103 5.103 0 0 1-1.43 2.837l-7.136 7.137a5.18 5.18 0 0 1-2.833 1.448c-.044.007-.083.026-.129.026-.016 0-.029-.008-.045-.009-.229.03-.457.068-.692.068h-9.647v3.058c0 1.102.897 1.999 1.999 1.999h15.084V9.84a4.814 4.814 0 0 1 4.808-4.809H7.7V-5.326a.85.85 0 1 1 1.699 0V5.23c0 .21-.034.414-.06.619.001.011.007.021.007.032 0 .034-.016.062-.019.095a4.765 4.765 0 0 1-1.336 2.656l-6.588 6.589a4.749 4.749 0 0 1-2.665 1.336c-.03.004-.055.018-.086.018-.01 0-.019-.006-.03-.006-.204.026-.407.06-.616.06h-15.287a3.703 3.703 0 0 1-3.699-3.699V9.872h-5.569a3.703 3.703 0 0 1-3.699-3.699v-33.46a3.507 3.507 0 0 1 3.504-3.503h19.092a.85.85 0 1 1 0 1.699" style="fill:#0098da;fill-opacity:1;fill-rule:nonzero;stroke:none" transform="translate(31.219 31.891)"/><path d="m0 0 1.137-1.126c.263-.262.607-.392.951-.392.348 0 .695.133.958.398l2.66 2.681a.855.855 0 0 1-1.214 1.206L2.086.341l-.883.874A.855.855 0 1 1 0 0" style="fill:#0098da;fill-opacity:1;fill-rule:nonzero;stroke:none" transform="translate(6.404 19.094)"/><path d="M0 0c.263-.261.606-.391.951-.391.347 0 .695.133.958.398l2.66 2.682a.856.856 0 0 1-1.214 1.204L.949 1.467l-.883.874a.855.855 0 0 1-1.203-1.214Z" style="fill:#0098da;fill-opacity:1;fill-rule:nonzero;stroke:none" transform="translate(7.276 23.904)"/><path d="M0 0h-13.536a.85.85 0 1 1 0-1.699H0A.85.85 0 1 1 0 0" style="fill:#0098da;fill-opacity:1;fill-rule:nonzero;stroke:none" transform="translate(20.537 13.719)"/><path d="M0 0h-9.097a.85.85 0 1 1 0-1.699H0A.85.85 0 1 1 0 0" style="fill:#0098da;fill-opacity:1;fill-rule:nonzero;stroke:none" transform="translate(20.537 9.093)"/><path d="M0 0a.85.85 0 1 1 0-1.699h1.138a.85.85 0 1 1 0 1.699z" style="fill:#0098da;fill-opacity:1;fill-rule:nonzero;stroke:none" transform="translate(7.001 9.093)"/><path d="M0 0h-6.04a.85.85 0 1 1 0-1.699H0A.85.85 0 1 1 0 0" style="fill:#0098da;fill-opacity:1;fill-rule:nonzero;stroke:none" transform="translate(20.537 19.276)"/><path d="M0 0h-6.04a.855.855 0 0 1 0-1.71H0A.855.855 0 0 1 0 0" style="fill:#0098da;fill-opacity:1;fill-rule:nonzero;stroke:none" transform="translate(20.537 25.223)"/><path d="M0 0a2.612 2.612 0 0 0-2.609-2.609H-18.39A2.612 2.612 0 0 0-20.999 0v14.782a2.613 2.613 0 0 0 2.609 2.609h15.781A2.613 2.613 0 0 0 0 14.782Zm-2.609 19.091H-18.39a4.314 4.314 0 0 1-4.309-4.309V0a4.314 4.314 0 0 1 4.309-4.309h15.781A4.313 4.313 0 0 1 1.699 0v14.782a4.313 4.313 0 0 1-4.308 4.309" style="fill:#0098da;fill-opacity:1;fill-rule:nonzero;stroke:none" transform="translate(48.082 5.163)"/><path d="M0 0c-1.159 0-2.14.639-2.14 1.395 0 .755.981 1.393 2.174 1.393.75.042 1.514-.317 1.983-.934a.85.85 0 1 1 1.353 1.03A4.038 4.038 0 0 1 .85 4.431v.701a.85.85 0 1 1-1.7 0v-.727c-1.708-.313-2.989-1.54-2.989-3.01 0-1.707 1.722-3.094 3.839-3.094 1.157 0 2.135-.638 2.135-1.392 0-.755-.981-1.392-2.175-1.392-.74-.054-1.514.316-1.983.933a.849.849 0 1 1-1.353-1.029A4.066 4.066 0 0 1-.85-6.105v-.723a.85.85 0 1 1 1.7 0v.729c1.705.315 2.984 1.541 2.984 3.008C3.834-1.357 2.15 0 0 0" style="fill:#0098da;fill-opacity:1;fill-rule:nonzero;stroke:none" transform="translate(37.585 12.916)"/></g></svg>