<svg width="33" height="33" fill="none" xmlns="http://www.w3.org/2000/svg"><path d="M16.45 24.38a7.94 7.94 0 000-15.86 7.94 7.94 0 000 15.86zm0-14.59a6.75 6.75 0 010 13.52 6.75 6.75 0 010-13.52z" fill="#0098DA"/><path d="M16.45 19.2a2.63 2.63 0 002.63-2.65 2.63 2.63 0 00-2.63-2.65c-.3 0-.58.3-.58.6 0 .29.29.58.58.58.78 0 1.46.69 1.46 1.47a1.5 1.5 0 01-1.46 1.47A1.5 1.5 0 0115 16.55c0-.3-.3-.59-.58-.59-.3 0-.59.3-.59.59.1 1.47 1.27 2.64 2.63 2.64z" fill="#0098DA"/><path d="M24.43 16.55c0-4.4-3.6-8.03-7.98-8.03a8.04 8.04 0 000 16.06 8.04 8.04 0 007.98-8.03zm-7.98 6.66a6.65 6.65 0 01-6.62-6.66 6.58 6.58 0 016.62-6.66c3.6 0 6.62 2.94 6.62 6.66a6.58 6.58 0 01-6.62 6.66z" fill="#0098DA"/><path d="M16.45 13.8c-.39 0-.68.3-.68.7 0 .38.3.68.68.68.78 0 1.36.59 1.36 1.37 0 .78-.58 1.37-1.36 1.37-.78 0-1.36-.59-1.36-1.37 0-.4-.3-.69-.68-.69-.4 0-.68.3-.68.69a2.73 2.73 0 105.45 0 2.67 2.67 0 00-2.73-2.74z" fill="#0098DA"/><path d="M32.9 15.96a16.7 16.7 0 00-5.45-11.75c-.1-.1-.3-.2-.49-.2s-.38.1-.48.2c-.2.3-.2.69.1.98a14.9 14.9 0 014.38 6.95 14.24 14.24 0 00-4.29-2.84c0-.39-.2-.78-.48-1.07l-1.46-1.47c-.3-.3-.69-.4-1.08-.4h-.1a13.19 13.19 0 00-2.82-4.3c1.08.29 2.05.78 3.02 1.27.1.1.2.1.3.1.19 0 .48-.1.58-.3.1-.2.1-.29.1-.49s-.2-.29-.3-.39A16.16 16.16 0 0016.45.2C7.4 0 .1 7.44.1 16.55v.59c.1 2.35.58 4.6 1.55 6.56.1.2.4.39.59.39.1 0 .2 0 .3-.1.28-.2.48-.59.28-.88-.29-.69-.58-1.37-.87-2.15a14.23 14.23 0 004.28 2.84c0 .39.2.78.49 1.07l1.46 1.47c.29.3.68.4 1.07.4h.1a13.19 13.19 0 002.82 4.3 14.62 14.62 0 01-7.6-5.19c-.1-.2-.29-.3-.48-.3-.2 0-.3 0-.4.1-.28.2-.28.7-.09.99A16.6 16.6 0 0015.96 33h.59C25.6 33 33 25.56 33 16.45c-.1-.1-.1-.3-.1-.49zM17.13 1.37c2.05.4 4 2.35 5.36 5.48l-.68.69c-.88-.49-1.85-.88-2.83-1.18V5.3c0-.88-.68-1.57-1.56-1.57h-.29V1.37zm-1.26 0v2.35h-.4c-.87 0-1.55.69-1.55 1.57v1.17c-.97.3-1.95.69-2.82 1.18l-.59-.59c1.37-3.23 3.22-5.29 5.36-5.68zm-3.8.59a14.33 14.33 0 00-2.82 4.3h-.1c-.39 0-.78.2-1.07.4L6.62 8.13c-.3.3-.49.68-.49 1.07v.1a12.62 12.62 0 00-4.28 2.84C3.5 7.34 7.3 3.43 12.07 1.96zm-5.16 8.62l.59.58A14.5 14.5 0 006.33 14H5.26c-.88 0-1.56.69-1.56 1.57v.4H1.46c.39-2.16 2.34-4.12 5.45-5.4zm0 11.94c-3.11-1.27-5.06-3.23-5.45-5.29H3.8v.4c0 .88.68 1.56 1.55 1.56h1.07c.3.98.69 1.96 1.17 2.84l-.68.5zm8.96 9.1c-2.05-.38-4-2.34-5.36-5.47l.59-.6c.87.5 1.85.89 2.82 1.18v1.18c0 .88.68 1.56 1.56 1.56h.39v2.16zm-.4-3.61c-.09 0-.19-.1-.19-.2v-1.66c0-.3-.2-.6-.48-.69a8.22 8.22 0 01-3.31-1.37c-.1-.1-.2-.1-.3-.1h-.1c-.09 0-.09 0-.19.1-.1 0-.2.1-.2.1l-1.26 1.27c-.1 0-.1 0-.1-.1L7.8 23.8s0-.1.1-.1l1.16-1.18c.2-.2.3-.59.1-.88a8.32 8.32 0 01-1.36-3.33c-.1-.3-.3-.49-.68-.49H5.26c-.1 0-.2-.1-.2-.2v-2.05c0-.1.1-.2.2-.2H6.9c.3 0 .59-.2.68-.49.2-1.17.68-2.35 1.37-3.33.19-.29.1-.58-.1-.88L7.59 9.4c0-.1 0-.1.1-.1l1.56-1.56c.1 0 .1 0 .1.1L10.5 9c.1.1.3.2.49.2.1 0 .3 0 .39-.1a8.22 8.22 0 013.3-1.37c.3-.1.5-.3.5-.69V5.29c0-.1.1-.2.2-.2h2.03c.1 0 .2.1.2.2v1.66c0 .3.2.59.49.69 1.16.2 2.33.68 3.3 1.37.1.1.2.1.4.1.1 0 .1 0 .19-.1.1 0 .2-.1.2-.1l1.16-1.17.1-.1c.1 0 .1 0 .1.1L25.1 9.3c0 .1 0 .1-.1.1l-1.16 1.18c-.2.2-.3.58-.1.88a8.32 8.32 0 011.36 3.33c.1.29.3.49.69.49h1.65c.1 0 .2.1.2.2v2.05c0 .1-.1.2-.2.2H25.8c-.3 0-.59.19-.69.48a8.32 8.32 0 01-1.36 3.33c-.2.3-.1.6.1.88l1.26 1.28c0 .1 0 .1-.1.1l-1.55 1.56c-.1 0-.1 0-.1-.1l-.97-1.07c-.1-.1-.3-.2-.49-.2-.1 0-.29 0-.39.1a8.22 8.22 0 01-3.3 1.37c-.3.1-.5.3-.5.69v1.66c0 .1-.1.2-.19.2h-2.04zm1.66 3.62v-2.35h.4c.87 0 1.55-.69 1.55-1.57v-1.17c.97-.3 1.95-.69 2.82-1.18l.59.69c-1.37 3.23-3.31 5.29-5.36 5.58zm3.7-.59a14.33 14.33 0 002.82-4.3h.1c.4 0 .78-.2 1.07-.4l1.46-1.47c.3-.3.49-.68.49-1.07v-.1a14.24 14.24 0 004.28-2.84 15.46 15.46 0 01-10.22 10.18zM26 22.52l-.68-.68c.49-.88.88-1.86 1.17-2.84h1.17c.87 0 1.55-.69 1.55-1.57v-.4h2.34c-.39 2.26-2.34 4.22-5.55 5.5zm3.21-6.66v-.39c0-.88-.68-1.57-1.55-1.57h-1.17a14.5 14.5 0 00-1.17-2.83l.58-.6c3.12 1.38 5.16 3.24 5.46 5.4H29.2z" fill="#0098DA"/><path d="M32.8 15.96a16.1 16.1 0 00-5.45-11.65.59.59 0 00-.77 0 .6.6 0 000 .78c2.23 1.96 3.7 4.5 4.47 7.35a13.96 13.96 0 00-4.57-3.14v-.1c0-.39-.2-.78-.4-.97l-1.45-1.47c-.3-.3-.68-.4-1.17-.4a14.57 14.57 0 00-3.11-4.7c1.16.3 2.33.79 3.4 1.38.3.2.59.1.78-.2.2-.3.1-.59-.2-.78A16.16 16.16 0 0016.36 0 16.44 16.44 0 000 16.45v.59c.1 2.25.58 4.5 1.56 6.56.1.2.29.3.48.3.1 0 .2 0 .3-.1.29-.1.39-.5.29-.79-.4-.88-.68-1.66-.98-2.64a13.96 13.96 0 004.58 3.13v.1c0 .4.2.78.39.98l1.46 1.47c.3.3.68.39 1.17.39a14.1 14.1 0 003.11 4.7 15.21 15.21 0 01-7.98-5.29.51.51 0 00-.78-.1c-.29.2-.29.6-.1.79a16.47 16.47 0 0012.27 6.26h.58c8.96 0 16.36-7.34 16.36-16.45.1 0 .1-.2.1-.39zM26 22.62l-.79-.78c.59-.88.98-1.86 1.17-2.94h1.17A1.5 1.5 0 0029 17.43v-.49h2.53c-.2 2.25-2.24 4.3-5.55 5.68zm5.64-6.66H29.1v-.49A1.5 1.5 0 0027.65 14h-1.17a13.2 13.2 0 00-1.17-2.93l.78-.79c3.21 1.47 5.26 3.53 5.55 5.68zm-9.06-9l-.77.78a7.66 7.66 0 00-2.92-1.18V5.3a1.5 1.5 0 00-1.47-1.47h-.48V1.27c2.24.4 4.28 2.35 5.64 5.68zm-7.1-3.14a1.5 1.5 0 00-1.46 1.47v1.17c-1.07.3-2.05.69-2.92 1.18l-.78-.79c1.46-3.23 3.5-5.19 5.64-5.58v2.55h-.48zm-3.02-2.06a13.56 13.56 0 00-3.11 4.7c-.4 0-.78.1-1.17.4L6.72 8.31c-.3.3-.4.6-.4.98v.1c-1.94.88-3.5 1.86-4.57 3.13A15.64 15.64 0 0112.46 1.76zM3.89 15.47v.5H1.36c.3-2.16 2.34-4.22 5.65-5.59l.78.78a7.75 7.75 0 00-1.17 2.94H5.26c-.78 0-1.37.59-1.37 1.37zm-2.53 1.67H3.9v.49c0 .78.69 1.46 1.46 1.46h1.17c.3 1.08.68 2.06 1.17 2.94l-.78.79c-3.21-1.57-5.26-3.63-5.55-5.68zm6.23 6.85c-.1-.1-.1-.1-.1-.2s0-.2.1-.2l1.17-1.17c.2-.2.2-.49.1-.68A8.32 8.32 0 017.5 18.4c-.1-.3-.3-.49-.59-.49H5.26c-.2 0-.3-.1-.3-.3v-2.05c0-.2.1-.3.3-.3H6.9c.3 0 .49-.19.59-.48.19-1.18.68-2.35 1.36-3.33.2-.2.1-.5-.1-.69L7.6 9.5c-.1-.1-.1-.1-.1-.2s0-.2.1-.2l1.46-1.46c.1-.1.3-.1.4 0L10.6 8.8c.2.2.49.2.68.1a8.22 8.22 0 013.31-1.37c.3-.1.49-.3.49-.59V5.3c0-.2.1-.3.29-.3h2.04c.2 0 .3.1.3.3v1.66c0 .3.2.5.48.59 1.17.2 2.34.69 3.31 1.37.1.1.2.1.3.1H22c.1 0 .1-.1.2-.1l1.16-1.17c.1-.1.3-.1.4 0L25.2 9.2c.1.1.1.1.1.2s0 .2-.1.2l-1.17 1.17a.6.6 0 00-.1.69 8.32 8.32 0 011.37 3.33c.1.29.3.49.58.49h1.66c.2 0 .3.1.3.29v2.06c0 .2-.1.29-.3.29h-1.66c-.29 0-.48.2-.58.49a8.32 8.32 0 01-1.36 3.33c0 .2 0 .49.2.68l1.16 1.18c.1.1.1.1.1.2s0 .2-.1.2l-1.36 1.46c-.1.1-.3.1-.4 0l-1.16-1.18a.6.6 0 00-.68-.1 8.22 8.22 0 01-3.31 1.38c-.3.1-.49.3-.49.59v1.66c0 .2-.1.3-.3.3h-2.03c-.2 0-.3-.1-.3-.3v-1.66c0-.3-.2-.5-.48-.6a8.22 8.22 0 01-3.31-1.36c-.1-.1-.2-.1-.3-.1h-.1H11c-.1 0-.1.1-.2.1l-1.16 1.17c-.1.1-.3.1-.4 0L7.6 24zm9.45 7.74v-2.55h.48a1.5 1.5 0 001.46-1.47v-1.17c1.07-.3 2.05-.69 2.92-1.18l.78.79c-1.46 3.23-3.5 5.28-5.64 5.58zm-6.62-5.58l.77-.79c.88.59 1.85.98 2.93 1.18v1.17c0 .79.68 1.47 1.46 1.47h.48v2.55c-2.24-.3-4.28-2.35-5.64-5.58zm10.02 5.09a14.05 14.05 0 003.12-4.6c.39 0 .78-.1 1.17-.4l1.46-1.47c.29-.29.39-.58.39-.97v-.1c1.94-.88 3.5-1.86 4.57-3.14a15.33 15.33 0 01-10.7 10.68z" fill="#0098DA"/></svg>