<svg width="35" height="36" fill="none" xmlns="http://www.w3.org/2000/svg"><rect id="backgroundrect" width="100%" height="100%" x="0" y="0" fill="none" stroke="none"/><g class="currentLayer" style=""><title>Layer 1</title><path d="M17.5 26.73c-.2 0-.38-.1-.58-.3l-7.2-9.47v-.1a10.62 10.62 0 01-2.22-6.5C7.5 4.64 12.02 0 17.6 0c5.57 0 10.1 4.64 10.1 10.36 0 2.36-.78 4.63-2.22 6.5l-7.3 9.57c-.3.2-.49.3-.68.3zm-6.63-10.55l6.63 8.77 6.73-8.77a9.02 9.02 0 001.92-5.63 8.8 8.8 0 00-8.65-8.87c-4.71 0-8.65 4.04-8.65 8.87a8.43 8.43 0 002.02 5.63c-.1 0-.1-.1 0 0z" fill="#ffffff" id="svg_1" class="selected" fill-opacity="1"/><path d="M17.5 16.87a6.36 6.36 0 01-6.15-6.31c0-1.68.67-3.26 1.82-4.44a5.87 5.87 0 016.06-1.58c.39.1.58.49.48.88-.1.4-.48.6-.86.5-1.73-.5-3.47 0-4.72 1.28a5.09 5.09 0 00-1.44 3.45c0 1.28.48 2.57 1.44 3.45a4.84 4.84 0 003.37 1.48c1.25 0 2.5-.49 3.37-1.48a5.01 5.01 0 001.25-4.83c-.1-.4.1-.79.48-.89.38-.1.77.1.86.5.67 2.27 0 4.63-1.54 6.21a6.8 6.8 0 01-4.42 1.78z" fill="#ffffff" id="svg_2" class="selected" fill-opacity="1"/><path d="M21.35 7.3c-.2 0-.39-.1-.48-.2a.67.67 0 010-.98c.28-.3.67-.3.96 0 .29.3.29.69 0 .98-.1.2-.3.2-.48.2zM17.5 36c-4.62 0-8.94-.79-12.12-2.17C1.92 32.35 0 30.28 0 28.01c0-1.97 1.35-3.75 3.94-5.13a26.29 26.29 0 019.33-2.66c.38 0 .67.2.77.6.1.39-.2.68-.58.78-3.46.4-6.63 1.28-8.84 2.47C2.5 25.25 1.35 26.63 1.35 28c0 1.68 1.63 3.26 4.52 4.54 3.07 1.38 7.2 2.07 11.63 2.07 4.42 0 8.56-.79 11.63-2.07 2.89-1.28 4.52-2.86 4.52-4.54 0-1.97-2.3-3.85-6.05-5.13-.39-.1-.58-.5-.48-.89.1-.39.48-.59.86-.49C32.4 22.98 35 25.35 35 28.01c0 2.27-1.92 4.34-5.38 5.82C26.35 35.21 22.02 36 17.5 36z" fill="#ffffff" id="svg_3" class="selected" fill-opacity="1"/><path d="M24.71 22.1a.81.81 0 01-.67-.8c.1-.39.48-.59.77-.59.38.1.57.5.57.8-.1.29-.38.58-.67.58zM11.63 24.56a.72.72 0 01-.67-.5c-.1-.39.1-.78.48-.88.39-.1.77.2.77.59.1.4-.2.69-.48.79h-.1z" fill="#ffffff" id="svg_4" class="selected" fill-opacity="1"/><path d="M17.5 30.48c-5.2 0-10.38-1.38-10.38-4.05 0-.69.38-1.67 2.01-2.46.39-.2.77 0 .97.3.19.39 0 .78-.3.98-.76.4-1.24.89-1.24 1.18 0 .4.57 1.09 2.4 1.68 1.73.6 4.14.89 6.64.89s4.9-.3 6.63-.89c1.73-.6 2.4-1.28 2.4-1.68 0-.79-2.4-2.17-6.82-2.56-.39 0-.68-.4-.68-.8 0-.39.39-.68.77-.68 3.75.3 8.08 1.48 8.08 3.94-.1 2.86-5.38 4.15-10.48 4.15z" fill="#ffffff" id="svg_5" class="selected" fill-opacity="1"/></g></svg>