<svg width="49" height="39" viewBox="0 0 49 39" fill="none" xmlns="http://www.w3.org/2000/svg">
<g clip-path="url(#clip0)">
<path d="M37.5729 10.2632H29.2539V11.4761H37.5729V10.2632Z" fill="white"/>
<path d="M34.2819 13.622H29.2539V14.835H34.2819V13.622Z" fill="white"/>
<path d="M46.5317 25.2847V11.3828L46.4403 11.2895C46.4403 11.1029 46.3489 10.9163 46.2575 10.823L41.5037 5.9713C41.2295 5.878 40.9552 5.6914 40.681 5.878H27.6082C27.1511 5.878 26.8769 6.1579 26.8769 6.53111V27.8971H24.9571V11.3828L24.8657 11.2895C24.8657 11.1029 24.7743 10.9163 24.6828 10.823L19.9291 5.9713C19.6549 5.878 19.3806 5.6914 19.1063 5.878H5.94216C5.57649 5.878 5.30224 6.1579 5.30224 6.53111V27.8971H0.731343C0.274254 27.8971 0 28.177 0 28.5503C0 30.5096 1.5541 32.0024 3.47388 32.0024H21.4832C22.1231 32.0024 22.7631 31.8158 23.3116 31.5359C23.8601 31.8158 24.4086 32.0024 25.1399 32.0024H43.1493C45.069 32.0024 46.6231 30.5096 46.6231 28.5503V27.5239L48.0858 28.5503L49.0914 27.0574L46.5317 25.2847ZM41.6866 8.39714L42.7836 9.51676L43.972 10.823H41.5952V8.39714H41.6866ZM20.1119 8.39714L21.209 9.51676L22.3974 10.823H20.1119V8.39714ZM3.29104 30.6962C2.46828 30.6962 1.64552 30.1364 1.37127 29.2967H17.8265C18.0093 29.6699 18.1007 30.2297 18.375 30.6962H3.29104ZM21.3004 30.7895C20.2034 30.7895 19.1978 29.8565 19.1978 28.7369C19.1978 28.3636 18.9235 28.0837 18.4664 28.0837H6.58209V7.37082H18.6493V11.4761C18.6493 11.8493 18.9235 12.1292 19.3806 12.1292H23.403V27.8038V28.6436C23.403 28.8302 23.403 29.0168 23.3116 29.2034C23.3116 29.2967 23.2202 29.4833 23.1287 29.5766C22.9459 29.9498 22.5802 30.323 22.2146 30.5096C21.9403 30.6962 21.666 30.7895 21.3004 30.7895ZM24.9571 30.6962C24.7743 30.6962 24.5914 30.6962 24.3172 30.6029C24.5914 30.2297 24.7743 29.7632 24.8657 29.2967H39.4925C39.6754 29.6699 39.7668 30.2297 40.041 30.6962H24.9571ZM44.9776 24.1651L42.6007 22.4857C43.0578 21.6459 43.3321 20.7129 43.3321 19.7799C43.3321 16.6077 40.8638 14.0885 37.7556 14.0885C34.6474 14.0885 32.1791 16.6077 32.1791 19.7799C32.1791 22.9522 34.6474 25.4713 37.7556 25.4713C39.2183 25.4713 40.4981 24.9115 41.5037 23.9785L44.9776 26.4043V28.6436C44.9776 29.7632 43.972 30.6962 42.875 30.6962C41.778 30.6962 40.7724 29.7632 40.7724 28.6436C40.7724 28.2703 40.4981 27.9904 40.041 27.9904H28.1567V7.37082H40.2239V11.4761C40.2239 11.8493 40.4981 12.1292 40.9552 12.1292H44.9776V24.1651ZM41.9608 19.7799C41.9608 20.6196 41.6866 21.4593 41.2295 22.2058C40.4067 23.4187 39.1269 24.1651 37.7556 24.1651C35.4702 24.1651 33.5504 22.2058 33.5504 19.8732C33.5504 17.5407 35.4702 15.5814 37.7556 15.5814C40.041 15.5814 41.9608 17.4474 41.9608 19.7799Z" fill="white"/>
<path d="M16.0905 25.7512H7.77148V26.9641H16.0905V25.7512Z" fill="white"/>
<path d="M12.7995 23.2321H7.77148V24.445H12.7995V23.2321Z" fill="white"/>
<path d="M12.9811 20.6196H7.95312V21.8325H12.9811V20.6196Z" fill="white"/>
<path d="M35.7441 22.2057H40.2236V17.634H35.7441V22.2057ZM37.1154 19.0335H38.7609V20.7129H37.1154V19.0335Z" fill="white"/>
<path d="M8.68359 15.6747H13.1631V11.1962H8.68359V15.6747ZM10.0549 12.5957H11.7004V14.2751H10.0549V12.5957Z" fill="white"/>
<path d="M17.0039 24.7249H21.4834V20.1531H17.0039V24.7249ZM18.3752 21.646H20.0207V23.3254H18.3752V21.646Z" fill="white"/>
<path d="M29.2536 1.95934L27.5167 0.186614C27.2424 1.06618e-05 26.8768 1.06618e-05 26.6939 0.186614C26.5111 0.466518 26.5111 0.839724 26.6939 1.02633L27.6995 2.05264H13.8954C13.5297 2.05264 13.1641 2.33255 13.1641 2.79905C13.1641 3.26556 13.4383 3.54547 13.8954 3.54547H27.6995L26.8767 4.47848C26.6939 4.75838 26.6939 5.13159 26.9682 5.31819C27.0596 5.41149 27.2424 5.5048 27.3338 5.5048C27.5167 5.5048 27.6995 5.41149 27.7909 5.31819L29.345 3.54547C29.7107 2.98566 29.6193 2.33255 29.2536 1.95934Z" fill="white"/>
<path d="M14.7192 35.8278L16.7304 33.7751C17.0046 33.5885 17.3703 33.5885 17.5531 33.7751C17.7359 34.055 17.7359 34.4283 17.5531 34.6149L16.5475 35.6412H28.6147C28.9803 35.6412 29.346 35.9211 29.346 36.3876C29.346 36.8541 29.0718 37.134 28.6147 37.134H16.6389L17.4617 38.067C17.6445 38.3469 17.6445 38.7201 17.3703 38.9067C17.2789 39 17.096 39.0933 17.0046 39.0933C16.8218 39.0933 16.6389 39 16.5475 38.9067L14.7192 36.7608C14.5363 36.3876 14.5363 36.0144 14.7192 35.8278Z" fill="white"/>
</g>
<defs>
<clipPath id="clip0">
<rect width="49" height="39" fill="white"/>
</clipPath>
</defs>
</svg>
