<svg id="Слой_1" data-name="Слой 1" xmlns="http://www.w3.org/2000/svg" viewBox="0 0 29.99055 29.99055"><defs><style>.cls-1{fill:#ffffff;}.cls-2,.cls-3{fill:none;stroke:#ffffff;stroke-linecap:round;stroke-linejoin:round;}.cls-2{stroke-width:0.95px;}.cls-3{stroke-width:0.9px;}</style></defs><title>icons for icons Healthcare</title><path class="cls-1" d="M3.6627,7.94519A.52515.52515,0,0,1,3.138,7.4205V3.19078a.52557.52557,0,0,1,.525-.52485H7.8921a.52485.52485,0,0,1,0,1.0497H4.18739V7.4205A.52515.52515,0,0,1,3.6627,7.94519Z"/><path class="cls-1" d="M26.73279,7.94519a.52515.52515,0,0,1-.52469-.52469V3.71563H22.50339a.52485.52485,0,0,1,0-1.0497h4.2294a.52526.52526,0,0,1,.52468.52469V7.4205A.52515.52515,0,0,1,26.73279,7.94519Z"/><path class="cls-1" d="M3.6627,26.78587a.52515.52515,0,0,1-.52468-.52468V22.03131a.52469.52469,0,1,1,1.04937,0v3.70487H7.8921a.52485.52485,0,0,1,0,1.04969Z"/><path class="cls-1" d="M22.50339,26.78587a.52485.52485,0,0,1,0-1.04969H26.2081V22.03131a.52469.52469,0,1,1,1.04937,0v4.22988a.52515.52515,0,0,1-.52468.52468Z"/><rect class="cls-1" x="4.15403" y="14.40783" width="21.75409" height="1.01117" rx="0.47491" ry="0.47491"/><path class="cls-2" d="M8.12043,13.19339l2.28477-2.76775a.79112.79112,0,0,1,1.111-.14447l1.63443,1.24058a.68017.68017,0,0,0,.94629-.11206l.78405-.92953"/><path class="cls-2" d="M16.179,8.80957l.71121-.75207a.68884.68884,0,0,1,1.11687.0997l2.77466,4.12994"/><path class="cls-3" d="M14.72271,6.47605a1.38283,1.38283,0,1,1-1.64913-.96594"/><path class="cls-1" d="M19.93928,24.264H9.80253a.40127.40127,0,0,1-.36042-.22525.42279.42279,0,0,1,.04506-.428l3.40145-4.4827a.39412.39412,0,0,1,.31536-.15767.37791.37791,0,0,1,.31537.13516l2.41029,2.88334,1.39663-1.66695a.38674.38674,0,0,1,.3379-.13516.35943.35943,0,0,1,.31534.18023l2.32023,3.26626a.41559.41559,0,0,1,.02251.428A.50169.50169,0,0,1,19.93928,24.264ZM10.636,23.453h8.53739L17.6191,21.268,16.26755,22.9124a.43548.43548,0,0,1-.63074,0l-2.4103-2.88334Z"/><path class="cls-1" d="M16.2,19.8939A1.62954,1.62954,0,0,1,14.57809,18.272,1.59618,1.59618,0,0,1,16.2,16.67265a1.62956,1.62956,0,0,1,1.62187,1.62189A1.61028,1.61028,0,0,1,16.2,19.8939Zm0-2.41032a.811.811,0,1,0,.8109.811A.82214.82214,0,0,0,16.2,17.48358Z"/></svg>