<svg id="Слой_1" data-name="Слой 1" xmlns="http://www.w3.org/2000/svg" xmlns:xlink="http://www.w3.org/1999/xlink" viewBox="0 0 29.99055 29.99055"><defs><style>.cls-1{fill:none;}.cls-2{fill:#0098da;}.cls-3{clip-path:url(#clip-path);}.cls-4{fill:#e30a17;}.cls-5{fill:#fff;}</style><clipPath id="clip-path"><circle class="cls-1" cx="8.56846" cy="8.36579" r="6.41137"/></clipPath></defs><title>icons for icons Healthcare</title><path class="cls-2" d="M8.29062,19.76427v2.992L5.861,19.4532a.525.525,0,0,0-.94775.31107v4.59144a.52486.52486,0,1,0,1.04971,0v-2.992L8.39258,24.6665a.52488.52488,0,0,0,.94775-.31079V19.76427a.52486.52486,0,1,0-1.04971,0Zm0,0"/><path class="cls-2" d="M13.36207,20.28912a.52486.52486,0,0,0,0-1.04971H11.23745a.52505.52505,0,0,0-.52486.52486v4.59144a.525.525,0,0,0,.52486.52486h2.12462a.52486.52486,0,0,0,0-1.04971H11.7623V22.58541h1.59977a.52486.52486,0,0,0,0-1.04972H11.7623V20.28912Zm0,0"/><path class="cls-2" d="M19.12562,24.71213a.5248.5248,0,0,0,.91-.35642V19.76427a.52486.52486,0,0,0-1.04972,0v3.25082L18.0335,21.9856l-.015-.015-.014-.014a.52463.52463,0,0,0-.74159.029l-.95244,1.02977v-3.2511a.52486.52486,0,1,0-1.04971,0v4.59144a.52478.52478,0,0,0,.91.35642l1.47758-1.59725Zm0,0"/><path class="cls-2" d="M24.16453,23.83086H21.93445a.52486.52486,0,1,0,0,1.04971h2.23008a1.6723,1.6723,0,0,0,0-3.3446H23.08144a.62343.62343,0,0,1,0-1.24685h2.23008a.52486.52486,0,1,0,0-1.04971H23.08144a1.67314,1.67314,0,0,0,0,3.34628h1.08309a.62259.62259,0,0,1,0,1.24517Zm0,0"/><path class="cls-2" d="M15.37346,27.06034a.52486.52486,0,1,0,0,1.04971h.00133a.52486.52486,0,0,0-.00133-1.04971Zm0,0"/><path class="cls-2" d="M25.87642,16.05886H4.325a3.20334,3.20334,0,0,0-2.6606,3.1516v5.69879a3.204,3.204,0,0,0,3.19976,3.20081h7.87634a.52487.52487,0,0,0,0-1.04973H4.86418a2.15292,2.15292,0,0,1-2.15-2.15108V19.21046a2.15267,2.15267,0,0,1,2.15-2.15081H25.33737a2.15289,2.15289,0,0,1,2.15,2.15081v5.69879a2.153,2.153,0,0,1-2.15,2.15108H17.45529a.52487.52487,0,1,0,0,1.04973h7.88208a3.204,3.204,0,0,0,3.19972-3.20081V19.21046A3.20326,3.20326,0,0,0,25.87642,16.05886Z"/><g class="cls-3"><g id="_Группа_" data-name="&lt;Группа&gt;"><rect id="_Прямоугольник_" data-name="&lt;Прямоугольник&gt;" class="cls-4" x="1.11524" y="1.95442" width="19.23411" height="12.82274"/></g></g><g id="_Группа_2" data-name="&lt;Группа&gt;"><polygon id="_Контур_" data-name="&lt;Контур&gt;" class="cls-5" points="13.328 7.455 12.264 7.801 11.607 6.896 11.607 8.014 10.544 8.36 11.607 8.705 11.607 9.823 12.264 8.919 13.328 9.264 12.671 8.36 13.328 7.455"/><path id="_Контур_2" data-name="&lt;Контур&gt;" class="cls-5" d="M8.90249,10.82179a2.462,2.462,0,1,1,1.833-4.10509,3.07746,3.07746,0,1,0,0,3.28624A2.45543,2.45543,0,0,1,8.90249,10.82179Z"/></g><path class="cls-2" d="M18.06526,8.196a.59424.59424,0,1,1,0-1.18847h8.4913a.59424.59424,0,0,1,0,1.18847Z"/><path class="cls-2" d="M18.06526,5.58a.59424.59424,0,1,1,0-1.18848h8.4913a.59424.59424,0,0,1,0,1.18848Z"/><path class="cls-2" d="M18.06526,10.812a.59424.59424,0,1,1,0-1.18847h8.4913a.59424.59424,0,0,1,0,1.18847Z"/><path class="cls-2" d="M18.06526,13.42857a.59424.59424,0,1,1,0-1.18847h8.4913a.59424.59424,0,0,1,0,1.18847Z"/></svg>