<svg xmlns="http://www.w3.org/2000/svg" xml:space="preserve" width="39.73" height="39.73"><defs><clipPath clipPathUnits="userSpaceOnUse" id="a"><path d="M0 29.8h29.8V0H0Z"/></clipPath></defs><g clip-path="url(#a)" transform="matrix(1.33333 0 0 -1.33333 0 39.73)"><path d="M4.4 13c-.2-.2-.2-.5 0-.7.1-.1.2-.1.3-.1.1 0 .2.1.3.1.3.3.7.5 1.1.5.4 0 .8-.2 1.1-.5.1-.1.2-.1.3-.1.1 0 .2 0 .3.1.2.2.2.5 0 .7-.5.5-1.1.7-1.8.7-.5 0-1.1-.3-1.6-.7M3 14.7c.1 0 .3-.1.4-.1.3 0 .6.1.8.2.4.2.7.6.8 1v.4c-.1.1-.2.2-.3.2h-.1c-.2 0-.4-.1-.5-.4-.1-.2-.2-.3-.3-.4-.1-.1-.2-.1-.4-.1H3.1c-.2 0-.4-.1-.5-.4-.1 0 .1-.3.4-.4M8.2 14.9c.3-.1.5-.2.8-.2.1 0 .3 0 .4.1.1 0 .2.1.3.2.1.1.1.2 0 .4s-.2.4-.5.4H8.9c-.1 0-.2 0-.4.1s-.3.2-.3.4c-.1.2-.2.4-.5.4h-.1c-.3-.1-.4-.3-.3-.6.2-.6.5-1 .9-1.2" fill="#ffffff"/><path d="M13.6 16.8c-.6 0-1.1.1-1.6.2-.6 1.6-1.9 2.9-3.5 3.5-.1.5-.2 1.1-.2 1.6 0 2.9 2.4 5.3 5.3 5.3s5.3-2.4 5.3-5.3-2.4-5.3-5.3-5.3m0 11.6c-3.4 0-6.2-2.8-6.2-6.2 0-.4 0-.8.1-1.3-.5 0-.9.1-1.3.1-1 0-2-.2-2.9-.7-.2-.1-.3-.4-.2-.7.1-.2.2-.3.4-.3.1 0 .2 0 .2.1a5.34 5.34 0 0 0 7.8-4.7c0-2.9-2.4-5.3-5.3-5.3a5.34 5.34 0 0 0-4.7 7.8c.1.1.1.2 0 .4 0 .1-.1.2-.2.3h-.2c-.2 0-.3-.1-.4-.3a6.23 6.23 0 0 1 5.5-9.1c3.4 0 6.2 2.8 6.2 6.2 0 .4 0 .8-.1 1.3.4-.1.8-.1 1.3-.1 3.4 0 6.2 2.8 6.2 6.2 0 3.4-2.8 6.3-6.2 6.3" fill="#ffffff"/><path d="M15 21.1c-.1 0-.2-.1-.3-.1-.3-.3-.7-.5-1.1-.5-.4 0-.8.1-1.1.4-.1.1-.2.1-.3.1-.1 0-.2-.1-.3-.1-.2-.2-.2-.5 0-.7.5-.5 1.1-.7 1.8-.7s1.3.3 1.8.7c.2.2.2.5 0 .7-.2.1-.4.2-.5.2M12.1 22.2c.1 0 .2.1.3.1.1.1.1.2.1.3 0 .1.1.3 0 .4-.3.3-.7.5-1.2.5-.4 0-.9-.2-1.2-.5-.1-.1-.1-.2-.1-.3 0-.1.1-.2.1-.3.1-.1.2-.1.3-.1.1 0 .2.1.3.1.1.1.3.2.5.2s.4-.1.5-.2c.2-.2.3-.2.4-.2M15.9 23.5c-.4 0-.9-.2-1.2-.5-.1-.1-.1-.2-.1-.3 0-.1.1-.2.1-.3.1-.1.2-.1.3-.1.1 0 .2.1.3.1.1.1.3.2.5.2s.4-.1.5-.2c.1-.1.2-.1.3-.1.1 0 .2.1.3.1.1.1.1.2.1.3 0 .1.1.2.1.3-.4.3-.8.5-1.2.5M2.1 18.3c.1 0 .2 0 .3.1.2.2.2.5 0 .7-.1.1-.2.1-.3.1-.1 0-.3-.1-.3-.1-.2-.2-.2-.5 0-.7.1 0 .2-.1.3-.1" fill="#ffffff"/><path d="M29.3 27.2H18.6v2.1c0 .3-.2.5-.5.5H3.9c-.3 0-.5-.2-.5-.5v-9.5c.3.2.6.3 1 .4v8.6h13.2v-1.6h-1.2c.1-.1.2-.1.4-.2.3-.2.5-.5.7-.8h11.3V.9H11.7v12.6c0-.1-.1-.1-.1-.2v-.1c0-.7-.4-1.3-.9-1.8V3.5H4.4v5.6c-.4.1-.7.3-1 .6V3.1c0-.3.2-.5.5-.5h6.8V.5c0-.3.2-.5.5-.5h18.1c.3 0 .5.2.5.5v26.2c0 .3-.2.5-.5.5" fill="#ffffff"/><path d="M29.16.71H11.31v5.9h17.85z" fill="#ffffff"/><path d="M13.86 4.45h-.53c-.2 0-.35.15-.35.32 0 .14.15.32.35.32h1.76c.18 0 .36-.14.36-.32 0-.17-.17-.32-.36-.32h-.53V1.84c0-.17-.16-.32-.35-.32-.2 0-.35.15-.35.32ZM17.9 1.56h-1.33c-.24 0-.46.09-.46.36v2.81c0 .18.16.36.38.36h1.36c.2 0 .35-.15.35-.33 0-.18-.16-.3-.35-.3h-1.04v-.81h.95c.17 0 .34-.14.34-.32s-.15-.32-.34-.32h-.95V2.2h1.1c.18 0 .34-.14.34-.31 0-.18-.16-.33-.35-.33M19.48 1.72c-.06-.09-.15-.2-.32-.2-.18 0-.34.16-.34.32 0 .06.02.13.05.17l.86 1.38-.8 1.26a.42.42 0 0 0-.03.17c0 .16.15.31.33.31.16 0 .28-.1.35-.23l.56-.93.57.93c.07.1.18.23.35.23.18 0 .33-.14.33-.32a.42.42 0 0 0-.04-.16l-.8-1.26.87-1.38a.36.36 0 0 0 .05-.17c0-.16-.16-.32-.33-.32-.18 0-.27.1-.33.2l-.67 1.1ZM22.86 4.45h-.53c-.2 0-.35.15-.35.32 0 .14.15.32.35.32h1.76c.18 0 .36-.14.36-.32 0-.17-.17-.32-.36-.32h-.53V1.84c0-.17-.16-.32-.35-.32-.2 0-.35.15-.35.32ZM26.35 2.92c-.11.05-.23.1-.37.14-.49.15-1.02.31-1.02 1.04 0 .64.45 1.03 1.16 1.03.3 0 1-.07 1-.45 0-.16-.12-.31-.34-.31-.1 0-.16.03-.25.05a1 1 0 0 1-.38.08c-.24 0-.48-.09-.48-.38 0-.22.13-.3.21-.34l.36-.13c.5-.16 1.03-.33 1.03-1.04 0-.7-.53-1.1-1.24-1.1-.37 0-1.08.14-1.08.49 0 .16.15.31.33.31.08 0 .16-.02.25-.06.13-.04.29-.1.5-.1.35 0 .52.16.52.43 0 .23-.11.3-.2.34" fill="#0098da"/><path d="M18.6 13.7h-4.4a.5.5 0 1 0 0 .98h4.4a.5.5 0 0 0 0-.99M18.6 11.7h-4.4a.5.5 0 1 0 0 1h4.4a.5.5 0 1 0 0-1M18.6 9.72h-4.4a.5.5 0 1 0 0 .99h4.4a.5.5 0 1 0 0-.99M26.58 21.78h-4.4a.5.5 0 1 0 0 .99h4.4a.5.5 0 0 0 0-.99M26.58 19.8h-4.4a.5.5 0 1 0 0 .98h4.4a.5.5 0 0 0 0-.99M26.58 17.8h-4.4a.5.5 0 1 0 0 1h4.4a.5.5 0 0 0 0-1" fill="#ffffff"/><path d="M24.2 15.12a3.1 3.1 0 1 0 0-6.2 3.1 3.1 0 0 0 0 6.2" fill="#f0f0f0"/><path d="M27.3 12.03a3.1 3.1 0 0 1-2.02 2.9v-5.8a3.1 3.1 0 0 1 2.02 2.9" fill="#d80027"/><path d="M21.1 12.03a3.1 3.1 0 0 1 2.03-2.9v5.8a3.1 3.1 0 0 1-2.02-2.9" fill="#0052b4"/><path d="M26.96 10.78a3.06 3.06 0 0 0-3.43-1.71 3.07 3.07 0 0 0-2.24 2.13c-.3 1.08.02 2.26.84 3.03a3.05 3.05 0 0 0 3.31.56 3.06 3.06 0 0 0 1.52-4.01m-2.76 4.67a3.47 3.47 0 0 1-3.22-2.26 3.46 3.46 0 0 1 1.04-3.81 3.45 3.45 0 0 1 3.95-.3 3.47 3.47 0 0 1 1.6 3.64 3.47 3.47 0 0 1-3.37 2.73" fill="#c7c7c7"/></g></svg>