<svg version="1.1" id="Слой_1" xmlns="http://www.w3.org/2000/svg" x="0" y="0" viewBox="0 0 50 50" xml:space="preserve"><style>.st0{fill:#fff}</style><path class="st0" d="M47.8 30.9c.4 0 .7-.3.7-.7V17.6c0-1-.8-1.7-1.7-1.7h-2.1v-2.2c0-.7-.6-1.3-1.3-1.3h-8.9V7.5c0-1-.8-1.8-1.8-1.8H29c-.4 0-.7.3-.7.7 0 .4.3.7.7.7h3.7c.3 0 .5.2.5.5v10.3c0 .3-.2.5-.5.5h-.6c-.4 0-.8.2-1 .6l-.8 1.3-.8-1.3c-.2-.3-.6-.6-1-.6H10.9c-.3 0-.5-.2-.5-.5V7.5c0-.3.2-.5.5-.5h15.3c.4 0 .7-.3.7-.7 0-.4-.3-.7-.7-.7H10.9c-1 .1-1.9.9-1.9 1.9v4.9H6.6c-.7 0-1.3.6-1.3 1.3v2.2H3.2c-1 0-1.7.8-1.7 1.7v20.5c0 2.4 1.9 4.3 4.3 4.3H21c.2 0 .3.1.3.2s0 .1.2.5c.2.7.9 1.2 1.6 1.2h3.6c.8 0 1.4-.5 1.6-1.2.2-.4.2-.4.2-.5 0-.1.2-.2.3-.2H44c2.4 0 4.3-1.9 4.3-4.3V33c0-.4-.3-.7-.7-.7-.4 0-.7.3-.7.7v5.1c0 1.6-1.3 2.9-2.9 2.9H29c-.8 0-1.4.5-1.6 1.2l-.2.4c0 .1-.1.3-.4.3h-3.6c-.2 0-.3-.1-.3-.2s0-.1-.2-.5c-.2-.7-.9-1.2-1.6-1.2H5.8a2.9 2.9 0 01-2.9-2.9V17.6c0-.2.2-.4.4-.4h2.1v19.9c0 .7.6 1.3 1.3 1.3h3.6c.4 0 .7-.3.7-.7s-.3-.7-.7-.7H6.7V13.8H9v4c0 1 .8 1.8 1.8 1.8h13.4v15.8c0 .9-.8 1.7-1.7 1.7H13c-.4 0-.7.3-.7.7 0 .4.3.7.7.7h9.7c1 0 1.8-.4 2.4-1.1.6.7 1.4 1.1 2.4 1.1h16c.7 0 1.3-.6 1.3-1.3V17.3h2.1c.2 0 .4.2.4.4v12.6c-.2.3.1.6.5.6zm-4.5 6.2h-16c-.9 0-1.7-.8-1.7-1.7V19.6h2.8l.9 1.6c.4.7 1.5.7 1.9 0l.9-1.6h.4c.5 0 1-.2 1.3-.6h5.8c.4 0 .7-.3.7-.7 0-.4-.3-.7-.7-.7h-5.3v-3.9h8.8l.2 23.4z"/><path class="st0" d="M39.8 22.4H29.2c-.4 0-.7.3-.7.7 0 .4.3.7.7.7h10.6c.4 0 .7-.3.7-.7 0-.4-.3-.7-.7-.7zM39.8 27.1H29.2c-.4 0-.7.3-.7.7s.3.7.7.7h10.6c.4 0 .7-.3.7-.7s-.3-.7-.7-.7zM39.8 31.8H29.2c-.4 0-.7.3-.7.7 0 .4.3.7.7.7h10.6c.4 0 .7-.3.7-.7 0-.4-.3-.7-.7-.7zM10.2 23.8h10.6c.4 0 .7-.3.7-.7 0-.4-.3-.7-.7-.7H10.2c-.4 0-.7.3-.7.7 0 .3.3.7.7.7zM10.2 28.5h10.6c.4 0 .7-.3.7-.7s-.3-.7-.7-.7H10.2c-.4 0-.7.3-.7.7s.3.7.7.7zM10.2 33.2h10.6c.4 0 .7-.3.7-.7 0-.4-.3-.7-.7-.7H10.2c-.4 0-.7.3-.7.7 0 .4.3.7.7.7zM24.3 40.3v.4c0 .4.3.7.7.7s.7-.3.7-.7v-.4c0-.4-.3-.7-.7-.7s-.7.4-.7.7zM15.9 10c-.1-.3-.4-.5-.7-.5-.3 0-.6.2-.7.5l-1.9 4.9c-.1.4 0 .8.4.9.4.1.8 0 .9-.4l.3-.8h2.1l.3.8c.1.4.5.5.9.4.4-.1.5-.5.4-.9l-2-4.9zm-1.2 3.3l.5-1.3.5 1.3h-1zM21.6 9.4h-1.4c-.4 0-.7.3-.7.7v5c0 .2.1.4.2.5.1.1.3.2.5.2h1.7a2 2 0 002-2c0-.6-.3-1.2-.7-1.5.2-.3.3-.6.3-.9-.1-1.1-.9-2-1.9-2zm0 1.4c.3 0 .5.2.5.5s-.2.5-.5.5h-.8v-.9l.8-.1zm.2 3.6h-1v-1.3h1c.4 0 .7.3.7.7 0 .3-.3.6-.7.6zM28.8 10.8c.4 0 .7.1 1 .3.3.2.7.1 1-.2.2-.3.1-.7-.2-1-.5-.4-1.1-.5-1.8-.5-1.8 0-3.2 1.4-3.2 3.2s1.4 3.2 3.2 3.2c.7 0 1.3-.2 1.8-.7l.3-.3c.2-.3.2-.7-.1-1-.3-.2-.7-.2-1 .1l-.1.1c-.2.2-.5.3-.9.3-1 0-1.8-.8-1.8-1.8s.8-1.7 1.8-1.7z"/></svg>