<svg xmlns="http://www.w3.org/2000/svg" xml:space="preserve" width="66.667" height="66.667"><defs><clipPath clipPathUnits="userSpaceOnUse" id="a"><path d="M0 50h50V0H0Z"/></clipPath></defs><g clip-path="url(#a)" transform="matrix(1.33333 0 0 -1.33333 0 66.667)"><path d="M0 0h-.554a5.438 5.438 0 0 0-5.433 5.433V31.58a5.44 5.44 0 0 0 5.433 5.434H0a.85.85 0 1 0 0-1.701h-.554a3.738 3.738 0 0 1-3.734-3.733V5.433A3.739 3.739 0 0 1-.554 1.699H0A.85.85 0 1 0 0 0" style="fill:#ffffff;fill-opacity:1;fill-rule:nonzero;stroke:none" transform="translate(35.137 6.685)"/><path d="M0 0h-4.291a.85.85 0 1 0 0 1.699H0A.85.85 0 1 0 0 0" style="fill:#ffffff;fill-opacity:1;fill-rule:nonzero;stroke:none" transform="translate(34.29 24.343)"/><path d="M0 0a.751.751 0 0 1-.189-.5v-6.642a.14.14 0 0 1 .14-.14h7.522a.14.14 0 0 1 .14.14v9.287a.14.14 0 0 1-.14.14H3.237a.75.75 0 0 1-.534-.222.888.888 0 0 0-.086-.075Zm7.473-8.982H-.049c-1.014 0-1.84.825-1.84 1.84V-.5c0 .657.255 1.273.72 1.737a.757.757 0 0 0 .086.075l2.63 1.999a2.44 2.44 0 0 0 1.689.674h4.237c1.014 0 1.84-.826 1.84-1.84v-9.287c0-1.015-.826-1.84-1.84-1.84" style="fill:#ffffff;fill-opacity:1;fill-rule:nonzero;stroke:none" transform="translate(38.942 45.184)"/><path d="M0 0h-2.387a.85.85 0 0 0 0 1.7H0c.417 0 .756.339.756.756v1.743a.85.85 0 1 0 1.699 0V2.456A2.458 2.458 0 0 0 0 0" style="fill:#ffffff;fill-opacity:1;fill-rule:nonzero;stroke:none" transform="translate(40.31 44.098)"/><path d="M0 0h-4.943a.85.85 0 1 0 0 1.7H0A.85.85 0 1 0 0 0" style="fill:#ffffff;fill-opacity:1;fill-rule:nonzero;stroke:none" transform="translate(45.125 41.952)"/><path d="M0 0h-4.943a.85.85 0 1 0 0 1.7H0A.85.85 0 1 0 0 0" style="fill:#ffffff;fill-opacity:1;fill-rule:nonzero;stroke:none" transform="translate(45.125 39.204)"/><path d="M0 0a.751.751 0 0 1-.189-.5v-6.642c0-.077.063-.141.14-.141h7.522c.077 0 .14.064.14.141v9.287a.14.14 0 0 1-.14.14H3.237a.754.754 0 0 1-.535-.222.68.68 0 0 0-.085-.075Zm7.473-8.982H-.049c-1.014 0-1.84.825-1.84 1.84V-.5c0 .657.255 1.273.72 1.737a.757.757 0 0 0 .086.075l2.631 1.999a2.438 2.438 0 0 0 1.688.674h4.237c1.014 0 1.84-.826 1.84-1.84v-9.287c0-1.015-.826-1.84-1.84-1.84" style="fill:#ffffff;fill-opacity:1;fill-rule:nonzero;stroke:none" transform="translate(38.942 27.573)"/><path d="M0 0h-2.387a.85.85 0 0 0 0 1.7H0c.417 0 .756.339.756.755v1.743a.85.85 0 1 0 1.699 0V2.455A2.457 2.457 0 0 0 0 0" style="fill:#ffffff;fill-opacity:1;fill-rule:nonzero;stroke:none" transform="translate(40.31 26.488)"/><path d="M0 0h-4.943a.85.85 0 1 0 0 1.699H0A.85.85 0 1 0 0 0" style="fill:#ffffff;fill-opacity:1;fill-rule:nonzero;stroke:none" transform="translate(45.125 24.343)"/><path d="M0 0h-4.943a.85.85 0 1 0 0 1.699H0A.85.85 0 1 0 0 0" style="fill:#ffffff;fill-opacity:1;fill-rule:nonzero;stroke:none" transform="translate(45.125 21.595)"/><path d="M0 0a.751.751 0 0 1-.189-.5v-6.643a.14.14 0 0 1 .14-.14h7.522a.14.14 0 0 1 .14.14v9.287a.14.14 0 0 1-.14.141H3.238a.754.754 0 0 1-.535-.222.718.718 0 0 0-.087-.076Zm7.473-8.982H-.049c-1.014 0-1.84.825-1.84 1.839V-.5c0 .656.255 1.272.72 1.736a.632.632 0 0 0 .087.076L1.547 3.31a2.444 2.444 0 0 0 1.691.674h4.235c1.014 0 1.84-.825 1.84-1.84v-9.287a1.842 1.842 0 0 0-1.84-1.839" style="fill:#ffffff;fill-opacity:1;fill-rule:nonzero;stroke:none" transform="translate(38.942 9.964)"/><path d="M0 0h-2.387a.85.85 0 0 0 0 1.699H0c.417 0 .756.339.756.756v1.743a.85.85 0 1 0 1.699 0V2.455A2.458 2.458 0 0 0 0 0" style="fill:#ffffff;fill-opacity:1;fill-rule:nonzero;stroke:none" transform="translate(40.31 8.878)"/><path d="M0 0h-4.943a.85.85 0 1 0 0 1.699H0A.85.85 0 1 0 0 0" style="fill:#ffffff;fill-opacity:1;fill-rule:nonzero;stroke:none" transform="translate(45.125 6.732)"/><path d="M0 0h-4.943a.85.85 0 1 0 0 1.699H0A.85.85 0 1 0 0 0" style="fill:#ffffff;fill-opacity:1;fill-rule:nonzero;stroke:none" transform="translate(45.125 3.984)"/><path d="M0 0a2.845 2.845 0 0 1-2.842-2.842v-20.112A2.845 2.845 0 0 1 0-25.796h17.481a2.845 2.845 0 0 1 2.842 2.842v20.112A2.845 2.845 0 0 1 17.481 0Zm17.481-27.496H0a4.547 4.547 0 0 0-4.543 4.542v20.112A4.547 4.547 0 0 0 0 1.7h17.481a4.546 4.546 0 0 0 4.542-4.542v-20.112a4.546 4.546 0 0 0-4.542-4.542" style="fill:#ffffff;fill-opacity:1;fill-rule:nonzero;stroke:none" transform="translate(5.194 38.067)"/><path d="M0 0a.85.85 0 0 0-.85.85v17.129a.85.85 0 1 0 1.7 0V.85A.85.85 0 0 0 0 0" style="fill:#ffffff;fill-opacity:1;fill-rule:nonzero;stroke:none" transform="translate(13.542 15.682)"/><path d="M0 0h-5.791a.85.85 0 1 0 0 1.699H0A.85.85 0 1 0 0 0" style="fill:#ffffff;fill-opacity:1;fill-rule:nonzero;stroke:none" transform="translate(16.437 14.87)"/><path d="M0 0a.85.85 0 0 0-.005 1.7l11.618.065h.005a.85.85 0 0 0 .005-1.7L.005 0Z" style="fill:#ffffff;fill-opacity:1;fill-rule:nonzero;stroke:none" transform="translate(7.733 28.995)"/><path d="M0 0c-.981-1.132-1.651-2.202-1.651-2.671 0-.911.741-1.652 1.651-1.652s1.651.741 1.651 1.652C1.651-2.202.981-1.133 0 0m0-6.022a3.354 3.354 0 0 0-3.351 3.351c0 1.403 1.636 3.352 2.611 4.388.387.409 1.094.408 1.478.001.977-1.037 2.613-2.986 2.613-4.389A3.354 3.354 0 0 0 0-6.022" style="fill:#ffffff;fill-opacity:1;fill-rule:nonzero;stroke:none" transform="translate(7.42 28.622)"/><path d="M0 0c-.982-1.133-1.651-2.202-1.651-2.671 0-.91.741-1.652 1.651-1.652s1.651.742 1.651 1.652C1.651-2.202.981-1.132 0 0m0-6.022a3.354 3.354 0 0 0-3.351 3.351c0 1.405 1.636 3.352 2.612 4.388.382.407 1.095.409 1.479-.002.975-1.034 2.611-2.981 2.611-4.386A3.354 3.354 0 0 0 0-6.022" style="fill:#ffffff;fill-opacity:1;fill-rule:nonzero;stroke:none" transform="translate(19.417 28.639)"/></g></svg>