<svg width="60" height="60" viewBox="0 0 60 60" fill="none" xmlns="http://www.w3.org/2000/svg">
<path d="M56.659 16.2279C54.5441 12.1423 51.462 8.53945 47.7457 5.80887C47.3537 5.52094 46.8022 5.60496 46.5141 5.99719C46.226 6.3893 46.3103 6.94066 46.7025 7.22883C53.6883 12.3618 57.9507 20.4927 58.2236 29.1189H51.5153V22.399C51.5153 18.5054 48.7472 15.2466 45.0756 14.4861C43.5888 10.2703 41.5058 6.72258 39.0325 4.20902C38.5041 3.67207 37.9597 3.18527 37.4024 2.74816C39.4627 3.30574 41.4571 4.09453 43.3363 5.1034C43.7651 5.33344 44.2993 5.17254 44.5294 4.74387C44.7595 4.31508 44.5985 3.78094 44.1698 3.55078C39.8425 1.22777 34.9427 0 30 0C21.9867 0 14.453 3.12047 8.78672 8.78672C3.12047 14.453 0 21.9867 0 30C0 33.0417 0.453867 36.0431 1.34883 38.9209C1.46625 39.2985 1.8143 39.5405 2.19 39.5405C2.2766 39.5405 2.36484 39.5276 2.45191 39.5004C2.91656 39.3559 3.17602 38.8621 3.03152 38.3974C2.27578 35.9675 1.85543 33.443 1.77691 30.881H8.48508V37.4082C8.48508 41.2758 11.2167 44.5157 14.8515 45.3042C16.3315 49.5793 18.4202 53.1796 20.9108 55.7326C21.4532 56.2884 22.0123 56.7912 22.5852 57.2415C14.6003 55.0588 7.80352 49.4225 4.28062 41.6741C4.0793 41.2314 3.55734 41.0351 3.11391 41.2368C2.67094 41.4381 2.47512 41.9604 2.67656 42.4035C5.02875 47.5772 8.78965 51.9653 13.5526 55.0934C18.4403 58.3034 24.1277 60 30.0001 60C38.0134 60 45.5471 56.8794 51.2134 51.2132C56.8796 45.5469 60 38.0133 60 30C60 25.213 58.8446 20.4506 56.659 16.2279ZM43.1385 14.3183H30.8811V1.80773C33.2948 2.0523 35.6618 3.29672 37.7762 5.44512C39.9231 7.62668 41.7627 10.6785 43.1385 14.3183ZM29.119 14.3183H16.8618C18.2377 10.678 20.0775 7.62598 22.2247 5.4443C24.3388 3.29637 26.7056 2.05219 29.119 1.80773V14.3183ZM1.77727 29.1189C2.16621 16.4968 10.878 5.93555 22.5973 2.74863C22.0405 3.18527 21.4966 3.67172 20.9687 4.20809C18.4948 6.72164 16.4115 10.2697 14.9246 14.486C11.2532 15.2464 8.48496 18.5053 8.48496 22.3989V29.1187L1.77727 29.1189ZM10.2472 37.4084V22.399C10.2472 18.9149 13.0818 16.0805 16.5657 16.0805H43.4341C46.9184 16.0805 49.7528 18.915 49.7528 22.399V37.4082C49.7528 40.8923 46.9182 43.7268 43.4341 43.7268H16.5659C13.0818 43.7269 10.2472 40.8925 10.2472 37.4084ZM16.7871 45.489H29.119V58.192C24.1624 57.6866 19.5552 52.9458 16.7871 45.489ZM37.4029 57.2514C39.8257 55.35 41.9853 52.5091 43.7057 48.8654C43.9134 48.4254 43.725 47.9003 43.2851 47.6925C42.8453 47.4847 42.3199 47.673 42.1121 48.1131C39.2665 54.1406 35.2126 57.7598 30.8813 58.1937V45.489H43.4343C47.8901 45.489 51.5152 41.8641 51.5152 37.4082V30.881H58.223C57.8339 43.503 49.122 54.0645 37.4029 57.2514Z" fill="#FF8A00"/>
<path d="M29.7591 24.8899H41.5764C40.646 26.7104 39.3059 28.6805 37.7227 30.5411C37.5751 30.7146 37.4258 30.8854 37.2758 31.0549C36.5751 30.2177 35.983 29.3754 35.5478 28.5877C35.3128 28.162 34.7765 28.0069 34.3505 28.2426C33.9247 28.4779 33.7701 29.0139 34.0054 29.4399C34.5223 30.3758 35.2307 31.373 36.066 32.3524C34.6634 33.7798 33.2115 34.9993 31.8493 35.8812C31.4408 36.1458 31.324 36.6914 31.5885 37.0998C31.8548 37.5116 32.4043 37.6228 32.8071 37.3605C34.253 36.4242 35.785 35.1435 37.2598 33.651C37.3488 33.7409 37.4385 33.8303 37.5292 33.9192C39.0038 35.3634 40.6202 36.5816 42.0807 37.3494C42.5027 37.5738 43.043 37.4144 43.2705 36.9794C43.497 36.5487 43.3313 36.016 42.9005 35.7896C41.5876 35.0994 40.1179 33.9881 38.7623 32.6603C38.6628 32.5628 38.5647 32.4645 38.4677 32.3658C38.6685 32.1413 38.8682 31.9143 39.0649 31.6831C40.9651 29.4501 42.5421 27.0509 43.5351 24.89H45.409C45.8956 24.89 46.2901 24.4955 46.2901 24.0088C46.2901 23.5222 45.8956 23.1277 45.409 23.1277H38.3134V19.7695C38.3134 19.2828 37.9189 18.8883 37.4322 18.8883C36.9455 18.8883 36.5511 19.2828 36.5511 19.7695V23.1277H29.7592C29.2726 23.1277 28.8781 23.5222 28.8781 24.0088C28.878 24.4954 29.2724 24.8899 29.7591 24.8899Z" fill="#FF8A00"/>
<path d="M24.61 34.8932L25.7191 37.8321C25.8909 38.2873 26.3993 38.5171 26.8545 38.3452C27.3098 38.1734 27.5396 37.6652 27.3677 37.2098L22.0507 23.121C22.0478 23.1129 22.0447 23.1051 22.0414 23.0971C21.8548 22.6434 21.4175 22.3504 20.927 22.3504C20.9267 22.3504 20.9263 22.3504 20.926 22.3504C20.4351 22.3507 19.9976 22.6446 19.8116 23.099C19.8089 23.1057 19.8063 23.1125 19.8037 23.1191L14.4381 37.2073C14.2649 37.662 14.4932 38.171 14.948 38.3443C15.3909 38.5166 15.9121 38.2938 16.085 37.8344L17.2052 34.8932H24.61ZM20.9245 25.1274L23.945 33.1311H17.8763L20.9245 25.1274Z" fill="#FF8A00"/>
</svg>
