<svg id="Слой_1" data-name="Слой 1" xmlns="http://www.w3.org/2000/svg" viewBox="0 0 29.99 29.99"><defs><style>.cls-1{fill:#ffffff}</style></defs><path class="cls-1" d="M10 11.75h6.85a.38.38 0 00.38-.38V4.5a.38.38 0 00-.38-.38H9.99a.38.38 0 00-.38.38v6.86a.38.38 0 00.38.38zm2.66-4.57a.76.76 0 11.76.76.76.76 0 01-.76-.76zm.76 1.52a1.52 1.52 0 011.31.76h-2.62a1.52 1.52 0 011.31-.76zm-1.52 1.52h3.04V11H11.9zM10.37 4.9h6.1V11h-.76v-.77a2.29 2.29 0 00-1.19-2 1.52 1.52 0 10-2.2 0 2.29 2.29 0 00-1.18 2V11h-.77zM7.7 20.9h11.05v.75H7.71zM6.95 22.41h12.57v.77H6.95z"/><path class="cls-1" d="M27.52 14.41a.38.38 0 00-.21-.34l-4.37-2.18V4.51a.38.38 0 00-.38-.38h-1.14V2.99a.38.38 0 00-.38-.38H5.8a.38.38 0 00-.38.38v21.33a.38.38 0 00.38.38h1.15v1.14a.38.38 0 00.38.38h15.23a.38.38 0 00.38-.38V23a10.33 10.33 0 004.58-8.59zM22.18 4.9v7l-.76.38V4.9zm-16-1.52h14.48v9.29l-.76.38v-.15a.38.38 0 00-.38-.38H7.32a.38.38 0 00-.37.38v5.33a.38.38 0 00.38.39H18.5q.17.38.37.76H6.94v.76h12.4a10.3 10.3 0 001.32 1.62v2.19H6.18zM18.2 17.84H7.7v-4.57h11.44v.15l-1.32.65a.38.38 0 00-.2.34 10.34 10.34 0 00.58 3.43zM7.7 25.46v-.76h13.34a.38.38 0 00.38-.38v-1.9c.25.2.5.4.76.58v2.46zm14.86-3.12a9.56 9.56 0 01-4.18-7.7l4.18-2.08 4.2 2.09a9.56 9.56 0 01-4.2 7.69z"/><path class="cls-1" d="M22.56 14.41a2.67 2.67 0 102.67 2.67 2.67 2.67 0 00-2.67-2.67zm0 4.58a1.9 1.9 0 111.9-1.9 1.9 1.9 0 01-1.9 1.9z"/></svg>