<svg width="60" height="60" viewBox="0 0 60 60" fill="none" xmlns="http://www.w3.org/2000/svg">
<path d="M40.6945 3.87097H40.5958C34.2194 3.87097 29.0323 9.05806 29.0323 15.4345C29.0323 18.1945 30.0203 20.8665 31.8165 22.9597L34.8387 26.4871V29.0323C34.8387 32.2345 37.4429 34.8387 40.6452 34.8387C43.8474 34.8387 46.4516 32.2345 46.4516 29.0323V26.4871L49.4739 22.9597C51.27 20.8665 52.2581 18.1945 52.2581 15.4345C52.2581 9.05806 47.071 3.87097 40.6945 3.87097ZM40.6452 32.9032C38.5103 32.9032 36.7742 31.1671 36.7742 29.0323V27.0968H44.5161V29.0323C44.5161 31.1671 42.78 32.9032 40.6452 32.9032ZM39.0339 16.4516H42.2565L41.6748 25.1613H39.6145L39.0339 16.4516ZM48.0048 21.7016L45.0387 25.1613H43.6152L44.1958 16.4516H45.4839C47.0845 16.4516 48.3871 15.149 48.3871 13.5484C48.3871 11.9477 47.0845 10.6452 45.4839 10.6452H45.359C43.8358 10.6452 42.5623 11.8355 42.4626 13.3558L42.3852 14.5161H38.9052L38.8277 13.3568C38.7281 11.8355 37.4545 10.6452 35.9313 10.6452H35.8065C34.2058 10.6452 32.9032 11.9477 32.9032 13.5484C32.9032 15.149 34.2058 16.4516 35.8065 16.4516H37.0945L37.6752 25.1613H36.2516L33.2855 21.7016C31.7913 19.9577 30.9677 17.7319 30.9677 15.4345C30.9677 10.1255 35.2868 5.80645 40.5958 5.80645H40.6945C46.0035 5.80645 50.3226 10.1255 50.3226 15.4345C50.3226 17.7319 49.499 19.9577 48.0048 21.7016ZM44.3255 14.5161L44.3942 13.4835C44.4271 12.9774 44.8519 12.5806 45.359 12.5806H45.4839C46.0181 12.5806 46.4516 13.0142 46.4516 13.5484C46.4516 14.0826 46.0181 14.5161 45.4839 14.5161H44.3255ZM36.9648 14.5161H35.8065C35.2723 14.5161 34.8387 14.0826 34.8387 13.5484C34.8387 13.0142 35.2723 12.5806 35.8065 12.5806H35.9313C36.4384 12.5806 36.8632 12.9774 36.8961 13.4845L36.9648 14.5161Z" fill="#FF8A00"/>
<path d="M57.0968 0H24.1935C22.5929 0 21.2903 1.30258 21.2903 2.90323V29.0323H2.90323C1.30258 29.0323 0 30.3348 0 31.9355V57.0968C0 58.6974 1.30258 60 2.90323 60H30C31.6006 60 32.9032 58.6974 32.9032 57.0968V38.7097H57.0968C58.6974 38.7097 60 37.4071 60 35.8065V2.90323C60 1.30258 58.6974 0 57.0968 0ZM30.9677 57.0968C30.9677 57.631 30.5342 58.0645 30 58.0645H2.90323C2.36903 58.0645 1.93548 57.631 1.93548 57.0968V31.9355C1.93548 31.4013 2.36903 30.9677 2.90323 30.9677H30C30.5342 30.9677 30.9677 31.4013 30.9677 31.9355V57.0968ZM58.0645 35.8065C58.0645 36.3406 57.631 36.7742 57.0968 36.7742H32.9032V31.9355C32.9032 30.3348 31.6006 29.0323 30 29.0323H23.2258V2.90323C23.2258 2.36903 23.6594 1.93548 24.1935 1.93548H57.0968C57.631 1.93548 58.0645 2.36903 58.0645 2.90323V35.8065Z" fill="#FF8A00"/>
<path d="M16.4516 32.9032C11.6487 32.9032 7.74194 36.81 7.74194 41.6129V41.7997C7.74194 43.77 8.41936 45.7016 9.65032 47.2413L11.6129 49.6945V51.2903C11.6129 53.9584 13.7835 56.129 16.4516 56.129C19.1197 56.129 21.2903 53.9584 21.2903 51.2903V49.6945L23.2529 47.2423C24.4839 45.7026 25.1613 43.77 25.1613 41.7997V41.6129C25.1613 36.81 21.2545 32.9032 16.4516 32.9032ZM16.4516 54.1936C14.851 54.1936 13.5484 52.891 13.5484 51.2903V50.3226H19.3548V51.2903C19.3548 52.891 18.0523 54.1936 16.4516 54.1936ZM15.4839 41.6129C15.4839 41.0787 15.9174 40.6452 16.4516 40.6452C16.9858 40.6452 17.4194 41.0787 17.4194 41.6129C17.4194 42.1471 16.9858 42.5806 16.4516 42.5806C15.9174 42.5806 15.4839 42.1471 15.4839 41.6129ZM23.2258 41.7997C23.2258 43.3316 22.6984 44.8355 21.7413 46.0316L19.8571 48.3871H17.4194V44.3381C18.5429 43.9374 19.3548 42.8729 19.3548 41.6129C19.3548 40.0123 18.0523 38.7097 16.4516 38.7097C14.851 38.7097 13.5484 40.0123 13.5484 41.6129C13.5484 42.8729 14.3603 43.9374 15.4839 44.3381V48.3871H13.0461L11.1629 46.0316C10.2048 44.8355 9.67742 43.3316 9.67742 41.7997V41.6129C9.67742 37.8784 12.7171 34.8387 16.4516 34.8387C20.1861 34.8387 23.2258 37.8784 23.2258 41.6129V41.7997Z" fill="#FF8A00"/>
<path d="M54.1935 47.4194C54.1935 49.02 52.891 50.3226 51.2903 50.3226H33.4703L39.961 56.8132L41.3294 55.4448L38.1426 52.2581H51.2903C53.9584 52.2581 56.129 50.0874 56.129 47.4194V40.6452H54.1935V47.4194Z" fill="#FF8A00"/>
<path d="M34.8387 46.4516H36.7742V48.3871H34.8387V46.4516Z" fill="#FF8A00"/>
<path d="M38.7097 46.4516H40.6452V48.3871H38.7097V46.4516Z" fill="#FF8A00"/>
<path d="M52.2581 46.4516V40.6452H50.3226V46.4516H42.5806V48.3871H50.3226C51.39 48.3871 52.2581 47.519 52.2581 46.4516Z" fill="#FF8A00"/>
<path d="M1.93548 18.3871C1.93548 16.7865 3.23806 15.4839 4.83871 15.4839H20.7232L14.2326 8.99323L12.8642 10.3616L16.051 13.5484H4.83871C2.17065 13.5484 0 15.719 0 18.3871V25.1613H1.93548V18.3871Z" fill="#FF8A00"/>
<path d="M17.4194 17.4194H19.3548V19.3548H17.4194V17.4194Z" fill="#FF8A00"/>
<path d="M13.5484 17.4194H15.4839V19.3548H13.5484V17.4194Z" fill="#FF8A00"/>
<path d="M3.87097 19.3548V25.1613H5.80645V19.3548H11.6129V17.4194H5.80645C4.73903 17.4194 3.87097 18.2874 3.87097 19.3548Z" fill="#FF8A00"/>
<path d="M3.87097 54.1936H5.80645V56.129H3.87097V54.1936Z" fill="#FF8A00"/>
<path d="M3.87097 50.3226H5.80645V52.2581H3.87097V50.3226Z" fill="#FF8A00"/>
<path d="M3.87097 46.4516H5.80645V48.3871H3.87097V46.4516Z" fill="#FF8A00"/>
<path d="M27.0968 36.7742H29.0323V38.7097H27.0968V36.7742Z" fill="#FF8A00"/>
<path d="M27.0968 32.9032H29.0323V34.8387H27.0968V32.9032Z" fill="#FF8A00"/>
<path d="M27.0968 40.6452H29.0323V42.5806H27.0968V40.6452Z" fill="#FF8A00"/>
<path d="M54.1936 32.9032H56.129V34.8387H54.1936V32.9032Z" fill="#FF8A00"/>
<path d="M54.1936 29.0323H56.129V30.9677H54.1936V29.0323Z" fill="#FF8A00"/>
<path d="M54.1936 25.1613H56.129V27.0968H54.1936V25.1613Z" fill="#FF8A00"/>
<path d="M25.1613 11.6129H27.0968V13.5484H25.1613V11.6129Z" fill="#FF8A00"/>
<path d="M25.1613 7.74194H27.0968V9.67742H25.1613V7.74194Z" fill="#FF8A00"/>
<path d="M25.1613 3.87097H27.0968V5.80645H25.1613V3.87097Z" fill="#FF8A00"/>
</svg>
