<svg width="24" height="22" viewBox="0 0 24 22" fill="none" xmlns="http://www.w3.org/2000/svg">
<path d="M23.2969 4.78661H17.9531V0.690377C17.9531 0.309105 17.6383 0 17.25 0H0.703125C0.314812 0 0 0.309105 0 0.690377V18.5481C0 20.4515 1.57711 22 3.51562 22H20.4844C22.4229 22 24 20.4515 24 18.5481V5.47699C24 5.09572 23.6852 4.78661 23.2969 4.78661ZM3.51562 20.6192C2.35252 20.6192 1.40625 19.6901 1.40625 18.5481V1.38075H16.5469C16.5469 19.6281 16.538 18.6137 16.563 18.8738C16.6241 19.5139 16.8672 20.1174 17.2516 20.6192H3.51562ZM22.5938 18.5481C22.5938 19.6901 21.6475 20.6192 20.4844 20.6192C20.3266 20.6192 20.2174 20.6192 20.0625 20.6192C18.8994 20.6192 17.9531 19.6901 17.9531 18.5481V6.16736H22.5938V18.5481Z" fill="#0098DA"/>
<path d="M14.25 3.31381H3.75C3.36169 3.31381 3.04688 3.62291 3.04688 4.00418C3.04688 4.38546 3.36169 4.69456 3.75 4.69456H14.25C14.6383 4.69456 14.9531 4.38546 14.9531 4.00418C14.9531 3.62291 14.6383 3.31381 14.25 3.31381Z" fill="#0098DA"/>
<path d="M14.25 6.25941H3.75C3.36169 6.25941 3.04688 6.56852 3.04688 6.94979C3.04688 7.33106 3.36169 7.64017 3.75 7.64017H14.25C14.6383 7.64017 14.9531 7.33106 14.9531 6.94979C14.9531 6.56852 14.6383 6.25941 14.25 6.25941Z" fill="#0098DA"/>
<path d="M14.25 17.3054H3.75C3.36169 17.3054 3.04688 17.6145 3.04688 17.9958C3.04688 18.3771 3.36169 18.6862 3.75 18.6862H14.25C14.6383 18.6862 14.9531 18.3771 14.9531 17.9958C14.9531 17.6145 14.6383 17.3054 14.25 17.3054Z" fill="#0098DA"/>
<path d="M14.25 9.20502H9C8.61169 9.20502 8.29688 9.51413 8.29688 9.8954V15.0502C8.29688 15.4315 8.61169 15.7406 9 15.7406H14.25C14.6383 15.7406 14.9531 15.4315 14.9531 15.0502V9.8954C14.9531 9.51413 14.6383 9.20502 14.25 9.20502ZM13.5469 14.3598H9.70312V10.5858H13.5469V14.3598Z" fill="#0098DA"/>
<path d="M3.75 11.6904H6C6.38831 11.6904 6.70312 11.3813 6.70312 11C6.70312 10.6187 6.38831 10.3096 6 10.3096H3.75C3.36169 10.3096 3.04688 10.6187 3.04688 11C3.04688 11.3813 3.36169 11.6904 3.75 11.6904Z" fill="#0098DA"/>
<path d="M3.75 14.636H6C6.38831 14.636 6.70312 14.3269 6.70312 13.9456C6.70312 13.5643 6.38831 13.2552 6 13.2552H3.75C3.36169 13.2552 3.04688 13.5643 3.04688 13.9456C3.04688 14.3269 3.36169 14.636 3.75 14.636Z" fill="#0098DA"/>
</svg>
