<svg width="60" height="62" viewBox="0 0 60 62" fill="none" xmlns="http://www.w3.org/2000/svg">
<g clip-path="url(#clip0)">
<path d="M53.8958 22.3325C54.0447 21.8859 54.0447 21.4392 54.0447 20.9926C54.0447 19.0571 53.3003 17.1216 51.8114 15.7816C50.4715 14.4417 48.6849 13.8462 46.8983 13.8462H46.7494C45.4094 6.40199 39.1563 0.595534 31.5633 0C31.1166 0 30.5211 0 30.0745 0C23.0769 0 16.6749 4.4665 14.1439 11.0174C13.8462 11.0174 13.5484 11.0174 13.2506 11.0174C11.3151 11.0174 9.37966 11.7618 7.89083 12.9529C6.10423 14.4417 5.06204 16.6749 5.06204 19.0571C5.06204 19.8015 5.21093 20.397 5.35981 21.1414C1.33996 23.3747 -0.74441 27.9901 0.446657 32.4566C1.63772 36.9231 5.65758 40.0496 10.273 40.0496H13.1017V42.8784C13.1017 43.4739 13.5484 44.0695 14.2928 44.0695H22.0347V49.7271H13.3995C12.9529 48.2382 11.6129 47.196 10.1241 46.8983C7.74194 46.4516 5.50869 47.9404 5.06204 50.3226C4.61539 52.7047 6.25311 54.938 8.48636 55.3846C10.7196 55.8313 12.9529 54.3424 13.3995 52.1092H22.928C23.5236 52.1092 24.1191 51.6625 24.1191 50.9181V44.0695H28.7345V53.598C27.2457 54.1936 26.2035 55.3846 25.9057 56.8735C25.4591 59.2556 26.9479 61.4888 29.33 61.9355C31.7122 62.3821 33.9454 60.7444 34.3921 58.5112C34.8387 56.129 33.3499 54.0447 30.9677 53.598V44.2184H35.732V51.067C35.732 51.6625 36.1787 52.2581 36.9231 52.2581H46.005C46.4516 54.4913 48.6849 55.9801 50.9181 55.5335C53.3003 55.0868 54.7891 52.8536 54.3424 50.4715C53.8958 48.0893 51.6625 46.6005 49.2804 47.0471C47.7916 47.3449 46.4516 48.3871 46.005 49.8759H37.9653V44.2184H45.7072C46.3027 44.2184 46.8983 43.7717 46.8983 43.0273V40.1985H50.7692C55.2357 40.1985 59.1067 36.9231 59.7022 32.6055C60.5955 27.9901 58.0645 23.8213 53.8958 22.3325ZM11.3151 51.8114C10.8685 52.8536 9.67743 53.4491 8.63524 53.1514C7.44418 52.7047 6.84864 51.5137 7.29529 50.4715C7.59306 49.2804 8.93301 48.6849 9.97519 49.1315C11.1663 49.4293 11.7618 50.6203 11.3151 51.8114ZM49.4293 49.1315C50.6204 48.6849 51.8114 49.2804 52.1092 50.4715C52.5558 51.5137 51.9603 52.8536 50.7692 53.1514C49.5782 53.598 48.3871 53.0025 48.0893 51.8114C47.7916 50.6203 48.3871 49.4293 49.4293 49.1315ZM32.3077 58.3623C31.8611 59.5534 30.67 60.1489 29.6278 59.7022C28.5856 59.2556 27.9901 58.0645 28.2878 57.0223C28.7345 55.8313 29.9256 55.2357 30.9677 55.6824C32.0099 55.9802 32.6055 57.1712 32.3077 58.3623ZM44.665 41.6873H15.1861V36.0298H44.665V41.6873ZM18.1638 32.1588H41.6874V33.7965H18.1638V32.1588ZM15.1861 29.7767V24.1191H44.665V29.7767H15.1861ZM57.6179 31.7122C57.3201 35.1365 54.3424 37.8164 50.9181 37.8164H47.0472V34.9876C47.0472 34.3921 46.6005 33.7965 45.8561 33.7965H44.0695V32.1588H45.8561C46.4516 32.1588 47.0472 31.7122 47.0472 30.9677V23.0769C47.0472 22.4814 46.6005 21.8859 45.8561 21.8859H13.995C13.3995 21.8859 12.804 22.3325 12.804 23.0769V30.9677C12.804 31.5633 13.2506 32.1588 13.995 32.1588H15.7816V33.7965H13.995C13.3995 33.7965 12.804 34.2432 12.804 34.9876V37.8164H10.1241C6.40199 37.8164 3.27544 35.1365 2.53102 31.5633C1.78661 27.9901 3.72209 24.268 7.14641 22.7792C7.44418 22.6303 7.59306 22.4814 7.74194 22.1836C7.89083 21.8859 7.89083 21.5881 7.74194 21.2903C7.44418 20.5459 7.29529 19.8015 7.29529 19.0571C7.29529 15.9305 9.97519 13.2506 13.1017 13.2506V13.1017V13.2506C13.5484 13.2506 13.995 13.2506 14.4417 13.3995C14.5906 13.3995 14.5906 13.3995 14.7395 13.3995C15.1861 13.3995 15.6328 13.1017 15.7816 12.6551C17.7171 6.40199 23.3747 2.23325 29.7767 2.23325C30.2233 2.23325 30.67 2.23325 31.1166 2.23325C37.9653 2.82878 43.6228 8.33747 44.3673 15.1861C44.3673 15.4839 44.5161 15.7816 44.8139 15.9305C44.9628 16.0794 45.2606 16.0794 45.5583 16.0794H45.7072C46.005 16.0794 46.3027 15.9305 46.6005 15.9305C49.2804 15.9305 51.3648 18.1638 51.3648 20.6948C51.3648 21.2903 51.2159 21.8859 51.067 22.4814C50.9181 22.7792 50.9181 23.2258 51.067 23.5236C51.2159 23.8213 51.5137 23.9702 51.8114 24.1191C55.6824 25.0124 57.9156 28.139 57.6179 31.7122Z" fill="#FF8A00"/>
</g>
<defs>
<clipPath id="clip0">
<rect width="60" height="61.9355" fill="white"/>
</clipPath>
</defs>
</svg>
