<svg xmlns="http://www.w3.org/2000/svg" xml:space="preserve" width="66.667" height="66.667"><defs><clipPath id="a" clipPathUnits="userSpaceOnUse"><path d="M0 50h50V0H0Z"/></clipPath></defs><g clip-path="url(#a)" transform="matrix(1.33333 0 0 -1.33333 0 66.667)"><path d="M0 0a2.501 2.501 0 0 0-2.498 2.498v30.131A2.5 2.5 0 0 0 0 35.127h21.572a2.5 2.5 0 0 0 2.498-2.498v-1.566H4.27a3.086 3.086 0 0 1-3.082-3.082V0Zm29.457 27.981v-7.033H2.888v7.033c0 .762.62 1.382 1.382 1.382h23.804c.763 0 1.383-.62 1.383-1.382M15.612-5.765H4.27c-.762 0-1.382.62-1.382 1.382v23.63h26.569v-5.211a.85.85 0 1 1 1.699 0v13.945a3.086 3.086 0 0 1-3.082 3.082H25.77v1.566a4.203 4.203 0 0 1-4.198 4.199H0a4.203 4.203 0 0 1-4.198-4.199V2.498A4.202 4.202 0 0 1 0-1.699h1.188v-2.684A3.085 3.085 0 0 1 4.27-7.464h11.342a.85.85 0 1 1 0 1.699" style="fill:#0098da;fill-opacity:1;fill-rule:nonzero;stroke:none" transform="translate(5.925 12.134)"/><path d="M0 0a.85.85 0 0 1-.85.85h-6.686a.85.85 0 1 1 0-1.7H-.85c.469 0 .85.38.85.85" style="fill:#0098da;fill-opacity:1;fill-rule:nonzero;stroke:none" transform="translate(19.84 14.596)"/><path d="M0 0a.85.85 0 0 1-.85.85h-10.124a.85.85 0 1 1 0-1.7H-.85c.469 0 .85.38.85.85" style="fill:#0098da;fill-opacity:1;fill-rule:nonzero;stroke:none" transform="translate(23.277 18.473)"/><path d="M0 0a.85.85 0 1 1 0-1.699h6.346a.85.85 0 1 1 0 1.699z" style="fill:#0098da;fill-opacity:1;fill-rule:nonzero;stroke:none" transform="translate(12.303 11.556)"/><path d="M0 0c-.164.22-.526.302-.811.285-.344-.02-.599-.169-.681-.399l-1.531-4.302-1.422 4.071c-.117.333-.318.674-.927.674-.637 0-.808-.318-.94-.674l-1.422-4.071-1.533 4.304c-.057.161-.189.281-.379.348a1.19 1.19 0 0 1-.938-.093.552.552 0 0 1-.252-.326c-.02-.091-.005-.18.033-.232l2.088-5.669c.146-.411.508-.655.968-.655.455 0 .775.218.954.655l1.42 4.032 1.409-4.025c.153-.415.515-.662.967-.662.453 0 .801.238.954.653L.052-.407A.416.416 0 0 1 0 0" style="fill:#1097d5;fill-opacity:1;fill-rule:nonzero;stroke:none" transform="translate(23.102 28.881)"/><path d="M0 0c.006 0 .011-.003.017-.003h11.458c-.648-2.569-2.971-4.478-5.737-4.478C2.97-4.481.647-2.57 0 0m5.738 7.365c3.18 0 5.776-2.523 5.91-5.671l-.008.002H6.083L3.49 5.206a.85.85 0 0 1-1.367-1.01l1.847-2.5H.017c-.068 0-.128-.024-.191-.039.115 3.166 2.719 5.708 5.912 5.708m7.622-5.923c0 4.203-3.419 7.622-7.622 7.622-4.203 0-7.622-3.419-7.622-7.622 0-4.203 3.419-7.622 7.622-7.622 4.203 0 7.622 3.419 7.622 7.622" style="fill:#0098da;fill-opacity:1;fill-rule:nonzero;stroke:none" transform="translate(28.989 11.042)"/><path d="M0 0a.85.85 0 0 1-.85-.85v-1.226c-2.26 3.262-2.446 7.641-.272 11.118a10.124 10.124 0 0 0 12.228 4.065.852.852 0 0 1 .616 1.586c-5.276 2.043-11.284.049-14.285-4.75-2.644-4.227-2.307-9.6.647-13.451h-1.592a.85.85 0 1 1 0-1.699H0c.244 0 .461.105.615.27l.005.003c.011.012.014.027.024.039.06.072.112.149.145.238.014.037.014.075.023.112.014.062.038.121.038.188V-.85C.85-.38.47 0 0 0" style="fill:#0098da;fill-opacity:1;fill-rule:nonzero;stroke:none" transform="translate(27.275 8.804)"/><path d="M0 0a.85.85 0 1 1 0 1.699h-3.508c-.007 0-.013-.004-.02-.004-.042-.001-.08-.017-.121-.024-.07-.012-.141-.02-.204-.048-.009-.004-.016-.013-.026-.017a.863.863 0 0 1-.25-.181c-.012-.013-.016-.031-.027-.044a.868.868 0 0 1-.141-.231c-.016-.043-.017-.087-.026-.131C-4.335.963-4.357.91-4.357.85v-3.509a.848.848 0 1 1 1.699 0v1.225c2.259-3.262 2.444-7.64.27-11.118a10.122 10.122 0 0 0-12.227-4.064.851.851 0 0 1-.615-1.586 11.826 11.826 0 0 1 14.284 4.75C1.698-9.224 1.361-3.851-1.594 0Z" style="fill:#0098da;fill-opacity:1;fill-rule:nonzero;stroke:none" transform="translate(45.687 19.67)"/><path d="M0 0a.377.377 0 1 0 0-.755A.377.377 0 0 0 0 0m0-2.454A2.08 2.08 0 0 1 2.078-.377a2.078 2.078 0 0 1-4.155 0c0-1.146.931-2.077 2.077-2.077" style="fill:#0098da;fill-opacity:1;fill-rule:nonzero;stroke:none" transform="translate(13.315 37.566)"/><path d="M0 0a.377.377 0 1 0 0-.755A.377.377 0 0 0 0 0m0-2.454c1.145 0 2.077.931 2.077 2.077A2.079 2.079 0 0 1 0 1.7 2.078 2.078 0 0 1-2.077-.377c0-1.146.931-2.077 2.077-2.077" style="fill:#0098da;fill-opacity:1;fill-rule:nonzero;stroke:none" transform="translate(18.484 37.566)"/><path d="M0 0a.377.377 0 1 0 0-.755A.377.377 0 0 0 0 0m0-2.454c1.146 0 2.077.931 2.077 2.077A2.078 2.078 0 0 1 0 1.7 2.079 2.079 0 0 1-2.077-.377c0-1.146.932-2.077 2.077-2.077" style="fill:#0098da;fill-opacity:1;fill-rule:nonzero;stroke:none" transform="translate(23.654 37.566)"/><path d="M0 0c0 .47-.38.85-.85.85h-4.497a.85.85 0 0 1 0-1.7H-.85c.47 0 .85.38.85.85" style="fill:#0098da;fill-opacity:1;fill-rule:nonzero;stroke:none" transform="translate(37.825 8.887)"/></g></svg>