<svg id="Слой_1" data-name="Слой 1" xmlns="http://www.w3.org/2000/svg" viewBox="0 0 26.91663 26.91663"><defs><style>.cls-1{fill:#ff8a00;}</style></defs><title>icon_2_2 computer node to many</title><path class="cls-1" d="M21.941,15.46757h0V12.65166a1.24249,1.24249,0,0,0-1.22023-1.22023H15.83981a1.24249,1.24249,0,0,0-1.22023,1.22023v2.81591h0a.4434.4434,0,0,0-.46932.46932v.84477a1.2425,1.2425,0,0,0,1.22023,1.22023h5.72569a1.24249,1.24249,0,0,0,1.22023-1.22023v-.84477A.42944.42944,0,0,0,21.941,15.46757Zm-.84477,0H15.46435V12.65166a.40377.40377,0,0,1,.37546-.37546h4.88091a.40377.40377,0,0,1,.37546.37546Zm-6.10114.84477h6.47659v.37546a.40376.40376,0,0,1-.37545.37545H15.37049a.40376.40376,0,0,1-.37545-.37545Z" transform="translate(-4.82294 -1.49396)"/><path class="cls-1" d="M30.43719,7.5719a1.3038,1.3038,0,0,0,1.30237-1.30243V2.79633A1.30375,1.30375,0,0,0,30.43719,1.494h-6.078a1.30375,1.30375,0,0,0-1.30237,1.30237V6.26947a1.30167,1.30167,0,0,0,.97846,1.2569L22.48553,9.988a6.47571,6.47571,0,0,0-3.77069-1.52576V5.79156a2.17071,2.17071,0,1,0-.86828,0V8.46222A6.47666,6.47666,0,0,0,14.07611,9.988L12.52637,7.52637a1.30153,1.30153,0,0,0,.97937-1.2569V2.79633A1.30381,1.30381,0,0,0,12.20331,1.494H6.12537A1.30376,1.30376,0,0,0,4.82294,2.79633V6.26947A1.30381,1.30381,0,0,0,6.12537,7.5719H7.42773v.86829H6.55951v.86828h5.20966V8.44019h-.86829V7.5719h.62866l1.91284,3.03754a6.47728,6.47728,0,0,0-1.65112,3.90869H9.12054a2.17072,2.17072,0,1,0,0,.86828h2.67072a6.47517,6.47517,0,0,0,1.59521,3.84674l-1.36291,1.36292H6.12537A1.30381,1.30381,0,0,0,4.82294,21.8985v3.47314A1.30376,1.30376,0,0,0,6.12537,26.674H7.42773v.86829H6.55951v.86828h5.20966V27.5423h-.86829V26.674h1.30243a1.30381,1.30381,0,0,0,1.30243-1.30237V21.8985a1.295,1.295,0,0,0-.52149-1.03534l1.01612-1.01611a6.47517,6.47517,0,0,0,3.84674,1.59521V24.113a2.17072,2.17072,0,1,0,.86828,0V21.44226a6.47517,6.47517,0,0,0,3.84674-1.59521l1.01612,1.01611a1.295,1.295,0,0,0-.52143,1.03534v3.47314A1.30375,1.30375,0,0,0,24.35919,26.674h1.30243v.86829h-.86829v.86828h5.20972V27.5423h-.86828V26.674h1.30242a1.30375,1.30375,0,0,0,1.30237-1.30237V21.8985a1.3038,1.3038,0,0,0-1.30237-1.30243H24.53894L23.176,19.23315a6.47523,6.47523,0,0,0,1.59527-3.84674H27.442a2.17071,2.17071,0,1,0,0-.86828H24.7713a6.47734,6.47734,0,0,0-1.65118-3.90869L25.033,7.5719h.6286v.86829h-.86829v.86828h5.20972V8.44019h-.86828V7.5719ZM5.69122,2.79633a.43461.43461,0,0,1,.43415-.43415h6.07794a.43465.43465,0,0,1,.43414.43415V4.967H5.69122Zm4.34137,5.64386H8.296V7.5719h1.73657Zm2.17072-1.73658H6.12537a.4346.4346,0,0,1-.43415-.43414V5.83533h6.94623v.43414A.43464.43464,0,0,1,12.20331,6.70361ZM6.99365,16.2547A1.30243,1.30243,0,1,1,8.296,14.95227,1.30382,1.30382,0,0,1,6.99365,16.2547Zm3.03894,11.2876H8.296V26.674h1.73657Zm2.60486-2.17066a.43433.43433,0,0,1-.43414.43415H6.12537a.4343.4343,0,0,1-.43415-.43415V24.9375h6.94623Zm0-1.30243H5.69122V21.8985a.43429.43429,0,0,1,.43415-.43414h6.07794a.43432.43432,0,0,1,.43414.43414Zm15.629,3.47309H26.52991V26.674h1.73657Zm-4.34143-5.6438a.43432.43432,0,0,1,.43414-.43414h6.078a.43433.43433,0,0,1,.43415.43414v2.17071H23.92505Zm0,3.039h6.94629v.43414a.43434.43434,0,0,1-.43415.43415h-6.078a.43433.43433,0,0,1-.43414-.43415Zm5.64386-11.28766a1.30243,1.30243,0,1,1-1.30243,1.30243A1.30386,1.30386,0,0,1,29.56891,13.64984ZM16.97882,3.66461A1.30243,1.30243,0,1,1,18.28125,4.967,1.30386,1.30386,0,0,1,16.97882,3.66461Zm2.60486,22.57526a1.30243,1.30243,0,1,1-1.30243-1.30237A1.30382,1.30382,0,0,1,19.58368,26.23987ZM23.875,14.95227a5.59375,5.59375,0,1,1-5.59375-5.59375A5.59374,5.59374,0,0,1,23.875,14.95227Zm.05-12.15594a.43465.43465,0,0,1,.43414-.43415h6.078a.43465.43465,0,0,1,.43415.43415V4.967H23.92505Zm4.34143,5.64386H26.52991V7.5719h1.73657ZM24.35919,6.70361a.43464.43464,0,0,1-.43414-.43414V5.83533h6.94629v.43414a.43464.43464,0,0,1-.43415.43414Z" transform="translate(-4.82294 -1.49396)"/></svg>