<?xml version="1.0" encoding="utf-8"?>
<!-- Generator: Adobe Illustrator 22.0.1, SVG Export Plug-In . SVG Version: 6.00 Build 0)  -->
<svg version="1.1" id="Слой_1" xmlns="http://www.w3.org/2000/svg" xmlns:xlink="http://www.w3.org/1999/xlink" x="0px" y="0px"
	 viewBox="0 0 36 30" style="enable-background:new 0 0 36 30;" xml:space="preserve">
<style type="text/css">
	.st0{fill:#FF8A00;}
</style>
<path class="st0" d="M8.1,6.8H6.6c-0.3,0-0.5-0.2-0.5-0.5l0,0c0-0.3,0.2-0.5,0.5-0.5h1.5c0.3,0,0.5,0.2,0.5,0.5l0,0
	C8.6,6.6,8.4,6.8,8.1,6.8z"/>
<path class="st0" d="M11.5,6.8H10c-0.3,0-0.5-0.2-0.5-0.5l0,0C9.5,6,9.7,5.8,10,5.8h1.5C11.8,5.8,12,6,12,6.3l0,0
	C12,6.6,11.8,6.8,11.5,6.8z"/>
<path class="st0" d="M14.9,6.8h-1.5c-0.3,0-0.5-0.2-0.5-0.5l0,0c0-0.3,0.2-0.5,0.5-0.5h1.5c0.3,0,0.5,0.2,0.5,0.5l0,0
	C15.4,6.6,15.1,6.8,14.9,6.8z"/>
<path class="st0" d="M26.9,6.8h-3.3c-0.3,0-0.5-0.2-0.5-0.5l0,0c0-0.3,0.2-0.5,0.5-0.5h3.3c0.3,0,0.5,0.2,0.5,0.5l0,0
	C27.4,6.6,27.1,6.8,26.9,6.8z"/>
<g>
	<g>
		<path class="st0" d="M12.5,17.6c-0.1,0-0.3,0-0.4-0.1l-2.6-2.6c-0.1-0.1-0.1-0.2-0.1-0.4c0-0.1,0.1-0.3,0.1-0.4l2.5-2.5
			c0.2-0.2,0.5-0.2,0.7,0s0.2,0.5,0,0.7l-2.1,2.1l2.2,2.3c0.2,0.2,0.2,0.5,0,0.7C12.8,17.6,12.7,17.6,12.5,17.6z"/>
		<path class="st0" d="M20.4,17.6c-0.1,0-0.3,0-0.4-0.1c-0.2-0.2-0.2-0.5,0-0.7l2.2-2.3l-2.1-2.1c-0.2-0.2-0.2-0.5,0-0.7
			s0.5-0.2,0.7,0l2.5,2.5c0.1,0.1,0.1,0.2,0.1,0.4c0,0.1-0.1,0.3-0.1,0.4l-2.6,2.6C20.7,17.6,20.5,17.6,20.4,17.6z"/>
	</g>
	<path class="st0" d="M15.2,17.9c-0.1,0-0.2,0-0.2-0.1c-0.2-0.1-0.3-0.4-0.2-0.7l2.6-5.3c0.1-0.2,0.4-0.3,0.7-0.2
		c0.2,0.1,0.3,0.4,0.2,0.7l-2.6,5.3C15.5,17.8,15.4,17.9,15.2,17.9z"/>
</g>
<g>
	<path class="st0" d="M5.6,24.8c-0.7,0-1.3-0.6-1.3-1.3V6.1c0-0.7,0.6-1.3,1.3-1.3h22.3c0.7,0,1.3,0.6,1.3,1.3v7.4
		c0.4,0.1,0.7,0.3,1,0.5V6.1c0-1.3-1-2.3-2.3-2.3H5.6c-1.3,0-2.3,1-2.3,2.3v17.4c0,1.3,1,2.3,2.3,2.3h17v-1H5.6z"/>
	<path class="st0" d="M6.8,22.5c-0.1,0-0.1-0.1-0.1-0.1V8.8c0-0.1,0.1-0.1,0.1-0.1h19.9c0.1,0,0.1,0.1,0.1,0.1v4.6
		c0.3-0.1,0.6-0.1,1-0.2V8.8c0-0.6-0.5-1.1-1.1-1.1H6.8c-0.6,0-1.1,0.5-1.1,1.1v13.6c0,0.6,0.5,1.1,1.1,1.1h15.8v-1
		C22.6,22.5,6.8,22.5,6.8,22.5z"/>
</g>
<g>
	<path class="st0" d="M32.7,18.3h-6.2v-1c0-0.9,0.8-1.7,1.7-1.7c0.7,0,1.3,0.4,1.6,1c0.2,0.6,0.6,0.5,0.6,0.5h1.7c0,0,0.4,0,0.4-0.3
		c0-0.2-0.3-1.9-1.2-2.7c-0.8-0.7-1.9-1.1-3-1.1c-2.4,0-4.3,1.9-4.3,4.3v1h-0.1l0,0c-0.7,0-1.3,0.6-1.3,1.4v6.1
		c0,0.8,0.6,1.4,1.4,1.4h8.7c0.8,0,1.4-0.6,1.4-1.4v-6.1C34,18.9,33.4,18.3,32.7,18.3z M24.8,17.2c0-1.9,1.5-3.4,3.4-3.4
		c1.5,0,2.8,1,3.2,2.4h-0.9c-0.4-0.9-1.3-1.5-2.3-1.5c-1.4,0-2.6,1.2-2.6,2.6v1h-0.9L24.8,17.2L24.8,17.2z M33,25.8
		c0,0.2-0.2,0.4-0.4,0.4h-8.7c-0.2,0-0.4-0.2-0.4-0.4v-6.1c0-0.2,0.2-0.4,0.4-0.4h8.7c0.2,0,0.4,0.2,0.4,0.4
		C33,19.7,33,25.8,33,25.8z"/>
</g>
<path class="st0" d="M29.5,24.6l-0.4-1.3c0.2-0.1,0.3-0.4,0.3-0.6c0-0.4-0.4-0.8-0.8-0.8c-0.4,0-0.8,0.4-0.8,0.8
	c0,0.2,0.1,0.5,0.3,0.6l-0.4,1.3H29.5z M29.5,24.6"/>
</svg>
