<?xml version="1.0" encoding="utf-8"?>
<!-- Generator: Adobe Illustrator 22.0.1, SVG Export Plug-In . SVG Version: 6.00 Build 0)  -->
<svg version="1.1" id="Слой_1" xmlns="http://www.w3.org/2000/svg" xmlns:xlink="http://www.w3.org/1999/xlink" x="0px" y="0px"
	 viewBox="0 0 30 30" style="enable-background:new 0 0 30 30;" xml:space="preserve">
<style type="text/css">
	.st0{fill:#0098DA;}
	.st1{fill:#FFFFFF;}
	.st2{fill:#EFEFEF;stroke:#D6D6D6;stroke-width:0.25;stroke-miterlimit:10;}
	.st3{fill:#006AA7;}
</style>
<path class="st0" d="M1.7,13.3c0.4,0,0.7-0.3,0.7-0.7V5.8c0-0.5,0.4-1,1-1h6.8c0.4,0,0.7-0.3,0.7-0.7s-0.3-0.7-0.7-0.7H3.3
	c-1.3,0-2.3,1-2.3,2.3v6.8C1.1,13,1.4,13.3,1.7,13.3z"/>
<path class="st0" d="M26.6,3.6h-6.8c-0.4,0-0.7,0.3-0.7,0.7s0.3,0.7,0.7,0.7h6.8c0.5,0,1,0.4,1,1v6.8c0,0.4,0.3,0.7,0.7,0.7
	c0.4,0,0.7-0.3,0.7-0.7V5.8C28.8,4.6,27.8,3.6,26.6,3.6z"/>
<path class="st0" d="M28.2,19.2c-0.4,0-0.7,0.3-0.7,0.7v6.8c0,0.5-0.4,1-1,1h-6.8c-0.4,0-0.7,0.3-0.7,0.7c0,0.4,0.3,0.7,0.7,0.7h6.8
	c1.3,0,2.3-1,2.3-2.3v-6.8C28.8,19.5,28.5,19.2,28.2,19.2z"/>
<path class="st0" d="M10.1,27.6H3.3c-0.5,0-1-0.4-1-1v-6.8c0-0.4-0.3-0.7-0.7-0.7s-0.7,0.3-0.7,0.7v6.8c0,1.3,1,2.3,2.3,2.3h6.8
	c0.4,0,0.7-0.3,0.7-0.7C10.8,27.9,10.5,27.6,10.1,27.6z"/>
<g>
	<path class="st1" d="M21.2,9.6H8.7C8,9.6,7.4,9,7.4,8.2V2c0-0.8,0.6-1.4,1.4-1.4h12.5c0.8,0,1.4,0.6,1.4,1.4v6.3
		C22.6,9,22,9.6,21.2,9.6z"/>
	<path class="st0" d="M21.2,10.1H8.7c-1,0-1.9-0.8-1.9-1.9V2c0-1,0.8-1.9,1.9-1.9h12.5c1,0,1.9,0.8,1.9,1.9v6.3
		C23.1,9.2,22.3,10.1,21.2,10.1z M8.7,1.1C8.3,1.1,7.9,1.5,7.9,2v6.3c0,0.5,0.4,0.9,0.9,0.9h12.5c0.5,0,0.9-0.4,0.9-0.9V2
		c0-0.5-0.4-0.9-0.9-0.9H8.7z"/>
</g>
<g>
	<path class="st0" d="M13.1,2.7l-2.1,2.1c-0.1,0.1-0.1,0.4,0,0.5l2.1,2.1L13.6,7l-1.9-1.9l1.9-1.9L13.1,2.7z M13.1,2.7"/>
	<path class="st0" d="M17.1,2.7l-0.5,0.5l1.9,1.9L16.6,7l0.5,0.5l2.1-2.1c0.1-0.1,0.1-0.4,0-0.5L17.1,2.7z M17.1,2.7"/>
	<path class="st0" d="M13.7,8.2l2.1-6.4L16.5,2l-2.1,6.4L13.7,8.2z M13.7,8.2"/>
</g>
<g id="Denmark_2_">
	<g>
		<g>
			<g>
				<path class="st2" d="M6.4,24.2h17.1c0.6,0,1-0.4,1-1v-9.1c0-0.6-0.4-1-1-1H6.4c-0.6,0-1,0.4-1,1v9.1C5.4,23.7,5.8,24.2,6.4,24.2
					z"/>
			</g>
			<g>
				<rect x="11.6" y="13.2" class="st3" width="2.1" height="10.9"/>
			</g>
			<g>
				<polygon class="st3" points="5.5,17.6 24.4,17.6 24.4,19.7 5.5,19.7 				"/>
			</g>
		</g>
	</g>
</g>
</svg>
