<svg version="1.1" id="Слой_1" xmlns="http://www.w3.org/2000/svg" x="0" y="0" viewBox="0 0 30 30" xml:space="preserve"><style>.st0{fill:#0098da}</style><path class="st0" d="M21.3 10.6h5.6c.7 0 1.3-.6 1.3-1.3V4.9c0-.7-.6-1.3-1.3-1.3h-5.6c-.7 0-1.3.6-1.3 1.3v1.7h-.9c-.8 0-1.4.6-1.4 1.4v7.2h-1.1V6.6c0-.7-.6-1.3-1.3-1.3H7.7c-.3 0-.7.1-.9.4L2 10.5c-.2.2-.4.6-.4.9v12.3c0 .7.6 1.3 1.3 1.3h12.4c.7 0 1.3-.6 1.3-1.3V16h1.1v6.8c0 .8.6 1.4 1.4 1.4h.9v1.3c0 .7.6 1.3 1.3 1.3h5.6c.7 0 1.3-.6 1.3-1.3v-4.4c0-.7-.6-1.3-1.3-1.3h-5.6c-.7 0-1.3.6-1.3 1.3v2.3h-.9c-.4 0-.6-.3-.6-.6V16H20v1.4c0 .7.6 1.3 1.3 1.3h5.6c.7 0 1.3-.6 1.3-1.3V13c0-.7-.6-1.3-1.3-1.3h-5.6c-.7 0-1.3.6-1.3 1.3v2.2h-1.5V8c0-.4.3-.6.6-.6h.9v1.9c0 .7.6 1.3 1.3 1.3zM6.9 6.8v3.8H3.1l3.8-3.8zm8.4 17.4H2.9c-.2 0-.4-.2-.4-.4V11.5h4.9c.2 0 .4-.2.4-.4V6.2h7.5c.2 0 .4.2.4.4v17.1c.1.3-.1.5-.4.5zm12 1.2c0 .3-.2.5-.5.5h-5.6c-.3 0-.5-.2-.5-.5V21c0-.3.2-.5.5-.5h5.6c.3 0 .5.2.5.5v4.4zm0-8c0 .3-.2.5-.5.5h-5.6c-.3 0-.5-.2-.5-.5V13c0-.3.2-.5.5-.5h5.6c.3 0 .5.2.5.5v4.4zm0-8.1c0 .3-.2.5-.5.5h-5.6c-.3 0-.5-.2-.5-.5V4.9c0-.3.2-.5.5-.5h5.6c.3 0 .5.2.5.5v4.4z"/><path class="st0" d="M12 11.6c.7 0 1.3-.3 1.8-.8.1-.1.1-.2 0-.3 0-.1-.1-.1-.2-.1h-.1c-.2.2-.5.2-.8.2-.8 0-1.4-.6-1.4-1.4 0-.3.1-.5.2-.8.1-.1 0-.3-.1-.4h-.1c-.1 0-.2 0-.2.1-.2.3-.3.7-.3 1 0 .9.6 1.6 1.4 1.9h-.1a1.9 1.9 0 110-3.8h.1c-.1 0-.2.1-.3.1-.1 0-.1.1-.1.2v.2c-.1.3 0 .3.1.3h.1c.2-.1.4-.2.7-.2.3 0 .6.1.8.2h.1c.1 0 .1 0 .2-.1s.1-.2 0-.3c-.5-.5-1.1-.8-1.8-.8-1.3 0-2.4 1.1-2.4 2.4s1.1 2.4 2.4 2.4z"/><path class="st0" d="M15 8.9l-.2.1v-.3c0-.1-.1-.3-.3-.3s-.3.1-.3.3l.1.2V9l-.3-.1c-.1 0-.2.1-.3.3 0 .1.1.2.2.2h.2l-.2.2v.1c0 .1 0 .2.1.2h.1c.1 0 .2 0 .2-.1l.1-.2.2.2c0 .1.1.1.2.1h.1c.1 0 .1-.1.1-.2v-.1l-.2-.1.3-.1c.1 0 .2-.1.2-.3-.1-.2-.2-.2-.3-.2zM4.1 14.4h.7c.2 0 .3-.1.3-.3 0-.2-.1-.3-.3-.3h-.7c-.2 0-.3.1-.3.3 0 .1.2.3.3.3zM6.1 14.4H14c.2 0 .3-.1.3-.3 0-.2-.1-.3-.3-.3H6.1c-.2 0-.3.1-.3.3 0 .1.1.3.3.3zM4.1 15.7h.7c.2 0 .3-.1.3-.3 0-.2-.1-.4-.3-.4h-.7c-.2 0-.3.1-.3.3 0 .2.2.4.3.4zM6.1 15.7H14c.2 0 .3-.1.3-.3 0-.2-.1-.3-.3-.3H6.1c-.2 0-.3.1-.3.3 0 .1.1.3.3.3zM4.1 17h.7c.2 0 .3-.1.3-.3s-.1-.4-.3-.4h-.7c-.2 0-.3.1-.3.3s.2.4.3.4zM6.1 17H14c.2 0 .3-.1.3-.3s-.1-.3-.3-.3H6.1c-.2 0-.3.1-.3.3s.1.3.3.3zM8 19H4.1c-.2 0-.3.1-.3.3 0 .2.1.3.3.3H8c.2 0 .3-.1.3-.3.1-.2-.1-.3-.3-.3zM8 20.3H4.1c-.2 0-.3.1-.3.3 0 .2.1.3.3.3H8c.2 0 .3-.1.3-.3.1-.2-.1-.3-.3-.3zM8 21.6H4.1c-.2 0-.3.1-.3.3s.1.3.3.3H8c.2 0 .3-.1.3-.3s-.1-.3-.3-.3zM14 19h-3.9c-.2 0-.3.1-.3.3 0 .2.1.3.3.3H14c.2 0 .3-.1.3-.3.1-.2-.1-.3-.3-.3zM14 20.3h-3.9c-.2 0-.3.1-.3.3 0 .2.1.3.3.3H14c.2 0 .3-.1.3-.3.1-.2-.1-.3-.3-.3zM14 21.6h-3.9c-.2 0-.3.1-.3.3s.1.3.3.3H14c.2 0 .3-.1.3-.3s-.1-.3-.3-.3zM25.6 5.9L24 7.8l-.7-.7c-.1-.1-.3-.1-.5.1-.1.1-.1.4 0 .5l1 1c.1.1.2.1.3.1.1 0 .2-.1.3-.1l1.9-2.2c.1-.2.1-.4 0-.5-.3-.3-.5-.2-.7-.1zM25.6 14.1L24 16l-.7-.7c-.1-.1-.4-.1-.5 0-.1.1-.1.4 0 .5l1 1c.1.1.2.1.3.1.1 0 .2-.1.3-.1l1.9-2.2c.1-.2.1-.4 0-.5-.3-.2-.5-.1-.7 0zM25.6 21.9l-1.6 2-.7-.7c-.1-.1-.4-.1-.5 0s-.1.4 0 .5l1 1c.1.1.2.1.3.1.1 0 .2-.1.3-.1l1.9-2.2c.1-.2.1-.4 0-.5-.3-.2-.5-.2-.7-.1z"/></svg>