<svg width="46" height="36" fill="none" xmlns="http://www.w3.org/2000/svg"><g clip-path="url(#clip0)" fill="#0098DA"><path d="M45.87 12.45L40.9 7.23a.72.72 0 00-.44-.2.7.7 0 00-.51 0H25.04a.74.74 0 00-.77.78v27.54c0 .46.32.78.77.78h20.2c.44 0 .76-.32.76-.78V12.97c.06-.13 0-.32-.13-.52zM41.1 9.61l2.49 2.65h-2.49V9.6zm-15.35 24.9V8.46H39.5v4.45c0 .45.32.78.77.78h4.33v20.84H25.74zM21.6 12.45l-4.97-5.22a.72.72 0 00-.45-.2.7.7 0 00-.5 0H.75C.32 6.97 0 7.3 0 7.74V35.3c0 .45.32.77.76.77h20.2c.45 0 .77-.32.77-.77V12.97c.06-.13-.07-.32-.13-.52zm-4.78-2.84l2.48 2.65h-2.48V9.6zm3.5 24.9H7.4v-3.28h-.9v.9h-.82v.9h.9v1.55h-.9v-1.55h-.9v-.9H3.9v.9h.89v1.55H1.47v-4.77h1.01V28H1.6v.9h-.12v-4h.57V24h.9v-.9h-.9v-.9h-.57v-4.33h.82v-.9h.9v-.9H1.47v-1.55h.57v-.9h.9v-.91H1.52v-1.74h.32v.9h.89v-1.8H1.47V8.44h1.9v.71h.9v-.7h.83v.7h.89v-.7h9.24v4.44c0 .45.32.78.76.78h4.33v20.84z"/><path d="M3.82 17.68H3v.9h.83v-.9zM5.8 10.26h-.83v.9h.83v-.9z"/><path d="M4.52 16.58h-.89v.9h.9v1.81h.88v-1.8h-.89v-.9zM5.86 19.48h-.9v.9h.9v-.9zM4.4 10.39h-.9v.9h.9v-.9zM3.82 21.03h.9v-.9h-.9v.9h-.89v-.9h.9v-.9H2.1v1.8H3v.9h.89v-.9h-.07zM3.76 13.74h.57v-.9h.9v-.9H3.5v1.74h-.58v.9h.9v-.84h-.07zM1.85 34.06h.89v-.9h.9v-.9H1.9v1.8h-.06zM3 30.71h-.9v.9H3v-.9zM3.57 28h-.9v.9h.9V28zM4.71 22.32H3.9v.9H5.6v-1.8h-.9v.9zM3.06 29.42v.9h.9v-.9h-.9zM3.5 25.35H1.78v.9h.9v.91h.89s.57 0 0 0v-1.8H3.5zM31.1 22.06c-.33 0-.7-.32-.7-.7v-4.9h-1.92c-.32 0-.7-.33-.7-.72 0-.32.32-.58.7-.58h5.03c.32 0 .7.32.7.71 0 .32-.31.58-.7.58h-1.9v4.9c.06.4-.14.71-.52.71zM41.67 16.58h-4.59c-.32 0-.7-.32-.7-.7 0-.33.32-.72.7-.72h4.59c.32 0 .7.32.7.71 0 .39-.26.71-.7.71zM41.8 19.29h-4.6c-.31 0-.7-.32-.7-.7 0-.33.33-.72.7-.72h4.6c.31 0 .7.32.7.71-.07.52-.39.71-.7.71zM41.8 22.2h-4.6c-.31 0-.7-.33-.7-.72 0-.32.33-.7.7-.7h4.6c.31 0 .7.32.7.7-.07.33-.39.71-.7.71zM42.24 25.03H29.18c-.32 0-.7-.32-.7-.7 0-.33.32-.72.7-.72h12.93c.32 0 .7.33.7.71.13.33-.25.71-.57.71zM42.12 27.87H29.05c-.31 0-.7-.32-.7-.7 0-.4.32-.72.7-.72H42c.32 0 .7.32.7.71 0 .39-.26.71-.57.71zM42.12 30.58H29.05c-.31 0-.7-.32-.7-.7 0-.33.32-.72.7-.72H42c.32 0 .7.32.7.71.13.52-.26.71-.57.71z"/><path d="M6.82 22.06c-.32 0-.7-.32-.7-.7v-4.9H4.2c-.31 0-.7-.33-.7-.72 0-.32.32-.58.7-.58h5.04c.32 0 .7.32.7.71 0 .32-.32.58-.7.58H7.33v4.9c0 .4-.2.71-.51.71zM17.33 16.58h-4.59c-.32 0-.7-.32-.7-.7 0-.33.32-.72.7-.72h4.59c.32 0 .7.32.7.71 0 .39-.25.71-.7.71zM17.46 19.29h-4.6c-.31 0-.7-.32-.7-.7 0-.33.33-.72.7-.72h4.6c.31 0 .7.32.7.71 0 .52-.39.71-.7.71zM17.46 22.2h-4.6c-.31 0-.7-.33-.7-.72 0-.32.33-.7.7-.7h4.6c.31 0 .7.32.7.7 0 .33-.39.71-.7.71zM17.9 25.03h-13c-.31 0-.7-.32-.7-.7 0-.33.32-.72.7-.72h12.94c.32 0 .7.33.7.71.06.33-.25.71-.64.71zM17.78 27.87h-13c-.32 0-.7-.32-.7-.7 0-.4.32-.72.7-.72H17.7c.32 0 .7.32.7.71 0 .39-.25.71-.63.71zM17.78 30.58h-13c-.32 0-.7-.32-.7-.7 0-.33.32-.72.7-.72H17.7c.32 0 .7.32.7.71.07.52-.25.71-.63.71zM27.14 4.58c-.06.2-.25.26-.44.26l-3.32.7c-.32.07-.63-.19-.7-.44-.06-.33.2-.65.45-.71l2.8-.52-.5-2.7c-.07-.33.18-.65.44-.72.32-.06.63.2.7.45l.7 3.23c-.06.13-.06.26-.13.45z"/><path d="M24.53 3.1c-.06.06-.06.19-.2.19-.25.2-.63.2-.88-.06a5.52 5.52 0 00-6.57-1.49 5.51 5.51 0 00-2.86 3.36c-.2.32-.45.51-.77.45-.32-.2-.5-.45-.44-.78A7.18 7.18 0 0116.37.71a6.6 6.6 0 017.97 1.87c.19.07.19.45.19.52zM5.93 13.68h.57v-.9h.9v-.9H5.66v1.73H5.1v.9h.89v-.83h-.06z"/></g><defs><clipPath id="clip0"><path fill="#fff" d="M0 0h46v36H0z"/></clipPath></defs></svg>