<svg xmlns="http://www.w3.org/2000/svg" xml:space="preserve" width="66.667" height="66.667"><defs><clipPath clipPathUnits="userSpaceOnUse" id="a"><path d="M0 50h50V0H0Z"/></clipPath></defs><g clip-path="url(#a)" transform="matrix(1.33333 0 0 -1.33333 0 66.667)"><path d="M0 0a.85.85 0 0 0-.85.85v.507a3.356 3.356 0 0 1-3.351 3.352h-27.642a3.356 3.356 0 0 1-3.352-3.352V.85a.85.85 0 1 0-1.701 0v.507a5.057 5.057 0 0 0 5.053 5.051h27.642A5.056 5.056 0 0 0 .85 1.357V.85A.85.85 0 0 0 0 0" style="fill:#0098da;fill-opacity:1;fill-rule:nonzero;stroke:none" transform="translate(43.14 12.33)"/><path d="M0 0a.85.85 0 0 0-.85.85v3.933a.85.85 0 1 0 1.7 0V.85A.85.85 0 0 0 0 0" style="fill:#0098da;fill-opacity:1;fill-rule:nonzero;stroke:none" transform="translate(25.118 13.106)"/><path d="m0 0-.067-6.157 8.789-.059.057 6.149L8.713 0Zm8.722-7.915H-.009a1.76 1.76 0 0 0-1.758 1.758v6.09c0 .974.792 1.766 1.767 1.766h8.713c.973 0 1.766-.792 1.766-1.766v-6.09a1.76 1.76 0 0 0-1.757-1.758" style="fill:#0098da;fill-opacity:1;fill-rule:nonzero;stroke:none" transform="translate(38.535 10.302)"/><path d="m0 0-.066-6.157 8.788-.059.058 6.149L8.713 0Zm8.722-7.915H-.009a1.76 1.76 0 0 0-1.758 1.758v6.09c0 .974.793 1.766 1.767 1.766h8.713c.975 0 1.767-.792 1.767-1.766v-6.09a1.76 1.76 0 0 0-1.758-1.758" style="fill:#0098da;fill-opacity:1;fill-rule:nonzero;stroke:none" transform="translate(20.185 10.302)"/><path d="m0 0-.067-6.157 8.789-.059.057 6.149L8.713 0Zm8.722-7.915H-.009a1.76 1.76 0 0 0-1.758 1.758v6.09c0 .974.793 1.766 1.767 1.766h8.713c.974 0 1.766-.792 1.766-1.766v-6.09c0-.97-.788-1.758-1.757-1.758" style="fill:#0098da;fill-opacity:1;fill-rule:nonzero;stroke:none" transform="translate(2.752 10.302)"/><path d="M0 0c-.296 0-.594.095-.845.29L-2.19 1.341a.85.85 0 1 0 1.046 1.34l1.09-.852 1.881 2.406a.85.85 0 1 0 1.34-1.046L1.087.528A1.378 1.378 0 0 0 0 0" style="fill:#0098da;fill-opacity:1;fill-rule:nonzero;stroke:none" transform="translate(24.42 4.913)"/><path d="M0 0h-3.699a.85.85 0 1 0 0 1.699H0A.85.85 0 1 0 0 0" style="fill:#0098da;fill-opacity:1;fill-rule:nonzero;stroke:none" transform="translate(8.958 6.343)"/><path d="M0 0h-3.698a.85.85 0 1 0 0 1.699H0A.85.85 0 1 0 0 0" style="fill:#0098da;fill-opacity:1;fill-rule:nonzero;stroke:none" transform="translate(44.74 6.343)"/><path d="M0 0a.852.852 0 0 0-.85.85v2.851h-1.145a4.523 4.523 0 0 0-4.517 4.517v14.621a4.522 4.522 0 0 0 4.517 4.517h19.238a4.522 4.522 0 0 0 4.517-4.517v-3.323a.85.85 0 1 0-1.699 0v3.323a2.82 2.82 0 0 1-2.818 2.817H-1.995a2.82 2.82 0 0 1-2.816-2.817V8.218A2.82 2.82 0 0 1-1.995 5.4H0a.85.85 0 0 0 .85-.849V2.394l4.543 2.875a.851.851 0 0 0 .455.131h5.783a.85.85 0 1 0 0-1.699H6.094L.455.132A.85.85 0 0 0 0 0" style="fill:#0098da;fill-opacity:1;fill-rule:nonzero;stroke:none" transform="translate(12.645 20.258)"/><path d="M0 0c1.605-.152 2.757.287 3.53.79 1.375.893 2.263 2.52 2.263 4.145v.406c0 .223.087.435.24.593a.855.855 0 0 0-.236.51.842.842 0 0 0-.448.219 1.336 1.336 0 0 1-.898.358 1.357 1.357 0 0 1-1.343-1.354V5.18a.85.85 0 0 0-.678-.833c-1.206-.25-2.375-.007-3.529.74l.007-.006a.85.85 0 0 0-.331-1.453c.092-.025.187-.041.286-.047a.849.849 0 0 0 .34-1.603c.236-.048.53-.082.899-.11A.85.85 0 0 0 .515.318 6.661 6.661 0 0 0 0 0m.644-1.721c-1.338 0-2.777.328-4.256.985a.852.852 0 0 0-.485.963c.089.395.444.702.849.664.237-.002.467.006.697.034a2.76 2.76 0 0 0-.742.938.847.847 0 0 0 .083.894 3.07 3.07 0 0 0-.901 1.832.851.851 0 0 0 .874.951c-.132.587-.129 1.255.01 1.999a.849.849 0 0 0 1.477.401C-.624 6.646.399 6.002 1.422 5.958a3.065 3.065 0 0 0 3.036 2.763 3.047 3.047 0 0 0 1.631-.488l.824.274a.85.85 0 0 0 1.041-1.161l-.175-.383.227-.097a.85.85 0 0 0 .163-1.47l-.676-.489C7.483 2.698 6.322.576 4.457-.636 3.344-1.359 2.05-1.721.644-1.721" style="fill:#0098da;fill-opacity:1;fill-rule:nonzero;stroke:none" transform="translate(16.99 32.215)"/><path d="M0 0h.384v1.233c0 .47.38.851.849.851h1.235v.383H1.233a.85.85 0 0 0-.849.85v1.234H0V3.317a.85.85 0 0 0-.85-.85h-1.234v-.383H-.85A.85.85 0 0 0 0 1.233Zm.713-1.7H-.329c-.756 0-1.37.615-1.37 1.371v.712h-.713c-.756 0-1.371.616-1.371 1.371v1.042c0 .756.615 1.371 1.371 1.371h.713v.713c0 .756.614 1.371 1.37 1.371H.713c.756 0 1.37-.615 1.37-1.371v-.713h.714c.756 0 1.37-.615 1.37-1.371V1.754c0-.755-.614-1.371-1.37-1.371h-.714v-.712c0-.756-.614-1.371-1.37-1.371" style="fill:#0098da;fill-opacity:1;fill-rule:nonzero;stroke:none" transform="translate(39.7 37.374)"/><path d="M0 0a1.229 1.229 0 0 1 0-2.456 1.23 1.23 0 0 1 1.229 1.228A1.23 1.23 0 0 1 0 0m0-4.156a2.931 2.931 0 0 0-2.927 2.928A2.93 2.93 0 0 0 0 1.7a2.931 2.931 0 0 0 2.928-2.928A2.932 2.932 0 0 0 0-4.156" style="fill:#0098da;fill-opacity:1;fill-rule:nonzero;stroke:none" transform="translate(33.808 36.437)"/><path d="M0 0a.85.85 0 0 0-.64.291 2.704 2.704 0 0 1-2.035.924h-2.383A2.705 2.705 0 0 1-7.094.291.85.85 0 1 0-8.373 1.41a4.403 4.403 0 0 0 3.314 1.505h2.385A4.4 4.4 0 0 0 .64 1.41.851.851 0 0 0 0 0" style="fill:#0098da;fill-opacity:1;fill-rule:nonzero;stroke:none" transform="translate(37.675 29.879)"/><path d="M0 0a.85.85 0 0 0-.85.85v7.124a.85.85 0 0 0 .606.814l5.936 1.781a.844.844 0 0 0 .752-.132.853.853 0 0 0 .342-.682V5.599a.85.85 0 1 0-1.699 0v3.013L.85 7.341V1.992l4.237 1.272a.85.85 0 0 0 1.699-.039v-.594a.852.852 0 0 0-.605-.815L.244.035A.883.883 0 0 0 0 0" style="fill:#0098da;fill-opacity:1;fill-rule:nonzero;stroke:none" transform="translate(33.808 21.595)"/><path d="M0 0a.883.883 0 0 0-.244.035l-5.937 1.781a.852.852 0 0 0-.605.815v.594a.85.85 0 0 0 1.699.039L-.85 1.992v5.349l-4.237 1.271V5.599a.85.85 0 1 0-1.699 0v4.156c0 .268.127.521.342.682a.843.843 0 0 0 .752.132L.244 8.788a.85.85 0 0 0 .606-.814V.85A.85.85 0 0 0 0 0" style="fill:#0098da;fill-opacity:1;fill-rule:nonzero;stroke:none" transform="translate(33.808 21.595)"/><path d="M0 0h.337a.338.338 0 1 1 0 .675H0Zm.337-1.699h-.593c-.796 0-1.443.647-1.443 1.443V.932c0 .795.647 1.443 1.443 1.443h.593A2.04 2.04 0 0 0 2.374.338 2.04 2.04 0 0 0 .337-1.699" style="fill:#0098da;fill-opacity:1;fill-rule:nonzero;stroke:none" transform="translate(39.407 25.67)"/><path d="M0 0a.337.337 0 1 1 0-.675h.338V0Zm.594-2.374H0A2.04 2.04 0 0 0-2.038-.337 2.04 2.04 0 0 0 0 1.7h.594c.796 0 1.443-.647 1.443-1.443V-.931c0-.796-.647-1.443-1.443-1.443" style="fill:#0098da;fill-opacity:1;fill-rule:nonzero;stroke:none" transform="translate(27.871 26.345)"/></g></svg>