<svg width="39" height="30" fill="none" xmlns="http://www.w3.org/2000/svg"><path d="M1.2 13.15a.7.7 0 00.9-.4l.63-1.56h4.12l.61 1.57c.17.24.4.54.9.39a.66.66 0 00.4-.87L5.64 4.27v-.02a.89.89 0 00-.83-.53.89.89 0 00-.83.55l-3.16 8c-.14.36.04.74.4.88zm3.6-7.2l1.53 3.9H3.26l1.54-3.9zM14.07 3.6h-2.45c-.38 0-.7.3-.7.67v8.13c.01.28.23.65.7.67l2.88-.01a2.92 2.92 0 002.96-2.86c0-1.01-.55-1.9-1.38-2.42.4-.44.63-1.01.63-1.64a2.6 2.6 0 00-2.64-2.54zm0 1.34c.69 0 1.24.54 1.24 1.2 0 .66-.55 1.2-1.24 1.2h-1.75v-2.4h1.75zm.43 6.78h-2.18V8.7h2.18c.87 0 1.57.68 1.57 1.51 0 .84-.7 1.52-1.57 1.52zM24.04 4.94c.7 0 1.38.2 1.97.58.32.21.75.13.96-.18a.66.66 0 00-.18-.93 5.02 5.02 0 00-2.75-.81 4.83 4.83 0 00-4.91 4.74c0 2.6 2.2 4.73 4.9 4.73a4.2 4.2 0 003.2-1.39c.25-.28.2-.7-.09-.94a.72.72 0 00-.98.08 2.75 2.75 0 01-2.12.9 3.46 3.46 0 01-3.52-3.38c0-1.87 1.58-3.4 3.52-3.4zM1.2 25.84a.7.7 0 00.9-.4l.63-1.55h4.12l.61 1.56c.17.24.4.54.9.39a.66.66 0 00.4-.87l-3.13-8.01v-.02a.89.89 0 00-.83-.53.89.89 0 00-.83.55L.81 24.97c-.14.35.04.73.4.87zm3.6-7.2l1.53 3.9H3.26l1.54-3.9zM10.92 25.09c.01.28.23.65.7.67h2.88a2.92 2.92 0 002.96-2.87c0-1.01-.55-1.9-1.38-2.42.4-.44.63-1.01.63-1.64a2.6 2.6 0 00-2.64-2.54h-2.45c-.39 0-.7.3-.7.67v8.13zm3.58-.68h-2.18v-3.03h2.18c.86 0 1.57.68 1.57 1.51 0 .84-.7 1.52-1.57 1.52zm-.43-6.78c.69 0 1.24.54 1.24 1.2 0 .66-.55 1.2-1.24 1.2h-1.75v-2.4h1.75zM0 27.9c0 .37.31.67.7.67.76 0 1.1.25 1.58.59.52.37 1.18.84 2.4.84 1.24 0 1.9-.47 2.42-.84.47-.34.81-.59 1.58-.59s1.1.25 1.58.59c.52.37 1.18.84 2.4.84 1.24 0 1.9-.47 2.42-.84.47-.34.81-.59 1.58-.59s1.1.25 1.58.59c.53.37 1.18.84 2.4.84 1.24 0 1.9-.47 2.42-.84.47-.34.81-.59 1.58-.59s1.1.25 1.58.59c.53.37 1.18.84 2.41.84.39 0 .7-.3.7-.67a.68.68 0 00-.7-.67c-.77 0-1.1-.25-1.58-.58-.53-.38-1.18-.85-2.41-.85-1.23 0-1.88.47-2.41.85-.47.33-.81.58-1.58.58s-1.1-.25-1.58-.58c-.53-.38-1.18-.85-2.41-.85-1.23 0-1.88.47-2.41.85-.47.33-.81.58-1.58.58s-1.11-.25-1.58-.58c-.53-.38-1.18-.85-2.41-.85-1.23 0-1.89.47-2.41.85-.47.33-.82.58-1.58.58-.77 0-1.11-.25-1.58-.58-.53-.38-1.18-.85-2.41-.85-.39 0-.7.3-.7.67zM24.01 16.41a4.83 4.83 0 00-4.91 4.74c0 2.6 2.2 4.73 4.91 4.73a4.83 4.83 0 004.91-4.73c0-2.62-2.2-4.74-4.9-4.74zm0 8.13a3.46 3.46 0 01-3.52-3.4c0-1.86 1.58-3.39 3.52-3.39a3.46 3.46 0 013.52 3.4c0 1.87-1.58 3.39-3.52 3.39zM38.37.2a.72.72 0 00-.99 0l-5.19 5-2.6-2.52a.72.72 0 00-1 0 .65.65 0 000 .95l3.11 3c.14.12.31.19.5.19a.7.7 0 00.49-.2l5.68-5.47a.65.65 0 000-.95z" fill="#0098DA"/></svg>