<svg width="36" height="30" fill="none" xmlns="http://www.w3.org/2000/svg"><rect id="backgroundrect" width="100%" height="100%" x="0" y="0" fill="none" stroke="none"/>

<g class="currentLayer" style=""><title>Layer 1</title><path d="M13.8178 13.8626L11.032 6.64472C11.0296 6.63839 11.027 6.63213 11.0244 6.62594C10.8892 6.3044 10.5722 6.09681 10.2167 6.09681H10.2158C9.85991 6.09716 9.54296 6.3055 9.4082 6.62752C9.40602 6.63268 9.40391 6.63784 9.40194 6.64314L6.59061 13.8607C6.45226 14.2158 6.63473 14.613 6.99778 14.7486C7.33225 14.8735 7.75216 14.7358 7.90585 14.3505L8.45685 12.9358H11.9558L12.501 14.3485C12.6382 14.7041 13.0442 14.8834 13.4079 14.7493C13.7715 14.6152 13.955 14.2181 13.8178 13.8626ZM8.99294 11.5597L10.2144 8.42394L11.4246 11.5597H8.99294ZM23.7854 14.7936C23.4154 14.7936 23.0817 14.4961 23.0817 14.1056V6.78488C23.0817 6.40486 23.3968 6.09681 23.7854 6.09681H25.9603C27.2982 6.09681 28.3867 7.16112 28.3867 8.46936C28.3867 9.01968 28.1943 9.52693 27.8718 9.92993C28.5881 10.4094 29.0591 11.2151 29.0591 12.1263C29.0591 13.5923 27.8394 14.7849 26.3401 14.7849C25.7959 14.785 23.7865 14.7936 23.7854 14.7936ZM24.4892 10.8429V13.4146C25.1232 13.4121 26.0039 13.4088 26.3401 13.4088C27.0633 13.4088 27.6516 12.8335 27.6516 12.1264C27.6516 11.4187 27.0633 10.843 26.3401 10.843L24.4892 10.8429ZM24.4892 9.46679H25.9603C26.5222 9.46679 26.9793 9.01933 26.9793 8.46936C26.9793 7.91993 26.5222 7.47296 25.9603 7.47296H24.4892V9.46679ZM31.3152 18.1651H19.7743C19.3856 18.1651 19.0706 17.8571 19.0706 17.4771V3.44037C19.0706 3.06034 19.3856 2.75229 19.7743 2.75229H31.3152C31.7038 2.75229 32.0189 3.06034 32.0189 3.44037V17.4771C32.0189 17.8571 31.7038 18.1651 31.3152 18.1651ZM20.478 16.789H30.6114V4.12844H20.478V16.789ZM15.9742 18.1651H4.43338C4.04472 18.1651 3.72967 17.8571 3.72967 17.4771V3.44037C3.72967 3.06034 4.04472 2.75229 4.43338 2.75229H15.9742C16.3629 2.75229 16.678 3.06034 16.678 3.44037V17.4771C16.678 17.8571 16.3629 18.1651 15.9742 18.1651ZM5.13709 16.789H15.2705V4.12844H5.13709V16.789ZM18.5765 29.3119C18.5765 29.6911 18.2606 30 17.8728 30C17.4843 30 17.1691 29.6911 17.1691 29.3119C17.1691 28.9328 17.4843 28.6239 17.8728 28.6239C18.2606 28.6239 18.5765 28.9328 18.5765 29.3119ZM35.7485 2.75229V20.9174C35.7485 22.435 34.4858 23.6697 32.9337 23.6697H22.4232L22.7678 26.3649C22.7874 26.5091 22.8811 26.6117 22.9775 26.6395C23.4684 26.7805 24.0305 27.099 24.4391 27.6303C24.8143 28.1182 25.0169 28.6982 25.0169 29.3119C25.0169 29.7137 24.6763 30 24.3132 30H21.0395C20.651 30 20.3358 29.6911 20.3358 29.3119C20.3358 28.9328 20.651 28.6239 21.0395 28.6239H23.4265C23.2435 28.3053 22.9333 28.0673 22.5778 27.9592C21.8513 27.7382 21.4597 27.1556 21.3709 26.5362L21.0045 23.6697H14.744L14.3775 26.5362C14.2763 27.2477 13.8086 27.7649 13.1707 27.9592C12.8152 28.0674 12.505 28.3053 12.322 28.6239H14.7062C15.0939 28.6239 15.4099 28.9328 15.4099 29.3119C15.4099 29.6911 15.0939 30 14.7062 30H11.4353C11.0483 30 10.7316 29.6915 10.7316 29.3119C10.7316 28.6982 10.9319 28.1166 11.3093 27.6303C11.7407 27.0746 12.299 26.7749 12.771 26.6395C12.8763 26.6092 12.9614 26.5008 12.9807 26.3656L13.3253 23.6697H2.81485C1.26274 23.6697 0 22.435 0 20.9174V2.75229C0 1.23468 1.26274 0 2.81485 0H32.9337C34.4858 0 35.7485 1.23468 35.7485 2.75229ZM34.3411 20.9174H1.40742C1.40742 21.6762 2.03879 22.2936 2.81485 22.2936H32.9337C33.7097 22.2936 34.3411 21.6762 34.3411 20.9174ZM34.3411 2.75229C34.3411 1.99349 33.7097 1.37615 32.9337 1.37615H2.81485C2.03879 1.37615 1.40742 1.99349 1.40742 2.75229V19.5413H34.3411V2.75229Z" fill="#ffffff" id="svg_1" class="selected" fill-opacity="1"/></g></svg>