<svg width="37" height="35" viewBox="0 0 37 35" fill="none" xmlns="http://www.w3.org/2000/svg">
<path d="M37 20.0926C36.9997 19.9024 36.8941 19.7201 36.729 19.6249L28.0043 14.5968L28.0269 5.73062C28.0269 5.53986 27.9216 5.35613 27.7559 5.26089L18.7535 0.0724884C18.5855 -0.0244437 18.3781 -0.024162 18.2101 0.0733337L9.26835 5.26033C9.10095 5.34402 8.99707 5.54634 8.99651 5.72808L8.97392 14.59L0.295275 19.6246C0.127879 19.708 0.0239967 19.9106 0.0234322 20.0921L2.29581e-06 29.2668C-0.000562279 29.4604 0.103037 29.6399 0.270998 29.7365L9.27343 34.9249C9.42163 35.036 9.66299 35.0137 9.81683 34.9241L13.9566 32.5225C14.2154 32.3723 14.3032 32.0412 14.1528 31.7828C14.0026 31.5247 13.6706 31.4368 13.412 31.587L10.0887 33.5146L10.109 25.5935L17.9673 21.0349L17.947 28.9563L15.7138 30.2516C15.455 30.4018 15.3672 30.7329 15.5173 30.9913C15.6678 31.2497 15.9995 31.3373 16.2584 31.1871L18.4893 29.8932L27.2196 34.9247C27.3681 35.0357 27.6094 35.0134 27.763 34.9241L36.707 29.7357C36.8735 29.639 36.9763 29.4615 36.9766 29.2693L36.9845 26.1751C36.9853 25.8762 36.7431 25.6335 36.4439 25.6327H36.4425C36.1438 25.6327 35.9013 25.8739 35.9005 26.1723L35.8934 28.956L28.0351 33.5146L28.0554 25.5933L35.9138 21.0349L35.9067 23.6819C35.9061 23.9809 36.1481 24.2235 36.4473 24.2244H36.4487C36.7476 24.2244 36.9901 23.9832 36.9907 23.6848L37 20.0949V20.0926ZM17.9981 11.2295L17.9778 19.1566L10.0579 14.592L10.0782 6.665L17.9981 11.2295ZM9.51027 15.5303L17.4304 20.0949L9.56701 24.6563L1.64687 20.0921L9.51027 15.5303ZM19.0513 21.0293L26.9714 25.5935L26.9511 33.5206L19.031 28.9563L19.0513 21.0293ZM27.5132 24.6566L19.5947 20.0929L27.4584 15.5315L35.3768 20.0949L27.5132 24.6566ZM18.4833 1.16636L26.4035 5.7309L22.1723 8.1852C21.9134 8.33539 21.8256 8.66648 21.9761 8.92487C22.1263 9.18326 22.4582 9.2709 22.7171 9.12071L26.9404 6.67092L26.9204 14.59L19.062 19.1487L19.0824 11.2293L20.5175 10.3966C20.7764 10.2467 20.8642 9.91561 20.7137 9.65722C20.5632 9.39882 20.2316 9.31091 19.973 9.4611L18.5401 10.2923L10.6199 5.7278L18.4833 1.16636ZM1.10516 21.0293L9.02502 25.5935L9.00469 33.5206L1.08483 28.9563L1.10516 21.0293Z" fill="#0098DA"/>
</svg>
