<svg xmlns="http://www.w3.org/2000/svg" width="66.667" height="66.667"><defs><clipPath id="a" clipPathUnits="userSpaceOnUse"><path d="M0 50h50V0H0Z"/></clipPath></defs><g clip-path="url(#a)" transform="matrix(1.33333 0 0 -1.33333 0 66.667)"><path d="M0 0a4.439 4.439 0 0 0 4.434 4.434A4.439 4.439 0 0 0 8.868 0a4.439 4.439 0 0 0-4.434-4.434A4.439 4.439 0 0 0 0 0m5.915-7.476c1.605 0 3.21-.378 4.645-1.096a.85.85 0 0 1 .76 1.521 12.143 12.143 0 0 1-4.918 1.247c2.419.823 4.166 3.111 4.166 5.804a6.141 6.141 0 0 1-6.134 6.134A6.141 6.141 0 0 1-1.7 0c0-3.017 2.192-5.526 5.066-6.034-4.871-1.018-8.712-5.023-9.356-10.138a.85.85 0 0 1 1.686-.213A10.186 10.186 0 0 0 5.805-7.476h.11" style="fill:#0098da;fill-opacity:1;fill-rule:nonzero;stroke:none" transform="translate(6.563 39.185)"/><path d="M0 0a3.131 3.131 0 0 0 3.128 3.128A3.132 3.132 0 0 0 6.257 0a3.132 3.132 0 0 0-3.129-3.128A3.131 3.131 0 0 0 0 0m-1.292-7.952a5.889 5.889 0 0 0 8.819 0 .852.852 0 0 1 1.201-.073.852.852 0 0 1 .073 1.2 7.59 7.59 0 0 1-3.907 2.342A4.827 4.827 0 0 1 7.956 0a4.834 4.834 0 0 1-4.828 4.828A4.834 4.834 0 0 1-1.7 0a4.827 4.827 0 0 1 3.054-4.48 7.594 7.594 0 0 1-3.92-2.345.85.85 0 0 1 1.274-1.127" style="fill:#0098da;fill-opacity:1;fill-rule:nonzero;stroke:none" transform="translate(22.364 40.756)"/><path d="M0 0a.85.85 0 0 1-.85-.85v-4.357c0-.962-.782-1.744-1.744-1.744h-17.13a.844.844 0 0 1-.405-.103l-6.527-3.548v2.801a.85.85 0 0 1-.85.85H-30.1c-.962 0-1.744.782-1.744 1.744V7.394c0 .961.782 1.744 1.744 1.744h19.263a.85.85 0 1 1 0 1.7H-30.1a3.449 3.449 0 0 1-3.444-3.444V-5.207A3.448 3.448 0 0 1-30.1-8.65h1.744v-3.381a.852.852 0 0 1 .85-.85c.139 0 .279.034.405.103l7.594 4.128h16.913A3.448 3.448 0 0 1 .85-5.207V-.85C.85-.38.47 0 0 0" style="fill:#0098da;fill-opacity:1;fill-rule:nonzero;stroke:none" transform="translate(43.54 17.297)"/><path d="M0 0h16.098a.85.85 0 0 1 0 1.699H0A.85.85 0 1 1 0 0" style="fill:#0098da;fill-opacity:1;fill-rule:nonzero;stroke:none" transform="translate(16.249 20.206)"/><path d="M0 0h20.406a.85.85 0 1 1 0 1.699H0A.85.85 0 1 1 0 0" style="fill:#0098da;fill-opacity:1;fill-rule:nonzero;stroke:none" transform="translate(16.249 14.914)"/><path d="M0 0h-1.37a.85.85 0 0 1-.85-.85v-1.288h-.52V-.85a.85.85 0 0 1-.85.85h-1.37v.437h1.37c.47 0 .85.381.85.851v1.287h.52V1.288c0-.47.38-.851.85-.851H0zm.295 2.138h-.816v.753c0 .763-.629 1.384-1.404 1.384h-1.11a1.395 1.395 0 0 1-1.404-1.384v-.753h-.815A1.396 1.396 0 0 1-6.659.753V-.315c0-.764.63-1.385 1.405-1.385h.815v-.753c0-.763.629-1.384 1.404-1.384h1.11c.775 0 1.404.621 1.404 1.384v.753h.816c.774 0 1.404.621 1.404 1.385V.753c0 .764-.63 1.385-1.404 1.385" style="fill:#0098da;fill-opacity:1;fill-rule:nonzero;stroke:none" transform="translate(44.973 25.468)"/><path d="M0 0a5.248 5.248 0 0 0-5.242 5.242A5.247 5.247 0 0 0 0 10.483a5.247 5.247 0 0 0 5.241-5.241A5.248 5.248 0 0 0 0 0m0 12.184c-3.828 0-6.941-3.115-6.941-6.942A6.948 6.948 0 0 1 0-1.699a6.948 6.948 0 0 1 6.94 6.941c0 3.827-3.113 6.942-6.94 6.942" style="fill:#0098da;fill-opacity:1;fill-rule:nonzero;stroke:none" transform="translate(42.493 20.445)"/></g></svg>