<?xml version="1.0" encoding="utf-8"?> <!-- Generator: IcoMoon.io --> <!DOCTYPE svg PUBLIC "-//W3C//DTD SVG 1.1//EN" "http://www.w3.org/Graphics/SVG/1.1/DTD/svg11.dtd"> <svg width="32" height="32" viewBox="0 0 32 32" xmlns="http://www.w3.org/2000/svg" xmlns:xlink="http://www.w3.org/1999/xlink" fill="#000000"><g><path d="M 21.7,16.29L 15.214,9.804c-0.39-0.39-1.024-0.39-1.414,0c-0.39,0.39-0.39,1.024,0,1.414L 19.582,17 L 13.8,22.782c-0.39,0.39-0.39,1.024,0,1.414c 0.39,0.39, 1.024,0.39, 1.414,0l 6.486-6.486c 0.196-0.196, 0.294-0.454, 0.292-0.71 C 21.992,16.742, 21.896,16.486, 21.7,16.29zM 17.072,2.144c-8.244,0-14.928,6.684-14.928,14.928S 8.828,32, 17.072,32S 32,25.316, 32,17.072 S 25.316,2.144, 17.072,2.144z M 17.072,30c-7.128,0-12.928-5.8-12.928-12.928s 5.8-12.928, 12.928-12.928S 30,9.944, 30,17.072S 24.2,30, 17.072,30z"></path></g></svg>