<?xml version="1.0" encoding="utf-8"?> <!-- Generator: IcoMoon.io --> <!DOCTYPE svg PUBLIC "-//W3C//DTD SVG 1.1//EN" "http://www.w3.org/Graphics/SVG/1.1/DTD/svg11.dtd"> <svg width="32" height="32" viewBox="0 0 32 32" xmlns="http://www.w3.org/2000/svg" xmlns:xlink="http://www.w3.org/1999/xlink" fill="#000000"><g><path d="M 29.708,2.292c-0.39-0.39-1.024-0.39-1.414,0L 20,10.586L 20,5 C 20,4.448, 19.552,4, 19,4S 18,4.448, 18,5l0,8 c0,0.002,0,0.002,0,0.004C 18,13.132, 18.028,13.26, 18.078,13.382c 0.048,0.118, 0.12,0.224, 0.208,0.314C 18.288,13.7, 18.29,13.704, 18.292,13.708 C 18.296,13.71, 18.298,13.71, 18.3,13.712c 0.090,0.088, 0.198,0.162, 0.316,0.21C 18.74,13.974, 18.87,14, 19,14l 8,0 C 27.552,14, 28,13.552, 28,13 C 28,12.448, 27.552,12, 27,12l-5.586,0 l 8.292-8.292C 30.098,3.316, 30.098,2.684, 29.708,2.292zM 2.292,29.708c 0.39,0.39, 1.024,0.39, 1.414,0L 12,21.414L 12,27 C 12,27.552, 12.448,28, 13,28S 14,27.552, 14,27l0-8 l0,0c0-0.13-0.026-0.26-0.078-0.382c-0.102-0.244-0.296-0.44-0.54-0.54C 13.26,18.026, 13.13,18, 13,18l-8,0 C 4.448,18, 4,18.448, 4,19 C 4,19.552, 4.448,20, 5,20l 5.586,0 l-8.292,8.292C 1.902,28.684, 1.902,29.316, 2.292,29.708z"></path></g></svg>