<?xml version="1.0" encoding="utf-8"?> <!-- Generator: IcoMoon.io --> <!DOCTYPE svg PUBLIC "-//W3C//DTD SVG 1.1//EN" "http://www.w3.org/Graphics/SVG/1.1/DTD/svg11.dtd"> <svg width="32" height="32" viewBox="0 0 32 32" xmlns="http://www.w3.org/2000/svg" xmlns:xlink="http://www.w3.org/1999/xlink" fill="#000000"><g><path d="M 24.706,16.312L 18.788,9.622c-0.392-0.392-1.030-0.392-1.422,0s-0.392,1.030,0,1.422l 5.3,5.992l-5.3,5.992 c-0.392,0.392-0.392,1.030,0,1.422s 1.030,0.392, 1.422,0l 5.918-6.69c 0.2-0.2, 0.296-0.462, 0.292-0.724 C 25,16.774, 24.906,16.512, 24.706,16.312zM 17.826,17.036c 0.004-0.262-0.092-0.526-0.292-0.724L 11.616,9.622c-0.392-0.392-1.030-0.392-1.422,0 s-0.392,1.030,0,1.422l 5.3,5.992l-5.3,5.992c-0.392,0.392-0.392,1.030,0,1.422s 1.030,0.392, 1.422,0l 5.918-6.69 C 17.734,17.562, 17.83,17.3, 17.826,17.036zM 17,2C 8.716,2, 2,8.716, 2,17S 8.716,32, 17,32S 32,25.284, 32,17S 25.284,2, 17,2z M 17,30 C 9.832,30, 4,24.168, 4,17S 9.832,4, 17,4S 30,9.832, 30,17S 24.168,30, 17,30z"></path></g></svg>