<?xml version="1.0" encoding="utf-8"?> <!-- Generator: IcoMoon.io --> <!DOCTYPE svg PUBLIC "-//W3C//DTD SVG 1.1//EN" "http://www.w3.org/Graphics/SVG/1.1/DTD/svg11.dtd"> <svg width="32" height="32" viewBox="0 0 32 32" xmlns="http://www.w3.org/2000/svg" xmlns:xlink="http://www.w3.org/1999/xlink" fill="#000000"><g><path d="M 4,15C 4,15.552, 4.448,16, 5,16l 19.586,0 l-4.292,4.292c-0.39,0.39-0.39,1.024,0,1.414 c 0.39,0.39, 1.024,0.39, 1.414,0l 6-6c 0.092-0.092, 0.166-0.202, 0.216-0.324C 27.972,15.26, 28,15.132, 28,15.004c0-0.002,0-0.002,0-0.004 l0,0c0-0.13-0.026-0.26-0.078-0.382c-0.050-0.122-0.124-0.232-0.216-0.324l-6-6c-0.39-0.39-1.024-0.39-1.414,0 c-0.39,0.39-0.39,1.024,0,1.414L 24.586,14L 5,14 C 4.448,14, 4,14.448, 4,15z"></path></g></svg>