<?xml version="1.0" encoding="utf-8"?> <!-- Generator: IcoMoon.io --> <!DOCTYPE svg PUBLIC "-//W3C//DTD SVG 1.1//EN" "http://www.w3.org/Graphics/SVG/1.1/DTD/svg11.dtd"> <svg width="32" height="32" viewBox="0 0 32 32" xmlns="http://www.w3.org/2000/svg" xmlns:xlink="http://www.w3.org/1999/xlink" fill="#000000"><g><path d="M 21.956,16.364l-5.992,5.3l-5.992-5.3c-0.392-0.392-1.030-0.392-1.422,0c-0.392,0.392-0.392,1.030,0,1.422 l 6.69,5.918c 0.2,0.2, 0.462,0.296, 0.724,0.292C 16.226,24, 16.488,23.906, 16.688,23.706l 6.69-5.918c 0.392-0.392, 0.392-1.030,0-1.422 S 22.348,15.972, 21.956,16.364zM 23.378,9.192c-0.392-0.392-1.030-0.392-1.422,0l-5.992,5.3l-5.992-5.3C 9.578,8.8, 8.94,8.8, 8.548,9.192 c-0.392,0.392-0.392,1.030,0,1.422l 6.69,5.918c 0.2,0.2, 0.462,0.296, 0.724,0.292c 0.262,0.004, 0.526-0.092, 0.724-0.292l 6.69-5.918 C 23.772,10.222, 23.772,9.586, 23.378,9.192z"></path></g></svg>