<?xml version="1.0" encoding="utf-8"?> <!-- Generator: IcoMoon.io --> <!DOCTYPE svg PUBLIC "-//W3C//DTD SVG 1.1//EN" "http://www.w3.org/Graphics/SVG/1.1/DTD/svg11.dtd"> <svg width="32" height="32.04999923706055" viewBox="0 0 32 32.04999923706055" xmlns="http://www.w3.org/2000/svg" xmlns:xlink="http://www.w3.org/1999/xlink" fill="#000000"><g><path d="M 20.292,5.708c 0.39,0.39, 1.024,0.39, 1.414,0c 0.39-0.39, 0.39-1.024,0-1.414l-4-4 C 17.614,0.2, 17.504,0.128, 17.382,0.078c-0.244-0.102-0.52-0.102-0.764,0C 16.498,0.126, 16.392,0.198, 16.3,0.288 C 16.298,0.29, 16.296,0.29, 16.292,0.292l-4,4c-0.39,0.39-0.39,1.024,0,1.414c 0.39,0.39, 1.024,0.39, 1.414,0L 16,3.414l0,25.172 l-2.292-2.292c-0.39-0.39-1.024-0.39-1.414,0c-0.39,0.39-0.39,1.024,0,1.414l 4,4c 0.002,0.002, 0.006,0.002, 0.008,0.006 c 0.090,0.088, 0.198,0.162, 0.316,0.21c 0.244,0.102, 0.52,0.102, 0.764,0c 0.122-0.050, 0.232-0.124, 0.324-0.216l 4-4 c 0.39-0.39, 0.39-1.024,0-1.414c-0.39-0.39-1.024-0.39-1.414,0L 18,28.586L 18,3.414 L 20.292,5.708z"></path></g></svg>