<?xml version="1.0" encoding="utf-8"?> <!-- Generator: IcoMoon.io --> <!DOCTYPE svg PUBLIC "-//W3C//DTD SVG 1.1//EN" "http://www.w3.org/Graphics/SVG/1.1/DTD/svg11.dtd"> <svg width="32" height="32" viewBox="0 0 32 32" xmlns="http://www.w3.org/2000/svg" xmlns:xlink="http://www.w3.org/1999/xlink" fill="#000000"><g><path d="M 17,2C 8.716,2, 2,8.716, 2,17S 8.716,32, 17,32S 32,25.284, 32,17S 25.284,2, 17,2z M 17,30 C 9.832,30, 4,24.168, 4,17S 9.832,4, 17,4S 30,9.832, 30,17S 24.168,30, 17,30zM 23.634,16.346L 15.92,10.236c-0.434-0.34-1.138-0.34-1.572,0C 14.344,10.24, 14.342,10.244, 14.338,10.246 C 14.13,10.404, 14,10.624, 14,10.87l0,12.22 c0,0.25, 0.138,0.472, 0.352,0.63l-0.004,0.004c 0.434,0.34, 1.138,0.34, 1.572,0L 23.674,17.6 c 0.434-0.34, 0.434-0.894,0-1.234C 23.662,16.356, 23.646,16.354, 23.634,16.346z"></path></g></svg>