<?xml version="1.0" encoding="utf-8"?> <!-- Generator: IcoMoon.io --> <!DOCTYPE svg PUBLIC "-//W3C//DTD SVG 1.1//EN" "http://www.w3.org/Graphics/SVG/1.1/DTD/svg11.dtd"> <svg width="32" height="32" viewBox="0 0 32 32" xmlns="http://www.w3.org/2000/svg" xmlns:xlink="http://www.w3.org/1999/xlink" fill="#000000"><g><path d="M 17.072,2.142c-8.244,0-14.928,6.684-14.928,14.928C 2.142,25.316, 8.826,32, 17.072,32 C 25.316,32, 32,25.316, 32,17.072C 32,8.826, 25.316,2.142, 17.072,2.142z M 16.636,24.378c-0.392,0.392-1.030,0.392-1.422,0L 9.294,17.688 c-0.2-0.2-0.296-0.464-0.292-0.726C 9,16.7, 9.094,16.438, 9.294,16.238l 5.918-6.69c 0.392-0.392, 1.030-0.392, 1.422,0 s 0.392,1.030,0,1.422l-5.3,5.992l 5.3,5.992C 17.028,23.348, 17.028,23.986, 16.636,24.378z M 23.808,22.956 c 0.392,0.392, 0.392,1.030,0,1.422s-1.030,0.392-1.422,0L 16.466,17.688c-0.2-0.2-0.296-0.464-0.292-0.726 C 16.172,16.7, 16.266,16.438, 16.466,16.238l 5.918-6.69c 0.392-0.392, 1.030-0.392, 1.422,0s 0.392,1.030,0,1.422l-5.3,5.992L 23.808,22.956z "></path></g></svg>