<?xml version="1.0" encoding="utf-8"?> <!-- Generator: IcoMoon.io --> <!DOCTYPE svg PUBLIC "-//W3C//DTD SVG 1.1//EN" "http://www.w3.org/Graphics/SVG/1.1/DTD/svg11.dtd"> <svg width="32" height="32" viewBox="0 0 32 32" xmlns="http://www.w3.org/2000/svg" xmlns:xlink="http://www.w3.org/1999/xlink" fill="#000000"><g><path d="M 8.294,16.688l 5.918,6.69c 0.392,0.392, 1.030,0.392, 1.422,0s 0.392-1.030,0-1.422l-5.3-5.992l 5.3-5.992 c 0.392-0.392, 0.392-1.030,0-1.422s-1.030-0.392-1.422,0L 8.294,15.238C 8.094,15.438, 8,15.7, 8.002,15.962 C 8,16.224, 8.094,16.488, 8.294,16.688zM 22.808,8.548c-0.392-0.392-1.030-0.392-1.422,0L 15.466,15.238c-0.2,0.2-0.296,0.462-0.292,0.724 C 15.172,16.224, 15.266,16.488, 15.466,16.688l 5.918,6.69c 0.392,0.392, 1.030,0.392, 1.422,0s 0.392-1.030,0-1.422l-5.3-5.992l 5.3-5.992 C 23.2,9.578, 23.2,8.94, 22.808,8.548z"></path></g></svg>