<?xml version="1.0" encoding="utf-8"?> <!-- Generator: IcoMoon.io --> <!DOCTYPE svg PUBLIC "-//W3C//DTD SVG 1.1//EN" "http://www.w3.org/Graphics/SVG/1.1/DTD/svg11.dtd"> <svg width="32" height="32" viewBox="0 0 32 32" xmlns="http://www.w3.org/2000/svg" xmlns:xlink="http://www.w3.org/1999/xlink" fill="#000000"><g><path d="M 5,16C 4.448,16, 4,16.448, 4,17l0,10 c0,0.002,0,0.002,0,0.004c0,0.13, 0.026,0.258, 0.076,0.378 c 0.048,0.118, 0.12,0.224, 0.208,0.314c 0.004,0.004, 0.004,0.008, 0.008,0.012c 0.002,0.002, 0.006,0.002, 0.008,0.006 c 0.090,0.088, 0.198,0.162, 0.316,0.21C 4.74,27.974, 4.87,28, 5,28l 10,0 C 15.552,28, 16,27.552, 16,27C 16,26.448, 15.552,26, 15,26L 7.414,26 L 26,7.414L 26,15 C 26,15.552, 26.448,16, 27,16S 28,15.552, 28,15l0-10 l0,0c0-0.13-0.026-0.26-0.078-0.382c-0.102-0.244-0.296-0.44-0.54-0.54 C 27.26,4.026, 27.13,4, 27,4l-10,0 C 16.448,4, 16,4.448, 16,5C 16,5.552, 16.448,6, 17,6l 7.586,0 L 6,24.586L 6,17 C 6,16.448, 5.552,16, 5,16z"></path></g></svg>