<?xml version="1.0" encoding="utf-8"?> <!-- Generator: IcoMoon.io --> <!DOCTYPE svg PUBLIC "-//W3C//DTD SVG 1.1//EN" "http://www.w3.org/Graphics/SVG/1.1/DTD/svg11.dtd"> <svg width="32" height="32" viewBox="0 0 32 32" xmlns="http://www.w3.org/2000/svg" xmlns:xlink="http://www.w3.org/1999/xlink" fill="#000000"><g><path d="M 17,4C 16.448,4, 16,4.448, 16,5l0,19.586 l-4.292-4.292c-0.39-0.39-1.024-0.39-1.414,0 c-0.39,0.39-0.39,1.024,0,1.414l 6,6c 0.002,0.002, 0.006,0.002, 0.008,0.006c 0.090,0.088, 0.198,0.162, 0.316,0.21 c 0.244,0.102, 0.52,0.102, 0.764,0c 0.122-0.050, 0.232-0.124, 0.324-0.216l 6-6c 0.39-0.39, 0.39-1.024,0-1.414 c-0.39-0.39-1.024-0.39-1.414,0L 18,24.586L 18,5 C 18,4.448, 17.552,4, 17,4z"></path></g></svg>