<?xml version="1.0" encoding="utf-8"?> <!-- Generator: IcoMoon.io --> <!DOCTYPE svg PUBLIC "-//W3C//DTD SVG 1.1//EN" "http://www.w3.org/Graphics/SVG/1.1/DTD/svg11.dtd"> <svg width="32" height="32" viewBox="0 0 32 32" xmlns="http://www.w3.org/2000/svg" xmlns:xlink="http://www.w3.org/1999/xlink" fill="#000000"><g><path d="M 17.762,9.294c-0.2-0.2-0.462-0.296-0.724-0.292C 16.774,8.998, 16.512,9.094, 16.312,9.294L 9.622,15.212 c-0.392,0.392-0.392,1.030,0,1.422c 0.392,0.392, 1.030,0.392, 1.422,0l 5.992-5.302l 5.992,5.302c 0.392,0.392, 1.030,0.392, 1.422,0 c 0.392-0.392, 0.392-1.030,0-1.422L 17.762,9.294zM 17.762,16.466c-0.2-0.2-0.462-0.296-0.724-0.292C 16.774,16.17, 16.512,16.266, 16.312,16.466l-6.69,5.918 c-0.392,0.392-0.392,1.030,0,1.422c 0.392,0.392, 1.030,0.392, 1.422,0l 5.992-5.3l 5.992,5.3c 0.392,0.392, 1.030,0.392, 1.422,0 c 0.392-0.392, 0.392-1.030,0-1.422L 17.762,16.466zM 17.072,2.144c-8.244,0-14.928,6.684-14.928,14.928S 8.828,32, 17.072,32S 32,25.316, 32,17.072 S 25.316,2.144, 17.072,2.144z M 17.072,30c-7.128,0-12.928-5.8-12.928-12.928s 5.8-12.928, 12.928-12.928S 30,9.944, 30,17.072S 24.2,30, 17.072,30z"></path></g></svg>