<?xml version="1.0" encoding="utf-8"?> <!-- Generator: IcoMoon.io --> <!DOCTYPE svg PUBLIC "-//W3C//DTD SVG 1.1//EN" "http://www.w3.org/Graphics/SVG/1.1/DTD/svg11.dtd"> <svg width="32" height="32" viewBox="0 0 32 32" xmlns="http://www.w3.org/2000/svg" xmlns:xlink="http://www.w3.org/1999/xlink" fill="#000000"><g><path d="M 22.782,13.8L 17,19.582L 11.218,13.8c-0.39-0.39-1.024-0.39-1.414,0c-0.39,0.39-0.39,1.024,0,1.414 l 6.486,6.486c 0.196,0.196, 0.454,0.294, 0.71,0.292c 0.258,0, 0.514-0.096, 0.71-0.292l 6.486-6.486c 0.39-0.39, 0.39-1.024,0-1.414 C 23.806,13.41, 23.172,13.41, 22.782,13.8zM 17.072,2.142c-8.244,0-14.928,6.684-14.928,14.928C 2.142,25.316, 8.826,32, 17.072,32 C 25.316,32, 32,25.316, 32,17.072C 32,8.826, 25.316,2.142, 17.072,2.142z M 17.072,30c-7.128,0-12.928-5.8-12.928-12.928 c0-7.128, 5.8-12.928, 12.928-12.928C 24.2,4.142, 30,9.942, 30,17.072C 30,24.2, 24.2,30, 17.072,30z"></path></g></svg>