<?xml version="1.0" encoding="utf-8"?> <!-- Generator: IcoMoon.io --> <!DOCTYPE svg PUBLIC "-//W3C//DTD SVG 1.1//EN" "http://www.w3.org/Graphics/SVG/1.1/DTD/svg11.dtd"> <svg width="32.93000411987305" height="32.93000411987305" viewBox="0 0 32.93000411987305 32.93000411987305" xmlns="http://www.w3.org/2000/svg" xmlns:xlink="http://www.w3.org/1999/xlink" fill="#000000"><g><path d="M 6.394,6.394c-5.858,5.858-5.858,15.356,0,21.214c 5.858,5.858, 15.356,5.858, 21.214,0 c 5.858-5.858, 5.858-15.356,0-21.214C 21.748,0.536, 12.252,0.536, 6.394,6.394z M 24.436,24.436c-0.39,0.39-1.024,0.39-1.414,0 L 12,13.414l0,6.072 c0,0.552-0.448,1-1,1S 10,20.038, 10,19.486L 10,11 l0,0c0-0.13, 0.026-0.26, 0.078-0.382 c 0.048-0.118, 0.12-0.224, 0.208-0.314c 0.004-0.004, 0.004-0.008, 0.008-0.012C 10.296,10.29, 10.298,10.29, 10.3,10.288 c 0.090-0.088, 0.198-0.162, 0.316-0.21C 10.74,10.026, 10.87,10, 11,10l 8.486,0 c 0.552,0, 1,0.448, 1,1c0,0.552-0.448,1-1,1L 13.414,12 l 11.020,11.020C 24.826,23.412, 24.826,24.044, 24.436,24.436z"></path></g></svg>