<?xml version="1.0" encoding="utf-8"?> <!-- Generator: IcoMoon.io --> <!DOCTYPE svg PUBLIC "-//W3C//DTD SVG 1.1//EN" "http://www.w3.org/Graphics/SVG/1.1/DTD/svg11.dtd"> <svg width="32" height="32.00200271606445" viewBox="0 0 32 32.00200271606445" xmlns="http://www.w3.org/2000/svg" xmlns:xlink="http://www.w3.org/1999/xlink" fill="#000000"><g><path d="M 18.28,31.718c 0.196,0.196, 0.454,0.294, 0.71,0.292c 0.258,0, 0.514-0.096, 0.71-0.292l 3.852-3.852 c 0.39-0.39, 0.39-1.024,0-1.414s-1.024-0.39-1.414,0L 20,28.59l0-17.58 c0-0.552-0.448-1-1-1S 18,10.458, 18,11.010l0,17.6 l-2.304-2.304c-0.39-0.39-1.024-0.39-1.414,0c-0.39,0.39-0.39,1.024,0,1.414L 18.28,31.718zM 13,22.010c 0.552,0, 1-0.448, 1-1l0-17.6 l 2.304,2.304c 0.39,0.39, 1.024,0.39, 1.414,0 c 0.39-0.39, 0.39-1.024,0-1.414L 13.72,0.302C 13.524,0.106, 13.268,0.010, 13.010,0.010c-0.258,0-0.514,0.096-0.71,0.292L 8.448,4.154 c-0.39,0.39-0.39,1.024,0,1.414c 0.39,0.39, 1.024,0.39, 1.414,0L 12,3.43l0,17.58 C 12,21.562, 12.448,22.010, 13,22.010z"></path></g></svg>