<?xml version="1.0" encoding="utf-8"?> <!-- Generator: IcoMoon.io --> <!DOCTYPE svg PUBLIC "-//W3C//DTD SVG 1.1//EN" "http://www.w3.org/Graphics/SVG/1.1/DTD/svg11.dtd"> <svg width="32" height="32" viewBox="0 0 32 32" xmlns="http://www.w3.org/2000/svg" xmlns:xlink="http://www.w3.org/1999/xlink" fill="#000000"><g><path d="M 17,2C 8.716,2, 2,8.716, 2,17S 8.716,32, 17,32S 32,25.284, 32,17S 25.284,2, 17,2z M 23.724,19.652 l-0.004-0.004C 23.562,19.862, 23.34,20, 23.090,20l-12.22,0 c-0.246,0-0.466-0.13-0.624-0.338C 10.244,19.658, 10.24,19.656, 10.236,19.652 c-0.34-0.434-0.34-1.138,0-1.572l 6.11-7.714c 0.008-0.012, 0.012-0.028, 0.022-0.040c 0.34-0.434, 0.894-0.434, 1.234,0l 6.124,7.754 C 24.066,18.514, 24.066,19.218, 23.724,19.652z"></path></g></svg>