<?xml version="1.0" encoding="utf-8"?> <!-- Generator: IcoMoon.io --> <!DOCTYPE svg PUBLIC "-//W3C//DTD SVG 1.1//EN" "http://www.w3.org/Graphics/SVG/1.1/DTD/svg11.dtd"> <svg width="32" height="32" viewBox="0 0 32 32" xmlns="http://www.w3.org/2000/svg" xmlns:xlink="http://www.w3.org/1999/xlink" fill="#000000"><g><path d="M 17.71,12.3C 17.514,12.104, 17.258,12.008, 17,12.008c-0.258,0-0.514,0.096-0.71,0.292L 9.804,18.786 c-0.39,0.39-0.39,1.024,0,1.414c 0.39,0.39, 1.024,0.39, 1.414,0L 17,14.418l 5.782,5.782c 0.39,0.39, 1.024,0.39, 1.414,0 c 0.39-0.39, 0.39-1.024,0-1.414L 17.71,12.3zM 17.066,2.134c-8.248,0-14.934,6.686-14.934,14.934S 8.82,32, 17.066,32S 32,25.314, 32,17.066 S 25.314,2.134, 17.066,2.134z M 17.066,30c-7.132,0-12.934-5.802-12.934-12.934s 5.802-12.934, 12.934-12.934S 30,9.936, 30,17.066 S 24.198,30, 17.066,30z"></path></g></svg>