<?xml version="1.0" encoding="utf-8"?> <!-- Generator: IcoMoon.io --> <!DOCTYPE svg PUBLIC "-//W3C//DTD SVG 1.1//EN" "http://www.w3.org/Graphics/SVG/1.1/DTD/svg11.dtd"> <svg width="32" height="32" viewBox="0 0 32 32" xmlns="http://www.w3.org/2000/svg" xmlns:xlink="http://www.w3.org/1999/xlink" fill="#000000"><g><path d="M 17,2C 8.716,2, 2,8.716, 2,17S 8.716,32, 17,32S 32,25.284, 32,17S 25.284,2, 17,2z M 17,30 C 9.832,30, 4,24.168, 4,17S 9.832,4, 17,4S 30,9.832, 30,17S 24.168,30, 17,30zM 23.734,14.338C 23.576,14.13, 23.356,14, 23.11,14l-12.22,0 C 10.64,14, 10.418,14.138, 10.26,14.352L 10.256,14.348 c-0.34,0.434-0.34,1.138,0,1.572l 6.124,7.754c 0.34,0.434, 0.894,0.434, 1.234,0c 0.010-0.012, 0.012-0.028, 0.022-0.040l 6.11-7.714 c 0.34-0.434, 0.34-1.138,0-1.572C 23.742,14.344, 23.738,14.342, 23.734,14.338z"></path></g></svg>