<?xml version="1.0" encoding="utf-8"?> <!-- Generator: IcoMoon.io --> <!DOCTYPE svg PUBLIC "-//W3C//DTD SVG 1.1//EN" "http://www.w3.org/Graphics/SVG/1.1/DTD/svg11.dtd"> <svg width="32" height="32" viewBox="0 0 32 32" xmlns="http://www.w3.org/2000/svg" xmlns:xlink="http://www.w3.org/1999/xlink" fill="#000000"><g><path d="M 17,28C 17.552,28, 18,27.552, 18,27L 18,7.414 l 4.292,4.292c 0.39,0.39, 1.024,0.39, 1.414,0 c 0.39-0.39, 0.39-1.024,0-1.414l-6-6C 17.614,4.2, 17.504,4.128, 17.382,4.078c-0.244-0.102-0.52-0.102-0.764,0 C 16.498,4.126, 16.392,4.198, 16.3,4.288C 16.298,4.29, 16.296,4.29, 16.292,4.292l-6,6c-0.39,0.39-0.39,1.024,0,1.414 c 0.39,0.39, 1.024,0.39, 1.414,0L 16,7.414L 16,27 C 16,27.552, 16.448,28, 17,28z"></path></g></svg>