<?xml version="1.0" encoding="utf-8"?> <!-- Generator: IcoMoon.io --> <!DOCTYPE svg PUBLIC "-//W3C//DTD SVG 1.1//EN" "http://www.w3.org/Graphics/SVG/1.1/DTD/svg11.dtd"> <svg width="32" height="32" viewBox="0 0 32 32" xmlns="http://www.w3.org/2000/svg" xmlns:xlink="http://www.w3.org/1999/xlink" fill="#000000"><g><path d="M 23.706,15.312L 17.788,8.622c-0.392-0.392-1.030-0.392-1.422,0s-0.392,1.030,0,1.422l 5.3,5.992l-5.3,5.992 c-0.392,0.392-0.392,1.030,0,1.422s 1.030,0.392, 1.422,0l 5.918-6.69c 0.2-0.2, 0.296-0.462, 0.292-0.724 C 24,15.774, 23.906,15.512, 23.706,15.312zM 9.192,23.452c 0.392,0.392, 1.030,0.392, 1.422,0l 5.918-6.69c 0.2-0.2, 0.296-0.462, 0.292-0.724 c 0.004-0.262-0.092-0.526-0.292-0.724L 10.616,8.622c-0.392-0.392-1.030-0.392-1.422,0s-0.392,1.030,0,1.422l 5.3,5.992l-5.3,5.992 C 8.8,22.422, 8.8,23.060, 9.192,23.452z"></path></g></svg>