<?xml version="1.0" encoding="utf-8"?> <!-- Generator: IcoMoon.io --> <!DOCTYPE svg PUBLIC "-//W3C//DTD SVG 1.1//EN" "http://www.w3.org/Graphics/SVG/1.1/DTD/svg11.dtd"> <svg width="32" height="32" viewBox="0 0 32 32" xmlns="http://www.w3.org/2000/svg" xmlns:xlink="http://www.w3.org/1999/xlink" fill="#000000"><g><path d="M 17,2C 8.716,2, 2,8.716, 2,17S 8.716,32, 17,32S 32,25.284, 32,17S 25.284,2, 17,2z M 17,30 C 9.832,30, 4,24.168, 4,17S 9.832,4, 17,4S 30,9.832, 30,17S 24.168,30, 17,30zM 17.6,12.326c-0.34-0.434-0.894-0.434-1.234,0c-0.010,0.012-0.012,0.028-0.022,0.040L 10.236,20.080 c-0.34,0.434-0.34,1.138,0,1.572c 0.002,0.004, 0.008,0.004, 0.010,0.008C 10.404,21.87, 10.624,22, 10.87,22l 12.22,0 c 0.25,0, 0.472-0.138, 0.63-0.352l 0.004,0.004c 0.34-0.434, 0.34-1.138,0-1.572L 17.6,12.326z"></path></g></svg>