<?xml version="1.0" encoding="utf-8"?> <!-- Generator: IcoMoon.io --> <!DOCTYPE svg PUBLIC "-//W3C//DTD SVG 1.1//EN" "http://www.w3.org/Graphics/SVG/1.1/DTD/svg11.dtd"> <svg width="32" height="32" viewBox="0 0 32 32" xmlns="http://www.w3.org/2000/svg" xmlns:xlink="http://www.w3.org/1999/xlink" fill="#000000"><g><path d="M 17,2C 8.716,2, 2,8.716, 2,17S 8.716,32, 17,32S 32,25.284, 32,17S 25.284,2, 17,2z M 17,30 C 9.832,30, 4,24.168, 4,17S 9.832,4, 17,4S 30,9.832, 30,17S 24.168,30, 17,30zM 19.652,10.236c-0.434-0.34-1.138-0.34-1.572,0L 10.326,16.36c-0.434,0.34-0.434,0.894,0,1.234 c 0.012,0.010, 0.028,0.012, 0.040,0.022l 7.714,6.11c 0.434,0.34, 1.138,0.34, 1.572,0c 0.004-0.002, 0.004-0.008, 0.008-0.010 C 19.87,23.556, 20,23.336, 20,23.090l0-12.22 C 20,10.62, 19.862,10.398, 19.648,10.24L 19.652,10.236z"></path></g></svg>