<?xml version="1.0" encoding="utf-8"?> <!-- Generator: IcoMoon.io --> <!DOCTYPE svg PUBLIC "-//W3C//DTD SVG 1.1//EN" "http://www.w3.org/Graphics/SVG/1.1/DTD/svg11.dtd"> <svg width="32" height="32" viewBox="0 0 32 32" xmlns="http://www.w3.org/2000/svg" xmlns:xlink="http://www.w3.org/1999/xlink" fill="#000000"><g><path d="M 11.334,16.962l 5.3-5.992c 0.392-0.392, 0.392-1.030,0-1.422s-1.030-0.392-1.422,0L 9.294,16.238 c-0.2,0.2-0.296,0.462-0.292,0.724C 9,17.224, 9.094,17.488, 9.294,17.688l 5.918,6.69c 0.392,0.392, 1.030,0.392, 1.422,0 s 0.392-1.030,0-1.422L 11.334,16.962zM 23.808,9.548c-0.392-0.392-1.030-0.392-1.422,0L 16.466,16.238c-0.2,0.2-0.296,0.462-0.292,0.724 C 16.172,17.224, 16.266,17.488, 16.466,17.688l 5.918,6.69c 0.392,0.392, 1.030,0.392, 1.422,0s 0.392-1.030,0-1.422l-5.3-5.992l 5.3-5.992 C 24.2,10.578, 24.2,9.94, 23.808,9.548zM 17,2C 8.716,2, 2,8.716, 2,17S 8.716,32, 17,32S 32,25.284, 32,17S 25.284,2, 17,2z M 17,30 C 9.832,30, 4,24.168, 4,17S 9.832,4, 17,4S 30,9.832, 30,17S 24.168,30, 17,30z"></path></g></svg>