<?xml version="1.0" encoding="utf-8"?> <!-- Generator: IcoMoon.io --> <!DOCTYPE svg PUBLIC "-//W3C//DTD SVG 1.1//EN" "http://www.w3.org/Graphics/SVG/1.1/DTD/svg11.dtd"> <svg width="32" height="32" viewBox="0 0 32 32" xmlns="http://www.w3.org/2000/svg" xmlns:xlink="http://www.w3.org/1999/xlink" fill="#000000"><g><path d="M 4.292,27.708c 0.39,0.39, 1.024,0.39, 1.414,0L 26,7.414L 26,15 C 26,15.552, 26.448,16, 27,16S 28,15.552, 28,15l0-10 l0,0c0-0.13-0.026-0.26-0.078-0.382c-0.102-0.244-0.296-0.44-0.54-0.54C 27.26,4.026, 27.13,4, 27,4l-10,0 C 16.448,4, 16,4.448, 16,5 C 16,5.552, 16.448,6, 17,6l 7.586,0 L 4.292,26.292C 3.902,26.684, 3.902,27.316, 4.292,27.708z"></path></g></svg>