<?xml version="1.0" encoding="utf-8"?> <!-- Generator: IcoMoon.io --> <!DOCTYPE svg PUBLIC "-//W3C//DTD SVG 1.1//EN" "http://www.w3.org/Graphics/SVG/1.1/DTD/svg11.dtd"> <svg width="32.93000411987305" height="32.93000411987305" viewBox="0 0 32.93000411987305 32.93000411987305" xmlns="http://www.w3.org/2000/svg" xmlns:xlink="http://www.w3.org/1999/xlink" fill="#000000"><g><path d="M 6.394,6.394c-5.858,5.858-5.858,15.356,0,21.214c 5.858,5.858, 15.356,5.858, 21.214,0 c 5.858-5.858, 5.858-15.356,0-21.214C 21.748,0.536, 12.252,0.536, 6.394,6.394z M 24.436,10.98L 13.414,22l 6.072,0 c 0.552,0, 1,0.448, 1,1 c0,0.552-0.448,1-1,1L 11,24 c-0.13,0-0.26-0.026-0.382-0.078c-0.12-0.050-0.226-0.122-0.316-0.21 c-0.002-0.002-0.006-0.002-0.008-0.006c-0.004-0.004-0.004-0.008-0.008-0.012c-0.088-0.090-0.16-0.196-0.208-0.314 C 10.028,23.26, 10,23.132, 10,23.004c0-0.002,0-0.002,0-0.004L 10,14.514 c0-0.552, 0.448-1, 1-1S 12,13.962, 12,14.514l0,6.072 l 11.020-11.020 c 0.39-0.39, 1.024-0.39, 1.414,0S 24.826,10.588, 24.436,10.98z"></path></g></svg>