<?xml version="1.0" encoding="utf-8"?> <!-- Generator: IcoMoon.io --> <!DOCTYPE svg PUBLIC "-//W3C//DTD SVG 1.1//EN" "http://www.w3.org/Graphics/SVG/1.1/DTD/svg11.dtd"> <svg width="32" height="32" viewBox="0 0 32 32" xmlns="http://www.w3.org/2000/svg" xmlns:xlink="http://www.w3.org/1999/xlink" fill="#000000"><g><path d="M 17,2C 8.716,2, 2,8.716, 2,17S 8.716,32, 17,32S 32,25.284, 32,17S 25.284,2, 17,2z M 24.196,15.214L 17.71,21.7 c-0.196,0.196-0.454,0.294-0.71,0.292c-0.258,0-0.514-0.096-0.71-0.292L 9.804,15.214c-0.39-0.39-0.39-1.024,0-1.414 c 0.39-0.39, 1.024-0.39, 1.414,0L 17,19.582L 22.782,13.8c 0.39-0.39, 1.024-0.39, 1.414,0C 24.586,14.19, 24.586,14.824, 24.196,15.214z"></path></g></svg>