<?xml version="1.0" encoding="utf-8"?> <!-- Generator: IcoMoon.io --> <!DOCTYPE svg PUBLIC "-//W3C//DTD SVG 1.1//EN" "http://www.w3.org/Graphics/SVG/1.1/DTD/svg11.dtd"> <svg width="32" height="32" viewBox="0 0 32 32" xmlns="http://www.w3.org/2000/svg" xmlns:xlink="http://www.w3.org/1999/xlink" fill="#000000"><g><path d="M 30,0L 2,0 C 0.896,0,0,0.896,0,2l0,28 c0,1.104, 0.896,2, 2,2l 28,0 c 1.104,0, 2-0.896, 2-2L 32,2 C 32,0.896, 31.104,0, 30,0z M 13,26C 13.552,26, 14,26.448, 14,27C 14,27.552, 13.552,28, 13,28l-8,0 c-0.13,0-0.26-0.026-0.382-0.078 c-0.12-0.050-0.226-0.122-0.316-0.21c-0.002-0.002-0.006-0.002-0.008-0.006c-0.004-0.004-0.004-0.008-0.008-0.012 c-0.088-0.090-0.16-0.196-0.208-0.314C 4.028,27.26, 4,27.132, 4,27.004c0-0.002,0-0.002,0-0.004l0-8 C 4,18.448, 4.448,18, 5,18 S 6,18.448, 6,19l0,5.586 l 6.292-6.292c 0.39-0.39, 1.024-0.39, 1.414,0c 0.39,0.39, 0.39,1.024,0,1.414L 7.414,26L 13,26 z M 28,5l0,8 C 28,13.552, 27.552,14, 27,14S 26,13.552, 26,13L 26,7.414 L 19.708,13.708c-0.39,0.39-1.024,0.39-1.414,0c-0.39-0.39-0.39-1.024,0-1.414 L 24.586,6L 19,6 C 18.448,6, 18,5.552, 18,5C 18,4.448, 18.448,4, 19,4l 8,0 c 0.13,0, 0.26,0.026, 0.382,0.078c 0.244,0.102, 0.44,0.296, 0.54,0.54 C 27.974,4.74, 28,4.87, 28,5L 28,5z"></path></g></svg>