<?xml version="1.0" encoding="utf-8"?> <!-- Generator: IcoMoon.io --> <!DOCTYPE svg PUBLIC "-//W3C//DTD SVG 1.1//EN" "http://www.w3.org/Graphics/SVG/1.1/DTD/svg11.dtd"> <svg width="32" height="32" viewBox="0 0 32 32" xmlns="http://www.w3.org/2000/svg" xmlns:xlink="http://www.w3.org/1999/xlink" fill="#000000"><g><path d="M 17,2C 8.716,2, 2,8.716, 2,17S 8.716,32, 17,32S 32,25.284, 32,17S 25.284,2, 17,2z M 23.708,19.708l-6,6 c-0.092,0.092-0.202,0.166-0.324,0.216c-0.244,0.102-0.52,0.102-0.764,0c-0.12-0.050-0.226-0.122-0.316-0.21 c-0.002-0.002-0.006-0.002-0.008-0.006l-6-6c-0.39-0.39-0.39-1.024,0-1.414c 0.39-0.39, 1.024-0.39, 1.414,0L 16,22.586L 16,7 C 16,6.448, 16.448,6, 17,6S 18,6.448, 18,7l0,15.586 l 4.292-4.292c 0.39-0.39, 1.024-0.39, 1.414,0C 24.098,18.684, 24.098,19.316, 23.708,19.708z "></path></g></svg>