<?xml version="1.0" encoding="utf-8"?> <!-- Generator: IcoMoon.io --> <!DOCTYPE svg PUBLIC "-//W3C//DTD SVG 1.1//EN" "http://www.w3.org/Graphics/SVG/1.1/DTD/svg11.dtd"> <svg width="32" height="32" viewBox="0 0 32 32" xmlns="http://www.w3.org/2000/svg" xmlns:xlink="http://www.w3.org/1999/xlink" fill="#000000"><g><path d="M 11,25c0-0.594-0.128-1.168-0.38-1.702C 9.964,21.902, 8.542,21, 7,21c-2.206,0-4,1.794-4,4 c0,0.394, 0.074,0.766, 0.18,1.126c 0.67,1.104, 1.59,2.024, 2.694,2.694c 0.36,0.106, 0.732,0.18, 1.126,0.18 C 9.206,29, 11,27.206, 11,25z M 7,23c 0.772,0, 1.482,0.452, 1.812,1.15C 8.936,24.416, 9,24.702, 9,25 c0,1.102-0.898,2-2,2s-2-0.898-2-2S 5.898,23, 7,23zM 31,0l-4.328,0 c-0.236,0-0.464,0.084-0.646,0.236L 11.866,12.194C 11.214,12.064, 10.6,12, 10,12c-5.514,0-10,4.486-10,10 s 4.486,10, 10,10s 10-4.486, 10-10c0-1.052-0.168-2.092-0.5-3.1l 3.044-1.978c 0.284-0.184, 0.456-0.5, 0.456-0.838L 23,12.45 l 3.802-0.2 c 0.496-0.026, 0.896-0.412, 0.942-0.906l 0.364-3.852l 3.322-1.588C 31.78,5.736, 32,5.384, 32,5l0-4 C 32,0.448, 31.552,0, 31,0z M 30,4.37l-3.264,1.56c-0.316,0.152-0.532,0.458-0.564,0.808l-0.336,3.558L 21.948,10.5C 21.416,10.53, 21,10.968, 21,11.5l0,4.040 L 17.736,17.662C 17.33,17.926, 17.17,18.444, 17.36,18.89C 17.786,19.892, 18,20.938, 18,22c0,4.412-3.588,8-8,8c-1.514,0-2.916-0.446-4.126-1.18 c-1.104-0.67-2.024-1.59-2.694-2.694C 2.446,24.916, 2,23.514, 2,22c0-4.412, 3.588-8, 8-8c 0.59,0, 1.21,0.082, 1.896,0.248 c 0.31,0.076, 0.638,0, 0.882-0.208L 27.038,2L 30,2 L 30,4.37 z"></path></g></svg>