<?xml version="1.0" encoding="utf-8"?> <!-- Generator: IcoMoon.io --> <!DOCTYPE svg PUBLIC "-//W3C//DTD SVG 1.1//EN" "http://www.w3.org/Graphics/SVG/1.1/DTD/svg11.dtd"> <svg width="32" height="32" viewBox="0 0 32 32" xmlns="http://www.w3.org/2000/svg" xmlns:xlink="http://www.w3.org/1999/xlink" fill="#000000"><g><path d="M 30,2L 4,2 C 2.896,2, 2,2.896, 2,4l0,26 c0,1.104, 0.896,2, 2,2l 26,0 c 1.104,0, 2-0.896, 2-2L 32,4 C 32,2.896, 31.104,2, 30,2z M 30,30L 4,30 L 4,4 l 26,0 L 30,30 zM 9,18l 16,0 C 25.552,18, 26,17.552, 26,17C 26,16.448, 25.552,16, 25,16l-16,0 C 8.448,16, 8,16.448, 8,17 C 8,17.552, 8.448,18, 9,18zM 9,12l 16,0 C 25.552,12, 26,11.552, 26,11C 26,10.448, 25.552,10, 25,10l-16,0 C 8.448,10, 8,10.448, 8,11 C 8,11.552, 8.448,12, 9,12zM 9,24l 16,0 c 0.552,0, 1-0.448, 1-1c0-0.552-0.448-1-1-1l-16,0 C 8.448,22, 8,22.448, 8,23 C 8,23.552, 8.448,24, 9,24z"></path></g></svg>