<?xml version="1.0" encoding="utf-8"?> <!-- Generator: IcoMoon.io --> <!DOCTYPE svg PUBLIC "-//W3C//DTD SVG 1.1//EN" "http://www.w3.org/Graphics/SVG/1.1/DTD/svg11.dtd"> <svg width="32" height="32" viewBox="0 0 32 32" xmlns="http://www.w3.org/2000/svg" xmlns:xlink="http://www.w3.org/1999/xlink" fill="#000000"><g><path d="M 26,16c-0.070,0-0.136,0.018-0.204,0.020C 25.93,15.368, 26,14.692, 26,14c0-5.522-4.478-10-10-10S 6,8.478, 6,14 c0,0.034, 0.010,0.066, 0.010,0.1C 2.618,14.584,0,17.474,0,21C0,24.866, 3.134,28, 7,28l 5.016,0 C 13.112,28, 14,27.112, 14,26.016L 14,20 L 9.756,20 L 16,12l 6.244,8L 18,20 l0,6.016 C 18,27.112, 18.888,28, 19.984,28L 26,28 c 3.314,0, 6-2.686, 6-6S 29.314,16, 26,16z"></path></g></svg>