<?xml version="1.0" encoding="utf-8"?> <!-- Generator: IcoMoon.io --> <!DOCTYPE svg PUBLIC "-//W3C//DTD SVG 1.1//EN" "http://www.w3.org/Graphics/SVG/1.1/DTD/svg11.dtd"> <svg width="32.237998962402344" height="32" viewBox="0 0 32.237998962402344 32" xmlns="http://www.w3.org/2000/svg" xmlns:xlink="http://www.w3.org/1999/xlink" fill="#000000"><g><path d="M 31.884,12.946c-0.236-0.724-0.862-1.252-1.616-1.36l-8.62-1.252L 17.794,2.522 C 17.456,1.838, 16.762,1.406, 16,1.406S 14.544,1.838, 14.206,2.522L 10.352,10.332l-8.62,1.252c-0.754,0.11-1.38,0.638-1.614,1.362 c-0.236,0.724-0.040,1.518, 0.506,2.050l 6.238,6.080l-1.472,8.586c-0.128,0.75, 0.18,1.508, 0.796,1.956C 6.532,31.872, 6.944,32, 7.36,32 c 0.318,0, 0.638-0.076, 0.93-0.23L 16,27.716l 7.71,4.054C 24.002,31.924, 24.322,32, 24.64,32c 0.414,0, 0.828-0.128, 1.176-0.382 c 0.616-0.448, 0.924-1.206, 0.796-1.956l-1.472-8.586l 6.238-6.080C 31.924,14.464, 32.12,13.67, 31.884,12.946z M 22.99,20.378L 24.64,30 L 16,25.458L 16,3.406 l 4.32,8.754l 9.66,1.404L 22.99,20.378z"></path></g></svg>