<?xml version="1.0" encoding="utf-8"?> <!-- Generator: IcoMoon.io --> <!DOCTYPE svg PUBLIC "-//W3C//DTD SVG 1.1//EN" "http://www.w3.org/Graphics/SVG/1.1/DTD/svg11.dtd"> <svg version="1.1" id="Layer_1" xmlns="http://www.w3.org/2000/svg" xmlns:xlink="http://www.w3.org/1999/xlink" x="0px" y="0px" width="32" height="32" viewBox="0 0 32 32" enable-background="new 0 0 16 16" xml:space="preserve" fill="#000000"> <g><path d="M 30,8l-6,0 L 24,4 c0-1.104-0.896-2-2-2L 10,2 C 8.896,2, 8,2.896, 8,4l0,4 L 2,8 C 0.896,8,0,8.896,0,10l0,18 c0,1.104, 0.896,2, 2,2l 28,0 c 1.104,0, 2-0.896, 2-2L 32,10 C 32,8.896, 31.104,8, 30,8z M 10,4l 12,0 l0,4 L 10,8 L 10,4 z"></path></g></svg>