<?xml version="1.0" encoding="utf-8"?> <!-- Generator: IcoMoon.io --> <!DOCTYPE svg PUBLIC "-//W3C//DTD SVG 1.1//EN" "http://www.w3.org/Graphics/SVG/1.1/DTD/svg11.dtd"> <svg width="35.124000549316406" height="32" viewBox="0 0 35.124000549316406 32" xmlns="http://www.w3.org/2000/svg" xmlns:xlink="http://www.w3.org/1999/xlink" fill="#000000"><g><path d="M 16,0C 11.906,0, 7.81,1.562, 4.686,4.686c-6.248,6.248-6.248,16.38,0,22.628C 7.81,30.438, 11.906,32, 16,32 s 8.19-1.562, 11.314-4.686c 6.248-6.248, 6.248-16.38,0-22.628C 24.19,1.562, 20.094,0, 16,0z M 10.344,21.656C 8.832,20.146, 8,18.136, 8,16 c0-2.136, 0.832-4.146, 2.344-5.656C 11.854,8.832, 13.864,8, 16,8s 4.146,0.832, 5.656,2.344C 23.168,11.854, 24,13.864, 24,16 c0,2.136-0.832,4.146-2.344,5.656C 20.146,23.168, 18.136,24, 16,24S 11.854,23.168, 10.344,21.656z M 22.186,3.45L 19.1,6.536 C 18.092,6.206, 17.050,6, 16,6C 15.044,6, 14.098,6.182, 13.172,6.454l-3.12-3.12C 11.892,2.472, 13.908,2, 16,2C 18.184,2, 20.284,2.51, 22.186,3.45z M 3.336,10.054l 3.12,3.12c-0.572,1.94-0.548,4, 0.080,5.928l-3.086,3.086C 2.51,20.284, 2,18.184, 2,16C 2,13.908, 2.472,11.892, 3.336,10.054z M 6.1,25.898L 6.1,25.898C 6.1,25.9, 6.1,25.9, 6.1,25.898L 6.1,25.898z M 10.294,28.778l 3.152-3.152C 14.284,25.848, 15.138,26, 16,26 c 0.956,0, 1.902-0.182, 2.828-0.456l 3.12,3.12C 20.108,29.528, 18.092,30, 16,30C 13.998,30, 12.068,29.57, 10.294,28.778z M 28.66,21.942 l-3.114-3.114c 0.518-1.758, 0.548-3.612, 0.080-5.382l 3.146-3.146C 30.418,14.002, 30.38,18.266, 28.66,21.942z"></path></g></svg>