<?xml version="1.0" encoding="utf-8"?> <!-- Generator: IcoMoon.io --> <!DOCTYPE svg PUBLIC "-//W3C//DTD SVG 1.1//EN" "http://www.w3.org/Graphics/SVG/1.1/DTD/svg11.dtd"> <svg width="32" height="32" viewBox="0 0 32 32" xmlns="http://www.w3.org/2000/svg" xmlns:xlink="http://www.w3.org/1999/xlink" fill="#000000"><g><path d="M 16,0C 7.164,0,0,7.164,0,16s 7.164,16, 16,16s 16-7.164, 16-16S 24.836,0, 16,0z M 16,4c 6.616,0, 12,5.384, 12,12 c0,2.588-0.832,4.98-2.23,6.942L 9.058,6.23C 11.020,4.832, 13.412,4, 16,4z M 4,16c0-2.588, 0.832-4.98, 2.23-6.942l 16.712,16.712l0,0 C 20.978,27.168, 18.588,28, 16,28C 9.384,28, 4,22.616, 4,16z"></path></g></svg>