<?xml version="1.0" encoding="utf-8"?> <!-- Generator: IcoMoon.io --> <!DOCTYPE svg PUBLIC "-//W3C//DTD SVG 1.1//EN" "http://www.w3.org/Graphics/SVG/1.1/DTD/svg11.dtd"> <svg width="32" height="32" viewBox="0 0 32 32" xmlns="http://www.w3.org/2000/svg" xmlns:xlink="http://www.w3.org/1999/xlink" fill="#000000"><g><path d="M 20.426,0c-0.33,0-0.708,0.102-1.142,0.364c0,0-8.34,7.276-8.702,7.636L 6,8 C 4.896,8, 4,8.896, 4,10l0,0.254 L 4,22 l0,0.254 c0,1.104, 0.896,2, 2,2l 4.582,0 c 0.362,0.36, 8.702,7.38, 8.702,7.38C 19.718,31.898, 20.096,32, 20.426,32 c 0.050,0, 0.1-0.002, 0.148-0.006c 0.74-0.070, 1.268-0.69, 1.426-1.344L 22,1.352 c-0.156-0.656-0.686-1.276-1.426-1.344 C 20.526,0.002, 20.478,0, 20.426,0z M 20,29.624c-3.12-2.628-7.64-6.446-8.008-6.786c-0.374-0.374-0.882-0.582-1.412-0.582L 6,22.256 L 6,22 L 6,10.254 L 6,10 l 4.582,0 c 0.512,0, 1.024-0.214, 1.394-0.566C 12.34,9.088, 16.86,5.134, 20,2.394L 20,29.624 zM 25.082,19.494c-0.494,0.25-0.692,0.85-0.444,1.344c 0.176,0.348, 0.528,0.55, 0.892,0.55 c 0.152,0, 0.304-0.034, 0.45-0.106C 28.002,20.262, 29.258,18.24, 29.258,16s-1.256-4.262-3.278-5.282 c-0.494-0.25-1.094-0.050-1.342,0.444c-0.248,0.494-0.050,1.094, 0.444,1.344C 26.424,13.182, 27.258,14.52, 27.258,16 S 26.424,18.818, 25.082,19.494z"></path></g></svg>