<?xml version="1.0" encoding="utf-8"?> <!-- Generator: IcoMoon.io --> <!DOCTYPE svg PUBLIC "-//W3C//DTD SVG 1.1//EN" "http://www.w3.org/Graphics/SVG/1.1/DTD/svg11.dtd"> <svg version="1.1" id="Layer_1" xmlns="http://www.w3.org/2000/svg" xmlns:xlink="http://www.w3.org/1999/xlink" x="0px" y="0px" width="32" height="32" viewBox="0 0 32 32" enable-background="new 0 0 16 16" xml:space="preserve" fill="#000000"> <g><path d="M 20,4L 22,4L 22,6L 20,6zM 24,4L 26,4L 26,6L 24,6zM 20,8L 22,8L 22,10L 20,10zM 24,8L 26,8L 26,10L 24,10zM 20,12L 22,12L 22,14L 20,14zM 24,12L 26,12L 26,14L 24,14zM 20,16L 22,16L 22,18L 20,18zM 24,16L 26,16L 26,18L 24,18zM 20,20L 22,20L 22,22L 20,22zM 24,20L 26,20L 26,22L 24,22zM 28,0L 18,0 C 16.896,0, 16,0.896, 16,2l0,6 L 6,8 C 4.896,8, 4,8.896, 4,10l0,20 c0,1.104, 0.896,2, 2,2l 22,0 c 1.104,0, 2-0.896, 2-2L 30,2 C 30,0.896, 29.104,0, 28,0z M 12,30L 10,30 l0-4 l 2,0 L 12,30 z M 14,30l0-4 l0-2 L 12,24 L 10,24 L 8,24 l0,2 l0,4 L 6,30 L 6,10 l 10,0 l0,20 L 14,30 z M 24,30l-2,0 l0-4 l 2,0 L 24,30 z M 28,30l-2,0 l0-4 l0-2 l-2,0 l-2,0 l-2,0 l0,6 L 18,30 L 18,10 L 18,2 l 10,0 L 28,30 zM 8,12L 10,12L 10,14L 8,14zM 12,12L 14,12L 14,14L 12,14zM 8,16L 10,16L 10,18L 8,18zM 12,16L 14,16L 14,18L 12,18zM 8,20L 10,20L 10,22L 8,22zM 12,20L 14,20L 14,22L 12,22z"></path></g></svg>