<?xml version="1.0" encoding="utf-8"?> <!-- Generator: IcoMoon.io --> <!DOCTYPE svg PUBLIC "-//W3C//DTD SVG 1.1//EN" "http://www.w3.org/Graphics/SVG/1.1/DTD/svg11.dtd"> <svg width="32" height="32" viewBox="0 0 32 32" xmlns="http://www.w3.org/2000/svg" xmlns:xlink="http://www.w3.org/1999/xlink" fill="#000000"><g><path d="M 26,24c 0.236,0, 0.47,0.052, 0.694,0.136c 0.262,0.098, 0.51,0.24, 0.72,0.45l 3.986,3.986 C 31.774,27.79, 32,26.924, 32,26c0-3.176-2.474-5.748-5.596-5.96C 26.268,20.032, 26.138,20, 26,20c-0.732,0-1.426,0.15-2.074,0.39 L 11.61,8.074C 11.85,7.426, 12,6.732, 12,6c0-0.138-0.032-0.268-0.040-0.404C 11.748,2.474, 9.176,0, 6,0C 5.076,0, 4.21,0.226, 3.428,0.6 l 3.986,3.986c 0.21,0.21, 0.354,0.458, 0.45,0.72c 0.262,0.71, 0.12,1.536-0.45,2.108C 7.024,7.804, 6.512,8, 6,8 C 5.764,8, 5.53,7.948, 5.306,7.864c-0.262-0.098-0.51-0.24-0.72-0.45L 0.6,3.428C 0.226,4.21,0,5.076,0,6 c0,3.176, 2.474,5.748, 5.596,5.96C 5.732,11.968, 5.862,12, 6,12c 0.732,0, 1.426-0.15, 2.074-0.39l 12.316,12.316 C 20.15,24.574, 20,25.268, 20,26c0,0.138, 0.032,0.268, 0.040,0.404C 20.252,29.526, 22.824,32, 26,32c 0.924,0, 1.79-0.226, 2.572-0.6 l-3.986-3.986c-0.21-0.21-0.354-0.458-0.45-0.72c-0.262-0.71-0.12-1.536, 0.45-2.108C 24.976,24.196, 25.488,24, 26,24z"></path></g></svg>