<?xml version="1.0" encoding="utf-8"?> <!-- Generator: IcoMoon.io --> <!DOCTYPE svg PUBLIC "-//W3C//DTD SVG 1.1//EN" "http://www.w3.org/Graphics/SVG/1.1/DTD/svg11.dtd"> <svg width="32" height="32" viewBox="0 0 32 32" xmlns="http://www.w3.org/2000/svg" xmlns:xlink="http://www.w3.org/1999/xlink" fill="#000000"><g><path d="M 16,0C 7.164,0,0,7.164,0,16s 7.164,16, 16,16s 16-7.164, 16-16S 24.836,0, 16,0z M 16,30c-7.72,0-14-6.28-14-14s 6.28-14, 14-14 s 14,6.28, 14,14S 23.72,30, 16,30zM 22.47,8.152L 18.748,10.476L 16.262,12.026c 1.996,0.132, 3.58,1.714, 3.712,3.712l 1.55-2.484l 2.324-3.724 c 0.248-0.394, 0.19-0.908-0.14-1.236C 23.376,7.962, 22.86,7.906, 22.47,8.152zM 12.026,16.262L 10.476,18.748l-2.324,3.724c-0.248,0.394-0.19,0.908, 0.14,1.236C 8.486,23.9, 8.742,24, 9,24 c 0.184,0, 0.368-0.050, 0.53-0.152l 3.722-2.324l 2.486-1.55C 13.742,19.842, 12.158,18.258, 12.026,16.262zM 16.262,12.026C 16.174,12.020, 16.090,12, 16,12C 13.79,12, 12,13.79, 12,16c0,0.090, 0.020,0.174, 0.026,0.262 c 0.132,1.996, 1.716,3.58, 3.712,3.712C 15.826,19.98, 15.91,20, 16,20c 2.21,0, 4-1.79, 4-4c0-0.090-0.020-0.174-0.026-0.262 C 19.842,13.742, 18.258,12.158, 16.262,12.026z M 14,16c0-1.102, 0.898-2, 2-2s 2,0.898, 2,2S 17.102,18, 16,18S 14,17.102, 14,16z"></path></g></svg>