<?xml version="1.0" encoding="utf-8"?> <!-- Generator: IcoMoon.io --> <!DOCTYPE svg PUBLIC "-//W3C//DTD SVG 1.1//EN" "http://www.w3.org/Graphics/SVG/1.1/DTD/svg11.dtd"> <svg width="32" height="32" viewBox="0 0 32 32" xmlns="http://www.w3.org/2000/svg" xmlns:xlink="http://www.w3.org/1999/xlink" fill="#000000"><g><path d="M 5.042,32l 0.912,0 l 12.006,0 L 20,32 l 0.708,0 l 3.244,0 c 1.104,0, 2-0.896, 2-2l0-4.312 L 25.952,25 l0-16 c0-0.552-0.448-1-1-1 c0,0,0,0,0,0L 8,8 C 7.95,8, 7.852,8.008, 7.758,8.014L 5.042,8C 3.364,8, 2,6.718, 2,5.042C 2,3.364, 3.322,2, 5,2l 4,0 L 20,2 l 8,0 l0,23 c0,0.552, 0.4,1, 0.954,1S 30,25.552, 30,25l0-24 C 30,0.448, 29.506,0, 28.954,0l-6.978,0 L 9,0 L 5.042,0 C 2.282,0, 0.048,2.218, 0.008,4.968 L0,4.958l0,4.166 L0,12 l0,10.958 l0,2.474 l0,1.526 C0,29.742, 2.258,32, 5.042,32z"></path></g></svg>