<?xml version="1.0" encoding="utf-8"?> <!-- Generator: IcoMoon.io --> <!DOCTYPE svg PUBLIC "-//W3C//DTD SVG 1.1//EN" "http://www.w3.org/Graphics/SVG/1.1/DTD/svg11.dtd"> <svg width="32" height="32" viewBox="0 0 32 32" xmlns="http://www.w3.org/2000/svg" xmlns:xlink="http://www.w3.org/1999/xlink" fill="#000000"><g><path d="M 13.216,8.064C 12.834,3.67, 8.25,1.514, 8.056,1.426C 7.874,1.34, 7.67,1.314, 7.474,1.348 c-5.292,0.878-6.088,3.958-6.12,4.086C 1.31,5.614, 1.318,5.8, 1.374,5.974c 6.312,19.584, 19.43,23.214, 23.742,24.408 c 0.332,0.092, 0.606,0.166, 0.814,0.234c 0.1,0.034, 0.204,0.048, 0.308,0.048c 0.142,0, 0.284-0.030, 0.414-0.090 c 0.132-0.060, 3.248-1.528, 4.010-6.316c 0.034-0.208,0-0.424-0.096-0.612c-0.068-0.132-1.698-3.234-6.218-4.33 c-0.316-0.082-0.64,0.002-0.884,0.21c-1.426,1.218-3.396,2.516-4.246,2.65c-5.698-2.786-8.88-8.132-9-9.146 C 10.148,12.46, 11.454,10.458, 12.956,8.83C 13.146,8.624, 13.242,8.344, 13.216,8.064z"></path></g></svg>