<?xml version="1.0" encoding="utf-8"?> <!-- Generator: IcoMoon.io --> <!DOCTYPE svg PUBLIC "-//W3C//DTD SVG 1.1//EN" "http://www.w3.org/Graphics/SVG/1.1/DTD/svg11.dtd"> <svg width="32.06999969482422" height="33.58000183105469" viewBox="0 0 32.06999969482422 33.58000183105469" xmlns="http://www.w3.org/2000/svg" xmlns:xlink="http://www.w3.org/1999/xlink" fill="#000000"><g><path d="M 7.54,15.77c 1.278,1.278, 3.158,1.726, 4.868,1.216L 2.96,7.54C 2.652,7.232, 2.49,6.786, 2.49,6.254 c0-0.88, 0.46-2.004, 1.070-2.614c 0.8-0.8, 2.97-1.686, 3.98-0.682l 9.446,9.448c 0.138-0.462, 0.208-0.942, 0.208-1.422 c0-1.304-0.506-2.526-1.424-3.446L 9.364,1.134C 7.44-0.79, 3.616-0.068, 1.734,1.814C 0.642,2.906-0.036,4.598-0.036,6.23 c0,1.268, 0.416,2.382, 1.17,3.136L 7.54,15.77zM 24.46,16.23c-1.278-1.278-3.158-1.726-4.868-1.216l 9.448,9.448c 0.308,0.308, 0.47,0.752, 0.47,1.286 c0,0.88-0.46,2.004-1.070,2.614c-0.8,0.8-2.97,1.686-3.98,0.682L 15.014,19.594c-0.138,0.462-0.208,0.942-0.208,1.422 c0,1.304, 0.506,2.526, 1.424,3.446l 6.404,6.404c 1.924,1.924, 5.748,1.202, 7.63-0.68c 1.092-1.092, 1.77-2.784, 1.77-4.416 c0-1.268-0.416-2.382-1.17-3.136L 24.46,16.23zM 9.164,9.162C 8.908,9.416, 8.768,9.756, 8.768,10.116s 0.14,0.698, 0.394,0.952l 11.768,11.77 c 0.526,0.524, 1.38,0.524, 1.906,0c 0.256-0.254, 0.394-0.594, 0.394-0.954s-0.14-0.698-0.394-0.952L 11.068,9.162 C 10.544,8.638, 9.688,8.638, 9.164,9.162z"></path></g></svg>