<?xml version="1.0" encoding="utf-8"?> <!-- Generator: IcoMoon.io --> <!DOCTYPE svg PUBLIC "-//W3C//DTD SVG 1.1//EN" "http://www.w3.org/Graphics/SVG/1.1/DTD/svg11.dtd"> <svg width="32" height="32.012001037597656" viewBox="0 0 32 32.012001037597656" xmlns="http://www.w3.org/2000/svg" xmlns:xlink="http://www.w3.org/1999/xlink" fill="#000000"><g><path d="M 29.080,0c-0.012,0-0.024,0-0.036,0c-0.006,0-0.012,0-0.018,0c-0.002,0-0.004,0-0.006,0 c-0.010,0-0.018,0-0.026,0c-0.004,0-0.008,0-0.012,0L 18.406,0 C 18.1,0.016, 17.404,0.494, 17.314,0.584L 4.584,13.312 c-0.78,0.78-0.78,2.044,0,2.824l 1.588,1.588L 4.584,19.312c-0.78,0.78-0.78,2.044,0,2.824l 9.292,9.292 c 0.39,0.39, 0.9,0.584, 1.412,0.584c 0.51,0, 1.022-0.194, 1.412-0.584l 12.728-12.73C 29.52,18.608, 30,17.992, 30,17.608L 30,0.994 C 30.028,0.436, 29.628,0, 29.080,0z M 28.022,17.27c-0.006,0.010-0.010,0.016-0.008,0.016c0,0,0,0,0,0l-12.724,12.73l-9.292-9.288 l 1.588-1.588l 6.29,6.29c 0.39,0.39, 0.9,0.584, 1.412,0.584c 0.51,0, 1.022-0.194, 1.412-0.584l 11.322-11.322L 28.022,17.27 z M 28.022,8l0,3.27 c-0.006,0.010-0.010,0.016-0.008,0.016l0,0c0,0,0,0,0,0l-12.724,12.73L 5.998,14.728l 12.644-12.642C 18.68,2.058, 18.726,2.028, 18.772,2 l 9.25,0 L 28.022,8 zM 24.022,4.992A1,1 1080 1 0 26.022,4.992A1,1 1080 1 0 24.022,4.992z"></path></g></svg>