<?xml version="1.0" encoding="utf-8"?> <!-- Generator: IcoMoon.io --> <!DOCTYPE svg PUBLIC "-//W3C//DTD SVG 1.1//EN" "http://www.w3.org/Graphics/SVG/1.1/DTD/svg11.dtd"> <svg width="32.236000061035156" height="32" viewBox="0 0 32.236000061035156 32" xmlns="http://www.w3.org/2000/svg" xmlns:xlink="http://www.w3.org/1999/xlink" fill="#000000"><g><path d="M 1.656,17.756L 16,5.324l 14.344,12.432C 30.534,17.92, 30.768,18, 31,18c 0.28,0, 0.558-0.118, 0.756-0.344 c 0.362-0.418, 0.316-1.048-0.1-1.412l-15-13c-0.376-0.326-0.934-0.326-1.31,0L 10,7.876L 10,6 c0-1.104-0.896-2-2-2S 6,4.896, 6,6l0,5.342 L 0.344,16.244c-0.416,0.362-0.462,0.994-0.1,1.412C 0.608,18.072, 1.238,18.118, 1.656,17.756zM 12,22l 8,0 l0,10 l 6,0 c 1.104,0, 2-0.896, 2-2l0-9.802 c0-0.6-0.268-1.166-0.732-1.546l-10-8.198C 16.9,10.152, 16.45,10, 16,10 C 15.55,10, 15.1,10.152, 14.732,10.454l-10,8.198C 4.268,19.030, 4,19.598, 4,20.198L 4,30 c0,1.104, 0.896,2, 2,2l 6,0 L 12,22 z"></path></g></svg>