<?xml version="1.0" encoding="utf-8"?> <!-- Generator: IcoMoon.io --> <!DOCTYPE svg PUBLIC "-//W3C//DTD SVG 1.1//EN" "http://www.w3.org/Graphics/SVG/1.1/DTD/svg11.dtd"> <svg width="32" height="32" viewBox="0 0 32 32" xmlns="http://www.w3.org/2000/svg" xmlns:xlink="http://www.w3.org/1999/xlink" fill="#000000"><g><path d="M 27.042,0L 18.018,0 L 9,0 L 5.042,0 C 2.282,0, 0.048,2.218, 0.008,4.968L0,4.958l0,4.166 L0,12 l0,10.958 l0,2.474 l0,1.526 C0,29.742, 2.258,32, 5.042,32l 0.912,0 L 14,32 l 2.75,0 l 1.338,0 l 3.954,0 C 23.146,32, 24,31.104, 24,30L 24,9 C 24,8.448, 23.594,8, 23.042,8l-18,0 C 3.364,8, 2,6.718, 2,5.042C 2,3.364, 3.364,2, 5.042,2L 9,2 l 9.32,0 L 26,2 l0,23 c0,0.552, 0.49,1, 1.042,1S 28,25.552, 28,25l0-24 C 28,0.448, 27.594,0, 27.042,0z M 5.042,10l 16.96,0 l 0.040,20L 18.088,30 L 16.75,30 L 14,30 L 5.954,30 L 5.042,30 C 3.364,30, 2,28.636, 2,26.958l0-1.526 l0-2.474 L 2,12 L 2,9.124 L 2,9.022 C 2.84,9.638, 3.89,10, 5.042,10z"></path></g></svg>