<?xml version="1.0" encoding="utf-8"?> <!-- Generator: IcoMoon.io --> <!DOCTYPE svg PUBLIC "-//W3C//DTD SVG 1.1//EN" "http://www.w3.org/Graphics/SVG/1.1/DTD/svg11.dtd"> <svg width="32" height="32" viewBox="0 0 32 32" xmlns="http://www.w3.org/2000/svg" xmlns:xlink="http://www.w3.org/1999/xlink" fill="#000000"><g><path d="M 30,4l-10,0 C 18.896,4, 18,4.896, 18,6c0,0-0.26,1.834-2,2L 2,8 C 0.896,8,0,8.864,0,9.968L0,28 c0,1.104, 0.896,2, 2,2l 12.006,0 l0-10 L 9.762,20 l 6.244-8l 6.244,8L 18.006,20 l0,10 L 30,30 c 1.104,0, 2-0.896, 2-2L 32,12 L 32,9.968 L 32,6 C 32,4.896, 31.104,4, 30,4z"></path></g></svg>