<?xml version="1.0" encoding="utf-8"?> <!-- Generator: IcoMoon.io --> <!DOCTYPE svg PUBLIC "-//W3C//DTD SVG 1.1//EN" "http://www.w3.org/Graphics/SVG/1.1/DTD/svg11.dtd"> <svg width="32" height="32" viewBox="0 0 32 32" xmlns="http://www.w3.org/2000/svg" xmlns:xlink="http://www.w3.org/1999/xlink" fill="#000000"><g><path d="M 30,2L 4,2 C 2.896,2, 2,2.896, 2,4l0,26 c0,1.104, 0.896,2, 2,2l 26,0 c 1.104,0, 2-0.896, 2-2L 32,4 C 32,2.896, 31.104,2, 30,2z M 25,24l-16,0 C 8.448,24, 8,23.552, 8,23C 8,22.448, 8.448,22, 9,22l 16,0 c 0.552,0, 1,0.448, 1,1C 26,23.552, 25.552,24, 25,24z M 25,18l-16,0 C 8.448,18, 8,17.552, 8,17C 8,16.448, 8.448,16, 9,16l 16,0 C 25.552,16, 26,16.448, 26,17C 26,17.552, 25.552,18, 25,18z M 25,12l-16,0 C 8.448,12, 8,11.552, 8,11C 8,10.448, 8.448,10, 9,10l 16,0 C 25.552,10, 26,10.448, 26,11C 26,11.552, 25.552,12, 25,12z"></path></g></svg>