<?xml version="1.0" encoding="utf-8"?> <!-- Generator: IcoMoon.io --> <!DOCTYPE svg PUBLIC "-//W3C//DTD SVG 1.1//EN" "http://www.w3.org/Graphics/SVG/1.1/DTD/svg11.dtd"> <svg width="32" height="32" viewBox="0 0 32 32" xmlns="http://www.w3.org/2000/svg" xmlns:xlink="http://www.w3.org/1999/xlink" fill="#000000"><g><path d="M 16,0C 7.164,0,0,7.164,0,16s 7.164,16, 16,16s 16-7.164, 16-16S 24.836,0, 16,0z M 16,30c-7.72,0-14-6.28-14-14s 6.28-14, 14-14 s 14,6.28, 14,14S 23.72,30, 16,30zM 13.774,26.028A2.060,2.060 1080 1 0 17.894,26.028A2.060,2.060 1080 1 0 13.774,26.028zM 15.834,4c-3.878,0-8,2.818-8,8.042c0,1.104, 0.894,2, 2,2s 2-0.896, 2-2c0-2.778, 2.074-4.042, 4-4.042 c 1.494,0, 4,0.438, 4,3.376c0,1.042-0.274,2.258-2.298,3.374C 16.16,15.504, 13.834,17.462, 13.834,20c0,1.104, 0.894,2, 2,2s 2-0.896, 2-2 c0-0.372, 0.792-1.286, 1.63-1.748c 2.898-1.596, 4.37-3.91, 4.37-6.876C 23.834,6.28, 19.816,4, 15.834,4z"></path></g></svg>