<?xml version="1.0" encoding="utf-8"?> <!-- Generator: IcoMoon.io --> <!DOCTYPE svg PUBLIC "-//W3C//DTD SVG 1.1//EN" "http://www.w3.org/Graphics/SVG/1.1/DTD/svg11.dtd"> <svg width="32" height="32" viewBox="0 0 32 32" xmlns="http://www.w3.org/2000/svg" xmlns:xlink="http://www.w3.org/1999/xlink" fill="#000000"><g><path d="M 13.774,26.028A2.060,2.060 1080 1 0 17.894,26.028A2.060,2.060 1080 1 0 13.774,26.028zM 19.464,18.252c 2.898-1.596, 4.37-3.91, 4.37-6.876c0-5.094-4.018-7.376-8-7.376c-3.878,0-8,2.818-8,8.042 c0,1.104, 0.894,2, 2,2s 2-0.896, 2-2c0-2.778, 2.074-4.042, 4-4.042c 1.494,0, 4,0.438, 4,3.376c0,1.042-0.274,2.258-2.298,3.374 C 16.16,15.504, 13.834,17.462, 13.834,20c0,1.104, 0.894,2, 2,2s 2-0.896, 2-2C 17.834,19.628, 18.624,18.714, 19.464,18.252z"></path></g></svg>