<?xml version="1.0" encoding="utf-8"?> <!-- Generator: IcoMoon.io --> <!DOCTYPE svg PUBLIC "-//W3C//DTD SVG 1.1//EN" "http://www.w3.org/Graphics/SVG/1.1/DTD/svg11.dtd"> <svg version="1.1" id="Layer_1" xmlns="http://www.w3.org/2000/svg" xmlns:xlink="http://www.w3.org/1999/xlink" x="0px" y="0px" width="32" height="32" viewBox="0 0 32 32" enable-background="new 0 0 16 16" xml:space="preserve" fill="#000000"> <g><path d="M 15.45,31.922C 15.63,31.974, 15.816,32, 16,32s 0.37-0.026, 0.55-0.078c 12.378-3.536, 14.2-16.048, 13.436-22.172 C 29.86,8.752, 29.008,8, 28,8c-0.286-0.022-2-0.318-2-4c0-0.53-0.21-1.040-0.586-1.414C 24.982,2.154, 22.5,0, 16,0 S 7.018,2.154, 6.586,2.586C 6.21,2.96, 6,3.47, 6,4c0,3.682-1.714,3.978-2.058,4.002c-1.008,0-1.802,0.75-1.928,1.75 C 1.25,15.874, 3.074,28.386, 15.45,31.922z M 4,10c0,0, 4,0, 4-6c0,0, 2-2, 8-2s 8,2, 8,2c0,6, 4,6, 4,6s 2,16-12,20C 2,26, 4,10, 4,10zM 16,20c 1.104,0, 2-0.896, 2-2L 18,8 c0-1.104-0.896-2-2-2S 14,6.896, 14,8l0,10 C 14,19.104, 14.896,20, 16,20zM 14,24A2,2 0 1 0 18,24A2,2 0 1 0 14,24z"></path></g></svg>