<?xml version="1.0" encoding="utf-8"?> <!-- Generator: IcoMoon.io --> <!DOCTYPE svg PUBLIC "-//W3C//DTD SVG 1.1//EN" "http://www.w3.org/Graphics/SVG/1.1/DTD/svg11.dtd"> <svg width="32" height="32" viewBox="0 0 32 32" xmlns="http://www.w3.org/2000/svg" xmlns:xlink="http://www.w3.org/1999/xlink" fill="#000000"><g><path d="M 30,6l-2,0 L 28,2 c0-1.104-0.896-2-2-2L 2,0 C 0.896,0,0,0.896,0,2l0,22 c0,1.104, 0.896,2, 2,2l 2,0 l0,4 c0,1.104, 0.896,2, 2,2l 24,0 c 1.104,0, 2-0.896, 2-2L 32,8 C 32,6.896, 31.104,6, 30,6z M 2,24L 2,2 l 24,0 l0,22 L 2,24 z M 30,30L 6,30 l0-4 l 2,0 l0,2 l 2,0 l 16,0 l 2,0 l0-2 l0-2 L 28,18 L 28,8 l 2,0 L 30,30 zM 14.79,8.188A2.782,2.782 1080 1 0 20.354,8.188A2.782,2.782 1080 1 0 14.79,8.188zM 10,10L 4,14L 4,18L 4,20L 4,22L 6,22L 22,22L 24,22L 24,20L 24,18L 24,12L 16,16 z"></path></g></svg>