<?xml version="1.0" encoding="utf-8"?> <!-- Generator: IcoMoon.io --> <!DOCTYPE svg PUBLIC "-//W3C//DTD SVG 1.1//EN" "http://www.w3.org/Graphics/SVG/1.1/DTD/svg11.dtd"> <svg width="32" height="32" viewBox="0 0 32 32" xmlns="http://www.w3.org/2000/svg" xmlns:xlink="http://www.w3.org/1999/xlink" fill="#000000"><g><path d="M 16,0C 7.164,0,0,7.164,0,16s 7.164,16, 16,16s 16-7.164, 16-16S 24.836,0, 16,0z M 16,30c-7.72,0-14-6.28-14-14s 6.28-14, 14-14 s 14,6.28, 14,14S 23.72,30, 16,30zM 12.814,10.776C 12.64,10.628, 12.484,10.524, 12.348,10.446C 12.342,10.442, 12.338,10.436, 12.332,10.434 c-0.010-0.006-0.020-0.008-0.030-0.012C 12.104,10.312, 11.962,10.26, 11.962,10.26l 0.010,0.024C 11.65,10.152, 11.312,10.058, 10.944,10.058 c-1.628,0-2.946,1.37-2.946,3.060c0,1.69, 1.32,3.060, 2.946,3.060c 0.522,0, 1.004-0.152, 1.43-0.4 c-0.146,1.636-0.97,4.022-3.99,6.454c-0.422,0.342-0.5,0.974-0.172,1.412c 0.192,0.256, 0.478,0.39, 0.766,0.39 c 0.208,0, 0.416-0.068, 0.594-0.212c 3.706-2.99, 4.632-6.062, 4.756-8.114C 14.54,13.084, 13.744,11.704, 13.016,10.984 C 12.95,10.914, 12.888,10.838, 12.814,10.776zM 22.51,10.776c-0.174-0.148-0.33-0.252-0.466-0.33c-0.006-0.004-0.010-0.008-0.016-0.012 c-0.010-0.006-0.020-0.008-0.030-0.012c-0.198-0.108-0.34-0.162-0.34-0.162l 0.010,0.024c-0.322-0.132-0.662-0.226-1.028-0.226 c-1.628,0-2.946,1.37-2.946,3.060c0,1.69, 1.318,3.060, 2.946,3.060c 0.522,0, 1.004-0.152, 1.43-0.4 c-0.146,1.636-0.97,4.022-3.99,6.454c-0.424,0.342-0.5,0.974-0.172,1.412c 0.192,0.256, 0.478,0.39, 0.766,0.39 c 0.208,0, 0.416-0.068, 0.594-0.212c 3.706-2.99, 4.632-6.062, 4.756-8.114c 0.212-2.624-0.586-4.004-1.312-4.724 C 22.646,10.914, 22.584,10.838, 22.51,10.776z"></path></g></svg>