<?xml version="1.0" encoding="utf-8"?> <!-- Generator: IcoMoon.io --> <!DOCTYPE svg PUBLIC "-//W3C//DTD SVG 1.1//EN" "http://www.w3.org/Graphics/SVG/1.1/DTD/svg11.dtd"> <svg width="32" height="32" viewBox="0 0 32 32" xmlns="http://www.w3.org/2000/svg" xmlns:xlink="http://www.w3.org/1999/xlink" fill="#000000"><g><path d="M 26,26L 6,26 L 6,6 l 14.752,0 L 22,4L 6,4 C 4.896,4, 4,4.896, 4,6l0,20 c0,1.104, 0.896,2, 2,2l 20,0 c 1.104,0, 2-0.896, 2-2L 28,12.794 L 26,16L 26,26 zM 29.366,2.228C 29.13,2.074, 28.864,2, 28.602,2c-0.456,0-0.904,0.224-1.172,0.634L 16.558,18.318l-4.206-4.8 C 11.782,12.992, 10.898,13.026, 10.372,13.594S 9.882,15.048, 10.45,15.572l 5.056,5.77c 0.032,0.052, 0.082,0.092, 0.122,0.14l 0.128,0.146 c 0.016,0.014, 0.036,0.018, 0.052,0.032c 0.040,0.032, 0.064,0.076, 0.106,0.106c 0.086,0.056, 0.18,0.092, 0.274,0.126 c 0.022,0.008, 0.040,0.022, 0.062,0.028c 0.14,0.046, 0.286,0.074, 0.43,0.074c 0.006,0, 0.012-0.004, 0.018-0.004 c 0.38,0.002, 0.758-0.138, 1.036-0.438c 0.052-0.056, 0.072-0.124, 0.114-0.186c 0.002-0.002, 0.004-0.004, 0.006-0.006l 11.918-17.194 C 30.194,3.52, 30.014,2.652, 29.366,2.228z"></path></g></svg>