<?xml version="1.0" encoding="utf-8"?> <!-- Generator: IcoMoon.io --> <!DOCTYPE svg PUBLIC "-//W3C//DTD SVG 1.1//EN" "http://www.w3.org/Graphics/SVG/1.1/DTD/svg11.dtd"> <svg width="32" height="32" viewBox="0 0 32 32" xmlns="http://www.w3.org/2000/svg" xmlns:xlink="http://www.w3.org/1999/xlink" fill="#000000"><g><path d="M 16,0C 10.478,0, 6,4.546, 6,10.154L 6,12 L 4,12 C 2.896,12, 2,12.896, 2,14l0,16 c0,1.104, 0.896,2, 2,2l 24,0 c 1.104,0, 2-0.896, 2-2L 30,14 c0-1.104-0.896-2-2-2l-2,0 L 26,10.154 C 26,4.546, 21.522,0, 16,0z M 8,10.154C 8,5.658, 11.588,2, 16,2s 8,3.658, 8,8.154L 24,12 L 8,12 L 8,10.154 z M 28,30L 4,30 L 4,14 l 24,0 L 28,30 z M 20,22c0-2.21-1.79-4-4-4s-4,1.79-4,4s 1.79,4, 4,4S 20,24.21, 20,22z M 16,24c-1.102,0-2-0.898-2-2 s 0.898-2, 2-2s 2,0.898, 2,2S 17.102,24, 16,24z"></path></g></svg>