<?xml version="1.0" encoding="utf-8"?> <!-- Generator: IcoMoon.io --> <!DOCTYPE svg PUBLIC "-//W3C//DTD SVG 1.1//EN" "http://www.w3.org/Graphics/SVG/1.1/DTD/svg11.dtd"> <svg version="1.1" id="Layer_1" xmlns="http://www.w3.org/2000/svg" xmlns:xlink="http://www.w3.org/1999/xlink" x="0px" y="0px" width="32" height="32" viewBox="0 0 32 32" enable-background="new 0 0 16 16" xml:space="preserve" fill="#000000"> <g><path d="M 30,6l-10,0 l0,2 c 1.104,0, 2,0.896, 2,2c0,1.104-0.896,2-2,2L 18,12 L 14,12 L 12,12 C 10.896,12, 10,11.104, 10,10c0-1.104, 0.896-2, 2-2L 12,6 L 2,6 C 0.896,6,0,6.896,0,8l0,22 c0,1.104, 0.896,2, 2,2l 28,0 c 1.104,0, 2-0.896, 2-2L 32,8 C 32,6.896, 31.104,6, 30,6z M 15,16l 12.166,0 c 0.552,0, 1,0.448, 1,1c0,0.552-0.448,1-1,1L 15,18 C 14.448,18, 14,17.552, 14,17C 14,16.448, 14.448,16, 15,16z M 15,20l 12.166,0 c 0.552,0, 1,0.448, 1,1c0,0.552-0.448,1-1,1L 15,22 C 14.448,22, 14,21.552, 14,21C 14,20.448, 14.448,20, 15,20z M 15,24l 12.166,0 c 0.552,0, 1,0.448, 1,1c0,0.552-0.448,1-1,1L 15,26 C 14.448,26, 14,25.552, 14,25C 14,24.448, 14.448,24, 15,24z M 12,25.098 c0,2.928-7.906,2.928-7.906,0s 1.77-5.3, 3.952-5.3C 10.23,19.798, 12,22.17, 12,25.098z M 10.412,16.416c0,1.334-1.082,2.416-2.416,2.416 c-1.334,0-2.416-1.082-2.416-2.416C 5.582,15.082, 6.662,14, 7.996,14C 9.332,14, 10.412,15.082, 10.412,16.416zM 14,2L 18,2L 18,10L 14,10z"></path></g></svg>