<?xml version="1.0" encoding="utf-8"?> <!-- Generator: IcoMoon.io --> <!DOCTYPE svg PUBLIC "-//W3C//DTD SVG 1.1//EN" "http://www.w3.org/Graphics/SVG/1.1/DTD/svg11.dtd"> <svg width="32" height="32" viewBox="0 0 32 32" xmlns="http://www.w3.org/2000/svg" xmlns:xlink="http://www.w3.org/1999/xlink" fill="#000000"><g><path d="M 30,4L 2,4 C 0.896,4,0,4.896,0,6l0,4 l 32,0 L 32,6 C 32,4.896, 31.104,4, 30,4z M 30,8L 2,8 L 2,6 l 28,0 L 30,8 zM 2,30c0,1.104, 0.896,2, 2,2l 24,0 c 1.104,0, 2-0.896, 2-2L 30,12 L 2,12 L 2,30 z M 4,14l 24,0 l0,16 L 4,30 L 4,14 zM 21,16l-10,0 C 10.448,16, 10,16.448, 10,17C 10,17.552, 10.448,18, 11,18l 10,0 C 21.552,18, 22,17.552, 22,17 C 22,16.448, 21.552,16, 21,16z"></path></g></svg>