<?xml version="1.0" encoding="utf-8"?> <!-- Generator: IcoMoon.io --> <!DOCTYPE svg PUBLIC "-//W3C//DTD SVG 1.1//EN" "http://www.w3.org/Graphics/SVG/1.1/DTD/svg11.dtd"> <svg width="32" height="32" viewBox="0 0 32 32" xmlns="http://www.w3.org/2000/svg" xmlns:xlink="http://www.w3.org/1999/xlink" fill="#000000"><g><path d="M 9,18L 16,18 l0,7 C 16,25.552, 16.448,26, 17,26S 18,25.552, 18,25L 18,18 l 7,0 C 25.552,18, 26,17.552, 26,17 C 26,16.448, 25.552,16, 25,16L 18,16 L 18,9 C 18,8.448, 17.552,8, 17,8S 16,8.448, 16,9L 16,16 L 9,16 C 8.448,16, 8,16.448, 8,17C 8,17.552, 8.448,18, 9,18z"></path></g></svg>