<?xml version="1.0" encoding="utf-8"?> <!-- Generator: IcoMoon.io --> <!DOCTYPE svg PUBLIC "-//W3C//DTD SVG 1.1//EN" "http://www.w3.org/Graphics/SVG/1.1/DTD/svg11.dtd"> <svg version="1.1" id="Layer_1" xmlns="http://www.w3.org/2000/svg" xmlns:xlink="http://www.w3.org/1999/xlink" x="0px" y="0px" width="32" height="32" viewBox="0 0 32 32" enable-background="new 0 0 16 16" xml:space="preserve" fill="#000000"> <g><path d="M 30,6l-10,0 l0,4 c0,1.104-0.896,2-2,2l 1,0 C 20.656,12, 22,10.656, 22,9c0-0.38-0.006-0.71-0.018-1L 30,8 l0,22 L 2,30 L 2,8 l 8.018,0 C 10.006,8.29, 10,8.62, 10,9C 10,10.656, 11.344,12, 13,12L 14,12 C 12.896,12, 12,11.104, 12,10L 12,6 L 2,6 C 0.896,6,0,6.896,0,8l0,22 c0,1.104, 0.896,2, 2,2l 28,0 c 1.104,0, 2-0.896, 2-2L 32,8 C 32,6.896, 31.104,6, 30,6zM 27.166,20L 15,20 C 14.448,20, 14,20.448, 14,21C 14,21.552, 14.448,22, 15,22l 12.166,0 c 0.552,0, 1-0.448, 1-1 C 28.166,20.448, 27.718,20, 27.166,20zM 27.166,24L 15,24 C 14.448,24, 14,24.448, 14,25C 14,25.552, 14.448,26, 15,26l 12.166,0 c 0.552,0, 1-0.448, 1-1 C 28.166,24.448, 27.718,24, 27.166,24zM 15,18l 12.166,0 c 0.552,0, 1-0.448, 1-1c0-0.552-0.448-1-1-1L 15,16 C 14.448,16, 14,16.448, 14,17 C 14,17.552, 14.448,18, 15,18zM 5.58,16.416A2.416,2.416 0 1 0 10.412,16.416A2.416,2.416 0 1 0 5.58,16.416zM 8.048,19.798c-2.184,0-3.952,2.372-3.952,5.3S 12,28.024, 12,25.098S 10.23,19.798, 8.048,19.798zM 12,10c0,1.104, 0.896,2, 2,2l 4,0 c 1.104,0, 2-0.896, 2-2L 20,6 L 20,2 c0-1.104-0.896-2-2-2L 14,0 C 12.896,0, 12,0.896, 12,2l0,4 L 12,10 z M 18,10 L 14,10 L 14,2 l 4,0 L 18,10 z"></path></g></svg>