<?xml version="1.0" encoding="utf-8"?> <!-- Generator: IcoMoon.io --> <!DOCTYPE svg PUBLIC "-//W3C//DTD SVG 1.1//EN" "http://www.w3.org/Graphics/SVG/1.1/DTD/svg11.dtd"> <svg version="1.1" id="Layer_1" xmlns="http://www.w3.org/2000/svg" xmlns:xlink="http://www.w3.org/1999/xlink" x="0px" y="0px" width="32" height="32" viewBox="0 0 32 32" enable-background="new 0 0 16 16" xml:space="preserve" fill="#000000"> <g><path d="M 30,14L 30,8 c0-1.104-0.896-2-2-2l-0.596,0 l-0.674-4.16c-0.042-0.262-0.186-0.496-0.402-0.65 c-0.212-0.156-0.48-0.222-0.744-0.176L 3.84,4.542C 3.294,4.63, 2.924,5.144, 3.014,5.69L 3.064,6L 2,6 C 0.896,6,0,6.896,0,8l0,22 c0,1.104, 0.896,2, 2,2l 26,0 c 1.104,0, 2-0.896, 2-2l0-6 c 1.104,0, 2-0.896, 2-2L 32,16 C 32,14.896, 31.104,14, 30,14z M 2,8l 26,0 l0,6 l-8,0 C 18.896,14, 18,14.896, 18,16 l0,6 c0,1.104, 0.896,2, 2,2l 8,0 l0,6 L 2,30 L 2,8 z M 7.336,6l 17.58-2.854L 25.378,6L 7.336,6 z M 20,22L 20,16 l 10,0 l0,6 L 20,22 zM 22,19A1,1 0 1 0 24,19A1,1 0 1 0 22,19z"></path></g></svg>