<?xml version="1.0" encoding="utf-8"?> <!-- Generator: IcoMoon.io --> <!DOCTYPE svg PUBLIC "-//W3C//DTD SVG 1.1//EN" "http://www.w3.org/Graphics/SVG/1.1/DTD/svg11.dtd"> <svg width="32.402000427246094" height="32" viewBox="0 0 32.402000427246094 32" xmlns="http://www.w3.org/2000/svg" xmlns:xlink="http://www.w3.org/1999/xlink" fill="#000000"><g><path d="M 6,30A2,2 1080 1 0 10,30A2,2 1080 1 0 6,30zM 24,30A2,2 1080 1 0 28,30A2,2 1080 1 0 24,30zM-0.058,5c0,0.552, 0.448,1, 1,1L 3.020,6 l 1.242,5.312L 6,20c0,0.072, 0.034,0.134, 0.042,0.204l-1.018,4.58 c-0.066,0.296, 0.006,0.606, 0.196,0.842C 5.41,25.864, 5.696,26, 6,26l 22.688,0 c 0.552,0, 1-0.448, 1-1s-0.448-1-1-1L 7.248,24 l 0.458-2.060C 7.806,21.956, 7.896,22, 8,22l 18.23,0 c 1.104,0, 1.77-0.218, 2.302-1.5l 3.248-9.964C 32.344,8.75, 31.106,8, 30,8L 6,8 C 5.844,8, 5.708,8.054, 5.562,8.088L 4.786,4.772C 4.68,4.32, 4.278,4, 3.812,4L 0.942,4 C 0.388,4-0.058,4.448-0.058,5z M 6.040,10l 23.81,0 l-3.192,9.798c-0.038,0.086-0.070,0.148-0.094,0.19C 26.498,19.994, 26.394,20, 26.23,20L 8,20 L 8,19.802 L 7.962,19.608L 6.040,10z"></path></g></svg>