<?xml version="1.0" encoding="utf-8"?> <!-- Generator: IcoMoon.io --> <!DOCTYPE svg PUBLIC "-//W3C//DTD SVG 1.1//EN" "http://www.w3.org/Graphics/SVG/1.1/DTD/svg11.dtd"> <svg width="32" height="32" viewBox="0 0 32 32" xmlns="http://www.w3.org/2000/svg" xmlns:xlink="http://www.w3.org/1999/xlink" fill="#000000"><g><path d="M 28,4c-0.562-1.25-1.582-2-2.688-2L 6.5,2 C 5.396,2, 4.5,2.75, 4,4l-4,16l0,0.032 l0,1 l0,1 l0,1.072 l0,0.032 l0,5.896 c0,0.552, 0.448,1, 1,1l 30,0 c 0.552,0, 1-0.448, 1-1L 32,23.040 l0-0.032 l0-0.976 l0-1 l0-0.908 l-0.026-0.092L 28,4z M 5.89,4.666 C 5.982,4.46, 6.216,4, 6.5,4l 18.812,0 c 0.274,0, 0.59,0.282, 0.812,0.712l 3.522,14.314c0,0.004-0.006,0-0.006,0.004 c0,0.552-0.448,1-1,1c-0.002,0-0.002,0.002-0.004,0.002L 26,20.032 l-5,0 c-0.552,0-1,0.448-1,1L 20,23 c0,0.552-0.448,1-1,1 c-0.020,0-0.040,0.026-0.060,0.032L 13.034,24.032 C 13.020,24.026, 13.020,24, 13,24C 12.448,24, 12,23.552, 12,23l0-1.968 c0-0.552-0.448-1-1-1L 4,20.032 L 3.364,20.032 c-0.002,0-0.002-0.002-0.004-0.002c-0.552,0-1.016-0.448-1.016-1c0-0.014-0.016-0.004-0.020-0.014L 5.89,4.666z"></path></g></svg>