<?xml version="1.0" encoding="utf-8"?> <!-- Generator: IcoMoon.io --> <!DOCTYPE svg PUBLIC "-//W3C//DTD SVG 1.1//EN" "http://www.w3.org/Graphics/SVG/1.1/DTD/svg11.dtd"> <svg width="32" height="32" viewBox="0 0 32 32" xmlns="http://www.w3.org/2000/svg" xmlns:xlink="http://www.w3.org/1999/xlink" fill="#000000"><g><path d="M 27.91,11.79c 0.176,0.792, 0.278,1.606, 0.278,2.442c0,6.456-5.48,11.838-12.696,12.994 c 1.526,0.616, 3.236,0.976, 5.058,0.976c 1.718,0, 3.34-0.316, 4.804-0.866c 1.854,0.632, 3.878,0.796, 5.552,0.796 c-0.87-1.044-1.474-2.068-1.906-2.968C 30.856,23.508, 32,21.314, 32,18.898C 32,16.042, 30.406,13.496, 27.91,11.79zM 1.472,25.418c 0.174,0.33, 0.516,0.536, 0.886,0.536c 0.016,0, 0.034,0, 0.048-0.002 c 1.058-0.050, 3.162-0.752, 5.39-2.166c 1.192,0.21, 3.862,0.606, 4.794,0.606c 7.034,0, 12.542-4.898, 12.542-11.152 c0-6.15-5.624-11.152-12.542-11.152S 0.052,7.088, 0.052,13.238c0,2.862, 1.26,5.628, 3.478,7.698c-0.498,1.212-1.158,2.358-1.964,3.408 C 1.328,24.652, 1.292,25.072, 1.472,25.418z M 2.052,13.238c0-5.046, 4.728-9.152, 10.542-9.152s 10.542,4.106, 10.542,9.152 c0,5.216-4.532,9.152-10.542,9.152c-0.79,0-3.934-0.458-4.798-0.64c-0.264-0.052-0.538-0.004-0.758,0.146 c-0.858,0.568-1.666,0.998-2.37,1.314c 0.382-0.718, 0.712-1.462, 0.988-2.23c 0.142-0.398, 0.020-0.842-0.304-1.11 C 3.224,18.12, 2.052,15.764, 2.052,13.238z"></path></g></svg>