<?xml version="1.0" encoding="utf-8"?> <!-- Generator: IcoMoon.io --> <!DOCTYPE svg PUBLIC "-//W3C//DTD SVG 1.1//EN" "http://www.w3.org/Graphics/SVG/1.1/DTD/svg11.dtd"> <svg version="1.1" id="Layer_1" xmlns="http://www.w3.org/2000/svg" xmlns:xlink="http://www.w3.org/1999/xlink" x="0px" y="0px" width="32" height="32" viewBox="0 0 32 32" enable-background="new 0 0 16 16" xml:space="preserve" fill="#000000"> <g><path d="M 30.118,21.638c-5.446,5.444-14.308,5.448-19.754,0C 7.728,19.004, 6.278,15.496, 6.278,11.76 s 1.452-7.244, 4.084-9.876c 0.39-0.39, 0.39-1.024,0-1.414s-1.024-0.39-1.414,0C 5.936,3.48, 4.278,7.49, 4.278,11.76 s 1.66,8.282, 4.67,11.292C 11.49,25.596, 14.686,27.082, 18,27.548L 18,30 L 15,30 C 14.448,30, 14,30.448, 14,31C 14,31.552, 14.448,32, 15,32l 8,0 c 0.552,0, 1-0.448, 1-1c0-0.552-0.448-1-1-1L 20,30 l0-2.288 c 0.080,0.002, 0.16,0.012, 0.24,0.012 c 4.088,0, 8.178-1.556, 11.292-4.67c 0.39-0.39, 0.39-1.024,0-1.414S 30.508,21.248, 30.118,21.638zM 20.24,0C 13.744,0, 8.48,5.266, 8.48,11.76s 5.266,11.76, 11.76,11.76S 32,18.256, 32,11.76S 26.734,0, 20.24,0z M 20.24,21.52c-5.382,0-9.76-4.378-9.76-9.76C 10.48,6.378, 14.858,2, 20.24,2C 25.622,2, 30,6.378, 30,11.76 C 30,17.142, 25.622,21.52, 20.24,21.52z"></path></g></svg>