<?xml version="1.0" encoding="utf-8"?> <!-- Generator: IcoMoon.io --> <!DOCTYPE svg PUBLIC "-//W3C//DTD SVG 1.1//EN" "http://www.w3.org/Graphics/SVG/1.1/DTD/svg11.dtd"> <svg width="32" height="32" viewBox="0 0 32 32" xmlns="http://www.w3.org/2000/svg" xmlns:xlink="http://www.w3.org/1999/xlink" fill="#000000"><g><path d="M 4,32l 24.084,0 c 1.104,0, 2-0.896, 2-2L 30.084,2 c0-1.104-0.896-2-2-2L 4,0 C 2.896,0, 2,0.896, 2,2l0,28 C 2,31.104, 2.896,32, 4,32z M 15,6l 8.084,0 c 0.552,0, 1,0.448, 1,1c0,0.552-0.448,1-1,1L 15,8 C 14.448,8, 14,7.552, 14,7C 14,6.448, 14.448,6, 15,6z M 9,12 l 14.084,0 c 0.552,0, 1,0.448, 1,1c0,0.552-0.448,1-1,1L 9,14 C 8.448,14, 8,13.552, 8,13C 8,12.448, 8.448,12, 9,12z M 9,18l 14.084,0 c 0.552,0, 1,0.448, 1,1c0,0.552-0.448,1-1,1L 9,20 C 8.448,20, 8,19.552, 8,19C 8,18.448, 8.448,18, 9,18z M 9,24l 14.084,0 c 0.552,0, 1,0.448, 1,1c0,0.552-0.448,1-1,1L 9,26 C 8.448,26, 8,25.552, 8,25C 8,24.448, 8.448,24, 9,24z"></path></g></svg>