<?xml version="1.0" encoding="utf-8"?> <!-- Generator: IcoMoon.io --> <!DOCTYPE svg PUBLIC "-//W3C//DTD SVG 1.1//EN" "http://www.w3.org/Graphics/SVG/1.1/DTD/svg11.dtd"> <svg width="32" height="32" viewBox="0 0 32 32" xmlns="http://www.w3.org/2000/svg" xmlns:xlink="http://www.w3.org/1999/xlink" fill="#000000"><g><path d="M 6,32l 20,0 c 1.104,0, 2-0.896, 2-2L 28,8 c0-1.104-0.896-2-2-2l-4.010,0 C 21.942,2.678, 19.282,0, 16,0S 10.058,2.678, 10.010,6 L 6,6 C 4.896,6, 4,6.896, 4,8l0,22 C 4,31.104, 4.896,32, 6,32z M 26,8l0,22 L 6,30 L 6,8 L 26,8 z M 16,2c 2.174,0, 3.942,1.786, 3.99,4L 12.010,6 C 12.058,3.786, 13.826,2, 16,2zM 13,12l 6,0 C 19.552,12, 20,11.552, 20,11C 20,10.448, 19.552,10, 19,10l-6,0 C 12.448,10, 12,10.448, 12,11C 12,11.552, 12.448,12, 13,12z "></path></g></svg>