<?xml version="1.0" encoding="utf-8"?> <!-- Generator: IcoMoon.io --> <!DOCTYPE svg PUBLIC "-//W3C//DTD SVG 1.1//EN" "http://www.w3.org/Graphics/SVG/1.1/DTD/svg11.dtd"> <svg width="33.14800262451172" height="33.00400161743164" viewBox="0 0 33.14800262451172 33.00400161743164" xmlns="http://www.w3.org/2000/svg" xmlns:xlink="http://www.w3.org/1999/xlink" fill="#000000"><g><path d="M 14.076,6.978C 11.958,4.864, 9.298,4.686, 7.448,6.536C 5.598,8.384, 5.774,11.048, 7.888,13.164l 11.448,11.448 c 0.39,0.39, 1.024,0.39, 1.414,0s 0.39-1.024,0-1.414L 9.302,11.75c-1.026-1.026-1.68-2.562-0.442-3.8 c 1.236-1.238, 2.774-0.582, 3.8,0.444l 12.728,12.726c 3.65,3.654, 4.56,5.338, 2.386,7.514c-2.2,2.198-4.532,1.654-8.044-1.856 L 5.59,12.634C 3.306,10.35, 1.706,6.62, 4.708,3.62C 8.272,0.056, 12.342,3.56, 13.502,4.722l 12.992,12.994c 0.39,0.39, 1.024,0.39, 1.414,0 s 0.39-1.024,0-1.414L 14.916,3.308C 10.988-0.62, 6.534-1.040, 3.292,2.206C 0.016,5.48, 0.37,10.24, 4.176,14.048l 14.142,14.142 c 1.202,1.202, 3.776,3.774, 6.736,3.774c 1.33,0, 2.74-0.522, 4.136-1.918c 3.974-3.976, 0.298-7.656-2.386-10.342L 14.076,6.978z"></path></g></svg>