<?xml version="1.0" encoding="utf-8"?> <!-- Generator: IcoMoon.io --> <!DOCTYPE svg PUBLIC "-//W3C//DTD SVG 1.1//EN" "http://www.w3.org/Graphics/SVG/1.1/DTD/svg11.dtd"> <svg width="32" height="32" viewBox="0 0 32 32" xmlns="http://www.w3.org/2000/svg" xmlns:xlink="http://www.w3.org/1999/xlink" fill="#000000"><g><path d="M 30,2L 2,2 C 0.896,2,0,2.896,0,4l0,18 c0,1.104, 0.896,2, 2,2l 9.998,0 c-0.004,1.446-0.062,3.324-0.61,4L 10.984,28 C 10.44,28, 10,28.448, 10,29C 10,29.552, 10.44,30, 10.984,30l 10.030,0 C 21.56,30, 22,29.552, 22,29c0-0.552-0.44-1-0.984-1l-0.404,0 c-0.55-0.676-0.606-2.554-0.61-4L 30,24 c 1.104,0, 2-0.896, 2-2L 32,4 C 32,2.896, 31.104,2, 30,2z M 14,24l-0.002,0.004 C 13.998,24.002, 13.998,24.002, 14,24L 14,24z M 18.002,24.004L 18,24l 0.002,0 C 18.002,24.002, 18.002,24.002, 18.002,24.004z M 30,20L 2,20 L 2,4 l 28,0 L 30,20 z"></path></g></svg>