<?xml version="1.0" encoding="utf-8"?> <!-- Generator: IcoMoon.io --> <!DOCTYPE svg PUBLIC "-//W3C//DTD SVG 1.1//EN" "http://www.w3.org/Graphics/SVG/1.1/DTD/svg11.dtd"> <svg width="32" height="32" viewBox="0 0 32 32" xmlns="http://www.w3.org/2000/svg" xmlns:xlink="http://www.w3.org/1999/xlink" fill="#000000"><g><path d="M 13.788,25.588c 0.040,0.032, 0.064,0.076, 0.106,0.106c 0.060,0.040, 0.128,0.048, 0.192,0.076 c 0.076,0.036, 0.15,0.070, 0.23,0.092c 0.078,0.020, 0.154,0.030, 0.234,0.036c 0.114,0.012, 0.224,0.012, 0.336-0.004 c 0.046-0.008, 0.090-0.020, 0.136-0.032c 0.138-0.034, 0.266-0.088, 0.392-0.164c 0.022-0.014, 0.040-0.030, 0.062-0.044 c 0.082-0.056, 0.17-0.098, 0.24-0.174c 0.050-0.054, 0.072-0.124, 0.112-0.184c 0.002-0.002, 0.006-0.004, 0.006-0.006l 11.918-19.102 c 0.424-0.646, 0.242-1.514-0.406-1.938s-1.514-0.242-1.938,0.406l-11.008,17.642L 8.312,16.376C 7.744,15.85, 6.86,15.884, 6.334,16.452 C 5.81,17.020, 5.844,17.906, 6.412,18.43l 7.324,7.126C 13.75,25.57, 13.77,25.574, 13.788,25.588z"></path></g></svg>