<?xml version="1.0" encoding="utf-8"?> <!-- Generator: IcoMoon.io --> <!DOCTYPE svg PUBLIC "-//W3C//DTD SVG 1.1//EN" "http://www.w3.org/Graphics/SVG/1.1/DTD/svg11.dtd"> <svg width="32" height="32" viewBox="0 0 32 32" xmlns="http://www.w3.org/2000/svg" xmlns:xlink="http://www.w3.org/1999/xlink" fill="#000000"><g><path d="M 29.974,0c-1.12,0-2.026,0.908-2.026,2.026l0,4.724 C 25.664,3.984, 23.032,0, 15.788,0C 7.084,0,0,7.082,0,15.788 c0,8.706, 7.084,15.788, 15.788,15.788c 6.836,0, 12.864-4.366, 15.004-10.864c 0.354-1.082-0.234-2.248-1.316-2.604 c-1.082-0.356-2.248,0.232-2.604,1.314c-1.58,4.802-6.034,8.028-11.084,8.028c-6.432,0-11.664-5.232-11.664-11.664 s 5.232-11.64, 11.664-11.64c 4.554,0, 7.084,2.834, 9.148,5.806L 19.842,9.952 c-1.12,0-2.026,0.908-2.026,2.026c0,1.12, 0.908,2.026, 2.026,2.026 l 10.132,0 C 31.092,14.008, 32,13.1, 32,11.982L 32,2.026 C 32,0.908, 31.092,0, 29.974,0z"></path></g></svg>