<?xml version="1.0" encoding="utf-8"?> <!-- Generator: IcoMoon.io --> <!DOCTYPE svg PUBLIC "-//W3C//DTD SVG 1.1//EN" "http://www.w3.org/Graphics/SVG/1.1/DTD/svg11.dtd"> <svg version="1.1" id="Layer_1" xmlns="http://www.w3.org/2000/svg" xmlns:xlink="http://www.w3.org/1999/xlink" x="0px" y="0px" width="32" height="32" viewBox="0 0 32 32" enable-background="new 0 0 16 16" xml:space="preserve" fill="#000000"> <g><path d="M 17,2C 8.716,2, 2,8.716, 2,17S 8.716,32, 17,32S 32,25.284, 32,17S 25.284,2, 17,2z M 18.714,16 C 21.628,16, 24,18.242, 24,21S 21.628,26, 18.714,26L 18,26 l0,1 C 18,27.552, 17.552,28, 17,28S 16,27.552, 16,27L 16,26 L 15.286,26 C 12.372,26, 10,23.758, 10,21 C 10,20.448, 10.448,20, 11,20S 12,20.448, 12,21C 12,22.654, 13.474,24, 15.286,24L 16,24 L 16,18 L 15.286,18 C 12.372,18, 10,15.758, 10,13S 12.372,8, 15.286,8L 16,8 L 16,7 C 16,6.448, 16.448,6, 17,6S 18,6.448, 18,7L 18,8 l 0.714,0 C 21.628,8, 24,10.242, 24,13C 24,13.552, 23.552,14, 23,14S 22,13.552, 22,13 C 22,11.346, 20.526,10, 18.714,10L 18,10 l0,6 L 18.714,16 zM 12,13C 12,14.654, 13.474,16, 15.286,16L 16,16 L 16,10 L 15.286,10 C 13.474,10, 12,11.346, 12,13zM 18.714,24C 20.526,24, 22,22.654, 22,21S 20.526,18, 18.714,18L 18,18 l0,6 L 18.714,24 z"></path></g></svg>