<?xml version="1.0" encoding="utf-8"?> <!-- Generator: IcoMoon.io --> <!DOCTYPE svg PUBLIC "-//W3C//DTD SVG 1.1//EN" "http://www.w3.org/Graphics/SVG/1.1/DTD/svg11.dtd"> <svg width="32" height="32" viewBox="0 0 32 32" xmlns="http://www.w3.org/2000/svg" xmlns:xlink="http://www.w3.org/1999/xlink" fill="#000000"><g><path d="M 20.62,24.218L 26,26L 24.218,20.62L 13.938,10.34L 10.34,13.938 zM 8.222,11.82L 11.82,8.222L 9.172,5.574c-0.994-0.994-2.604-0.994-3.598,0c-0.994,0.994-0.994,2.604,0,3.598 L 8.222,11.82zM 30,0L 2,0 C 0.896,0,0,0.896,0,2l0,28 c0,1.104, 0.896,2, 2,2l 28,0 c 1.104,0, 2-0.896, 2-2L 32,2 C 32,0.896, 31.104,0, 30,0z M 30,30L 2,30 L 2,2 l 28,0 L 30,30 z"></path></g></svg>