<?xml version="1.0" encoding="utf-8"?> <!-- Generator: IcoMoon.io --> <!DOCTYPE svg PUBLIC "-//W3C//DTD SVG 1.1//EN" "http://www.w3.org/Graphics/SVG/1.1/DTD/svg11.dtd"> <svg width="32" height="32" viewBox="0 0 32 32" xmlns="http://www.w3.org/2000/svg" xmlns:xlink="http://www.w3.org/1999/xlink" fill="#000000"><g><path d="M 16,0C 7.164,0,0,7.164,0,16s 7.164,16, 16,16s 16-7.164, 16-16S 24.836,0, 16,0z M 14,14c0-1.104, 0.896-2, 2-2s 2,0.896, 2,2l0,10 c0,1.104-0.896,2-2,2s-2-0.896-2-2L 14,14 z M 16,10.032c-1.104,0-2-0.896-2-2c0-1.104, 0.896-2, 2-2s 2,0.896, 2,2C 18,9.136, 17.104,10.032, 16,10.032 z"></path></g></svg>