<?xml version="1.0" encoding="utf-8"?> <!-- Generator: IcoMoon.io --> <!DOCTYPE svg PUBLIC "-//W3C//DTD SVG 1.1//EN" "http://www.w3.org/Graphics/SVG/1.1/DTD/svg11.dtd"> <svg version="1.1" id="Layer_1" xmlns="http://www.w3.org/2000/svg" xmlns:xlink="http://www.w3.org/1999/xlink" x="0px" y="0px" width="32" height="32" viewBox="0 0 32 32" enable-background="new 0 0 16 16" xml:space="preserve" fill="#000000"> <g><path d="M 4.9,22.004c0,0, 7.622,0, 9.1,0l0,5.188 C 13.93,29.998, 14.562,32, 16.938,32C 19.5,32, 20,29.874, 20,29.874 c 0.468-7.53, 8-9.87, 8-9.87l0-16 l-2.922-0.124c-7.566,0-3.026-3.876-15.458-3.876c-9.44,0-9.62,8.308-9.62,14 S 2.594,22.004, 4.9,22.004z M 9.62,2.004c 6.316,0, 7.654,1.006, 8.836,1.894c 1.492,1.122, 2.928,1.98, 6.524,1.98 c 0.004,0, 0.008,0, 0.012,0L 26,5.92l0,12.738 c-2.494,1.166-7.45,4.284-7.978,10.836C 17.944,29.654, 17.686,30, 16.938,30 c-0.178,0-0.408-0.020-0.506-0.12C 16.35,29.796, 15.948,29.278, 16,27.192l0-5.188 l0-2 L 14,20.004 L 4.9,20.004 c-1.442,0-2.9-2.060-2.9-6 C 2,6.222, 3.214,2.004, 9.62,2.004zM 31,2.004c-0.552,0-1,0.448-1,1l0,17.916 c0,0.552, 0.448,1, 1,1s 1-0.448, 1-1L 32,3.004 C 32,2.452, 31.552,2.004, 31,2.004z"></path></g></svg>