<?xml version="1.0" encoding="utf-8"?> <!-- Generator: IcoMoon.io --> <!DOCTYPE svg PUBLIC "-//W3C//DTD SVG 1.1//EN" "http://www.w3.org/Graphics/SVG/1.1/DTD/svg11.dtd"> <svg width="32" height="33.22800064086914" viewBox="0 0 32 33.22800064086914" xmlns="http://www.w3.org/2000/svg" xmlns:xlink="http://www.w3.org/1999/xlink" fill="#000000"><g><path d="M 14,5C 14,2.324, 11.676,0, 9,0S 4,2.324, 4,5C 4,7.676, 6.324,10, 9,10S 14,7.676, 14,5zM 17.5,24c0-8-4.152-12-8.75-12S0,16,0,24C0,29.48, 17.5,29.48, 17.5,24zM 23.5,13.89c 2.676,0, 5-2.324, 5-5s-2.324-5-5-5s-5,2.324-5,5S 20.824,13.89, 23.5,13.89zM 23.25,15.89c-1.382,0-2.706,0.406-3.906,1.13c 0.726,1.952, 1.156,4.266, 1.156,6.98 c0,2.694-1.796,4.792-4.878,5.992C 19.444,33.228, 32,32.538, 32,27.89C 32,19.89, 27.848,15.89, 23.25,15.89z"></path></g></svg>