<?xml version="1.0" encoding="utf-8"?> <!-- Generator: IcoMoon.io --> <!DOCTYPE svg PUBLIC "-//W3C//DTD SVG 1.1//EN" "http://www.w3.org/Graphics/SVG/1.1/DTD/svg11.dtd"> <svg version="1.1" id="Layer_1" xmlns="http://www.w3.org/2000/svg" xmlns:xlink="http://www.w3.org/1999/xlink" x="0px" y="0px" width="32" height="32" viewBox="0 0 32 32" enable-background="new 0 0 16 16" xml:space="preserve" fill="#000000"> <g><path d="M 2,32l 26,0 c 1.104,0, 2-0.896, 2-2L 30,18 c0-1.104-0.896-2-2-2l-6,0 c-1.104,0-2,0.896-2,2L 20,2 c0-1.104-0.896-2-2-2L 12,0 C 10.896,0, 10,0.896, 10,2l0,8 c0-1.104-0.896-2-2-2L 2,8 C 0.896,8,0,8.896,0,10l0,20 C0,31.104, 0.896,32, 2,32z M 2,30l0-4 l 2,0 l0,4 L 2,30 z M 4,18l0,2 L 2,20 L 2,18 L 4,18 z M 2,16 L 2,14 l 2,0 l0,2 L 2,16 z M 4,22l0,2 L 2,24 l0-2 L 4,22 z M 6,20L 6,18 l 2,0 l0,2 L 6,20 z M 8,22l0,2 L 6,24 l0-2 L 8,22 z M 6,16L 6,14 l 2,0 l0,2 L 6,16 z M 6,30l0-4 l 2,0 l0,4 L 6,30 z M 8,12L 6,12 L 6,10 l 2,0 L 8,12 z M 4,12L 2,12 L 2,10 l 2,0 L 4,12 z M 16,30l0-4 l 2,0 l0,4 L 16,30 z M 14,10l0,2 L 12,12 L 12,10 L 14,10 z M 12,8L 12,6 l 2,0 l0,2 L 12,8 z M 14,14l0,2 L 12,16 L 12,14 L 14,14 z M 14,18l0,2 L 12,20 L 12,18 L 14,18 z M 14,22l0,2 L 12,24 l0-2 L 14,22 z M 16,20L 16,18 l 2,0 l0,2 L 16,20 z M 18,22l0,2 L 16,24 l0-2 L 18,22 z M 16,16L 16,14 l 2,0 l0,2 L 16,16 z M 16,12L 16,10 l 2,0 l0,2 L 16,12 z M 16,8L 16,6 l 2,0 l0,2 L 16,8 z M 18,4L 16,4 L 16,2 l 2,0 L 18,4 z M 14,4L 12,4 L 12,2 l 2,0 L 14,4 z M 12,26l 2,0 l0,4 L 12,30 L 12,26 z M 24,24l-2,0 l0-2 l 2,0 L 24,24 z M 26,22l 2,0 l0,2 l-2,0 L 26,22 z M 26,26l 2,0 l0,4 l-2,0 L 26,26 z M 28,20l-2,0 L 26,18 l 2,0 L 28,20 z M 24,20l-2,0 L 22,18 l 2,0 L 24,20 z M 22,26l 2,0 l0,4 l-2,0 L 22,26 z"></path></g></svg>