<?xml version="1.0" encoding="utf-8"?> <!-- Generator: IcoMoon.io --> <!DOCTYPE svg PUBLIC "-//W3C//DTD SVG 1.1//EN" "http://www.w3.org/Graphics/SVG/1.1/DTD/svg11.dtd"> <svg version="1.1" id="Layer_1" xmlns="http://www.w3.org/2000/svg" xmlns:xlink="http://www.w3.org/1999/xlink" x="0px" y="0px" width="32" height="32.11199951171875" viewBox="0 0 32 32.11199951171875" enable-background="new 0 0 16 16" xml:space="preserve" fill="#000000"> <g><path d="M 9.030,16.5c 0.296,0, 0.592-0.132, 0.79-0.386l 4.404-5.67l 3.016,3.542c 0.192,0.222, 0.408,0.32, 0.766,0.352 C 18.296,14.336, 18.576,14.208, 18.766,13.98l 7-8.338c 0.356-0.422, 0.3-1.052-0.124-1.408c-0.422-0.358-1.052-0.298-1.408,0.124 l-6.24,7.432L 14.95,8.21C 14.752,7.982, 14.388,7.876, 14.166,7.86C 13.864,7.868, 13.582,8.008, 13.398,8.246L 8.24,14.886 C 7.9,15.322, 7.98,15.952, 8.416,16.29C 8.598,16.432, 8.814,16.5, 9.030,16.5zM 30.978,0L 28,0 L 6,0 L 3.022,0 C 2.458,0, 2,0.448, 2,1C 2,1.552, 2.458,2, 3.022,2L 4,2 l0,18 c0,1.104, 0.896,2, 2,2l 10,0 l0,3.122 L 10.328,30.26c-0.408,0.37-0.44,1.002-0.068,1.412c 0.374,0.408, 1.006,0.44, 1.412,0.068L 16,27.82l0,3.18 C 16,31.552, 16.448,32, 17,32 S 18,31.552, 18,31l0-3.18 l 4.328,3.92C 22.52,31.914, 22.76,32, 23,32c 0.272,0, 0.542-0.112, 0.74-0.328 c 0.372-0.41, 0.34-1.042-0.068-1.412L 18,25.122L 18,22 l 10,0 c 1.104,0, 2-0.896, 2-2L 30,2 l 0.978,0 C 31.542,2, 32,1.552, 32,1 C 32,0.448, 31.542,0, 30.978,0z M 28,20L 6,20 L 6,2 l 22,0 L 28,20 z"></path></g></svg>