<?xml version="1.0" encoding="utf-8"?> <!-- Generator: IcoMoon.io --> <!DOCTYPE svg PUBLIC "-//W3C//DTD SVG 1.1//EN" "http://www.w3.org/Graphics/SVG/1.1/DTD/svg11.dtd"> <svg width="32" height="32" viewBox="0 0 32 32" xmlns="http://www.w3.org/2000/svg" xmlns:xlink="http://www.w3.org/1999/xlink" fill="#000000"><g><path d="M 26,12L 7.846,12 L 7.846,10.154 C 7.846,6.76, 10.606,4, 14,4c 2.236,0, 4.182,1.208, 5.258,2.998 c 0.010-0.012, 0.028-0.018, 0.040-0.030c 0.362,0.516, 0.932,0.876, 1.61,0.876c 1.104,0, 2-0.896, 2-2c0-0.27-0.056-0.528-0.154-0.764 c-0.008-0.014-0.014-0.030-0.022-0.044c-0.088-0.2-0.214-0.376-0.36-0.534C 20.552,1.8, 17.504,0, 14,0C 8.392,0, 3.846,4.546, 3.846,10.154 L 3.846,12 L 2,12 C 0.896,12,0,12.896,0,14l0,16 c0,1.104, 0.896,2, 2,2l 24,0 c 1.104,0, 2-0.896, 2-2L 28,14 C 28,12.896, 27.104,12, 26,12z M 14,26c-2.21,0-4-1.79-4-4 s 1.79-4, 4-4s 4,1.79, 4,4S 16.21,26, 14,26z"></path></g></svg>