<?xml version="1.0" encoding="utf-8"?> <!-- Generator: IcoMoon.io --> <!DOCTYPE svg PUBLIC "-//W3C//DTD SVG 1.1//EN" "http://www.w3.org/Graphics/SVG/1.1/DTD/svg11.dtd"> <svg width="32" height="32" viewBox="0 0 32 32" xmlns="http://www.w3.org/2000/svg" xmlns:xlink="http://www.w3.org/1999/xlink" fill="#000000"><g><path d="M 7,16l 18,0 C 25.552,16, 26,15.552, 26,15C 26,14.448, 25.552,14, 25,14l-18,0 C 6.448,14, 6,14.448, 6,15 C 6,15.552, 6.448,16, 7,16zM 7,10l 18,0 C 25.552,10, 26,9.552, 26,9C 26,8.448, 25.552,8, 25,8l-18,0 C 6.448,8, 6,8.448, 6,9 C 6,9.552, 6.448,10, 7,10zM 7,22l 18,0 c 0.552,0, 1-0.448, 1-1c0-0.552-0.448-1-1-1l-18,0 C 6.448,20, 6,20.448, 6,21 C 6,21.552, 6.448,22, 7,22z"></path></g></svg>