<?xml version="1.0" encoding="utf-8"?> <!-- Generator: IcoMoon.io --> <!DOCTYPE svg PUBLIC "-//W3C//DTD SVG 1.1//EN" "http://www.w3.org/Graphics/SVG/1.1/DTD/svg11.dtd"> <svg version="1.1" id="Layer_1" xmlns="http://www.w3.org/2000/svg" xmlns:xlink="http://www.w3.org/1999/xlink" x="0px" y="0px" width="32" height="32" viewBox="0 0 32 32" enable-background="new 0 0 16 16" xml:space="preserve" fill="#000000"> <g><path d="M 4,6l0,16 l 0.296,0.74L 8,32l 4-10l-0.010-0.004C 11.996,21.99, 11.994,21.98, 12,21.974L 12,6 L 12,4 c0-2.21-1.79-4-4-4 S 4,1.79, 4,4L 4,6 z M 6,4c0-1.102, 0.898-2, 2-2s 2,0.898, 2,2l0,2 L 6,6 L 6,4 z M 8,26.614l-1.030-2.574l-0.4-1L 6.54,22.966L 8,22.236l 1.46,0.73 l-0.030,0.076l-0.4,1L 8,26.614z M 10,21L 8,20l-2,1L 6,9.446 L 6,8.22 L 6,8 l 2,0 l 2,0 l0,0.22 l0,1.226 L 10,21 zM 25.184,5.958L 23.268,1l-0.018,0.006C 23.11,0.434, 22.616,0, 22,0c-0.662,0-1.184,0.496-1.276,1.132 l-0.036-0.008L 18.816,5.958L 18,8l0,20 c0,2.21, 1.79,4, 4,4s 4-1.79, 4-4c 1.104,0, 2-0.896, 2-2l0-6 c0-1.104-0.896-2-2-2L 26,8 L 25.184,5.958z M 24,20l0,6 l0,2 c0,1.102-0.898,2-2,2s-2-0.898-2-2L 20,8 l 0.154,0 l 3.692,0 L 24,8 l0,10 L 24,20 z M 23.046,6l-2.092,0 L 22,3.386L 23.046,6z"></path></g></svg>