<?xml version="1.0" encoding="utf-8"?> <!-- Generator: IcoMoon.io --> <!DOCTYPE svg PUBLIC "-//W3C//DTD SVG 1.1//EN" "http://www.w3.org/Graphics/SVG/1.1/DTD/svg11.dtd"> <svg width="32" height="32" viewBox="0 0 32 32" xmlns="http://www.w3.org/2000/svg" xmlns:xlink="http://www.w3.org/1999/xlink" fill="#000000"><g><path d="M 16,0C 7.164,0,0,7.164,0,16s 7.164,16, 16,16s 16-7.164, 16-16S 24.836,0, 16,0z M 23.848,9.53l-2.324,3.724L 19.974,15.738 C 19.98,15.826, 20,15.91, 20,16c0,2.21-1.79,4-4,4c-0.090,0-0.174-0.020-0.262-0.026l-2.486,1.55l-3.722,2.324 C 9.368,23.95, 9.184,24, 9,24c-0.258,0-0.514-0.1-0.708-0.292c-0.33-0.33-0.388-0.842-0.14-1.236l 2.324-3.724l 1.55-2.484 C 12.020,16.174, 12,16.090, 12,16c0-2.21, 1.79-4, 4-4c 0.090,0, 0.174,0.020, 0.262,0.026l 2.486-1.55l 3.722-2.324 c 0.388-0.246, 0.906-0.188, 1.236,0.142C 24.038,8.622, 24.096,9.134, 23.848,9.53zM 14,16A2,2 1080 1 0 18,16A2,2 1080 1 0 14,16z"></path></g></svg>