<?xml version="1.0" encoding="utf-8"?> <!-- Generator: IcoMoon.io --> <!DOCTYPE svg PUBLIC "-//W3C//DTD SVG 1.1//EN" "http://www.w3.org/Graphics/SVG/1.1/DTD/svg11.dtd"> <svg version="1.1" id="Layer_1" xmlns="http://www.w3.org/2000/svg" xmlns:xlink="http://www.w3.org/1999/xlink" x="0px" y="0px" width="32" height="32.05799865722656" viewBox="0 0 32 32.05799865722656" enable-background="new 0 0 16 16" xml:space="preserve" fill="#000000"> <g><path d="M 11.876,25.052c-1.24,0-2.352-0.538-3.134-1.382c-1.382-1.49-2.39-0.552-2.692,0.914 C 4.52,32.058, 6.73,32, 6.73,32l 21.26,0.058c 2.21,0, 4-1.79, 4-4l0-14 c0-2.21, 0.256-5.338-1.76-4.432 c-1.526,0.684-3.532,1.094-6.676,0.446c-1.466-0.302-2.404-1.31-0.914-2.692c 0.844-0.782, 1.382-1.892, 1.382-3.134 C 24.020,1.9, 22.12,0, 19.776,0C 17.43,0, 15.53,1.9, 15.53,4.246c0,1.328, 0.692,2.424, 1.566,3.294c 0.526,0.524, 1.914,1.894-1.638,2.52 C 11.552,10.746, 7.806,8.538, 7.052,9.34C 6.552,9.87, 5.176,11.87, 6.060,16.56c 0.672,3.57, 2,2.092, 2.522,1.566 C 9.452,17.252, 10.548,16.56, 11.876,16.56c 2.344,0, 4.246,1.9, 4.246,4.246C 16.122,23.15, 14.222,25.052, 11.876,25.052z"></path></g></svg>