<?xml version="1.0" encoding="utf-8"?> <!-- Generator: IcoMoon.io --> <!DOCTYPE svg PUBLIC "-//W3C//DTD SVG 1.1//EN" "http://www.w3.org/Graphics/SVG/1.1/DTD/svg11.dtd"> <svg width="32" height="32" viewBox="0 0 32 32" xmlns="http://www.w3.org/2000/svg" xmlns:xlink="http://www.w3.org/1999/xlink" fill="#000000"><g><path d="M 26,0L 2,0 C 0.896,0,0,0.896,0,2l0,28 c0,1.104, 0.896,2, 2,2l 24,0 c 1.104,0, 2-0.896, 2-2L 28,2 C 28,0.896, 27.104,0, 26,0z M 2,2l 4,0 l0,28 L 2,30 L 2,2 z M 26,30L 8,30 L 8,2 l 18,0 L 26,30 zM 13.862,10.734A3.028,3.028 1080 1 0 19.918,10.734A3.028,3.028 1080 1 0 13.862,10.734zM 16.952,14.972C 14.218,14.972, 12,17.946, 12,21.614s 9.906,3.668, 9.906,0S 19.688,14.972, 16.952,14.972zM 30,2L 32,2L 32,8L 30,8zM 30,10L 32,10L 32,16L 30,16zM 30,18L 32,18L 32,24L 30,24z"></path></g></svg>