<?xml version="1.0" encoding="utf-8"?> <!-- Generator: IcoMoon.io --> <!DOCTYPE svg PUBLIC "-//W3C//DTD SVG 1.1//EN" "http://www.w3.org/Graphics/SVG/1.1/DTD/svg11.dtd"> <svg width="32" height="32" viewBox="0 0 32 32" xmlns="http://www.w3.org/2000/svg" xmlns:xlink="http://www.w3.org/1999/xlink" fill="#000000"><g><path d="M 31,0l-4,0 c-0.242,0-0.476,0.088-0.66,0.248L 12.536,12.35C 11.822,12.2, 10.718,12, 10,12c-5.514,0-10,4.486-10,10 s 4.486,10, 10,10s 10-4.486, 10-10c0-1.638-0.312-2.736-0.666-3.648l 3.404-1.156c 0.414-0.14, 0.688-0.534, 0.678-0.97l-0.084-3.796 l 3.82-0.266c 0.512-0.036, 0.914-0.454, 0.93-0.966l 0.142-4.558l 2.992-0.664C 31.674,5.876, 32,5.468, 32,5l0-4 C 32,0.448, 31.552,0, 31,0z M 7,22c 1.2,0, 2.236,0.706, 2.716,1.724C 9.898,24.112, 10,24.544, 10,25C 10,26.656, 8.656,28, 7,28 S 4,26.656, 4,25S 5.344,22, 7,22z"></path></g></svg>