<?xml version="1.0" encoding="utf-8"?> <!-- Generator: IcoMoon.io --> <!DOCTYPE svg PUBLIC "-//W3C//DTD SVG 1.1//EN" "http://www.w3.org/Graphics/SVG/1.1/DTD/svg11.dtd"> <svg width="32" height="32" viewBox="0 0 32 32" xmlns="http://www.w3.org/2000/svg" xmlns:xlink="http://www.w3.org/1999/xlink" fill="#000000"><g><path d="M 17,2C 8.716,2, 2,8.716, 2,17S 8.716,32, 17,32S 32,25.284, 32,17S 25.284,2, 17,2z M 17,30 C 9.832,30, 4,24.168, 4,17S 9.832,4, 17,4S 30,9.832, 30,17S 24.168,30, 17,30zM 22.536,10.050L 17.038,15.548L 12.108,10.050c-0.39-0.39-1.024-0.39-1.414,0c-0.39,0.39-0.39,1.024,0,1.414 l 4.932,5.498l-5.574,5.574c-0.39,0.39-0.39,1.024,0,1.414c 0.39,0.39, 1.024,0.39, 1.414,0l 5.498-5.498l 4.932,5.498 c 0.39,0.39, 1.024,0.39, 1.414,0s 0.39-1.024,0-1.414L 18.376,17.038l 5.574-5.574c 0.39-0.39, 0.39-1.024,0-1.414 C 23.56,9.66, 22.926,9.66, 22.536,10.050z"></path></g></svg>