<?xml version="1.0" encoding="utf-8"?> <!-- Generator: IcoMoon.io --> <!DOCTYPE svg PUBLIC "-//W3C//DTD SVG 1.1//EN" "http://www.w3.org/Graphics/SVG/1.1/DTD/svg11.dtd"> <svg width="32" height="32" viewBox="0 0 32 32" xmlns="http://www.w3.org/2000/svg" xmlns:xlink="http://www.w3.org/1999/xlink" fill="#000000"><g><path d="M 1.898,29.382c 0.164,0.352, 0.518,0.576, 0.906,0.576c 2.87,0, 5.298-0.698, 8.056-2.324 C 12.198,27.846, 14.84,28.108, 16,28.108c 8.756,0, 15.878-5.846, 15.878-13.034S 24.756,2.042, 16,2.042S 0.122,7.886, 0.122,15.074 c0,3.388, 1.634,6.662, 4.51,9.088c-0.652,1.48-1.522,2.876-2.594,4.154C 1.79,28.616, 1.734,29.032, 1.898,29.382z M 2.122,15.074 c0-6.084, 6.226-11.034, 13.878-11.034s 13.878,4.95, 13.878,11.034S 23.652,26.108, 16,26.108c-1.148,0-4.136-0.308-5.146-0.504 c-0.244-0.044-0.498,0.002-0.71,0.128C 8.28,26.872, 6.654,27.524, 4.914,27.8c 0.75-1.136, 1.374-2.336, 1.86-3.586 c 0.162-0.418, 0.030-0.89-0.328-1.16C 3.656,20.942, 2.122,18.106, 2.122,15.074z"></path></g></svg>