<?xml version="1.0" encoding="utf-8"?> <!-- Generator: IcoMoon.io --> <!DOCTYPE svg PUBLIC "-//W3C//DTD SVG 1.1//EN" "http://www.w3.org/Graphics/SVG/1.1/DTD/svg11.dtd"> <svg version="1.1" id="Layer_1" xmlns="http://www.w3.org/2000/svg" xmlns:xlink="http://www.w3.org/1999/xlink" x="0px" y="0px" width="32" height="32" viewBox="0 0 32 32" enable-background="new 0 0 16 16" xml:space="preserve" fill="#000000"> <g><path d="M 31.698,14.286l-4.822-8.77c-0.012-0.022-0.038-0.030-0.052-0.050c-0.242-0.374-0.698-0.564-1.142-0.416 L 18,7.608L 18,5 C 18,4.448, 17.552,4, 17,4S 16,4.448, 16,5l0,3.272 L 7.65,11.050c-0.068,0.022-0.12,0.068-0.18,0.104c0,0,0,0-0.002,0 C 7.332,11.236, 7.218,11.34, 7.136,11.47c-0.010,0.014-0.028,0.020-0.038,0.036l-4.966,8.75c-0.112,0.196-0.132,0.412-0.106,0.62 C 2.020,20.918, 2,20.956, 2,21C 2,23.060, 5.11,26, 8,26s 6-2.94, 6-5c0-0.128-0.028-0.25-0.074-0.362 c0-0.004-0.002-0.008-0.002-0.012c-0.002-0.006-0.004-0.014-0.006-0.020c-0.018-0.12-0.052-0.238-0.114-0.35L 9.438,12.566L 16,10.382 L 16,27 C 16,27.552, 16.448,28, 17,28S 18,27.552, 18,27L 18,9.716 l 5.892-1.96l-3.59,6.532C 20.116,14.468, 20,14.72, 20,15 c0,2.060, 3.11,5, 6,5s 6-2.94, 6-5C 32,14.72, 31.884,14.468, 31.698,14.286z M 4.576,20l 3.392-5.974L 11.358,20L 4.576,20 z M 22.744,14 L 26,8.076L 29.256,14L 22.744,14 z"></path></g></svg>