<?xml version="1.0" encoding="utf-8"?> <!-- Generator: IcoMoon.io --> <!DOCTYPE svg PUBLIC "-//W3C//DTD SVG 1.1//EN" "http://www.w3.org/Graphics/SVG/1.1/DTD/svg11.dtd"> <svg width="32.13399887084961" height="32.13399887084961" viewBox="0 0 32.13399887084961 32.13399887084961" xmlns="http://www.w3.org/2000/svg" xmlns:xlink="http://www.w3.org/1999/xlink" fill="#000000"><g><path d="M 19,0C 11.82,0, 6,5.82, 6,13c0,3.090, 1.082,5.922, 2.882,8.154l-8.474,8.474 c-0.542,0.542-0.542,1.422,0,1.964c 0.542,0.542, 1.422,0.542, 1.964,0l 8.474-8.474C 13.078,24.918, 15.91,26, 19,26 c 7.18,0, 13-5.82, 13-13S 26.18,0, 19,0z M 25,14l-12,0 C 12.448,14, 12,13.552, 12,13C 12,12.448, 12.448,12, 13,12l 12,0 C 25.552,12, 26,12.448, 26,13 C 26,13.552, 25.552,14, 25,14z"></path></g></svg>