<?xml version="1.0" encoding="utf-8"?> <!-- Generator: IcoMoon.io --> <!DOCTYPE svg PUBLIC "-//W3C//DTD SVG 1.1//EN" "http://www.w3.org/Graphics/SVG/1.1/DTD/svg11.dtd"> <svg width="32" height="32" viewBox="0 0 32 32" xmlns="http://www.w3.org/2000/svg" xmlns:xlink="http://www.w3.org/1999/xlink" fill="#000000"><g><path d="M 30.434,4.048l-9-4C 21.292,0.016, 21.146,0, 21,0c-0.13,0-0.262,0.012-0.39,0.038L 10.982,3.956 L 2.436,0.048C 2.292,0.016, 2.146,0, 2,0C 1.55,0, 1.108,0.152, 0.75,0.44C 0.276,0.818,0,1.392,0,2l0,24 c0,0.936, 0.65,1.748, 1.564,1.952 l 8.958,4C 10.666,31.984, 10.812,32, 10.958,32c 0.13,0, 0.262-0.012, 0.39-0.038l 9.628-3.918l 8.588,3.908C 29.71,31.984, 29.856,32, 30,32 c 0.45,0, 0.894-0.152, 1.252-0.44C 31.724,31.18, 32,30.606, 32,30L 32,6 C 32,5.062, 31.348,4.25, 30.434,4.048z M 12,5.586l 8-3.186l0,24 l-8,3.186L 12,5.586 z M 2,2l 8,3.572l0,24 L 2,26L 2,2 z M 30,30l-8-3.556l0-24 L 30,6L 30,30 z"></path></g></svg>