<?xml version="1.0" encoding="utf-8"?> <!-- Generator: IcoMoon.io --> <!DOCTYPE svg PUBLIC "-//W3C//DTD SVG 1.1//EN" "http://www.w3.org/Graphics/SVG/1.1/DTD/svg11.dtd"> <svg width="32" height="32" viewBox="0 0 32 32" xmlns="http://www.w3.org/2000/svg" xmlns:xlink="http://www.w3.org/1999/xlink" fill="#000000"><g><path d="M 26,32c 1.104,0, 2-0.896, 2-2L 28,2 c0-1.104-0.896-2-2-2L 6,0 C 4.896,0, 4,0.896, 4,2l0,28 c0,1.104, 0.896,2, 2,2L 26,32 z M 16,31.124c-0.622,0-1.124-0.504-1.124-1.124S 15.378,28.876, 16,28.876S 17.124,29.378, 17.124,30S 16.622,31.124, 16,31.124z M 8,4l 16,0 l0,24 L 8,28 L 8,4 z"></path></g></svg>