<?xml version="1.0" encoding="utf-8"?> <!-- Generator: IcoMoon.io --> <!DOCTYPE svg PUBLIC "-//W3C//DTD SVG 1.1//EN" "http://www.w3.org/Graphics/SVG/1.1/DTD/svg11.dtd"> <svg version="1.1" id="Layer_1" xmlns="http://www.w3.org/2000/svg" xmlns:xlink="http://www.w3.org/1999/xlink" x="0px" y="0px" width="32" height="32" viewBox="0 0 32 32" enable-background="new 0 0 16 16" xml:space="preserve" fill="#000000"> <g><path d="M 17,2C 8.716,2, 2,8.716, 2,17S 8.716,32, 17,32S 32,25.284, 32,17S 25.284,2, 17,2z M 17,30 C 9.832,30, 4,24.168, 4,17S 9.832,4, 17,4S 30,9.832, 30,17S 24.168,30, 17,30zM 18.714,10C 20.526,10, 22,11.346, 22,13C 22,13.552, 22.448,14, 23,14S 24,13.552, 24,13C 24,10.242, 21.628,8, 18.714,8L 18,8 L 18,7 C 18,6.448, 17.552,6, 17,6S 16,6.448, 16,7L 16,8 L 15.286,8 C 12.372,8, 10,10.242, 10,13S 12.372,18, 15.286,18L 16,18 l0,6 L 15.286,24 C 13.474,24, 12,22.654, 12,21 C 12,20.448, 11.552,20, 11,20S 10,20.448, 10,21C 10,23.758, 12.372,26, 15.286,26L 16,26 l0,1 C 16,27.552, 16.448,28, 17,28S 18,27.552, 18,27L 18,26 l 0.714,0 C 21.628,26, 24,23.758, 24,21S 21.628,16, 18.714,16L 18,16 L 18,10 L 18.714,10 z M 18.714,18C 20.526,18, 22,19.346, 22,21S 20.526,24, 18.714,24L 18,24 L 18,18 L 18.714,18 z M 16,16 L 15.286,16 C 13.474,16, 12,14.654, 12,13S 13.474,10, 15.286,10L 16,10 L 16,16 z"></path></g></svg>