<?xml version="1.0" encoding="utf-8"?> <!-- Generator: IcoMoon.io --> <!DOCTYPE svg PUBLIC "-//W3C//DTD SVG 1.1//EN" "http://www.w3.org/Graphics/SVG/1.1/DTD/svg11.dtd"> <svg width="32" height="32" viewBox="0 0 32 32" xmlns="http://www.w3.org/2000/svg" xmlns:xlink="http://www.w3.org/1999/xlink" fill="#000000"><g><path d="M 27.020,22.82A0.182,0.182 1080 1 0 27.384,22.82A0.182,0.182 1080 1 0 27.020,22.82zM 23.002,26.966A0.362,0.362 1080 1 0 23.726,26.966A0.362,0.362 1080 1 0 23.002,26.966zM 17.586,29.1A0.544,0.544 1080 1 0 18.674,29.1A0.544,0.544 1080 1 0 17.586,29.1zM 11.756,28.814A0.724,0.724 1080 1 0 13.204,28.814A0.724,0.724 1080 1 0 11.756,28.814zM 6.584,26.16A0.906,0.906 1080 1 0 8.396,26.16A0.906,0.906 1080 1 0 6.584,26.16zM 3.002,21.648A1.088,1.088 1080 1 0 5.178,21.648A1.088,1.088 1080 1 0 3.002,21.648zM 1.658,16.108A1.268,1.268 1080 1 0 4.194,16.108A1.268,1.268 1080 1 0 1.658,16.108zM 2.764,10.604A1.45,1.45 1080 1 0 5.664,10.604A1.45,1.45 1080 1 0 2.764,10.604zM 6.082,6.166A1.632,1.632 1080 1 0 9.346,6.166A1.632,1.632 1080 1 0 6.082,6.166zM 10.954,3.624A1.812,1.812 1080 1 0 14.578,3.624A1.812,1.812 1080 1 0 10.954,3.624zM 16.426,3.466A1.994,1.994 1080 1 0 20.414,3.466A1.994,1.994 1080 1 0 16.426,3.466zM 21.436,5.72A2.174,2.174 1080 1 0 25.784,5.72A2.174,2.174 1080 1 0 21.436,5.72zM 24.996,9.954A2.356,2.356 1080 1 0 29.708,9.954A2.356,2.356 1080 1 0 24.996,9.954zM 26.412,15.438A2.538,2.538 1080 1 0 31.488,15.438A2.538,2.538 1080 1 0 26.412,15.438z"></path></g></svg>