<?xml version="1.0" encoding="utf-8"?> <!-- Generator: IcoMoon.io --> <!DOCTYPE svg PUBLIC "-//W3C//DTD SVG 1.1//EN" "http://www.w3.org/Graphics/SVG/1.1/DTD/svg11.dtd"> <svg version="1.1" id="Layer_1" xmlns="http://www.w3.org/2000/svg" xmlns:xlink="http://www.w3.org/1999/xlink" x="0px" y="0px" width="32" height="32.11199951171875" viewBox="0 0 32 32.11199951171875" enable-background="new 0 0 16 16" xml:space="preserve" fill="#000000"> <g><path d="M 30,0L 4,0 C 2.896,0, 2,0.896, 2,2c0,1.104, 0.896,2, 2,2l0,16 c0,1.104, 0.896,2, 2,2l 10,0 l0,3.122 L 10.328,30.26 c-0.408,0.37-0.44,1.002-0.068,1.412c 0.374,0.408, 1.006,0.44, 1.412,0.068L 16,27.82l0,3.18 C 16,31.552, 16.448,32, 17,32S 18,31.552, 18,31 l0-3.18 l 4.328,3.92C 22.52,31.914, 22.76,32, 23,32c 0.272,0, 0.542-0.112, 0.74-0.328c 0.372-0.41, 0.34-1.042-0.068-1.412L 18,25.122L 18,22 l 10,0 c 1.104,0, 2-0.896, 2-2L 30,4 c 1.104,0, 2-0.896, 2-2C 32,0.896, 31.104,0, 30,0z M 25.694,7.72l-7,6.75 C 18.31,14.842, 17.702,14.844, 17.31,14.474L 14.22,11.536L 9.75,16.194C 9.554,16.396, 9.292,16.5, 9.030,16.5c-0.25,0-0.498-0.092-0.694-0.28 C 7.938,15.84, 7.926,15.208, 8.308,14.806l 5.158-5.376C 13.848,9.040, 14.48,9.024, 14.876,9.4l 3.12,2.964l 6.31-6.086 c 0.396-0.378, 1.030-0.376, 1.414,0.028C 26.104,6.704, 26.092,7.336, 25.694,7.72z"></path></g></svg>