<?xml version="1.0" encoding="utf-8"?> <!-- Generator: IcoMoon.io --> <!DOCTYPE svg PUBLIC "-//W3C//DTD SVG 1.1//EN" "http://www.w3.org/Graphics/SVG/1.1/DTD/svg11.dtd"> <svg width="32" height="32" viewBox="0 0 32 32" xmlns="http://www.w3.org/2000/svg" xmlns:xlink="http://www.w3.org/1999/xlink" fill="#000000"><g><path d="M 30,0L 2,0 C 0.896,0,0,0.896,0,2l0,28 c0,1.104, 0.896,2, 2,2l 28,0 c 1.104,0, 2-0.896, 2-2L 32,2 C 32,0.896, 31.104,0, 30,0z M 6,18l0,4 L 2,22 L 2,18 L 6,18 z M 2,14L 2,10 l 4,0 l0,4 L 2,14 z M 8,20l 16,0 l0,10 L 8,30 L 8,20 z M 24,18L 8,18 L 8,2 l 16,0 L 24,18 z M 26,18l 4,0 l0,4 l-4,0 L 26,18 z M 26,14L 26,10 l 4,0 l0,4 L 26,14 z M 26,6L 26,2 l 4,0 l0,4 L 26,6 z M 6,6L 2,6 L 2,2 l 4,0 L 6,6 z M 2,26l 4,0 l0,4 L 2,30 L 2,26 z M 26,26l 4,0 l0,4 l-4,0 L 26,26 z"></path></g></svg>