<?xml version="1.0" encoding="utf-8"?> <!-- Generator: IcoMoon.io --> <!DOCTYPE svg PUBLIC "-//W3C//DTD SVG 1.1//EN" "http://www.w3.org/Graphics/SVG/1.1/DTD/svg11.dtd"> <svg width="32" height="32" viewBox="0 0 32 32" xmlns="http://www.w3.org/2000/svg" xmlns:xlink="http://www.w3.org/1999/xlink" fill="#000000"><g><path d="M 30,10l-4,0 c0,0-1.156,0-2-2c-0.43-1.018-0.896-2-2-2L 14,6 C 12.896,6, 12.416,6.976, 12,8C 11.188,10, 10,10, 10,10L 8,10 c0-1.104-0.896-2-2-2L 4,8 C 2.896,8, 2,8.896, 2,10C 0.896,10,0,10.896,0,12l0,16 c0,1.104, 0.896,2, 2,2l 28,0 c 1.104,0, 2-0.896, 2-2L 32,19.75 L 32,18 L 32,12 C 32,10.896, 31.104,10, 30,10z M 30,28L 2,28 l0-8 l 9.1,0 c 0.49,3.388, 3.376,6, 6.9,6c 3.61,0, 6.546-2.742, 6.924-6.25L 30,19.75 L 30,28 z M 13,19 C 13,16.242, 15.244,14, 18,14s 5,2.242, 5,5c0,2.756-2.244,5-5,5S 13,21.756, 13,19z M 24.9,18C 24.41,14.612, 21.524,12, 18,12 S 11.59,14.612, 11.1,18L 2,18 L 2,12 l 2,0 l 2,0 l 4,0 c 1.168,0, 2.88-0.85, 3.852-3.248C 14.018,8.346, 14.13,8.122, 14.204,8l 7.584,0 c 0.134,0.22, 0.306,0.626, 0.37,0.778C 23.452,11.844, 25.586,12, 26,12l 4,0 l0,6 L 24.9,18 zM 4,15.020A1,1 1080 1 0 6,15.020A1,1 1080 1 0 4,15.020z"></path></g></svg>