<?xml version="1.0" encoding="utf-8"?> <!-- Generator: IcoMoon.io --> <!DOCTYPE svg PUBLIC "-//W3C//DTD SVG 1.1//EN" "http://www.w3.org/Graphics/SVG/1.1/DTD/svg11.dtd"> <svg width="32" height="32" viewBox="0 0 32 32" xmlns="http://www.w3.org/2000/svg" xmlns:xlink="http://www.w3.org/1999/xlink" fill="#000000"><g><path d="M 30,10l-8,0 c0,1.104-0.896,2-2,2l 10,0 l0,4 l-10,0 c 1.104,0, 2,0.896, 2,2l 8,0 l0,12 L 2,30 L 2,18 l 8,0 c0-1.104, 0.896-2, 2-2L 2,16 L 2,12 l 10,0 C 10.896,12, 10,11.104, 10,10L 2,10 C 0.896,10,0,10.896,0,12l0,4 l0,2 l0,12 c0,1.104, 0.896,2, 2,2l 28,0 c 1.104,0, 2-0.896, 2-2L 32,18 L 32,16 L 32,12 C 32,10.896, 31.104,10, 30,10zM 12,12l 8,0 c 1.104,0, 2-0.896, 2-2L 22,8 c0-1.104-0.896-2-2-2L 12,6 C 10.896,6, 10,6.896, 10,8l0,2 C 10,11.104, 10.896,12, 12,12z M 12,8l 8,0 l0,2 L 12,10 L 12,8 zM 10,18l0,2 c0,1.104, 0.896,2, 2,2l 8,0 c 1.104,0, 2-0.896, 2-2L 22,18 c0-1.104-0.896-2-2-2L 12,16 C 10.896,16, 10,16.896, 10,18z M 20,20L 12,20 L 12,18 l 8,0 L 20,20 z"></path></g></svg>