<?xml version="1.0" encoding="utf-8"?> <!-- Generator: IcoMoon.io --> <!DOCTYPE svg PUBLIC "-//W3C//DTD SVG 1.1//EN" "http://www.w3.org/Graphics/SVG/1.1/DTD/svg11.dtd"> <svg width="32" height="32" viewBox="0 0 32 32" xmlns="http://www.w3.org/2000/svg" xmlns:xlink="http://www.w3.org/1999/xlink" fill="#000000"><g><path d="M 6,14l 6,0 c 1.104,0, 2-0.896, 2-2L 14,6 c0-1.104-0.896-2-2-2L 6,4 C 4.896,4, 4,4.896, 4,6l0,6 C 4,13.104, 4.896,14, 6,14zM 20,14l 6,0 c 1.104,0, 2-0.896, 2-2L 28,6 c0-1.104-0.896-2-2-2l-6,0 C 18.896,4, 18,4.896, 18,6l0,6 C 18,13.104, 18.896,14, 20,14zM 4,26c0,1.104, 0.896,2, 2,2l 6,0 c 1.104,0, 2-0.896, 2-2l0-6 c0-1.104-0.896-2-2-2L 6,18 c-1.104,0-2,0.896-2,2L 4,26 zM 18,26c0,1.104, 0.896,2, 2,2l 6,0 c 1.104,0, 2-0.896, 2-2l0-6 c0-1.104-0.896-2-2-2l-6,0 c-1.104,0-2,0.896-2,2L 18,26 z"></path></g></svg>