<?xml version="1.0" encoding="utf-8"?> <!-- Generator: IcoMoon.io --> <!DOCTYPE svg PUBLIC "-//W3C//DTD SVG 1.1//EN" "http://www.w3.org/Graphics/SVG/1.1/DTD/svg11.dtd"> <svg version="1.1" id="Layer_1" xmlns="http://www.w3.org/2000/svg" xmlns:xlink="http://www.w3.org/1999/xlink" x="0px" y="0px" width="32" height="32" viewBox="0 0 32 32" enable-background="new 0 0 16 16" xml:space="preserve" fill="#000000"> <g><path d="M 30,6L 2,6 C 0.896,6,0,6.896,0,8l0,18 c0,1.104, 0.896,2, 2,2l 28,0 c 1.104,0, 2-0.896, 2-2L 32,8 C 32,6.896, 31.104,6, 30,6z M 2,8 l 28,0 l0,18 L 2,26 L 2,8 zM 27.166,16L 15,16 C 14.448,16, 14,16.448, 14,17C 14,17.552, 14.448,18, 15,18l 12.166,0 c 0.552,0, 1-0.448, 1-1 C 28.166,16.448, 27.718,16, 27.166,16zM 27.166,20L 15,20 C 14.448,20, 14,20.448, 14,21C 14,21.552, 14.448,22, 15,22l 12.166,0 c 0.552,0, 1-0.448, 1-1 C 28.166,20.448, 27.718,20, 27.166,20zM 27.166,12L 15,12 C 14.448,12, 14,12.448, 14,13C 14,13.552, 14.448,14, 15,14l 12.166,0 c 0.552,0, 1-0.448, 1-1 C 28.166,12.448, 27.718,12, 27.166,12zM 5.58,12.416A2.416,2.416 0 1 0 10.412,12.416A2.416,2.416 0 1 0 5.58,12.416zM 8.048,15.798c-2.184,0-3.952,2.372-3.952,5.3S 12,24.024, 12,21.098S 10.23,15.798, 8.048,15.798z"></path></g></svg>