<?xml version="1.0" encoding="utf-8"?> <!-- Generator: IcoMoon.io --> <!DOCTYPE svg PUBLIC "-//W3C//DTD SVG 1.1//EN" "http://www.w3.org/Graphics/SVG/1.1/DTD/svg11.dtd"> <svg width="32" height="32" viewBox="0 0 32 32" xmlns="http://www.w3.org/2000/svg" xmlns:xlink="http://www.w3.org/1999/xlink" fill="#000000"><g><path d="M 4,10l 4,0 c 1.104,0, 2-0.896, 2-2L 10,4 c0-1.104-0.896-2-2-2L 4,2 C 2.896,2, 2,2.896, 2,4l0,4 C 2,9.104, 2.896,10, 4,10zM 14,10l 4,0 c 1.104,0, 2-0.896, 2-2L 20,4 c0-1.104-0.896-2-2-2L 14,2 C 12.896,2, 12,2.896, 12,4l0,4 C 12,9.104, 12.896,10, 14,10zM 24,10l 4,0 c 1.104,0, 2-0.896, 2-2L 30,4 c0-1.104-0.896-2-2-2l-4,0 c-1.104,0-2,0.896-2,2l0,4 C 22,9.104, 22.896,10, 24,10zM 2,18c0,1.104, 0.896,2, 2,2l 4,0 c 1.104,0, 2-0.896, 2-2L 10,14 c0-1.104-0.896-2-2-2L 4,12 C 2.896,12, 2,12.896, 2,14L 2,18 zM 12,18c0,1.104, 0.896,2, 2,2l 4,0 c 1.104,0, 2-0.896, 2-2L 20,14 c0-1.104-0.896-2-2-2L 14,12 C 12.896,12, 12,12.896, 12,14L 12,18 zM 22,18c0,1.104, 0.896,2, 2,2l 4,0 c 1.104,0, 2-0.896, 2-2L 30,14 c0-1.104-0.896-2-2-2l-4,0 c-1.104,0-2,0.896-2,2L 22,18 zM 2,28c0,1.104, 0.896,2, 2,2l 4,0 c 1.104,0, 2-0.896, 2-2l0-4 c0-1.104-0.896-2-2-2L 4,22 c-1.104,0-2,0.896-2,2L 2,28 zM 12,28c0,1.104, 0.896,2, 2,2l 4,0 c 1.104,0, 2-0.896, 2-2l0-4 c0-1.104-0.896-2-2-2L 14,22 c-1.104,0-2,0.896-2,2L 12,28 zM 22,28c0,1.104, 0.896,2, 2,2l 4,0 c 1.104,0, 2-0.896, 2-2l0-4 c0-1.104-0.896-2-2-2l-4,0 c-1.104,0-2,0.896-2,2L 22,28 z"></path></g></svg>