<?xml version="1.0" encoding="utf-8"?> <!-- Generator: IcoMoon.io --> <!DOCTYPE svg PUBLIC "-//W3C//DTD SVG 1.1//EN" "http://www.w3.org/Graphics/SVG/1.1/DTD/svg11.dtd"> <svg width="32" height="32" viewBox="0 0 32 32" xmlns="http://www.w3.org/2000/svg" xmlns:xlink="http://www.w3.org/1999/xlink" fill="#000000"><g><path d="M 30,4L 2,4 C 0.896,4,0,4.896,0,6l0,4 l 32,0 L 32,6 C 32,4.896, 31.104,4, 30,4zM 2,30c0,1.104, 0.896,2, 2,2l 24,0 c 1.104,0, 2-0.896, 2-2L 30,12 L 2,12 L 2,30 z M 12,16l 8,0 c 1.104,0, 2,0.896, 2,2c0,1.104-0.896,2-2,2 L 12,20 c-1.104,0-2-0.896-2-2C 10,16.896, 10.896,16, 12,16z"></path></g></svg>