<?xml version="1.0" encoding="utf-8"?> <!-- Generator: IcoMoon.io --> <!DOCTYPE svg PUBLIC "-//W3C//DTD SVG 1.1//EN" "http://www.w3.org/Graphics/SVG/1.1/DTD/svg11.dtd"> <svg width="32" height="32.0620002746582" viewBox="0 0 32 32.0620002746582" xmlns="http://www.w3.org/2000/svg" xmlns:xlink="http://www.w3.org/1999/xlink" fill="#000000"><g><path d="M 16,0C 9.384,0, 4,5.384, 4,12c0,3.868, 1.88,7.52, 5.032,9.77c 0.048,0.034, 0.098,0.066, 0.148,0.096 c 0.732,0.43, 0.804,1.816, 0.788,2.070c-0.002,0.042-0.004,0.084-0.004,0.124L 9.964,28 c0,0.752, 0.42,1.438, 1.090,1.78l 4.036,2.062 c 0.286,0.146, 0.598,0.22, 0.91,0.22c 0.31,0, 0.618-0.072, 0.902-0.214l 4.084-2.062c 0.674-0.34, 1.098-1.030, 1.098-1.786l0-3.916 c0-1.974, 1.206-2.626, 1.218-2.632c 0.16-0.074, 0.308-0.17, 0.442-0.284C 26.448,18.88, 28,15.54, 28,12C 28,5.384, 22.616,0, 16,0z M 11.964,24.062c0,0,0-0.040, 0.002-0.062l 8.124,0 c0,0.030-0.008,0.052-0.008,0.084c0,0.786,0,1.408,0,1.916L 11.964,26 L 11.964,24.062 z M 16,30.062 L 11.966,28l 8.118,0 L 16,30.062z M 22.452,19.64c0,0-1.34,0.63-2.004,2.36L 11.644,22 c-0.248-0.692-0.678-1.404-1.45-1.858 C 7.656,18.33, 6,15.358, 6,12c0-5.522, 4.478-10, 10-10s 10,4.478, 10,10C 26,15.064, 24.622,17.806, 22.452,19.64zM 17,4C 16.448,4, 16,4.448, 16,5S 16.448,6, 17,6C 19.25,6, 22,8.046, 22,11.094c0,0.552, 0.448,1, 1,1 s 1-0.448, 1-1C 24,6.532, 20.438,4, 17,4z"></path></g></svg>