<?xml version="1.0" encoding="utf-8"?> <!-- Generator: IcoMoon.io --> <!DOCTYPE svg PUBLIC "-//W3C//DTD SVG 1.1//EN" "http://www.w3.org/Graphics/SVG/1.1/DTD/svg11.dtd"> <svg width="32" height="32" viewBox="0 0 32 32" xmlns="http://www.w3.org/2000/svg" xmlns:xlink="http://www.w3.org/1999/xlink" fill="#000000"><g><path d="M 10.050,23.95c 0.39,0.39, 1.024,0.39, 1.414,0L 17,18.414l 5.536,5.536c 0.39,0.39, 1.024,0.39, 1.414,0 c 0.39-0.39, 0.39-1.024,0-1.414L 18.414,17l 5.536-5.536c 0.39-0.39, 0.39-1.024,0-1.414c-0.39-0.39-1.024-0.39-1.414,0 L 17,15.586L 11.464,10.050c-0.39-0.39-1.024-0.39-1.414,0c-0.39,0.39-0.39,1.024,0,1.414L 15.586,17l-5.536,5.536 C 9.66,22.926, 9.66,23.56, 10.050,23.95z"></path></g></svg>