<?xml version="1.0" encoding="utf-8"?> <!-- Generator: IcoMoon.io --> <!DOCTYPE svg PUBLIC "-//W3C//DTD SVG 1.1//EN" "http://www.w3.org/Graphics/SVG/1.1/DTD/svg11.dtd"> <svg width="32" height="32" viewBox="0 0 32 32" xmlns="http://www.w3.org/2000/svg" xmlns:xlink="http://www.w3.org/1999/xlink" fill="#000000"><g><path d="M 30,10l-4,0 c0,0-1.156,0-2-2c-0.43-1.018-0.896-2-2-2L 14,6 C 12.896,6, 12.416,6.976, 12,8C 11.188,10, 10,10, 10,10L 8,10 c0-1.104-0.896-2-2-2L 4,8 C 2.896,8, 2,8.896, 2,10C 0.896,10,0,10.896,0,12l0,4 l 11.11,0 C 12.496,13.618, 15.046,12, 18,12s 5.504,1.618, 6.89,4L 32,16 L 32,12 C 32,10.896, 31.104,10, 30,10z M 7,14l-4,0 C 2.448,14, 2,13.552, 2,13C 2,12.448, 2.448,12, 3,12L 4,12 l 2,0 l 1,0 C 7.552,12, 8,12.448, 8,13 C 8,13.552, 7.552,14, 7,14zM 12,20A6,6 1080 1 0 24,20A6,6 1080 1 0 12,20zM 26,20c0,4.418-3.582,8-8,8c-4.418,0-8-3.582-8-8c0-0.694, 0.116-1.358, 0.282-2L0,18 l0,10 c0,1.104, 0.896,2, 2,2l 28,0 c 1.104,0, 2-0.896, 2-2L 32,18 l-6.282,0 C 25.884,18.642, 26,19.306, 26,20z"></path></g></svg>