<?xml version="1.0" encoding="utf-8"?> <!-- Generator: IcoMoon.io --> <!DOCTYPE svg PUBLIC "-//W3C//DTD SVG 1.1//EN" "http://www.w3.org/Graphics/SVG/1.1/DTD/svg11.dtd"> <svg width="32.003997802734375" height="32" viewBox="0 0 32.003997802734375 32" xmlns="http://www.w3.org/2000/svg" xmlns:xlink="http://www.w3.org/1999/xlink" fill="#000000"><g><path d="M 31.118,3.48c-1.268,0.752-2.674,1.298-4.17,1.594C 25.75,3.796, 24.044,3, 22.156,3 c-3.626,0-6.566,2.94-6.566,6.564c0,0.514, 0.058,1.016, 0.17,1.496c-5.456-0.274-10.294-2.888-13.532-6.86 C 1.662,5.168, 1.34,6.296, 1.34,7.5c0,2.278, 1.16,4.288, 2.92,5.464C 3.184,12.928, 2.172,12.632, 1.286,12.14c0,0.028,0,0.054,0,0.082 c0,3.18, 2.264,5.834, 5.266,6.438C 6.002,18.81, 5.422,18.89, 4.822,18.89c-0.424,0-0.834-0.042-1.236-0.118 c 0.836,2.608, 3.26,4.506, 6.132,4.56c-2.246,1.76-5.078,2.81-8.154,2.81c-0.53,0-1.052-0.032-1.566-0.092 C 2.904,27.912, 6.354,29, 10.062,29c 12.076,0, 18.68-10.004, 18.68-18.68c0-0.284-0.006-0.568-0.020-0.85 c 1.286-0.922, 2.4-2.078, 3.28-3.394c-1.178,0.522-2.442,0.876-3.77,1.034C 29.588,6.298, 30.628,5.010, 31.118,3.48z"></path></g></svg>