<?xml version="1.0" encoding="utf-8"?> <!-- Generator: IcoMoon.io --> <!DOCTYPE svg PUBLIC "-//W3C//DTD SVG 1.1//EN" "http://www.w3.org/Graphics/SVG/1.1/DTD/svg11.dtd"> <svg width="32.00199890136719" height="32" viewBox="0 0 32.00199890136719 32" xmlns="http://www.w3.org/2000/svg" xmlns:xlink="http://www.w3.org/1999/xlink" fill="#000000"><g><path d="M 23.586,9.444c 0.88,0.666, 1.972,1.064, 3.16,1.064C 29.648,10.508, 32,8.156, 32,5.254 C 32,2.352, 29.648,0, 26.746,0c-2.9,0-5.254,2.352-5.254,5.254c0,0.002,0,0.004,0,0.004L 8.524,11.528 C 7.626,10.812, 6.49,10.38, 5.254,10.38C 2.352,10.38,0,12.734,0,15.634s 2.352,5.254, 5.254,5.254c 1.048,0, 2.024-0.312, 2.844-0.84 l 13.396,6.476c0,0.002,0,0.004,0,0.004c0,2.902, 2.352,5.254, 5.254,5.254c 2.902,0, 5.254-2.352, 5.254-5.254 c0-2.902-2.352-5.254-5.254-5.254c-1.188,0-2.28,0.398-3.16,1.064L 10.488,16.006c 0.006-0.080, 0.010-0.158, 0.012-0.238L 23.586,9.444z"></path></g></svg>