<?xml version="1.0" encoding="utf-8"?> <!-- Generator: IcoMoon.io --> <!DOCTYPE svg PUBLIC "-//W3C//DTD SVG 1.1//EN" "http://www.w3.org/Graphics/SVG/1.1/DTD/svg11.dtd"> <svg width="32" height="32" viewBox="0 0 32 32" xmlns="http://www.w3.org/2000/svg" xmlns:xlink="http://www.w3.org/1999/xlink" fill="#000000"><g><path d="M 26,0L 6,0 C 2.686,0,0,2.686,0,6l0,20 c0,3.314, 2.686,6, 6,6l 20,0 c 3.314,0, 6-2.686, 6-6L 32,6 C 32,2.686, 29.314,0, 26,0z M 17.104,18.54L 14.574,13.978c 1.096-0.188, 2.044-0.236, 2.866-0.188l 1.436,2.294l 3.44-0.834c-1.352-1.324-3.822-2.568-8.338-1.764 C 13.878,13.504, 13.78,13.524, 13.684,13.542l 2.792,5.17l-10.054,2.762c-0.218-0.338-0.394-0.698-0.524-1.076 C 5.248,18.516, 5.782,16.584, 7.134,15.050c 0.818-0.918, 1.954-1.682, 3.336-2.216L 9.624,11.062c 0.752-0.24, 1.566-0.42, 2.43-0.536 l 0.888,1.646C 13.038,12.156, 13.134,12.14, 13.232,12.126c 2.674-0.404, 5.286-0.428, 7.696,0.138c 2.458,0.484, 4.714,1.558, 5.754,2.764 c 0.21,0.242, 0.368,0.494, 0.476,0.752L 17.104,18.54zM 9.296,18.404l 3.44-0.834L 11.198,14.354C 9.234,15.406, 8.986,16.988, 9.296,18.404z"></path></g></svg>