<?xml version="1.0" encoding="utf-8"?> <!-- Generator: IcoMoon.io --> <!DOCTYPE svg PUBLIC "-//W3C//DTD SVG 1.1//EN" "http://www.w3.org/Graphics/SVG/1.1/DTD/svg11.dtd"> <svg width="32" height="32" viewBox="0 0 32 32" xmlns="http://www.w3.org/2000/svg" xmlns:xlink="http://www.w3.org/1999/xlink" fill="#000000"><g><path d="M 30.556,0L 1.444,0 C 0.648,0,0,0.646,0,1.442l0,29.116 C0,31.352, 0.648,32, 1.444,32l 29.112,0 C 31.352,32, 32,31.352, 32,30.558L 32,1.442 C 32,0.646, 31.352,0, 30.556,0z M 21.584,16c0,3.084-2.5,5.584-5.584,5.584S 10.416,19.084, 10.416,16 c0-3.084, 2.5-5.584, 5.584-5.584S 21.584,12.916, 21.584,16z M 28,28L 4,28 L 4,14 l 2.634,0 C 6.496,14.646, 6.416,15.314, 6.416,16 c0,5.284, 4.3,9.584, 9.584,9.584s 9.584-4.3, 9.584-9.584c0-0.686-0.080-1.354-0.218-2L 28,14 L 28,28 z M 28,10l-6,0 L 22,4 l 6,0 L 28,10 z"></path></g></svg>