<?xml version="1.0" encoding="utf-8"?> <!-- Generator: IcoMoon.io --> <!DOCTYPE svg PUBLIC "-//W3C//DTD SVG 1.1//EN" "http://www.w3.org/Graphics/SVG/1.1/DTD/svg11.dtd"> <svg width="32" height="32" viewBox="0 0 32 32" xmlns="http://www.w3.org/2000/svg" xmlns:xlink="http://www.w3.org/1999/xlink" fill="#000000"><g><path d="M 0.012,0l0,6.136 C 14.256,6.136, 25.848,17.74, 25.848,32L 32,32 C 32,14.36, 17.648,0, 0.012,0zM 14.964,32l 6.16,0 c 0.002-11.652-9.476-21.13-21.12-21.13l0,6.134 c 3.994,0, 7.748,1.562, 10.576,4.392 C 13.404,24.218, 14.964,27.99, 14.964,32zM 4.26,31.96c 2.358,0, 4.266-1.896, 4.266-4.244c-0.002-2.334-1.908-4.252-4.266-4.252 C 1.91,23.464,0,25.38,0,27.716C0,30.064, 1.91,31.96, 4.26,31.96z"></path></g></svg>