<?xml version="1.0" encoding="utf-8"?> <!-- Generator: IcoMoon.io --> <!DOCTYPE svg PUBLIC "-//W3C//DTD SVG 1.1//EN" "http://www.w3.org/Graphics/SVG/1.1/DTD/svg11.dtd"> <svg width="32" height="32" viewBox="0 0 32 32" xmlns="http://www.w3.org/2000/svg" xmlns:xlink="http://www.w3.org/1999/xlink" fill="#000000"><g><path d="M 16,0C 7.164,0,0,7.164,0,16s 7.164,16, 16,16s 16-7.164, 16-16C 32,7.162, 24.836,0, 16,0z M 20.136,15.998L 17.514,16 l-0.002,9.6L 13.914,25.6 L 13.914,16 l-2.4,0 L 11.514,12.692 l 2.4-0.002L 13.91,10.742C 13.91,8.042, 14.642,6.4, 17.82,6.4l 2.648,0 l0,3.31 L 18.812,9.71 c-1.238,0-1.298,0.462-1.298,1.324L 17.51,12.69l 2.976,0 L 20.136,15.998z"></path></g></svg>