<?xml version="1.0" encoding="utf-8"?> <!-- Generator: IcoMoon.io --> <!DOCTYPE svg PUBLIC "-//W3C//DTD SVG 1.1//EN" "http://www.w3.org/Graphics/SVG/1.1/DTD/svg11.dtd"> <svg width="32" height="32" viewBox="0 0 32 32" xmlns="http://www.w3.org/2000/svg" xmlns:xlink="http://www.w3.org/1999/xlink" fill="#000000"><g><path d="M 16,0C 7.164,0,0,7.164,0,16s 7.164,16, 16,16s 16-7.164, 16-16C 32,7.162, 24.836,0, 16,0z M 11.536,26.766 c-3.542,0-6.53-1.442-6.53-3.746c0-2.338, 2.726-4.596, 6.268-4.594c 0.386,0, 0.74-0.010, 1.106-0.010 C 11.896,17.946, 11.512,17.368, 11.512,16.654c0-0.424, 0.136-0.83, 0.324-1.192C 11.644,15.476, 11.448,15.482, 11.246,15.482 c-2.91,0-4.858-2.070-4.858-4.636c0-2.51, 2.69-4.676, 5.55-4.676c 1.596,0, 6.38,0, 6.38,0L 16.886,7.202L 14.864,7.202 c 1.342,0.516, 2.056,2.080, 2.056,3.684c0,1.346-0.746,2.506-1.8,3.33C 14.090,15.022, 13.896,15.358, 13.896,16.042 c0,0.584, 1.104,1.576, 1.68,1.984c 1.686,1.192, 2.23,2.3, 2.23,4.146C 17.804,24.476, 15.574,26.766, 11.536,26.766z M 28,14.038l-4,0 l0,3.992 l-1.998,0 L 22.002,14.038 L 18,14.038 L 18,12 l 4.002,0 L 22.002,8 L 24,8 l0,4 l 4,0 L 28,14.038 zM 13.538,19.276C 13.054,19.12, 12.52,19.028, 11.95,19.022c-2.448-0.026-4.64,1.492-4.64,3.318 c0,1.862, 1.768,3.412, 4.216,3.412c 3.442,0, 4.64-1.456, 4.64-3.316c0-0.226-0.028-0.444-0.078-0.658 C 15.82,20.722, 14.866,20.198, 13.538,19.276zM 14.628,11.010C 14.344,8.854, 12.782,7.122, 11.14,7.072c-1.642-0.048-2.744,1.602-2.46,3.762 c 0.284,2.158, 1.846,3.948, 3.49,3.996C 13.81,14.88, 14.914,13.17, 14.628,11.010z"></path></g></svg>