<?xml version="1.0" encoding="utf-8"?> <!-- Generator: IcoMoon.io --> <!DOCTYPE svg PUBLIC "-//W3C//DTD SVG 1.1//EN" "http://www.w3.org/Graphics/SVG/1.1/DTD/svg11.dtd"> <svg width="32" height="32" viewBox="0 0 32 32" xmlns="http://www.w3.org/2000/svg" xmlns:xlink="http://www.w3.org/1999/xlink" fill="#000000"><g><path d="M 16,0C 7.164,0,0,7.164,0,16s 7.164,16, 16,16s 16-7.164, 16-16C 32,7.162, 24.836,0, 16,0z M 16.568,7.984 C 16.74,7.594, 16.972,7.25, 17.266,6.956c 0.296-0.296, 0.636-0.528, 1.028-0.7C 18.684,6.084, 19.11,6, 19.564,6 c 0.458,0, 0.88,0.084, 1.27,0.256c 0.39,0.17, 0.732,0.404, 1.026,0.7c 0.296,0.294, 0.53,0.638, 0.7,1.028 c 0.172,0.39, 0.258,0.812, 0.258,1.27c0,0.458-0.086,0.88-0.258,1.27c-0.17,0.39-0.404,0.732-0.7,1.028 c-0.296,0.294-0.636,0.528-1.026,0.7c-0.39,0.17-0.812,0.256-1.27,0.256c-0.456,0-0.88-0.086-1.27-0.256 c-0.39-0.172-0.732-0.404-1.028-0.7C 16.972,11.256, 16.74,10.914, 16.568,10.524C 16.396,10.134, 16.31,9.71, 16.31,9.254 C 16.31,8.796, 16.396,8.374, 16.568,7.984z M 11.502,7.468c 0.486-0.484, 1.070-0.726, 1.754-0.726c 0.704,0, 1.3,0.242, 1.784,0.726 C 15.526,7.954, 15.768,8.54, 15.768,9.226c0,0.704-0.244,1.298-0.73,1.784C 14.556,11.494, 13.96,11.736, 13.256,11.736 c-0.682,0-1.268-0.242-1.754-0.728c-0.486-0.486-0.73-1.080-0.73-1.784C 10.774,8.54, 11.016,7.954, 11.502,7.468z M 7.136,7.926 c 0.37-0.372, 0.822-0.558, 1.354-0.558c 0.534,0, 0.98,0.186, 1.342,0.558c 0.36,0.37, 0.54,0.812, 0.54,1.326 c0,0.534-0.182,0.984-0.54,1.356C 9.47,10.98, 9.024,11.166, 8.49,11.166c-0.532,0-0.984-0.186-1.354-0.556 C 6.764,10.238, 6.578,9.786, 6.578,9.254C 6.578,8.74, 6.764,8.296, 7.136,7.926z M 24,26L 15.21,26 l0-4 L 9.704,22 L 9.704,18 L 6.418,18 L 6.418,14.362 c0-0.646-0.016-1.194, 0.432-1.64c 0.446-0.446, 0.994-0.67, 1.64-0.67c 0.552,0, 1.030,0.166, 1.428,0.5 c 0.4,0.334, 0.664,0.746, 0.8,1.242c 0.322-0.38, 0.704-0.674, 1.14-0.886c 0.438-0.208, 0.904-0.314, 1.398-0.314 c 0.78,0, 1.46,0.234, 2.042,0.7c 0.58,0.466, 0.966,1.052, 1.156,1.754c 0.4-0.38, 0.864-0.686, 1.4-0.912 c 0.532-0.228, 1.104-0.342, 1.712-0.342c 0.61,0, 1.186,0.114, 1.728,0.342c 0.54,0.228, 1.012,0.542, 1.412,0.942 c 0.4,0.4, 0.718,0.87, 0.954,1.412C 23.898,17.030, 24,17.606, 24,18.216L 24,26 z"></path></g></svg>