<?xml version="1.0" encoding="utf-8"?> <!-- Generator: IcoMoon.io --> <!DOCTYPE svg PUBLIC "-//W3C//DTD SVG 1.1//EN" "http://www.w3.org/Graphics/SVG/1.1/DTD/svg11.dtd"> <svg width="32" height="32" viewBox="0 0 32 32" xmlns="http://www.w3.org/2000/svg" xmlns:xlink="http://www.w3.org/1999/xlink" fill="#000000"><g><path d="M 26,0L 6,0 C 2.686,0,0,2.686,0,6l0,20 c0,3.314, 2.686,6, 6,6l 20,0 c 3.314,0, 6-2.686, 6-6L 32,6 C 32,2.686, 29.314,0, 26,0z M 19.322,19.626c 0.494-0.374, 1.11-0.598, 1.778-0.598c 1.632,0, 2.956,1.322, 2.956,2.956c0,1.632-1.324,2.956-2.956,2.956 c-1.632,0-2.954-1.322-2.954-2.956c0,0,0-0.002,0-0.002L 10.608,18.338c-0.462,0.298-1.010,0.474-1.6,0.474 c-1.632,0-2.956-1.324-2.956-2.956c0-1.632, 1.324-2.956, 2.956-2.956c 0.696,0, 1.334,0.242, 1.84,0.644L 18.144,10.020 c0,0,0-0.002,0-0.002c0-1.632, 1.324-2.956, 2.954-2.956c 1.632,0, 2.956,1.322, 2.956,2.956s-1.324,2.956-2.956,2.956 c-0.668,0-1.282-0.224-1.778-0.598L 11.96,15.932c0,0.044-0.004,0.090-0.006,0.134L 19.322,19.626z"></path></g></svg>