<?xml version="1.0" encoding="utf-8"?> <!-- Generator: IcoMoon.io --> <!DOCTYPE svg PUBLIC "-//W3C//DTD SVG 1.1//EN" "http://www.w3.org/Graphics/SVG/1.1/DTD/svg11.dtd"> <svg width="32" height="32" viewBox="0 0 32 32" xmlns="http://www.w3.org/2000/svg" xmlns:xlink="http://www.w3.org/1999/xlink" fill="#000000"><g><path d="M 19.74,18.494L 12.26,18.494 c-0.686,0-1.246,0.562-1.246,1.246s 0.562,1.246, 1.246,1.246L 19.74,20.986 c 0.686,0, 1.246-0.562, 1.246-1.246S 20.426,18.494, 19.74,18.494zM 12.26,13.506L 16,13.506 c 0.686,0, 1.246-0.562, 1.246-1.246c0-0.686-0.562-1.246-1.246-1.246L 12.26,11.014 c-0.686,0-1.246,0.562-1.246,1.246C 11.012,12.946, 11.574,13.506, 12.26,13.506zM 16,0C 7.164,0,0,7.164,0,16s 7.164,16, 16,16s 16-7.164, 16-16C 32,7.162, 24.836,0, 16,0z M 25.974,19.534 c0,3.558-2.896,6.44-6.48,6.44L 12.512,25.974 c-3.58,0-6.488-2.882-6.488-6.438L 6.024,12.468 c 0.002-3.558, 2.906-6.442, 6.488-6.442l 3.27,0 c 3.584,0, 6.452,2.676, 6.452,6.234c 0.048,0.666, 0.648,1.246, 1.332,1.246l 0.024,0 l 1.094,0 c 0.716,0, 1.29,0.752, 1.29,1.462L 25.974,19.534 z"></path></g></svg>