<?xml version="1.0" encoding="utf-8"?> <!-- Generator: IcoMoon.io --> <!DOCTYPE svg PUBLIC "-//W3C//DTD SVG 1.1//EN" "http://www.w3.org/Graphics/SVG/1.1/DTD/svg11.dtd"> <svg width="32" height="32" viewBox="0 0 32 32" xmlns="http://www.w3.org/2000/svg" xmlns:xlink="http://www.w3.org/1999/xlink" fill="#000000"><g><path d="M 19.728,17.202c 1.338,3.676, 1.882,6.67, 1.986,7.292c 2.294-1.552, 3.928-4.010, 4.384-6.856 C 25.75,17.528, 22.934,16.688, 19.728,17.202zM 17.746,17.698c-5.768,2.010-7.84,6.012-8.024,6.388c 1.734,1.352, 3.914,2.158, 6.278,2.158 c 1.418,0.002, 2.77-0.288, 3.996-0.812c-0.152-0.898-0.746-4.026-2.182-7.756C 17.79,17.682, 17.768,17.69, 17.746,17.698zM 18.204,13.58c 0.238,0.488, 0.466,0.984, 0.678,1.482c 0.074,0.176, 0.148,0.354, 0.22,0.528 c 3.404-0.428, 6.786,0.258, 7.122,0.33c-0.020-2.414-0.884-4.632-2.308-6.372C 23.702,9.838, 21.988,12.036, 18.204,13.58zM 16.714,16.104C 16.848,16.062, 16.982,16.020, 17.116,15.984C 16.86,15.402, 16.58,14.82, 16.288,14.248 C 11.18,15.776, 6.222,15.712, 5.774,15.702C 5.772,15.806, 5.77,15.91, 5.77,16.014c 0.002,2.628, 0.996,5.026, 2.63,6.84 C 8.632,22.458, 11.438,17.81, 16.714,16.104zM 15.444,12.674C 13.748,9.66, 11.922,7.128, 11.652,6.758C 8.79,8.108, 6.65,10.746, 5.988,13.92 C 6.446,13.926, 10.66,13.944, 15.444,12.674zM 22.78,8.364C 20.974,6.762, 18.6,5.786, 16,5.786c-0.824,0-1.628,0.098-2.396,0.284 C 13.886,6.45, 15.744,8.98, 17.42,12.058C 21.058,10.696, 22.596,8.626, 22.78,8.364zM 16,0C 7.164,0,0,7.164,0,16s 7.164,16, 16,16s 16-7.164, 16-16C 32,7.162, 24.836,0, 16,0z M 16,27.974 c-6.602,0-11.974-5.372-11.974-11.974c0-6.602, 5.372-11.974, 11.974-11.974S 27.974,9.398, 27.974,16C 27.974,22.602, 22.602,27.974, 16,27.974z"></path></g></svg>