<?xml version="1.0" encoding="utf-8"?> <!-- Generator: IcoMoon.io --> <!DOCTYPE svg PUBLIC "-//W3C//DTD SVG 1.1//EN" "http://www.w3.org/Graphics/SVG/1.1/DTD/svg11.dtd"> <svg width="32" height="32" viewBox="0 0 32 32" xmlns="http://www.w3.org/2000/svg" xmlns:xlink="http://www.w3.org/1999/xlink" fill="#000000"><g><path d="M 26,0L 6,0 C 2.686,0,0,2.686,0,6l0,20 c0,3.314, 2.686,6, 6,6l 20,0 c 3.314,0, 6-2.686, 6-6L 32,6 C 32,2.686, 29.314,0, 26,0z M 3.68,16c0-1.74, 0.384-3.392, 1.068-4.882l 5.876,15.682C 6.514,24.854, 3.68,20.75, 3.68,16z M 16,28c-1.21,0-2.376-0.172-3.48-0.488 l 3.856-10.074l 3.628,9.716c 0.024,0.060, 0.056,0.114, 0.088,0.166C 18.812,27.76, 17.436,28, 16,28z M 17.694,10.374 C 18.436,10.336, 19.104,10.26, 19.104,10.26c 0.666-0.078, 0.586-1.026-0.078-0.99c0,0-1.996,0.152-3.284,0.152 c-1.21,0-3.244-0.152-3.244-0.152C 11.836,9.234, 11.758,10.222, 12.42,10.26c0,0, 0.628,0.076, 1.292,0.112l 1.92,5.124l-2.944,7.878 L 8.45,10.374C 9.192,10.336, 9.86,10.26, 9.86,10.26c 0.664-0.078, 0.586-1.026-0.078-0.99c0,0-1.996,0.152-3.284,0.152 c-0.23,0-0.504-0.006-0.792-0.014C 7.91,6.152, 11.696,4, 16,4c 3.208,0, 6.128,1.196, 8.32,3.15c-0.054-0.004-0.104-0.010-0.16-0.010 c-1.212,0-2.070,1.026-2.070,2.13c0,0.99, 0.586,1.826, 1.21,2.816c 0.47,0.8, 0.804,1.242, 0.804,2.724 c0,1.026-0.404,2.22-0.936,3.88l-1.23,3.998L 17.694,10.374z M 22.192,26.37l 3.764-10.596c 0.702-1.712, 0.936-3.080, 0.936-4.298 c0-0.442-0.028-0.852-0.082-1.234C 27.772,11.952, 28.32,13.914, 28.32,16C 28.32,20.428, 25.856,24.292, 22.192,26.37z"></path></g></svg>