<?xml version="1.0" encoding="utf-8"?> <!-- Generator: IcoMoon.io --> <!DOCTYPE svg PUBLIC "-//W3C//DTD SVG 1.1//EN" "http://www.w3.org/Graphics/SVG/1.1/DTD/svg11.dtd"> <svg width="32" height="32" viewBox="0 0 32 32" xmlns="http://www.w3.org/2000/svg" xmlns:xlink="http://www.w3.org/1999/xlink" fill="#000000"><g><path d="M 26,0L 6,0 C 2.686,0,0,2.686,0,6l0,20 c0,3.314, 2.686,6, 6,6l 20,0 c 3.314,0, 6-2.686, 6-6L 32,6 C 32,2.686, 29.314,0, 26,0z M 21.998,14.8L 17.2,14.8 L 17.198,19.19c0,1.114-0.014,1.756, 0.104,2.072c 0.118,0.314, 0.41,0.64, 0.73,0.828 c 0.426,0.256, 0.91,0.382, 1.456,0.382c 0.972,0, 1.546-0.128, 2.508-0.76L 21.996,24.6 c-0.82,0.386-1.534,0.61-2.2,0.766 C 19.132,25.522, 18.414,25.6, 17.64,25.6c-0.878,0-1.396-0.11-2.070-0.332c-0.674-0.222-1.25-0.54-1.726-0.948 c-0.478-0.41-0.806-0.848-0.992-1.31c-0.184-0.462-0.276-1.132-0.276-2.010L 12.576,14.268 L 10.002,14.268 l0-2.72 c 0.754-0.244, 1.598-0.596, 2.134-1.054c 0.538-0.458, 0.97-1.006, 1.296-1.648C 13.756,8.208, 13.98,7.39, 14.104,6.4L 17.2,6.4 l0,4.8 l 4.798,0 L 21.998,14.8 z"></path></g></svg>