<?xml version="1.0" encoding="utf-8"?> <!-- Generator: IcoMoon.io --> <!DOCTYPE svg PUBLIC "-//W3C//DTD SVG 1.1//EN" "http://www.w3.org/Graphics/SVG/1.1/DTD/svg11.dtd"> <svg width="32" height="32" viewBox="0 0 32 32" xmlns="http://www.w3.org/2000/svg" xmlns:xlink="http://www.w3.org/1999/xlink" fill="#000000"><g><path d="M 16,0C 7.164,0,0,7.164,0,16c0,8.836, 7.164,16, 16,16s 16-7.164, 16-16C 32,7.164, 24.836,0, 16,0z M 23.392,25.38 c-0.2,0.364-0.576,0.57-0.964,0.57c-0.18,0-0.36-0.044-0.53-0.136c-2.562-1.412-5.472-2.158-8.412-2.158 c-1.762,0-3.502,0.262-5.168,0.778c-0.58,0.18-1.196-0.146-1.374-0.726c-0.18-0.58, 0.144-1.81, 0.726-1.99 c 1.878-0.58, 3.836-0.876, 5.818-0.876c 3.31,0, 6.586,0.84, 9.472,2.43C 23.492,23.564, 23.686,24.848, 23.392,25.38z M 25.424,19.352 c-0.228,0.44-0.676,1.154-1.14,1.154c-0.2,0-0.402-0.046-0.59-0.146c-3.174-1.648-6.608-2.484-10.206-2.484 c-1.982,0-3.95,0.262-5.85,0.782c-0.686,0.186-1.39-0.216-1.576-0.9C 5.878,17.074, 6.28,15.908, 6.964,15.722 c 2.12-0.578, 4.316-0.872, 6.524-0.872c 3.958,0, 7.896,0.96, 11.388,2.774C 25.504,17.95, 25.75,18.724, 25.424,19.352z M 27.588,13.56 c-0.258,0.514-0.774,0.966-1.314,0.966c-0.22,0-0.442-0.050-0.652-0.154c-3.79-1.89-7.872-2.846-12.134-2.846 c-2.22,0-4.432,0.27-6.578,0.8c-0.786,0.194-1.58-0.284-1.774-1.070C 4.94,10.472, 5.42,9.522, 6.206,9.328 C 8.58,8.738, 11.030,8.44, 13.488,8.44c 4.72,0, 9.242,1.062, 13.44,3.154C 27.654,11.956, 27.948,12.836, 27.588,13.56z"></path></g></svg>