<?xml version="1.0" encoding="utf-8"?> <!-- Generator: IcoMoon.io --> <!DOCTYPE svg PUBLIC "-//W3C//DTD SVG 1.1//EN" "http://www.w3.org/Graphics/SVG/1.1/DTD/svg11.dtd"> <svg width="32" height="32" viewBox="0 0 32 32" xmlns="http://www.w3.org/2000/svg" xmlns:xlink="http://www.w3.org/1999/xlink" fill="#000000"><g><path d="M 26,0L 6,0 C 2.686,0,0,2.686,0,6l0,20 c0,3.314, 2.686,6, 6,6l 20,0 c 3.314,0, 6-2.686, 6-6L 32,6 C 32,2.686, 29.314,0, 26,0z M 16,4c 1.592,0, 3.11,0.31, 4.5,0.872L 20.5,13.24 L 11.958,4.698C 13.22,4.248, 14.582,4, 16,4z M 4,16c0-4.534, 2.512-8.478, 6.222-10.52l 3.768,3.77 l-9.64,9.638C 4.122,17.964, 4,16.996, 4,16z M 10,26.394c-2.218-1.282-3.986-3.254-5.012-5.622L 10,15.76L 10,26.394 z M 16,28 c-1.592,0-3.11-0.31-4.5-0.874L 11.5,22 l 14.894,0 C 24.318,25.586, 20.442,28, 16,28z M 27.126,20.5L 22,20.5 L 22,5.606 C 25.586,7.682, 28,11.558, 28,16 C 28,17.592, 27.69,19.11, 27.126,20.5z"></path></g></svg>