<?xml version="1.0" encoding="utf-8"?> <!-- Generator: IcoMoon.io --> <!DOCTYPE svg PUBLIC "-//W3C//DTD SVG 1.1//EN" "http://www.w3.org/Graphics/SVG/1.1/DTD/svg11.dtd"> <svg width="32" height="32" viewBox="0 0 32 32" xmlns="http://www.w3.org/2000/svg" xmlns:xlink="http://www.w3.org/1999/xlink" fill="#000000"><g><path d="M 10.296,24.336c0,1.462, 0.154,2.58, 0.46,3.35c 0.308,0.77, 0.856,1.498, 1.652,2.182 c 0.792,0.68, 1.752,1.21, 2.876,1.58C 16.41,31.816, 17.27,32, 18.734,32c 1.288,0, 2.486-0.13, 3.596-0.388 c 1.108-0.26, 2.3-0.636, 3.666-1.278l0-4.812 c-1.602,1.054-2.56,1.268-4.18,1.268c-0.91,0-1.718-0.212-2.428-0.638 c-0.534-0.314-1.022-0.858-1.218-1.38c-0.198-0.526-0.174-1.596-0.174-3.454L 18,14l 7.998,0 L 25.998,8 L 18,8 L 18,0 l-5.16,0 C 12.636,1.65, 12.26,3.012, 11.718,4.078c-0.542,1.070-1.262,1.984-2.16,2.748C 8.666,7.588, 7.26,8.174, 6.004,8.582L 6.004,14 l 4.294,0 L 10.298,24.336 z"></path></g></svg>