<?xml version="1.0" encoding="utf-8"?> <!-- Generator: IcoMoon.io --> <!DOCTYPE svg PUBLIC "-//W3C//DTD SVG 1.1//EN" "http://www.w3.org/Graphics/SVG/1.1/DTD/svg11.dtd"> <svg width="32" height="32" viewBox="0 0 32 32" xmlns="http://www.w3.org/2000/svg" xmlns:xlink="http://www.w3.org/1999/xlink" fill="#000000"><g><path d="M 26,0L 6,0 C 2.686,0,0,2.686,0,6l0,20 c0,3.314, 2.686,6, 6,6l 20,0 c 3.314,0, 6-2.686, 6-6L 32,6 C 32,2.686, 29.314,0, 26,0z M 25.504,11.646c-1.074,6.044-7.068,11.162-8.87,12.33c-1.804,1.168-3.448-0.468-4.046-1.706C 11.906,20.858, 9.86,13.204, 9.324,12.57 C 8.788,11.936, 7.18,13.204, 7.18,13.204L 6.4,12.182c0,0, 3.266-3.898, 5.75-4.388C 14.784,7.276, 14.78,11.84, 15.414,14.372 c 0.614,2.45, 1.024,3.852, 1.56,3.852c 0.536,0, 1.56-1.366, 2.68-3.46c 1.124-2.096-0.048-3.948-2.242-2.632 C 18.292,6.87, 26.576,5.604, 25.504,11.646z"></path></g></svg>