<?xml version="1.0" encoding="utf-8"?> <!-- Generator: IcoMoon.io --> <!DOCTYPE svg PUBLIC "-//W3C//DTD SVG 1.1//EN" "http://www.w3.org/Graphics/SVG/1.1/DTD/svg11.dtd"> <svg width="32" height="32" viewBox="0 0 32 32" xmlns="http://www.w3.org/2000/svg" xmlns:xlink="http://www.w3.org/1999/xlink" fill="#000000"><g><path d="M 16,0C 7.178,0,0,7.178,0,16s 7.178,16, 16,16s 16-7.178, 16-16S 24.822,0, 16,0z M 16,2.354c 3.474,0, 6.646,1.302, 9.060,3.444 c-0.246,0.35-2.302,3.114-7.162,4.936c-2.24-4.114-4.722-7.494-5.1-8C 13.826,2.486, 14.898,2.354, 16,2.354z M 10.19,3.652 c 0.36,0.494, 2.802,3.878, 5.066,7.904C 8.864,13.254, 3.234,13.23, 2.622,13.222C 3.508,8.98, 6.366,5.456, 10.19,3.652z M 2.332,16.020 c0-0.14, 0.002-0.28, 0.006-0.418C 2.936,15.616, 9.56,15.7, 16.384,13.658c 0.392,0.766, 0.764,1.544, 1.108,2.32 c-0.18,0.050-0.36,0.104-0.538,0.162c-7.048,2.278-10.798,8.488-11.108,9.018C 3.664,22.736, 2.334,19.53, 2.332,16.020z M 15.998,29.686 c-3.158,0-6.070-1.078-8.388-2.884c 0.246-0.502, 3.014-5.848, 10.722-8.534c 0.030-0.010, 0.060-0.020, 0.090-0.030 c 1.92,4.986, 2.712,9.164, 2.916,10.364C 19.698,29.3, 17.894,29.688, 15.998,29.686z M 23.636,27.35c-0.14-0.832-0.866-4.832-2.654-9.744 c 4.282-0.686, 8.044,0.436, 8.512,0.584C 28.884,21.992, 26.702,25.276, 23.636,27.35z M 20.146,15.452 c-0.096-0.234-0.194-0.47-0.294-0.706C 19.568,14.080, 19.264,13.418, 18.946,12.766C 24,10.704, 26.29,7.768, 26.578,7.378 c 1.904,2.326, 3.056,5.288, 3.084,8.514C 29.212,15.796, 24.694,14.88, 20.146,15.452z"></path></g></svg>