<?xml version="1.0" encoding="utf-8"?> <!-- Generator: IcoMoon.io --> <!DOCTYPE svg PUBLIC "-//W3C//DTD SVG 1.1//EN" "http://www.w3.org/Graphics/SVG/1.1/DTD/svg11.dtd"> <svg width="32" height="32" viewBox="0 0 32 32" xmlns="http://www.w3.org/2000/svg" xmlns:xlink="http://www.w3.org/1999/xlink" fill="#000000"><g><path d="M 8.572,29.102c 5.3,0, 8.228-3.008, 8.228-6.032c0-2.424-0.716-3.878-2.928-5.442 C 13.116,17.092, 11.668,15.79, 11.668,15.024c0-0.898, 0.256-1.34, 1.608-2.396C 14.66,11.546, 15.64,10.024, 15.64,8.256 c0-2.106-0.938-4.16-2.7-4.836l 2.654,0 l 1.876-1.354c0,0-6.28,0-8.374,0c-3.752,0-7.284,2.844-7.284,6.138 c0,3.366, 2.558,6.084, 6.378,6.084c 0.266,0, 0.524-0.006, 0.776-0.024C 8.718,14.738, 8.54,15.272, 8.54,15.828 c0,0.936, 0.504,1.694, 1.14,2.314c-0.48,0-0.946,0.014-1.452,0.014C 3.578,18.154,0,21.116,0,24.186 C0,27.21, 3.924,29.102, 8.572,29.102z M 9.4,13.434C 7.242,13.37, 5.192,11.020, 4.82,8.188C 4.448,5.354, 5.894,3.186, 8.050,3.25 c 2.156,0.064, 4.208,2.338, 4.58,5.17C 13.004,11.254, 11.556,13.498, 9.4,13.434z M 9.114,18.936c 0.75,0.008, 1.45,0.128, 2.084,0.334 c 1.744,1.21, 2.996,1.896, 3.348,3.28c 0.066,0.28, 0.102,0.568, 0.102,0.864c0,2.444-1.574,4.354-6.092,4.354 c-3.214,0-5.534-2.034-5.534-4.478C 3.022,20.894, 5.9,18.902, 9.114,18.936zM 26,8L 26,2.066L 24,2.066L 24,8L 18,8L 18,10L 24,10L 24,16.066L 26,16.066L 26,10L 32,10L 32,8 z"></path></g></svg>