<?xml version="1.0" encoding="utf-8"?> <!-- Generator: IcoMoon.io --> <!DOCTYPE svg PUBLIC "-//W3C//DTD SVG 1.1//EN" "http://www.w3.org/Graphics/SVG/1.1/DTD/svg11.dtd"> <svg width="32" height="32" viewBox="0 0 32 32" xmlns="http://www.w3.org/2000/svg" xmlns:xlink="http://www.w3.org/1999/xlink" fill="#000000"><g><path d="M 16,0C 7.164,0,0,7.164,0,16s 7.164,16, 16,16s 16-7.164, 16-16C 32,7.162, 24.836,0, 16,0z M 10.112,20.008 c-2.242,0-4.058-1.816-4.058-4.058s 1.816-4.058, 4.058-4.058c 2.242,0, 4.058,1.816, 4.058,4.058S 12.354,20.008, 10.112,20.008z M 21.93,20.008c-2.242,0-4.058-1.816-4.058-4.058s 1.816-4.058, 4.058-4.058c 2.242,0, 4.058,1.816, 4.058,4.058 S 24.172,20.008, 21.93,20.008z"></path></g></svg>