<?xml version="1.0" encoding="utf-8"?> <!-- Generator: IcoMoon.io --> <!DOCTYPE svg PUBLIC "-//W3C//DTD SVG 1.1//EN" "http://www.w3.org/Graphics/SVG/1.1/DTD/svg11.dtd"> <svg width="33.62799835205078" height="32.56800079345703" viewBox="0 0 33.62799835205078 32.56800079345703" xmlns="http://www.w3.org/2000/svg" xmlns:xlink="http://www.w3.org/1999/xlink" fill="#000000"><g><path d="M 18.356,9.554c 3.656-2.194, 5.608,0.892, 3.736,4.386c-1.868,3.492-3.574,5.768-4.468,5.768 c-0.892,0-1.578-2.336-2.6-6.42C 13.968,9.066, 13.974,1.462, 9.582,2.324C 5.442,3.138,0,9.636,0,9.636L 1.3,11.34 c0,0, 2.68-2.112, 3.574-1.056c 0.894,1.056, 4.304,13.812, 5.442,16.164c 0.994,2.064, 3.734,4.792, 6.742,2.844 c 3.004-1.948, 12.994-10.478, 14.784-20.55C 33.628-1.328, 19.82,0.782, 18.356,9.554z"></path></g></svg>