<?xml version="1.0" encoding="utf-8"?> <!-- Generator: IcoMoon.io --> <!DOCTYPE svg PUBLIC "-//W3C//DTD SVG 1.1//EN" "http://www.w3.org/Graphics/SVG/1.1/DTD/svg11.dtd"> <svg width="32" height="32" viewBox="0 0 32 32" xmlns="http://www.w3.org/2000/svg" xmlns:xlink="http://www.w3.org/1999/xlink" fill="#000000"><g><path d="M 16,0C 7.164,0,0,7.164,0,16s 7.164,16, 16,16s 16-7.164, 16-16C 32,7.162, 24.836,0, 16,0z M 17.248,20.326 c-1.17-0.090-1.66-0.67-2.576-1.228c-0.504,2.644-1.12,5.18-2.944,6.502C 11.164,21.606, 12.554,18.606, 13.2,15.42 C 12.1,13.566, 13.332,9.84, 15.652,10.758c 2.854,1.13-2.474,6.886, 1.104,7.604c 3.734,0.752, 5.26-6.48, 2.944-8.832 c-3.348-3.396-9.74-0.078-8.954,4.784c 0.192,1.188, 1.418,1.548, 0.49,3.19C 9.094,17.030, 8.454,15.34, 8.536,13.088 c 0.132-3.686, 3.312-6.266, 6.502-6.624c 4.034-0.452, 7.818,1.48, 8.342,5.274C 23.97,16.020, 21.56,20.66, 17.248,20.326z"></path></g></svg>