<?xml version="1.0" encoding="utf-8"?> <!-- Generator: IcoMoon.io --> <!DOCTYPE svg PUBLIC "-//W3C//DTD SVG 1.1//EN" "http://www.w3.org/Graphics/SVG/1.1/DTD/svg11.dtd"> <svg width="32" height="32" viewBox="0 0 32 32" xmlns="http://www.w3.org/2000/svg" xmlns:xlink="http://www.w3.org/1999/xlink" fill="#000000"><g><path d="M 26,0L 6,0 C 2.686,0,0,2.686,0,6l0,20 c0,3.314, 2.686,6, 6,6l 20,0 c 3.314,0, 6-2.686, 6-6L 32,6 C 32,2.686, 29.314,0, 26,0z M 8.63,25.952c-1.438,0-2.606-1.16-2.606-2.596c0-1.428, 1.168-2.602, 2.606-2.602c 1.442,0, 2.608,1.174, 2.61,2.602 C 11.24,24.792, 10.074,25.952, 8.63,25.952z M 15.178,25.976c0-2.454-0.954-4.76-2.682-6.486C 10.768,17.758, 8.47,16.802, 6.028,16.802L 6.028,13.050 c 7.122,0, 12.92,5.798, 12.92,12.926L 15.178,25.976 z M 21.836,25.974c0-8.724-7.090-15.822-15.804-15.822L 6.032,6.4 c 10.788,0, 19.568,8.784, 19.568,19.574 L 21.836,25.974 z"></path></g></svg>