<?xml version="1.0" encoding="utf-8"?> <!-- Generator: IcoMoon.io --> <!DOCTYPE svg PUBLIC "-//W3C//DTD SVG 1.1//EN" "http://www.w3.org/Graphics/SVG/1.1/DTD/svg11.dtd"> <svg width="32" height="32" viewBox="0 0 32 32" xmlns="http://www.w3.org/2000/svg" xmlns:xlink="http://www.w3.org/1999/xlink" fill="#000000"><g><path d="M 15.796,8.014C 16.572,7.238, 16.962,6.286, 16.962,5.16c0-1.096-0.39-2.034-1.166-2.81 C 15.022,1.576, 14.066,1.188, 12.94,1.188c-1.092,0-2.030,0.388-2.806,1.162C 9.358,3.128, 8.968,4.064, 8.968,5.16 c0,1.126, 0.39,2.078, 1.166,2.854C 10.912,8.79, 11.848,9.178, 12.94,9.178C 14.066,9.178, 15.022,8.79, 15.796,8.014zM 19.358,8.882C 19.83,9.354, 20.378,9.726, 21.002,10c 0.624,0.272, 1.304,0.41, 2.032,0.41 c 0.732,0, 1.408-0.138, 2.032-0.41c 0.624-0.276, 1.17-0.646, 1.644-1.118c 0.472-0.472, 0.846-1.020, 1.12-1.644 c 0.274-0.624, 0.412-1.3, 0.412-2.034c0-0.73-0.136-1.406-0.412-2.032c-0.272-0.624-0.648-1.172-1.12-1.644 c-0.472-0.472-1.018-0.846-1.644-1.118C 24.444,0.136, 23.766,0, 23.034,0c-0.728,0-1.408,0.136-2.032,0.41 c-0.624,0.272-1.172,0.646-1.644,1.118C 18.888,2.002, 18.516,2.55, 18.24,3.174c-0.274,0.624-0.412,1.3-0.412,2.032 c0,0.732, 0.138,1.408, 0.412,2.034C 18.516,7.862, 18.888,8.41, 19.358,8.882zM 5.314,8.266c 0.854,0, 1.568-0.296, 2.148-0.89C 8.040,6.78, 8.328,6.058, 8.328,5.204 c0-0.822-0.29-1.53-0.866-2.122c-0.58-0.594-1.294-0.892-2.148-0.892c-0.85,0-1.576,0.298-2.166,0.892 c-0.596,0.592-0.892,1.3-0.892,2.122c0,0.854, 0.298,1.576, 0.892,2.17C 3.74,7.968, 4.464,8.266, 5.314,8.266zM 28.060,14.522c-0.638-0.64-1.394-1.142-2.26-1.508c-0.87-0.366-1.792-0.548-2.766-0.548 c-0.974,0-1.888,0.182-2.738,0.548C 19.442,13.38, 18.698,13.868, 18.058,14.476c-0.304-1.126-0.922-2.060-1.85-2.808 C 15.278,10.922, 14.19,10.548, 12.94,10.548c-0.792,0-1.536,0.168-2.238,0.502C 10.006,11.388, 9.394,11.858, 8.88,12.466 C 8.662,11.676, 8.24,11.014, 7.6,10.48C 6.962,9.946, 6.2,9.682, 5.314,9.682c-1.034,0-1.91,0.358-2.624,1.072C 1.974,11.468, 2,12.346, 2,13.38 l0,6.402 l 5.258,0 l0,5.242 l 8.81,0 L 16.068,32 l 14.064,0 L 30.132,19.544 c0-0.974-0.162-1.896-0.544-2.762C 29.208,15.914, 28.698,15.16, 28.060,14.522z"></path></g></svg>