<?xml version="1.0" encoding="utf-8"?> <!-- Generator: IcoMoon.io --> <!DOCTYPE svg PUBLIC "-//W3C//DTD SVG 1.1//EN" "http://www.w3.org/Graphics/SVG/1.1/DTD/svg11.dtd"> <svg width="32" height="32" viewBox="0 0 32 32" xmlns="http://www.w3.org/2000/svg" xmlns:xlink="http://www.w3.org/1999/xlink" fill="#000000"><g><path d="M 26,0L 6,0 C 2.686,0,0,2.686,0,6l0,20 c0,3.314, 2.686,6, 6,6l 20,0 c 3.314,0, 6-2.686, 6-6L 32,6 C 32,2.686, 29.314,0, 26,0z M 20.338,25.462c-1.020,0-1.972-0.292-2.78-0.794c-0.52,0.094-1.054,0.148-1.604,0.148c-4.87,0-8.816-3.926-8.816-8.77 c0-0.47, 0.038-0.932, 0.11-1.382C 6.71,13.84, 6.4,12.856, 6.4,11.8c0-2.906, 2.354-5.26, 5.26-5.262c 1.060,0, 2.044,0.314, 2.872,0.854 c 0.46-0.076, 0.936-0.116, 1.42-0.116c 4.868,0, 8.816,3.928, 8.816,8.77c0,0.404-0.030,0.8-0.082,1.19 C 25.264,18.082, 25.6,19.102, 25.6,20.2C 25.6,23.106, 23.246,25.462, 20.338,25.462zM 14.848,14.358c-2.548-0.62-1.154-2.8, 0.91-2.768C 17.762,11.622, 18.78,13.738, 19.688,13.628 c 0.91-0.11, 1.684-1.472, 0.254-2.692C 18.706,9.88, 17.142,9.298, 14.738,9.516C 12.854,9.686, 11.064,10.9, 10.844,13.264 C 10.626,15.63, 13.43,16.832, 15.65,17.162c 1.556,0.228, 3.676,0.982, 2.402,2.438c-1.17,1.338-3.386,0.51-3.968,0.146 C 13.502,19.38, 12.846,18.070, 11.754,18.142c-1.094,0.074-1.632,1.508-0.29,2.768c 1.202,1.126, 2.512,1.748, 5.314,1.6 c 2.804-0.146, 5.316-2.62, 4.332-4.95S 17.396,14.976, 14.848,14.358z"></path></g></svg>