<?xml version="1.0" encoding="utf-8"?> <!-- Generator: IcoMoon.io --> <!DOCTYPE svg PUBLIC "-//W3C//DTD SVG 1.1//EN" "http://www.w3.org/Graphics/SVG/1.1/DTD/svg11.dtd"> <svg width="32" height="32" viewBox="0 0 32 32" xmlns="http://www.w3.org/2000/svg" xmlns:xlink="http://www.w3.org/1999/xlink" fill="#000000"><g><path d="M 16,0C 7.164,0,0,7.164,0,16s 7.164,16, 16,16s 16-7.164, 16-16S 24.836,0, 16,0z M 2.286,16c0-1.936, 0.428-3.776, 1.188-5.436 l 6.542,17.456C 5.44,25.856, 2.286,21.286, 2.286,16z M 16,29.358c-1.346,0-2.644-0.192-3.874-0.544L 16.24,17.168l 4.214,11.248 c 0.028,0.066, 0.062,0.128, 0.098,0.186C 19.13,29.090, 17.598,29.358, 16,29.358z M 17.886,9.738c 0.826-0.042, 1.57-0.126, 1.57-0.126 c 0.74-0.086, 0.652-1.142-0.086-1.102c0,0-2.222,0.17-3.654,0.17c-1.346,0-3.612-0.17-3.612-0.17 C 11.364,8.468, 11.278,9.568, 12.016,9.612c0,0, 0.7,0.084, 1.438,0.126L 15.59,15.44l-3.002,8.766L 7.596,9.738 c 0.828-0.042, 1.57-0.126, 1.57-0.126c 0.738-0.086, 0.652-1.142-0.086-1.102c0,0-2.222,0.17-3.654,0.17 c-0.256,0-0.56-0.006-0.882-0.016C 6.994,5.038, 11.21,2.642, 16,2.642c 3.57,0, 6.82,1.33, 9.262,3.506 c-0.060-0.004-0.116-0.012-0.178-0.012c-1.348,0-2.304,1.142-2.304,2.37c0,1.102, 0.652,2.032, 1.346,3.134 c 0.524,0.892, 1.132,2.034, 1.132,3.684c0,1.142-0.45,2.47-1.042,4.32l-1.37,4.45L 17.886,9.738z M 29.714,16 c0,4.928-2.742,9.23-6.82,11.542l 4.19-11.794c 0.782-1.906, 1.042-3.428, 1.042-4.784c0-0.492-0.032-0.948-0.092-1.374 C 29.104,11.494, 29.714,13.678, 29.714,16z"></path></g></svg>