<?xml version="1.0" encoding="utf-8"?> <!-- Generator: IcoMoon.io --> <!DOCTYPE svg PUBLIC "-//W3C//DTD SVG 1.1//EN" "http://www.w3.org/Graphics/SVG/1.1/DTD/svg11.dtd"> <svg width="32" height="32.64600372314453" viewBox="0 0 32 32.64600372314453" xmlns="http://www.w3.org/2000/svg" xmlns:xlink="http://www.w3.org/1999/xlink" fill="#000000"><g><path d="M 8.060,18.506c 1.546-2.734-0.498-3.334-0.818-5.316c-1.31-8.1, 9.344-13.632, 14.924-7.972 c 3.86,3.92, 1.318,15.972-4.906,14.72C 11.298,18.74, 20.18,9.146, 15.422,7.264C 11.554,5.732, 9.5,11.944, 11.334,15.032 C 10.258,20.342, 7.942,25.342, 8.88,32c 3.040-2.206, 4.066-6.432, 4.906-10.838c 1.528,0.93, 2.346,1.896, 4.294,2.046 c 7.186,0.558, 11.202-7.174, 10.218-14.31c-0.872-6.324-7.178-9.544-13.902-8.79c-5.316,0.596-10.616,4.894-10.836,11.040 C 3.426,14.9, 4.49,17.716, 8.060,18.506z"></path></g></svg>