<?xml version="1.0" encoding="utf-8"?> <!-- Generator: IcoMoon.io --> <!DOCTYPE svg PUBLIC "-//W3C//DTD SVG 1.1//EN" "http://www.w3.org/Graphics/SVG/1.1/DTD/svg11.dtd"> <svg width="32.93000411987305" height="32.93000411987305" viewBox="0 0 32.93000411987305 32.93000411987305" xmlns="http://www.w3.org/2000/svg" xmlns:xlink="http://www.w3.org/1999/xlink" fill="#000000"><g><path d="M 6.394,6.394c-5.858,5.858-5.858,15.356,0,21.214c 5.858,5.858, 15.356,5.858, 21.214,0 c 5.858-5.858, 5.858-15.356,0-21.214C 21.748,0.536, 12.252,0.536, 6.394,6.394z M 24,11l0,8.486 c0,0.552-0.448,1-1,1 s-1-0.448-1-1L 22,13.414 l-11.020,11.020c-0.39,0.39-1.024,0.39-1.414,0c-0.39-0.39-0.39-1.024,0-1.414L 20.586,12L 14.514,12 c-0.552,0-1-0.448-1-1c0-0.552, 0.448-1, 1-1L 23,10 c 0.13,0, 0.26,0.026, 0.382,0.078c 0.244,0.102, 0.44,0.296, 0.54,0.54 C 23.974,10.74, 24,10.87, 24,11L 24,11z"></path></g></svg>