<?xml version="1.0" encoding="utf-8"?> <!-- Generator: IcoMoon.io --> <!DOCTYPE svg PUBLIC "-//W3C//DTD SVG 1.1//EN" "http://www.w3.org/Graphics/SVG/1.1/DTD/svg11.dtd"> <svg width="32" height="32" viewBox="0 0 32 32" xmlns="http://www.w3.org/2000/svg" xmlns:xlink="http://www.w3.org/1999/xlink" fill="#000000"><g><path d="M 17.066,2.134c-8.248,0-14.934,6.686-14.934,14.934S 8.82,32, 17.066,32S 32,25.314, 32,17.066 S 25.314,2.134, 17.066,2.134z M 24.378,18.788l-6.69,5.918c-0.2,0.2-0.462,0.296-0.724,0.292C 16.7,25, 16.438,24.906, 16.238,24.706 L 9.548,18.788c-0.392-0.392-0.392-1.030,0-1.422c 0.392-0.392, 1.030-0.392, 1.422,0l 5.992,5.3l 5.992-5.3 c 0.392-0.392, 1.030-0.392, 1.422,0S 24.772,18.394, 24.378,18.788z M 24.378,11.616L 17.688,17.534c-0.2,0.2-0.462,0.296-0.724,0.292 C 16.7,17.828, 16.438,17.734, 16.238,17.534L 9.548,11.616c-0.392-0.392-0.392-1.030,0-1.422C 9.94,9.8, 10.578,9.8, 10.97,10.192l 5.992,5.3 l 5.992-5.3c 0.392-0.392, 1.030-0.392, 1.422,0S 24.772,11.222, 24.378,11.616z"></path></g></svg>