<?xml version="1.0" encoding="utf-8"?> <!-- Generator: IcoMoon.io --> <!DOCTYPE svg PUBLIC "-//W3C//DTD SVG 1.1//EN" "http://www.w3.org/Graphics/SVG/1.1/DTD/svg11.dtd"> <svg width="32" height="32" viewBox="0 0 32 32" xmlns="http://www.w3.org/2000/svg" xmlns:xlink="http://www.w3.org/1999/xlink" fill="#000000"><g><path d="M 5.558,23.562c 0.39-0.39, 0.39-1.024,0-1.414L 3.41,20L 21,20 c 0.552,0, 1-0.448, 1-1 C 22,18.448, 21.552,18, 21,18L 3.41,18 l 2.294-2.294c 0.39-0.39, 0.39-1.024,0-1.414c-0.39-0.39-1.024-0.39-1.414,0L 0.292,18.29 C 0.096,18.486,0,18.742,0,19c0,0.258, 0.096,0.514, 0.292,0.71l 3.852,3.852C 4.536,23.954, 5.168,23.954, 5.558,23.562zM 31.708,12.31l-3.852-3.852c-0.39-0.39-1.024-0.39-1.414,0s-0.39,1.024,0,1.414l 2.148,2.148L 11,12.020 C 10.448,12.020, 10,12.468, 10,13.020s 0.448,1, 1,1l 17.59,0 l-2.294,2.294c-0.39,0.39-0.39,1.024,0,1.414 c 0.39,0.39, 1.024,0.39, 1.414,0l 3.998-3.998C 31.904,13.534, 32,13.278, 32,13.020C 32,12.762, 31.904,12.506, 31.708,12.31z"></path></g></svg>