<?xml version="1.0" encoding="utf-8"?> <!-- Generator: IcoMoon.io --> <!DOCTYPE svg PUBLIC "-//W3C//DTD SVG 1.1//EN" "http://www.w3.org/Graphics/SVG/1.1/DTD/svg11.dtd"> <svg width="32" height="32" viewBox="0 0 32 32" xmlns="http://www.w3.org/2000/svg" xmlns:xlink="http://www.w3.org/1999/xlink" fill="#000000"><g><path d="M 4,15.004C 4,15.132, 4.028,15.26, 4.078,15.382c 0.048,0.118, 0.12,0.224, 0.208,0.314 C 4.288,15.7, 4.29,15.704, 4.292,15.708l 6,6c 0.39,0.39, 1.024,0.39, 1.414,0c 0.39-0.39, 0.39-1.024,0-1.414L 7.414,16L 27,16 C 27.552,16, 28,15.552, 28,15C 28,14.448, 27.552,14, 27,14L 7.414,14 l 4.292-4.292c 0.39-0.39, 0.39-1.024,0-1.414 c-0.39-0.39-1.024-0.39-1.414,0l-6,6C 4.29,14.296, 4.288,14.302, 4.286,14.304C 4.198,14.394, 4.126,14.5, 4.078,14.618 C 4.026,14.74, 4,14.87, 4,15l0,0C 4,15.002, 4,15.002, 4,15.004z"></path></g></svg>