<?xml version="1.0" encoding="utf-8"?> <!-- Generator: IcoMoon.io --> <!DOCTYPE svg PUBLIC "-//W3C//DTD SVG 1.1//EN" "http://www.w3.org/Graphics/SVG/1.1/DTD/svg11.dtd"> <svg width="32" height="32" viewBox="0 0 32 32" xmlns="http://www.w3.org/2000/svg" xmlns:xlink="http://www.w3.org/1999/xlink" fill="#000000"><g><path d="M 31.922,16.618c-0.050-0.122-0.124-0.232-0.216-0.324l-4-4c-0.39-0.39-1.024-0.39-1.414,0 c-0.39,0.39-0.39,1.024,0,1.414L 28.586,16L 18,16 L 18,5.414 l 2.292,2.292c 0.39,0.39, 1.024,0.39, 1.414,0c 0.39-0.39, 0.39-1.024,0-1.414 l-4-4C 17.704,2.29, 17.698,2.288, 17.696,2.286C 17.606,2.198, 17.5,2.126, 17.382,2.078C 17.26,2.026, 17.13,2, 17,2C 16.998,2, 16.998,2, 16.996,2 C 16.868,2, 16.74,2.028, 16.618,2.078C 16.5,2.126, 16.394,2.198, 16.304,2.286C 16.3,2.288, 16.296,2.29, 16.292,2.292l-4,4 c-0.39,0.39-0.39,1.024,0,1.414c 0.39,0.39, 1.024,0.39, 1.414,0L 16,5.414L 16,16 L 5.414,16 l 2.292-2.292c 0.39-0.39, 0.39-1.024,0-1.414 c-0.39-0.39-1.024-0.39-1.414,0l-4,4C 2.29,16.296, 2.288,16.302, 2.286,16.304C 2.198,16.394, 2.126,16.5, 2.078,16.618 C 2.026,16.74, 2,16.87, 2,17c0,0.002,0,0.002,0,0.004C 2,17.132, 2.028,17.26, 2.078,17.382c 0.048,0.118, 0.12,0.224, 0.208,0.314 C 2.288,17.7, 2.29,17.704, 2.292,17.708l 4,4c 0.39,0.39, 1.024,0.39, 1.414,0c 0.39-0.39, 0.39-1.024,0-1.414L 5.414,18L 16,18 l0,10.586 l-2.292-2.292c-0.39-0.39-1.024-0.39-1.414,0c-0.39,0.39-0.39,1.024,0,1.414l 4,4c 0.092,0.092, 0.202,0.166, 0.324,0.216 C 16.74,31.972, 16.868,32, 16.996,32c 0.002,0, 0.002,0, 0.004,0c 0.13,0, 0.26-0.026, 0.382-0.078c 0.122-0.050, 0.232-0.124, 0.324-0.216l 4-4 c 0.39-0.39, 0.39-1.024,0-1.414c-0.39-0.39-1.024-0.39-1.414,0L 18,28.586L 18,18 l 10.586,0 l-2.292,2.292 c-0.39,0.39-0.39,1.024,0,1.414c 0.39,0.39, 1.024,0.39, 1.414,0l 4-4c 0.092-0.092, 0.166-0.202, 0.216-0.324 C 31.972,17.26, 32,17.132, 32,17.004c0-0.002,0-0.002,0-0.004C 32,16.87, 31.974,16.74, 31.922,16.618z"></path></g></svg>