<?xml version="1.0" encoding="utf-8"?> <!-- Generator: IcoMoon.io --> <!DOCTYPE svg PUBLIC "-//W3C//DTD SVG 1.1//EN" "http://www.w3.org/Graphics/SVG/1.1/DTD/svg11.dtd"> <svg width="32" height="32" viewBox="0 0 32 32" xmlns="http://www.w3.org/2000/svg" xmlns:xlink="http://www.w3.org/1999/xlink" fill="#000000"><g><path d="M 17,2C 8.716,2, 2,8.716, 2,17S 8.716,32, 17,32S 32,25.284, 32,17S 25.284,2, 17,2z M 20.2,22.782 c 0.39,0.39, 0.39,1.024,0,1.414c-0.39,0.39-1.024,0.39-1.414,0L 12.3,17.71C 12.104,17.514, 12.008,17.258, 12.008,17 c0-0.258, 0.096-0.514, 0.292-0.71l 6.486-6.486c 0.39-0.39, 1.024-0.39, 1.414,0c 0.39,0.39, 0.39,1.024,0,1.414L 14.418,17 L 20.2,22.782z"></path></g></svg>