<?xml version="1.0" encoding="utf-8"?> <!-- Generator: IcoMoon.io --> <!DOCTYPE svg PUBLIC "-//W3C//DTD SVG 1.1//EN" "http://www.w3.org/Graphics/SVG/1.1/DTD/svg11.dtd"> <svg width="32" height="32" viewBox="0 0 32 32" xmlns="http://www.w3.org/2000/svg" xmlns:xlink="http://www.w3.org/1999/xlink" fill="#000000"><g><path d="M 17,32c 8.284,0, 15-6.716, 15-15S 25.284,2, 17,2S 2,8.716, 2,17S 8.716,32, 17,32z M 9.804,18.786L 16.29,12.3 C 16.486,12.104, 16.742,12.008, 17,12.008c 0.258,0, 0.514,0.096, 0.71,0.292l 6.486,6.486c 0.39,0.39, 0.39,1.024,0,1.414 c-0.39,0.39-1.024,0.39-1.414,0L 17,14.418L 11.218,20.2c-0.39,0.39-1.024,0.39-1.414,0C 9.414,19.81, 9.414,19.176, 9.804,18.786z"></path></g></svg>