<?xml version="1.0" encoding="utf-8"?> <!-- Generator: IcoMoon.io --> <!DOCTYPE svg PUBLIC "-//W3C//DTD SVG 1.1//EN" "http://www.w3.org/Graphics/SVG/1.1/DTD/svg11.dtd"> <svg width="32" height="32" viewBox="0 0 32 32" xmlns="http://www.w3.org/2000/svg" xmlns:xlink="http://www.w3.org/1999/xlink" fill="#000000"><g><path d="M 17.072,2.144c-8.244,0-14.928,6.684-14.928,14.928S 8.828,32, 17.072,32S 32,25.316, 32,17.072 S 25.316,2.144, 17.072,2.144z M 10.192,24.452c-0.392-0.392-0.392-1.030,0-1.422l 5.3-5.992l-5.3-5.992 C 9.8,10.652, 9.8,10.014, 10.192,9.622s 1.030-0.392, 1.422,0l 5.918,6.69c 0.2,0.2, 0.296,0.462, 0.292,0.724 C 17.83,17.3, 17.734,17.562, 17.534,17.762l-5.918,6.69C 11.222,24.846, 10.586,24.846, 10.192,24.452z M 24.706,17.762l-5.918,6.69 c-0.392,0.392-1.030,0.392-1.422,0s-0.392-1.030,0-1.422l 5.3-5.992l-5.3-5.992c-0.392-0.392-0.392-1.030,0-1.422 s 1.030-0.392, 1.422,0l 5.918,6.69c 0.2,0.2, 0.296,0.462, 0.292,0.724C 25,17.3, 24.906,17.562, 24.706,17.762z"></path></g></svg>