<?xml version="1.0" encoding="utf-8"?> <!-- Generator: IcoMoon.io --> <!DOCTYPE svg PUBLIC "-//W3C//DTD SVG 1.1//EN" "http://www.w3.org/Graphics/SVG/1.1/DTD/svg11.dtd"> <svg width="32" height="32" viewBox="0 0 32 32" xmlns="http://www.w3.org/2000/svg" xmlns:xlink="http://www.w3.org/1999/xlink" fill="#000000"><g><path d="M 27,16C 26.448,16, 26,16.448, 26,17l0,7.586 L 5.708,4.292c-0.39-0.39-1.024-0.39-1.414,0 c-0.39,0.39-0.39,1.024,0,1.414L 24.586,26L 17,26 C 16.448,26, 16,26.448, 16,27C 16,27.552, 16.448,28, 17,28l 10,0 c 0.13,0, 0.26-0.026, 0.382-0.078c 0.244-0.102, 0.44-0.296, 0.54-0.54C 27.972,27.26, 28,27.132, 28,27.004c0-0.002,0-0.002,0-0.004l0-10 C 28,16.448, 27.552,16, 27,16z"></path></g></svg>