<?xml version="1.0" encoding="utf-8"?> <!-- Generator: IcoMoon.io --> <!DOCTYPE svg PUBLIC "-//W3C//DTD SVG 1.1//EN" "http://www.w3.org/Graphics/SVG/1.1/DTD/svg11.dtd"> <svg width="32" height="32" viewBox="0 0 32 32" xmlns="http://www.w3.org/2000/svg" xmlns:xlink="http://www.w3.org/1999/xlink" fill="#000000"><g><path d="M 17,2C 8.716,2, 2,8.716, 2,17S 8.716,32, 17,32S 32,25.284, 32,17S 25.284,2, 17,2z M 28,17 C 28,17.552, 27.552,18, 27,18L 11.414,18 l 4.292,4.292c 0.39,0.39, 0.39,1.024,0,1.414c-0.39,0.39-1.024,0.39-1.414,0l-6-6 C 8.29,17.704, 8.288,17.7, 8.286,17.696C 8.198,17.606, 8.126,17.5, 8.078,17.382C 8.028,17.26, 8,17.132, 8,17.004C 8,17.002, 8,17.002, 8,17l0,0 c0-0.13, 0.026-0.26, 0.078-0.382c 0.048-0.118, 0.12-0.224, 0.208-0.314c 0.004-0.004, 0.004-0.008, 0.008-0.012l 6-6 c 0.39-0.39, 1.024-0.39, 1.414,0c 0.39,0.39, 0.39,1.024,0,1.414L 11.414,16L 27,16 C 27.552,16, 28,16.448, 28,17z"></path></g></svg>