<?xml version="1.0" encoding="utf-8"?> <!-- Generator: IcoMoon.io --> <!DOCTYPE svg PUBLIC "-//W3C//DTD SVG 1.1//EN" "http://www.w3.org/Graphics/SVG/1.1/DTD/svg11.dtd"> <svg width="32" height="32" viewBox="0 0 32 32" xmlns="http://www.w3.org/2000/svg" xmlns:xlink="http://www.w3.org/1999/xlink" fill="#000000"><g><path d="M 17,2C 8.716,2, 2,8.716, 2,17S 8.716,32, 17,32S 32,25.284, 32,17S 25.284,2, 17,2z M 24.452,23.808 c-0.392,0.392-1.030,0.392-1.422,0l-5.992-5.3l-5.992,5.3c-0.392,0.392-1.030,0.392-1.422,0c-0.392-0.392-0.392-1.030,0-1.422 l 6.69-5.918c 0.2-0.2, 0.462-0.296, 0.724-0.292C 17.3,16.17, 17.562,16.266, 17.762,16.466l 6.69,5.918 C 24.846,22.778, 24.846,23.414, 24.452,23.808z M 24.452,16.636c-0.392,0.392-1.030,0.392-1.422,0L 17.036,11.334L 11.044,16.636 c-0.392,0.392-1.030,0.392-1.422,0c-0.392-0.392-0.392-1.030,0-1.422l 6.69-5.918c 0.2-0.2, 0.462-0.296, 0.724-0.292 C 17.3,8.998, 17.562,9.094, 17.762,9.294l 6.69,5.918C 24.846,15.606, 24.846,16.242, 24.452,16.636z"></path></g></svg>