<?xml version="1.0" encoding="utf-8"?> <!-- Generator: IcoMoon.io --> <!DOCTYPE svg PUBLIC "-//W3C//DTD SVG 1.1//EN" "http://www.w3.org/Graphics/SVG/1.1/DTD/svg11.dtd"> <svg width="32" height="32" viewBox="0 0 32 32" xmlns="http://www.w3.org/2000/svg" xmlns:xlink="http://www.w3.org/1999/xlink" fill="#000000"><g><path d="M 17,2C 8.716,2, 2,8.716, 2,17S 8.716,32, 17,32S 32,25.284, 32,17S 25.284,2, 17,2z M 26,17 c0,0.002,0,0.002,0,0.004c0,0.13-0.026,0.258-0.076,0.378c-0.050,0.122-0.124,0.232-0.216,0.324l-6,6 c-0.39,0.39-1.024,0.39-1.414,0c-0.39-0.39-0.39-1.024,0-1.414L 22.586,18L 7,18 C 6.448,18, 6,17.552, 6,17C 6,16.448, 6.448,16, 7,16 l 15.586,0 L 18.292,11.708c-0.39-0.39-0.39-1.024,0-1.414c 0.39-0.39, 1.024-0.39, 1.414,0l 6,6c 0.092,0.092, 0.166,0.202, 0.216,0.324 C 25.974,16.74, 26,16.87, 26,17L 26,17z"></path></g></svg>