<?xml version="1.0" encoding="utf-8"?> <!-- Generator: IcoMoon.io --> <!DOCTYPE svg PUBLIC "-//W3C//DTD SVG 1.1//EN" "http://www.w3.org/Graphics/SVG/1.1/DTD/svg11.dtd"> <svg width="32" height="32" viewBox="0 0 32 32" xmlns="http://www.w3.org/2000/svg" xmlns:xlink="http://www.w3.org/1999/xlink" fill="#000000"><g><path d="M 31.922,16.618c-0.050-0.122-0.124-0.232-0.216-0.324l-4-4c-0.39-0.39-1.024-0.39-1.414,0 c-0.39,0.39-0.39,1.024,0,1.414L 28.586,16L 3.414,16 l 2.292-2.292c 0.39-0.39, 0.39-1.024,0-1.414c-0.39-0.39-1.024-0.39-1.414,0 l-4,4C 0.29,16.296, 0.288,16.302, 0.286,16.304C 0.198,16.394, 0.126,16.5, 0.078,16.618C 0.026,16.74,0,16.87,0,17l0,0 c0,0.002,0,0.002,0,0.004C0,17.132, 0.028,17.26, 0.078,17.382c 0.048,0.118, 0.12,0.224, 0.208,0.314C 0.288,17.7, 0.29,17.704, 0.292,17.708 l 4,4c 0.39,0.39, 1.024,0.39, 1.414,0c 0.39-0.39, 0.39-1.024,0-1.414L 3.414,18l 25.172,0 l-2.292,2.292 c-0.39,0.39-0.39,1.024,0,1.414c 0.39,0.39, 1.024,0.39, 1.414,0l 4-4c 0.092-0.092, 0.166-0.202, 0.216-0.324 C 31.972,17.26, 32,17.132, 32,17.004c0-0.002,0-0.002,0-0.004l0,0C 32,16.87, 31.974,16.74, 31.922,16.618z"></path></g></svg>