<?xml version="1.0" encoding="utf-8"?> <!-- Generator: IcoMoon.io --> <!DOCTYPE svg PUBLIC "-//W3C//DTD SVG 1.1//EN" "http://www.w3.org/Graphics/SVG/1.1/DTD/svg11.dtd"> <svg width="32" height="32" viewBox="0 0 32 32" xmlns="http://www.w3.org/2000/svg" xmlns:xlink="http://www.w3.org/1999/xlink" fill="#000000"><g><path d="M 17,2C 8.716,2, 2,8.716, 2,17S 8.716,32, 17,32S 32,25.284, 32,17S 25.284,2, 17,2z M 23.708,15.708 c-0.39,0.39-1.024,0.39-1.414,0L 18,11.414L 18,27 C 18,27.552, 17.552,28, 17,28S 16,27.552, 16,27L 16,11.414 L 11.708,15.708 c-0.39,0.39-1.024,0.39-1.414,0c-0.39-0.39-0.39-1.024,0-1.414l 6-6C 16.296,8.29, 16.298,8.29, 16.3,8.288 c 0.090-0.088, 0.198-0.162, 0.316-0.21c 0.244-0.102, 0.52-0.102, 0.764,0C 17.504,8.128, 17.614,8.2, 17.708,8.292l 6,6 C 24.098,14.684, 24.098,15.316, 23.708,15.708z"></path></g></svg>