<?xml version="1.0" encoding="utf-8"?> <!-- Generator: IcoMoon.io --> <!DOCTYPE svg PUBLIC "-//W3C//DTD SVG 1.1//EN" "http://www.w3.org/Graphics/SVG/1.1/DTD/svg11.dtd"> <svg width="32" height="32" viewBox="0 0 32 32" xmlns="http://www.w3.org/2000/svg" xmlns:xlink="http://www.w3.org/1999/xlink" fill="#000000"><g><path d="M 30,0L 2,0 C 0.896,0,0,0.896,0,2l0,28 c0,1.104, 0.896,2, 2,2l 28,0 c 1.104,0, 2-0.896, 2-2L 32,2 C 32,0.896, 31.104,0, 30,0z M 14,19l0,8 C 14,27.552, 13.552,28, 13,28S 12,27.552, 12,27l0-5.586 l-6.292,6.292c-0.39,0.39-1.024,0.39-1.414,0 c-0.39-0.39-0.39-1.024,0-1.414L 10.586,20L 5,20 C 4.448,20, 4,19.552, 4,19C 4,18.448, 4.448,18, 5,18l 8,0 c 0.13,0, 0.26,0.026, 0.382,0.078 c 0.244,0.102, 0.44,0.296, 0.54,0.54C 13.974,18.74, 14,18.87, 14,19L 14,19z M 27,12C 27.552,12, 28,12.448, 28,13C 28,13.552, 27.552,14, 27,14l-8,0 C 18.87,14, 18.74,13.974, 18.618,13.922C 18.498,13.874, 18.392,13.802, 18.3,13.712C 18.298,13.71, 18.296,13.71, 18.292,13.708 C 18.29,13.704, 18.288,13.7, 18.286,13.696C 18.198,13.606, 18.126,13.5, 18.078,13.382C 18.028,13.26, 18,13.132, 18,13.004C 18,13.002, 18,13.002, 18,13l0-8 C 18,4.448, 18.448,4, 19,4S 20,4.448, 20,5l0,5.586 l 6.292-6.292c 0.39-0.39, 1.024-0.39, 1.414,0c 0.39,0.39, 0.39,1.024,0,1.414 L 21.414,12L 27,12 z"></path></g></svg>