<?xml version="1.0" encoding="utf-8"?> <!-- Generator: IcoMoon.io --> <!DOCTYPE svg PUBLIC "-//W3C//DTD SVG 1.1//EN" "http://www.w3.org/Graphics/SVG/1.1/DTD/svg11.dtd"> <svg width="32" height="32" viewBox="0 0 32 32" xmlns="http://www.w3.org/2000/svg" xmlns:xlink="http://www.w3.org/1999/xlink" fill="#000000"><g><path d="M 29.922,2.618c-0.102-0.244-0.296-0.44-0.54-0.54C 29.26,2.026, 29.13,2, 29,2l-8,0 C 20.448,2, 20,2.448, 20,3 C 20,3.552, 20.448,4, 21,4l 5.586,0 L 18.292,12.292c-0.39,0.39-0.39,1.024,0,1.414c 0.39,0.39, 1.024,0.39, 1.414,0L 28,5.414L 28,11 C 28,11.552, 28.448,12, 29,12S 30,11.552, 30,11l0-8 l0,0C 30,2.87, 29.974,2.74, 29.922,2.618zM 3,20C 2.448,20, 2,20.448, 2,21l0,8 c0,0.002,0,0.002,0,0.004c0,0.13, 0.026,0.258, 0.076,0.378 c 0.048,0.118, 0.12,0.224, 0.208,0.314c 0.004,0.004, 0.004,0.008, 0.008,0.012c 0.002,0.002, 0.006,0.002, 0.008,0.006 c 0.090,0.088, 0.198,0.162, 0.316,0.21C 2.74,29.974, 2.87,30, 3,30l 8,0 C 11.552,30, 12,29.552, 12,29C 12,28.448, 11.552,28, 11,28L 5.414,28 l 8.292-8.292c 0.39-0.39, 0.39-1.024,0-1.414c-0.39-0.39-1.024-0.39-1.414,0L 4,26.586L 4,21 C 4,20.448, 3.552,20, 3,20z"></path></g></svg>