<?xml version="1.0" encoding="utf-8"?> <!-- Generator: IcoMoon.io --> <!DOCTYPE svg PUBLIC "-//W3C//DTD SVG 1.1//EN" "http://www.w3.org/Graphics/SVG/1.1/DTD/svg11.dtd"> <svg width="32" height="32" viewBox="0 0 32 32" xmlns="http://www.w3.org/2000/svg" xmlns:xlink="http://www.w3.org/1999/xlink" fill="#000000"><g><path d="M 2.544,24.656c 0.48,0.746, 1.488,1.634, 3.568,1.634c 1.308,0, 2.982-0.382, 4.846-1.048 C 11.764,28.794, 13.246,32, 16,32c 2.8,0, 4.288-3.316, 5.084-6.942c 1.868,0.632, 3.548,0.996, 4.862,0.996c 2.2,0, 3.232-0.936, 3.712-1.72 c 1.552-2.544-0.87-5.774-3.794-8.444c 0.54-0.52, 1.048-1.040, 1.494-1.546c 2.528-2.878, 3.234-5.232, 2.098-7 c-0.48-0.746-1.488-1.634-3.568-1.634l0,0 c-1.308,0-2.982,0.382-4.846,1.048C 20.236,3.206, 18.754,0, 16,0C 13.2,0, 11.712,3.316, 10.916,6.942 C 9.048,6.308, 7.368,5.946, 6.054,5.946l0,0 c-2.2,0-3.234,0.936-3.712,1.72C 0.79,10.21, 3.212,13.44, 6.136,16.11 c-0.54,0.522-1.048,1.040-1.494,1.546C 2.114,20.534, 1.408,22.89, 2.544,24.656z M 16,30c-1.294,0-2.442-2.162-3.174-5.5 c 1.052-0.454, 2.14-0.984, 3.254-1.59c 1.068,0.548, 2.112,1.026, 3.124,1.442C 18.476,27.774, 17.314,30, 16,30z M 12,16 c0-0.734, 0.022-1.45, 0.052-2.154c 0.576-0.408, 1.166-0.812, 1.784-1.21C 14.546,12.18, 15.248,11.76, 15.944,11.36 c 0.706,0.384, 1.418,0.786, 2.138,1.224c 0.644,0.394, 1.262,0.796, 1.862,1.2C 19.978,14.508, 20,15.244, 20,16 c0,0.734-0.022,1.45-0.052,2.154C 19.372,18.562, 18.782,18.966, 18.164,19.364C 17.454,19.82, 16.752,20.24, 16.056,20.64 c-0.706-0.384-1.418-0.786-2.138-1.224c-0.644-0.394-1.262-0.796-1.862-1.2C 12.022,17.492, 12,16.756, 12,16z M 10.010,16.752 C 9.716,16.528, 9.428,16.304, 9.152,16.082C 9.428,15.848, 9.714,15.614, 10.006,15.38C 10.002,15.648, 10,15.874, 10,16 C 10,16.146, 10.004,16.422, 10.010,16.752z M 12.234,11.308C 12.292,10.74, 12.36,10.19, 12.438,9.658C 12.894,9.852, 13.36,10.066, 13.836,10.29 c-0.36,0.22-0.72,0.43-1.082,0.662C 12.574,11.070, 12.412,11.192, 12.234,11.308z M 18.030,10.24c 0.516-0.26, 1.020-0.502, 1.514-0.724 C 19.628,10.082, 19.7,10.672, 19.762,11.278c-0.278-0.178-0.512-0.324-0.636-0.4C 18.76,10.654, 18.394,10.452, 18.030,10.24z M 21.99,15.248 c 0.294,0.224, 0.582,0.448, 0.858,0.67c-0.276,0.234-0.562,0.466-0.856,0.702C 21.998,16.352, 22,16.126, 22,16 C 22,15.854, 21.996,15.578, 21.99,15.248z M 19.766,20.692c-0.058,0.568-0.124,1.12-0.202,1.65c-0.456-0.194-0.924-0.408-1.398-0.632 c 0.36-0.22, 0.72-0.43, 1.082-0.662C 19.426,20.93, 19.588,20.808, 19.766,20.692z M 12.874,21.122c 0.366,0.224, 0.73,0.426, 1.096,0.638 c-0.516,0.26-1.020,0.502-1.514,0.724c-0.084-0.564-0.156-1.154-0.218-1.762C 12.516,20.898, 12.75,21.046, 12.874,21.122z M 27.95,23.292c-0.316,0.516-1.016,0.762-2.004,0.762c-1.154,0-2.712-0.352-4.488-0.976c 0.212-1.372, 0.344-2.712, 0.422-3.856 c 0.894-0.66, 1.72-1.328, 2.502-2C 27.204,19.784, 28.672,22.11, 27.95,23.292z M 25.888,7.71c 0.916,0, 1.574,0.23, 1.886,0.716 c 0.75,1.166-0.666,3.528-3.43,6.158c-0.86-0.7-1.708-1.34-2.472-1.882c-0.082-1.18-0.218-2.556-0.444-3.962 C 23.202,8.082, 24.752,7.71, 25.888,7.71z M 16,2c 1.294,0, 2.442,2.162, 3.174,5.5c-1.052,0.454-2.14,0.984-3.254,1.59 C 14.85,8.542, 13.806,8.062, 12.796,7.648C 13.524,4.226, 14.686,2, 16,2z M 4.050,8.708c 0.316-0.516, 1.016-0.762, 2.004-0.762 c 1.154,0, 2.712,0.352, 4.488,0.976C 10.328,10.294, 10.198,11.632, 10.12,12.778c-0.894,0.66-1.72,1.328-2.502,2 C 4.796,12.216, 3.328,9.89, 4.050,8.708z M 10.126,19.296c 0.082,1.18, 0.218,2.556, 0.444,3.962c-1.772,0.658-3.322,1.030-4.458,1.030 c-0.916,0-1.574-0.23-1.886-0.716c-0.75-1.166, 0.666-3.528, 3.43-6.158C 8.514,18.114, 9.362,18.756, 10.126,19.296z"></path></g></svg>