<?xml version="1.0" encoding="utf-8"?> <!-- Generator: IcoMoon.io --> <!DOCTYPE svg PUBLIC "-//W3C//DTD SVG 1.1//EN" "http://www.w3.org/Graphics/SVG/1.1/DTD/svg11.dtd"> <svg width="32" height="32" viewBox="0 0 32 32" xmlns="http://www.w3.org/2000/svg" xmlns:xlink="http://www.w3.org/1999/xlink" fill="#000000"><g><path d="M 30,30L 30,14 c0-1.104-0.896-2-2-2L 7.99,12 L 8,11.152C 8,5.764, 11.328,2, 16.096,2c 3.49,0, 6.6,2.006, 8.118,5.236 c 0.234,0.5, 0.828,0.714, 1.33,0.478c 0.5-0.234, 0.714-0.83, 0.478-1.33C 24.172,2.448, 20.37,0, 16.096,0C 10.246,0, 6,4.69, 6,11.14 L 5.99,12L 4,12 C 2.896,12, 2,12.896, 2,14l0,16 c0,1.104, 0.896,2, 2,2l 24,0 C 29.104,32, 30,31.104, 30,30z M 4,14l 24,0 l0,16 L 4,30 L 4,14 zM 16,18c-2.21,0-4,1.79-4,4s 1.79,4, 4,4s 4-1.79, 4-4S 18.21,18, 16,18z M 16,24c-1.102,0-2-0.898-2-2s 0.898-2, 2-2 s 2,0.898, 2,2S 17.102,24, 16,24z"></path></g></svg>