<?xml version="1.0" encoding="utf-8"?> <!-- Generator: IcoMoon.io --> <!DOCTYPE svg PUBLIC "-//W3C//DTD SVG 1.1//EN" "http://www.w3.org/Graphics/SVG/1.1/DTD/svg11.dtd"> <svg width="32.119998931884766" height="32.05399703979492" viewBox="0 0 32.119998931884766 32.05399703979492" xmlns="http://www.w3.org/2000/svg" xmlns:xlink="http://www.w3.org/1999/xlink" fill="#000000"><g><path d="M 2,24.254l 4.59,0 c 0.362,0.36, 8.702,7.38, 8.702,7.38c 0.502,0.304, 0.928,0.392, 1.292,0.358 c 0.74-0.070, 1.26-0.69, 1.418-1.344C 18.010,30.584, 18.010,1.416, 18,1.352C 17.844,0.696, 17.322,0.076, 16.584,0.006 C 16.22-0.028, 15.794,0.060, 15.292,0.364c0,0-8.34,7.276-8.702,7.636L 2,8 C 0.896,8,0,8.896,0,10l0,0.254 L0,22 l0,0.254 C0,23.36, 0.896,24.254, 2,24.254zM 31.642,10.822c-0.476-0.476-1.25-0.476-1.726,0l-3.452,3.452l-3.452-3.452 c-0.476-0.476-1.25-0.476-1.726,0c-0.476,0.476-0.476,1.25,0,1.726L 24.738,16l-3.452,3.452c-0.476,0.476-0.476,1.25,0,1.726 c 0.476,0.476, 1.25,0.476, 1.726,0l 3.452-3.452l 3.452,3.452c 0.476,0.476, 1.25,0.476, 1.726,0c 0.476-0.476, 0.476-1.25,0-1.726 L 28.19,16l 3.452-3.452C 32.12,12.072, 32.12,11.298, 31.642,10.822z"></path></g></svg>