<?xml version="1.0" encoding="utf-8"?> <!-- Generator: IcoMoon.io --> <!DOCTYPE svg PUBLIC "-//W3C//DTD SVG 1.1//EN" "http://www.w3.org/Graphics/SVG/1.1/DTD/svg11.dtd"> <svg width="32" height="32" viewBox="0 0 32 32" xmlns="http://www.w3.org/2000/svg" xmlns:xlink="http://www.w3.org/1999/xlink" fill="#000000"><g><path d="M 31.882,5.624C 31.63,4.81, 30.898,4.208, 30,4.208l-2,0 l0,2 l0,1.104 c0,1.654-1.346,3-3,3S 22,8.966, 22,7.312 L 22,6.208 l0-2 L 9.99,4.208 l0,2 l0,1.104 c0,1.654-1.346,3-3,3c-1.654,0-3-1.346-3-3L 3.99,6.208 l0-2 L 2,4.208 c-0.898,0-1.63,0.602-1.882,1.416L0,5.624 l0,0.584 l0,6.23 L0,30 c0,1.104, 0.896,2, 2,2l 28,0 c 1.104,0, 2-0.896, 2-2L 32,12.438 L 32,6.208 L 32,5.624 L 31.882,5.624 z M 30,30L 2,30 L 2,14 l 28,0 L 30,30 zM 6.99,8.312c 0.552,0, 1-0.448, 1-1L 7.99,1 c0-0.552-0.448-1-1-1s-1,0.448-1,1l0,6.312 C 5.99,7.864, 6.438,8.312, 6.99,8.312zM 25,8.312c 0.552,0, 1-0.448, 1-1L 26,1 C 26,0.448, 25.552,0, 25,0S 24,0.448, 24,1l0,6.312 C 24,7.864, 24.448,8.312, 25,8.312z"></path></g></svg>