<?xml version="1.0" encoding="utf-8"?> <!-- Generator: IcoMoon.io --> <!DOCTYPE svg PUBLIC "-//W3C//DTD SVG 1.1//EN" "http://www.w3.org/Graphics/SVG/1.1/DTD/svg11.dtd"> <svg width="32" height="32" viewBox="0 0 32 32" xmlns="http://www.w3.org/2000/svg" xmlns:xlink="http://www.w3.org/1999/xlink" fill="#000000"><g><path d="M 30.968,24L 30,24 L 30,6 c0-1.104-0.896-2-2-2L 4,4 C 2.896,4, 2,4.896, 2,6l0,18 L 1.032,24 C 0.462,24,0,24.448,0,25 C0,25.552, 0.462,26, 1.032,26L 4,26 l 24,0 l 2.968,0 C 31.538,26, 32,25.552, 32,25C 32,24.448, 31.538,24, 30.968,24z M 28,6l0,15.916 L 4,21.916 L 4,6 L 28,6 z"></path></g></svg>