<?xml version="1.0" encoding="utf-8"?> <!-- Generator: IcoMoon.io --> <!DOCTYPE svg PUBLIC "-//W3C//DTD SVG 1.1//EN" "http://www.w3.org/Graphics/SVG/1.1/DTD/svg11.dtd"> <svg width="32" height="32" viewBox="0 0 32 32" xmlns="http://www.w3.org/2000/svg" xmlns:xlink="http://www.w3.org/1999/xlink" fill="#000000"><g><path d="M 25.312,2L 6.5,2 C 5.396,2, 4.5,2.75, 4,4L0,17.968L0,19 l0,2.104 L0,29 C0,29.552, 0.448,30, 1,30l 30,0 c 0.552,0, 1-0.448, 1-1l0-7.992 L 32,19 L 32,18.092 L 28,4C 27.438,2.75, 26.418,2, 25.312,2z M 5.89,4.666C 5.982,4.46, 6.216,4, 6.5,4l 18.812,0 c 0.274,0, 0.59,0.282, 0.812,0.712L 29.894,18L 21,18 C 20.448,18, 20,18.448, 20,19L 20,22 L 12,22 L 12,19 C 12,18.448, 11.552,18, 11,18L 2.072,18 L 5.89,4.666z M 30,28L 2,28 l0-6.972 L 2,20 l 8,0 l0,3 C 10,23.552, 10.448,24, 11,24l 10,0 c 0.552,0, 1-0.448, 1-1L 22,20 l 8,0 l0,0.96 L 30,28 z"></path></g></svg>