<?xml version="1.0" encoding="utf-8"?> <!-- Generator: IcoMoon.io --> <!DOCTYPE svg PUBLIC "-//W3C//DTD SVG 1.1//EN" "http://www.w3.org/Graphics/SVG/1.1/DTD/svg11.dtd"> <svg width="32" height="32" viewBox="0 0 32 32" xmlns="http://www.w3.org/2000/svg" xmlns:xlink="http://www.w3.org/1999/xlink" fill="#000000"><g><path d="M 10,8L 10,5 C 10,4.448, 9.552,4, 9,4S 8,4.448, 8,5L 8,8 C 6.896,8, 6,8.896, 6,10l0,2 c0,1.104, 0.896,2, 2,2l0,13 C 8,27.552, 8.448,28, 9,28S 10,27.552, 10,27L 10,14 c 1.104,0, 2-0.896, 2-2L 12,10 C 12,8.896, 11.104,8, 10,8z M 8,10l 2,0 l0,2 L 8,12 L 8,10 zM 18,18L 18,5 C 18,4.448, 17.552,4, 17,4S 16,4.448, 16,5L 16,18 c-1.104,0-2,0.896-2,2l0,2 c0,1.104, 0.896,2, 2,2l0,3 C 16,27.552, 16.448,28, 17,28S 18,27.552, 18,27L 18,24 c 1.104,0, 2-0.896, 2-2l0-2 C 20,18.896, 19.104,18, 18,18z M 16,20l 2,0 l0,2 L 16,22 L 16,20 zM 26,12L 26,5 C 26,4.448, 25.552,4, 25,4S 24,4.448, 24,5L 24,12 c-1.104,0-2,0.896-2,2l0,2 c0,1.104, 0.896,2, 2,2l0,9 c0,0.552, 0.448,1, 1,1s 1-0.448, 1-1L 26,18 c 1.104,0, 2-0.896, 2-2L 28,14 C 28,12.896, 27.104,12, 26,12z M 24,14l 2,0 l0,2 l-2,0 L 24,14 z"></path></g></svg>