<?xml version="1.0" encoding="utf-8"?> <!-- Generator: IcoMoon.io --> <!DOCTYPE svg PUBLIC "-//W3C//DTD SVG 1.1//EN" "http://www.w3.org/Graphics/SVG/1.1/DTD/svg11.dtd"> <svg width="32" height="32" viewBox="0 0 32 32" xmlns="http://www.w3.org/2000/svg" xmlns:xlink="http://www.w3.org/1999/xlink" fill="#000000"><g><path d="M 30,8L 18.084,8 l0,6 L 32,14 L 32,10 C 32,8.896, 31.104,8, 30,8zM 2,8C 0.896,8,0,8.896,0,10l0,4 l 14,0 L 14,8 L 2,8 zM 2,16l0,14 c0,1.104, 0.896,2, 2,2l 10,0 L 14,16 L 2,16 zM 28,32c 1.104,0, 2-0.896, 2-2L 30,16 L 18.084,16 l0,16 L 28,32 zM 15.998,5.984l 0.006,0 C 16.002,5.988, 16,5.996, 16,6l 2.084,0 C 19.854,6, 22.36,6, 24,6c 2.762,0, 4-1.344, 4-3 S 26.762,0, 24,0c-2.586,0-4.622,1.164-6,2.514C 17.396,2.156, 16.698,1.938, 15.942,1.938c-0.724,0-1.394,0.204-1.982,0.536 C 12.584,1.14, 10.56,0, 8,0C 5.238,0, 4,1.344, 4,3S 5.238,6, 8,6c 1.666,0, 4.226,0, 6,0l 2,0 C 16,5.996, 15.998,5.988, 15.998,5.984z M 26,3 C 26,3.826, 24.912,4, 24,4L 19.458,4 C 19.442,3.972, 19.428,3.942, 19.412,3.916C 20.428,2.928, 21.968,2, 24,2C 24.912,2, 26,2.174, 26,3z M 6,3 C 6,2.174, 7.088,2, 8,2c 1.988,0, 3.496,0.89, 4.512,1.844C 12.48,3.894, 12.456,3.948, 12.426,4L 8,4 C 7.088,4, 6,3.826, 6,3z"></path></g></svg>