<?xml version="1.0" encoding="utf-8"?> <!-- Generator: IcoMoon.io --> <!DOCTYPE svg PUBLIC "-//W3C//DTD SVG 1.1//EN" "http://www.w3.org/Graphics/SVG/1.1/DTD/svg11.dtd"> <svg width="32" height="32" viewBox="0 0 32 32" xmlns="http://www.w3.org/2000/svg" xmlns:xlink="http://www.w3.org/1999/xlink" fill="#000000"><g><path d="M 26.052,15.998c-0.086,0-0.17,0-0.252,0.002C 25.932,15.342, 26,14.67, 26,14c0-5.514-4.486-10-10-10 C 10.49,4, 6,8.442, 5.994,13.898c0,0.002, 0.016,0.202, 0.016,0.202l0,0 C 2.584,14.59,0,17.556,0,21c0,3.492, 2.516,6.496, 6,7l 5,0 C 11.552,28, 12,27.552, 12,27S 11.552,26, 11,26l-4.854,0.010C 3.822,25.668, 2,23.466, 2,21c0-2.456, 1.844-4.57, 4.292-4.92l 0.86-0.124 c 0.492-0.070, 0.858-0.492, 0.858-0.99L 7.994,13.902C 8,9.544, 11.59,6, 16,6c 4.412,0, 8,3.588, 8,8c0,0.542-0.054,1.088-0.164,1.618 l-0.264,1.272c-0.066,0.318, 0.028,0.646, 0.248,0.884c 0.22,0.236, 0.536,0.358, 0.864,0.308c 0.022-0.002, 0.648-0.084, 1.368-0.084 C 28.23,17.998, 30,19.792, 30,22c0,2.206-1.794,4-4,4L 19,26 c-2.8,0-2.99-1.678-3-2L 16,17.364 l 2.366,2.364 c 0.39,0.39, 1.024,0.39, 1.414,0c 0.39-0.39, 0.39-1.024,0-1.414L 15.756,14.292C 15.56,14.096, 15.302,14, 15.044,14 C 15.028,14, 15.016,13.992, 15,13.992c-0.288,0-0.542,0.124-0.724,0.318L 10.248,18.334c-0.39,0.39-0.39,1.024,0,1.414 c 0.39,0.39, 1.024,0.39, 1.414,0L 14,17.412L 14,24 c0,1.382, 1.044,4, 5,4L 26,28 c 3.308,0, 6-2.692, 6-6S 29.332,15.998, 26.052,15.998z"></path></g></svg>