<?xml version="1.0" encoding="utf-8"?> <!-- Generator: IcoMoon.io --> <!DOCTYPE svg PUBLIC "-//W3C//DTD SVG 1.1//EN" "http://www.w3.org/Graphics/SVG/1.1/DTD/svg11.dtd"> <svg version="1.1" id="Layer_1" xmlns="http://www.w3.org/2000/svg" xmlns:xlink="http://www.w3.org/1999/xlink" x="0px" y="0px" width="32" height="32" viewBox="0 0 32 32" enable-background="new 0 0 16 16" xml:space="preserve" fill="#000000"> <g><path d="M 6,32l 20,0 c 1.104,0, 2-0.896, 2-2L 28,2 c0-1.104-0.896-2-2-2L 6,0 C 4.896,0, 4,0.896, 4,2l0,28 C 4,31.104, 4.896,32, 6,32z M 6,2l 20,0 l0,28 L 6,30 L 6,2 zM 22,4L 10,4 C 8.896,4, 8,4.896, 8,6l0,2 c0,1.104, 0.896,2, 2,2l 12,0 c 1.104,0, 2-0.896, 2-2L 24,6 C 24,4.896, 23.104,4, 22,4z M 22,8 L 10,8 L 10,6 l 12,0 L 22,8 zM 8,14A2,2 0 1 0 12,14A2,2 0 1 0 8,14zM 8,20A2,2 0 1 0 12,20A2,2 0 1 0 8,20zM 8,26A2,2 0 1 0 12,26A2,2 0 1 0 8,26zM 14,14A2,2 0 1 0 18,14A2,2 0 1 0 14,14zM 14,20A2,2 0 1 0 18,20A2,2 0 1 0 14,20zM 14,26A2,2 0 1 0 18,26A2,2 0 1 0 14,26zM 20,14A2,2 0 1 0 24,14A2,2 0 1 0 20,14zM 20,20A2,2 0 1 0 24,20A2,2 0 1 0 20,20zM 20,26A2,2 0 1 0 24,26A2,2 0 1 0 20,26z"></path></g></svg>