<?xml version="1.0" encoding="utf-8"?> <!-- Generator: IcoMoon.io --> <!DOCTYPE svg PUBLIC "-//W3C//DTD SVG 1.1//EN" "http://www.w3.org/Graphics/SVG/1.1/DTD/svg11.dtd"> <svg width="32" height="32" viewBox="0 0 32 32" xmlns="http://www.w3.org/2000/svg" xmlns:xlink="http://www.w3.org/1999/xlink" fill="#000000"><g><path d="M 14,25.808L 14,30 L 11,30 C 10.448,30, 10,30.448, 10,31C 10,31.552, 10.448,32, 11,32l 4.98,0 L 16.020,32 l 4.98,0 c 0.552,0, 1-0.448, 1-1c0-0.552-0.448-1-1-1L 18,30 l0-4.204 c 4.166-0.822, 8-4.194, 8-9.796L 26,13 C 26,12.448, 25.552,12, 25,12 S 24,12.448, 24,13L 24,16 c0,5.252-4.026,8-8,8c-3.854,0-8-2.504-8-8L 8,13 C 8,12.448, 7.552,12, 7,12S 6,12.448, 6,13L 6,16 C 6,21.68, 9.766,25.012, 14,25.808zM 16,22c 3.308,0, 6-2.692, 6-6L 22,6 c0-3.308-2.692-6-6-6C 12.692,0, 10,2.692, 10,6l0,10 C 10,19.308, 12.692,22, 16,22z M 12,6 c0-2.21, 1.79-4, 4-4s 4,1.79, 4,4l0,10 c0,2.21-1.79,4-4,4S 12,18.21, 12,16L 12,6 z"></path></g></svg>