<?xml version="1.0" encoding="utf-8"?> <!-- Generator: IcoMoon.io --> <!DOCTYPE svg PUBLIC "-//W3C//DTD SVG 1.1//EN" "http://www.w3.org/Graphics/SVG/1.1/DTD/svg11.dtd"> <svg width="32" height="32" viewBox="0 0 32 32" xmlns="http://www.w3.org/2000/svg" xmlns:xlink="http://www.w3.org/1999/xlink" fill="#000000"><g><path d="M 30,6l-9.032,0 C 19.864,6, 18.594,6.562, 18,8c0,0-0.26,1.834-2,2L 2,10 C 0.896,10,0,10.864,0,11.968L0,30 c0,1.104, 0.896,2, 2,2l 28,0 c 1.104,0, 2-0.896, 2-2L 32,14 L 32,11.968 L 32,8 C 32,6.896, 31.104,6, 30,6z M 30,11.968L 30,14 l0,16 L 2,30 L 2,12 l 14,0 c 0.064,0, 0.126-0.004, 0.19-0.010C 18.066,11.812, 19.226,10.5, 19.762,9.15C 20.282,7.844, 21.188,8, 21.188,8L 30,8 L 30,11.968 z"></path></g></svg>