<?xml version="1.0" encoding="utf-8"?> <!-- Generator: IcoMoon.io --> <!DOCTYPE svg PUBLIC "-//W3C//DTD SVG 1.1//EN" "http://www.w3.org/Graphics/SVG/1.1/DTD/svg11.dtd"> <svg version="1.1" id="Layer_1" xmlns="http://www.w3.org/2000/svg" xmlns:xlink="http://www.w3.org/1999/xlink" x="0px" y="0px" width="32" height="32" viewBox="0 0 32 32" enable-background="new 0 0 16 16" xml:space="preserve" fill="#000000"> <g><path d="M 11.248,23.444c-0.9,0-1.738-0.352-2.36-0.99c-1.712-1.764-3.834-0.994-4.336,1.342 c-0.81,3.78-0.732,6.202, 0.24,7.406c 0.558,0.692, 1.214,0.744, 1.4,0.744L 27.062,32c 2.716,0, 4.928-2.128, 4.928-4.744l0-13.1 l 0.006-0.626c 0.018-1.61, 0.038-3.274-0.818-4.138c-0.566-0.574-1.382-0.696-2.306-0.302c-1.708,0.73-3.56,0.828-5.966,0.356 c-0.602-0.12-0.84-0.316-0.832-0.29c0-0.002, 0.040-0.178, 0.402-0.498c 1.076-0.954, 1.694-2.294, 1.694-3.684 C 24.168,2.23, 21.85,0, 19,0C 16.152,0, 13.834,2.23, 13.834,4.972c0,1.364, 0.624,2.644, 1.854,3.81 C 15.746,8.84, 15.864,8.952, 15.956,9.056c-0.2,0.098-0.598,0.242-1.358,0.37C 12.61,9.76, 10.652,9.288, 9.154,8.934 C 7.482,8.54, 6.418,8.41, 5.8,9.038c-0.692,0.7-2.194,2.842-1.242,7.654c 0.144,0.736, 0.588,2.976, 2.29,2.976 c 0.842,0, 1.472-0.61, 1.862-0.984c 2.476-2.382, 5.706-0.678, 5.706,1.788C 14.414,22.11, 12.994,23.444, 11.248,23.444z M 11.248,15.498 c-1.4,0-2.72,0.586-3.976,1.792C 7.204,17.358, 7.052,17.502, 6.93,17.594C 6.832,17.426, 6.67,17.058, 6.52,16.304 C 5.8,12.664, 6.716,11.064, 7.108,10.574C 7.446,10.584, 8.052,10.728, 8.696,10.88c 1.242,0.292, 2.788,0.656, 4.496,0.656 c 0.6,0, 1.186-0.046, 1.738-0.138C 16.074,11.206, 17.638,10.812, 18,9.626c 0.332-1.092-0.558-1.936-0.942-2.298 C 16.234,6.546, 15.834,5.778, 15.834,4.972C 15.834,3.334, 17.254,2, 19,2s 3.168,1.334, 3.168,2.972c0,0.828-0.362,1.604-1.018,2.184 c-1.124,0.992-1.172,1.89-1.014,2.468c 0.238,0.88, 1.108,1.53, 2.38,1.78c 2.8,0.548, 5.068,0.406, 7.14-0.476 c 0.064-0.030, 0.114-0.044, 0.14-0.058c 0.222,0.448, 0.206,1.91, 0.198,2.636l-0.006,13.75c0,1.512-1.312,2.744-2.926,2.744 l-20.68-0.018c-0.010-0.008-0.94-0.824, 0.124-5.766c 0.11-0.518, 0.314-0.748, 0.366-0.772c0,0, 0.2,0.010, 0.58,0.402 c 1,1.030, 2.348,1.596, 3.792,1.596c 2.848,0, 5.166-2.23, 5.166-4.972S 14.096,15.498, 11.248,15.498z"></path></g></svg>