<?xml version="1.0" encoding="utf-8"?> <!-- Generator: IcoMoon.io --> <!DOCTYPE svg PUBLIC "-//W3C//DTD SVG 1.1//EN" "http://www.w3.org/Graphics/SVG/1.1/DTD/svg11.dtd"> <svg width="32" height="32" viewBox="0 0 32 32" xmlns="http://www.w3.org/2000/svg" xmlns:xlink="http://www.w3.org/1999/xlink" fill="#000000"><g><path d="M 16,32c 8.836,0, 16-7.164, 16-16s-7.164-16-16-16S0,7.164,0,16S 7.164,32, 16,32z M 18,18c0,1.104-0.896,2-2,2S 14,19.104, 14,18 L 14,8 c0-1.104, 0.896-2, 2-2s 2,0.896, 2,2L 18,18 z M 16,21.968c 1.104,0, 2,0.896, 2,2c0,1.104-0.896,2-2,2s-2-0.896-2-2 C 14,22.864, 14.896,21.968, 16,21.968z"></path></g></svg>