<?xml version="1.0" encoding="utf-8"?> <!-- Generator: IcoMoon.io --> <!DOCTYPE svg PUBLIC "-//W3C//DTD SVG 1.1//EN" "http://www.w3.org/Graphics/SVG/1.1/DTD/svg11.dtd"> <svg width="32" height="32" viewBox="0 0 32 32" xmlns="http://www.w3.org/2000/svg" xmlns:xlink="http://www.w3.org/1999/xlink" fill="#000000"><g><path d="M 16,0C 10.392,0, 5.846,4.546, 5.846,10.154L 5.846,12 L 4,12 C 2.896,12, 2,12.896, 2,14l0,16 c0,1.104, 0.896,2, 2,2l 24,0 c 1.104,0, 2-0.896, 2-2L 30,14 c0-1.104-0.896-2-2-2l-1.846,0 L 26.154,10.154 C 26.154,4.546, 21.608,0, 16,0z M 9.846,10.154C 9.846,6.76, 12.606,4, 16,4 s 6.154,2.76, 6.154,6.154L 22.154,12 L 9.846,12 L 9.846,10.154 z M 16,26c-2.21,0-4-1.79-4-4c0-2.21, 1.79-4, 4-4s 4,1.79, 4,4C 20,24.21, 18.21,26, 16,26z"></path></g></svg>