<?xml version="1.0" encoding="utf-8"?> <!-- Generator: IcoMoon.io --> <!DOCTYPE svg PUBLIC "-//W3C//DTD SVG 1.1//EN" "http://www.w3.org/Graphics/SVG/1.1/DTD/svg11.dtd"> <svg width="32" height="32.05399703979492" viewBox="0 0 32 32.05399703979492" xmlns="http://www.w3.org/2000/svg" xmlns:xlink="http://www.w3.org/1999/xlink" fill="#000000"><g><path d="M 20.584,0.006C 20.22-0.028, 19.794,0.060, 19.292,0.364c0,0-8.34,7.276-8.702,7.636L 6,8 C 4.896,8, 4,8.896, 4,10l0,0.254 L 4,22 l0,0.254 c0,1.104, 0.896,2, 2,2l 4.59,0 c 0.362,0.36, 8.702,7.38, 8.702,7.38c 0.502,0.304, 0.928,0.392, 1.292,0.358 c 0.74-0.070, 1.26-0.69, 1.418-1.344c 0.010-0.064, 0.010-29.234,0-29.296C 21.844,0.696, 21.322,0.076, 20.584,0.006zM 25.082,19.494c-0.494,0.25-0.692,0.85-0.444,1.344c 0.176,0.348, 0.528,0.55, 0.892,0.55 c 0.152,0, 0.304-0.034, 0.45-0.106C 28.002,20.262, 29.258,18.24, 29.258,16s-1.256-4.262-3.278-5.282 c-0.494-0.25-1.094-0.050-1.342,0.444c-0.248,0.494-0.050,1.094, 0.444,1.344C 26.424,13.182, 27.258,14.52, 27.258,16 S 26.424,18.818, 25.082,19.494z"></path></g></svg>