<?xml version="1.0" encoding="utf-8"?> <!-- Generator: IcoMoon.io --> <!DOCTYPE svg PUBLIC "-//W3C//DTD SVG 1.1//EN" "http://www.w3.org/Graphics/SVG/1.1/DTD/svg11.dtd"> <svg width="32" height="32" viewBox="0 0 32 32" xmlns="http://www.w3.org/2000/svg" xmlns:xlink="http://www.w3.org/1999/xlink" fill="#000000"><g><path d="M 17,2C 8.716,2, 2,8.716, 2,17S 8.716,32, 17,32S 32,25.284, 32,17S 25.284,2, 17,2z M 17,30 C 9.832,30, 4,24.168, 4,17S 9.832,4, 17,4S 30,9.832, 30,17S 24.168,30, 17,30zM 25,16l-16,0 C 8.448,16, 8,16.448, 8,17C 8,17.552, 8.448,18, 9,18l 16,0 C 25.552,18, 26,17.552, 26,17 C 26,16.448, 25.552,16, 25,16zM 25,10l-16,0 C 8.448,10, 8,10.448, 8,11C 8,11.552, 8.448,12, 9,12l 16,0 C 25.552,12, 26,11.552, 26,11 C 26,10.448, 25.552,10, 25,10zM 25,22l-16,0 C 8.448,22, 8,22.448, 8,23C 8,23.552, 8.448,24, 9,24l 16,0 c 0.552,0, 1-0.448, 1-1 C 26,22.448, 25.552,22, 25,22z"></path></g></svg>