<?xml version="1.0" encoding="utf-8"?> <!-- Generator: IcoMoon.io --> <!DOCTYPE svg PUBLIC "-//W3C//DTD SVG 1.1//EN" "http://www.w3.org/Graphics/SVG/1.1/DTD/svg11.dtd"> <svg width="32" height="32" viewBox="0 0 32 32" xmlns="http://www.w3.org/2000/svg" xmlns:xlink="http://www.w3.org/1999/xlink" fill="#000000"><g><path d="M 8,10l0,14 c0,1.104, 0.896,2, 2,2l 14,0 c 1.104,0, 2-0.896, 2-2L 26,10 c0-1.104-0.896-2-2-2L 10,8 C 8.896,8, 8,8.896, 8,10z M 24,24L 10,24 L 10,10 l 14,0 L 24,24 zM 13,18l 8,0 C 21.552,18, 22,17.552, 22,17C 22,16.448, 21.552,16, 21,16l-8,0 C 12.448,16, 12,16.448, 12,17 C 12,17.552, 12.448,18, 13,18z"></path></g></svg>