<?xml version="1.0" encoding="utf-8"?> <!-- Generator: IcoMoon.io --> <!DOCTYPE svg PUBLIC "-//W3C//DTD SVG 1.1//EN" "http://www.w3.org/Graphics/SVG/1.1/DTD/svg11.dtd"> <svg version="1.1" id="Layer_1" xmlns="http://www.w3.org/2000/svg" xmlns:xlink="http://www.w3.org/1999/xlink" x="0px" y="0px" width="32" height="32" viewBox="0 0 32 32" enable-background="new 0 0 16 16" xml:space="preserve" fill="#000000"> <g><path d="M 27.1,10c0,0-6.95,0-9.062,0L 18.038,4.538 c 0.148-2.46-0.56-4.536-2.072-4.534 C 13.334,0.008, 13.408,2.13, 13.408,2.13C 12.94,9.66, 6,12, 6,12l0,16 l 0.922,0.124C 14.488,28.124, 9.948,32, 22.38,32C 31.82,32, 32,23.692, 32,18 S 29.406,10, 27.1,10zM 2,30c 1.104,0, 2-0.896, 2-2L 4,12.062 c0-1.104-0.896-2-2-2s-2,0.896-2,2L0,28 C0,29.104, 0.896,30, 2,30z"></path></g></svg>