<?xml version="1.0" encoding="utf-8"?> <!-- Generator: IcoMoon.io --> <!DOCTYPE svg PUBLIC "-//W3C//DTD SVG 1.1//EN" "http://www.w3.org/Graphics/SVG/1.1/DTD/svg11.dtd"> <svg width="32" height="32" viewBox="0 0 32 32" xmlns="http://www.w3.org/2000/svg" xmlns:xlink="http://www.w3.org/1999/xlink" fill="#000000"><g><path d="M 26.166,16c 1.868-4.29, 0.716-7.018-0.222-8.332c-1.424-1.994-4.018-3.088-6.296-2.65 C 15.688,5.774, 14,8.458, 14,14l0,4.628 L 11.684,16.312c-0.39-0.39-1.024-0.39-1.414,0s-0.39,1.024,0,1.414l 4.024,4.022 c 0.202,0.202, 0.468,0.294, 0.732,0.288c 0.264,0.006, 0.53-0.086, 0.732-0.288l 4.044-4.042c 0.39-0.39, 0.39-1.024,0-1.414 s-1.024-0.39-1.414,0L 16,18.678L 16,14 c0-5.768, 1.986-6.628, 4.020-7.018c 1.306-0.24, 3.196,0.308, 4.294,1.848 c 1.344,1.878, 1.086,4.664-0.726,7.84c-0.192,0.338-0.172,0.756, 0.052,1.072s 0.618,0.476, 0.992,0.408 c 0.242-0.042, 0.964-0.152, 1.42-0.152C 28.23,17.998, 30,19.792, 30,22c0,2.206-1.794,4-4,4l-19.854,0.012C 3.822,25.668, 2,23.466, 2,21 c0-2.456, 1.844-4.57, 4.292-4.92l 0.86-0.124c 0.492-0.070, 0.858-0.492, 0.858-0.99L 7.994,13.902C 8,10.32, 10.208,7.376, 13.25,6.902 C 13.794,6.816, 14.168,6.306, 14.084,5.76C 13.998,5.214, 13.5,4.844, 12.94,4.926C 8.92,5.552, 6,9.326, 5.994,13.898 c0,0.002, 0.016,0.202, 0.016,0.202l0,0 C 2.584,14.59,0,17.556,0,21c0,3.492, 2.516,6.496, 6,7l 20,0 c 3.308,0, 6-2.692, 6-6 C 32,18.728, 29.392,16.060, 26.166,16z"></path></g></svg>