<?xml version="1.0" encoding="utf-8"?> <!-- Generator: IcoMoon.io --> <!DOCTYPE svg PUBLIC "-//W3C//DTD SVG 1.1//EN" "http://www.w3.org/Graphics/SVG/1.1/DTD/svg11.dtd"> <svg width="32" height="32" viewBox="0 0 32 32" xmlns="http://www.w3.org/2000/svg" xmlns:xlink="http://www.w3.org/1999/xlink" fill="#000000"><g><path d="M 17.228,11.688A2.782,2.782 1080 1 0 22.792,11.688A2.782,2.782 1080 1 0 17.228,11.688zM 26,28L 28,28L 28,26L 28,22L 28,16L 20,22L 10,14L 4,20L 4,22L 4,26L 4,28L 6,28 zM 30,4L 2,4 C 0.896,4,0,4.896,0,6l0,24 c0,1.104, 0.896,2, 2,2l 28,0 c 1.104,0, 2-0.896, 2-2L 32,6 C 32,4.896, 31.104,4, 30,4z M 30,30L 2,30 L 2,6 l 28,0 L 30,30 z"></path></g></svg>