<?xml version="1.0" encoding="utf-8"?> <!-- Generator: IcoMoon.io --> <!DOCTYPE svg PUBLIC "-//W3C//DTD SVG 1.1//EN" "http://www.w3.org/Graphics/SVG/1.1/DTD/svg11.dtd"> <svg width="32.119998931884766" height="32" viewBox="0 0 32.119998931884766 32" xmlns="http://www.w3.org/2000/svg" xmlns:xlink="http://www.w3.org/1999/xlink" fill="#000000"><g><path d="M 2,24.254l 4.582,0 c 0.362,0.36, 8.702,7.38, 8.702,7.38C 15.718,31.898, 16.096,32, 16.426,32 c 0.050,0, 0.1-0.002, 0.148-0.006c 0.74-0.070, 1.268-0.69, 1.426-1.344L 18,1.352 C 17.844,0.696, 17.314,0.076, 16.574,0.006 C 16.526,0.002, 16.478,0, 16.426,0C 16.096,0, 15.718,0.102, 15.284,0.364c0,0-8.34,7.276-8.702,7.636L 2,8 C 0.896,8,0,8.896,0,10l0,0.254 L0,22 l0,0.254 C0,23.36, 0.896,24.254, 2,24.254z M 2,22L 2,10.254 L 2,10 l 4.582,0 c 0.512,0, 1.024-0.214, 1.394-0.566C 8.34,9.088, 12.86,5.134, 16,2.394l0,27.23 c-3.12-2.628-7.64-6.446-8.008-6.786c-0.374-0.374-0.882-0.582-1.412-0.582L 2,22.256 L 2,22 zM 31.642,10.822c-0.476-0.476-1.25-0.476-1.726,0l-3.452,3.452l-3.452-3.452 c-0.476-0.476-1.25-0.476-1.726,0c-0.476,0.476-0.476,1.25,0,1.726L 24.738,16l-3.452,3.452c-0.476,0.476-0.476,1.25,0,1.726 c 0.476,0.476, 1.25,0.476, 1.726,0l 3.452-3.452l 3.452,3.452c 0.476,0.476, 1.25,0.476, 1.726,0c 0.476-0.476, 0.476-1.25,0-1.726 L 28.19,16l 3.452-3.452C 32.12,12.072, 32.12,11.298, 31.642,10.822z"></path></g></svg>