<?xml version="1.0" encoding="utf-8"?> <!-- Generator: IcoMoon.io --> <!DOCTYPE svg PUBLIC "-//W3C//DTD SVG 1.1//EN" "http://www.w3.org/Graphics/SVG/1.1/DTD/svg11.dtd"> <svg version="1.1" id="Layer_1" xmlns="http://www.w3.org/2000/svg" xmlns:xlink="http://www.w3.org/1999/xlink" x="0px" y="0px" width="32" height="32" viewBox="0 0 32 32" enable-background="new 0 0 16 16" xml:space="preserve" fill="#000000"> <g><path d="M 6,32l 20,0 c 1.104,0, 2-0.896, 2-2L 28,2 c0-1.104-0.896-2-2-2L 6,0 C 4.896,0, 4,0.896, 4,2l0,28 C 4,31.104, 4.896,32, 6,32z M 22,22c-1.104,0-2-0.896-2-2c0-1.104, 0.896-2, 2-2s 2,0.896, 2,2C 24,21.104, 23.104,22, 22,22z M 24,26c0,1.104-0.896,2-2,2 s-2-0.896-2-2c0-1.104, 0.896-2, 2-2S 24,24.896, 24,26z M 22,16c-1.104,0-2-0.896-2-2c0-1.104, 0.896-2, 2-2s 2,0.896, 2,2 C 24,15.104, 23.104,16, 22,16z M 8,8L 8,4 l 16,0 l0,4 L 8,8 z M 16,22c-1.104,0-2-0.896-2-2c0-1.104, 0.896-2, 2-2s 2,0.896, 2,2C 18,21.104, 17.104,22, 16,22z M 18,26c0,1.104-0.896,2-2,2s-2-0.896-2-2c0-1.104, 0.896-2, 2-2S 18,24.896, 18,26z M 16,16C 14.896,16, 14,15.104, 14,14c0-1.104, 0.896-2, 2-2 s 2,0.896, 2,2C 18,15.104, 17.104,16, 16,16z M 10,12c 1.104,0, 2,0.896, 2,2c0,1.104-0.896,2-2,2S 8,15.104, 8,14C 8,12.896, 8.896,12, 10,12z M 10,18 c 1.104,0, 2,0.896, 2,2c0,1.104-0.896,2-2,2s-2-0.896-2-2C 8,18.896, 8.896,18, 10,18z M 10,24c 1.104,0, 2,0.896, 2,2c0,1.104-0.896,2-2,2 s-2-0.896-2-2C 8,24.896, 8.896,24, 10,24z"></path></g></svg>