<?xml version="1.0" encoding="utf-8"?> <!-- Generator: IcoMoon.io --> <!DOCTYPE svg PUBLIC "-//W3C//DTD SVG 1.1//EN" "http://www.w3.org/Graphics/SVG/1.1/DTD/svg11.dtd"> <svg width="32" height="32" viewBox="0 0 32 32" xmlns="http://www.w3.org/2000/svg" xmlns:xlink="http://www.w3.org/1999/xlink" fill="#000000"><g><path d="M 8.69,17.772C 8.264,18.256, 8.098,18.916, 8.242,19.544c 0.144,0.628, 0.584,1.148, 1.178,1.396 c 1.42,0.594, 3.834,0.97, 6.582,1.046C 16.002,21.99, 16,21.994, 16,22l0,6 c0,1.104, 0.448,4, 1,4S 18,29.104, 18,28l0-6 c0-0.006-0.002-0.010-0.002-0.016c 2.748-0.074, 5.162-0.452, 6.582-1.046c 0.594-0.248, 1.034-0.768, 1.178-1.396 c 0.144-0.628-0.022-1.288-0.448-1.77C 24.49,16.842, 23.058,16.328, 22,16.060l0-10.36 l0,0c 1.046-0.354, 1.934-0.798, 2.636-1.316 c 0.6-0.442, 0.904-1.184, 0.788-1.92s-0.632-1.348-1.34-1.586C 23.108,0.55, 20.888,0, 17,0C 12.89,0, 10.62,0.634, 9.834,0.906 c-0.698,0.242-1.206,0.85-1.32,1.58C 8.4,3.214, 8.698,3.948, 9.288,4.394C 10,4.928, 10.91,5.38, 11.998,5.736l 0.002,0L 12,16.060 C 10.944,16.326, 9.51,16.84, 8.69,17.772z M 12.622,3.836C 11.578,3.494, 10.9,3.104, 10.49,2.794C 11.554,2.426, 13.708,2, 17,2 c 3.228,0, 5.366,0.41, 6.45,0.774c-0.424,0.312-1.096,0.694-2.092,1.032L 20,4.266l0,13.35 l 1.508,0.382 c 1.106,0.28, 1.942,0.688, 2.3,1.096C 22.882,19.48, 20.632,20, 17,20S 11.118,19.48, 10.192,19.094c 0.36-0.408, 1.196-0.816, 2.3-1.096 L 14,17.616L 14,4.286 L 12.622,3.836z"></path></g></svg>