<?xml version="1.0" encoding="utf-8"?> <!-- Generator: IcoMoon.io --> <!DOCTYPE svg PUBLIC "-//W3C//DTD SVG 1.1//EN" "http://www.w3.org/Graphics/SVG/1.1/DTD/svg11.dtd"> <svg width="32" height="32" viewBox="0 0 32 32" xmlns="http://www.w3.org/2000/svg" xmlns:xlink="http://www.w3.org/1999/xlink" fill="#000000"><g><path d="M 31.984,13.834C 31.9,8.926, 27.918,4.552, 23,4.552c-2.844,0-5.35,1.488-7,3.672 C 14.35,6.040, 11.844,4.552, 9,4.552c-4.918,0-8.9,4.374-8.984,9.282L0,13.834 c0,0.030, 0.006,0.058, 0.006,0.088 C 0.006,13.944,0,13.966,0,13.99c0,0.138, 0.034,0.242, 0.040,0.374C 0.48,26.872, 15.874,32, 15.874,32s 15.62-5.122, 16.082-17.616 C 31.964,14.244, 32,14.134, 32,13.99c0-0.024-0.006-0.046-0.006-0.068C 31.994,13.89, 32,13.864, 32,13.834L 31.984,13.834 z"></path></g></svg>