<?xml version="1.0" encoding="utf-8"?> <!-- Generator: IcoMoon.io --> <!DOCTYPE svg PUBLIC "-//W3C//DTD SVG 1.1//EN" "http://www.w3.org/Graphics/SVG/1.1/DTD/svg11.dtd"> <svg version="1.1" id="Layer_1" xmlns="http://www.w3.org/2000/svg" xmlns:xlink="http://www.w3.org/1999/xlink" x="0px" y="0px" width="32" height="32" viewBox="0 0 32 32" enable-background="new 0 0 16 16" xml:space="preserve" fill="#000000"> <g><path d="M 30,10l-2,0 L 28,2 c0-1.104-0.896-2-2-2L 6,0 C 4.896,0, 4,0.896, 4,2l0,8 L 2,10 C 0.896,10,0,10.896,0,12l0,10 c0,1.104, 0.896,2, 2,2l 2,0 l0,6 c0,1.104, 0.896,2, 2,2l 20,0 c 1.104,0, 2-0.896, 2-2l0-6 l 2,0 c 1.104,0, 2-0.896, 2-2L 32,12 C 32,10.896, 31.104,10, 30,10z M 6,20l 20,0 l0,10 L 6,30 L 6,20 z M 26,18L 6,18 c-1.104,0-2,0.896-2,2l0,2 L 2,22 L 2,12 l 28,0 l0,10 l-2,0 l0-2 C 28,18.896, 27.104,18, 26,18z M 6,2l 20,0 l0,8 L 6,10 L 6,2 zM 22,15A1,1 0 1 0 24,15A1,1 0 1 0 22,15zM 4,15A1,1 0 1 0 6,15A1,1 0 1 0 4,15zM 26,15A1,1 0 1 0 28,15A1,1 0 1 0 26,15zM 24,23c0-0.552-0.448-1-1-1l-14,0 C 8.448,22, 8,22.448, 8,23C 8,23.552, 8.448,24, 9,24l 14,0 C 23.552,24, 24,23.552, 24,23zM 23,26l-14,0 C 8.448,26, 8,26.448, 8,27C 8,27.552, 8.448,28, 9,28l 14,0 c 0.552,0, 1-0.448, 1-1 C 24,26.448, 23.552,26, 23,26z"></path></g></svg>