<?xml version="1.0" encoding="utf-8"?> <!-- Generator: IcoMoon.io --> <!DOCTYPE svg PUBLIC "-//W3C//DTD SVG 1.1//EN" "http://www.w3.org/Graphics/SVG/1.1/DTD/svg11.dtd"> <svg width="32" height="32.816001892089844" viewBox="0 0 32 32.816001892089844" xmlns="http://www.w3.org/2000/svg" xmlns:xlink="http://www.w3.org/1999/xlink" fill="#000000"><g><path d="M 9.558,4.056c 1.17-1.17, 3.072-1.17, 4.242,0l 10.726,10.726c 0.528-1.998, 0.034-4.21-1.532-5.776 L 15.922,1.936c-2.344-2.344-6.142-2.344-8.486,0L 5.846,3.526c-2.344,2.344-2.344,6.142,0,8.486l 7.072,7.072 c 1.566,1.566, 3.778,2.060, 5.776,1.532L 7.968,9.89c-1.17-1.17-1.17-3.072,0-4.242L 9.558,4.056zM 16.078,30.064c 2.344,2.344, 6.142,2.344, 8.486,0l 1.59-1.592c 2.344-2.344, 2.344-6.142,0-8.486L 19.082,12.918 c-1.566-1.566-3.778-2.060-5.776-1.532l 10.726,10.726c 1.17,1.17, 1.17,3.072,0,4.242l-1.592,1.592c-1.17,1.17-3.072,1.17-4.242,0 L 7.474,17.218c-0.528,1.998-0.034,4.21, 1.532,5.776L 16.078,30.064z"></path></g></svg>