<?xml version="1.0" encoding="utf-8"?> <!-- Generator: IcoMoon.io --> <!DOCTYPE svg PUBLIC "-//W3C//DTD SVG 1.1//EN" "http://www.w3.org/Graphics/SVG/1.1/DTD/svg11.dtd"> <svg width="32" height="32" viewBox="0 0 32 32" xmlns="http://www.w3.org/2000/svg" xmlns:xlink="http://www.w3.org/1999/xlink" fill="#000000"><g><path d="M 24.966,20l-0.758-2l-2.14,0 L 9.932,18 l-2.14,0 l-0.758,2L 4,28l 24,0 L 24.966,20z M 9.174,20l 13.654,0 l 2.276,6L 6.898,26 L 9.174,20zM 20.552,14l 2.14,0 l-0.758-2L 17.866,1.278C 17.568,0.508, 16.826,0, 16,0S 14.432,0.508, 14.134,1.278L 10.068,12L 9.31,14 l 2.14,0 L 20.552,14 z M 16,2l 3.792,10L 12.208,12 L 16,2zM 30.984,30L 1.016,30 C 0.454,30,0,30.424,0,30.984S 0.454,32, 1.016,32l 29.968,0 C 31.546,32, 32,31.546, 32,30.984 S 31.546,30, 30.984,30z"></path></g></svg>