<?xml version="1.0" encoding="utf-8"?> <!-- Generator: IcoMoon.io --> <!DOCTYPE svg PUBLIC "-//W3C//DTD SVG 1.1//EN" "http://www.w3.org/Graphics/SVG/1.1/DTD/svg11.dtd"> <svg width="32" height="32.06399917602539" viewBox="0 0 32 32.06399917602539" xmlns="http://www.w3.org/2000/svg" xmlns:xlink="http://www.w3.org/1999/xlink" fill="#000000"><g><path d="M 27.176,16.156c 0.142-0.38, 0.26-0.772, 0.362-1.166c 0.018-0.068, 0.040-0.132, 0.056-0.2 c 0.090-0.37, 0.154-0.748, 0.208-1.128c 0.012-0.088, 0.034-0.176, 0.044-0.264C 27.9,12.936, 27.93,12.47, 27.93,12c0-6.616-5.384-12-12-12 s-12,5.384-12,12c0,0.47, 0.030,0.936, 0.086,1.396C 4.026,13.486, 4.046,13.572, 4.058,13.66c 0.054,0.38, 0.118,0.758, 0.208,1.128 c 0.016,0.068, 0.038,0.134, 0.056,0.2c 0.102,0.394, 0.22,0.786, 0.362,1.166c 0.014,0.036, 0.030,0.072, 0.042,0.108 c 0.158,0.41, 0.334,0.812, 0.536,1.202C 5.27,17.48, 5.278,17.494, 5.286,17.508c 0.21,0.404, 0.442,0.796, 0.698,1.176 c 0.008,0.012, 0.016,0.022, 0.022,0.034c 0.25,0.37, 0.522,0.724, 0.812,1.066c 0.024,0.028, 0.046,0.054, 0.070,0.082 c 0.264,0.306, 0.55,0.596, 0.846,0.876c 0.066,0.062, 0.128,0.124, 0.196,0.184c 0.088,0.078, 0.166,0.166, 0.258,0.242 c 0.054,0.046, 0.12,0.076, 0.18,0.114c 0.198,0.164, 0.386,0.336, 0.596,0.488c 0.084,0.060, 0.136,0.118, 0.208,0.178 C 10.552,23.094, 9.878,24, 11.414,24c 0.214,0, 7.016,0, 9.032,0c 1.534,0, 0.862-0.906, 2.244-2.052c 0.072-0.060, 0.124-0.116, 0.208-0.178 c 0.21-0.152, 0.398-0.324, 0.596-0.488c 0.058-0.040, 0.124-0.068, 0.18-0.114c 0.090-0.076, 0.17-0.164, 0.258-0.242 c 0.066-0.060, 0.13-0.124, 0.196-0.184c 0.296-0.28, 0.58-0.57, 0.846-0.876c 0.024-0.028, 0.046-0.054, 0.070-0.082 c 0.29-0.342, 0.562-0.696, 0.812-1.066c 0.008-0.012, 0.016-0.022, 0.022-0.034c 0.254-0.378, 0.486-0.77, 0.696-1.174 c 0.008-0.014, 0.016-0.030, 0.024-0.044c 0.202-0.39, 0.378-0.792, 0.536-1.202C 27.146,16.226, 27.162,16.192, 27.176,16.156z M 23,12.094 c-0.552,0-1-0.448-1-1C 22,8.046, 19.25,6, 17,6C 16.448,6, 16,5.552, 16,5S 16.448,4, 17,4C 20.438,4, 24,6.532, 24,11.094 C 24,11.646, 23.552,12.094, 23,12.094zM 15.808,30L 13.61,30 L 11.414,30 l 3.606,1.844c 0.286,0.146, 0.598,0.22, 0.91,0.22c 0.308,0, 0.618-0.072, 0.902-0.214 L 20.49,30L 18.272,30 L 16.054,30 L 15.808,30 zM 22,27c0-0.552-0.448-1-1-1l-10,0 C 10.448,26, 10,26.448, 10,27C 10,27.552, 10.448,28, 11,28l 10,0 C 21.552,28, 22,27.552, 22,27z"></path></g></svg>