<?xml version="1.0" encoding="utf-8"?> <!-- Generator: IcoMoon.io --> <!DOCTYPE svg PUBLIC "-//W3C//DTD SVG 1.1//EN" "http://www.w3.org/Graphics/SVG/1.1/DTD/svg11.dtd"> <svg width="32" height="32" viewBox="0 0 32 32" xmlns="http://www.w3.org/2000/svg" xmlns:xlink="http://www.w3.org/1999/xlink" fill="#000000"><g><path d="M 11,16l 16,0 C 27.552,16, 28,15.552, 28,15C 28,14.448, 27.552,14, 27,14l-16,0 C 10.448,14, 10,14.448, 10,15 C 10,15.552, 10.448,16, 11,16zM 11,8l 16,0 C 27.552,8, 28,7.552, 28,7C 28,6.448, 27.552,6, 27,6l-16,0 C 10.448,6, 10,6.448, 10,7 C 10,7.552, 10.448,8, 11,8zM 11,24l 16,0 c 0.552,0, 1-0.448, 1-1c0-0.552-0.448-1-1-1l-16,0 C 10.448,22, 10,22.448, 10,23 C 10,23.552, 10.448,24, 11,24zM 4,7A1,1 1080 1 0 6,7A1,1 1080 1 0 4,7zM 4,15A1,1 1080 1 0 6,15A1,1 1080 1 0 4,15zM 4,23A1,1 1080 1 0 6,23A1,1 1080 1 0 4,23z"></path></g></svg>