<?xml version="1.0" encoding="utf-8"?> <!-- Generator: IcoMoon.io --> <!DOCTYPE svg PUBLIC "-//W3C//DTD SVG 1.1//EN" "http://www.w3.org/Graphics/SVG/1.1/DTD/svg11.dtd"> <svg width="32" height="32" viewBox="0 0 32 32" xmlns="http://www.w3.org/2000/svg" xmlns:xlink="http://www.w3.org/1999/xlink" fill="#000000"><g><path d="M 27,14l-16,0 C 10.448,14, 10,14.448, 10,15C 10,15.552, 10.448,16, 11,16l 16,0 C 27.552,16, 28,15.552, 28,15 C 28,14.448, 27.552,14, 27,14zM 27,6l-16,0 C 10.448,6, 10,6.448, 10,7C 10,7.552, 10.448,8, 11,8l 16,0 C 27.552,8, 28,7.552, 28,7 C 28,6.448, 27.552,6, 27,6zM 27,22l-16,0 C 10.448,22, 10,22.448, 10,23C 10,23.552, 10.448,24, 11,24l 16,0 c 0.552,0, 1-0.448, 1-1 C 28,22.448, 27.552,22, 27,22zM 6.96,9.466L 6.96,4.534L 6.39,4.534L 5.312,5.11L 5.442,5.618L 6.3,5.156L 6.314,5.156L 6.314,9.466 zM 5.374,16.548L 4.852,17.056l0,0.41 L 8,17.466 L 8,16.912 L 5.784,16.912 L 5.784,16.898 l 0.394-0.364c 1.040-1.002, 1.7-1.738, 1.7-2.648 c0-0.706-0.448-1.434-1.51-1.434c-0.57,0-1.054,0.212-1.396,0.502l 0.212,0.47c 0.228-0.19, 0.6-0.418, 1.048-0.418 c 0.736,0, 0.978,0.462, 0.978,0.964C 7.204,14.712, 6.634,15.35, 5.374,16.548zM 6.194,24.928c-0.462,0-0.902-0.19-1.092-0.31l-0.182,0.516c 0.242,0.16, 0.728,0.334, 1.282,0.334 c 1.184,0, 1.798-0.69, 1.798-1.48c0-0.69-0.494-1.146-1.1-1.268l0-0.014 c 0.608-0.22, 0.91-0.652, 0.91-1.162 c0-0.6-0.44-1.176-1.412-1.176c-0.532,0-1.032,0.19-1.29,0.38l 0.174,0.486c 0.212-0.152, 0.592-0.326, 0.986-0.326 c 0.614,0, 0.866,0.35, 0.866,0.744c0,0.584-0.614,0.834-1.1,0.834L 5.662,22.486 l0,0.5 l 0.372,0 c 0.646,0, 1.268,0.296, 1.274,0.986 C 7.318,24.382, 7.052,24.928, 6.194,24.928z"></path></g></svg>