<?xml version="1.0" encoding="utf-8"?> <!-- Generator: IcoMoon.io --> <!DOCTYPE svg PUBLIC "-//W3C//DTD SVG 1.1//EN" "http://www.w3.org/Graphics/SVG/1.1/DTD/svg11.dtd"> <svg width="32" height="32" viewBox="0 0 32 32" xmlns="http://www.w3.org/2000/svg" xmlns:xlink="http://www.w3.org/1999/xlink" fill="#000000"><g><path d="M 30,6l-8,0 c-1.104,0-2,0.896-2,2c0,0-0.26,1.834-2,2L 4,10 C 2.896,10, 2,10.896, 2,12l0,18 c0,1.104, 0.896,2, 2,2l 26,0 c 1.104,0, 2-0.896, 2-2L 32,8 C 32,6.896, 31.104,6, 30,6z M 23,22L 18,22 l0,5 C 18,27.552, 17.552,28, 17,28S 16,27.552, 16,27L 16,22 L 11,22 C 10.448,22, 10,21.552, 10,21C 10,20.448, 10.448,20, 11,20L 16,20 L 16,15 C 16,14.448, 16.448,14, 17,14S 18,14.448, 18,15L 18,20 l 5,0 c 0.552,0, 1,0.448, 1,1 C 24,21.552, 23.552,22, 23,22z"></path></g></svg>