<?xml version="1.0" encoding="utf-8"?> <!-- Generator: IcoMoon.io --> <!DOCTYPE svg PUBLIC "-//W3C//DTD SVG 1.1//EN" "http://www.w3.org/Graphics/SVG/1.1/DTD/svg11.dtd"> <svg width="32" height="32" viewBox="0 0 32 32" xmlns="http://www.w3.org/2000/svg" xmlns:xlink="http://www.w3.org/1999/xlink" fill="#000000"><g><path d="M 16,32c 8.836,0, 16-7.164, 16-16s-7.164-16-16-16S0,7.164,0,16S 7.164,32, 16,32z M 16,2c 7.72,0, 14,6.28, 14,14s-6.28,14-14,14 s-14-6.28-14-14S 8.28,2, 16,2zM 12,22c 1.104,0, 2-0.896, 2-2L 14,12 c0-1.104-0.896-2-2-2S 10,10.896, 10,12l0,8 C 10,21.104, 10.896,22, 12,22zM 20,22c 1.104,0, 2-0.896, 2-2L 22,12 c0-1.104-0.896-2-2-2S 18,10.896, 18,12l0,8 C 18,21.104, 18.896,22, 20,22z"></path></g></svg>