<?xml version="1.0" encoding="utf-8"?> <!-- Generator: IcoMoon.io --> <!DOCTYPE svg PUBLIC "-//W3C//DTD SVG 1.1//EN" "http://www.w3.org/Graphics/SVG/1.1/DTD/svg11.dtd"> <svg width="32" height="32" viewBox="0 0 32 32" xmlns="http://www.w3.org/2000/svg" xmlns:xlink="http://www.w3.org/1999/xlink" fill="#000000"><g><path d="M 16.084,0c-8.836,0-16,7.164-16,16s 7.164,16, 16,16s 16-7.164, 16-16S 24.92,0, 16.084,0z M 23.496,11.574l-7.664,11.714 c-0.002,0.002-0.006,0.004-0.006,0.006c-0.040,0.060-0.062,0.128-0.112,0.184c-0.070,0.076-0.16,0.116-0.24,0.174 c-0.020,0.014-0.040,0.030-0.062,0.044c-0.124,0.078-0.252,0.13-0.392,0.164c-0.046,0.012-0.088,0.024-0.136,0.032 c-0.114,0.016-0.222,0.016-0.336,0.004c-0.080-0.006-0.156-0.016-0.234-0.036c-0.080-0.022-0.154-0.056-0.23-0.092 c-0.064-0.030-0.132-0.038-0.192-0.076c-0.044-0.028-0.068-0.072-0.106-0.106c-0.016-0.014-0.036-0.018-0.052-0.032L 9.272,19.428 C 8.704,18.902, 8.67,18.016, 9.194,17.45s 1.41-0.602, 1.978-0.078l 3.23,2.988l 6.75-10.318c 0.424-0.646, 1.29-0.828, 1.938-0.406 C 23.738,10.060, 23.92,10.928, 23.496,11.574z"></path></g></svg>