<?xml version="1.0" encoding="utf-8"?> <!-- Generator: IcoMoon.io --> <!DOCTYPE svg PUBLIC "-//W3C//DTD SVG 1.1//EN" "http://www.w3.org/Graphics/SVG/1.1/DTD/svg11.dtd"> <svg version="1.1" id="Layer_1" xmlns="http://www.w3.org/2000/svg" xmlns:xlink="http://www.w3.org/1999/xlink" x="0px" y="0px" width="32" height="32" viewBox="0 0 32 32" enable-background="new 0 0 16 16" xml:space="preserve" fill="#000000"> <g><path d="M 30,6L 2,6 C 0.896,6,0,6.896,0,8l0,18 c0,1.104, 0.896,2, 2,2l 28,0 c 1.104,0, 2-0.896, 2-2L 32,8 C 32,6.896, 31.104,6, 30,6z M 27.166,18L 15,18 C 14.448,18, 14,17.552, 14,17C 14,16.448, 14.448,16, 15,16l 12.166,0 c 0.552,0, 1,0.448, 1,1C 28.166,17.552, 27.718,18, 27.166,18z M 28.166,21c0,0.552-0.448,1-1,1L 15,22 C 14.448,22, 14,21.552, 14,21C 14,20.448, 14.448,20, 15,20l 12.166,0 C 27.718,20, 28.166,20.448, 28.166,21z M 27.166,14L 15,14 C 14.448,14, 14,13.552, 14,13C 14,12.448, 14.448,12, 15,12l 12.166,0 c 0.552,0, 1,0.448, 1,1C 28.166,13.552, 27.718,14, 27.166,14z M 8.048,15.798C 10.23,15.798, 12,18.17, 12,21.098s-7.906,2.928-7.906,0 S 5.864,15.798, 8.048,15.798z M 5.582,12.416C 5.582,11.082, 6.662,10, 7.996,10c 1.334,0, 2.416,1.082, 2.416,2.416 c0,1.334-1.082,2.416-2.416,2.416C 6.662,14.832, 5.582,13.75, 5.582,12.416z"></path></g></svg>