<?xml version="1.0" encoding="utf-8"?> <!-- Generator: IcoMoon.io --> <!DOCTYPE svg PUBLIC "-//W3C//DTD SVG 1.1//EN" "http://www.w3.org/Graphics/SVG/1.1/DTD/svg11.dtd"> <svg width="32" height="32" viewBox="0 0 32 32" xmlns="http://www.w3.org/2000/svg" xmlns:xlink="http://www.w3.org/1999/xlink" fill="#000000"><g><path d="M 29.058,2.010c-0.018,0-0.036,0-0.054,0c-0.016,0-0.030-0.002-0.046,0L 16.384,2.010 C 16.078,2.024, 15.382,2.502, 15.292,2.592L 0.584,17.3c-0.78,0.78-0.78,2.044,0,2.824l 11.292,11.292C 12.268,31.806, 12.778,32, 13.288,32 c 0.51,0, 1.022-0.194, 1.412-0.584l 14.708-14.708C 29.498,16.618, 30,16, 30,15.616L 30,3.002 C 30.028,2.444, 29.606,2.010, 29.058,2.010z M 27,6 C 26.448,6, 26,5.552, 26,5C 26,4.448, 26.448,4, 27,4S 28,4.448, 28,5C 28,5.552, 27.552,6, 27,6z"></path></g></svg>