<?xml version="1.0" encoding="utf-8"?> <!-- Generator: IcoMoon.io --> <!DOCTYPE svg PUBLIC "-//W3C//DTD SVG 1.1//EN" "http://www.w3.org/Graphics/SVG/1.1/DTD/svg11.dtd"> <svg width="32" height="32" viewBox="0 0 32 32" xmlns="http://www.w3.org/2000/svg" xmlns:xlink="http://www.w3.org/1999/xlink" fill="#000000"><g><path d="M 5.234,31.848C 5.482,31.95, 5.742,32, 6,32c 0.52,0, 1.032-0.204, 1.414-0.586L 16,22.828l 8.586,8.586 C 24.968,31.796, 25.48,32, 26,32c 0.258,0, 0.518-0.050, 0.764-0.152C 27.512,31.538, 28,30.808, 28,30L 28,2 c0-1.104-0.896-2-2-2L 6,0 C 4.896,0, 4,0.896, 4,2l0,28 C 4,30.808, 4.488,31.538, 5.234,31.848z M 16,20l-10,10L 6,8 l 20,0 l0,22 L 16,20z M 26,2l0,4 L 6,6 L 6,2 L 26,2 z"></path></g></svg>