<?xml version="1.0" encoding="utf-8"?> <!-- Generator: IcoMoon.io --> <!DOCTYPE svg PUBLIC "-//W3C//DTD SVG 1.1//EN" "http://www.w3.org/Graphics/SVG/1.1/DTD/svg11.dtd"> <svg width="32" height="32" viewBox="0 0 32 32" xmlns="http://www.w3.org/2000/svg" xmlns:xlink="http://www.w3.org/1999/xlink" fill="#000000"><g><path d="M 16,32c 5.158,0, 9.734-2.452, 12.66-6.242L 16,16L 16,0 C 7.164,0,0,7.164,0,16S 7.164,32, 16,32z M 14,2.142L 14,16 c0,0.62, 0.288,1.206, 0.778,1.584l 10.964,8.452C 23.144,28.576, 19.686,30, 16,30c-7.72,0-14-6.28-14-14C 2,8.96, 7.224,3.116, 14,2.142zM 18.75,0.268l0,14.31 l 11.424,8.806C 31.334,21.174, 32,18.668, 32,16C 32,8.104, 26.272,1.574, 18.75,0.268z"></path></g></svg>