<?xml version="1.0" encoding="utf-8"?> <!-- Generator: IcoMoon.io --> <!DOCTYPE svg PUBLIC "-//W3C//DTD SVG 1.1//EN" "http://www.w3.org/Graphics/SVG/1.1/DTD/svg11.dtd"> <svg version="1.1" id="Layer_1" xmlns="http://www.w3.org/2000/svg" xmlns:xlink="http://www.w3.org/1999/xlink" x="0px" y="0px" width="32.02199935913086" height="32" viewBox="0 0 32.02199935913086 32" enable-background="new 0 0 16 16" xml:space="preserve" fill="#000000"> <g><path d="M 25.89,10.004c 0.056-0.836, 0.090-1.514, 0.108-1.92c 0.022-0.544-0.178-1.074-0.554-1.468S 24.544,6, 24,6L 2,6 C 1.456,6, 0.934,6.222, 0.556,6.616S-0.020,7.54, 0.002,8.084c 0.11,2.642, 0.854,15.996, 4.664,19.406C 5.032,27.818, 5.508,28, 6,28l 14,0 c 0.492,0, 0.968-0.182, 1.334-0.51c 1.194-1.070, 2.088-3.116, 2.754-5.504c 0.99-0.004, 1.674-0.006, 1.754-0.006 c 3.402,0, 6.16-2.48, 6.16-5.99C 32,11.224, 27.88,10.022, 25.89,10.004z M 25.84,18.98l-0.634,0.002c-0.12,0-0.272,0-0.42,0.002 c 0.398-2.050, 0.67-4.152, 0.854-5.984l 0.2,0 c 0.528,0, 3.16,0.144, 3.16,2.99C 29,18.044, 27.362,18.98, 25.84,18.98z"></path></g></svg>