<?xml version="1.0" encoding="utf-8"?> <!-- Generator: IcoMoon.io --> <!DOCTYPE svg PUBLIC "-//W3C//DTD SVG 1.1//EN" "http://www.w3.org/Graphics/SVG/1.1/DTD/svg11.dtd"> <svg width="32" height="32" viewBox="0 0 32 32" xmlns="http://www.w3.org/2000/svg" xmlns:xlink="http://www.w3.org/1999/xlink" fill="#000000"><g><path d="M 16,0C 7.164,0,0,7.164,0,16s 7.164,16, 16,16s 16-7.164, 16-16S 24.836,0, 16,0z M 24.026,15.708 c-0.124,2.052-1.050,5.124-4.756,8.114c-0.178,0.142-0.386,0.212-0.594,0.212c-0.29,0-0.576-0.134-0.766-0.39 c-0.328-0.44-0.252-1.072, 0.172-1.412c 3.018-2.434, 3.844-4.818, 3.99-6.454c-0.426,0.248-0.908,0.4-1.43,0.4 c-1.628,0-2.946-1.37-2.946-3.060c0-1.69, 1.318-3.060, 2.946-3.060c 0.368,0, 0.706,0.096, 1.028,0.226L 21.658,10.26 c0,0, 0.142,0.052, 0.34,0.162c 0.010,0.006, 0.020,0.008, 0.030,0.012c 0.006,0.004, 0.010,0.008, 0.016,0.012 c 0.136,0.078, 0.292,0.182, 0.466,0.33c 0.074,0.064, 0.136,0.138, 0.204,0.208C 23.44,11.706, 24.236,13.084, 24.026,15.708z M 10.944,16.178 c-1.628,0-2.946-1.37-2.946-3.060c0-1.69, 1.32-3.060, 2.946-3.060c 0.368,0, 0.706,0.096, 1.028,0.226L 11.962,10.26 c0,0, 0.142,0.052, 0.34,0.162c 0.010,0.006, 0.020,0.008, 0.030,0.012c 0.006,0.004, 0.010,0.008, 0.016,0.012 C 12.484,10.524, 12.64,10.628, 12.814,10.776c 0.074,0.064, 0.136,0.138, 0.204,0.208c 0.726,0.722, 1.524,2.1, 1.312,4.726 c-0.124,2.052-1.050,5.124-4.756,8.114c-0.178,0.142-0.386,0.212-0.594,0.212c-0.29,0-0.576-0.134-0.766-0.39 c-0.328-0.44-0.252-1.072, 0.172-1.412c 3.018-2.434, 3.844-4.818, 3.99-6.454C 11.948,16.024, 11.466,16.178, 10.944,16.178z"></path></g></svg>