<?xml version="1.0" encoding="utf-8"?> <!-- Generator: IcoMoon.io --> <!DOCTYPE svg PUBLIC "-//W3C//DTD SVG 1.1//EN" "http://www.w3.org/Graphics/SVG/1.1/DTD/svg11.dtd"> <svg width="32" height="32.05399703979492" viewBox="0 0 32 32.05399703979492" xmlns="http://www.w3.org/2000/svg" xmlns:xlink="http://www.w3.org/1999/xlink" fill="#000000"><g><path d="M 2,24.254l 4.59,0 c 0.362,0.36, 8.702,7.38, 8.702,7.38c 0.502,0.304, 0.928,0.392, 1.292,0.358 c 0.74-0.070, 1.26-0.69, 1.418-1.344C 18.010,30.584, 18.010,1.416, 18,1.352C 17.844,0.696, 17.322,0.076, 16.584,0.006 C 16.22-0.028, 15.794,0.060, 15.292,0.364c0,0-8.34,7.276-8.702,7.636L 2,8 C 0.896,8,0,8.896,0,10l0,0.254 L0,22 l0,0.254 C0,23.36, 0.896,24.254, 2,24.254zM 21.082,19.494c-0.494,0.25-0.692,0.85-0.444,1.344c 0.176,0.348, 0.528,0.55, 0.892,0.55 c 0.152,0, 0.304-0.034, 0.45-0.106C 24.002,20.262, 25.258,18.24, 25.258,16s-1.256-4.262-3.278-5.282 c-0.494-0.25-1.092-0.050-1.342,0.444c-0.248,0.494-0.050,1.094, 0.444,1.344C 22.424,13.182, 23.258,14.52, 23.258,16 S 22.424,18.818, 21.082,19.494zM 19.706,27.478c 0.094,0.478, 0.512,0.808, 0.98,0.808c 0.064,0, 0.128-0.006, 0.194-0.018 C 26.744,27.124, 31,21.964, 31,16s-4.256-11.124-10.122-12.268C 20.344,3.624, 19.81,3.98, 19.706,4.522 C 19.6,5.064, 19.954,5.59, 20.496,5.696C 25.424,6.656, 29,10.99, 29,16s-3.576,9.344-8.504,10.304 C 19.954,26.41, 19.6,26.936, 19.706,27.478z"></path></g></svg>