<?xml version="1.0" encoding="utf-8"?> <!-- Generator: IcoMoon.io --> <!DOCTYPE svg PUBLIC "-//W3C//DTD SVG 1.1//EN" "http://www.w3.org/Graphics/SVG/1.1/DTD/svg11.dtd"> <svg width="32.00199890136719" height="32" viewBox="0 0 32.00199890136719 32" xmlns="http://www.w3.org/2000/svg" xmlns:xlink="http://www.w3.org/1999/xlink" fill="#000000"><g><path d="M 2.062,32l 27.812,0 c 0.702,0, 1.354-0.368, 1.716-0.972c 0.362-0.602, 0.38-1.35, 0.050-1.97l-13.876-26 C 17.418,2.408, 16.74,2, 16.002,2L 16,2 C 15.262,2, 14.586,2.406, 14.238,3.056l-13.938,26c-0.332,0.62-0.314,1.368, 0.046,1.972 C 0.708,31.63, 1.36,32, 2.062,32z M 16,24c 1.104,0, 2,0.896, 2,2c0,1.104-0.896,2-2,2s-2-0.896-2-2C 14,24.896, 14.896,24, 16,24z M 14,20.032 l0-8 c0-1.104, 0.896-2, 2-2s 2,0.896, 2,2l0,8 c0,1.104-0.896,2-2,2S 14,21.136, 14,20.032z"></path></g></svg>