<?xml version="1.0" encoding="utf-8"?> <!-- Generator: IcoMoon.io --> <!DOCTYPE svg PUBLIC "-//W3C//DTD SVG 1.1//EN" "http://www.w3.org/Graphics/SVG/1.1/DTD/svg11.dtd"> <svg width="32" height="32" viewBox="0 0 32 32" xmlns="http://www.w3.org/2000/svg" xmlns:xlink="http://www.w3.org/1999/xlink" fill="#000000"><g><path d="M 21.696,12L 17.884,1.328C 17.6,0.532, 16.846,0, 16,0S 14.4,0.532, 14.116,1.328L 10.304,12L 21.696,12 zM 26.696,26L 23.838,18L 8.162,18L 5.304,26 zM 2,28c-1.104,0-2,0.896-2,2c0,1.104, 0.896,2, 2,2l 4,0 l 20,0 l 4,0 c 1.104,0, 2-0.896, 2-2c0-1.104-0.896-2-2-2L 2,28 z"></path></g></svg>