<?xml version="1.0" encoding="utf-8"?> <!-- Generator: IcoMoon.io --> <!DOCTYPE svg PUBLIC "-//W3C//DTD SVG 1.1//EN" "http://www.w3.org/Graphics/SVG/1.1/DTD/svg11.dtd"> <svg width="32.784000396728516" height="32" viewBox="0 0 32.784000396728516 32" xmlns="http://www.w3.org/2000/svg" xmlns:xlink="http://www.w3.org/1999/xlink" fill="#000000"><g><path d="M 17.066,2.134c-3.822,0-7.644,1.458-10.56,4.374c-5.832,5.832-5.832,15.288,0,21.118 C 9.424,30.542, 13.244,32, 17.066,32s 7.644-1.458, 10.56-4.374c 5.832-5.832, 5.832-15.288,0-21.118C 24.71,3.592, 20.888,2.134, 17.066,2.134z M 26.212,26.212C 23.77,28.654, 20.522,30, 17.066,30c-3.454,0-6.702-1.346-9.146-3.788c-2.442-2.442-3.788-5.69-3.788-9.146 s 1.346-6.702, 3.788-9.146c 2.442-2.442, 5.69-3.788, 9.146-3.788c 3.454,0, 6.702,1.346, 9.146,3.788S 30,13.612, 30,17.066 S 28.654,23.77, 26.212,26.212zM 23,16L 18,16 L 18,8.986 c0-0.552-0.448-1-1-1S 16,8.434, 16,8.986l0,8.008 c0,0,0,0.002,0,0.002L 16,17 C 16,17.552, 16.448,18, 17,18l 6,0 C 23.552,18, 24,17.552, 24,17C 24,16.448, 23.552,16, 23,16z"></path></g></svg>