<?xml version="1.0" encoding="utf-8"?> <!-- Generator: IcoMoon.io --> <!DOCTYPE svg PUBLIC "-//W3C//DTD SVG 1.1//EN" "http://www.w3.org/Graphics/SVG/1.1/DTD/svg11.dtd"> <svg width="32.24800109863281" height="32.24800109863281" viewBox="0 0 32.24800109863281 32.24800109863281" xmlns="http://www.w3.org/2000/svg" xmlns:xlink="http://www.w3.org/1999/xlink" fill="#000000"><g><path d="M 19,0C 11.82,0, 6,5.82, 6,13c0,3.090, 1.084,5.926, 2.884,8.158l-8.592,8.592c-0.54,0.54-0.54,1.418,0,1.958 c 0.54,0.54, 1.418,0.54, 1.958,0l 8.592-8.592C 13.074,24.916, 15.91,26, 19,26c 7.18,0, 13-5.82, 13-13S 26.18,0, 19,0z M 19,24 C 12.934,24, 8,19.066, 8,13S 12.934,2, 19,2S 30,6.934, 30,13S 25.066,24, 19,24z"></path></g></svg>