<?xml version="1.0" encoding="utf-8"?> <!-- Generator: IcoMoon.io --> <!DOCTYPE svg PUBLIC "-//W3C//DTD SVG 1.1//EN" "http://www.w3.org/Graphics/SVG/1.1/DTD/svg11.dtd"> <svg width="32" height="32" viewBox="0 0 32 32" xmlns="http://www.w3.org/2000/svg" xmlns:xlink="http://www.w3.org/1999/xlink" fill="#000000"><g><path d="M 23.214,0.586C 22.838,0.21, 22.33,0, 21.798,0L 10.202,0 c-0.53,0-1.040,0.21-1.414,0.586l-8.2,8.202 C 0.21,9.162,0,9.67,0,10.202l0,11.598 c0,0.53, 0.21,1.040, 0.586,1.414l 8.2,8.202C 9.162,31.79, 9.67,32, 10.202,32l 11.598,0 c 0.53,0, 1.040-0.21, 1.414-0.586l 8.2-8.202C 31.79,22.838, 32,22.33, 32,21.798L 32,10.202 c0-0.53-0.21-1.040-0.586-1.414L 23.214,0.586z M 30,21.798L 21.798,30L 10.202,30 L 2,21.798L 2,10.202 L 10.202,2l 11.598,0 L 30,10.202L 30,21.798 zM 16,6C 14.896,6, 14,6.896, 14,8l0,10 c0,1.104, 0.896,2, 2,2s 2-0.896, 2-2L 18,8 C 18,6.896, 17.104,6, 16,6zM 14,24A2,2 1080 1 0 18,24A2,2 1080 1 0 14,24z"></path></g></svg>