<?xml version="1.0" encoding="utf-8"?> <!-- Generator: IcoMoon.io --> <!DOCTYPE svg PUBLIC "-//W3C//DTD SVG 1.1//EN" "http://www.w3.org/Graphics/SVG/1.1/DTD/svg11.dtd"> <svg width="32" height="32" viewBox="0 0 32 32" xmlns="http://www.w3.org/2000/svg" xmlns:xlink="http://www.w3.org/1999/xlink" fill="#000000"><g><path d="M 30,20L 30,16 c0-9.192-7.042-14-14-14C 9.212,2, 2,6.906, 2,16l0,4 c-1.104,0-2,0.896-2,2l0,4 c0,1.104, 0.896,2, 2,2 c0,1.104, 0.896,2, 2,2s 2-0.896, 2-2l0-8 c0-1.104-0.896-2-2-2L 4,16 c0-7.878, 6.038-12, 12-12c 5.78,0, 12,3.754, 12,12l0,2 c-1.104,0-2,0.896-2,2l0,8 c0,1.104, 0.896,2, 2,2s 2-0.896, 2-2c 1.104,0, 2-0.896, 2-2l0-4 C 32,20.896, 31.104,20, 30,20z"></path></g></svg>