<?xml version="1.0" encoding="utf-8"?> <!-- Generator: IcoMoon.io --> <!DOCTYPE svg PUBLIC "-//W3C//DTD SVG 1.1//EN" "http://www.w3.org/Graphics/SVG/1.1/DTD/svg11.dtd"> <svg width="32" height="32" viewBox="0 0 32 32" xmlns="http://www.w3.org/2000/svg" xmlns:xlink="http://www.w3.org/1999/xlink" fill="#000000"><g><path d="M 31.966,3.896C 31.878,2.866, 31.046,2, 30,2L 2,2 C 0.954,2, 0.122,2.866, 0.034,3.896L0,3.896 l0,0.166 L0,8 l0,14.166 L0,24 l0,6 c0,1.104, 0.896,2, 2,2l 28,0 c 1.104,0, 2-0.896, 2-2L 32,8 L 32,4.062 L 32,3.896 L 31.966,3.896 z M 12,14L 12,8 l 8,0 l0,6 L 12,14 z M 20,16l0,6.166 L 12,22.166 L 12,16 L 20,16 z M 10,8l0,6 L 2,14 L 2,8 L 10,8 z M 2,16l 8,0 l0,6.166 L 2,22.166 L 2,16 z M 2,30l0-6 l 8,0 l0,6 L 2,30 z M 12,30l0-6 l 8,0 l0,6 L 12,30 z M 30,30l-8,0 l0-6 l 8,0 L 30,30 z M 30,22.166l-8,0 L 22,16 l 8,0 L 30,22.166 z M 30,14l-8,0 L 22,8 l 8,0 L 30,14 z"></path></g></svg>