<?xml version="1.0" encoding="utf-8"?> <!-- Generator: IcoMoon.io --> <!DOCTYPE svg PUBLIC "-//W3C//DTD SVG 1.1//EN" "http://www.w3.org/Graphics/SVG/1.1/DTD/svg11.dtd"> <svg version="1.1" id="Layer_1" xmlns="http://www.w3.org/2000/svg" xmlns:xlink="http://www.w3.org/1999/xlink" x="0px" y="0px" width="32" height="32" viewBox="0 0 32 32" enable-background="new 0 0 16 16" xml:space="preserve" fill="#000000"> <g><path d="M 30,20L 30,16 c0-1.104-0.896-2-2-2L 18,14 L 18,10 l 6,0 c 1.104,0, 2-0.896, 2-2L 26,6 c0-1.104-0.896-2-2-2L 10,4 C 8.896,4, 8,4.896, 8,6l0,2 c0,1.104, 0.896,2, 2,2l 6,0 l0,4 L 6,14 C 4.896,14, 4,14.896, 4,16l0,4 c-1.104,0-2,0.896-2,2l0,4 c0,1.104, 0.896,2, 2,2l 2,0 c 1.104,0, 2-0.896, 2-2l0-2 l0-2 c0-1.104-0.896-2-2-2L 6,16 l 10,0 l0,4 c-1.104,0-2,0.896-2,2l0,2 l0,2 c0,1.104, 0.896,2, 2,2l 2,0 c 1.104,0, 2-0.896, 2-2l0-2 l0-2 c0-1.104-0.896-2-2-2L 18,16 l 10,0 l0,4 c-1.104,0-2,0.896-2,2l0,2 l0,2 c0,1.104, 0.896,2, 2,2l 2,0 c 1.104,0, 2-0.896, 2-2l0-4 C 32,20.896, 31.104,20, 30,20z"></path></g></svg>