<?xml version="1.0" encoding="utf-8"?> <!-- Generator: IcoMoon.io --> <!DOCTYPE svg PUBLIC "-//W3C//DTD SVG 1.1//EN" "http://www.w3.org/Graphics/SVG/1.1/DTD/svg11.dtd"> <svg width="32" height="32" viewBox="0 0 32 32" xmlns="http://www.w3.org/2000/svg" xmlns:xlink="http://www.w3.org/1999/xlink" fill="#000000"><g><path d="M 4,28l 2,0 l0,2 c0,1.104, 0.896,2, 2,2l 20,0 c 1.104,0, 2-0.896, 2-2L 30,6 c0-1.104-0.896-2-2-2l-2,0 L 26,2 c0-1.104-0.896-2-2-2L 4,0 C 2.896,0, 2,0.896, 2,2l0,24 C 2,27.104, 2.896,28, 4,28z M 28,6l0,24 L 8,30 l0-2 l 16,0 c 1.104,0, 2-0.896, 2-2L 26,6 L 28,6 z M 21,4C 21.552,4, 22,4.448, 22,5 C 22,5.552, 21.552,6, 21,6L 12.916,6 c-0.552,0-1-0.448-1-1c0-0.552, 0.448-1, 1-1L 21,4 z M 6.916,10L 21,10 C 21.552,10, 22,10.448, 22,11C 22,11.552, 21.552,12, 21,12L 6.916,12 c-0.552,0-1-0.448-1-1C 5.916,10.448, 6.364,10, 6.916,10z M 6.916,16L 21,16 C 21.552,16, 22,16.448, 22,17C 22,17.552, 21.552,18, 21,18L 6.916,18 c-0.552,0-1-0.448-1-1C 5.916,16.448, 6.364,16, 6.916,16z M 6.916,22 L 21,22 c 0.552,0, 1,0.448, 1,1c0,0.552-0.448,1-1,1L 6.916,24 c-0.552,0-1-0.448-1-1C 5.916,22.448, 6.364,22, 6.916,22z"></path></g></svg>