<?xml version="1.0" encoding="utf-8"?> <!-- Generator: IcoMoon.io --> <!DOCTYPE svg PUBLIC "-//W3C//DTD SVG 1.1//EN" "http://www.w3.org/Graphics/SVG/1.1/DTD/svg11.dtd"> <svg width="32" height="32" viewBox="0 0 32 32" xmlns="http://www.w3.org/2000/svg" xmlns:xlink="http://www.w3.org/1999/xlink" fill="#000000"><g><path d="M 30,6l-7.032,0 C 21.864,6, 20.594,6.562, 20,8c0,0-0.26,1.834-2,2L 4,10 C 2.896,10, 2,10.864, 2,11.968L 2,30 c0,1.104, 0.896,2, 2,2l 26,0 c 1.104,0, 2-0.896, 2-2L 32,14 L 32,11.968 L 32,8 C 32,6.896, 31.104,6, 30,6z M 30,11.968L 30,14 l0,16 L 4,30 L 4,12 l 14,0 c 0.064,0, 0.126-0.004, 0.19-0.010c 1.876-0.178, 3.036-1.492, 3.572-2.842C 22.282,7.844, 23.188,8, 23.188,8L 30,8 L 30,11.968 zM 22,20L 18,20 L 18,16 c0-0.552-0.448-1-1-1S 16,15.448, 16,16l0,4 L 12,20 c-0.552,0-1,0.448-1,1 C 11,21.552, 11.448,22, 12,22l 4,0 l0,4 c0,0.552, 0.448,1, 1,1S 18,26.552, 18,26l0-4 l 4,0 c 0.552,0, 1-0.448, 1-1 C 23,20.448, 22.552,20, 22,20z"></path></g></svg>