<?xml version="1.0" encoding="utf-8"?> <!-- Generator: IcoMoon.io --> <!DOCTYPE svg PUBLIC "-//W3C//DTD SVG 1.1//EN" "http://www.w3.org/Graphics/SVG/1.1/DTD/svg11.dtd"> <svg width="32" height="32" viewBox="0 0 32 32" xmlns="http://www.w3.org/2000/svg" xmlns:xlink="http://www.w3.org/1999/xlink" fill="#000000"><g><path d="M 15.212,16.424c 2.874,0, 5.212-2.338, 5.212-5.212C 20.424,8.338, 18.086,6, 15.212,6S 10,8.338, 10,11.212 C 10,14.086, 12.338,16.424, 15.212,16.424z M 15.212,8c 1.77,0, 3.212,1.44, 3.212,3.212s-1.44,3.212-3.212,3.212S 12,12.982, 12,11.212 S 13.44,8, 15.212,8zM 14.484,31.458c 0.168,0.186, 0.33,0.306, 0.486,0.39c 0.002,0.002, 0.006,0.002, 0.008,0.004 c 0.108,0.056, 0.214,0.098, 0.314,0.098c 0.1,0, 0.206-0.042, 0.314-0.098c 0.002-0.002, 0.006-0.002, 0.008-0.004 c 0.156-0.084, 0.318-0.204, 0.486-0.39c0,0, 9.296-10.11, 10.23-18.87c 0.056-0.452, 0.094-0.91, 0.094-1.376 C 26.424,5.020, 21.404,0, 15.212,0S 4,5.020, 4,11.212c0,0.474, 0.038,0.936, 0.096,1.394C 5.054,21.362, 14.484,31.458, 14.484,31.458z M 15.212,2 c 5.080,0, 9.212,4.132, 9.212,9.212c0,0.338-0.024,0.698-0.082,1.164c-0.716,6.712-7.018,14.588-9.048,16.984 c-2.082-2.4-8.474-10.256-9.214-17C 6.026,11.918, 6,11.554, 6,11.212C 6,6.132, 10.132,2, 15.212,2z"></path></g></svg>