<?xml version="1.0" encoding="utf-8"?> <!-- Generator: IcoMoon.io --> <!DOCTYPE svg PUBLIC "-//W3C//DTD SVG 1.1//EN" "http://www.w3.org/Graphics/SVG/1.1/DTD/svg11.dtd"> <svg version="1.1" id="Layer_1" xmlns="http://www.w3.org/2000/svg" xmlns:xlink="http://www.w3.org/1999/xlink" x="0px" y="0px" width="32" height="32" viewBox="0 0 32 32" enable-background="new 0 0 16 16" xml:space="preserve" fill="#000000"> <g><path d="M 4,0C 2.896,0, 2,0.896, 2,2l0,28 c0,1.104, 0.896,2, 2,2l 26,0 c 1.104,0, 2-0.896, 2-2L 32,2 c0-1.104-0.896-2-2-2L 4,0 z M 28,10.888L 28,28 l-6,0 L 22,10.888 L 28,10.888 z M 20,6l0,22 L 14,28 L 14,6 L 20,6 z M 12,18.222L 12,28 L 6,28 L 6,18.222 L 12,18.222 z"></path></g></svg>