<?xml version="1.0" encoding="utf-8"?> <!-- Generator: IcoMoon.io --> <!DOCTYPE svg PUBLIC "-//W3C//DTD SVG 1.1//EN" "http://www.w3.org/Graphics/SVG/1.1/DTD/svg11.dtd"> <svg version="1.1" id="Layer_1" xmlns="http://www.w3.org/2000/svg" xmlns:xlink="http://www.w3.org/1999/xlink" x="0px" y="0px" width="32" height="32" viewBox="0 0 32 32" enable-background="new 0 0 16 16" xml:space="preserve" fill="#000000"> <g><path d="M 10,10.938A1.062,1.062 0 1 0 12.124,10.938A1.062,1.062 0 1 0 10,10.938zM 16,0C 7.164,0,0,7.164,0,16s 7.164,16, 16,16s 16-7.164, 16-16S 24.836,0, 16,0z M 8,10.938c0-1.692, 1.372-3.062, 3.062-3.062 s 3.062,1.372, 3.062,3.062S 12.754,14, 11.062,14S 8,12.628, 8,10.938z M 10.708,22.708C 10.512,22.902, 10.256,23, 10,23 s-0.512-0.098-0.708-0.292c-0.39-0.39-0.39-1.024,0-1.414l 12-12c 0.39-0.39, 1.024-0.39, 1.414,0s 0.39,1.024,0,1.414 L 10.708,22.708z M 20.938,24c-1.692,0-3.062-1.372-3.062-3.062s 1.372-3.062, 3.062-3.062S 24,19.246, 24,20.938S 22.628,24, 20.938,24zM 19.876,20.938A1.062,1.062 0 1 0 22,20.938A1.062,1.062 0 1 0 19.876,20.938z"></path></g></svg>