<?xml version="1.0" encoding="utf-8"?> <!-- Generator: IcoMoon.io --> <!DOCTYPE svg PUBLIC "-//W3C//DTD SVG 1.1//EN" "http://www.w3.org/Graphics/SVG/1.1/DTD/svg11.dtd"> <svg width="32.13399887084961" height="32.13399887084961" viewBox="0 0 32.13399887084961 32.13399887084961" xmlns="http://www.w3.org/2000/svg" xmlns:xlink="http://www.w3.org/1999/xlink" fill="#000000"><g><path d="M 19,0C 11.82,0, 6,5.82, 6,13c0,3.090, 1.082,5.922, 2.882,8.154l-8.474,8.474 c-0.542,0.542-0.542,1.422,0,1.964c 0.542,0.542, 1.422,0.542, 1.964,0l 8.474-8.474C 13.078,24.918, 15.91,26, 19,26 c 7.18,0, 13-5.82, 13-13S 26.18,0, 19,0z M 19,24C 12.934,24, 8,19.066, 8,13S 12.934,2, 19,2S 30,6.934, 30,13S 25.066,24, 19,24zM 25,12L 20,12 L 20,7 C 20,6.448, 19.552,6, 19,6C 18.448,6, 18,6.448, 18,7L 18,12 L 13,12 C 12.448,12, 12,12.448, 12,13 C 12,13.552, 12.448,14, 13,14L 18,14 l0,5 C 18,19.552, 18.448,20, 19,20C 19.552,20, 20,19.552, 20,19L 20,14 l 5,0 C 25.552,14, 26,13.552, 26,13 C 26,12.448, 25.552,12, 25,12z"></path></g></svg>