<?xml version="1.0" encoding="utf-8"?> <!-- Generator: IcoMoon.io --> <!DOCTYPE svg PUBLIC "-//W3C//DTD SVG 1.1//EN" "http://www.w3.org/Graphics/SVG/1.1/DTD/svg11.dtd"> <svg width="32" height="32" viewBox="0 0 32 32" xmlns="http://www.w3.org/2000/svg" xmlns:xlink="http://www.w3.org/1999/xlink" fill="#000000"><g><path d="M 0.978,17.198l 3.47-0.128C 4.858,17.602, 5.332,18.086, 5.86,18.518l-0.228,3.474 c 0.38,0.216, 0.772,0.416, 1.184,0.594c 0.41,0.178, 0.826,0.324, 1.244,0.454l 2.37-2.55c 0.678,0.086, 1.354,0.098, 2.020,0.032 l 2.29,2.612c 0.854-0.234, 1.678-0.562, 2.458-0.978L 17.072,18.684C 17.602,18.274, 18.086,17.8, 18.518,17.272l 3.474,0.228 c 0.216-0.38, 0.416-0.772, 0.594-1.184c 0.178-0.41, 0.324-0.826, 0.454-1.244l-2.55-2.37c 0.086-0.678, 0.098-1.354, 0.032-2.020 l 2.612-2.29c-0.234-0.854-0.562-1.678-0.978-2.458L 18.684,6.060C 18.274,5.53, 17.8,5.046, 17.272,4.614L 17.5,1.14 C 17.12,0.924, 16.728,0.724, 16.316,0.546C 15.906,0.37, 15.49,0.222, 15.072,0.094L 12.704,2.644c-0.678-0.086-1.354-0.098-2.020-0.032 L 8.392,0C 7.538,0.234, 6.714,0.562, 5.934,0.978L 6.060,4.448C 5.53,4.858, 5.046,5.33, 4.614,5.858L 1.14,5.632 c-0.216,0.38-0.416,0.772-0.594,1.184C 0.37,7.226, 0.222,7.642, 0.094,8.060l 2.55,2.37c-0.086,0.678-0.098,1.354-0.032,2.020L0,14.74 C 0.234,15.592, 0.562,16.418, 0.978,17.198z M 13.942,6.056c 3.042,1.312, 4.446,4.842, 3.134,7.886S 12.234,18.388, 9.19,17.076 S 4.744,12.234, 6.056,9.19S 10.898,4.744, 13.942,6.056zM 8.566,11.566A3,3 1080 1 0 14.566,11.566A3,3 1080 1 0 8.566,11.566zM 30.042,23.548l-0.828-0.294l 0.378-0.796l 0.87-1.83c-0.322-0.402-0.688-0.768-1.092-1.092l-1.83,0.87 l-0.796,0.378l-0.294-0.828l-0.68-1.914C 25.518,18.016, 25.26,18, 25,18s-0.518,0.016-0.772,0.044l-0.68,1.914l-0.294,0.828 l-0.796-0.378l-1.83-0.87c-0.402,0.322-0.768,0.688-1.092,1.092l 0.87,1.83l 0.378,0.796l-0.828,0.294l-1.914,0.68 C 18.016,24.482, 18,24.74, 18,25s 0.016,0.518, 0.044,0.77l 1.914,0.68l 0.828,0.294l-0.378,0.796l-0.87,1.83 c 0.322,0.402, 0.688,0.768, 1.092,1.092l 1.83-0.87l 0.796-0.378l 0.294,0.828l 0.68,1.914C 24.482,31.984, 24.74,32, 25,32 s 0.518-0.016, 0.772-0.044l 0.68-1.914l 0.294-0.828l 0.796,0.378l 1.83,0.87c 0.402-0.322, 0.768-0.688, 1.092-1.092l-0.87-1.83 l-0.378-0.796l 0.828-0.294l 1.914-0.68C 31.984,25.518, 32,25.26, 32,25s-0.016-0.518-0.044-0.772L 30.042,23.548z M 25,26.5 c-0.828,0-1.5-0.672-1.5-1.5c0-0.828, 0.672-1.5, 1.5-1.5s 1.5,0.672, 1.5,1.5C 26.5,25.828, 25.828,26.5, 25,26.5z"></path></g></svg>