<?xml version="1.0" encoding="utf-8"?> <!-- Generator: IcoMoon.io --> <!DOCTYPE svg PUBLIC "-//W3C//DTD SVG 1.1//EN" "http://www.w3.org/Graphics/SVG/1.1/DTD/svg11.dtd"> <svg width="32" height="32" viewBox="0 0 32 32" xmlns="http://www.w3.org/2000/svg" xmlns:xlink="http://www.w3.org/1999/xlink" fill="#000000"><g><path d="M 26,2l-4,0 c0-1.104-0.896-2-2-2L 14,0 C 12.896,0, 12,0.896, 12,2L 8,2 C 6.896,2, 6,2.896, 6,4l 22,0 C 28,2.896, 27.104,2, 26,2zM 6,30c0,1.104, 0.896,2, 2,2l 18,0 c 1.104,0, 2-0.896, 2-2L 28,6 L 6,6 L 6,30 z M 8,8l 18,0 l0,22 L 8,30 L 8,8 zM 11,10C 10.448,10, 10,10.448, 10,11l0,16 C 10,27.552, 10.448,28, 11,28S 12,27.552, 12,27l0-16 C 12,10.448, 11.552,10, 11,10zM 17,10C 16.448,10, 16,10.448, 16,11l0,16 C 16,27.552, 16.448,28, 17,28S 18,27.552, 18,27l0-16 C 18,10.448, 17.552,10, 17,10zM 23,10C 22.448,10, 22,10.448, 22,11l0,16 c0,0.552, 0.448,1, 1,1s 1-0.448, 1-1l0-16 C 24,10.448, 23.552,10, 23,10z"></path></g></svg>