<?xml version="1.0" encoding="utf-8"?> <!-- Generator: IcoMoon.io --> <!DOCTYPE svg PUBLIC "-//W3C//DTD SVG 1.1//EN" "http://www.w3.org/Graphics/SVG/1.1/DTD/svg11.dtd"> <svg version="1.1" id="Layer_1" xmlns="http://www.w3.org/2000/svg" xmlns:xlink="http://www.w3.org/1999/xlink" x="0px" y="0px" width="32" height="32" viewBox="0 0 32 32" enable-background="new 0 0 16 16" xml:space="preserve" fill="#000000"> <g><path d="M 4,32l 24,0 c 2.21,0, 4-1.79, 4-4l0-2 c0-0.094-0.022-0.182-0.028-0.272C 31.978,25.626, 32,25.51, 32,25.416L 30,4 c-0.124-1.958-1.79-4-4-4L 6,0 C 3.79,0, 2.124,2.042, 2,4L0,25.416c0,0.094, 0.022,0.21, 0.028,0.31C 0.022,25.818,0,25.906,0,26l0,2 C0,30.21, 1.79,32, 4,32z M 2,28l0-2 c0-1.102, 0.898-2, 2-2l 24,0 c 1.102,0, 2,0.898, 2,2l0,2 c0,1.102-0.898,2-2,2L 4,30 C 2.898,30, 2,29.102, 2,28zM 26,27A1,1 0 1 0 28,27A1,1 0 1 0 26,27zM 22.208,26.958A1,1 0 1 0 24.208,26.958A1,1 0 1 0 22.208,26.958zM 5,28l 14,0 c 0.552,0, 1-0.448, 1-1c0-0.552-0.448-1-1-1l-14,0 C 4.448,26, 4,26.448, 4,27 C 4,27.552, 4.448,28, 5,28z"></path></g></svg>