<?xml version="1.0" encoding="utf-8"?> <!-- Generator: IcoMoon.io --> <!DOCTYPE svg PUBLIC "-//W3C//DTD SVG 1.1//EN" "http://www.w3.org/Graphics/SVG/1.1/DTD/svg11.dtd"> <svg width="32" height="32" viewBox="0 0 32 32" xmlns="http://www.w3.org/2000/svg" xmlns:xlink="http://www.w3.org/1999/xlink" fill="#000000"><g><path d="M 23.214,0.586C 22.838,0.21, 22.33,0, 21.798,0L 10.202,0 c-0.53,0-1.040,0.21-1.414,0.586l-8.2,8.202 C 0.21,9.162,0,9.67,0,10.202l0,11.598 c0,0.53, 0.21,1.040, 0.586,1.414l 8.2,8.202C 9.162,31.79, 9.67,32, 10.202,32l 11.598,0 c 0.53,0, 1.040-0.21, 1.414-0.586l 8.2-8.202C 31.79,22.838, 32,22.33, 32,21.798L 32,10.202 c0-0.53-0.21-1.040-0.586-1.414L 23.214,0.586z M 16,20c-1.104,0-2-0.896-2-2L 14,6 c0-1.104, 0.896-2, 2-2s 2,0.896, 2,2l0,12 C 18,19.104, 17.104,20, 16,20z M 18,26c0,1.104-0.896,2-2,2s-2-0.896-2-2 c0-1.104, 0.896-2, 2-2S 18,24.896, 18,26z"></path></g></svg>