<?xml version="1.0" encoding="utf-8"?> <!-- Generator: IcoMoon.io --> <!DOCTYPE svg PUBLIC "-//W3C//DTD SVG 1.1//EN" "http://www.w3.org/Graphics/SVG/1.1/DTD/svg11.dtd"> <svg version="1.1" id="Layer_1" xmlns="http://www.w3.org/2000/svg" xmlns:xlink="http://www.w3.org/1999/xlink" x="0px" y="0px" width="32" height="32" viewBox="0 0 32 32" enable-background="new 0 0 16 16" xml:space="preserve" fill="#000000"> <g><path d="M 27.1,10c0,0-7.622,0-9.1,0L 18,4.812 c 0.072-2.808-0.562-4.808-2.938-4.808C 12.5,0.004, 12,2.13, 12,2.13 C 11.532,9.66, 4,12, 4,12l0,16 l 2.922,0.124C 14.488,28.124, 9.948,32, 22.38,32C 31.82,32, 32,23.692, 32,18S 29.406,10, 27.1,10z M 22.38,30 c-6.316,0-7.654-1.006-8.836-1.894c-1.494-1.122-2.928-1.98-6.524-1.98c-0.004,0-0.008,0-0.012,0L 6,26.084L 6,13.344 C 8.494,12.18, 13.45,9.060, 13.978,2.51c 0.078-0.16, 0.336-0.506, 1.084-0.506c 0.178,0, 0.408,0.020, 0.506,0.12 C 15.65,2.206, 16.052,2.726, 16,4.812L 16,10 l0,2 l 2,0 l 9.1,0 C 28.542,12, 30,14.060, 30,18C 30,25.782, 28.786,30, 22.38,30zM 1,30C 1.552,30, 2,29.552, 2,29L 2,11.084 c0-0.552-0.448-1-1-1S0,10.532,0,11.084L0,29 C0,29.552, 0.448,30, 1,30z"></path></g></svg>