<?xml version="1.0" encoding="utf-8"?> <!-- Generator: IcoMoon.io --> <!DOCTYPE svg PUBLIC "-//W3C//DTD SVG 1.1//EN" "http://www.w3.org/Graphics/SVG/1.1/DTD/svg11.dtd"> <svg width="32" height="32" viewBox="0 0 32 32" xmlns="http://www.w3.org/2000/svg" xmlns:xlink="http://www.w3.org/1999/xlink" fill="#000000"><g><path d="M 2,0C 0.896,0,0,0.896,0,2l0,28 c0,1.104, 0.896,2, 2,2l 2,0 L 4,0 L 2,0 zM 26,0L 6,0 l0,32 l 20,0 c 1.104,0, 2-0.896, 2-2L 28,2 C 28,0.896, 27.104,0, 26,0z M 16.89,7.708 c 1.672,0, 3.026,1.356, 3.026,3.026c0,1.672-1.356,3.028-3.026,3.028c-1.672,0-3.028-1.356-3.028-3.028 C 13.862,9.062, 15.218,7.708, 16.89,7.708z M 12,21.614c0-3.668, 2.218-6.64, 4.952-6.64s 4.952,2.974, 4.952,6.64S 12,25.28, 12,21.614zM 30,2L 32,2L 32,8L 30,8zM 30,10L 32,10L 32,16L 30,16zM 30,18L 32,18L 32,24L 30,24z"></path></g></svg>