<?xml version="1.0" encoding="utf-8"?> <!-- Generator: IcoMoon.io --> <!DOCTYPE svg PUBLIC "-//W3C//DTD SVG 1.1//EN" "http://www.w3.org/Graphics/SVG/1.1/DTD/svg11.dtd"> <svg version="1.1" id="Layer_1" xmlns="http://www.w3.org/2000/svg" xmlns:xlink="http://www.w3.org/1999/xlink" x="0px" y="0px" width="32" height="32" viewBox="0 0 32 32" enable-background="new 0 0 16 16" xml:space="preserve" fill="#000000"> <g><path d="M 26,10.652L 26,2 l 0.986,0 C 27.546,2, 28,1.552, 28,1C 28,0.448, 27.546,0, 26.986,0L 7.014,0 C 6.454,0, 6,0.448, 6,1 C 6,1.552, 6.454,2, 7.014,2L 8,2 l0,8.652 c0,0.57, 0.244,1.114, 0.67,1.494L 12.994,16L 8.67,19.854C 8.244,20.234, 8,20.778, 8,21.348L 8,30 L 7.014,30 C 6.454,30, 6,30.448, 6,31C 6,31.552, 6.454,32, 7.014,32l 19.974,0 C 27.546,32, 28,31.552, 28,31c0-0.552-0.454-1-1.014-1L 26,30 l0-8.652 c0-0.57-0.244-1.114-0.67-1.494L 21.006,16l 4.324-3.854C 25.756,11.766, 26,11.222, 26,10.652z M 24,10.652L 18,16l 6,5.348L 24,30 L 10,30 l0-8.652 L 16,16 L 10,10.652L 10,2 l 14,0 L 24,10.652 zM 22,7.756L 22,6L 12,6L 12,7.756L 17,12.212 zM 12,24.252L 12,28L 22,28L 22,24.252L 19.474,22L 14.526,22 z"></path></g></svg>