<?xml version="1.0" encoding="utf-8"?> <!-- Generator: IcoMoon.io --> <!DOCTYPE svg PUBLIC "-//W3C//DTD SVG 1.1//EN" "http://www.w3.org/Graphics/SVG/1.1/DTD/svg11.dtd"> <svg width="32" height="32" viewBox="0 0 32 32" xmlns="http://www.w3.org/2000/svg" xmlns:xlink="http://www.w3.org/1999/xlink" fill="#000000"><g><path d="M 4,32l 24,0 c 1.104,0, 2-0.896, 2-2L 30,2 c0-1.104-0.896-2-2-2L 4,0 C 2.896,0, 2,0.896, 2,2l0,28 C 2,31.104, 2.896,32, 4,32z M 4,2l 24,0 l0,28 L 4,30 L 4,2 zM 23,6l-8,0 C 14.448,6, 14,6.448, 14,7C 14,7.552, 14.448,8, 15,8l 8,0 C 23.552,8, 24,7.552, 24,7 C 24,6.448, 23.552,6, 23,6zM 23,12l-14,0 C 8.448,12, 8,12.448, 8,13C 8,13.552, 8.448,14, 9,14l 14,0 C 23.552,14, 24,13.552, 24,13 C 24,12.448, 23.552,12, 23,12zM 23,18l-14,0 C 8.448,18, 8,18.448, 8,19C 8,19.552, 8.448,20, 9,20l 14,0 c 0.552,0, 1-0.448, 1-1 C 24,18.448, 23.552,18, 23,18zM 23,24l-14,0 C 8.448,24, 8,24.448, 8,25C 8,25.552, 8.448,26, 9,26l 14,0 c 0.552,0, 1-0.448, 1-1 C 24,24.448, 23.552,24, 23,24z"></path></g></svg>