<?xml version="1.0" encoding="utf-8"?> <!-- Generator: IcoMoon.io --> <!DOCTYPE svg PUBLIC "-//W3C//DTD SVG 1.1//EN" "http://www.w3.org/Graphics/SVG/1.1/DTD/svg11.dtd"> <svg width="32" height="32.769996643066406" viewBox="0 0 32 32.769996643066406" xmlns="http://www.w3.org/2000/svg" xmlns:xlink="http://www.w3.org/1999/xlink" fill="#000000"><g><path d="M 0.798,30.456c 1.496,1.942, 4.586,2.068, 6.902,0.284c 0.942-0.726, 1.594-1.658, 1.956-2.636 C 9.864,27.692, 10,27.108, 10,26.44L 10,11.494 l 18-3.402l0,7.892 c0,2.784-2.13,3.424-2.884,3.566c-0.066,0.008-0.13,0.024-0.196,0.036 c-0.034,0.004-0.084,0.010-0.084,0.010L 24.848,19.6c-0.892,0.162-1.79,0.536-2.596,1.156c-2.316,1.784-2.982,4.804-1.486,6.746 c 1.496,1.942, 4.586,2.070, 6.902,0.286c 1.172-0.904, 1.918-2.124, 2.178-3.36C 29.936,24.128, 30,23.798, 30,23.424L 30,4.012 c0-0.122-0.024-0.226-0.034-0.342C 29.97,3.61, 30,3.542, 30,3.482l0-2 c0-1.104-0.896-1.728-2-1.39L 10,3.494 C 8.896,3.83, 8,5, 8,6.104l0,2 c0,0.028, 0.014,0.048, 0.016,0.074C 8.014,8.238, 8,8.29, 8,8.35l0,10.588 c0,2.788-2.136,3.426-2.888,3.566 c-0.038,0.006-0.076,0.018-0.116,0.024c-0.098,0.016-0.162,0.022-0.162,0.022l 0.022,0.010c-0.884,0.166-1.774,0.536-2.572,1.15 C-0.032,25.494-0.696,28.514, 0.798,30.456z"></path></g></svg>