<?xml version="1.0" encoding="utf-8"?> <!-- Generator: IcoMoon.io --> <!DOCTYPE svg PUBLIC "-//W3C//DTD SVG 1.1//EN" "http://www.w3.org/Graphics/SVG/1.1/DTD/svg11.dtd"> <svg width="32" height="32" viewBox="0 0 32 32" xmlns="http://www.w3.org/2000/svg" xmlns:xlink="http://www.w3.org/1999/xlink" fill="#000000"><g><path d="M 2,24.254l 4.582,0 c 0.362,0.36, 8.702,7.38, 8.702,7.38C 15.718,31.898, 16.096,32, 16.426,32 c 0.050,0, 0.1-0.002, 0.148-0.006c 0.74-0.070, 1.268-0.69, 1.426-1.344L 18,1.352 C 17.844,0.696, 17.314,0.076, 16.574,0.006 C 16.526,0.002, 16.478,0, 16.426,0C 16.096,0, 15.718,0.102, 15.284,0.364c0,0-8.34,7.276-8.702,7.636L 2,8 C 0.896,8,0,8.896,0,10l0,0.254 L0,22 l0,0.254 C0,23.36, 0.896,24.254, 2,24.254z M 2,22L 2,10.254 L 2,10 l 4.582,0 c 0.512,0, 1.024-0.214, 1.394-0.566C 8.34,9.088, 12.86,5.134, 16,2.394l0,27.23 c-3.12-2.628-7.64-6.446-8.008-6.786c-0.374-0.374-0.882-0.582-1.412-0.582L 2,22.256 L 2,22 zM 21.082,19.494c-0.494,0.25-0.692,0.85-0.444,1.344c 0.176,0.348, 0.528,0.55, 0.892,0.55 c 0.152,0, 0.304-0.034, 0.45-0.106C 24.002,20.262, 25.258,18.24, 25.258,16s-1.256-4.262-3.278-5.282 c-0.494-0.25-1.094-0.050-1.342,0.444c-0.248,0.494-0.050,1.094, 0.444,1.344C 22.424,13.182, 23.258,14.52, 23.258,16 S 22.424,18.818, 21.082,19.494zM 19.706,27.478c 0.094,0.478, 0.512,0.808, 0.98,0.808c 0.064,0, 0.128-0.006, 0.194-0.018 C 26.744,27.124, 31,21.964, 31,16s-4.256-11.124-10.122-12.268C 20.346,3.624, 19.81,3.98, 19.706,4.522 C 19.6,5.064, 19.954,5.59, 20.496,5.696C 25.424,6.656, 29,10.99, 29,16s-3.576,9.344-8.504,10.304 C 19.954,26.41, 19.6,26.936, 19.706,27.478z"></path></g></svg>