<?xml version="1.0" encoding="utf-8"?> <!-- Generator: IcoMoon.io --> <!DOCTYPE svg PUBLIC "-//W3C//DTD SVG 1.1//EN" "http://www.w3.org/Graphics/SVG/1.1/DTD/svg11.dtd"> <svg width="32" height="32" viewBox="0 0 32 32" xmlns="http://www.w3.org/2000/svg" xmlns:xlink="http://www.w3.org/1999/xlink" fill="#000000"><g><path d="M 24,32c 1.104,0, 2-0.896, 2-2L 26,2 c0-1.104-0.896-2-2-2L 10,0 C 8.896,0, 8,0.896, 8,2l0,28 c0,1.104, 0.896,2, 2,2L 24,32 z M 16,28.876c0-0.622, 0.504-1.124, 1.124-1.124s 1.124,0.504, 1.124,1.124S 17.746,30, 17.124,30S 16,29.496, 16,28.876z M 21,2 C 21.552,2, 22,2.448, 22,3C 22,3.552, 21.552,4, 21,4l-2,0 C 18.448,4, 18,3.552, 18,3C 18,2.448, 18.448,2, 19,2L 21,2 z M 16,3 C 16,3.552, 15.552,4, 15,4S 14,3.552, 14,3C 14,2.448, 14.448,2, 15,2S 16,2.448, 16,3z M 10,6l 14,0 l0,20 L 10,26 L 10,6 z"></path></g></svg>