<?xml version="1.0" encoding="utf-8"?> <!-- Generator: IcoMoon.io --> <!DOCTYPE svg PUBLIC "-//W3C//DTD SVG 1.1//EN" "http://www.w3.org/Graphics/SVG/1.1/DTD/svg11.dtd"> <svg width="32" height="32" viewBox="0 0 32 32" xmlns="http://www.w3.org/2000/svg" xmlns:xlink="http://www.w3.org/1999/xlink" fill="#000000"><g><path d="M 4,28l 2,0 l0,2 c0,1.104, 0.896,2, 2,2l 20,0 c 1.104,0, 2-0.896, 2-2L 30,6 c0-1.104-0.896-2-2-2l-2,0 L 26,2 c0-1.104-0.896-2-2-2L 4,0 C 2.896,0, 2,0.896, 2,2l0,24 C 2,27.104, 2.896,28, 4,28z M 24,26L 4,26 L 4,2 l 20,0 L 24,26 z M 28,6l0,24 L 8,30 l0-2 l 16,0 c 1.104,0, 2-0.896, 2-2L 26,6 L 28,6 zM 10,7C 10,7.552, 10.448,8, 11,8l 10,0 C 21.552,8, 22,7.552, 22,7C 22,6.448, 21.552,6, 21,6l-10,0 C 10.448,6, 10,6.448, 10,7zM 7,14l 14,0 C 21.552,14, 22,13.552, 22,13C 22,12.448, 21.552,12, 21,12l-14,0 C 6.448,12, 6,12.448, 6,13 C 6,13.552, 6.448,14, 7,14zM 7,18l 14,0 C 21.552,18, 22,17.552, 22,17C 22,16.448, 21.552,16, 21,16l-14,0 C 6.448,16, 6,16.448, 6,17 C 6,17.552, 6.448,18, 7,18zM 7,22l 14,0 c 0.552,0, 1-0.448, 1-1c0-0.552-0.448-1-1-1l-14,0 C 6.448,20, 6,20.448, 6,21 C 6,21.552, 6.448,22, 7,22z"></path></g></svg>