<?xml version="1.0" encoding="utf-8"?> <!-- Generator: IcoMoon.io --> <!DOCTYPE svg PUBLIC "-//W3C//DTD SVG 1.1//EN" "http://www.w3.org/Graphics/SVG/1.1/DTD/svg11.dtd"> <svg version="1.1" id="Layer_1" xmlns="http://www.w3.org/2000/svg" xmlns:xlink="http://www.w3.org/1999/xlink" x="0px" y="0px" width="32" height="32" viewBox="0 0 32 32" enable-background="new 0 0 16 16" xml:space="preserve" fill="#000000"> <g><path d="M 20,14L 12,14 l0,10 c0,2-4,4.896-4,6l0,1 C 8,31.552, 8.448,32, 9,32l 14,0 c 0.552,0, 1-0.448, 1-1L 24,30 c0-1.104-4-4-4-6L 20,14 zM 23.166,2.034L 23.166,2 l-2,0 l0,0.034 C 21.11,2.024, 21.060,2, 21,2C 20.448,2, 20,2.448, 20,3L 20,4 L 18,4 L 18,3 c0-0.494-0.364-0.884-0.834-0.966L 17.166,2 l-2,0 l0,0.034 C 15.11,2.024, 15.060,2, 15,2C 14.448,2, 14,2.448, 14,3L 14,4 L 12,4 L 12,3 c0-0.494-0.364-0.884-0.834-0.966L 11.166,2 l-2,0 l0,0.034 C 9.11,2.024, 9.060,2, 9,2C 8.448,2, 8,2.448, 8,3L 8,6 l0,2 c0,0.53, 0.21,1.040, 0.586,1.414 l 2,2C 10.962,11.79, 11.47,12, 12,12l 8,0 c 0.53,0, 1.040-0.21, 1.414-0.586l 2-2C 23.79,9.040, 24,8.53, 24,8L 24,6 L 24,3 C 24,2.506, 23.636,2.116, 23.166,2.034z"></path></g></svg>