<?xml version="1.0" encoding="utf-8"?> <!-- Generator: IcoMoon.io --> <!DOCTYPE svg PUBLIC "-//W3C//DTD SVG 1.1//EN" "http://www.w3.org/Graphics/SVG/1.1/DTD/svg11.dtd"> <svg version="1.1" id="Layer_1" xmlns="http://www.w3.org/2000/svg" xmlns:xlink="http://www.w3.org/1999/xlink" x="0px" y="0px" width="32" height="32" viewBox="0 0 32 32" enable-background="new 0 0 16 16" xml:space="preserve" fill="#000000"> <g><path d="M 16,0C 7.164,0,0,7.164,0,16s 7.164,16, 16,16s 16-7.164, 16-16S 24.836,0, 16,0z M 16,30c-7.72,0-14-6.28-14-14s 6.28-14, 14-14 s 14,6.28, 14,14S 23.72,30, 16,30zM 16,6C 10.478,6, 6,10.478, 6,16s 4.478,10, 10,10s 10-4.478, 10-10S 21.522,6, 16,6z M 16,22c-3.308,0-6-2.692-6-6 c0-3.308, 2.692-6, 6-6s 6,2.692, 6,6C 22,19.308, 19.308,22, 16,22zM 14,16A2,2 0 1 0 18,16A2,2 0 1 0 14,16z"></path></g></svg>