<?xml version="1.0" encoding="utf-8"?> <!-- Generator: IcoMoon.io --> <!DOCTYPE svg PUBLIC "-//W3C//DTD SVG 1.1//EN" "http://www.w3.org/Graphics/SVG/1.1/DTD/svg11.dtd"> <svg width="32" height="32" viewBox="0 0 32 32" xmlns="http://www.w3.org/2000/svg" xmlns:xlink="http://www.w3.org/1999/xlink" fill="#000000"><g><path d="M 26,16c-0.070,0-0.136,0.018-0.204,0.020C 25.93,15.368, 26,14.692, 26,14c0-5.522-4.478-10-10-10S 6,8.478, 6,14 c0,0.034, 0.010,0.066, 0.010,0.1C 2.618,14.584,0,17.474,0,21c0,3.524, 2.612,6.41, 6,6.9L 6,28 l 20,0 c 3.314,0, 6-2.686, 6-6S 29.314,16, 26,16z M 26,26L 6.628,26 c-0.11-0.036-0.224-0.064-0.342-0.080C 3.842,25.568, 2,23.452, 2,21c0-2.456, 1.846-4.57, 4.292-4.92 c 0.994-0.142, 1.728-0.998, 1.718-2c0-0.060-0.004-0.12-0.010-0.178C 8.054,9.534, 11.622,6, 16,6c 4.412,0, 8,3.588, 8,8 c0,0.544-0.056,1.088-0.164,1.618c-0.124,0.6, 0.036,1.224, 0.432,1.692c 0.38,0.45, 0.94,0.708, 1.528,0.708 c 0.024,0, 0.046,0, 0.070-0.002C 25.91,18.018, 26.004,18.010, 26.082,18C 28.25,18.044, 30,19.822, 30,22C 30,24.206, 28.206,26, 26,26z"></path></g></svg>