<?xml version="1.0" encoding="utf-8"?> <!-- Generator: IcoMoon.io --> <!DOCTYPE svg PUBLIC "-//W3C//DTD SVG 1.1//EN" "http://www.w3.org/Graphics/SVG/1.1/DTD/svg11.dtd"> <svg version="1.1" id="Layer_1" xmlns="http://www.w3.org/2000/svg" xmlns:xlink="http://www.w3.org/1999/xlink" x="0px" y="0px" width="32" height="32" viewBox="0 0 32 32" enable-background="new 0 0 16 16" xml:space="preserve" fill="#000000"> <g><path d="M 16,0C 7.164,0,0,7.164,0,16s 7.164,16, 16,16s 16-7.164, 16-16S 24.836,0, 16,0z M 16,30c-7.72,0-14-6.28-14-14s 6.28-14, 14-14 s 14,6.28, 14,14S 23.72,30, 16,30zM 14.124,10.938c0-1.692-1.372-3.062-3.062-3.062S 8,9.246, 8,10.938S 9.372,14, 11.062,14S 14.124,12.628, 14.124,10.938z M 10,10.938c0-0.586, 0.476-1.062, 1.062-1.062s 1.062,0.476, 1.062,1.062S 11.648,12, 11.062,12S 10,11.524, 10,10.938zM 20.938,17.876c-1.692,0-3.062,1.372-3.062,3.062S 19.246,24, 20.938,24S 24,22.628, 24,20.938 S 22.628,17.876, 20.938,17.876z M 20.938,22c-0.586,0-1.062-0.476-1.062-1.062s 0.476-1.062, 1.062-1.062S 22,20.352, 22,20.938 S 21.524,22, 20.938,22zM 22.708,9.292c-0.39-0.39-1.024-0.39-1.414,0l-12,12c-0.39,0.39-0.39,1.024,0,1.414 C 9.488,22.902, 9.744,23, 10,23s 0.512-0.098, 0.708-0.292l 12-12C 23.098,10.316, 23.098,9.684, 22.708,9.292z"></path></g></svg>