<?xml version="1.0" encoding="utf-8"?> <!-- Generator: IcoMoon.io --> <!DOCTYPE svg PUBLIC "-//W3C//DTD SVG 1.1//EN" "http://www.w3.org/Graphics/SVG/1.1/DTD/svg11.dtd"> <svg width="32" height="32" viewBox="0 0 32 32" xmlns="http://www.w3.org/2000/svg" xmlns:xlink="http://www.w3.org/1999/xlink" fill="#000000"><g><path d="M 30,4L 2,4 C 0.896,4,0,4.896,0,6l0,4.084 L0,14 l0,12 c0,1.104, 0.896,2, 2,2l 28,0 c 1.104,0, 2-0.896, 2-2L 32,14 L 32,10.084 L 32,6 C 32,4.896, 31.104,4, 30,4z M 30,26L 2,26 L 2,14 l 28,0 L 30,26 z M 2,10.084L 2,6 l 28,0 l0,4.084 L 2,10.084 zM 5,24l 10,0 C 15.552,24, 16,23.552, 16,23C 16,22.448, 15.552,22, 15,22l-10,0 C 4.448,22, 4,22.448, 4,23 C 4,23.552, 4.448,24, 5,24zM 18,23A1,1 1080 1 0 20,23A1,1 1080 1 0 18,23zM 22,23A1,1 1080 1 0 24,23A1,1 1080 1 0 22,23zM 26,23A1,1 1080 1 0 28,23A1,1 1080 1 0 26,23z"></path></g></svg>