<?xml version="1.0" encoding="utf-8"?> <!-- Generator: IcoMoon.io --> <!DOCTYPE svg PUBLIC "-//W3C//DTD SVG 1.1//EN" "http://www.w3.org/Graphics/SVG/1.1/DTD/svg11.dtd"> <svg width="32" height="32" viewBox="0 0 32 32" xmlns="http://www.w3.org/2000/svg" xmlns:xlink="http://www.w3.org/1999/xlink" fill="#000000"><g><path d="M 15.272,31.458c 0.168,0.186, 0.33,0.306, 0.486,0.39c 0.002,0.002, 0.006,0.002, 0.008,0.004 c 0.108,0.056, 0.214,0.098, 0.314,0.098c 0.1,0, 0.206-0.042, 0.314-0.098c 0.002-0.002, 0.006-0.002, 0.008-0.004 c 0.156-0.084, 0.318-0.204, 0.486-0.39c0,0, 9.296-10.11, 10.23-18.87c 0.056-0.452, 0.094-0.91, 0.094-1.376C 27.212,5.020, 22.192,0, 16,0 S 4.788,5.020, 4.788,11.212c0,0.474, 0.038,0.936, 0.096,1.394C 5.842,21.362, 15.272,31.458, 15.272,31.458z M 16,4 c 3.976,0, 7.212,3.236, 7.212,7.212c0,3.976-3.236,7.212-7.212,7.212S 8.788,15.188, 8.788,11.212C 8.788,7.236, 12.024,4, 16,4z"></path></g></svg>