<?xml version="1.0" encoding="utf-8"?> <!-- Generator: IcoMoon.io --> <!DOCTYPE svg PUBLIC "-//W3C//DTD SVG 1.1//EN" "http://www.w3.org/Graphics/SVG/1.1/DTD/svg11.dtd"> <svg width="32" height="32" viewBox="0 0 32 32" xmlns="http://www.w3.org/2000/svg" xmlns:xlink="http://www.w3.org/1999/xlink" fill="#000000"><g><path d="M 30,8L 2,8 C 0.896,8,0,8.896,0,10l0,20 c0,1.104, 0.896,2, 2,2l 28,0 c 1.104,0, 2-0.896, 2-2L 32,10 C 32,8.896, 31.104,8, 30,8z M 11.36,22.054l 4.644,3.156l 4.616-3.178L 28.586,30L 3.414,30 L 11.36,22.054z M 2,28.586L 2,15.69 l 7.676,5.218L 2,28.586z M 22.294,20.88 L 30,15.576l0,13.010 L 22.294,20.88z M 30,10l0,3.236 l-0.042-0.060l-13.962,9.614L 2,13.274L 2,10 L 30,10 z"></path></g></svg>