<?xml version="1.0" encoding="utf-8"?> <!-- Generator: IcoMoon.io --> <!DOCTYPE svg PUBLIC "-//W3C//DTD SVG 1.1//EN" "http://www.w3.org/Graphics/SVG/1.1/DTD/svg11.dtd"> <svg version="1.1" id="Layer_1" xmlns="http://www.w3.org/2000/svg" xmlns:xlink="http://www.w3.org/1999/xlink" x="0px" y="0px" width="32" height="32" viewBox="0 0 32 32" enable-background="new 0 0 16 16" xml:space="preserve" fill="#000000"> <g><path d="M 17,2C 8.716,2, 2,8.716, 2,17S 8.716,32, 17,32S 32,25.284, 32,17S 25.284,2, 17,2z M 27.938,10l-2.98,0 c-0.58-1.824-1.376-3.422-2.336-4.704C 24.798,6.346, 26.64,7.98, 27.938,10z M 18,10L 18,4.164 C 19.89,4.722, 21.732,6.818, 22.866,10L 18,10 z M 23.448,12c 0.282,1.224, 0.464,2.564, 0.522,4L 18,16 L 18,12 L 23.448,12 z M 16,4.164L 16,10 L 11.134,10 C 12.268,6.818, 14.11,4.722, 16,4.164z M 16,12l0,4 L 10.030,16 c 0.058-1.436, 0.24-2.776, 0.522-4L 16,12 z M 8.030,16l-3.98,0 c 0.108-1.406, 0.43-2.754, 0.952-4l 3.52,0 C 8.254,13.266, 8.086,14.604, 8.030,16z M 8.030,18c 0.056,1.396, 0.224,2.734, 0.492,4l-3.52,0 c-0.522-1.246-0.844-2.594-0.952-4L 8.030,18 z M 10.030,18L 16,18 l0,4 L 10.552,22 C 10.27,20.776, 10.088,19.436, 10.030,18z M 16,24l0,5.836 C 14.11,29.278, 12.268,27.182, 11.134,24L 16,24 z M 18,29.836L 18,24 l 4.866,0 C 21.732,27.182, 19.89,29.278, 18,29.836z M 18,22L 18,18 l 5.97,0 c-0.058,1.436-0.24,2.776-0.522,4L 18,22 z M 25.97,18l 3.98,0 c-0.108,1.406-0.43,2.754-0.952,4l-3.52,0 C 25.746,20.734, 25.914,19.396, 25.97,18z M 25.97,16c-0.056-1.396-0.224-2.734-0.492-4l 3.52,0 c 0.522,1.246, 0.844,2.594, 0.952,4L 25.97,16 z M 11.378,5.296C 10.42,6.578, 9.622,8.176, 9.042,10l-2.98,0 C 7.36,7.98, 9.202,6.346, 11.378,5.296z M 6.062,24l 2.98,0 c 0.58,1.824, 1.376,3.422, 2.336,4.704C 9.202,27.654, 7.36,26.020, 6.062,24z M 22.622,28.704 c 0.958-1.282, 1.756-2.88, 2.336-4.704l 2.98,0 C 26.64,26.020, 24.798,27.654, 22.622,28.704z"></path></g></svg>