<?xml version="1.0" encoding="utf-8"?> <!-- Generator: IcoMoon.io --> <!DOCTYPE svg PUBLIC "-//W3C//DTD SVG 1.1//EN" "http://www.w3.org/Graphics/SVG/1.1/DTD/svg11.dtd"> <svg width="32" height="32" viewBox="0 0 32 32" xmlns="http://www.w3.org/2000/svg" xmlns:xlink="http://www.w3.org/1999/xlink" fill="#000000"><g><path d="M 22,15.684L 19.874,16.434L 18,15.684L 18,19.56 C 18,23.308, 20.692,26, 24,26s 6-2.692, 6-6L 30,16 l-4,0 l0,4 c0,1.102-0.898,2-2,2 c-1.102,0-2-0.898-2-2.438L 22,15.684 zM 8,26c 3.308,0, 6-2.692, 6-6L 14,12 c0-1.102, 0.898-2, 2-2C 17.1,10, 18,10.896, 18,11.56L 18,13.5 l 1.876,0.75L 22,13.5L 22,11.56 C 22,8.69, 19.308,6, 16,6S 10,8.69, 10,12l0,8 c0,1.102-0.898,2-2,2c-1.102,0-2-0.898-2-2L 6,16 L 2,16 l0,4 C 2,23.308, 4.692,26, 8,26z"></path></g></svg>