<?xml version="1.0" encoding="utf-8"?> <!-- Generator: IcoMoon.io --> <!DOCTYPE svg PUBLIC "-//W3C//DTD SVG 1.1//EN" "http://www.w3.org/Graphics/SVG/1.1/DTD/svg11.dtd"> <svg width="32" height="32" viewBox="0 0 32 32" xmlns="http://www.w3.org/2000/svg" xmlns:xlink="http://www.w3.org/1999/xlink" fill="#000000"><g><path d="M 14.116,10.33c-1.844,0-3.68,0.224-5.462,0.666C 8.064,11.142, 7.706,11.854, 7.852,12.442 s 0.742,0.948, 1.332,0.802c 1.608-0.398, 3.268-0.6, 4.934-0.6c 3.196,0, 6.258,0.718, 9.1,2.136c 0.158,0.078, 0.324,0.116, 0.49,0.116 c 0.404,0, 0.792-0.338, 0.986-0.724c 0.27-0.542, 0.050-1.204-0.494-1.474C 21.048,11.126, 17.656,10.33, 14.116,10.33zM 14.116,19.632c-1.486,0-2.954,0.222-4.364,0.656c-0.436,0.134-0.678,1.058-0.544,1.492 c 0.134,0.436, 0.596,0.68, 1.032,0.544c 1.25-0.388, 2.556-0.584, 3.876-0.584c 2.204,0, 4.386,0.56, 6.308,1.618 c 0.126,0.070, 0.262,0.102, 0.398,0.102c 0.292,0, 0.574-0.154, 0.722-0.428c 0.22-0.398, 0.076-1.362-0.324-1.582 C 19.056,20.262, 16.598,19.632, 14.116,19.632zM 22.658,17.218c-2.618-1.36-5.572-2.080-8.54-2.080c-1.656,0-3.304,0.22-4.894,0.654 c-0.512,0.14-0.814,1.014-0.674,1.526c 0.14,0.512, 0.668,0.814, 1.182,0.674c 1.424-0.388, 2.902-0.586, 4.386-0.586 c 2.7,0, 5.274,0.628, 7.654,1.864c 0.142,0.074, 0.292,0.108, 0.442,0.108c 0.348,0, 0.682-0.536, 0.854-0.864 C 23.312,18.044, 23.128,17.462, 22.658,17.218zM 16,0C 7.164,0,0,7.164,0,16s 7.164,16, 16,16s 16-7.164, 16-16C 32,7.162, 24.836,0, 16,0z M 16,28c-6.628,0-12-5.372-12-12 c0-6.628, 5.372-12, 12-12s 12,5.372, 12,12C 28,22.628, 22.628,28, 16,28z"></path></g></svg>