<?xml version="1.0" encoding="utf-8"?> <!-- Generator: IcoMoon.io --> <!DOCTYPE svg PUBLIC "-//W3C//DTD SVG 1.1//EN" "http://www.w3.org/Graphics/SVG/1.1/DTD/svg11.dtd"> <svg width="32" height="32" viewBox="0 0 32 32" xmlns="http://www.w3.org/2000/svg" xmlns:xlink="http://www.w3.org/1999/xlink" fill="#000000"><g><path d="M 16,0C 7.164,0,0,7.164,0,16s 7.164,16, 16,16s 16-7.164, 16-16C 32,7.162, 24.836,0, 16,0z M 16,11.712 c-0.788,0-1.43,0.642-1.43,1.43l0,5.718 c0,2.364-1.924,4.288-4.288,4.288c-2.364,0-4.288-1.924-4.288-4.288L 5.994,16 l 2.858,0 l0,2.858 c0,0.788, 0.642,1.43, 1.43,1.43c 0.788,0, 1.43-0.642, 1.43-1.43L 11.712,13.142 c0-2.364, 1.924-4.288, 4.288-4.288s 4.288,1.924, 4.288,3.976 l0,1.386 L 18.456,14.75L 17.428,14.214L 17.428,12.828 C 17.428,12.354, 16.786,11.712, 16,11.712z M 26.004,18.858c0,2.364-1.924,4.288-4.288,4.288 s-4.288-1.924-4.288-4.602L 17.428,15.776 l 1.028,0.536l 1.832-0.536l0,2.77 c0,1.1, 0.642,1.742, 1.43,1.742s 1.43-0.642, 1.43-1.43L 23.148,16 l 2.858,0 L 26.006,18.858 z"></path></g></svg>