<?xml version="1.0" encoding="utf-8"?> <!-- Generator: IcoMoon.io --> <!DOCTYPE svg PUBLIC "-//W3C//DTD SVG 1.1//EN" "http://www.w3.org/Graphics/SVG/1.1/DTD/svg11.dtd"> <svg width="32.555999755859375" height="32" viewBox="0 0 32.555999755859375 32" xmlns="http://www.w3.org/2000/svg" xmlns:xlink="http://www.w3.org/1999/xlink" fill="#000000"><g><path d="M 22.742,10.448C 19.16,9.608, 15.28,9.644, 11.306,10.244C 11.162,10.266, 11.020,10.288, 10.878,10.312l-1.32-2.446 c-1.286,0.172-2.494,0.44-3.612,0.796l 1.258,2.632C 5.148,12.090, 3.462,13.224, 2.246,14.588c-2.008,2.28-2.802,5.15-1.838,7.946 c 0.194,0.564, 0.456,1.098, 0.78,1.6l 14.94-4.104L 11.98,12.348C 12.122,12.32, 12.268,12.292, 12.416,12.266c 6.708-1.196, 10.378,0.652, 12.388,2.62 l-5.112,1.24L 17.558,12.716c-1.22-0.072-2.628,0.002-4.258,0.28l 3.76,6.778L 32,15.672c-0.162-0.384-0.396-0.758-0.708-1.118 C 29.746,12.764, 26.394,11.168, 22.742,10.448z M 5.46,19.572C 4.998,17.468, 5.366,15.118, 8.286,13.554l 2.286,4.78L 5.46,19.572z"></path></g></svg>