<?xml version="1.0" encoding="utf-8"?> <!-- Generator: IcoMoon.io --> <!DOCTYPE svg PUBLIC "-//W3C//DTD SVG 1.1//EN" "http://www.w3.org/Graphics/SVG/1.1/DTD/svg11.dtd"> <svg width="32" height="32" viewBox="0 0 32 32" xmlns="http://www.w3.org/2000/svg" xmlns:xlink="http://www.w3.org/1999/xlink" fill="#000000"><g><path d="M 30.616,16.078c0-8.072-6.58-14.618-14.694-14.618c-0.806,0-1.598,0.066-2.366,0.192 c-1.38-0.9-3.022-1.422-4.788-1.422C 3.922,0.23,0,4.156,0,9c0,1.762, 0.518,3.4, 1.412,4.774c-0.12,0.752-0.182,1.52-0.182,2.304 c0,8.074, 6.576,14.618, 14.692,14.618c 0.916,0, 1.808-0.090, 2.674-0.246c 1.346,0.836, 2.934,1.322, 4.634,1.322 c 4.846,0, 8.77-3.926, 8.77-8.77c0-1.83-0.56-3.532-1.522-4.94C 30.566,17.412, 30.616,16.75, 30.616,16.078z M 17.296,26.85 c-4.67,0.244-6.854-0.79-8.856-2.668c-2.236-2.098-1.338-4.49, 0.484-4.612c 1.82-0.122, 2.912,2.064, 3.884,2.67 c 0.97,0.606, 4.662,1.986, 6.612-0.244c 2.124-2.426-1.412-3.682-4.004-4.062C 11.716,17.386, 7.044,15.386, 7.408,11.44 C 7.772,7.5, 10.756,5.476, 13.898,5.192c 4.004-0.364, 6.612,0.606, 8.674,2.366c 2.384,2.034, 1.094,4.306-0.424,4.488 c-1.514,0.182-3.212-3.344-6.55-3.396C 12.158,8.596, 9.834,12.23, 14.080,13.262c 4.248,1.032, 8.796,1.456, 10.436,5.338 S 21.97,26.606, 17.296,26.85z"></path></g></svg>