<?xml version="1.0" encoding="utf-8"?> <!-- Generator: IcoMoon.io --> <!DOCTYPE svg PUBLIC "-//W3C//DTD SVG 1.1//EN" "http://www.w3.org/Graphics/SVG/1.1/DTD/svg11.dtd"> <svg width="32" height="32" viewBox="0 0 32 32" xmlns="http://www.w3.org/2000/svg" xmlns:xlink="http://www.w3.org/1999/xlink" fill="#000000"><g><path d="M 26,0L 6,0 C 2.686,0,0,2.686,0,6l0,20 c0,3.314, 2.686,6, 6,6l 20,0 c 3.314,0, 6-2.686, 6-6L 32,6 C 32,2.686, 29.314,0, 26,0z M 10.112,20.008c-2.242,0-4.058-1.816-4.058-4.058s 1.816-4.058, 4.058-4.058c 2.242,0, 4.058,1.816, 4.058,4.058 S 12.354,20.008, 10.112,20.008z M 21.93,20.008c-2.242,0-4.058-1.816-4.058-4.058s 1.816-4.058, 4.058-4.058 c 2.242,0, 4.058,1.816, 4.058,4.058S 24.172,20.008, 21.93,20.008z"></path></g></svg>