<?xml version="1.0" encoding="utf-8"?> <!-- Generator: IcoMoon.io --> <!DOCTYPE svg PUBLIC "-//W3C//DTD SVG 1.1//EN" "http://www.w3.org/Graphics/SVG/1.1/DTD/svg11.dtd"> <svg width="32" height="32" viewBox="0 0 32 32" xmlns="http://www.w3.org/2000/svg" xmlns:xlink="http://www.w3.org/1999/xlink" fill="#000000"><g><path d="M 16,0C 7.164,0,0,7.164,0,16s 7.164,16, 16,16s 16-7.164, 16-16C 32,7.162, 24.836,0, 16,0z M 25.83,19.582 c-0.108,1.332-1.118,3.032-2.534,3.278c-4.526,0.35-9.898,0.308-14.59,0c-1.464-0.184-2.426-1.948-2.534-3.278 c-0.228-2.796-0.228-4.388,0-7.184C 6.28,11.068, 7.266,9.314, 8.706,9.154c 4.638-0.39, 10.036-0.306, 14.59,0 c 1.632,0.060, 2.426,1.738, 2.534,3.070C 26.056,15.020, 26.056,16.786, 25.83,19.582zM 14,20L 20,16L 14,12 z"></path></g></svg>