<?xml version="1.0" encoding="utf-8"?> <!-- Generator: IcoMoon.io --> <!DOCTYPE svg PUBLIC "-//W3C//DTD SVG 1.1//EN" "http://www.w3.org/Graphics/SVG/1.1/DTD/svg11.dtd"> <svg width="32.183998107910156" height="32" viewBox="0 0 32.183998107910156 32" xmlns="http://www.w3.org/2000/svg" xmlns:xlink="http://www.w3.org/1999/xlink" fill="#000000"><g><path d="M 27.672,5.046c-7.286-0.49-15.924-0.624-23.344,0C 2.024,5.304, 0.446,8.108, 0.274,10.238 c-0.364,4.474-0.364,7.020,0,11.494c 0.174,2.13, 1.712,4.95, 4.056,5.246c 7.508,0.492, 16.102,0.56, 23.344,0 c 2.268-0.394, 3.882-3.116, 4.056-5.246c 0.364-4.474, 0.364-7.298,0-11.774C 31.554,7.828, 30.282,5.142, 27.672,5.046z M 12,21.66L 12,10.19 l 10,5.736L 12,21.66z"></path></g></svg>