<?xml version="1.0" encoding="utf-8"?> <!-- Generator: IcoMoon.io --> <!DOCTYPE svg PUBLIC "-//W3C//DTD SVG 1.1//EN" "http://www.w3.org/Graphics/SVG/1.1/DTD/svg11.dtd"> <svg width="32" height="32" viewBox="0 0 32 32" xmlns="http://www.w3.org/2000/svg" xmlns:xlink="http://www.w3.org/1999/xlink" fill="#000000"><g><path d="M 30,0L 16,0 L 2,0 L 1.424,0 C 0.64,0,0,0.64,0,1.426L0,2 l0,14 l0,14 c0,1.104, 0.896,2, 2,2l 14.022,0 L 30,32 l 0.576,0 C 31.36,32, 32,31.36, 32,30.574L 32,30 L 32,16.046 L 32,2 C 32,0.896, 31.104,0, 30,0z M 16.022,16.046L 16.022,30 L 2,30 L 2,16 l 14,0 L 16,2 l 14,0 l0,14.046 L 16.022,16.046 z"></path></g></svg>