<?xml version="1.0" encoding="utf-8"?> <!-- Generator: IcoMoon.io --> <!DOCTYPE svg PUBLIC "-//W3C//DTD SVG 1.1//EN" "http://www.w3.org/Graphics/SVG/1.1/DTD/svg11.dtd"> <svg width="32" height="32" viewBox="0 0 32 32" xmlns="http://www.w3.org/2000/svg" xmlns:xlink="http://www.w3.org/1999/xlink" fill="#000000"><g><path d="M 26,0L 6,0 C 2.686,0,0,2.686,0,6l0,20 c0,3.314, 2.686,6, 6,6l 20,0 c 3.314,0, 6-2.686, 6-6L 32,6 C 32,2.686, 29.314,0, 26,0z M 12,23.75L 8,23.75 l0-14 l 4,0 L 12,23.75 z M 10.124,8.892c-1.036,0-1.874-0.84-1.874-1.876c0-1.036, 0.84-1.876, 1.874-1.876 C 11.16,5.142, 12,5.982, 12,7.016C 12,8.052, 11.16,8.892, 10.124,8.892z M 26,23.75l-4,0 L 22,15.094 c0-1.014-0.29-1.724-1.536-1.724 C 18.398,13.37, 18,15.094, 18,15.094l0,8.656 L 14,23.75 l0-14 l 4,0 l0,1.338 c 0.572-0.438, 2-1.336, 4-1.336c 1.298,0, 4,0.776, 4,5.464L 26,23.75 z"></path></g></svg>