<?xml version="1.0" encoding="utf-8"?> <!-- Generator: IcoMoon.io --> <!DOCTYPE svg PUBLIC "-//W3C//DTD SVG 1.1//EN" "http://www.w3.org/Graphics/SVG/1.1/DTD/svg11.dtd"> <svg width="32" height="32" viewBox="0 0 32 32" xmlns="http://www.w3.org/2000/svg" xmlns:xlink="http://www.w3.org/1999/xlink" fill="#000000"><g><path d="M 29.932,12l-1.756,0 l-0.038,0 C 27.040,12, 26.076,11.070, 26,10c0-5.708-4.602-10-10.35-10L 10.406,0 C 4.662,0, 0.004,4.626,0,10.334l0,11.338 C0,27.378, 4.662,32, 10.406,32l 11.2,0 C 27.354,32, 32,27.378, 32,21.67L 32,14.346 C 32,13.206, 31.080,12, 29.932,12z M 10,8l 6,0 c 1.1,0, 2,0.9, 2,2S 17.1,12, 16,12L 10,12 C 8.9,12, 8,11.1, 8,10S 8.9,8, 10,8z M 22,24L 10,24 c-1.1,0-2-0.9-2-2 s 0.9-2, 2-2l 12,0 c 1.1,0, 2,0.9, 2,2S 23.1,24, 22,24z"></path></g></svg>