<?xml version="1.0" encoding="utf-8"?> <!-- Generator: IcoMoon.io --> <!DOCTYPE svg PUBLIC "-//W3C//DTD SVG 1.1//EN" "http://www.w3.org/Graphics/SVG/1.1/DTD/svg11.dtd"> <svg width="32" height="32" viewBox="0 0 32 32" xmlns="http://www.w3.org/2000/svg" xmlns:xlink="http://www.w3.org/1999/xlink" fill="#000000"><g><path d="M 2.064,10L 8,10L 8,32L 2.064,32zM 20.174,10.002C 18,10.002, 16.916,11.038, 16,11.74L 16,10 L 10.032,10 l0,22 L 16,32 L 16,18.15 c0,0-0.218-2.758, 3.088-2.758 C 21.080,15.392, 22,16.526, 22,18.15L 22,32 l 6.288,0 L 28.288,18.344 C 28.288,10.844, 22.25,10.002, 20.174,10.002zM 2,5A3,3 1080 1 0 8,5A3,3 1080 1 0 2,5z"></path></g></svg>