<?xml version="1.0" encoding="utf-8"?> <!-- Generator: IcoMoon.io --> <!DOCTYPE svg PUBLIC "-//W3C//DTD SVG 1.1//EN" "http://www.w3.org/Graphics/SVG/1.1/DTD/svg11.dtd"> <svg width="32" height="32" viewBox="0 0 32 32" xmlns="http://www.w3.org/2000/svg" xmlns:xlink="http://www.w3.org/1999/xlink" fill="#000000"><g><path d="M 26,0L 6,0 C 2.686,0,0,2.686,0,6l0,20 c0,3.314, 2.686,6, 6,6l 20,0 c 3.314,0, 6-2.686, 6-6L 32,6 C 32,2.686, 29.314,0, 26,0z M 16,11.712c-0.788,0-1.43,0.642-1.43,1.43l0,5.718 c0,2.364-1.924,4.288-4.288,4.288c-2.364,0-4.288-1.924-4.288-4.288L 5.994,16 l 2.858,0 l0,2.858 c0,0.788, 0.642,1.43, 1.43,1.43c 0.788,0, 1.43-0.642, 1.43-1.43L 11.712,13.142 c0-2.364, 1.924-4.288, 4.288-4.288 s 4.288,1.924, 4.288,3.976l0,1.386 L 18.456,14.75L 17.428,14.214L 17.428,12.828 C 17.428,12.354, 16.786,11.712, 16,11.712z M 26.004,18.858 c0,2.364-1.924,4.288-4.288,4.288s-4.288-1.924-4.288-4.602L 17.428,15.776 l 1.028,0.536l 1.832-0.536l0,2.77 c0,1.1, 0.642,1.742, 1.43,1.742 s 1.43-0.642, 1.43-1.43L 23.148,16 l 2.858,0 L 26.006,18.858 z"></path></g></svg>