<?xml version="1.0" encoding="utf-8"?> <!-- Generator: IcoMoon.io --> <!DOCTYPE svg PUBLIC "-//W3C//DTD SVG 1.1//EN" "http://www.w3.org/Graphics/SVG/1.1/DTD/svg11.dtd"> <svg width="32" height="32" viewBox="0 0 32 32" xmlns="http://www.w3.org/2000/svg" xmlns:xlink="http://www.w3.org/1999/xlink" fill="#000000"><g><path d="M 8,29.858L 8,15.68 l-6.684,6.682C 2.686,25.52, 5.044,28.148, 8,29.858zM 10,30.836C 11.852,31.586, 13.878,32, 16,32c 5.922,0, 11.092-3.218, 13.858-8L 10,24 L 10,30.836 zM 13.32,7L 8.296,1.974C 3.35,4.696,0,9.956,0,16c0,1.328, 0.162,2.618, 0.468,3.852L 13.32,7zM 22,1.164C 20.146,0.414, 18.122,0, 16,0C 14.108,0, 12.294,0.33, 10.61,0.932L 22,12.32L 22,1.164 zM 24,2.142L 24,22 l 6.836,0 C 31.586,20.146, 32,18.122, 32,16C 32,10.078, 28.782,4.908, 24,2.142z"></path></g></svg>