<?xml version="1.0" encoding="utf-8"?> <!-- Generator: IcoMoon.io --> <!DOCTYPE svg PUBLIC "-//W3C//DTD SVG 1.1//EN" "http://www.w3.org/Graphics/SVG/1.1/DTD/svg11.dtd"> <svg width="32" height="32" viewBox="0 0 32 32" xmlns="http://www.w3.org/2000/svg" xmlns:xlink="http://www.w3.org/1999/xlink" fill="#000000"><g><path d="M 26,0L 6,0 C 2.686,0,0,2.686,0,6l0,20 c0,3.314, 2.686,6, 6,6l 20,0 c 3.314,0, 6-2.686, 6-6L 32,6 C 32,2.686, 29.314,0, 26,0z M 19.086,7.982l 5.296,9.176L 18.212,17.158 L 12.914,7.982L 19.086,7.982 z M 6.744,18.672L 12.038,9.5l 3.084,5.346l-5.294,9.172L 6.744,18.672z M 22.17,24.018L 11.964,24.018 l 3.084-5.346l 10.208,0 L 22.17,24.018z"></path></g></svg>