<?xml version="1.0" encoding="utf-8"?> <!-- Generator: IcoMoon.io --> <!DOCTYPE svg PUBLIC "-//W3C//DTD SVG 1.1//EN" "http://www.w3.org/Graphics/SVG/1.1/DTD/svg11.dtd"> <svg width="32" height="32" viewBox="0 0 32 32" xmlns="http://www.w3.org/2000/svg" xmlns:xlink="http://www.w3.org/1999/xlink" fill="#000000"><g><path d="M 16,0C 7.164,0,0,7.164,0,16s 7.164,16, 16,16s 16-7.164, 16-16C 32,7.162, 24.836,0, 16,0z M 26,16.022L 26,25 l0,0.288 C 26,25.68, 25.68,26, 25.288,26L 25,26 L 16.012,26 L 7,26 C 6.448,26, 6,25.552, 6,25L 6,16.022 L 6,7 L 6,6.712 C 6,6.32, 6.32,6, 6.712,6L 7,6 l 9.012,0 L 25,6 C 25.552,6, 26,6.448, 26,7L 26,16.022 zM 8,16.022L 16.012,16.022L 16.012,24L 8,24zM 16.012,8L 24,8L 24,16.022L 16.012,16.022z"></path></g></svg>