<svg width="82" height="82" viewBox="0 0 82 82" fill="none" xmlns="http://www.w3.org/2000/svg">
<g clip-path="url(#clip0)">
<path d="M80.7988 39.7988H61.4519V37.0602H66.673C67.3296 37.0602 67.8742 36.5156 67.8742 35.859C67.8742 35.2023 67.3296 34.6578 66.673 34.6578H61.4519V31.9191H65.0714C66.4167 31.9191 67.698 31.3906 68.6429 30.4457L76.5386 22.55C77.0511 22.8062 77.6277 22.9504 78.2203 22.9504C79.2293 22.9504 80.1742 22.566 80.8789 21.8453C81.5835 21.1406 81.9839 20.1797 81.9839 19.1867C81.9839 18.1938 81.5996 17.2328 80.8789 16.5281C80.1742 15.8234 79.2132 15.423 78.2203 15.423C77.2273 15.423 76.2664 15.8074 75.5617 16.5281C74.857 17.2328 74.4566 18.1938 74.4566 19.1867C74.4566 19.7793 74.6007 20.3559 74.857 20.8684L66.9613 28.7641C66.4648 29.2605 65.7921 29.5328 65.0875 29.5328H61.4679V26.8902C61.4679 23.3988 58.6332 20.548 55.1257 20.548H52.4832V9.91367C53.9726 9.41719 55.0457 8.00781 55.0457 6.34219C55.0457 4.26016 53.348 2.57852 51.282 2.57852C49.216 2.57852 47.5183 4.27617 47.5183 6.34219C47.5183 8.00781 48.5914 9.41719 50.0808 9.91367V20.548H47.3421V15.327C47.3421 14.6703 46.7976 14.1258 46.141 14.1258C45.4843 14.1258 44.9398 14.6703 44.9398 15.327V20.548H42.2011V1.20117C42.2011 0.544531 41.6566 0 41 0C40.3433 0 39.7988 0.544531 39.7988 1.20117V20.548H37.0601V15.327C37.0601 14.6703 36.5156 14.1258 35.8589 14.1258C35.2023 14.1258 34.6578 14.6703 34.6578 15.327V20.548H31.9191V16.9285C31.9191 15.5832 31.3906 14.318 30.4457 13.357L22.55 5.44531C23.2546 4.03594 23.0144 2.27422 21.8453 1.10508C20.3718 -0.368359 17.9855 -0.368359 16.5121 1.10508C15.0386 2.57852 15.0386 4.96484 16.5121 6.43828C17.2488 7.175 18.2097 7.54336 19.1707 7.54336C19.7472 7.54336 20.3238 7.41523 20.8523 7.14297L28.748 15.0387C29.2445 15.5352 29.5168 16.2078 29.5168 16.9125V20.532H26.8742C26.3457 20.532 25.8011 20.5961 25.2886 20.7242C24.648 20.8844 24.2636 21.541 24.4238 22.1816C24.5839 22.8223 25.2406 23.2066 25.8812 23.0465C26.2015 22.9664 26.5378 22.9184 26.8582 22.9184H55.1097C57.2718 22.9184 59.0496 24.6801 59.0496 26.8582V55.1098C59.0496 55.4461 59.0015 55.7664 58.9214 56.0867C58.7613 56.7273 59.1457 57.384 59.7863 57.5441C59.8824 57.5762 59.9945 57.5762 60.0906 57.5762C60.6191 57.5762 61.1156 57.2238 61.2597 56.6793C61.3878 56.1668 61.4519 55.6383 61.4519 55.0938V52.4512H72.0863C72.5828 53.9406 73.9921 55.0137 75.6578 55.0137C77.7398 55.0137 79.4214 53.316 79.4214 51.25C79.4214 49.184 77.7238 47.4863 75.6578 47.4863C73.9921 47.4863 72.5828 48.5594 72.0863 50.0488H61.4519V47.3102H66.673C67.3296 47.3102 67.8742 46.7656 67.8742 46.109C67.8742 45.4523 67.3296 44.9078 66.673 44.9078H61.4519V42.1691H80.7988C81.4554 42.1691 82 41.6246 82 40.968C82 40.3113 81.4554 39.7988 80.7988 39.7988ZM77.2593 18.2098C77.5156 17.9535 77.8679 17.8094 78.2203 17.8094C78.5726 17.8094 78.925 17.9535 79.1812 18.2098C79.4375 18.466 79.5816 18.8184 79.5816 19.1707C79.5816 19.523 79.4375 19.8754 79.1812 20.1316C78.925 20.3879 78.5726 20.532 78.2203 20.532C77.8679 20.532 77.5156 20.3879 77.2593 20.1316C77.0031 19.8754 76.8589 19.523 76.8589 19.1707C76.8589 18.8184 77.0031 18.466 77.2593 18.2098ZM51.266 4.96484C52.0187 4.96484 52.6273 5.57344 52.6273 6.32617C52.6273 7.07891 52.0187 7.6875 51.266 7.6875C50.5132 7.6875 49.9046 7.07891 49.9046 6.32617C49.9046 5.57344 50.5132 4.96484 51.266 4.96484ZM18.2097 4.74062C17.6812 4.21211 17.6812 3.34727 18.2097 2.80273C18.482 2.53047 18.8183 2.40234 19.1707 2.40234C19.523 2.40234 19.8753 2.53047 20.1316 2.80273C20.6601 3.33125 20.6601 4.19609 20.1316 4.74062C19.6031 5.26914 18.7382 5.26914 18.2097 4.74062ZM75.6578 49.9047C76.4105 49.9047 77.0191 50.5133 77.0191 51.266C77.0191 52.0187 76.4105 52.6273 75.6578 52.6273C74.905 52.6273 74.2964 52.0187 74.2964 51.266C74.2964 50.5133 74.905 49.9047 75.6578 49.9047Z" fill="#FF8A00"/>
<path d="M61.1477 74.857L53.252 66.9613C52.7555 66.4648 52.4832 65.7922 52.4832 65.0875V61.468H55.1258C55.6543 61.468 56.1988 61.4039 56.7113 61.2758C57.352 61.1156 57.7363 60.459 57.5762 59.8184C57.416 59.1777 56.7594 58.7934 56.1187 58.9535C55.7984 59.0336 55.4621 59.0816 55.1418 59.0816H26.8742C24.7121 59.0816 22.9344 57.3199 22.9344 55.1418V26.8742C22.9344 26.5379 22.9824 26.2016 23.0625 25.8973C23.2227 25.2567 22.8383 24.6 22.1977 24.4399C21.557 24.2797 20.9004 24.6641 20.7402 25.3047C20.6121 25.8172 20.548 26.3457 20.548 26.8903V29.5328H9.91367C9.41719 28.0434 8.00781 26.9703 6.34219 26.9703C4.26016 26.9703 2.57852 28.668 2.57852 30.734C2.57852 32.8 4.27617 34.4977 6.34219 34.4977C8.00781 34.4977 9.41719 33.4246 9.91367 31.9352H20.548V34.6738H15.327C14.6703 34.6738 14.1258 35.2184 14.1258 35.875C14.1258 36.5317 14.6703 37.0762 15.327 37.0762H20.548V39.8149H1.20117C0.544531 39.8149 0 40.3594 0 41.016C0 41.6727 0.544531 42.2172 1.20117 42.2172H20.548V44.9559H15.327C14.6703 44.9559 14.1258 45.5004 14.1258 46.157C14.1258 46.8137 14.6703 47.3582 15.327 47.3582H20.548V50.0969H16.9285C15.5832 50.0969 14.318 50.6254 13.357 51.5703L5.44531 59.45C4.93281 59.1938 4.35625 59.0496 3.76367 59.0496C2.75469 59.0496 1.80977 59.434 1.10508 60.1547C0.384375 60.8754 0 61.8203 0 62.8293C0 63.8383 0.384375 64.7832 1.10508 65.4879C1.80977 66.1926 2.7707 66.593 3.76367 66.593C4.75664 66.593 5.71758 66.2086 6.42227 65.4879C7.12695 64.7832 7.52734 63.8223 7.52734 62.8293C7.52734 62.2367 7.3832 61.6602 7.12695 61.1477L15.0227 53.252C15.5191 52.7555 16.1918 52.4832 16.8965 52.4832H20.516V55.1258C20.516 58.6172 23.3508 61.468 26.8582 61.468H29.5008V72.1023C28.0113 72.5988 26.9383 74.0082 26.9383 75.6738C26.9383 77.7558 28.6359 79.4375 30.702 79.4375C32.768 79.4375 34.4656 77.7398 34.4656 75.6738C34.4656 74.0082 33.3926 72.5988 31.9031 72.1023V61.468H34.6418V66.6891C34.6418 67.3457 35.1863 67.8902 35.843 67.8902C36.4996 67.8902 37.0441 67.3457 37.0441 66.6891V61.468H39.7828V80.8148C39.7828 81.4715 40.3273 82.016 40.984 82.016C41.6406 82.016 42.1852 81.4715 42.1852 80.8148V61.452H44.9238V66.673C44.9238 67.3297 45.4684 67.8742 46.125 67.8742C46.7816 67.8742 47.3262 67.3297 47.3262 66.673V61.452H50.0648V65.0715C50.0648 66.4168 50.5934 67.698 51.5383 68.643L59.434 76.5387C58.7293 77.948 58.9695 79.7098 60.1387 80.8789C60.8754 81.6156 61.8363 81.984 62.7973 81.984C63.7582 81.984 64.7352 81.6156 65.4559 80.8789C66.9293 79.4055 66.9293 77.0191 65.4559 75.5457C64.3187 74.3926 62.557 74.1523 61.1477 74.857ZM6.34219 32.0953C5.58945 32.0953 4.98086 31.4867 4.98086 30.734C4.98086 29.9813 5.58945 29.3727 6.34219 29.3727C7.09492 29.3727 7.70352 29.9813 7.70352 30.734C7.70352 31.4867 7.09492 32.0953 6.34219 32.0953ZM4.74062 63.7902C4.48438 64.0465 4.13203 64.1906 3.77969 64.1906C3.42734 64.1906 3.075 64.0465 2.81875 63.7902C2.5625 63.534 2.41836 63.1816 2.41836 62.8293C2.41836 62.4769 2.5625 62.1246 2.81875 61.8684C3.075 61.6121 3.42734 61.468 3.77969 61.468C4.13203 61.468 4.48438 61.6121 4.74062 61.8684C4.99688 62.1246 5.14102 62.4769 5.14102 62.8293C5.14102 63.1816 4.99688 63.534 4.74062 63.7902ZM30.734 77.0351C29.9812 77.0351 29.3727 76.4266 29.3727 75.6738C29.3727 74.9211 29.9812 74.3125 30.734 74.3125C31.4867 74.3125 32.0953 74.9211 32.0953 75.6738C32.0953 76.4266 31.4867 77.0351 30.734 77.0351ZM63.7902 79.1973C63.2617 79.7258 62.3969 79.7258 61.8523 79.1973C61.3238 78.6687 61.3238 77.8039 61.8523 77.2594C62.1246 76.9871 62.4609 76.859 62.8133 76.859C63.1656 76.859 63.518 76.9871 63.7742 77.2594C64.3187 77.8039 64.3187 78.6687 63.7902 79.1973Z" fill="#FF8A00"/>
<path d="M31.1344 49.9846C31.1344 52.7713 33.6168 55.0456 36.6758 55.0456C38.4215 55.0456 39.9911 54.2928 41.0161 53.1237C42.025 54.2928 43.5946 55.0456 45.3563 55.0456C48.2871 55.0456 50.7055 52.9475 50.8817 50.3049C52.6594 49.2639 53.7805 47.4542 53.7805 45.5002C53.7805 44.0588 53.1719 42.6815 52.1149 41.6565C53.1719 40.6155 53.7805 39.2381 53.7805 37.8127C53.7805 35.2502 51.9067 33.0721 49.3282 32.3674C49.4082 32.0471 49.4403 31.7268 49.4403 31.4065C49.4403 28.9721 47.2782 27.0022 44.6356 27.0022C43.1942 27.0022 41.9129 27.5788 41.0321 28.5077C40.1512 27.5948 38.8539 27.0022 37.4286 27.0022C34.77 27.0022 32.6239 28.9881 32.6239 31.4065C32.6239 31.7428 32.6719 32.0631 32.736 32.3674C30.1575 33.0721 28.2836 35.2502 28.2836 37.8127C28.2836 39.062 28.7321 40.2471 29.5489 41.2241C28.7481 42.2651 28.2836 43.5303 28.2836 44.8596C28.2516 46.8936 29.3407 48.7995 31.1344 49.9846ZM34.4657 34.4975C34.4817 34.4975 34.4817 34.4975 34.4977 34.4975C34.77 34.4975 35.0422 34.4014 35.2665 34.2092C35.7309 33.8249 35.827 33.1522 35.5067 32.6557C35.4907 32.6397 35.4907 32.6237 35.4747 32.6077L35.4586 32.5917C35.4426 32.5596 35.4266 32.5436 35.3946 32.5116C35.1864 32.2713 34.9622 31.887 34.9622 31.3584C34.9622 30.2534 36.0512 29.3565 37.3645 29.3565C38.6778 29.3565 39.7668 30.2534 39.7668 31.3584C39.7668 32.0151 40.3114 32.5596 40.968 32.5596C41.6247 32.5596 42.1692 32.0151 42.1692 31.3584C42.1692 30.2534 43.2582 29.3565 44.5715 29.3565C45.8848 29.3565 46.9739 30.2534 46.9739 31.3584C46.9739 31.6467 46.8938 31.903 46.7977 32.1112C46.109 32.1752 45.4524 32.3354 44.8278 32.6077C44.2192 32.8639 43.9309 33.5686 44.1871 34.1772C44.4434 34.7858 45.1481 35.0741 45.7567 34.8178C46.2692 34.5936 46.8297 34.4815 47.4223 34.4815C47.4383 34.4815 47.4383 34.4815 47.4543 34.4815C47.4703 34.4815 47.4704 34.4815 47.4864 34.4815C49.6004 34.4975 51.3141 35.9709 51.3141 37.7807C51.3141 38.9178 50.6254 39.9588 49.4723 40.5674C49.0719 40.7756 48.8317 41.192 48.8317 41.6245C48.8317 42.0569 49.0719 42.4733 49.4723 42.6815C50.6254 43.2901 51.3141 44.3311 51.3141 45.4682C51.3141 46.317 50.9137 47.1178 50.2571 47.7264C49.6325 46.5573 48.5114 45.6284 47.102 45.1799C46.4614 44.9877 45.7887 45.3401 45.5965 45.9647C45.4043 46.6053 45.7567 47.278 46.3813 47.4702C47.5985 47.8545 48.4313 48.8475 48.4313 49.9526C48.4313 51.41 47.0219 52.5952 45.2922 52.5952C43.5625 52.5952 42.1532 51.41 42.1532 49.9526V42.2811C42.1532 40.8237 43.5625 39.6385 45.2922 39.6385C45.9489 39.6385 46.4934 39.094 46.4934 38.4374C46.4934 37.7807 45.9489 37.2362 45.2922 37.2362C44.1231 37.2362 43.05 37.5725 42.1532 38.1331V36.5956C42.1532 35.9389 41.6086 35.3944 40.952 35.3944C40.2954 35.3944 39.7508 35.9389 39.7508 36.5956V43.2581C39.3504 43.0018 38.902 42.7936 38.4215 42.6495C37.7809 42.4573 37.1082 42.8096 36.9161 43.4342C36.7239 44.0749 37.0762 44.7475 37.7008 44.9397C38.918 45.3241 39.7508 46.317 39.7508 47.4221V49.9846C39.7508 51.442 38.3415 52.6272 36.6118 52.6272C34.8821 52.6272 33.4727 51.442 33.4727 49.9846C33.4727 49.36 33.745 48.7514 34.2254 48.2709C34.6899 47.8065 34.7059 47.0377 34.2254 46.5733C33.745 46.1088 32.9922 46.0928 32.5278 46.5733C32.2395 46.8616 31.9993 47.1659 31.7911 47.5022C31.0383 46.7815 30.5899 45.8366 30.5899 44.8596C30.5899 43.0819 31.9833 41.5124 33.9852 41.0639C34.6258 40.9198 35.0422 40.2792 34.8821 39.6225C34.7379 38.9819 34.0813 38.5655 33.4407 38.7256C32.6399 38.9178 31.8872 39.2221 31.2305 39.6225C30.7981 39.094 30.5739 38.4534 30.5739 37.8127C30.654 35.987 32.3516 34.5135 34.4657 34.4975Z" fill="#FF8A00"/>
</g>
<defs>
<clipPath id="clip0">
<rect width="82" height="82" fill="white"/>
</clipPath>
</defs>
</svg>
