<?xml version="1.0" encoding="utf-8"?>
<!-- Generator: Adobe Illustrator 22.0.1, SVG Export Plug-In . SVG Version: 6.00 Build 0)  -->
<svg version="1.1" id="Слой_1" xmlns="http://www.w3.org/2000/svg" xmlns:xlink="http://www.w3.org/1999/xlink" x="0px" y="0px"
	 viewBox="0 0 63 63" style="enable-background:new 0 0 63 63;" xml:space="preserve">
<style type="text/css">
	.st0{fill:#FF8A00;}
</style>
<path class="st0" d="M63,20.9c0-2.7-2.3-4.8-5.1-4.6c-1.1,0.1-2.1,0.7-2.8,1.5L48.8,24v-9.8c3.6-0.5,6.4-3.8,6-7.7
	C54.5,2.8,51.3,0,47.5,0H7.1C3.2,0,0,3.2,0,7.1v50.8c0,0.6,0.4,1,1,1h5.1v3c0,0.6,0.4,1,1,1h40.6c0.6,0,1-0.4,1-1V37l9.8-9.8l1-1
	c-0.5,2.6-1.8,5-3.7,7l-4.2,4.1c-0.4,0.4-0.4,1,0,1.5c0.4,0.4,1,0.4,1.5,0l4.1-4.1c2.8-2.8,4.5-6.7,4.6-10.8
	C62.7,23,63,21.9,63,20.9z M56.5,19.1c0.6-0.6,1.5-0.9,2.4-0.7c0.9,0.2,1.7,0.9,2,2c0.2,0.9-0.1,1.7-0.7,2.4l-2.3,2.3l-3.6-3.6
	L56.5,19.1z M52.8,22.8l1.1,1.1L41.2,36.7L40,35.6L52.8,22.8z M28.7,49.6l2.1-4.1l3.1,3.1l-4.1,2.1L28.7,49.6z M31.9,43.7l6.7-6.7
	l3.6,3.6l-6.7,6.7L31.9,43.7z M47.7,2.1c3,0,5.4,2.7,5,5.8c-0.3,2.6-2.7,4.4-5.2,4.4H12.1c1.3-1.3,2.2-3.1,2.2-5.1
	c0-2-0.9-3.8-2.2-5.1H47.7z M8.1,12.1V9.1c0-0.5,0.4-1,1-1h2.9C11.7,10.1,10.1,11.7,8.1,12.1z M2.1,56.9V7.3c0-2.7,2.1-5.1,4.7-5.3
	c2.6-0.2,4.8,1.6,5.4,4.1H9.2c-1.7,0-3,1.4-3,3v47.7H2.1z M46.8,60.9H8.1V14.2h38.6V26l-4.4,4.5H13.2c-0.6,0-1,0.4-1,1s0.4,1,1,1h27
	l-2,2h-25c-0.6,0-1,0.4-1,1c0,0.6,0.4,1,1,1h23L29.8,43c-0.1,0.1-0.2,0.2-0.2,0.3l-3,6.1c-0.2,0.4-0.1,0.9,0.2,1.2l0.3,0.3l-1.6,1.6
	c-0.4,0.4-0.4,1,0,1.5c0.4,0.4,1,0.4,1.5,0l1.6-1.6l0.3,0.3c0.2,0.2,0.4,0.3,0.7,0.3c0.2,0,0.3,0,0.4-0.1l6.1-3
	c0.1-0.1,0.2-0.1,0.3-0.2l8.1-8.1l2.3-2.3L46.8,60.9L46.8,60.9z M43.7,39.2l-1.1-1.1l12.8-12.8l1.1,1.1L43.7,39.2z"/>
<path class="st0" d="M13.2,18.3h28.5c0.6,0,1,0.4,1,1c0,0.6-0.4,1-1,1H13.2c-0.6,0-1-0.4-1-1C12.2,18.7,12.7,18.3,13.2,18.3z"/>
<path class="st0" d="M13.2,22.4h28.5c0.6,0,1,0.4,1,1c0,0.6-0.4,1-1,1H13.2c-0.6,0-1-0.4-1-1C12.2,22.8,12.7,22.4,13.2,22.4z"/>
<path class="st0" d="M13.2,26.4h28.5c0.6,0,1,0.4,1,1s-0.4,1-1,1H13.2c-0.6,0-1-0.4-1-1S12.7,26.4,13.2,26.4z"/>
<path class="st0" d="M13.2,50.8h9.1c0.6,0,1,0.4,1,1c0,0.6-0.4,1-1,1h-9.1c-0.6,0-1-0.4-1-1C12.2,51.3,12.7,50.8,13.2,50.8z"/>
<path class="st0" d="M13.2,54.9h28.5c0.6,0,1,0.4,1,1c0,0.6-0.4,1-1,1H13.2c-0.6,0-1-0.4-1-1C12.2,55.3,12.7,54.9,13.2,54.9z"/>
</svg>
