<svg width="68" height="68" viewBox="0 0 68 68" fill="none" xmlns="http://www.w3.org/2000/svg">
<path d="M31.7335 64.5999H30.6001C29.9768 64.5999 29.4668 64.0899 29.4668 63.4666C29.4668 62.8433 29.9768 62.3333 30.6001 62.3333H31.7335C32.3568 62.3333 32.8668 62.8433 32.8668 63.4666C32.8668 64.0899 32.3568 64.5999 31.7335 64.5999Z" fill="#FF8A00"/>
<path d="M37.4 64.5999H35.1333C34.51 64.5999 34 64.0899 34 63.4666C34 62.8433 34.51 62.3333 35.1333 62.3333H37.4C38.0233 62.3333 38.5333 62.8433 38.5333 63.4666C38.5333 64.0899 38.0233 64.5999 37.4 64.5999Z" fill="#FF8A00"/>
<path d="M57.7999 64.5999H56.6665C56.0432 64.5999 55.5332 64.0899 55.5332 63.4666C55.5332 62.8433 56.0432 62.3333 56.6665 62.3333H57.7999C58.4232 62.3333 58.9332 62.8433 58.9332 63.4666C58.9332 64.0899 58.4232 64.5999 57.7999 64.5999Z" fill="#FF8A00"/>
<path d="M63.4666 64.5999H62.3333C61.71 64.5999 61.2 64.0899 61.2 63.4666C61.2 62.8433 61.71 62.3333 62.3333 62.3333H63.4666C64.0899 62.3333 64.5999 62.8433 64.5999 63.4666C64.5999 64.0899 64.0899 64.5999 63.4666 64.5999Z" fill="#FF8A00"/>
<path d="M11.3332 64.5999H4.53324C3.9099 64.5999 3.3999 64.0899 3.3999 63.4666C3.3999 62.8433 3.9099 62.3333 4.53324 62.3333H11.3332C11.9566 62.3333 12.4666 62.8433 12.4666 63.4666C12.4666 64.0899 11.9566 64.5999 11.3332 64.5999Z" fill="#FF8A00"/>
<path d="M43.0665 21.5333C43.0665 17.8689 40.8565 14.5633 37.4754 13.1656C34.0943 11.7678 30.1843 12.5422 27.5965 15.13C25.0088 17.7178 24.2343 21.6278 25.6321 25.0089C27.0299 28.39 30.3354 30.6 33.9999 30.6C39.0054 30.6 43.0665 26.5389 43.0665 21.5333ZM27.1999 21.5333C27.1999 18.7756 28.8621 16.3011 31.3932 15.2433C33.9432 14.1856 36.8521 14.7711 38.7977 16.7167C40.7432 18.6622 41.3288 21.59 40.271 24.1211C39.2132 26.6711 36.7388 28.3144 33.981 28.3144C30.241 28.3333 27.1999 25.2922 27.1999 21.5333Z" fill="#FF8A00"/>
<path d="M35.1334 4.5332H32.8667V6.79987H35.1334V4.5332Z" fill="#FF8A00"/>
<path d="M21.1743 10.3133L22.7799 8.70776L24.3854 10.3133L22.7799 11.9189L21.1743 10.3133Z" fill="#FF8A00"/>
<path d="M19.2667 20.3999H17V22.6666H19.2667V20.3999Z" fill="#FF8A00"/>
<path d="M21.1743 32.7535L22.7799 31.1479L24.3854 32.7535L22.7799 34.3591L21.1743 32.7535Z" fill="#FF8A00"/>
<path d="M35.1334 36.2666H32.8667V38.5333H35.1334V36.2666Z" fill="#FF8A00"/>
<path d="M43.6145 32.7535L45.2201 31.1479L46.8256 32.7535L45.2201 34.3591L43.6145 32.7535Z" fill="#FF8A00"/>
<path d="M51.0001 20.3999H48.7334V22.6666H51.0001V20.3999Z" fill="#FF8A00"/>
<path d="M43.6145 10.3133L45.2201 8.70776L46.8256 10.3133L45.2201 11.9189L43.6145 10.3133Z" fill="#FF8A00"/>
<path d="M31.7335 58.9333H30.6001C29.9768 58.9333 29.4668 59.4434 29.4668 60.0667C29.4668 60.69 29.9768 61.2 30.6001 61.2H31.7335C32.3568 61.2 32.8668 60.69 32.8668 60.0667C32.8668 59.4434 32.3568 58.9333 31.7335 58.9333Z" fill="#FF8A00"/>
<path d="M35.1333 61.2H37.4C38.0233 61.2 38.5333 60.69 38.5333 60.0667C38.5333 59.4434 38.0233 58.9333 37.4 58.9333H35.1333C34.51 58.9333 34 59.4434 34 60.0667C34 60.69 34.51 61.2 35.1333 61.2Z" fill="#FF8A00"/>
<path d="M66.8667 55.5333H61.2V49.8667C61.2 49.2433 60.69 48.7333 60.0667 48.7333H35.1333V43.0667H38.5333C39.1567 43.0667 39.6667 42.5567 39.6667 41.9333V36.3611C39.9311 36.2667 40.1956 36.1533 40.4789 36.0211L44.4267 39.9689C44.88 40.4033 45.5789 40.4033 46.0322 39.9689L52.4544 33.5467C52.8889 33.1122 52.8889 32.3944 52.4544 31.9411L48.5067 27.9933C48.62 27.7289 48.7333 27.4456 48.8467 27.1811H54.4C55.0233 27.1811 55.5333 26.6711 55.5333 26.0478V17C55.5333 16.3767 55.0233 15.8667 54.4 15.8667H48.8278C48.7333 15.6022 48.62 15.3378 48.4878 15.0544L52.4356 11.1067C52.87 10.6722 52.87 9.95444 52.4356 9.50111L46.0133 3.07889C45.5789 2.64444 44.8611 2.64444 44.4078 3.07889L40.46 7.02667C40.1956 6.91333 39.9122 6.8 39.6478 6.68667V1.13333C39.6478 0.51 39.1378 0 38.5144 0H29.4478C28.8244 0 28.3144 0.51 28.3144 1.13333V6.70556C28.05 6.8 27.7856 6.91333 27.5022 7.04556L23.5544 3.09778C23.1011 2.66333 22.4022 2.66333 21.9489 3.09778L15.5267 9.52C15.0922 9.95444 15.0922 10.6722 15.5267 11.1256L19.4744 15.0733C19.3611 15.3378 19.2478 15.6211 19.1344 15.8856H13.6C12.9767 15.8856 12.4667 16.3956 12.4667 17.0189V26.0856C12.4667 26.7089 12.9767 27.2189 13.6 27.2189H19.1722C19.2667 27.4833 19.38 27.7478 19.5122 28.0311L15.5644 31.9789C15.13 32.4133 15.13 33.1311 15.5644 33.5844L21.9867 40.0067C22.4211 40.4411 23.1389 40.4411 23.5922 40.0067L27.54 36.0589C27.8044 36.1722 28.0878 36.2856 28.3522 36.3989V41.9333C28.3522 42.5567 28.8622 43.0667 29.4856 43.0667H32.8856V48.7333H7.93333C7.31 48.7333 6.8 49.2433 6.8 49.8667V55.5333H1.13333C0.51 55.5333 0 56.0433 0 56.6667V66.8667C0 67.49 0.51 68 1.13333 68H14.7333C15.3567 68 15.8667 67.49 15.8667 66.8667V56.6667C15.8667 56.0433 15.3567 55.5333 14.7333 55.5333H9.06667V51H32.8667V55.5333H27.2C26.5767 55.5333 26.0667 56.0433 26.0667 56.6667V66.8667C26.0667 67.49 26.5767 68 27.2 68H40.8C41.4233 68 41.9333 67.49 41.9333 66.8667V56.6667C41.9333 56.0433 41.4233 55.5333 40.8 55.5333H35.1333V51H58.9333V55.5333H53.2667C52.6433 55.5333 52.1333 56.0433 52.1333 56.6667V66.8667C52.1333 67.49 52.6433 68 53.2667 68H66.8667C67.49 68 68 67.49 68 66.8667V56.6667C68 56.0433 67.49 55.5333 66.8667 55.5333ZM29.8067 34.4722C29.1078 34.2456 28.4467 33.9622 27.7856 33.6411C27.3511 33.4144 26.8222 33.5089 26.4822 33.8489L22.78 37.5511L17.9633 32.7344L21.6656 29.0322C22.0056 28.6922 22.1 28.1633 21.8733 27.7289C21.5522 27.0867 21.2689 26.4067 21.0422 25.7078C20.8911 25.2356 20.4567 24.9144 19.9656 24.9144H14.7333V18.1333H19.9844C20.4756 18.1333 20.91 17.8122 21.0611 17.34C21.2878 16.6411 21.5711 15.98 21.8922 15.3189C22.1189 14.8844 22.0244 14.3556 21.6844 14.0156L17.9633 10.3133L22.78 5.49667L26.4822 9.19889C26.8222 9.53889 27.3511 9.63333 27.7856 9.40667C28.4278 9.08556 29.1078 8.80222 29.7878 8.57556C30.26 8.42445 30.5811 7.99 30.5811 7.49889V2.26667H37.3811V7.51778C37.3811 8.00889 37.7022 8.44333 38.1744 8.59444C38.8733 8.82111 39.5344 9.10444 40.1956 9.42556C40.63 9.65222 41.1589 9.55778 41.4989 9.21778L45.2011 5.51556L50.0178 10.3322L46.3156 14.0344C45.9756 14.3744 45.8811 14.9033 46.1078 15.3378C46.4289 15.98 46.7122 16.66 46.9389 17.3589C47.09 17.8311 47.5244 18.1522 48.0156 18.1522H53.2667V24.9522H48.0156C47.5244 24.9522 47.09 25.2733 46.9389 25.7456C46.7122 26.4444 46.4289 27.1056 46.1078 27.7667C45.8811 28.2011 45.9756 28.73 46.3156 29.07L50.0178 32.7722L45.2011 37.5889L41.4989 33.8867C41.1589 33.5467 40.63 33.4522 40.1956 33.6789C39.5533 34 38.8733 34.2833 38.1744 34.51C37.7022 34.6611 37.3811 35.0956 37.3811 35.5867V40.8H30.5811V35.5489C30.6 35.0578 30.2789 34.6233 29.8067 34.4722ZM13.6 65.7333H2.26667V57.8H13.6V65.7333ZM39.6667 65.7333H28.3333V57.8H39.6667V65.7333ZM65.7333 65.7333H54.4V57.8H65.7333V65.7333Z" fill="#FF8A00"/>
<path d="M57.7999 58.9333H56.6665C56.0432 58.9333 55.5332 59.4434 55.5332 60.0667C55.5332 60.69 56.0432 61.2 56.6665 61.2H57.7999C58.4232 61.2 58.9332 60.69 58.9332 60.0667C58.9332 59.4434 58.4232 58.9333 57.7999 58.9333Z" fill="#FF8A00"/>
<path d="M62.3333 61.2H63.4666C64.0899 61.2 64.5999 60.69 64.5999 60.0667C64.5999 59.4434 64.0899 58.9333 63.4666 58.9333H62.3333C61.71 58.9333 61.2 59.4434 61.2 60.0667C61.2 60.69 61.71 61.2 62.3333 61.2Z" fill="#FF8A00"/>
<path d="M3.3999 60.0667C3.3999 60.69 3.9099 61.2 4.53324 61.2H11.3332C11.9566 61.2 12.4666 60.69 12.4666 60.0667C12.4666 59.4433 11.9566 58.9333 11.3332 58.9333H4.53324C3.9099 58.9333 3.3999 59.4433 3.3999 60.0667Z" fill="#FF8A00"/>
<path d="M62.3334 2.26662H59.8589C59.3112 0.698838 57.7056 -0.226718 56.0812 0.0566158C54.4567 0.339949 53.2478 1.75662 53.2478 3.39995C53.2478 5.04328 54.4378 6.47884 56.0812 6.74328C57.7056 7.02662 59.3112 6.08217 59.8589 4.53328H62.3334C64.2034 4.53328 65.7334 6.06328 65.7334 7.93328V38.5333C65.7334 40.4033 64.2034 41.9333 62.3334 41.9333H58.7256C58.1778 40.3655 56.5723 39.44 54.9478 39.7233C53.3234 40.0066 52.1145 41.4233 52.1145 43.0666C52.1145 44.7288 53.3045 46.1455 54.9478 46.41C56.5723 46.6933 58.1778 45.7488 58.7256 44.2H62.3334C65.469 44.2 68.0001 41.6688 68.0001 38.5333V7.93328C68.0001 4.79773 65.469 2.26662 62.3334 2.26662ZM56.6667 4.53328C56.2134 4.53328 55.7978 4.24995 55.6278 3.83439C55.4578 3.41884 55.5523 2.92773 55.8734 2.60662C56.1945 2.28551 56.6856 2.19106 57.1012 2.36106C57.5167 2.53106 57.8001 2.94662 57.8001 3.39995C57.8001 4.02328 57.2901 4.53328 56.6667 4.53328ZM55.5334 44.2C55.0801 44.2 54.6645 43.9166 54.4945 43.5011C54.3245 43.0855 54.4189 42.5944 54.7401 42.2733C55.0612 41.9522 55.5523 41.8577 55.9678 42.0277C56.3834 42.1977 56.6667 42.6133 56.6667 43.0666C56.6667 43.69 56.1567 44.2 55.5334 44.2Z" fill="#FF8A00"/>
<path d="M5.66667 44.2017H9.27444C9.82222 45.7694 11.4278 46.695 13.0522 46.4117C14.6767 46.1283 15.8856 44.7117 15.8856 43.0683C15.8856 41.4061 14.6956 39.9894 13.0522 39.725C11.4278 39.4417 9.82222 40.3861 9.27444 41.935H5.66667C3.79667 41.935 2.26667 40.405 2.26667 38.535V7.93499C2.26667 6.06499 3.79667 4.53499 5.66667 4.53499H8.14111C8.68889 6.10277 10.2944 7.02832 11.9189 6.74499C13.5433 6.46166 14.7522 5.04499 14.7522 3.40166C14.7522 1.75832 13.5622 0.322769 11.9189 0.0583248C10.2944 -0.225009 8.68889 0.700547 8.14111 2.26832H5.66667C2.53111 2.26832 0 4.79944 0 7.93499V38.535C0 41.6705 2.53111 44.2017 5.66667 44.2017ZM12.4667 41.935C12.92 41.935 13.3356 42.2183 13.5056 42.6339C13.6756 43.0494 13.5811 43.5405 13.26 43.8616C12.9389 44.1828 12.4478 44.2772 12.0322 44.1072C11.6167 43.9372 11.3333 43.5217 11.3333 43.0683C11.3333 42.445 11.8433 41.935 12.4667 41.935ZM11.3333 2.26832C11.7867 2.26832 12.2022 2.55166 12.3722 2.96721C12.5422 3.38277 12.4478 3.87388 12.1267 4.19499C11.8056 4.5161 11.3144 4.61055 10.8989 4.44055C10.4833 4.27055 10.2 3.85499 10.2 3.40166C10.2 2.77832 10.71 2.26832 11.3333 2.26832Z" fill="#FF8A00"/>
</svg>
