<svg width="73" height="73" viewBox="0 0 73 73" fill="none" xmlns="http://www.w3.org/2000/svg">
<g clip-path="url(#clip0)">
<path d="M42.3872 52.9838C42.3872 50.6094 40.9546 48.4508 38.7568 47.5481C36.5589 46.6454 34.0275 47.136 32.3399 48.8236C30.6522 50.5113 30.1616 53.0427 31.0643 55.2406C31.967 57.4384 34.1256 58.8709 36.5001 58.8709C39.7576 58.8709 42.3872 56.2414 42.3872 52.9838ZM36.5001 56.5161C35.0675 56.5161 33.792 55.6527 33.2425 54.3379C32.6931 53.0231 33.0071 51.4924 34.0079 50.4916C35.0087 49.4908 36.5393 49.1768 37.8541 49.7263C39.1689 50.2758 40.0323 51.5513 40.0323 52.9838C40.0323 54.9266 38.4428 56.5161 36.5001 56.5161Z" fill="#FF8A00"/>
<path d="M41.504 58.8711H31.4959C28.415 58.8711 25.9032 61.3829 25.9032 64.4638V71.8227C25.9032 72.4703 26.433 73.0001 27.0806 73.0001H45.9193C46.5669 73.0001 47.0967 72.4703 47.0967 71.8227V64.4638C47.0967 61.3829 44.5849 58.8711 41.504 58.8711ZM44.7419 70.6453H42.3871V65.9356C42.3871 65.288 41.8572 64.7582 41.2096 64.7582C40.5621 64.7582 40.0322 65.288 40.0322 65.9356V70.6453H32.9677V65.9356C32.9677 65.288 32.4379 64.7582 31.7903 64.7582C31.1427 64.7582 30.6129 65.288 30.6129 65.9356V70.6453H28.258V64.4638C28.258 62.6781 29.7102 61.2259 31.4959 61.2259H41.504C43.2898 61.2259 44.7419 62.6781 44.7419 64.4638V70.6453Z" fill="#FF8A00"/>
<path d="M42.387 5.88715C42.387 3.51269 40.9545 1.35409 38.7567 0.4514C36.5588 -0.451288 34.0274 0.0393029 32.3397 1.72694C30.6521 3.41457 30.1615 5.94602 31.0642 8.14387C31.9669 10.3417 34.1255 11.7742 36.4999 11.7742C39.7575 11.7742 42.387 9.14468 42.387 5.88715ZM36.4999 9.41941C35.0674 9.41941 33.7919 8.55597 33.2424 7.24118C32.693 5.9264 33.0069 4.39575 34.0077 3.39495C35.0085 2.39414 36.5392 2.08016 37.854 2.62963C39.1688 3.17909 40.0322 4.45463 40.0322 5.88715C40.0322 7.82989 38.4427 9.41941 36.4999 9.41941Z" fill="#FF8A00"/>
<path d="M41.504 11.7742H31.4959C28.415 11.7742 25.9032 14.286 25.9032 17.3669V24.7258C25.9032 25.3734 26.433 25.9032 27.0806 25.9032H45.9193C46.5669 25.9032 47.0967 25.3734 47.0967 24.7258V17.3669C47.0967 14.286 44.5849 11.7742 41.504 11.7742ZM44.7419 23.5484H42.3871V18.8387C42.3871 18.1911 41.8572 17.6613 41.2096 17.6613C40.5621 17.6613 40.0322 18.1911 40.0322 18.8387V23.5484H32.9677V18.8387C32.9677 18.1911 32.4379 17.6613 31.7903 17.6613C31.1427 17.6613 30.6129 18.1911 30.6129 18.8387V23.5484H28.258V17.3669C28.258 15.5812 29.7102 14.129 31.4959 14.129H41.504C43.2898 14.129 44.7419 15.5812 44.7419 17.3669V23.5484Z" fill="#FF8A00"/>
<path d="M16.4838 29.4355C16.4838 27.061 15.0513 24.9024 12.8535 23.9997C10.6556 23.0971 8.12417 23.5876 6.43653 25.2753C4.7489 26.9629 4.25831 29.4944 5.16099 31.6922C6.06368 33.8901 8.22229 35.3226 10.5967 35.3226C13.8543 35.3226 16.4838 32.693 16.4838 29.4355ZM10.5967 32.9678C9.16422 32.9678 7.88868 32.1043 7.33922 30.7895C6.78976 29.4747 7.10374 27.9441 8.10454 26.9433C9.10535 25.9425 10.636 25.6285 11.9508 26.178C13.2656 26.7274 14.129 28.003 14.129 29.4355C14.129 31.3782 12.5395 32.9678 10.5967 32.9678Z" fill="#FF8A00"/>
<path d="M20.0161 49.4518C20.6637 49.4518 21.1935 48.922 21.1935 48.2744V40.9155C21.1935 37.8346 18.6817 35.3228 15.6008 35.3228H5.59274C2.51183 35.3228 0 37.8346 0 40.9155V48.2744C0 48.922 0.529839 49.4518 1.17742 49.4518H20.0161ZM2.35484 40.9155C2.35484 39.1297 3.80699 37.6776 5.59274 37.6776H15.6008C17.3866 37.6776 18.8387 39.1297 18.8387 40.9155V47.097H16.4839V42.3873C16.4839 41.7397 15.954 41.2099 15.3065 41.2099C14.6589 41.2099 14.129 41.7397 14.129 42.3873V47.097H7.06452V42.3873C7.06452 41.7397 6.53468 41.2099 5.8871 41.2099C5.23952 41.2099 4.70968 41.7397 4.70968 42.3873V47.097H2.35484V40.9155Z" fill="#FF8A00"/>
<path d="M68.2904 29.4355C68.2904 27.061 66.8578 24.9024 64.66 23.9997C62.4621 23.0971 59.9307 23.5876 58.2431 25.2753C56.5554 26.9629 56.0648 29.4944 56.9675 31.6922C57.8702 33.8901 60.0288 35.3226 62.4033 35.3226C65.6608 35.3226 68.2904 32.693 68.2904 29.4355ZM62.4033 32.9678C60.9707 32.9678 59.6952 32.1043 59.1457 30.7895C58.5963 29.4747 58.9103 27.9441 59.9111 26.9433C60.9119 25.9425 62.4425 25.6285 63.7573 26.178C65.0721 26.7274 65.9355 28.003 65.9355 29.4355C65.9355 31.3782 64.346 32.9678 62.4033 32.9678Z" fill="#FF8A00"/>
<path d="M67.4072 35.3228H57.3991C54.3182 35.3228 51.8064 37.8346 51.8064 40.9155V48.2744C51.8064 48.922 52.3362 49.4518 52.9838 49.4518H71.8225C72.4701 49.4518 73 48.922 73 48.2744V40.9155C73 37.8346 70.4881 35.3228 67.4072 35.3228ZM70.6451 47.097H68.2903V42.3873C68.2903 41.7397 67.7604 41.2099 67.1129 41.2099C66.4653 41.2099 65.9354 41.7397 65.9354 42.3873V47.097H58.8709V42.3873C58.8709 41.7397 58.3411 41.2099 57.6935 41.2099C57.0459 41.2099 56.5161 41.7397 56.5161 42.3873V47.097H54.1612V40.9155C54.1612 39.1297 55.6134 37.6776 57.3991 37.6776H67.4072C69.193 37.6776 70.6451 39.1297 70.6451 40.9155V47.097Z" fill="#FF8A00"/>
<path d="M21.8019 60.6372C18.7406 58.7729 16.0522 56.32 13.8936 53.4549C13.6973 53.1998 13.4226 53.0428 13.1086 53.0036C12.7946 52.9643 12.4807 53.0428 12.2452 53.2194C11.9901 53.4157 11.8331 53.6904 11.7938 54.0044C11.7546 54.3183 11.8331 54.6323 12.0097 54.8678C14.3449 57.988 17.2492 60.6175 20.5852 62.6584C21.1347 62.992 21.8608 62.8154 22.214 62.2659C22.528 61.6968 22.3514 60.9904 21.8019 60.6372Z" fill="#FF8A00"/>
<path d="M60.7549 53.2194C60.2447 52.8269 59.499 52.925 59.1065 53.4549C56.9479 56.3395 54.2595 58.7729 51.1982 60.6371C50.6487 60.9707 50.4721 61.6968 50.8057 62.2659C51.1393 62.8153 51.8654 62.9919 52.4148 62.6583C55.7509 60.6371 58.6552 57.9879 60.9904 54.8678C61.1866 54.6127 61.2651 54.2987 61.2063 54.0043C61.167 53.6903 61.01 53.4156 60.7549 53.2194Z" fill="#FF8A00"/>
<path d="M46.6651 10.1259C51.6103 12.0294 55.9275 15.3065 59.1065 19.5452C59.499 20.0555 60.2447 20.1732 60.7549 19.7807C61.2651 19.3883 61.3829 18.6426 60.9904 18.1323C57.5366 13.5404 52.8858 10.0081 47.5286 7.92804C47.2342 7.81029 46.9006 7.81029 46.6259 7.94766C46.3315 8.0654 46.1157 8.30089 45.9979 8.59524C45.8802 8.88959 45.8998 9.2232 46.0176 9.49793C46.1353 9.79228 46.3708 10.0278 46.6651 10.1259Z" fill="#FF8A00"/>
<path d="M12.2451 19.7807C12.7554 20.1731 13.5011 20.075 13.8935 19.5452C17.0726 15.3065 21.3898 12.049 26.3349 10.1258C26.6293 10.0081 26.8648 9.79223 27.0021 9.49788C27.1395 9.20352 27.1395 8.88954 27.0218 8.59519C26.904 8.30083 26.6882 8.06535 26.3938 7.94761C26.0994 7.82986 25.7855 7.81024 25.4911 7.92798C20.1142 10.0081 15.4438 13.5403 12.0097 18.1323C11.6172 18.6621 11.7153 19.3882 12.2451 19.7807Z" fill="#FF8A00"/>
<path d="M36.5 41.2098C38.4035 41.2098 40.1303 40.0717 40.8564 38.3055C41.5825 36.5394 41.19 34.5182 39.836 33.1641C38.4819 31.8101 36.4607 31.4176 34.6946 32.1437C32.9285 32.8698 31.7903 34.5967 31.7903 36.5002C31.7903 39.1101 33.89 41.2098 36.5 41.2098ZM36.5 34.1453C37.4615 34.1453 38.3053 34.7144 38.6782 35.5975C39.051 36.4805 38.8352 37.4813 38.168 38.1682C37.5008 38.8354 36.4803 39.0512 35.5973 38.6784C34.7142 38.3055 34.1451 37.4617 34.1451 36.5002C34.1451 35.205 35.2048 34.1453 36.5 34.1453Z" fill="#FF8A00"/>
</g>
<defs>
<clipPath id="clip0">
<rect width="73" height="73" fill="white"/>
</clipPath>
</defs>
</svg>
